ply
format ascii 1.0
comment https://github.com/mikedh/trimesh
element vertex 256
property float x
property float y
property float z
element face 508
property list uchar int vertex_indices
end_header
-2.70436311 -1.89619315 0.65948921
1.03659236 3.41210651 0.20131727
-2.86413431 -0.76797289 -1.41921651
-0.21197429 0.67672157 3.19729686
1.33471513 0.54999280 2.93736362
-1.04012704 2.63264871 1.97191703
-2.55206490 -1.66120219 -1.38354814
1.17521524 0.63187480 -2.99051952
-2.18180084 -2.38107634 1.12867987
-1.88246715 -2.71426630 1.04229915
0.97397166 -3.41769385 -0.36753628
3.19962788 -0.63388270 0.38881487
0.72621238 1.85474503 -2.70301318
-0.33977160 1.57026494 2.91713381
2.60211039 1.88790345 -1.00040591
-2.23148179 1.27268648 2.09103346
-1.15607905 -2.75683928 1.75949490
0.49522242 3.37851167 -1.02473068
0.94996065 3.17484975 1.22031248
1.12954295 1.36117518 2.80291224
-0.04936242 -3.60100913 0.14489591
2.78423572 -1.75093615 0.65762478
2.94008780 -0.35984188 -1.39777291
1.87961483 1.80588830 2.11305952
-0.57122737 1.17075694 3.03385353
1.48019218 2.32132268 -2.01392198
-0.97913510 0.49313304 3.08203793
-2.75939369 1.77909255 0.69901913
-2.01196432 0.63667291 -2.50855637
0.91170108 2.59804511 -2.07156563
3.06160355 0.35330647 1.11069667
2.84203672 0.56417614 1.53627574
1.45324814 -2.94715619 1.19763160
2.44580293 -2.39533210 0.02272516
2.28940582 2.38301682 0.88488328
1.33563840 1.58845282 -2.60907030
0.98711658 -2.19533205 -2.39451289
1.30373693 -2.57453108 -1.87810850
2.01510000 -2.27253103 1.54294753
2.52605987 -0.12832853 -2.07242465
-1.66286302 1.83245826 2.26849508
0.57154435 -0.10551667 3.21043420
-2.76582575 -1.50477290 1.09312916
2.63245010 -1.57201803 1.31689119
-3.11657071 -0.89906901 0.58189076
2.73069406 1.95784616 -0.31124666
1.27132964 -0.20789950 3.00024867
1.76711917 2.99018812 0.46737900
1.53206563 -0.73601580 2.80435967
-2.47364593 2.35903072 -0.07273786
-2.12241888 1.61214304 -2.00950694
0.09230097 3.35844684 1.17861462
0.17381246 2.88462496 1.94890809
-1.08649969 -1.85450947 -2.57991052
1.55787110 0.12495099 2.86668992
-2.48645568 1.04553258 -1.89973557
0.63407803 -3.33000278 1.07786882
0.81068552 -2.89056468 -1.77271307
2.31610823 2.54371381 0.12097600
1.71694458 1.86769867 -2.20498681
1.04047155 3.32582569 0.71404415
2.13372254 -2.02184701 -1.66550696
1.65713191 1.25903404 -2.57237077
-0.74659252 -0.53091848 3.14059877
2.26549292 -2.41502380 0.87651253
-0.19341040 -1.08025360 -3.10674834
1.91606295 0.31028163 -2.63065886
0.81149244 -3.42573476 0.60970461
2.70013666 -0.94504827 -1.63458061
-0.91794860 2.64495540 -2.01861429
3.21492100 0.41943941 0.48654559
-2.91961312 0.98845261 1.17384326
-3.04823923 0.41183478 1.13176572
1.81053746 -0.19313806 -2.71297884
-1.46561599 -2.59464860 -1.73060417
-0.25435162 -2.75354791 -2.08895111
2.23184109 1.03365040 -2.19667721
2.24967790 -0.29778755 2.35521126
2.02443075 0.61311769 2.50240183
2.14400911 -0.15547331 -2.46144748
-1.87873209 2.95203471 0.01352043
-0.72922707 1.58433008 -2.83831716
2.95881033 1.36772037 0.64599222
0.61744916 -2.75331259 2.01239038
0.35809889 -0.31139812 -3.23051882
-1.66751158 -2.59471345 1.53981948
0.50692374 2.24597859 -2.50075984
-1.97311449 1.22552955 -2.35583615
0.95196784 0.77603501 3.04163480
-0.98534799 1.43802154 2.82576346
-1.35822415 -3.27943015 -0.00842160
-2.49897027 -2.30995035 -0.26192629
-0.54322588 1.94249916 2.69473934
-3.03208494 0.40791094 -1.17377555
-0.64368826 3.42977715 -0.77039737
1.31619740 -3.29416227 0.18439533
-1.14196587 -0.79025459 2.97271323
1.68427372 2.95415831 -0.82055628
-0.08055832 -0.26613495 -3.25221372
2.68667197 -0.17566803 1.85856676
2.36279893 2.43091869 -0.50999367
-1.74331117 3.00643635 0.46591944
-2.50668073 -2.28618121 0.34674159
0.10710005 -1.95985210 -2.73627019
-0.54111379 -3.14405751 1.49994087
-0.61423016 0.89305300 -3.10022235
-1.52064109 1.32117414 -2.62941003
-1.51397133 -1.41115308 2.59555483
1.89271188 2.21967316 -1.74593771
1.27460122 2.62347150 1.84102142
-0.71390742 -2.88521433 1.82148874
-1.60614634 -0.02190194 2.84263253
2.84240198 1.47901630 -0.91020733
-2.49684405 -1.90159523 1.22034097
2.28033710 -2.50384068 -0.58600855
1.13718617 1.21498251 -2.85548520
3.17496419 -0.38609916 -0.71565956
3.25067520 -0.36258069 -0.21724615
1.02438414 -3.17199802 1.16329587
-1.16558182 3.29739904 -0.62301081
-0.17834654 3.45366931 -0.91575265
-2.51603675 1.98463321 1.06264746
-2.38010049 0.70073861 2.14876342
-2.36195755 2.36713099 0.71594316
-0.06858430 1.16177392 3.08811784
-1.71028328 -2.75614405 -1.23056281
-3.14861155 -0.87530041 -0.41650894
-0.47576869 -2.15389991 -2.57164288
1.81578314 -2.89107370 -0.71962649
-0.99337262 0.01544390 -3.10887909
-2.64441562 -0.03822038 1.92467034
-2.79606104 1.87442970 0.04118813
2.58498144 0.52121049 1.94570804
-1.97822988 -1.76571250 2.05123353
0.16198820 -3.38453174 1.10893893
1.55651748 -1.90815377 2.29166937
-2.08930993 2.15466881 -1.58227944
-2.18049645 -1.91494143 -1.70814073
0.45111030 -2.40062785 -2.39130163
-1.19676995 3.31956244 0.43526202
-1.63922083 2.34470582 1.86274540
-2.65551448 1.50705457 -1.33363664
0.97622901 3.29327679 -0.90164441
2.21498322 2.43961644 -0.94692618
1.14463401 3.02654338 -1.35690236
0.05095514 3.54651546 0.57719642
-3.04591513 1.14534211 -0.59584707
-0.47299004 -3.45206141 -0.80828774
-2.59450984 0.16527049 -1.98460662
-3.23810959 0.13123144 0.46979403
-2.13409114 -2.68613863 -0.45608348
2.76610637 1.52035820 1.07344627
-0.16924253 -3.05560279 -1.72156739
-0.40799946 -3.55103326 -0.38782582
-2.99921036 0.88867134 -1.03031957
-2.92474151 -1.56490338 -0.38014308
1.71489048 -2.29402184 -1.84769475
1.26228428 -3.20539570 0.80086833
-2.25558877 -1.20003998 2.10100460
2.40544891 1.29579985 -1.87740195
-2.72949648 -1.98909247 0.06280765
-2.63643956 -0.67392027 1.83602536
0.21208669 0.66550773 3.19958687
-2.10370827 -2.39473748 -1.24447191
2.05961704 -2.78762650 -0.25480890
3.26058960 -0.10436618 0.27576333
0.52887362 -3.16163850 1.47491252
-3.12767577 -0.32576135 0.91793823
1.71796143 2.80976605 1.11766660
-1.54232776 -2.13888502 2.12936282
2.48196840 0.33167395 -2.10619426
2.60087609 -2.13579535 -0.43640086
0.39684024 3.02137876 -1.73588884
-1.76769936 2.73122931 -1.19526029
2.72008157 -0.90550905 1.61946237
-1.04680920 -1.48595810 2.78301835
0.03579943 2.09935808 2.65173864
-1.60863554 -2.99001312 -0.86697191
-1.19329000 0.96432525 2.91059875
1.68513978 2.76206756 -1.25398147
0.70060158 2.13916183 2.53180552
-3.00658417 1.22928536 0.65677637
-2.30153298 0.18807881 -2.31378531
-3.13883948 -0.54454535 -0.78590804
3.02411675 0.91023904 -0.93995219
1.10742342 -1.24439681 -2.85651660
-0.67281687 3.09814477 1.52613711
-0.30059293 -1.11985755 3.08696413
-2.21993494 2.45051551 -0.91078019
2.08577156 -1.71235418 1.97917688
2.10231972 2.24545765 1.45616710
0.14011651 2.07871819 -2.66105628
-2.22490311 1.66504943 1.85896635
2.84655547 -1.73695743 -0.35376641
-0.00846038 2.94554067 -1.88052654
2.11195374 -1.47632504 -2.10461211
-0.75918400 -1.59320533 -2.82645345
0.51233238 -3.25736213 -1.29853308
-0.10836706 2.47419500 -2.36997700
1.93437231 -2.81386137 0.66497451
-2.67604208 -1.80835521 -0.92675751
0.22627063 -1.70068216 2.86760116
-2.36644554 -2.34899688 0.74822235
-1.67124856 0.19313788 -2.79950953
-2.12614298 -0.03721540 2.48084712
-0.97278202 -2.07895494 2.48251748
-0.00968483 -3.42405868 -1.01872802
-3.22748137 0.24446931 -0.50495952
-0.89982921 -3.44030714 0.37205768
1.00080454 -2.54801393 2.08100677
3.04220581 -1.31926644 -0.17522080
3.13733435 0.94535309 0.37639922
0.41359392 0.45789245 -3.21027756
-2.98458695 -0.79165781 1.13359892
2.33926654 -0.95398623 2.11272693
1.49434841 1.96877384 2.29209924
-0.88328880 0.50646484 -3.10750675
2.62678003 1.40417719 -1.47716594
0.75035119 -0.67171174 -3.11643291
0.76804787 -1.72910476 2.75922608
-0.77451617 -2.79196548 -1.91273463
0.93613231 -0.81009948 3.03835750
-1.47020626 2.72164702 -1.55821037
-0.01022219 -2.32975793 2.48911643
2.85944891 1.72968292 0.26954779
-0.89838934 -0.90933317 -3.02702284
-1.08354807 3.23685813 0.94703525
-0.56742847 3.54818916 0.08633465
0.70344001 3.51422787 -0.17888007
1.57965028 -2.48277903 1.76375461
1.83534324 -0.39494374 2.67712784
-1.58032417 2.30610538 -1.95036829
-2.63272429 -0.67805392 -1.83996582
-1.51991558 3.16263819 -0.39399356
1.82183933 2.98518181 -0.22095437
0.16375332 1.56893539 2.93244529
1.36699653 -1.39861619 2.68006968
3.00536990 -0.75993097 -1.09795892
2.11852646 -2.51351619 -1.00557864
-0.26269609 2.59395289 2.25027895
1.45005918 -2.99154568 -1.10765278
-1.07638478 2.25555205 2.30711055
1.68639338 2.31551909 1.85088170
3.20355725 0.60501033 -0.39594397
2.93953085 -1.17272270 0.96853489
0.29507878 2.71124864 -2.12920237
-1.52941597 -3.09063268 0.70402592
0.13032943 -2.78753638 2.06352210
2.95295405 1.50056064 -0.37470663
0.64454609 3.38776493 0.91069508
-1.85972691 2.73068571 1.04786789
-0.80358320 2.23739123 -2.42948890
2.67133307 -1.77578390 -0.98757845
2.81232047 0.53116041 -1.59996867
-0.02518731 3.58931971 -0.28998077
-0.58331263 -3.40857697 0.88439727
3 135 229 189
3 110 247 223
3 223 247 83
3 30 31 99
3 209 229 135
3 209 223 83
3 38 189 229
3 64 43 38
3 38 43 189
3 94 194 69
3 149 181 146
3 80 233 188
3 146 181 131
3 146 131 141
3 141 131 188
3 110 223 205
3 237 68 22
3 172 144 29
3 198 86 191
3 191 251 198
3 69 194 198
3 198 251 69
3 51 226 186
3 23 78 132
3 99 31 132
3 19 78 23
3 165 30 11
3 23 190 242
3 159 76 59
3 59 108 159
3 248 184 112
3 243 184 248
3 211 243 248
3 248 224 211
3 211 224 82
3 82 30 211
3 34 224 58
3 234 47 58
3 58 47 34
3 21 43 64
3 174 30 99
3 135 189 236
3 46 48 230
3 227 94 119
3 167 149 44
3 44 213 167
3 49 80 188
3 188 131 49
3 136 141 188
3 182 55 28
3 148 55 182
3 250 226 101
3 180 109 52
3 186 239 52
3 52 51 186
3 72 149 167
3 181 149 72
3 72 71 181
3 121 140 250
3 107 158 133
3 96 107 175
3 175 107 205
3 68 237 252
3 252 61 68
3 68 61 195
3 61 156 195
3 245 198 194
3 86 198 245
3 245 194 172
3 172 29 245
3 245 29 86
3 59 76 62
3 191 86 12
3 86 29 12
3 81 251 191
3 191 105 81
3 212 105 191
3 191 12 212
3 203 182 28
3 17 144 172
3 60 47 1
3 1 47 234
3 168 190 34
3 34 47 168
3 109 242 168
3 168 242 190
3 168 47 60
3 227 226 145
3 226 51 145
3 145 1 228
3 109 168 18
3 18 168 60
3 18 52 109
3 51 52 18
3 180 19 215
3 215 19 23
3 23 242 215
3 215 109 180
3 215 242 109
3 78 19 4
3 4 41 46
3 70 243 211
3 70 165 243
3 211 30 70
3 30 165 70
3 116 237 22
3 22 184 116
3 116 184 243
3 25 29 144
3 25 108 59
3 25 12 29
3 217 108 14
3 217 159 108
3 217 14 112
3 112 184 217
3 253 184 22
3 253 217 184
3 159 217 253
3 112 14 45
3 45 248 112
3 224 248 45
3 45 58 224
3 151 224 34
3 151 82 224
3 34 190 151
3 151 190 23
3 31 30 151
3 30 82 151
3 23 132 151
3 151 132 31
3 210 252 237
3 237 116 210
3 43 21 244
3 244 174 43
3 244 210 11
3 21 210 244
3 11 30 244
3 30 174 244
3 214 236 189
3 48 236 214
3 214 230 48
3 189 43 214
3 43 174 214
3 214 174 99
3 201 205 223
3 201 175 205
3 221 236 48
3 46 41 221
3 221 48 46
3 78 230 77
3 99 132 77
3 77 132 78
3 77 214 99
3 230 214 77
3 222 94 69
3 222 119 94
3 69 251 231
3 231 222 69
3 136 222 231
3 141 136 50
3 50 55 141
3 136 231 50
3 93 55 148
3 148 2 93
3 93 2 183
3 16 85 246
3 110 205 16
3 220 75 152
3 233 80 139
3 80 101 139
3 227 119 139
3 139 119 233
3 139 226 227
3 139 101 226
3 180 52 176
3 176 52 239
3 63 41 3
3 3 26 63
3 89 13 92
3 92 241 89
3 13 176 92
3 239 241 92
3 92 176 239
3 5 239 186
3 5 241 239
3 140 241 5
3 186 226 5
3 5 226 250
3 250 140 5
3 40 178 89
3 40 15 178
3 89 241 40
3 40 241 140
3 181 71 27
3 71 121 27
3 27 131 181
3 140 121 192
3 192 40 140
3 15 40 192
3 71 15 192
3 192 121 71
3 33 21 64
3 37 156 240
3 61 252 238
3 128 240 238
3 238 156 61
3 238 240 156
3 127 220 53
3 75 220 127
3 53 196 127
3 196 103 127
3 127 138 75
3 103 138 127
3 106 81 105
3 106 203 28
3 106 50 231
3 251 81 106
3 106 231 251
3 84 7 218
3 84 212 7
3 7 212 115
3 115 212 12
3 115 62 7
3 228 17 254
3 254 94 227
3 227 145 254
3 254 145 228
3 249 18 60
3 51 18 249
3 249 145 51
3 60 1 249
3 1 145 249
3 54 230 78
3 78 4 54
3 46 230 54
3 54 4 46
3 243 165 117
3 117 116 243
3 117 165 11
3 11 210 117
3 117 210 116
3 179 25 144
3 108 25 179
3 144 97 179
3 35 25 59
3 12 25 35
3 35 115 12
3 59 62 35
3 62 115 35
3 142 17 228
3 234 97 142
3 144 17 142
3 142 97 144
3 142 1 234
3 228 1 142
3 234 58 100
3 58 45 100
3 100 97 234
3 100 45 14
3 193 210 21
3 193 33 171
3 21 33 193
3 171 252 193
3 252 210 193
3 187 41 63
3 175 201 187
3 187 221 41
3 201 221 187
3 63 96 187
3 96 175 187
3 236 221 219
3 219 221 201
3 219 209 135
3 135 236 219
3 223 209 219
3 219 201 223
3 173 136 188
3 173 222 136
3 188 233 173
3 233 119 173
3 119 222 173
3 148 182 232
3 232 2 148
3 6 2 232
3 182 203 232
3 126 155 44
3 126 44 149
3 183 2 126
3 207 93 183
3 207 126 149
3 183 126 207
3 207 149 146
3 141 55 154
3 55 93 154
3 146 141 154
3 154 207 146
3 93 207 154
3 246 255 104
3 104 16 246
3 110 16 104
3 104 247 110
3 133 85 169
3 85 16 169
3 169 16 205
3 169 107 133
3 205 107 169
3 208 255 246
3 246 90 208
3 235 176 13
3 235 19 180
3 180 176 235
3 124 235 13
3 178 26 24
3 26 3 24
3 89 178 24
3 3 124 24
3 24 13 89
3 24 124 13
3 111 107 96
3 111 96 63
3 63 26 111
3 111 26 178
3 123 27 121
3 123 121 250
3 123 49 131
3 131 27 123
3 250 101 123
3 80 49 123
3 123 101 80
3 255 208 20
3 199 33 64
3 164 33 199
3 37 240 57
3 57 240 197
3 57 197 152
3 152 75 57
3 75 138 57
3 114 252 171
3 114 238 252
3 171 33 114
3 114 33 164
3 114 164 128
3 128 238 114
3 36 195 156
3 36 185 195
3 36 156 37
3 37 57 36
3 36 57 138
3 103 185 36
3 36 138 103
3 66 62 76
3 7 62 66
3 76 159 170
3 159 253 170
3 170 66 76
3 79 66 170
3 87 106 28
3 50 106 87
3 28 55 87
3 55 50 87
3 105 212 98
3 212 84 98
3 94 254 120
3 120 254 17
3 194 94 120
3 172 194 120
3 120 17 172
3 143 179 97
3 97 100 143
3 143 100 14
3 14 108 143
3 108 179 143
3 200 126 2
3 155 126 200
3 200 2 6
3 6 163 200
3 53 220 74
3 246 85 9
3 9 202 246
3 177 90 150
3 150 90 246
3 247 104 166
3 83 247 166
3 166 209 83
3 166 118 209
3 88 4 19
3 19 235 88
3 41 4 88
3 204 161 158
3 158 107 204
3 107 111 204
3 128 164 95
3 164 199 95
3 153 208 90
3 153 20 208
3 229 209 32
3 209 118 32
3 32 38 229
3 64 38 32
3 32 199 64
3 73 66 79
3 73 185 218
3 218 7 73
3 7 66 73
3 195 185 73
3 73 79 195
3 79 170 39
3 68 195 39
3 195 79 39
3 22 68 39
3 39 253 22
3 39 170 253
3 65 103 196
3 218 185 65
3 65 185 103
3 65 84 218
3 65 98 84
3 163 74 125
3 177 150 125
3 125 150 163
3 125 220 177
3 125 74 220
3 53 74 137
3 137 232 53
3 6 232 137
3 137 163 6
3 137 74 163
3 213 44 42
3 44 0 42
3 42 161 213
3 158 161 42
3 155 200 91
3 91 200 163
3 163 150 91
3 118 166 56
3 162 124 3
3 162 3 41
3 41 88 162
3 235 124 162
3 162 88 235
3 161 204 130
3 130 72 167
3 167 213 130
3 213 161 130
3 197 240 10
3 10 240 128
3 128 95 10
3 147 90 177
3 147 153 90
3 147 220 152
3 177 220 147
3 105 98 216
3 98 129 216
3 216 129 203
3 216 106 105
3 203 106 216
3 98 65 225
3 225 129 98
3 225 65 196
3 203 129 225
3 225 196 53
3 53 232 225
3 225 232 203
3 133 158 113
3 158 42 113
3 113 0 202
3 113 42 0
3 155 91 160
3 44 155 160
3 160 0 44
3 102 91 150
3 246 202 102
3 102 150 246
3 102 160 91
3 202 0 102
3 0 160 102
3 118 56 67
3 20 10 67
3 67 10 95
3 134 56 166
3 134 104 255
3 134 166 104
3 255 20 134
3 20 67 134
3 134 67 56
3 122 130 204
3 178 15 122
3 122 15 71
3 122 111 178
3 122 204 111
3 71 72 122
3 72 130 122
3 152 197 206
3 206 147 152
3 153 147 206
3 197 10 206
3 20 153 206
3 206 10 20
3 8 85 133
3 133 113 8
3 8 9 85
3 202 9 8
3 8 113 202
3 118 67 157
3 157 67 95
3 157 32 118
3 157 95 199
3 199 32 157