ply
format ascii 1.0
comment https://github.com/mikedh/trimesh
element vertex 256
property float x
property float y
property float z
element face 508
property list uchar int vertex_indices
end_header
-3.46662974 -0.84048235 0.46904978
1.32877195 1.51240671 0.14318326
-3.67143512 -0.34040189 -1.00939202
-0.27172253 0.29995495 2.27401948
1.71092534 0.24378277 2.08914661
-1.33330309 1.16691422 1.40249026
-3.27140403 -0.73632330 -0.98402357
1.50646782 0.28007677 -2.12695289
-2.79677510 -1.05540550 0.80275315
-2.41306973 -1.20309103 0.74131644
1.24850070 -1.51488340 -0.26140353
4.10149240 -0.28096676 0.27653754
0.93090659 0.82211059 -1.92246926
-0.43554151 0.69601560 2.07475853
3.33555555 0.83680797 -0.71152061
-2.86045957 0.56411475 1.48720968
-1.48193777 -1.22196138 1.25140893
0.63480854 1.49751592 -0.72882116
1.21772182 1.40724337 0.86792517
1.44792211 0.60333717 1.99352050
-0.06327599 -1.59613729 0.10305460
3.56901574 -0.77609760 0.46772370
3.76879692 -0.15949892 -0.99414068
2.40941334 0.80045503 1.50287521
-0.73223668 0.51893479 2.15777326
1.89740729 1.02891994 -1.43236554
-1.25511956 0.21857986 2.19204354
-3.53717136 0.78857785 0.49716470
-2.57906771 0.28220353 -1.78416526
1.16867816 1.15157628 -1.47336364
3.92456412 0.15660211 0.78996289
3.64310884 0.25006953 1.09264827
1.86286867 -1.30631876 0.85179377
3.13519025 -1.06172442 0.01616286
2.93471050 1.05626559 0.62935722
1.71210873 0.70407730 -1.85565400
1.26535070 -0.97307491 -1.70305395
1.67121542 -1.14115381 -1.33577061
2.58308697 -1.00729311 1.09739351
3.23806882 -0.05688127 -1.47397447
-2.13156676 0.81223208 1.61342609
0.73264295 -0.04676997 2.28336310
-3.54541659 -0.66698647 0.77746832
3.37444711 -0.69679266 0.93661499
-3.99502444 -0.39850986 0.41385925
3.50038242 0.86780989 -0.22136855
1.62967360 -0.09215087 2.13387251
2.26520920 1.32539260 0.33241487
1.96390200 -0.32623699 1.99455011
-3.17088127 1.04563391 -0.05173348
-2.72065568 0.71457797 -1.42922544
0.11831743 1.48862231 0.83826828
0.22280420 1.27860212 1.38612556
-1.39274657 -0.82200617 -1.83491468
1.99698114 0.05538418 2.03888130
-3.18730187 0.46342945 -1.35115254
0.81280273 -1.47601461 0.76661474
1.03918982 -1.28123474 -1.26081014
2.96893930 1.12749410 0.08604199
2.20089197 0.82785225 -1.56825697
1.33374453 1.47416306 0.50785100
2.73514533 -0.89617813 -1.18456161
2.12422013 0.55806333 -1.82955217
-0.95703119 -0.23532815 2.23369408
2.90405726 -1.07045269 0.62340367
-0.24792612 -0.47881943 -2.20961857
2.45613503 0.13753147 -1.87100852
1.04022419 -1.51844752 0.43364137
3.46121216 -0.41889003 -1.16256583
-1.17668664 1.17236912 -1.43570280
4.12109613 0.18591537 0.34604675
-3.74255133 0.43812889 0.83487481
-3.90743279 0.18254462 0.80494785
2.32086539 -0.08560792 -1.92955709
-1.87872267 -1.15007079 -1.23086095
-0.32604456 -1.22050250 -1.48572862
2.86091995 0.45816267 -1.56234694
2.88378453 -0.13199352 1.67510140
2.59504795 0.27176273 1.77978790
2.74833155 -0.06891312 -1.75065994
-2.40828180 1.30848122 0.00961616
-0.93477106 0.70224994 -2.01870179
3.79279685 0.60623831 0.45945024
0.79148680 -1.22039819 1.43127608
0.45903462 -0.13802636 -2.29764795
-2.13752556 -1.15009952 1.09516871
0.64980805 0.99552381 -1.77862012
-2.52926755 0.54321259 -1.67554581
1.22029471 0.34397537 2.16330767
-1.26308358 0.63739908 2.00977302
-1.74106073 -1.45359838 -0.00598971
-3.20334387 -1.02387905 -0.18629032
-0.69634253 0.86100739 1.91658461
-3.88672519 0.18080540 -0.83482665
-0.82512176 1.52023923 -0.54793119
1.68718815 -1.46012831 0.13114783
-1.46384668 -0.35027817 2.11428833
2.15901232 1.30942249 -0.58360583
-0.10326494 -0.11796358 -2.31307817
3.44395208 -0.07786436 1.32187200
3.02879024 1.07749796 -0.36272374
-2.23469043 1.33259463 0.33137676
-3.21322751 -1.01334345 0.24661367
0.13728786 -0.86869901 -1.94612265
-0.69363511 -1.39359486 1.06680584
-0.78736043 0.39584327 -2.20497704
-1.94925737 0.58560675 -1.87012029
-1.94070768 -0.62548971 1.84604144
2.42620206 0.98386401 -1.24176657
1.63386738 1.16284645 1.30939317
-0.91513330 -1.27886319 1.29550087
-2.05886364 -0.00970797 2.02177095
3.64357710 0.65556991 -0.64736849
-3.20061851 -0.84287685 0.86794537
2.92308545 -1.10982037 -0.41678795
1.45771968 0.53853762 -2.03091216
4.06987715 -0.17113739 -0.50899994
4.16692829 -0.16071288 -0.15451239
1.31312263 -1.40597939 0.82737309
-1.49411917 1.46156311 -0.44310516
-0.22861628 1.53082943 -0.65131247
-3.22522068 0.87968320 0.75578880
-3.05096889 0.31060043 1.52826905
-3.02771187 1.04922426 0.50920159
-0.08791585 0.51495308 2.19636774
-2.19235301 -1.22165322 -0.87521553
-4.03609657 -0.38797450 -0.29623443
-0.60987151 -0.95471019 -1.82903445
2.32758975 -1.28146040 -0.51182127
-1.27337003 0.00684547 -2.21113396
-3.38978505 -0.01694108 1.36888695
-3.58417416 0.83083582 0.02929431
3.31359839 0.23102511 1.38384962
-2.53582454 -0.78264719 1.45890272
0.20764709 -1.50018430 0.78871274
1.99524605 -0.84578389 1.62990832
-2.67821431 0.95505095 -1.12536752
-2.79510307 -0.84879249 -1.21488416
0.57826275 -1.06407166 -1.70076990
-1.53409803 1.47138691 0.30957225
-2.10126066 1.03928447 1.32484388
-3.40401220 0.66799778 -0.94852489
1.25139427 1.45973587 -0.64127827
2.83931065 1.08135331 -0.67348409
1.46726680 1.34150696 -0.96507227
0.06531764 1.57198322 0.41052052
-3.90445375 0.50766975 -0.42378542
-0.60630959 -1.53011668 -0.57488000
-3.32581258 0.07325569 -1.41151559
-4.15082121 0.05816797 0.33413252
-2.73561764 -1.19062352 -0.32438111
3.54577637 0.67389458 0.76346922
-0.21694617 -1.35438752 -1.22443366
-0.52300042 -1.57398570 -0.27583408
-3.84458423 0.39390111 -0.73279613
-3.74912500 -0.69363910 -0.27036989
2.19825888 -1.01681888 -1.31413949
1.61807859 -1.42078280 0.56960309
-2.89136147 -0.53191441 1.49430156
3.08346176 0.57435966 -1.33526814
-3.49884748 -0.88165975 0.04467080
-3.37956095 -0.29871330 1.30583978
0.27186662 0.29498446 2.27564812
-2.69667125 -1.06146073 -0.88510811
2.64015198 -1.23560774 -0.18122822
4.17963743 -0.04626002 0.19613168
0.67794490 -1.40138757 1.04900479
-4.00925970 -0.14439282 0.65286696
2.20219564 1.24542105 0.79492015
-1.97705674 -0.94805491 1.51447070
3.18154979 0.14701357 -1.49799240
3.33397341 -0.94668537 -0.31038219
0.50869584 1.33921778 -1.23461950
-2.26595283 1.21060979 -0.85010719
3.48677874 -0.40136439 1.15181327
-1.34186864 -0.65864682 1.97937131
0.04589006 0.93053466 1.88600099
-2.06205440 -1.32531500 -0.61661810
-1.52963734 0.42743450 2.07011056
2.16012263 1.22427881 -0.89187157
0.89807701 0.94817758 1.80070078
-3.85403657 0.54487735 0.46712029
-2.95025587 0.08336541 -1.64563787
-4.02357006 -0.24136822 -0.55896288
3.87651110 0.40346095 -0.66852397
1.41956782 -0.55157542 -2.03164577
-0.86246073 1.37324405 1.08543730
-0.38531971 -0.49637374 2.19554734
-2.84565783 1.08618426 -0.64777595
2.67367840 -0.75899625 1.40765369
2.69489121 0.99529284 1.03567255
0.17961052 0.92138606 -1.89262819
-2.85202646 0.73802859 1.32215619
3.64890122 -0.76990157 -0.25160995
-0.01084507 1.30560279 -1.33749044
2.70724058 -0.65437698 -1.49686718
-0.97317177 -0.70618391 -2.01026368
0.65674120 -1.44381678 -0.92355818
-0.13891201 1.09668005 -1.68560314
2.47960520 -1.24723625 0.47295105
-3.43032622 -0.80154848 -0.65913951
0.29004851 -0.75382262 2.03952932
-3.03346491 -1.04118645 0.53215957
-2.14231586 0.08560783 -1.99110055
-2.72542930 -0.01649562 1.76445758
-1.24697578 -0.92149103 1.76564562
-0.01241465 -1.51770449 -0.72455186
-4.13719702 0.10836035 -0.35914332
-1.15346003 -1.52490664 0.26461929
1.28289688 -1.12940013 1.48007834
3.89969873 -0.58476120 -0.12462263
4.02164078 0.41902512 0.26770711
0.53017175 0.20295955 -2.28325176
-3.82583904 -0.35090014 0.80625170
2.99862504 -0.42285177 1.50263882
1.91555369 0.87265354 1.63021410
-1.13225746 0.22448915 -2.21015787
3.36717868 0.62239766 -1.05060744
0.96184927 -0.29773438 -2.21650648
0.98453408 -0.76642096 1.96244955
-0.99282551 -1.23753095 -1.36039782
1.19999576 -0.35907438 2.16097689
-1.88460660 1.20636249 -1.10824883
-0.01310348 -1.03265882 1.77033901
3.66542888 0.76667714 0.19171098
-1.15161431 -0.40305942 -2.15291500
-1.38896286 1.43472850 0.67356163
-0.72736698 1.57272506 0.06140396
0.90171546 1.55767179 -0.12722521
2.02489924 -1.10048485 1.25443852
2.35266328 -0.17505772 1.90405858
-2.02576303 1.02217484 -1.38716412
-3.37479854 -0.30054551 -1.30864239
-1.94832730 1.40183055 -0.28022078
2.33535290 1.32317364 -0.15714981
0.20990972 0.69542629 2.08564854
1.75230575 -0.61993277 1.90615106
3.85248017 -0.33683729 -0.78090340
2.71566582 -1.11410904 -0.71519965
-0.33674106 1.14976239 1.60047019
1.85878074 -1.32599437 -0.78779799
-1.37978041 0.99976718 1.64089060
2.16172957 1.02634740 1.31640613
4.10652971 0.26816916 -0.28160796
3.76808310 -0.51980609 0.68885291
0.37825131 1.20175350 -1.51435661
-1.96050549 -1.36991441 0.50072569
0.16706480 -1.23556781 1.46764266
3.78529000 0.66511935 -0.26650330
0.82622141 1.50161743 0.64771539
-2.38391995 1.21036899 0.74527711
-1.03008556 0.99171752 -1.72792995
3.42428994 -0.78711134 -0.70239729
3.60501647 0.23543538 -1.13794875
-0.03228674 1.59095609 -0.20624356
-0.74772835 -1.51084232 0.62901157
3 135 229 189
3 110 247 223
3 223 247 83
3 30 31 99
3 209 229 135
3 209 223 83
3 38 189 229
3 64 43 38
3 38 43 189
3 94 194 69
3 149 181 146
3 80 233 188
3 146 181 131
3 146 131 141
3 141 131 188
3 110 223 205
3 237 68 22
3 172 144 29
3 198 86 191
3 191 251 198
3 69 194 198
3 198 251 69
3 51 226 186
3 23 78 132
3 99 31 132
3 19 78 23
3 165 30 11
3 23 190 242
3 159 76 59
3 59 108 159
3 248 184 112
3 243 184 248
3 211 243 248
3 248 224 211
3 211 224 82
3 82 30 211
3 34 224 58
3 234 47 58
3 58 47 34
3 21 43 64
3 174 30 99
3 135 189 236
3 46 48 230
3 227 94 119
3 167 149 44
3 44 213 167
3 49 80 188
3 188 131 49
3 136 141 188
3 182 55 28
3 148 55 182
3 250 226 101
3 180 109 52
3 186 239 52
3 52 51 186
3 72 149 167
3 181 149 72
3 72 71 181
3 121 140 250
3 107 158 133
3 96 107 175
3 175 107 205
3 68 237 252
3 252 61 68
3 68 61 195
3 61 156 195
3 245 198 194
3 86 198 245
3 245 194 172
3 172 29 245
3 245 29 86
3 59 76 62
3 191 86 12
3 86 29 12
3 81 251 191
3 191 105 81
3 212 105 191
3 191 12 212
3 203 182 28
3 17 144 172
3 60 47 1
3 1 47 234
3 168 190 34
3 34 47 168
3 109 242 168
3 168 242 190
3 168 47 60
3 227 226 145
3 226 51 145
3 145 1 228
3 109 168 18
3 18 168 60
3 18 52 109
3 51 52 18
3 180 19 215
3 215 19 23
3 23 242 215
3 215 109 180
3 215 242 109
3 78 19 4
3 4 41 46
3 70 243 211
3 70 165 243
3 211 30 70
3 30 165 70
3 116 237 22
3 22 184 116
3 116 184 243
3 25 29 144
3 25 108 59
3 25 12 29
3 217 108 14
3 217 159 108
3 217 14 112
3 112 184 217
3 253 184 22
3 253 217 184
3 159 217 253
3 112 14 45
3 45 248 112
3 224 248 45
3 45 58 224
3 151 224 34
3 151 82 224
3 34 190 151
3 151 190 23
3 31 30 151
3 30 82 151
3 23 132 151
3 151 132 31
3 210 252 237
3 237 116 210
3 43 21 244
3 244 174 43
3 244 210 11
3 21 210 244
3 11 30 244
3 30 174 244
3 214 236 189
3 48 236 214
3 214 230 48
3 189 43 214
3 43 174 214
3 214 174 99
3 201 205 223
3 201 175 205
3 221 236 48
3 46 41 221
3 221 48 46
3 78 230 77
3 99 132 77
3 77 132 78
3 77 214 99
3 230 214 77
3 222 94 69
3 222 119 94
3 69 251 231
3 231 222 69
3 136 222 231
3 141 136 50
3 50 55 141
3 136 231 50
3 93 55 148
3 148 2 93
3 93 2 183
3 16 85 246
3 110 205 16
3 220 75 152
3 233 80 139
3 80 101 139
3 227 119 139
3 139 119 233
3 139 226 227
3 139 101 226
3 180 52 176
3 176 52 239
3 63 41 3
3 3 26 63
3 89 13 92
3 92 241 89
3 13 176 92
3 239 241 92
3 92 176 239
3 5 239 186
3 5 241 239
3 140 241 5
3 186 226 5
3 5 226 250
3 250 140 5
3 40 178 89
3 40 15 178
3 89 241 40
3 40 241 140
3 181 71 27
3 71 121 27
3 27 131 181
3 140 121 192
3 192 40 140
3 15 40 192
3 71 15 192
3 192 121 71
3 33 21 64
3 37 156 240
3 61 252 238
3 128 240 238
3 238 156 61
3 238 240 156
3 127 220 53
3 75 220 127
3 53 196 127
3 196 103 127
3 127 138 75
3 103 138 127
3 106 81 105
3 106 203 28
3 106 50 231
3 251 81 106
3 106 231 251
3 84 7 218
3 84 212 7
3 7 212 115
3 115 212 12
3 115 62 7
3 228 17 254
3 254 94 227
3 227 145 254
3 254 145 228
3 249 18 60
3 51 18 249
3 249 145 51
3 60 1 249
3 1 145 249
3 54 230 78
3 78 4 54
3 46 230 54
3 54 4 46
3 243 165 117
3 117 116 243
3 117 165 11
3 11 210 117
3 117 210 116
3 179 25 144
3 108 25 179
3 144 97 179
3 35 25 59
3 12 25 35
3 35 115 12
3 59 62 35
3 62 115 35
3 142 17 228
3 234 97 142
3 144 17 142
3 142 97 144
3 142 1 234
3 228 1 142
3 234 58 100
3 58 45 100
3 100 97 234
3 100 45 14
3 193 210 21
3 193 33 171
3 21 33 193
3 171 252 193
3 252 210 193
3 187 41 63
3 175 201 187
3 187 221 41
3 201 221 187
3 63 96 187
3 96 175 187
3 236 221 219
3 219 221 201
3 219 209 135
3 135 236 219
3 223 209 219
3 219 201 223
3 173 136 188
3 173 222 136
3 188 233 173
3 233 119 173
3 119 222 173
3 148 182 232
3 232 2 148
3 6 2 232
3 182 203 232
3 126 155 44
3 126 44 149
3 183 2 126
3 207 93 183
3 207 126 149
3 183 126 207
3 207 149 146
3 141 55 154
3 55 93 154
3 146 141 154
3 154 207 146
3 93 207 154
3 246 255 104
3 104 16 246
3 110 16 104
3 104 247 110
3 133 85 169
3 85 16 169
3 169 16 205
3 169 107 133
3 205 107 169
3 208 255 246
3 246 90 208
3 235 176 13
3 235 19 180
3 180 176 235
3 124 235 13
3 178 26 24
3 26 3 24
3 89 178 24
3 3 124 24
3 24 13 89
3 24 124 13
3 111 107 96
3 111 96 63
3 63 26 111
3 111 26 178
3 123 27 121
3 123 121 250
3 123 49 131
3 131 27 123
3 250 101 123
3 80 49 123
3 123 101 80
3 255 208 20
3 199 33 64
3 164 33 199
3 37 240 57
3 57 240 197
3 57 197 152
3 152 75 57
3 75 138 57
3 114 252 171
3 114 238 252
3 171 33 114
3 114 33 164
3 114 164 128
3 128 238 114
3 36 195 156
3 36 185 195
3 36 156 37
3 37 57 36
3 36 57 138
3 103 185 36
3 36 138 103
3 66 62 76
3 7 62 66
3 76 159 170
3 159 253 170
3 170 66 76
3 79 66 170
3 87 106 28
3 50 106 87
3 28 55 87
3 55 50 87
3 105 212 98
3 212 84 98
3 94 254 120
3 120 254 17
3 194 94 120
3 172 194 120
3 120 17 172
3 143 179 97
3 97 100 143
3 143 100 14
3 14 108 143
3 108 179 143
3 200 126 2
3 155 126 200
3 200 2 6
3 6 163 200
3 53 220 74
3 246 85 9
3 9 202 246
3 177 90 150
3 150 90 246
3 247 104 166
3 83 247 166
3 166 209 83
3 166 118 209
3 88 4 19
3 19 235 88
3 41 4 88
3 204 161 158
3 158 107 204
3 107 111 204
3 128 164 95
3 164 199 95
3 153 208 90
3 153 20 208
3 229 209 32
3 209 118 32
3 32 38 229
3 64 38 32
3 32 199 64
3 73 66 79
3 73 185 218
3 218 7 73
3 7 66 73
3 195 185 73
3 73 79 195
3 79 170 39
3 68 195 39
3 195 79 39
3 22 68 39
3 39 253 22
3 39 170 253
3 65 103 196
3 218 185 65
3 65 185 103
3 65 84 218
3 65 98 84
3 163 74 125
3 177 150 125
3 125 150 163
3 125 220 177
3 125 74 220
3 53 74 137
3 137 232 53
3 6 232 137
3 137 163 6
3 137 74 163
3 213 44 42
3 44 0 42
3 42 161 213
3 158 161 42
3 155 200 91
3 91 200 163
3 163 150 91
3 118 166 56
3 162 124 3
3 162 3 41
3 41 88 162
3 235 124 162
3 162 88 235
3 161 204 130
3 130 72 167
3 167 213 130
3 213 161 130
3 197 240 10
3 10 240 128
3 128 95 10
3 147 90 177
3 147 153 90
3 147 220 152
3 177 220 147
3 105 98 216
3 98 129 216
3 216 129 203
3 216 106 105
3 203 106 216
3 98 65 225
3 225 129 98
3 225 65 196
3 203 129 225
3 225 196 53
3 53 232 225
3 225 232 203
3 133 158 113
3 158 42 113
3 113 0 202
3 113 42 0
3 155 91 160
3 44 155 160
3 160 0 44
3 102 91 150
3 246 202 102
3 102 150 246
3 102 160 91
3 202 0 102
3 0 160 102
3 118 56 67
3 20 10 67
3 67 10 95
3 134 56 166
3 134 104 255
3 134 166 104
3 255 20 134
3 20 67 134
3 134 67 56
3 122 130 204
3 178 15 122
3 122 15 71
3 122 111 178
3 122 204 111
3 71 72 122
3 72 130 122
3 152 197 206
3 206 147 152
3 153 147 206
3 197 10 206
3 20 153 206
3 206 10 20
3 8 85 133
3 133 113 8
3 8 9 85
3 202 9 8
3 8 113 202
3 118 67 157
3 157 67 95
3 157 32 118
3 157 95 199
3 199 32 157