ply
format ascii 1.0
comment https://github.com/mikedh/trimesh
element vertex 256
property float x
property float y
property float z
element face 508
property list uchar int vertex_indices
end_header
-1.90312779 -2.49612641 0.80985582
0.72947586 4.49165726 0.24721855
-2.01556277 -1.01095057 -1.74280441
-0.14917159 0.89082837 3.92629552
0.93927234 0.72400409 3.60709620
-0.73196340 3.46558785 2.42152333
-1.79595172 -2.18678713 -1.69900358
0.82702827 0.83179259 -3.67237186
-1.53538764 -3.13442111 1.38602412
-1.32473910 -3.57302833 1.27994823
0.68540817 -4.49901247 -0.45133626
2.25165796 -0.83443582 0.47746646
0.51105374 2.44156456 -3.31931281
-0.23910576 2.06707859 3.58225393
1.83116996 2.48521399 -1.22850311
-1.57034934 1.67534971 2.56779885
-0.81356162 -3.62907100 2.16066790
0.34850037 4.44743347 -1.25837409
0.66851103 4.17933512 1.49854946
0.79488754 1.79183519 3.44198918
-0.03473756 -4.74032640 0.17793286
1.95933604 -2.30491185 0.80756629
2.06901312 -0.47369164 -1.71647167
1.32273173 2.37725019 2.59484673
-0.40198696 1.54117072 3.72558618
1.04164815 3.05576205 -2.47310543
-0.68904179 0.64915460 3.78475690
-1.94185412 2.34197664 0.85839874
-1.41586947 0.83810884 -3.08051872
0.64158678 3.42003632 -2.54389238
2.15452671 0.46508852 1.36394072
2.00001216 0.74267495 1.88655376
1.02268696 -3.87960196 1.47069716
1.72117245 -3.15318727 0.02790660
1.61111200 3.13697553 1.08664083
0.93992203 2.09102082 -3.20395041
0.69465852 -2.88990951 -2.94047308
0.91747224 -3.38908267 -2.30632591
1.41807604 -2.99153328 1.89474678
1.77765119 -0.16893019 -2.54494691
-1.17019808 2.41222668 2.78572249
0.40221000 -0.13890092 3.94242811
-1.94638062 -1.98086548 1.34236765
1.85252082 -2.06938624 1.61714852
-2.19320846 -1.18352389 0.71456456
1.92165744 2.57728601 -0.38221234
0.89466637 -0.27367646 3.68431926
1.24356580 3.93624854 0.57394361
1.07815278 -0.96888262 3.44376683
-1.74076629 3.10540056 -0.08932243
-1.49359918 2.12220645 -2.46768403
0.06495450 4.42102003 1.44734418
0.12231617 3.79728675 2.39326835
-0.76459694 -2.44125462 -3.16814208
1.09631276 0.16448402 3.52030849
-1.74978089 1.37632692 -2.33288407
0.44621649 -4.38357687 1.32362795
0.57049960 -3.80510569 -2.17689991
1.62990320 3.34851527 0.14855909
1.20825672 2.45861673 -2.70773411
0.73220575 4.37807798 0.87684959
1.50155377 -2.66153598 -2.04525018
1.16616499 1.65737760 -3.15888333
-0.52539575 -0.69889492 3.85666990
1.59428382 -3.17910910 1.07636142
-0.13610771 -1.42203319 -3.81510139
1.34838128 0.40845114 -3.23046136
0.57106745 -4.50959730 0.74872011
1.90015352 -1.24405050 -2.00727272
-0.64598334 3.48178840 -2.47886753
2.26241994 0.55214512 0.59748024
-2.05460453 1.30118752 1.44148505
-2.14512205 0.54213446 1.38981354
1.27412033 -0.25424469 -3.33155060
-1.03139055 -3.41556501 -2.12519002
-0.17899358 -3.62473822 -2.56524158
1.57060218 1.36068535 -2.69752979
1.58315444 -0.39200407 2.89221048
1.42464244 0.80710095 3.07296109
1.50879276 -0.20466325 -3.02266884
-1.32211065 3.88602424 0.01660316
-0.51317531 2.08559370 -3.48546672
2.08218861 1.80045116 0.79328144
0.43451437 -3.62442851 2.47122455
0.25200313 -0.40992084 -3.96709228
-1.17346942 -3.41565037 1.89090550
0.35673487 2.95657992 -3.07094455
-1.38852990 1.61327279 -2.89297795
0.66992348 1.02156341 3.73514152
-0.69341391 1.89299488 3.47005057
-0.95581621 -4.31700373 -0.01034176
-1.75858772 -3.04079151 -0.32164669
-0.38228160 2.55708337 3.30915236
-2.13375378 0.53696918 -1.44140184
-0.45297948 4.51491880 -0.94605154
0.92624098 -4.33639669 0.22643831
-0.80362988 -1.04028189 3.65050554
1.18526542 3.88881946 -1.00764692
-0.05669090 -0.35033694 -3.99373341
1.89067805 -0.23124734 2.28232861
1.66276050 3.20003295 -0.62627459
-1.22681153 3.95763779 0.57215124
-1.76401365 -3.00950217 0.42580026
0.07536897 -2.57992649 -3.36015248
-0.38079527 -4.13880062 1.84193444
-0.43224907 1.17560458 -3.80708766
-1.07011306 1.73917818 -3.22892785
-1.06541944 -1.85762548 3.18735361
1.33194852 2.92195201 -2.14401960
0.89696866 3.45350718 2.26078296
-0.50239444 -3.79806232 2.23679662
-1.13028526 -0.02883146 3.49076605
2.00026917 1.94695985 -1.11773884
-1.75709152 -2.50323772 1.49858439
1.60473013 -3.29602647 -0.71962118
0.80026627 1.59938884 -3.50654888
2.23430133 -0.50825644 -0.87883329
2.28758121 -0.47729698 -0.26677927
0.72088462 -4.17558098 1.42853272
-0.82024902 4.34065771 -0.76506019
-0.12550691 4.54637003 -1.12454855
-1.77059770 2.61254787 1.30493605
-1.67493606 0.92244411 2.63869143
-1.66216838 3.11606359 0.87918150
-0.04826448 1.52934563 3.79222298
-1.20356894 -3.62815595 -1.51113689
-2.21575642 -1.15223527 -0.51147491
-0.33481029 -2.83536887 -3.15798950
1.27781188 -3.80577564 -0.88370466
-0.69906104 0.02033017 -3.81771803
-1.86094117 -0.05031286 2.36350417
-1.96765780 2.46747756 0.05057921
1.81911588 0.68611544 2.38933849
-1.39212966 -2.32436323 2.51892424
0.11399513 -4.45535803 1.36178219
1.09536016 -2.51187134 2.81418061
-1.47029948 2.83638072 -1.94304645
-1.53446972 -2.52080655 -2.09760475
0.31745759 -3.16015863 -2.93652940
-0.84219682 4.36983347 0.53450382
-1.15356052 3.08654356 2.28746009
-1.86875165 1.98386908 -1.63771200
0.68699670 4.33523130 -1.10722351
1.55873895 3.21148276 -1.16282976
0.80550748 3.98410630 -1.66628253
0.03585840 4.66859150 0.70879990
-2.14348650 1.50771499 -0.73170292
-0.33285487 -4.54425335 -0.99258113
-1.82582128 0.21756014 -2.43710613
-2.27873850 0.17275153 0.57690930
-1.50181305 -3.53600144 -0.56007260
1.94657803 2.00138187 1.31819701
-0.11910019 -4.02235985 -2.11409283
-0.28711939 -4.67453861 -0.47625193
-2.11061907 1.16983664 -1.26523733
-2.05821347 -2.06002045 -0.46681747
1.20681119 -3.01982355 -2.26897788
0.88830090 -4.21954584 0.98347002
-1.58731413 -1.57971871 2.58004355
1.69277430 1.70577574 -2.30545831
-1.92081475 -2.61841822 0.07712808
-1.85532832 -0.88714081 2.25464773
0.14925070 0.87606663 3.92910743
-1.48043203 -3.15240455 -1.52821732
1.44940388 -3.66959906 -0.31290653
2.29455805 -0.13738641 0.33863866
0.37218156 -4.16194391 1.81119943
-2.20102358 -0.42882845 1.12723243
1.20897233 3.69874310 1.37249982
-1.08537447 -2.81560349 2.61486721
1.74662316 0.43661174 -2.58641624
1.83030140 -2.81153607 -0.53590226
0.27926639 3.97730780 -2.13167953
-1.24397409 3.59535837 -1.46778512
1.91418922 -1.19200158 1.98870730
-0.73666573 -1.95609796 3.41755939
0.02519295 2.76357031 3.25634718
-1.13203692 -3.93601823 -1.06464553
-0.83974797 1.26942647 3.57422876
1.18587494 3.63595343 -1.53989506
0.49303079 2.81596780 3.10906887
-2.11580825 1.61821699 0.80652440
-1.61964619 0.24758475 -2.84133911
-2.20887947 -0.71683311 -0.96509874
2.12814641 1.19822800 -1.15426564
0.77932143 -1.63810945 -3.50781560
-0.47347802 4.07836151 1.87410343
-0.21153474 -1.47416735 3.79080606
-1.56222355 3.22583008 -1.11844230
1.46780944 -2.25412297 2.43043852
1.47945476 2.95589423 1.78817999
0.09860348 2.73640037 -3.26778960
-1.56571972 2.19185162 2.28281951
2.00319195 -2.28651047 -0.43442681
-0.00595378 3.87747550 -2.30929542
1.48623443 -1.94341707 -2.58447337
-0.53425670 -2.09727693 -3.47089791
0.36054108 -4.28795338 -1.59460473
-0.07626060 3.25700140 -2.91034269
1.36126602 -3.70413423 0.81659174
-1.88319767 -2.38049769 -1.13806248
0.15923229 -2.23875809 3.52142763
-1.66532671 -3.09219217 0.91882050
-1.17609930 0.25424445 -3.43781090
-1.49621975 -0.04898992 3.04649186
-0.68457097 -2.73671198 3.04854298
-0.00681546 -4.50739098 -1.25100279
-2.27125907 0.32181653 -0.62009263
-0.63323224 -4.52877998 0.45688859
0.70429116 -3.35417581 2.55548596
2.14087605 -1.73666692 -0.21517196
2.20782042 1.24445176 0.46221998
0.29105633 0.60276425 -3.94223571
-2.10032821 -1.04212904 1.39206481
1.64620018 -1.25581634 2.59443855
1.05161023 2.59167099 2.81470871
-0.62159234 0.66670442 -3.81603289
1.84853053 1.84844244 -1.81396663
0.52804083 -0.88423353 -3.82699394
0.54049444 -2.27617335 3.38834238
-0.54504633 -3.67531061 -2.34884691
0.65877962 -1.06640553 3.73111725
-1.03462076 3.58274436 -1.91348946
-0.00719361 -3.06686616 3.05664659
2.01226544 2.27693439 0.33100593
-0.63221902 -1.19703555 -3.71719790
-0.76251978 4.26096249 1.16296363
-0.39931357 4.67079496 0.10601935
0.49502829 4.62608862 -0.21966556
1.11163938 -3.26830125 2.16589880
1.29157686 -0.51989937 3.28752542
-1.11211348 3.03573036 -2.39506125
-1.85271370 -0.89258224 -2.25948668
-1.06960249 4.16325998 -0.48382595
1.28207374 3.92965865 -0.27133301
0.11523729 2.06532836 3.60105634
0.96198952 -1.84112203 3.29113817
2.11495376 -1.00036430 -1.34829867
1.49085987 -3.30876327 -1.23485529
-0.18486579 3.41464925 2.76335311
1.02044272 -3.93803596 -1.36020279
-0.75747877 2.96918225 2.83314252
1.18675709 3.04812217 2.27289128
2.25442314 0.79642856 -0.48622102
2.06862116 -1.54375851 1.18936539
0.20765430 3.56905627 -2.61467028
-1.07628810 -4.06847286 0.86454713
0.09171607 -3.66948032 2.53401470
2.07806730 1.97532046 -0.46014148
0.45358318 4.45961428 1.11833787
-1.30873621 3.59464288 1.28678668
-0.56550157 2.94527578 -2.98342371
1.87988377 -2.33762121 -1.21275091
1.97909999 0.69921339 -1.96476889
-0.01772494 4.72493887 -0.35609773
-0.41049165 -4.48701096 1.08604395
3 135 229 189
3 110 247 223
3 223 247 83
3 30 31 99
3 209 229 135
3 209 223 83
3 38 189 229
3 64 43 38
3 38 43 189
3 94 194 69
3 149 181 146
3 80 233 188
3 146 181 131
3 146 131 141
3 141 131 188
3 110 223 205
3 237 68 22
3 172 144 29
3 198 86 191
3 191 251 198
3 69 194 198
3 198 251 69
3 51 226 186
3 23 78 132
3 99 31 132
3 19 78 23
3 165 30 11
3 23 190 242
3 159 76 59
3 59 108 159
3 248 184 112
3 243 184 248
3 211 243 248
3 248 224 211
3 211 224 82
3 82 30 211
3 34 224 58
3 234 47 58
3 58 47 34
3 21 43 64
3 174 30 99
3 135 189 236
3 46 48 230
3 227 94 119
3 167 149 44
3 44 213 167
3 49 80 188
3 188 131 49
3 136 141 188
3 182 55 28
3 148 55 182
3 250 226 101
3 180 109 52
3 186 239 52
3 52 51 186
3 72 149 167
3 181 149 72
3 72 71 181
3 121 140 250
3 107 158 133
3 96 107 175
3 175 107 205
3 68 237 252
3 252 61 68
3 68 61 195
3 61 156 195
3 245 198 194
3 86 198 245
3 245 194 172
3 172 29 245
3 245 29 86
3 59 76 62
3 191 86 12
3 86 29 12
3 81 251 191
3 191 105 81
3 212 105 191
3 191 12 212
3 203 182 28
3 17 144 172
3 60 47 1
3 1 47 234
3 168 190 34
3 34 47 168
3 109 242 168
3 168 242 190
3 168 47 60
3 227 226 145
3 226 51 145
3 145 1 228
3 109 168 18
3 18 168 60
3 18 52 109
3 51 52 18
3 180 19 215
3 215 19 23
3 23 242 215
3 215 109 180
3 215 242 109
3 78 19 4
3 4 41 46
3 70 243 211
3 70 165 243
3 211 30 70
3 30 165 70
3 116 237 22
3 22 184 116
3 116 184 243
3 25 29 144
3 25 108 59
3 25 12 29
3 217 108 14
3 217 159 108
3 217 14 112
3 112 184 217
3 253 184 22
3 253 217 184
3 159 217 253
3 112 14 45
3 45 248 112
3 224 248 45
3 45 58 224
3 151 224 34
3 151 82 224
3 34 190 151
3 151 190 23
3 31 30 151
3 30 82 151
3 23 132 151
3 151 132 31
3 210 252 237
3 237 116 210
3 43 21 244
3 244 174 43
3 244 210 11
3 21 210 244
3 11 30 244
3 30 174 244
3 214 236 189
3 48 236 214
3 214 230 48
3 189 43 214
3 43 174 214
3 214 174 99
3 201 205 223
3 201 175 205
3 221 236 48
3 46 41 221
3 221 48 46
3 78 230 77
3 99 132 77
3 77 132 78
3 77 214 99
3 230 214 77
3 222 94 69
3 222 119 94
3 69 251 231
3 231 222 69
3 136 222 231
3 141 136 50
3 50 55 141
3 136 231 50
3 93 55 148
3 148 2 93
3 93 2 183
3 16 85 246
3 110 205 16
3 220 75 152
3 233 80 139
3 80 101 139
3 227 119 139
3 139 119 233
3 139 226 227
3 139 101 226
3 180 52 176
3 176 52 239
3 63 41 3
3 3 26 63
3 89 13 92
3 92 241 89
3 13 176 92
3 239 241 92
3 92 176 239
3 5 239 186
3 5 241 239
3 140 241 5
3 186 226 5
3 5 226 250
3 250 140 5
3 40 178 89
3 40 15 178
3 89 241 40
3 40 241 140
3 181 71 27
3 71 121 27
3 27 131 181
3 140 121 192
3 192 40 140
3 15 40 192
3 71 15 192
3 192 121 71
3 33 21 64
3 37 156 240
3 61 252 238
3 128 240 238
3 238 156 61
3 238 240 156
3 127 220 53
3 75 220 127
3 53 196 127
3 196 103 127
3 127 138 75
3 103 138 127
3 106 81 105
3 106 203 28
3 106 50 231
3 251 81 106
3 106 231 251
3 84 7 218
3 84 212 7
3 7 212 115
3 115 212 12
3 115 62 7
3 228 17 254
3 254 94 227
3 227 145 254
3 254 145 228
3 249 18 60
3 51 18 249
3 249 145 51
3 60 1 249
3 1 145 249
3 54 230 78
3 78 4 54
3 46 230 54
3 54 4 46
3 243 165 117
3 117 116 243
3 117 165 11
3 11 210 117
3 117 210 116
3 179 25 144
3 108 25 179
3 144 97 179
3 35 25 59
3 12 25 35
3 35 115 12
3 59 62 35
3 62 115 35
3 142 17 228
3 234 97 142
3 144 17 142
3 142 97 144
3 142 1 234
3 228 1 142
3 234 58 100
3 58 45 100
3 100 97 234
3 100 45 14
3 193 210 21
3 193 33 171
3 21 33 193
3 171 252 193
3 252 210 193
3 187 41 63
3 175 201 187
3 187 221 41
3 201 221 187
3 63 96 187
3 96 175 187
3 236 221 219
3 219 221 201
3 219 209 135
3 135 236 219
3 223 209 219
3 219 201 223
3 173 136 188
3 173 222 136
3 188 233 173
3 233 119 173
3 119 222 173
3 148 182 232
3 232 2 148
3 6 2 232
3 182 203 232
3 126 155 44
3 126 44 149
3 183 2 126
3 207 93 183
3 207 126 149
3 183 126 207
3 207 149 146
3 141 55 154
3 55 93 154
3 146 141 154
3 154 207 146
3 93 207 154
3 246 255 104
3 104 16 246
3 110 16 104
3 104 247 110
3 133 85 169
3 85 16 169
3 169 16 205
3 169 107 133
3 205 107 169
3 208 255 246
3 246 90 208
3 235 176 13
3 235 19 180
3 180 176 235
3 124 235 13
3 178 26 24
3 26 3 24
3 89 178 24
3 3 124 24
3 24 13 89
3 24 124 13
3 111 107 96
3 111 96 63
3 63 26 111
3 111 26 178
3 123 27 121
3 123 121 250
3 123 49 131
3 131 27 123
3 250 101 123
3 80 49 123
3 123 101 80
3 255 208 20
3 199 33 64
3 164 33 199
3 37 240 57
3 57 240 197
3 57 197 152
3 152 75 57
3 75 138 57
3 114 252 171
3 114 238 252
3 171 33 114
3 114 33 164
3 114 164 128
3 128 238 114
3 36 195 156
3 36 185 195
3 36 156 37
3 37 57 36
3 36 57 138
3 103 185 36
3 36 138 103
3 66 62 76
3 7 62 66
3 76 159 170
3 159 253 170
3 170 66 76
3 79 66 170
3 87 106 28
3 50 106 87
3 28 55 87
3 55 50 87
3 105 212 98
3 212 84 98
3 94 254 120
3 120 254 17
3 194 94 120
3 172 194 120
3 120 17 172
3 143 179 97
3 97 100 143
3 143 100 14
3 14 108 143
3 108 179 143
3 200 126 2
3 155 126 200
3 200 2 6
3 6 163 200
3 53 220 74
3 246 85 9
3 9 202 246
3 177 90 150
3 150 90 246
3 247 104 166
3 83 247 166
3 166 209 83
3 166 118 209
3 88 4 19
3 19 235 88
3 41 4 88
3 204 161 158
3 158 107 204
3 107 111 204
3 128 164 95
3 164 199 95
3 153 208 90
3 153 20 208
3 229 209 32
3 209 118 32
3 32 38 229
3 64 38 32
3 32 199 64
3 73 66 79
3 73 185 218
3 218 7 73
3 7 66 73
3 195 185 73
3 73 79 195
3 79 170 39
3 68 195 39
3 195 79 39
3 22 68 39
3 39 253 22
3 39 170 253
3 65 103 196
3 218 185 65
3 65 185 103
3 65 84 218
3 65 98 84
3 163 74 125
3 177 150 125
3 125 150 163
3 125 220 177
3 125 74 220
3 53 74 137
3 137 232 53
3 6 232 137
3 137 163 6
3 137 74 163
3 213 44 42
3 44 0 42
3 42 161 213
3 158 161 42
3 155 200 91
3 91 200 163
3 163 150 91
3 118 166 56
3 162 124 3
3 162 3 41
3 41 88 162
3 235 124 162
3 162 88 235
3 161 204 130
3 130 72 167
3 167 213 130
3 213 161 130
3 197 240 10
3 10 240 128
3 128 95 10
3 147 90 177
3 147 153 90
3 147 220 152
3 177 220 147
3 105 98 216
3 98 129 216
3 216 129 203
3 216 106 105
3 203 106 216
3 98 65 225
3 225 129 98
3 225 65 196
3 203 129 225
3 225 196 53
3 53 232 225
3 225 232 203
3 133 158 113
3 158 42 113
3 113 0 202
3 113 42 0
3 155 91 160
3 44 155 160
3 160 0 44
3 102 91 150
3 246 202 102
3 102 150 246
3 102 160 91
3 202 0 102
3 0 160 102
3 118 56 67
3 20 10 67
3 67 10 95
3 134 56 166
3 134 104 255
3 134 166 104
3 255 20 134
3 20 67 134
3 134 67 56
3 122 130 204
3 178 15 122
3 122 15 71
3 122 111 178
3 122 204 111
3 71 72 122
3 72 130 122
3 152 197 206
3 206 147 152
3 153 147 206
3 197 10 206
3 20 153 206
3 206 10 20
3 8 85 133
3 133 113 8
3 8 9 85
3 202 9 8
3 8 113 202
3 118 67 157
3 157 67 95
3 157 32 118
3 157 95 199
3 199 32 157