ply
format ascii 1.0
comment https://github.com/mikedh/trimesh
element vertex 256
property float x
property float y
property float z
element face 508
property list uchar int vertex_indices
end_header
-3.14877319 -2.51492882 0.77272421
1.20693624 4.52549076 0.23588365
-3.33479977 -1.01856565 -1.66289747
-0.24680819 0.89753860 3.74627614
1.55404997 0.72945768 3.44171190
-1.21105194 3.49169278 2.31049728
-2.97144771 -2.20325947 -1.62110484
1.36833918 0.83805817 -3.50399494
-2.54033780 -3.15803146 1.32247543
-2.19181442 -3.59994245 1.22126305
1.13402522 -4.53290176 -0.43064266
3.72542524 -0.84072125 0.45557478
0.84555137 2.45995593 -3.16712332
-0.39560655 2.08264899 3.41800880
3.02971697 2.50393414 -1.17217672
-2.59818292 1.68796945 2.45006609
-1.34605837 -3.65640736 2.06160212
0.57660270 4.48093414 -1.20067799
1.10606837 4.21081638 1.42984140
1.31516159 1.80533230 3.28417516
-0.05747418 -4.77603340 0.16977470
3.24177122 -2.32227397 0.77053964
3.42323446 -0.47725976 -1.63777196
2.18849325 2.39515710 2.47587395
-0.66509759 1.55277967 3.55476928
1.72343326 3.07877994 -2.35971451
-1.14003706 0.65404439 3.61122704
-3.21284676 2.35961795 0.81904143
-2.34259200 0.84442198 -2.93927813
1.06152165 3.44579792 -2.42725563
3.56471920 0.46859184 1.30140448
3.30907083 0.74826920 1.80005586
1.69206142 -3.90882540 1.40326619
2.84772348 -3.17693901 0.02662709
2.66562581 3.16060519 1.03681862
1.55512488 2.10677147 -3.05705023
1.14933014 -2.91167808 -2.80565333
1.51798105 -3.41461134 -2.20058155
2.34624267 -3.01406741 1.80787325
2.94116902 -0.17020267 -2.42826200
-1.93612254 2.43039703 2.65799809
0.66546661 -0.13994721 3.76166916
-3.22033596 -1.99578655 1.28082049
3.06504273 -2.08497405 1.54300272
-3.62871909 -1.19243896 0.68180197
3.17943096 2.59669948 -0.36468804
1.48024821 -0.27573797 3.51539445
2.05751133 3.96589875 0.54762846
1.78383112 -0.97618085 3.28587127
-2.88014197 3.12879229 -0.08522702
-2.47119761 2.13819218 -2.35454154
0.10746886 4.45432186 1.38098395
0.20237520 3.82589030 2.28353763
-1.26504505 -2.45964360 -3.02288389
1.81387722 0.16572301 3.35890341
-2.89505696 1.38669419 -2.22592211
0.73827654 -4.41659689 1.26294005
0.94390607 -3.83376789 -2.07708979
2.69671607 3.37373829 0.14174770
1.99909127 2.47713637 -2.58358526
1.21145296 4.41105652 0.83664632
2.48435879 -2.68158412 -1.95147622
1.92944968 1.66986203 -3.01404953
-0.86928064 -0.70415938 3.67984295
2.63778305 -3.20305610 1.02701068
-0.22519368 -1.43274486 -3.64018035
2.23093104 0.41152784 -3.08234572
0.94484556 -4.54356623 0.71439153
3.14385223 -1.25342143 -1.91523981
-1.06879580 3.50801516 -2.36521244
3.74323130 0.55630422 0.57008594
-3.39939547 1.31098878 1.37539339
-3.54915857 0.54621816 1.32609105
2.10806441 -0.25615981 -3.17880011
-1.70646179 -3.44129300 -2.02775073
-0.29614940 -3.65204191 -2.44762611
2.59860110 1.37093484 -2.57384896
2.61936927 -0.39495689 2.75960350
2.35710692 0.81318051 2.93206668
2.49633574 -0.20620489 -2.88408041
-2.18746543 3.91529608 0.01584191
-0.84906155 2.10130358 -3.32565928
3.44503379 1.81401324 0.75690973
0.71891505 -3.65173006 2.35791969
0.41694555 -0.41300863 -3.78520226
-1.94153500 -3.44137907 1.80420804
0.59022689 2.97885060 -2.93014288
-2.29735804 1.62542498 -2.76033568
1.10840547 1.02925849 3.56388640
-1.14727092 1.90725398 3.31094980
-1.58142221 -4.34952211 -0.00986760
-2.90962791 -3.06369662 -0.30689931
-0.63249463 2.57634473 3.15742898
-3.53034973 0.54101396 -1.37531412
-0.74946600 4.54892778 -0.90267539
1.53248918 -4.36906099 0.21605620
-1.32962608 -1.04811788 3.48313117
1.96105170 3.91811252 -0.96144670
-0.09379654 -0.35297588 -3.81062222
3.12817478 -0.23298924 2.17768455
2.75107932 3.22413754 -0.59756011
-2.02979088 3.98744893 0.54591829
-2.91860533 -3.03217149 0.40627748
0.12469988 -2.59935999 -3.20609069
-0.63003540 -4.16997671 1.75748229
-0.71516705 1.18445992 -3.63253379
-1.77052927 1.75227869 -3.08088255
-1.76276338 -1.87161815 3.04121447
2.20374274 2.94396186 -2.04571700
1.48405743 3.47952104 2.15712667
-0.83122432 -3.82667160 2.13424039
-1.87008560 -0.02904863 3.33071542
3.30949616 1.96162546 -1.06649089
-2.90715241 -2.52209353 1.42987478
2.65506673 -3.32085419 -0.68662679
1.32406080 1.61143637 -3.34577489
3.69670844 -0.51208496 -0.83853906
3.78486109 -0.48089227 -0.25454754
1.19272196 -4.20703411 1.36303496
-1.35712278 4.37335396 -0.72998244
-0.20765437 4.58061600 -1.07298827
-2.92949891 2.63222718 1.24510515
-2.77122426 0.92939252 2.51770830
-2.75009966 3.13953543 0.83887136
-0.07985481 1.54086566 3.61835074
-1.99133539 -3.65548539 -1.44185174
-3.66602516 -1.16091454 -0.48802394
-0.55395210 -2.85672641 -3.01319671
2.11417222 -3.83444309 -0.84318709
-1.15661430 0.02048331 -3.64267707
-3.07897449 -0.05069184 2.25513816
-3.25553989 2.48606396 0.04826017
3.00977325 0.69128364 2.27978802
-2.30331397 -2.34187174 2.40343237
0.18860784 -4.48891830 1.29934490
1.81230116 -2.53079224 2.68515134
-2.43264771 2.85774612 -1.85395837
-2.53881907 -2.53979492 -2.00143027
0.52524161 -3.18396282 -2.80189037
-1.39343596 4.40274954 0.50999695
-1.90859520 3.10979319 2.18258071
-3.09189701 1.99881279 -1.56262338
1.13665342 4.36788654 -1.05645764
2.57897305 3.23567367 -1.10951436
1.33273256 4.01411676 -1.58988392
0.05932863 4.70375824 0.67630166
-3.54645276 1.51907194 -0.69815463
-0.55071682 -4.57848358 -0.94707161
-3.02086759 0.21919894 -2.32536578
-3.77023053 0.17405280 0.55045819
-2.48478794 -3.56263661 -0.53439349
3.22066259 2.01645756 1.25775814
-0.19705428 -4.05265856 -2.01716232
-0.47504631 -4.70975018 -0.45441592
-3.49207282 1.17864847 -1.20722651
-3.40536642 -2.07553768 -0.44541404
1.99669969 -3.04257059 -2.16494584
1.46971631 -4.25132990 0.93837827
-2.62625146 -1.59161806 2.46174932
2.80073810 1.71862459 -2.19975376
-3.17803669 -2.63814163 0.07359178
-3.06968784 -0.89382327 2.15127277
0.24693906 0.88266569 3.74895906
-2.44941235 -3.17615032 -1.45814908
2.39807534 -3.69724059 -0.29855987
3.79640460 -0.13842130 0.32311219
0.61578381 -4.19329453 1.72815645
-3.64164925 -0.43205863 1.07554913
2.00027537 3.72660422 1.30957115
-1.79577959 -2.83681226 2.49497652
2.88983226 0.43990055 -2.46782994
3.02828002 -2.83271432 -0.51133132
0.46205330 4.00726700 -2.03394270
-2.05818677 3.62244081 -1.40048766
3.16707468 -1.20098042 1.89752567
-1.21883214 -1.97083247 3.26086545
0.04168238 2.78438735 3.10704470
-1.87298381 -3.96566677 -1.01583195
-1.38938427 1.27898860 3.41035151
1.96206009 3.66334176 -1.46929133
0.81573194 2.83717918 2.96651912
-3.50065851 1.63040626 0.76954556
-2.67974567 0.24944970 -2.71106458
-3.65464711 -0.72223276 -0.92084926
3.52107215 1.20725381 -1.10134304
1.28940713 -1.65044868 -3.34698343
-0.78338140 4.10908222 1.78817642
-0.34998959 -1.48527169 3.61699891
-2.58473849 3.25012898 -1.06716216
2.42852783 -2.27110243 2.31900358
2.44779539 2.97815967 1.70619249
0.16314195 2.75701261 -3.11796260
-2.59052300 2.20836186 2.17815280
3.31433201 -2.30373383 -0.41450849
-0.00985068 3.90668297 -2.20341492
2.45901251 -1.95805597 -2.46597600
-0.88394129 -2.11307502 -3.31175828
0.59652436 -4.32025290 -1.52149260
-0.12617511 3.28153491 -2.77690434
2.25224924 -3.73203588 0.77915132
-3.11579823 -2.39842892 -1.08588278
0.26345387 -2.25562167 3.35997128
-2.75532532 -3.11548448 0.87669289
-1.94588614 0.25615957 -3.28018832
-2.47553372 -0.04935894 2.90681124
-1.13264000 -2.75732660 2.90876842
-0.01127635 -4.54134321 -1.19364464
-3.75785589 0.32424065 -0.59166157
-1.04769874 -4.56289339 0.43594038
1.16526759 -3.37944150 2.43831778
3.54213381 -1.74974859 -0.20530640
3.65289497 1.25382566 0.44102734
0.48156011 0.60730463 -3.76148558
-3.47504640 -1.04997897 1.32823908
2.72368002 -1.26527584 2.47548437
1.73991585 2.61119294 2.68565512
-1.02844024 0.67172647 -3.64106894
3.05844069 1.86236596 -1.73079681
0.87365693 -0.89089411 -3.65152764
0.89426178 -2.29331899 3.23298812
-0.90179294 -3.70299530 -2.24115324
1.08996761 -1.07443833 3.56004667
-1.71180630 3.60973167 -1.82575667
-0.01190202 -3.08996749 2.91650033
3.32934427 2.29408550 0.31582943
-1.04602242 -1.20605230 -3.54676557
-1.26160824 4.29305840 1.10964215
-0.66067445 4.70597792 0.10115840
0.81903684 4.66093493 -0.20959395
1.83923542 -3.29291987 2.06659317
2.13694668 -0.52381551 3.13679338
-1.84002006 3.05859733 -2.28524852
-3.06536174 -0.89930570 -2.15588975
-1.76968443 4.19462013 -0.46164268
2.12122345 3.95925903 -0.25889248
0.19066302 2.08088541 3.43594909
1.59163606 -1.85499048 3.14024043
3.49924469 -1.00789964 -1.28647959
2.46666527 -3.33368683 -1.17823756
-0.30586514 3.44037032 2.63665414
1.68834841 -3.96769953 -1.29783785
-1.25326788 2.99154806 2.70324373
1.96351969 3.07108259 2.16867995
3.73000026 0.80242771 -0.46392795
3.42258620 -1.55538702 1.13483334
0.34356931 3.59594035 -2.49478865
-1.78074598 -4.09911871 0.82490790
0.15174656 -3.69712090 2.41783094
3.43821526 1.99019969 -0.43904415
0.75046486 4.49320650 1.06706238
-2.16533732 3.62171984 1.22778797
-0.93563664 2.96746135 -2.84663463
3.11031532 -2.35522962 -1.15714669
3.27447104 0.70448023 -1.87468493
-0.02932636 4.76052952 -0.33977076
-0.67916888 -4.52080965 1.03624916
3 135 229 189
3 110 247 223
3 223 247 83
3 30 31 99
3 209 229 135
3 209 223 83
3 38 189 229
3 64 43 38
3 38 43 189
3 94 194 69
3 149 181 146
3 80 233 188
3 146 181 131
3 146 131 141
3 141 131 188
3 110 223 205
3 237 68 22
3 172 144 29
3 198 86 191
3 191 251 198
3 69 194 198
3 198 251 69
3 51 226 186
3 23 78 132
3 99 31 132
3 19 78 23
3 165 30 11
3 23 190 242
3 159 76 59
3 59 108 159
3 248 184 112
3 243 184 248
3 211 243 248
3 248 224 211
3 211 224 82
3 82 30 211
3 34 224 58
3 234 47 58
3 58 47 34
3 21 43 64
3 174 30 99
3 135 189 236
3 46 48 230
3 227 94 119
3 167 149 44
3 44 213 167
3 49 80 188
3 188 131 49
3 136 141 188
3 182 55 28
3 148 55 182
3 250 226 101
3 180 109 52
3 186 239 52
3 52 51 186
3 72 149 167
3 181 149 72
3 72 71 181
3 121 140 250
3 107 158 133
3 96 107 175
3 175 107 205
3 68 237 252
3 252 61 68
3 68 61 195
3 61 156 195
3 245 198 194
3 86 198 245
3 245 194 172
3 172 29 245
3 245 29 86
3 59 76 62
3 191 86 12
3 86 29 12
3 81 251 191
3 191 105 81
3 212 105 191
3 191 12 212
3 203 182 28
3 17 144 172
3 60 47 1
3 1 47 234
3 168 190 34
3 34 47 168
3 109 242 168
3 168 242 190
3 168 47 60
3 227 226 145
3 226 51 145
3 145 1 228
3 109 168 18
3 18 168 60
3 18 52 109
3 51 52 18
3 180 19 215
3 215 19 23
3 23 242 215
3 215 109 180
3 215 242 109
3 78 19 4
3 4 41 46
3 70 243 211
3 70 165 243
3 211 30 70
3 30 165 70
3 116 237 22
3 22 184 116
3 116 184 243
3 25 29 144
3 25 108 59
3 25 12 29
3 217 108 14
3 217 159 108
3 217 14 112
3 112 184 217
3 253 184 22
3 253 217 184
3 159 217 253
3 112 14 45
3 45 248 112
3 224 248 45
3 45 58 224
3 151 224 34
3 151 82 224
3 34 190 151
3 151 190 23
3 31 30 151
3 30 82 151
3 23 132 151
3 151 132 31
3 210 252 237
3 237 116 210
3 43 21 244
3 244 174 43
3 244 210 11
3 21 210 244
3 11 30 244
3 30 174 244
3 214 236 189
3 48 236 214
3 214 230 48
3 189 43 214
3 43 174 214
3 214 174 99
3 201 205 223
3 201 175 205
3 221 236 48
3 46 41 221
3 221 48 46
3 78 230 77
3 99 132 77
3 77 132 78
3 77 214 99
3 230 214 77
3 222 94 69
3 222 119 94
3 69 251 231
3 231 222 69
3 136 222 231
3 141 136 50
3 50 55 141
3 136 231 50
3 93 55 148
3 148 2 93
3 93 2 183
3 16 85 246
3 110 205 16
3 220 75 152
3 233 80 139
3 80 101 139
3 227 119 139
3 139 119 233
3 139 226 227
3 139 101 226
3 180 52 176
3 176 52 239
3 63 41 3
3 3 26 63
3 89 13 92
3 92 241 89
3 13 176 92
3 239 241 92
3 92 176 239
3 5 239 186
3 5 241 239
3 140 241 5
3 186 226 5
3 5 226 250
3 250 140 5
3 40 178 89
3 40 15 178
3 89 241 40
3 40 241 140
3 181 71 27
3 71 121 27
3 27 131 181
3 140 121 192
3 192 40 140
3 15 40 192
3 71 15 192
3 192 121 71
3 33 21 64
3 37 156 240
3 61 252 238
3 128 240 238
3 238 156 61
3 238 240 156
3 127 220 53
3 75 220 127
3 53 196 127
3 196 103 127
3 127 138 75
3 103 138 127
3 106 81 105
3 106 203 28
3 106 50 231
3 251 81 106
3 106 231 251
3 84 7 218
3 84 212 7
3 7 212 115
3 115 212 12
3 115 62 7
3 228 17 254
3 254 94 227
3 227 145 254
3 254 145 228
3 249 18 60
3 51 18 249
3 249 145 51
3 60 1 249
3 1 145 249
3 54 230 78
3 78 4 54
3 46 230 54
3 54 4 46
3 243 165 117
3 117 116 243
3 117 165 11
3 11 210 117
3 117 210 116
3 179 25 144
3 108 25 179
3 144 97 179
3 35 25 59
3 12 25 35
3 35 115 12
3 59 62 35
3 62 115 35
3 142 17 228
3 234 97 142
3 144 17 142
3 142 97 144
3 142 1 234
3 228 1 142
3 234 58 100
3 58 45 100
3 100 97 234
3 100 45 14
3 193 210 21
3 193 33 171
3 21 33 193
3 171 252 193
3 252 210 193
3 187 41 63
3 175 201 187
3 187 221 41
3 201 221 187
3 63 96 187
3 96 175 187
3 236 221 219
3 219 221 201
3 219 209 135
3 135 236 219
3 223 209 219
3 219 201 223
3 173 136 188
3 173 222 136
3 188 233 173
3 233 119 173
3 119 222 173
3 148 182 232
3 232 2 148
3 6 2 232
3 182 203 232
3 126 155 44
3 126 44 149
3 183 2 126
3 207 93 183
3 207 126 149
3 183 126 207
3 207 149 146
3 141 55 154
3 55 93 154
3 146 141 154
3 154 207 146
3 93 207 154
3 246 255 104
3 104 16 246
3 110 16 104
3 104 247 110
3 133 85 169
3 85 16 169
3 169 16 205
3 169 107 133
3 205 107 169
3 208 255 246
3 246 90 208
3 235 176 13
3 235 19 180
3 180 176 235
3 124 235 13
3 178 26 24
3 26 3 24
3 89 178 24
3 3 124 24
3 24 13 89
3 24 124 13
3 111 107 96
3 111 96 63
3 63 26 111
3 111 26 178
3 123 27 121
3 123 121 250
3 123 49 131
3 131 27 123
3 250 101 123
3 80 49 123
3 123 101 80
3 255 208 20
3 199 33 64
3 164 33 199
3 37 240 57
3 57 240 197
3 57 197 152
3 152 75 57
3 75 138 57
3 114 252 171
3 114 238 252
3 171 33 114
3 114 33 164
3 114 164 128
3 128 238 114
3 36 195 156
3 36 185 195
3 36 156 37
3 37 57 36
3 36 57 138
3 103 185 36
3 36 138 103
3 66 62 76
3 7 62 66
3 76 159 170
3 159 253 170
3 170 66 76
3 79 66 170
3 87 106 28
3 50 106 87
3 28 55 87
3 55 50 87
3 105 212 98
3 212 84 98
3 94 254 120
3 120 254 17
3 194 94 120
3 172 194 120
3 120 17 172
3 143 179 97
3 97 100 143
3 143 100 14
3 14 108 143
3 108 179 143
3 200 126 2
3 155 126 200
3 200 2 6
3 6 163 200
3 53 220 74
3 246 85 9
3 9 202 246
3 177 90 150
3 150 90 246
3 247 104 166
3 83 247 166
3 166 209 83
3 166 118 209
3 88 4 19
3 19 235 88
3 41 4 88
3 204 161 158
3 158 107 204
3 107 111 204
3 128 164 95
3 164 199 95
3 153 208 90
3 153 20 208
3 229 209 32
3 209 118 32
3 32 38 229
3 64 38 32
3 32 199 64
3 73 66 79
3 73 185 218
3 218 7 73
3 7 66 73
3 195 185 73
3 73 79 195
3 79 170 39
3 68 195 39
3 195 79 39
3 22 68 39
3 39 253 22
3 39 170 253
3 65 103 196
3 218 185 65
3 65 185 103
3 65 84 218
3 65 98 84
3 163 74 125
3 177 150 125
3 125 150 163
3 125 220 177
3 125 74 220
3 53 74 137
3 137 232 53
3 6 232 137
3 137 163 6
3 137 74 163
3 213 44 42
3 44 0 42
3 42 161 213
3 158 161 42
3 155 200 91
3 91 200 163
3 163 150 91
3 118 166 56
3 162 124 3
3 162 3 41
3 41 88 162
3 235 124 162
3 162 88 235
3 161 204 130
3 130 72 167
3 167 213 130
3 213 161 130
3 197 240 10
3 10 240 128
3 128 95 10
3 147 90 177
3 147 153 90
3 147 220 152
3 177 220 147
3 105 98 216
3 98 129 216
3 216 129 203
3 216 106 105
3 203 106 216
3 98 65 225
3 225 129 98
3 225 65 196
3 203 129 225
3 225 196 53
3 53 232 225
3 225 232 203
3 133 158 113
3 158 42 113
3 113 0 202
3 113 42 0
3 155 91 160
3 44 155 160
3 160 0 44
3 102 91 150
3 246 202 102
3 102 150 246
3 102 160 91
3 202 0 102
3 0 160 102
3 118 56 67
3 20 10 67
3 67 10 95
3 134 56 166
3 134 104 255
3 134 166 104
3 255 20 134
3 20 67 134
3 134 67 56
3 122 130 204
3 178 15 122
3 122 15 71
3 122 111 178
3 122 204 111
3 71 72 122
3 72 130 122
3 152 197 206
3 206 147 152
3 153 147 206
3 197 10 206
3 20 153 206
3 206 10 20
3 8 85 133
3 133 113 8
3 8 9 85
3 202 9 8
3 8 113 202
3 118 67 157
3 157 67 95
3 157 32 118
3 157 95 199
3 199 32 157