ply
format ascii 1.0
comment https://github.com/mikedh/trimesh
element vertex 256
property float x
property float y
property float z
element face 508
property list uchar int vertex_indices
end_header
-1.02203715 -0.96425611 0.22005893
0.39175060 1.73513150 0.06717572
-1.08241820 -0.39053121 -0.47356540
-0.08010966 0.34412786 1.06687677
0.50441766 0.27968350 0.98014206
-0.39308649 1.33876002 0.65799099
-0.96448040 -0.84475803 -0.46166354
0.44413921 0.32132229 -0.99787915
-0.82454962 -1.21082997 0.37661889
-0.71142495 -1.38026440 0.34779531
0.36808491 -1.73797286 -0.12263983
1.20920849 -0.32234338 0.12974007
0.27445132 0.94317883 -0.90194380
-0.12840703 0.79851443 0.97339177
0.98339367 0.96004063 -0.33381632
-0.84332514 0.64718920 0.69773787
-0.43690720 -1.40191364 0.58710980
0.18715525 1.71804786 -0.34193304
0.35901064 1.61448133 0.40719494
0.42687866 0.69218767 0.93527818
-0.01865513 -1.83119273 0.04834900
1.05222273 -0.89038974 0.21943681
1.11112261 -0.18298754 -0.46641007
0.71034700 0.91833413 0.70508754
-0.21587916 0.59535575 1.01233888
0.55939656 1.18044388 -0.67200720
-0.37003630 0.25076905 1.02841711
-1.04283440 0.90470791 0.23324931
-0.76036471 0.32376227 -0.83705723
0.34455150 1.32116330 -0.69124186
1.15704608 0.17966415 0.37061822
1.07406712 0.28689605 0.51262581
0.54921383 -1.49869406 0.39962673
0.92432165 -1.21807933 0.00758295
0.86521590 1.21181679 0.29526863
0.50476658 0.80776334 -0.87059683
0.37305266 -1.11637485 -0.79900318
0.49271035 -1.30920601 -0.62668884
0.76154977 -1.15563226 0.51485211
0.95465249 -0.06525790 -0.69152844
-0.62843180 0.93184555 0.75695342
0.21599893 -0.05365756 1.07126045
-1.04526532 -0.76521027 0.36475629
0.99485976 -0.79940593 0.43942139
-1.17781925 -0.45719644 0.19416581
1.03198826 0.99560809 -0.10385706
0.48046291 -0.10572149 1.00112557
0.66783249 1.52057672 0.15595543
0.57900065 -0.37428030 0.93576121
-0.93484414 1.19961929 -0.02427123
-0.80210793 0.81981039 -0.67053407
0.03488253 1.70784450 0.39328116
0.06568749 1.46689558 0.65031338
-0.41061172 -0.94305903 -0.86086679
0.58875310 0.06354034 0.95655954
-0.93968529 0.53167647 -0.63390541
0.23963177 -1.69338012 0.35966423
0.30637556 -1.46991599 -0.59152043
0.87530732 1.29353476 0.04036738
0.64887041 0.94976604 -0.73576188
0.39321664 1.69125593 0.23826288
0.80637980 -1.02815390 -0.55574781
0.62626594 0.64024663 -0.85835093
-0.28215343 -0.26998380 1.04795778
0.85617864 -1.22809303 0.29247546
-0.07309397 -0.54933286 -1.03666246
0.72412157 0.15778507 -0.87780052
0.30668050 -1.74206185 0.20344676
1.02043998 -0.48057795 -0.54542828
-0.34691259 1.34501827 -0.67357296
1.21498799 0.21329421 0.16235095
-1.10338485 0.50265002 0.39168906
-1.15199542 0.20942709 0.37764856
0.68424118 -0.09821498 -0.90526915
-0.55388796 -1.31943607 -0.57746953
-0.09612497 -1.40023994 -0.69704300
0.84346086 0.52563405 -0.73298919
0.85020185 -0.15143156 0.78588897
0.76507610 0.31178388 0.83500361
0.81026733 -0.07906161 -0.82133794
-0.71001339 1.50117493 0.00451151
-0.27559066 0.80566686 -0.94709218
1.11819828 0.69551605 0.21555524
0.23334736 -1.40012038 0.67149615
0.13533330 -0.15835282 -1.07796228
-0.63018858 -1.31946909 0.51380831
0.19157742 1.14212978 -0.83445567
-0.74568260 0.62320888 -0.78609747
0.35976920 0.39463094 1.01493526
-0.37238425 0.73126578 0.94290316
-0.51330227 -1.66766274 -0.00281013
-0.94441479 -1.17466080 -0.08739979
-0.20529678 0.98780376 0.89918298
-1.14589036 0.20743173 -0.39166647
-0.24326368 1.74411750 -0.25706688
0.49741942 -1.67515433 0.06152919
-0.43157357 -0.40186194 0.99193752
0.63652343 1.50225484 -0.27380395
-0.03044473 -0.13533551 -1.08520150
1.01535130 -0.08933108 0.62016815
0.89295268 1.23617589 -0.17017512
-0.65883493 1.52883935 0.15546840
-0.94732875 -1.16257370 0.11570103
0.04047542 -0.99662811 -0.91304106
-0.20449857 -1.59882271 0.50050157
-0.23213083 0.45413718 -1.03448498
-0.57468313 0.67184621 -0.87738383
-0.57216245 -0.71760255 0.86608702
0.71529669 1.12875295 -0.58258605
0.48169932 1.33409321 0.61431366
-0.26980102 -1.46719515 0.60779595
-0.60699737 -0.01113762 0.94853210
1.07420504 0.75211251 -0.30371878
-0.94361132 -0.96700323 0.40720442
0.86178863 -1.27325833 -0.19553983
0.42976719 0.61784548 -0.95282078
1.19988751 -0.19633996 -0.23880191
1.22850037 -0.18438029 -0.07249088
0.38713688 -1.61303115 0.38816956
-0.44049853 1.67680037 -0.20788679
-0.06740101 1.75626719 -0.30556914
-0.95086455 1.00922978 0.35458514
-0.89949137 0.35634106 0.71700120
-0.89263469 1.20373833 0.23889653
-0.02591949 0.59078771 1.03044581
-0.64635295 -1.40156019 -0.41061527
-1.18992817 -0.44510961 -0.13898106
-0.17980327 -1.09530580 -0.85810804
0.68622363 -1.47017491 -0.24012558
-0.37541693 0.00785356 -1.03737354
-0.99938172 -0.01943591 0.64222568
-1.05669177 0.95318896 0.01374369
0.97692025 0.26504707 0.64924556
-0.74761575 -0.89790380 0.68445736
0.06121884 -1.72110927 0.37003171
0.58824152 -0.97033834 0.76468623
-0.78959531 1.09569669 -0.52797639
-0.82405668 -0.97379005 -0.56997389
0.17048432 -1.22077239 -0.79793155
-0.45228517 1.68807089 0.14523861
-0.61949694 1.19233477 0.62156248
-1.00357616 0.76637059 -0.44500902
0.36893800 1.67470407 -0.30086148
0.83709002 1.24059892 -0.31597114
0.43258190 1.53906417 -0.45277238
0.01925705 1.80348158 0.19259942
-1.15111709 0.58243179 -0.19882277
-0.17875314 -1.75544953 -0.26971015
-0.98052126 0.08404370 -0.66222525
-1.22375154 0.06673409 0.15676129
-0.80651909 -1.36596084 -0.15218633
1.04537129 0.77313578 0.35818848
-0.06396040 -1.55384159 -0.57445413
-0.15419181 -1.80577898 -0.12941006
-1.13346636 0.45190904 -0.34379795
-1.10532296 -0.79578793 -0.12684648
0.64809412 -1.16656077 -0.61654037
0.47704446 -1.63001466 0.26723444
-0.85243571 -0.61024690 0.70106506
0.90907103 0.65894282 -0.62645310
-1.03153563 -1.01149750 0.02095771
-0.99636745 -0.34270337 0.61264652
0.08015214 0.33842540 1.06764090
-0.79503679 -1.21777689 -0.41525647
0.77837372 -1.41756964 -0.08502486
1.23224711 -0.05307251 0.09201695
0.19987276 -1.60776305 0.49215007
-1.18201625 -0.16565685 0.30629843
0.64925474 1.42882812 0.37294397
-0.58287895 -1.08767033 0.71052760
0.93798947 0.16866355 -0.70279670
0.98292720 -1.08609915 -0.14561862
0.14997450 1.53643787 -0.57923287
-0.66805172 1.38889050 -0.39883548
1.02797759 -0.46047139 0.54038358
-0.39561179 -0.75564253 0.92863995
0.01352938 1.06756997 0.88483441
-0.60793811 -1.52048767 -0.28929195
-0.45097005 0.49038070 0.97121114
0.63685071 1.40457237 -0.41842961
0.26477244 1.08781111 0.84481508
-1.13625312 0.62511879 0.21915370
-0.86979902 0.09564223 -0.77206588
-1.18623519 -0.27691334 -0.26224247
1.14287901 0.46287668 -0.31364408
0.41851920 -0.63280326 -0.95316494
-0.25427201 1.57547510 0.50924271
-0.11360056 -0.56947231 1.03006089
-0.83896130 1.24614131 -0.30390993
0.78825808 -0.87076998 0.66041344
0.79451197 1.14186478 0.48589513
0.05295305 1.05707419 -0.88794363
-0.84083885 0.84671444 0.62030154
1.07577479 -0.88328129 -0.11804509
-0.00319736 1.49787259 -0.62749571
0.79815286 -0.75074393 -0.70226878
-0.28691202 -0.81018013 -0.94313341
0.19362146 -1.65644062 -0.43329567
-0.04095425 1.25818276 -0.79081595
0.73104107 -1.43091071 0.22188927
-1.01133406 -0.91958863 -0.30924124
0.08551256 -0.86483443 0.95686364
-0.89433086 -1.19451690 0.24966748
-0.63160092 0.09821488 -0.93414277
-0.80351532 -0.01892485 0.82781124
-0.36763534 -1.05719447 0.82836860
-0.00366011 -1.74120951 -0.33993006
-1.21973491 0.12431805 -0.16849533
-0.34006488 -1.74947214 0.12414853
0.37822565 -1.29572141 0.69439214
1.14971530 -0.67087615 -0.05846783
1.18566644 0.48073292 0.12559721
0.15630606 0.23284842 -1.07120824
-1.12793982 -0.40257549 0.37826028
0.88405931 -0.48512310 0.70497656
0.56474650 1.00116503 0.76482970
-0.33381391 0.25754857 -1.03691554
0.99271685 0.71405512 -0.49290201
0.28357390 -0.34158027 -1.03989398
0.29026186 -0.87928802 0.92070097
-0.29270637 -1.41977608 -0.63824296
0.35378462 -0.41195351 1.01384187
-0.55562270 1.38401759 -0.51994497
-0.00386319 -1.18473339 0.83057052
1.08064747 0.87958199 0.08994294
-0.33952072 -0.46241602 -1.01005960
-0.40949619 1.64601398 0.31600752
-0.21444348 1.80433261 0.02880822
0.26584515 1.78706253 -0.05968885
0.59698397 -1.26254797 0.58853114
0.69361585 -0.20083763 0.89330631
-0.59723860 1.17270565 -0.65080059
-0.99496335 -0.34480539 -0.61396140
-0.57440889 1.60827136 -0.13146812
0.68851238 1.51803100 -0.07372825
0.06188591 0.79783833 0.97850090
0.51661748 -0.71122724 0.89428800
1.13579416 -0.38644171 -0.36636791
0.80063683 -1.27817845 -0.33554238
-0.09927852 1.31908238 0.75087506
0.54800868 -1.52126718 -0.36960253
-0.40678903 1.14699805 0.76983863
0.63732445 1.17749262 0.61760384
1.21069348 0.30766112 -0.13211893
1.11091220 -0.59635544 0.32318157
0.11151664 1.37872994 -0.71047407
-0.57799929 -1.57165504 0.23491998
0.04925431 -1.41752386 0.68855786
1.11598504 0.76306820 -0.12503244
0.24358790 1.72275329 0.30388153
-0.70283097 1.38861406 0.34965348
-0.30369145 1.13776290 -0.81067395
1.00955451 -0.90302539 -0.32953605
1.06283653 0.27010682 -0.53387892
-0.00951883 1.82524848 -0.09676103
-0.22044644 -1.73333669 0.29510644
3 135 229 189
3 110 247 223
3 223 247 83
3 30 31 99
3 209 229 135
3 209 223 83
3 38 189 229
3 64 43 38
3 38 43 189
3 94 194 69
3 149 181 146
3 80 233 188
3 146 181 131
3 146 131 141
3 141 131 188
3 110 223 205
3 237 68 22
3 172 144 29
3 198 86 191
3 191 251 198
3 69 194 198
3 198 251 69
3 51 226 186
3 23 78 132
3 99 31 132
3 19 78 23
3 165 30 11
3 23 190 242
3 159 76 59
3 59 108 159
3 248 184 112
3 243 184 248
3 211 243 248
3 248 224 211
3 211 224 82
3 82 30 211
3 34 224 58
3 234 47 58
3 58 47 34
3 21 43 64
3 174 30 99
3 135 189 236
3 46 48 230
3 227 94 119
3 167 149 44
3 44 213 167
3 49 80 188
3 188 131 49
3 136 141 188
3 182 55 28
3 148 55 182
3 250 226 101
3 180 109 52
3 186 239 52
3 52 51 186
3 72 149 167
3 181 149 72
3 72 71 181
3 121 140 250
3 107 158 133
3 96 107 175
3 175 107 205
3 68 237 252
3 252 61 68
3 68 61 195
3 61 156 195
3 245 198 194
3 86 198 245
3 245 194 172
3 172 29 245
3 245 29 86
3 59 76 62
3 191 86 12
3 86 29 12
3 81 251 191
3 191 105 81
3 212 105 191
3 191 12 212
3 203 182 28
3 17 144 172
3 60 47 1
3 1 47 234
3 168 190 34
3 34 47 168
3 109 242 168
3 168 242 190
3 168 47 60
3 227 226 145
3 226 51 145
3 145 1 228
3 109 168 18
3 18 168 60
3 18 52 109
3 51 52 18
3 180 19 215
3 215 19 23
3 23 242 215
3 215 109 180
3 215 242 109
3 78 19 4
3 4 41 46
3 70 243 211
3 70 165 243
3 211 30 70
3 30 165 70
3 116 237 22
3 22 184 116
3 116 184 243
3 25 29 144
3 25 108 59
3 25 12 29
3 217 108 14
3 217 159 108
3 217 14 112
3 112 184 217
3 253 184 22
3 253 217 184
3 159 217 253
3 112 14 45
3 45 248 112
3 224 248 45
3 45 58 224
3 151 224 34
3 151 82 224
3 34 190 151
3 151 190 23
3 31 30 151
3 30 82 151
3 23 132 151
3 151 132 31
3 210 252 237
3 237 116 210
3 43 21 244
3 244 174 43
3 244 210 11
3 21 210 244
3 11 30 244
3 30 174 244
3 214 236 189
3 48 236 214
3 214 230 48
3 189 43 214
3 43 174 214
3 214 174 99
3 201 205 223
3 201 175 205
3 221 236 48
3 46 41 221
3 221 48 46
3 78 230 77
3 99 132 77
3 77 132 78
3 77 214 99
3 230 214 77
3 222 94 69
3 222 119 94
3 69 251 231
3 231 222 69
3 136 222 231
3 141 136 50
3 50 55 141
3 136 231 50
3 93 55 148
3 148 2 93
3 93 2 183
3 16 85 246
3 110 205 16
3 220 75 152
3 233 80 139
3 80 101 139
3 227 119 139
3 139 119 233
3 139 226 227
3 139 101 226
3 180 52 176
3 176 52 239
3 63 41 3
3 3 26 63
3 89 13 92
3 92 241 89
3 13 176 92
3 239 241 92
3 92 176 239
3 5 239 186
3 5 241 239
3 140 241 5
3 186 226 5
3 5 226 250
3 250 140 5
3 40 178 89
3 40 15 178
3 89 241 40
3 40 241 140
3 181 71 27
3 71 121 27
3 27 131 181
3 140 121 192
3 192 40 140
3 15 40 192
3 71 15 192
3 192 121 71
3 33 21 64
3 37 156 240
3 61 252 238
3 128 240 238
3 238 156 61
3 238 240 156
3 127 220 53
3 75 220 127
3 53 196 127
3 196 103 127
3 127 138 75
3 103 138 127
3 106 81 105
3 106 203 28
3 106 50 231
3 251 81 106
3 106 231 251
3 84 7 218
3 84 212 7
3 7 212 115
3 115 212 12
3 115 62 7
3 228 17 254
3 254 94 227
3 227 145 254
3 254 145 228
3 249 18 60
3 51 18 249
3 249 145 51
3 60 1 249
3 1 145 249
3 54 230 78
3 78 4 54
3 46 230 54
3 54 4 46
3 243 165 117
3 117 116 243
3 117 165 11
3 11 210 117
3 117 210 116
3 179 25 144
3 108 25 179
3 144 97 179
3 35 25 59
3 12 25 35
3 35 115 12
3 59 62 35
3 62 115 35
3 142 17 228
3 234 97 142
3 144 17 142
3 142 97 144
3 142 1 234
3 228 1 142
3 234 58 100
3 58 45 100
3 100 97 234
3 100 45 14
3 193 210 21
3 193 33 171
3 21 33 193
3 171 252 193
3 252 210 193
3 187 41 63
3 175 201 187
3 187 221 41
3 201 221 187
3 63 96 187
3 96 175 187
3 236 221 219
3 219 221 201
3 219 209 135
3 135 236 219
3 223 209 219
3 219 201 223
3 173 136 188
3 173 222 136
3 188 233 173
3 233 119 173
3 119 222 173
3 148 182 232
3 232 2 148
3 6 2 232
3 182 203 232
3 126 155 44
3 126 44 149
3 183 2 126
3 207 93 183
3 207 126 149
3 183 126 207
3 207 149 146
3 141 55 154
3 55 93 154
3 146 141 154
3 154 207 146
3 93 207 154
3 246 255 104
3 104 16 246
3 110 16 104
3 104 247 110
3 133 85 169
3 85 16 169
3 169 16 205
3 169 107 133
3 205 107 169
3 208 255 246
3 246 90 208
3 235 176 13
3 235 19 180
3 180 176 235
3 124 235 13
3 178 26 24
3 26 3 24
3 89 178 24
3 3 124 24
3 24 13 89
3 24 124 13
3 111 107 96
3 111 96 63
3 63 26 111
3 111 26 178
3 123 27 121
3 123 121 250
3 123 49 131
3 131 27 123
3 250 101 123
3 80 49 123
3 123 101 80
3 255 208 20
3 199 33 64
3 164 33 199
3 37 240 57
3 57 240 197
3 57 197 152
3 152 75 57
3 75 138 57
3 114 252 171
3 114 238 252
3 171 33 114
3 114 33 164
3 114 164 128
3 128 238 114
3 36 195 156
3 36 185 195
3 36 156 37
3 37 57 36
3 36 57 138
3 103 185 36
3 36 138 103
3 66 62 76
3 7 62 66
3 76 159 170
3 159 253 170
3 170 66 76
3 79 66 170
3 87 106 28
3 50 106 87
3 28 55 87
3 55 50 87
3 105 212 98
3 212 84 98
3 94 254 120
3 120 254 17
3 194 94 120
3 172 194 120
3 120 17 172
3 143 179 97
3 97 100 143
3 143 100 14
3 14 108 143
3 108 179 143
3 200 126 2
3 155 126 200
3 200 2 6
3 6 163 200
3 53 220 74
3 246 85 9
3 9 202 246
3 177 90 150
3 150 90 246
3 247 104 166
3 83 247 166
3 166 209 83
3 166 118 209
3 88 4 19
3 19 235 88
3 41 4 88
3 204 161 158
3 158 107 204
3 107 111 204
3 128 164 95
3 164 199 95
3 153 208 90
3 153 20 208
3 229 209 32
3 209 118 32
3 32 38 229
3 64 38 32
3 32 199 64
3 73 66 79
3 73 185 218
3 218 7 73
3 7 66 73
3 195 185 73
3 73 79 195
3 79 170 39
3 68 195 39
3 195 79 39
3 22 68 39
3 39 253 22
3 39 170 253
3 65 103 196
3 218 185 65
3 65 185 103
3 65 84 218
3 65 98 84
3 163 74 125
3 177 150 125
3 125 150 163
3 125 220 177
3 125 74 220
3 53 74 137
3 137 232 53
3 6 232 137
3 137 163 6
3 137 74 163
3 213 44 42
3 44 0 42
3 42 161 213
3 158 161 42
3 155 200 91
3 91 200 163
3 163 150 91
3 118 166 56
3 162 124 3
3 162 3 41
3 41 88 162
3 235 124 162
3 162 88 235
3 161 204 130
3 130 72 167
3 167 213 130
3 213 161 130
3 197 240 10
3 10 240 128
3 128 95 10
3 147 90 177
3 147 153 90
3 147 220 152
3 177 220 147
3 105 98 216
3 98 129 216
3 216 129 203
3 216 106 105
3 203 106 216
3 98 65 225
3 225 129 98
3 225 65 196
3 203 129 225
3 225 196 53
3 53 232 225
3 225 232 203
3 133 158 113
3 158 42 113
3 113 0 202
3 113 42 0
3 155 91 160
3 44 155 160
3 160 0 44
3 102 91 150
3 246 202 102
3 102 150 246
3 102 160 91
3 202 0 102
3 0 160 102
3 118 56 67
3 20 10 67
3 67 10 95
3 134 56 166
3 134 104 255
3 134 166 104
3 255 20 134
3 20 67 134
3 134 67 56
3 122 130 204
3 178 15 122
3 122 15 71
3 122 111 178
3 122 204 111
3 71 72 122
3 72 130 122
3 152 197 206
3 206 147 152
3 153 147 206
3 197 10 206
3 20 153 206
3 206 10 20
3 8 85 133
3 133 113 8
3 8 9 85
3 202 9 8
3 8 113 202
3 118 67 157
3 157 67 95
3 157 32 118
3 157 95 199
3 199 32 157