ply
format ascii 1.0
comment https://github.com/mikedh/trimesh
element vertex 256
property float x
property float y
property float z
element face 508
property list uchar int vertex_indices
end_header
-2.22440553 -2.58270955 0.30651206
0.85262281 4.64745903 0.09356660
-2.35582137 -1.04601741 -0.65961194
-0.17435409 0.92172849 1.48601377
1.09783626 0.74911755 1.36520398
-0.85553026 3.58579850 0.91649163
-2.09913659 -2.26264024 -0.64303428
0.96664357 0.86064494 -1.38990939
-1.79458511 -3.24314475 0.52457869
-1.54837584 -3.69696569 0.48443136
0.80111581 -4.65506935 -0.17082053
2.63177299 -0.86337984 0.18071021
0.59732765 2.52625513 -1.25628459
-0.27947056 2.13877916 1.35580182
2.14030004 2.57141852 -0.46496058
-1.83544898 1.73346245 0.97185361
-0.95090359 -3.75495219 0.81776375
0.40733269 4.60170126 -0.47626603
0.78136617 4.32430363 0.56716692
0.92907703 1.85398841 1.30271482
-0.04060181 -4.90475368 0.06734355
2.29010272 -2.38486218 0.30564550
2.41829491 -0.49012256 -0.64964557
1.54602969 2.45970988 0.98209065
-0.46984866 1.59462917 1.41004980
1.21749461 3.16175723 -0.93601429
-0.80536282 0.67167175 1.43244457
-2.26966953 2.42321277 0.32488444
-1.65489042 0.86718029 -1.16590643
0.74989671 3.53866673 -0.96280551
2.51824474 0.48122102 0.51622063
2.33764553 0.76843601 0.71401775
1.19533253 -4.01417351 0.55662549
2.01173329 -3.26256180 0.01056202
1.88309300 3.24578762 0.41126889
1.09859562 2.16355181 -1.21262252
0.81192780 -2.99015164 -1.11290228
1.07235587 -3.50663972 -0.87289202
1.65746951 -3.09530044 0.71711862
2.07774663 -0.17478986 -0.96320468
-1.36774600 2.49589944 1.05433273
0.47010934 -0.14371897 1.49211955
-2.27496004 -2.04957557 0.50805569
2.16525531 -2.14116693 0.61205399
-2.56345654 -1.22457671 0.27044645
2.24606347 2.66668415 -0.14465870
1.04570007 -0.28316948 1.39443123
1.45349920 4.07278490 0.21722463
1.26016188 -1.00249016 1.30338752
-2.03463483 3.21311736 -0.03380651
-1.74574208 2.19581914 -0.93396240
0.07591984 4.57437181 0.54778695
0.14296505 3.92900300 0.90579772
-0.89367294 -2.52593422 -1.19906986
1.28138745 0.17018947 1.33235681
-2.04517126 1.42406750 -0.88294369
0.52154487 -4.53562975 0.50096315
0.66680890 -3.93709302 -0.82390720
1.90505636 3.46466494 0.05622624
1.41222942 2.54389858 -1.02481592
0.85581356 4.52994013 0.33186767
1.75503957 -2.75385642 -0.77408081
1.36303198 1.71486700 -1.19556558
-0.61409080 -0.72313744 1.45966208
1.86342394 -3.28938270 0.40737838
-0.15908484 -1.47135925 -1.44392931
1.57600915 0.42261904 -1.22265625
0.66747260 -4.66602135 0.28337356
2.22092938 -1.28720284 -0.75970715
-0.75503540 3.60256076 -0.93819511
2.64435196 0.57129735 0.22613271
-2.40145397 1.34632170 0.54556936
-2.50725222 0.56093949 0.52601290
1.48921180 -0.26306367 -1.26091623
-1.20550549 -3.53404045 -0.80433619
-0.20921050 -3.75046945 -0.97088569
1.83574438 1.40788329 -1.02095377
1.85041583 -0.40560150 1.09463608
1.66514432 0.83509684 1.16304600
1.76350057 -0.21176240 -1.14401162
-1.54530358 4.02081823 0.00628392
-0.59980732 2.15793633 -1.31917000
2.43369460 1.86290324 0.30023903
0.50786722 -3.75014901 0.93530244
0.29454520 -0.42413974 -1.50145435
-1.37156951 -3.53412890 0.71566480
0.41695732 3.05913472 -1.16228282
-1.62293553 1.66923237 -1.09492648
0.78301710 1.05699837 1.41366625
-0.81047308 1.95865703 1.31333542
-1.11717296 -4.46674728 -0.00391412
-2.05546498 -3.14626741 -0.12173598
-0.44681674 2.64578056 1.25243914
-2.49396491 0.55559504 -0.54553789
-0.52944952 4.67152739 -0.35805905
1.08260500 -4.48681307 0.08570176
-0.93929523 -1.07636607 1.38163352
1.38535678 4.02371073 -0.38137150
-0.06626122 -0.36248904 -1.51153743
2.20985413 -0.23926860 0.86380959
1.94346046 3.31103230 -0.23703071
-1.43391657 4.09491587 0.21654625
-2.06180692 -3.11389256 0.16115573
0.08809244 -2.66941619 -1.27174151
-0.44507948 -4.28236294 0.69713038
-0.50521946 1.21638262 -1.44089627
-1.25076497 1.79950500 -1.22207594
-1.24527895 -1.92206073 1.20634091
1.55680239 3.02330542 -0.81146282
1.04839110 3.57329893 0.85565501
-0.58720648 -3.92980552 0.84657681
-1.32109511 -0.02983153 1.32117569
2.33794594 2.01449394 -0.42303878
-2.05371618 -2.59006739 0.56718016
1.87563372 -3.41035557 -0.27236030
0.93536371 1.65486670 -1.32714915
2.61148667 -0.52588630 -0.33261845
2.67376089 -0.49385294 -0.10096990
0.84258127 -4.32041931 0.54066718
-0.95871991 4.49122190 -0.28955790
-0.14669445 4.70406961 -0.42561609
-2.06950235 2.70316935 0.49388868
-1.95769155 0.95444083 0.99868482
-1.94276845 3.22415018 0.33275026
-0.05641229 1.58239400 1.43527031
-1.40675032 -3.75400543 -0.57193100
-2.58981085 -1.19220281 -0.19358164
-0.39133152 -2.93371916 -1.19522738
1.49352658 -3.93778634 -0.33446214
-0.81707352 0.02103536 -1.44491971
-2.17509723 -0.05205806 0.89453268
-2.29982924 2.55306673 0.01914308
2.12621117 0.70991468 0.90431041
-1.62714303 -2.40498829 0.95335567
0.13323930 -4.60990095 0.51540369
1.28027415 -2.59900045 1.06510353
-1.71850908 2.93476605 -0.73539901
-1.79351223 -2.60824561 -0.79389578
0.37104940 -3.26977491 -1.11140978
-0.98437285 4.52140951 0.20229755
-1.34829974 3.19360614 0.86575168
-2.18422627 2.05268335 -0.61983681
0.80297250 4.48560715 -0.41905898
1.82187855 3.32287931 -0.44010466
0.94148982 4.12230253 -0.63065010
0.04191186 4.83053064 0.26826468
-2.50534058 1.56001294 -0.27693295
-0.38904598 -4.70187950 -0.37566942
-2.13404846 0.22510664 -0.92238939
-2.66342521 0.17874375 0.21834707
-1.75534272 -3.65865445 -0.21197477
2.27519083 2.07080364 0.49890766
-0.13920617 -4.16188335 -0.80013615
-0.33558965 -4.83668423 -0.18025054
-2.46692467 1.21041465 -0.47886360
-2.40567207 -2.13147640 -0.17667982
1.41053987 -3.12457204 -0.85875660
1.03825998 -4.36590862 0.37222108
-1.85527766 -1.63451433 0.97648793
1.97854114 1.76494384 -0.87256366
-2.24507833 -2.70924306 0.02919123
-2.16853690 -0.91791302 0.85333300
0.17444655 0.90645468 1.48707795
-1.73035216 -3.26175165 -0.57839561
1.69408596 -3.79688621 -0.11842801
2.68191552 -0.14215194 0.12816705
0.43501166 -4.30630922 0.68549788
-2.57259083 -0.44370320 0.42663190
1.41306579 3.82704115 0.51946002
-1.26860273 -2.91326809 0.98966795
2.04148054 0.45175645 -0.97889984
2.13928485 -2.90905976 -0.20282684
0.32641092 4.11526823 -0.80679232
-1.45397639 3.72007036 -0.55552334
2.23733449 -1.23334849 0.75268054
-0.86102647 -2.02394891 1.29346871
0.02944592 2.85943007 1.23245358
-1.32314253 -4.07254648 -0.40294418
-0.98151058 1.31345904 1.35276449
1.38606918 3.76207352 -0.58281535
0.57626212 2.91364503 1.17671204
-2.47298980 1.67434788 0.30525118
-1.89306796 0.25617269 -1.07538235
-2.58177304 -0.74169791 -0.36526796
2.48741078 1.23979092 -0.43686336
0.91088313 -1.69493043 -1.32762861
-0.55340850 4.21982765 0.70930558
-0.24724512 -1.52530169 1.43473411
-1.82595134 3.33772421 -0.42330503
1.71559870 -2.33231163 0.91986579
1.72921002 3.05842495 0.67678553
0.11524929 2.83131766 -1.23678422
-1.83003771 2.26788020 0.86399531
2.34136224 -2.36582255 -0.16442069
-0.00695887 4.01197338 -0.87401587
1.73713422 -2.01082826 -0.97816449
-0.62444764 -2.17002511 -1.31365609
0.42140606 -4.43668938 -0.60352170
-0.08913459 3.36997676 -1.10149860
1.59106910 -3.83261943 0.30906144
-2.20111084 -2.46306992 -0.43073085
0.18611319 -2.31641388 1.33278048
-1.94646001 -3.19945097 0.34775269
-1.37464333 0.26306340 -1.30113339
-1.74880517 -0.05068923 1.15302801
-0.80013728 -2.83164001 1.15380430
-0.00796601 -4.66373825 -0.47347614
-2.65468335 0.33297938 -0.23469098
-0.74013180 -4.68586969 0.17292196
0.82318652 -3.47052193 0.96719342
2.50228953 -1.79690659 -0.08143771
2.58053517 1.28761792 0.17493977
0.34019122 0.62367231 -1.49204683
-2.45489669 -1.07827735 0.52686495
1.92410457 -1.29937673 0.98193610
1.22913849 2.68156815 1.06530333
-0.72652686 0.68983036 -1.44428182
2.16059160 1.91255927 -0.68654519
0.61718237 -0.91490489 -1.44843042
0.63173836 -2.35512686 1.28241074
-0.63705868 -3.80279589 -0.88898528
0.76999199 -1.10339594 1.41214323
-1.20928097 3.70701861 -0.72421235
-0.00840801 -3.17324638 1.15687132
2.35196733 2.35591435 0.12527823
-0.73894745 -1.23855710 -1.40687501
-0.89124507 4.40876198 0.44015536
-0.46672398 4.83281040 0.04012592
0.57859683 4.78655338 -0.08313843
1.29930151 -3.38166857 0.81974357
1.50961530 -0.53793305 1.24425375
-1.29985571 3.14103055 -0.90647638
-2.16548085 -0.92354316 -0.85516441
-1.25016809 4.30767059 -0.18311714
1.49850786 4.06596613 -0.10269339
0.13469115 2.13696814 1.36291814
1.12438846 -1.90498495 1.24562109
2.47199106 -1.03506386 -0.51030046
1.74254036 -3.42353415 -0.46736470
-0.21607403 3.53309298 1.04586637
1.19270957 -4.07463408 -0.51480585
-0.88535309 3.07217407 1.07228017
1.38710034 3.15385222 0.86023778
2.63500500 0.82405418 -0.18402362
2.41783690 -1.59730673 0.45014778
0.24270959 3.69285583 -0.98959339
-1.25798237 -4.20959568 0.32721147
0.10719918 -3.79676342 0.95906705
2.42887783 2.04383826 -0.17415310
0.53015512 4.61430454 0.42326549
-1.52967143 3.71933007 0.48701957
-0.66096711 3.04743838 -1.12915814
2.19723773 -2.41870618 -0.45899871
2.31320310 0.72346693 -0.74362046
-0.02071718 4.88883209 -0.13477491
-0.47978908 -4.64265156 0.41104299
3 135 229 189
3 110 247 223
3 223 247 83
3 30 31 99
3 209 229 135
3 209 223 83
3 38 189 229
3 64 43 38
3 38 43 189
3 94 194 69
3 149 181 146
3 80 233 188
3 146 181 131
3 146 131 141
3 141 131 188
3 110 223 205
3 237 68 22
3 172 144 29
3 198 86 191
3 191 251 198
3 69 194 198
3 198 251 69
3 51 226 186
3 23 78 132
3 99 31 132
3 19 78 23
3 165 30 11
3 23 190 242
3 159 76 59
3 59 108 159
3 248 184 112
3 243 184 248
3 211 243 248
3 248 224 211
3 211 224 82
3 82 30 211
3 34 224 58
3 234 47 58
3 58 47 34
3 21 43 64
3 174 30 99
3 135 189 236
3 46 48 230
3 227 94 119
3 167 149 44
3 44 213 167
3 49 80 188
3 188 131 49
3 136 141 188
3 182 55 28
3 148 55 182
3 250 226 101
3 180 109 52
3 186 239 52
3 52 51 186
3 72 149 167
3 181 149 72
3 72 71 181
3 121 140 250
3 107 158 133
3 96 107 175
3 175 107 205
3 68 237 252
3 252 61 68
3 68 61 195
3 61 156 195
3 245 198 194
3 86 198 245
3 245 194 172
3 172 29 245
3 245 29 86
3 59 76 62
3 191 86 12
3 86 29 12
3 81 251 191
3 191 105 81
3 212 105 191
3 191 12 212
3 203 182 28
3 17 144 172
3 60 47 1
3 1 47 234
3 168 190 34
3 34 47 168
3 109 242 168
3 168 242 190
3 168 47 60
3 227 226 145
3 226 51 145
3 145 1 228
3 109 168 18
3 18 168 60
3 18 52 109
3 51 52 18
3 180 19 215
3 215 19 23
3 23 242 215
3 215 109 180
3 215 242 109
3 78 19 4
3 4 41 46
3 70 243 211
3 70 165 243
3 211 30 70
3 30 165 70
3 116 237 22
3 22 184 116
3 116 184 243
3 25 29 144
3 25 108 59
3 25 12 29
3 217 108 14
3 217 159 108
3 217 14 112
3 112 184 217
3 253 184 22
3 253 217 184
3 159 217 253
3 112 14 45
3 45 248 112
3 224 248 45
3 45 58 224
3 151 224 34
3 151 82 224
3 34 190 151
3 151 190 23
3 31 30 151
3 30 82 151
3 23 132 151
3 151 132 31
3 210 252 237
3 237 116 210
3 43 21 244
3 244 174 43
3 244 210 11
3 21 210 244
3 11 30 244
3 30 174 244
3 214 236 189
3 48 236 214
3 214 230 48
3 189 43 214
3 43 174 214
3 214 174 99
3 201 205 223
3 201 175 205
3 221 236 48
3 46 41 221
3 221 48 46
3 78 230 77
3 99 132 77
3 77 132 78
3 77 214 99
3 230 214 77
3 222 94 69
3 222 119 94
3 69 251 231
3 231 222 69
3 136 222 231
3 141 136 50
3 50 55 141
3 136 231 50
3 93 55 148
3 148 2 93
3 93 2 183
3 16 85 246
3 110 205 16
3 220 75 152
3 233 80 139
3 80 101 139
3 227 119 139
3 139 119 233
3 139 226 227
3 139 101 226
3 180 52 176
3 176 52 239
3 63 41 3
3 3 26 63
3 89 13 92
3 92 241 89
3 13 176 92
3 239 241 92
3 92 176 239
3 5 239 186
3 5 241 239
3 140 241 5
3 186 226 5
3 5 226 250
3 250 140 5
3 40 178 89
3 40 15 178
3 89 241 40
3 40 241 140
3 181 71 27
3 71 121 27
3 27 131 181
3 140 121 192
3 192 40 140
3 15 40 192
3 71 15 192
3 192 121 71
3 33 21 64
3 37 156 240
3 61 252 238
3 128 240 238
3 238 156 61
3 238 240 156
3 127 220 53
3 75 220 127
3 53 196 127
3 196 103 127
3 127 138 75
3 103 138 127
3 106 81 105
3 106 203 28
3 106 50 231
3 251 81 106
3 106 231 251
3 84 7 218
3 84 212 7
3 7 212 115
3 115 212 12
3 115 62 7
3 228 17 254
3 254 94 227
3 227 145 254
3 254 145 228
3 249 18 60
3 51 18 249
3 249 145 51
3 60 1 249
3 1 145 249
3 54 230 78
3 78 4 54
3 46 230 54
3 54 4 46
3 243 165 117
3 117 116 243
3 117 165 11
3 11 210 117
3 117 210 116
3 179 25 144
3 108 25 179
3 144 97 179
3 35 25 59
3 12 25 35
3 35 115 12
3 59 62 35
3 62 115 35
3 142 17 228
3 234 97 142
3 144 17 142
3 142 97 144
3 142 1 234
3 228 1 142
3 234 58 100
3 58 45 100
3 100 97 234
3 100 45 14
3 193 210 21
3 193 33 171
3 21 33 193
3 171 252 193
3 252 210 193
3 187 41 63
3 175 201 187
3 187 221 41
3 201 221 187
3 63 96 187
3 96 175 187
3 236 221 219
3 219 221 201
3 219 209 135
3 135 236 219
3 223 209 219
3 219 201 223
3 173 136 188
3 173 222 136
3 188 233 173
3 233 119 173
3 119 222 173
3 148 182 232
3 232 2 148
3 6 2 232
3 182 203 232
3 126 155 44
3 126 44 149
3 183 2 126
3 207 93 183
3 207 126 149
3 183 126 207
3 207 149 146
3 141 55 154
3 55 93 154
3 146 141 154
3 154 207 146
3 93 207 154
3 246 255 104
3 104 16 246
3 110 16 104
3 104 247 110
3 133 85 169
3 85 16 169
3 169 16 205
3 169 107 133
3 205 107 169
3 208 255 246
3 246 90 208
3 235 176 13
3 235 19 180
3 180 176 235
3 124 235 13
3 178 26 24
3 26 3 24
3 89 178 24
3 3 124 24
3 24 13 89
3 24 124 13
3 111 107 96
3 111 96 63
3 63 26 111
3 111 26 178
3 123 27 121
3 123 121 250
3 123 49 131
3 131 27 123
3 250 101 123
3 80 49 123
3 123 101 80
3 255 208 20
3 199 33 64
3 164 33 199
3 37 240 57
3 57 240 197
3 57 197 152
3 152 75 57
3 75 138 57
3 114 252 171
3 114 238 252
3 171 33 114
3 114 33 164
3 114 164 128
3 128 238 114
3 36 195 156
3 36 185 195
3 36 156 37
3 37 57 36
3 36 57 138
3 103 185 36
3 36 138 103
3 66 62 76
3 7 62 66
3 76 159 170
3 159 253 170
3 170 66 76
3 79 66 170
3 87 106 28
3 50 106 87
3 28 55 87
3 55 50 87
3 105 212 98
3 212 84 98
3 94 254 120
3 120 254 17
3 194 94 120
3 172 194 120
3 120 17 172
3 143 179 97
3 97 100 143
3 143 100 14
3 14 108 143
3 108 179 143
3 200 126 2
3 155 126 200
3 200 2 6
3 6 163 200
3 53 220 74
3 246 85 9
3 9 202 246
3 177 90 150
3 150 90 246
3 247 104 166
3 83 247 166
3 166 209 83
3 166 118 209
3 88 4 19
3 19 235 88
3 41 4 88
3 204 161 158
3 158 107 204
3 107 111 204
3 128 164 95
3 164 199 95
3 153 208 90
3 153 20 208
3 229 209 32
3 209 118 32
3 32 38 229
3 64 38 32
3 32 199 64
3 73 66 79
3 73 185 218
3 218 7 73
3 7 66 73
3 195 185 73
3 73 79 195
3 79 170 39
3 68 195 39
3 195 79 39
3 22 68 39
3 39 253 22
3 39 170 253
3 65 103 196
3 218 185 65
3 65 185 103
3 65 84 218
3 65 98 84
3 163 74 125
3 177 150 125
3 125 150 163
3 125 220 177
3 125 74 220
3 53 74 137
3 137 232 53
3 6 232 137
3 137 163 6
3 137 74 163
3 213 44 42
3 44 0 42
3 42 161 213
3 158 161 42
3 155 200 91
3 91 200 163
3 163 150 91
3 118 166 56
3 162 124 3
3 162 3 41
3 41 88 162
3 235 124 162
3 162 88 235
3 161 204 130
3 130 72 167
3 167 213 130
3 213 161 130
3 197 240 10
3 10 240 128
3 128 95 10
3 147 90 177
3 147 153 90
3 147 220 152
3 177 220 147
3 105 98 216
3 98 129 216
3 216 129 203
3 216 106 105
3 203 106 216
3 98 65 225
3 225 129 98
3 225 65 196
3 203 129 225
3 225 196 53
3 53 232 225
3 225 232 203
3 133 158 113
3 158 42 113
3 113 0 202
3 113 42 0
3 155 91 160
3 44 155 160
3 160 0 44
3 102 91 150
3 246 202 102
3 102 150 246
3 102 160 91
3 202 0 102
3 0 160 102
3 118 56 67
3 20 10 67
3 67 10 95
3 134 56 166
3 134 104 255
3 134 166 104
3 255 20 134
3 20 67 134
3 134 67 56
3 122 130 204
3 178 15 122
3 122 15 71
3 122 111 178
3 122 204 111
3 71 72 122
3 72 130 122
3 152 197 206
3 206 147 152
3 153 147 206
3 197 10 206
3 20 153 206
3 206 10 20
3 8 85 133
3 133 113 8
3 8 9 85
3 202 9 8
3 8 113 202
3 118 67 157
3 157 67 95
3 157 32 118
3 157 95 199
3 199 32 157