ply
format ascii 1.0
comment https://github.com/mikedh/trimesh
element vertex 256
property float x
property float y
property float z
element face 508
property list uchar int vertex_indices
end_header
-1.07742715 -2.50392580 0.41719264
0.41298181 4.50569153 0.12735322
-1.14108062 -1.01410937 -0.89779580
-0.08445126 0.89361185 2.02260876
0.53175491 0.72626626 1.85817504
-0.41439006 3.47641635 1.24743390
-1.01675105 -2.19361997 -0.87523204
0.46820962 0.83439159 -1.89180160
-0.86923665 -3.14421487 0.71400249
-0.74998111 -3.58419251 0.65935808
0.38803354 -4.51306963 -0.23250332
1.27474236 -0.83704305 0.24596412
0.28932542 2.44919348 -1.70992517
-0.13536613 2.07353735 1.84537780
1.03668928 2.49297929 -0.63285643
-0.88902968 1.68058443 1.32278705
-0.46058568 -3.64041018 1.11305583
0.19729824 4.46132946 -0.64824426
0.37846747 4.19239378 0.77196920
0.45001364 1.79743385 1.77312124
-0.01966615 -4.75513792 0.09166110
1.10924864 -2.31211376 0.41601318
1.17134070 -0.47517172 -0.88423061
0.74884474 2.38467813 1.33672059
-0.22757888 1.54598618 1.91921461
0.58971345 3.06531000 -1.27400625
-0.39009064 0.65118289 1.94969594
-1.09935153 2.34929442 0.44219923
-0.80157322 0.84072757 -1.58691180
0.36322471 3.43072248 -1.31047165
1.21975303 0.46654174 0.70262629
1.13227689 0.74499547 0.97184741
0.57897884 -3.89172411 0.75762129
0.97441590 -3.16303968 0.01437593
0.91210687 3.14677715 0.55977684
0.53212273 2.09755421 -1.65049684
0.39327049 -2.89893937 -1.51476800
0.51941311 -3.39967227 -1.18809068
0.80282247 -3.00088048 0.97606802
1.00639057 -0.16945802 -1.31101501
-0.66249013 2.41976380 1.43504918
0.22770515 -0.13933493 2.03091955
-1.10191417 -1.98705482 0.69151306
1.04877687 -2.07585216 0.83306485
-1.24165201 -1.18722188 0.36810386
1.08791757 2.58533883 -0.19689453
0.50650191 -0.27453160 1.89795613
0.70402610 3.94854784 0.29566377
0.61037999 -0.97191000 1.77403688
-0.98550868 3.11510372 -0.04601394
-0.84557873 2.12883735 -1.27121341
0.03677301 4.43483400 0.74559116
0.06924746 3.80915165 1.23287857
-0.43286508 -2.44888234 -1.63205040
0.62066096 0.16499797 1.81346691
-0.99061215 1.38062739 -1.20177197
0.25261876 -4.39727402 0.68185943
0.32297978 -3.81699491 -1.12141764
0.92274517 3.35897803 0.07652937
0.68403637 2.46629882 -1.39487386
0.41452730 4.39175797 0.45170408
0.85008210 -2.66985202 -1.05359912
0.66020679 1.66255629 -1.62728083
-0.29744494 -0.70107865 1.98674166
0.90257984 -3.18904257 0.55448151
-0.07705534 -1.42647648 -1.96532786
0.76336581 0.40972736 -1.66415381
0.32330126 -4.52368784 0.38569891
1.07574344 -1.24793768 -1.03403509
-0.36571375 3.49266744 -1.27697456
1.28083515 0.55387038 0.30778855
-1.16318357 1.30525315 0.74257284
-1.21442854 0.54382843 0.71595454
0.72132409 -0.25503910 -1.71622932
-0.58390629 -3.42623734 -1.09477961
-0.10133453 -3.63606405 -1.32146966
0.88917279 1.36493683 -1.38961720
0.89627910 -0.39322892 1.48990583
0.80653989 0.80962282 1.58301842
0.85418034 -0.20530273 -1.55711067
-0.74849308 3.89816642 0.00855302
-0.29052648 2.09211016 -1.79551840
1.17879975 1.80607677 0.40865442
0.24599378 -3.63575339 1.27303731
0.14266779 -0.41120169 -2.04362512
-0.66434211 -3.42632294 0.97408921
0.20196009 2.96581817 -1.58197963
-0.78609532 1.61831367 -1.49030113
0.37926713 1.02475536 1.92413700
-0.39256588 1.89890969 1.78757679
-0.54112101 -4.33049250 -0.00532750
-0.99559802 -3.05029273 -0.16569446
-0.21642299 2.56507301 1.70469105
-1.20799267 0.53864700 -0.74252999
-0.25644752 4.52902603 -0.48735309
0.52437741 -4.34994650 0.11664841
-0.45496300 -1.04353237 1.88053727
0.67102021 3.90097046 -0.51908362
-0.03209470 -0.35143161 -2.05734921
1.07037890 -0.23196989 1.17572868
0.94134682 3.21003175 -0.32262179
-0.69454092 3.97000360 0.29474047
-0.99866986 -3.01890564 0.21934859
0.04266901 -2.58798766 -1.73096347
-0.21558152 -4.15173244 0.94886202
-0.24471131 1.17927778 -1.96119952
-0.60582846 1.74461234 -1.66336381
-0.60317117 -1.86342978 1.64194703
0.75406265 2.93108177 -1.10447955
0.50780535 3.46429801 1.16462946
-0.28442308 -3.80992961 1.15227306
-0.63989401 -0.02892154 1.79824829
1.13242233 1.95304334 -0.57579684
-0.99475098 -2.51105928 0.77198720
0.90849388 -3.30632520 -0.37070876
0.45305872 1.60438621 -1.80637884
1.26491618 -0.50984454 -0.45272598
1.29507971 -0.47878832 -0.13742983
0.40811801 -4.18862820 0.73590052
-0.46437165 4.35422039 -0.39411640
-0.07105386 4.56057549 -0.57930475
-1.00239730 2.62071109 0.67223042
-0.94823992 0.92532635 1.35930693
-0.94101167 3.12579989 0.45290536
-0.02732421 1.53412426 1.95354211
-0.68138248 -3.63949227 -0.77845359
-1.25441718 -1.15583551 -0.26348338
-0.18954782 -2.84422803 -1.62682033
0.72341400 -3.81766725 -0.45523542
-0.39576292 0.02039369 -1.96667576
-1.05354393 -0.05047007 1.21754575
-1.11395991 2.47518730 0.02605559
1.02986515 0.68825924 1.23085415
-0.78813332 -2.33162594 1.29760957
0.06453663 -4.46927929 0.70151436
0.62012166 -2.51971984 1.44970918
-0.83238792 2.84524322 -1.00094938
-0.86871696 -2.52868319 -1.08056915
0.17972383 -3.17003274 -1.51273644
-0.47679707 4.38348722 0.27534661
-0.65307099 3.09618759 1.17837203
-1.05796564 1.99006784 -0.84365803
0.38893285 4.34877682 -0.57037991
0.88245666 3.22151732 -0.59902513
0.45602596 3.99655485 -0.85837597
0.02030070 4.68317890 0.36513424
-1.21350265 1.51242590 -0.37693262
-0.18844078 -4.55845213 -0.51132256
-1.03366125 0.21823993 -1.25546145
-1.29007351 0.17329131 0.29719153
-0.85022891 -3.54705000 -0.28851822
1.10202587 2.00763535 0.67906171
-0.06742679 -4.03492785 -1.08906293
-0.16254833 -4.68914461 -0.24533847
-1.19489527 1.17349184 -0.65177977
-1.16522658 -2.06645727 -0.24047837
0.68321800 -3.02925920 -1.16885102
0.50289822 -4.23272991 0.50662899
-0.89863402 -1.58465469 1.32909477
0.95833874 1.71110559 -1.18764377
-1.08744037 -2.62659955 0.03973209
-1.05036628 -0.88991278 1.16146898
0.08449604 0.87880397 2.02405739
-0.83812433 -3.16225433 -0.78725249
0.82055825 -3.68106484 -0.16119201
1.29902959 -0.13781570 0.17444777
0.21070500 -4.17494822 0.93302906
-1.24607635 -0.43016836 0.58068740
0.68444151 3.71030021 0.70703548
-0.61446846 -2.82440090 1.34703410
0.98882443 0.43797597 -1.33237767
1.03619766 -2.82032108 -0.27606702
0.15810247 3.98973513 -1.09812260
-0.70425725 3.60659242 -0.75612116
1.08368945 -1.19572604 1.02447128
-0.41705224 -1.96220994 1.76053631
0.01426261 2.77220535 1.67748880
-0.64088571 -3.94831657 -0.54844612
-0.47541070 1.27339292 1.84124362
0.67136526 3.64731431 -0.79326820
0.27912199 2.82476640 1.60161924
-1.19783306 1.62327313 0.41547647
-0.91693836 0.24835834 -1.46369970
-1.25052392 -0.71907294 -0.49716511
1.20481813 1.20197201 -0.59461343
0.44120112 -1.64322782 -1.80703127
-0.26805246 4.09110498 0.96543372
-0.11975722 -1.47877347 1.95281231
-0.88442940 3.23590946 -0.57615924
0.83097821 -2.26116633 1.25202656
0.83757108 2.96513009 0.92117077
0.05582288 2.74495053 -1.68338323
-0.88640869 2.19870019 1.17598140
1.13407707 -2.29365492 -0.22379251
-0.00337064 3.88959098 -1.18962038
0.84140933 -1.94948936 -1.33137679
-0.30246142 -2.10383010 -1.78801334
0.20411491 -4.30135155 -0.82145154
-0.04317380 3.26717806 -1.49924648
0.77066034 -3.71570802 0.42066261
-1.06614399 -2.38793564 -0.58626646
0.09014697 -2.24575329 1.81404340
-0.94279975 -3.10185409 0.47332516
-0.66583091 0.25503886 -1.77096868
-0.84706235 -0.04914299 1.56938303
-0.38755956 -2.74526310 1.57043958
-0.00385847 -4.52147436 -0.64444697
-1.28583920 0.32282209 -0.31943721
-0.35849491 -4.54293060 0.23536356
0.39872387 -3.36465621 1.31644404
1.21202493 -1.74209332 -0.11084462
1.24992442 1.24834013 0.23810999
0.16477717 0.60464764 -2.03082037
-1.18906927 -1.04538536 0.71711427
0.93197149 -1.25974023 1.33651030
0.59535336 2.59976888 1.44998121
-0.35190517 0.66878760 -1.96580756
1.04651785 1.85421801 -0.93445462
0.29894239 -0.88699639 -1.97145426
0.30599281 -2.28328538 1.74548542
-0.30856979 -3.68679452 -1.20999515
0.37295821 -1.06973755 1.92206383
-0.58573502 3.59393883 -0.98572326
-0.00407256 -3.07644892 1.57461405
1.13921392 2.28404880 0.17051584
-0.35792130 -1.20077574 -1.91489339
-0.43168911 4.27427626 0.59909415
-0.22606538 4.68538904 0.05461527
0.28025281 4.64054298 -0.11315946
0.62933791 -3.27851319 1.11575043
0.73120683 -0.52152383 1.69354999
-0.62960637 3.04521561 -1.23380220
-1.04888606 -0.89537120 -1.16396165
-0.60553938 4.17626810 -0.24924019
0.72582680 3.94193697 -0.13977566
0.06523986 2.07178164 1.85506380
0.54461592 -1.84687471 1.69541109
1.19734931 -1.00348997 -0.69456840
0.84402788 -3.31910181 -0.63612872
-0.10465899 3.42531848 1.42352557
0.57770836 -3.95034051 -0.70070070
-0.42883521 2.97845984 1.45947731
0.67186469 3.05764627 1.17086709
1.27630782 0.79891706 -0.25047401
1.17111874 -1.54858208 0.61269480
0.11756036 3.58020806 -1.34693265
-0.60932434 -4.08118486 0.44536653
0.05192367 -3.68094587 1.30538332
1.17646658 1.98149252 -0.23703927
0.25678930 4.47354841 0.57610536
-0.74092138 3.60587478 0.66288084
-0.32015020 2.95447850 -1.53689373
1.06426799 -2.34492540 -0.62474179
1.12043774 0.70139813 -1.01213956
-0.01003471 4.73970222 -0.18344173
-0.23239368 -4.50103092 0.55946940
3 135 229 189
3 110 247 223
3 223 247 83
3 30 31 99
3 209 229 135
3 209 223 83
3 38 189 229
3 64 43 38
3 38 43 189
3 94 194 69
3 149 181 146
3 80 233 188
3 146 181 131
3 146 131 141
3 141 131 188
3 110 223 205
3 237 68 22
3 172 144 29
3 198 86 191
3 191 251 198
3 69 194 198
3 198 251 69
3 51 226 186
3 23 78 132
3 99 31 132
3 19 78 23
3 165 30 11
3 23 190 242
3 159 76 59
3 59 108 159
3 248 184 112
3 243 184 248
3 211 243 248
3 248 224 211
3 211 224 82
3 82 30 211
3 34 224 58
3 234 47 58
3 58 47 34
3 21 43 64
3 174 30 99
3 135 189 236
3 46 48 230
3 227 94 119
3 167 149 44
3 44 213 167
3 49 80 188
3 188 131 49
3 136 141 188
3 182 55 28
3 148 55 182
3 250 226 101
3 180 109 52
3 186 239 52
3 52 51 186
3 72 149 167
3 181 149 72
3 72 71 181
3 121 140 250
3 107 158 133
3 96 107 175
3 175 107 205
3 68 237 252
3 252 61 68
3 68 61 195
3 61 156 195
3 245 198 194
3 86 198 245
3 245 194 172
3 172 29 245
3 245 29 86
3 59 76 62
3 191 86 12
3 86 29 12
3 81 251 191
3 191 105 81
3 212 105 191
3 191 12 212
3 203 182 28
3 17 144 172
3 60 47 1
3 1 47 234
3 168 190 34
3 34 47 168
3 109 242 168
3 168 242 190
3 168 47 60
3 227 226 145
3 226 51 145
3 145 1 228
3 109 168 18
3 18 168 60
3 18 52 109
3 51 52 18
3 180 19 215
3 215 19 23
3 23 242 215
3 215 109 180
3 215 242 109
3 78 19 4
3 4 41 46
3 70 243 211
3 70 165 243
3 211 30 70
3 30 165 70
3 116 237 22
3 22 184 116
3 116 184 243
3 25 29 144
3 25 108 59
3 25 12 29
3 217 108 14
3 217 159 108
3 217 14 112
3 112 184 217
3 253 184 22
3 253 217 184
3 159 217 253
3 112 14 45
3 45 248 112
3 224 248 45
3 45 58 224
3 151 224 34
3 151 82 224
3 34 190 151
3 151 190 23
3 31 30 151
3 30 82 151
3 23 132 151
3 151 132 31
3 210 252 237
3 237 116 210
3 43 21 244
3 244 174 43
3 244 210 11
3 21 210 244
3 11 30 244
3 30 174 244
3 214 236 189
3 48 236 214
3 214 230 48
3 189 43 214
3 43 174 214
3 214 174 99
3 201 205 223
3 201 175 205
3 221 236 48
3 46 41 221
3 221 48 46
3 78 230 77
3 99 132 77
3 77 132 78
3 77 214 99
3 230 214 77
3 222 94 69
3 222 119 94
3 69 251 231
3 231 222 69
3 136 222 231
3 141 136 50
3 50 55 141
3 136 231 50
3 93 55 148
3 148 2 93
3 93 2 183
3 16 85 246
3 110 205 16
3 220 75 152
3 233 80 139
3 80 101 139
3 227 119 139
3 139 119 233
3 139 226 227
3 139 101 226
3 180 52 176
3 176 52 239
3 63 41 3
3 3 26 63
3 89 13 92
3 92 241 89
3 13 176 92
3 239 241 92
3 92 176 239
3 5 239 186
3 5 241 239
3 140 241 5
3 186 226 5
3 5 226 250
3 250 140 5
3 40 178 89
3 40 15 178
3 89 241 40
3 40 241 140
3 181 71 27
3 71 121 27
3 27 131 181
3 140 121 192
3 192 40 140
3 15 40 192
3 71 15 192
3 192 121 71
3 33 21 64
3 37 156 240
3 61 252 238
3 128 240 238
3 238 156 61
3 238 240 156
3 127 220 53
3 75 220 127
3 53 196 127
3 196 103 127
3 127 138 75
3 103 138 127
3 106 81 105
3 106 203 28
3 106 50 231
3 251 81 106
3 106 231 251
3 84 7 218
3 84 212 7
3 7 212 115
3 115 212 12
3 115 62 7
3 228 17 254
3 254 94 227
3 227 145 254
3 254 145 228
3 249 18 60
3 51 18 249
3 249 145 51
3 60 1 249
3 1 145 249
3 54 230 78
3 78 4 54
3 46 230 54
3 54 4 46
3 243 165 117
3 117 116 243
3 117 165 11
3 11 210 117
3 117 210 116
3 179 25 144
3 108 25 179
3 144 97 179
3 35 25 59
3 12 25 35
3 35 115 12
3 59 62 35
3 62 115 35
3 142 17 228
3 234 97 142
3 144 17 142
3 142 97 144
3 142 1 234
3 228 1 142
3 234 58 100
3 58 45 100
3 100 97 234
3 100 45 14
3 193 210 21
3 193 33 171
3 21 33 193
3 171 252 193
3 252 210 193
3 187 41 63
3 175 201 187
3 187 221 41
3 201 221 187
3 63 96 187
3 96 175 187
3 236 221 219
3 219 221 201
3 219 209 135
3 135 236 219
3 223 209 219
3 219 201 223
3 173 136 188
3 173 222 136
3 188 233 173
3 233 119 173
3 119 222 173
3 148 182 232
3 232 2 148
3 6 2 232
3 182 203 232
3 126 155 44
3 126 44 149
3 183 2 126
3 207 93 183
3 207 126 149
3 183 126 207
3 207 149 146
3 141 55 154
3 55 93 154
3 146 141 154
3 154 207 146
3 93 207 154
3 246 255 104
3 104 16 246
3 110 16 104
3 104 247 110
3 133 85 169
3 85 16 169
3 169 16 205
3 169 107 133
3 205 107 169
3 208 255 246
3 246 90 208
3 235 176 13
3 235 19 180
3 180 176 235
3 124 235 13
3 178 26 24
3 26 3 24
3 89 178 24
3 3 124 24
3 24 13 89
3 24 124 13
3 111 107 96
3 111 96 63
3 63 26 111
3 111 26 178
3 123 27 121
3 123 121 250
3 123 49 131
3 131 27 123
3 250 101 123
3 80 49 123
3 123 101 80
3 255 208 20
3 199 33 64
3 164 33 199
3 37 240 57
3 57 240 197
3 57 197 152
3 152 75 57
3 75 138 57
3 114 252 171
3 114 238 252
3 171 33 114
3 114 33 164
3 114 164 128
3 128 238 114
3 36 195 156
3 36 185 195
3 36 156 37
3 37 57 36
3 36 57 138
3 103 185 36
3 36 138 103
3 66 62 76
3 7 62 66
3 76 159 170
3 159 253 170
3 170 66 76
3 79 66 170
3 87 106 28
3 50 106 87
3 28 55 87
3 55 50 87
3 105 212 98
3 212 84 98
3 94 254 120
3 120 254 17
3 194 94 120
3 172 194 120
3 120 17 172
3 143 179 97
3 97 100 143
3 143 100 14
3 14 108 143
3 108 179 143
3 200 126 2
3 155 126 200
3 200 2 6
3 6 163 200
3 53 220 74
3 246 85 9
3 9 202 246
3 177 90 150
3 150 90 246
3 247 104 166
3 83 247 166
3 166 209 83
3 166 118 209
3 88 4 19
3 19 235 88
3 41 4 88
3 204 161 158
3 158 107 204
3 107 111 204
3 128 164 95
3 164 199 95
3 153 208 90
3 153 20 208
3 229 209 32
3 209 118 32
3 32 38 229
3 64 38 32
3 32 199 64
3 73 66 79
3 73 185 218
3 218 7 73
3 7 66 73
3 195 185 73
3 73 79 195
3 79 170 39
3 68 195 39
3 195 79 39
3 22 68 39
3 39 253 22
3 39 170 253
3 65 103 196
3 218 185 65
3 65 185 103
3 65 84 218
3 65 98 84
3 163 74 125
3 177 150 125
3 125 150 163
3 125 220 177
3 125 74 220
3 53 74 137
3 137 232 53
3 6 232 137
3 137 163 6
3 137 74 163
3 213 44 42
3 44 0 42
3 42 161 213
3 158 161 42
3 155 200 91
3 91 200 163
3 163 150 91
3 118 166 56
3 162 124 3
3 162 3 41
3 41 88 162
3 235 124 162
3 162 88 235
3 161 204 130
3 130 72 167
3 167 213 130
3 213 161 130
3 197 240 10
3 10 240 128
3 128 95 10
3 147 90 177
3 147 153 90
3 147 220 152
3 177 220 147
3 105 98 216
3 98 129 216
3 216 129 203
3 216 106 105
3 203 106 216
3 98 65 225
3 225 129 98
3 225 65 196
3 203 129 225
3 225 196 53
3 53 232 225
3 225 232 203
3 133 158 113
3 158 42 113
3 113 0 202
3 113 42 0
3 155 91 160
3 44 155 160
3 160 0 44
3 102 91 150
3 246 202 102
3 102 150 246
3 102 160 91
3 202 0 102
3 0 160 102
3 118 56 67
3 20 10 67
3 67 10 95
3 134 56 166
3 134 104 255
3 134 166 104
3 255 20 134
3 20 67 134
3 134 67 56
3 122 130 204
3 178 15 122
3 122 15 71
3 122 111 178
3 122 204 111
3 71 72 122
3 72 130 122
3 152 197 206
3 206 147 152
3 153 147 206
3 197 10 206
3 20 153 206
3 206 10 20
3 8 85 133
3 133 113 8
3 8 9 85
3 202 9 8
3 8 113 202
3 118 67 157
3 157 67 95
3 157 32 118
3 157 95 199
3 199 32 157