ply
format ascii 1.0
comment https://github.com/mikedh/trimesh
element vertex 256
property float x
property float y
property float z
element face 508
property list uchar int vertex_indices
end_header
-1.54146397 -2.29075551 0.71381837
0.59084880 4.12210226 0.21790192
-1.63253224 -0.92777377 -1.53613245
-0.12082354 0.81753469 3.46069241
0.76077628 0.66443604 3.17934561
-0.59286362 3.18045354 2.13436484
-1.45465529 -2.00686741 -1.49752581
0.66986269 0.76335615 -3.23688054
-1.24360788 -2.87653399 1.22166133
-1.07299030 -3.27905440 1.12816453
0.55515558 -4.12885237 -0.39781418
1.82376075 -0.76578188 0.42084569
0.41393489 2.24068284 -2.92568922
-0.19366693 1.89700782 3.15744925
1.48318076 2.28074098 -1.08282006
-1.27192569 1.53750885 2.26329422
-0.65895522 -3.33048606 1.90444326
0.28227258 4.08151674 -1.10914874
0.54146951 3.83547688 1.32084262
0.64382988 1.64441037 3.03381801
-0.02813616 -4.35031176 0.15683255
1.58699071 -2.11527324 0.71180034
1.67582500 -0.43471825 -1.51292241
1.07136440 2.18165994 2.28713465
-0.32559475 1.41436958 3.28378439
0.84369695 2.80434656 -2.17983007
-0.55809867 0.59574485 3.33593822
-1.57283092 2.14928865 0.75660479
-1.14680254 0.76915270 -2.71521282
0.51966184 3.13864970 -2.24222279
1.74508810 0.42682296 1.20219660
1.61993682 0.68157071 1.66283512
0.82833910 -3.56040430 1.29629326
1.39408684 -2.89375615 0.02459727
1.30494189 2.87887812 0.95778054
0.76130253 1.91898024 -2.82400727
0.56264806 -2.65213966 -2.59177470
0.74311900 -3.11024308 -2.03282833
1.14858985 -2.74540234 1.67005658
1.43983257 -0.15503131 -2.24315238
-0.94781774 2.21375871 2.45537519
0.32577541 -0.12747273 3.47491193
-1.57649720 -1.81788814 1.18318188
1.50047421 -1.89912570 1.42537761
-1.77641881 -1.08614850 0.62982726
1.55647242 2.36523747 -0.33688739
0.72464705 -0.25115949 3.24741101
1.00724292 3.61239028 0.50588202
0.87326437 -0.88916701 3.03538489
-1.40995705 2.84990120 -0.07873005
-1.20976079 1.94760001 -2.17505169
0.05261077 4.05727720 1.27570975
0.09907163 3.48486161 2.10946059
-0.61929560 -2.24039817 -2.79244542
0.88797325 0.15095097 3.10284972
-1.41725862 1.26308846 -2.05623698
0.36141908 -4.02291441 1.16666448
0.46208385 -3.49203730 -1.91875041
1.32016206 3.07301331 0.13094209
0.97864377 2.25633192 -2.38663507
0.59305990 4.01786804 0.77286762
1.21620369 -2.44255567 -1.80271256
0.94455111 1.52101552 -2.78428435
-0.42555138 -0.64139271 3.39932346
1.29131162 -2.91754532 0.94872022
-0.11024228 -1.30503416 -3.36268449
1.09213960 0.37484547 -2.84737420
0.46254379 -4.13856649 0.65993249
1.53905499 -1.14169514 -1.76923847
-0.52322286 3.19532108 -2.18490887
1.83247757 0.50671691 0.52662754
-1.66415465 1.19413126 1.27054536
-1.73747039 0.49752989 1.22500134
1.03199089 -0.23332649 -2.93647575
-0.83538866 -3.13454652 -1.87317252
-0.14497826 -3.32650971 -2.26104021
1.27213037 1.24873376 -2.37764096
1.28229725 -0.35975161 2.54923534
1.15390837 0.74069601 2.70855141
1.22206700 -0.18782440 -2.66422319
-1.07086134 3.56629825 0.01463426
-0.41565323 1.91399956 -3.07213974
1.68649673 1.65231752 0.69920945
0.35194078 -3.32622552 2.17817235
0.20411333 -0.37619427 -3.49665117
-0.95046741 -3.13462472 1.66667080
0.28894222 2.71332479 -2.70677400
-1.12465847 1.48053944 -2.54991174
0.54261357 0.93751341 3.29220653
-0.56163996 1.73724711 3.05855155
-0.77417624 -3.96181846 -0.00911538
-1.42439175 -2.79060793 -0.28350395
-0.30963415 2.34669709 2.91673374
-1.72826266 0.49278960 -1.27047205
-0.36689684 4.14344978 -0.83386320
0.75022137 -3.97961617 0.19958594
-0.65091085 -0.95469183 3.21760726
0.96002173 3.56886363 -0.88815427
-0.04591756 -0.32151267 -3.52013326
1.53138018 -0.21222126 2.01167679
1.34677529 2.93674755 -0.55200726
-0.99367255 3.63201976 0.50430220
-1.42878664 -2.76189280 0.37530637
0.06104611 -2.36766076 -2.96168613
-0.30843025 -3.79827738 1.62350702
-0.35010594 1.07888067 -3.35562086
-0.86675251 1.59608579 -2.84602261
-0.86295080 -1.70478773 2.80937839
1.07882965 2.68154573 -1.88976932
0.72651190 3.16936707 1.99268603
-0.40692115 -3.48557353 1.97154427
-0.91548979 -0.02645933 3.07681060
1.62014496 1.78677201 -0.98519081
-1.42317998 -2.29728174 1.32087338
1.29977274 -3.02484298 -0.63428432
0.64818645 1.46779776 -3.09072185
1.80970252 -0.46643922 -0.77461612
1.85285723 -0.43802696 -0.23514302
0.58389020 -3.83203173 1.25912893
-0.66437173 3.98352647 -0.67433488
-0.10165601 4.17231369 -0.99119300
-1.43411946 2.39759827 1.15018916
-1.35663712 0.84654921 2.32577991
-1.34629571 2.85968661 0.77492303
-0.03909247 1.40351748 3.34251904
-0.97484690 -3.32964611 -1.33193743
-1.79468179 -1.05743408 -0.45082122
-0.27118412 -2.60208631 -2.78349662
1.03498089 -3.49265218 -0.77890980
-0.56621391 0.01865749 -3.36499071
-1.50729442 -0.04617332 2.08322597
-1.59373105 2.26446366 0.04458123
1.47341740 0.62966472 2.10599685
-1.12757421 -2.13312435 2.22021556
0.09233190 -4.08878946 1.20029414
0.88720173 -2.30520487 2.48045874
-1.19088888 2.60301495 -1.71262860
-1.24286449 -2.31340504 -1.84885848
0.25712904 -2.90015388 -2.58829856
-0.68214869 4.01030159 0.47111923
-0.93434197 2.83259535 2.01619959
-1.51362062 1.82064450 -1.44350255
0.55644220 3.97854638 -0.97592247
1.26252162 2.94725513 -1.02493453
0.65243167 3.65631056 -1.46868491
0.02904400 4.28447914 0.62474626
-1.73614573 1.38366640 -0.64493334
-0.26960030 -4.17037106 -0.87487507
-1.47884858 0.19966020 -2.14809990
-1.84569490 0.15853825 0.50849599
-1.21641374 -3.24507380 -0.49365592
1.57665706 1.83671641 1.16187751
-0.09646680 -3.69141674 -1.86339128
-0.23255622 -4.28993702 -0.41977519
-1.70952439 1.07358730 -1.11519802
-1.66707778 -1.89053059 -0.41145954
0.97747296 -2.77136493 -1.99990916
0.71949130 -3.87237883 0.86684442
-1.28566647 -1.44974601 2.27408695
1.37108541 1.56543159 -2.03206348
-1.55578983 -2.40298557 0.06798179
-1.50274813 -0.81415051 1.98727834
0.12088761 0.80398750 3.46317101
-1.19909585 -2.89303756 -1.34699237
1.17396414 -3.36767960 -0.27580023
1.85850835 -0.12608284 0.29848090
0.30145347 -3.81951666 1.59641683
-1.78274858 -0.39354622 0.99355859
0.97922343 3.39442587 1.20974076
-0.87911367 -2.58394718 2.30478096
1.41470098 0.40068913 -2.27970386
1.48247731 -2.58021450 -0.47235185
0.22619556 3.65007138 -1.87889254
-1.00757360 3.29954720 -1.29372656
1.55042338 -1.09392858 1.75287473
-0.59667236 -1.79515827 3.01228523
0.02040537 2.53619528 2.87019062
-0.91690856 -3.61217904 -0.93839365
-0.68016517 1.16498327 3.15037584
0.96051538 3.33680224 -1.35728526
0.39933693 2.58428144 2.74037743
-1.71372747 1.48507679 0.71088201
-1.31185424 0.22721450 -2.50439644
-1.78911173 -0.65785509 -0.85065168
1.72372091 1.09964275 -1.01738608
0.63122189 -1.50333261 -3.09183836
-0.38349989 3.74281096 1.65186131
-0.17133541 -1.35287893 3.34127021
-1.26534402 2.96042204 -0.98581088
1.18887198 -2.06866312 2.14222288
1.19830430 2.71269536 1.57612717
0.07986522 2.51126075 -2.88027596
-1.26817584 2.01151514 2.01210928
1.62251234 -2.09838581 -0.38290995
-0.00482234 3.55845284 -2.03544569
1.20379567 -1.78352070 -2.27799129
-0.43272844 -1.92472172 -3.05929852
0.29202509 -3.93515849 -1.40550721
-0.06176830 2.98902869 -2.56521726
1.10257578 -3.39937353 0.71975553
-1.52532125 -2.18464017 -1.00310445
0.12897234 -2.05456233 3.10383606
-1.34885383 -2.83777952 0.80986136
-0.95259744 0.23332627 -3.03013515
-1.21188343 -0.04495923 2.68522096
-0.55447751 -2.51154661 2.68702888
-0.00552027 -4.13654137 -1.10265148
-1.83963692 0.29533881 -0.54655844
-0.51289499 -4.15617085 0.40270805
0.57045013 -3.07820797 2.25244141
1.73403156 -1.59378123 -0.18965562
1.78825390 1.14206338 0.40740722
0.23574501 0.55317134 -3.47474241
-1.70118916 -0.95638704 1.22698557
1.33336198 -1.15249300 2.28677487
0.85176587 2.37843895 2.48092413
-0.50346708 0.61185074 -3.36350536
1.49724221 1.69636023 -1.59885585
0.42769378 -0.81148243 -3.37316680
0.43778077 -2.08889937 2.98653293
-0.44146761 -3.37292123 -2.07030702
0.53358746 -0.97866613 3.28865957
-0.83800507 3.28797078 -1.68657672
-0.00582656 -2.81453705 2.69417143
1.62986159 2.08959770 0.29175332
-0.51207429 -1.09854841 -3.27639079
-0.61761314 3.91038799 1.02505267
-0.32342941 4.28650141 0.09344696
0.40095481 4.24547338 -0.19361633
0.90038729 -2.99939895 1.90905392
1.04613006 -0.47712418 2.89767122
-0.90077132 2.78596306 -2.11104107
-1.50063050 -0.81914425 -1.99154341
-0.86633891 3.82072401 -0.42645103
1.03843296 3.60634255 -0.23915675
0.09333800 1.89540160 3.17402220
0.77917641 -1.68964207 2.90085578
1.71303535 -0.91805845 -1.18840957
1.20754206 -3.03653193 -1.08841896
-0.14973454 3.13370609 2.43565845
0.82652140 -3.61403060 -1.19890189
-0.61353016 2.72489023 2.49717188
0.96122992 2.79733539 2.00335860
1.82600033 0.73090172 -0.42856207
1.67550755 -1.41674447 1.04832351
0.16819240 3.27540898 -2.30460739
-0.87175405 -3.73373556 0.76202404
0.07428666 -3.36757064 2.23351645
1.68315876 1.81279922 -0.40557522
0.36738580 4.09269571 0.98571879
-1.06002855 3.29889059 1.13419199
-0.45803562 2.70295072 -2.62963176
1.52263725 -2.14529157 -1.06893587
1.60299873 0.64168501 -1.73177516
-0.01435655 4.33619022 -0.31386957
-0.33248326 -4.11783838 0.95725453
3 135 229 189
3 110 247 223
3 223 247 83
3 30 31 99
3 209 229 135
3 209 223 83
3 38 189 229
3 64 43 38
3 38 43 189
3 94 194 69
3 149 181 146
3 80 233 188
3 146 181 131
3 146 131 141
3 141 131 188
3 110 223 205
3 237 68 22
3 172 144 29
3 198 86 191
3 191 251 198
3 69 194 198
3 198 251 69
3 51 226 186
3 23 78 132
3 99 31 132
3 19 78 23
3 165 30 11
3 23 190 242
3 159 76 59
3 59 108 159
3 248 184 112
3 243 184 248
3 211 243 248
3 248 224 211
3 211 224 82
3 82 30 211
3 34 224 58
3 234 47 58
3 58 47 34
3 21 43 64
3 174 30 99
3 135 189 236
3 46 48 230
3 227 94 119
3 167 149 44
3 44 213 167
3 49 80 188
3 188 131 49
3 136 141 188
3 182 55 28
3 148 55 182
3 250 226 101
3 180 109 52
3 186 239 52
3 52 51 186
3 72 149 167
3 181 149 72
3 72 71 181
3 121 140 250
3 107 158 133
3 96 107 175
3 175 107 205
3 68 237 252
3 252 61 68
3 68 61 195
3 61 156 195
3 245 198 194
3 86 198 245
3 245 194 172
3 172 29 245
3 245 29 86
3 59 76 62
3 191 86 12
3 86 29 12
3 81 251 191
3 191 105 81
3 212 105 191
3 191 12 212
3 203 182 28
3 17 144 172
3 60 47 1
3 1 47 234
3 168 190 34
3 34 47 168
3 109 242 168
3 168 242 190
3 168 47 60
3 227 226 145
3 226 51 145
3 145 1 228
3 109 168 18
3 18 168 60
3 18 52 109
3 51 52 18
3 180 19 215
3 215 19 23
3 23 242 215
3 215 109 180
3 215 242 109
3 78 19 4
3 4 41 46
3 70 243 211
3 70 165 243
3 211 30 70
3 30 165 70
3 116 237 22
3 22 184 116
3 116 184 243
3 25 29 144
3 25 108 59
3 25 12 29
3 217 108 14
3 217 159 108
3 217 14 112
3 112 184 217
3 253 184 22
3 253 217 184
3 159 217 253
3 112 14 45
3 45 248 112
3 224 248 45
3 45 58 224
3 151 224 34
3 151 82 224
3 34 190 151
3 151 190 23
3 31 30 151
3 30 82 151
3 23 132 151
3 151 132 31
3 210 252 237
3 237 116 210
3 43 21 244
3 244 174 43
3 244 210 11
3 21 210 244
3 11 30 244
3 30 174 244
3 214 236 189
3 48 236 214
3 214 230 48
3 189 43 214
3 43 174 214
3 214 174 99
3 201 205 223
3 201 175 205
3 221 236 48
3 46 41 221
3 221 48 46
3 78 230 77
3 99 132 77
3 77 132 78
3 77 214 99
3 230 214 77
3 222 94 69
3 222 119 94
3 69 251 231
3 231 222 69
3 136 222 231
3 141 136 50
3 50 55 141
3 136 231 50
3 93 55 148
3 148 2 93
3 93 2 183
3 16 85 246
3 110 205 16
3 220 75 152
3 233 80 139
3 80 101 139
3 227 119 139
3 139 119 233
3 139 226 227
3 139 101 226
3 180 52 176
3 176 52 239
3 63 41 3
3 3 26 63
3 89 13 92
3 92 241 89
3 13 176 92
3 239 241 92
3 92 176 239
3 5 239 186
3 5 241 239
3 140 241 5
3 186 226 5
3 5 226 250
3 250 140 5
3 40 178 89
3 40 15 178
3 89 241 40
3 40 241 140
3 181 71 27
3 71 121 27
3 27 131 181
3 140 121 192
3 192 40 140
3 15 40 192
3 71 15 192
3 192 121 71
3 33 21 64
3 37 156 240
3 61 252 238
3 128 240 238
3 238 156 61
3 238 240 156
3 127 220 53
3 75 220 127
3 53 196 127
3 196 103 127
3 127 138 75
3 103 138 127
3 106 81 105
3 106 203 28
3 106 50 231
3 251 81 106
3 106 231 251
3 84 7 218
3 84 212 7
3 7 212 115
3 115 212 12
3 115 62 7
3 228 17 254
3 254 94 227
3 227 145 254
3 254 145 228
3 249 18 60
3 51 18 249
3 249 145 51
3 60 1 249
3 1 145 249
3 54 230 78
3 78 4 54
3 46 230 54
3 54 4 46
3 243 165 117
3 117 116 243
3 117 165 11
3 11 210 117
3 117 210 116
3 179 25 144
3 108 25 179
3 144 97 179
3 35 25 59
3 12 25 35
3 35 115 12
3 59 62 35
3 62 115 35
3 142 17 228
3 234 97 142
3 144 17 142
3 142 97 144
3 142 1 234
3 228 1 142
3 234 58 100
3 58 45 100
3 100 97 234
3 100 45 14
3 193 210 21
3 193 33 171
3 21 33 193
3 171 252 193
3 252 210 193
3 187 41 63
3 175 201 187
3 187 221 41
3 201 221 187
3 63 96 187
3 96 175 187
3 236 221 219
3 219 221 201
3 219 209 135
3 135 236 219
3 223 209 219
3 219 201 223
3 173 136 188
3 173 222 136
3 188 233 173
3 233 119 173
3 119 222 173
3 148 182 232
3 232 2 148
3 6 2 232
3 182 203 232
3 126 155 44
3 126 44 149
3 183 2 126
3 207 93 183
3 207 126 149
3 183 126 207
3 207 149 146
3 141 55 154
3 55 93 154
3 146 141 154
3 154 207 146
3 93 207 154
3 246 255 104
3 104 16 246
3 110 16 104
3 104 247 110
3 133 85 169
3 85 16 169
3 169 16 205
3 169 107 133
3 205 107 169
3 208 255 246
3 246 90 208
3 235 176 13
3 235 19 180
3 180 176 235
3 124 235 13
3 178 26 24
3 26 3 24
3 89 178 24
3 3 124 24
3 24 13 89
3 24 124 13
3 111 107 96
3 111 96 63
3 63 26 111
3 111 26 178
3 123 27 121
3 123 121 250
3 123 49 131
3 131 27 123
3 250 101 123
3 80 49 123
3 123 101 80
3 255 208 20
3 199 33 64
3 164 33 199
3 37 240 57
3 57 240 197
3 57 197 152
3 152 75 57
3 75 138 57
3 114 252 171
3 114 238 252
3 171 33 114
3 114 33 164
3 114 164 128
3 128 238 114
3 36 195 156
3 36 185 195
3 36 156 37
3 37 57 36
3 36 57 138
3 103 185 36
3 36 138 103
3 66 62 76
3 7 62 66
3 76 159 170
3 159 253 170
3 170 66 76
3 79 66 170
3 87 106 28
3 50 106 87
3 28 55 87
3 55 50 87
3 105 212 98
3 212 84 98
3 94 254 120
3 120 254 17
3 194 94 120
3 172 194 120
3 120 17 172
3 143 179 97
3 97 100 143
3 143 100 14
3 14 108 143
3 108 179 143
3 200 126 2
3 155 126 200
3 200 2 6
3 6 163 200
3 53 220 74
3 246 85 9
3 9 202 246
3 177 90 150
3 150 90 246
3 247 104 166
3 83 247 166
3 166 209 83
3 166 118 209
3 88 4 19
3 19 235 88
3 41 4 88
3 204 161 158
3 158 107 204
3 107 111 204
3 128 164 95
3 164 199 95
3 153 208 90
3 153 20 208
3 229 209 32
3 209 118 32
3 32 38 229
3 64 38 32
3 32 199 64
3 73 66 79
3 73 185 218
3 218 7 73
3 7 66 73
3 195 185 73
3 73 79 195
3 79 170 39
3 68 195 39
3 195 79 39
3 22 68 39
3 39 253 22
3 39 170 253
3 65 103 196
3 218 185 65
3 65 185 103
3 65 84 218
3 65 98 84
3 163 74 125
3 177 150 125
3 125 150 163
3 125 220 177
3 125 74 220
3 53 74 137
3 137 232 53
3 6 232 137
3 137 163 6
3 137 74 163
3 213 44 42
3 44 0 42
3 42 161 213
3 158 161 42
3 155 200 91
3 91 200 163
3 163 150 91
3 118 166 56
3 162 124 3
3 162 3 41
3 41 88 162
3 235 124 162
3 162 88 235
3 161 204 130
3 130 72 167
3 167 213 130
3 213 161 130
3 197 240 10
3 10 240 128
3 128 95 10
3 147 90 177
3 147 153 90
3 147 220 152
3 177 220 147
3 105 98 216
3 98 129 216
3 216 129 203
3 216 106 105
3 203 106 216
3 98 65 225
3 225 129 98
3 225 65 196
3 203 129 225
3 225 196 53
3 53 232 225
3 225 232 203
3 133 158 113
3 158 42 113
3 113 0 202
3 113 42 0
3 155 91 160
3 44 155 160
3 160 0 44
3 102 91 150
3 246 202 102
3 102 150 246
3 102 160 91
3 202 0 102
3 0 160 102
3 118 56 67
3 20 10 67
3 67 10 95
3 134 56 166
3 134 104 255
3 134 166 104
3 255 20 134
3 20 67 134
3 134 67 56
3 122 130 204
3 178 15 122
3 122 15 71
3 122 111 178
3 122 204 111
3 71 72 122
3 72 130 122
3 152 197 206
3 206 147 152
3 153 147 206
3 197 10 206
3 20 153 206
3 206 10 20
3 8 85 133
3 133 113 8
3 8 9 85
3 202 9 8
3 8 113 202
3 118 67 157
3 157 67 95
3 157 32 118
3 157 95 199
3 199 32 157