ply
format ascii 1.0
comment https://github.com/mikedh/trimesh
element vertex 256
property float x
property float y
property float z
element face 508
property list uchar int vertex_indices
end_header
-2.84295630 -2.42536306 1.00743771
1.08971560 4.36432171 0.30753288
-3.01091552 -0.98229080 -2.16799927
-0.22283755 0.86557400 4.88420057
1.40311658 0.70347905 4.48712540
-1.09343147 3.36734080 3.01230645
-2.68285298 -2.12479329 -2.11351228
1.23544264 0.80821186 -4.56832647
-2.29361367 -3.04556251 1.72417474
-1.97893977 -3.47173524 1.59221935
1.02388573 -4.37146854 -0.56144953
3.36360240 -0.81078011 0.59395474
0.76342928 2.37234783 -4.12913132
-0.35718423 2.00847816 4.45622253
2.73546314 2.41475987 -1.52822316
-2.34584069 1.62785459 3.19426918
-1.21532571 -3.52618909 2.68780971
0.52060157 4.32135153 -1.56538165
0.99864423 4.06085396 1.86415303
1.18742979 1.74103785 4.28173733
-0.05189215 -4.60594130 0.22134344
2.92692208 -2.23956919 1.00458956
3.09076118 -0.46026281 -2.13524222
1.97594130 2.30985689 3.22791600
-0.60050166 1.49747956 4.63452387
1.55604899 2.96913338 -3.07647324
-1.02931380 0.63075149 4.70813036
-2.90080690 2.27558327 1.06782377
-2.11507344 0.81434900 -3.83207822
0.95842391 3.32308054 -3.16453004
3.21850467 0.45190358 1.69670367
2.98768544 0.72162056 2.34681940
1.52772415 -3.76961780 1.82950556
2.57114530 -3.06379652 0.03471502
2.40673327 3.04804444 1.35175037
1.40408719 2.03174162 -3.98562360
1.03770423 -2.80798244 -3.65786529
1.37055087 -3.29300451 -2.86900401
2.11836958 -2.90672541 2.35701132
2.65551519 -0.16414112 -3.16584206
-1.74808133 2.34384179 3.46535993
0.60083485 -0.13496317 4.90426874
-2.90756869 -1.92470932 1.66986740
2.76735806 -2.01072049 2.01168704
-3.27628851 -1.14997184 0.88889802
2.87063646 2.50422144 -0.47546133
1.33648264 -0.26591793 4.58318901
1.85768044 3.82465863 0.71396959
1.61058092 -0.94141543 4.28394842
-2.60041523 3.01736450 -0.11111457
-2.23118877 2.06204319 -3.06972909
0.09703121 4.29568720 1.80045521
0.18272001 3.68963623 2.97715807
-1.14218068 -2.37204671 -3.94107914
1.63770878 0.15982102 4.37916422
-2.61388159 1.33730900 -2.90204167
0.66657323 -4.25930548 1.64655578
0.85223150 -3.69723344 -2.70800185
2.43480420 3.25358701 0.18480331
1.80493450 2.38891649 -3.36834455
1.09379363 4.25396252 1.09077609
2.24307156 -2.58608317 -2.54423332
1.74205661 1.61039209 -3.92956138
-0.78485388 -0.67908168 4.79758835
2.38159490 -3.08898354 1.33896315
-0.20332229 -1.38171947 -4.74587822
2.01425743 0.39687181 -4.01860237
0.85307980 -4.38175344 0.93138659
2.83851337 -1.20878255 -2.49699020
-0.96499163 3.38308191 -3.08364105
3.37967920 0.53649223 0.74324852
-3.06923747 1.26429975 1.79316652
-3.20445538 0.52676535 1.72888863
1.90332389 -0.24703702 -4.14435434
-1.54072595 -3.31873608 -2.64367628
-0.26738662 -3.52197933 -3.19108796
2.34621835 1.32211077 -3.35565066
2.36496949 -0.38089103 3.59782791
2.12817883 0.78422016 3.82267642
2.25388527 -0.19886118 -3.76011443
-1.97501338 3.77585793 0.02065386
-0.76659852 2.02646828 -4.33582211
3.11044335 1.74940956 0.98681962
0.64909220 -3.52167845 3.07413340
0.37645075 -0.39829987 -4.93495035
-1.75296819 -3.31881905 2.35223293
0.53290254 2.87276292 -3.82016802
-2.07423258 1.56753767 -3.59878254
1.00075424 0.99260277 4.64641047
-1.03584504 1.83932972 4.31664467
-1.42783046 -4.19461966 -0.01286486
-2.62703753 -2.95458722 -0.40011939
-0.57106513 2.48459172 4.11649179
-3.18747330 0.52174646 -1.79306316
-0.67667598 4.38692379 -1.17686129
1.38364995 -4.21346283 0.28168285
-1.20048940 -1.01079059 4.54112577
1.77058935 3.77857399 -1.25348425
-0.08468678 -0.34040514 -4.96809149
2.82435846 -0.22469163 2.83915210
2.48388743 3.10931420 -0.77906781
-1.83265245 3.84544134 0.71173996
-2.63514304 -2.92418480 0.52968347
0.11258870 -2.50678730 -4.17993450
-0.56884480 -4.02146864 2.29131413
-0.64570820 1.14227688 -4.73590899
-1.59857094 1.68987370 -4.01669455
-1.59155941 -1.80496299 3.96497750
1.98970962 2.83911657 -2.66709971
1.33992195 3.35560274 2.81234980
-0.75049371 -3.69038987 2.78251171
-1.68845820 -0.02801410 4.34241390
2.98806953 1.89176488 -1.39043546
-2.62480235 -2.43227267 1.86419642
2.39719987 -3.20258641 -0.89518839
1.19546461 1.55404723 -4.36204767
3.33767462 -0.49384773 -1.09324372
3.41726589 -0.46376592 -0.33186588
1.07688177 -4.05720615 1.77705419
-1.22531557 4.21760321 -0.95171320
-0.18748644 4.41748333 -1.39890647
-2.64497852 2.53848386 1.62330353
-2.50207591 0.89629340 3.28245735
-2.48300314 3.02772522 1.09367692
-0.07209911 1.48598969 4.71741819
-1.79793179 -3.52530003 -1.87981153
-3.30997133 -1.11957014 -0.63626027
-0.50015086 -2.75498796 -3.92844963
1.90883839 -3.69788456 -1.09930360
-1.04428089 0.01975382 -4.74913311
-2.77993655 -0.04888652 2.94013214
-2.93935347 2.39752603 0.06291911
2.71745634 0.66666454 2.97226930
-2.07961011 -2.25846910 3.13347054
0.17028977 -4.32905149 1.69401848
1.63628578 -2.44066143 3.50076103
-2.19638276 2.75597119 -2.41709471
-2.29224253 -2.44934344 -2.60936093
0.47422880 -3.07057023 -3.65295935
-1.25810194 4.24595165 0.66490757
-1.72322762 2.99904203 2.84553552
-2.79160404 1.92762768 -2.03726745
1.02625871 4.21233034 -1.37735474
2.32849669 3.12043929 -1.44652724
1.20329416 3.87115955 -2.07280827
0.05356649 4.53624010 0.88172704
-3.20201230 1.46497226 -0.91021776
-0.49722981 -4.41542673 -1.23474288
-2.72747326 0.21139246 -3.03169107
-3.40405631 0.16785415 0.71765882
-2.24345899 -3.43575811 -0.69671446
2.90786362 1.94464397 1.63979971
-0.17791587 -3.90832853 -2.62987161
-0.42890862 -4.54201889 -0.59244388
-3.15291381 1.13667250 -1.57391930
-3.07462859 -2.00162029 -0.58070773
1.80277514 -2.93421364 -2.82254410
1.32697380 -4.09992409 1.22340894
-2.37118316 -1.53493476 3.20950103
2.52872324 1.65741813 -2.86792493
-2.86937761 -2.54418778 0.09594515
-2.77155185 -0.86199099 2.80471778
0.22295572 0.85123074 4.88769817
-2.21151924 -3.06303596 -1.90105915
2.16516829 -3.56556821 -0.38924685
3.42768812 -0.13349161 0.42125690
0.55597734 -4.04395580 2.25308084
-3.28796291 -0.41667145 1.40224516
1.80600357 3.59388614 1.70735085
-1.62136889 -2.73578286 3.25282097
2.60916448 0.42423409 -3.21742845
2.73416567 -2.73183084 -0.66664726
0.41717750 3.86455369 -2.65174890
-1.85829031 3.49343228 -1.82588315
2.85948038 -1.15820909 2.47389555
-1.10045600 -1.90064383 4.25134706
0.03763408 2.68522501 4.05080366
-1.69107485 -3.82443476 -1.32438886
-1.25444376 1.23343909 4.44623947
1.77149987 3.53287673 -1.91558588
0.73650599 2.73613691 3.86759377
-3.16066551 1.57234156 1.00329351
-2.41948199 0.24056588 -3.53454542
-3.29969859 -0.69651139 -1.20055544
3.17909670 1.16425908 -1.43587387
1.16417658 -1.59167016 -4.36362314
-0.70729738 3.96274281 2.33133149
-0.31599772 -1.43237567 4.71565533
-2.33370209 3.13437986 -1.39131057
2.19266295 -2.19022012 3.02339673
2.21005940 2.87209654 2.22444534
0.14729719 2.65882516 -4.06503773
-2.33892488 2.12971401 2.83976269
2.99243569 -2.22168946 -0.54041463
-0.00889396 3.76755166 -2.87269807
2.22018695 -1.88832247 -3.21501160
-0.79809064 -2.03782058 -4.31769848
0.53858835 -4.16639280 -1.98364305
-0.11392066 3.16466737 -3.62038374
2.03350496 -3.59912443 1.01581705
-2.81318402 -2.31301212 -1.41571760
0.23786655 -2.17529082 4.38055611
-2.48772120 -3.00453067 1.14298666
-1.75689662 0.24703678 -4.27653933
-2.23510361 -0.04760109 3.78974962
-1.02263510 -2.65912795 3.79230118
-0.01018116 -4.37960911 -1.55621195
-3.39288330 0.31269327 -0.77137768
-0.94594359 -4.40039206 0.56835645
1.05209386 -3.25908709 3.17895222
3.19811273 -1.68743360 -0.26766783
3.29811645 1.20917237 0.57498854
0.43478978 0.58567631 -4.90402985
-3.13754106 -1.01258540 1.73168921
2.45914936 -1.22021472 3.22740817
1.57093072 2.51819873 3.50141788
-0.92855555 0.64780378 -4.74703693
2.76139712 1.79604030 -2.25652313
0.78880513 -0.85916609 -4.76067209
0.80740881 -2.21164536 4.21500206
-0.81420857 -3.57111812 -2.92189908
0.98410720 -1.03617370 4.64140415
-1.54555130 3.48117590 -2.38032675
-0.01074606 -2.97992253 3.80238175
3.00598979 2.21238470 0.41176203
-0.94442999 -1.16310036 -4.62408924
-1.13907766 4.14016676 1.44669390
-0.59650803 4.53838110 0.13188507
0.73948991 4.49494219 -0.27325773
1.66060424 -3.17564702 2.69431686
1.92940092 -0.50516057 4.08958864
-1.66131258 2.94966936 -2.97938848
-2.76764607 -0.86727810 -2.81073737
-1.59780812 4.04523420 -0.60186577
1.91520488 3.81825542 -0.33753058
0.17214534 2.00677752 4.47961235
1.43705237 -1.78892744 4.09408283
3.15938926 -0.97200459 -1.67724538
2.22709656 -3.21496201 -1.53612506
-0.27615875 3.31784630 3.43753290
1.52437174 -3.82639527 -1.69205368
-1.13154733 2.88500786 3.52434897
1.77281761 2.96170998 2.82741237
3.36773300 0.77385032 -0.60484517
3.09017587 -1.49999392 1.47953677
0.31020099 3.46787596 -3.25257587
-1.60779536 -3.95313430 1.07547212
0.13700855 -3.56545305 3.15224266
3.10428691 1.91932142 -0.57240295
0.67757779 4.33318710 1.39118063
-1.95503426 3.49273729 1.60072625
-0.84476525 2.86177921 -3.71129441
2.80823374 -2.27135134 -1.50862789
2.95644617 0.67939115 -2.44411683
-0.02647811 4.59098959 -0.44297549
-0.61320627 -4.35980701 1.35100794
3 135 229 189
3 110 247 223
3 223 247 83
3 30 31 99
3 209 229 135
3 209 223 83
3 38 189 229
3 64 43 38
3 38 43 189
3 94 194 69
3 149 181 146
3 80 233 188
3 146 181 131
3 146 131 141
3 141 131 188
3 110 223 205
3 237 68 22
3 172 144 29
3 198 86 191
3 191 251 198
3 69 194 198
3 198 251 69
3 51 226 186
3 23 78 132
3 99 31 132
3 19 78 23
3 165 30 11
3 23 190 242
3 159 76 59
3 59 108 159
3 248 184 112
3 243 184 248
3 211 243 248
3 248 224 211
3 211 224 82
3 82 30 211
3 34 224 58
3 234 47 58
3 58 47 34
3 21 43 64
3 174 30 99
3 135 189 236
3 46 48 230
3 227 94 119
3 167 149 44
3 44 213 167
3 49 80 188
3 188 131 49
3 136 141 188
3 182 55 28
3 148 55 182
3 250 226 101
3 180 109 52
3 186 239 52
3 52 51 186
3 72 149 167
3 181 149 72
3 72 71 181
3 121 140 250
3 107 158 133
3 96 107 175
3 175 107 205
3 68 237 252
3 252 61 68
3 68 61 195
3 61 156 195
3 245 198 194
3 86 198 245
3 245 194 172
3 172 29 245
3 245 29 86
3 59 76 62
3 191 86 12
3 86 29 12
3 81 251 191
3 191 105 81
3 212 105 191
3 191 12 212
3 203 182 28
3 17 144 172
3 60 47 1
3 1 47 234
3 168 190 34
3 34 47 168
3 109 242 168
3 168 242 190
3 168 47 60
3 227 226 145
3 226 51 145
3 145 1 228
3 109 168 18
3 18 168 60
3 18 52 109
3 51 52 18
3 180 19 215
3 215 19 23
3 23 242 215
3 215 109 180
3 215 242 109
3 78 19 4
3 4 41 46
3 70 243 211
3 70 165 243
3 211 30 70
3 30 165 70
3 116 237 22
3 22 184 116
3 116 184 243
3 25 29 144
3 25 108 59
3 25 12 29
3 217 108 14
3 217 159 108
3 217 14 112
3 112 184 217
3 253 184 22
3 253 217 184
3 159 217 253
3 112 14 45
3 45 248 112
3 224 248 45
3 45 58 224
3 151 224 34
3 151 82 224
3 34 190 151
3 151 190 23
3 31 30 151
3 30 82 151
3 23 132 151
3 151 132 31
3 210 252 237
3 237 116 210
3 43 21 244
3 244 174 43
3 244 210 11
3 21 210 244
3 11 30 244
3 30 174 244
3 214 236 189
3 48 236 214
3 214 230 48
3 189 43 214
3 43 174 214
3 214 174 99
3 201 205 223
3 201 175 205
3 221 236 48
3 46 41 221
3 221 48 46
3 78 230 77
3 99 132 77
3 77 132 78
3 77 214 99
3 230 214 77
3 222 94 69
3 222 119 94
3 69 251 231
3 231 222 69
3 136 222 231
3 141 136 50
3 50 55 141
3 136 231 50
3 93 55 148
3 148 2 93
3 93 2 183
3 16 85 246
3 110 205 16
3 220 75 152
3 233 80 139
3 80 101 139
3 227 119 139
3 139 119 233
3 139 226 227
3 139 101 226
3 180 52 176
3 176 52 239
3 63 41 3
3 3 26 63
3 89 13 92
3 92 241 89
3 13 176 92
3 239 241 92
3 92 176 239
3 5 239 186
3 5 241 239
3 140 241 5
3 186 226 5
3 5 226 250
3 250 140 5
3 40 178 89
3 40 15 178
3 89 241 40
3 40 241 140
3 181 71 27
3 71 121 27
3 27 131 181
3 140 121 192
3 192 40 140
3 15 40 192
3 71 15 192
3 192 121 71
3 33 21 64
3 37 156 240
3 61 252 238
3 128 240 238
3 238 156 61
3 238 240 156
3 127 220 53
3 75 220 127
3 53 196 127
3 196 103 127
3 127 138 75
3 103 138 127
3 106 81 105
3 106 203 28
3 106 50 231
3 251 81 106
3 106 231 251
3 84 7 218
3 84 212 7
3 7 212 115
3 115 212 12
3 115 62 7
3 228 17 254
3 254 94 227
3 227 145 254
3 254 145 228
3 249 18 60
3 51 18 249
3 249 145 51
3 60 1 249
3 1 145 249
3 54 230 78
3 78 4 54
3 46 230 54
3 54 4 46
3 243 165 117
3 117 116 243
3 117 165 11
3 11 210 117
3 117 210 116
3 179 25 144
3 108 25 179
3 144 97 179
3 35 25 59
3 12 25 35
3 35 115 12
3 59 62 35
3 62 115 35
3 142 17 228
3 234 97 142
3 144 17 142
3 142 97 144
3 142 1 234
3 228 1 142
3 234 58 100
3 58 45 100
3 100 97 234
3 100 45 14
3 193 210 21
3 193 33 171
3 21 33 193
3 171 252 193
3 252 210 193
3 187 41 63
3 175 201 187
3 187 221 41
3 201 221 187
3 63 96 187
3 96 175 187
3 236 221 219
3 219 221 201
3 219 209 135
3 135 236 219
3 223 209 219
3 219 201 223
3 173 136 188
3 173 222 136
3 188 233 173
3 233 119 173
3 119 222 173
3 148 182 232
3 232 2 148
3 6 2 232
3 182 203 232
3 126 155 44
3 126 44 149
3 183 2 126
3 207 93 183
3 207 126 149
3 183 126 207
3 207 149 146
3 141 55 154
3 55 93 154
3 146 141 154
3 154 207 146
3 93 207 154
3 246 255 104
3 104 16 246
3 110 16 104
3 104 247 110
3 133 85 169
3 85 16 169
3 169 16 205
3 169 107 133
3 205 107 169
3 208 255 246
3 246 90 208
3 235 176 13
3 235 19 180
3 180 176 235
3 124 235 13
3 178 26 24
3 26 3 24
3 89 178 24
3 3 124 24
3 24 13 89
3 24 124 13
3 111 107 96
3 111 96 63
3 63 26 111
3 111 26 178
3 123 27 121
3 123 121 250
3 123 49 131
3 131 27 123
3 250 101 123
3 80 49 123
3 123 101 80
3 255 208 20
3 199 33 64
3 164 33 199
3 37 240 57
3 57 240 197
3 57 197 152
3 152 75 57
3 75 138 57
3 114 252 171
3 114 238 252
3 171 33 114
3 114 33 164
3 114 164 128
3 128 238 114
3 36 195 156
3 36 185 195
3 36 156 37
3 37 57 36
3 36 57 138
3 103 185 36
3 36 138 103
3 66 62 76
3 7 62 66
3 76 159 170
3 159 253 170
3 170 66 76
3 79 66 170
3 87 106 28
3 50 106 87
3 28 55 87
3 55 50 87
3 105 212 98
3 212 84 98
3 94 254 120
3 120 254 17
3 194 94 120
3 172 194 120
3 120 17 172
3 143 179 97
3 97 100 143
3 143 100 14
3 14 108 143
3 108 179 143
3 200 126 2
3 155 126 200
3 200 2 6
3 6 163 200
3 53 220 74
3 246 85 9
3 9 202 246
3 177 90 150
3 150 90 246
3 247 104 166
3 83 247 166
3 166 209 83
3 166 118 209
3 88 4 19
3 19 235 88
3 41 4 88
3 204 161 158
3 158 107 204
3 107 111 204
3 128 164 95
3 164 199 95
3 153 208 90
3 153 20 208
3 229 209 32
3 209 118 32
3 32 38 229
3 64 38 32
3 32 199 64
3 73 66 79
3 73 185 218
3 218 7 73
3 7 66 73
3 195 185 73
3 73 79 195
3 79 170 39
3 68 195 39
3 195 79 39
3 22 68 39
3 39 253 22
3 39 170 253
3 65 103 196
3 218 185 65
3 65 185 103
3 65 84 218
3 65 98 84
3 163 74 125
3 177 150 125
3 125 150 163
3 125 220 177
3 125 74 220
3 53 74 137
3 137 232 53
3 6 232 137
3 137 163 6
3 137 74 163
3 213 44 42
3 44 0 42
3 42 161 213
3 158 161 42
3 155 200 91
3 91 200 163
3 163 150 91
3 118 166 56
3 162 124 3
3 162 3 41
3 41 88 162
3 235 124 162
3 162 88 235
3 161 204 130
3 130 72 167
3 167 213 130
3 213 161 130
3 197 240 10
3 10 240 128
3 128 95 10
3 147 90 177
3 147 153 90
3 147 220 152
3 177 220 147
3 105 98 216
3 98 129 216
3 216 129 203
3 216 106 105
3 203 106 216
3 98 65 225
3 225 129 98
3 225 65 196
3 203 129 225
3 225 196 53
3 53 232 225
3 225 232 203
3 133 158 113
3 158 42 113
3 113 0 202
3 113 42 0
3 155 91 160
3 44 155 160
3 160 0 44
3 102 91 150
3 246 202 102
3 102 150 246
3 102 160 91
3 202 0 102
3 0 160 102
3 118 56 67
3 20 10 67
3 67 10 95
3 134 56 166
3 134 104 255
3 134 166 104
3 255 20 134
3 20 67 134
3 134 67 56
3 122 130 204
3 178 15 122
3 122 15 71
3 122 111 178
3 122 204 111
3 71 72 122
3 72 130 122
3 152 197 206
3 206 147 152
3 153 147 206
3 197 10 206
3 20 153 206
3 206 10 20
3 8 85 133
3 133 113 8
3 8 9 85
3 202 9 8
3 8 113 202
3 118 67 157
3 157 67 95
3 157 32 118
3 157 95 199
3 199 32 157