ply
format ascii 1.0
comment https://github.com/mikedh/trimesh
element vertex 256
property float x
property float y
property float z
element face 508
property list uchar int vertex_indices
end_header
-2.44159460 -0.80913502 0.92497712
0.93587214 1.45599878 0.28236073
-2.58584166 -0.32770598 -1.99054468
-0.19137788 0.28876761 4.48441982
1.20502794 0.23469046 4.11984634
-0.93906349 1.12339199 2.76574373
-2.30409431 -0.70886075 -1.94051754
1.06102586 0.26963079 -4.19440079
-1.96980679 -1.01604223 1.58304799
-1.69955778 -1.15821958 1.46189332
0.87933600 -1.45838308 -0.51549387
2.88873696 -0.27048758 0.54533845
0.65565020 0.79144847 -3.79115438
-0.30675781 0.67005646 4.09147263
2.34927702 0.80559772 -1.40313530
-2.01466060 0.54307508 2.93281245
-1.04374897 -1.17638612 2.46780753
0.44710431 1.44166338 -1.43725240
0.85765803 1.35475767 1.71156871
1.01979125 0.58083457 3.93126917
-0.04456614 -1.53660643 0.20322607
2.51370621 -0.74715167 0.92236209
2.65441489 -0.15355012 -1.96046877
1.69698262 0.77060056 2.96370530
-0.51572424 0.49958014 4.25517941
1.33636975 0.99054444 -2.82465839
-0.88399774 0.21042752 4.32276154
-2.49127793 0.75916642 0.98042041
-1.81647241 0.27167824 -3.51841569
0.82311594 1.10862613 -2.90550756
2.76412392 0.15076135 1.55782533
2.56589127 0.24074273 2.15472794
1.31204367 -1.25759721 1.67975724
2.20815706 -1.02212548 0.03187354
2.06695652 1.01687026 1.24110711
1.20586145 0.67781746 -3.65939307
0.89120370 -0.93678230 -3.35846233
1.17705977 -1.09859240 -2.63417101
1.81930339 -0.96972424 2.16408563
2.28061604 -0.05475978 -2.90671206
-1.50129139 0.78193843 3.18171406
0.51601040 -0.04502560 4.50284576
-2.49708509 -0.64210999 1.53318572
2.37666893 -0.67080450 1.84702671
-2.81375003 -0.38364670 0.81614012
2.46536708 0.83544338 -0.43654397
1.14780128 -0.08871394 4.20804644
1.59541762 1.27595961 0.65552986
1.38320291 -0.31406939 3.93329954
-2.23329473 1.00663507 -0.10201965
-1.91619480 0.68792647 -2.81846619
0.08333258 1.43310142 1.65308475
0.15692402 1.23091435 2.73347211
-0.98093033 -0.79134798 -3.61849475
1.40650105 0.05331853 4.02072144
-2.24486017 0.44614500 -2.66450429
0.57246804 -1.42096388 1.51178217
0.73191553 -1.23344886 -2.48634696
2.09106445 1.08544219 0.16967683
1.55011821 0.79697603 -3.09263945
0.93937445 1.41918147 1.00149405
1.92640007 -0.86275351 -2.33598328
1.49611723 0.53724933 -3.60791969
-0.67405009 -0.22655116 4.40489721
2.04536700 -1.03052819 1.22936666
-0.17461774 -0.46096098 -4.35741949
1.72988927 0.13240199 -3.68967247
0.73264402 -1.46181428 0.85515094
2.43777871 -0.40326676 -2.29260707
-0.82875639 1.12864351 -2.83123946
2.90254402 0.17898130 0.68241227
-2.63592982 0.42178810 1.64639270
-2.75205803 0.17573629 1.58737600
1.63461709 -0.08241501 -3.80513167
-1.32320988 -1.10717678 -2.42728662
-0.22963762 -1.17498159 -2.92989159
2.01498485 0.44107467 -3.08098459
2.03108859 -0.12707058 3.30333924
1.82772756 0.26162684 3.50978351
1.93568718 -0.06634288 -3.45234227
-1.69618571 1.25967908 0.01896330
-0.65837198 0.67605823 -3.98092699
2.67131829 0.58362752 0.90604669
0.55745488 -1.17488122 2.82251000
0.32330433 -0.13287841 -4.53101587
-1.50548828 -1.10720444 2.15969825
0.45766866 0.95839393 -3.50748038
-1.78139746 0.52295250 -3.30421567
0.85947019 0.33114618 4.26609325
-0.88960695 0.61362612 3.96331954
-1.22625279 -1.39938378 -0.01181185
-2.25615859 -0.98569167 -0.36736888
-0.49044350 0.82889456 3.77954960
-2.73747349 0.17406192 -1.64629769
-0.58114445 1.46353912 -1.08053315
1.18830955 -1.40567017 0.25862661
-1.03100717 -0.33721390 4.16942644
1.52062178 1.26058519 -1.15088439
-0.07273090 -0.11356392 -4.56144428
2.42562222 -0.07496028 2.60676241
2.13321829 1.03731072 -0.71529973
-1.57392287 1.28289306 0.65348274
-2.26311994 -0.97554898 0.48632792
0.09669370 -0.83629930 -3.83779955
-0.48853663 -1.34161818 2.10376596
-0.55454868 0.38107958 -4.34826660
-1.37288857 0.56376553 -3.68792105
-1.36686683 -0.60216093 3.64043689
1.70880711 0.94716901 -2.44879293
1.15075505 1.11947596 2.58215404
-0.64454085 -1.23116565 2.55475807
-1.45008564 -0.00934590 3.98697972
2.56622100 0.63111925 -1.27662587
-2.25423908 -0.81144023 1.71160865
2.05876899 -1.06842768 -0.82191563
1.02669179 0.51845187 -4.00500631
2.86646986 -0.16475451 -1.00375974
2.93482447 -0.15471880 -0.30470204
0.92485017 -1.35354078 1.63159907
-1.05232847 1.40705144 -0.87381375
-0.16101755 1.47373438 -1.28440344
-2.27156663 0.84687376 1.49043322
-2.14883876 0.29901603 3.01378226
-2.13245869 1.01009154 1.00415754
-0.06192033 0.49574697 4.33128881
-1.54410410 -1.17608941 -1.72594547
-2.84267759 -0.37350428 -0.58418125
-0.42954078 -0.91910255 -3.60689878
1.63935316 -1.23366606 -1.00932360
-0.89685184 0.00659015 -4.36040831
-2.38747168 -0.01630923 2.69947720
-2.52438259 0.79984826 0.05776906
2.33381248 0.22240862 2.72898388
-1.78601575 -0.75345689 2.87699032
0.14624867 -1.44423223 1.55536008
1.40527892 -0.81423885 3.21421742
-1.88630271 0.91943055 -2.21925116
-1.96862924 -0.81713527 -2.39578009
0.40727833 -1.02438521 -3.35395813
-1.08048618 1.41650879 0.61048371
-1.47994649 1.00052238 2.61262321
-2.39749217 0.64308357 -1.87051332
0.88137400 1.40529239 -1.26461577
1.99976516 1.04102230 -1.32812643
1.03341603 1.29147303 -1.90314507
0.04600410 1.51335323 0.80955607
-2.74995971 0.48873526 -0.83571476
-0.42703208 -1.47304821 -1.13367689
-2.34241509 0.07052349 -2.78354168
-2.92347980 0.05599849 0.65891713
-1.92673278 -1.14621699 -0.63968712
2.49733853 0.64876044 1.50557923
-0.15279813 -1.30387318 -2.41461182
-0.36835632 -1.51528108 -0.54395127
-2.70779300 0.37920988 -1.44509125
-2.64055991 -0.66776854 -0.53317577
1.54826367 -0.97889471 -2.59151387
1.13963473 -1.36779213 1.12327063
-2.03642511 -0.51207572 2.94679761
2.17172408 0.55293787 -2.63317990
-2.46428585 -0.84877664 0.08809187
-2.38027072 -0.28757226 2.57514668
0.19147936 0.28398249 4.48763132
-1.89930212 -1.02187169 -1.74545395
1.85949504 -1.18952346 -0.35738629
2.94377542 -0.04453467 0.38677627
0.47748581 -1.34912026 2.06866193
-2.82377625 -0.13900743 1.28746891
1.55103624 1.19897079 1.56760108
-1.39246798 -0.91269547 2.98657155
2.24080873 0.14153042 -2.95407629
2.34816265 -0.91137707 -0.61208099
0.35828137 1.28926921 -2.43469858
-1.59594142 1.16545796 -1.67643130
2.45578575 -0.38639477 2.27140284
-0.94509631 -0.63408142 3.90336657
0.03232099 0.89582866 3.71923828
-1.45233297 -1.27588499 -1.21598530
-1.07734442 0.41149256 4.08230686
1.52140379 1.17861712 -1.75879169
0.63252783 0.91281360 3.55102420
-2.71445036 0.52455515 0.92117214
-2.07790542 0.08025615 -3.24523640
-2.83385515 -0.23236595 -1.10228789
2.73027945 0.38841313 -1.31834495
0.99982095 -0.53100342 -4.00645304
-0.60744286 1.32202649 2.14050794
-0.27138591 -0.47786057 4.32967043
-2.00423551 1.04567301 -1.27742934
1.88310814 -0.73068810 2.77592611
1.89804840 0.95817161 2.04237056
0.12650213 0.88702130 -3.73230696
-2.00872111 0.71050245 2.60732293
2.56997085 -0.74118674 -0.49618074
-0.00763833 1.25690794 -2.63756251
1.90674639 -0.62997079 -2.95185709
-0.68541813 -0.67984545 -3.96428728
0.46255174 -1.38996696 -1.82127833
-0.09783761 1.05577743 -3.32404900
1.74641967 -1.20071828 0.93267059
-2.41602540 -0.77165323 -1.29983854
0.20428512 -0.72570747 4.02199984
-2.13651061 -1.00235343 1.04943120
-1.50886226 0.08241493 -3.92649674
-1.91955698 -0.01588039 3.47955179
-0.87826198 -0.88712233 3.48189449
-0.00874381 -1.46109891 -1.42883325
-2.91388416 0.10431885 -0.70823902
-0.81239754 -1.46803248 0.52183545
0.90356171 -1.08727705 2.91874909
2.74661088 -0.56295145 -0.24575874
2.83249617 0.40339682 0.52792472
0.37340719 0.19538981 -4.50262594
-2.69459057 -0.33781266 1.58994734
2.11197233 -0.40708074 2.96323895
1.34915054 0.84010637 3.21482038
-0.79746431 0.21611641 -4.35848331
2.37154984 0.59918422 -2.07182264
0.67744350 -0.28662983 -4.37100267
0.69342077 -0.73783588 3.86999655
-0.69926053 -1.19137502 -2.68273640
0.84517330 -0.34568202 4.26149702
-1.32735407 1.16136897 -2.18549275
-0.00922896 -0.99414390 3.49114990
2.58161139 0.73808253 0.37805855
-0.81109762 -0.38802657 -4.24559879
-0.97826540 1.38121760 1.32827938
-0.51229447 1.51406741 0.12109004
0.63509047 1.49957561 -0.25089109
1.42616415 -1.05944026 2.47378206
1.65701270 -0.16852863 3.75484824
-1.42677248 0.98405099 -2.73552012
-2.37691641 -0.28933612 -2.58067346
-1.37223339 1.34954679 -0.55260199
1.64482093 1.27382338 -0.30990309
0.14784227 0.66948909 4.11294794
1.23417270 -0.59681123 3.75897455
2.71335411 -0.32427433 -1.53995979
1.91268039 -1.07255638 -1.41039038
-0.23717131 1.10687995 3.15616465
1.30916464 -1.27653897 -1.55355608
-0.97179812 0.96247905 3.23587465
1.52253556 0.98806792 2.59598374
2.89228463 0.25816730 -0.55533749
2.65391231 -0.50041896 1.35843408
0.26640755 1.15693188 -2.98634672
-1.38081074 -1.31882095 0.98744279
0.11766601 -1.18948507 2.89422584
2.66603112 0.64031249 -0.52555078
0.58191901 1.44561183 1.27730989
-1.67902720 1.16522598 1.46970391
-0.72550333 0.95472962 -3.40751839
2.41177392 -0.75775456 -1.38514400
2.53906202 0.22665440 -2.24406147
-0.02273999 1.53161848 -0.40671715
-0.52663529 -1.45449269 1.24042547
3 135 229 189
3 110 247 223
3 223 247 83
3 30 31 99
3 209 229 135
3 209 223 83
3 38 189 229
3 64 43 38
3 38 43 189
3 94 194 69
3 149 181 146
3 80 233 188
3 146 181 131
3 146 131 141
3 141 131 188
3 110 223 205
3 237 68 22
3 172 144 29
3 198 86 191
3 191 251 198
3 69 194 198
3 198 251 69
3 51 226 186
3 23 78 132
3 99 31 132
3 19 78 23
3 165 30 11
3 23 190 242
3 159 76 59
3 59 108 159
3 248 184 112
3 243 184 248
3 211 243 248
3 248 224 211
3 211 224 82
3 82 30 211
3 34 224 58
3 234 47 58
3 58 47 34
3 21 43 64
3 174 30 99
3 135 189 236
3 46 48 230
3 227 94 119
3 167 149 44
3 44 213 167
3 49 80 188
3 188 131 49
3 136 141 188
3 182 55 28
3 148 55 182
3 250 226 101
3 180 109 52
3 186 239 52
3 52 51 186
3 72 149 167
3 181 149 72
3 72 71 181
3 121 140 250
3 107 158 133
3 96 107 175
3 175 107 205
3 68 237 252
3 252 61 68
3 68 61 195
3 61 156 195
3 245 198 194
3 86 198 245
3 245 194 172
3 172 29 245
3 245 29 86
3 59 76 62
3 191 86 12
3 86 29 12
3 81 251 191
3 191 105 81
3 212 105 191
3 191 12 212
3 203 182 28
3 17 144 172
3 60 47 1
3 1 47 234
3 168 190 34
3 34 47 168
3 109 242 168
3 168 242 190
3 168 47 60
3 227 226 145
3 226 51 145
3 145 1 228
3 109 168 18
3 18 168 60
3 18 52 109
3 51 52 18
3 180 19 215
3 215 19 23
3 23 242 215
3 215 109 180
3 215 242 109
3 78 19 4
3 4 41 46
3 70 243 211
3 70 165 243
3 211 30 70
3 30 165 70
3 116 237 22
3 22 184 116
3 116 184 243
3 25 29 144
3 25 108 59
3 25 12 29
3 217 108 14
3 217 159 108
3 217 14 112
3 112 184 217
3 253 184 22
3 253 217 184
3 159 217 253
3 112 14 45
3 45 248 112
3 224 248 45
3 45 58 224
3 151 224 34
3 151 82 224
3 34 190 151
3 151 190 23
3 31 30 151
3 30 82 151
3 23 132 151
3 151 132 31
3 210 252 237
3 237 116 210
3 43 21 244
3 244 174 43
3 244 210 11
3 21 210 244
3 11 30 244
3 30 174 244
3 214 236 189
3 48 236 214
3 214 230 48
3 189 43 214
3 43 174 214
3 214 174 99
3 201 205 223
3 201 175 205
3 221 236 48
3 46 41 221
3 221 48 46
3 78 230 77
3 99 132 77
3 77 132 78
3 77 214 99
3 230 214 77
3 222 94 69
3 222 119 94
3 69 251 231
3 231 222 69
3 136 222 231
3 141 136 50
3 50 55 141
3 136 231 50
3 93 55 148
3 148 2 93
3 93 2 183
3 16 85 246
3 110 205 16
3 220 75 152
3 233 80 139
3 80 101 139
3 227 119 139
3 139 119 233
3 139 226 227
3 139 101 226
3 180 52 176
3 176 52 239
3 63 41 3
3 3 26 63
3 89 13 92
3 92 241 89
3 13 176 92
3 239 241 92
3 92 176 239
3 5 239 186
3 5 241 239
3 140 241 5
3 186 226 5
3 5 226 250
3 250 140 5
3 40 178 89
3 40 15 178
3 89 241 40
3 40 241 140
3 181 71 27
3 71 121 27
3 27 131 181
3 140 121 192
3 192 40 140
3 15 40 192
3 71 15 192
3 192 121 71
3 33 21 64
3 37 156 240
3 61 252 238
3 128 240 238
3 238 156 61
3 238 240 156
3 127 220 53
3 75 220 127
3 53 196 127
3 196 103 127
3 127 138 75
3 103 138 127
3 106 81 105
3 106 203 28
3 106 50 231
3 251 81 106
3 106 231 251
3 84 7 218
3 84 212 7
3 7 212 115
3 115 212 12
3 115 62 7
3 228 17 254
3 254 94 227
3 227 145 254
3 254 145 228
3 249 18 60
3 51 18 249
3 249 145 51
3 60 1 249
3 1 145 249
3 54 230 78
3 78 4 54
3 46 230 54
3 54 4 46
3 243 165 117
3 117 116 243
3 117 165 11
3 11 210 117
3 117 210 116
3 179 25 144
3 108 25 179
3 144 97 179
3 35 25 59
3 12 25 35
3 35 115 12
3 59 62 35
3 62 115 35
3 142 17 228
3 234 97 142
3 144 17 142
3 142 97 144
3 142 1 234
3 228 1 142
3 234 58 100
3 58 45 100
3 100 97 234
3 100 45 14
3 193 210 21
3 193 33 171
3 21 33 193
3 171 252 193
3 252 210 193
3 187 41 63
3 175 201 187
3 187 221 41
3 201 221 187
3 63 96 187
3 96 175 187
3 236 221 219
3 219 221 201
3 219 209 135
3 135 236 219
3 223 209 219
3 219 201 223
3 173 136 188
3 173 222 136
3 188 233 173
3 233 119 173
3 119 222 173
3 148 182 232
3 232 2 148
3 6 2 232
3 182 203 232
3 126 155 44
3 126 44 149
3 183 2 126
3 207 93 183
3 207 126 149
3 183 126 207
3 207 149 146
3 141 55 154
3 55 93 154
3 146 141 154
3 154 207 146
3 93 207 154
3 246 255 104
3 104 16 246
3 110 16 104
3 104 247 110
3 133 85 169
3 85 16 169
3 169 16 205
3 169 107 133
3 205 107 169
3 208 255 246
3 246 90 208
3 235 176 13
3 235 19 180
3 180 176 235
3 124 235 13
3 178 26 24
3 26 3 24
3 89 178 24
3 3 124 24
3 24 13 89
3 24 124 13
3 111 107 96
3 111 96 63
3 63 26 111
3 111 26 178
3 123 27 121
3 123 121 250
3 123 49 131
3 131 27 123
3 250 101 123
3 80 49 123
3 123 101 80
3 255 208 20
3 199 33 64
3 164 33 199
3 37 240 57
3 57 240 197
3 57 197 152
3 152 75 57
3 75 138 57
3 114 252 171
3 114 238 252
3 171 33 114
3 114 33 164
3 114 164 128
3 128 238 114
3 36 195 156
3 36 185 195
3 36 156 37
3 37 57 36
3 36 57 138
3 103 185 36
3 36 138 103
3 66 62 76
3 7 62 66
3 76 159 170
3 159 253 170
3 170 66 76
3 79 66 170
3 87 106 28
3 50 106 87
3 28 55 87
3 55 50 87
3 105 212 98
3 212 84 98
3 94 254 120
3 120 254 17
3 194 94 120
3 172 194 120
3 120 17 172
3 143 179 97
3 97 100 143
3 143 100 14
3 14 108 143
3 108 179 143
3 200 126 2
3 155 126 200
3 200 2 6
3 6 163 200
3 53 220 74
3 246 85 9
3 9 202 246
3 177 90 150
3 150 90 246
3 247 104 166
3 83 247 166
3 166 209 83
3 166 118 209
3 88 4 19
3 19 235 88
3 41 4 88
3 204 161 158
3 158 107 204
3 107 111 204
3 128 164 95
3 164 199 95
3 153 208 90
3 153 20 208
3 229 209 32
3 209 118 32
3 32 38 229
3 64 38 32
3 32 199 64
3 73 66 79
3 73 185 218
3 218 7 73
3 7 66 73
3 195 185 73
3 73 79 195
3 79 170 39
3 68 195 39
3 195 79 39
3 22 68 39
3 39 253 22
3 39 170 253
3 65 103 196
3 218 185 65
3 65 185 103
3 65 84 218
3 65 98 84
3 163 74 125
3 177 150 125
3 125 150 163
3 125 220 177
3 125 74 220
3 53 74 137
3 137 232 53
3 6 232 137
3 137 163 6
3 137 74 163
3 213 44 42
3 44 0 42
3 42 161 213
3 158 161 42
3 155 200 91
3 91 200 163
3 163 150 91
3 118 166 56
3 162 124 3
3 162 3 41
3 41 88 162
3 235 124 162
3 162 88 235
3 161 204 130
3 130 72 167
3 167 213 130
3 213 161 130
3 197 240 10
3 10 240 128
3 128 95 10
3 147 90 177
3 147 153 90
3 147 220 152
3 177 220 147
3 105 98 216
3 98 129 216
3 216 129 203
3 216 106 105
3 203 106 216
3 98 65 225
3 225 129 98
3 225 65 196
3 203 129 225
3 225 196 53
3 53 232 225
3 225 232 203
3 133 158 113
3 158 42 113
3 113 0 202
3 113 42 0
3 155 91 160
3 44 155 160
3 160 0 44
3 102 91 150
3 246 202 102
3 102 150 246
3 102 160 91
3 202 0 102
3 0 160 102
3 118 56 67
3 20 10 67
3 67 10 95
3 134 56 166
3 134 104 255
3 134 166 104
3 255 20 134
3 20 67 134
3 134 67 56
3 122 130 204
3 178 15 122
3 122 15 71
3 122 111 178
3 122 204 111
3 71 72 122
3 72 130 122
3 152 197 206
3 206 147 152
3 153 147 206
3 197 10 206
3 20 153 206
3 206 10 20
3 8 85 133
3 133 113 8
3 8 9 85
3 202 9 8
3 8 113 202
3 118 67 157
3 157 67 95
3 157 32 118
3 157 95 199
3 199 32 157