ply
format ascii 1.0
comment https://github.com/mikedh/trimesh
element vertex 256
property float x
property float y
property float z
element face 508
property list uchar int vertex_indices
end_header
-2.57041812 -1.39810359 0.22678044
0.98525065 2.51581883 0.06922755
-2.72227597 -0.56624281 -0.48803002
-0.20147535 0.49896124 1.09946358
1.26860774 0.40552142 1.01007962
-0.98861039 1.94110799 0.67808872
-2.42566299 -1.22483981 -0.47576466
1.11700761 0.46589476 -1.02835846
-2.07373786 -1.75561845 0.38812238
-1.78922999 -2.00128627 0.35841841
0.92573154 -2.51993871 -0.12638576
3.04115272 -0.46737525 0.13370287
0.69024360 1.36754310 -0.92949289
-0.32294297 1.15778983 1.00312316
2.47322965 1.39199150 -0.34401247
-2.12095809 0.93837893 0.71904969
-1.09881926 -2.03267646 0.60504252
0.47069442 2.49104881 -0.35237709
0.90290982 2.34088445 0.41963235
1.07359755 1.00362349 0.96384543
-0.04691754 -2.65510082 0.04982577
2.64633441 -1.29100263 0.22613931
2.79446721 -0.26531908 -0.48065618
1.78651881 1.33151996 0.72662377
-0.54293489 0.86322403 1.04325986
1.40687931 1.71156073 -0.69253308
-0.93063927 0.36359751 1.05982924
-2.62272286 1.31176293 0.24037372
-1.91231310 0.46943253 -0.86262441
0.86654520 1.91559410 -0.71235526
2.90996456 0.26050040 0.38193846
2.70127273 0.41597912 0.52828354
1.38126981 -2.17300105 0.41183299
2.32466388 -1.76612949 0.00781457
2.17601323 1.75704908 0.30428734
1.26948524 1.17120016 -0.89718843
0.93822539 -1.61866522 -0.82340807
1.23916388 -1.89825678 -0.64583051
1.91529346 -1.67558563 0.53057778
2.40094590 -0.09461936 -0.71265060
-1.58050263 1.35111058 0.78007388
0.54323614 -0.07779969 1.10398114
-2.62883639 -1.10950112 0.37589744
2.50206685 -1.15908241 0.45284313
-2.96220922 -0.66290277 0.20009643
2.59544468 1.44356179 -0.10702928
1.20836163 -0.15328874 1.03170407
1.67959511 2.20472932 0.16071896
1.45618355 -0.54268014 0.96434319
-2.35112786 1.73936379 -0.02501258
-2.01729703 1.18866754 -0.69101495
0.08772937 2.47625446 0.40529358
0.16520366 2.12689567 0.67017663
-1.03268623 -1.36736941 -0.88716125
1.48071086 0.09212903 0.98577684
-2.36330342 0.77089351 -0.65326750
0.60267258 -2.45528221 0.37064984
0.77053285 -2.13127494 -0.60958791
2.20139313 1.87553453 0.04160036
1.63190556 1.37709403 -0.75823510
0.98893774 2.45220232 0.24554041
2.02804089 -1.49075103 -0.57272261
1.57505536 0.92831260 -0.88456851
-0.70961434 -0.39145753 1.07996666
2.15328455 -1.78064859 0.30140886
-0.18383092 -0.79649401 -1.06832647
1.82116175 0.22877727 -0.90461218
0.77129978 -2.52586746 0.20966087
2.56640100 -0.69680423 -0.56208789
-0.87248325 1.95018196 -0.69414663
3.05568814 0.30926162 0.16730982
-2.77500677 0.72880721 0.40365285
-2.89726210 0.30365455 0.38918349
1.72086287 -0.14240481 -0.93291980
-1.39302516 -1.91308975 -0.59510779
-0.24175377 -2.03024960 -0.71833354
2.12129951 0.76213247 -0.75537771
2.13825297 -0.21956512 0.80989325
1.92416215 0.45206475 0.86050808
2.03781796 -0.11463379 -0.84642500
-1.78567982 2.17659831 0.00464931
-0.69310898 1.16816032 -0.97602028
2.81226254 1.00844944 0.22213918
0.58686733 -2.03007603 0.69200641
0.34036252 -0.22960047 -1.11088777
-1.58492088 -1.91313756 0.52950209
0.48181617 1.65600789 -0.85994339
-1.87538755 0.90360910 -0.81010813
0.90481752 0.57218719 1.04593563
-0.93654442 1.06028402 0.97170335
-1.29095232 -2.41799378 -0.00289596
-2.37519813 -1.70317566 -0.09006934
-0.51632029 1.43224609 0.92664772
-2.88190794 0.30076143 -0.40362957
-0.61180681 2.52884793 -0.26491874
1.25100720 -2.42885613 0.06340855
-1.08540523 -0.58267158 1.02223539
1.60085285 2.17816401 -0.28216705
-0.07656833 -0.19622697 -1.11834800
2.55360293 -0.12952378 0.63911068
2.24577117 1.79236817 -0.17537297
-1.65696633 2.21670961 0.16021705
-2.38252664 -1.68565011 0.11923502
0.10179546 -1.44504070 -0.94092906
-0.51431280 -2.31818080 0.51578897
-0.58380777 0.65846705 -1.06608236
-1.44532490 0.97412986 -0.90418273
-1.43898547 -1.04047322 0.89254087
1.79896724 1.63661242 -0.60038060
1.21147120 1.93434155 0.63307732
-0.67854810 -2.12733006 0.62636054
-1.52659512 -0.01614877 0.97750419
2.70161986 1.09051025 -0.31299561
-2.37317729 -1.40208673 0.41964212
2.16739368 -1.84613502 -0.20151243
1.08086216 0.89583254 -0.98192382
3.01771045 -0.28467914 -0.24609591
3.08967161 -0.26733848 -0.07470505
0.97364712 -2.33878183 0.40002587
-1.10785139 2.43124270 -0.21423651
-0.16951317 2.54646420 -0.31490248
-2.39141917 1.46331239 0.36541563
-2.26221585 0.51666951 0.73890144
-2.24497151 1.74533606 0.24619342
-0.06518737 0.85660070 1.06191993
-1.62557423 -2.03216386 -0.42315716
-2.99266291 -0.64537770 -0.14322612
-0.45220423 -1.58811641 -0.88431823
1.72584867 -2.13165021 -0.24746001
-0.94417155 0.01138712 -1.06905913
-2.51343966 -0.02818070 0.66184187
-2.65757418 1.38205707 0.01416348
2.45694900 0.38429964 0.66907620
-1.88024962 -1.30189741 0.70536351
0.15396504 -2.49548745 0.38133401
1.47942424 -1.40692246 0.78804290
-1.98582780 1.58868325 -0.54410297
-2.07249808 -1.41192722 -0.58738327
0.42876714 -1.77003419 -0.82230371
-1.13749480 2.44758415 0.14967480
-1.55803144 1.72880173 0.64054757
-2.52398872 1.11118352 -0.45860144
0.92787707 2.42820334 -0.31005102
2.10527682 1.79878128 -0.32562220
1.08794117 2.23153496 -0.46660191
0.04843137 2.61492157 0.19848220
-2.89505315 0.84448516 -0.20489563
-0.44956318 -2.54527855 -0.27794823
-2.46600556 0.12185746 -0.68245238
-3.07772851 0.09675974 0.16154942
-2.02839112 -1.98054731 -0.15683472
2.62910318 1.12099254 0.36912903
-0.16086008 -2.25296116 -0.59200031
-0.38779154 -2.61825252 -0.13336277
-2.85066152 0.65523636 -0.35429895
-2.77988100 -1.15383661 -0.13072088
1.62995315 -1.69143116 -0.63537210
1.19976425 -2.36340666 0.27539688
-2.14387107 -0.88481510 0.72247851
2.28630877 0.95542085 -0.64558756
-2.59430647 -1.46660030 0.02159785
-2.50585866 -0.49689582 0.63135928
0.20158219 0.49069306 1.10025108
-1.99951315 -1.76569104 -0.42794013
1.95760572 -2.05537653 -0.08762187
3.09909487 -0.07695141 0.09482753
0.50267893 -2.33114362 0.50718236
-2.97276425 -0.24019080 0.31565404
1.63287210 2.07170033 0.38433522
-1.46593738 -1.57704568 0.73223007
2.35903835 0.24455029 -0.72426301
2.47205663 -1.57476747 -0.15006641
0.37718505 2.22772694 -0.59692508
-1.68014646 2.01379371 -0.41101757
2.58535790 -0.66765118 0.55688912
-0.99496150 -1.09562862 0.95700443
0.03402631 1.54790139 0.91186094
-1.52896094 -2.20460033 -0.29812813
-1.13418722 0.71101755 1.00087595
1.60167611 2.03653145 -0.43121019
0.66590130 1.57724965 0.87061918
-2.85767031 0.90637833 0.22584756
-2.18753982 0.13867451 -0.79564798
-2.98337507 -0.40150490 -0.27025244
2.87433457 0.67113864 -0.32322407
1.05257344 -0.91752034 -0.98227853
-0.63949275 2.28432822 0.52479714
-0.28570479 -0.82569480 1.06152320
-2.10998297 1.80681741 -0.31319261
1.98246479 -1.26255524 0.68058521
1.99819338 1.65562379 0.50073636
0.13317664 1.53268325 -0.91506505
-2.11470509 1.22767651 0.63924807
2.70556760 -1.28069580 -0.12165067
-0.00804134 2.17181015 -0.64666206
2.00735021 -1.08852589 -0.72371894
-0.72158217 -1.17470431 -0.97194058
0.48695692 -2.40172267 -0.44653031
-0.10299972 1.82427669 -0.81497073
1.83856428 -2.07471991 0.22866668
-2.54349971 -1.33333886 -0.31868675
0.21506362 -1.25394917 0.98609024
-2.24923730 -1.73196554 0.25729334
-1.58847284 0.14240468 -0.96267539
-2.02083659 -0.02743971 0.85309601
-0.92460084 -1.53285778 0.85367042
-0.00920515 -2.52463150 -0.35031292
-3.06762671 0.18025243 -0.17364188
-0.85526133 -2.53661180 0.12794054
0.95123547 -1.87870502 0.71560174
2.89152765 -0.97272331 -0.06025368
2.98194456 0.69702899 0.12943347
0.39310890 0.33761385 -1.10392737
-2.83676267 -0.58370620 0.38981393
2.22340441 -0.70339441 0.72650945
1.42033446 1.45161891 0.78819078
-0.83954012 0.37342736 -1.06858730
2.49667740 1.03532982 -0.50795728
0.71318680 -0.49526742 -1.07165670
0.73000705 -1.27490592 0.94882298
-0.73615491 -2.05857563 -0.65773755
0.88976634 -0.59730363 1.04480875
-1.39738798 2.00672841 -0.53582627
-0.00971590 -1.71778023 0.85593957
2.71782255 1.27533209 0.09269017
-0.85389280 -0.67047071 -1.04091096
-1.02988064 2.38660455 0.32565972
-0.53932416 2.61615562 0.02968814
0.66859913 2.59111524 -0.06151200
1.50141144 -1.83060586 0.60650736
1.74444008 -0.29120046 0.92059159
-1.50205183 1.70034075 -0.67067873
-2.50232744 -0.49994361 -0.63271433
-1.44463527 2.33188057 -0.13548370
1.73160493 2.20103836 -0.07598022
0.15564273 1.15680957 1.00838840
1.29929018 -1.03122950 0.92160326
2.85651612 -0.56031334 -0.37755829
2.01359725 -1.85326898 -0.34579122
-0.24968494 1.91257679 0.77380985
1.37823880 -2.20573044 -0.38089171
-1.02307212 1.66306663 0.79335272
1.60286760 1.70728159 0.63646799
3.04488730 0.44608703 -0.13615438
2.79393792 -0.86467344 0.33305287
0.28046376 1.99906158 -0.73217493
-1.45366502 -2.27878928 0.24209541
0.12387431 -2.05531001 0.70958924
2.80669641 1.10639536 -0.12885144
0.61262220 2.49787140 0.31316334
-1.76761603 2.01339293 0.36033335
-0.76378232 1.64967632 -0.83543527
2.53902411 -1.30932343 -0.33960143
2.67302823 0.39163589 -0.55018580
-0.02393980 2.64648199 -0.09971651
-0.55442160 -2.51321650 0.30412021
3 135 229 189
3 110 247 223
3 223 247 83
3 30 31 99
3 209 229 135
3 209 223 83
3 38 189 229
3 64 43 38
3 38 43 189
3 94 194 69
3 149 181 146
3 80 233 188
3 146 181 131
3 146 131 141
3 141 131 188
3 110 223 205
3 237 68 22
3 172 144 29
3 198 86 191
3 191 251 198
3 69 194 198
3 198 251 69
3 51 226 186
3 23 78 132
3 99 31 132
3 19 78 23
3 165 30 11
3 23 190 242
3 159 76 59
3 59 108 159
3 248 184 112
3 243 184 248
3 211 243 248
3 248 224 211
3 211 224 82
3 82 30 211
3 34 224 58
3 234 47 58
3 58 47 34
3 21 43 64
3 174 30 99
3 135 189 236
3 46 48 230
3 227 94 119
3 167 149 44
3 44 213 167
3 49 80 188
3 188 131 49
3 136 141 188
3 182 55 28
3 148 55 182
3 250 226 101
3 180 109 52
3 186 239 52
3 52 51 186
3 72 149 167
3 181 149 72
3 72 71 181
3 121 140 250
3 107 158 133
3 96 107 175
3 175 107 205
3 68 237 252
3 252 61 68
3 68 61 195
3 61 156 195
3 245 198 194
3 86 198 245
3 245 194 172
3 172 29 245
3 245 29 86
3 59 76 62
3 191 86 12
3 86 29 12
3 81 251 191
3 191 105 81
3 212 105 191
3 191 12 212
3 203 182 28
3 17 144 172
3 60 47 1
3 1 47 234
3 168 190 34
3 34 47 168
3 109 242 168
3 168 242 190
3 168 47 60
3 227 226 145
3 226 51 145
3 145 1 228
3 109 168 18
3 18 168 60
3 18 52 109
3 51 52 18
3 180 19 215
3 215 19 23
3 23 242 215
3 215 109 180
3 215 242 109
3 78 19 4
3 4 41 46
3 70 243 211
3 70 165 243
3 211 30 70
3 30 165 70
3 116 237 22
3 22 184 116
3 116 184 243
3 25 29 144
3 25 108 59
3 25 12 29
3 217 108 14
3 217 159 108
3 217 14 112
3 112 184 217
3 253 184 22
3 253 217 184
3 159 217 253
3 112 14 45
3 45 248 112
3 224 248 45
3 45 58 224
3 151 224 34
3 151 82 224
3 34 190 151
3 151 190 23
3 31 30 151
3 30 82 151
3 23 132 151
3 151 132 31
3 210 252 237
3 237 116 210
3 43 21 244
3 244 174 43
3 244 210 11
3 21 210 244
3 11 30 244
3 30 174 244
3 214 236 189
3 48 236 214
3 214 230 48
3 189 43 214
3 43 174 214
3 214 174 99
3 201 205 223
3 201 175 205
3 221 236 48
3 46 41 221
3 221 48 46
3 78 230 77
3 99 132 77
3 77 132 78
3 77 214 99
3 230 214 77
3 222 94 69
3 222 119 94
3 69 251 231
3 231 222 69
3 136 222 231
3 141 136 50
3 50 55 141
3 136 231 50
3 93 55 148
3 148 2 93
3 93 2 183
3 16 85 246
3 110 205 16
3 220 75 152
3 233 80 139
3 80 101 139
3 227 119 139
3 139 119 233
3 139 226 227
3 139 101 226
3 180 52 176
3 176 52 239
3 63 41 3
3 3 26 63
3 89 13 92
3 92 241 89
3 13 176 92
3 239 241 92
3 92 176 239
3 5 239 186
3 5 241 239
3 140 241 5
3 186 226 5
3 5 226 250
3 250 140 5
3 40 178 89
3 40 15 178
3 89 241 40
3 40 241 140
3 181 71 27
3 71 121 27
3 27 131 181
3 140 121 192
3 192 40 140
3 15 40 192
3 71 15 192
3 192 121 71
3 33 21 64
3 37 156 240
3 61 252 238
3 128 240 238
3 238 156 61
3 238 240 156
3 127 220 53
3 75 220 127
3 53 196 127
3 196 103 127
3 127 138 75
3 103 138 127
3 106 81 105
3 106 203 28
3 106 50 231
3 251 81 106
3 106 231 251
3 84 7 218
3 84 212 7
3 7 212 115
3 115 212 12
3 115 62 7
3 228 17 254
3 254 94 227
3 227 145 254
3 254 145 228
3 249 18 60
3 51 18 249
3 249 145 51
3 60 1 249
3 1 145 249
3 54 230 78
3 78 4 54
3 46 230 54
3 54 4 46
3 243 165 117
3 117 116 243
3 117 165 11
3 11 210 117
3 117 210 116
3 179 25 144
3 108 25 179
3 144 97 179
3 35 25 59
3 12 25 35
3 35 115 12
3 59 62 35
3 62 115 35
3 142 17 228
3 234 97 142
3 144 17 142
3 142 97 144
3 142 1 234
3 228 1 142
3 234 58 100
3 58 45 100
3 100 97 234
3 100 45 14
3 193 210 21
3 193 33 171
3 21 33 193
3 171 252 193
3 252 210 193
3 187 41 63
3 175 201 187
3 187 221 41
3 201 221 187
3 63 96 187
3 96 175 187
3 236 221 219
3 219 221 201
3 219 209 135
3 135 236 219
3 223 209 219
3 219 201 223
3 173 136 188
3 173 222 136
3 188 233 173
3 233 119 173
3 119 222 173
3 148 182 232
3 232 2 148
3 6 2 232
3 182 203 232
3 126 155 44
3 126 44 149
3 183 2 126
3 207 93 183
3 207 126 149
3 183 126 207
3 207 149 146
3 141 55 154
3 55 93 154
3 146 141 154
3 154 207 146
3 93 207 154
3 246 255 104
3 104 16 246
3 110 16 104
3 104 247 110
3 133 85 169
3 85 16 169
3 169 16 205
3 169 107 133
3 205 107 169
3 208 255 246
3 246 90 208
3 235 176 13
3 235 19 180
3 180 176 235
3 124 235 13
3 178 26 24
3 26 3 24
3 89 178 24
3 3 124 24
3 24 13 89
3 24 124 13
3 111 107 96
3 111 96 63
3 63 26 111
3 111 26 178
3 123 27 121
3 123 121 250
3 123 49 131
3 131 27 123
3 250 101 123
3 80 49 123
3 123 101 80
3 255 208 20
3 199 33 64
3 164 33 199
3 37 240 57
3 57 240 197
3 57 197 152
3 152 75 57
3 75 138 57
3 114 252 171
3 114 238 252
3 171 33 114
3 114 33 164
3 114 164 128
3 128 238 114
3 36 195 156
3 36 185 195
3 36 156 37
3 37 57 36
3 36 57 138
3 103 185 36
3 36 138 103
3 66 62 76
3 7 62 66
3 76 159 170
3 159 253 170
3 170 66 76
3 79 66 170
3 87 106 28
3 50 106 87
3 28 55 87
3 55 50 87
3 105 212 98
3 212 84 98
3 94 254 120
3 120 254 17
3 194 94 120
3 172 194 120
3 120 17 172
3 143 179 97
3 97 100 143
3 143 100 14
3 14 108 143
3 108 179 143
3 200 126 2
3 155 126 200
3 200 2 6
3 6 163 200
3 53 220 74
3 246 85 9
3 9 202 246
3 177 90 150
3 150 90 246
3 247 104 166
3 83 247 166
3 166 209 83
3 166 118 209
3 88 4 19
3 19 235 88
3 41 4 88
3 204 161 158
3 158 107 204
3 107 111 204
3 128 164 95
3 164 199 95
3 153 208 90
3 153 20 208
3 229 209 32
3 209 118 32
3 32 38 229
3 64 38 32
3 32 199 64
3 73 66 79
3 73 185 218
3 218 7 73
3 7 66 73
3 195 185 73
3 73 79 195
3 79 170 39
3 68 195 39
3 195 79 39
3 22 68 39
3 39 253 22
3 39 170 253
3 65 103 196
3 218 185 65
3 65 185 103
3 65 84 218
3 65 98 84
3 163 74 125
3 177 150 125
3 125 150 163
3 125 220 177
3 125 74 220
3 53 74 137
3 137 232 53
3 6 232 137
3 137 163 6
3 137 74 163
3 213 44 42
3 44 0 42
3 42 161 213
3 158 161 42
3 155 200 91
3 91 200 163
3 163 150 91
3 118 166 56
3 162 124 3
3 162 3 41
3 41 88 162
3 235 124 162
3 162 88 235
3 161 204 130
3 130 72 167
3 167 213 130
3 213 161 130
3 197 240 10
3 10 240 128
3 128 95 10
3 147 90 177
3 147 153 90
3 147 220 152
3 177 220 147
3 105 98 216
3 98 129 216
3 216 129 203
3 216 106 105
3 203 106 216
3 98 65 225
3 225 129 98
3 225 65 196
3 203 129 225
3 225 196 53
3 53 232 225
3 225 232 203
3 133 158 113
3 158 42 113
3 113 0 202
3 113 42 0
3 155 91 160
3 44 155 160
3 160 0 44
3 102 91 150
3 246 202 102
3 102 150 246
3 102 160 91
3 202 0 102
3 0 160 102
3 118 56 67
3 20 10 67
3 67 10 95
3 134 56 166
3 134 104 255
3 134 166 104
3 255 20 134
3 20 67 134
3 134 67 56
3 122 130 204
3 178 15 122
3 122 15 71
3 122 111 178
3 122 204 111
3 71 72 122
3 72 130 122
3 152 197 206
3 206 147 152
3 153 147 206
3 197 10 206
3 20 153 206
3 206 10 20
3 8 85 133
3 133 113 8
3 8 9 85
3 202 9 8
3 8 113 202
3 118 67 157
3 157 67 95
3 157 32 118
3 157 95 199
3 199 32 157