ply
format ascii 1.0
comment https://github.com/mikedh/trimesh
element vertex 256
property float x
property float y
property float z
element face 508
property list uchar int vertex_indices
end_header
-1.66256106 -0.61120629 0.20270981
0.63726574 1.09983575 0.06187968
-1.76078367 -0.24754329 -0.43623018
-0.13031542 0.21812995 0.98276573
0.82054275 0.17728102 0.90286905
-0.63943887 0.84859049 0.60611594
-1.56893277 -0.53546089 -0.42526665
0.72248697 0.20367433 -0.91920781
-1.34130549 -0.76750040 0.34692678
-1.15728414 -0.87489855 0.32037562
0.59876847 -1.10163677 -0.11297108
1.96703494 -0.20432155 0.11951156
0.44645351 0.59784621 -0.83083582
-0.20888136 0.50614882 0.89665097
1.59969914 0.60853428 -0.30749872
-1.37184787 0.41022933 0.64272922
-0.71072263 -0.88862127 0.54082286
0.30444786 1.08900702 -0.31497553
0.58400726 1.02336001 0.37509227
0.69440901 0.43875220 0.86154217
-0.03034653 -1.16072536 0.04453723
1.71166432 -0.56438518 0.20213673
1.80747747 -0.11598904 -0.42963898
1.15553057 0.58209807 0.64949942
-0.35117343 0.37737402 0.93252754
0.90997761 0.74823976 -0.61902714
-0.60194278 0.15895323 0.94733816
-1.69639218 0.57346088 0.21486028
-1.23689508 0.20522094 -0.77106488
0.56048638 0.83743662 -0.63674533
1.88218188 0.11388247 0.34139922
1.74719870 0.18185280 0.47221112
0.89341325 -0.94996673 0.36812073
1.50360596 -0.77209550 0.00698512
1.40745795 0.76812583 0.27199006
0.82111031 0.51201135 -0.80196023
0.60684955 -0.70762879 -0.73601091
0.80149829 -0.82985729 -0.57728159
1.23882282 -0.73251259 0.47426188
1.55294561 -0.04136457 -0.63700932
-1.02227819 0.59066248 0.69727629
0.35136825 -0.03401155 0.98680383
-1.70034647 -0.48503852 0.33599943
1.61835122 -0.50671387 0.40477803
-1.91597390 -0.28979993 0.17885806
1.67874849 0.63107914 -0.09566911
0.78157520 -0.06701294 0.92219824
1.08637178 0.96383739 0.14366013
0.94186783 -0.23724246 0.86198711
-1.52072310 0.76039433 -0.02235772
-1.30479932 0.51964754 -0.61767012
0.05674386 1.08253944 0.36227542
0.10685468 0.92981094 0.59904361
-0.66794735 -0.59777027 -0.79299730
0.95773226 0.04027588 0.88114578
-1.52859819 0.33701006 -0.58392924
0.38981208 -1.07337105 0.33130881
0.49838507 -0.93172544 -0.54488581
1.42387366 0.81992388 0.03718487
1.05552590 0.60202157 -0.67775548
0.63965058 1.07202458 0.21947858
1.31174850 -0.65170878 -0.51193345
1.01875484 0.40582865 -0.79067975
-0.45898262 -0.17113274 0.96533829
1.39275682 -0.77844274 0.26941711
-0.11890289 -0.34820178 -0.95493352
1.17793787 0.10001413 -0.80859601
0.49888113 -1.10422862 0.18740731
1.65996289 -0.30462059 -0.50242752
-0.56432718 0.85255736 -0.62046939
1.97643661 0.13519932 0.14955144
-1.79489040 0.31861126 0.36080885
-1.87396574 0.13274810 0.34787530
1.11306393 -0.06225484 -0.83389902
-0.90101665 -0.83634180 -0.53194267
-0.15636772 -0.88756037 -0.64208913
1.37206864 0.33318001 -0.67520136
1.38303435 -0.09598687 0.72393060
1.24455917 0.19762829 0.76917315
1.31807232 -0.05011424 -0.75658482
-1.15498793 0.95153934 0.00415583
-0.44830689 0.51068246 -0.87242478
1.81898749 0.44086191 0.19856118
0.37958917 -0.88748455 0.61855632
0.22014843 -0.10037401 -0.99297732
-1.02513599 -0.83636272 0.47330037
0.31164145 0.72395384 -0.76866841
-1.21301150 0.39502907 -0.72412270
0.58524120 0.25014198 0.93491924
-0.60576230 0.46352234 0.86856604
-0.83499539 -1.05706978 -0.00258858
-1.53629172 -0.74457407 -0.08050931
-0.33395892 0.62613231 0.82829267
-1.86403465 0.13148330 -0.36078805
-0.39572018 1.10553157 -0.23680007
0.80915862 -1.06181848 0.05667832
-0.70204628 -0.25472543 0.91373456
1.03544080 0.95222378 -0.25221762
-0.04952484 -0.08578417 -0.99964577
1.65168512 -0.05662367 0.57127500
1.45257759 0.78356624 -0.15675876
-1.07173526 0.96907479 0.14321150
-1.54103184 -0.73691249 0.10657933
0.06584188 -0.63172573 -0.84105819
-0.33266047 -1.01343465 0.46104276
-0.37761021 0.28786078 -0.95292759
-0.93484443 0.42585850 -0.80821216
-0.93074405 -0.45486173 0.79780596
1.16358232 0.71547472 -0.53665578
0.78358650 0.84563243 0.56588203
-0.43888879 -0.93000084 0.55987817
-0.98741049 -0.00705973 0.87375116
1.74742329 0.47673631 -0.27977401
-1.53498471 -0.61294758 0.37510100
1.40188265 -0.80707139 -0.18012375
0.69910783 0.39162940 -0.87770170
1.95187247 -0.12445265 -0.21997511
1.99841738 -0.11687185 -0.06677581
0.62976050 -1.02244079 0.35756683
-0.71656466 1.06286180 -0.19149730
-0.10964209 1.11323285 -0.28147849
-1.54678369 0.63971353 0.32663015
-1.46321416 0.22587143 0.66047388
-1.45206046 0.76300526 0.22006227
-0.04216357 0.37447852 0.94920695
-1.05143070 -0.88839722 -0.37824294
-1.93567157 -0.28213853 -0.12802400
-0.29248828 -0.69427383 -0.79045606
1.11628890 -0.93188953 -0.22119443
-0.61069560 0.00497808 -0.95558846
-1.62570715 -0.01231970 0.59159350
-1.71893418 0.60419124 0.01266016
1.58916879 0.16800354 0.59805995
-1.21615624 -0.56914806 0.63049573
0.09958547 -1.09094751 0.34085894
0.95690012 -0.61506164 0.70439947
-1.28444481 0.69452161 -0.48635146
-1.34050357 -0.61724955 -0.52503794
0.27732906 -0.77380252 -0.73502380
-0.73573816 1.07000577 0.13378821
-1.00774372 0.75577694 0.57255942
-1.63253033 0.48577398 -0.40992516
0.60015625 1.06153297 -0.27714199
1.36170506 0.78636980 -0.29106042
0.70368654 0.97555590 -0.41707644
0.03132569 1.14316034 0.17741515
-1.87253702 0.36918196 -0.18314786
-0.29078004 -1.11271465 -0.24844660
-1.59502661 0.05327220 -0.61001641
-1.99069238 0.04230027 0.14440244
-1.31197500 -0.86583209 -0.14018817
1.70051897 0.49006221 0.32994941
-0.10404522 -0.98492271 -0.52916497
-0.25082579 -1.14461648 -0.11920755
-1.84382427 0.28644842 -0.31669340
-1.79804301 -0.50442058 -0.11684608
1.05426300 -0.73943979 -0.56793326
0.77601439 -1.03320599 0.24616607
-1.38666821 -0.38681296 0.64579409
1.47879755 0.41767952 -0.57706445
-1.67801237 -0.64115089 0.01930543
-1.62080383 -0.21722700 0.56434637
0.13038452 0.21451536 0.98346961
-1.29329658 -0.77190381 -0.38251826
1.26619065 -0.89854503 -0.07832162
2.00451231 -0.03364070 0.08476246
0.32513562 -1.01910162 0.45334968
-1.92280102 -0.10500376 0.28215030
1.05615103 0.90568131 0.34354159
-0.94817668 -0.68943405 0.65451062
1.52583957 0.10690959 -0.64738923
1.59894037 -0.68843812 -0.13413826
0.24396545 0.97389120 -0.53356701
-1.08672833 0.88036633 -0.36739185
1.67222440 -0.29187578 0.49778053
-0.64354682 -0.47897390 0.85542732
0.02200841 0.67669314 0.81507534
-0.98894072 -0.96378100 -0.26648459
-0.73359883 0.31083420 0.89464223
1.03597331 0.89030653 -0.38544121
0.43070877 0.68952328 0.77821106
-1.84835756 0.39623970 0.20187594
-1.41491330 0.06062407 -0.71119732
-1.92966402 -0.17552513 -0.24156766
1.85913599 0.29340041 -0.28891683
0.68081057 -0.40111062 -0.87801880
-0.41362756 0.99863541 0.46909478
-0.18479550 -0.36096743 0.94885230
-1.36474919 0.78988290 -0.27995011
1.28226960 -0.55194890 0.60834742
1.29244292 0.72378588 0.44758785
0.08613941 0.67004025 -0.81793940
-1.36780345 0.53670096 0.57139784
1.74997663 -0.55987936 -0.10873858
-0.00520119 0.94944608 -0.57802486
1.29836559 -0.47586882 -0.64690292
-0.46672350 -0.51354325 -0.86877811
0.31496653 -1.04995656 -0.39913526
-0.06662081 0.79751557 -0.72846913
1.18919396 -0.90700144 0.20439583
-1.64515018 -0.58289325 -0.28486112
0.13910438 -0.54818660 0.88142592
-1.45481956 -0.75716013 0.22998405
-1.02743340 0.06225478 -0.86049628
-1.30708873 -0.01199577 0.76254779
-0.59803712 -0.67011654 0.76306123
-0.00595394 -1.10368836 -0.31313044
-1.98415852 0.07880062 -0.15521140
-0.55318791 -1.10892582 0.11436084
0.61526459 -0.82130992 0.63964725
1.87025666 -0.42524359 -0.05385831
1.92873883 0.30471885 0.11569531
0.25426510 0.14759402 -0.98675567
-1.83483434 -0.25517774 0.34843880
1.43811071 -0.30750158 0.64939725
0.91868043 0.63460153 0.70453161
-0.54301935 0.16325052 -0.95516664
1.61486530 0.45261315 -0.45404232
0.46129334 -0.21651511 -0.95791024
0.47217274 -0.55734819 0.84811419
-0.47614923 -0.89994359 -0.58792478
0.57550597 -0.26112211 0.93391198
-0.90383857 0.87727761 -0.47895324
-0.00628430 -0.75095874 0.76508951
1.75790310 0.55753452 0.08285197
-0.55230278 -0.29310843 -0.93042791
-0.66613275 1.04334736 0.29109395
-0.34883797 1.14369977 0.02653702
0.43245375 1.13275290 -0.05498307
0.97112149 -0.80028248 0.54213220
1.12831390 -0.12730356 0.82287931
-0.97153574 0.74333477 -0.59949243
-1.61851966 -0.21855940 -0.56555754
-0.93439835 1.01942384 -0.12110336
1.12001204 0.96222371 -0.06791562
0.10067061 0.50572026 0.90135729
0.84038836 -0.45082065 0.82378364
1.84761107 -0.24495111 -0.33748397
1.30240631 -0.81019008 -0.30908868
-0.16149765 0.83611757 0.69167715
0.89145273 -0.96427500 -0.34046361
-0.66172898 0.72703969 0.70914567
1.03674388 0.74636906 0.56891280
1.96945059 0.19501501 -0.12170286
1.80713511 -0.37800765 0.29770240
0.18140556 0.87392592 -0.65446132
-0.94023889 -0.99621403 0.21639922
0.08012261 -0.89851600 0.63427293
1.81538737 0.48368075 -0.11517505
0.39624757 1.09198964 0.27992395
-1.14330423 0.88019115 0.32208732
-0.49401879 0.72118586 -0.74676156
1.64225531 -0.57239443 -0.30355591
1.72893000 0.17121072 -0.49178869
-0.01548440 1.15695751 -0.08913253
-0.35860306 -1.09869814 0.27184069
3 135 229 189
3 110 247 223
3 223 247 83
3 30 31 99
3 209 229 135
3 209 223 83
3 38 189 229
3 64 43 38
3 38 43 189
3 94 194 69
3 149 181 146
3 80 233 188
3 146 181 131
3 146 131 141
3 141 131 188
3 110 223 205
3 237 68 22
3 172 144 29
3 198 86 191
3 191 251 198
3 69 194 198
3 198 251 69
3 51 226 186
3 23 78 132
3 99 31 132
3 19 78 23
3 165 30 11
3 23 190 242
3 159 76 59
3 59 108 159
3 248 184 112
3 243 184 248
3 211 243 248
3 248 224 211
3 211 224 82
3 82 30 211
3 34 224 58
3 234 47 58
3 58 47 34
3 21 43 64
3 174 30 99
3 135 189 236
3 46 48 230
3 227 94 119
3 167 149 44
3 44 213 167
3 49 80 188
3 188 131 49
3 136 141 188
3 182 55 28
3 148 55 182
3 250 226 101
3 180 109 52
3 186 239 52
3 52 51 186
3 72 149 167
3 181 149 72
3 72 71 181
3 121 140 250
3 107 158 133
3 96 107 175
3 175 107 205
3 68 237 252
3 252 61 68
3 68 61 195
3 61 156 195
3 245 198 194
3 86 198 245
3 245 194 172
3 172 29 245
3 245 29 86
3 59 76 62
3 191 86 12
3 86 29 12
3 81 251 191
3 191 105 81
3 212 105 191
3 191 12 212
3 203 182 28
3 17 144 172
3 60 47 1
3 1 47 234
3 168 190 34
3 34 47 168
3 109 242 168
3 168 242 190
3 168 47 60
3 227 226 145
3 226 51 145
3 145 1 228
3 109 168 18
3 18 168 60
3 18 52 109
3 51 52 18
3 180 19 215
3 215 19 23
3 23 242 215
3 215 109 180
3 215 242 109
3 78 19 4
3 4 41 46
3 70 243 211
3 70 165 243
3 211 30 70
3 30 165 70
3 116 237 22
3 22 184 116
3 116 184 243
3 25 29 144
3 25 108 59
3 25 12 29
3 217 108 14
3 217 159 108
3 217 14 112
3 112 184 217
3 253 184 22
3 253 217 184
3 159 217 253
3 112 14 45
3 45 248 112
3 224 248 45
3 45 58 224
3 151 224 34
3 151 82 224
3 34 190 151
3 151 190 23
3 31 30 151
3 30 82 151
3 23 132 151
3 151 132 31
3 210 252 237
3 237 116 210
3 43 21 244
3 244 174 43
3 244 210 11
3 21 210 244
3 11 30 244
3 30 174 244
3 214 236 189
3 48 236 214
3 214 230 48
3 189 43 214
3 43 174 214
3 214 174 99
3 201 205 223
3 201 175 205
3 221 236 48
3 46 41 221
3 221 48 46
3 78 230 77
3 99 132 77
3 77 132 78
3 77 214 99
3 230 214 77
3 222 94 69
3 222 119 94
3 69 251 231
3 231 222 69
3 136 222 231
3 141 136 50
3 50 55 141
3 136 231 50
3 93 55 148
3 148 2 93
3 93 2 183
3 16 85 246
3 110 205 16
3 220 75 152
3 233 80 139
3 80 101 139
3 227 119 139
3 139 119 233
3 139 226 227
3 139 101 226
3 180 52 176
3 176 52 239
3 63 41 3
3 3 26 63
3 89 13 92
3 92 241 89
3 13 176 92
3 239 241 92
3 92 176 239
3 5 239 186
3 5 241 239
3 140 241 5
3 186 226 5
3 5 226 250
3 250 140 5
3 40 178 89
3 40 15 178
3 89 241 40
3 40 241 140
3 181 71 27
3 71 121 27
3 27 131 181
3 140 121 192
3 192 40 140
3 15 40 192
3 71 15 192
3 192 121 71
3 33 21 64
3 37 156 240
3 61 252 238
3 128 240 238
3 238 156 61
3 238 240 156
3 127 220 53
3 75 220 127
3 53 196 127
3 196 103 127
3 127 138 75
3 103 138 127
3 106 81 105
3 106 203 28
3 106 50 231
3 251 81 106
3 106 231 251
3 84 7 218
3 84 212 7
3 7 212 115
3 115 212 12
3 115 62 7
3 228 17 254
3 254 94 227
3 227 145 254
3 254 145 228
3 249 18 60
3 51 18 249
3 249 145 51
3 60 1 249
3 1 145 249
3 54 230 78
3 78 4 54
3 46 230 54
3 54 4 46
3 243 165 117
3 117 116 243
3 117 165 11
3 11 210 117
3 117 210 116
3 179 25 144
3 108 25 179
3 144 97 179
3 35 25 59
3 12 25 35
3 35 115 12
3 59 62 35
3 62 115 35
3 142 17 228
3 234 97 142
3 144 17 142
3 142 97 144
3 142 1 234
3 228 1 142
3 234 58 100
3 58 45 100
3 100 97 234
3 100 45 14
3 193 210 21
3 193 33 171
3 21 33 193
3 171 252 193
3 252 210 193
3 187 41 63
3 175 201 187
3 187 221 41
3 201 221 187
3 63 96 187
3 96 175 187
3 236 221 219
3 219 221 201
3 219 209 135
3 135 236 219
3 223 209 219
3 219 201 223
3 173 136 188
3 173 222 136
3 188 233 173
3 233 119 173
3 119 222 173
3 148 182 232
3 232 2 148
3 6 2 232
3 182 203 232
3 126 155 44
3 126 44 149
3 183 2 126
3 207 93 183
3 207 126 149
3 183 126 207
3 207 149 146
3 141 55 154
3 55 93 154
3 146 141 154
3 154 207 146
3 93 207 154
3 246 255 104
3 104 16 246
3 110 16 104
3 104 247 110
3 133 85 169
3 85 16 169
3 169 16 205
3 169 107 133
3 205 107 169
3 208 255 246
3 246 90 208
3 235 176 13
3 235 19 180
3 180 176 235
3 124 235 13
3 178 26 24
3 26 3 24
3 89 178 24
3 3 124 24
3 24 13 89
3 24 124 13
3 111 107 96
3 111 96 63
3 63 26 111
3 111 26 178
3 123 27 121
3 123 121 250
3 123 49 131
3 131 27 123
3 250 101 123
3 80 49 123
3 123 101 80
3 255 208 20
3 199 33 64
3 164 33 199
3 37 240 57
3 57 240 197
3 57 197 152
3 152 75 57
3 75 138 57
3 114 252 171
3 114 238 252
3 171 33 114
3 114 33 164
3 114 164 128
3 128 238 114
3 36 195 156
3 36 185 195
3 36 156 37
3 37 57 36
3 36 57 138
3 103 185 36
3 36 138 103
3 66 62 76
3 7 62 66
3 76 159 170
3 159 253 170
3 170 66 76
3 79 66 170
3 87 106 28
3 50 106 87
3 28 55 87
3 55 50 87
3 105 212 98
3 212 84 98
3 94 254 120
3 120 254 17
3 194 94 120
3 172 194 120
3 120 17 172
3 143 179 97
3 97 100 143
3 143 100 14
3 14 108 143
3 108 179 143
3 200 126 2
3 155 126 200
3 200 2 6
3 6 163 200
3 53 220 74
3 246 85 9
3 9 202 246
3 177 90 150
3 150 90 246
3 247 104 166
3 83 247 166
3 166 209 83
3 166 118 209
3 88 4 19
3 19 235 88
3 41 4 88
3 204 161 158
3 158 107 204
3 107 111 204
3 128 164 95
3 164 199 95
3 153 208 90
3 153 20 208
3 229 209 32
3 209 118 32
3 32 38 229
3 64 38 32
3 32 199 64
3 73 66 79
3 73 185 218
3 218 7 73
3 7 66 73
3 195 185 73
3 73 79 195
3 79 170 39
3 68 195 39
3 195 79 39
3 22 68 39
3 39 253 22
3 39 170 253
3 65 103 196
3 218 185 65
3 65 185 103
3 65 84 218
3 65 98 84
3 163 74 125
3 177 150 125
3 125 150 163
3 125 220 177
3 125 74 220
3 53 74 137
3 137 232 53
3 6 232 137
3 137 163 6
3 137 74 163
3 213 44 42
3 44 0 42
3 42 161 213
3 158 161 42
3 155 200 91
3 91 200 163
3 163 150 91
3 118 166 56
3 162 124 3
3 162 3 41
3 41 88 162
3 235 124 162
3 162 88 235
3 161 204 130
3 130 72 167
3 167 213 130
3 213 161 130
3 197 240 10
3 10 240 128
3 128 95 10
3 147 90 177
3 147 153 90
3 147 220 152
3 177 220 147
3 105 98 216
3 98 129 216
3 216 129 203
3 216 106 105
3 203 106 216
3 98 65 225
3 225 129 98
3 225 65 196
3 203 129 225
3 225 196 53
3 53 232 225
3 225 232 203
3 133 158 113
3 158 42 113
3 113 0 202
3 113 42 0
3 155 91 160
3 44 155 160
3 160 0 44
3 102 91 150
3 246 202 102
3 102 150 246
3 102 160 91
3 202 0 102
3 0 160 102
3 118 56 67
3 20 10 67
3 67 10 95
3 134 56 166
3 134 104 255
3 134 166 104
3 255 20 134
3 20 67 134
3 134 67 56
3 122 130 204
3 178 15 122
3 122 15 71
3 122 111 178
3 122 204 111
3 71 72 122
3 72 130 122
3 152 197 206
3 206 147 152
3 153 147 206
3 197 10 206
3 20 153 206
3 206 10 20
3 8 85 133
3 133 113 8
3 8 9 85
3 202 9 8
3 8 113 202
3 118 67 157
3 157 67 95
3 157 32 118
3 157 95 199
3 199 32 157