ply
format ascii 1.0
comment https://github.com/mikedh/trimesh
element vertex 256
property float x
property float y
property float z
element face 508
property list uchar int vertex_indices
end_header
-3.88383818 -2.01240754 0.24629568
1.48868942 3.62122869 0.07518481
-4.11329174 -0.81504071 -0.53002667
-0.30442429 0.71819669 1.19407618
1.91683495 0.58370090 1.09700036
-1.49376583 2.79399920 0.73644060
-3.66511679 -1.76301455 -0.51670581
1.68777096 0.67060137 -1.11685228
-3.13336658 -2.52700853 0.42152163
-2.70348215 -2.88061905 0.38926151
1.39875746 -3.62715864 -0.13726167
4.59510660 -0.67273229 0.14520846
1.04294097 1.96841919 -1.00947893
-0.48795885 1.66650391 1.08944535
3.73698902 2.00360990 -0.37361589
-3.20471525 1.35068738 0.78092635
-1.66028869 -2.92580128 0.65710849
0.71120763 3.58557487 -0.38270032
1.36427438 3.36943102 0.45574313
1.62217927 1.44459939 1.04678762
-0.07089124 -3.82170892 0.05411345
3.99854612 -1.85824811 0.24559936
4.22237110 -0.38189599 -0.52201825
2.69938588 1.91656816 0.78915226
-0.82036126 1.24251068 1.13303590
2.12575984 2.46359277 -0.75212795
-1.40617287 0.52335632 1.15103114
-3.96286941 1.88813019 0.26105869
-2.88945794 0.67569357 -0.93685621
1.30932832 2.75727487 -0.77365583
4.39688444 0.37496004 0.41480556
4.08155632 0.59875357 0.57374412
2.08706450 -3.12778234 0.44727263
3.51250982 -2.54213810 0.00848704
3.28790236 2.52906799 0.33047229
1.91816080 1.68580639 -0.97439456
1.41763532 -2.32988024 -0.89426512
1.87234592 -2.73231983 -0.70140642
2.89396119 -2.41181064 0.57623583
3.62776995 -0.13619357 -0.77397656
-2.38810039 1.94476664 0.84720188
0.82081640 -0.11198361 1.19898248
-3.97210693 -1.59699798 0.40824470
3.78056121 -1.66836441 0.49181184
-4.47582483 -0.95417142 0.21731541
3.92165279 2.07783937 -0.11623952
1.82580447 -0.22064130 1.12048566
2.53782654 3.17345166 0.17454937
2.20025730 -0.78112501 1.04732823
-3.55249619 2.50361180 -0.02716499
-3.04808617 1.71094871 -0.75047910
0.13255692 3.56428051 0.44017047
0.24961865 3.06141901 0.72784758
-1.56036329 -1.96816921 -0.96350443
2.23731756 0.13260902 1.07060623
-3.57089305 1.10961151 -0.70948339
0.91062337 -3.53409314 0.40254554
1.16425610 -3.06772256 -0.66204506
3.32625055 2.69961381 0.04518022
2.46576881 1.98216677 -0.82348382
1.49426043 3.52965999 0.26666999
3.06431961 -2.14576268 -0.62200737
2.37986970 1.33619809 -0.96068865
-1.07220972 -0.56345761 1.17290151
3.25355983 -2.56303668 0.32734612
-0.27776399 -1.14646053 -1.16025960
2.75173044 0.32929829 -0.98245716
1.16541493 -3.63569236 0.22770290
3.87776852 -1.00296867 -0.61045748
-1.31830060 2.80706024 -0.75388032
4.61706924 0.44514614 0.18170740
-4.19296694 1.04903328 0.43838856
-4.37769175 0.43707544 0.42267406
2.60018110 -0.20497517 -1.01320064
-2.10482645 -2.75367022 -0.64631885
-0.36528397 -2.92230821 -0.78014863
3.20523119 1.09700108 -0.82038051
3.23084760 -0.31603846 0.87958735
2.90736151 0.65069461 0.93455768
3.07909250 -0.16500200 -0.91926271
-2.69811821 3.13296008 0.00504940
-1.04727054 1.68143094 -1.06001008
4.24925900 1.45154572 0.24125502
0.88674206 -2.92205858 0.75155592
0.51427937 -0.33048320 -1.20648336
-2.39477634 -2.75373888 0.57506758
0.72801232 2.38363075 -0.93394446
-2.83366442 1.30064023 -0.87982070
1.36715698 0.82359689 1.13594198
-1.41509545 1.52615559 1.05532169
-1.95059705 -3.48042107 -0.00314517
-3.58886552 -2.45152330 -0.09782011
-0.78014719 2.06155181 1.00638890
-4.35449171 0.43291113 -0.43836325
-0.92442501 3.63998246 -0.28771591
1.89024091 -3.49605608 0.06886507
-1.64002037 -0.83868796 1.11020219
2.41884923 3.13521385 -0.30644849
-0.11569285 -0.28244591 -1.21458566
3.85843110 -0.18643442 0.69410831
3.39330459 2.57990575 -0.19046442
-2.50363517 3.19069576 0.17400427
-3.59993887 -2.42629743 0.12949559
0.15381041 -2.07996821 -1.02189922
-0.77711397 -3.33675146 0.56017435
-0.88211912 0.94778675 -1.15782237
-2.18385029 1.40214670 -0.98199075
-2.17427158 -1.49764025 0.96934706
2.71819520 2.35571337 -0.65204543
1.83050299 2.78425980 0.68755579
-1.02526939 -3.06204414 0.68026102
-2.30664754 -0.02324427 1.06162179
4.08208084 1.56966281 -0.33992994
-3.58581233 -2.01814079 0.45575374
3.27487826 -2.65729666 -0.21885325
1.63315594 1.28944671 -1.06642175
4.55968618 -0.40976256 -0.26727331
4.66841745 -0.38480264 -0.08113368
1.47115672 -3.36640453 0.43444943
-1.67393613 3.49949121 -0.23267229
-0.25613022 3.66533899 -0.34200090
-3.61337519 2.10626793 0.39686090
-3.41815233 0.74368566 0.80248636
-3.39209628 2.51220846 0.26737919
-0.09849650 1.23297715 1.15330172
-2.45620251 -2.92506361 -0.45957127
-4.52183962 -0.92894614 -0.15555121
-0.68326938 -2.28590894 -0.96041679
2.60771465 -3.06826282 -0.26875478
-1.42661989 0.01639043 -1.16105533
-3.79774523 -0.04056284 0.71879566
-4.01552868 1.98931038 0.01538229
3.71238947 0.55315465 0.72665244
-2.84101057 -1.87392998 0.76606244
0.23263738 -3.59196401 0.41414911
2.23537350 -2.02510142 0.85585666
-3.00053692 2.28672481 -0.59092486
-3.13149333 -2.03230500 -0.63792956
0.64785653 -2.54775834 -0.89306575
-1.71872652 3.52301288 0.16255483
-2.35414696 2.48840904 0.69566888
-3.81368446 1.59941947 -0.49806565
1.40199935 3.49511623 -0.33673197
3.18102121 2.58913660 -0.35364309
1.64385211 3.21203518 -0.50675458
0.07317860 3.76387548 0.21556225
-4.37435389 1.21553814 -0.22252759
-0.67927885 -3.66363263 -0.30186662
-3.72607350 0.17539965 -0.74117970
-4.65037155 0.13927439 0.17545129
-3.06484890 -2.85076761 -0.17033088
3.97250986 1.61353850 0.40089384
-0.24305560 -3.24287558 -0.64294392
-0.58594346 -3.76867032 -0.14483909
-4.30727911 0.94313651 -0.38478759
-4.20033169 -1.66081369 -0.14196986
2.46281886 -2.43461847 -0.69004804
1.81281412 -3.40184903 0.29909572
-3.23933625 -1.27358854 0.78465021
3.45455599 1.37521720 -0.70114255
-3.91993308 -2.11100054 0.02345641
-3.78629065 -0.71522373 0.68568993
0.30458573 0.70629561 1.19493139
-3.02121496 -2.54150701 -0.46476582
2.95789385 -2.95847535 -0.09516203
4.68265581 -0.11076260 0.10298776
0.75953543 -3.35541010 0.55082715
-4.49177361 -0.34572673 0.34281716
2.46722937 2.98197174 0.41740856
-2.21499515 -2.26997375 0.79524094
3.56444883 0.35200170 -0.78658831
3.73521638 -2.26669478 -0.16298012
0.56991726 3.20655394 -0.64829248
-2.53865981 2.89862180 -0.44638702
3.90641189 -0.96100622 0.60481137
-1.50336218 -1.57703006 1.03935790
0.05141292 2.22802424 0.99032962
-2.31022215 -3.17326593 -0.32378304
-1.71372890 1.02342713 1.08700466
2.42009306 2.93134999 -0.46831730
1.00616038 2.27026749 0.94553894
-4.31786919 1.30462623 0.24528252
-3.30531859 0.19960584 -0.86411619
-4.50780582 -0.57791960 -0.29350859
4.34304857 0.96602607 -0.35103858
1.59041250 -1.32066381 -1.06680691
-0.96625775 3.28802490 0.56995767
-0.43169287 -1.18849170 1.15287077
-3.18813229 2.60070348 -0.34014389
2.99545527 -1.81730151 0.73915190
3.01922083 2.38307786 0.54382640
0.20122661 2.20611930 -0.99380952
-3.19526720 1.76709759 0.69425756
4.08804560 -1.84341264 -0.13211912
-0.01215027 3.12606812 -0.70230949
3.03305650 -1.56680655 -0.78599745
-1.09029281 -1.69085026 -1.05557942
0.73577988 -3.45700049 -0.48495576
-0.15563004 2.62583423 -0.88510174
2.77802515 -2.98631811 0.24834423
-3.84316540 -1.91918623 -0.34611082
0.32495579 -1.80491412 1.07094669
-3.39854193 -2.49296308 0.27943432
-2.40014315 0.20497498 -1.04551685
-3.05343413 -0.03949627 0.92650783
-1.39704907 -2.20637059 0.92713165
-0.01390875 -3.63391352 -0.38045853
-4.63510799 0.25945243 -0.18858434
-1.29227865 -3.65115762 0.13895026
1.43729329 -2.70417738 0.77718168
4.36902666 -1.40012205 -0.06543872
4.50564432 1.00329220 0.14057167
0.59397781 0.48595589 -1.19892406
-4.28627825 -0.84017718 0.42335874
3.35950899 -1.01245451 0.78902811
2.14609027 2.08943677 0.85601723
-1.26852441 0.53750527 -1.16054285
3.77241802 1.49023688 -0.55166870
1.07760763 -0.71287984 -1.16387641
1.10302258 -1.83507872 1.03047240
-1.11231196 -2.96308041 -0.71433806
1.34441495 -0.85974914 1.13471806
-2.11141872 2.88845205 -0.58193588
-0.01468048 -2.47254491 0.92959607
4.10656261 1.83569229 0.10066647
-1.29021096 -0.96506470 -1.13048494
-1.55612421 3.43523979 0.35368383
-0.81490546 3.76565194 0.03224291
1.01023674 3.72960901 -0.06680532
2.26859546 -2.63494420 0.65869933
2.63580585 -0.41914919 0.99981159
-2.26956320 2.44744277 -0.72839290
-3.78095484 -0.71961069 -0.68716151
-2.18280816 3.35647082 -0.14714253
2.61641240 3.16813874 -0.08251857
0.23517232 1.66509283 1.09516358
1.96319532 -1.48433506 1.00091028
4.31612539 -0.80650586 -0.41004845
3.04249573 -2.66756535 -0.37554774
-0.37726778 2.75293183 0.84039885
2.08248472 -3.17489266 -0.41366875
-1.54583681 2.39379096 0.86162341
2.42189336 2.45743322 0.69123822
4.60074949 0.64209038 -0.14787093
4.22157145 -1.24459696 0.36171320
0.42377380 2.87741661 -0.79518104
-2.19645190 -3.28005242 0.26292855
0.18717101 -2.95837975 0.77065182
4.24084902 1.59252739 -0.13993955
0.92565703 3.59539533 0.34011209
-2.67082405 2.89804506 0.39134127
-1.15405619 2.37451720 -0.90732729
3.83640242 -1.88461876 -0.36882529
4.03887939 0.56371433 -0.59753114
-0.03617245 3.80930328 -0.10829746
-0.83771735 -3.61748290 0.33029079
3 135 229 189
3 110 247 223
3 223 247 83
3 30 31 99
3 209 229 135
3 209 223 83
3 38 189 229
3 64 43 38
3 38 43 189
3 94 194 69
3 149 181 146
3 80 233 188
3 146 181 131
3 146 131 141
3 141 131 188
3 110 223 205
3 237 68 22
3 172 144 29
3 198 86 191
3 191 251 198
3 69 194 198
3 198 251 69
3 51 226 186
3 23 78 132
3 99 31 132
3 19 78 23
3 165 30 11
3 23 190 242
3 159 76 59
3 59 108 159
3 248 184 112
3 243 184 248
3 211 243 248
3 248 224 211
3 211 224 82
3 82 30 211
3 34 224 58
3 234 47 58
3 58 47 34
3 21 43 64
3 174 30 99
3 135 189 236
3 46 48 230
3 227 94 119
3 167 149 44
3 44 213 167
3 49 80 188
3 188 131 49
3 136 141 188
3 182 55 28
3 148 55 182
3 250 226 101
3 180 109 52
3 186 239 52
3 52 51 186
3 72 149 167
3 181 149 72
3 72 71 181
3 121 140 250
3 107 158 133
3 96 107 175
3 175 107 205
3 68 237 252
3 252 61 68
3 68 61 195
3 61 156 195
3 245 198 194
3 86 198 245
3 245 194 172
3 172 29 245
3 245 29 86
3 59 76 62
3 191 86 12
3 86 29 12
3 81 251 191
3 191 105 81
3 212 105 191
3 191 12 212
3 203 182 28
3 17 144 172
3 60 47 1
3 1 47 234
3 168 190 34
3 34 47 168
3 109 242 168
3 168 242 190
3 168 47 60
3 227 226 145
3 226 51 145
3 145 1 228
3 109 168 18
3 18 168 60
3 18 52 109
3 51 52 18
3 180 19 215
3 215 19 23
3 23 242 215
3 215 109 180
3 215 242 109
3 78 19 4
3 4 41 46
3 70 243 211
3 70 165 243
3 211 30 70
3 30 165 70
3 116 237 22
3 22 184 116
3 116 184 243
3 25 29 144
3 25 108 59
3 25 12 29
3 217 108 14
3 217 159 108
3 217 14 112
3 112 184 217
3 253 184 22
3 253 217 184
3 159 217 253
3 112 14 45
3 45 248 112
3 224 248 45
3 45 58 224
3 151 224 34
3 151 82 224
3 34 190 151
3 151 190 23
3 31 30 151
3 30 82 151
3 23 132 151
3 151 132 31
3 210 252 237
3 237 116 210
3 43 21 244
3 244 174 43
3 244 210 11
3 21 210 244
3 11 30 244
3 30 174 244
3 214 236 189
3 48 236 214
3 214 230 48
3 189 43 214
3 43 174 214
3 214 174 99
3 201 205 223
3 201 175 205
3 221 236 48
3 46 41 221
3 221 48 46
3 78 230 77
3 99 132 77
3 77 132 78
3 77 214 99
3 230 214 77
3 222 94 69
3 222 119 94
3 69 251 231
3 231 222 69
3 136 222 231
3 141 136 50
3 50 55 141
3 136 231 50
3 93 55 148
3 148 2 93
3 93 2 183
3 16 85 246
3 110 205 16
3 220 75 152
3 233 80 139
3 80 101 139
3 227 119 139
3 139 119 233
3 139 226 227
3 139 101 226
3 180 52 176
3 176 52 239
3 63 41 3
3 3 26 63
3 89 13 92
3 92 241 89
3 13 176 92
3 239 241 92
3 92 176 239
3 5 239 186
3 5 241 239
3 140 241 5
3 186 226 5
3 5 226 250
3 250 140 5
3 40 178 89
3 40 15 178
3 89 241 40
3 40 241 140
3 181 71 27
3 71 121 27
3 27 131 181
3 140 121 192
3 192 40 140
3 15 40 192
3 71 15 192
3 192 121 71
3 33 21 64
3 37 156 240
3 61 252 238
3 128 240 238
3 238 156 61
3 238 240 156
3 127 220 53
3 75 220 127
3 53 196 127
3 196 103 127
3 127 138 75
3 103 138 127
3 106 81 105
3 106 203 28
3 106 50 231
3 251 81 106
3 106 231 251
3 84 7 218
3 84 212 7
3 7 212 115
3 115 212 12
3 115 62 7
3 228 17 254
3 254 94 227
3 227 145 254
3 254 145 228
3 249 18 60
3 51 18 249
3 249 145 51
3 60 1 249
3 1 145 249
3 54 230 78
3 78 4 54
3 46 230 54
3 54 4 46
3 243 165 117
3 117 116 243
3 117 165 11
3 11 210 117
3 117 210 116
3 179 25 144
3 108 25 179
3 144 97 179
3 35 25 59
3 12 25 35
3 35 115 12
3 59 62 35
3 62 115 35
3 142 17 228
3 234 97 142
3 144 17 142
3 142 97 144
3 142 1 234
3 228 1 142
3 234 58 100
3 58 45 100
3 100 97 234
3 100 45 14
3 193 210 21
3 193 33 171
3 21 33 193
3 171 252 193
3 252 210 193
3 187 41 63
3 175 201 187
3 187 221 41
3 201 221 187
3 63 96 187
3 96 175 187
3 236 221 219
3 219 221 201
3 219 209 135
3 135 236 219
3 223 209 219
3 219 201 223
3 173 136 188
3 173 222 136
3 188 233 173
3 233 119 173
3 119 222 173
3 148 182 232
3 232 2 148
3 6 2 232
3 182 203 232
3 126 155 44
3 126 44 149
3 183 2 126
3 207 93 183
3 207 126 149
3 183 126 207
3 207 149 146
3 141 55 154
3 55 93 154
3 146 141 154
3 154 207 146
3 93 207 154
3 246 255 104
3 104 16 246
3 110 16 104
3 104 247 110
3 133 85 169
3 85 16 169
3 169 16 205
3 169 107 133
3 205 107 169
3 208 255 246
3 246 90 208
3 235 176 13
3 235 19 180
3 180 176 235
3 124 235 13
3 178 26 24
3 26 3 24
3 89 178 24
3 3 124 24
3 24 13 89
3 24 124 13
3 111 107 96
3 111 96 63
3 63 26 111
3 111 26 178
3 123 27 121
3 123 121 250
3 123 49 131
3 131 27 123
3 250 101 123
3 80 49 123
3 123 101 80
3 255 208 20
3 199 33 64
3 164 33 199
3 37 240 57
3 57 240 197
3 57 197 152
3 152 75 57
3 75 138 57
3 114 252 171
3 114 238 252
3 171 33 114
3 114 33 164
3 114 164 128
3 128 238 114
3 36 195 156
3 36 185 195
3 36 156 37
3 37 57 36
3 36 57 138
3 103 185 36
3 36 138 103
3 66 62 76
3 7 62 66
3 76 159 170
3 159 253 170
3 170 66 76
3 79 66 170
3 87 106 28
3 50 106 87
3 28 55 87
3 55 50 87
3 105 212 98
3 212 84 98
3 94 254 120
3 120 254 17
3 194 94 120
3 172 194 120
3 120 17 172
3 143 179 97
3 97 100 143
3 143 100 14
3 14 108 143
3 108 179 143
3 200 126 2
3 155 126 200
3 200 2 6
3 6 163 200
3 53 220 74
3 246 85 9
3 9 202 246
3 177 90 150
3 150 90 246
3 247 104 166
3 83 247 166
3 166 209 83
3 166 118 209
3 88 4 19
3 19 235 88
3 41 4 88
3 204 161 158
3 158 107 204
3 107 111 204
3 128 164 95
3 164 199 95
3 153 208 90
3 153 20 208
3 229 209 32
3 209 118 32
3 32 38 229
3 64 38 32
3 32 199 64
3 73 66 79
3 73 185 218
3 218 7 73
3 7 66 73
3 195 185 73
3 73 79 195
3 79 170 39
3 68 195 39
3 195 79 39
3 22 68 39
3 39 253 22
3 39 170 253
3 65 103 196
3 218 185 65
3 65 185 103
3 65 84 218
3 65 98 84
3 163 74 125
3 177 150 125
3 125 150 163
3 125 220 177
3 125 74 220
3 53 74 137
3 137 232 53
3 6 232 137
3 137 163 6
3 137 74 163
3 213 44 42
3 44 0 42
3 42 161 213
3 158 161 42
3 155 200 91
3 91 200 163
3 163 150 91
3 118 166 56
3 162 124 3
3 162 3 41
3 41 88 162
3 235 124 162
3 162 88 235
3 161 204 130
3 130 72 167
3 167 213 130
3 213 161 130
3 197 240 10
3 10 240 128
3 128 95 10
3 147 90 177
3 147 153 90
3 147 220 152
3 177 220 147
3 105 98 216
3 98 129 216
3 216 129 203
3 216 106 105
3 203 106 216
3 98 65 225
3 225 129 98
3 225 65 196
3 203 129 225
3 225 196 53
3 53 232 225
3 225 232 203
3 133 158 113
3 158 42 113
3 113 0 202
3 113 42 0
3 155 91 160
3 44 155 160
3 160 0 44
3 102 91 150
3 246 202 102
3 102 150 246
3 102 160 91
3 202 0 102
3 0 160 102
3 118 56 67
3 20 10 67
3 67 10 95
3 134 56 166
3 134 104 255
3 134 166 104
3 255 20 134
3 20 67 134
3 134 67 56
3 122 130 204
3 178 15 122
3 122 15 71
3 122 111 178
3 122 204 111
3 71 72 122
3 72 130 122
3 152 197 206
3 206 147 152
3 153 147 206
3 197 10 206
3 20 153 206
3 206 10 20
3 8 85 133
3 133 113 8
3 8 9 85
3 202 9 8
3 8 113 202
3 118 67 157
3 157 67 95
3 157 32 118
3 157 95 199
3 199 32 157