ply
format ascii 1.0
comment https://github.com/mikedh/trimesh
element vertex 256
property float x
property float y
property float z
element face 508
property list uchar int vertex_indices
end_header
-1.68070436 -0.52811742 0.43673944
0.64422011 0.95032144 0.13332014
-1.77999878 -0.21389167 -0.93986040
-0.13173753 0.18847683 2.11737442
0.82949716 0.15318102 1.94523656
-0.64641690 0.73323107 1.30588019
-1.58605421 -0.46266904 -0.91623944
0.73037130 0.17598635 -1.98043847
-1.35594285 -0.66316450 0.74745578
-1.16991341 -0.75596273 0.69025111
0.60530275 -0.95187759 -0.24339685
1.98850083 -0.17654558 0.25748834
0.45132557 0.51657355 -1.79004061
-0.21116084 0.43734172 1.93183970
1.61715639 0.52580863 -0.66250777
-1.38681853 0.35446176 1.38476384
-0.71847856 -0.76781994 1.16520607
0.30777022 0.94096476 -0.67861658
0.59038037 0.88424200 0.80813843
0.70198697 0.37910715 1.85619760
-0.03067770 -1.00293362 0.09595572
1.73034334 -0.48766127 0.43550473
1.82720208 -0.10022121 -0.92565966
1.16814065 0.50296623 1.39935029
-0.35500571 0.32607287 2.00913596
0.91990799 0.64652222 -1.33369756
-0.60851169 0.13734475 2.04104543
-1.71490455 0.49550325 0.46291769
-1.25039315 0.17732270 -1.66126370
0.56660289 0.72359347 -1.37187147
1.90272164 0.09840101 0.73554659
1.76626551 0.15713130 1.01738155
0.90316290 -0.82082599 0.79311824
1.52001452 -0.66713500 0.01504949
1.42281723 0.66370493 0.58600414
0.83007091 0.44240728 -1.72782791
0.61347198 -0.61143202 -1.58573973
0.81024486 -0.71704447 -1.24375653
1.25234187 -0.63293302 1.02179992
1.56989253 -0.03574137 -1.37244022
-1.03343403 0.51036638 1.50228572
0.35520267 -0.02938793 2.12607455
-1.71890199 -0.41910121 0.72391266
1.63601196 -0.43782997 0.87209660
-1.93688250 -0.25040382 0.38535070
1.69706833 0.54528874 -0.20611966
0.79010439 -0.05790304 1.98688149
1.09822702 0.83281100 0.30951658
0.95214623 -0.20499115 1.85715628
-1.53731835 0.65702450 -0.04816984
-1.31903839 0.44900537 -1.33077383
0.05736310 0.93537647 0.78052449
0.10802076 0.80341017 1.29064286
-0.67523652 -0.51650792 -1.70851719
0.96818382 0.03480067 1.89843369
-1.54527950 0.29119608 -1.25807881
0.39406604 -0.92745441 0.71380675
0.50382382 -0.80506444 -1.17395961
1.43941212 0.70846140 0.08011502
1.06704462 0.52018130 -1.46022809
0.64663094 0.92629099 0.47286788
1.32606328 -0.56311393 -1.10296357
1.02987230 0.35065934 -1.70352411
-0.46399140 -0.14786854 2.07982683
1.40795577 -0.67261940 0.58046073
-0.12020046 -0.30086640 -2.05740976
1.19079244 0.08641797 -1.74212468
0.50432533 -0.95411712 0.40377015
1.67807770 -0.26320973 -1.08248293
-0.57048559 0.73665863 -1.33680487
1.99800515 0.11682000 0.32220942
-1.81447756 0.27529848 0.77736473
-1.89441597 0.11470199 0.74949932
1.12521064 -0.05379177 -1.79664016
-0.91084927 -0.72264749 -1.14607346
-0.15807413 -0.76690328 -1.38338470
1.38704181 0.28788671 -1.45472515
1.39812708 -0.08293818 1.55971265
1.25814080 0.17076221 1.65718794
1.33245623 -0.04330159 -1.63006639
-1.16759217 0.82218474 0.00895376
-0.45319915 0.44125903 -1.87964416
1.83883774 0.38093010 0.42780119
0.38373154 -0.76683772 1.33268321
0.22255087 -0.08672892 -2.13937545
-1.03632307 -0.72266555 1.01972842
0.31504235 0.62553781 -1.65610051
-1.22624886 0.34132788 -1.56012654
0.59162778 0.21613707 2.01428890
-0.61237288 0.40050998 1.87133050
-0.84410751 -0.91336918 -0.00557711
-1.55305696 -0.64335483 -0.17345779
-0.33760336 0.54101437 1.78456128
-1.88437641 0.11360915 -0.77731991
-0.40003857 0.95524299 -0.51018715
0.81798875 -0.91747230 0.12211376
-0.70970756 -0.22009744 1.96864641
1.04674041 0.82277620 -0.54340434
-0.05006529 -0.07412247 -2.15374255
1.66970956 -0.04892611 1.23081529
1.46842933 0.67704636 -0.33773765
-1.08343089 0.83733642 0.30855000
-1.55784881 -0.63673478 0.22962578
0.06656040 -0.54584742 -1.81206465
-0.33629075 -0.87566590 0.99331927
-0.38173100 0.24872829 -2.05308795
-0.94504619 0.36796626 -1.74129772
-0.94090110 -0.39302671 1.71887755
1.17628026 0.61821139 -1.15622795
0.79213762 0.73067510 1.21919608
-0.44367832 -0.80357426 1.20626080
-0.99818587 -0.00610001 1.88250196
1.76649261 0.41192764 -0.60277474
-1.55173564 -0.52962202 0.80815727
1.41718113 -0.69735610 -0.38807768
0.70673704 0.33839035 -1.89101338
1.97317278 -0.10753425 -0.47393766
2.02022576 -0.10098401 -0.14386885
0.63663298 -0.88344777 0.77037978
-0.72438437 0.91837376 -0.41258201
-0.11083859 0.96189731 -0.60644704
-1.56366336 0.55274928 0.70372653
-1.47918200 0.19516592 1.42299473
-1.46790648 0.65928048 0.47412544
-0.04262369 0.32357100 2.04507184
-1.06290472 -0.76762635 -0.81492662
-1.95679522 -0.24378394 -0.27582842
-0.29568014 -0.59989256 -1.70304215
1.12847066 -0.80520624 -0.47656468
-0.61736000 0.00430135 -2.05882096
-1.64344823 -0.01064493 1.27459168
-1.73769259 0.52205604 0.02727638
1.60651100 0.14516473 1.28852355
-1.22942793 -0.49177667 1.35840666
0.10067223 -0.94264150 0.73438257
0.96734256 -0.53144866 1.51763272
-1.29846168 0.60010666 -1.04784703
-1.35513222 -0.53333914 -1.13119733
0.28035548 -0.66860992 -1.58361304
-0.74376708 0.92454660 0.28824747
-1.01874101 0.65303481 1.23358250
-1.65034580 0.41973668 -0.88318610
0.60670561 0.91722566 -0.59710401
1.37656510 0.67946881 -0.62709135
0.71136576 0.84293646 -0.89859360
0.03166754 0.98775631 0.38224196
-1.89297163 0.31899449 -0.39459312
-0.29395327 -0.96144950 -0.53527963
-1.61243272 0.04603025 -1.31428385
-2.01241636 0.03654987 0.31111592
-1.32629228 -0.74812877 -0.30203623
1.71907640 0.42344195 0.71087790
-0.10518064 -0.85102993 -1.14008892
-0.25356302 -0.98901457 -0.25683337
-1.86394548 0.24750794 -0.68231779
-1.81766474 -0.43584841 -0.25174555
1.06576800 -0.63891852 -1.22361541
0.78448284 -0.89274949 0.53036618
-1.40180063 -0.33422866 1.39136708
1.49493539 0.36089915 -1.24328864
-1.69632411 -0.55399126 0.04159367
-1.63849127 -0.18769664 1.21588755
0.13180739 0.18535362 2.11889100
-1.30741012 -0.66696930 -0.82413781
1.28000832 -0.77639467 -0.16874439
2.02638721 -0.02906750 0.18262123
0.32868373 -0.88056248 0.97674447
-1.94378412 -0.09072929 0.60789442
1.06767654 0.78256083 0.74016231
-0.95852393 -0.59571069 1.41014695
1.54249072 0.09237604 -1.39480376
1.61638927 -0.59485018 -0.28900164
0.24662779 0.84149808 -1.14957321
-1.09858763 0.76068717 -0.79154789
1.69047296 -0.25219750 1.07247102
-0.65056968 -0.41386104 1.84302306
0.02224859 0.58470184 1.75608456
-0.99973285 -0.83276224 -0.57414258
-0.74160445 0.26857865 1.92751181
1.04727864 0.76927614 -0.83043534
0.43540901 0.59578776 1.67666018
-1.86852825 0.34237391 0.43494287
-1.43035400 0.05238269 -1.53227878
-1.95072210 -0.15166382 -0.52045888
1.87942445 0.25351486 -0.62247294
0.68824011 -0.34658268 -1.89169645
-0.41814139 0.86287850 1.01066744
-0.18681213 -0.31189665 2.04430771
-1.37964237 0.68250436 -0.60315412
1.29626274 -0.47691563 1.31068802
1.30654705 0.62539268 0.96433061
0.08707944 0.57895333 -1.76225519
-1.38273001 0.46374056 1.23107994
1.76907372 -0.48376799 -0.23427790
-0.00525795 0.82037610 -1.24535787
1.31253445 -0.41117805 -1.39375603
-0.47181675 -0.44373095 -1.87178743
0.31840369 -0.90722287 -0.85993922
-0.06734783 0.68909937 -1.56949103
1.20217133 -0.78370142 0.44037199
-1.66310346 -0.50365329 -0.61373490
0.14062239 -0.47366479 1.89903724
-1.47069573 -0.65422994 0.49550197
-1.03864551 0.05379172 -1.85394430
-1.32135272 -0.01036503 1.64291358
-0.60456336 -0.57901925 1.64401972
-0.00601892 -0.95365030 -0.67464137
-2.00581121 0.06808827 -0.33440384
-0.55922472 -0.95817572 0.24639109
0.62197882 -0.70965904 1.37812364
1.89066637 -0.36743495 -0.11603804
1.94978678 0.26329461 0.24926622
0.25703984 0.12752973 -2.12597084
-1.85485744 -0.22048825 0.75071335
1.45380449 -0.26569909 1.39913011
0.92870581 0.54833227 1.51791739
-0.54894525 0.14105785 -2.05791211
1.63248801 0.39108384 -0.97823679
0.46632734 -0.18708153 -2.06382322
0.47732547 -0.48158091 1.82726693
-0.48134536 -0.77760309 -1.26668739
0.58178639 -0.22562453 2.01211882
-0.91370195 0.75801837 -1.03190756
-0.00635288 -0.64887160 1.64838982
1.77708673 0.48174194 0.17850505
-0.55832994 -0.25326255 -2.00461221
-0.67340213 0.90151227 0.62716359
-0.35264477 0.98822248 0.05717416
0.43717304 0.97876376 -0.11846135
0.98171914 -0.69149017 1.16802692
1.14062691 -0.10999760 1.77289820
-0.98213792 0.64228404 -1.29160988
-1.63618231 -0.18884790 -1.21849704
-0.94459522 0.88084084 -0.26091787
1.13223445 0.83141673 -0.14632459
0.10176921 0.43697140 1.94197941
0.84955931 -0.38953501 1.77484655
1.86777365 -0.21165186 -0.72711116
1.31661916 -0.70005089 -0.66593337
-0.16326004 0.72245371 1.49022233
0.90118098 -0.83318913 -0.73353076
-0.66895026 0.62820417 1.52785850
1.04805768 0.64490581 1.22572589
1.99094284 0.16850421 -0.26220950
1.82685602 -0.32662037 0.64140153
0.18338519 0.75512236 -1.41004074
-0.95049953 -0.86078626 0.46623337
0.08099698 -0.77636951 1.36654472
1.83519828 0.41792801 -0.24814533
0.40057173 0.94354194 0.60309774
-1.15578079 0.76053584 0.69393897
-0.49940991 0.62314612 -1.60890210
1.66017687 -0.49458173 -0.65401292
1.74779737 0.14793593 -1.05956149
-0.01565338 0.99967796 -0.19203655
-0.36251643 -0.94933844 0.58568233
3 135 229 189
3 110 247 223
3 223 247 83
3 30 31 99
3 209 229 135
3 209 223 83
3 38 189 229
3 64 43 38
3 38 43 189
3 94 194 69
3 149 181 146
3 80 233 188
3 146 181 131
3 146 131 141
3 141 131 188
3 110 223 205
3 237 68 22
3 172 144 29
3 198 86 191
3 191 251 198
3 69 194 198
3 198 251 69
3 51 226 186
3 23 78 132
3 99 31 132
3 19 78 23
3 165 30 11
3 23 190 242
3 159 76 59
3 59 108 159
3 248 184 112
3 243 184 248
3 211 243 248
3 248 224 211
3 211 224 82
3 82 30 211
3 34 224 58
3 234 47 58
3 58 47 34
3 21 43 64
3 174 30 99
3 135 189 236
3 46 48 230
3 227 94 119
3 167 149 44
3 44 213 167
3 49 80 188
3 188 131 49
3 136 141 188
3 182 55 28
3 148 55 182
3 250 226 101
3 180 109 52
3 186 239 52
3 52 51 186
3 72 149 167
3 181 149 72
3 72 71 181
3 121 140 250
3 107 158 133
3 96 107 175
3 175 107 205
3 68 237 252
3 252 61 68
3 68 61 195
3 61 156 195
3 245 198 194
3 86 198 245
3 245 194 172
3 172 29 245
3 245 29 86
3 59 76 62
3 191 86 12
3 86 29 12
3 81 251 191
3 191 105 81
3 212 105 191
3 191 12 212
3 203 182 28
3 17 144 172
3 60 47 1
3 1 47 234
3 168 190 34
3 34 47 168
3 109 242 168
3 168 242 190
3 168 47 60
3 227 226 145
3 226 51 145
3 145 1 228
3 109 168 18
3 18 168 60
3 18 52 109
3 51 52 18
3 180 19 215
3 215 19 23
3 23 242 215
3 215 109 180
3 215 242 109
3 78 19 4
3 4 41 46
3 70 243 211
3 70 165 243
3 211 30 70
3 30 165 70
3 116 237 22
3 22 184 116
3 116 184 243
3 25 29 144
3 25 108 59
3 25 12 29
3 217 108 14
3 217 159 108
3 217 14 112
3 112 184 217
3 253 184 22
3 253 217 184
3 159 217 253
3 112 14 45
3 45 248 112
3 224 248 45
3 45 58 224
3 151 224 34
3 151 82 224
3 34 190 151
3 151 190 23
3 31 30 151
3 30 82 151
3 23 132 151
3 151 132 31
3 210 252 237
3 237 116 210
3 43 21 244
3 244 174 43
3 244 210 11
3 21 210 244
3 11 30 244
3 30 174 244
3 214 236 189
3 48 236 214
3 214 230 48
3 189 43 214
3 43 174 214
3 214 174 99
3 201 205 223
3 201 175 205
3 221 236 48
3 46 41 221
3 221 48 46
3 78 230 77
3 99 132 77
3 77 132 78
3 77 214 99
3 230 214 77
3 222 94 69
3 222 119 94
3 69 251 231
3 231 222 69
3 136 222 231
3 141 136 50
3 50 55 141
3 136 231 50
3 93 55 148
3 148 2 93
3 93 2 183
3 16 85 246
3 110 205 16
3 220 75 152
3 233 80 139
3 80 101 139
3 227 119 139
3 139 119 233
3 139 226 227
3 139 101 226
3 180 52 176
3 176 52 239
3 63 41 3
3 3 26 63
3 89 13 92
3 92 241 89
3 13 176 92
3 239 241 92
3 92 176 239
3 5 239 186
3 5 241 239
3 140 241 5
3 186 226 5
3 5 226 250
3 250 140 5
3 40 178 89
3 40 15 178
3 89 241 40
3 40 241 140
3 181 71 27
3 71 121 27
3 27 131 181
3 140 121 192
3 192 40 140
3 15 40 192
3 71 15 192
3 192 121 71
3 33 21 64
3 37 156 240
3 61 252 238
3 128 240 238
3 238 156 61
3 238 240 156
3 127 220 53
3 75 220 127
3 53 196 127
3 196 103 127
3 127 138 75
3 103 138 127
3 106 81 105
3 106 203 28
3 106 50 231
3 251 81 106
3 106 231 251
3 84 7 218
3 84 212 7
3 7 212 115
3 115 212 12
3 115 62 7
3 228 17 254
3 254 94 227
3 227 145 254
3 254 145 228
3 249 18 60
3 51 18 249
3 249 145 51
3 60 1 249
3 1 145 249
3 54 230 78
3 78 4 54
3 46 230 54
3 54 4 46
3 243 165 117
3 117 116 243
3 117 165 11
3 11 210 117
3 117 210 116
3 179 25 144
3 108 25 179
3 144 97 179
3 35 25 59
3 12 25 35
3 35 115 12
3 59 62 35
3 62 115 35
3 142 17 228
3 234 97 142
3 144 17 142
3 142 97 144
3 142 1 234
3 228 1 142
3 234 58 100
3 58 45 100
3 100 97 234
3 100 45 14
3 193 210 21
3 193 33 171
3 21 33 193
3 171 252 193
3 252 210 193
3 187 41 63
3 175 201 187
3 187 221 41
3 201 221 187
3 63 96 187
3 96 175 187
3 236 221 219
3 219 221 201
3 219 209 135
3 135 236 219
3 223 209 219
3 219 201 223
3 173 136 188
3 173 222 136
3 188 233 173
3 233 119 173
3 119 222 173
3 148 182 232
3 232 2 148
3 6 2 232
3 182 203 232
3 126 155 44
3 126 44 149
3 183 2 126
3 207 93 183
3 207 126 149
3 183 126 207
3 207 149 146
3 141 55 154
3 55 93 154
3 146 141 154
3 154 207 146
3 93 207 154
3 246 255 104
3 104 16 246
3 110 16 104
3 104 247 110
3 133 85 169
3 85 16 169
3 169 16 205
3 169 107 133
3 205 107 169
3 208 255 246
3 246 90 208
3 235 176 13
3 235 19 180
3 180 176 235
3 124 235 13
3 178 26 24
3 26 3 24
3 89 178 24
3 3 124 24
3 24 13 89
3 24 124 13
3 111 107 96
3 111 96 63
3 63 26 111
3 111 26 178
3 123 27 121
3 123 121 250
3 123 49 131
3 131 27 123
3 250 101 123
3 80 49 123
3 123 101 80
3 255 208 20
3 199 33 64
3 164 33 199
3 37 240 57
3 57 240 197
3 57 197 152
3 152 75 57
3 75 138 57
3 114 252 171
3 114 238 252
3 171 33 114
3 114 33 164
3 114 164 128
3 128 238 114
3 36 195 156
3 36 185 195
3 36 156 37
3 37 57 36
3 36 57 138
3 103 185 36
3 36 138 103
3 66 62 76
3 7 62 66
3 76 159 170
3 159 253 170
3 170 66 76
3 79 66 170
3 87 106 28
3 50 106 87
3 28 55 87
3 55 50 87
3 105 212 98
3 212 84 98
3 94 254 120
3 120 254 17
3 194 94 120
3 172 194 120
3 120 17 172
3 143 179 97
3 97 100 143
3 143 100 14
3 14 108 143
3 108 179 143
3 200 126 2
3 155 126 200
3 200 2 6
3 6 163 200
3 53 220 74
3 246 85 9
3 9 202 246
3 177 90 150
3 150 90 246
3 247 104 166
3 83 247 166
3 166 209 83
3 166 118 209
3 88 4 19
3 19 235 88
3 41 4 88
3 204 161 158
3 158 107 204
3 107 111 204
3 128 164 95
3 164 199 95
3 153 208 90
3 153 20 208
3 229 209 32
3 209 118 32
3 32 38 229
3 64 38 32
3 32 199 64
3 73 66 79
3 73 185 218
3 218 7 73
3 7 66 73
3 195 185 73
3 73 79 195
3 79 170 39
3 68 195 39
3 195 79 39
3 22 68 39
3 39 253 22
3 39 170 253
3 65 103 196
3 218 185 65
3 65 185 103
3 65 84 218
3 65 98 84
3 163 74 125
3 177 150 125
3 125 150 163
3 125 220 177
3 125 74 220
3 53 74 137
3 137 232 53
3 6 232 137
3 137 163 6
3 137 74 163
3 213 44 42
3 44 0 42
3 42 161 213
3 158 161 42
3 155 200 91
3 91 200 163
3 163 150 91
3 118 166 56
3 162 124 3
3 162 3 41
3 41 88 162
3 235 124 162
3 162 88 235
3 161 204 130
3 130 72 167
3 167 213 130
3 213 161 130
3 197 240 10
3 10 240 128
3 128 95 10
3 147 90 177
3 147 153 90
3 147 220 152
3 177 220 147
3 105 98 216
3 98 129 216
3 216 129 203
3 216 106 105
3 203 106 216
3 98 65 225
3 225 129 98
3 225 65 196
3 203 129 225
3 225 196 53
3 53 232 225
3 225 232 203
3 133 158 113
3 158 42 113
3 113 0 202
3 113 42 0
3 155 91 160
3 44 155 160
3 160 0 44
3 102 91 150
3 246 202 102
3 102 150 246
3 102 160 91
3 202 0 102
3 0 160 102
3 118 56 67
3 20 10 67
3 67 10 95
3 134 56 166
3 134 104 255
3 134 166 104
3 255 20 134
3 20 67 134
3 134 67 56
3 122 130 204
3 178 15 122
3 122 15 71
3 122 111 178
3 122 204 111
3 71 72 122
3 72 130 122
3 152 197 206
3 206 147 152
3 153 147 206
3 197 10 206
3 20 153 206
3 206 10 20
3 8 85 133
3 133 113 8
3 8 9 85
3 202 9 8
3 8 113 202
3 118 67 157
3 157 67 95
3 157 32 118
3 157 95 199
3 199 32 157