ply
format ascii 1.0
comment https://github.com/mikedh/trimesh
element vertex 256
property float x
property float y
property float z
element face 508
property list uchar int vertex_indices
end_header
-1.19992352 -1.59515989 0.46927580
0.45993510 2.87041187 0.14325227
-1.27081394 -0.64605212 -1.00987840
-0.09405281 0.56928754 2.27511549
0.59221196 0.46267778 2.09015346
-0.46150348 2.21469831 1.40316617
-1.13234901 -1.39747536 -0.98449779
0.52144200 0.53156048 -2.12797785
-0.96806312 -2.00306487 0.80313998
-0.83524907 -2.28335857 0.74167365
0.43215039 -2.87511230 -0.26152951
1.41967213 -0.53324962 0.27667078
0.32221979 1.56029201 -1.92339563
-0.15075637 1.32097507 2.07575846
1.15455413 1.58818626 -0.71186352
-0.99010652 1.07063913 1.48792636
-0.51295125 -2.31917262 1.25201190
0.21972977 2.84215045 -0.72917235
0.42149672 2.67082143 0.86834341
0.50117719 1.14507961 1.99448121
-0.02190206 -3.02932501 0.10310426
1.23536289 -1.47296345 0.46794909
1.30451441 -0.30271459 -0.99461979
0.83398342 1.51919162 1.50359952
-0.25345311 0.98489147 2.15881324
0.65675998 1.95279741 -1.43305576
-0.43444139 0.41484490 2.19309998
-1.22434056 1.49664986 0.49740428
-0.89270681 0.53559691 -1.78502500
0.40452096 2.18558812 -1.47407365
1.35843086 0.29721674 0.79034358
1.26100922 0.47460946 1.09317482
0.64480495 -2.47927547 0.85220426
1.08520055 -2.01505733 0.01617065
1.01580739 2.00469708 0.62966049
0.59262156 1.33627546 -1.85654819
0.43798277 -1.84680855 -1.70387471
0.57846695 -2.16580725 -1.33641434
0.89409804 -1.91175163 1.09792233
1.12081051 -0.10795553 -1.47468472
-0.73781085 1.54154336 1.61420357
0.25359371 -0.08876520 2.28446364
-1.22719455 -1.26588023 0.77784300
1.16801584 -1.32244980 0.93706638
-1.38281965 -0.75633585 0.41405869
1.21160650 1.64702511 -0.22147523
0.56408787 -0.17489408 2.13490081
0.78406924 2.51547599 0.33257505
0.67977619 -0.61916846 1.99551129
-1.09755456 1.98451900 -0.05175842
-0.94171542 1.35620475 -1.42991424
0.04095386 2.82527113 0.83867228
0.07712044 2.42667174 1.38679361
-0.48207900 -1.56009376 -1.83579898
0.69122601 0.10511419 2.03986382
-1.10323822 0.87954742 -1.35180366
0.28133985 -2.80134296 0.76698416
0.35970044 -2.43166828 -1.26141775
1.02765524 2.13988256 0.08608346
0.76180679 1.57118917 -1.56901264
0.46165630 2.79782891 0.50809574
0.94673085 -1.70086551 -1.18513250
0.73526800 1.05915403 -1.83043385
-0.33126247 -0.44663167 2.23477054
1.00519717 -2.03162289 0.62370408
-0.08581603 -0.90875620 -2.21068335
0.85015547 0.26102239 -1.87191010
0.36005849 -2.88187671 0.43385035
1.19804835 -0.79501557 -1.16312611
-0.40729299 2.22505116 -1.43639469
1.42645764 0.35285062 0.34621349
-1.29542983 0.83152926 0.83527714
-1.35250103 0.34645328 0.80533576
0.80333388 -0.16247612 -1.93048692
-0.65029258 -2.18273091 -1.23145401
-0.11285559 -2.31640387 -1.48644459
0.99026591 0.86955154 -1.56309986
0.99818015 -0.25051183 1.67590868
0.89823818 0.51578116 1.78064561
0.95129502 -0.13079089 -1.75150359
-0.83359182 2.48337984 0.00962080
-0.32355744 1.33280718 -2.01967454
1.31282151 1.15058577 0.45967168
0.27396166 -2.31620598 1.43196595
0.15888818 -0.26196161 -2.29875541
-0.73987341 -2.18278551 1.09569645
0.22492163 1.88941467 -1.77947724
-0.87546921 1.03096867 -1.67635334
0.42238730 0.65283430 2.16435003
-0.43719804 1.20972610 2.01074147
-0.60264289 -2.75879908 -0.00599260
-1.10879087 -1.94323039 -0.18638010
-0.24102885 1.63411462 1.91750813
-1.34533346 0.34315237 -0.83522892
-0.28560391 2.88527727 -0.54819524
0.58399564 -2.77119231 0.13121104
-0.50668931 -0.66479641 2.11530733
0.74731082 2.48516607 -0.58388704
-0.03574366 -0.22388427 -2.31419277
1.19207394 -0.14777957 1.32250893
1.04837179 2.04499435 -0.36289856
-0.77350569 2.52914476 0.33153644
-1.11221206 -1.92323470 0.24673252
0.04752019 -1.64871264 -1.94706047
-0.24009171 -2.64491749 1.06731987
-0.27253339 0.75127494 -2.20603967
-0.67470711 1.11142898 -1.87102151
-0.67174780 -1.18712318 1.84693110
0.83979464 1.86728537 -1.24236500
0.56553948 2.20697808 1.31002414
-0.31676009 -2.42716742 1.29612517
-0.71264577 -0.01842486 2.02274513
1.26117134 1.24421275 -0.64768046
-1.10784757 -1.59970438 0.86836368
1.01178360 -2.10633922 -0.41698879
0.50456852 1.02209604 -2.03189087
1.40872884 -0.32480338 -0.50924522
1.44232178 -0.30501860 -0.15458685
0.45451832 -2.66842246 0.82777178
-0.51716763 2.77391529 -0.44331869
-0.07913221 2.90537643 -0.65162635
-1.11636329 1.66955948 0.75615299
-1.05604851 0.58949172 1.52900553
-1.04799843 1.99133325 0.50944698
-0.03043080 0.97733462 2.19742632
-0.75885117 -2.31858802 -0.87563729
-1.39703619 -0.73634070 -0.29637718
-0.21109815 -1.81195414 -1.82991588
0.80566138 -2.43209672 -0.51206791
-0.44075856 0.01299208 -2.21219969
-1.17332494 -0.03215264 1.36954665
-1.24060988 1.57685161 0.02930843
1.14695394 0.43846491 1.38451648
-0.87773889 -1.48539388 1.45960569
0.07187402 -2.84721494 0.78909284
0.69062543 -1.60522175 1.63069379
-0.92702496 1.81260073 -1.12590992
-0.96748435 -1.61093187 -1.21546960
0.20015725 -2.01951241 -1.70158958
-0.53100574 2.79255986 0.30972144
-0.72732085 1.97246826 1.32548237
-1.17824936 1.26779974 -0.94898200
0.43315196 2.77044725 -0.64158726
0.98278618 2.05231118 -0.67380863
0.50787312 2.54605961 -0.96553737
0.02260875 2.98348284 0.41071835
-1.35146987 0.96351147 -0.42398965
-0.20986526 -2.90402389 -0.57515705
-1.15118170 0.13903271 -1.41219580
-1.43674648 0.11039758 0.33429354
-0.94689435 -2.25969625 -0.32453743
1.22731900 1.27899134 0.76383716
-0.07509276 -2.57050562 -1.22502375
-0.18102901 -2.98728323 -0.27596703
-1.33074701 0.74758887 -0.73314929
-1.29770517 -1.31646454 -0.27050018
0.76089537 -1.92983067 -1.31477273
0.56007439 -2.69651794 0.56987762
-1.00080276 -1.00952578 1.49502170
1.06729555 1.09008300 -1.33591163
-1.21107519 -1.67331088 0.04469233
-1.16978598 -0.56693101 1.30646908
0.09410268 0.55985397 2.27674484
-0.93341357 -2.01455712 -0.88553470
0.91385031 -2.34507227 -0.18131556
1.44672072 -0.08779736 0.19622619
0.23466077 -2.65970755 1.04951036
-1.38774705 -0.27404457 0.65318155
0.76225799 2.36369705 0.79530323
-0.68432945 -1.79932296 1.51520050
1.10124731 0.27901852 -1.49871433
1.15400648 -1.79672372 -0.31053177
0.17607766 2.54171491 -1.23521447
-0.78432667 2.29762864 -0.85051686
1.20689785 -0.76175350 1.15236831
-0.46446833 -1.25005245 1.98032522
0.01588418 1.76607108 1.88690984
-0.71375018 -2.51532865 -0.61691523
-0.52946174 0.81123221 2.07110834
0.74769509 2.32357097 -0.89230138
0.31085631 1.79955578 1.80156863
-1.33401883 1.03412819 0.46734539
-1.02118826 0.15822005 -1.64643097
-1.39270031 -0.45809516 -0.55923223
1.34179795 0.76573259 -0.66884613
0.49136278 -1.04684055 -2.03262472
-0.29852825 2.60629368 1.08596039
-0.13337283 -0.94207269 2.19660521
-0.98498315 2.06148005 -0.64808810
0.92545497 -1.44050658 1.40833211
0.93279743 1.88897634 1.03617156
0.06216957 1.74870789 -1.89354026
-0.98718750 1.40071177 1.32279336
1.26301420 -1.46120393 -0.25173122
-0.00375386 2.47791672 -1.33813500
0.93707204 -1.24194860 -1.49758852
-0.33684927 -1.34027350 -2.01123261
0.22732143 -2.74023438 -0.92400324
-0.04808237 2.08140016 -1.68641543
0.85827935 -2.36714220 0.47317898
-1.18735754 -1.52126682 -0.65945715
0.10039608 -1.43068755 2.04051232
-1.04998982 -1.97607815 0.53241605
-0.74153155 0.16247596 -1.99206007
-0.94336778 -0.03130721 1.76530790
-0.43162253 -1.74890709 1.76649654
-0.00429715 -2.88046670 -0.72490102
-1.43203068 0.20565818 -0.35931638
-0.39925343 -2.89413548 0.26474681
0.44405612 -2.14349985 1.48079157
1.34982407 -1.10982418 -0.12468268
1.39203250 0.79527199 0.26783612
0.18351126 0.38519898 -2.28435206
-1.32425869 -0.66597688 0.80664027
1.03793049 -0.80253458 1.50336289
0.66304111 1.65621793 1.63099980
-0.39191446 0.42606020 -2.21122313
1.16550004 1.18125474 -1.05111384
0.33293015 -0.56507307 -2.21757460
0.34078217 -1.45459795 1.96339536
-0.34365213 -2.34872246 -1.36105347
0.41536108 -0.68149084 2.16201830
-0.65232921 2.28956747 -1.10878289
-0.00453558 -1.95989347 1.77119207
1.26873493 1.45508432 0.19180337
-0.39861459 -0.76497048 -2.15395260
-0.48076931 2.72298551 0.67388624
-0.25176752 2.98489070 0.06143355
0.31211573 2.95632100 -0.12728652
0.70088947 -2.08862138 1.25504303
0.81434023 -0.33224383 1.90497625
-0.70118845 1.93999600 -1.38783264
-1.16813743 -0.57040834 -1.30927300
-0.67438519 2.66054845 -0.28035584
0.80834854 2.51126456 -0.15722553
0.07265721 1.31985652 2.08665371
0.60653520 -1.17657661 1.90706968
1.33348000 -0.63928688 -0.78127974
0.93998832 -2.11447883 -0.71554428
-0.11655803 2.18214560 1.60124147
0.64339000 -2.51661801 -0.78817761
-0.47759098 1.89746821 1.64168131
0.74825126 1.94791508 1.31704044
1.42141557 0.50896096 -0.28174368
1.30426729 -0.98654521 0.68918484
0.13092619 2.28082013 -1.51508641
-0.67860049 -2.59997416 0.50096703
0.05782705 -2.34499645 1.46834993
1.31022310 1.26233661 -0.26663175
0.28598455 2.84993482 0.64802754
-0.82515925 2.29717135 0.74563628
-0.35654917 1.88219070 -1.72876263
1.18526816 -1.49386644 -0.70273578
1.24782407 0.44683519 -1.13849711
-0.01117559 3.01949143 -0.20634295
-0.25881532 -2.86744285 0.62931466
3 135 229 189
3 110 247 223
3 223 247 83
3 30 31 99
3 209 229 135
3 209 223 83
3 38 189 229
3 64 43 38
3 38 43 189
3 94 194 69
3 149 181 146
3 80 233 188
3 146 181 131
3 146 131 141
3 141 131 188
3 110 223 205
3 237 68 22
3 172 144 29
3 198 86 191
3 191 251 198
3 69 194 198
3 198 251 69
3 51 226 186
3 23 78 132
3 99 31 132
3 19 78 23
3 165 30 11
3 23 190 242
3 159 76 59
3 59 108 159
3 248 184 112
3 243 184 248
3 211 243 248
3 248 224 211
3 211 224 82
3 82 30 211
3 34 224 58
3 234 47 58
3 58 47 34
3 21 43 64
3 174 30 99
3 135 189 236
3 46 48 230
3 227 94 119
3 167 149 44
3 44 213 167
3 49 80 188
3 188 131 49
3 136 141 188
3 182 55 28
3 148 55 182
3 250 226 101
3 180 109 52
3 186 239 52
3 52 51 186
3 72 149 167
3 181 149 72
3 72 71 181
3 121 140 250
3 107 158 133
3 96 107 175
3 175 107 205
3 68 237 252
3 252 61 68
3 68 61 195
3 61 156 195
3 245 198 194
3 86 198 245
3 245 194 172
3 172 29 245
3 245 29 86
3 59 76 62
3 191 86 12
3 86 29 12
3 81 251 191
3 191 105 81
3 212 105 191
3 191 12 212
3 203 182 28
3 17 144 172
3 60 47 1
3 1 47 234
3 168 190 34
3 34 47 168
3 109 242 168
3 168 242 190
3 168 47 60
3 227 226 145
3 226 51 145
3 145 1 228
3 109 168 18
3 18 168 60
3 18 52 109
3 51 52 18
3 180 19 215
3 215 19 23
3 23 242 215
3 215 109 180
3 215 242 109
3 78 19 4
3 4 41 46
3 70 243 211
3 70 165 243
3 211 30 70
3 30 165 70
3 116 237 22
3 22 184 116
3 116 184 243
3 25 29 144
3 25 108 59
3 25 12 29
3 217 108 14
3 217 159 108
3 217 14 112
3 112 184 217
3 253 184 22
3 253 217 184
3 159 217 253
3 112 14 45
3 45 248 112
3 224 248 45
3 45 58 224
3 151 224 34
3 151 82 224
3 34 190 151
3 151 190 23
3 31 30 151
3 30 82 151
3 23 132 151
3 151 132 31
3 210 252 237
3 237 116 210
3 43 21 244
3 244 174 43
3 244 210 11
3 21 210 244
3 11 30 244
3 30 174 244
3 214 236 189
3 48 236 214
3 214 230 48
3 189 43 214
3 43 174 214
3 214 174 99
3 201 205 223
3 201 175 205
3 221 236 48
3 46 41 221
3 221 48 46
3 78 230 77
3 99 132 77
3 77 132 78
3 77 214 99
3 230 214 77
3 222 94 69
3 222 119 94
3 69 251 231
3 231 222 69
3 136 222 231
3 141 136 50
3 50 55 141
3 136 231 50
3 93 55 148
3 148 2 93
3 93 2 183
3 16 85 246
3 110 205 16
3 220 75 152
3 233 80 139
3 80 101 139
3 227 119 139
3 139 119 233
3 139 226 227
3 139 101 226
3 180 52 176
3 176 52 239
3 63 41 3
3 3 26 63
3 89 13 92
3 92 241 89
3 13 176 92
3 239 241 92
3 92 176 239
3 5 239 186
3 5 241 239
3 140 241 5
3 186 226 5
3 5 226 250
3 250 140 5
3 40 178 89
3 40 15 178
3 89 241 40
3 40 241 140
3 181 71 27
3 71 121 27
3 27 131 181
3 140 121 192
3 192 40 140
3 15 40 192
3 71 15 192
3 192 121 71
3 33 21 64
3 37 156 240
3 61 252 238
3 128 240 238
3 238 156 61
3 238 240 156
3 127 220 53
3 75 220 127
3 53 196 127
3 196 103 127
3 127 138 75
3 103 138 127
3 106 81 105
3 106 203 28
3 106 50 231
3 251 81 106
3 106 231 251
3 84 7 218
3 84 212 7
3 7 212 115
3 115 212 12
3 115 62 7
3 228 17 254
3 254 94 227
3 227 145 254
3 254 145 228
3 249 18 60
3 51 18 249
3 249 145 51
3 60 1 249
3 1 145 249
3 54 230 78
3 78 4 54
3 46 230 54
3 54 4 46
3 243 165 117
3 117 116 243
3 117 165 11
3 11 210 117
3 117 210 116
3 179 25 144
3 108 25 179
3 144 97 179
3 35 25 59
3 12 25 35
3 35 115 12
3 59 62 35
3 62 115 35
3 142 17 228
3 234 97 142
3 144 17 142
3 142 97 144
3 142 1 234
3 228 1 142
3 234 58 100
3 58 45 100
3 100 97 234
3 100 45 14
3 193 210 21
3 193 33 171
3 21 33 193
3 171 252 193
3 252 210 193
3 187 41 63
3 175 201 187
3 187 221 41
3 201 221 187
3 63 96 187
3 96 175 187
3 236 221 219
3 219 221 201
3 219 209 135
3 135 236 219
3 223 209 219
3 219 201 223
3 173 136 188
3 173 222 136
3 188 233 173
3 233 119 173
3 119 222 173
3 148 182 232
3 232 2 148
3 6 2 232
3 182 203 232
3 126 155 44
3 126 44 149
3 183 2 126
3 207 93 183
3 207 126 149
3 183 126 207
3 207 149 146
3 141 55 154
3 55 93 154
3 146 141 154
3 154 207 146
3 93 207 154
3 246 255 104
3 104 16 246
3 110 16 104
3 104 247 110
3 133 85 169
3 85 16 169
3 169 16 205
3 169 107 133
3 205 107 169
3 208 255 246
3 246 90 208
3 235 176 13
3 235 19 180
3 180 176 235
3 124 235 13
3 178 26 24
3 26 3 24
3 89 178 24
3 3 124 24
3 24 13 89
3 24 124 13
3 111 107 96
3 111 96 63
3 63 26 111
3 111 26 178
3 123 27 121
3 123 121 250
3 123 49 131
3 131 27 123
3 250 101 123
3 80 49 123
3 123 101 80
3 255 208 20
3 199 33 64
3 164 33 199
3 37 240 57
3 57 240 197
3 57 197 152
3 152 75 57
3 75 138 57
3 114 252 171
3 114 238 252
3 171 33 114
3 114 33 164
3 114 164 128
3 128 238 114
3 36 195 156
3 36 185 195
3 36 156 37
3 37 57 36
3 36 57 138
3 103 185 36
3 36 138 103
3 66 62 76
3 7 62 66
3 76 159 170
3 159 253 170
3 170 66 76
3 79 66 170
3 87 106 28
3 50 106 87
3 28 55 87
3 55 50 87
3 105 212 98
3 212 84 98
3 94 254 120
3 120 254 17
3 194 94 120
3 172 194 120
3 120 17 172
3 143 179 97
3 97 100 143
3 143 100 14
3 14 108 143
3 108 179 143
3 200 126 2
3 155 126 200
3 200 2 6
3 6 163 200
3 53 220 74
3 246 85 9
3 9 202 246
3 177 90 150
3 150 90 246
3 247 104 166
3 83 247 166
3 166 209 83
3 166 118 209
3 88 4 19
3 19 235 88
3 41 4 88
3 204 161 158
3 158 107 204
3 107 111 204
3 128 164 95
3 164 199 95
3 153 208 90
3 153 20 208
3 229 209 32
3 209 118 32
3 32 38 229
3 64 38 32
3 32 199 64
3 73 66 79
3 73 185 218
3 218 7 73
3 7 66 73
3 195 185 73
3 73 79 195
3 79 170 39
3 68 195 39
3 195 79 39
3 22 68 39
3 39 253 22
3 39 170 253
3 65 103 196
3 218 185 65
3 65 185 103
3 65 84 218
3 65 98 84
3 163 74 125
3 177 150 125
3 125 150 163
3 125 220 177
3 125 74 220
3 53 74 137
3 137 232 53
3 6 232 137
3 137 163 6
3 137 74 163
3 213 44 42
3 44 0 42
3 42 161 213
3 158 161 42
3 155 200 91
3 91 200 163
3 163 150 91
3 118 166 56
3 162 124 3
3 162 3 41
3 41 88 162
3 235 124 162
3 162 88 235
3 161 204 130
3 130 72 167
3 167 213 130
3 213 161 130
3 197 240 10
3 10 240 128
3 128 95 10
3 147 90 177
3 147 153 90
3 147 220 152
3 177 220 147
3 105 98 216
3 98 129 216
3 216 129 203
3 216 106 105
3 203 106 216
3 98 65 225
3 225 129 98
3 225 65 196
3 203 129 225
3 225 196 53
3 53 232 225
3 225 232 203
3 133 158 113
3 158 42 113
3 113 0 202
3 113 42 0
3 155 91 160
3 44 155 160
3 160 0 44
3 102 91 150
3 246 202 102
3 102 150 246
3 102 160 91
3 202 0 102
3 0 160 102
3 118 56 67
3 20 10 67
3 67 10 95
3 134 56 166
3 134 104 255
3 134 166 104
3 255 20 134
3 20 67 134
3 134 67 56
3 122 130 204
3 178 15 122
3 122 15 71
3 122 111 178
3 122 204 111
3 71 72 122
3 72 130 122
3 152 197 206
3 206 147 152
3 153 147 206
3 197 10 206
3 20 153 206
3 206 10 20
3 8 85 133
3 133 113 8
3 8 9 85
3 202 9 8
3 8 113 202
3 118 67 157
3 157 67 95
3 157 32 118
3 157 95 199
3 199 32 157