ply
format ascii 1.0
comment https://github.com/mikedh/trimesh
element vertex 256
property float x
property float y
property float z
element face 508
property list uchar int vertex_indices
end_header
-3.57710767 -0.78568345 0.34060925
1.37111843 1.41379881 0.10397520
-3.78843975 -0.31820789 -0.73298883
-0.28038204 0.28039810 1.65132165
1.76545072 0.22788830 1.51707280
-1.37579393 1.09083211 1.01844442
-3.37565994 -0.68831551 -0.71456707
1.55447733 0.26181594 -1.54452646
-2.88590550 -0.98659378 0.58293414
-2.48997164 -1.12465024 0.53832072
1.28828907 -1.41611397 -0.18982305
4.23220301 -0.26264790 0.20081288
0.96057355 0.76850951 -1.39603686
-0.44942173 0.65063584 1.50662470
3.44185591 0.78224862 -0.51668394
-2.95161915 0.52733487 1.07996511
-1.52916551 -1.14229023 0.90873390
0.65503919 1.39987886 -0.52924705
1.25652933 1.31549203 0.63026005
1.49406588 0.56399995 1.44763207
-0.06529252 -1.49207020 0.07483502
3.68275642 -0.72549659 0.33964628
3.88890457 -0.14909969 -0.72191381
2.48619866 0.74826586 1.09134090
-0.75557226 0.48510054 1.56690741
1.95787561 0.96183497 -1.04013896
-1.29511881 0.20432860 1.59179342
-3.64989734 0.73716313 0.36102542
-2.66125965 0.26380405 -1.29560483
1.20592272 1.07649434 -1.06991041
4.04963589 0.14639176 0.57364631
3.75921082 0.23376516 0.79344696
1.92223620 -1.22114766 0.61854595
3.23510551 -0.99250066 0.01173696
3.02823663 0.98739779 0.45701948
1.76667190 0.65817195 -1.34751773
1.30567598 -0.90963101 -1.23670447
1.72447526 -1.06675136 -0.96999472
2.66540718 -0.94161826 0.79689276
3.34126258 -0.05317265 -1.07035398
-2.19949746 0.75927508 1.17161942
0.75599152 -0.04372060 1.65810680
-3.65840530 -0.62349933 0.56457311
3.48198700 -0.65136224 0.68014044
-4.12234163 -0.37252727 0.30053163
3.61193585 0.81122929 -0.16075091
1.68160951 -0.08614270 1.54955125
2.33739901 1.23897779 0.24138924
2.02648950 -0.30496654 1.44837976
-3.27193379 0.97745925 -0.03756724
-2.80735993 0.66798794 -1.03785872
0.12208808 1.39156508 0.60872418
0.22990473 1.19523811 1.00656092
-1.43713188 -0.76841193 -1.33245754
2.06062293 0.05177317 1.48057163
-3.28887773 0.43321416 -0.98116457
0.83870584 -1.37977934 0.55669159
1.07230771 -1.19769907 -0.91556078
3.06355619 1.05398226 0.06248099
2.27103209 0.77387685 -1.13881898
1.37624955 1.37804854 0.36878547
2.82231140 -0.83774787 -0.86019152
2.19191694 0.52167797 -1.32856345
-0.98753077 -0.21998490 1.62203860
2.99660635 -1.00065982 0.45269620
-0.25582725 -0.44760069 -1.60455573
2.53440928 0.12856452 -1.35866773
1.07337499 -1.41944575 0.31489676
3.57151723 -0.39157867 -0.84421891
-1.21418631 1.09593141 -1.04256237
4.25243092 0.17379381 0.25128829
-3.86182237 0.40956318 0.60625988
-4.03195858 0.17064284 0.58452791
2.39482903 -0.08002634 -1.40118384
-1.93859553 -1.07508695 -0.89381260
-0.33643526 -1.14092648 -1.07888949
2.95209432 0.42829078 -1.13452733
2.97568774 -0.12338762 1.21640611
2.67774940 0.25404397 1.29242623
2.83591771 -0.06442002 -1.27127433
-2.48503113 1.22316909 0.00698296
-0.96456122 0.65646368 -1.46591794
3.91366911 0.56671196 0.33363837
0.81671059 -1.14082909 1.03934789
0.47366357 -0.12902713 -1.66847992
-2.20564604 -1.07511377 0.79527718
0.67051673 0.93061632 -1.29157817
-2.60987258 0.50779551 -1.21672893
1.25918424 0.32154840 1.57092619
-1.30333662 0.59584111 1.45943415
-1.79654646 -1.35882473 -0.00434954
-3.30543089 -0.95712280 -0.13527820
-0.71853423 0.80487031 1.39176357
-4.01059103 0.16901700 -0.60622495
-0.85141748 1.42112064 -0.39789045
1.74095702 -1.36492896 0.09523544
-1.51049793 -0.32744026 1.53532994
2.22781777 1.22404897 -0.42379624
-0.10655588 -0.11027243 -1.67968476
3.55370712 -0.07278766 0.95990199
3.12531447 1.00724590 -0.26339862
-2.30590773 1.24571037 0.24063541
-3.31562948 -0.94727415 0.17908311
0.14166306 -0.81206042 -1.41321325
-0.71574050 -1.30273330 0.77468091
-0.81245273 0.37003455 -1.60118520
-2.01137805 0.54742557 -1.35802269
-2.00255585 -0.58470815 1.34053743
2.50352263 0.91971672 -0.90173197
1.68593693 1.08702970 0.95084029
-0.94429761 -1.19548213 0.94075215
-2.12447739 -0.00907502 1.46814668
3.75969410 0.61282718 -0.47009870
-3.30261874 -0.78792185 0.63027471
3.01624107 -1.03746080 -0.30265835
1.50417566 0.50342536 -1.47478473
4.19957972 -0.15997934 -0.36961979
4.29972410 -0.15023451 -0.11220205
1.35497046 -1.31431043 0.60081238
-1.54173517 1.36627007 -0.32176906
-0.23590204 1.43102038 -0.47296271
-3.32800484 0.82232839 0.54883015
-3.14819980 0.29034948 1.10978103
-3.12420177 0.98081547 0.36976624
-0.09071764 0.48137850 1.59493351
-2.26222110 -1.14200222 -0.63555408
-4.16472244 -0.36267880 -0.21511616
-0.62930745 -0.89246374 -1.32818747
2.40176749 -1.19791007 -0.37166858
-1.31395102 0.00639915 -1.60565627
-3.49781394 -0.01583653 0.99404275
-3.69839787 0.77666587 0.02127261
3.41919923 0.21596244 1.00490820
-2.61663866 -0.73161906 1.05940938
0.21426457 -1.40237331 0.57273847
2.05883241 -0.79063934 1.18358839
-2.76356602 0.89278227 -0.81720662
-2.88418007 -0.79345179 -0.88221079
0.59669137 -0.99469495 -1.23504579
-1.58298814 1.37545347 0.22480166
-2.16822553 0.97152376 0.96206015
-3.51249456 0.62444478 -0.68878907
1.29127491 1.36456203 -0.46567616
2.92979646 1.01084971 -0.48906302
1.51402700 1.25404155 -0.70080525
0.06739924 1.46949089 0.29810712
-4.02888441 0.47456998 -0.30773968
-0.62563205 -1.43035412 -0.41745985
-3.43180275 0.06847946 -1.02499831
-4.28310299 0.05437546 0.24263655
-2.82279897 -1.11299562 -0.23555540
3.65877628 0.62995708 0.55440742
-0.22386001 -1.26608229 -0.88914531
-0.53966790 -1.47136283 -0.20030208
-3.96710706 0.36821902 -0.53213358
-3.86860561 -0.64841425 -0.19633414
2.26831508 -0.95052290 -0.95428687
1.66964507 -1.32814872 0.41362792
-2.98350596 -0.49723396 1.08511496
3.18172836 0.53691179 -0.96962982
-3.61035180 -0.82417613 0.03243854
-3.48726392 -0.27923739 0.94825995
0.28053072 0.27575168 1.65250432
-2.78261113 -0.99225420 -0.64273781
2.72429085 -1.15504694 -0.13160226
4.31283760 -0.04324390 0.14242467
0.69955027 -1.31001794 0.76175439
-4.13703060 -0.13497850 0.47409150
2.27237701 1.16422033 0.57724607
-2.04006338 -0.88624239 1.09976113
3.28294230 0.13742837 -1.08779514
3.44022346 -0.88496214 -0.22538982
0.52490741 1.25190163 -0.89654195
-2.33816624 1.13167882 -0.61732119
3.59789872 -0.37519571 0.83641070
-1.38463247 -0.61570352 1.43735743
0.04735252 0.86986440 1.36955476
-2.12776995 -1.23890531 -0.44776872
-1.57838523 0.39956605 1.50324953
2.22896338 1.14445662 -0.64764917
0.92669773 0.88635701 1.30761254
-3.97686052 0.50935173 0.33920810
-3.04427743 0.07793004 -1.19501066
-4.15179682 -0.22563116 -0.40590131
4.00005102 0.37715554 -0.48546118
1.46480787 -0.51561308 -1.47531736
-0.88994646 1.28370953 0.78821057
-0.39759943 -0.46401051 1.59433758
-2.93634605 1.01536572 -0.47039458
2.75888586 -0.70951021 1.02219403
2.78077435 0.93040043 0.75207293
0.18533450 0.86131233 -1.37436724
-2.94291735 0.68990958 0.96010840
3.76518774 -0.71970451 -0.18271127
-0.01119069 1.22047842 -0.97124362
2.79351735 -0.61171204 -1.08697808
-1.00418568 -0.66014117 -1.45979059
0.67767084 -1.34968090 -0.67065901
-0.14333898 1.02517724 -1.22403216
2.55862761 -1.16591728 0.34344223
-3.53964686 -0.74928802 -0.47864643
0.29929206 -0.70467389 1.48104239
-3.13013816 -0.97330177 0.38643759
-2.21058917 0.08002625 -1.44587481
-2.81228590 -0.01542012 1.28129375
-1.28671551 -0.86141038 1.28215647
-0.01281029 -1.41875112 -0.52614683
-4.26904488 0.10129532 -0.26079860
-1.19021952 -1.42548370 0.19215824
1.32378149 -1.05576396 1.07478654
4.02397823 -0.54663515 -0.09049705
4.14980602 0.39170498 0.19440052
0.54706776 0.18972673 -1.65802586
-3.94776440 -0.32802168 0.58547473
3.09418797 -0.39528209 1.09116924
1.97660029 0.81575716 1.18381035
-1.16834128 0.20985261 -1.60494745
3.47448707 0.58181775 -0.76291823
0.99250239 -0.27832231 -1.60955751
1.01591015 -0.71645081 1.42506933
-1.02446580 -1.15684474 -0.98787826
1.23823833 -0.33566296 1.56923366
-1.94466698 1.12770844 -0.80477560
-0.01352107 -0.96533006 1.28556466
3.78224206 0.71669030 0.13921450
-1.18831503 -0.37678021 -1.56337941
-1.43322754 1.34118509 0.48911935
-0.75054741 1.47018445 0.04458963
0.93045217 1.45611262 -0.09238696
2.08943057 -1.02873397 0.91093391
2.42763996 -0.16364408 1.38266766
-2.09032202 0.95552975 -1.00731516
-3.48234963 -0.28095016 -0.95029503
-2.01041842 1.31043220 -0.20348756
2.40977812 1.23690355 -0.11411726
0.21659932 0.65008491 1.51453257
1.80814981 -0.57951355 1.38418710
3.97525454 -0.31487572 -0.56706756
2.80221128 -1.04146993 -0.51935554
-0.34747264 1.07479870 1.16221130
1.91801810 -1.23954046 -0.57207417
-1.42375255 0.93458301 1.19156337
2.23062158 0.95943022 0.95593286
4.23740005 0.25068471 -0.20449488
3.88816786 -0.48591509 0.50022340
0.39030579 1.12339997 -1.09967828
-2.02298474 -1.28059685 0.36361131
0.17238897 -1.15500951 1.06575608
3.90592313 0.62175399 -0.19352634
0.85255224 1.40371299 0.47035062
-2.45989275 1.13145363 0.54119688
-1.06291330 0.92705816 -1.25476861
3.53341818 -0.73579216 -0.51005888
3.71990442 0.22008514 -0.82634270
-0.03331568 1.48722672 -0.14976761
-0.77155769 -1.41233635 0.45676845
3 135 229 189
3 110 247 223
3 223 247 83
3 30 31 99
3 209 229 135
3 209 223 83
3 38 189 229
3 64 43 38
3 38 43 189
3 94 194 69
3 149 181 146
3 80 233 188
3 146 181 131
3 146 131 141
3 141 131 188
3 110 223 205
3 237 68 22
3 172 144 29
3 198 86 191
3 191 251 198
3 69 194 198
3 198 251 69
3 51 226 186
3 23 78 132
3 99 31 132
3 19 78 23
3 165 30 11
3 23 190 242
3 159 76 59
3 59 108 159
3 248 184 112
3 243 184 248
3 211 243 248
3 248 224 211
3 211 224 82
3 82 30 211
3 34 224 58
3 234 47 58
3 58 47 34
3 21 43 64
3 174 30 99
3 135 189 236
3 46 48 230
3 227 94 119
3 167 149 44
3 44 213 167
3 49 80 188
3 188 131 49
3 136 141 188
3 182 55 28
3 148 55 182
3 250 226 101
3 180 109 52
3 186 239 52
3 52 51 186
3 72 149 167
3 181 149 72
3 72 71 181
3 121 140 250
3 107 158 133
3 96 107 175
3 175 107 205
3 68 237 252
3 252 61 68
3 68 61 195
3 61 156 195
3 245 198 194
3 86 198 245
3 245 194 172
3 172 29 245
3 245 29 86
3 59 76 62
3 191 86 12
3 86 29 12
3 81 251 191
3 191 105 81
3 212 105 191
3 191 12 212
3 203 182 28
3 17 144 172
3 60 47 1
3 1 47 234
3 168 190 34
3 34 47 168
3 109 242 168
3 168 242 190
3 168 47 60
3 227 226 145
3 226 51 145
3 145 1 228
3 109 168 18
3 18 168 60
3 18 52 109
3 51 52 18
3 180 19 215
3 215 19 23
3 23 242 215
3 215 109 180
3 215 242 109
3 78 19 4
3 4 41 46
3 70 243 211
3 70 165 243
3 211 30 70
3 30 165 70
3 116 237 22
3 22 184 116
3 116 184 243
3 25 29 144
3 25 108 59
3 25 12 29
3 217 108 14
3 217 159 108
3 217 14 112
3 112 184 217
3 253 184 22
3 253 217 184
3 159 217 253
3 112 14 45
3 45 248 112
3 224 248 45
3 45 58 224
3 151 224 34
3 151 82 224
3 34 190 151
3 151 190 23
3 31 30 151
3 30 82 151
3 23 132 151
3 151 132 31
3 210 252 237
3 237 116 210
3 43 21 244
3 244 174 43
3 244 210 11
3 21 210 244
3 11 30 244
3 30 174 244
3 214 236 189
3 48 236 214
3 214 230 48
3 189 43 214
3 43 174 214
3 214 174 99
3 201 205 223
3 201 175 205
3 221 236 48
3 46 41 221
3 221 48 46
3 78 230 77
3 99 132 77
3 77 132 78
3 77 214 99
3 230 214 77
3 222 94 69
3 222 119 94
3 69 251 231
3 231 222 69
3 136 222 231
3 141 136 50
3 50 55 141
3 136 231 50
3 93 55 148
3 148 2 93
3 93 2 183
3 16 85 246
3 110 205 16
3 220 75 152
3 233 80 139
3 80 101 139
3 227 119 139
3 139 119 233
3 139 226 227
3 139 101 226
3 180 52 176
3 176 52 239
3 63 41 3
3 3 26 63
3 89 13 92
3 92 241 89
3 13 176 92
3 239 241 92
3 92 176 239
3 5 239 186
3 5 241 239
3 140 241 5
3 186 226 5
3 5 226 250
3 250 140 5
3 40 178 89
3 40 15 178
3 89 241 40
3 40 241 140
3 181 71 27
3 71 121 27
3 27 131 181
3 140 121 192
3 192 40 140
3 15 40 192
3 71 15 192
3 192 121 71
3 33 21 64
3 37 156 240
3 61 252 238
3 128 240 238
3 238 156 61
3 238 240 156
3 127 220 53
3 75 220 127
3 53 196 127
3 196 103 127
3 127 138 75
3 103 138 127
3 106 81 105
3 106 203 28
3 106 50 231
3 251 81 106
3 106 231 251
3 84 7 218
3 84 212 7
3 7 212 115
3 115 212 12
3 115 62 7
3 228 17 254
3 254 94 227
3 227 145 254
3 254 145 228
3 249 18 60
3 51 18 249
3 249 145 51
3 60 1 249
3 1 145 249
3 54 230 78
3 78 4 54
3 46 230 54
3 54 4 46
3 243 165 117
3 117 116 243
3 117 165 11
3 11 210 117
3 117 210 116
3 179 25 144
3 108 25 179
3 144 97 179
3 35 25 59
3 12 25 35
3 35 115 12
3 59 62 35
3 62 115 35
3 142 17 228
3 234 97 142
3 144 17 142
3 142 97 144
3 142 1 234
3 228 1 142
3 234 58 100
3 58 45 100
3 100 97 234
3 100 45 14
3 193 210 21
3 193 33 171
3 21 33 193
3 171 252 193
3 252 210 193
3 187 41 63
3 175 201 187
3 187 221 41
3 201 221 187
3 63 96 187
3 96 175 187
3 236 221 219
3 219 221 201
3 219 209 135
3 135 236 219
3 223 209 219
3 219 201 223
3 173 136 188
3 173 222 136
3 188 233 173
3 233 119 173
3 119 222 173
3 148 182 232
3 232 2 148
3 6 2 232
3 182 203 232
3 126 155 44
3 126 44 149
3 183 2 126
3 207 93 183
3 207 126 149
3 183 126 207
3 207 149 146
3 141 55 154
3 55 93 154
3 146 141 154
3 154 207 146
3 93 207 154
3 246 255 104
3 104 16 246
3 110 16 104
3 104 247 110
3 133 85 169
3 85 16 169
3 169 16 205
3 169 107 133
3 205 107 169
3 208 255 246
3 246 90 208
3 235 176 13
3 235 19 180
3 180 176 235
3 124 235 13
3 178 26 24
3 26 3 24
3 89 178 24
3 3 124 24
3 24 13 89
3 24 124 13
3 111 107 96
3 111 96 63
3 63 26 111
3 111 26 178
3 123 27 121
3 123 121 250
3 123 49 131
3 131 27 123
3 250 101 123
3 80 49 123
3 123 101 80
3 255 208 20
3 199 33 64
3 164 33 199
3 37 240 57
3 57 240 197
3 57 197 152
3 152 75 57
3 75 138 57
3 114 252 171
3 114 238 252
3 171 33 114
3 114 33 164
3 114 164 128
3 128 238 114
3 36 195 156
3 36 185 195
3 36 156 37
3 37 57 36
3 36 57 138
3 103 185 36
3 36 138 103
3 66 62 76
3 7 62 66
3 76 159 170
3 159 253 170
3 170 66 76
3 79 66 170
3 87 106 28
3 50 106 87
3 28 55 87
3 55 50 87
3 105 212 98
3 212 84 98
3 94 254 120
3 120 254 17
3 194 94 120
3 172 194 120
3 120 17 172
3 143 179 97
3 97 100 143
3 143 100 14
3 14 108 143
3 108 179 143
3 200 126 2
3 155 126 200
3 200 2 6
3 6 163 200
3 53 220 74
3 246 85 9
3 9 202 246
3 177 90 150
3 150 90 246
3 247 104 166
3 83 247 166
3 166 209 83
3 166 118 209
3 88 4 19
3 19 235 88
3 41 4 88
3 204 161 158
3 158 107 204
3 107 111 204
3 128 164 95
3 164 199 95
3 153 208 90
3 153 20 208
3 229 209 32
3 209 118 32
3 32 38 229
3 64 38 32
3 32 199 64
3 73 66 79
3 73 185 218
3 218 7 73
3 7 66 73
3 195 185 73
3 73 79 195
3 79 170 39
3 68 195 39
3 195 79 39
3 22 68 39
3 39 253 22
3 39 170 253
3 65 103 196
3 218 185 65
3 65 185 103
3 65 84 218
3 65 98 84
3 163 74 125
3 177 150 125
3 125 150 163
3 125 220 177
3 125 74 220
3 53 74 137
3 137 232 53
3 6 232 137
3 137 163 6
3 137 74 163
3 213 44 42
3 44 0 42
3 42 161 213
3 158 161 42
3 155 200 91
3 91 200 163
3 163 150 91
3 118 166 56
3 162 124 3
3 162 3 41
3 41 88 162
3 235 124 162
3 162 88 235
3 161 204 130
3 130 72 167
3 167 213 130
3 213 161 130
3 197 240 10
3 10 240 128
3 128 95 10
3 147 90 177
3 147 153 90
3 147 220 152
3 177 220 147
3 105 98 216
3 98 129 216
3 216 129 203
3 216 106 105
3 203 106 216
3 98 65 225
3 225 129 98
3 225 65 196
3 203 129 225
3 225 196 53
3 53 232 225
3 225 232 203
3 133 158 113
3 158 42 113
3 113 0 202
3 113 42 0
3 155 91 160
3 44 155 160
3 160 0 44
3 102 91 150
3 246 202 102
3 102 150 246
3 102 160 91
3 202 0 102
3 0 160 102
3 118 56 67
3 20 10 67
3 67 10 95
3 134 56 166
3 134 104 255
3 134 166 104
3 255 20 134
3 20 67 134
3 134 67 56
3 122 130 204
3 178 15 122
3 122 15 71
3 122 111 178
3 122 204 111
3 71 72 122
3 72 130 122
3 152 197 206
3 206 147 152
3 153 147 206
3 197 10 206
3 20 153 206
3 206 10 20
3 8 85 133
3 133 113 8
3 8 9 85
3 202 9 8
3 8 113 202
3 118 67 157
3 157 67 95
3 157 32 118
3 157 95 199
3 199 32 157