ply
format ascii 1.0
comment https://github.com/mikedh/trimesh
element vertex 256
property float x
property float y
property float z
element face 508
property list uchar int vertex_indices
end_header
-1.09619474 -0.60322714 0.33022594
0.42017549 1.08547759 0.10080557
-1.16095698 -0.24431166 -0.71064407
-0.08592230 0.21528229 1.60098207
0.54101753 0.17496665 1.47082567
-0.42160827 0.83751225 0.98739773
-1.03446174 -0.52847058 -0.69278389
0.47636533 0.20101540 -1.49744248
-0.88437778 -0.75748080 0.56516373
-0.76304495 -0.86347693 0.52191031
0.39479265 -1.08725512 -0.18403639
1.29694688 -0.20165417 0.19469121
0.29436514 0.59004140 -1.35347939
-0.13772406 0.49954110 1.46069598
1.05474734 0.60058993 -0.50093311
-0.90451562 0.40487385 1.04704285
-0.46860859 -0.87702048 0.88103163
0.20073496 1.07479024 -0.51311326
0.38505995 1.01000023 0.61104691
0.45785236 0.43302435 1.40350187
-0.02000871 -1.14557230 0.07255371
1.12857056 -0.55701721 0.32929236
1.19174409 -0.11447483 -0.69990665
0.76188880 0.57449889 1.05807197
-0.23154305 0.37244746 1.51914108
0.59998560 0.73847163 -1.00843084
-0.39688560 0.15687813 1.54326844
-1.11850095 0.56597447 0.35001975
-0.81553572 0.20254181 -1.25610900
0.36955169 0.82650405 -1.03729475
1.24099970 0.11239575 0.55615902
1.15199983 0.17947875 0.76925910
0.58906400 -0.93756509 0.59968990
0.99138916 -0.76201594 0.01137917
0.92799479 0.75809807 0.44308749
0.54139173 0.50532711 -1.30643940
0.40012082 -0.69839084 -1.19900417
0.52846074 -0.81902367 -0.94042498
0.81680673 -0.72294974 0.77259994
1.02392077 -0.04082456 -1.03772485
-0.67402995 0.58295149 1.13590324
0.23167151 -0.03356753 1.60756028
-1.12110829 -0.47870642 0.54736239
1.06704533 -0.50009882 0.65940672
-1.26328015 -0.28601664 0.29137006
1.10686779 0.62284052 -0.15585050
0.51532459 -0.06613810 1.50231409
0.71628946 0.95125467 0.23403062
0.62101215 -0.23414530 1.40422666
-1.00267518 0.75046754 -0.03642202
-0.86030775 0.51286358 -1.00622022
0.03741356 1.06840706 0.59016752
0.07045367 0.91767240 0.97587651
-0.44040510 -0.58996648 -1.29183829
0.63147217 0.03975008 1.43543720
-1.00786757 0.33261043 -0.95125431
0.25701910 -1.05935836 0.53972113
0.32860574 -0.91956192 -0.88765037
0.93881840 0.80921990 0.06057629
0.69595152 0.59416229 -1.10410273
0.42174789 1.05802953 0.35754323
0.86488962 -0.64320081 -0.83396906
0.67170691 0.40053064 -1.28806281
-0.30262607 -0.16889863 1.57259166
0.91830176 -0.76828033 0.43889600
-0.07839756 -0.34365606 -1.55564165
0.77666277 0.09870846 -1.31724942
0.32893279 -1.08981311 0.30529732
1.09448171 -0.30064383 -0.81848329
-0.37208408 0.84142739 -1.01078033
1.30314577 0.13343431 0.24362791
-1.18344486 0.31445184 0.58777839
-1.23558259 0.13101509 0.56670886
0.73388875 -0.06144211 -1.35846949
-0.59407729 -0.82542348 -0.86656517
-0.10309966 -0.87597340 -1.04600012
0.90466124 0.32883039 -1.09994185
0.91189128 -0.09473377 1.17932463
0.82058895 0.19504827 1.25302732
0.86905921 -0.04946000 -1.23252022
-0.76153100 0.93911713 0.00677008
-0.29558712 0.50401556 -1.42123020
1.19933319 0.43510655 0.32346758
0.25027871 -0.87589854 1.00766385
0.14515290 -0.09906363 -1.61761725
-0.67591423 -0.82544410 0.77103359
0.20547801 0.71450275 -1.25220501
-0.79978824 0.38987204 -1.17963755
0.38587353 0.24687642 1.52303731
-0.39940393 0.45747113 1.41494405
-0.55054671 -1.04326987 -0.00421695
-1.01294017 -0.73485374 -0.13115431
-0.22019283 0.61795825 1.34933650
-1.22903454 0.12976681 -0.58774447
-0.26091456 1.09109914 -0.38576096
0.53351146 -1.04795659 0.09233224
-0.46288794 -0.25140002 1.48852623
0.68270862 0.93979269 -0.41087705
-0.03265376 -0.08466428 -1.62848043
1.08902371 -0.05588445 0.93063986
0.95774406 0.77333689 -0.25536904
-0.70663905 0.95642364 0.23329978
-1.01606560 -0.72729218 0.17362386
0.04341226 -0.62347865 -1.37013221
-0.21933670 -1.00020444 0.75106519
-0.24897391 0.28410280 -1.55237401
-0.61638129 0.42029899 -1.31662416
-0.61367774 -0.44892359 1.29967189
0.76719761 0.70613432 -0.87424314
0.51665074 0.83459282 0.92185438
-0.28937739 -0.91785979 0.91207379
-0.65104026 -0.00696756 1.42339098
1.15214789 0.47051260 -0.45576799
-1.01207840 -0.60494566 0.61106116
0.92431879 -0.79653519 -0.29343197
0.46095049 0.38651675 -1.42982662
1.28694963 -0.12282794 -0.35835212
1.31763864 -0.11534611 -0.10878163
0.41522697 -1.00909305 0.58249694
-0.47246048 1.04898632 -0.31196010
-0.07229153 1.09869981 -0.45854470
-1.01985800 0.63136214 0.53209931
-0.96475720 0.22292271 1.07595003
-0.95740300 0.75304437 0.35849410
-0.02780017 0.36958975 1.54631281
-0.69325143 -0.87679935 -0.61617953
-1.27626777 -0.27845526 -0.20855846
-0.19284953 -0.68521023 -1.28769839
0.73601508 -0.91972387 -0.36033845
-0.40265667 0.00491310 -1.55670869
-1.07189548 -0.01215887 0.96373987
-1.13336384 0.59630364 0.02062413
1.04780424 0.16581029 0.97427410
-0.80186170 -0.56171793 1.02711380
0.06566079 -1.07670534 0.55527884
0.63092351 -0.60703212 1.14750731
-0.84688723 0.68545473 -0.79229456
-0.88384908 -0.60919142 -0.85531706
0.18285443 -0.76370066 -1.19739604
-0.48510236 1.05603707 0.21794869
-0.66444677 0.74591041 0.93273222
-1.07639432 0.47943228 -0.66779166
0.39570764 1.04767489 -0.45148027
0.89782804 0.77610391 -0.47415420
0.46396944 0.96282017 -0.67944157
0.02065431 1.12823653 0.28901950
-1.23464060 0.36436236 -0.29835841
-0.19172321 -1.09818828 -0.40473381
-1.05166650 0.05257674 -0.99375182
-1.31254518 0.04174805 0.23523991
-0.86503899 -0.85452878 -0.22837462
1.12122190 0.48366451 0.53750658
-0.06860128 -0.97206473 -0.86204022
-0.16537975 -1.12967372 -0.19419597
-1.21570897 0.28270888 -0.51591182
-1.18552363 -0.49783543 -0.19034900
0.69511890 -0.72978652 -0.92519593
0.51165813 -1.01971769 0.40101868
-0.91428721 -0.38176316 1.05203581
0.97503191 0.41222677 -0.94007117
-1.10638237 -0.63278079 0.03144966
-1.06866241 -0.21439114 0.91935271
0.08596787 0.21171489 1.60212862
-0.85272354 -0.76182669 -0.62314427
0.83485144 -0.88681465 -0.12759043
1.32165730 -0.03320153 0.13808294
0.21437524 -1.00579739 0.73853272
-1.26778162 -0.10363295 0.45963907
0.69636375 0.89385784 0.55964905
-0.62517184 -0.68043363 1.06623554
1.00604868 0.10551390 -1.05463433
1.05424702 -0.67945069 -0.21851893
0.16085643 0.96117723 -0.86921138
-0.71652460 0.86887330 -0.59850246
1.10256612 -0.28806540 0.81091315
-0.42431682 -0.47272098 1.39354038
0.01451105 0.66785902 1.32780468
-0.65204924 -0.95119900 -0.43411872
-0.48369181 0.30677631 1.45742369
0.68305969 0.87868375 -0.62790596
0.28398398 0.68052167 1.26775062
-1.21869802 0.39106685 0.32886752
-0.93291044 0.05983264 -1.15858138
-1.27230668 -0.17323369 -0.39352763
1.22580469 0.28957012 -0.47066215
0.44888636 -0.39587417 -1.43034315
-0.27272165 0.98559844 0.76418239
-0.12184326 -0.35625505 1.54573500
-0.89983517 0.77957112 -0.45605484
0.84545296 -0.54474330 0.99103296
0.85216063 0.71433699 0.72914636
0.05679525 0.66129297 -1.33247042
-0.90184897 0.52969444 0.93083996
1.15383148 -0.55257022 -0.17714141
-0.00342936 0.93705124 -0.94163579
0.85606575 -0.46965644 -1.05384207
-0.30772996 -0.50683904 -1.41528964
0.20767036 -1.03624952 -0.65021431
-0.04392584 0.78710413 -1.18671823
0.78408438 -0.89516068 0.33297259
-1.08471513 -0.57528365 -0.46405515
0.09171723 -0.54103011 1.43589354
-0.95922226 -0.74727553 0.37465727
-0.67742896 0.06144206 -1.40179801
-0.86181724 -0.01183916 1.24223423
-0.39431041 -0.66136825 1.24307060
-0.00392568 -1.08927989 -0.51010752
-1.30823708 0.07777189 -0.25284830
-0.36473951 -1.09444892 0.18630040
0.40566918 -0.81058782 1.04202223
1.23313701 -0.41969210 -0.08773829
1.27169669 0.30074078 0.18847433
0.16764741 0.14566720 -1.60748184
-1.20978153 -0.25184643 0.56762683
0.94820541 -0.30348721 1.05790544
0.60572374 0.62631691 1.14772260
-0.35803497 0.16111931 -1.55602145
1.06474698 0.44670436 -0.73966110
0.30414963 -0.21368855 -1.56049097
0.31132287 -0.55007207 1.38162684
-0.31394473 -0.88819498 -0.95776331
0.37945473 -0.25771320 1.52139640
-0.59593785 0.86582488 -0.78024244
-0.00414350 -0.74115509 1.24637485
1.15905774 0.55025601 0.13497062
-0.36415589 -0.28928193 -1.51572061
-0.43920866 1.02972662 0.47420880
-0.23000319 1.12876904 0.04323034
0.28513452 1.11796498 -0.08957059
0.64030027 -0.78983492 0.88316458
0.74394363 -0.12564163 1.34051776
-0.64057338 0.73363066 -0.97660762
-1.06715643 -0.21570614 -0.92132580
-0.61608720 1.00611544 -0.19728434
0.73846990 0.94966203 -0.11063845
0.06637627 0.49911815 1.46836293
0.55410254 -0.44493526 1.34199095
1.21820581 -0.24175331 -0.54978085
0.85872990 -0.79961318 -0.50352329
-0.10648204 0.82520217 1.12678182
0.58777136 -0.95168656 -0.55463481
-0.43630505 0.71754831 1.15523911
0.68356782 0.73662531 0.92679173
1.29853964 0.19246913 -0.19826096
1.19151843 -0.37307283 0.48497432
0.11960813 0.86251700 -1.06615520
-0.61993808 -0.98320860 0.35252681
0.05282813 -0.88678598 1.03326714
1.19695938 0.47736639 -0.18762679
0.26126227 1.07773387 0.45601222
-0.75382739 0.86870039 0.52469879
-0.32572687 0.71177089 -1.21651757
1.08280635 -0.56492192 -0.49451002
1.13995445 0.16897559 -0.80115205
-0.01020950 1.14185369 -0.14520203
-0.23644173 -1.08435476 0.44284412
3 135 229 189
3 110 247 223
3 223 247 83
3 30 31 99
3 209 229 135
3 209 223 83
3 38 189 229
3 64 43 38
3 38 43 189
3 94 194 69
3 149 181 146
3 80 233 188
3 146 181 131
3 146 131 141
3 141 131 188
3 110 223 205
3 237 68 22
3 172 144 29
3 198 86 191
3 191 251 198
3 69 194 198
3 198 251 69
3 51 226 186
3 23 78 132
3 99 31 132
3 19 78 23
3 165 30 11
3 23 190 242
3 159 76 59
3 59 108 159
3 248 184 112
3 243 184 248
3 211 243 248
3 248 224 211
3 211 224 82
3 82 30 211
3 34 224 58
3 234 47 58
3 58 47 34
3 21 43 64
3 174 30 99
3 135 189 236
3 46 48 230
3 227 94 119
3 167 149 44
3 44 213 167
3 49 80 188
3 188 131 49
3 136 141 188
3 182 55 28
3 148 55 182
3 250 226 101
3 180 109 52
3 186 239 52
3 52 51 186
3 72 149 167
3 181 149 72
3 72 71 181
3 121 140 250
3 107 158 133
3 96 107 175
3 175 107 205
3 68 237 252
3 252 61 68
3 68 61 195
3 61 156 195
3 245 198 194
3 86 198 245
3 245 194 172
3 172 29 245
3 245 29 86
3 59 76 62
3 191 86 12
3 86 29 12
3 81 251 191
3 191 105 81
3 212 105 191
3 191 12 212
3 203 182 28
3 17 144 172
3 60 47 1
3 1 47 234
3 168 190 34
3 34 47 168
3 109 242 168
3 168 242 190
3 168 47 60
3 227 226 145
3 226 51 145
3 145 1 228
3 109 168 18
3 18 168 60
3 18 52 109
3 51 52 18
3 180 19 215
3 215 19 23
3 23 242 215
3 215 109 180
3 215 242 109
3 78 19 4
3 4 41 46
3 70 243 211
3 70 165 243
3 211 30 70
3 30 165 70
3 116 237 22
3 22 184 116
3 116 184 243
3 25 29 144
3 25 108 59
3 25 12 29
3 217 108 14
3 217 159 108
3 217 14 112
3 112 184 217
3 253 184 22
3 253 217 184
3 159 217 253
3 112 14 45
3 45 248 112
3 224 248 45
3 45 58 224
3 151 224 34
3 151 82 224
3 34 190 151
3 151 190 23
3 31 30 151
3 30 82 151
3 23 132 151
3 151 132 31
3 210 252 237
3 237 116 210
3 43 21 244
3 244 174 43
3 244 210 11
3 21 210 244
3 11 30 244
3 30 174 244
3 214 236 189
3 48 236 214
3 214 230 48
3 189 43 214
3 43 174 214
3 214 174 99
3 201 205 223
3 201 175 205
3 221 236 48
3 46 41 221
3 221 48 46
3 78 230 77
3 99 132 77
3 77 132 78
3 77 214 99
3 230 214 77
3 222 94 69
3 222 119 94
3 69 251 231
3 231 222 69
3 136 222 231
3 141 136 50
3 50 55 141
3 136 231 50
3 93 55 148
3 148 2 93
3 93 2 183
3 16 85 246
3 110 205 16
3 220 75 152
3 233 80 139
3 80 101 139
3 227 119 139
3 139 119 233
3 139 226 227
3 139 101 226
3 180 52 176
3 176 52 239
3 63 41 3
3 3 26 63
3 89 13 92
3 92 241 89
3 13 176 92
3 239 241 92
3 92 176 239
3 5 239 186
3 5 241 239
3 140 241 5
3 186 226 5
3 5 226 250
3 250 140 5
3 40 178 89
3 40 15 178
3 89 241 40
3 40 241 140
3 181 71 27
3 71 121 27
3 27 131 181
3 140 121 192
3 192 40 140
3 15 40 192
3 71 15 192
3 192 121 71
3 33 21 64
3 37 156 240
3 61 252 238
3 128 240 238
3 238 156 61
3 238 240 156
3 127 220 53
3 75 220 127
3 53 196 127
3 196 103 127
3 127 138 75
3 103 138 127
3 106 81 105
3 106 203 28
3 106 50 231
3 251 81 106
3 106 231 251
3 84 7 218
3 84 212 7
3 7 212 115
3 115 212 12
3 115 62 7
3 228 17 254
3 254 94 227
3 227 145 254
3 254 145 228
3 249 18 60
3 51 18 249
3 249 145 51
3 60 1 249
3 1 145 249
3 54 230 78
3 78 4 54
3 46 230 54
3 54 4 46
3 243 165 117
3 117 116 243
3 117 165 11
3 11 210 117
3 117 210 116
3 179 25 144
3 108 25 179
3 144 97 179
3 35 25 59
3 12 25 35
3 35 115 12
3 59 62 35
3 62 115 35
3 142 17 228
3 234 97 142
3 144 17 142
3 142 97 144
3 142 1 234
3 228 1 142
3 234 58 100
3 58 45 100
3 100 97 234
3 100 45 14
3 193 210 21
3 193 33 171
3 21 33 193
3 171 252 193
3 252 210 193
3 187 41 63
3 175 201 187
3 187 221 41
3 201 221 187
3 63 96 187
3 96 175 187
3 236 221 219
3 219 221 201
3 219 209 135
3 135 236 219
3 223 209 219
3 219 201 223
3 173 136 188
3 173 222 136
3 188 233 173
3 233 119 173
3 119 222 173
3 148 182 232
3 232 2 148
3 6 2 232
3 182 203 232
3 126 155 44
3 126 44 149
3 183 2 126
3 207 93 183
3 207 126 149
3 183 126 207
3 207 149 146
3 141 55 154
3 55 93 154
3 146 141 154
3 154 207 146
3 93 207 154
3 246 255 104
3 104 16 246
3 110 16 104
3 104 247 110
3 133 85 169
3 85 16 169
3 169 16 205
3 169 107 133
3 205 107 169
3 208 255 246
3 246 90 208
3 235 176 13
3 235 19 180
3 180 176 235
3 124 235 13
3 178 26 24
3 26 3 24
3 89 178 24
3 3 124 24
3 24 13 89
3 24 124 13
3 111 107 96
3 111 96 63
3 63 26 111
3 111 26 178
3 123 27 121
3 123 121 250
3 123 49 131
3 131 27 123
3 250 101 123
3 80 49 123
3 123 101 80
3 255 208 20
3 199 33 64
3 164 33 199
3 37 240 57
3 57 240 197
3 57 197 152
3 152 75 57
3 75 138 57
3 114 252 171
3 114 238 252
3 171 33 114
3 114 33 164
3 114 164 128
3 128 238 114
3 36 195 156
3 36 185 195
3 36 156 37
3 37 57 36
3 36 57 138
3 103 185 36
3 36 138 103
3 66 62 76
3 7 62 66
3 76 159 170
3 159 253 170
3 170 66 76
3 79 66 170
3 87 106 28
3 50 106 87
3 28 55 87
3 55 50 87
3 105 212 98
3 212 84 98
3 94 254 120
3 120 254 17
3 194 94 120
3 172 194 120
3 120 17 172
3 143 179 97
3 97 100 143
3 143 100 14
3 14 108 143
3 108 179 143
3 200 126 2
3 155 126 200
3 200 2 6
3 6 163 200
3 53 220 74
3 246 85 9
3 9 202 246
3 177 90 150
3 150 90 246
3 247 104 166
3 83 247 166
3 166 209 83
3 166 118 209
3 88 4 19
3 19 235 88
3 41 4 88
3 204 161 158
3 158 107 204
3 107 111 204
3 128 164 95
3 164 199 95
3 153 208 90
3 153 20 208
3 229 209 32
3 209 118 32
3 32 38 229
3 64 38 32
3 32 199 64
3 73 66 79
3 73 185 218
3 218 7 73
3 7 66 73
3 195 185 73
3 73 79 195
3 79 170 39
3 68 195 39
3 195 79 39
3 22 68 39
3 39 253 22
3 39 170 253
3 65 103 196
3 218 185 65
3 65 185 103
3 65 84 218
3 65 98 84
3 163 74 125
3 177 150 125
3 125 150 163
3 125 220 177
3 125 74 220
3 53 74 137
3 137 232 53
3 6 232 137
3 137 163 6
3 137 74 163
3 213 44 42
3 44 0 42
3 42 161 213
3 158 161 42
3 155 200 91
3 91 200 163
3 163 150 91
3 118 166 56
3 162 124 3
3 162 3 41
3 41 88 162
3 235 124 162
3 162 88 235
3 161 204 130
3 130 72 167
3 167 213 130
3 213 161 130
3 197 240 10
3 10 240 128
3 128 95 10
3 147 90 177
3 147 153 90
3 147 220 152
3 177 220 147
3 105 98 216
3 98 129 216
3 216 129 203
3 216 106 105
3 203 106 216
3 98 65 225
3 225 129 98
3 225 65 196
3 203 129 225
3 225 196 53
3 53 232 225
3 225 232 203
3 133 158 113
3 158 42 113
3 113 0 202
3 113 42 0
3 155 91 160
3 44 155 160
3 160 0 44
3 102 91 150
3 246 202 102
3 102 150 246
3 102 160 91
3 202 0 102
3 0 160 102
3 118 56 67
3 20 10 67
3 67 10 95
3 134 56 166
3 134 104 255
3 134 166 104
3 255 20 134
3 20 67 134
3 134 67 56
3 122 130 204
3 178 15 122
3 122 15 71
3 122 111 178
3 122 204 111
3 71 72 122
3 72 130 122
3 152 197 206
3 206 147 152
3 153 147 206
3 197 10 206
3 20 153 206
3 206 10 20
3 8 85 133
3 133 113 8
3 8 9 85
3 202 9 8
3 8 113 202
3 118 67 157
3 157 67 95
3 157 32 118
3 157 95 199
3 199 32 157