ply
format ascii 1.0
comment https://github.com/mikedh/trimesh
element vertex 256
property float x
property float y
property float z
element face 508
property list uchar int vertex_indices
end_header
-3.27015471 -1.29563451 0.55717927
1.25346231 2.33143067 0.17008589
-3.46335244 -0.52474201 -1.19904613
-0.25632235 0.46239161 2.70128393
1.61395681 0.37580013 2.48167539
-1.25773668 1.79884112 1.66600347
-3.08599353 -1.13506949 -1.16891122
1.42108715 0.43174863 -2.52658486
-2.63826489 -1.62694645 0.95358199
-2.27630639 -1.85460901 0.88060194
1.17774057 -2.33524847 -0.31051850
3.86903596 -0.43312058 0.32849601
0.87814641 1.26731372 -2.28368092
-0.41085672 1.07293367 2.46458387
3.14650917 1.28997028 -0.84520787
-2.69833994 0.86960369 1.76664078
-1.39794731 -1.88369834 1.48653543
0.59883010 2.30847597 -0.86575896
1.14870608 2.16931748 1.03099918
1.36585951 0.93006641 2.36808205
-0.05968975 -2.46050429 0.12241747
3.36673784 -1.19638300 0.55560404
3.55519629 -0.24587344 -1.18092930
2.27285719 1.23393083 1.78524971
-0.69073635 0.79995704 2.56319618
1.78986967 1.58611786 -1.70149195
-1.18398428 0.33694890 2.60390568
-3.33669829 1.21562183 0.59057671
-2.43289614 0.43502709 -2.11939120
1.10244203 1.77519727 -1.75019312
3.70213509 0.24140793 0.93838865
3.43663168 0.38549137 1.29794538
1.75728858 -2.01373839 1.01183689
2.95749998 -1.63668716 0.01919969
2.76838255 1.62827229 0.74760681
1.61507320 1.08536112 -2.20431185
1.19363558 -1.50003076 -2.02304006
1.57649755 -1.75913060 -1.58674788
2.43668771 -1.55277932 1.30358219
3.05454779 -0.08768456 -1.75091875
-2.01075792 1.25208557 1.91657186
0.69111961 -0.07209764 2.71238303
-3.34447622 -1.02818418 0.92354643
3.18319654 -1.07413149 1.11259508
-3.76860189 -0.61431760 0.49161905
3.30199456 1.33776093 -0.26296139
1.53731000 -0.14205396 2.53480458
2.13682604 2.04314137 0.39487210
1.85259569 -0.50290632 2.36930513
-2.99116802 1.61188304 -0.06145366
-2.56645942 1.10154819 -1.69776189
0.11161166 2.29476595 0.99577010
0.21017653 1.97101212 1.64656401
-1.31381106 -1.26715279 -2.17967582
1.88380003 0.08537675 2.42196560
-3.00665808 0.71439356 -1.60501981
0.76673621 -2.27533078 0.91065353
0.98029256 -1.97507060 -1.49770308
2.80067134 1.73807371 0.10220838
2.07615399 1.27616465 -1.86291587
1.25815308 2.27247643 0.60327083
2.58012795 -1.38149154 -1.40712833
2.00382781 0.86027515 -2.17330575
-0.90279043 -0.36276701 2.65338159
2.73946643 -1.65014207 0.74053466
-0.23387463 -0.73811775 -2.62478256
2.31693101 0.21200983 -2.22255135
0.98126829 -2.34074259 0.51511800
3.26504421 -0.64573437 -1.38099980
-1.10999668 1.80725014 -1.70545626
3.88752866 0.28659537 0.41106528
-3.53043818 0.67539179 0.99173898
-3.68597460 0.28139925 0.95618910
2.18932796 -0.13196774 -2.29210043
-1.77224398 -1.77287638 -1.46212673
-0.30756563 -1.88144946 -1.76488137
2.69877410 0.70627463 -1.85589540
2.72034287 -0.20347285 1.98983538
2.44797087 0.41893223 2.11419129
2.59256673 -0.10623210 -2.07959056
-2.27178979 2.01707196 0.01142294
-0.88179189 1.08254409 -2.39799452
3.57783580 0.93453860 0.54577613
0.74662840 -1.88128877 1.70019794
0.43301833 -0.21277270 -2.72935200
-2.01637888 -1.77292073 1.30093932
0.61297947 1.53463650 -2.11280417
-2.38591838 0.83738220 -1.99036336
1.15113318 0.53025067 2.56977034
-1.19149697 0.98257416 2.38738823
-1.64238417 -2.24077535 -0.00711511
-3.02179074 -1.57834721 -0.22129232
-0.65687656 1.32727456 2.27669072
-3.66644073 0.27871817 -0.99168175
-0.77835709 2.34350467 -0.65088171
1.59156489 -2.25084162 0.15578914
-1.38088155 -0.53996664 2.51154089
2.03664804 2.01852298 -0.69325918
-0.09741229 -0.18184520 -2.74768114
3.24876237 -0.12003078 1.57023776
2.85713029 1.66100276 -0.43087572
-2.10803699 2.05424356 0.39363897
-3.03111434 -1.56210625 0.29294977
0.12950692 -1.33913147 -2.31177855
-0.65432256 -2.14827776 1.26724744
-0.74273592 0.61020696 -2.61926913
-1.83878112 0.90273440 -2.22149611
-1.83071589 -0.96421540 2.19289327
2.28869438 1.51666260 -1.47508144
1.54126620 1.79257059 1.55541432
-0.86326712 -1.97141469 1.53891194
-1.94217527 -0.01496520 2.40164042
3.43707347 1.01058507 -0.76900220
-3.01921988 -1.29932559 1.03102314
2.75741649 -1.71082902 -0.49509802
1.37510180 0.83017558 -2.41249919
3.83921218 -0.26381457 -0.60463566
3.93076324 -0.24774483 -0.18354364
1.23870003 -2.16736889 0.98282778
-1.40943837 2.25305319 -0.52635998
-0.21565920 2.35982990 -0.77368724
-3.04242778 1.35606396 0.89779353
-2.87805176 0.47880200 1.81541467
-2.85611296 1.61741769 0.60487521
-0.08293312 0.79381913 2.60904217
-2.06809902 -1.88322341 -1.03965926
-3.80734611 -0.59807694 -0.35189375
-0.57530636 -1.47172093 -2.17269087
2.19567108 -1.97541833 -0.60798711
-1.20120037 0.01055254 -2.62658286
-3.19766545 -0.02611529 1.62608635
-3.38103724 1.28076398 0.03479840
3.12579656 0.35613373 1.64386034
-2.39210391 -1.20647943 1.73301518
0.19587846 -2.31258941 0.93690360
1.88216329 -1.30380690 1.93615103
-2.52642345 1.47224617 -1.33681226
-2.63668776 -1.30844486 -1.44314814
0.54548907 -1.64030564 -2.02032661
-1.44715142 2.26819706 0.36773762
-1.98216939 1.60209513 1.57376814
-3.21108603 1.02974319 -1.12674272
1.18047011 2.25023651 -0.76176769
2.67838955 1.66694593 -0.80002463
1.38410795 2.06798244 -1.14639914
0.06161569 2.42326999 0.48765302
-3.68316436 0.78259152 -0.50341022
-0.57194632 -2.35873127 -0.68289393
-3.13731861 0.11292634 -1.67672443
-3.91556859 0.08966807 0.39691249
-2.58057356 -1.83538985 -0.38532889
3.34481549 1.03883326 0.90691704
-0.20465051 -2.08783817 -1.45449185
-0.49335882 -2.42635679 -0.32766041
-3.62668824 0.60721308 -0.87048084
-3.53663945 -1.06927013 -0.32116953
2.07367015 -1.56746364 -1.56105244
1.52637219 -2.19018888 0.67662555
-2.72749043 -0.81996566 1.77506506
2.90870333 0.88539654 -1.58615100
-3.30054641 -1.35911095 0.05306398
-3.18802071 -0.46047756 1.55119336
0.25645828 0.45472941 2.70321846
-2.54383445 -1.63628078 -1.05141068
2.49051857 -1.90473473 -0.21527910
3.94275165 -0.07131152 0.23298275
0.63952160 -2.16029048 1.24610174
-3.78203058 -0.22258684 0.77553380
2.07738376 1.91986227 0.94427723
-1.86500490 -1.46146154 1.79902375
3.00123191 0.22662681 -1.77944946
3.14501667 -1.45935035 -0.36869976
0.47986493 2.06445336 -1.46659148
-2.13752747 1.86619961 -1.00983334
3.28916168 -0.61871797 1.36822689
-1.26581669 -1.01532829 2.35127449
0.04328919 1.43445337 2.24036074
-1.94518518 -2.04302192 -0.73247415
-1.44294345 0.65890598 2.45906258
2.03769541 1.88727081 -1.05944490
0.84717751 1.46165061 2.13903356
-3.63560486 0.83994848 0.55488729
-2.78304696 0.12851085 -1.95483601
-3.79552960 -0.37207797 -0.66398609
3.65680552 0.62194985 -0.79413259
1.33911228 -0.85027385 -2.41337061
-0.81357986 2.11690640 1.28937960
-0.36348128 -0.76517838 2.60806751
-2.68437719 1.67439294 -0.76948619
2.52214479 -1.17002070 1.67213702
2.54215527 1.53428054 1.23026443
0.16943090 1.42035055 -2.24823308
-2.69038463 1.13769817 1.57057548
3.44209576 -1.18683159 -0.29888484
-0.01023041 2.01263475 -1.58879089
2.55380487 -1.00874615 -1.77811277
-0.91801620 -1.08860838 -2.38797116
0.61951965 -2.22569656 -1.09708500
-0.13103901 1.69057262 -2.00231028
2.33907080 -1.92266059 0.56181359
-3.23590875 -1.23561645 -0.78298485
0.27360970 -1.16204536 2.42273545
-2.86154008 -1.60502720 0.63214678
-2.02089787 0.13196762 -2.36520743
-2.57096267 -0.02542861 2.09598064
-1.17630196 -1.42051232 2.09739184
-0.01171104 -2.33959723 -0.86068749
-3.90271688 0.16704147 -0.42662257
-1.08808637 -2.35069966 0.31433848
1.21018732 -1.74101186 1.75816953
3.67867923 -0.90143090 -0.14803791
3.79370975 0.64594263 0.31800649
0.50012368 0.31286961 -2.71225071
-3.60900545 -0.54092544 0.95773798
2.82867479 -0.65184152 1.78496885
1.80698752 1.34522760 1.93651426
-1.06808555 0.34605828 -2.62542343
3.17634010 0.95944887 -1.24800563
0.90733540 -0.45896849 -2.63296461
0.92873454 -1.18146610 2.33117318
-0.93655604 -1.90769947 -1.61600232
1.13198459 -0.55352634 2.56700158
-1.77779448 1.85965216 -1.31647718
-0.01236083 -1.59188151 2.10296702
3.45768666 1.18186104 0.22773147
-1.08634531 -0.62133092 -2.55742526
-1.31024182 2.21168661 0.80011678
-0.68614268 2.42441344 0.07294111
0.85060978 2.40120840 -0.15112948
1.91013587 -1.69643795 1.49013436
2.21932340 -0.26985791 2.26181126
-1.91095066 1.57572019 -1.64779770
-3.18352795 -0.46330196 -1.55452251
-1.83790374 2.16097331 -0.33287132
2.20299435 2.03972077 -0.18667659
0.19801286 1.07202518 2.47751999
1.65299189 -0.95564914 2.26429677
3.63413668 -0.51924711 -0.92762697
2.56175256 -1.71744013 -0.84957814
-0.31765589 1.77240109 1.90118170
1.75343239 -2.04406905 -0.93581688
-1.30157983 1.54117787 1.94919670
2.03921103 1.58215225 1.56374490
3.87378740 0.41339263 -0.33451915
3.55452299 -0.80130023 0.81828111
0.35681349 1.85254729 -1.79888833
-1.84939170 -2.11177325 0.59480679
0.15759622 -1.90467310 1.74339736
3.57075453 1.02530587 -0.31657648
0.77939445 2.31479859 0.76941431
-2.24880862 1.86582828 0.88530684
-0.97170436 1.52876902 -2.05258989
3.23021460 -1.21336102 -0.83437037
3.40069818 0.36293229 -1.35175729
-0.03045686 2.45251727 -0.24499457
-0.70535004 -2.32901907 0.74719620
3 135 229 189
3 110 247 223
3 223 247 83
3 30 31 99
3 209 229 135
3 209 223 83
3 38 189 229
3 64 43 38
3 38 43 189
3 94 194 69
3 149 181 146
3 80 233 188
3 146 181 131
3 146 131 141
3 141 131 188
3 110 223 205
3 237 68 22
3 172 144 29
3 198 86 191
3 191 251 198
3 69 194 198
3 198 251 69
3 51 226 186
3 23 78 132
3 99 31 132
3 19 78 23
3 165 30 11
3 23 190 242
3 159 76 59
3 59 108 159
3 248 184 112
3 243 184 248
3 211 243 248
3 248 224 211
3 211 224 82
3 82 30 211
3 34 224 58
3 234 47 58
3 58 47 34
3 21 43 64
3 174 30 99
3 135 189 236
3 46 48 230
3 227 94 119
3 167 149 44
3 44 213 167
3 49 80 188
3 188 131 49
3 136 141 188
3 182 55 28
3 148 55 182
3 250 226 101
3 180 109 52
3 186 239 52
3 52 51 186
3 72 149 167
3 181 149 72
3 72 71 181
3 121 140 250
3 107 158 133
3 96 107 175
3 175 107 205
3 68 237 252
3 252 61 68
3 68 61 195
3 61 156 195
3 245 198 194
3 86 198 245
3 245 194 172
3 172 29 245
3 245 29 86
3 59 76 62
3 191 86 12
3 86 29 12
3 81 251 191
3 191 105 81
3 212 105 191
3 191 12 212
3 203 182 28
3 17 144 172
3 60 47 1
3 1 47 234
3 168 190 34
3 34 47 168
3 109 242 168
3 168 242 190
3 168 47 60
3 227 226 145
3 226 51 145
3 145 1 228
3 109 168 18
3 18 168 60
3 18 52 109
3 51 52 18
3 180 19 215
3 215 19 23
3 23 242 215
3 215 109 180
3 215 242 109
3 78 19 4
3 4 41 46
3 70 243 211
3 70 165 243
3 211 30 70
3 30 165 70
3 116 237 22
3 22 184 116
3 116 184 243
3 25 29 144
3 25 108 59
3 25 12 29
3 217 108 14
3 217 159 108
3 217 14 112
3 112 184 217
3 253 184 22
3 253 217 184
3 159 217 253
3 112 14 45
3 45 248 112
3 224 248 45
3 45 58 224
3 151 224 34
3 151 82 224
3 34 190 151
3 151 190 23
3 31 30 151
3 30 82 151
3 23 132 151
3 151 132 31
3 210 252 237
3 237 116 210
3 43 21 244
3 244 174 43
3 244 210 11
3 21 210 244
3 11 30 244
3 30 174 244
3 214 236 189
3 48 236 214
3 214 230 48
3 189 43 214
3 43 174 214
3 214 174 99
3 201 205 223
3 201 175 205
3 221 236 48
3 46 41 221
3 221 48 46
3 78 230 77
3 99 132 77
3 77 132 78
3 77 214 99
3 230 214 77
3 222 94 69
3 222 119 94
3 69 251 231
3 231 222 69
3 136 222 231
3 141 136 50
3 50 55 141
3 136 231 50
3 93 55 148
3 148 2 93
3 93 2 183
3 16 85 246
3 110 205 16
3 220 75 152
3 233 80 139
3 80 101 139
3 227 119 139
3 139 119 233
3 139 226 227
3 139 101 226
3 180 52 176
3 176 52 239
3 63 41 3
3 3 26 63
3 89 13 92
3 92 241 89
3 13 176 92
3 239 241 92
3 92 176 239
3 5 239 186
3 5 241 239
3 140 241 5
3 186 226 5
3 5 226 250
3 250 140 5
3 40 178 89
3 40 15 178
3 89 241 40
3 40 241 140
3 181 71 27
3 71 121 27
3 27 131 181
3 140 121 192
3 192 40 140
3 15 40 192
3 71 15 192
3 192 121 71
3 33 21 64
3 37 156 240
3 61 252 238
3 128 240 238
3 238 156 61
3 238 240 156
3 127 220 53
3 75 220 127
3 53 196 127
3 196 103 127
3 127 138 75
3 103 138 127
3 106 81 105
3 106 203 28
3 106 50 231
3 251 81 106
3 106 231 251
3 84 7 218
3 84 212 7
3 7 212 115
3 115 212 12
3 115 62 7
3 228 17 254
3 254 94 227
3 227 145 254
3 254 145 228
3 249 18 60
3 51 18 249
3 249 145 51
3 60 1 249
3 1 145 249
3 54 230 78
3 78 4 54
3 46 230 54
3 54 4 46
3 243 165 117
3 117 116 243
3 117 165 11
3 11 210 117
3 117 210 116
3 179 25 144
3 108 25 179
3 144 97 179
3 35 25 59
3 12 25 35
3 35 115 12
3 59 62 35
3 62 115 35
3 142 17 228
3 234 97 142
3 144 17 142
3 142 97 144
3 142 1 234
3 228 1 142
3 234 58 100
3 58 45 100
3 100 97 234
3 100 45 14
3 193 210 21
3 193 33 171
3 21 33 193
3 171 252 193
3 252 210 193
3 187 41 63
3 175 201 187
3 187 221 41
3 201 221 187
3 63 96 187
3 96 175 187
3 236 221 219
3 219 221 201
3 219 209 135
3 135 236 219
3 223 209 219
3 219 201 223
3 173 136 188
3 173 222 136
3 188 233 173
3 233 119 173
3 119 222 173
3 148 182 232
3 232 2 148
3 6 2 232
3 182 203 232
3 126 155 44
3 126 44 149
3 183 2 126
3 207 93 183
3 207 126 149
3 183 126 207
3 207 149 146
3 141 55 154
3 55 93 154
3 146 141 154
3 154 207 146
3 93 207 154
3 246 255 104
3 104 16 246
3 110 16 104
3 104 247 110
3 133 85 169
3 85 16 169
3 169 16 205
3 169 107 133
3 205 107 169
3 208 255 246
3 246 90 208
3 235 176 13
3 235 19 180
3 180 176 235
3 124 235 13
3 178 26 24
3 26 3 24
3 89 178 24
3 3 124 24
3 24 13 89
3 24 124 13
3 111 107 96
3 111 96 63
3 63 26 111
3 111 26 178
3 123 27 121
3 123 121 250
3 123 49 131
3 131 27 123
3 250 101 123
3 80 49 123
3 123 101 80
3 255 208 20
3 199 33 64
3 164 33 199
3 37 240 57
3 57 240 197
3 57 197 152
3 152 75 57
3 75 138 57
3 114 252 171
3 114 238 252
3 171 33 114
3 114 33 164
3 114 164 128
3 128 238 114
3 36 195 156
3 36 185 195
3 36 156 37
3 37 57 36
3 36 57 138
3 103 185 36
3 36 138 103
3 66 62 76
3 7 62 66
3 76 159 170
3 159 253 170
3 170 66 76
3 79 66 170
3 87 106 28
3 50 106 87
3 28 55 87
3 55 50 87
3 105 212 98
3 212 84 98
3 94 254 120
3 120 254 17
3 194 94 120
3 172 194 120
3 120 17 172
3 143 179 97
3 97 100 143
3 143 100 14
3 14 108 143
3 108 179 143
3 200 126 2
3 155 126 200
3 200 2 6
3 6 163 200
3 53 220 74
3 246 85 9
3 9 202 246
3 177 90 150
3 150 90 246
3 247 104 166
3 83 247 166
3 166 209 83
3 166 118 209
3 88 4 19
3 19 235 88
3 41 4 88
3 204 161 158
3 158 107 204
3 107 111 204
3 128 164 95
3 164 199 95
3 153 208 90
3 153 20 208
3 229 209 32
3 209 118 32
3 32 38 229
3 64 38 32
3 32 199 64
3 73 66 79
3 73 185 218
3 218 7 73
3 7 66 73
3 195 185 73
3 73 79 195
3 79 170 39
3 68 195 39
3 195 79 39
3 22 68 39
3 39 253 22
3 39 170 253
3 65 103 196
3 218 185 65
3 65 185 103
3 65 84 218
3 65 98 84
3 163 74 125
3 177 150 125
3 125 150 163
3 125 220 177
3 125 74 220
3 53 74 137
3 137 232 53
3 6 232 137
3 137 163 6
3 137 74 163
3 213 44 42
3 44 0 42
3 42 161 213
3 158 161 42
3 155 200 91
3 91 200 163
3 163 150 91
3 118 166 56
3 162 124 3
3 162 3 41
3 41 88 162
3 235 124 162
3 162 88 235
3 161 204 130
3 130 72 167
3 167 213 130
3 213 161 130
3 197 240 10
3 10 240 128
3 128 95 10
3 147 90 177
3 147 153 90
3 147 220 152
3 177 220 147
3 105 98 216
3 98 129 216
3 216 129 203
3 216 106 105
3 203 106 216
3 98 65 225
3 225 129 98
3 225 65 196
3 203 129 225
3 225 196 53
3 53 232 225
3 225 232 203
3 133 158 113
3 158 42 113
3 113 0 202
3 113 42 0
3 155 91 160
3 44 155 160
3 160 0 44
3 102 91 150
3 246 202 102
3 102 150 246
3 102 160 91
3 202 0 102
3 0 160 102
3 118 56 67
3 20 10 67
3 67 10 95
3 134 56 166
3 134 104 255
3 134 166 104
3 255 20 134
3 20 67 134
3 134 67 56
3 122 130 204
3 178 15 122
3 122 15 71
3 122 111 178
3 122 204 111
3 71 72 122
3 72 130 122
3 152 197 206
3 206 147 152
3 153 147 206
3 197 10 206
3 20 153 206
3 206 10 20
3 8 85 133
3 133 113 8
3 8 9 85
3 202 9 8
3 8 113 202
3 118 67 157
3 157 67 95
3 157 32 118
3 157 95 199
3 199 32 157