ply
format ascii 1.0
comment https://github.com/mikedh/trimesh
element vertex 256
property float x
property float y
property float z
element face 508
property list uchar int vertex_indices
end_header
-3.74840164 -0.71463168 0.25706750
1.43677604 1.28594470 0.07847305
-3.96985364 -0.28943136 -0.55320758
-0.29380846 0.25504082 1.24629951
1.84999132 0.20727967 1.14497817
-1.44167542 0.99218488 0.76864910
-3.53730750 -0.62606901 -0.53930414
1.62891531 0.23813912 -1.16569817
-3.02410030 -0.89737308 0.43995702
-2.60920691 -1.02294469 0.40628600
1.34998024 -1.28805041 -0.14326487
4.43486691 -0.23889585 0.15155920
1.00657177 0.69901085 -1.05362880
-0.47094283 0.59179688 1.13709259
3.60667324 0.71150750 -0.38995612
-3.09296107 0.47964635 0.81508040
-1.60239148 -1.03898942 0.68584740
0.68640655 1.27328348 -0.39943784
1.31669962 1.19652808 0.47567523
1.56561089 0.51299572 1.09256923
-0.06841913 -1.35713768 0.05648012
3.85910940 -0.65988767 0.25634074
4.07512903 -0.13561615 -0.54484892
2.60525322 0.68059790 0.82366610
-0.79175377 0.44123143 1.18258965
2.05163074 0.87485331 -0.78502250
-1.35713708 0.18585053 1.20137191
-3.82467699 0.67049921 0.27247617
-2.78869724 0.23994742 -0.97782993
1.26366973 0.97914362 -0.80749196
4.24355745 0.13315311 0.43294722
3.93922520 0.21262506 0.59883702
2.01428485 -1.11071551 0.46683425
3.39002228 -0.90274578 0.00885822
3.17324710 0.89810437 0.34492564
1.85127103 0.59865141 -1.01701009
1.36819983 -0.82737029 -0.93337613
1.80705380 -0.97028172 -0.73208272
2.79304338 -0.85646480 0.60143769
3.50126290 -0.04836408 -0.80782670
-2.30482292 0.69061148 0.88425457
0.79219306 -0.03976681 1.25142050
-3.83359218 -0.56711441 0.42609942
3.64872599 -0.59245753 0.51332140
-4.31974459 -0.33883849 0.22681978
3.78489757 0.73786730 -0.12132329
1.76213539 -0.07835255 1.16949058
2.44932795 1.12693322 0.18218336
2.12353039 -0.27738747 1.09313345
-3.42861414 0.88906461 -0.02835306
-2.94179368 0.60757977 -0.78330159
0.12793441 1.26572156 0.45942149
0.24091399 1.08714902 0.75968027
-1.50595057 -0.69892204 -1.00564373
2.15929818 0.04709116 1.11742961
-3.44636941 0.39403728 -0.74051291
0.87886828 -1.25500166 0.42015100
1.12365639 -1.08938754 -0.69099981
3.21025825 0.95866740 0.04715619
2.37978315 0.70389277 -0.85949922
1.44215286 1.25342739 0.27833292
2.95746112 -0.76198781 -0.64921111
2.29687929 0.47450104 -1.00270474
-1.03481984 -0.20009100 1.22419882
3.14010239 -0.91016710 0.34166273
-0.26807785 -0.40712279 -1.21100390
2.65577245 0.11693803 -1.02542520
1.12477481 -1.29108083 0.23766157
3.74254346 -0.35616702 -0.63715607
-1.27232909 0.99682301 -0.78685153
4.45606375 0.15807709 0.18965444
-4.04675055 0.37252513 0.45756164
-4.22503328 0.15521108 0.44115987
2.50950813 -0.07278930 -1.05751336
-2.03142738 -0.97786349 -0.67458588
-0.35254586 -1.03774905 -0.81426871
3.09345889 0.38955912 -0.85626012
3.11818194 -0.11222930 0.91805643
2.80597639 0.23106998 0.97543091
2.97171903 -0.05859432 -0.95946699
-2.60402989 1.11255419 0.00527024
-1.01075029 0.59709764 -1.10637009
4.10107994 0.51546246 0.25180638
0.85581976 -1.03766036 0.78442550
0.49634549 -0.11735881 -1.25924945
-2.31126618 -0.97788793 0.60021836
0.70262522 0.84645784 -0.97479087
-2.73484921 0.46187398 -0.91829997
1.31948173 0.29246980 1.18562281
-1.36574841 0.54195738 1.10147655
-1.88257623 -1.23594201 -0.00328272
-3.46371531 -0.87056726 -0.10209831
-0.75294203 0.73208338 1.05040371
-4.20264244 0.15373227 -0.45753524
-0.89218861 1.29260433 -0.30029926
1.82432473 -1.24149418 0.07187691
-1.58282983 -0.29782882 1.15875733
2.33449936 1.11335456 -0.31985110
-0.11165843 -0.10030016 -1.26770604
3.72388053 -0.06620525 0.72446537
3.27497387 0.91615748 -0.19879445
-2.41632867 1.13305688 0.18161441
-3.47440243 -0.86160922 0.13515913
0.14844677 -0.73862326 -1.06659234
-0.75001454 -1.18492317 0.58467376
-0.85135800 0.33657119 -1.20846021
-2.10769534 0.49792022 -1.02493846
-2.09845066 -0.53183120 1.01174176
2.62340665 0.83654392 -0.68056285
1.76666999 0.98872626 0.71762627
-0.98951638 -1.08737111 0.71001250
-2.22621059 -0.00825434 1.10805213
3.93973136 0.55740732 -0.35479689
-3.46076846 -0.71666765 0.47568631
3.16067743 -0.94364005 -0.22842488
1.57620478 0.45789903 -1.11306202
4.40068150 -0.14551193 -0.27896258
4.50562143 -0.13664834 -0.08468208
1.41985476 -1.19545329 0.45345026
-1.61556292 1.24271405 -0.24284829
-0.24719848 1.30160880 -0.35695845
-3.48737025 0.74796271 0.41421774
-3.29895496 0.26409230 0.83758342
-3.27380776 0.89211732 0.27907312
-0.09506176 0.43784595 1.20374179
-2.37055016 -1.03872752 -0.47967079
-4.36415482 -0.32988065 -0.16235431
-0.65944254 -0.81175548 -1.00242102
2.51677895 -1.08957934 -0.28050888
-1.37687111 0.00582045 -1.21183455
-3.66531086 -0.01440438 0.75023240
-3.87549996 0.70642960 0.01605505
3.58293152 0.19643229 0.75843287
-2.74193931 -0.66545653 0.79956645
0.22452489 -1.27555239 0.43226206
2.15742183 -0.71913940 0.89328790
-2.89590263 0.81204522 -0.61676913
-3.02229238 -0.72169751 -0.66582966
0.62526459 -0.90474159 -0.93212426
-1.65879130 1.25106692 0.16966422
-2.27205348 0.88366586 0.72609425
-3.68069434 0.56797433 -0.51984876
1.35310900 1.24116051 -0.35145909
3.07009315 0.91943550 -0.36910981
1.58652806 1.14063478 -0.52891767
0.07062673 1.33660030 0.22498995
-4.22181225 0.43165317 -0.23225991
-0.65559113 -1.30100274 -0.31506887
-3.59613848 0.06228666 -0.77359545
-4.48820448 0.04945812 0.18312472
-2.95797181 -1.01234400 -0.17778037
3.83398104 0.57298815 0.41842708
-0.23457980 -1.15158653 -0.67106330
-0.56551051 -1.33830297 -0.15117368
-4.15707636 0.33491984 -0.40161639
-4.05385828 -0.58977616 -0.14817896
2.37693596 -0.86456418 -0.72022754
1.74959791 -1.20804012 0.31217679
-3.12637472 -0.45226756 0.81896722
3.33408928 0.48835722 -0.73180729
-3.78323770 -0.74964333 0.02448229
-3.65425563 -0.25398511 0.71567881
0.29396427 0.25081462 1.24719214
-2.91585970 -0.90252161 -0.48509252
2.85474658 -1.05059242 -0.09932397
4.51936293 -0.03933322 0.10749196
0.73304904 -1.19154906 0.57491779
-4.33513689 -0.12277199 0.35781038
2.38119245 1.05893636 0.43566409
-2.13775420 -0.80609673 0.83002108
3.44014978 0.12500031 -0.82099003
3.60496259 -0.80493230 -0.17010812
0.55004323 1.13868833 -0.67664582
-2.45013213 1.02933764 -0.46590990
3.77018833 -0.34126559 0.63126302
-1.45093727 -0.56002355 1.08481467
0.04962005 0.79119986 1.03364205
-2.22966051 -1.12686729 -0.33794382
-1.65396798 0.36343205 1.13454521
2.33569980 1.04095995 -0.48879930
0.97107375 0.80620104 0.98689246
-4.16729736 0.46328947 0.25601003
-3.19005609 0.07088259 -0.90190864
-4.35061026 -0.20522664 -0.30634528
4.19159842 0.34304821 -0.36639139
1.53495193 -0.46898460 -1.11346412
-0.93256253 1.16761971 0.59488499
-0.41663894 -0.42204860 1.20329201
-3.07695627 0.92354310 -0.35502020
2.89099813 -0.64534700 0.77147895
2.91393495 0.84626144 0.56761086
0.19420947 0.78342122 -1.03727412
-3.08384252 0.62751895 0.72462118
3.94548821 -0.65461940 -0.13789740
-0.01172657 1.11010671 -0.73302525
2.92728829 -0.55639303 -0.82037330
-1.05227232 -0.60044259 -1.10174549
0.71012187 -1.22762501 -0.50616544
-0.15020293 0.93246728 -0.92381197
2.68115044 -1.06047976 0.25920564
-3.70914698 -0.68152761 -0.36124811
0.31362399 -0.64094806 1.11778486
-3.28002858 -0.88528305 0.29165548
-2.31644583 0.07278924 -1.09124291
-2.94695544 -0.01402563 0.96702898
-1.34833133 -0.78351039 0.96768010
-0.01342373 -1.29044914 -0.39709803
-4.47347307 0.09213488 -0.19683215
-1.24721456 -1.29657280 0.14502729
1.38717222 -0.96028799 0.81117201
4.21667099 -0.49720126 -0.06830070
4.34852457 0.35628188 0.14671962
0.57326472 0.17256916 -1.25135946
-4.13680792 -0.29835767 0.44187447
3.24235678 -0.35953552 0.82353652
2.07125211 0.74198568 0.89345551
-1.22428858 0.19087499 -1.21129954
3.64086676 0.52920216 -0.57579613
1.04002953 -0.25315276 -1.21477890
1.06455815 -0.65165997 1.07554054
-1.07352352 -1.05222774 -0.74557990
1.29753280 -0.30530792 1.18434536
-2.03778958 1.02572632 -0.60738707
-0.01416854 -0.87803233 0.97025234
3.96335912 0.65187782 0.10506916
-1.24521887 -0.34270680 -1.17992711
-1.50185931 1.21989763 0.36915234
-0.78648823 1.33723116 0.03365306
0.97500795 1.32443190 -0.06972707
2.18948555 -0.93570244 0.68750781
2.54389048 -0.14884524 1.04353869
-2.19041944 0.86911827 -0.76024944
-3.64910603 -0.25554296 -0.71721476
-2.10668969 1.19192576 -0.15357786
2.52517319 1.12504661 -0.08612755
0.22697143 0.59129578 1.14306092
1.89473510 -0.52710634 1.04468548
4.16561413 -0.28640056 -0.42798206
2.93639827 -0.94728655 -0.39197245
-0.36411178 0.97760135 0.87715399
2.00986457 -1.12744498 -0.43176070
-1.49193060 0.85006583 0.89930683
2.33743739 0.87266600 0.72146976
4.44031286 0.22801451 -0.15433812
4.07435751 -0.44197229 0.37753284
0.40899602 1.02180743 -0.82995856
-2.11985779 -1.16478848 0.27442783
0.18064402 -1.05055845 0.80435658
4.09296274 0.56552684 -0.14605986
0.89337766 1.27677083 0.35498703
-2.57768750 1.02913284 0.40845671
-1.11381221 0.84322149 -0.94700962
3.70262003 -0.66925222 -0.38495600
3.89803648 0.20018217 -0.62366438
-0.03491105 1.35273230 -0.11303389
-0.80850458 -1.28461444 0.34473619
3 135 229 189
3 110 247 223
3 223 247 83
3 30 31 99
3 209 229 135
3 209 223 83
3 38 189 229
3 64 43 38
3 38 43 189
3 94 194 69
3 149 181 146
3 80 233 188
3 146 181 131
3 146 131 141
3 141 131 188
3 110 223 205
3 237 68 22
3 172 144 29
3 198 86 191
3 191 251 198
3 69 194 198
3 198 251 69
3 51 226 186
3 23 78 132
3 99 31 132
3 19 78 23
3 165 30 11
3 23 190 242
3 159 76 59
3 59 108 159
3 248 184 112
3 243 184 248
3 211 243 248
3 248 224 211
3 211 224 82
3 82 30 211
3 34 224 58
3 234 47 58
3 58 47 34
3 21 43 64
3 174 30 99
3 135 189 236
3 46 48 230
3 227 94 119
3 167 149 44
3 44 213 167
3 49 80 188
3 188 131 49
3 136 141 188
3 182 55 28
3 148 55 182
3 250 226 101
3 180 109 52
3 186 239 52
3 52 51 186
3 72 149 167
3 181 149 72
3 72 71 181
3 121 140 250
3 107 158 133
3 96 107 175
3 175 107 205
3 68 237 252
3 252 61 68
3 68 61 195
3 61 156 195
3 245 198 194
3 86 198 245
3 245 194 172
3 172 29 245
3 245 29 86
3 59 76 62
3 191 86 12
3 86 29 12
3 81 251 191
3 191 105 81
3 212 105 191
3 191 12 212
3 203 182 28
3 17 144 172
3 60 47 1
3 1 47 234
3 168 190 34
3 34 47 168
3 109 242 168
3 168 242 190
3 168 47 60
3 227 226 145
3 226 51 145
3 145 1 228
3 109 168 18
3 18 168 60
3 18 52 109
3 51 52 18
3 180 19 215
3 215 19 23
3 23 242 215
3 215 109 180
3 215 242 109
3 78 19 4
3 4 41 46
3 70 243 211
3 70 165 243
3 211 30 70
3 30 165 70
3 116 237 22
3 22 184 116
3 116 184 243
3 25 29 144
3 25 108 59
3 25 12 29
3 217 108 14
3 217 159 108
3 217 14 112
3 112 184 217
3 253 184 22
3 253 217 184
3 159 217 253
3 112 14 45
3 45 248 112
3 224 248 45
3 45 58 224
3 151 224 34
3 151 82 224
3 34 190 151
3 151 190 23
3 31 30 151
3 30 82 151
3 23 132 151
3 151 132 31
3 210 252 237
3 237 116 210
3 43 21 244
3 244 174 43
3 244 210 11
3 21 210 244
3 11 30 244
3 30 174 244
3 214 236 189
3 48 236 214
3 214 230 48
3 189 43 214
3 43 174 214
3 214 174 99
3 201 205 223
3 201 175 205
3 221 236 48
3 46 41 221
3 221 48 46
3 78 230 77
3 99 132 77
3 77 132 78
3 77 214 99
3 230 214 77
3 222 94 69
3 222 119 94
3 69 251 231
3 231 222 69
3 136 222 231
3 141 136 50
3 50 55 141
3 136 231 50
3 93 55 148
3 148 2 93
3 93 2 183
3 16 85 246
3 110 205 16
3 220 75 152
3 233 80 139
3 80 101 139
3 227 119 139
3 139 119 233
3 139 226 227
3 139 101 226
3 180 52 176
3 176 52 239
3 63 41 3
3 3 26 63
3 89 13 92
3 92 241 89
3 13 176 92
3 239 241 92
3 92 176 239
3 5 239 186
3 5 241 239
3 140 241 5
3 186 226 5
3 5 226 250
3 250 140 5
3 40 178 89
3 40 15 178
3 89 241 40
3 40 241 140
3 181 71 27
3 71 121 27
3 27 131 181
3 140 121 192
3 192 40 140
3 15 40 192
3 71 15 192
3 192 121 71
3 33 21 64
3 37 156 240
3 61 252 238
3 128 240 238
3 238 156 61
3 238 240 156
3 127 220 53
3 75 220 127
3 53 196 127
3 196 103 127
3 127 138 75
3 103 138 127
3 106 81 105
3 106 203 28
3 106 50 231
3 251 81 106
3 106 231 251
3 84 7 218
3 84 212 7
3 7 212 115
3 115 212 12
3 115 62 7
3 228 17 254
3 254 94 227
3 227 145 254
3 254 145 228
3 249 18 60
3 51 18 249
3 249 145 51
3 60 1 249
3 1 145 249
3 54 230 78
3 78 4 54
3 46 230 54
3 54 4 46
3 243 165 117
3 117 116 243
3 117 165 11
3 11 210 117
3 117 210 116
3 179 25 144
3 108 25 179
3 144 97 179
3 35 25 59
3 12 25 35
3 35 115 12
3 59 62 35
3 62 115 35
3 142 17 228
3 234 97 142
3 144 17 142
3 142 97 144
3 142 1 234
3 228 1 142
3 234 58 100
3 58 45 100
3 100 97 234
3 100 45 14
3 193 210 21
3 193 33 171
3 21 33 193
3 171 252 193
3 252 210 193
3 187 41 63
3 175 201 187
3 187 221 41
3 201 221 187
3 63 96 187
3 96 175 187
3 236 221 219
3 219 221 201
3 219 209 135
3 135 236 219
3 223 209 219
3 219 201 223
3 173 136 188
3 173 222 136
3 188 233 173
3 233 119 173
3 119 222 173
3 148 182 232
3 232 2 148
3 6 2 232
3 182 203 232
3 126 155 44
3 126 44 149
3 183 2 126
3 207 93 183
3 207 126 149
3 183 126 207
3 207 149 146
3 141 55 154
3 55 93 154
3 146 141 154
3 154 207 146
3 93 207 154
3 246 255 104
3 104 16 246
3 110 16 104
3 104 247 110
3 133 85 169
3 85 16 169
3 169 16 205
3 169 107 133
3 205 107 169
3 208 255 246
3 246 90 208
3 235 176 13
3 235 19 180
3 180 176 235
3 124 235 13
3 178 26 24
3 26 3 24
3 89 178 24
3 3 124 24
3 24 13 89
3 24 124 13
3 111 107 96
3 111 96 63
3 63 26 111
3 111 26 178
3 123 27 121
3 123 121 250
3 123 49 131
3 131 27 123
3 250 101 123
3 80 49 123
3 123 101 80
3 255 208 20
3 199 33 64
3 164 33 199
3 37 240 57
3 57 240 197
3 57 197 152
3 152 75 57
3 75 138 57
3 114 252 171
3 114 238 252
3 171 33 114
3 114 33 164
3 114 164 128
3 128 238 114
3 36 195 156
3 36 185 195
3 36 156 37
3 37 57 36
3 36 57 138
3 103 185 36
3 36 138 103
3 66 62 76
3 7 62 66
3 76 159 170
3 159 253 170
3 170 66 76
3 79 66 170
3 87 106 28
3 50 106 87
3 28 55 87
3 55 50 87
3 105 212 98
3 212 84 98
3 94 254 120
3 120 254 17
3 194 94 120
3 172 194 120
3 120 17 172
3 143 179 97
3 97 100 143
3 143 100 14
3 14 108 143
3 108 179 143
3 200 126 2
3 155 126 200
3 200 2 6
3 6 163 200
3 53 220 74
3 246 85 9
3 9 202 246
3 177 90 150
3 150 90 246
3 247 104 166
3 83 247 166
3 166 209 83
3 166 118 209
3 88 4 19
3 19 235 88
3 41 4 88
3 204 161 158
3 158 107 204
3 107 111 204
3 128 164 95
3 164 199 95
3 153 208 90
3 153 20 208
3 229 209 32
3 209 118 32
3 32 38 229
3 64 38 32
3 32 199 64
3 73 66 79
3 73 185 218
3 218 7 73
3 7 66 73
3 195 185 73
3 73 79 195
3 79 170 39
3 68 195 39
3 195 79 39
3 22 68 39
3 39 253 22
3 39 170 253
3 65 103 196
3 218 185 65
3 65 185 103
3 65 84 218
3 65 98 84
3 163 74 125
3 177 150 125
3 125 150 163
3 125 220 177
3 125 74 220
3 53 74 137
3 137 232 53
3 6 232 137
3 137 163 6
3 137 74 163
3 213 44 42
3 44 0 42
3 42 161 213
3 158 161 42
3 155 200 91
3 91 200 163
3 163 150 91
3 118 166 56
3 162 124 3
3 162 3 41
3 41 88 162
3 235 124 162
3 162 88 235
3 161 204 130
3 130 72 167
3 167 213 130
3 213 161 130
3 197 240 10
3 10 240 128
3 128 95 10
3 147 90 177
3 147 153 90
3 147 220 152
3 177 220 147
3 105 98 216
3 98 129 216
3 216 129 203
3 216 106 105
3 203 106 216
3 98 65 225
3 225 129 98
3 225 65 196
3 203 129 225
3 225 196 53
3 53 232 225
3 225 232 203
3 133 158 113
3 158 42 113
3 113 0 202
3 113 42 0
3 155 91 160
3 44 155 160
3 160 0 44
3 102 91 150
3 246 202 102
3 102 150 246
3 102 160 91
3 202 0 102
3 0 160 102
3 118 56 67
3 20 10 67
3 67 10 95
3 134 56 166
3 134 104 255
3 134 166 104
3 255 20 134
3 20 67 134
3 134 67 56
3 122 130 204
3 178 15 122
3 122 15 71
3 122 111 178
3 122 204 111
3 71 72 122
3 72 130 122
3 152 197 206
3 206 147 152
3 153 147 206
3 197 10 206
3 20 153 206
3 206 10 20
3 8 85 133
3 133 113 8
3 8 9 85
3 202 9 8
3 8 113 202
3 118 67 157
3 157 67 95
3 157 32 118
3 157 95 199
3 199 32 157