ply
format ascii 1.0
comment https://github.com/mikedh/trimesh
element vertex 256
property float x
property float y
property float z
element face 508
property list uchar int vertex_indices
end_header
-1.88233030 -2.26531339 0.32583088
0.72150409 4.07632017 0.09946392
-1.99353659 -0.91746950 -0.70118594
-0.14754143 0.80845481 1.57967412
0.92900795 0.65705651 1.45125008
-0.72396445 3.14513016 0.97425622
-1.77632546 -1.98457825 -0.68356341
0.81799048 0.75487798 -1.47751260
-1.51860881 -2.84458590 0.55764180
-1.31026232 -3.24263573 0.51496410
0.67791796 -4.08299541 -0.18158701
2.22705173 -0.75727677 0.19210002
0.50546890 2.21579695 -1.33546567
-0.23649280 1.87593889 1.44125533
1.81115878 2.25540996 -0.49426609
-1.55318856 1.52043259 1.03310752
-0.80467099 -3.29349613 0.86930579
0.34469193 4.03618574 -0.50628412
0.66120547 3.79287839 0.60291433
0.78620094 1.62614679 1.38482225
-0.03435795 -4.30199528 0.07158808
1.93792439 -2.09178019 0.32490972
2.04640269 -0.42989007 -0.69059139
1.30827689 2.15742946 1.04398978
-0.39759403 1.39866090 1.49892235
1.03026497 2.77320027 -0.99500936
-0.68151188 0.58912826 1.52272868
-1.92063344 2.12541771 0.34536126
-1.40039670 0.76061016 -1.23939121
0.63457549 3.10379052 -1.02348924
2.13098216 0.42208248 0.54875696
1.97815597 0.67400086 0.75902086
1.01151097 -3.52086091 0.59170848
1.70236337 -2.86161685 0.01122772
1.59350574 2.84690404 0.43719032
0.92965055 1.89766717 -1.28905165
0.68706727 -2.62268400 -1.18304634
0.90744603 -3.07569933 -0.92790866
1.40257919 -2.71491075 0.76231718
1.75822496 -0.15330946 -1.02391350
-1.15741014 2.18917179 1.12078524
0.39781463 -0.12605695 1.58616483
-1.92511046 -1.79769778 0.54007739
1.83227634 -1.87803316 0.65063053
-2.16924095 -1.07408524 0.28749216
1.90065753 2.33896804 -0.15377624
0.88488936 -0.24837001 1.48231936
1.22997606 3.57226968 0.23091586
1.06637061 -0.87929153 1.38553751
-1.72174311 2.81824899 -0.03593727
-1.47727704 1.92596912 -0.99282813
0.06424467 4.01221514 0.58231282
0.12097949 3.44615722 0.96288830
-0.75624138 -2.21551538 -1.27464485
1.08433211 0.14927444 1.41633260
-1.73065925 1.24906003 -0.93859380
0.44134024 -3.97823405 0.53253782
0.56426519 -3.45325327 -0.87583643
1.61209154 3.03888297 0.05977007
1.19505274 2.23127198 -1.08940792
0.72420418 3.97324371 0.35278460
1.48514473 -2.41542768 -0.82286954
1.15342116 1.50412238 -1.27091968
-0.51965421 -0.63426912 1.55166161
1.57686138 -2.88514161 0.43305463
-0.13462032 -1.29053998 -1.53493726
1.33364606 0.37068227 -1.29971778
0.56482679 -4.09260178 0.30123404
1.87938857 -1.12901497 -0.80758995
-0.63892394 3.15983248 -0.99732769
2.23769617 0.50108910 0.24038540
-2.03215170 1.18086863 0.57995552
-2.12168002 0.49200413 0.55916637
1.26019669 -0.23073506 -1.34038925
-1.02011943 -3.09973288 -0.85503185
-0.17703752 -3.28956413 -1.03207862
1.55343854 1.23486483 -1.08530247
1.56585371 -0.35575604 1.16362870
1.40907383 0.73246950 1.23635042
1.49230456 -0.18573834 -1.21611631
-1.30766249 3.52668929 0.00667998
-0.50756729 1.89274192 -1.40231466
2.05943418 1.63396609 0.31916246
0.42976597 -3.28928304 0.99425268
0.24924922 -0.37201607 -1.59608793
-1.16064572 -3.09981036 0.76077169
0.35283646 2.68318939 -1.23553920
-1.37335598 1.46409595 -1.16393745
0.66260254 0.92710096 1.50276685
-0.68583626 1.71795249 1.39611220
-0.94537103 -3.91781688 -0.00416082
-1.73936975 -2.75961423 -0.12940875
-0.37810400 2.32063365 1.33137774
-2.11043596 0.48731646 -0.57992202
-0.44802928 4.09743071 -0.38062677
0.91611898 -3.93541670 0.09110337
-0.79484779 -0.94408858 1.46871507
1.17231274 3.52922630 -0.40540859
-0.05607138 -0.31794181 -1.60680664
1.87001657 -0.20986424 0.91825378
1.64458966 2.90413070 -0.25197029
-1.21340489 3.59168100 0.23019473
-1.74473643 -2.73121810 0.17131306
0.07454534 -2.34136438 -1.35189676
-0.37663391 -3.75609183 0.74106908
-0.42752543 1.06689811 -1.53171301
-1.05841887 1.57835901 -1.29910088
-1.05377650 -1.68585360 1.28237414
1.31739295 2.65176344 -0.86260766
0.88716656 3.13416672 0.90958524
-0.49690425 -3.44686127 0.89993483
-1.11793339 -0.02616546 1.40444672
1.97841012 1.76692736 -0.44970205
-1.73788989 -2.27176714 0.60292840
1.58719349 -2.99124789 -0.28952661
0.79152089 1.45149565 -1.41079676
2.20988488 -0.46125874 -0.35358274
2.26258230 -0.43316203 -0.10733383
0.71300679 -3.78947139 0.57474434
-0.81128526 3.93928361 -0.30780816
-0.12413536 4.12597418 -0.45244181
-1.75124860 2.37096953 0.52501750
-1.65663230 0.83714706 1.06162989
-1.64400411 2.82792568 0.35372284
-0.04773705 1.38792932 1.52573252
-1.19041634 -3.29266572 -0.60797864
-2.19154239 -1.04568982 -0.20578270
-0.33115149 -2.57318640 -1.27056015
1.26384783 -3.45386124 -0.35554263
-0.69142169 0.01845027 -1.53599000
-1.84060478 -0.04566050 0.95091325
-1.94615519 2.23931360 0.02034963
1.79923642 0.62267137 0.96130723
-1.37691641 -2.10943294 1.01344371
0.11274939 -4.04337788 0.54788852
1.08339000 -2.27960229 1.13223481
-1.45423198 2.57410479 -0.78174973
-1.51770091 -2.28771138 -0.84393346
0.31398839 -2.86794353 -1.18145967
-0.83299327 3.96576142 0.21504797
-1.14095438 2.80113530 0.92031831
-1.84832990 1.80042362 -0.65890390
0.67948914 3.93435884 -0.44547141
1.54170501 2.91452169 -0.46784356
0.79670489 3.61570191 -0.67039871
0.03546654 4.23689413 0.28517285
-2.12006235 1.36829877 -0.29438749
-0.32921740 -4.12405300 -0.39934713
-1.80586863 0.19744268 -0.98052573
-2.25383639 0.15677746 0.23210904
-1.48540127 -3.20903277 -0.22533512
1.92530572 1.81631708 0.53035277
-0.11779866 -3.65041828 -0.85056710
-0.28398174 -4.24229097 -0.19161136
-2.08755422 1.06166351 -0.50904542
-2.03572130 -1.86953354 -0.18781559
1.19362307 -2.74058485 -0.91288227
0.87859350 -3.82937050 0.39568144
-1.56996787 -1.43364441 1.03803396
1.67427552 1.54804516 -0.92755955
-1.89982402 -2.37629700 0.03103109
-1.83505321 -0.80510825 0.90711683
0.14761968 0.79505807 1.58080554
-1.46425378 -2.86090636 -0.61485070
1.43356466 -3.33027673 -0.12589230
2.26948309 -0.12468250 0.13624516
0.36811435 -3.77709532 0.72870338
-2.17697048 -0.38917533 0.45352164
1.19576061 3.35672593 0.55220056
-1.07351351 -2.55524874 1.05204475
1.72753596 0.39623889 -1.04059792
1.81029975 -2.55155754 -0.21561061
0.27621454 3.60953212 -0.85764283
-1.23037982 3.26290083 -0.59053689
1.89327085 -1.08177900 0.80012047
-0.72861540 -1.77522051 1.37499332
0.02491764 2.50802708 1.31013262
-1.11966598 -3.57206059 -0.42834094
-0.83057112 1.15204453 1.43802655
1.17291558 3.29974222 -0.61954898
0.48764294 2.55557942 1.25087786
-2.09268665 1.46858287 0.32449055
-1.60194659 0.22469096 -1.14316154
-2.18474078 -0.65054864 -0.38829008
2.10488987 1.08742964 -0.46439797
0.77080500 -1.48663592 -1.41130638
-0.46830383 3.70124149 0.75401169
-0.20922308 -1.33785331 1.52516246
-1.54515147 2.92754245 -0.44998509
1.45176911 -2.04568768 0.97784305
1.46328723 2.68256712 0.71944195
0.09752593 2.48336959 -1.31473625
-1.54860950 1.98917437 0.91845119
1.98130107 -2.07508039 -0.17478380
-0.00588872 3.51893115 -0.92910331
1.46999288 -1.76371217 -1.03981626
-0.52841830 -1.90334487 -1.39645314
0.35660106 -3.89145279 -0.64156044
-0.07542723 2.95583129 -1.17092383
1.34639013 -3.36161852 0.32854098
-1.86261797 -2.16037655 -0.45787892
0.15749219 -2.03174353 1.41678286
-1.64712799 -2.80626178 0.36967087
-1.16324675 0.23073484 -1.38314116
-1.47986901 -0.04445989 1.22570109
-0.67708993 -2.48365235 1.22652626
-0.00674098 -4.09059906 -0.50331837
-2.24643874 0.29205865 -0.24948308
-0.62631226 -4.11001062 0.18382087
0.69659460 -3.04402018 1.02815366
2.11748052 -1.57607996 -0.08657056
2.18369317 1.12937915 0.18596587
0.28787568 0.54702753 -1.58608747
-2.07737589 -0.94576496 0.56007218
1.62821043 -1.13969290 1.04382551
1.04011822 2.35202289 1.13244724
-0.61479956 0.60505527 -1.53531194
1.82832980 1.67751968 -0.72981673
0.52227038 -0.80246979 -1.53972197
0.53458792 -2.06569910 1.36323845
-0.53909004 -3.33546019 -0.94501621
0.65158045 -0.96779662 1.50114775
-1.02331436 3.25145316 -0.76985800
-0.00711500 -2.78327751 1.22978663
1.99027538 2.06638956 0.13317427
-0.62531006 -1.08634746 -1.49554753
-0.75418693 3.86695766 0.46789744
-0.39494985 4.23889351 0.04265497
0.48961857 4.19832087 -0.08837847
1.09949124 -2.96608615 0.87141031
1.27746236 -0.47182503 1.32267654
-1.09996033 2.75502086 -0.96360976
-1.83246720 -0.81004649 -0.90906364
-1.05791378 3.77828956 -0.19465864
1.26806319 3.56628895 -0.10916594
0.11397797 1.87435043 1.44882011
0.95147687 -1.67087626 1.32413006
2.09184146 -0.90786207 -0.54246366
1.47456765 -3.00280690 -0.49682176
-0.18284556 3.09890175 1.11178529
1.00929129 -3.57389164 -0.54725301
-0.74920100 2.69462657 1.13986373
1.17378819 2.76626682 0.91445684
2.22978663 0.72278398 -0.19562225
2.04601526 -1.40100944 0.47851971
0.20538504 3.23903084 -1.05196548
-1.06452644 -3.69226718 0.34783494
0.09071379 -3.33016896 1.01951516
2.05535817 1.79266548 -0.18512963
0.44862640 4.04724026 0.44994304
-1.29443431 3.26225162 0.51771545
-0.55932170 2.67293048 -1.20032668
1.85934031 -2.12146497 -0.48792848
1.95747232 0.63455814 -0.79048932
-0.01753124 4.28803062 -0.14326949
-0.40600580 -4.07210350 0.43695021
3 135 229 189
3 110 247 223
3 223 247 83
3 30 31 99
3 209 229 135
3 209 223 83
3 38 189 229
3 64 43 38
3 38 43 189
3 94 194 69
3 149 181 146
3 80 233 188
3 146 181 131
3 146 131 141
3 141 131 188
3 110 223 205
3 237 68 22
3 172 144 29
3 198 86 191
3 191 251 198
3 69 194 198
3 198 251 69
3 51 226 186
3 23 78 132
3 99 31 132
3 19 78 23
3 165 30 11
3 23 190 242
3 159 76 59
3 59 108 159
3 248 184 112
3 243 184 248
3 211 243 248
3 248 224 211
3 211 224 82
3 82 30 211
3 34 224 58
3 234 47 58
3 58 47 34
3 21 43 64
3 174 30 99
3 135 189 236
3 46 48 230
3 227 94 119
3 167 149 44
3 44 213 167
3 49 80 188
3 188 131 49
3 136 141 188
3 182 55 28
3 148 55 182
3 250 226 101
3 180 109 52
3 186 239 52
3 52 51 186
3 72 149 167
3 181 149 72
3 72 71 181
3 121 140 250
3 107 158 133
3 96 107 175
3 175 107 205
3 68 237 252
3 252 61 68
3 68 61 195
3 61 156 195
3 245 198 194
3 86 198 245
3 245 194 172
3 172 29 245
3 245 29 86
3 59 76 62
3 191 86 12
3 86 29 12
3 81 251 191
3 191 105 81
3 212 105 191
3 191 12 212
3 203 182 28
3 17 144 172
3 60 47 1
3 1 47 234
3 168 190 34
3 34 47 168
3 109 242 168
3 168 242 190
3 168 47 60
3 227 226 145
3 226 51 145
3 145 1 228
3 109 168 18
3 18 168 60
3 18 52 109
3 51 52 18
3 180 19 215
3 215 19 23
3 23 242 215
3 215 109 180
3 215 242 109
3 78 19 4
3 4 41 46
3 70 243 211
3 70 165 243
3 211 30 70
3 30 165 70
3 116 237 22
3 22 184 116
3 116 184 243
3 25 29 144
3 25 108 59
3 25 12 29
3 217 108 14
3 217 159 108
3 217 14 112
3 112 184 217
3 253 184 22
3 253 217 184
3 159 217 253
3 112 14 45
3 45 248 112
3 224 248 45
3 45 58 224
3 151 224 34
3 151 82 224
3 34 190 151
3 151 190 23
3 31 30 151
3 30 82 151
3 23 132 151
3 151 132 31
3 210 252 237
3 237 116 210
3 43 21 244
3 244 174 43
3 244 210 11
3 21 210 244
3 11 30 244
3 30 174 244
3 214 236 189
3 48 236 214
3 214 230 48
3 189 43 214
3 43 174 214
3 214 174 99
3 201 205 223
3 201 175 205
3 221 236 48
3 46 41 221
3 221 48 46
3 78 230 77
3 99 132 77
3 77 132 78
3 77 214 99
3 230 214 77
3 222 94 69
3 222 119 94
3 69 251 231
3 231 222 69
3 136 222 231
3 141 136 50
3 50 55 141
3 136 231 50
3 93 55 148
3 148 2 93
3 93 2 183
3 16 85 246
3 110 205 16
3 220 75 152
3 233 80 139
3 80 101 139
3 227 119 139
3 139 119 233
3 139 226 227
3 139 101 226
3 180 52 176
3 176 52 239
3 63 41 3
3 3 26 63
3 89 13 92
3 92 241 89
3 13 176 92
3 239 241 92
3 92 176 239
3 5 239 186
3 5 241 239
3 140 241 5
3 186 226 5
3 5 226 250
3 250 140 5
3 40 178 89
3 40 15 178
3 89 241 40
3 40 241 140
3 181 71 27
3 71 121 27
3 27 131 181
3 140 121 192
3 192 40 140
3 15 40 192
3 71 15 192
3 192 121 71
3 33 21 64
3 37 156 240
3 61 252 238
3 128 240 238
3 238 156 61
3 238 240 156
3 127 220 53
3 75 220 127
3 53 196 127
3 196 103 127
3 127 138 75
3 103 138 127
3 106 81 105
3 106 203 28
3 106 50 231
3 251 81 106
3 106 231 251
3 84 7 218
3 84 212 7
3 7 212 115
3 115 212 12
3 115 62 7
3 228 17 254
3 254 94 227
3 227 145 254
3 254 145 228
3 249 18 60
3 51 18 249
3 249 145 51
3 60 1 249
3 1 145 249
3 54 230 78
3 78 4 54
3 46 230 54
3 54 4 46
3 243 165 117
3 117 116 243
3 117 165 11
3 11 210 117
3 117 210 116
3 179 25 144
3 108 25 179
3 144 97 179
3 35 25 59
3 12 25 35
3 35 115 12
3 59 62 35
3 62 115 35
3 142 17 228
3 234 97 142
3 144 17 142
3 142 97 144
3 142 1 234
3 228 1 142
3 234 58 100
3 58 45 100
3 100 97 234
3 100 45 14
3 193 210 21
3 193 33 171
3 21 33 193
3 171 252 193
3 252 210 193
3 187 41 63
3 175 201 187
3 187 221 41
3 201 221 187
3 63 96 187
3 96 175 187
3 236 221 219
3 219 221 201
3 219 209 135
3 135 236 219
3 223 209 219
3 219 201 223
3 173 136 188
3 173 222 136
3 188 233 173
3 233 119 173
3 119 222 173
3 148 182 232
3 232 2 148
3 6 2 232
3 182 203 232
3 126 155 44
3 126 44 149
3 183 2 126
3 207 93 183
3 207 126 149
3 183 126 207
3 207 149 146
3 141 55 154
3 55 93 154
3 146 141 154
3 154 207 146
3 93 207 154
3 246 255 104
3 104 16 246
3 110 16 104
3 104 247 110
3 133 85 169
3 85 16 169
3 169 16 205
3 169 107 133
3 205 107 169
3 208 255 246
3 246 90 208
3 235 176 13
3 235 19 180
3 180 176 235
3 124 235 13
3 178 26 24
3 26 3 24
3 89 178 24
3 3 124 24
3 24 13 89
3 24 124 13
3 111 107 96
3 111 96 63
3 63 26 111
3 111 26 178
3 123 27 121
3 123 121 250
3 123 49 131
3 131 27 123
3 250 101 123
3 80 49 123
3 123 101 80
3 255 208 20
3 199 33 64
3 164 33 199
3 37 240 57
3 57 240 197
3 57 197 152
3 152 75 57
3 75 138 57
3 114 252 171
3 114 238 252
3 171 33 114
3 114 33 164
3 114 164 128
3 128 238 114
3 36 195 156
3 36 185 195
3 36 156 37
3 37 57 36
3 36 57 138
3 103 185 36
3 36 138 103
3 66 62 76
3 7 62 66
3 76 159 170
3 159 253 170
3 170 66 76
3 79 66 170
3 87 106 28
3 50 106 87
3 28 55 87
3 55 50 87
3 105 212 98
3 212 84 98
3 94 254 120
3 120 254 17
3 194 94 120
3 172 194 120
3 120 17 172
3 143 179 97
3 97 100 143
3 143 100 14
3 14 108 143
3 108 179 143
3 200 126 2
3 155 126 200
3 200 2 6
3 6 163 200
3 53 220 74
3 246 85 9
3 9 202 246
3 177 90 150
3 150 90 246
3 247 104 166
3 83 247 166
3 166 209 83
3 166 118 209
3 88 4 19
3 19 235 88
3 41 4 88
3 204 161 158
3 158 107 204
3 107 111 204
3 128 164 95
3 164 199 95
3 153 208 90
3 153 20 208
3 229 209 32
3 209 118 32
3 32 38 229
3 64 38 32
3 32 199 64
3 73 66 79
3 73 185 218
3 218 7 73
3 7 66 73
3 195 185 73
3 73 79 195
3 79 170 39
3 68 195 39
3 195 79 39
3 22 68 39
3 39 253 22
3 39 170 253
3 65 103 196
3 218 185 65
3 65 185 103
3 65 84 218
3 65 98 84
3 163 74 125
3 177 150 125
3 125 150 163
3 125 220 177
3 125 74 220
3 53 74 137
3 137 232 53
3 6 232 137
3 137 163 6
3 137 74 163
3 213 44 42
3 44 0 42
3 42 161 213
3 158 161 42
3 155 200 91
3 91 200 163
3 163 150 91
3 118 166 56
3 162 124 3
3 162 3 41
3 41 88 162
3 235 124 162
3 162 88 235
3 161 204 130
3 130 72 167
3 167 213 130
3 213 161 130
3 197 240 10
3 10 240 128
3 128 95 10
3 147 90 177
3 147 153 90
3 147 220 152
3 177 220 147
3 105 98 216
3 98 129 216
3 216 129 203
3 216 106 105
3 203 106 216
3 98 65 225
3 225 129 98
3 225 65 196
3 203 129 225
3 225 196 53
3 53 232 225
3 225 232 203
3 133 158 113
3 158 42 113
3 113 0 202
3 113 42 0
3 155 91 160
3 44 155 160
3 160 0 44
3 102 91 150
3 246 202 102
3 102 150 246
3 102 160 91
3 202 0 102
3 0 160 102
3 118 56 67
3 20 10 67
3 67 10 95
3 134 56 166
3 134 104 255
3 134 166 104
3 255 20 134
3 20 67 134
3 134 67 56
3 122 130 204
3 178 15 122
3 122 15 71
3 122 111 178
3 122 204 111
3 71 72 122
3 72 130 122
3 152 197 206
3 206 147 152
3 153 147 206
3 197 10 206
3 20 153 206
3 206 10 20
3 8 85 133
3 133 113 8
3 8 9 85
3 202 9 8
3 8 113 202
3 118 67 157
3 157 67 95
3 157 32 118
3 157 95 199
3 199 32 157