ply
format ascii 1.0
comment https://github.com/mikedh/trimesh
element vertex 256
property float x
property float y
property float z
element face 508
property list uchar int vertex_indices
end_header
-1.09206033 -0.63789803 0.70880133
0.41859072 1.14786613 0.21637040
-1.15657818 -0.25835365 -1.52533579
-0.08559824 0.22765578 3.43636894
0.53897697 0.18502298 3.15699959
-0.42001814 0.88564885 2.11936355
-1.03056014 -0.55884475 -1.48700047
0.47456864 0.21256889 -3.21413016
-0.88104224 -0.80101752 1.21307480
-0.76016700 -0.91310585 1.12023520
0.39330363 -1.14974582 -0.39501813
1.29205525 -0.21324438 0.41788778
0.29325488 0.62395447 -2.90512609
-0.13720462 0.52825260 3.13525724
1.05076921 0.63510925 -1.07520950
-0.90110409 0.42814425 2.24738669
-0.46684116 -0.92742783 1.89105785
0.19997786 1.13656449 -1.10135305
0.38360763 1.06805062 1.31155908
0.45612550 0.45791271 3.01249480
-0.01993325 -1.21141481 0.15573025
1.12431395 -0.58903211 0.70679748
1.18724930 -0.12105434 -1.50228882
0.75901520 0.60751855 2.27105951
-0.23066975 0.39385414 3.26070428
0.59772265 0.78091580 -2.16450930
-0.39538869 0.16589481 3.31249166
-1.11428237 0.59850425 0.75128698
-0.81245983 0.21418303 -2.69612908
0.36815786 0.87400788 -2.22646332
1.23631918 0.11885577 1.19374704
1.14765489 0.18979441 1.65114796
0.58684230 -0.99145228 1.28718221
0.98764998 -0.80581331 0.02442439
0.92449468 0.80167031 0.95104879
0.53934979 0.53437114 -2.80415869
0.39861172 -0.73853129 -2.57355833
0.52646756 -0.86609757 -2.01854062
0.81372601 -0.76450175 1.65831864
1.02005887 -0.04317098 -2.22738624
-0.67148775 0.61645699 2.43811774
0.23079774 -0.03549685 3.45048857
-1.11687982 -0.50622040 1.17486584
1.06302083 -0.52884233 1.41535926
-1.25851560 -0.30245563 0.62540054
1.10269308 0.65863872 -0.33451957
0.51338100 -0.06993943 3.22458673
0.71358788 1.00592864 0.50232643
0.61866987 -0.24760295 3.01405048
-0.99889338 0.79360116 -0.07817670
-0.85706300 0.54234076 -2.15976429
0.03727245 1.12981451 1.26674342
0.07018795 0.97041625 2.09463429
-0.43874407 -0.62387520 -2.77281857
0.62909049 0.04203474 3.08104134
-1.00406623 0.35172746 -2.04178476
0.25604972 -1.12024570 1.15846455
0.32736635 -0.97241437 -1.90526450
0.93527752 0.85573035 0.13002175
0.69332665 0.62831217 -2.36986065
0.42015719 1.11884046 0.76743555
0.86162752 -0.68016922 -1.79004216
0.66917348 0.42355141 -2.76471519
-0.30148470 -0.17860620 3.37543130
0.91483825 -0.81243777 0.94205213
-0.07810187 -0.36340794 -3.33904982
0.77373350 0.10438179 -2.82736158
0.32769218 -1.15245092 0.65529418
1.09035361 -0.31792352 -1.75680339
-0.37068069 0.88978899 -2.16955233
1.29823077 0.14110354 0.52292615
-1.17898130 0.33252519 1.26161528
-1.23092234 0.13854526 1.21639132
0.73112077 -0.06497354 -2.91583681
-0.59183663 -0.87286526 -1.86000693
-0.10271081 -0.92632055 -2.24514842
0.90124917 0.34773016 -2.36092973
0.90845197 -0.10017867 2.53131795
0.81749398 0.20625882 2.68951440
0.86578143 -0.05230275 -2.64549756
-0.75865877 0.99309355 0.01453140
-0.29447228 0.53298420 -3.05054712
1.19480968 0.46011457 0.69429511
0.24933475 -0.92624146 2.16286302
0.14460543 -0.10475739 -3.47207499
-0.67336488 -0.87288707 1.65495658
0.20470302 0.75556928 -2.68774939
-0.79677171 0.41228020 -2.53198957
0.38441816 0.26106581 3.26906729
-0.39789754 0.48376459 3.03705454
-0.54847026 -1.10323262 -0.00905131
-1.00911975 -0.77708995 -0.28151134
-0.21936235 0.65347582 2.89623356
-1.22439909 0.13722526 -1.26154256
-0.25993046 1.15381074 -0.82800239
0.53149927 -1.10818863 0.19818315
-0.46114209 -0.26584941 3.19499230
0.68013370 0.99380791 -0.88191187
-0.03253060 -0.08953042 -3.49539208
1.08491635 -0.05909645 1.99753773
0.95413178 0.81778497 -0.54812747
-0.70397389 1.01139474 0.50075769
-1.01223338 -0.76909381 0.37266853
0.04324852 -0.65931350 -2.94086981
-0.21850945 -1.05769181 1.61209619
-0.24803486 0.30043182 -3.33203602
-0.61405653 0.44445595 -2.82601929
-0.61136317 -0.47472575 2.78963280
0.76430404 0.74671990 -1.87648702
0.51470214 0.88256162 1.97868049
-0.28828597 -0.97061443 1.95768726
-0.64858478 -0.00736803 3.05518508
1.14780235 0.49755564 -0.97826642
-1.00826120 -0.63971531 1.31158972
0.92083257 -0.84231657 -0.62982625
0.45921195 0.40873206 -3.06899881
1.28209567 -0.12988755 -0.76917171
1.31266892 -0.12197571 -0.23349032
0.41366088 -1.06709135 1.25027919
-0.47067854 1.10927749 -0.66959530
-0.07201887 1.16184831 -0.98422635
-1.01601136 0.66765010 1.14210498
-0.96111846 0.23573534 2.30943322
-0.95379204 0.79632610 0.76947647
-0.02769532 0.39083219 3.31902623
-0.69063675 -0.92719394 -1.32257593
-1.27145410 -0.29445967 -0.44765261
-0.19212218 -0.72459310 -2.76393294
0.73323905 -0.97258562 -0.77343524
-0.40113798 0.00519548 -3.34133983
-1.06785262 -0.01285771 2.06858397
-1.12908924 0.63057661 0.04426789
1.04385221 0.17534034 2.09119463
-0.79883736 -0.59400302 2.20461082
0.06541314 -1.13858974 1.19185781
0.62854391 -0.64192170 2.46302485
-0.84369308 0.72485173 -1.70059144
-0.88051552 -0.64420515 -1.83586383
0.18216476 -0.80759484 -2.57010674
-0.48327273 1.11673343 0.46780795
-0.66194069 0.78878212 2.00202870
-1.07233453 0.50698799 -1.43335688
0.39421517 1.10789073 -0.96906322
0.89444178 0.82071102 -1.01773083
0.46221951 1.01815891 -1.45836234
0.02057641 1.19308269 0.62035525
-1.22998393 0.38530433 -0.64040041
-0.19100010 -1.16130745 -0.86872602
-1.04769993 0.05559862 -2.13300204
-1.30759478 0.04414755 0.50492203
-0.86177635 -0.90364343 -0.49018627
1.11699307 0.51146346 1.15371120
-0.06834254 -1.02793479 -1.85029447
-0.16475599 -1.19460249 -0.41682479
-1.21112382 0.29895777 -1.10735989
-1.18105221 -0.52644885 -0.40856758
0.69249713 -0.77173150 -1.98585272
0.50972831 -1.07832670 0.86075181
-0.91083884 -0.40370527 2.25810361
0.97135448 0.43591979 -2.01778126
-1.10220957 -0.66915029 0.06750397
-1.06463182 -0.22671342 1.97331083
0.08564363 0.22388335 3.43882990
-0.84950739 -0.80561322 -1.33752501
0.83170265 -0.93778497 -0.27386177
1.31667244 -0.03510981 0.29638302
0.21356671 -1.06360626 1.58519638
-1.26300001 -0.10958932 0.98657537
0.69373727 0.94523287 1.20123804
-0.62281388 -0.71954197 2.28858185
1.00225425 0.11157838 -2.26368093
1.05027080 -0.71850258 -0.46903193
0.16024974 1.01642156 -1.86568666
-0.71382213 0.91881239 -1.28463364
1.09840763 -0.30462214 1.74055469
-0.42271644 -0.49989092 2.99111342
0.01445632 0.70624465 2.85001731
-0.64958990 -1.00586975 -0.93179816
-0.48186749 0.32440850 3.12823343
0.68048346 0.92918670 -1.34774566
0.28291288 0.71963507 2.72111654
-1.21410155 0.41354370 0.70588559
-0.92939180 0.06327156 -2.48679447
-1.26750803 -0.18319041 -0.84467286
1.22118139 0.30621335 -1.01023543
0.44719332 -0.41862732 -3.07010746
-0.27169302 1.04224634 1.64025116
-0.12138370 -0.37673107 3.31778598
-0.89644128 0.82437754 -0.97888213
0.84226424 -0.57605278 2.12716627
0.84894663 0.75539398 1.56504941
0.05658104 0.69930124 -2.86003208
-0.89844751 0.56013900 1.99796724
1.14947963 -0.58432955 -0.38021865
-0.00341642 0.99090886 -2.02113938
0.85283697 -0.49665025 -2.26198053
-0.30656931 -0.53596997 -3.03779626
0.20688710 -1.09580863 -1.39562857
-0.04376016 0.83234352 -2.54718757
0.78112710 -0.94661063 0.71469676
-1.08062387 -0.60834849 -0.99605411
0.09137131 -0.57212621 3.08202076
-0.95560437 -0.79022568 0.80416930
-0.67487395 0.06497348 -3.00883770
-0.85856676 -0.01251963 2.66634798
-0.39282322 -0.69938087 2.66814327
-0.00391087 -1.15188694 -1.09490156
-1.30330288 0.08224188 -0.54271692
-0.36336383 -1.15735316 0.39987761
0.40413913 -0.85717690 2.23661017
1.22848606 -0.44381419 -0.18832262
1.26690030 0.31802607 0.40454379
0.16701511 0.15403952 -3.45032024
-1.20521867 -0.26632148 1.21836174
0.94462913 -0.32093033 2.27070236
0.60343915 0.66231489 2.46348691
-0.35668460 0.17037976 -3.33986497
1.06073117 0.47237900 -1.58761823
0.30300248 -0.22597045 -3.34945846
0.31014866 -0.58168787 2.96554208
-0.31276065 -0.93924463 -2.05575585
0.37802356 -0.27252543 3.26554513
-0.59369022 0.91558880 -1.67472267
-0.00412787 -0.78375345 2.67523551
1.15468609 0.58188236 0.28970274
-0.36278242 -0.30590862 -3.25336289
-0.43755212 1.08891094 1.01784801
-0.22913569 1.19364572 0.09279016
0.28405908 1.18222082 -0.19225550
0.63788527 -0.83523124 1.89563608
0.74113774 -0.13286296 2.87730503
-0.63815737 0.77579653 -2.09620357
-1.06313157 -0.22810400 -1.97754586
-0.61376351 1.06394255 -0.42345372
0.73568463 1.00424457 -0.23747584
0.06612592 0.52780527 3.15171337
0.55201262 -0.47050822 2.88046694
1.21361113 -0.25564826 -1.18005681
0.85549110 -0.84557152 -1.08076894
-0.10608042 0.87263125 2.41853952
0.58555454 -1.00638545 -1.19047546
-0.43465948 0.75878984 2.47962046
0.68098968 0.77896339 1.98927796
1.29364204 0.20353143 -0.42554995
1.18702435 -0.39451545 1.04095531
0.11915701 0.91209072 -2.28840947
-0.61759990 -1.03971922 0.75666815
0.05262888 -0.93775463 2.21781826
1.19244492 0.50480336 -0.40272462
0.26027688 1.13967741 0.97879064
-0.75098419 0.91862953 1.12622035
-0.32449836 0.75268042 -2.61114931
1.07872236 -0.59739119 -1.06142282
1.13565505 0.17868759 -1.71960330
-0.01017099 1.20748246 -0.31166354
-0.23554996 -1.14667881 0.95052648
3 135 229 189
3 110 247 223
3 223 247 83
3 30 31 99
3 209 229 135
3 209 223 83
3 38 189 229
3 64 43 38
3 38 43 189
3 94 194 69
3 149 181 146
3 80 233 188
3 146 181 131
3 146 131 141
3 141 131 188
3 110 223 205
3 237 68 22
3 172 144 29
3 198 86 191
3 191 251 198
3 69 194 198
3 198 251 69
3 51 226 186
3 23 78 132
3 99 31 132
3 19 78 23
3 165 30 11
3 23 190 242
3 159 76 59
3 59 108 159
3 248 184 112
3 243 184 248
3 211 243 248
3 248 224 211
3 211 224 82
3 82 30 211
3 34 224 58
3 234 47 58
3 58 47 34
3 21 43 64
3 174 30 99
3 135 189 236
3 46 48 230
3 227 94 119
3 167 149 44
3 44 213 167
3 49 80 188
3 188 131 49
3 136 141 188
3 182 55 28
3 148 55 182
3 250 226 101
3 180 109 52
3 186 239 52
3 52 51 186
3 72 149 167
3 181 149 72
3 72 71 181
3 121 140 250
3 107 158 133
3 96 107 175
3 175 107 205
3 68 237 252
3 252 61 68
3 68 61 195
3 61 156 195
3 245 198 194
3 86 198 245
3 245 194 172
3 172 29 245
3 245 29 86
3 59 76 62
3 191 86 12
3 86 29 12
3 81 251 191
3 191 105 81
3 212 105 191
3 191 12 212
3 203 182 28
3 17 144 172
3 60 47 1
3 1 47 234
3 168 190 34
3 34 47 168
3 109 242 168
3 168 242 190
3 168 47 60
3 227 226 145
3 226 51 145
3 145 1 228
3 109 168 18
3 18 168 60
3 18 52 109
3 51 52 18
3 180 19 215
3 215 19 23
3 23 242 215
3 215 109 180
3 215 242 109
3 78 19 4
3 4 41 46
3 70 243 211
3 70 165 243
3 211 30 70
3 30 165 70
3 116 237 22
3 22 184 116
3 116 184 243
3 25 29 144
3 25 108 59
3 25 12 29
3 217 108 14
3 217 159 108
3 217 14 112
3 112 184 217
3 253 184 22
3 253 217 184
3 159 217 253
3 112 14 45
3 45 248 112
3 224 248 45
3 45 58 224
3 151 224 34
3 151 82 224
3 34 190 151
3 151 190 23
3 31 30 151
3 30 82 151
3 23 132 151
3 151 132 31
3 210 252 237
3 237 116 210
3 43 21 244
3 244 174 43
3 244 210 11
3 21 210 244
3 11 30 244
3 30 174 244
3 214 236 189
3 48 236 214
3 214 230 48
3 189 43 214
3 43 174 214
3 214 174 99
3 201 205 223
3 201 175 205
3 221 236 48
3 46 41 221
3 221 48 46
3 78 230 77
3 99 132 77
3 77 132 78
3 77 214 99
3 230 214 77
3 222 94 69
3 222 119 94
3 69 251 231
3 231 222 69
3 136 222 231
3 141 136 50
3 50 55 141
3 136 231 50
3 93 55 148
3 148 2 93
3 93 2 183
3 16 85 246
3 110 205 16
3 220 75 152
3 233 80 139
3 80 101 139
3 227 119 139
3 139 119 233
3 139 226 227
3 139 101 226
3 180 52 176
3 176 52 239
3 63 41 3
3 3 26 63
3 89 13 92
3 92 241 89
3 13 176 92
3 239 241 92
3 92 176 239
3 5 239 186
3 5 241 239
3 140 241 5
3 186 226 5
3 5 226 250
3 250 140 5
3 40 178 89
3 40 15 178
3 89 241 40
3 40 241 140
3 181 71 27
3 71 121 27
3 27 131 181
3 140 121 192
3 192 40 140
3 15 40 192
3 71 15 192
3 192 121 71
3 33 21 64
3 37 156 240
3 61 252 238
3 128 240 238
3 238 156 61
3 238 240 156
3 127 220 53
3 75 220 127
3 53 196 127
3 196 103 127
3 127 138 75
3 103 138 127
3 106 81 105
3 106 203 28
3 106 50 231
3 251 81 106
3 106 231 251
3 84 7 218
3 84 212 7
3 7 212 115
3 115 212 12
3 115 62 7
3 228 17 254
3 254 94 227
3 227 145 254
3 254 145 228
3 249 18 60
3 51 18 249
3 249 145 51
3 60 1 249
3 1 145 249
3 54 230 78
3 78 4 54
3 46 230 54
3 54 4 46
3 243 165 117
3 117 116 243
3 117 165 11
3 11 210 117
3 117 210 116
3 179 25 144
3 108 25 179
3 144 97 179
3 35 25 59
3 12 25 35
3 35 115 12
3 59 62 35
3 62 115 35
3 142 17 228
3 234 97 142
3 144 17 142
3 142 97 144
3 142 1 234
3 228 1 142
3 234 58 100
3 58 45 100
3 100 97 234
3 100 45 14
3 193 210 21
3 193 33 171
3 21 33 193
3 171 252 193
3 252 210 193
3 187 41 63
3 175 201 187
3 187 221 41
3 201 221 187
3 63 96 187
3 96 175 187
3 236 221 219
3 219 221 201
3 219 209 135
3 135 236 219
3 223 209 219
3 219 201 223
3 173 136 188
3 173 222 136
3 188 233 173
3 233 119 173
3 119 222 173
3 148 182 232
3 232 2 148
3 6 2 232
3 182 203 232
3 126 155 44
3 126 44 149
3 183 2 126
3 207 93 183
3 207 126 149
3 183 126 207
3 207 149 146
3 141 55 154
3 55 93 154
3 146 141 154
3 154 207 146
3 93 207 154
3 246 255 104
3 104 16 246
3 110 16 104
3 104 247 110
3 133 85 169
3 85 16 169
3 169 16 205
3 169 107 133
3 205 107 169
3 208 255 246
3 246 90 208
3 235 176 13
3 235 19 180
3 180 176 235
3 124 235 13
3 178 26 24
3 26 3 24
3 89 178 24
3 3 124 24
3 24 13 89
3 24 124 13
3 111 107 96
3 111 96 63
3 63 26 111
3 111 26 178
3 123 27 121
3 123 121 250
3 123 49 131
3 131 27 123
3 250 101 123
3 80 49 123
3 123 101 80
3 255 208 20
3 199 33 64
3 164 33 199
3 37 240 57
3 57 240 197
3 57 197 152
3 152 75 57
3 75 138 57
3 114 252 171
3 114 238 252
3 171 33 114
3 114 33 164
3 114 164 128
3 128 238 114
3 36 195 156
3 36 185 195
3 36 156 37
3 37 57 36
3 36 57 138
3 103 185 36
3 36 138 103
3 66 62 76
3 7 62 66
3 76 159 170
3 159 253 170
3 170 66 76
3 79 66 170
3 87 106 28
3 50 106 87
3 28 55 87
3 55 50 87
3 105 212 98
3 212 84 98
3 94 254 120
3 120 254 17
3 194 94 120
3 172 194 120
3 120 17 172
3 143 179 97
3 97 100 143
3 143 100 14
3 14 108 143
3 108 179 143
3 200 126 2
3 155 126 200
3 200 2 6
3 6 163 200
3 53 220 74
3 246 85 9
3 9 202 246
3 177 90 150
3 150 90 246
3 247 104 166
3 83 247 166
3 166 209 83
3 166 118 209
3 88 4 19
3 19 235 88
3 41 4 88
3 204 161 158
3 158 107 204
3 107 111 204
3 128 164 95
3 164 199 95
3 153 208 90
3 153 20 208
3 229 209 32
3 209 118 32
3 32 38 229
3 64 38 32
3 32 199 64
3 73 66 79
3 73 185 218
3 218 7 73
3 7 66 73
3 195 185 73
3 73 79 195
3 79 170 39
3 68 195 39
3 195 79 39
3 22 68 39
3 39 253 22
3 39 170 253
3 65 103 196
3 218 185 65
3 65 185 103
3 65 84 218
3 65 98 84
3 163 74 125
3 177 150 125
3 125 150 163
3 125 220 177
3 125 74 220
3 53 74 137
3 137 232 53
3 6 232 137
3 137 163 6
3 137 74 163
3 213 44 42
3 44 0 42
3 42 161 213
3 158 161 42
3 155 200 91
3 91 200 163
3 163 150 91
3 118 166 56
3 162 124 3
3 162 3 41
3 41 88 162
3 235 124 162
3 162 88 235
3 161 204 130
3 130 72 167
3 167 213 130
3 213 161 130
3 197 240 10
3 10 240 128
3 128 95 10
3 147 90 177
3 147 153 90
3 147 220 152
3 177 220 147
3 105 98 216
3 98 129 216
3 216 129 203
3 216 106 105
3 203 106 216
3 98 65 225
3 225 129 98
3 225 65 196
3 203 129 225
3 225 196 53
3 53 232 225
3 225 232 203
3 133 158 113
3 158 42 113
3 113 0 202
3 113 42 0
3 155 91 160
3 44 155 160
3 160 0 44
3 102 91 150
3 246 202 102
3 102 150 246
3 102 160 91
3 202 0 102
3 0 160 102
3 118 56 67
3 20 10 67
3 67 10 95
3 134 56 166
3 134 104 255
3 134 166 104
3 255 20 134
3 20 67 134
3 134 67 56
3 122 130 204
3 178 15 122
3 122 15 71
3 122 111 178
3 122 204 111
3 71 72 122
3 72 130 122
3 152 197 206
3 206 147 152
3 153 147 206
3 197 10 206
3 20 153 206
3 206 10 20
3 8 85 133
3 133 113 8
3 8 9 85
3 202 9 8
3 8 113 202
3 118 67 157
3 157 67 95
3 157 32 118
3 157 95 199
3 199 32 157