ply
format ascii 1.0
comment https://github.com/mikedh/trimesh
element vertex 256
property float x
property float y
property float z
element face 508
property list uchar int vertex_indices
end_header
-2.39859629 -0.90606332 0.69640702
0.91939074 1.63041651 0.21258688
-2.54030299 -0.36696267 -1.49866331
-0.18800756 0.32335979 3.37627959
1.18380654 0.26280460 3.10179520
-0.92252588 1.25796592 2.08230376
-2.26351738 -0.79377693 -1.46099830
1.04234040 0.30193052 -3.15792680
-1.93511701 -1.13775647 1.19186270
-1.66962731 -1.29696548 1.10064638
0.86385024 -1.63308632 -0.38811073
2.83786416 -0.30288997 0.41058046
0.64410371 0.88625807 -2.85432625
-0.30135557 0.75032419 3.08043313
2.30790448 0.90210223 -1.05640805
-1.97918081 0.60813141 2.20808816
-1.02536774 -1.31730831 1.85799026
0.43923044 1.61436379 -1.08209443
0.84255403 1.51704741 1.28862476
1.00183201 0.65041423 2.95981741
-0.04378129 -1.72068036 0.15300709
2.46943808 -0.83665478 0.69443816
2.60766888 -0.17194426 -1.47601938
1.66709745 0.86291271 2.23134708
-0.50664198 0.55942607 3.20368671
1.31283522 1.10920417 -2.12665987
-0.86842990 0.23563516 3.25456834
-2.44740462 0.85010886 0.73814976
-1.78448296 0.30422324 -2.64898372
0.80862021 1.24143124 -2.18753052
2.71544552 0.16882144 1.17287278
2.52070403 0.26958188 1.62227547
1.28893769 -1.40824795 1.26467419
2.16926980 -1.14456832 0.02399730
2.03055596 1.13868368 0.93441850
1.18462539 0.75901490 -2.75512433
0.87550890 -1.04900169 -2.52855635
1.15633094 -1.23019552 -1.98324370
1.78726399 -1.08588994 1.62932074
2.24045253 -0.06131959 -2.18843746
-1.47485256 0.87560874 2.39548397
0.50692308 -0.05041933 3.39015222
-2.45310974 -0.71902990 1.15432179
2.33481407 -0.75116181 1.39060986
-2.76419783 -0.42960468 0.61446458
2.42195010 0.93552321 -0.32867005
1.12758768 -0.09934121 3.16820049
1.56732106 1.42881000 0.49354258
1.35884368 -0.35169253 2.96134591
-2.19396496 1.12722242 -0.07680967
-1.88244915 0.77033490 -2.12199783
0.08186503 1.60477614 1.24459267
0.15416048 1.37836862 2.05800676
-0.96365541 -0.88614547 -2.72433233
1.38173151 0.05970569 3.02716517
-2.20532632 0.49958980 -2.00608158
0.56238645 -1.59118474 1.13820732
0.71902591 -1.38120675 -1.87194848
2.05423903 1.21546996 0.12774816
1.52281940 0.89244771 -2.32842064
0.92283136 1.58918869 0.75401592
1.89247477 -0.96610492 -1.75874090
1.46976948 0.60160780 -2.71637034
-0.66217959 -0.25369027 3.31640744
2.00934649 -1.15397763 0.92557913
-0.17154258 -0.51618063 -3.28066206
1.69942462 0.14826275 -2.77792144
0.71974158 -1.63692856 0.64383548
2.39484763 -0.45157510 -1.72608340
-0.81416136 1.26384652 -2.13161492
2.85142803 0.20042193 0.51378208
-2.58950925 0.47231513 1.23955429
-2.70359230 0.19678818 1.19512117
1.60583031 -0.09228770 -2.86484957
-1.29990721 -1.23980820 -1.82748234
-0.22559354 -1.31573558 -2.20588923
1.97949946 0.49391210 -2.31964588
1.99531972 -0.14229268 2.48705459
1.79553998 0.29296777 2.64248466
1.90159833 -0.07429025 -2.59923768
-1.66631460 1.41057909 0.01427730
-0.64677757 0.75704491 -2.99720430
2.62427449 0.65354168 0.68215442
0.54763770 -1.31562316 2.12504268
0.31761071 -0.14879625 -3.41136122
-1.47897553 -1.23983920 1.62601757
0.44960877 1.07320225 -2.64075065
-1.75002575 0.58559829 -2.48771453
0.84433424 0.37081501 3.21190333
-0.87394029 0.68713391 2.98394775
-1.20465755 -1.56701946 -0.00889304
-2.21642590 -1.10377014 -0.27658874
-0.48180643 0.92818987 2.84558916
-2.68926454 0.19491324 -1.23948276
-0.57091010 1.63886011 -0.81352371
1.16738248 -1.57405889 0.19471766
-1.01285040 -0.37760958 3.13912368
1.49384248 1.41159379 -0.86649054
-0.07145005 -0.12716801 -3.43427038
2.38290524 -0.08393995 1.96260810
2.09565067 1.16157281 -0.53854275
-1.54620492 1.43657398 0.49200130
-2.22326469 -1.09241235 0.36615196
0.09499085 -0.93648165 -2.88944483
-0.47993314 -1.50233388 1.58390665
-0.54478264 0.42673004 -3.27377081
-1.34871089 0.63130039 -2.77660275
-1.34279525 -0.67429525 2.74085236
1.67871380 1.06063271 -1.84367418
1.13048935 1.25358081 1.94408059
-0.63318998 -1.37865007 1.92345452
-1.42454863 -0.01046547 3.00176120
2.52102780 0.70672256 -0.96116018
-2.21454024 -0.90864462 1.28865480
2.02251244 -1.19641721 -0.61881292
1.00861096 0.58055854 -3.01533341
2.81598902 -0.18449086 -0.75572175
2.88313985 -0.17325296 -0.22940744
0.90856284 -1.51568484 1.22841632
-1.03379619 1.57560551 -0.65788656
-0.15818192 1.65027666 -0.96701586
-2.23156285 0.94832289 1.12213385
-2.11099625 0.33483589 2.26904964
-2.09490442 1.13109291 0.75602120
-0.06082987 0.55513376 3.26098871
-1.51691127 -1.31697607 -1.29944897
-2.79261589 -0.41824728 -0.43982482
-0.42197624 -1.02920413 -2.71560192
1.61048293 -1.38144994 -0.75991070
-0.88105762 0.00737960 -3.28291225
-2.34542656 -0.01826295 2.03241205
-2.47992635 0.89566410 0.04349381
2.29271221 0.24905150 2.05462742
-1.75456274 -0.84371537 2.16606021
0.14367312 -1.61724043 1.17101669
1.38053095 -0.91177851 2.41995549
-1.85308349 1.02957141 -1.67085433
-1.93396020 -0.91502190 -1.80376136
0.40010583 -1.14709890 -2.52516508
-1.06145799 1.58619595 0.45962772
-1.45388353 1.12037742 1.96702075
-2.35527062 0.72012019 -1.40829277
0.86585236 1.57363582 -0.95211786
1.96454775 1.16572893 -0.99993449
1.01521683 1.44618177 -1.43286097
0.04519393 1.69464159 0.60950750
-2.70153093 0.54728204 -0.62920219
-0.41951174 -1.64950836 -0.85353518
-2.30116343 0.07897167 -2.09570360
-2.87199497 0.06270669 0.49609283
-1.89280152 -1.28352523 -0.48161471
2.45335841 0.72647709 1.13353705
-0.15010725 -1.46006727 -1.81793964
-0.36186928 -1.69680035 -0.40953606
-2.66010666 0.42463633 -1.08799624
-2.59405756 -0.74776220 -0.40142325
1.52099752 -1.09615898 -1.95112753
1.11956501 -1.53164339 0.84570044
-2.00056219 -0.57341850 2.21861768
2.13347840 0.61917567 -1.98249769
-2.42088795 -0.95045370 0.06632358
-2.33835244 -0.32202125 1.93880486
0.18810727 0.31800145 3.37869763
-1.86585402 -1.14428413 -1.31413662
1.82674789 -1.33201945 -0.26907295
2.89193320 -0.04986959 0.29120040
0.46907690 -1.51073468 1.55747712
-2.77404737 -0.15565947 0.96932381
1.52372134 1.34259844 1.18023288
-1.36794555 -1.02202952 2.24856305
2.20134640 0.15848471 -2.22409749
2.30680990 -1.02055311 -0.46083027
0.35197178 1.44371402 -1.83306277
-1.56783569 1.30507100 -1.26217008
2.41253757 -0.43268198 1.71011877
-0.92845243 -0.71003956 2.93880987
0.03175179 1.00314224 2.80018115
-1.42675626 -1.42872643 -0.91550446
-1.05837154 0.46078625 3.07353210
1.49461067 1.31980658 -1.32417858
0.62138855 1.02216172 2.67353439
-2.66664696 0.58739293 0.69354224
-2.04131198 0.08987023 -2.44330955
-2.78394866 -0.26020163 -0.82990265
2.68219709 0.43494210 -0.99257010
0.98221332 -0.59461367 -3.01642251
-0.59674531 1.48039532 1.61156929
-0.26660660 -0.53510469 3.25977015
-1.96893942 1.17093682 -0.96176511
1.84994519 -0.81821907 2.08996987
1.86462235 1.07295334 1.53768241
0.12427434 0.99327976 -2.81002069
-1.97334588 0.79561526 1.96303010
2.52471161 -0.82997531 -0.37357005
-0.00750381 1.40747607 -1.98579717
1.87316716 -0.70543659 -2.22242689
-0.67334741 -0.76128584 -2.98467636
0.45440587 -1.55647457 -1.37122416
-0.09611462 1.18225157 -2.50264668
1.71566391 -1.34455538 0.70219934
-2.37347746 -0.86409152 -0.97863680
0.20068750 -0.81264174 3.02812767
-2.09888506 -1.12242782 0.79010731
-1.48229003 0.09228762 -2.95622444
-1.88575208 -0.01778274 2.61972332
-0.86279511 -0.99339288 2.62148714
-0.00858982 -1.63612759 -1.07575572
-2.86256862 0.11681546 -0.53322679
-0.79809064 -1.64389169 0.39288524
0.88764936 -1.21752465 2.19750023
2.69824100 -0.63038880 -0.18502955
2.78261399 0.45172074 0.39746979
0.36683121 0.21879604 -3.38998675
-2.64713669 -0.37828010 1.19705713
2.07477903 -0.45584595 2.23099613
1.32539093 0.94074476 2.42040968
-0.78342038 0.24200554 -3.28146291
2.32978487 0.67096198 -1.55985665
0.66551322 -0.32096595 -3.29088879
0.68120909 -0.82622308 2.91368580
-0.68694603 -1.33409274 -2.01980829
0.83028919 -0.38709214 3.20844293
-1.30397844 1.30049229 -1.64543796
-0.00906643 -1.11323488 2.62845564
2.53614736 0.82649928 0.28463691
-0.79681361 -0.43450925 -3.19647360
-0.96103746 1.54667711 1.00004959
-0.50327259 1.69544137 0.09116761
0.62390608 1.67921340 -0.18889366
1.40104830 -1.18635333 1.86248839
1.62783146 -0.18871710 2.82699156
-1.40164590 1.10193288 -2.05954862
-2.33505726 -0.32399642 -1.94296587
-1.34806740 1.51121235 -0.41604906
1.61585438 1.42641795 -0.23332326
0.14523867 0.74968886 3.09660172
1.21243799 -0.66830474 2.83009839
2.66557002 -0.36311996 -1.15942192
1.87899673 -1.20104051 -1.06187034
-0.23299454 1.23947585 2.37624812
1.28610921 -1.42945874 -1.16965842
-0.95468408 1.07777679 2.43626118
1.49572253 1.10643101 1.95449281
2.84134936 0.28909379 -0.41810864
2.60717487 -0.56036538 1.02275288
0.26171592 1.29552364 -2.24839377
-1.35649359 -1.47680569 0.74343687
0.11559382 -1.33197641 2.17903662
2.61908031 0.71701711 -0.39568245
0.57167095 1.61878526 0.96167523
-1.64945829 1.30481136 1.10652697
-0.71272665 1.06909907 -2.56549001
2.36930084 -0.84852785 -1.04286253
2.49434733 0.25380588 -1.68953383
-0.02233952 1.71509480 -0.30621371
-0.51736081 -1.62872994 0.93390524
3 135 229 189
3 110 247 223
3 223 247 83
3 30 31 99
3 209 229 135
3 209 223 83
3 38 189 229
3 64 43 38
3 38 43 189
3 94 194 69
3 149 181 146
3 80 233 188
3 146 181 131
3 146 131 141
3 141 131 188
3 110 223 205
3 237 68 22
3 172 144 29
3 198 86 191
3 191 251 198
3 69 194 198
3 198 251 69
3 51 226 186
3 23 78 132
3 99 31 132
3 19 78 23
3 165 30 11
3 23 190 242
3 159 76 59
3 59 108 159
3 248 184 112
3 243 184 248
3 211 243 248
3 248 224 211
3 211 224 82
3 82 30 211
3 34 224 58
3 234 47 58
3 58 47 34
3 21 43 64
3 174 30 99
3 135 189 236
3 46 48 230
3 227 94 119
3 167 149 44
3 44 213 167
3 49 80 188
3 188 131 49
3 136 141 188
3 182 55 28
3 148 55 182
3 250 226 101
3 180 109 52
3 186 239 52
3 52 51 186
3 72 149 167
3 181 149 72
3 72 71 181
3 121 140 250
3 107 158 133
3 96 107 175
3 175 107 205
3 68 237 252
3 252 61 68
3 68 61 195
3 61 156 195
3 245 198 194
3 86 198 245
3 245 194 172
3 172 29 245
3 245 29 86
3 59 76 62
3 191 86 12
3 86 29 12
3 81 251 191
3 191 105 81
3 212 105 191
3 191 12 212
3 203 182 28
3 17 144 172
3 60 47 1
3 1 47 234
3 168 190 34
3 34 47 168
3 109 242 168
3 168 242 190
3 168 47 60
3 227 226 145
3 226 51 145
3 145 1 228
3 109 168 18
3 18 168 60
3 18 52 109
3 51 52 18
3 180 19 215
3 215 19 23
3 23 242 215
3 215 109 180
3 215 242 109
3 78 19 4
3 4 41 46
3 70 243 211
3 70 165 243
3 211 30 70
3 30 165 70
3 116 237 22
3 22 184 116
3 116 184 243
3 25 29 144
3 25 108 59
3 25 12 29
3 217 108 14
3 217 159 108
3 217 14 112
3 112 184 217
3 253 184 22
3 253 217 184
3 159 217 253
3 112 14 45
3 45 248 112
3 224 248 45
3 45 58 224
3 151 224 34
3 151 82 224
3 34 190 151
3 151 190 23
3 31 30 151
3 30 82 151
3 23 132 151
3 151 132 31
3 210 252 237
3 237 116 210
3 43 21 244
3 244 174 43
3 244 210 11
3 21 210 244
3 11 30 244
3 30 174 244
3 214 236 189
3 48 236 214
3 214 230 48
3 189 43 214
3 43 174 214
3 214 174 99
3 201 205 223
3 201 175 205
3 221 236 48
3 46 41 221
3 221 48 46
3 78 230 77
3 99 132 77
3 77 132 78
3 77 214 99
3 230 214 77
3 222 94 69
3 222 119 94
3 69 251 231
3 231 222 69
3 136 222 231
3 141 136 50
3 50 55 141
3 136 231 50
3 93 55 148
3 148 2 93
3 93 2 183
3 16 85 246
3 110 205 16
3 220 75 152
3 233 80 139
3 80 101 139
3 227 119 139
3 139 119 233
3 139 226 227
3 139 101 226
3 180 52 176
3 176 52 239
3 63 41 3
3 3 26 63
3 89 13 92
3 92 241 89
3 13 176 92
3 239 241 92
3 92 176 239
3 5 239 186
3 5 241 239
3 140 241 5
3 186 226 5
3 5 226 250
3 250 140 5
3 40 178 89
3 40 15 178
3 89 241 40
3 40 241 140
3 181 71 27
3 71 121 27
3 27 131 181
3 140 121 192
3 192 40 140
3 15 40 192
3 71 15 192
3 192 121 71
3 33 21 64
3 37 156 240
3 61 252 238
3 128 240 238
3 238 156 61
3 238 240 156
3 127 220 53
3 75 220 127
3 53 196 127
3 196 103 127
3 127 138 75
3 103 138 127
3 106 81 105
3 106 203 28
3 106 50 231
3 251 81 106
3 106 231 251
3 84 7 218
3 84 212 7
3 7 212 115
3 115 212 12
3 115 62 7
3 228 17 254
3 254 94 227
3 227 145 254
3 254 145 228
3 249 18 60
3 51 18 249
3 249 145 51
3 60 1 249
3 1 145 249
3 54 230 78
3 78 4 54
3 46 230 54
3 54 4 46
3 243 165 117
3 117 116 243
3 117 165 11
3 11 210 117
3 117 210 116
3 179 25 144
3 108 25 179
3 144 97 179
3 35 25 59
3 12 25 35
3 35 115 12
3 59 62 35
3 62 115 35
3 142 17 228
3 234 97 142
3 144 17 142
3 142 97 144
3 142 1 234
3 228 1 142
3 234 58 100
3 58 45 100
3 100 97 234
3 100 45 14
3 193 210 21
3 193 33 171
3 21 33 193
3 171 252 193
3 252 210 193
3 187 41 63
3 175 201 187
3 187 221 41
3 201 221 187
3 63 96 187
3 96 175 187
3 236 221 219
3 219 221 201
3 219 209 135
3 135 236 219
3 223 209 219
3 219 201 223
3 173 136 188
3 173 222 136
3 188 233 173
3 233 119 173
3 119 222 173
3 148 182 232
3 232 2 148
3 6 2 232
3 182 203 232
3 126 155 44
3 126 44 149
3 183 2 126
3 207 93 183
3 207 126 149
3 183 126 207
3 207 149 146
3 141 55 154
3 55 93 154
3 146 141 154
3 154 207 146
3 93 207 154
3 246 255 104
3 104 16 246
3 110 16 104
3 104 247 110
3 133 85 169
3 85 16 169
3 169 16 205
3 169 107 133
3 205 107 169
3 208 255 246
3 246 90 208
3 235 176 13
3 235 19 180
3 180 176 235
3 124 235 13
3 178 26 24
3 26 3 24
3 89 178 24
3 3 124 24
3 24 13 89
3 24 124 13
3 111 107 96
3 111 96 63
3 63 26 111
3 111 26 178
3 123 27 121
3 123 121 250
3 123 49 131
3 131 27 123
3 250 101 123
3 80 49 123
3 123 101 80
3 255 208 20
3 199 33 64
3 164 33 199
3 37 240 57
3 57 240 197
3 57 197 152
3 152 75 57
3 75 138 57
3 114 252 171
3 114 238 252
3 171 33 114
3 114 33 164
3 114 164 128
3 128 238 114
3 36 195 156
3 36 185 195
3 36 156 37
3 37 57 36
3 36 57 138
3 103 185 36
3 36 138 103
3 66 62 76
3 7 62 66
3 76 159 170
3 159 253 170
3 170 66 76
3 79 66 170
3 87 106 28
3 50 106 87
3 28 55 87
3 55 50 87
3 105 212 98
3 212 84 98
3 94 254 120
3 120 254 17
3 194 94 120
3 172 194 120
3 120 17 172
3 143 179 97
3 97 100 143
3 143 100 14
3 14 108 143
3 108 179 143
3 200 126 2
3 155 126 200
3 200 2 6
3 6 163 200
3 53 220 74
3 246 85 9
3 9 202 246
3 177 90 150
3 150 90 246
3 247 104 166
3 83 247 166
3 166 209 83
3 166 118 209
3 88 4 19
3 19 235 88
3 41 4 88
3 204 161 158
3 158 107 204
3 107 111 204
3 128 164 95
3 164 199 95
3 153 208 90
3 153 20 208
3 229 209 32
3 209 118 32
3 32 38 229
3 64 38 32
3 32 199 64
3 73 66 79
3 73 185 218
3 218 7 73
3 7 66 73
3 195 185 73
3 73 79 195
3 79 170 39
3 68 195 39
3 195 79 39
3 22 68 39
3 39 253 22
3 39 170 253
3 65 103 196
3 218 185 65
3 65 185 103
3 65 84 218
3 65 98 84
3 163 74 125
3 177 150 125
3 125 150 163
3 125 220 177
3 125 74 220
3 53 74 137
3 137 232 53
3 6 232 137
3 137 163 6
3 137 74 163
3 213 44 42
3 44 0 42
3 42 161 213
3 158 161 42
3 155 200 91
3 91 200 163
3 163 150 91
3 118 166 56
3 162 124 3
3 162 3 41
3 41 88 162
3 235 124 162
3 162 88 235
3 161 204 130
3 130 72 167
3 167 213 130
3 213 161 130
3 197 240 10
3 10 240 128
3 128 95 10
3 147 90 177
3 147 153 90
3 147 220 152
3 177 220 147
3 105 98 216
3 98 129 216
3 216 129 203
3 216 106 105
3 203 106 216
3 98 65 225
3 225 129 98
3 225 65 196
3 203 129 225
3 225 196 53
3 53 232 225
3 225 232 203
3 133 158 113
3 158 42 113
3 113 0 202
3 113 42 0
3 155 91 160
3 44 155 160
3 160 0 44
3 102 91 150
3 246 202 102
3 102 150 246
3 102 160 91
3 202 0 102
3 0 160 102
3 118 56 67
3 20 10 67
3 67 10 95
3 134 56 166
3 134 104 255
3 134 166 104
3 255 20 134
3 20 67 134
3 134 67 56
3 122 130 204
3 178 15 122
3 122 15 71
3 122 111 178
3 122 204 111
3 71 72 122
3 72 130 122
3 152 197 206
3 206 147 152
3 153 147 206
3 197 10 206
3 20 153 206
3 206 10 20
3 8 85 133
3 133 113 8
3 8 9 85
3 202 9 8
3 8 113 202
3 118 67 157
3 157 67 95
3 157 32 118
3 157 95 199
3 199 32 157