ply
format ascii 1.0
comment https://github.com/mikedh/trimesh
element vertex 256
property float x
property float y
property float z
element face 508
property list uchar int vertex_indices
end_header
-2.87924957 -1.04400873 0.89051658
1.10362697 1.87864256 0.27184123
-3.04935288 -0.42283165 -1.91638577
-0.22568230 0.37259033 4.31734991
1.42102885 0.30281582 3.96635890
-1.10739028 1.44948745 2.66270423
-2.71710253 -0.91462713 -1.86822236
1.25121439 0.34789854 -4.03813601
-2.32289410 -1.31097651 1.52407062
-2.00420308 -1.49442458 1.40742958
1.03695667 -1.88171887 -0.49628887
3.40654230 -0.34900406 0.52502155
0.77317524 1.02118826 -3.64991260
-0.36174405 0.86455876 3.93904233
2.77038431 1.03944457 -1.35086071
-2.37578773 0.70071757 2.82354879
-1.23084056 -1.51786458 2.37586808
0.52724761 1.86014581 -1.38370669
1.01139295 1.74801338 1.64780331
1.20258844 0.74943781 3.78480744
-0.05255460 -1.98264885 0.19565476
2.96428728 -0.96403301 0.88799894
3.13021803 -0.19812226 -1.88743031
2.00116611 0.99428862 2.85329056
-0.60816765 0.64459705 4.09665060
1.57591355 1.27807724 -2.71942401
-1.04245400 0.27150992 4.16171455
-2.93783879 0.97953540 0.94389427
-2.14207458 0.35054031 -3.38733506
0.97065920 1.43043542 -2.79726124
3.25959229 0.19452399 1.49978769
3.02582645 0.31062493 2.07445240
1.54722714 -1.62264943 1.61717689
2.60396862 -1.31882548 0.03068607
2.43745780 1.31204486 1.19486892
1.42201173 0.87457263 -3.52306032
1.05095160 -1.20870912 -3.23334098
1.38804734 -1.41748905 -2.53603339
2.14541292 -1.25121343 2.08346128
2.68941569 -0.07065531 -2.79842091
-1.77039742 1.00891757 3.06317735
0.60850507 -0.05809553 4.33508968
-2.94468689 -0.82850009 1.47606599
2.80268621 -0.86552399 1.77821469
-3.31811380 -0.49501070 0.78573436
2.90728331 1.07795382 -0.42028028
1.35354424 -0.11446561 4.05127335
1.88139570 1.64634204 0.63110775
1.63114154 -0.40523666 3.78676200
-2.63361216 1.29883862 -0.09821884
-2.25967216 0.88761610 -2.71346259
0.09826992 1.84909856 1.59149814
0.18505262 1.58822107 2.63163519
-1.15676177 -1.02105844 -3.48368549
1.65861583 0.06879570 3.87092710
-2.64725041 0.57565087 -2.56523681
0.67508274 -1.83343780 1.45545983
0.86311114 -1.59149134 -2.39371681
2.46588707 1.40052164 0.16335541
1.82797635 1.02832019 -2.97742128
1.10775697 1.83113790 0.96418279
2.27170658 -1.11319149 -2.24895477
1.76429570 0.69320077 -3.47350454
-0.79487336 -0.29231387 4.24078989
2.41199827 -1.32966733 1.18356586
-0.20591791 -0.59476757 -4.19508123
2.03997135 0.17083532 -3.55221152
0.86397022 -1.88614607 0.82329178
2.87474990 -0.52032608 -2.20719481
-0.97731072 1.45626330 -2.72575998
3.42282414 0.23093556 0.65698862
-3.10841942 0.54422367 1.58505535
-3.24536347 0.22674859 1.52823734
1.92762172 -0.10633823 -3.66336918
-1.56039488 -1.42856538 -2.33685660
-0.27080008 -1.51605237 -2.82073665
2.37617016 0.56910872 -2.96620083
2.39516068 -0.16395631 3.18027139
2.15534711 0.33757123 3.37902451
2.28265858 -0.08560072 -3.32372332
-2.00022650 1.62533557 0.01825681
-0.77638495 0.87230277 -3.83261514
3.15015125 0.75304151 0.87229139
0.65737849 -1.51592290 2.71735573
0.38125652 -0.17145003 -4.36221027
-1.77534664 -1.42860103 2.07923746
0.53970563 1.23659420 -3.37680721
-2.10071230 0.67475384 -3.18111515
1.01352990 0.42727047 4.10715723
-1.04906869 0.79174805 3.81566358
-1.44605815 -1.80559349 -0.01137179
-2.66057420 -1.27181578 -0.35368234
-0.57835537 1.06950402 3.63874030
-3.22816467 0.22458820 -1.58496392
-0.68531442 1.88837171 -1.04027724
1.40131366 -1.81370473 0.24899133
-1.21581483 -0.43509951 4.01409197
1.79319274 1.62650478 -1.10800743
-0.08576789 -0.14652897 -4.39150476
2.86041427 -0.09671956 2.50964594
2.51559687 1.33841872 -0.68865079
-1.85604811 1.65528810 0.62913686
-2.66878343 -1.25872898 0.46820951
0.11402602 -1.07905817 -3.69481993
-0.57610667 -1.73105979 2.02538896
-0.65395135 0.49169841 -4.18626928
-1.61897838 0.72741395 -3.55052543
-1.61187720 -0.77695471 3.50481033
2.01511025 1.22211087 -2.35756159
1.35702753 1.44443476 2.48595428
-0.76007456 -1.58854544 2.45957923
-1.71001303 -0.01205880 3.83844233
3.02621531 0.81431895 -1.22906435
-2.65831065 -1.04698312 1.64784169
2.42780256 -1.37856817 -0.79129463
1.21072602 0.66894686 -3.85579729
3.38028359 -0.21257904 -0.96636409
3.46089077 -0.19963020 -0.29335019
1.09062922 -1.74644327 1.57081294
-1.24095798 1.81548679 -0.84125930
-0.18987991 1.90152633 -1.23655224
-2.67874432 1.09270227 1.43490624
-2.53401756 0.38581368 2.90150213
-2.51470113 1.30329835 0.96674699
-0.07301953 0.63965118 4.16992426
-1.82088435 -1.51748180 -1.66164434
-3.35222673 -0.48192418 -0.56241721
-0.50653583 -1.18589735 -3.47252178
1.93320668 -1.59177160 -0.97172064
-1.05761230 0.00850313 -4.19795847
-2.81542540 -0.02104343 2.59890652
-2.97687745 1.03202629 0.05561684
2.75214744 0.28696886 2.62731385
-2.10615849 -0.97216856 2.76980639
0.17246370 -1.86346042 1.49741423
1.65717471 -1.05059409 3.09446979
-2.22442174 1.18632066 -2.13657165
-2.32150531 -1.05433130 -2.30652380
0.48028281 -1.32174122 -3.22900438
-1.27416289 1.82768953 0.58773977
-1.74522638 1.29095161 2.51528835
-2.82724190 0.82975632 -1.80082619
1.03936005 1.81321716 -1.21750176
2.35822248 1.34320760 -1.27864623
1.21865547 1.66635859 -1.83224237
0.05425032 1.95264566 0.77939558
-3.24288917 0.63060409 -0.80457973
-0.50357747 -1.90064108 -1.09144104
-2.76229215 0.09099487 -2.67983913
-3.44751263 0.07225359 0.63436878
-2.27209902 -1.47893810 -0.61585522
2.94498563 0.83708107 1.44948792
-0.18018715 -1.68235815 -2.32465410
-0.43438408 -1.95513308 -0.52368605
-3.19316387 0.48928598 -1.39125347
-3.11387920 -0.86160678 -0.51331198
1.82578945 -1.26304591 -2.49496531
1.34391391 -1.76483142 1.08142257
-2.40145373 -0.66071981 2.83701301
2.56100488 0.71344334 -2.53507924
-2.90600824 -1.09515738 0.08480995
-2.80693364 -0.37104800 2.47920799
0.22580197 0.36641622 4.32044220
-2.23975158 -1.31849802 -1.68042600
2.19280887 -1.53481543 -0.34407166
3.47144604 -0.05746208 0.37236670
0.56307495 -1.74073958 1.99159276
-3.32993722 -0.17935817 1.23950350
1.82905900 1.54700506 1.50919926
-1.64206731 -1.17763054 2.87530518
2.64247298 0.18261354 -2.84402037
2.76907015 -1.17592931 -0.58927751
0.42250320 1.66351509 -2.34399247
-1.88201332 1.50376415 -1.61397481
2.89598465 -0.49855649 2.18678021
-1.11450446 -0.81814098 3.75794435
0.03811452 1.15586758 3.58067584
-1.71266317 -1.64624572 -1.17068303
-1.27045798 0.53093958 3.93021798
1.79411483 1.52074313 -1.69326687
0.74590826 1.17778289 3.41872859
-3.20101476 0.67682177 0.88685334
-2.45036912 0.10355270 -3.12433338
-3.34182262 -0.29981658 -1.06122148
3.21968102 0.50116074 -1.26922929
1.17903852 -0.68514180 -3.85719013
-0.71632677 1.70578110 2.06076193
-0.32003176 -0.61657280 4.16836596
-2.36349416 1.34920835 -1.22983789
2.22065473 -0.94279045 2.67250729
2.23827314 1.23630726 1.96628070
0.14917760 1.14450371 -3.59325767
-2.36878347 0.91674536 2.51018572
3.03063726 -0.95633656 -0.47769523
-0.00900750 1.62176013 -2.53929853
2.24853015 -0.81283718 -2.84188390
-0.80827910 -0.87718934 -3.81659532
0.54546404 -1.79344320 -1.75342560
-0.11537497 1.36224580 -3.20020938
2.05946493 -1.54925990 0.89792341
-2.84909725 -0.99564683 -1.25141227
0.24090315 -0.93636405 3.87215781
-2.51947951 -1.29331422 1.01033401
-1.77932525 0.10633814 -3.78021288
-2.26363683 -0.02049011 3.34991908
-1.03569019 -1.14463401 3.35217452
-0.01031113 -1.88522315 -1.37560117
-3.43619704 0.13460027 -0.68185318
-0.95801955 -1.89416921 0.50239414
1.06552494 -1.40288925 2.81000948
3.23894000 -0.72636366 -0.23660286
3.34022021 0.52049387 0.50825655
0.44034031 0.25210708 -4.33487797
-3.17759490 -0.43587211 1.53071284
2.49054289 -0.52524710 2.85284162
1.59098530 1.08397043 3.09505057
-0.94040954 0.27885017 -4.19610548
2.79664922 0.77311391 -1.99463558
0.79887509 -0.36983204 -4.20815849
0.81771618 -0.95201302 3.72581744
-0.82460272 -1.53720438 -2.58278942
0.99667037 -0.44602576 4.10273218
-1.56528187 1.49848831 -2.10407090
-0.01088325 -1.28272152 3.36108494
3.04436445 0.95233130 0.36397377
-0.95648664 -0.50066197 -4.08742666
-1.15361917 1.78215408 1.27879357
-0.60412312 1.95356727 0.11657876
0.74893022 1.93486869 -0.24154399
1.68180358 -1.36697197 2.38161993
1.95403171 -0.21744871 3.61495924
-1.68252099 1.26969886 -2.63360667
-2.80297804 -0.37332389 -2.48452878
-1.61820579 1.74128985 -0.53201443
1.93965447 1.64358580 -0.29835746
0.17434296 0.86382675 3.95971751
1.45539784 -0.77005213 3.61893177
3.19972205 -0.41840389 -1.48258770
2.25552773 -1.38389540 -1.35784554
-0.27968419 1.42818236 3.03857994
1.54383194 -1.64708960 -1.49567735
-1.14599264 1.24186504 3.11532021
1.79544950 1.27488184 2.49926877
3.41072559 0.33310747 -0.53464806
3.12962508 -0.64567935 1.30782485
0.31416100 1.49276328 -2.87508869
-1.62832057 -1.70164502 0.95065504
0.13875760 -1.53476584 2.78639984
3.14391637 0.82618082 -0.50597107
0.68622780 1.86524057 1.22972298
-1.97999227 1.50346494 1.41494918
-0.85554957 1.23186612 -3.28056931
2.84408355 -0.97771370 -1.33353961
2.99418831 0.29244706 -2.16045761
-0.02681613 1.97621286 -0.39156467
-0.62103444 -1.87669921 1.19421268
3 135 229 189
3 110 247 223
3 223 247 83
3 30 31 99
3 209 229 135
3 209 223 83
3 38 189 229
3 64 43 38
3 38 43 189
3 94 194 69
3 149 181 146
3 80 233 188
3 146 181 131
3 146 131 141
3 141 131 188
3 110 223 205
3 237 68 22
3 172 144 29
3 198 86 191
3 191 251 198
3 69 194 198
3 198 251 69
3 51 226 186
3 23 78 132
3 99 31 132
3 19 78 23
3 165 30 11
3 23 190 242
3 159 76 59
3 59 108 159
3 248 184 112
3 243 184 248
3 211 243 248
3 248 224 211
3 211 224 82
3 82 30 211
3 34 224 58
3 234 47 58
3 58 47 34
3 21 43 64
3 174 30 99
3 135 189 236
3 46 48 230
3 227 94 119
3 167 149 44
3 44 213 167
3 49 80 188
3 188 131 49
3 136 141 188
3 182 55 28
3 148 55 182
3 250 226 101
3 180 109 52
3 186 239 52
3 52 51 186
3 72 149 167
3 181 149 72
3 72 71 181
3 121 140 250
3 107 158 133
3 96 107 175
3 175 107 205
3 68 237 252
3 252 61 68
3 68 61 195
3 61 156 195
3 245 198 194
3 86 198 245
3 245 194 172
3 172 29 245
3 245 29 86
3 59 76 62
3 191 86 12
3 86 29 12
3 81 251 191
3 191 105 81
3 212 105 191
3 191 12 212
3 203 182 28
3 17 144 172
3 60 47 1
3 1 47 234
3 168 190 34
3 34 47 168
3 109 242 168
3 168 242 190
3 168 47 60
3 227 226 145
3 226 51 145
3 145 1 228
3 109 168 18
3 18 168 60
3 18 52 109
3 51 52 18
3 180 19 215
3 215 19 23
3 23 242 215
3 215 109 180
3 215 242 109
3 78 19 4
3 4 41 46
3 70 243 211
3 70 165 243
3 211 30 70
3 30 165 70
3 116 237 22
3 22 184 116
3 116 184 243
3 25 29 144
3 25 108 59
3 25 12 29
3 217 108 14
3 217 159 108
3 217 14 112
3 112 184 217
3 253 184 22
3 253 217 184
3 159 217 253
3 112 14 45
3 45 248 112
3 224 248 45
3 45 58 224
3 151 224 34
3 151 82 224
3 34 190 151
3 151 190 23
3 31 30 151
3 30 82 151
3 23 132 151
3 151 132 31
3 210 252 237
3 237 116 210
3 43 21 244
3 244 174 43
3 244 210 11
3 21 210 244
3 11 30 244
3 30 174 244
3 214 236 189
3 48 236 214
3 214 230 48
3 189 43 214
3 43 174 214
3 214 174 99
3 201 205 223
3 201 175 205
3 221 236 48
3 46 41 221
3 221 48 46
3 78 230 77
3 99 132 77
3 77 132 78
3 77 214 99
3 230 214 77
3 222 94 69
3 222 119 94
3 69 251 231
3 231 222 69
3 136 222 231
3 141 136 50
3 50 55 141
3 136 231 50
3 93 55 148
3 148 2 93
3 93 2 183
3 16 85 246
3 110 205 16
3 220 75 152
3 233 80 139
3 80 101 139
3 227 119 139
3 139 119 233
3 139 226 227
3 139 101 226
3 180 52 176
3 176 52 239
3 63 41 3
3 3 26 63
3 89 13 92
3 92 241 89
3 13 176 92
3 239 241 92
3 92 176 239
3 5 239 186
3 5 241 239
3 140 241 5
3 186 226 5
3 5 226 250
3 250 140 5
3 40 178 89
3 40 15 178
3 89 241 40
3 40 241 140
3 181 71 27
3 71 121 27
3 27 131 181
3 140 121 192
3 192 40 140
3 15 40 192
3 71 15 192
3 192 121 71
3 33 21 64
3 37 156 240
3 61 252 238
3 128 240 238
3 238 156 61
3 238 240 156
3 127 220 53
3 75 220 127
3 53 196 127
3 196 103 127
3 127 138 75
3 103 138 127
3 106 81 105
3 106 203 28
3 106 50 231
3 251 81 106
3 106 231 251
3 84 7 218
3 84 212 7
3 7 212 115
3 115 212 12
3 115 62 7
3 228 17 254
3 254 94 227
3 227 145 254
3 254 145 228
3 249 18 60
3 51 18 249
3 249 145 51
3 60 1 249
3 1 145 249
3 54 230 78
3 78 4 54
3 46 230 54
3 54 4 46
3 243 165 117
3 117 116 243
3 117 165 11
3 11 210 117
3 117 210 116
3 179 25 144
3 108 25 179
3 144 97 179
3 35 25 59
3 12 25 35
3 35 115 12
3 59 62 35
3 62 115 35
3 142 17 228
3 234 97 142
3 144 17 142
3 142 97 144
3 142 1 234
3 228 1 142
3 234 58 100
3 58 45 100
3 100 97 234
3 100 45 14
3 193 210 21
3 193 33 171
3 21 33 193
3 171 252 193
3 252 210 193
3 187 41 63
3 175 201 187
3 187 221 41
3 201 221 187
3 63 96 187
3 96 175 187
3 236 221 219
3 219 221 201
3 219 209 135
3 135 236 219
3 223 209 219
3 219 201 223
3 173 136 188
3 173 222 136
3 188 233 173
3 233 119 173
3 119 222 173
3 148 182 232
3 232 2 148
3 6 2 232
3 182 203 232
3 126 155 44
3 126 44 149
3 183 2 126
3 207 93 183
3 207 126 149
3 183 126 207
3 207 149 146
3 141 55 154
3 55 93 154
3 146 141 154
3 154 207 146
3 93 207 154
3 246 255 104
3 104 16 246
3 110 16 104
3 104 247 110
3 133 85 169
3 85 16 169
3 169 16 205
3 169 107 133
3 205 107 169
3 208 255 246
3 246 90 208
3 235 176 13
3 235 19 180
3 180 176 235
3 124 235 13
3 178 26 24
3 26 3 24
3 89 178 24
3 3 124 24
3 24 13 89
3 24 124 13
3 111 107 96
3 111 96 63
3 63 26 111
3 111 26 178
3 123 27 121
3 123 121 250
3 123 49 131
3 131 27 123
3 250 101 123
3 80 49 123
3 123 101 80
3 255 208 20
3 199 33 64
3 164 33 199
3 37 240 57
3 57 240 197
3 57 197 152
3 152 75 57
3 75 138 57
3 114 252 171
3 114 238 252
3 171 33 114
3 114 33 164
3 114 164 128
3 128 238 114
3 36 195 156
3 36 185 195
3 36 156 37
3 37 57 36
3 36 57 138
3 103 185 36
3 36 138 103
3 66 62 76
3 7 62 66
3 76 159 170
3 159 253 170
3 170 66 76
3 79 66 170
3 87 106 28
3 50 106 87
3 28 55 87
3 55 50 87
3 105 212 98
3 212 84 98
3 94 254 120
3 120 254 17
3 194 94 120
3 172 194 120
3 120 17 172
3 143 179 97
3 97 100 143
3 143 100 14
3 14 108 143
3 108 179 143
3 200 126 2
3 155 126 200
3 200 2 6
3 6 163 200
3 53 220 74
3 246 85 9
3 9 202 246
3 177 90 150
3 150 90 246
3 247 104 166
3 83 247 166
3 166 209 83
3 166 118 209
3 88 4 19
3 19 235 88
3 41 4 88
3 204 161 158
3 158 107 204
3 107 111 204
3 128 164 95
3 164 199 95
3 153 208 90
3 153 20 208
3 229 209 32
3 209 118 32
3 32 38 229
3 64 38 32
3 32 199 64
3 73 66 79
3 73 185 218
3 218 7 73
3 7 66 73
3 195 185 73
3 73 79 195
3 79 170 39
3 68 195 39
3 195 79 39
3 22 68 39
3 39 253 22
3 39 170 253
3 65 103 196
3 218 185 65
3 65 185 103
3 65 84 218
3 65 98 84
3 163 74 125
3 177 150 125
3 125 150 163
3 125 220 177
3 125 74 220
3 53 74 137
3 137 232 53
3 6 232 137
3 137 163 6
3 137 74 163
3 213 44 42
3 44 0 42
3 42 161 213
3 158 161 42
3 155 200 91
3 91 200 163
3 163 150 91
3 118 166 56
3 162 124 3
3 162 3 41
3 41 88 162
3 235 124 162
3 162 88 235
3 161 204 130
3 130 72 167
3 167 213 130
3 213 161 130
3 197 240 10
3 10 240 128
3 128 95 10
3 147 90 177
3 147 153 90
3 147 220 152
3 177 220 147
3 105 98 216
3 98 129 216
3 216 129 203
3 216 106 105
3 203 106 216
3 98 65 225
3 225 129 98
3 225 65 196
3 203 129 225
3 225 196 53
3 53 232 225
3 225 232 203
3 133 158 113
3 158 42 113
3 113 0 202
3 113 42 0
3 155 91 160
3 44 155 160
3 160 0 44
3 102 91 150
3 246 202 102
3 102 150 246
3 102 160 91
3 202 0 102
3 0 160 102
3 118 56 67
3 20 10 67
3 67 10 95
3 134 56 166
3 134 104 255
3 134 166 104
3 255 20 134
3 20 67 134
3 134 67 56
3 122 130 204
3 178 15 122
3 122 15 71
3 122 111 178
3 122 204 111
3 71 72 122
3 72 130 122
3 152 197 206
3 206 147 152
3 153 147 206
3 197 10 206
3 20 153 206
3 206 10 20
3 8 85 133
3 133 113 8
3 8 9 85
3 202 9 8
3 8 113 202
3 118 67 157
3 157 67 95
3 157 32 118
3 157 95 199
3 199 32 157