ply
format ascii 1.0
comment https://github.com/mikedh/trimesh
element vertex 256
property float x
property float y
property float z
element face 508
property list uchar int vertex_indices
end_header
-1.43589818 -0.56193364 0.88258380
0.55038500 1.01117194 0.26941967
-1.52072966 -0.22758748 -1.89931452
-0.11254904 0.20054530 4.27889109
0.70867521 0.16298942 3.93102622
-0.55226183 0.78018093 2.63898468
-1.35503447 -0.49229446 -1.85158014
0.62398767 0.18725502 -4.00216436
-1.15844047 -0.70562798 1.51049411
-0.99950743 -0.80436820 1.39489222
0.51713622 -1.01282775 -0.49186790
1.69886196 -0.18785006 0.52034467
0.38558689 0.54965055 -3.61739898
-0.18040381 0.46534535 3.90395331
1.38160634 0.55947697 -1.33882713
-1.18481886 0.37715849 2.79839635
-0.61382723 -0.81698465 2.35470366
0.26294136 1.00121617 -1.37138057
0.50438744 0.94086134 1.63312459
0.59973770 0.40338197 3.75109220
-0.02620928 -1.06715298 0.19391187
1.47830689 -0.51888698 0.88008863
1.56105757 -0.10663853 -1.87061703
0.99799293 0.53517193 2.82787347
-0.30329669 0.34695181 4.06015730
0.78591704 0.68792003 -2.69519925
-0.51987779 0.14613914 4.12464142
-1.46511686 0.52723110 0.93548602
-1.06826472 0.18867695 -3.35716057
0.48407325 0.76992625 -2.77234292
1.62557721 0.10470177 1.48642743
1.50899684 0.16719265 2.05597305
0.77161098 -0.87338471 1.60277104
1.29861391 -0.70985264 0.03041271
1.21557403 0.70620298 1.18422508
0.70916533 0.47073531 -3.49167657
0.52411556 -0.65058297 -3.20453811
0.69222713 -0.76295793 -2.51344228
1.06992960 -0.67346072 2.06490183
1.34122682 -0.03802994 -2.77349234
-0.88290727 0.54304594 3.03589034
0.30346495 -0.03126969 4.29647207
-1.46853209 -0.44593692 1.46291709
1.39771545 -0.46586490 1.76237428
-1.65476215 -0.26643756 0.77873498
1.44987869 0.58020443 -0.41653639
0.67502022 -0.06161066 4.01518440
0.93826270 0.88613713 0.62548578
0.81345958 -0.21811704 3.75302935
-1.31339741 0.69909477 -0.09734391
-1.12691128 0.47775587 -2.68929076
0.04900777 0.99527001 1.57732093
0.09228679 0.85485375 2.60819244
-0.57688367 -0.54958075 -3.45265269
0.82716113 0.03702901 3.83644485
-1.32019889 0.30984181 -2.54238534
0.33666760 -0.98684072 1.44249451
0.43043843 -0.85661393 -2.37239337
1.22975183 0.75382531 0.16190024
0.91162217 0.55348933 -2.95089817
0.55244470 0.98560280 0.95559382
1.13291299 -0.59917098 -2.22892118
0.87986434 0.37311259 -3.44256234
-0.39640787 -0.15733679 4.20301294
1.20287728 -0.71568823 1.17302263
-0.10269243 -0.32013133 -4.15771103
1.01734531 0.09195144 -3.52056837
0.43086687 -1.01521075 0.81595784
1.43365407 -0.28006345 -2.18753290
-0.48739040 0.78382802 -2.70147872
1.70698190 0.12430016 0.65113610
-1.55018640 0.29292625 1.57093561
-1.61848128 0.12204654 1.51462376
0.96131593 -0.05723614 -3.63073587
-0.77817780 -0.76891971 -2.31603980
-0.13504955 -0.81600922 -2.79560947
1.18500960 0.30632055 -2.93977785
1.19448030 -0.08824884 3.15194130
1.07488382 0.18169639 3.34892392
1.13837481 -0.04607425 -3.29411554
-0.99752426 0.87483048 0.01809418
-0.38718757 0.46951354 -3.79847407
1.57099843 0.40532163 0.86452097
0.32783839 -0.81593955 2.69314957
0.19013479 -0.09228230 -4.32335138
-0.88537544 -0.76893890 2.06071544
0.26915425 0.66559196 -3.34672642
-1.04763722 0.36318362 -3.15277767
0.50545311 0.22997665 4.07057047
-0.52317649 0.42615527 3.78167367
-0.72115743 -0.97185361 -0.01127049
-1.32684350 -0.68454987 -0.35053173
-0.28842911 0.57565635 3.60632634
-1.60990405 0.12088372 -1.57084489
-0.34177020 1.01640868 -1.03101039
0.69884306 -0.97621942 0.24677329
-0.60633379 -0.23419061 3.97833419
0.89427543 0.87545979 -1.09813726
-0.04277293 -0.07886864 -4.35238504
1.42650485 -0.05205892 2.48728991
1.25454247 0.72039866 -0.68251628
-0.92562175 0.89095235 0.62353247
-1.33093739 -0.67750591 0.46403867
0.05686542 -0.58079886 -3.66190624
-0.28730768 -0.93173611 2.00734663
-0.32612923 0.26465476 -4.14897776
-0.80739367 0.39152771 -3.51889706
-0.80385232 -0.41819283 3.47358918
1.00494695 0.65779638 -2.33656025
0.67675734 0.77746135 2.46380925
-0.37905350 -0.85502833 2.43766904
-0.85279322 -0.00649060 3.80424929
1.50919068 0.43830398 -1.21811581
-1.32571471 -0.56353456 1.63316262
1.21075892 -0.74200892 -0.78424573
0.60379595 0.36005801 -3.82144976
1.68576658 -0.11441983 -0.95775568
1.72596586 -0.10745017 -0.29073700
0.54390299 -0.94001627 1.55682003
-0.61887282 0.97717863 -0.83376533
-0.09469419 1.02348912 -1.22553706
-1.33590508 0.58814269 1.42212403
-1.26372898 0.20766269 2.87565541
-1.25409579 0.70149523 0.95813519
-0.03641525 0.34428975 4.13277817
-0.90808535 -0.81677860 -1.64684236
-1.67177451 -0.25939378 -0.55740720
-0.25261229 -0.63830459 -3.44158840
0.96410114 -0.85676479 -0.96306449
-0.52743727 0.00457677 -4.16056299
-1.40406859 -0.01132654 2.57575536
-1.48458564 0.55548406 0.05512141
1.37251163 0.15445985 2.60390973
-1.05035317 -0.52326590 2.74513268
0.08600862 -1.00300026 1.48407519
0.82644242 -0.56547815 3.06690407
-1.10933185 0.63853240 -2.11753893
-1.15774786 -0.56748968 -2.28597713
0.23951977 -0.71142203 -3.20024037
-0.63543230 0.98374671 0.58250415
-0.87035429 0.69484961 2.49288225
-1.40996158 0.44661307 -1.78478444
0.51833475 0.97595704 -1.20665622
1.17605889 0.72297621 -1.26725602
0.60775042 0.89691097 -1.81592059
0.02705494 1.05100381 0.77245271
-1.61724734 0.33942020 -0.79741251
-0.25113693 -1.02301252 -1.08171844
-1.37757087 0.04897763 -2.65596700
-1.71929407 0.03889021 0.62871778
-1.13310874 -0.79603261 -0.61036915
1.46868110 0.45055559 1.43657577
-0.08986036 -0.90552270 -2.30394602
-0.21662980 -1.05234265 -0.51902103
-1.59244907 0.26335624 -1.37886012
-1.55290926 -0.46375644 -0.50873935
0.91053152 -0.67982948 -2.47274017
0.67021751 -0.94991362 1.07178915
-1.19761860 -0.35562983 2.81174064
1.27718771 0.38400808 -2.51249671
-1.44924283 -0.58946419 0.08405446
-1.39983368 -0.19971514 2.45712328
0.11260873 0.19722210 4.28195524
-1.11697674 -0.70967638 -1.66545677
1.09356630 -0.82610840 -0.34100667
1.73122990 -0.03092874 0.36904964
0.28080869 -0.93694621 1.97385156
-1.66065860 -0.09653883 1.22846198
0.91216213 0.83266938 1.49575520
-0.81890833 -0.63385499 2.84969187
1.31781638 0.09829102 -2.81868577
1.38095105 -0.63293934 -0.58402824
0.21070474 0.89538050 -2.32311201
-0.93857074 0.80939519 -1.59959745
1.44424391 -0.26834607 2.16730022
-0.55580974 -0.44036117 3.72446847
0.01900793 0.62214118 3.54877901
-0.85411483 -0.88608533 -1.16025460
-0.63358462 0.28577614 3.89520741
0.89473528 0.81853402 -1.67818320
0.37198868 0.63393700 3.38827443
-1.59636426 0.36429664 0.87895322
-1.22201300 0.05573684 -3.09650159
-1.66658592 -0.16137509 -1.05176806
1.60567331 0.26974779 -1.25792289
0.58799320 -0.36877489 -3.82283020
-0.35723624 0.91812998 2.04240465
-0.15960166 -0.33186787 4.13123417
-1.17868793 0.72620612 -1.21888244
1.10745311 -0.50745326 2.64870048
1.11623943 0.66543752 1.94876504
0.07439572 0.61602461 -3.56124878
-1.18132579 0.49343458 2.48782468
1.51139593 -0.51474440 -0.47343990
-0.00449209 0.87290603 -2.51667833
1.12135470 -0.43750641 -2.81656837
-0.40309340 -0.47214371 -3.78259706
0.27202600 -0.96531373 -1.73780596
-0.05753816 0.73322350 -3.17170191
1.02706683 -0.83388305 0.88992465
-1.42086089 -0.53590298 -1.24026465
0.12013978 -0.50399429 3.83766460
-1.25647867 -0.69612128 1.00133383
-0.88735962 0.05723608 -3.74653864
-1.12888861 -0.01102872 3.32007766
-0.51650459 -0.61609477 3.32231307
-0.00514222 -1.01471400 -1.36334729
-1.71365094 0.07244807 -0.67577916
-0.47776979 -1.01952922 0.49791881
0.53138334 -0.75509959 2.78497767
1.61527777 -0.39096239 -0.23449518
1.66578686 0.28015378 0.50372899
0.21960022 0.13569565 -4.29626274
-1.58468473 -0.23460644 1.51707721
1.24204791 -0.28271219 2.82742858
0.79343343 0.58344281 3.06747961
-0.46898758 0.15009001 -4.15872622
1.39470494 0.41612554 -1.97686732
0.39840353 -0.19906065 -4.17067194
0.40779972 -0.51241726 3.69262791
-0.41123408 -0.82739419 -2.55978203
0.49704516 -0.24007162 4.06618500
-0.78061497 0.80655545 -2.08532786
-0.00542754 -0.69041979 3.33114433
1.51824188 0.51258862 0.36073145
-0.47700533 -0.26947933 -4.05101585
-0.57531643 0.95923746 1.26740193
-0.30127963 1.05149984 0.11554027
0.37349576 1.04143548 -0.23939231
0.83872497 -0.73576730 2.36040425
0.97448671 -0.11704091 3.58275700
-0.83908278 0.68341047 -2.61014652
-1.39786100 -0.20094012 -2.46239662
-0.80700845 0.93724245 -0.52727526
0.96731675 0.88465357 -0.29569969
0.08694582 0.46495134 3.92444420
0.72581518 -0.41447753 3.58669424
1.59571958 -0.22520426 -1.46938074
1.12484455 -0.74487621 -1.34574974
-0.13948010 0.76871353 3.01151204
0.76991779 -0.88653952 -1.48235381
-0.57151306 0.66842902 3.08756876
0.89540088 0.68620014 2.47700524
1.70094824 0.17929378 -0.52988541
1.56076181 -0.34753439 1.29617465
0.15667388 0.80347395 -2.84947729
-0.81205273 -0.91590375 0.94218653
0.06919920 -0.82608169 2.76157832
1.56788898 0.44468859 -0.50146383
0.34222570 1.00395834 1.21876860
-0.98743337 0.80923408 1.40234482
-0.42666742 0.66304713 -3.25134587
1.41836071 -0.52625054 -1.32166040
1.49321866 0.15740849 -2.14121222
-0.01337336 1.06368887 -0.38807657
-0.30971342 -1.01012599 1.18357456
3 135 229 189
3 110 247 223
3 223 247 83
3 30 31 99
3 209 229 135
3 209 223 83
3 38 189 229
3 64 43 38
3 38 43 189
3 94 194 69
3 149 181 146
3 80 233 188
3 146 181 131
3 146 131 141
3 141 131 188
3 110 223 205
3 237 68 22
3 172 144 29
3 198 86 191
3 191 251 198
3 69 194 198
3 198 251 69
3 51 226 186
3 23 78 132
3 99 31 132
3 19 78 23
3 165 30 11
3 23 190 242
3 159 76 59
3 59 108 159
3 248 184 112
3 243 184 248
3 211 243 248
3 248 224 211
3 211 224 82
3 82 30 211
3 34 224 58
3 234 47 58
3 58 47 34
3 21 43 64
3 174 30 99
3 135 189 236
3 46 48 230
3 227 94 119
3 167 149 44
3 44 213 167
3 49 80 188
3 188 131 49
3 136 141 188
3 182 55 28
3 148 55 182
3 250 226 101
3 180 109 52
3 186 239 52
3 52 51 186
3 72 149 167
3 181 149 72
3 72 71 181
3 121 140 250
3 107 158 133
3 96 107 175
3 175 107 205
3 68 237 252
3 252 61 68
3 68 61 195
3 61 156 195
3 245 198 194
3 86 198 245
3 245 194 172
3 172 29 245
3 245 29 86
3 59 76 62
3 191 86 12
3 86 29 12
3 81 251 191
3 191 105 81
3 212 105 191
3 191 12 212
3 203 182 28
3 17 144 172
3 60 47 1
3 1 47 234
3 168 190 34
3 34 47 168
3 109 242 168
3 168 242 190
3 168 47 60
3 227 226 145
3 226 51 145
3 145 1 228
3 109 168 18
3 18 168 60
3 18 52 109
3 51 52 18
3 180 19 215
3 215 19 23
3 23 242 215
3 215 109 180
3 215 242 109
3 78 19 4
3 4 41 46
3 70 243 211
3 70 165 243
3 211 30 70
3 30 165 70
3 116 237 22
3 22 184 116
3 116 184 243
3 25 29 144
3 25 108 59
3 25 12 29
3 217 108 14
3 217 159 108
3 217 14 112
3 112 184 217
3 253 184 22
3 253 217 184
3 159 217 253
3 112 14 45
3 45 248 112
3 224 248 45
3 45 58 224
3 151 224 34
3 151 82 224
3 34 190 151
3 151 190 23
3 31 30 151
3 30 82 151
3 23 132 151
3 151 132 31
3 210 252 237
3 237 116 210
3 43 21 244
3 244 174 43
3 244 210 11
3 21 210 244
3 11 30 244
3 30 174 244
3 214 236 189
3 48 236 214
3 214 230 48
3 189 43 214
3 43 174 214
3 214 174 99
3 201 205 223
3 201 175 205
3 221 236 48
3 46 41 221
3 221 48 46
3 78 230 77
3 99 132 77
3 77 132 78
3 77 214 99
3 230 214 77
3 222 94 69
3 222 119 94
3 69 251 231
3 231 222 69
3 136 222 231
3 141 136 50
3 50 55 141
3 136 231 50
3 93 55 148
3 148 2 93
3 93 2 183
3 16 85 246
3 110 205 16
3 220 75 152
3 233 80 139
3 80 101 139
3 227 119 139
3 139 119 233
3 139 226 227
3 139 101 226
3 180 52 176
3 176 52 239
3 63 41 3
3 3 26 63
3 89 13 92
3 92 241 89
3 13 176 92
3 239 241 92
3 92 176 239
3 5 239 186
3 5 241 239
3 140 241 5
3 186 226 5
3 5 226 250
3 250 140 5
3 40 178 89
3 40 15 178
3 89 241 40
3 40 241 140
3 181 71 27
3 71 121 27
3 27 131 181
3 140 121 192
3 192 40 140
3 15 40 192
3 71 15 192
3 192 121 71
3 33 21 64
3 37 156 240
3 61 252 238
3 128 240 238
3 238 156 61
3 238 240 156
3 127 220 53
3 75 220 127
3 53 196 127
3 196 103 127
3 127 138 75
3 103 138 127
3 106 81 105
3 106 203 28
3 106 50 231
3 251 81 106
3 106 231 251
3 84 7 218
3 84 212 7
3 7 212 115
3 115 212 12
3 115 62 7
3 228 17 254
3 254 94 227
3 227 145 254
3 254 145 228
3 249 18 60
3 51 18 249
3 249 145 51
3 60 1 249
3 1 145 249
3 54 230 78
3 78 4 54
3 46 230 54
3 54 4 46
3 243 165 117
3 117 116 243
3 117 165 11
3 11 210 117
3 117 210 116
3 179 25 144
3 108 25 179
3 144 97 179
3 35 25 59
3 12 25 35
3 35 115 12
3 59 62 35
3 62 115 35
3 142 17 228
3 234 97 142
3 144 17 142
3 142 97 144
3 142 1 234
3 228 1 142
3 234 58 100
3 58 45 100
3 100 97 234
3 100 45 14
3 193 210 21
3 193 33 171
3 21 33 193
3 171 252 193
3 252 210 193
3 187 41 63
3 175 201 187
3 187 221 41
3 201 221 187
3 63 96 187
3 96 175 187
3 236 221 219
3 219 221 201
3 219 209 135
3 135 236 219
3 223 209 219
3 219 201 223
3 173 136 188
3 173 222 136
3 188 233 173
3 233 119 173
3 119 222 173
3 148 182 232
3 232 2 148
3 6 2 232
3 182 203 232
3 126 155 44
3 126 44 149
3 183 2 126
3 207 93 183
3 207 126 149
3 183 126 207
3 207 149 146
3 141 55 154
3 55 93 154
3 146 141 154
3 154 207 146
3 93 207 154
3 246 255 104
3 104 16 246
3 110 16 104
3 104 247 110
3 133 85 169
3 85 16 169
3 169 16 205
3 169 107 133
3 205 107 169
3 208 255 246
3 246 90 208
3 235 176 13
3 235 19 180
3 180 176 235
3 124 235 13
3 178 26 24
3 26 3 24
3 89 178 24
3 3 124 24
3 24 13 89
3 24 124 13
3 111 107 96
3 111 96 63
3 63 26 111
3 111 26 178
3 123 27 121
3 123 121 250
3 123 49 131
3 131 27 123
3 250 101 123
3 80 49 123
3 123 101 80
3 255 208 20
3 199 33 64
3 164 33 199
3 37 240 57
3 57 240 197
3 57 197 152
3 152 75 57
3 75 138 57
3 114 252 171
3 114 238 252
3 171 33 114
3 114 33 164
3 114 164 128
3 128 238 114
3 36 195 156
3 36 185 195
3 36 156 37
3 37 57 36
3 36 57 138
3 103 185 36
3 36 138 103
3 66 62 76
3 7 62 66
3 76 159 170
3 159 253 170
3 170 66 76
3 79 66 170
3 87 106 28
3 50 106 87
3 28 55 87
3 55 50 87
3 105 212 98
3 212 84 98
3 94 254 120
3 120 254 17
3 194 94 120
3 172 194 120
3 120 17 172
3 143 179 97
3 97 100 143
3 143 100 14
3 14 108 143
3 108 179 143
3 200 126 2
3 155 126 200
3 200 2 6
3 6 163 200
3 53 220 74
3 246 85 9
3 9 202 246
3 177 90 150
3 150 90 246
3 247 104 166
3 83 247 166
3 166 209 83
3 166 118 209
3 88 4 19
3 19 235 88
3 41 4 88
3 204 161 158
3 158 107 204
3 107 111 204
3 128 164 95
3 164 199 95
3 153 208 90
3 153 20 208
3 229 209 32
3 209 118 32
3 32 38 229
3 64 38 32
3 32 199 64
3 73 66 79
3 73 185 218
3 218 7 73
3 7 66 73
3 195 185 73
3 73 79 195
3 79 170 39
3 68 195 39
3 195 79 39
3 22 68 39
3 39 253 22
3 39 170 253
3 65 103 196
3 218 185 65
3 65 185 103
3 65 84 218
3 65 98 84
3 163 74 125
3 177 150 125
3 125 150 163
3 125 220 177
3 125 74 220
3 53 74 137
3 137 232 53
3 6 232 137
3 137 163 6
3 137 74 163
3 213 44 42
3 44 0 42
3 42 161 213
3 158 161 42
3 155 200 91
3 91 200 163
3 163 150 91
3 118 166 56
3 162 124 3
3 162 3 41
3 41 88 162
3 235 124 162
3 162 88 235
3 161 204 130
3 130 72 167
3 167 213 130
3 213 161 130
3 197 240 10
3 10 240 128
3 128 95 10
3 147 90 177
3 147 153 90
3 147 220 152
3 177 220 147
3 105 98 216
3 98 129 216
3 216 129 203
3 216 106 105
3 203 106 216
3 98 65 225
3 225 129 98
3 225 65 196
3 203 129 225
3 225 196 53
3 53 232 225
3 225 232 203
3 133 158 113
3 158 42 113
3 113 0 202
3 113 42 0
3 155 91 160
3 44 155 160
3 160 0 44
3 102 91 150
3 246 202 102
3 102 150 246
3 102 160 91
3 202 0 102
3 0 160 102
3 118 56 67
3 20 10 67
3 67 10 95
3 134 56 166
3 134 104 255
3 134 166 104
3 255 20 134
3 20 67 134
3 134 67 56
3 122 130 204
3 178 15 122
3 122 15 71
3 122 111 178
3 122 204 111
3 71 72 122
3 72 130 122
3 152 197 206
3 206 147 152
3 153 147 206
3 197 10 206
3 20 153 206
3 206 10 20
3 8 85 133
3 133 113 8
3 8 9 85
3 202 9 8
3 8 113 202
3 118 67 157
3 157 67 95
3 157 32 118
3 157 95 199
3 199 32 157