ply
format ascii 1.0
comment https://github.com/mikedh/trimesh
element vertex 256
property float x
property float y
property float z
element face 508
property list uchar int vertex_indices
end_header
-3.00954556 -0.96064335 0.86525238
1.15356982 1.72863054 0.26412901
-3.18734646 -0.38906801 -1.86201739
-0.23589519 0.34283853 4.19486570
1.48533523 0.27863559 3.85383224
-1.15750349 1.33374405 2.58716273
-2.84006047 -0.84159297 -1.81522048
1.30783606 0.32011840 -3.92357302
-2.42801285 -1.20629334 1.48083234
-2.09490013 -1.37509286 1.36750054
1.08388257 -1.73146117 -0.48220903
3.56069994 -0.32113564 0.51012659
0.80816406 0.93964499 -3.54636383
-0.37811419 0.79552263 3.82729077
2.89575362 0.95644361 -1.31253648
-2.48330021 0.64476442 2.74344397
-1.28654039 -1.39666116 2.30846405
0.55110735 1.71161079 -1.34445059
1.05716193 1.60843229 1.60105467
1.25700974 0.68959427 3.67743158
-0.05493288 -1.82433176 0.19010399
3.09843135 -0.88705373 0.86280620
3.27187109 -0.18230194 -1.83388340
2.09172583 0.91489339 2.77234221
-0.63568932 0.59312516 3.98042727
1.64722908 1.17602110 -2.64227319
-1.08962870 0.24982950 4.04364538
-3.07078600 0.90131825 0.91711575
-2.23901057 0.32254922 -3.29123545
1.01458478 1.31621337 -2.71790218
3.40709996 0.17899100 1.45723832
3.16275525 0.28582114 2.01559973
1.61724448 -1.49307883 1.57129717
2.72180700 -1.21351564 0.02981550
2.54776120 1.20727646 1.16097021
1.48636270 0.80473691 -3.42311025
1.09851074 -1.11219215 -3.14161015
1.45086122 -1.30430079 -2.46408558
2.24250007 -1.15130246 2.02435303
2.81112099 -0.06501339 -2.71902895
-1.85051394 0.92835420 2.97627425
0.63604206 -0.05345652 4.21210194
-3.07794404 -0.76234329 1.43418956
2.92951727 -0.79641080 1.72776628
-3.46826982 -0.45548347 0.76344287
3.03884768 0.99187779 -0.40835682
1.41479671 -0.10532538 3.93633771
1.96653533 1.51487958 0.61320305
1.70495629 -0.37287799 3.67933059
-2.75279212 1.19512475 -0.09543235
-2.36192989 0.81673878 -2.63648081
0.10271697 1.70144570 1.54634690
0.19342688 1.46139956 2.55697489
-1.20910919 -0.93952566 -3.38485265
1.73367393 0.06330227 3.76110792
-2.76704764 0.52968442 -2.49246025
0.70563251 -1.68703544 1.41416812
0.90216982 -1.46440864 -2.32580638
2.57747674 1.28868818 0.15872097
1.91069853 0.94620752 -2.89295101
1.15788674 1.68491924 0.93682867
2.37450910 -1.02430177 -2.18515158
1.84413612 0.63784778 -3.37496042
-0.83084410 -0.26897225 4.12047768
2.52114940 -1.22349167 1.14998782
-0.21523640 -0.54727465 -4.07606554
2.13228703 0.15719390 -3.45143437
0.90306783 -1.73553491 0.79993480
3.00484204 -0.47877735 -2.14457607
-1.02153730 1.33997881 -2.64842963
3.57771873 0.21249506 0.63834965
-3.24908614 0.50076675 1.54008687
-3.39222741 0.20864242 1.48488092
2.01485324 -0.09784699 -3.55943847
-1.63100803 -1.31449258 -2.27055931
-0.28305471 -1.39499366 -2.74071169
2.48370004 0.52366465 -2.88204885
2.50354981 -0.15086418 3.09004617
2.25288391 0.31061572 3.28316069
2.38595653 -0.07876539 -3.22942853
-2.09074354 1.49555051 0.01773886
-0.81151903 0.80264825 -3.72388291
3.29270649 0.69291013 0.84754425
0.68712711 -1.39487445 2.64026380
0.39850968 -0.15775953 -4.23845291
-1.85568714 -1.31452549 2.02024889
0.56412911 1.13785052 -3.28100634
-2.19577670 0.62087393 -3.09086609
1.05939555 0.39315239 3.99063635
-1.09654260 0.72852594 3.70741224
-1.51149726 -1.66141450 -0.01104917
-2.78097439 -1.17025971 -0.34364828
-0.60452789 0.98410279 3.53550839
-3.37425017 0.20665455 -1.53999805
-0.71632725 1.73758280 -1.01076424
1.46472788 -1.66887808 0.24192737
-1.27083468 -0.40035626 3.90021110
1.87434089 1.49662626 -1.07657301
-0.08964918 -0.13482845 -4.26691675
2.98985767 -0.08899637 2.43844676
2.62943625 1.23154438 -0.66911364
-1.94004059 1.52311122 0.61128807
-2.78955483 -1.15821779 0.45492628
0.11918608 -0.99289405 -3.58999705
-0.60217744 -1.59283245 1.96792817
-0.68354487 0.45243567 -4.06750393
-1.69224262 0.66932905 -3.44979596
-1.68482018 -0.71491390 3.40537786
2.10630083 1.12452376 -2.29067707
1.41843760 1.32909477 2.41542721
-0.79447055 -1.46169806 2.38980031
-1.78739703 -0.01109589 3.72954464
3.16316175 0.74929458 -1.19419551
-2.77860832 -0.96338016 1.60109198
2.53766894 -1.26848781 -0.76884544
1.26551545 0.61553055 -3.74640727
3.53325295 -0.19560434 -0.93894809
3.61750793 -0.18368948 -0.28502777
1.13998389 -1.60698760 1.52624857
-1.29711556 1.67051792 -0.81739259
-0.19847262 1.74968708 -1.20147097
-2.79996657 1.00544858 1.39419758
-2.64869046 0.35500595 2.81918573
-2.62849998 1.19922829 0.93932015
-0.07632391 0.58857423 4.05162239
-1.90328550 -1.39630890 -1.61450315
-3.50392628 -0.44344193 -0.54646128
-0.52945828 -1.09120190 -3.37400532
2.02069092 -1.46466660 -0.94415265
-1.10547280 0.00782414 -4.07886124
-2.94283295 -0.01936309 2.52517486
-3.11159134 0.94961762 0.05403898
2.87669158 0.26405403 2.55277634
-2.20146942 -0.89453965 2.69122624
0.18026827 -1.71466076 1.45493221
1.73216748 -0.96670282 3.00667906
-2.32508445 1.09159136 -2.07595658
-2.42656136 -0.97014159 -2.24108720
0.50201726 -1.21619856 -3.13739681
-1.33182311 1.68174624 0.57106543
-1.82420385 1.18786740 2.44392920
-2.95518422 0.76349920 -1.74973631
1.08639455 1.66842949 -1.18296087
2.46494007 1.23595083 -1.24237072
1.27380383 1.53329778 -1.78026116
0.05670533 1.79672444 0.75728393
-3.38964105 0.58024955 -0.78175360
-0.52636606 -1.74887240 -1.06047666
-2.88729525 0.08372881 -2.60381150
-3.60352421 0.06648406 0.61637157
-2.37491918 -1.36084294 -0.59838325
3.07825613 0.77023906 1.40836561
-0.18834123 -1.54801977 -2.25870299
-0.45404142 -1.79901326 -0.50882894
-3.33766556 0.45021585 -1.35178328
-3.25479293 -0.79280639 -0.49874917
1.90841258 -1.16219008 -2.42418265
1.40473068 -1.62390745 1.05074227
-2.51012778 -0.60796046 2.75652623
2.67689919 0.65647399 -2.46315861
-3.03751516 -1.00770772 0.08240388
-2.93395686 -0.34141937 2.40887237
0.23602028 0.33715743 4.19787025
-2.34110785 -1.21321428 -1.63275194
2.29204106 -1.41225851 -0.33431026
3.62854099 -0.05287366 0.36180255
0.58855605 -1.60173929 1.93509078
-3.48062825 -0.16503619 1.20433843
1.91183019 1.42347467 1.46638286
-1.71637654 -1.08359516 2.79373193
2.76205397 0.16803160 -2.76333475
2.89438009 -1.08202982 -0.57255960
0.44162291 1.53068125 -2.27749276
-1.96718085 1.38368666 -1.56818604
3.02703762 -0.45874614 2.12474084
-1.16493964 -0.75281137 3.65133071
0.03983933 1.06357014 3.47909117
-1.79016697 -1.51479089 -1.13747048
-1.32795060 0.48854339 3.81871676
1.87530470 1.39930987 -1.64522851
0.77966315 1.08373535 3.32173848
-3.34587169 0.62277669 0.86169308
-2.56125689 0.09528389 -3.03569508
-3.49305153 -0.27587584 -1.03111434
3.36538267 0.46114242 -1.23322093
1.23239398 -0.63043237 -3.74776077
-0.74874300 1.56957221 2.00229764
-0.33451429 -0.56733865 4.05010843
-2.47045040 1.24147236 -1.19494712
2.32114697 -0.86750746 2.59668779
2.33956242 1.13758659 1.91049683
0.15592839 1.05311358 -3.49131608
-2.47597909 0.84354204 2.43897104
3.16778374 -0.87997186 -0.46414289
-0.00941512 1.49226046 -2.46725798
2.35028362 -0.74793106 -2.76125908
-0.84485650 -0.80714464 -3.70831752
0.57014811 -1.65023446 -1.70368040
-0.12059609 1.25346875 -3.10941863
2.15266275 -1.42554951 0.87244910
-2.97802854 -0.91614318 -1.21590936
0.25180486 -0.86159420 3.76230383
-2.63349438 -1.19004142 0.98167056
-1.85984576 0.09784690 -3.67296720
-2.36607409 -0.01885395 3.25488091
-1.08255863 -1.05323350 3.25707245
-0.01077775 -1.73468566 -1.33657503
-3.59169674 0.12385227 -0.66250879
-1.00137317 -1.74291742 0.48814112
1.11374354 -1.29086673 2.73028874
3.38551307 -0.66836256 -0.22989038
3.49137664 0.47893175 0.49383721
0.46026722 0.23197602 -4.21189642
-3.32139206 -0.40106717 1.48728621
2.60324836 -0.48330548 2.77190590
1.66298282 0.99741393 3.00724316
-0.98296624 0.25658363 -4.07706070
2.92320728 0.71137977 -1.93804729
0.83502686 -0.34030047 -4.08877182
0.85472065 -0.87599361 3.62011528
-0.86191887 -1.41445661 -2.50951505
1.04177308 -0.41041005 3.98633671
-1.63611627 1.37883210 -2.04437780
-0.01137575 -1.18029451 3.26573014
3.18213224 0.87628645 0.35364774
-0.99977094 -0.46068347 -3.97146535
-1.20582438 1.63984680 1.24251390
-0.63146174 1.79757237 0.11327139
0.78282189 1.78036702 -0.23469134
1.75791085 -1.25781751 2.31405282
2.04245830 -0.20008515 3.51240182
-1.75866079 1.16831183 -2.55889058
-2.92982221 -0.34351352 -2.41404223
-1.69143510 1.60224569 -0.51692104
2.02743053 1.51234329 -0.28989300
0.18223257 0.79484904 3.84737945
1.52125955 -0.70856249 3.51626182
3.34452033 -0.38499382 -1.44052637
2.35759807 -1.27338958 -1.31932306
-0.29234084 1.31414020 2.95237470
1.61369562 -1.51556742 -1.45324469
-1.19785273 1.14270055 3.02693796
1.87669969 1.17308092 2.42836380
3.56507254 0.30650842 -0.51947999
3.27125144 -0.59412104 1.27072144
0.32837787 1.37356424 -2.79352164
-1.70200765 -1.56576645 0.92368472
0.14503686 -1.41221285 2.70734882
3.28618932 0.76020926 -0.49161655
0.71728194 1.71629870 1.19483542
-2.06959367 1.38341141 1.37480676
-0.89426607 1.13350010 -3.18749857
2.97278810 -0.89964205 -1.29570675
3.12968540 0.26909479 -2.09916496
-0.02802965 1.81840980 -0.38045588
-0.64913839 -1.72684240 1.16033256
3 135 229 189
3 110 247 223
3 223 247 83
3 30 31 99
3 209 229 135
3 209 223 83
3 38 189 229
3 64 43 38
3 38 43 189
3 94 194 69
3 149 181 146
3 80 233 188
3 146 181 131
3 146 131 141
3 141 131 188
3 110 223 205
3 237 68 22
3 172 144 29
3 198 86 191
3 191 251 198
3 69 194 198
3 198 251 69
3 51 226 186
3 23 78 132
3 99 31 132
3 19 78 23
3 165 30 11
3 23 190 242
3 159 76 59
3 59 108 159
3 248 184 112
3 243 184 248
3 211 243 248
3 248 224 211
3 211 224 82
3 82 30 211
3 34 224 58
3 234 47 58
3 58 47 34
3 21 43 64
3 174 30 99
3 135 189 236
3 46 48 230
3 227 94 119
3 167 149 44
3 44 213 167
3 49 80 188
3 188 131 49
3 136 141 188
3 182 55 28
3 148 55 182
3 250 226 101
3 180 109 52
3 186 239 52
3 52 51 186
3 72 149 167
3 181 149 72
3 72 71 181
3 121 140 250
3 107 158 133
3 96 107 175
3 175 107 205
3 68 237 252
3 252 61 68
3 68 61 195
3 61 156 195
3 245 198 194
3 86 198 245
3 245 194 172
3 172 29 245
3 245 29 86
3 59 76 62
3 191 86 12
3 86 29 12
3 81 251 191
3 191 105 81
3 212 105 191
3 191 12 212
3 203 182 28
3 17 144 172
3 60 47 1
3 1 47 234
3 168 190 34
3 34 47 168
3 109 242 168
3 168 242 190
3 168 47 60
3 227 226 145
3 226 51 145
3 145 1 228
3 109 168 18
3 18 168 60
3 18 52 109
3 51 52 18
3 180 19 215
3 215 19 23
3 23 242 215
3 215 109 180
3 215 242 109
3 78 19 4
3 4 41 46
3 70 243 211
3 70 165 243
3 211 30 70
3 30 165 70
3 116 237 22
3 22 184 116
3 116 184 243
3 25 29 144
3 25 108 59
3 25 12 29
3 217 108 14
3 217 159 108
3 217 14 112
3 112 184 217
3 253 184 22
3 253 217 184
3 159 217 253
3 112 14 45
3 45 248 112
3 224 248 45
3 45 58 224
3 151 224 34
3 151 82 224
3 34 190 151
3 151 190 23
3 31 30 151
3 30 82 151
3 23 132 151
3 151 132 31
3 210 252 237
3 237 116 210
3 43 21 244
3 244 174 43
3 244 210 11
3 21 210 244
3 11 30 244
3 30 174 244
3 214 236 189
3 48 236 214
3 214 230 48
3 189 43 214
3 43 174 214
3 214 174 99
3 201 205 223
3 201 175 205
3 221 236 48
3 46 41 221
3 221 48 46
3 78 230 77
3 99 132 77
3 77 132 78
3 77 214 99
3 230 214 77
3 222 94 69
3 222 119 94
3 69 251 231
3 231 222 69
3 136 222 231
3 141 136 50
3 50 55 141
3 136 231 50
3 93 55 148
3 148 2 93
3 93 2 183
3 16 85 246
3 110 205 16
3 220 75 152
3 233 80 139
3 80 101 139
3 227 119 139
3 139 119 233
3 139 226 227
3 139 101 226
3 180 52 176
3 176 52 239
3 63 41 3
3 3 26 63
3 89 13 92
3 92 241 89
3 13 176 92
3 239 241 92
3 92 176 239
3 5 239 186
3 5 241 239
3 140 241 5
3 186 226 5
3 5 226 250
3 250 140 5
3 40 178 89
3 40 15 178
3 89 241 40
3 40 241 140
3 181 71 27
3 71 121 27
3 27 131 181
3 140 121 192
3 192 40 140
3 15 40 192
3 71 15 192
3 192 121 71
3 33 21 64
3 37 156 240
3 61 252 238
3 128 240 238
3 238 156 61
3 238 240 156
3 127 220 53
3 75 220 127
3 53 196 127
3 196 103 127
3 127 138 75
3 103 138 127
3 106 81 105
3 106 203 28
3 106 50 231
3 251 81 106
3 106 231 251
3 84 7 218
3 84 212 7
3 7 212 115
3 115 212 12
3 115 62 7
3 228 17 254
3 254 94 227
3 227 145 254
3 254 145 228
3 249 18 60
3 51 18 249
3 249 145 51
3 60 1 249
3 1 145 249
3 54 230 78
3 78 4 54
3 46 230 54
3 54 4 46
3 243 165 117
3 117 116 243
3 117 165 11
3 11 210 117
3 117 210 116
3 179 25 144
3 108 25 179
3 144 97 179
3 35 25 59
3 12 25 35
3 35 115 12
3 59 62 35
3 62 115 35
3 142 17 228
3 234 97 142
3 144 17 142
3 142 97 144
3 142 1 234
3 228 1 142
3 234 58 100
3 58 45 100
3 100 97 234
3 100 45 14
3 193 210 21
3 193 33 171
3 21 33 193
3 171 252 193
3 252 210 193
3 187 41 63
3 175 201 187
3 187 221 41
3 201 221 187
3 63 96 187
3 96 175 187
3 236 221 219
3 219 221 201
3 219 209 135
3 135 236 219
3 223 209 219
3 219 201 223
3 173 136 188
3 173 222 136
3 188 233 173
3 233 119 173
3 119 222 173
3 148 182 232
3 232 2 148
3 6 2 232
3 182 203 232
3 126 155 44
3 126 44 149
3 183 2 126
3 207 93 183
3 207 126 149
3 183 126 207
3 207 149 146
3 141 55 154
3 55 93 154
3 146 141 154
3 154 207 146
3 93 207 154
3 246 255 104
3 104 16 246
3 110 16 104
3 104 247 110
3 133 85 169
3 85 16 169
3 169 16 205
3 169 107 133
3 205 107 169
3 208 255 246
3 246 90 208
3 235 176 13
3 235 19 180
3 180 176 235
3 124 235 13
3 178 26 24
3 26 3 24
3 89 178 24
3 3 124 24
3 24 13 89
3 24 124 13
3 111 107 96
3 111 96 63
3 63 26 111
3 111 26 178
3 123 27 121
3 123 121 250
3 123 49 131
3 131 27 123
3 250 101 123
3 80 49 123
3 123 101 80
3 255 208 20
3 199 33 64
3 164 33 199
3 37 240 57
3 57 240 197
3 57 197 152
3 152 75 57
3 75 138 57
3 114 252 171
3 114 238 252
3 171 33 114
3 114 33 164
3 114 164 128
3 128 238 114
3 36 195 156
3 36 185 195
3 36 156 37
3 37 57 36
3 36 57 138
3 103 185 36
3 36 138 103
3 66 62 76
3 7 62 66
3 76 159 170
3 159 253 170
3 170 66 76
3 79 66 170
3 87 106 28
3 50 106 87
3 28 55 87
3 55 50 87
3 105 212 98
3 212 84 98
3 94 254 120
3 120 254 17
3 194 94 120
3 172 194 120
3 120 17 172
3 143 179 97
3 97 100 143
3 143 100 14
3 14 108 143
3 108 179 143
3 200 126 2
3 155 126 200
3 200 2 6
3 6 163 200
3 53 220 74
3 246 85 9
3 9 202 246
3 177 90 150
3 150 90 246
3 247 104 166
3 83 247 166
3 166 209 83
3 166 118 209
3 88 4 19
3 19 235 88
3 41 4 88
3 204 161 158
3 158 107 204
3 107 111 204
3 128 164 95
3 164 199 95
3 153 208 90
3 153 20 208
3 229 209 32
3 209 118 32
3 32 38 229
3 64 38 32
3 32 199 64
3 73 66 79
3 73 185 218
3 218 7 73
3 7 66 73
3 195 185 73
3 73 79 195
3 79 170 39
3 68 195 39
3 195 79 39
3 22 68 39
3 39 253 22
3 39 170 253
3 65 103 196
3 218 185 65
3 65 185 103
3 65 84 218
3 65 98 84
3 163 74 125
3 177 150 125
3 125 150 163
3 125 220 177
3 125 74 220
3 53 74 137
3 137 232 53
3 6 232 137
3 137 163 6
3 137 74 163
3 213 44 42
3 44 0 42
3 42 161 213
3 158 161 42
3 155 200 91
3 91 200 163
3 163 150 91
3 118 166 56
3 162 124 3
3 162 3 41
3 41 88 162
3 235 124 162
3 162 88 235
3 161 204 130
3 130 72 167
3 167 213 130
3 213 161 130
3 197 240 10
3 10 240 128
3 128 95 10
3 147 90 177
3 147 153 90
3 147 220 152
3 177 220 147
3 105 98 216
3 98 129 216
3 216 129 203
3 216 106 105
3 203 106 216
3 98 65 225
3 225 129 98
3 225 65 196
3 203 129 225
3 225 196 53
3 53 232 225
3 225 232 203
3 133 158 113
3 158 42 113
3 113 0 202
3 113 42 0
3 155 91 160
3 44 155 160
3 160 0 44
3 102 91 150
3 246 202 102
3 102 150 246
3 102 160 91
3 202 0 102
3 0 160 102
3 118 56 67
3 20 10 67
3 67 10 95
3 134 56 166
3 134 104 255
3 134 166 104
3 255 20 134
3 20 67 134
3 134 67 56
3 122 130 204
3 178 15 122
3 122 15 71
3 122 111 178
3 122 204 111
3 71 72 122
3 72 130 122
3 152 197 206
3 206 147 152
3 153 147 206
3 197 10 206
3 20 153 206
3 206 10 20
3 8 85 133
3 133 113 8
3 8 9 85
3 202 9 8
3 8 113 202
3 118 67 157
3 157 67 95
3 157 32 118
3 157 95 199
3 199 32 157