ply
format ascii 1.0
comment https://github.com/mikedh/trimesh
element vertex 256
property float x
property float y
property float z
element face 508
property list uchar int vertex_indices
end_header
-3.23188615 -2.43848705 0.35214472
1.23879373 4.38793802 0.10749654
-3.42282295 -0.98760623 -0.75781310
-0.25332278 0.87025779 1.70724726
1.59506965 0.70728576 1.56845176
-1.24301803 3.38556218 1.05293632
-3.04988003 -2.13629103 -0.73876745
1.40445697 0.81258529 -1.59683526
-2.60739088 -3.06204271 0.60267651
-2.24966812 -3.49052167 0.55655217
1.16395819 -4.39512348 -0.19625182
3.82375908 -0.81516743 0.20761386
0.86787003 2.38518524 -1.44331670
-0.40604872 2.01934648 1.55764985
3.10968757 2.42782664 -0.53418261
-2.66676283 1.63666332 1.11654043
-1.38158798 -3.54527020 0.93951017
0.59182233 4.34473515 -0.54717118
1.13526344 4.08282804 0.65160519
1.34987569 1.75045896 1.49665940
-0.05899123 -4.63086510 0.07736947
3.32733893 -2.25168800 0.35114917
3.51359200 -0.46275339 -0.74636298
2.24625921 2.32235599 1.12830150
-0.68265307 1.50558281 1.61997414
1.76892388 2.98519993 -1.07536554
-1.17012882 0.63416463 1.64570296
-3.29765105 2.28789687 0.37325233
-2.40442538 0.81875563 -1.33948338
1.08954084 3.34106255 -1.10614526
3.65881133 0.45434892 0.59307408
3.39641500 0.72552544 0.82031876
1.73672402 -3.79001594 0.63949436
2.92288995 -3.08037543 0.01213446
2.73598576 3.06453800 0.47249743
1.59617293 2.04273582 -1.39315438
1.17966712 -2.82317710 -1.27858818
1.55804873 -3.31082368 -1.00284576
2.40817261 -2.92245436 0.82388127
3.01880217 -0.16502933 -1.10660398
-1.98722708 2.35652471 1.21129882
0.68303186 -0.13569349 1.71426213
-3.30533791 -1.93512440 0.58369362
3.14594555 -2.02160096 0.70317489
-3.72450018 -1.15619457 0.31070977
3.26335311 2.51777244 -0.16619508
1.51931977 -0.26735687 1.60203028
2.11181998 3.84535480 0.24956442
1.83091593 -0.94650966 1.49743235
-2.95616436 3.03369236 -0.03883953
-2.53642583 2.07320142 -1.07300806
0.11030554 4.31893206 0.62933993
0.20771696 3.70960164 1.04065037
-1.29843640 -2.38488245 -1.37758410
1.86175513 0.16068584 1.53071439
-2.97147298 1.34454548 -1.01439393
0.75776356 -4.28235340 0.57554513
0.96882081 -3.71724010 -0.94656825
2.76789689 3.27119303 0.06459705
2.05185795 2.40184355 -1.17738760
1.24342966 4.27698183 0.38127521
2.54993439 -2.60007715 -0.88932383
1.98037815 1.61910629 -1.37355816
-0.89222562 -0.68275636 1.67697251
2.70740819 -3.10569882 0.46802774
-0.23113774 -1.38919640 -1.65889752
2.28981709 0.39901939 -1.40468192
0.96978509 -4.40546417 0.32556143
3.22683525 -1.21532357 -0.87281018
-1.09700704 3.40138865 -1.07787097
3.84203506 0.53939527 0.25979871
-3.48912358 1.27114117 0.62679225
-3.64283991 0.52961582 0.60432422
2.16370749 -0.24837381 -1.44863796
-1.75150442 -3.33669448 -0.92408353
-0.30396637 -3.54103756 -1.11542845
2.66719198 1.32926500 -1.17295063
2.68850827 -0.38295212 1.25760233
2.41932368 0.78846377 1.33619702
2.56222749 -0.19993727 -1.31432879
-2.24520445 3.79628992 0.00721945
-0.87147278 2.03743410 -1.51556444
3.53596663 1.75887609 0.34493777
0.73789102 -3.54073501 1.07454765
0.42795098 -0.40045515 -1.72498667
-1.99278247 -3.33677793 0.82221097
0.60580611 2.88830805 -1.33532023
-2.35799742 1.57602000 -1.25793612
1.13766217 0.99797398 1.62412906
-1.17755353 1.84928274 1.50886106
-1.62316442 -4.21731758 -0.00449685
-2.98642850 -2.97057509 -0.13985969
-0.64918953 2.49803638 1.43889880
-3.62353444 0.52456975 -0.62675607
-0.76924843 4.41066217 -0.41136587
1.57293975 -4.23626280 0.09846081
-1.36472201 -1.01626027 1.58732724
2.01281428 3.79902077 -0.43814903
-0.09627233 -0.34224713 -1.73657095
3.21074390 -0.22590749 0.99241114
2.82369494 3.12613940 -0.27231920
-2.08336782 3.86625004 0.24878506
-2.99564290 -2.94000816 0.18514815
0.12799136 -2.52035213 -1.46107483
-0.64666539 -4.04322958 0.80091721
-0.73404413 1.14845812 -1.65541291
-1.81726289 1.69901800 -1.40401518
-1.80929220 -1.81473005 1.38593769
2.26191115 2.85447955 -0.93227112
1.52322960 3.37376070 0.98304254
-0.85316479 -3.71035933 0.97261280
-1.91944718 -0.02816570 1.51786864
3.39685130 1.90200162 -0.48601961
-2.98388767 -2.44543433 0.65162039
2.72514796 -3.21991634 -0.31290853
1.35900986 1.56245649 -1.52473152
3.79428434 -0.49652004 -0.38213778
3.88476372 -0.46627548 -0.11600202
1.22420418 -4.07916069 0.62116021
-1.39294446 4.24042559 -0.33266649
-0.21313547 4.44138765 -0.48898062
-3.00682402 2.55222034 0.56741744
-2.84437156 0.90114349 1.14736629
-2.82268953 3.04410887 0.38228917
-0.08196261 1.49403083 1.64894938
-2.04389739 -3.54437637 -0.65707850
-3.76279116 -1.12562847 -0.22240154
-0.56857389 -2.76989579 -1.37316954
2.16997647 -3.71789455 -0.38425595
-1.18714345 0.01986072 -1.66003525
-3.16024494 -0.04915106 1.02770817
-3.34147096 2.41049981 0.02199305
3.08921719 0.67027199 1.03894162
-2.36411071 -2.27069020 1.09528863
0.19358622 -4.35247707 0.59213555
1.86013746 -2.45386839 1.22367311
-2.49685836 2.77088451 -0.84488314
-2.60583210 -2.46259737 -0.91208881
0.53910553 -3.08718586 -1.27687335
-1.43021619 4.26892710 0.23241505
-1.95897329 3.01527047 0.99464244
-3.17350864 1.93805861 -0.71211642
1.16665578 4.23512411 -0.48144731
2.64704609 3.13732481 -0.50562620
1.36791050 3.89210725 -0.72453952
0.06089463 4.56078672 0.30820319
-3.64006257 1.47289956 -0.31816196
-0.56525320 -4.43931961 -0.43159804
-3.10060430 0.21253636 -1.05971217
-3.86974716 0.16876245 0.25085399
-2.55037475 -3.45434999 -0.24353299
3.30567312 1.95516694 0.57318366
-0.20225561 -3.92947745 -0.91925818
-0.48758534 -4.56659651 -0.20708574
-3.58424711 1.14282334 -0.55015546
-3.49525213 -2.01245165 -0.20298342
2.04940319 -2.95009136 -0.98660588
1.50850999 -4.12210989 0.42763633
-2.69557214 -1.54324067 1.12186480
2.87466431 1.66638684 -1.00246847
-3.26192212 -2.55795503 0.03353714
-3.15071321 -0.86665541 0.98037481
0.25345710 0.85583693 1.70846999
-2.51406527 -3.07961059 -0.66450548
2.46137357 -3.58486247 -0.13605925
3.89661193 -0.13421395 0.14724819
0.63203764 -4.06583834 0.78755289
-3.73777175 -0.41892615 0.49014765
2.05307341 3.61333370 0.59679580
-1.84317982 -2.75058699 1.13700700
2.96611023 0.42652971 -1.12463570
3.10821247 -2.74661350 -0.23302314
0.47424933 3.88546562 -0.92690533
-2.11251330 3.51233602 -0.63822812
3.25067067 -1.16447651 0.86473757
-1.25100362 -1.91092873 1.48603666
0.04278260 2.69975543 1.41593778
-1.92242181 -3.84512973 -0.46293339
-1.42605758 1.24011350 1.55416036
2.01384926 3.55199385 -0.66958326
0.83726346 2.75094271 1.35189760
-3.59305954 1.58084989 0.35069615
-2.75047851 0.24186765 -1.23548234
-3.75111294 -0.70028037 -0.41964805
3.61401200 1.17055917 -0.50190234
1.32344139 -1.60028303 -1.52528226
-0.80405897 3.98418617 0.81490505
-0.35922769 -1.44012666 1.64833331
-2.65296340 3.15134072 -0.48632553
2.49262977 -2.20207191 1.05681288
2.51240587 2.88763809 0.77754349
0.16744815 2.67321277 -1.42091322
-2.65890074 2.14123845 0.99262452
3.40181494 -2.23371148 -0.18889919
-0.01011069 3.78793883 -1.00413692
2.52391911 -1.89854062 -1.12379086
-0.90727323 -2.04884768 -1.50922954
0.61226982 -4.18893814 -0.69337231
-0.12950554 3.18179226 -1.26548672
2.31169820 -3.61860013 0.35507366
-3.19804072 -2.32552838 -0.49485683
0.27040780 -2.18706179 1.53120112
-2.82805300 -3.02078891 0.39952517
-1.99724841 0.24837357 -1.49484253
-2.54087615 -0.04785867 1.32468760
-1.16253638 -2.67351723 1.32557952
-0.01157399 -4.40330839 -0.54396594
-3.85704565 0.31438532 -0.26963112
-1.07535315 -4.42420387 0.19866610
1.19602525 -3.27672291 1.11118650
3.63562965 -1.69656467 -0.09356192
3.74931431 1.21571553 0.20098431
0.49427104 0.58884555 -1.71417856
-3.56677151 -1.01806474 0.60530311
2.79557252 -1.22681761 1.12812400
1.78584146 2.53182530 1.22390270
-1.05558634 0.65130925 -1.65930247
3.13916922 1.80575907 -0.78875613
0.89671743 -0.86381525 -1.66406870
0.91786611 -2.22361302 1.47333241
-0.92559612 -3.59044218 -1.02133501
1.11873770 -1.04178059 1.62237918
-1.75699008 3.50001335 -0.83203107
-0.01221617 -2.99604750 1.32910311
3.41722345 2.22435665 0.14392932
-1.07363248 -1.16939425 -1.61632669
-1.29490888 4.16257048 0.50568444
-0.67811316 4.56293917 0.04609975
0.84065557 4.51926517 -0.09551585
1.88778269 -3.19283128 0.94178468
2.19335198 -0.50789410 1.42949474
-1.88858795 2.96563077 -1.04143000
-3.14627314 -0.87197119 -0.98247886
-1.81639576 4.06712389 -0.21037911
2.17721391 3.83891678 -0.11798209
0.19569564 2.01763678 1.56582558
1.63364780 -1.79860771 1.43106568
3.59160852 -0.97726434 -0.58627254
2.53177381 -3.23235893 -0.53694469
-0.31393856 3.33579993 1.20157206
1.73291302 -3.84710073 -0.59144872
-1.28634822 2.90061951 1.23191822
2.01534748 2.97773647 0.98830760
3.82845473 0.77803779 -0.21142055
3.51292634 -1.50811076 0.51716453
0.35263792 3.48664141 -1.13692129
-1.82774937 -3.97452545 0.37592581
0.15575196 -3.58474636 1.10185027
3.52896810 1.92970729 -0.20008054
0.77027363 4.35663509 0.48628008
-2.22249198 3.51163721 0.55952567
-0.96033311 2.87726498 -1.29726410
3.19241309 -2.28364205 -0.52733314
3.36090183 0.68306750 -0.85432857
-0.03010044 4.61583281 -0.15483981
-0.69709575 -4.38339901 0.47223791
3 135 229 189
3 110 247 223
3 223 247 83
3 30 31 99
3 209 229 135
3 209 223 83
3 38 189 229
3 64 43 38
3 38 43 189
3 94 194 69
3 149 181 146
3 80 233 188
3 146 181 131
3 146 131 141
3 141 131 188
3 110 223 205
3 237 68 22
3 172 144 29
3 198 86 191
3 191 251 198
3 69 194 198
3 198 251 69
3 51 226 186
3 23 78 132
3 99 31 132
3 19 78 23
3 165 30 11
3 23 190 242
3 159 76 59
3 59 108 159
3 248 184 112
3 243 184 248
3 211 243 248
3 248 224 211
3 211 224 82
3 82 30 211
3 34 224 58
3 234 47 58
3 58 47 34
3 21 43 64
3 174 30 99
3 135 189 236
3 46 48 230
3 227 94 119
3 167 149 44
3 44 213 167
3 49 80 188
3 188 131 49
3 136 141 188
3 182 55 28
3 148 55 182
3 250 226 101
3 180 109 52
3 186 239 52
3 52 51 186
3 72 149 167
3 181 149 72
3 72 71 181
3 121 140 250
3 107 158 133
3 96 107 175
3 175 107 205
3 68 237 252
3 252 61 68
3 68 61 195
3 61 156 195
3 245 198 194
3 86 198 245
3 245 194 172
3 172 29 245
3 245 29 86
3 59 76 62
3 191 86 12
3 86 29 12
3 81 251 191
3 191 105 81
3 212 105 191
3 191 12 212
3 203 182 28
3 17 144 172
3 60 47 1
3 1 47 234
3 168 190 34
3 34 47 168
3 109 242 168
3 168 242 190
3 168 47 60
3 227 226 145
3 226 51 145
3 145 1 228
3 109 168 18
3 18 168 60
3 18 52 109
3 51 52 18
3 180 19 215
3 215 19 23
3 23 242 215
3 215 109 180
3 215 242 109
3 78 19 4
3 4 41 46
3 70 243 211
3 70 165 243
3 211 30 70
3 30 165 70
3 116 237 22
3 22 184 116
3 116 184 243
3 25 29 144
3 25 108 59
3 25 12 29
3 217 108 14
3 217 159 108
3 217 14 112
3 112 184 217
3 253 184 22
3 253 217 184
3 159 217 253
3 112 14 45
3 45 248 112
3 224 248 45
3 45 58 224
3 151 224 34
3 151 82 224
3 34 190 151
3 151 190 23
3 31 30 151
3 30 82 151
3 23 132 151
3 151 132 31
3 210 252 237
3 237 116 210
3 43 21 244
3 244 174 43
3 244 210 11
3 21 210 244
3 11 30 244
3 30 174 244
3 214 236 189
3 48 236 214
3 214 230 48
3 189 43 214
3 43 174 214
3 214 174 99
3 201 205 223
3 201 175 205
3 221 236 48
3 46 41 221
3 221 48 46
3 78 230 77
3 99 132 77
3 77 132 78
3 77 214 99
3 230 214 77
3 222 94 69
3 222 119 94
3 69 251 231
3 231 222 69
3 136 222 231
3 141 136 50
3 50 55 141
3 136 231 50
3 93 55 148
3 148 2 93
3 93 2 183
3 16 85 246
3 110 205 16
3 220 75 152
3 233 80 139
3 80 101 139
3 227 119 139
3 139 119 233
3 139 226 227
3 139 101 226
3 180 52 176
3 176 52 239
3 63 41 3
3 3 26 63
3 89 13 92
3 92 241 89
3 13 176 92
3 239 241 92
3 92 176 239
3 5 239 186
3 5 241 239
3 140 241 5
3 186 226 5
3 5 226 250
3 250 140 5
3 40 178 89
3 40 15 178
3 89 241 40
3 40 241 140
3 181 71 27
3 71 121 27
3 27 131 181
3 140 121 192
3 192 40 140
3 15 40 192
3 71 15 192
3 192 121 71
3 33 21 64
3 37 156 240
3 61 252 238
3 128 240 238
3 238 156 61
3 238 240 156
3 127 220 53
3 75 220 127
3 53 196 127
3 196 103 127
3 127 138 75
3 103 138 127
3 106 81 105
3 106 203 28
3 106 50 231
3 251 81 106
3 106 231 251
3 84 7 218
3 84 212 7
3 7 212 115
3 115 212 12
3 115 62 7
3 228 17 254
3 254 94 227
3 227 145 254
3 254 145 228
3 249 18 60
3 51 18 249
3 249 145 51
3 60 1 249
3 1 145 249
3 54 230 78
3 78 4 54
3 46 230 54
3 54 4 46
3 243 165 117
3 117 116 243
3 117 165 11
3 11 210 117
3 117 210 116
3 179 25 144
3 108 25 179
3 144 97 179
3 35 25 59
3 12 25 35
3 35 115 12
3 59 62 35
3 62 115 35
3 142 17 228
3 234 97 142
3 144 17 142
3 142 97 144
3 142 1 234
3 228 1 142
3 234 58 100
3 58 45 100
3 100 97 234
3 100 45 14
3 193 210 21
3 193 33 171
3 21 33 193
3 171 252 193
3 252 210 193
3 187 41 63
3 175 201 187
3 187 221 41
3 201 221 187
3 63 96 187
3 96 175 187
3 236 221 219
3 219 221 201
3 219 209 135
3 135 236 219
3 223 209 219
3 219 201 223
3 173 136 188
3 173 222 136
3 188 233 173
3 233 119 173
3 119 222 173
3 148 182 232
3 232 2 148
3 6 2 232
3 182 203 232
3 126 155 44
3 126 44 149
3 183 2 126
3 207 93 183
3 207 126 149
3 183 126 207
3 207 149 146
3 141 55 154
3 55 93 154
3 146 141 154
3 154 207 146
3 93 207 154
3 246 255 104
3 104 16 246
3 110 16 104
3 104 247 110
3 133 85 169
3 85 16 169
3 169 16 205
3 169 107 133
3 205 107 169
3 208 255 246
3 246 90 208
3 235 176 13
3 235 19 180
3 180 176 235
3 124 235 13
3 178 26 24
3 26 3 24
3 89 178 24
3 3 124 24
3 24 13 89
3 24 124 13
3 111 107 96
3 111 96 63
3 63 26 111
3 111 26 178
3 123 27 121
3 123 121 250
3 123 49 131
3 131 27 123
3 250 101 123
3 80 49 123
3 123 101 80
3 255 208 20
3 199 33 64
3 164 33 199
3 37 240 57
3 57 240 197
3 57 197 152
3 152 75 57
3 75 138 57
3 114 252 171
3 114 238 252
3 171 33 114
3 114 33 164
3 114 164 128
3 128 238 114
3 36 195 156
3 36 185 195
3 36 156 37
3 37 57 36
3 36 57 138
3 103 185 36
3 36 138 103
3 66 62 76
3 7 62 66
3 76 159 170
3 159 253 170
3 170 66 76
3 79 66 170
3 87 106 28
3 50 106 87
3 28 55 87
3 55 50 87
3 105 212 98
3 212 84 98
3 94 254 120
3 120 254 17
3 194 94 120
3 172 194 120
3 120 17 172
3 143 179 97
3 97 100 143
3 143 100 14
3 14 108 143
3 108 179 143
3 200 126 2
3 155 126 200
3 200 2 6
3 6 163 200
3 53 220 74
3 246 85 9
3 9 202 246
3 177 90 150
3 150 90 246
3 247 104 166
3 83 247 166
3 166 209 83
3 166 118 209
3 88 4 19
3 19 235 88
3 41 4 88
3 204 161 158
3 158 107 204
3 107 111 204
3 128 164 95
3 164 199 95
3 153 208 90
3 153 20 208
3 229 209 32
3 209 118 32
3 32 38 229
3 64 38 32
3 32 199 64
3 73 66 79
3 73 185 218
3 218 7 73
3 7 66 73
3 195 185 73
3 73 79 195
3 79 170 39
3 68 195 39
3 195 79 39
3 22 68 39
3 39 253 22
3 39 170 253
3 65 103 196
3 218 185 65
3 65 185 103
3 65 84 218
3 65 98 84
3 163 74 125
3 177 150 125
3 125 150 163
3 125 220 177
3 125 74 220
3 53 74 137
3 137 232 53
3 6 232 137
3 137 163 6
3 137 74 163
3 213 44 42
3 44 0 42
3 42 161 213
3 158 161 42
3 155 200 91
3 91 200 163
3 163 150 91
3 118 166 56
3 162 124 3
3 162 3 41
3 41 88 162
3 235 124 162
3 162 88 235
3 161 204 130
3 130 72 167
3 167 213 130
3 213 161 130
3 197 240 10
3 10 240 128
3 128 95 10
3 147 90 177
3 147 153 90
3 147 220 152
3 177 220 147
3 105 98 216
3 98 129 216
3 216 129 203
3 216 106 105
3 203 106 216
3 98 65 225
3 225 129 98
3 225 65 196
3 203 129 225
3 225 196 53
3 53 232 225
3 225 232 203
3 133 158 113
3 158 42 113
3 113 0 202
3 113 42 0
3 155 91 160
3 44 155 160
3 160 0 44
3 102 91 150
3 246 202 102
3 102 150 246
3 102 160 91
3 202 0 102
3 0 160 102
3 118 56 67
3 20 10 67
3 67 10 95
3 134 56 166
3 134 104 255
3 134 166 104
3 255 20 134
3 20 67 134
3 134 67 56
3 122 130 204
3 178 15 122
3 122 15 71
3 122 111 178
3 122 204 111
3 71 72 122
3 72 130 122
3 152 197 206
3 206 147 152
3 153 147 206
3 197 10 206
3 20 153 206
3 206 10 20
3 8 85 133
3 133 113 8
3 8 9 85
3 202 9 8
3 8 113 202
3 118 67 157
3 157 67 95
3 157 32 118
3 157 95 199
3 199 32 157