ply
format ascii 1.0
comment https://github.com/mikedh/trimesh
element vertex 256
property float x
property float y
property float z
element face 508
property list uchar int vertex_indices
end_header
-1.00268531 -0.93491852 0.23307227
0.38433293 1.68234003 0.07114820
-1.06192303 -0.37864926 -0.50156999
-0.07859281 0.33365774 1.12996721
0.49486670 0.27117410 1.03810334
-0.38564351 1.29802811 0.69690168
-0.94621825 -0.81905621 -0.48896429
0.43572956 0.31154606 -1.05688941
-0.80893707 -1.17399037 0.39889047
-0.69795436 -1.33826971 0.36836240
0.36111537 -1.68509495 -0.12989222
1.18631244 -0.31253603 0.13741234
0.26925468 0.91448253 -0.95528078
-0.12597568 0.77421957 1.03095388
0.96477342 0.93083131 -0.35355675
-0.82735705 0.62749845 0.73899901
-0.42863452 -1.35926032 0.62182891
0.18361153 1.66577613 -0.36215344
0.35221291 1.56536055 0.43127465
0.41879585 0.67112780 0.99058640
-0.01830189 -1.77547848 0.05120814
1.03229928 -0.86329955 0.23241334
1.09008384 -0.17742014 -0.49399152
0.69689679 0.89039373 0.74678332
-0.21179156 0.57724202 1.07220411
0.54880458 1.14452875 -0.71174675
-0.36302978 0.24313939 1.08923316
-1.02308869 0.87718207 0.24704266
-0.74596751 0.31391177 -0.88655716
0.33802754 1.28096688 -0.73211884
1.13513780 0.17419785 0.39253497
1.05373001 0.27816722 0.54294026
0.53881466 -1.45309615 0.42325890
0.90681994 -1.18101919 0.00803137
0.84883332 1.17494714 0.31272951
0.49520898 0.78318709 -0.92208010
0.36598903 -1.08240914 -0.84625274
0.48338103 -1.26937330 -0.66374850
0.74713004 -1.12047207 0.54529816
0.93657649 -0.06327242 -0.73242241
-0.61653268 0.90349406 0.80171633
0.21190907 -0.05202502 1.13461006
-1.02547348 -0.74192870 0.38632637
0.97602242 -0.77508396 0.46540686
-1.15551770 -0.44328621 0.20564792
1.01244783 0.96531659 -0.10999871
0.47136548 -0.10250490 1.06032777
0.65518731 1.47431302 0.16517796
0.56803745 -0.36289281 0.99109799
-0.91714323 1.16312075 -0.02570653
-0.78692031 0.79486758 -0.71018648
0.03422204 1.65588319 0.41653806
0.06444371 1.42226517 0.68877006
-0.40283692 -0.91436636 -0.91177469
0.57760525 0.06160712 1.01312625
-0.92189264 0.51550013 -0.67139179
0.23509441 -1.64185882 0.38093320
0.30057442 -1.42519367 -0.62650037
0.85873365 1.25417888 0.04275453
0.63658428 0.92086935 -0.77927166
0.38577121 1.63979924 0.25235271
0.79111129 -0.99687225 -0.58861232
0.61440778 0.62076706 -0.90911001
-0.27681094 -0.26176950 1.10992932
0.83996719 -1.19072819 0.30977118
-0.07170995 -0.53261936 -1.09796619
0.71041054 0.15298446 -0.92970979
0.30087361 -1.68905950 0.21547772
1.00111830 -0.46595630 -0.57768250
-0.34034392 1.30409598 -0.71340507
1.19198263 0.20680472 0.17195168
-1.08249259 0.48735684 0.41485181
-1.13018274 0.20305525 0.39998102
0.67128527 -0.09522677 -0.95880276
-0.54340023 -1.27929223 -0.61161852
-0.09430487 -1.35763752 -0.73826307
0.82749021 0.50964159 -0.77633494
0.83410358 -0.14682424 0.83236301
0.75058961 0.30229783 0.88438207
0.79492521 -0.07665616 -0.86990821
-0.69656956 1.45550156 0.00477830
-0.27037245 0.78115439 -1.00309896
1.09702551 0.67435491 0.22830223
0.22892901 -1.35752153 0.71120548
0.13277081 -0.15353493 -1.14170825
-0.61825621 -1.27932417 0.54419267
0.18794997 1.10738039 -0.88380176
-0.73156333 0.60424769 -0.83258384
0.35295707 0.38262427 1.07495415
-0.36533329 0.70901692 0.99866235
-0.50358301 -1.61692393 -0.00297631
-0.92653263 -1.13892162 -0.09256823
-0.20140956 0.95774978 0.95235670
-1.12419331 0.20112060 -0.41482788
-0.23865756 1.69105256 -0.27226868
0.48800096 -1.62418771 0.06516776
-0.42340186 -0.38963524 1.05059636
0.62447107 1.45654857 -0.28999549
-0.02986827 -0.13121791 -1.14937556
0.99612594 -0.08661317 0.65684217
0.87604493 1.19856513 -0.18023853
-0.64636010 1.48232424 0.16466212
-0.92939138 -1.12720227 0.12254308
0.03970903 -0.96630561 -0.96703428
-0.20062646 -1.55017841 0.53009903
-0.22773550 0.44032001 -1.09565985
-0.56380165 0.65140527 -0.92926848
-0.56132877 -0.69576943 0.91730362
0.70175278 1.09441054 -0.61703759
0.47257850 1.29350340 0.65064144
-0.26469243 -1.42255569 0.64373833
-0.59550411 -0.01079876 1.00462413
1.05386543 0.72922939 -0.32167938
-0.92574435 -0.93758208 0.43128470
0.84547096 -1.23451924 -0.20710321
0.42162970 0.59904748 -1.00916636
1.17716801 -0.19036630 -0.25292361
1.20523906 -0.17877050 -0.07677767
0.37980655 -1.56395447 0.41112420
-0.43215784 1.62578356 -0.22018030
-0.06612479 1.70283270 -0.32363915
-0.93286026 0.97852391 0.37555376
-0.88245982 0.34549937 0.75940156
-0.87573296 1.16711450 0.25302383
-0.02542871 0.57281297 1.09138191
-0.63411450 -1.35891759 -0.43489727
-1.16739738 -0.43156710 -0.14719979
-0.17639874 -1.06198096 -0.90885282
0.67323023 -1.42544472 -0.25432557
-0.36830854 0.00761462 -1.09871924
-0.98045880 -0.01884457 0.68020409
-1.03668368 0.92418814 0.01455643
0.95842260 0.25698298 0.68763906
-0.73345989 -0.87058502 0.72493321
0.06005968 -1.66874433 0.39191377
0.57710338 -0.94081575 0.80990642
-0.77464455 1.06236005 -0.55919856
-0.80845344 -0.94416243 -0.60367966
0.16725627 -1.18363023 -0.84511775
-0.44372129 1.63671124 0.15382738
-0.60776699 1.15605783 0.65831900
-0.98457384 0.74305367 -0.47132492
0.36195228 1.62375104 -0.31865311
0.82124001 1.20285356 -0.33465630
0.42439109 1.49223804 -0.47954735
0.01889242 1.74861050 0.20398889
-1.12932110 0.56471121 -0.21058027
-0.17536850 -1.70203984 -0.28565964
-0.96195543 0.08148666 -0.70138639
-1.20058024 0.06470370 0.16603146
-0.79124790 -1.32440138 -0.16118596
1.02557755 0.74961305 0.37937018
-0.06274934 -1.50656581 -0.60842478
-0.15127224 -1.75083792 -0.13706280
-1.11200452 0.43815964 -0.36412865
-1.08439398 -0.77157605 -0.13434762
0.63582265 -1.13106811 -0.65299988
0.46801177 -1.58042133 0.28303751
-0.83629513 -0.59168005 0.74252301
0.89185804 0.63889444 -0.66349882
-1.01200390 -0.98072261 0.02219706
-0.97750157 -0.33227658 0.64887577
0.07863449 0.32812878 1.13077652
-0.77998304 -1.18072593 -0.43981293
0.76363552 -1.37443995 -0.09005286
1.20891500 -0.05145777 0.09745843
0.19608824 -1.55884671 0.52125371
-1.15963507 -0.16061673 0.32441157
0.63696128 1.38535583 0.39499822
-0.57184231 -1.05457795 0.75254506
0.92022896 0.16353194 -0.74435699
0.96431583 -1.05305445 -0.15422986
0.14713478 1.48969162 -0.61348617
-0.65540236 1.34663332 -0.42242086
1.00851309 -0.44646150 0.57233953
-0.38812101 -0.73265207 0.98355567
0.01327320 1.03508902 0.93715966
-0.59642696 -1.47422671 -0.30639941
-0.44243109 0.47546083 1.02864432
0.62479216 1.36183822 -0.44317371
0.25975907 1.05471432 0.89477372
-1.11473846 0.60609949 0.23211350
-0.85332966 0.09273231 -0.81772250
-1.16377413 -0.26848823 -0.27775034
1.12123895 0.44879362 -0.33219162
0.41059467 -0.61355019 -1.00953090
-0.24945746 1.52754116 0.53935713
-0.11144957 -0.55214608 1.09097409
-0.82307583 1.20822740 -0.32188183
0.77333266 -0.84427673 0.69946742
0.77946818 1.10712349 0.51462883
0.05195040 1.02491260 -0.94045269
-0.82491785 0.82095307 0.65698344
1.05540526 -0.85640734 -0.12502576
-0.00313682 1.45229971 -0.66460305
0.78304011 -0.72790247 -0.74379784
-0.28147945 -0.78553033 -0.99890620
0.18995531 -1.60604334 -0.45891887
-0.04017880 1.21990252 -0.83758134
0.71719903 -1.38737512 0.23501082
-0.99218482 -0.89161003 -0.32752842
0.08389340 -0.83852178 1.01344836
-0.87739700 -1.15817356 0.26443172
-0.61964172 0.09522668 -0.98938388
-0.78830099 -0.01834906 0.87676436
-0.36067426 -1.02502930 0.87735468
-0.00359080 -1.68823302 -0.36003202
-1.19663966 0.12053566 -0.17845941
-0.33362585 -1.69624436 0.13149013
0.37106410 -1.25629890 0.73545545
1.12794578 -0.65046471 -0.06192536
1.16321623 0.46610659 0.13302448
0.15334646 0.22576399 -1.13455474
-1.10658264 -0.39032710 0.40062895
0.86731994 -0.47036317 0.74666578
0.55405325 0.97070450 0.81005836
-0.32749325 0.24971265 -1.09823418
0.97392011 0.69232994 -0.52205008
0.27820453 -0.33118767 -1.10138881
0.28476587 -0.85253561 0.97514719
-0.28716406 -1.37657928 -0.67598587
0.34708580 -0.39941978 1.07379591
-0.54510212 1.34190881 -0.55069226
-0.00379004 -1.14868784 0.87968683
1.06018579 0.85282063 0.09526177
-0.33309203 -0.44834697 -1.06979012
-0.40174252 1.59593379 0.33469483
-0.21038306 1.74943566 0.03051181
0.26081148 1.73269105 -0.06321859
0.58568025 -1.22413480 0.62333429
0.68048245 -0.19472712 0.94613254
-0.58593011 1.13702595 -0.68928611
-0.97612405 -0.33431467 -0.65026838
-0.56353265 1.55933952 -0.13924256
0.67547566 1.47184479 -0.07808822
0.06071412 0.77356404 1.03636515
0.50683552 -0.68958807 0.94717228
1.11428833 -0.37468418 -0.38803327
0.78547704 -1.23928976 -0.35538489
-0.09739872 1.27894914 0.79527849
0.53763229 -1.47498250 -0.39145920
-0.39908659 1.11210048 0.81536353
0.62525696 1.14166725 0.65412617
1.18776929 0.29830050 -0.13993186
1.08987737 -0.57821125 0.34229311
0.10940511 1.33678198 -0.75248843
-0.56705505 -1.52383721 0.24881212
0.04832169 -1.37439561 0.72927612
1.09485424 0.73985183 -0.13242631
0.23897563 1.67033839 0.32185176
-0.68952310 1.34636533 0.37033045
-0.29794115 1.10314643 -0.85861367
0.99043888 -0.87555075 -0.34902337
1.04271209 0.26188877 -0.56545019
-0.00933859 1.76971507 -0.10248306
-0.21627237 -1.68059981 0.31255776
3 135 229 189
3 110 247 223
3 223 247 83
3 30 31 99
3 209 229 135
3 209 223 83
3 38 189 229
3 64 43 38
3 38 43 189
3 94 194 69
3 149 181 146
3 80 233 188
3 146 181 131
3 146 131 141
3 141 131 188
3 110 223 205
3 237 68 22
3 172 144 29
3 198 86 191
3 191 251 198
3 69 194 198
3 198 251 69
3 51 226 186
3 23 78 132
3 99 31 132
3 19 78 23
3 165 30 11
3 23 190 242
3 159 76 59
3 59 108 159
3 248 184 112
3 243 184 248
3 211 243 248
3 248 224 211
3 211 224 82
3 82 30 211
3 34 224 58
3 234 47 58
3 58 47 34
3 21 43 64
3 174 30 99
3 135 189 236
3 46 48 230
3 227 94 119
3 167 149 44
3 44 213 167
3 49 80 188
3 188 131 49
3 136 141 188
3 182 55 28
3 148 55 182
3 250 226 101
3 180 109 52
3 186 239 52
3 52 51 186
3 72 149 167
3 181 149 72
3 72 71 181
3 121 140 250
3 107 158 133
3 96 107 175
3 175 107 205
3 68 237 252
3 252 61 68
3 68 61 195
3 61 156 195
3 245 198 194
3 86 198 245
3 245 194 172
3 172 29 245
3 245 29 86
3 59 76 62
3 191 86 12
3 86 29 12
3 81 251 191
3 191 105 81
3 212 105 191
3 191 12 212
3 203 182 28
3 17 144 172
3 60 47 1
3 1 47 234
3 168 190 34
3 34 47 168
3 109 242 168
3 168 242 190
3 168 47 60
3 227 226 145
3 226 51 145
3 145 1 228
3 109 168 18
3 18 168 60
3 18 52 109
3 51 52 18
3 180 19 215
3 215 19 23
3 23 242 215
3 215 109 180
3 215 242 109
3 78 19 4
3 4 41 46
3 70 243 211
3 70 165 243
3 211 30 70
3 30 165 70
3 116 237 22
3 22 184 116
3 116 184 243
3 25 29 144
3 25 108 59
3 25 12 29
3 217 108 14
3 217 159 108
3 217 14 112
3 112 184 217
3 253 184 22
3 253 217 184
3 159 217 253
3 112 14 45
3 45 248 112
3 224 248 45
3 45 58 224
3 151 224 34
3 151 82 224
3 34 190 151
3 151 190 23
3 31 30 151
3 30 82 151
3 23 132 151
3 151 132 31
3 210 252 237
3 237 116 210
3 43 21 244
3 244 174 43
3 244 210 11
3 21 210 244
3 11 30 244
3 30 174 244
3 214 236 189
3 48 236 214
3 214 230 48
3 189 43 214
3 43 174 214
3 214 174 99
3 201 205 223
3 201 175 205
3 221 236 48
3 46 41 221
3 221 48 46
3 78 230 77
3 99 132 77
3 77 132 78
3 77 214 99
3 230 214 77
3 222 94 69
3 222 119 94
3 69 251 231
3 231 222 69
3 136 222 231
3 141 136 50
3 50 55 141
3 136 231 50
3 93 55 148
3 148 2 93
3 93 2 183
3 16 85 246
3 110 205 16
3 220 75 152
3 233 80 139
3 80 101 139
3 227 119 139
3 139 119 233
3 139 226 227
3 139 101 226
3 180 52 176
3 176 52 239
3 63 41 3
3 3 26 63
3 89 13 92
3 92 241 89
3 13 176 92
3 239 241 92
3 92 176 239
3 5 239 186
3 5 241 239
3 140 241 5
3 186 226 5
3 5 226 250
3 250 140 5
3 40 178 89
3 40 15 178
3 89 241 40
3 40 241 140
3 181 71 27
3 71 121 27
3 27 131 181
3 140 121 192
3 192 40 140
3 15 40 192
3 71 15 192
3 192 121 71
3 33 21 64
3 37 156 240
3 61 252 238
3 128 240 238
3 238 156 61
3 238 240 156
3 127 220 53
3 75 220 127
3 53 196 127
3 196 103 127
3 127 138 75
3 103 138 127
3 106 81 105
3 106 203 28
3 106 50 231
3 251 81 106
3 106 231 251
3 84 7 218
3 84 212 7
3 7 212 115
3 115 212 12
3 115 62 7
3 228 17 254
3 254 94 227
3 227 145 254
3 254 145 228
3 249 18 60
3 51 18 249
3 249 145 51
3 60 1 249
3 1 145 249
3 54 230 78
3 78 4 54
3 46 230 54
3 54 4 46
3 243 165 117
3 117 116 243
3 117 165 11
3 11 210 117
3 117 210 116
3 179 25 144
3 108 25 179
3 144 97 179
3 35 25 59
3 12 25 35
3 35 115 12
3 59 62 35
3 62 115 35
3 142 17 228
3 234 97 142
3 144 17 142
3 142 97 144
3 142 1 234
3 228 1 142
3 234 58 100
3 58 45 100
3 100 97 234
3 100 45 14
3 193 210 21
3 193 33 171
3 21 33 193
3 171 252 193
3 252 210 193
3 187 41 63
3 175 201 187
3 187 221 41
3 201 221 187
3 63 96 187
3 96 175 187
3 236 221 219
3 219 221 201
3 219 209 135
3 135 236 219
3 223 209 219
3 219 201 223
3 173 136 188
3 173 222 136
3 188 233 173
3 233 119 173
3 119 222 173
3 148 182 232
3 232 2 148
3 6 2 232
3 182 203 232
3 126 155 44
3 126 44 149
3 183 2 126
3 207 93 183
3 207 126 149
3 183 126 207
3 207 149 146
3 141 55 154
3 55 93 154
3 146 141 154
3 154 207 146
3 93 207 154
3 246 255 104
3 104 16 246
3 110 16 104
3 104 247 110
3 133 85 169
3 85 16 169
3 169 16 205
3 169 107 133
3 205 107 169
3 208 255 246
3 246 90 208
3 235 176 13
3 235 19 180
3 180 176 235
3 124 235 13
3 178 26 24
3 26 3 24
3 89 178 24
3 3 124 24
3 24 13 89
3 24 124 13
3 111 107 96
3 111 96 63
3 63 26 111
3 111 26 178
3 123 27 121
3 123 121 250
3 123 49 131
3 131 27 123
3 250 101 123
3 80 49 123
3 123 101 80
3 255 208 20
3 199 33 64
3 164 33 199
3 37 240 57
3 57 240 197
3 57 197 152
3 152 75 57
3 75 138 57
3 114 252 171
3 114 238 252
3 171 33 114
3 114 33 164
3 114 164 128
3 128 238 114
3 36 195 156
3 36 185 195
3 36 156 37
3 37 57 36
3 36 57 138
3 103 185 36
3 36 138 103
3 66 62 76
3 7 62 66
3 76 159 170
3 159 253 170
3 170 66 76
3 79 66 170
3 87 106 28
3 50 106 87
3 28 55 87
3 55 50 87
3 105 212 98
3 212 84 98
3 94 254 120
3 120 254 17
3 194 94 120
3 172 194 120
3 120 17 172
3 143 179 97
3 97 100 143
3 143 100 14
3 14 108 143
3 108 179 143
3 200 126 2
3 155 126 200
3 200 2 6
3 6 163 200
3 53 220 74
3 246 85 9
3 9 202 246
3 177 90 150
3 150 90 246
3 247 104 166
3 83 247 166
3 166 209 83
3 166 118 209
3 88 4 19
3 19 235 88
3 41 4 88
3 204 161 158
3 158 107 204
3 107 111 204
3 128 164 95
3 164 199 95
3 153 208 90
3 153 20 208
3 229 209 32
3 209 118 32
3 32 38 229
3 64 38 32
3 32 199 64
3 73 66 79
3 73 185 218
3 218 7 73
3 7 66 73
3 195 185 73
3 73 79 195
3 79 170 39
3 68 195 39
3 195 79 39
3 22 68 39
3 39 253 22
3 39 170 253
3 65 103 196
3 218 185 65
3 65 185 103
3 65 84 218
3 65 98 84
3 163 74 125
3 177 150 125
3 125 150 163
3 125 220 177
3 125 74 220
3 53 74 137
3 137 232 53
3 6 232 137
3 137 163 6
3 137 74 163
3 213 44 42
3 44 0 42
3 42 161 213
3 158 161 42
3 155 200 91
3 91 200 163
3 163 150 91
3 118 166 56
3 162 124 3
3 162 3 41
3 41 88 162
3 235 124 162
3 162 88 235
3 161 204 130
3 130 72 167
3 167 213 130
3 213 161 130
3 197 240 10
3 10 240 128
3 128 95 10
3 147 90 177
3 147 153 90
3 147 220 152
3 177 220 147
3 105 98 216
3 98 129 216
3 216 129 203
3 216 106 105
3 203 106 216
3 98 65 225
3 225 129 98
3 225 65 196
3 203 129 225
3 225 196 53
3 53 232 225
3 225 232 203
3 133 158 113
3 158 42 113
3 113 0 202
3 113 42 0
3 155 91 160
3 44 155 160
3 160 0 44
3 102 91 150
3 246 202 102
3 102 150 246
3 102 160 91
3 202 0 102
3 0 160 102
3 118 56 67
3 20 10 67
3 67 10 95
3 134 56 166
3 134 104 255
3 134 166 104
3 255 20 134
3 20 67 134
3 134 67 56
3 122 130 204
3 178 15 122
3 122 15 71
3 122 111 178
3 122 204 111
3 71 72 122
3 72 130 122
3 152 197 206
3 206 147 152
3 153 147 206
3 197 10 206
3 20 153 206
3 206 10 20
3 8 85 133
3 133 113 8
3 8 9 85
3 202 9 8
3 8 113 202
3 118 67 157
3 157 67 95
3 157 32 118
3 157 95 199
3 199 32 157