ply
format ascii 1.0
comment https://github.com/mikedh/trimesh
element vertex 256
property float x
property float y
property float z
element face 508
property list uchar int vertex_indices
end_header
-3.73478436 -1.87945712 0.80385941
1.43155646 3.38199091 0.24538806
-3.95543170 -0.76119471 -1.72990024
-0.29274109 0.67074877 3.89722395
1.84327066 0.54513848 3.58038807
-1.43643808 2.60941267 2.40359354
-3.52445698 -1.64654028 -1.68642366
1.62299776 0.62629783 -3.64518070
-3.01311445 -2.36006069 1.37576163
-2.59972811 -2.69030976 1.27047110
1.34507608 -3.38752890 -0.44799444
4.41875553 -0.62828797 0.47393116
1.00291502 1.83837485 -3.29473567
-0.46923199 1.55640566 3.55572987
3.59357095 1.87124062 -1.21940696
-3.08172488 1.26145363 2.54878616
-1.59657025 -2.73250699 2.14466977
0.68391293 3.34869266 -1.24905670
1.31191635 3.14682817 1.48745370
1.55992329 1.34916139 3.41650367
-0.06817058 -3.56922626 0.17661540
3.84508991 -1.73548222 0.80158681
4.06032515 -0.35666588 -1.70376241
2.59578896 1.78994942 2.57563376
-0.78887743 1.16042364 3.69800091
2.04417753 2.30083442 -2.45479393
-1.35220683 0.48878059 3.75673342
-3.81078243 1.76339006 0.85204291
-2.77856636 0.63105363 -3.05770969
1.25907898 2.57511449 -2.52505660
4.22814131 0.35018817 1.35384166
3.92491460 0.55919671 1.87258518
2.00696731 -2.92114425 1.45980763
3.37770677 -2.37419081 0.02769997
3.16171932 2.36198401 1.07859504
1.84454560 1.57443297 -3.18022752
1.36322939 -2.17595577 -2.91870093
1.80048907 -2.55180812 -2.28924918
2.78289676 -2.25247335 1.88071752
3.48854351 -0.12719589 -2.52610350
-2.29644990 1.81628489 2.76509619
0.78931516 -0.10458537 3.91323733
-3.81966543 -1.49149168 1.33242834
3.63547087 -1.55814326 1.60517466
-4.30405188 -0.89113373 0.70927370
3.77114773 1.94056606 -0.37938234
1.75573385 -0.20606455 3.65703940
2.44042993 2.96379638 0.56969392
2.11581588 -0.72951967 3.41826820
-3.41615868 2.33820987 -0.08866106
-2.93110681 1.59791422 -2.44941258
0.12746964 3.32880497 1.43662775
0.24003880 2.85916519 2.37554789
-1.50047982 -1.83814132 -3.14468431
2.15145373 0.12384816 3.49424314
-3.43384933 1.03630459 -2.31561065
0.87567550 -3.30061197 1.31382751
1.11957431 -2.86505222 -2.16078162
3.19859600 2.52126288 0.14745912
2.37113762 1.85121417 -2.68768525
1.43691373 3.29647160 0.87035716
2.94671726 -2.00400209 -2.03010654
2.28853512 1.24792159 -3.13549399
-1.03106046 -0.52623254 3.82811403
3.12869477 -2.39370871 1.06839180
-0.26710397 -1.07071912 -3.78685331
2.64612460 0.30754307 -3.20654202
1.12068868 -3.39549899 0.74317634
3.72894764 -0.93670720 -1.99241018
-1.26770699 2.62161064 -2.46051335
4.43987560 0.41573739 0.59305632
-4.03204918 0.97972846 1.43081188
-4.20968485 0.40819988 1.37952292
2.50039148 -0.19143340 -3.30688286
-2.02404761 -2.57174802 -2.10945439
-0.35126510 -2.72924471 -2.54624772
3.08222079 1.02452731 -2.67755651
3.10685420 -0.29515925 2.87079573
2.79578280 0.60770625 3.05020785
2.96092319 -0.15410109 -3.00028825
-2.59456992 2.92597985 0.01648022
-1.00707841 1.57034659 -3.45965934
4.08618116 1.35564876 0.78740776
0.85271072 -2.72901154 2.45292687
0.49454236 -0.30864969 -3.93771863
-2.30286980 -2.57181215 1.87690461
0.70007271 2.22615528 -3.04820633
-2.72491407 1.21471298 -2.87155747
1.31468821 0.76918566 3.70748544
-1.36078691 1.42532945 3.44435740
-1.87573707 -3.25048566 -0.01026519
-3.45113230 -2.28956246 -0.31926513
-0.75020677 1.92535448 3.28465056
-4.18737507 0.40431067 -1.43072939
-0.88894743 3.39950562 -0.93904674
1.81769729 -3.26508784 0.22476171
-1.57707977 -0.78327972 3.62347627
2.32601857 2.92808461 -1.00018609
-0.11125280 -0.26378602 -3.96416283
3.71035218 -0.17411757 2.26542974
3.26307654 2.40946317 -0.62163746
-2.40755057 2.97990131 0.56791484
-3.46178055 -2.26600313 0.42264754
0.14790748 -1.94255424 -3.33527303
-0.74728990 -3.11630774 1.82829618
-0.84826517 0.88517082 -3.77889895
-2.10003853 1.30951333 -3.20501995
-2.09082747 -1.39869809 3.16375351
2.61387634 2.20008206 -2.12814474
1.76025200 2.60031652 2.24404335
-0.98592168 -2.85974908 2.22023487
-2.21812296 -0.02170863 3.46491933
3.92541909 1.46596241 -1.10946274
-3.44819617 -1.88481152 1.48748839
3.14919519 -2.48174143 -0.71429288
1.57047880 1.20425892 -3.48058558
4.38469458 -0.38269141 -0.87232620
4.48925304 -0.35938051 -0.26480398
1.41469669 -3.14400172 1.41795540
-1.60969388 3.26829600 -0.75939542
-0.24630046 3.42318702 -1.11622202
-3.47470140 1.96711659 1.29527390
-3.28697062 0.69455379 2.61915374
-3.26191473 2.34623837 0.87267178
-0.09471641 1.15152001 3.76414418
-2.36193848 -2.73181796 -1.49994802
-4.34830093 -0.86757493 -0.50768781
-0.65704691 -2.13488936 -3.13460684
2.50763607 -2.86555672 -0.87716144
-1.37186909 0.01530759 -3.78945065
-3.65199542 -0.03788304 2.34600401
-3.86142111 1.85788584 0.05020471
3.56991529 0.51661026 2.37164712
-2.73197842 -1.75012815 2.50027347
0.22370923 -3.35465956 1.35169923
2.14958429 -1.89131224 2.79334354
-2.88538241 2.13565135 -1.92865956
-3.01131296 -1.89804006 -2.08207345
0.62299317 -2.37943983 -2.91478658
-1.65276527 3.29026365 0.53054619
-2.26379967 2.32401133 2.27052307
-3.66732311 1.49375319 -1.62558591
1.34819341 3.26420999 -1.09902537
3.05894017 2.41808414 -1.15421975
1.58076441 2.99983072 -1.65394485
0.07037015 3.51521373 0.70355177
-4.20647526 1.13523316 -0.72628522
-0.65320951 -3.42159319 -0.98523176
-3.58307433 0.16381180 -2.41906118
-4.47189999 0.13007317 0.57263768
-2.94722605 -2.66243052 -0.55592567
3.82005286 1.50693941 1.30843675
-0.23372762 -3.02863359 -2.09843946
-0.56345612 -3.51969147 -0.47272560
-4.14197445 0.88082784 -1.25586915
-4.03913164 -1.55109131 -0.46336102
2.36830091 -2.27377462 -2.25217772
1.74324191 -3.17710471 0.97618812
-3.11501718 -1.18944836 2.56094027
3.32197714 1.28436291 -2.28838801
-3.76949406 -1.97153652 0.07655700
-3.64098048 -0.66797221 2.23795366
0.29289633 0.65963393 3.90001512
-2.90526700 -2.37360120 -1.51690197
2.84437585 -2.76302266 -0.31058967
4.50294495 -0.10344503 0.33613127
0.73038602 -3.13373351 1.79778874
-4.31938839 -0.32288617 1.11888611
2.37254214 2.78496671 1.36233735
-2.12998819 -2.12000704 2.59550619
3.42765236 0.32874659 -2.56726575
3.59186649 -2.11694455 -0.53193432
0.54804498 2.99471188 -2.11589599
-2.44123125 2.70712328 -1.45691717
3.75649190 -0.89751697 1.97398233
-1.44566619 -1.47284293 3.39225483
0.04943980 2.08082891 3.23223639
-2.22156072 -2.96362281 -1.05676258
-1.64795947 0.95581400 3.54776430
2.32721472 2.73768926 -1.52849329
0.96754599 2.12028146 3.08604860
-4.15215826 1.21843565 0.80055267
-3.17846727 0.18641880 -2.82030106
-4.33480549 -0.53973913 -0.95795286
4.17637110 0.90220517 -1.14571917
1.52937579 -1.23341370 -3.48184276
-0.92917472 3.07080030 1.86022699
-0.41512537 -1.10997355 3.76273799
-3.06577826 2.42888713 -1.11016107
2.88049579 -1.69724083 2.41244268
2.90334916 2.22563887 1.77493978
0.19350395 2.06037116 -3.24359393
-3.07263947 1.65035355 2.26591682
3.93115497 -1.72162688 -0.43121019
-0.01168397 2.91954303 -2.29219675
2.91665387 -1.46329486 -2.56533718
-1.04844964 -1.57914364 -3.44519830
0.70754212 -3.22861242 -1.58279777
-0.14965728 2.45235753 -2.88879371
2.67141032 -2.78902602 0.81054550
-3.69567251 -1.79239452 -1.12963593
0.31248465 -1.68567169 3.49535394
-3.26811266 -2.32826447 0.91201729
-2.30803061 0.19143322 -3.41235638
-2.93624973 -0.03688693 3.02393484
-1.34343314 -2.06060576 3.02597070
-0.01337496 -3.39383745 -1.24173999
-4.45722198 0.24231160 -0.61550128
-1.24268365 -3.40994263 0.45350564
1.38213289 -2.52552485 2.53656435
4.20135260 -1.30762243 -0.21357878
4.33272696 0.93700927 0.45879757
0.57118219 0.45385104 -3.91304636
-4.12177944 -0.78467053 1.38175762
3.23057795 -0.94556624 2.57522869
2.06372762 1.95139730 2.79386783
-1.21984100 0.50199473 -3.78777790
3.62764025 1.39178371 -1.80053544
1.03625131 -0.66578317 -3.79865789
1.06069088 -1.71384358 3.36325431
-1.06962359 -2.76732326 -2.33145547
1.29281902 -0.80294949 3.70349097
-2.03038669 2.69762540 -1.89932156
-0.01411707 -2.30919528 3.03401423
3.94896102 1.71441650 0.32855508
-1.24069524 -0.90130728 -3.68967485
-1.49640334 3.20828938 1.15435278
-0.78363109 3.51687264 0.10523435
0.97146595 3.48321104 -0.21803908
2.18153143 -2.46086574 2.14986181
2.53464890 -0.39145795 3.26318359
-2.18246198 2.28575158 -2.37732768
-3.63584948 -0.67206931 -2.24275661
-2.09903646 3.13472438 -0.48024356
2.51599979 2.95883441 -0.26932397
0.22614689 1.55508780 3.57439327
1.88785195 -1.38627183 3.26676965
4.15048122 -0.75322378 -1.33831549
2.92573094 -2.49133158 -1.22571206
-0.36278901 2.57105827 2.74289227
2.00256324 -2.96514201 -1.35013139
-1.48651075 2.23564434 2.81216502
2.32894588 2.29508209 2.25606227
4.42418194 0.59967047 -0.48262089
4.05955601 -1.16237211 1.18055892
0.40751022 2.68731904 -2.59531069
-2.11215663 -3.06335425 0.85814577
0.17998777 -2.76293325 2.51525211
4.07809353 1.48731649 -0.45673448
0.89013219 3.35786414 1.11005735
-2.56832337 2.70658445 1.27725899
-1.10976589 2.21764398 -2.96133351
3.68916917 -1.76011074 -1.20377135
3.88387561 0.52647233 -1.95022118
-0.03478422 3.55764008 -0.35346109
-0.80556744 -3.37849259 1.07800257
3 135 229 189
3 110 247 223
3 223 247 83
3 30 31 99
3 209 229 135
3 209 223 83
3 38 189 229
3 64 43 38
3 38 43 189
3 94 194 69
3 149 181 146
3 80 233 188
3 146 181 131
3 146 131 141
3 141 131 188
3 110 223 205
3 237 68 22
3 172 144 29
3 198 86 191
3 191 251 198
3 69 194 198
3 198 251 69
3 51 226 186
3 23 78 132
3 99 31 132
3 19 78 23
3 165 30 11
3 23 190 242
3 159 76 59
3 59 108 159
3 248 184 112
3 243 184 248
3 211 243 248
3 248 224 211
3 211 224 82
3 82 30 211
3 34 224 58
3 234 47 58
3 58 47 34
3 21 43 64
3 174 30 99
3 135 189 236
3 46 48 230
3 227 94 119
3 167 149 44
3 44 213 167
3 49 80 188
3 188 131 49
3 136 141 188
3 182 55 28
3 148 55 182
3 250 226 101
3 180 109 52
3 186 239 52
3 52 51 186
3 72 149 167
3 181 149 72
3 72 71 181
3 121 140 250
3 107 158 133
3 96 107 175
3 175 107 205
3 68 237 252
3 252 61 68
3 68 61 195
3 61 156 195
3 245 198 194
3 86 198 245
3 245 194 172
3 172 29 245
3 245 29 86
3 59 76 62
3 191 86 12
3 86 29 12
3 81 251 191
3 191 105 81
3 212 105 191
3 191 12 212
3 203 182 28
3 17 144 172
3 60 47 1
3 1 47 234
3 168 190 34
3 34 47 168
3 109 242 168
3 168 242 190
3 168 47 60
3 227 226 145
3 226 51 145
3 145 1 228
3 109 168 18
3 18 168 60
3 18 52 109
3 51 52 18
3 180 19 215
3 215 19 23
3 23 242 215
3 215 109 180
3 215 242 109
3 78 19 4
3 4 41 46
3 70 243 211
3 70 165 243
3 211 30 70
3 30 165 70
3 116 237 22
3 22 184 116
3 116 184 243
3 25 29 144
3 25 108 59
3 25 12 29
3 217 108 14
3 217 159 108
3 217 14 112
3 112 184 217
3 253 184 22
3 253 217 184
3 159 217 253
3 112 14 45
3 45 248 112
3 224 248 45
3 45 58 224
3 151 224 34
3 151 82 224
3 34 190 151
3 151 190 23
3 31 30 151
3 30 82 151
3 23 132 151
3 151 132 31
3 210 252 237
3 237 116 210
3 43 21 244
3 244 174 43
3 244 210 11
3 21 210 244
3 11 30 244
3 30 174 244
3 214 236 189
3 48 236 214
3 214 230 48
3 189 43 214
3 43 174 214
3 214 174 99
3 201 205 223
3 201 175 205
3 221 236 48
3 46 41 221
3 221 48 46
3 78 230 77
3 99 132 77
3 77 132 78
3 77 214 99
3 230 214 77
3 222 94 69
3 222 119 94
3 69 251 231
3 231 222 69
3 136 222 231
3 141 136 50
3 50 55 141
3 136 231 50
3 93 55 148
3 148 2 93
3 93 2 183
3 16 85 246
3 110 205 16
3 220 75 152
3 233 80 139
3 80 101 139
3 227 119 139
3 139 119 233
3 139 226 227
3 139 101 226
3 180 52 176
3 176 52 239
3 63 41 3
3 3 26 63
3 89 13 92
3 92 241 89
3 13 176 92
3 239 241 92
3 92 176 239
3 5 239 186
3 5 241 239
3 140 241 5
3 186 226 5
3 5 226 250
3 250 140 5
3 40 178 89
3 40 15 178
3 89 241 40
3 40 241 140
3 181 71 27
3 71 121 27
3 27 131 181
3 140 121 192
3 192 40 140
3 15 40 192
3 71 15 192
3 192 121 71
3 33 21 64
3 37 156 240
3 61 252 238
3 128 240 238
3 238 156 61
3 238 240 156
3 127 220 53
3 75 220 127
3 53 196 127
3 196 103 127
3 127 138 75
3 103 138 127
3 106 81 105
3 106 203 28
3 106 50 231
3 251 81 106
3 106 231 251
3 84 7 218
3 84 212 7
3 7 212 115
3 115 212 12
3 115 62 7
3 228 17 254
3 254 94 227
3 227 145 254
3 254 145 228
3 249 18 60
3 51 18 249
3 249 145 51
3 60 1 249
3 1 145 249
3 54 230 78
3 78 4 54
3 46 230 54
3 54 4 46
3 243 165 117
3 117 116 243
3 117 165 11
3 11 210 117
3 117 210 116
3 179 25 144
3 108 25 179
3 144 97 179
3 35 25 59
3 12 25 35
3 35 115 12
3 59 62 35
3 62 115 35
3 142 17 228
3 234 97 142
3 144 17 142
3 142 97 144
3 142 1 234
3 228 1 142
3 234 58 100
3 58 45 100
3 100 97 234
3 100 45 14
3 193 210 21
3 193 33 171
3 21 33 193
3 171 252 193
3 252 210 193
3 187 41 63
3 175 201 187
3 187 221 41
3 201 221 187
3 63 96 187
3 96 175 187
3 236 221 219
3 219 221 201
3 219 209 135
3 135 236 219
3 223 209 219
3 219 201 223
3 173 136 188
3 173 222 136
3 188 233 173
3 233 119 173
3 119 222 173
3 148 182 232
3 232 2 148
3 6 2 232
3 182 203 232
3 126 155 44
3 126 44 149
3 183 2 126
3 207 93 183
3 207 126 149
3 183 126 207
3 207 149 146
3 141 55 154
3 55 93 154
3 146 141 154
3 154 207 146
3 93 207 154
3 246 255 104
3 104 16 246
3 110 16 104
3 104 247 110
3 133 85 169
3 85 16 169
3 169 16 205
3 169 107 133
3 205 107 169
3 208 255 246
3 246 90 208
3 235 176 13
3 235 19 180
3 180 176 235
3 124 235 13
3 178 26 24
3 26 3 24
3 89 178 24
3 3 124 24
3 24 13 89
3 24 124 13
3 111 107 96
3 111 96 63
3 63 26 111
3 111 26 178
3 123 27 121
3 123 121 250
3 123 49 131
3 131 27 123
3 250 101 123
3 80 49 123
3 123 101 80
3 255 208 20
3 199 33 64
3 164 33 199
3 37 240 57
3 57 240 197
3 57 197 152
3 152 75 57
3 75 138 57
3 114 252 171
3 114 238 252
3 171 33 114
3 114 33 164
3 114 164 128
3 128 238 114
3 36 195 156
3 36 185 195
3 36 156 37
3 37 57 36
3 36 57 138
3 103 185 36
3 36 138 103
3 66 62 76
3 7 62 66
3 76 159 170
3 159 253 170
3 170 66 76
3 79 66 170
3 87 106 28
3 50 106 87
3 28 55 87
3 55 50 87
3 105 212 98
3 212 84 98
3 94 254 120
3 120 254 17
3 194 94 120
3 172 194 120
3 120 17 172
3 143 179 97
3 97 100 143
3 143 100 14
3 14 108 143
3 108 179 143
3 200 126 2
3 155 126 200
3 200 2 6
3 6 163 200
3 53 220 74
3 246 85 9
3 9 202 246
3 177 90 150
3 150 90 246
3 247 104 166
3 83 247 166
3 166 209 83
3 166 118 209
3 88 4 19
3 19 235 88
3 41 4 88
3 204 161 158
3 158 107 204
3 107 111 204
3 128 164 95
3 164 199 95
3 153 208 90
3 153 20 208
3 229 209 32
3 209 118 32
3 32 38 229
3 64 38 32
3 32 199 64
3 73 66 79
3 73 185 218
3 218 7 73
3 7 66 73
3 195 185 73
3 73 79 195
3 79 170 39
3 68 195 39
3 195 79 39
3 22 68 39
3 39 253 22
3 39 170 253
3 65 103 196
3 218 185 65
3 65 185 103
3 65 84 218
3 65 98 84
3 163 74 125
3 177 150 125
3 125 150 163
3 125 220 177
3 125 74 220
3 53 74 137
3 137 232 53
3 6 232 137
3 137 163 6
3 137 74 163
3 213 44 42
3 44 0 42
3 42 161 213
3 158 161 42
3 155 200 91
3 91 200 163
3 163 150 91
3 118 166 56
3 162 124 3
3 162 3 41
3 41 88 162
3 235 124 162
3 162 88 235
3 161 204 130
3 130 72 167
3 167 213 130
3 213 161 130
3 197 240 10
3 10 240 128
3 128 95 10
3 147 90 177
3 147 153 90
3 147 220 152
3 177 220 147
3 105 98 216
3 98 129 216
3 216 129 203
3 216 106 105
3 203 106 216
3 98 65 225
3 225 129 98
3 225 65 196
3 203 129 225
3 225 196 53
3 53 232 225
3 225 232 203
3 133 158 113
3 158 42 113
3 113 0 202
3 113 42 0
3 155 91 160
3 44 155 160
3 160 0 44
3 102 91 150
3 246 202 102
3 102 150 246
3 102 160 91
3 202 0 102
3 0 160 102
3 118 56 67
3 20 10 67
3 67 10 95
3 134 56 166
3 134 104 255
3 134 166 104
3 255 20 134
3 20 67 134
3 134 67 56
3 122 130 204
3 178 15 122
3 122 15 71
3 122 111 178
3 122 204 111
3 71 72 122
3 72 130 122
3 152 197 206
3 206 147 152
3 153 147 206
3 197 10 206
3 20 153 206
3 206 10 20
3 8 85 133
3 133 113 8
3 8 9 85
3 202 9 8
3 8 113 202
3 118 67 157
3 157 67 95
3 157 32 118
3 157 95 199
3 199 32 157