ply
format ascii 1.0
comment https://github.com/mikedh/trimesh
element vertex 256
property float x
property float y
property float z
element face 508
property list uchar int vertex_indices
end_header
-3.45241952 -1.33138764 0.32712677
1.32332504 2.39576674 0.09985951
-3.65638518 -0.53922230 -0.70397466
-0.27060869 0.47515136 1.58595681
1.70391202 0.38617036 1.45702195
-1.32783759 1.84848046 0.97813100
-3.25799394 -1.16639185 -0.68628210
1.50029254 0.44366279 -1.48338890
-2.78531075 -1.67184222 0.55985963
-2.40317822 -1.90578711 0.51701218
1.24338281 -2.39968991 -0.18230921
4.08468008 -0.44507259 0.19286403
0.92709064 1.30228543 -1.34077704
-0.43375614 1.10254145 1.44698739
3.32188249 1.32556713 -0.49623188
-2.84873390 0.89360052 1.03721642
-1.47586310 -1.93567932 0.87276316
0.63220638 2.37217855 -0.50829768
1.21273017 2.22918010 0.60531223
1.44198680 0.95573169 1.39032996
-0.06301661 -2.52840233 0.07187279
3.55438566 -1.22939742 0.32620195
3.75334811 -0.25265834 -0.69333804
2.39953685 1.26798129 1.04814196
-0.72923511 0.82203192 1.50488389
1.88962948 1.62988698 -0.99896669
-1.24997461 0.34624705 1.52878487
-3.52267194 1.24916697 0.34673482
-2.56849551 0.44703174 -1.24432051
1.16388750 1.82418406 -1.02755976
3.90847659 0.24806960 0.55093944
3.62817526 0.39612904 0.76203960
1.85523248 -2.06930780 0.59406179
3.12233853 -1.68185174 0.01127237
2.92268062 1.67320466 0.43892911
1.70509052 1.11531174 -1.29417849
1.26016378 -1.54142427 -1.18775153
1.66436481 -1.80767405 -0.93159908
2.57249856 -1.59562850 0.76534909
3.22479558 -0.09010423 -1.02798581
-2.12282896 1.28663707 1.12524283
0.72963971 -0.07408718 1.59247327
-3.53088331 -1.05655694 0.54222542
3.36061454 -1.10377228 0.65321821
-3.97864795 -0.63126975 0.28863555
3.48603368 1.37467659 -0.15438785
1.62299323 -0.14597397 1.48821485
2.25592375 2.09952211 0.23183425
1.95585167 -0.51678407 1.39104795
-3.15788341 1.65636325 -0.03608020
-2.70950317 1.13194561 -0.99677682
0.11783243 2.35809040 0.58462882
0.22189090 2.02540255 0.96671790
-1.38703740 -1.30211997 -1.27971435
1.98879516 0.08773273 1.42196560
-3.17423654 0.73410732 -0.94232678
0.80947089 -2.33811879 0.53465587
1.03492999 -2.02957296 -0.87931979
2.95676923 1.78603601 0.06000779
2.19187021 1.31138062 -1.09374070
1.32827723 2.33518577 0.35418770
2.72393346 -1.41961396 -0.82614225
2.11551261 0.88401455 -1.27597439
-0.95310819 -0.37277761 1.55783284
2.89215302 -1.69567800 0.43477696
-0.24690983 -0.75848621 -1.54104197
2.44606686 0.21786027 -1.30488706
1.03596008 -2.40533566 0.30243209
3.44702411 -0.66355354 -0.81080186
-1.17186320 1.85712147 -1.00129426
4.10420322 0.29450399 0.24134146
-3.72721004 0.69402933 0.58226210
-3.89141560 0.28916451 0.56139028
2.31135178 -0.13560942 -1.34572029
-1.87102139 -1.82179916 -0.85843247
-0.32470804 -1.93336833 -1.03618348
2.84919262 0.72576433 -1.08961892
2.87196350 -0.20908771 1.16825664
2.58441043 0.43049270 1.24126768
2.73706555 -0.10916359 -1.22095299
-2.39840984 2.07273340 0.00670655
-0.93093926 1.11241698 -1.40789187
3.77724934 0.96032733 0.32043183
0.78824234 -1.93320310 0.99820697
0.45715296 -0.21864419 -1.60243595
-2.12876344 -1.82184470 0.76379740
0.64714438 1.57698500 -1.24045312
-2.51889944 0.86048985 -1.16856670
1.21529257 0.54488301 1.50874364
-1.25790596 1.00968838 1.40166485
-1.73392379 -2.30260992 -0.00417737
-3.19021273 -1.62190199 -0.12992343
-0.69348812 1.36390090 1.33667290
-3.87079287 0.28640944 -0.58222848
-0.82173944 2.40817404 -0.38214061
1.68027198 -2.31295371 0.09146571
-1.45784616 -0.55486709 1.47455645
2.15016222 2.07422423 -0.40702096
-0.10284164 -0.18686324 -1.61319721
3.42983460 -0.12334305 0.92190582
3.01637483 1.70683837 -0.25297242
-2.22553015 2.11093068 0.23111026
-3.20005584 -1.60521269 0.17199440
0.13672508 -1.37608492 -1.35727358
-0.69079179 -2.20755959 0.74401647
-0.78413290 0.62704569 -1.53780496
-1.94126701 0.92764544 -1.30426764
-1.93275237 -0.99082303 1.28747439
2.41625667 1.55851507 -0.86603838
1.62716985 1.84203684 0.91320282
-0.91138202 -2.02581620 0.90351403
-2.05042410 -0.01537817 1.41003251
3.62864161 1.03847229 -0.45149061
-3.18749857 -1.33518064 0.60532635
2.91110325 -1.75803947 -0.29067811
1.45174420 0.85308439 -1.41640770
4.05319405 -0.27109459 -0.35498899
4.14984751 -0.25458136 -0.10776071
1.30773997 -2.22717762 0.57703024
-1.48799455 2.31522655 -0.30903238
-0.22767915 2.42494965 -0.45424125
-3.21199989 1.39348471 0.52710557
-3.03846240 0.49201462 1.06585217
-3.01530075 1.66205060 0.35512966
-0.08755547 0.81572467 1.53180063
-2.18336630 -1.93519115 -0.61039668
-4.01955175 -0.61458093 -0.20660114
-0.60737151 -1.51233327 -1.27561343
2.31804848 -2.02993035 -0.35695669
-1.26815033 0.01084374 -1.54209900
-3.37588978 -0.02683595 0.95469522
-3.56948209 1.31610680 0.02043057
3.30001545 0.36596128 0.96513051
-2.52542973 -1.23977232 1.01747441
0.20679590 -2.37640548 0.55006754
1.98706710 -1.33978570 1.13673794
-2.66723585 1.51287293 -0.78485888
-2.78364563 -1.34455156 -0.84728992
0.57589233 -1.68557012 -1.18615854
-1.52780950 2.33078814 0.21590325
-2.09264731 1.64630520 0.92397857
-3.39005852 1.05815899 -0.66152447
1.24626458 2.31233215 -0.44724312
2.82767177 1.71294546 -0.46970427
1.46125221 2.12504864 -0.67306501
0.06504989 2.49014044 0.28630704
-3.88844872 0.80418724 -0.29555830
-0.60382420 -2.42382073 -0.40093538
-3.31217957 0.11604255 -0.98442543
-4.13380623 0.09214247 0.23303218
-2.72440386 -1.88603771 -0.22623132
3.53124166 1.06750000 0.53246212
-0.21605687 -2.14545226 -0.85394996
-0.52085656 -2.49331236 -0.19237344
-3.82882452 0.62396920 -0.51106995
-3.73375678 -1.09877682 -0.18856257
2.18924785 -1.61071801 -0.91651297
1.61144578 -2.25062752 0.39725512
-2.87950921 -0.84259272 1.04216242
3.07082224 0.90982920 -0.93124861
-3.48450494 -1.39661574 0.03115451
-3.36570764 -0.47318450 0.91072458
0.27075219 0.46727774 1.58709264
-2.68561697 -1.68143415 -0.61729604
2.62932968 -1.95729613 -0.12639299
4.16250420 -0.07327937 0.13678703
0.67516583 -2.21990395 0.73160160
-3.99282503 -0.22872916 0.45532537
2.19316840 1.97284114 0.55439675
-1.96895242 -1.50179076 1.05622888
3.16850805 0.23288062 -1.04473650
3.32030678 -1.49962127 -0.21646814
0.50661057 2.12142229 -0.86105382
-2.25666428 1.91769755 -0.59288555
3.47248578 -0.63579160 0.80330271
-1.33636808 -1.04334641 1.38046193
0.04570195 1.47403729 1.31534326
-2.05360174 -2.09939933 -0.43004453
-1.52336705 0.67708856 1.44374585
2.15126801 1.93935025 -0.62201303
0.89439565 1.50198507 1.25585282
-3.83823824 0.86312693 0.32578111
-2.93816233 0.13205712 -1.14770806
-4.00707674 -0.38234553 -0.38983437
3.86062050 0.63911265 -0.46624497
1.41374874 -0.87373728 -1.41691935
-0.85892534 2.17532253 0.75701052
-0.38374022 -0.78629357 1.53122830
-2.83399296 1.72059798 -0.45177478
2.66271853 -1.20230746 0.98173213
2.68384433 1.57661927 0.72230333
0.17887425 1.45954525 -1.31996512
-2.84033537 1.16909313 0.92210406
3.63394380 -1.21958244 -0.17547894
-0.01080061 2.06817365 -0.93279856
2.69614315 -1.03658271 -1.04395175
-0.96918261 -1.11864865 -1.40200710
0.65404910 -2.28711510 -0.64411205
-0.13834257 1.73722422 -1.17558086
2.46944094 -1.97571659 0.32984763
-3.41626477 -1.26971340 -0.45969999
0.28885955 -1.19411218 1.42241764
-3.02103019 -1.64931810 0.37114111
-2.13353419 0.13560928 -1.38864219
-2.71425724 -0.02613031 1.23057592
-1.24186420 -1.45971155 1.23140442
-0.01236376 -2.40415883 -0.50532019
-4.12023783 0.17165099 -0.25047532
-1.14873171 -2.41556740 0.18455197
1.27763808 -1.78905523 1.03224289
3.88371325 -0.92630601 -0.08691487
4.00515509 0.66376752 0.18670550
0.52799851 0.32150331 -1.59239566
-3.81015635 -0.55585235 0.56229967
2.98633313 -0.66982919 1.04797709
1.90770149 1.38234925 1.13695121
-1.12761605 0.35560781 -1.54141819
3.35337591 0.98592496 -0.73271936
0.95790648 -0.47163379 -1.54584575
0.98049831 -1.21406877 1.36866033
-0.98875576 -1.96034265 -0.94877476
1.19507670 -0.56880099 1.50711811
-1.87688136 1.91096950 -0.77291983
-0.01304977 -1.63580966 1.23467767
3.65040374 1.21447468 0.13370393
-1.14689362 -0.63847661 -1.50149560
-1.38326919 2.27271843 0.46975836
-0.72438538 2.49131560 0.04282462
0.89801919 2.46746993 -0.08872997
2.01659894 -1.74325132 0.87487608
2.34301925 -0.27730468 1.32793701
-2.01745915 1.61920238 -0.96744221
-3.36096454 -0.47608685 -0.91267920
-1.94034076 2.22060585 -0.19543283
2.32577991 2.09600711 -0.10960011
0.20904927 1.10160780 1.45458233
1.74512267 -0.98202038 1.32939637
3.83668804 -0.53357577 -0.54462111
2.70453382 -1.76483309 -0.49879771
-0.33536071 1.82131064 1.11620700
1.85116136 -2.10047555 -0.54942954
-1.37412453 1.58370686 1.14439726
2.15286827 1.62581193 0.91809380
4.08969593 0.42480025 -0.19640028
3.75263715 -0.82341218 0.48042285
0.37670079 1.90366852 -1.05614936
-1.95246911 -2.17004800 0.34921834
0.16637997 -1.95723283 1.02356994
3.76977348 1.05359936 -0.18586592
0.82283461 2.37867570 0.45173255
-2.37414765 1.91731596 0.51977450
-1.02586317 1.57095563 -1.20510054
3.41025305 -1.24684393 -0.48986906
3.59023881 0.37294745 -0.79363328
-0.03215439 2.52019477 -0.14383930
-0.74466330 -2.39328861 0.43868804
3 135 229 189
3 110 247 223
3 223 247 83
3 30 31 99
3 209 229 135
3 209 223 83
3 38 189 229
3 64 43 38
3 38 43 189
3 94 194 69
3 149 181 146
3 80 233 188
3 146 181 131
3 146 131 141
3 141 131 188
3 110 223 205
3 237 68 22
3 172 144 29
3 198 86 191
3 191 251 198
3 69 194 198
3 198 251 69
3 51 226 186
3 23 78 132
3 99 31 132
3 19 78 23
3 165 30 11
3 23 190 242
3 159 76 59
3 59 108 159
3 248 184 112
3 243 184 248
3 211 243 248
3 248 224 211
3 211 224 82
3 82 30 211
3 34 224 58
3 234 47 58
3 58 47 34
3 21 43 64
3 174 30 99
3 135 189 236
3 46 48 230
3 227 94 119
3 167 149 44
3 44 213 167
3 49 80 188
3 188 131 49
3 136 141 188
3 182 55 28
3 148 55 182
3 250 226 101
3 180 109 52
3 186 239 52
3 52 51 186
3 72 149 167
3 181 149 72
3 72 71 181
3 121 140 250
3 107 158 133
3 96 107 175
3 175 107 205
3 68 237 252
3 252 61 68
3 68 61 195
3 61 156 195
3 245 198 194
3 86 198 245
3 245 194 172
3 172 29 245
3 245 29 86
3 59 76 62
3 191 86 12
3 86 29 12
3 81 251 191
3 191 105 81
3 212 105 191
3 191 12 212
3 203 182 28
3 17 144 172
3 60 47 1
3 1 47 234
3 168 190 34
3 34 47 168
3 109 242 168
3 168 242 190
3 168 47 60
3 227 226 145
3 226 51 145
3 145 1 228
3 109 168 18
3 18 168 60
3 18 52 109
3 51 52 18
3 180 19 215
3 215 19 23
3 23 242 215
3 215 109 180
3 215 242 109
3 78 19 4
3 4 41 46
3 70 243 211
3 70 165 243
3 211 30 70
3 30 165 70
3 116 237 22
3 22 184 116
3 116 184 243
3 25 29 144
3 25 108 59
3 25 12 29
3 217 108 14
3 217 159 108
3 217 14 112
3 112 184 217
3 253 184 22
3 253 217 184
3 159 217 253
3 112 14 45
3 45 248 112
3 224 248 45
3 45 58 224
3 151 224 34
3 151 82 224
3 34 190 151
3 151 190 23
3 31 30 151
3 30 82 151
3 23 132 151
3 151 132 31
3 210 252 237
3 237 116 210
3 43 21 244
3 244 174 43
3 244 210 11
3 21 210 244
3 11 30 244
3 30 174 244
3 214 236 189
3 48 236 214
3 214 230 48
3 189 43 214
3 43 174 214
3 214 174 99
3 201 205 223
3 201 175 205
3 221 236 48
3 46 41 221
3 221 48 46
3 78 230 77
3 99 132 77
3 77 132 78
3 77 214 99
3 230 214 77
3 222 94 69
3 222 119 94
3 69 251 231
3 231 222 69
3 136 222 231
3 141 136 50
3 50 55 141
3 136 231 50
3 93 55 148
3 148 2 93
3 93 2 183
3 16 85 246
3 110 205 16
3 220 75 152
3 233 80 139
3 80 101 139
3 227 119 139
3 139 119 233
3 139 226 227
3 139 101 226
3 180 52 176
3 176 52 239
3 63 41 3
3 3 26 63
3 89 13 92
3 92 241 89
3 13 176 92
3 239 241 92
3 92 176 239
3 5 239 186
3 5 241 239
3 140 241 5
3 186 226 5
3 5 226 250
3 250 140 5
3 40 178 89
3 40 15 178
3 89 241 40
3 40 241 140
3 181 71 27
3 71 121 27
3 27 131 181
3 140 121 192
3 192 40 140
3 15 40 192
3 71 15 192
3 192 121 71
3 33 21 64
3 37 156 240
3 61 252 238
3 128 240 238
3 238 156 61
3 238 240 156
3 127 220 53
3 75 220 127
3 53 196 127
3 196 103 127
3 127 138 75
3 103 138 127
3 106 81 105
3 106 203 28
3 106 50 231
3 251 81 106
3 106 231 251
3 84 7 218
3 84 212 7
3 7 212 115
3 115 212 12
3 115 62 7
3 228 17 254
3 254 94 227
3 227 145 254
3 254 145 228
3 249 18 60
3 51 18 249
3 249 145 51
3 60 1 249
3 1 145 249
3 54 230 78
3 78 4 54
3 46 230 54
3 54 4 46
3 243 165 117
3 117 116 243
3 117 165 11
3 11 210 117
3 117 210 116
3 179 25 144
3 108 25 179
3 144 97 179
3 35 25 59
3 12 25 35
3 35 115 12
3 59 62 35
3 62 115 35
3 142 17 228
3 234 97 142
3 144 17 142
3 142 97 144
3 142 1 234
3 228 1 142
3 234 58 100
3 58 45 100
3 100 97 234
3 100 45 14
3 193 210 21
3 193 33 171
3 21 33 193
3 171 252 193
3 252 210 193
3 187 41 63
3 175 201 187
3 187 221 41
3 201 221 187
3 63 96 187
3 96 175 187
3 236 221 219
3 219 221 201
3 219 209 135
3 135 236 219
3 223 209 219
3 219 201 223
3 173 136 188
3 173 222 136
3 188 233 173
3 233 119 173
3 119 222 173
3 148 182 232
3 232 2 148
3 6 2 232
3 182 203 232
3 126 155 44
3 126 44 149
3 183 2 126
3 207 93 183
3 207 126 149
3 183 126 207
3 207 149 146
3 141 55 154
3 55 93 154
3 146 141 154
3 154 207 146
3 93 207 154
3 246 255 104
3 104 16 246
3 110 16 104
3 104 247 110
3 133 85 169
3 85 16 169
3 169 16 205
3 169 107 133
3 205 107 169
3 208 255 246
3 246 90 208
3 235 176 13
3 235 19 180
3 180 176 235
3 124 235 13
3 178 26 24
3 26 3 24
3 89 178 24
3 3 124 24
3 24 13 89
3 24 124 13
3 111 107 96
3 111 96 63
3 63 26 111
3 111 26 178
3 123 27 121
3 123 121 250
3 123 49 131
3 131 27 123
3 250 101 123
3 80 49 123
3 123 101 80
3 255 208 20
3 199 33 64
3 164 33 199
3 37 240 57
3 57 240 197
3 57 197 152
3 152 75 57
3 75 138 57
3 114 252 171
3 114 238 252
3 171 33 114
3 114 33 164
3 114 164 128
3 128 238 114
3 36 195 156
3 36 185 195
3 36 156 37
3 37 57 36
3 36 57 138
3 103 185 36
3 36 138 103
3 66 62 76
3 7 62 66
3 76 159 170
3 159 253 170
3 170 66 76
3 79 66 170
3 87 106 28
3 50 106 87
3 28 55 87
3 55 50 87
3 105 212 98
3 212 84 98
3 94 254 120
3 120 254 17
3 194 94 120
3 172 194 120
3 120 17 172
3 143 179 97
3 97 100 143
3 143 100 14
3 14 108 143
3 108 179 143
3 200 126 2
3 155 126 200
3 200 2 6
3 6 163 200
3 53 220 74
3 246 85 9
3 9 202 246
3 177 90 150
3 150 90 246
3 247 104 166
3 83 247 166
3 166 209 83
3 166 118 209
3 88 4 19
3 19 235 88
3 41 4 88
3 204 161 158
3 158 107 204
3 107 111 204
3 128 164 95
3 164 199 95
3 153 208 90
3 153 20 208
3 229 209 32
3 209 118 32
3 32 38 229
3 64 38 32
3 32 199 64
3 73 66 79
3 73 185 218
3 218 7 73
3 7 66 73
3 195 185 73
3 73 79 195
3 79 170 39
3 68 195 39
3 195 79 39
3 22 68 39
3 39 253 22
3 39 170 253
3 65 103 196
3 218 185 65
3 65 185 103
3 65 84 218
3 65 98 84
3 163 74 125
3 177 150 125
3 125 150 163
3 125 220 177
3 125 74 220
3 53 74 137
3 137 232 53
3 6 232 137
3 137 163 6
3 137 74 163
3 213 44 42
3 44 0 42
3 42 161 213
3 158 161 42
3 155 200 91
3 91 200 163
3 163 150 91
3 118 166 56
3 162 124 3
3 162 3 41
3 41 88 162
3 235 124 162
3 162 88 235
3 161 204 130
3 130 72 167
3 167 213 130
3 213 161 130
3 197 240 10
3 10 240 128
3 128 95 10
3 147 90 177
3 147 153 90
3 147 220 152
3 177 220 147
3 105 98 216
3 98 129 216
3 216 129 203
3 216 106 105
3 203 106 216
3 98 65 225
3 225 129 98
3 225 65 196
3 203 129 225
3 225 196 53
3 53 232 225
3 225 232 203
3 133 158 113
3 158 42 113
3 113 0 202
3 113 42 0
3 155 91 160
3 44 155 160
3 160 0 44
3 102 91 150
3 246 202 102
3 102 150 246
3 102 160 91
3 202 0 102
3 0 160 102
3 118 56 67
3 20 10 67
3 67 10 95
3 134 56 166
3 134 104 255
3 134 166 104
3 255 20 134
3 20 67 134
3 134 67 56
3 122 130 204
3 178 15 122
3 122 15 71
3 122 111 178
3 122 204 111
3 71 72 122
3 72 130 122
3 152 197 206
3 206 147 152
3 153 147 206
3 197 10 206
3 20 153 206
3 206 10 20
3 8 85 133
3 133 113 8
3 8 9 85
3 202 9 8
3 8 113 202
3 118 67 157
3 157 67 95
3 157 32 118
3 157 95 199
3 199 32 157