ply
format ascii 1.0
comment https://github.com/mikedh/trimesh
element vertex 256
property float x
property float y
property float z
element face 508
property list uchar int vertex_indices
end_header
-1.02731729 -1.21166992 0.94220281
0.39377448 2.18034053 0.28761908
-1.08801019 -0.49073574 -2.02761412
-0.08052353 0.43242601 4.56793213
0.50702363 0.35144612 4.19656897
-0.39511728 1.68226600 2.81724954
-0.96946317 -1.06151044 -1.97665536
0.44643375 0.40376884 -4.27251244
-0.82880944 -1.52151108 1.61252880
-0.71510041 -1.73441970 1.48911786
0.36998653 -2.18391109 -0.52509379
1.21545553 -0.40505189 0.55549419
0.27586922 1.18518460 -3.86175632
-0.12907042 1.00340140 4.16766739
0.98847413 1.20637286 -1.42926562
-0.84768194 0.81324840 2.98742962
-0.43916440 -1.76162398 2.51376510
0.18812214 2.15887356 -1.46401799
0.36086538 2.02873325 1.74344301
0.42908403 0.86979282 4.00448036
-0.01875150 -2.30104971 0.20701072
1.05765879 -1.11885059 0.93953907
1.11686301 -0.22993945 -1.99697816
0.71401685 1.15396512 3.01889777
-0.21699445 0.74811524 4.33442307
0.56228656 1.48332834 -2.87726140
-0.37194800 0.31511268 4.40326309
-1.04822195 1.13684249 0.99867862
-0.76429296 0.40683487 -3.58393836
0.34633157 1.66015434 -2.95961618
1.16302371 0.22576331 1.58683646
1.07961595 0.36050934 2.19485497
0.55205119 -1.88323677 1.71103907
0.92909694 -1.53062046 0.03246711
0.86968583 1.52275097 1.26422000
0.50737435 1.01502347 -3.72754121
0.37497994 -1.40282023 -3.42100644
0.49525583 -1.64512885 -2.68322659
0.76548409 -1.45215034 2.20438695
0.95958447 -0.08200210 -2.96084332
-0.63167846 1.17094338 3.24096632
0.21711485 -0.06742530 4.58670139
-1.05066538 -0.96155190 1.56173790
0.99999946 -1.00452161 1.88142359
-1.18390417 -0.57450628 0.83133894
1.03731978 1.25106633 -0.44467366
0.48294508 -0.13284805 4.28641224
0.67128271 1.91073418 0.66773766
0.58199191 -0.47031510 4.00654840
-0.93967384 1.50742388 -0.10391954
-0.80625182 1.03016162 -2.87095380
0.03506274 2.14605212 1.68386984
0.06602684 1.84327936 2.78437710
-0.41273302 -1.18503404 -3.68588114
0.59179473 0.07984385 4.09559870
-0.94453996 0.66809678 -2.71412492
0.24086976 -2.12787628 1.53993583
0.30795836 -1.84707475 -2.53264976
0.87982941 1.62543654 0.17283668
0.65222263 1.19346189 -3.15023303
0.39524812 2.12520719 1.02014470
0.81054580 -1.29196298 -2.37948585
0.62950134 0.80452442 -3.67510915
-0.28361112 -0.33925763 4.48692846
0.86060190 -1.54320347 1.25226092
-0.07347158 -0.69028348 -4.43856668
0.72786254 0.19827040 -3.75838447
0.30826488 -2.18904924 0.87107623
1.02571177 -0.60388714 -2.33530188
-0.34870481 1.69013000 -2.88396502
1.22126496 0.26802236 0.69512069
-1.10908520 0.63162255 1.67705309
-1.15794694 0.26316297 1.61693740
0.68777615 -0.12341549 -3.87599397
-0.55674946 -1.65798390 -2.47248936
-0.09662157 -1.75952077 -2.98445439
0.84781843 0.66050398 -3.13836122
0.85459423 -0.19028665 3.36485672
0.76902866 0.39178303 3.57514548
0.81445342 -0.09934765 -3.51663470
-0.71368152 1.88635421 0.01931645
-0.27701443 1.01238906 -4.05506325
1.12397516 0.87397516 0.92291981
0.23455289 -1.75937045 2.87507319
0.13603248 -0.19898382 -4.61539602
-0.63344431 -1.65802526 2.19991803
0.19256717 1.43518329 -3.57279944
-0.74953496 0.78311503 -3.36574936
0.36162785 0.49588740 4.34553957
-0.37430811 0.91889775 4.03712749
-0.51595408 -2.09556031 -0.01203182
-0.94929391 -1.47606134 -0.37421033
-0.20635740 1.24125957 3.84993553
-1.15181029 0.26065564 -1.67695630
-0.24452044 2.19163227 -1.10065567
0.49998921 -2.10497427 0.26344296
-0.43380320 -0.50497377 4.24707270
0.63981187 1.88771117 -1.17231703
-0.03060202 -0.17006059 -4.64639091
1.02059686 -0.11225210 2.65530777
0.89756590 1.55336034 -0.72862059
-0.66223866 1.92111695 0.66565239
-0.95222288 -1.46087277 0.49538472
0.04068452 -1.25234807 -3.90927005
-0.20555507 -2.00905704 2.14294410
-0.23333007 0.57066208 -4.42924309
-0.57765210 0.84423202 -3.75660038
-0.57511842 -0.90172869 3.70823193
0.71899211 1.41837418 -2.49439621
0.48418790 1.67640185 2.63024092
-0.27119488 -1.84365582 2.60233498
-0.61013329 -0.01399537 4.06122828
1.07975471 0.94509345 -1.30040014
-0.94848627 -1.21512187 1.74348354
0.86624086 -1.59995747 -0.83722198
0.43198746 0.77637547 -4.07959080
1.20608640 -0.24671789 -1.02245259
1.23484707 -0.23168954 -0.31037644
0.38913691 -2.02691102 1.66198409
-0.44277427 2.10704255 -0.89008659
-0.06774922 2.20689940 -1.30832267
-0.95577699 1.26818323 1.51818919
-0.90413839 0.44777289 3.06990743
-0.89724630 1.51259983 1.02285767
-0.02605340 0.74237514 4.41194963
-0.64969218 -1.76117980 -1.75808740
-1.19607568 -0.55931813 -0.59506035
-0.18073218 -1.37634504 -3.67406940
0.68976885 -1.84739995 -1.02812004
-0.37735644 0.00986867 -4.44161129
-1.00454485 -0.02442287 2.74974895
-1.06215096 1.19776309 0.05884489
0.98196727 0.33305421 2.77980518
-0.75147814 -1.12829268 2.93056774
0.06153511 -2.16272044 1.58432519
0.59128052 -1.21931279 3.27407503
-0.79367453 1.37683618 -2.26057982
-0.82831395 -1.22365022 -2.44039607
0.17136510 -1.53400445 -3.41641808
-0.45462179 2.12120485 0.62185264
-0.62269741 1.49827027 2.66127753
-1.00876093 0.96300989 -1.90534747
0.37084404 2.10440826 -1.28816640
0.84141463 1.55891824 -1.35285985
0.43481672 1.93396521 -1.93858695
0.01935653 2.26622820 0.82463229
-1.15706408 0.73187512 -0.85127813
-0.17967662 -2.20587206 -1.15478909
-0.98558688 0.10560807 -2.83537912
-1.23007369 0.08385707 0.67118800
-0.81068575 -1.71644616 -0.65159988
1.05077195 0.97151095 1.53361726
-0.06429084 -1.95253432 -2.45957851
-0.15498839 -2.26911497 -0.55408120
-1.13932204 0.56786221 -1.47200286
-1.11103332 -0.99997532 -0.54310495
0.65144235 -1.46588302 -2.63977504
0.47950900 -2.04825234 1.14418912
-0.85683960 -0.76682723 3.00167537
0.91376752 0.82801783 -2.68221712
-1.03686488 -1.27103281 0.08973239
-1.00151491 -0.43063599 2.62310314
0.08056623 0.42526034 4.57120371
-0.79914415 -1.53024042 -1.77795923
0.78239501 -1.78129709 -0.36404184
1.23861325 -0.06669012 0.39397913
0.20090535 -2.02029133 2.10718632
-1.18812287 -0.20816195 1.31144524
0.65260893 1.79544425 1.59679425
-0.58589023 -1.36675048 3.04218984
0.94283539 0.21194011 -3.00908923
0.98800528 -1.36477613 -0.62347960
0.15074930 1.93066514 -2.48003936
-0.67150307 1.74525917 -1.70765114
1.03328836 -0.57862151 2.31370258
-0.39765561 -0.94952923 3.97605824
0.01359927 1.34149265 3.78850079
-0.61107886 -1.91062236 -1.23863029
-0.45329988 0.61620510 4.15833092
0.64014083 1.76496494 -1.79154527
0.26614034 1.36692727 3.61715412
-1.14212322 0.78551501 0.93832695
-0.87429261 0.12018261 -3.30567193
-1.19236350 -0.34796521 -1.12281549
1.14878345 0.58164400 -1.34289622
0.42068139 -0.79517126 -4.08106422
-0.25558564 1.97971869 2.18037009
-0.11418745 -0.71559048 4.41030121
-0.84329557 1.56588268 -1.30121863
0.79233038 -1.09419668 2.82762170
0.79861665 1.43485045 2.08040500
0.05322662 1.32830369 -3.80181313
-0.84518284 1.06396878 2.65587854
1.08133245 -1.10991812 -0.50542098
-0.00321388 1.88220453 -2.68668127
0.80227637 -0.94337368 -3.00682902
-0.28839427 -1.01806033 -4.03811312
0.19462176 -2.08145881 -1.85519564
-0.04116583 1.58101392 -3.38595200
0.73481780 -1.79806125 0.95003951
-1.01655889 -1.15554142 -1.32404518
0.08595434 -1.08673823 4.09690046
-0.89895117 -1.50101221 1.06897449
-0.63486391 0.12341537 -3.99961925
-0.80766648 -0.02378069 3.54435062
-0.36953461 -1.32845497 3.54673719
-0.00367902 -2.18797803 -1.45544207
-1.22603631 0.15621622 -0.72142839
-0.34182173 -2.19836092 0.53155351
0.38017967 -1.62818432 2.97310448
1.15565503 -0.84301305 -0.25033545
1.19179189 0.60408187 0.53775615
0.15711358 0.29259390 -4.58647728
-1.13376701 -0.50587040 1.61955655
0.88862658 -0.60959846 3.01842260
0.56766415 1.25804913 3.27468944
-0.33553848 0.32363173 -4.43965054
0.99784547 0.89727110 -2.11040568
0.28503892 -0.42922473 -4.45240307
0.29176146 -1.10490036 3.94206667
-0.29421857 -1.78406966 -2.73269653
0.35561234 -0.51765466 4.34085798
-0.55849314 1.73913610 -2.22619271
-0.00388315 -1.48871851 3.55616498
1.08623040 1.10526967 0.38509905
-0.34127480 -0.58106512 -4.32466412
-0.41161174 2.06835675 1.35301566
-0.21555135 2.26729774 0.12334508
0.26721859 2.24559641 -0.25556338
0.60006815 -1.58649909 2.51985073
0.69719923 -0.25236958 3.82477403
-0.60032409 1.47360456 -2.78646326
-1.00010359 -0.43327737 -2.62873268
-0.57737643 2.02093005 -0.56289297
0.69206941 1.90753520 -0.31567436
0.06220563 1.00255179 4.18954229
0.51928645 -0.89371765 3.82897711
1.14166200 -0.48559693 -1.56863821
0.80477315 -1.60614014 -1.43665588
-0.09979142 1.65753937 3.21494126
0.55083978 -1.91160178 -1.58248758
-0.40889060 1.44130075 3.29613566
0.64061707 1.47961974 2.64432812
1.21694815 0.38660243 -0.56567943
1.11665142 -0.74937141 1.38373184
0.11209276 1.73249161 -3.04196072
-0.58098537 -1.97491837 1.00583172
0.04950877 -1.78123951 2.94812441
1.12175059 0.95886022 -0.53533798
0.24484633 2.16478634 1.30109704
-0.70646197 1.74491191 1.49707389
-0.30526039 1.42969608 -3.47097588
1.01477015 -1.13472831 -1.41093922
1.06832743 0.33941221 -2.28585219
-0.00956800 2.29358029 -0.41429135
-0.22158532 -2.17808533 1.26352572
3 135 229 189
3 110 247 223
3 223 247 83
3 30 31 99
3 209 229 135
3 209 223 83
3 38 189 229
3 64 43 38
3 38 43 189
3 94 194 69
3 149 181 146
3 80 233 188
3 146 181 131
3 146 131 141
3 141 131 188
3 110 223 205
3 237 68 22
3 172 144 29
3 198 86 191
3 191 251 198
3 69 194 198
3 198 251 69
3 51 226 186
3 23 78 132
3 99 31 132
3 19 78 23
3 165 30 11
3 23 190 242
3 159 76 59
3 59 108 159
3 248 184 112
3 243 184 248
3 211 243 248
3 248 224 211
3 211 224 82
3 82 30 211
3 34 224 58
3 234 47 58
3 58 47 34
3 21 43 64
3 174 30 99
3 135 189 236
3 46 48 230
3 227 94 119
3 167 149 44
3 44 213 167
3 49 80 188
3 188 131 49
3 136 141 188
3 182 55 28
3 148 55 182
3 250 226 101
3 180 109 52
3 186 239 52
3 52 51 186
3 72 149 167
3 181 149 72
3 72 71 181
3 121 140 250
3 107 158 133
3 96 107 175
3 175 107 205
3 68 237 252
3 252 61 68
3 68 61 195
3 61 156 195
3 245 198 194
3 86 198 245
3 245 194 172
3 172 29 245
3 245 29 86
3 59 76 62
3 191 86 12
3 86 29 12
3 81 251 191
3 191 105 81
3 212 105 191
3 191 12 212
3 203 182 28
3 17 144 172
3 60 47 1
3 1 47 234
3 168 190 34
3 34 47 168
3 109 242 168
3 168 242 190
3 168 47 60
3 227 226 145
3 226 51 145
3 145 1 228
3 109 168 18
3 18 168 60
3 18 52 109
3 51 52 18
3 180 19 215
3 215 19 23
3 23 242 215
3 215 109 180
3 215 242 109
3 78 19 4
3 4 41 46
3 70 243 211
3 70 165 243
3 211 30 70
3 30 165 70
3 116 237 22
3 22 184 116
3 116 184 243
3 25 29 144
3 25 108 59
3 25 12 29
3 217 108 14
3 217 159 108
3 217 14 112
3 112 184 217
3 253 184 22
3 253 217 184
3 159 217 253
3 112 14 45
3 45 248 112
3 224 248 45
3 45 58 224
3 151 224 34
3 151 82 224
3 34 190 151
3 151 190 23
3 31 30 151
3 30 82 151
3 23 132 151
3 151 132 31
3 210 252 237
3 237 116 210
3 43 21 244
3 244 174 43
3 244 210 11
3 21 210 244
3 11 30 244
3 30 174 244
3 214 236 189
3 48 236 214
3 214 230 48
3 189 43 214
3 43 174 214
3 214 174 99
3 201 205 223
3 201 175 205
3 221 236 48
3 46 41 221
3 221 48 46
3 78 230 77
3 99 132 77
3 77 132 78
3 77 214 99
3 230 214 77
3 222 94 69
3 222 119 94
3 69 251 231
3 231 222 69
3 136 222 231
3 141 136 50
3 50 55 141
3 136 231 50
3 93 55 148
3 148 2 93
3 93 2 183
3 16 85 246
3 110 205 16
3 220 75 152
3 233 80 139
3 80 101 139
3 227 119 139
3 139 119 233
3 139 226 227
3 139 101 226
3 180 52 176
3 176 52 239
3 63 41 3
3 3 26 63
3 89 13 92
3 92 241 89
3 13 176 92
3 239 241 92
3 92 176 239
3 5 239 186
3 5 241 239
3 140 241 5
3 186 226 5
3 5 226 250
3 250 140 5
3 40 178 89
3 40 15 178
3 89 241 40
3 40 241 140
3 181 71 27
3 71 121 27
3 27 131 181
3 140 121 192
3 192 40 140
3 15 40 192
3 71 15 192
3 192 121 71
3 33 21 64
3 37 156 240
3 61 252 238
3 128 240 238
3 238 156 61
3 238 240 156
3 127 220 53
3 75 220 127
3 53 196 127
3 196 103 127
3 127 138 75
3 103 138 127
3 106 81 105
3 106 203 28
3 106 50 231
3 251 81 106
3 106 231 251
3 84 7 218
3 84 212 7
3 7 212 115
3 115 212 12
3 115 62 7
3 228 17 254
3 254 94 227
3 227 145 254
3 254 145 228
3 249 18 60
3 51 18 249
3 249 145 51
3 60 1 249
3 1 145 249
3 54 230 78
3 78 4 54
3 46 230 54
3 54 4 46
3 243 165 117
3 117 116 243
3 117 165 11
3 11 210 117
3 117 210 116
3 179 25 144
3 108 25 179
3 144 97 179
3 35 25 59
3 12 25 35
3 35 115 12
3 59 62 35
3 62 115 35
3 142 17 228
3 234 97 142
3 144 17 142
3 142 97 144
3 142 1 234
3 228 1 142
3 234 58 100
3 58 45 100
3 100 97 234
3 100 45 14
3 193 210 21
3 193 33 171
3 21 33 193
3 171 252 193
3 252 210 193
3 187 41 63
3 175 201 187
3 187 221 41
3 201 221 187
3 63 96 187
3 96 175 187
3 236 221 219
3 219 221 201
3 219 209 135
3 135 236 219
3 223 209 219
3 219 201 223
3 173 136 188
3 173 222 136
3 188 233 173
3 233 119 173
3 119 222 173
3 148 182 232
3 232 2 148
3 6 2 232
3 182 203 232
3 126 155 44
3 126 44 149
3 183 2 126
3 207 93 183
3 207 126 149
3 183 126 207
3 207 149 146
3 141 55 154
3 55 93 154
3 146 141 154
3 154 207 146
3 93 207 154
3 246 255 104
3 104 16 246
3 110 16 104
3 104 247 110
3 133 85 169
3 85 16 169
3 169 16 205
3 169 107 133
3 205 107 169
3 208 255 246
3 246 90 208
3 235 176 13
3 235 19 180
3 180 176 235
3 124 235 13
3 178 26 24
3 26 3 24
3 89 178 24
3 3 124 24
3 24 13 89
3 24 124 13
3 111 107 96
3 111 96 63
3 63 26 111
3 111 26 178
3 123 27 121
3 123 121 250
3 123 49 131
3 131 27 123
3 250 101 123
3 80 49 123
3 123 101 80
3 255 208 20
3 199 33 64
3 164 33 199
3 37 240 57
3 57 240 197
3 57 197 152
3 152 75 57
3 75 138 57
3 114 252 171
3 114 238 252
3 171 33 114
3 114 33 164
3 114 164 128
3 128 238 114
3 36 195 156
3 36 185 195
3 36 156 37
3 37 57 36
3 36 57 138
3 103 185 36
3 36 138 103
3 66 62 76
3 7 62 66
3 76 159 170
3 159 253 170
3 170 66 76
3 79 66 170
3 87 106 28
3 50 106 87
3 28 55 87
3 55 50 87
3 105 212 98
3 212 84 98
3 94 254 120
3 120 254 17
3 194 94 120
3 172 194 120
3 120 17 172
3 143 179 97
3 97 100 143
3 143 100 14
3 14 108 143
3 108 179 143
3 200 126 2
3 155 126 200
3 200 2 6
3 6 163 200
3 53 220 74
3 246 85 9
3 9 202 246
3 177 90 150
3 150 90 246
3 247 104 166
3 83 247 166
3 166 209 83
3 166 118 209
3 88 4 19
3 19 235 88
3 41 4 88
3 204 161 158
3 158 107 204
3 107 111 204
3 128 164 95
3 164 199 95
3 153 208 90
3 153 20 208
3 229 209 32
3 209 118 32
3 32 38 229
3 64 38 32
3 32 199 64
3 73 66 79
3 73 185 218
3 218 7 73
3 7 66 73
3 195 185 73
3 73 79 195
3 79 170 39
3 68 195 39
3 195 79 39
3 22 68 39
3 39 253 22
3 39 170 253
3 65 103 196
3 218 185 65
3 65 185 103
3 65 84 218
3 65 98 84
3 163 74 125
3 177 150 125
3 125 150 163
3 125 220 177
3 125 74 220
3 53 74 137
3 137 232 53
3 6 232 137
3 137 163 6
3 137 74 163
3 213 44 42
3 44 0 42
3 42 161 213
3 158 161 42
3 155 200 91
3 91 200 163
3 163 150 91
3 118 166 56
3 162 124 3
3 162 3 41
3 41 88 162
3 235 124 162
3 162 88 235
3 161 204 130
3 130 72 167
3 167 213 130
3 213 161 130
3 197 240 10
3 10 240 128
3 128 95 10
3 147 90 177
3 147 153 90
3 147 220 152
3 177 220 147
3 105 98 216
3 98 129 216
3 216 129 203
3 216 106 105
3 203 106 216
3 98 65 225
3 225 129 98
3 225 65 196
3 203 129 225
3 225 196 53
3 53 232 225
3 225 232 203
3 133 158 113
3 158 42 113
3 113 0 202
3 113 42 0
3 155 91 160
3 44 155 160
3 160 0 44
3 102 91 150
3 246 202 102
3 102 150 246
3 102 160 91
3 202 0 102
3 0 160 102
3 118 56 67
3 20 10 67
3 67 10 95
3 134 56 166
3 134 104 255
3 134 166 104
3 255 20 134
3 20 67 134
3 134 67 56
3 122 130 204
3 178 15 122
3 122 15 71
3 122 111 178
3 122 204 111
3 71 72 122
3 72 130 122
3 152 197 206
3 206 147 152
3 153 147 206
3 197 10 206
3 20 153 206
3 206 10 20
3 8 85 133
3 133 113 8
3 8 9 85
3 202 9 8
3 8 113 202
3 118 67 157
3 157 67 95
3 157 32 118
3 157 95 199
3 199 32 157