ply
format ascii 1.0
comment https://github.com/mikedh/trimesh
element vertex 256
property float x
property float y
property float z
element face 508
property list uchar int vertex_indices
end_header
-2.27953196 -0.59587538 0.60414678
0.87375295 1.07224858 0.18442330
-2.41420460 -0.24133416 -1.30011988
-0.17867503 0.21265858 2.92898870
1.12504339 0.17283428 2.69086838
-0.87673241 0.82730526 1.80643940
-2.15115833 -0.52202994 -1.26744473
0.99059945 0.19856556 -2.73956370
-1.83905947 -0.74824911 1.03396428
-1.58674836 -0.85295343 0.95483238
0.82096946 -1.07400441 -0.33669367
2.69699502 -0.19919653 0.35618663
0.61213088 0.58285040 -2.47618413
-0.28639653 0.49345306 2.67233634
2.19334197 0.59327036 -0.91645473
-1.88093591 0.39993954 1.91555989
-0.97446936 -0.86633193 1.61184311
0.41742742 1.06169140 -0.93873823
0.80073035 0.99769104 1.11790729
0.95210183 0.42774695 2.56769967
-0.04160802 -1.13161087 0.13273667
2.34685707 -0.55022866 0.60243875
2.47822618 -0.11307968 -1.28047574
1.58434415 0.56749725 1.93573749
-0.48149267 0.36790833 2.77926111
1.24766719 0.72947162 -1.84491932
-0.82532173 0.15496621 2.82340193
-2.32591748 0.55907673 0.64035940
-1.69590271 0.20007336 -2.29804540
0.76848102 0.81643116 -1.89772582
2.58065319 0.11102594 1.01749015
2.39557815 0.17729138 1.40735579
1.22495580 -0.92613870 1.09712970
2.06158900 -0.75272900 0.02081813
1.92976069 0.74885893 0.81062639
1.12582159 0.49916855 -2.39012456
0.83204937 -0.68987930 -2.19357228
1.09893155 -0.80904192 -1.72050297
1.69854569 -0.71413893 1.41346776
2.12923837 -0.04032702 -1.89851260
-1.40164208 0.57584685 2.07812929
0.48175982 -0.03315843 2.94102359
-2.33133936 -0.47287229 1.00139689
2.21891570 -0.49400395 1.20638144
-2.62698531 -0.28253087 0.53306013
2.30172634 0.61524975 -0.28512773
1.07161510 -0.06533206 2.74847627
1.48952055 0.93966138 0.42815790
1.29139185 -0.23129170 2.56902575
-2.08505821 0.74132133 -0.06663390
-1.78900599 0.50661319 -1.84087491
0.07780132 1.05538607 1.07970858
0.14650808 0.90648842 1.78536129
-0.91582036 -0.58277637 -2.36341190
1.31314349 0.03926563 2.62612534
-2.09585571 0.32855681 -1.74031508
0.53447002 -1.04644763 0.98741716
0.68333405 -0.90835494 -1.62395203
1.95226836 0.79935765 0.11082403
1.44722795 0.58692104 -2.01995063
0.87702274 1.04513490 0.65412360
1.79853380 -0.63536191 -1.52574229
1.39681137 0.39564925 -2.35650468
-0.62930954 -0.16684021 2.87704873
1.90960419 -0.75891703 0.80295807
-0.16302736 -0.33946782 -2.84603882
1.61506665 0.09750547 -2.40990138
0.68401420 -1.07653117 0.55853993
2.27596951 -0.29697978 -1.49741125
-0.77374709 0.83117259 -1.84921777
2.70988560 0.13180810 0.44571605
-2.46096802 0.31061953 1.07533777
-2.56938815 0.12941836 1.03679109
1.52611816 -0.06069330 -2.48531342
-1.23538089 -0.81536382 -1.58537686
-0.21439525 -0.86529762 -1.91365218
1.88123870 0.32482284 -2.01233840
1.89627373 -0.09357923 2.15756869
1.70641077 0.19267116 2.29240727
1.80720448 -0.04885722 -2.25488973
-1.58360004 0.92767179 0.01238584
-0.61467206 0.49787298 -2.60013366
2.49400759 0.42980376 0.59178239
0.52045339 -0.86522371 1.84351623
0.30184478 -0.09785632 -2.95942283
-1.40556037 -0.81538415 1.41060221
0.42729056 0.70579487 -2.29090309
-1.66315591 0.38512054 -2.15814114
0.80242223 0.24386765 2.78638935
-0.83055860 0.45189580 2.58863330
-1.14485931 -1.03055525 -0.00771488
-2.10640430 -0.72589785 -0.23994617
-0.45788994 0.61042702 2.46860456
-2.55577159 0.12818530 -1.07527566
-0.54257059 1.07780147 -0.70574778
1.10943460 -1.03518486 0.16892140
-0.96257329 -0.24833614 2.72325158
1.41968942 0.92833912 -0.75169754
-0.06790333 -0.08363245 -2.97929716
2.26461983 -0.05520337 1.70260108
1.99162424 0.76391196 -0.46719643
-1.46945262 0.94476742 0.42682081
-2.11290359 -0.71842843 0.31764400
0.09027559 -0.61588013 -2.50665021
-0.45610964 -0.98801464 1.37407005
-0.51774007 0.28064036 -2.84006071
-1.28176200 0.41517666 -2.40875745
-1.27613997 -0.44345242 2.37774324
1.59538376 0.69752848 -1.59942365
1.07437277 0.82442135 1.68652821
-0.60175896 -0.90667355 1.66863465
-1.35383511 -0.00688265 2.60408688
2.39588618 0.46477830 -0.83382535
-2.10461235 -0.59757298 1.11793339
1.92211664 -0.78682756 -0.53683233
0.95854437 0.38180614 -2.61586094
2.67620564 -0.12133099 -0.65560347
2.74002314 -0.11394035 -0.19901547
0.86346251 -0.99679488 1.06567538
-0.98247933 1.03620195 -0.57072949
-0.15032990 1.08530962 -0.83890527
-2.12078977 0.62366754 0.97347313
-2.00620794 0.22020589 1.96844530
-1.99091506 0.74386680 0.65586323
-0.05781032 0.36508545 2.82897162
-1.44161308 -0.86611348 -1.12729752
-2.65399265 -0.27506164 -0.38155669
-0.40102971 -0.67685932 -2.35583806
1.53053987 -0.90851492 -0.65923744
-0.83732265 0.00485322 -2.84799099
-2.22900152 -0.01201069 1.76315749
-2.35682487 0.58903629 0.03773174
2.17890382 0.16378950 1.78242970
-1.66746759 -0.55487210 1.87909985
0.13654131 -1.06358325 1.01587999
1.31200242 -0.59963399 2.09935904
-1.76109791 0.67710090 -1.44949901
-1.83796000 -0.60176706 -1.56479847
0.38024491 -0.75439316 -2.19063020
-1.00876808 1.04316676 0.39873609
-1.38171387 0.73681974 1.70642912
-2.23835683 0.47358930 -1.22172165
0.82287216 1.03490651 -0.82598096
1.86702919 0.76664525 -0.86746281
0.96482223 0.95108598 -1.24303496
0.04295054 1.11448634 0.52875978
-2.56742930 0.35992175 -0.54584527
-0.39868751 -1.08480430 -0.74045855
-2.18693542 0.05193597 -1.81806409
-2.72943163 0.04123925 0.43037027
-1.79884446 -0.84411436 -0.41781023
2.33157587 0.47776994 0.98336571
-0.14265604 -0.96021783 -1.57709837
-0.34390640 -1.11590600 -0.35528058
-2.52806115 0.27926344 -0.94385809
-2.46529078 -0.49176815 -0.34824255
1.44549644 -0.72089237 -1.69264150
1.06399071 -1.00729001 0.73366171
-1.90125597 -0.37711051 1.92469442
2.02757430 0.40720284 -1.71985567
-2.30071712 -0.62506884 0.05753701
-2.22227859 -0.21177828 1.68195128
0.17876977 0.20913465 2.93108654
-1.77323461 -0.75254208 -1.14003944
1.73606968 -0.87600678 -0.23342606
2.74838018 -0.03279689 0.25262207
0.44579232 -0.99353945 1.35114205
-2.63634586 -0.10236994 0.84090745
1.44808507 0.88296407 1.02387524
-1.30004179 -0.67214096 1.95067263
2.09207344 0.10422797 -1.92944837
2.19230175 -0.67117000 -0.39977932
0.33450019 0.94946301 -1.59021795
-1.49000955 0.85828406 -1.09495735
2.29278111 -0.28455466 1.48356164
-0.88236481 -0.46695977 2.54947519
0.03017566 0.65971959 2.42921209
-1.35593331 -0.93960643 -0.79421812
-1.00583482 0.30303752 2.66634965
1.42041945 0.86797494 -1.14875090
0.59054333 0.67222792 2.31934357
-2.53427672 0.38630080 0.60166156
-1.93998277 0.05910344 -2.11961913
-2.64575577 -0.17112243 -0.71995687
2.54905510 0.28604105 -0.86107409
0.93345708 -0.39104953 -2.61680579
-0.56712335 0.97358662 1.39806795
-0.25337246 -0.35191327 2.82791471
-1.87120295 0.77007025 -0.83435011
1.75811541 -0.53810436 1.81308997
1.77206409 0.70563114 1.33396971
0.11810546 0.65323359 -2.43774796
-1.87539065 0.52323890 1.70296717
2.39938712 -0.54583585 -0.32407936
-0.00713133 0.92563105 -1.72271812
1.78018463 -0.46393257 -1.92799890
-0.63992298 -0.50066203 -2.58926535
0.43184954 -1.02362037 -1.18956387
-0.09134357 0.77751148 -2.17109513
1.63049972 -0.88425106 0.60917169
-2.25565982 -0.56827247 -0.84898663
0.19072554 -0.53443640 2.62696028
-1.99469817 -0.73816824 0.68543363
-1.40871036 0.06069325 -2.56458259
-1.79214489 -0.01169487 2.27266145
-0.81996667 -0.65330797 2.27419162
-0.00816343 -1.07600451 -0.93323922
-2.72047305 0.07682405 -0.46258473
-0.75847405 -1.08111048 0.34083566
0.84358716 -0.80070895 1.90637457
2.56430268 -0.41457719 -0.16051677
2.64448714 0.29707557 0.34481287
0.34862199 0.14389190 -2.94088030
-2.51573515 -0.24877709 1.03847051
1.97178864 -0.29978850 1.93543291
1.25959969 0.61868376 2.09975290
-0.74453205 0.15915570 -2.84673357
2.21413636 0.44126025 -1.35320640
0.63247770 -0.21108426 -2.85491061
0.64739442 -0.54336816 2.52767968
-0.65284657 -0.87737030 -1.75222337
0.78907430 -0.25457236 2.78338718
-1.23924994 0.85527283 -1.42744970
-0.00861638 -0.73212236 2.28023672
2.41025496 0.54354984 0.24692811
-0.75726044 -0.28575638 -2.77300358
-0.91333234 1.01717710 0.86756271
-0.47829056 1.11501229 0.07908969
0.59293586 1.10433996 -0.16386896
1.33150136 -0.78020895 1.61574531
1.54702723 -0.12411039 2.45247078
-1.33206940 0.72468966 -1.78669894
-2.21914673 -0.21307726 -1.68556106
-1.28115034 0.99385351 -0.36093074
1.53564465 0.93808824 -0.20241252
0.13802913 0.49303523 2.68636274
1.15225363 -0.43951270 2.45516586
2.53325319 -0.23880699 -1.00582135
1.78572488 -0.78986806 -0.92119336
-0.22142889 0.81514519 2.06144190
1.22226787 -0.94008803 -1.01470172
-0.90729433 0.70880330 2.11350441
1.42147613 0.72764784 1.69556093
2.70030713 0.19012345 -0.36271745
2.47775674 -0.36852607 0.88725817
0.24872455 0.85200518 -1.95052576
-1.28915834 -0.97122592 0.64494610
0.10985584 -0.87597847 1.89035714
2.48907137 0.47154856 -0.34326231
0.54329371 1.06459928 0.83427215
-1.56758046 0.85811329 0.95993382
-0.67734748 0.70309633 -2.22561312
2.25169063 -0.55803704 -0.90470368
2.37052989 0.16691624 -1.46570385
-0.02123061 1.12793756 -0.26564640
-0.49167946 -1.07113934 0.81018114
3 135 229 189
3 110 247 223
3 223 247 83
3 30 31 99
3 209 229 135
3 209 223 83
3 38 189 229
3 64 43 38
3 38 43 189
3 94 194 69
3 149 181 146
3 80 233 188
3 146 181 131
3 146 131 141
3 141 131 188
3 110 223 205
3 237 68 22
3 172 144 29
3 198 86 191
3 191 251 198
3 69 194 198
3 198 251 69
3 51 226 186
3 23 78 132
3 99 31 132
3 19 78 23
3 165 30 11
3 23 190 242
3 159 76 59
3 59 108 159
3 248 184 112
3 243 184 248
3 211 243 248
3 248 224 211
3 211 224 82
3 82 30 211
3 34 224 58
3 234 47 58
3 58 47 34
3 21 43 64
3 174 30 99
3 135 189 236
3 46 48 230
3 227 94 119
3 167 149 44
3 44 213 167
3 49 80 188
3 188 131 49
3 136 141 188
3 182 55 28
3 148 55 182
3 250 226 101
3 180 109 52
3 186 239 52
3 52 51 186
3 72 149 167
3 181 149 72
3 72 71 181
3 121 140 250
3 107 158 133
3 96 107 175
3 175 107 205
3 68 237 252
3 252 61 68
3 68 61 195
3 61 156 195
3 245 198 194
3 86 198 245
3 245 194 172
3 172 29 245
3 245 29 86
3 59 76 62
3 191 86 12
3 86 29 12
3 81 251 191
3 191 105 81
3 212 105 191
3 191 12 212
3 203 182 28
3 17 144 172
3 60 47 1
3 1 47 234
3 168 190 34
3 34 47 168
3 109 242 168
3 168 242 190
3 168 47 60
3 227 226 145
3 226 51 145
3 145 1 228
3 109 168 18
3 18 168 60
3 18 52 109
3 51 52 18
3 180 19 215
3 215 19 23
3 23 242 215
3 215 109 180
3 215 242 109
3 78 19 4
3 4 41 46
3 70 243 211
3 70 165 243
3 211 30 70
3 30 165 70
3 116 237 22
3 22 184 116
3 116 184 243
3 25 29 144
3 25 108 59
3 25 12 29
3 217 108 14
3 217 159 108
3 217 14 112
3 112 184 217
3 253 184 22
3 253 217 184
3 159 217 253
3 112 14 45
3 45 248 112
3 224 248 45
3 45 58 224
3 151 224 34
3 151 82 224
3 34 190 151
3 151 190 23
3 31 30 151
3 30 82 151
3 23 132 151
3 151 132 31
3 210 252 237
3 237 116 210
3 43 21 244
3 244 174 43
3 244 210 11
3 21 210 244
3 11 30 244
3 30 174 244
3 214 236 189
3 48 236 214
3 214 230 48
3 189 43 214
3 43 174 214
3 214 174 99
3 201 205 223
3 201 175 205
3 221 236 48
3 46 41 221
3 221 48 46
3 78 230 77
3 99 132 77
3 77 132 78
3 77 214 99
3 230 214 77
3 222 94 69
3 222 119 94
3 69 251 231
3 231 222 69
3 136 222 231
3 141 136 50
3 50 55 141
3 136 231 50
3 93 55 148
3 148 2 93
3 93 2 183
3 16 85 246
3 110 205 16
3 220 75 152
3 233 80 139
3 80 101 139
3 227 119 139
3 139 119 233
3 139 226 227
3 139 101 226
3 180 52 176
3 176 52 239
3 63 41 3
3 3 26 63
3 89 13 92
3 92 241 89
3 13 176 92
3 239 241 92
3 92 176 239
3 5 239 186
3 5 241 239
3 140 241 5
3 186 226 5
3 5 226 250
3 250 140 5
3 40 178 89
3 40 15 178
3 89 241 40
3 40 241 140
3 181 71 27
3 71 121 27
3 27 131 181
3 140 121 192
3 192 40 140
3 15 40 192
3 71 15 192
3 192 121 71
3 33 21 64
3 37 156 240
3 61 252 238
3 128 240 238
3 238 156 61
3 238 240 156
3 127 220 53
3 75 220 127
3 53 196 127
3 196 103 127
3 127 138 75
3 103 138 127
3 106 81 105
3 106 203 28
3 106 50 231
3 251 81 106
3 106 231 251
3 84 7 218
3 84 212 7
3 7 212 115
3 115 212 12
3 115 62 7
3 228 17 254
3 254 94 227
3 227 145 254
3 254 145 228
3 249 18 60
3 51 18 249
3 249 145 51
3 60 1 249
3 1 145 249
3 54 230 78
3 78 4 54
3 46 230 54
3 54 4 46
3 243 165 117
3 117 116 243
3 117 165 11
3 11 210 117
3 117 210 116
3 179 25 144
3 108 25 179
3 144 97 179
3 35 25 59
3 12 25 35
3 35 115 12
3 59 62 35
3 62 115 35
3 142 17 228
3 234 97 142
3 144 17 142
3 142 97 144
3 142 1 234
3 228 1 142
3 234 58 100
3 58 45 100
3 100 97 234
3 100 45 14
3 193 210 21
3 193 33 171
3 21 33 193
3 171 252 193
3 252 210 193
3 187 41 63
3 175 201 187
3 187 221 41
3 201 221 187
3 63 96 187
3 96 175 187
3 236 221 219
3 219 221 201
3 219 209 135
3 135 236 219
3 223 209 219
3 219 201 223
3 173 136 188
3 173 222 136
3 188 233 173
3 233 119 173
3 119 222 173
3 148 182 232
3 232 2 148
3 6 2 232
3 182 203 232
3 126 155 44
3 126 44 149
3 183 2 126
3 207 93 183
3 207 126 149
3 183 126 207
3 207 149 146
3 141 55 154
3 55 93 154
3 146 141 154
3 154 207 146
3 93 207 154
3 246 255 104
3 104 16 246
3 110 16 104
3 104 247 110
3 133 85 169
3 85 16 169
3 169 16 205
3 169 107 133
3 205 107 169
3 208 255 246
3 246 90 208
3 235 176 13
3 235 19 180
3 180 176 235
3 124 235 13
3 178 26 24
3 26 3 24
3 89 178 24
3 3 124 24
3 24 13 89
3 24 124 13
3 111 107 96
3 111 96 63
3 63 26 111
3 111 26 178
3 123 27 121
3 123 121 250
3 123 49 131
3 131 27 123
3 250 101 123
3 80 49 123
3 123 101 80
3 255 208 20
3 199 33 64
3 164 33 199
3 37 240 57
3 57 240 197
3 57 197 152
3 152 75 57
3 75 138 57
3 114 252 171
3 114 238 252
3 171 33 114
3 114 33 164
3 114 164 128
3 128 238 114
3 36 195 156
3 36 185 195
3 36 156 37
3 37 57 36
3 36 57 138
3 103 185 36
3 36 138 103
3 66 62 76
3 7 62 66
3 76 159 170
3 159 253 170
3 170 66 76
3 79 66 170
3 87 106 28
3 50 106 87
3 28 55 87
3 55 50 87
3 105 212 98
3 212 84 98
3 94 254 120
3 120 254 17
3 194 94 120
3 172 194 120
3 120 17 172
3 143 179 97
3 97 100 143
3 143 100 14
3 14 108 143
3 108 179 143
3 200 126 2
3 155 126 200
3 200 2 6
3 6 163 200
3 53 220 74
3 246 85 9
3 9 202 246
3 177 90 150
3 150 90 246
3 247 104 166
3 83 247 166
3 166 209 83
3 166 118 209
3 88 4 19
3 19 235 88
3 41 4 88
3 204 161 158
3 158 107 204
3 107 111 204
3 128 164 95
3 164 199 95
3 153 208 90
3 153 20 208
3 229 209 32
3 209 118 32
3 32 38 229
3 64 38 32
3 32 199 64
3 73 66 79
3 73 185 218
3 218 7 73
3 7 66 73
3 195 185 73
3 73 79 195
3 79 170 39
3 68 195 39
3 195 79 39
3 22 68 39
3 39 253 22
3 39 170 253
3 65 103 196
3 218 185 65
3 65 185 103
3 65 84 218
3 65 98 84
3 163 74 125
3 177 150 125
3 125 150 163
3 125 220 177
3 125 74 220
3 53 74 137
3 137 232 53
3 6 232 137
3 137 163 6
3 137 74 163
3 213 44 42
3 44 0 42
3 42 161 213
3 158 161 42
3 155 200 91
3 91 200 163
3 163 150 91
3 118 166 56
3 162 124 3
3 162 3 41
3 41 88 162
3 235 124 162
3 162 88 235
3 161 204 130
3 130 72 167
3 167 213 130
3 213 161 130
3 197 240 10
3 10 240 128
3 128 95 10
3 147 90 177
3 147 153 90
3 147 220 152
3 177 220 147
3 105 98 216
3 98 129 216
3 216 129 203
3 216 106 105
3 203 106 216
3 98 65 225
3 225 129 98
3 225 65 196
3 203 129 225
3 225 196 53
3 53 232 225
3 225 232 203
3 133 158 113
3 158 42 113
3 113 0 202
3 113 42 0
3 155 91 160
3 44 155 160
3 160 0 44
3 102 91 150
3 246 202 102
3 102 150 246
3 102 160 91
3 202 0 102
3 0 160 102
3 118 56 67
3 20 10 67
3 67 10 95
3 134 56 166
3 134 104 255
3 134 166 104
3 255 20 134
3 20 67 134
3 134 67 56
3 122 130 204
3 178 15 122
3 122 15 71
3 122 111 178
3 122 204 111
3 71 72 122
3 72 130 122
3 152 197 206
3 206 147 152
3 153 147 206
3 197 10 206
3 20 153 206
3 206 10 20
3 8 85 133
3 133 113 8
3 8 9 85
3 202 9 8
3 8 113 202
3 118 67 157
3 157 67 95
3 157 32 118
3 157 95 199
3 199 32 157