ply
format ascii 1.0
comment https://github.com/mikedh/trimesh
element vertex 256
property float x
property float y
property float z
element face 508
property list uchar int vertex_indices
end_header
-3.46014094 -2.21962833 0.99574703
1.32628477 3.99411201 0.30396414
-3.66456270 -0.89896667 -2.14284110
-0.27121392 0.79215050 4.82752228
1.70772278 0.64380544 4.43505478
-1.33080733 3.08170152 2.97735023
-3.26528049 -1.94455481 -2.08898616
1.50364804 0.73965418 -4.51531410
-2.79154015 -2.78721833 1.70416677
-2.40855289 -3.17724061 1.57374263
1.24616373 -4.00065231 -0.55493426
4.09381533 -0.74200457 0.58706224
0.92916411 2.17111039 -4.08121490
-0.43472627 1.83810627 4.40451050
3.32931185 2.20992446 -1.51048899
-2.85510516 1.48976958 3.15720153
-1.47916389 -3.22707534 2.65661931
0.63362032 3.95478702 -1.54721642
1.21544242 3.71638632 1.84252071
1.44521189 1.59335196 4.23204994
-0.06315754 -4.21523619 0.21877488
3.56233525 -2.04959464 0.99293190
3.76174259 -0.42122036 -2.11046386
2.40490341 2.11391997 3.19045782
-0.73086607 1.37045383 4.58074284
1.89385569 2.71727252 -3.04077244
-1.25277019 0.57724714 4.65349531
-3.53055048 2.08255386 1.05543232
-2.57423997 0.74527073 -3.78760910
1.16649055 3.04119563 -3.12780762
3.91721797 0.41357023 1.67701435
3.63628983 0.66040814 2.31958604
1.85938168 -3.44985485 1.80827522
3.12932181 -2.80390596 0.03431218
2.92921734 2.78948975 1.33606410
1.70890403 1.85939646 -3.93937278
1.26298213 -2.56979156 -3.61541796
1.66808724 -3.01367092 -2.83571100
2.57825208 -2.66015840 2.32965970
3.23200774 -0.15021764 -3.12910438
-2.12757683 2.14502215 3.42514634
0.73127156 -0.12351473 4.84735775
-3.53878021 -1.76144314 1.65048957
3.36813068 -1.84015834 1.98834252
-3.98754644 -1.05242383 0.87858289
3.49383044 2.29179764 -0.46994388
1.62662315 -0.24336107 4.53000355
2.26096916 3.50022674 0.70568436
1.96022594 -0.86155862 4.23423576
-3.16494608 2.76141262 -0.10982515
-2.71556306 1.88712764 -3.03410649
0.11809596 3.93129969 1.77956200
0.22238715 3.37665772 2.94260979
-1.39013958 -2.17083454 -3.89534521
1.99324322 0.14626397 4.32834625
-3.18133593 1.22386992 -2.86836529
0.81128132 -3.89800406 1.62744844
1.03724468 -3.38361049 -2.67657709
2.96338201 2.97759700 0.18265876
2.19677234 2.18627334 -3.32925677
1.33124804 3.89311433 1.07811821
2.73002577 -2.36671519 -2.51470900
2.12024403 1.47378838 -3.88396120
-0.95523983 -0.62147766 4.74191523
2.89862132 -2.82695627 1.32342529
-0.24746205 -1.26451325 -4.69080496
2.45153761 0.36320662 -3.97196889
1.03827703 -4.01006508 0.92057842
3.45473337 -1.10624588 -2.46801424
-1.17448413 3.09610748 -3.04785728
4.11338234 0.49098352 0.73462355
-3.73554611 1.15705383 1.77235794
-3.90011883 0.48208174 1.70882595
2.31652117 -0.22608177 -4.09626198
-1.87520599 -3.03721976 -2.61299777
-0.32543427 -3.22322273 -3.15405726
2.85556483 1.20996094 -3.31671047
2.87838674 -0.34858140 3.55607724
2.59019041 0.71769762 3.77831650
2.74318719 -0.18199252 -3.71648049
-2.40377402 3.45556569 0.02041418
-0.93302137 1.85457039 -4.28550720
3.78569746 1.60101354 0.97536814
0.79000527 -3.22294736 3.03846002
0.45817539 -0.36451355 -4.87768316
-2.13352442 -3.03729558 2.32493663
0.64859176 2.62907696 -3.77583718
-2.52453303 1.43456912 -3.55702090
1.21801054 0.90840387 4.59249163
-1.26071930 1.68330610 4.26655245
-1.73780179 -3.83880520 -0.01271557
-3.19734764 -2.70396018 -0.39547622
-0.69503909 2.27383280 4.06872225
-3.87944984 0.47748861 -1.77225566
-0.82357728 4.01479673 -1.16320455
1.68403006 -3.85605025 0.27841410
-1.46110666 -0.92504889 4.48842859
2.15497112 3.45805144 -1.23893833
-0.10307164 -0.31152979 -4.91043949
3.43750548 -0.20563185 2.80620551
3.02312088 2.84556246 -0.77002722
-2.23050761 3.51924658 0.70348060
-3.20721292 -2.67613673 0.52353680
0.13703087 -2.29414558 -4.13142920
-0.69233674 -3.68034196 2.26472497
-0.78588665 1.04538178 -4.68095160
-1.94560874 1.54652774 -3.97008324
-1.93707502 -1.65185452 3.91896629
2.42166066 2.59828448 -2.63614964
1.63080907 3.07095909 2.77971435
-0.91342032 -3.37734747 2.75022244
-2.05500984 -0.02563777 4.29202271
3.63675714 1.73129332 -1.37430024
-3.19462752 -2.22595191 1.84256351
2.91761398 -2.93092251 -0.88480026
1.45499110 1.42222297 -4.31142855
4.06225920 -0.45195639 -1.08055735
4.15912867 -0.42442635 -0.32801476
1.31066477 -3.71304822 1.75643253
-1.49132240 3.85983896 -0.94066912
-0.22818835 4.04276466 -1.38267303
-3.21918368 2.32315350 1.60446608
-3.04525805 0.82026410 3.24436641
-3.02204442 2.77089429 1.08098543
-0.08775129 1.35993862 4.66267538
-2.18824935 -3.22626162 -1.85799742
-4.02854156 -1.02460110 -0.62887686
-0.60872990 -2.52129245 -3.88286233
2.32323289 -3.38420630 -1.08654678
-1.27098656 0.01807818 -4.69402218
-3.38344002 -0.04473966 2.90601373
-3.57746530 2.19415259 0.06218897
3.30739594 0.61011380 2.93777800
-2.53107810 -2.06689143 3.09710836
0.20725842 -3.96183395 1.67436039
1.99151123 -2.23362899 3.46013665
-2.67320108 2.52219224 -2.38904572
-2.78987122 -2.24157453 -2.57908082
0.57718033 -2.81010485 -3.61056900
-1.53122652 3.88578272 0.65719175
-2.09732747 2.74464417 2.81251478
-3.39764071 1.76411402 -2.01362610
1.24905193 3.85501361 -1.36137128
2.83399606 2.85574389 -1.42974114
1.46452045 3.54278326 -2.04875445
0.06519537 4.15144730 0.87149513
-3.89714527 1.34070396 -0.89965522
-0.60517472 -4.04088211 -1.22041440
-3.31958723 0.19346081 -2.99651003
-4.14305162 0.15361568 0.70933080
-2.73049712 -3.14431524 -0.68862951
3.53913927 1.77968693 1.62077081
-0.21654008 -3.57679915 -2.59935331
-0.52202147 -4.15673590 -0.58556890
-3.83738780 1.04025269 -1.55565488
-3.74210739 -1.83183014 -0.57396895
2.19414425 -2.68531489 -2.78979015
1.61504984 -3.75214267 1.20921195
-2.88594937 -1.40473175 3.17225671
3.07769012 1.51682532 -2.83464432
-3.49229813 -2.32837343 0.09483176
-3.37323523 -0.78887141 2.77217078
0.27135774 0.77902389 4.83097935
-2.69162345 -2.80320978 -1.87899840
2.63521028 -3.26311398 -0.38472986
4.17181396 -0.12216800 0.41636845
0.67667592 -3.70092177 2.22693515
-4.00175524 -0.38132674 1.38597298
2.19807339 3.28902984 1.68753803
-1.97335601 -2.50371647 3.21507382
3.17559457 0.38824785 -3.18009210
3.32773280 -2.50009966 -0.65891123
0.50774366 3.53673768 -2.62097692
-2.26171136 3.19709706 -1.80469477
3.48025227 -1.05996251 2.44518733
-1.33935690 -1.73941910 4.20201254
0.04580416 2.45744705 4.00379658
-2.05819464 -3.50002193 -1.30902016
-1.52677417 1.12881088 4.39464331
2.15607929 3.23319554 -1.89335656
0.89639598 2.50404024 3.82271266
-3.84682250 1.43896556 0.99165088
-2.94473362 0.22015955 -3.49352908
-4.01603842 -0.63742888 -1.18662369
3.86925483 1.06549919 -1.41921139
1.41691065 -1.45665455 -4.31298590
-0.86084640 3.62659764 2.30427790
-0.38459846 -1.31087244 4.66093302
-2.84033132 2.86850190 -1.37516522
2.66867399 -2.00443172 2.98831177
2.68984675 2.62846708 2.19863200
0.17927432 2.43328667 -4.01786518
-2.84668803 1.94905818 2.80680895
3.64207125 -2.03323174 -0.53414345
-0.01082477 3.44796395 -2.83936214
2.70217323 -1.72814286 -3.17770338
-0.97135019 -1.86495960 -4.26759434
0.65551192 -3.81297278 -1.96062410
-0.13865198 2.89622021 -3.57837129
2.47496390 -3.29382396 1.00402904
-3.42390513 -2.11680770 -1.39928901
0.28950560 -1.99076879 4.32972240
-3.02778673 -2.74966717 1.12972295
-2.13830590 0.22608155 -4.22691250
-2.72032785 -0.04356326 3.74577188
-1.24464166 -2.43356395 3.74829388
-0.01239141 -4.00810289 -1.53815305
-4.12945318 0.28616863 -0.76242626
-1.15130091 -4.02712297 0.56176102
1.28049552 -2.98263049 3.14206219
3.89239931 -1.54429471 -0.26456171
4.01411295 1.10660267 0.56831616
0.52917939 0.53599548 -4.84712124
-3.81867790 -0.92669147 1.71159399
2.99301219 -1.11670840 3.18995595
1.91196811 2.30458903 3.46078587
-1.13013804 0.59285295 -4.69195032
3.36087584 1.64368880 -2.23033738
0.96004885 -0.78628618 -4.70542765
0.98269123 -2.02403951 4.16608953
-0.99096715 -3.26819301 -2.88799238
1.19774950 -0.94827878 4.58754349
-1.88107896 3.18588042 -2.35270452
-0.01307895 -2.72714663 3.75825739
3.65856791 2.02471614 0.40698376
-1.14945877 -1.06443882 -4.57042933
-1.38636291 3.78897166 1.42990577
-0.72600549 4.15340662 0.13035463
0.90002763 4.11365223 -0.27008674
2.02110910 -2.90626836 2.66305089
2.34825945 -0.46230960 4.04213095
-2.02197123 2.69945955 -2.94481444
-3.36848140 -0.79371005 -2.77812028
-1.94468033 3.70209169 -0.59488147
2.33098173 3.49436665 -0.33361372
0.20951681 1.83654988 4.42762899
1.74902570 -1.63717926 4.04657316
3.84526896 -0.88955301 -1.65778196
2.71058273 -2.94224834 -1.51829922
-0.33611074 3.03640532 3.39764237
1.85530150 -3.50181603 -1.67241836
-1.37719774 2.64028335 3.48345113
2.15768313 2.71047878 2.79460192
4.09884262 0.70820743 -0.59782630
3.76102996 -1.37275493 1.46236765
0.37754330 3.17370844 -3.21483159
-1.95683575 -3.61780429 1.06299186
0.16675209 -3.26300859 3.11566257
3.77820468 1.75651240 -0.56576055
0.82467490 3.96561861 1.37503672
-2.37945747 3.19646096 1.58215070
-1.02815747 2.61902499 -3.66822720
3.41788030 -2.07868075 -1.49112117
3.59826851 0.62176085 -2.41575432
-0.03222631 4.20155287 -0.43783501
-0.74632877 -3.98998046 1.33533025
3 135 229 189
3 110 247 223
3 223 247 83
3 30 31 99
3 209 229 135
3 209 223 83
3 38 189 229
3 64 43 38
3 38 43 189
3 94 194 69
3 149 181 146
3 80 233 188
3 146 181 131
3 146 131 141
3 141 131 188
3 110 223 205
3 237 68 22
3 172 144 29
3 198 86 191
3 191 251 198
3 69 194 198
3 198 251 69
3 51 226 186
3 23 78 132
3 99 31 132
3 19 78 23
3 165 30 11
3 23 190 242
3 159 76 59
3 59 108 159
3 248 184 112
3 243 184 248
3 211 243 248
3 248 224 211
3 211 224 82
3 82 30 211
3 34 224 58
3 234 47 58
3 58 47 34
3 21 43 64
3 174 30 99
3 135 189 236
3 46 48 230
3 227 94 119
3 167 149 44
3 44 213 167
3 49 80 188
3 188 131 49
3 136 141 188
3 182 55 28
3 148 55 182
3 250 226 101
3 180 109 52
3 186 239 52
3 52 51 186
3 72 149 167
3 181 149 72
3 72 71 181
3 121 140 250
3 107 158 133
3 96 107 175
3 175 107 205
3 68 237 252
3 252 61 68
3 68 61 195
3 61 156 195
3 245 198 194
3 86 198 245
3 245 194 172
3 172 29 245
3 245 29 86
3 59 76 62
3 191 86 12
3 86 29 12
3 81 251 191
3 191 105 81
3 212 105 191
3 191 12 212
3 203 182 28
3 17 144 172
3 60 47 1
3 1 47 234
3 168 190 34
3 34 47 168
3 109 242 168
3 168 242 190
3 168 47 60
3 227 226 145
3 226 51 145
3 145 1 228
3 109 168 18
3 18 168 60
3 18 52 109
3 51 52 18
3 180 19 215
3 215 19 23
3 23 242 215
3 215 109 180
3 215 242 109
3 78 19 4
3 4 41 46
3 70 243 211
3 70 165 243
3 211 30 70
3 30 165 70
3 116 237 22
3 22 184 116
3 116 184 243
3 25 29 144
3 25 108 59
3 25 12 29
3 217 108 14
3 217 159 108
3 217 14 112
3 112 184 217
3 253 184 22
3 253 217 184
3 159 217 253
3 112 14 45
3 45 248 112
3 224 248 45
3 45 58 224
3 151 224 34
3 151 82 224
3 34 190 151
3 151 190 23
3 31 30 151
3 30 82 151
3 23 132 151
3 151 132 31
3 210 252 237
3 237 116 210
3 43 21 244
3 244 174 43
3 244 210 11
3 21 210 244
3 11 30 244
3 30 174 244
3 214 236 189
3 48 236 214
3 214 230 48
3 189 43 214
3 43 174 214
3 214 174 99
3 201 205 223
3 201 175 205
3 221 236 48
3 46 41 221
3 221 48 46
3 78 230 77
3 99 132 77
3 77 132 78
3 77 214 99
3 230 214 77
3 222 94 69
3 222 119 94
3 69 251 231
3 231 222 69
3 136 222 231
3 141 136 50
3 50 55 141
3 136 231 50
3 93 55 148
3 148 2 93
3 93 2 183
3 16 85 246
3 110 205 16
3 220 75 152
3 233 80 139
3 80 101 139
3 227 119 139
3 139 119 233
3 139 226 227
3 139 101 226
3 180 52 176
3 176 52 239
3 63 41 3
3 3 26 63
3 89 13 92
3 92 241 89
3 13 176 92
3 239 241 92
3 92 176 239
3 5 239 186
3 5 241 239
3 140 241 5
3 186 226 5
3 5 226 250
3 250 140 5
3 40 178 89
3 40 15 178
3 89 241 40
3 40 241 140
3 181 71 27
3 71 121 27
3 27 131 181
3 140 121 192
3 192 40 140
3 15 40 192
3 71 15 192
3 192 121 71
3 33 21 64
3 37 156 240
3 61 252 238
3 128 240 238
3 238 156 61
3 238 240 156
3 127 220 53
3 75 220 127
3 53 196 127
3 196 103 127
3 127 138 75
3 103 138 127
3 106 81 105
3 106 203 28
3 106 50 231
3 251 81 106
3 106 231 251
3 84 7 218
3 84 212 7
3 7 212 115
3 115 212 12
3 115 62 7
3 228 17 254
3 254 94 227
3 227 145 254
3 254 145 228
3 249 18 60
3 51 18 249
3 249 145 51
3 60 1 249
3 1 145 249
3 54 230 78
3 78 4 54
3 46 230 54
3 54 4 46
3 243 165 117
3 117 116 243
3 117 165 11
3 11 210 117
3 117 210 116
3 179 25 144
3 108 25 179
3 144 97 179
3 35 25 59
3 12 25 35
3 35 115 12
3 59 62 35
3 62 115 35
3 142 17 228
3 234 97 142
3 144 17 142
3 142 97 144
3 142 1 234
3 228 1 142
3 234 58 100
3 58 45 100
3 100 97 234
3 100 45 14
3 193 210 21
3 193 33 171
3 21 33 193
3 171 252 193
3 252 210 193
3 187 41 63
3 175 201 187
3 187 221 41
3 201 221 187
3 63 96 187
3 96 175 187
3 236 221 219
3 219 221 201
3 219 209 135
3 135 236 219
3 223 209 219
3 219 201 223
3 173 136 188
3 173 222 136
3 188 233 173
3 233 119 173
3 119 222 173
3 148 182 232
3 232 2 148
3 6 2 232
3 182 203 232
3 126 155 44
3 126 44 149
3 183 2 126
3 207 93 183
3 207 126 149
3 183 126 207
3 207 149 146
3 141 55 154
3 55 93 154
3 146 141 154
3 154 207 146
3 93 207 154
3 246 255 104
3 104 16 246
3 110 16 104
3 104 247 110
3 133 85 169
3 85 16 169
3 169 16 205
3 169 107 133
3 205 107 169
3 208 255 246
3 246 90 208
3 235 176 13
3 235 19 180
3 180 176 235
3 124 235 13
3 178 26 24
3 26 3 24
3 89 178 24
3 3 124 24
3 24 13 89
3 24 124 13
3 111 107 96
3 111 96 63
3 63 26 111
3 111 26 178
3 123 27 121
3 123 121 250
3 123 49 131
3 131 27 123
3 250 101 123
3 80 49 123
3 123 101 80
3 255 208 20
3 199 33 64
3 164 33 199
3 37 240 57
3 57 240 197
3 57 197 152
3 152 75 57
3 75 138 57
3 114 252 171
3 114 238 252
3 171 33 114
3 114 33 164
3 114 164 128
3 128 238 114
3 36 195 156
3 36 185 195
3 36 156 37
3 37 57 36
3 36 57 138
3 103 185 36
3 36 138 103
3 66 62 76
3 7 62 66
3 76 159 170
3 159 253 170
3 170 66 76
3 79 66 170
3 87 106 28
3 50 106 87
3 28 55 87
3 55 50 87
3 105 212 98
3 212 84 98
3 94 254 120
3 120 254 17
3 194 94 120
3 172 194 120
3 120 17 172
3 143 179 97
3 97 100 143
3 143 100 14
3 14 108 143
3 108 179 143
3 200 126 2
3 155 126 200
3 200 2 6
3 6 163 200
3 53 220 74
3 246 85 9
3 9 202 246
3 177 90 150
3 150 90 246
3 247 104 166
3 83 247 166
3 166 209 83
3 166 118 209
3 88 4 19
3 19 235 88
3 41 4 88
3 204 161 158
3 158 107 204
3 107 111 204
3 128 164 95
3 164 199 95
3 153 208 90
3 153 20 208
3 229 209 32
3 209 118 32
3 32 38 229
3 64 38 32
3 32 199 64
3 73 66 79
3 73 185 218
3 218 7 73
3 7 66 73
3 195 185 73
3 73 79 195
3 79 170 39
3 68 195 39
3 195 79 39
3 22 68 39
3 39 253 22
3 39 170 253
3 65 103 196
3 218 185 65
3 65 185 103
3 65 84 218
3 65 98 84
3 163 74 125
3 177 150 125
3 125 150 163
3 125 220 177
3 125 74 220
3 53 74 137
3 137 232 53
3 6 232 137
3 137 163 6
3 137 74 163
3 213 44 42
3 44 0 42
3 42 161 213
3 158 161 42
3 155 200 91
3 91 200 163
3 163 150 91
3 118 166 56
3 162 124 3
3 162 3 41
3 41 88 162
3 235 124 162
3 162 88 235
3 161 204 130
3 130 72 167
3 167 213 130
3 213 161 130
3 197 240 10
3 10 240 128
3 128 95 10
3 147 90 177
3 147 153 90
3 147 220 152
3 177 220 147
3 105 98 216
3 98 129 216
3 216 129 203
3 216 106 105
3 203 106 216
3 98 65 225
3 225 129 98
3 225 65 196
3 203 129 225
3 225 196 53
3 53 232 225
3 225 232 203
3 133 158 113
3 158 42 113
3 113 0 202
3 113 42 0
3 155 91 160
3 44 155 160
3 160 0 44
3 102 91 150
3 246 202 102
3 102 150 246
3 102 160 91
3 202 0 102
3 0 160 102
3 118 56 67
3 20 10 67
3 67 10 95
3 134 56 166
3 134 104 255
3 134 166 104
3 255 20 134
3 20 67 134
3 134 67 56
3 122 130 204
3 178 15 122
3 122 15 71
3 122 111 178
3 122 204 111
3 71 72 122
3 72 130 122
3 152 197 206
3 206 147 152
3 153 147 206
3 197 10 206
3 20 153 206
3 206 10 20
3 8 85 133
3 133 113 8
3 8 9 85
3 202 9 8
3 8 113 202
3 118 67 157
3 157 67 95
3 157 32 118
3 157 95 199
3 199 32 157