ply
format ascii 1.0
comment https://github.com/mikedh/trimesh
element vertex 256
property float x
property float y
property float z
element face 508
property list uchar int vertex_indices
end_header
-0.95874518 -1.76248085 0.92055672
0.36749053 3.17149782 0.28101137
-1.01538694 -0.71381843 -1.98103201
-0.07514869 0.62900174 4.46298933
0.47318044 0.51120937 4.10015774
-0.36874369 2.44700432 2.75252652
-0.90475273 -1.54406059 -1.93124402
0.41663486 0.58731741 -4.17435646
-0.77348745 -2.21317196 1.57548273
-0.66736835 -2.52286649 1.45490706
0.34529039 -3.17669129 -0.51303041
1.13432539 -0.58918375 0.54273236
0.25745529 1.72395551 -3.77303672
-0.12045512 1.45953596 4.07191992
0.92249471 1.75477576 -1.39642990
-0.79110026 1.18294156 2.91879678
-0.40985072 -2.56243753 2.45601416
0.17556523 3.14027190 -1.43038392
0.33677807 2.95097160 1.70338929
0.40044320 1.26519036 3.91248202
-0.01749986 -3.34707975 0.20225488
0.98706144 -1.62746692 0.91795421
1.04231381 -0.33446720 -1.95109975
0.66635710 1.67854404 2.94954205
-0.20251034 1.08819962 4.23484468
0.52475464 2.15763187 -2.81115961
-0.34712094 0.45835918 4.30210352
-0.97825444 1.65363777 0.97573507
-0.71327740 0.59177721 -3.50160146
0.32321435 2.41484094 -2.89162230
1.08539331 0.32839265 1.55038071
1.00755298 0.52439260 2.14443088
0.51520252 -2.73933387 1.67172980
0.86708093 -2.22642255 0.03172122
0.81163543 2.21497560 1.23517597
0.47350773 1.47644114 -3.64190531
0.34995049 -2.04052567 -3.34241271
0.46219811 -2.39298511 -2.62158251
0.71438903 -2.11228085 2.15374374
0.89553344 -0.11927930 -2.89282131
-0.58951473 1.70324039 3.16650891
0.20262270 -0.09807605 4.48132706
-0.98053479 -1.39866209 1.52585876
0.93325073 -1.46116543 1.83819997
-1.10488009 -0.83567011 0.81223989
0.96807992 1.81978643 -0.43445778
0.45070913 -0.19323921 4.18793678
0.62647539 2.77933145 0.65239716
0.54314470 -0.68411481 3.91450262
-0.87695175 2.19268107 -0.10153210
-0.75243556 1.49846089 -2.80499697
0.03272235 3.12162209 1.64518476
0.06161963 2.68121243 2.72040915
-0.38518363 -1.72373652 -3.60120225
0.55229318 0.11613993 4.00150681
-0.88149309 0.97180569 -2.65177107
0.22479202 -3.09518385 1.50455749
0.28740254 -2.68673301 -2.47446513
0.82110190 2.36434102 0.16886595
0.60868758 1.73599565 -3.07785988
0.36886579 3.09130120 0.99670804
0.75644284 -1.87927413 -2.32481980
0.58748293 1.17025173 -3.59067774
-0.26468042 -0.49348015 4.38384628
0.80315781 -2.24472570 1.22349155
-0.06856745 -1.00407827 -4.33659554
0.67927867 0.28840178 -3.67203999
0.28768861 -3.18416524 0.85106426
0.95724684 -0.87840706 -2.28165102
-0.32542923 2.45844316 -2.81770921
1.13974702 0.38986215 0.67915106
-1.03505516 0.91875076 1.63852465
-1.08065546 0.38279375 1.57979012
0.64186794 -0.17951870 -3.78694725
-0.51958716 -2.41168380 -2.41568685
-0.09017221 -2.55937815 -2.91588998
0.79122758 0.96076131 -3.06626105
0.79755116 -0.27678871 3.28755283
0.71769696 0.56988299 3.49301052
0.76008970 -0.14450993 -3.43584394
-0.66604418 2.74386859 0.01887268
-0.25852406 1.47260916 -3.96190262
1.04895127 1.27127397 0.90171677
0.21889679 -2.55915952 2.80902147
0.12695247 -0.28943953 -4.50936222
-0.59116274 -2.41174412 2.14937735
0.17971355 2.08760071 -3.49071860
-0.69950444 1.13910997 -3.28842521
0.33748963 0.72131199 4.24570608
-0.34932351 1.33661783 3.94437909
-0.48151481 -3.04817748 -0.01175540
-0.88592970 -2.14706135 -0.36561325
-0.19258331 1.80552161 3.76148748
-1.07492840 0.37914664 -1.63843012
-0.22819902 3.18792248 -1.07536936
0.46661559 -3.06187057 0.25739065
-0.40484738 -0.73452884 4.14950085
0.59710521 2.74584246 -1.14538431
-0.02855937 -0.24736813 -4.53964520
0.95247334 -0.16328059 2.59430504
0.83765453 2.25949955 -0.71188140
-0.61803508 2.79443407 0.65035981
-0.88866317 -2.12496829 0.48400381
0.03796889 -1.82165086 -3.81945896
-0.19183454 -2.92235065 2.09371233
-0.21775559 0.83007830 -4.32748652
-0.53909451 1.22800994 -3.67029667
-0.53672999 -1.31164396 3.62303972
0.67100030 2.06315041 -2.43709040
0.45186898 2.43847442 2.56981421
-0.25309297 -2.68176007 2.54254913
-0.56940764 -0.02035750 3.96792626
1.00768244 1.37472177 -1.27052498
-0.88517600 -1.76750207 1.70342898
0.80842036 -2.32727933 -0.81798774
0.40315285 1.12930655 -3.98586655
1.12558162 -0.35887295 -0.99896288
1.15242267 -0.33701289 -0.30324590
0.36316252 -2.94832087 1.62380183
-0.41321963 3.06487918 -0.86963785
-0.06322704 3.21012998 -1.27826548
-0.89198005 1.84468448 1.48331058
-0.84378827 0.65132517 2.99937963
-0.83735627 2.20020986 0.99935871
-0.02431436 1.07985008 4.31058979
-0.60632604 -2.56179142 -1.71769738
-1.11623919 -0.81357759 -0.58138949
-0.16866852 -2.00201511 -3.58966184
0.64372766 -2.68720627 -1.00450015
-0.35216838 0.01435486 -4.33957005
-0.93749273 -0.03552522 2.68657660
-0.99125373 1.74225211 0.05749299
0.91642219 0.48445675 2.71594214
-0.70131791 -1.64120114 2.86324143
0.05742772 -3.14586759 1.54792714
0.55181330 -1.77359807 3.19885707
-0.74069774 2.00272965 -2.20864558
-0.77302504 -1.77990711 -2.38433075
0.15992668 -2.23134494 -3.33792996
-0.42427638 3.08547974 0.60756624
-0.58113313 2.17936611 2.60013771
-0.94142741 1.40078294 -1.86157429
0.34609067 3.06104755 -1.25857222
0.78525126 2.26758409 -1.32177937
0.40579325 2.81312299 -1.89405012
0.01806451 3.29642892 0.80568731
-1.07983148 1.06457698 -0.83172095
-0.16768344 -3.20863533 -1.12825918
-0.91980022 0.15361625 -2.77023935
-1.14796782 0.12197750 0.65576822
-0.75657350 -2.49672246 -0.63663012
0.98063427 1.41314840 1.49838412
-0.05999951 -2.84013343 -2.40307260
-0.14464311 -3.30062795 -0.54135180
-1.06327379 0.82600564 -1.43818521
-1.03687322 -1.45455241 -0.53062773
0.60795939 -2.13225627 -2.57912922
0.44750237 -2.97936368 1.11790264
-0.79964662 -1.11541784 2.93271518
0.85277468 1.20442498 -2.62059617
-0.96765542 -1.84882927 0.08767089
-0.93466508 -0.62639803 2.56284022
0.07518853 0.61857867 4.46618557
-0.74580228 -2.22586966 -1.73711264
0.73017114 -2.59105372 -0.35567838
1.15593743 -0.09700667 0.38492790
0.18749517 -2.93869185 2.05877614
-1.10881710 -0.30278993 1.28131616
0.60904813 2.61163211 1.56010973
-0.54678279 -1.98805916 2.97229910
0.87990230 0.30828559 -2.93995905
0.92205715 -1.98518729 -0.60915589
0.14068697 2.80832267 -2.42306328
-0.62668109 2.53863335 -1.66841984
0.96431768 -0.84165603 2.26054788
-0.37111261 -1.38117409 3.88471293
0.01269154 1.95131934 3.70146418
-0.57029009 -2.77916884 -1.21017420
-0.42304268 0.89632469 4.06279755
0.59741223 2.56729722 -1.75038660
0.24837580 1.98831642 3.53405428
-1.06588793 1.14260089 0.91676992
-0.81593472 0.17481621 -3.22972775
-1.11277485 -0.50614607 -1.09702015
1.07210362 0.84605247 -1.31204474
0.39260143 -1.15664673 -3.98730636
-0.23852563 2.87967539 2.13027859
-0.10656558 -1.04088938 4.30897951
-0.78700668 2.27771449 -1.27132463
0.73944336 -1.59160554 2.76266026
0.74531001 2.08711648 2.03261018
0.04967381 1.93213487 -3.71447062
-0.78876799 1.54763651 2.59486294
1.00915492 -1.61447382 -0.49380955
-0.00299936 2.73783255 -2.62495780
0.74872541 -1.37222028 -2.93775058
-0.26914433 -1.48085868 -3.94534230
0.18163100 -3.02766538 -1.81257463
-0.03841807 2.29972410 -3.30816364
0.68576968 -2.61543870 0.92821342
-0.94870490 -1.68083692 -1.29362667
0.08021700 -1.58075655 4.00277901
-0.83894736 -2.18335462 1.04441607
-0.59248757 0.17951854 -3.90773249
-0.75375575 -0.03459111 3.46292329
-0.34486866 -1.93235493 3.46525478
-0.00343345 -3.18260717 -1.42200494
-1.14419997 0.22723027 -0.70485443
-0.31900558 -3.19770980 0.51934165
0.35480317 -2.36833763 2.90480065
1.07851648 -1.22623682 -0.24458428
1.11224127 0.87869036 0.52540183
0.14662644 0.42560363 -4.48110819
-1.05808949 -0.73583311 1.58234906
0.82931191 -0.88671476 2.94907784
0.52977329 1.82994342 3.19945717
-0.31314170 0.47075090 -4.33765459
0.93124056 1.30515993 -2.06192160
0.26601294 -0.62434524 -4.35011387
0.27228674 -1.60717499 3.85150218
-0.27457985 -2.59508657 -2.66991591
0.33187568 -0.75297439 4.24113178
-0.52121443 2.52972674 -2.17504835
-0.00362395 -2.16547227 3.47446609
1.01372588 1.60771227 0.37625185
-0.31849512 -0.84521049 -4.22530985
-0.38413718 3.00860739 1.32193160
-0.20116356 3.29798460 0.12051136
0.24938208 3.26641798 -0.24969210
0.56001437 -2.30770278 2.46196008
0.65066206 -0.36709383 3.73690414
-0.56025320 2.14348769 -2.72244740
-0.93334794 -0.63024014 -2.56834054
-0.53883725 2.93962097 -0.54996115
0.64587468 2.77467823 -0.30842209
0.05805348 1.45830011 4.09329271
0.48462474 -1.29999113 3.74101067
1.06545746 -0.70634353 -1.53260052
0.75105554 -2.33627248 -1.40365028
-0.09313047 2.41103721 3.14108157
0.51407194 -2.78059340 -1.54613173
-0.38159767 2.09649920 3.22041082
0.59785670 2.15223742 2.58357763
1.13571846 0.56234735 -0.55268359
1.04211628 -1.09002674 1.35194218
0.10461071 2.52006197 -2.97207522
-0.54220533 -2.87269306 0.98272389
0.04620412 -2.59097004 2.88039470
1.04687512 1.39474678 -0.52303922
0.22850314 3.14887261 1.27120578
-0.65930653 2.53812838 1.46268034
-0.28488466 2.07961917 -3.39123416
0.94703549 -1.65056241 -1.37852442
0.99701798 0.49370500 -2.23333740
-0.00892935 3.33621478 -0.40477347
-0.20679478 -3.16821718 1.23449767
3 135 229 189
3 110 247 223
3 223 247 83
3 30 31 99
3 209 229 135
3 209 223 83
3 38 189 229
3 64 43 38
3 38 43 189
3 94 194 69
3 149 181 146
3 80 233 188
3 146 181 131
3 146 131 141
3 141 131 188
3 110 223 205
3 237 68 22
3 172 144 29
3 198 86 191
3 191 251 198
3 69 194 198
3 198 251 69
3 51 226 186
3 23 78 132
3 99 31 132
3 19 78 23
3 165 30 11
3 23 190 242
3 159 76 59
3 59 108 159
3 248 184 112
3 243 184 248
3 211 243 248
3 248 224 211
3 211 224 82
3 82 30 211
3 34 224 58
3 234 47 58
3 58 47 34
3 21 43 64
3 174 30 99
3 135 189 236
3 46 48 230
3 227 94 119
3 167 149 44
3 44 213 167
3 49 80 188
3 188 131 49
3 136 141 188
3 182 55 28
3 148 55 182
3 250 226 101
3 180 109 52
3 186 239 52
3 52 51 186
3 72 149 167
3 181 149 72
3 72 71 181
3 121 140 250
3 107 158 133
3 96 107 175
3 175 107 205
3 68 237 252
3 252 61 68
3 68 61 195
3 61 156 195
3 245 198 194
3 86 198 245
3 245 194 172
3 172 29 245
3 245 29 86
3 59 76 62
3 191 86 12
3 86 29 12
3 81 251 191
3 191 105 81
3 212 105 191
3 191 12 212
3 203 182 28
3 17 144 172
3 60 47 1
3 1 47 234
3 168 190 34
3 34 47 168
3 109 242 168
3 168 242 190
3 168 47 60
3 227 226 145
3 226 51 145
3 145 1 228
3 109 168 18
3 18 168 60
3 18 52 109
3 51 52 18
3 180 19 215
3 215 19 23
3 23 242 215
3 215 109 180
3 215 242 109
3 78 19 4
3 4 41 46
3 70 243 211
3 70 165 243
3 211 30 70
3 30 165 70
3 116 237 22
3 22 184 116
3 116 184 243
3 25 29 144
3 25 108 59
3 25 12 29
3 217 108 14
3 217 159 108
3 217 14 112
3 112 184 217
3 253 184 22
3 253 217 184
3 159 217 253
3 112 14 45
3 45 248 112
3 224 248 45
3 45 58 224
3 151 224 34
3 151 82 224
3 34 190 151
3 151 190 23
3 31 30 151
3 30 82 151
3 23 132 151
3 151 132 31
3 210 252 237
3 237 116 210
3 43 21 244
3 244 174 43
3 244 210 11
3 21 210 244
3 11 30 244
3 30 174 244
3 214 236 189
3 48 236 214
3 214 230 48
3 189 43 214
3 43 174 214
3 214 174 99
3 201 205 223
3 201 175 205
3 221 236 48
3 46 41 221
3 221 48 46
3 78 230 77
3 99 132 77
3 77 132 78
3 77 214 99
3 230 214 77
3 222 94 69
3 222 119 94
3 69 251 231
3 231 222 69
3 136 222 231
3 141 136 50
3 50 55 141
3 136 231 50
3 93 55 148
3 148 2 93
3 93 2 183
3 16 85 246
3 110 205 16
3 220 75 152
3 233 80 139
3 80 101 139
3 227 119 139
3 139 119 233
3 139 226 227
3 139 101 226
3 180 52 176
3 176 52 239
3 63 41 3
3 3 26 63
3 89 13 92
3 92 241 89
3 13 176 92
3 239 241 92
3 92 176 239
3 5 239 186
3 5 241 239
3 140 241 5
3 186 226 5
3 5 226 250
3 250 140 5
3 40 178 89
3 40 15 178
3 89 241 40
3 40 241 140
3 181 71 27
3 71 121 27
3 27 131 181
3 140 121 192
3 192 40 140
3 15 40 192
3 71 15 192
3 192 121 71
3 33 21 64
3 37 156 240
3 61 252 238
3 128 240 238
3 238 156 61
3 238 240 156
3 127 220 53
3 75 220 127
3 53 196 127
3 196 103 127
3 127 138 75
3 103 138 127
3 106 81 105
3 106 203 28
3 106 50 231
3 251 81 106
3 106 231 251
3 84 7 218
3 84 212 7
3 7 212 115
3 115 212 12
3 115 62 7
3 228 17 254
3 254 94 227
3 227 145 254
3 254 145 228
3 249 18 60
3 51 18 249
3 249 145 51
3 60 1 249
3 1 145 249
3 54 230 78
3 78 4 54
3 46 230 54
3 54 4 46
3 243 165 117
3 117 116 243
3 117 165 11
3 11 210 117
3 117 210 116
3 179 25 144
3 108 25 179
3 144 97 179
3 35 25 59
3 12 25 35
3 35 115 12
3 59 62 35
3 62 115 35
3 142 17 228
3 234 97 142
3 144 17 142
3 142 97 144
3 142 1 234
3 228 1 142
3 234 58 100
3 58 45 100
3 100 97 234
3 100 45 14
3 193 210 21
3 193 33 171
3 21 33 193
3 171 252 193
3 252 210 193
3 187 41 63
3 175 201 187
3 187 221 41
3 201 221 187
3 63 96 187
3 96 175 187
3 236 221 219
3 219 221 201
3 219 209 135
3 135 236 219
3 223 209 219
3 219 201 223
3 173 136 188
3 173 222 136
3 188 233 173
3 233 119 173
3 119 222 173
3 148 182 232
3 232 2 148
3 6 2 232
3 182 203 232
3 126 155 44
3 126 44 149
3 183 2 126
3 207 93 183
3 207 126 149
3 183 126 207
3 207 149 146
3 141 55 154
3 55 93 154
3 146 141 154
3 154 207 146
3 93 207 154
3 246 255 104
3 104 16 246
3 110 16 104
3 104 247 110
3 133 85 169
3 85 16 169
3 169 16 205
3 169 107 133
3 205 107 169
3 208 255 246
3 246 90 208
3 235 176 13
3 235 19 180
3 180 176 235
3 124 235 13
3 178 26 24
3 26 3 24
3 89 178 24
3 3 124 24
3 24 13 89
3 24 124 13
3 111 107 96
3 111 96 63
3 63 26 111
3 111 26 178
3 123 27 121
3 123 121 250
3 123 49 131
3 131 27 123
3 250 101 123
3 80 49 123
3 123 101 80
3 255 208 20
3 199 33 64
3 164 33 199
3 37 240 57
3 57 240 197
3 57 197 152
3 152 75 57
3 75 138 57
3 114 252 171
3 114 238 252
3 171 33 114
3 114 33 164
3 114 164 128
3 128 238 114
3 36 195 156
3 36 185 195
3 36 156 37
3 37 57 36
3 36 57 138
3 103 185 36
3 36 138 103
3 66 62 76
3 7 62 66
3 76 159 170
3 159 253 170
3 170 66 76
3 79 66 170
3 87 106 28
3 50 106 87
3 28 55 87
3 55 50 87
3 105 212 98
3 212 84 98
3 94 254 120
3 120 254 17
3 194 94 120
3 172 194 120
3 120 17 172
3 143 179 97
3 97 100 143
3 143 100 14
3 14 108 143
3 108 179 143
3 200 126 2
3 155 126 200
3 200 2 6
3 6 163 200
3 53 220 74
3 246 85 9
3 9 202 246
3 177 90 150
3 150 90 246
3 247 104 166
3 83 247 166
3 166 209 83
3 166 118 209
3 88 4 19
3 19 235 88
3 41 4 88
3 204 161 158
3 158 107 204
3 107 111 204
3 128 164 95
3 164 199 95
3 153 208 90
3 153 20 208
3 229 209 32
3 209 118 32
3 32 38 229
3 64 38 32
3 32 199 64
3 73 66 79
3 73 185 218
3 218 7 73
3 7 66 73
3 195 185 73
3 73 79 195
3 79 170 39
3 68 195 39
3 195 79 39
3 22 68 39
3 39 253 22
3 39 170 253
3 65 103 196
3 218 185 65
3 65 185 103
3 65 84 218
3 65 98 84
3 163 74 125
3 177 150 125
3 125 150 163
3 125 220 177
3 125 74 220
3 53 74 137
3 137 232 53
3 6 232 137
3 137 163 6
3 137 74 163
3 213 44 42
3 44 0 42
3 42 161 213
3 158 161 42
3 155 200 91
3 91 200 163
3 163 150 91
3 118 166 56
3 162 124 3
3 162 3 41
3 41 88 162
3 235 124 162
3 162 88 235
3 161 204 130
3 130 72 167
3 167 213 130
3 213 161 130
3 197 240 10
3 10 240 128
3 128 95 10
3 147 90 177
3 147 153 90
3 147 220 152
3 177 220 147
3 105 98 216
3 98 129 216
3 216 129 203
3 216 106 105
3 203 106 216
3 98 65 225
3 225 129 98
3 225 65 196
3 203 129 225
3 225 196 53
3 53 232 225
3 225 232 203
3 133 158 113
3 158 42 113
3 113 0 202
3 113 42 0
3 155 91 160
3 44 155 160
3 160 0 44
3 102 91 150
3 246 202 102
3 102 150 246
3 102 160 91
3 202 0 102
3 0 160 102
3 118 56 67
3 20 10 67
3 67 10 95
3 134 56 166
3 134 104 255
3 134 166 104
3 255 20 134
3 20 67 134
3 134 67 56
3 122 130 204
3 178 15 122
3 122 15 71
3 122 111 178
3 122 204 111
3 71 72 122
3 72 130 122
3 152 197 206
3 206 147 152
3 153 147 206
3 197 10 206
3 20 153 206
3 206 10 20
3 8 85 133
3 133 113 8
3 8 9 85
3 202 9 8
3 8 113 202
3 118 67 157
3 157 67 95
3 157 32 118
3 157 95 199
3 199 32 157