ply
format ascii 1.0
comment https://github.com/mikedh/trimesh
element vertex 256
property float x
property float y
property float z
element face 508
property list uchar int vertex_indices
end_header
-3.71114469 -0.72286385 0.24340349
1.42249537 1.30075800 0.07430194
-3.93039560 -0.29276547 -0.52380270
-0.29088819 0.25797877 1.18005455
1.83160353 0.20966741 1.08411860
-1.42734611 1.00361431 0.72779280
-3.50214863 -0.63328099 -0.51063830
1.61272490 0.24088235 -1.10373735
-2.99404263 -0.90771031 0.41657183
-2.58327293 -1.03472841 0.38469055
1.33656228 -1.30288804 -0.13564986
4.39078665 -0.24164779 0.14350332
0.99656701 0.70706308 -0.99762493
-0.46626195 0.59861404 1.07665229
3.57082510 0.71970367 -0.36922863
-3.06221890 0.48517162 0.77175617
-1.58646464 -1.05095804 0.64939231
0.67958409 1.28795111 -0.37820637
1.30361247 1.21031141 0.45039147
1.55004966 0.51890516 1.03449547
-0.06773908 -1.37277126 0.05347801
3.82075214 -0.66748923 0.24271536
4.03462505 -0.13717838 -0.51588839
2.57935858 0.68843800 0.77988547
-0.78388417 0.44631416 1.11973107
2.03123879 0.88493115 -0.74329591
-1.34364796 0.18799143 1.13751483
-3.78666186 0.67822295 0.25799316
-2.76097918 0.24271150 -0.92585498
1.25110960 0.99042279 -0.76457101
4.20137882 0.13468696 0.40993461
3.90007162 0.21507438 0.56700683
1.99426401 -1.12351036 0.44202042
3.35632730 -0.91314489 0.00838737
3.14170694 0.90845007 0.32659167
1.83287048 0.60554755 -0.96295255
1.35460079 -0.83690119 -0.88376403
1.78909278 -0.98145884 -0.69317001
2.76528215 -0.86633080 0.56946927
3.46646237 -0.04892121 -0.76488799
-2.28191447 0.69856697 0.83725345
0.78431910 -0.04022491 1.18490326
-3.79548860 -0.57364726 0.40345079
3.61245990 -0.59928232 0.48603663
-4.27680874 -0.34274173 0.21476354
3.74727798 0.74636716 -0.11487455
1.74462080 -0.07925513 1.10732818
2.42498302 1.13991499 0.17249969
2.10242367 -0.28058285 1.03502977
-3.39453578 0.89930612 -0.02684600
-2.91255403 0.61457872 -0.74166644
0.12666282 1.28030205 0.43500167
0.23851945 1.09967244 0.71930069
-1.49098241 -0.70697325 -0.95219034
2.13783598 0.04763363 1.05803442
-3.41211462 0.39857635 -0.70115215
0.87013286 -1.26945865 0.39781857
1.11248791 -1.10193670 -0.65427083
3.17835021 0.96971077 0.04464968
2.35612941 0.71200126 -0.81381392
1.42781878 1.26786625 0.26353857
2.92806578 -0.77076548 -0.61470330
2.27404976 0.47996703 -0.94940758
-1.02453434 -0.20239595 1.15912843
3.10889149 -0.92065173 0.32350221
-0.26541331 -0.41181263 -1.14663494
2.62937570 0.11828510 -0.97092044
1.11359513 -1.30595338 0.22502905
3.70534492 -0.36026987 -0.60328907
-1.25968289 1.00830579 -0.74502772
4.41177320 0.15989806 0.17957367
-4.00652790 0.37681642 0.43324068
-4.18303919 0.15699902 0.41771072
2.48456502 -0.07362780 -1.00130296
-2.01123619 -0.98912799 -0.63872933
-0.34904176 -1.04970336 -0.77098757
3.06271172 0.39404663 -0.81074703
3.08718920 -0.11352212 0.86925858
2.77808666 0.23373179 0.92358345
2.94218183 -0.05926930 -0.90846807
-2.57814741 1.12537026 0.00499011
-1.00070405 0.60397589 -1.04756272
4.06031752 0.52140027 0.23842204
0.84731340 -1.04961371 0.74273062
0.49141210 -0.11871072 -1.19231606
-2.28829360 -0.98915267 0.56831473
0.69564152 0.85620856 -0.92297745
-2.70766640 0.46719453 -0.86948925
1.30636680 0.29583889 1.12260294
-1.35217381 0.54820043 1.04292941
-1.86386454 -1.25017941 -0.00310823
-3.42928815 -0.88059574 -0.09667144
-0.74545825 0.74051660 0.99457121
-4.16087103 0.15550318 -0.43321571
-0.88332081 1.30749440 -0.28433734
1.80619204 -1.25579560 0.06805640
-1.56709754 -0.30125967 1.09716547
2.31129599 1.12617970 -0.30284995
-0.11054862 -0.10145556 -1.20032310
3.68686724 -0.06696790 0.68595761
3.24242258 0.92671114 -0.18822785
-2.39231181 1.14610910 0.17196099
-3.43986893 -0.87153453 0.12797497
0.14697130 -0.74713182 -1.00989938
-0.74255985 -1.19857287 0.55359638
-0.84289598 0.34044832 -1.14422643
-2.08674622 0.50365597 -0.97045952
-2.07759333 -0.53795761 0.95796430
2.59733152 0.84618044 -0.64438862
1.74911034 1.00011587 0.67948198
-0.97968119 -1.09989703 0.67227292
-2.20408320 -0.00834942 1.04915547
3.90057278 0.56382835 -0.33593825
-3.42637038 -0.72492325 0.45040196
3.12926221 -0.95451033 -0.21628332
1.56053829 0.46317378 -1.05389905
4.35694122 -0.14718814 -0.26413479
4.46083832 -0.13822246 -0.08018095
1.40574229 -1.20922422 0.42934784
-1.59950519 1.25702953 -0.22994009
-0.24474147 1.31660259 -0.33798489
-3.45270801 0.75657886 0.39220068
-3.26616549 0.26713449 0.79306304
-3.24126816 0.90239406 0.26423946
-0.09411690 0.44288969 1.13975883
-2.34698820 -1.05069304 -0.45417467
-4.32077789 -0.33368069 -0.15372463
-0.65288806 -0.82110649 -0.94913894
2.49176359 -1.10213077 -0.26559886
-1.36318576 0.00588750 -1.14742148
-3.62887979 -0.01457031 0.71035504
-3.83697987 0.71456724 0.01520167
3.54731941 0.19869508 0.71811962
-2.71468616 -0.67312223 0.75706679
0.22229324 -1.29024601 0.40928587
2.13597846 -0.72742349 0.84580660
-2.86711907 0.82139951 -0.58398581
-2.99225259 -0.73001111 -0.63043857
0.61904985 -0.91516376 -0.88257873
-1.64230394 1.26547861 0.16064599
-2.24947071 0.89384520 0.68749988
-3.64411044 0.57451707 -0.49221700
1.33965993 1.25545800 -0.33277783
3.03957820 0.93002695 -0.34949037
1.57075882 1.15377426 -0.50080395
0.06992474 1.35199726 0.21303098
-4.17985010 0.43662557 -0.21991453
-0.64907497 -1.31598961 -0.29832187
-3.56039500 0.06300417 -0.73247623
-4.44359446 0.05002785 0.17339103
-2.92857146 -1.02400565 -0.16833074
3.79587364 0.57958865 0.39618626
-0.23224822 -1.16485226 -0.63539404
-0.55988967 -1.35371959 -0.14313829
-4.11575747 0.33877796 -0.38026914
-4.01356554 -0.59657007 -0.14030276
2.35331059 -0.87452352 -0.68194497
1.73220801 -1.22195613 0.29558352
-3.09530044 -0.45747745 0.77543634
3.30095029 0.49398282 -0.69290924
-3.74563479 -0.75827885 0.02318097
-3.61793447 -0.25691086 0.67763805
0.29104242 0.25370386 1.18089962
-2.88687778 -0.91291821 -0.45930824
2.82637215 -1.06269479 -0.09404457
4.47444344 -0.03978632 0.10177840
0.72576296 -1.20527506 0.54435897
-4.29204845 -0.12418625 0.33879155
2.35752487 1.07113469 0.41250706
-2.11650610 -0.81538254 0.78590268
3.40595675 0.12644024 -0.77735162
3.56913137 -0.81420469 -0.16106631
0.54457611 1.15180540 -0.64067978
-2.42577910 1.04119503 -0.44114521
3.73271489 -0.34519678 0.59770924
-1.43651581 -0.56647474 1.02715302
0.04912686 0.80031407 0.97870052
-2.20749903 -1.13984823 -0.31998095
-1.63752854 0.36761859 1.07424033
2.31248450 1.05295122 -0.46281797
0.96142185 0.81548804 0.93443578
-4.12587690 0.46862632 0.24240224
-3.15834880 0.07169912 -0.85396916
-4.30736780 -0.20759074 -0.29006201
4.14993620 0.34699994 -0.34691644
1.51969540 -0.47438708 -1.05427969
-0.92329347 1.18107009 0.56326485
-0.41249782 -0.42691037 1.13933301
-3.04637313 0.93418181 -0.33614966
2.86226344 -0.65278107 0.73047227
2.88497233 0.85600990 0.53744042
0.19227915 0.79244578 -0.98213953
-3.05319095 0.63474762 0.68610513
3.90627241 -0.66216028 -0.13056768
-0.01161001 1.12289453 -0.69406247
2.89819288 -0.56280237 -0.77676767
-1.04181337 -0.60735935 -1.04318404
0.70306373 -1.24176669 -0.47926107
-0.14871001 0.94320881 -0.87470824
2.65450144 -1.07269597 0.24542800
-3.67228031 -0.68937844 -0.34204656
0.31050676 -0.64833146 1.05837083
-3.24742699 -0.89548105 0.27615300
-2.29342175 0.07362773 -1.03323972
-2.91766453 -0.01418720 0.91562814
-1.33492970 -0.79253602 0.91624463
-0.01329031 -1.30531442 -0.37599093
-4.42900944 0.09319622 -0.18636985
-1.23481798 -1.31150866 0.13731861
1.37338459 -0.97135001 0.76805550
4.17475986 -0.50292873 -0.06467029
4.30530262 0.36038607 0.13892098
0.56756681 0.17455706 -1.18484545
-4.09569025 -0.30179459 0.41838735
3.21012974 -0.36367717 0.77976274
2.05066514 0.75053298 0.84596533
-1.21211994 0.19307376 -1.14691496
3.60467887 0.53529829 -0.54519063
1.02969229 -0.25606894 -1.15020931
1.05397713 -0.65916669 1.01837182
-1.06285334 -1.06434882 -0.70594984
1.28463602 -0.30882490 1.12139344
-2.01753521 1.03754210 -0.57510239
-0.01402772 -0.88814676 0.91868013
3.92396569 0.65938711 0.09948438
-1.23284221 -0.34665462 -1.11720991
-1.48693180 1.23395014 0.34953064
-0.77867103 1.35263538 0.03186429
0.96531695 1.33968866 -0.06602084
2.16772318 -0.94648123 0.65096444
2.51860571 -0.15055986 0.98807114
-2.16864800 0.87913001 -0.71983963
-3.61283612 -0.25848669 -0.67909241
-2.08575034 1.20565605 -0.14541468
2.50007439 1.13800645 -0.08154958
0.22471547 0.59810716 1.08230340
1.87590265 -0.53317833 0.98915696
4.12421036 -0.28969973 -0.40523338
2.90721226 -0.95819879 -0.37113780
-0.36049271 0.98886275 0.83053029
1.98988783 -1.14043248 -0.40881115
-1.47710168 0.85985810 0.85150564
2.31420469 0.88271862 0.68312120
4.39617872 0.23064113 -0.14613453
4.03386068 -0.44706357 0.35746571
0.40493083 1.03357816 -0.78584349
-2.09878755 -1.17820632 0.25984105
0.17884852 -1.06266034 0.76160228
4.05228090 0.57204145 -0.13829628
0.88449806 1.29147863 0.33611825
-2.55206704 1.04098785 0.38674584
-1.10274160 0.85293490 -0.89667284
3.66581821 -0.67696166 -0.36449429
3.85929227 0.20248817 -0.59051454
-0.03456405 1.36831510 -0.10702576
-0.80046856 -1.29941249 0.32641229
3 135 229 189
3 110 247 223
3 223 247 83
3 30 31 99
3 209 229 135
3 209 223 83
3 38 189 229
3 64 43 38
3 38 43 189
3 94 194 69
3 149 181 146
3 80 233 188
3 146 181 131
3 146 131 141
3 141 131 188
3 110 223 205
3 237 68 22
3 172 144 29
3 198 86 191
3 191 251 198
3 69 194 198
3 198 251 69
3 51 226 186
3 23 78 132
3 99 31 132
3 19 78 23
3 165 30 11
3 23 190 242
3 159 76 59
3 59 108 159
3 248 184 112
3 243 184 248
3 211 243 248
3 248 224 211
3 211 224 82
3 82 30 211
3 34 224 58
3 234 47 58
3 58 47 34
3 21 43 64
3 174 30 99
3 135 189 236
3 46 48 230
3 227 94 119
3 167 149 44
3 44 213 167
3 49 80 188
3 188 131 49
3 136 141 188
3 182 55 28
3 148 55 182
3 250 226 101
3 180 109 52
3 186 239 52
3 52 51 186
3 72 149 167
3 181 149 72
3 72 71 181
3 121 140 250
3 107 158 133
3 96 107 175
3 175 107 205
3 68 237 252
3 252 61 68
3 68 61 195
3 61 156 195
3 245 198 194
3 86 198 245
3 245 194 172
3 172 29 245
3 245 29 86
3 59 76 62
3 191 86 12
3 86 29 12
3 81 251 191
3 191 105 81
3 212 105 191
3 191 12 212
3 203 182 28
3 17 144 172
3 60 47 1
3 1 47 234
3 168 190 34
3 34 47 168
3 109 242 168
3 168 242 190
3 168 47 60
3 227 226 145
3 226 51 145
3 145 1 228
3 109 168 18
3 18 168 60
3 18 52 109
3 51 52 18
3 180 19 215
3 215 19 23
3 23 242 215
3 215 109 180
3 215 242 109
3 78 19 4
3 4 41 46
3 70 243 211
3 70 165 243
3 211 30 70
3 30 165 70
3 116 237 22
3 22 184 116
3 116 184 243
3 25 29 144
3 25 108 59
3 25 12 29
3 217 108 14
3 217 159 108
3 217 14 112
3 112 184 217
3 253 184 22
3 253 217 184
3 159 217 253
3 112 14 45
3 45 248 112
3 224 248 45
3 45 58 224
3 151 224 34
3 151 82 224
3 34 190 151
3 151 190 23
3 31 30 151
3 30 82 151
3 23 132 151
3 151 132 31
3 210 252 237
3 237 116 210
3 43 21 244
3 244 174 43
3 244 210 11
3 21 210 244
3 11 30 244
3 30 174 244
3 214 236 189
3 48 236 214
3 214 230 48
3 189 43 214
3 43 174 214
3 214 174 99
3 201 205 223
3 201 175 205
3 221 236 48
3 46 41 221
3 221 48 46
3 78 230 77
3 99 132 77
3 77 132 78
3 77 214 99
3 230 214 77
3 222 94 69
3 222 119 94
3 69 251 231
3 231 222 69
3 136 222 231
3 141 136 50
3 50 55 141
3 136 231 50
3 93 55 148
3 148 2 93
3 93 2 183
3 16 85 246
3 110 205 16
3 220 75 152
3 233 80 139
3 80 101 139
3 227 119 139
3 139 119 233
3 139 226 227
3 139 101 226
3 180 52 176
3 176 52 239
3 63 41 3
3 3 26 63
3 89 13 92
3 92 241 89
3 13 176 92
3 239 241 92
3 92 176 239
3 5 239 186
3 5 241 239
3 140 241 5
3 186 226 5
3 5 226 250
3 250 140 5
3 40 178 89
3 40 15 178
3 89 241 40
3 40 241 140
3 181 71 27
3 71 121 27
3 27 131 181
3 140 121 192
3 192 40 140
3 15 40 192
3 71 15 192
3 192 121 71
3 33 21 64
3 37 156 240
3 61 252 238
3 128 240 238
3 238 156 61
3 238 240 156
3 127 220 53
3 75 220 127
3 53 196 127
3 196 103 127
3 127 138 75
3 103 138 127
3 106 81 105
3 106 203 28
3 106 50 231
3 251 81 106
3 106 231 251
3 84 7 218
3 84 212 7
3 7 212 115
3 115 212 12
3 115 62 7
3 228 17 254
3 254 94 227
3 227 145 254
3 254 145 228
3 249 18 60
3 51 18 249
3 249 145 51
3 60 1 249
3 1 145 249
3 54 230 78
3 78 4 54
3 46 230 54
3 54 4 46
3 243 165 117
3 117 116 243
3 117 165 11
3 11 210 117
3 117 210 116
3 179 25 144
3 108 25 179
3 144 97 179
3 35 25 59
3 12 25 35
3 35 115 12
3 59 62 35
3 62 115 35
3 142 17 228
3 234 97 142
3 144 17 142
3 142 97 144
3 142 1 234
3 228 1 142
3 234 58 100
3 58 45 100
3 100 97 234
3 100 45 14
3 193 210 21
3 193 33 171
3 21 33 193
3 171 252 193
3 252 210 193
3 187 41 63
3 175 201 187
3 187 221 41
3 201 221 187
3 63 96 187
3 96 175 187
3 236 221 219
3 219 221 201
3 219 209 135
3 135 236 219
3 223 209 219
3 219 201 223
3 173 136 188
3 173 222 136
3 188 233 173
3 233 119 173
3 119 222 173
3 148 182 232
3 232 2 148
3 6 2 232
3 182 203 232
3 126 155 44
3 126 44 149
3 183 2 126
3 207 93 183
3 207 126 149
3 183 126 207
3 207 149 146
3 141 55 154
3 55 93 154
3 146 141 154
3 154 207 146
3 93 207 154
3 246 255 104
3 104 16 246
3 110 16 104
3 104 247 110
3 133 85 169
3 85 16 169
3 169 16 205
3 169 107 133
3 205 107 169
3 208 255 246
3 246 90 208
3 235 176 13
3 235 19 180
3 180 176 235
3 124 235 13
3 178 26 24
3 26 3 24
3 89 178 24
3 3 124 24
3 24 13 89
3 24 124 13
3 111 107 96
3 111 96 63
3 63 26 111
3 111 26 178
3 123 27 121
3 123 121 250
3 123 49 131
3 131 27 123
3 250 101 123
3 80 49 123
3 123 101 80
3 255 208 20
3 199 33 64
3 164 33 199
3 37 240 57
3 57 240 197
3 57 197 152
3 152 75 57
3 75 138 57
3 114 252 171
3 114 238 252
3 171 33 114
3 114 33 164
3 114 164 128
3 128 238 114
3 36 195 156
3 36 185 195
3 36 156 37
3 37 57 36
3 36 57 138
3 103 185 36
3 36 138 103
3 66 62 76
3 7 62 66
3 76 159 170
3 159 253 170
3 170 66 76
3 79 66 170
3 87 106 28
3 50 106 87
3 28 55 87
3 55 50 87
3 105 212 98
3 212 84 98
3 94 254 120
3 120 254 17
3 194 94 120
3 172 194 120
3 120 17 172
3 143 179 97
3 97 100 143
3 143 100 14
3 14 108 143
3 108 179 143
3 200 126 2
3 155 126 200
3 200 2 6
3 6 163 200
3 53 220 74
3 246 85 9
3 9 202 246
3 177 90 150
3 150 90 246
3 247 104 166
3 83 247 166
3 166 209 83
3 166 118 209
3 88 4 19
3 19 235 88
3 41 4 88
3 204 161 158
3 158 107 204
3 107 111 204
3 128 164 95
3 164 199 95
3 153 208 90
3 153 20 208
3 229 209 32
3 209 118 32
3 32 38 229
3 64 38 32
3 32 199 64
3 73 66 79
3 73 185 218
3 218 7 73
3 7 66 73
3 195 185 73
3 73 79 195
3 79 170 39
3 68 195 39
3 195 79 39
3 22 68 39
3 39 253 22
3 39 170 253
3 65 103 196
3 218 185 65
3 65 185 103
3 65 84 218
3 65 98 84
3 163 74 125
3 177 150 125
3 125 150 163
3 125 220 177
3 125 74 220
3 53 74 137
3 137 232 53
3 6 232 137
3 137 163 6
3 137 74 163
3 213 44 42
3 44 0 42
3 42 161 213
3 158 161 42
3 155 200 91
3 91 200 163
3 163 150 91
3 118 166 56
3 162 124 3
3 162 3 41
3 41 88 162
3 235 124 162
3 162 88 235
3 161 204 130
3 130 72 167
3 167 213 130
3 213 161 130
3 197 240 10
3 10 240 128
3 128 95 10
3 147 90 177
3 147 153 90
3 147 220 152
3 177 220 147
3 105 98 216
3 98 129 216
3 216 129 203
3 216 106 105
3 203 106 216
3 98 65 225
3 225 129 98
3 225 65 196
3 203 129 225
3 225 196 53
3 53 232 225
3 225 232 203
3 133 158 113
3 158 42 113
3 113 0 202
3 113 42 0
3 155 91 160
3 44 155 160
3 160 0 44
3 102 91 150
3 246 202 102
3 102 150 246
3 102 160 91
3 202 0 102
3 0 160 102
3 118 56 67
3 20 10 67
3 67 10 95
3 134 56 166
3 134 104 255
3 134 166 104
3 255 20 134
3 20 67 134
3 134 67 56
3 122 130 204
3 178 15 122
3 122 15 71
3 122 111 178
3 122 204 111
3 71 72 122
3 72 130 122
3 152 197 206
3 206 147 152
3 153 147 206
3 197 10 206
3 20 153 206
3 206 10 20
3 8 85 133
3 133 113 8
3 8 9 85
3 202 9 8
3 8 113 202
3 118 67 157
3 157 67 95
3 157 32 118
3 157 95 199
3 199 32 157