ply
format ascii 1.0
comment https://github.com/mikedh/trimesh
element vertex 256
property float x
property float y
property float z
element face 508
property list uchar int vertex_indices
end_header
-0.86969757 -2.28335595 0.46998239
0.33335829 4.10878706 0.14346795
-0.92107850 -0.92477691 -1.01139903
-0.06816892 0.81489390 2.27854085
0.42923176 0.66228980 2.09330058
-0.33449504 3.17018032 1.40527880
-0.82071990 -2.00038481 -0.98598009
0.37793809 0.76089036 -2.13118196
-0.70164651 -2.86724234 0.80434924
-0.60538363 -3.26846242 0.74279040
0.31322008 -4.11551523 -0.26192328
1.02897000 -0.76330829 0.27708736
0.23354302 2.23344517 -1.92629170
-0.10926733 1.89088023 2.07888389
0.83681405 2.27337384 -0.71293533
-0.71762341 1.53254247 1.49016678
-0.37178406 -3.31972790 1.25389707
0.15925884 4.06833267 -0.73027027
0.30549836 3.82308745 0.86965084
0.36325032 1.63909864 1.99748433
-0.01587449 -4.33625984 0.10325950
0.89538383 -2.10844064 0.46865368
0.94550437 -0.43331403 -0.99611735
0.60446632 2.17461276 1.50586343
-0.18370132 1.40980089 2.16206360
0.47601578 2.79528809 -1.43521345
-0.31488058 0.59382045 2.19640207
-0.88739485 2.14234591 0.49815321
-0.64702868 0.76666820 -1.78771269
0.29319444 3.12851143 -1.47629309
0.98458278 0.42544425 0.79153359
0.91397214 0.67936909 1.09482086
0.46735084 -3.54890370 0.85348737
0.78654706 -2.88440895 0.01619500
0.73625129 2.86957884 0.63060856
0.42952868 1.91278160 -1.85934353
0.31744733 -2.64357281 -1.70644021
0.41926947 -3.10019636 -1.33842659
0.64803708 -2.73653412 1.09957540
0.81235695 -0.15453053 -1.47690511
-0.53476101 2.20660782 1.61663401
0.18380325 -0.12706096 2.28790307
-0.88946342 -1.81201601 0.77901417
0.84657109 -1.89299119 0.93847728
-1.00225961 -1.08264005 0.41468212
0.87816536 2.35759735 -0.22180870
0.40884757 -0.25034821 2.13811517
0.56828880 3.60072184 0.33307579
0.49269781 -0.88629484 1.99851584
-0.79550111 2.84069538 -0.05183635
-0.68254983 1.94130898 -1.43206728
0.02968312 4.04417133 0.83993506
0.05589644 3.47360516 1.38888168
-0.34940803 -2.23316145 -1.83856308
0.50099659 0.15046336 2.04293513
-0.79962063 1.25900853 -1.35383904
0.20391348 -4.00991964 0.76813900
0.26070878 -3.48075747 -1.26331699
0.74483854 3.06308699 0.08621307
0.55215311 2.24904346 -1.57137513
0.33460578 4.00488949 0.50886077
0.68618500 -2.43466592 -1.18691695
0.53291792 1.51610231 -1.83318985
-0.24009709 -0.63932091 2.23813534
0.72856104 -2.90812111 0.62464321
-0.06219895 -1.30081868 -2.21401191
0.61618775 0.37363467 -1.87472856
0.26096830 -4.12519789 0.43450359
0.86833841 -1.13800728 -1.16487741
-0.29520357 3.18499970 -1.43855739
1.03388810 0.50508016 0.34673479
-0.93891996 1.19027400 0.83653480
-0.98028487 0.49592280 0.80654830
0.58225173 -0.23257281 -1.93339360
-0.47132826 -3.12442136 -1.23330820
-0.08179707 -3.31576467 -1.48868263
0.71773893 1.24470019 -1.56545329
0.72347516 -0.35858953 1.67843199
0.65103775 0.73830342 1.78332675
0.68949306 -0.18721770 -1.75414073
-0.60418248 3.55477834 0.00963528
-0.23451254 1.90781701 -2.02271557
0.95152539 1.64698017 0.46036378
0.19856581 -3.31548142 1.43412197
0.11516122 -0.37497908 -2.30221653
-0.53625596 -3.12449932 1.09734619
0.16302188 2.70456028 -1.78215647
-0.63453496 1.47575700 -1.67887735
0.30614385 0.93448508 2.16760898
-0.31687859 1.73163545 2.01376915
-0.43679205 -3.94902110 -0.00600162
-0.80364519 -2.78159380 -0.18666072
-0.17469631 2.33911681 1.92039537
-0.97508985 0.49119779 -0.83648652
-0.20700406 4.13006592 -0.54902065
0.42327663 -3.96676135 0.13140860
-0.36724544 -0.95160800 2.11849236
0.54164648 3.55733562 -0.58476621
-0.02590680 -0.32047412 -2.31767726
0.86400825 -0.21153575 1.32450020
0.75985372 2.92726135 -0.36344495
-0.56063241 3.62028766 0.33203563
-0.80612481 -2.75297141 0.24710400
0.03444236 -2.36001277 -1.94999218
-0.17401707 -3.78600812 1.06892693
-0.19753060 1.07539570 -2.20936131
-0.48902380 1.59093022 -1.87383866
-0.48687887 -1.69928098 1.84971189
0.60867822 2.67288399 -1.24423563
0.40989971 3.15912938 1.31199658
-0.22958587 -3.47431445 1.29807675
-0.51652145 -0.02637386 2.02579093
0.91408962 1.78100049 -0.64865565
-0.80296147 -2.28986120 0.86967111
0.73333484 -3.01507235 -0.41761664
0.36570829 1.46305645 -2.03495026
1.02103841 -0.46493253 -0.51001197
1.04538643 -0.43661207 -0.15481961
0.32943222 -3.81965351 0.82901818
-0.37484008 3.97065902 -0.44398618
-0.05735456 4.15883636 -0.65260750
-0.80913359 2.38985372 0.75729156
-0.76541781 0.84381473 1.53130770
-0.75958318 2.85044932 0.51021403
-0.02205606 1.39898384 2.20073485
-0.55001092 -3.31889081 -0.87695575
-1.01256359 -1.05401838 -0.29682344
-0.15300271 -2.59368110 -1.83267117
0.58393866 -3.48137045 -0.51283896
-0.31945923 0.01859722 -2.21553040
-0.85041904 -0.04602418 1.37160873
-0.89918679 2.25714898 0.02935256
0.83130556 0.62763077 1.38660109
-0.63617998 -2.12623405 1.46180344
0.05209387 -4.07558203 0.79028094
0.50056130 -2.29775882 1.63314915
-0.67190230 2.59460688 -1.12760520
-0.70122701 -2.30593228 -1.21729970
0.14507280 -2.89078593 -1.70415151
-0.38486987 3.99734759 0.31018776
-0.52715790 2.82344580 1.32747817
-0.85398829 1.81476355 -0.95041084
0.31394601 3.96569490 -0.64255333
0.71231765 2.93773508 -0.67482316
0.36810347 3.64450002 -0.96699113
0.01638669 4.27063990 0.41133675
-0.97953749 1.37919688 -0.42462805
-0.15210912 -4.15689993 -0.57602310
-0.83436978 0.19901526 -1.41432202
-1.04134536 0.15802614 0.33479688
-0.68630350 -3.23459172 -0.32502607
0.88955361 1.83078349 0.76498723
-0.05442680 -3.67949271 -1.22686815
-0.13120876 -4.27608013 -0.27638254
-0.96451765 1.07011938 -0.73425317
-0.94056916 -1.88442385 -0.27090746
0.55149251 -2.76241302 -1.31675231
0.40593866 -3.85987043 0.57073563
-0.72537601 -1.44506311 1.49727273
0.77356958 1.56037498 -1.33792305
-0.87778026 -2.39522338 0.04475962
-0.84785402 -0.81152070 1.30843616
0.06820507 0.80139047 2.28017282
-0.67653269 -2.88369274 -0.88686800
0.66235334 -3.35680127 -0.18158856
1.04857469 -0.12567556 0.19652165
0.17008075 -3.80717897 1.05109060
-1.00583100 -0.39227501 0.65416503
0.55248016 3.38346124 0.79650068
-0.49599800 -2.57560062 1.51748192
0.79817760 0.39939484 -1.50097096
0.83641714 -2.57188010 -0.31099933
0.12762007 3.63828087 -1.23707426
-0.56847537 3.28888893 -0.85179746
0.87475252 -1.09039509 1.15410340
-0.33664393 -1.78935969 1.98330700
0.01151276 2.52800298 1.88975096
-0.51732194 -3.60051107 -0.61784410
-0.38375080 1.16122019 2.07422662
0.54192501 3.32602382 -0.89364493
0.22530684 2.57593393 1.80428112
-0.96688902 1.48027968 0.46804905
-0.74015129 0.22648056 -1.64890993
-1.00942099 -0.65573007 -0.56007427
0.97252733 1.09609079 -0.66985321
0.35613689 -1.49847651 -2.03568530
-0.21637154 3.73072100 1.08759558
-0.09666784 -1.34850895 2.19991279
-0.71391004 2.95085955 -0.64906389
0.67076439 -2.06198096 1.41045260
0.67608613 2.70393300 1.03773177
0.04506014 2.50314879 -1.89639127
-0.71550775 2.00501752 1.32478499
0.91542530 -2.09160781 -0.25211024
-0.00272078 3.54695845 -1.34014976
0.67918432 -1.77775967 -1.49984336
-0.24414639 -1.91850448 -2.01426077
0.16476125 -3.92244720 -0.92539448
-0.03484982 2.97937369 -1.68895459
0.62207586 -3.38839293 0.47389144
-0.86058986 -2.17758346 -0.66045004
0.07276650 -2.04792571 2.04358459
-0.76102650 -2.82861304 0.53321767
-0.53745770 0.23257259 -1.99505937
-0.68374747 -0.04481400 1.76796591
-0.31283748 -2.50343394 1.76915622
-0.00311455 -4.12317944 -0.72599250
-1.03792751 0.29438481 -0.35985738
-0.28937656 -4.14274549 0.26514545
0.32184929 -3.06826496 1.48302126
0.97834462 -1.58863306 -0.12487041
1.00893700 1.13837433 0.26823941
0.13300788 0.55138445 -2.28779149
-0.95981491 -0.95329773 0.80785483
0.75228596 -1.14877021 1.50562656
0.48056832 2.37075615 1.63345551
-0.28405732 0.60987437 -2.21455240
0.84474760 1.69088066 -1.05269647
0.24130584 -0.80886120 -2.22091341
0.24699694 -2.08215189 1.96635151
-0.24907707 -3.36202621 -1.36310279
0.30105129 -0.97550488 2.16527343
-0.47280440 3.27735019 -1.11045241
-0.00328736 -2.80544567 1.77385890
0.91957170 2.08284783 0.19209217
-0.28891352 -1.09499991 -2.15719581
-0.34845880 3.89775681 0.67490089
-0.18247963 4.27265501 0.06152605
0.22621965 4.23175955 -0.12747817
0.50800061 -2.98971033 1.25693274
0.59022903 -0.47558299 1.90784442
-0.50821728 2.77696395 -1.38992226
-0.84665918 -0.81649828 -1.31124437
-0.48879045 3.80838251 -0.28077796
0.58588630 3.59469342 -0.15746227
0.05266152 1.88927913 2.08979559
0.43961313 -1.68418431 1.90994108
0.96649855 -0.91509295 -0.78245610
0.68129802 -3.02672338 -0.71662164
-0.08448058 3.12358356 1.60365236
0.46632531 -3.60235667 -0.78936434
-0.34615514 2.71608853 1.64415324
0.54232818 2.78829956 1.31902349
1.03023374 0.72854078 -0.28216788
0.94532531 -1.41216815 0.69022256
0.09489454 3.26482892 -1.51736760
-0.49184570 -3.72167492 0.50172126
0.04191271 -3.35669279 1.47056079
0.94964206 1.80694366 -0.26703319
0.20727994 4.07947540 0.64900327
-0.59807062 3.28823471 0.74675894
-0.25842476 2.69421983 -1.73136556
0.85907549 -2.13836169 -0.70379388
0.90441561 0.63961226 -1.14021134
-0.00810000 4.32218361 -0.20665364
-0.18758783 -4.10453701 0.63026220
3 135 229 189
3 110 247 223
3 223 247 83
3 30 31 99
3 209 229 135
3 209 223 83
3 38 189 229
3 64 43 38
3 38 43 189
3 94 194 69
3 149 181 146
3 80 233 188
3 146 181 131
3 146 131 141
3 141 131 188
3 110 223 205
3 237 68 22
3 172 144 29
3 198 86 191
3 191 251 198
3 69 194 198
3 198 251 69
3 51 226 186
3 23 78 132
3 99 31 132
3 19 78 23
3 165 30 11
3 23 190 242
3 159 76 59
3 59 108 159
3 248 184 112
3 243 184 248
3 211 243 248
3 248 224 211
3 211 224 82
3 82 30 211
3 34 224 58
3 234 47 58
3 58 47 34
3 21 43 64
3 174 30 99
3 135 189 236
3 46 48 230
3 227 94 119
3 167 149 44
3 44 213 167
3 49 80 188
3 188 131 49
3 136 141 188
3 182 55 28
3 148 55 182
3 250 226 101
3 180 109 52
3 186 239 52
3 52 51 186
3 72 149 167
3 181 149 72
3 72 71 181
3 121 140 250
3 107 158 133
3 96 107 175
3 175 107 205
3 68 237 252
3 252 61 68
3 68 61 195
3 61 156 195
3 245 198 194
3 86 198 245
3 245 194 172
3 172 29 245
3 245 29 86
3 59 76 62
3 191 86 12
3 86 29 12
3 81 251 191
3 191 105 81
3 212 105 191
3 191 12 212
3 203 182 28
3 17 144 172
3 60 47 1
3 1 47 234
3 168 190 34
3 34 47 168
3 109 242 168
3 168 242 190
3 168 47 60
3 227 226 145
3 226 51 145
3 145 1 228
3 109 168 18
3 18 168 60
3 18 52 109
3 51 52 18
3 180 19 215
3 215 19 23
3 23 242 215
3 215 109 180
3 215 242 109
3 78 19 4
3 4 41 46
3 70 243 211
3 70 165 243
3 211 30 70
3 30 165 70
3 116 237 22
3 22 184 116
3 116 184 243
3 25 29 144
3 25 108 59
3 25 12 29
3 217 108 14
3 217 159 108
3 217 14 112
3 112 184 217
3 253 184 22
3 253 217 184
3 159 217 253
3 112 14 45
3 45 248 112
3 224 248 45
3 45 58 224
3 151 224 34
3 151 82 224
3 34 190 151
3 151 190 23
3 31 30 151
3 30 82 151
3 23 132 151
3 151 132 31
3 210 252 237
3 237 116 210
3 43 21 244
3 244 174 43
3 244 210 11
3 21 210 244
3 11 30 244
3 30 174 244
3 214 236 189
3 48 236 214
3 214 230 48
3 189 43 214
3 43 174 214
3 214 174 99
3 201 205 223
3 201 175 205
3 221 236 48
3 46 41 221
3 221 48 46
3 78 230 77
3 99 132 77
3 77 132 78
3 77 214 99
3 230 214 77
3 222 94 69
3 222 119 94
3 69 251 231
3 231 222 69
3 136 222 231
3 141 136 50
3 50 55 141
3 136 231 50
3 93 55 148
3 148 2 93
3 93 2 183
3 16 85 246
3 110 205 16
3 220 75 152
3 233 80 139
3 80 101 139
3 227 119 139
3 139 119 233
3 139 226 227
3 139 101 226
3 180 52 176
3 176 52 239
3 63 41 3
3 3 26 63
3 89 13 92
3 92 241 89
3 13 176 92
3 239 241 92
3 92 176 239
3 5 239 186
3 5 241 239
3 140 241 5
3 186 226 5
3 5 226 250
3 250 140 5
3 40 178 89
3 40 15 178
3 89 241 40
3 40 241 140
3 181 71 27
3 71 121 27
3 27 131 181
3 140 121 192
3 192 40 140
3 15 40 192
3 71 15 192
3 192 121 71
3 33 21 64
3 37 156 240
3 61 252 238
3 128 240 238
3 238 156 61
3 238 240 156
3 127 220 53
3 75 220 127
3 53 196 127
3 196 103 127
3 127 138 75
3 103 138 127
3 106 81 105
3 106 203 28
3 106 50 231
3 251 81 106
3 106 231 251
3 84 7 218
3 84 212 7
3 7 212 115
3 115 212 12
3 115 62 7
3 228 17 254
3 254 94 227
3 227 145 254
3 254 145 228
3 249 18 60
3 51 18 249
3 249 145 51
3 60 1 249
3 1 145 249
3 54 230 78
3 78 4 54
3 46 230 54
3 54 4 46
3 243 165 117
3 117 116 243
3 117 165 11
3 11 210 117
3 117 210 116
3 179 25 144
3 108 25 179
3 144 97 179
3 35 25 59
3 12 25 35
3 35 115 12
3 59 62 35
3 62 115 35
3 142 17 228
3 234 97 142
3 144 17 142
3 142 97 144
3 142 1 234
3 228 1 142
3 234 58 100
3 58 45 100
3 100 97 234
3 100 45 14
3 193 210 21
3 193 33 171
3 21 33 193
3 171 252 193
3 252 210 193
3 187 41 63
3 175 201 187
3 187 221 41
3 201 221 187
3 63 96 187
3 96 175 187
3 236 221 219
3 219 221 201
3 219 209 135
3 135 236 219
3 223 209 219
3 219 201 223
3 173 136 188
3 173 222 136
3 188 233 173
3 233 119 173
3 119 222 173
3 148 182 232
3 232 2 148
3 6 2 232
3 182 203 232
3 126 155 44
3 126 44 149
3 183 2 126
3 207 93 183
3 207 126 149
3 183 126 207
3 207 149 146
3 141 55 154
3 55 93 154
3 146 141 154
3 154 207 146
3 93 207 154
3 246 255 104
3 104 16 246
3 110 16 104
3 104 247 110
3 133 85 169
3 85 16 169
3 169 16 205
3 169 107 133
3 205 107 169
3 208 255 246
3 246 90 208
3 235 176 13
3 235 19 180
3 180 176 235
3 124 235 13
3 178 26 24
3 26 3 24
3 89 178 24
3 3 124 24
3 24 13 89
3 24 124 13
3 111 107 96
3 111 96 63
3 63 26 111
3 111 26 178
3 123 27 121
3 123 121 250
3 123 49 131
3 131 27 123
3 250 101 123
3 80 49 123
3 123 101 80
3 255 208 20
3 199 33 64
3 164 33 199
3 37 240 57
3 57 240 197
3 57 197 152
3 152 75 57
3 75 138 57
3 114 252 171
3 114 238 252
3 171 33 114
3 114 33 164
3 114 164 128
3 128 238 114
3 36 195 156
3 36 185 195
3 36 156 37
3 37 57 36
3 36 57 138
3 103 185 36
3 36 138 103
3 66 62 76
3 7 62 66
3 76 159 170
3 159 253 170
3 170 66 76
3 79 66 170
3 87 106 28
3 50 106 87
3 28 55 87
3 55 50 87
3 105 212 98
3 212 84 98
3 94 254 120
3 120 254 17
3 194 94 120
3 172 194 120
3 120 17 172
3 143 179 97
3 97 100 143
3 143 100 14
3 14 108 143
3 108 179 143
3 200 126 2
3 155 126 200
3 200 2 6
3 6 163 200
3 53 220 74
3 246 85 9
3 9 202 246
3 177 90 150
3 150 90 246
3 247 104 166
3 83 247 166
3 166 209 83
3 166 118 209
3 88 4 19
3 19 235 88
3 41 4 88
3 204 161 158
3 158 107 204
3 107 111 204
3 128 164 95
3 164 199 95
3 153 208 90
3 153 20 208
3 229 209 32
3 209 118 32
3 32 38 229
3 64 38 32
3 32 199 64
3 73 66 79
3 73 185 218
3 218 7 73
3 7 66 73
3 195 185 73
3 73 79 195
3 79 170 39
3 68 195 39
3 195 79 39
3 22 68 39
3 39 253 22
3 39 170 253
3 65 103 196
3 218 185 65
3 65 185 103
3 65 84 218
3 65 98 84
3 163 74 125
3 177 150 125
3 125 150 163
3 125 220 177
3 125 74 220
3 53 74 137
3 137 232 53
3 6 232 137
3 137 163 6
3 137 74 163
3 213 44 42
3 44 0 42
3 42 161 213
3 158 161 42
3 155 200 91
3 91 200 163
3 163 150 91
3 118 166 56
3 162 124 3
3 162 3 41
3 41 88 162
3 235 124 162
3 162 88 235
3 161 204 130
3 130 72 167
3 167 213 130
3 213 161 130
3 197 240 10
3 10 240 128
3 128 95 10
3 147 90 177
3 147 153 90
3 147 220 152
3 177 220 147
3 105 98 216
3 98 129 216
3 216 129 203
3 216 106 105
3 203 106 216
3 98 65 225
3 225 129 98
3 225 65 196
3 203 129 225
3 225 196 53
3 53 232 225
3 225 232 203
3 133 158 113
3 158 42 113
3 113 0 202
3 113 42 0
3 155 91 160
3 44 155 160
3 160 0 44
3 102 91 150
3 246 202 102
3 102 150 246
3 102 160 91
3 202 0 102
3 0 160 102
3 118 56 67
3 20 10 67
3 67 10 95
3 134 56 166
3 134 104 255
3 134 166 104
3 255 20 134
3 20 67 134
3 134 67 56
3 122 130 204
3 178 15 122
3 122 15 71
3 122 111 178
3 122 204 111
3 71 72 122
3 72 130 122
3 152 197 206
3 206 147 152
3 153 147 206
3 197 10 206
3 20 153 206
3 206 10 20
3 8 85 133
3 133 113 8
3 8 9 85
3 202 9 8
3 8 113 202
3 118 67 157
3 157 67 95
3 157 32 118
3 157 95 199
3 199 32 157