ply
format ascii 1.0
comment https://github.com/mikedh/trimesh
element vertex 256
property float x
property float y
property float z
element face 508
property list uchar int vertex_indices
end_header
-3.46574926 -2.10261273 0.50677866
1.32843435 3.78354836 0.15470047
-3.67050242 -0.85157448 -1.09058440
-0.27165350 0.75038946 2.45693469
1.71049070 0.60986501 2.25719118
-1.33296430 2.91923881 1.51530218
-3.27057290 -1.84204066 -1.06317532
1.50608516 0.70066071 -2.29803848
-2.79606462 -2.64028049 0.86732411
-2.41245675 -3.00974131 0.80094558
1.24818349 -3.78974414 -0.28243002
4.10045052 -0.70288718 0.29878134
0.93067008 2.05665255 -2.07710671
-0.43543085 1.74120402 2.24164581
3.33470798 2.09342051 -0.76875311
-2.85973287 1.41123116 1.60683620
-1.48156130 -3.05694866 1.35206831
0.63464725 3.74629641 -0.78744525
1.21741247 3.52046394 0.93773836
1.44755435 1.50935280 2.15387321
-0.06325991 -3.99301505 0.11134399
3.56810904 -1.94154310 0.50534594
3.76783967 -0.39901426 -1.07410622
2.40880132 2.00247741 1.62376189
-0.73205066 1.29820549 2.33133793
1.89692521 2.57402205 -1.54758048
-1.25480068 0.54681551 2.36836481
-3.53627300 1.97276461 0.53715509
-2.57841253 0.70598119 -1.92767799
1.16838121 2.88086820 -1.59187639
3.92356706 0.39176741 0.85350507
3.64218354 0.62559241 1.18053758
1.86239541 -3.26798344 0.92030942
3.13439369 -2.65608811 0.01746295
2.93396497 2.64243197 0.67998075
1.71167386 1.76137185 -2.00491691
1.26502919 -2.43431592 -1.84004235
1.67079091 -2.85479474 -1.44321585
2.58243084 -2.51991868 1.18566442
3.23724627 -0.14229839 -1.59253633
-2.13102508 2.03193974 1.74320507
0.73245686 -0.11700322 2.46702981
-3.54451609 -1.66858256 0.84000546
3.37358975 -1.74314797 1.01195347
-3.99400949 -0.99694169 0.44714880
3.49949312 2.17097735 -0.23917475
1.62925959 -0.23053144 2.30551457
2.26463366 3.31569982 0.35915327
1.96340311 -0.81613851 2.15498543
-3.17007565 2.61583495 -0.05589477
-2.71996450 1.78764105 -1.54418790
0.11828738 3.72404742 0.90569603
0.22274761 3.19864535 1.49762130
-1.39239275 -2.05639124 -1.98250949
1.99647391 0.13855316 2.20288253
-3.18649220 1.15934932 -1.45983505
0.81259626 -3.69250703 0.82827884
1.03892577 -3.20523167 -1.36222577
2.96818519 2.82062268 0.09296294
2.20033288 2.07101631 -1.69440269
1.33340573 3.68787503 0.54870093
2.73445058 -2.24194527 -1.27984416
2.12368059 1.39609241 -1.97671568
-0.95678806 -0.58871430 2.41336536
2.90331936 -2.67792344 0.67354834
-0.24786313 -1.19784999 -2.38735342
2.45551109 0.34405890 -2.02150655
1.03995991 -3.79866028 0.46852213
3.46033287 -1.04792619 -1.25607908
-1.17638767 2.93288517 -1.55118620
4.12004948 0.46509960 0.37388167
-3.74160075 1.09605563 0.90202951
-3.90644002 0.45666713 0.86969537
2.32027578 -0.21416308 -2.08476472
-1.87824535 -2.87710190 -1.32986748
-0.32596174 -3.05329919 -1.60523593
2.86019325 1.14617360 -1.68801725
2.88305187 -0.33020473 1.80984139
2.59438872 0.67986166 1.92294860
2.74763322 -0.17239814 -1.89147758
-2.40767002 3.27339339 0.01038966
-0.93453360 1.75680029 -2.18107986
3.79183316 1.51661050 0.49640700
0.79128569 -3.05303836 1.54640353
0.45891801 -0.34529692 -2.48246360
-2.13698244 -2.87717390 1.18326068
0.64964300 2.49047589 -1.92168677
-2.52862501 1.35894072 -1.81032157
1.21998477 0.86051416 2.33731723
-1.26276267 1.59456468 2.17143297
-1.74061847 -3.63642907 -0.00647150
-3.20252991 -2.56141138 -0.20127495
-0.69616562 2.15395975 2.07074857
-3.88573766 0.45231614 -0.90197748
-0.82491213 3.80314279 -0.59200507
1.68675947 -3.65276504 0.14169696
-1.46347487 -0.87628168 2.28435516
2.15846395 3.27574801 -0.63054925
-0.10323870 -0.29510641 -2.49913478
3.44307709 -0.19479124 1.42819929
3.02802086 2.69554853 -0.39190012
-2.23412275 3.33371711 0.35803169
-3.21241117 -2.53505492 0.26645049
0.13725297 -2.17320156 -2.10266280
-0.69345891 -3.48631978 1.15261638
-0.78716040 0.99027073 -2.38233852
-1.94876218 1.46499717 -2.02054691
-1.94021463 -1.56477118 1.99453127
2.42558575 2.46130681 -1.34165049
1.63345230 2.90906262 1.41471672
-0.91490078 -3.19929862 1.39970696
-2.05834055 -0.02428618 2.18439579
3.64265156 1.64002204 -0.69944078
-3.19980526 -2.10860300 0.93776023
2.92234302 -2.77640867 -0.45031309
1.45734942 1.34724557 -2.19427228
4.06884289 -0.42812994 -0.54994231
4.16586971 -0.40205121 -0.16694088
1.31278908 -3.51730180 0.89392442
-1.49373960 3.65635395 -0.47874716
-0.22855820 3.82963586 -0.70370203
-3.22440124 2.20068026 0.81658208
-3.05019379 0.77702099 1.65119827
-3.02694273 2.62481689 0.55016017
-0.08789352 1.28824472 2.37303686
-2.19179606 -3.05617785 -0.94561517
-4.03507090 -0.97058564 -0.32006261
-0.60971653 -2.38837361 -1.97615635
2.32699847 -3.20579600 -0.55299062
-1.27304661 0.01712512 -2.38899088
-3.38892388 -0.04238105 1.47899592
-3.58326364 2.07848024 0.03165065
3.31275654 0.57794952 1.49516213
-2.53518033 -1.95792794 1.57625222
0.20759434 -3.75297189 0.85215437
1.99473917 -2.11587548 1.76101315
-2.67753386 2.38922596 -1.21588862
-2.79439306 -2.12340212 -1.31260562
0.57811582 -2.66196036 -1.83757460
-1.53370833 3.68093014 0.33447328
-2.10072684 2.59995055 1.43141031
-3.40314746 1.67111254 -1.02482128
1.25107634 3.65178299 -0.69286066
2.83858943 2.70519328 -0.72765702
1.46689415 3.35601282 -1.04269969
0.06530105 3.93258929 0.44354153
-3.90346169 1.27002406 -0.45787340
-0.60615557 -3.82785296 -0.62112159
-3.32496762 0.18326184 -1.52505350
-4.14976645 0.14551729 0.36100909
-2.73492289 -2.97855163 -0.35047331
3.54487562 1.68586445 0.82488030
-0.21689105 -3.38823581 -1.32292330
-0.52286756 -3.93759894 -0.29802135
-3.84360743 0.98541212 -0.79174000
-3.74817276 -1.73525870 -0.29211760
2.19770050 -2.54374909 -1.41984475
1.61766756 -3.55433512 0.61542022
-2.89062691 -1.33067644 1.61449850
3.08267856 1.43686056 -1.44267297
-3.49795866 -2.20562506 0.04826398
-3.37870240 -0.74728328 1.41087747
0.27179757 0.73795491 2.45869422
-2.69598603 -2.65542865 -0.95630348
2.63948131 -3.09108758 -0.19580565
4.17857552 -0.11572748 0.21190791
0.67777264 -3.50581455 1.13338351
-4.00824118 -0.36122376 0.70538151
2.20163608 3.11563706 0.85886103
-1.97655451 -2.37172413 1.63628995
3.18074155 0.36778000 -1.61848629
3.33312631 -2.36829805 -0.33534837
0.50856656 3.35028601 -1.33392847
-2.26537704 3.02855086 -0.91848719
3.48589301 -1.00408280 1.24446154
-1.34152770 -1.64771962 2.13858581
0.04587840 2.32789421 2.03770518
-2.06153059 -3.31550598 -0.66621691
-1.52924871 1.06930172 2.23662400
2.15957379 3.06274629 -0.96361101
0.89784884 2.37203097 1.94554365
-3.85305762 1.36310542 0.50469398
-2.94950628 0.20855306 -1.77800786
-4.02254772 -0.60382456 -0.60392410
3.87552619 1.00932765 -0.72229797
1.41920722 -1.37986183 -2.19506502
-0.86224163 3.43540883 1.17274654
-0.38522184 -1.24176514 2.37215018
-2.84493494 2.71727872 -0.69988102
2.67299938 -1.89876115 1.52088106
2.69420648 2.48989820 1.11897874
0.17956489 2.30500746 -2.04486537
-2.85130191 1.84630668 1.42850637
3.64797425 -1.92604268 -0.27184868
-0.01084231 3.26619244 -1.44507408
2.70655274 -1.63703775 -1.61727059
-0.97292459 -1.76664174 -2.17196321
0.65657437 -3.61195850 -0.99784631
-0.13887671 2.74353576 -1.82118785
2.47897530 -3.12017846 0.51099378
-3.42945480 -2.00521278 -0.71215862
0.28997484 -1.88581836 2.20358276
-3.03269434 -2.60470891 0.57496482
-2.14177155 0.21416287 -2.15125847
-2.72473693 -0.04126667 1.90638506
-1.24665892 -2.30526996 1.90766871
-0.01241150 -3.79680157 -0.78283256
-4.13614607 0.27108225 -0.38803169
-1.15316701 -3.81481886 0.28590444
1.28257096 -2.82539082 1.59913123
3.89870811 -1.46288180 -0.13464688
4.02061892 1.04826427 0.28924066
0.53003711 0.50773859 -2.46690941
-3.82486725 -0.87783766 0.87110412
2.99786329 -1.05783713 1.62350643
1.91506708 2.18309450 1.76134348
-1.13196981 0.56159866 -2.38793612
3.36632323 1.55703592 -1.13511515
0.96160495 -0.74483430 -2.39479542
0.98428398 -1.91733515 2.12030292
-0.99257332 -3.09589887 -1.46982408
1.19969082 -0.89828694 2.33479905
-1.88412786 3.01792550 -1.19739294
-0.01310015 -2.58337545 1.91273952
3.66449761 1.91797614 0.20713162
-1.15132177 -1.00832319 -2.32608891
-1.38861001 3.58922267 0.72774088
-0.72718221 3.93444514 0.06634310
0.90148640 3.89678669 -0.13745882
2.02438498 -2.75305414 1.35534167
2.35206556 -0.43793735 2.05721521
-2.02524829 2.55714822 -1.49874330
-3.37394118 -0.75186688 -1.41390550
-1.94783235 3.50692296 -0.30276087
2.33475971 3.31014872 -0.16979045
0.20985641 1.73972976 2.25341177
1.75186050 -1.55086958 2.05947590
3.85150146 -0.84265709 -0.84371686
2.71497607 -2.78713751 -0.77272809
-0.33665553 2.87633061 1.72920704
1.85830855 -3.31720543 -0.85116601
-1.37942994 2.50109148 1.77287877
2.16118026 2.56758642 1.42229366
4.10548639 0.67087179 -0.30425963
3.76712584 -1.30038536 0.74426210
0.37815523 3.00639534 -1.63616681
-1.96000743 -3.42707896 0.54100251
0.16702236 -3.09098768 1.58569539
3.78432822 1.66391158 -0.28794000
0.82601154 3.75655699 0.69981563
-2.38331413 3.02794838 0.80522490
-1.02982390 2.48095369 -1.86691928
3.42341995 -1.96909583 -0.75889599
3.60410070 0.58898252 -1.22948182
-0.03227854 3.98005319 -0.22283316
-0.74753839 -3.77963471 0.67960727
3 135 229 189
3 110 247 223
3 223 247 83
3 30 31 99
3 209 229 135
3 209 223 83
3 38 189 229
3 64 43 38
3 38 43 189
3 94 194 69
3 149 181 146
3 80 233 188
3 146 181 131
3 146 131 141
3 141 131 188
3 110 223 205
3 237 68 22
3 172 144 29
3 198 86 191
3 191 251 198
3 69 194 198
3 198 251 69
3 51 226 186
3 23 78 132
3 99 31 132
3 19 78 23
3 165 30 11
3 23 190 242
3 159 76 59
3 59 108 159
3 248 184 112
3 243 184 248
3 211 243 248
3 248 224 211
3 211 224 82
3 82 30 211
3 34 224 58
3 234 47 58
3 58 47 34
3 21 43 64
3 174 30 99
3 135 189 236
3 46 48 230
3 227 94 119
3 167 149 44
3 44 213 167
3 49 80 188
3 188 131 49
3 136 141 188
3 182 55 28
3 148 55 182
3 250 226 101
3 180 109 52
3 186 239 52
3 52 51 186
3 72 149 167
3 181 149 72
3 72 71 181
3 121 140 250
3 107 158 133
3 96 107 175
3 175 107 205
3 68 237 252
3 252 61 68
3 68 61 195
3 61 156 195
3 245 198 194
3 86 198 245
3 245 194 172
3 172 29 245
3 245 29 86
3 59 76 62
3 191 86 12
3 86 29 12
3 81 251 191
3 191 105 81
3 212 105 191
3 191 12 212
3 203 182 28
3 17 144 172
3 60 47 1
3 1 47 234
3 168 190 34
3 34 47 168
3 109 242 168
3 168 242 190
3 168 47 60
3 227 226 145
3 226 51 145
3 145 1 228
3 109 168 18
3 18 168 60
3 18 52 109
3 51 52 18
3 180 19 215
3 215 19 23
3 23 242 215
3 215 109 180
3 215 242 109
3 78 19 4
3 4 41 46
3 70 243 211
3 70 165 243
3 211 30 70
3 30 165 70
3 116 237 22
3 22 184 116
3 116 184 243
3 25 29 144
3 25 108 59
3 25 12 29
3 217 108 14
3 217 159 108
3 217 14 112
3 112 184 217
3 253 184 22
3 253 217 184
3 159 217 253
3 112 14 45
3 45 248 112
3 224 248 45
3 45 58 224
3 151 224 34
3 151 82 224
3 34 190 151
3 151 190 23
3 31 30 151
3 30 82 151
3 23 132 151
3 151 132 31
3 210 252 237
3 237 116 210
3 43 21 244
3 244 174 43
3 244 210 11
3 21 210 244
3 11 30 244
3 30 174 244
3 214 236 189
3 48 236 214
3 214 230 48
3 189 43 214
3 43 174 214
3 214 174 99
3 201 205 223
3 201 175 205
3 221 236 48
3 46 41 221
3 221 48 46
3 78 230 77
3 99 132 77
3 77 132 78
3 77 214 99
3 230 214 77
3 222 94 69
3 222 119 94
3 69 251 231
3 231 222 69
3 136 222 231
3 141 136 50
3 50 55 141
3 136 231 50
3 93 55 148
3 148 2 93
3 93 2 183
3 16 85 246
3 110 205 16
3 220 75 152
3 233 80 139
3 80 101 139
3 227 119 139
3 139 119 233
3 139 226 227
3 139 101 226
3 180 52 176
3 176 52 239
3 63 41 3
3 3 26 63
3 89 13 92
3 92 241 89
3 13 176 92
3 239 241 92
3 92 176 239
3 5 239 186
3 5 241 239
3 140 241 5
3 186 226 5
3 5 226 250
3 250 140 5
3 40 178 89
3 40 15 178
3 89 241 40
3 40 241 140
3 181 71 27
3 71 121 27
3 27 131 181
3 140 121 192
3 192 40 140
3 15 40 192
3 71 15 192
3 192 121 71
3 33 21 64
3 37 156 240
3 61 252 238
3 128 240 238
3 238 156 61
3 238 240 156
3 127 220 53
3 75 220 127
3 53 196 127
3 196 103 127
3 127 138 75
3 103 138 127
3 106 81 105
3 106 203 28
3 106 50 231
3 251 81 106
3 106 231 251
3 84 7 218
3 84 212 7
3 7 212 115
3 115 212 12
3 115 62 7
3 228 17 254
3 254 94 227
3 227 145 254
3 254 145 228
3 249 18 60
3 51 18 249
3 249 145 51
3 60 1 249
3 1 145 249
3 54 230 78
3 78 4 54
3 46 230 54
3 54 4 46
3 243 165 117
3 117 116 243
3 117 165 11
3 11 210 117
3 117 210 116
3 179 25 144
3 108 25 179
3 144 97 179
3 35 25 59
3 12 25 35
3 35 115 12
3 59 62 35
3 62 115 35
3 142 17 228
3 234 97 142
3 144 17 142
3 142 97 144
3 142 1 234
3 228 1 142
3 234 58 100
3 58 45 100
3 100 97 234
3 100 45 14
3 193 210 21
3 193 33 171
3 21 33 193
3 171 252 193
3 252 210 193
3 187 41 63
3 175 201 187
3 187 221 41
3 201 221 187
3 63 96 187
3 96 175 187
3 236 221 219
3 219 221 201
3 219 209 135
3 135 236 219
3 223 209 219
3 219 201 223
3 173 136 188
3 173 222 136
3 188 233 173
3 233 119 173
3 119 222 173
3 148 182 232
3 232 2 148
3 6 2 232
3 182 203 232
3 126 155 44
3 126 44 149
3 183 2 126
3 207 93 183
3 207 126 149
3 183 126 207
3 207 149 146
3 141 55 154
3 55 93 154
3 146 141 154
3 154 207 146
3 93 207 154
3 246 255 104
3 104 16 246
3 110 16 104
3 104 247 110
3 133 85 169
3 85 16 169
3 169 16 205
3 169 107 133
3 205 107 169
3 208 255 246
3 246 90 208
3 235 176 13
3 235 19 180
3 180 176 235
3 124 235 13
3 178 26 24
3 26 3 24
3 89 178 24
3 3 124 24
3 24 13 89
3 24 124 13
3 111 107 96
3 111 96 63
3 63 26 111
3 111 26 178
3 123 27 121
3 123 121 250
3 123 49 131
3 131 27 123
3 250 101 123
3 80 49 123
3 123 101 80
3 255 208 20
3 199 33 64
3 164 33 199
3 37 240 57
3 57 240 197
3 57 197 152
3 152 75 57
3 75 138 57
3 114 252 171
3 114 238 252
3 171 33 114
3 114 33 164
3 114 164 128
3 128 238 114
3 36 195 156
3 36 185 195
3 36 156 37
3 37 57 36
3 36 57 138
3 103 185 36
3 36 138 103
3 66 62 76
3 7 62 66
3 76 159 170
3 159 253 170
3 170 66 76
3 79 66 170
3 87 106 28
3 50 106 87
3 28 55 87
3 55 50 87
3 105 212 98
3 212 84 98
3 94 254 120
3 120 254 17
3 194 94 120
3 172 194 120
3 120 17 172
3 143 179 97
3 97 100 143
3 143 100 14
3 14 108 143
3 108 179 143
3 200 126 2
3 155 126 200
3 200 2 6
3 6 163 200
3 53 220 74
3 246 85 9
3 9 202 246
3 177 90 150
3 150 90 246
3 247 104 166
3 83 247 166
3 166 209 83
3 166 118 209
3 88 4 19
3 19 235 88
3 41 4 88
3 204 161 158
3 158 107 204
3 107 111 204
3 128 164 95
3 164 199 95
3 153 208 90
3 153 20 208
3 229 209 32
3 209 118 32
3 32 38 229
3 64 38 32
3 32 199 64
3 73 66 79
3 73 185 218
3 218 7 73
3 7 66 73
3 195 185 73
3 73 79 195
3 79 170 39
3 68 195 39
3 195 79 39
3 22 68 39
3 39 253 22
3 39 170 253
3 65 103 196
3 218 185 65
3 65 185 103
3 65 84 218
3 65 98 84
3 163 74 125
3 177 150 125
3 125 150 163
3 125 220 177
3 125 74 220
3 53 74 137
3 137 232 53
3 6 232 137
3 137 163 6
3 137 74 163
3 213 44 42
3 44 0 42
3 42 161 213
3 158 161 42
3 155 200 91
3 91 200 163
3 163 150 91
3 118 166 56
3 162 124 3
3 162 3 41
3 41 88 162
3 235 124 162
3 162 88 235
3 161 204 130
3 130 72 167
3 167 213 130
3 213 161 130
3 197 240 10
3 10 240 128
3 128 95 10
3 147 90 177
3 147 153 90
3 147 220 152
3 177 220 147
3 105 98 216
3 98 129 216
3 216 129 203
3 216 106 105
3 203 106 216
3 98 65 225
3 225 129 98
3 225 65 196
3 203 129 225
3 225 196 53
3 53 232 225
3 225 232 203
3 133 158 113
3 158 42 113
3 113 0 202
3 113 42 0
3 155 91 160
3 44 155 160
3 160 0 44
3 102 91 150
3 246 202 102
3 102 150 246
3 102 160 91
3 202 0 102
3 0 160 102
3 118 56 67
3 20 10 67
3 67 10 95
3 134 56 166
3 134 104 255
3 134 166 104
3 255 20 134
3 20 67 134
3 134 67 56
3 122 130 204
3 178 15 122
3 122 15 71
3 122 111 178
3 122 204 111
3 71 72 122
3 72 130 122
3 152 197 206
3 206 147 152
3 153 147 206
3 197 10 206
3 20 153 206
3 206 10 20
3 8 85 133
3 133 113 8
3 8 9 85
3 202 9 8
3 8 113 202
3 118 67 157
3 157 67 95
3 157 32 118
3 157 95 199
3 199 32 157