ply
format ascii 1.0
comment https://github.com/mikedh/trimesh
element vertex 256
property float x
property float y
property float z
element face 508
property list uchar int vertex_indices
end_header
-1.61445296 -1.34612823 0.31996724
0.61882573 2.42229176 0.09767397
-1.70983326 -0.54519236 -0.68856740
-0.12654458 0.48041204 1.55124629
0.79679936 0.39044589 1.42513335
-0.62093592 1.86894608 0.95672351
-1.52353370 -1.17930567 -0.67126203
0.70158094 0.44857484 -1.45092332
-1.30249321 -1.69035220 0.54760647
-1.12379682 -1.92688727 0.50569677
0.58144242 -2.42625833 -0.17831917
1.91011643 -0.45000026 0.18864298
0.43353486 1.31670380 -1.31143260
-0.20283712 1.11474824 1.41531837
1.55340993 1.34024334 -0.48537126
-1.33215177 0.90349406 1.01451576
-0.69015700 -1.95711029 0.85366172
0.29563829 2.39844227 -0.49717301
0.56710827 2.25386047 0.59206426
0.67431545 0.96631318 1.35990095
-0.02946842 -2.55639577 0.07029977
1.66213524 -1.24300873 0.31906265
1.75517595 -0.25545567 -0.67816353
1.12209392 1.28201985 1.02520216
-0.34101179 0.83113313 1.47194779
0.88364631 1.64793241 -0.97710317
-0.58452487 0.35008055 1.49532557
-1.64730501 1.26299727 0.33914614
-1.20110404 0.45198107 -1.21708703
0.54426807 1.84438062 -1.00507045
1.82771862 0.25081614 0.53888148
1.69664145 0.40051484 0.74536151
0.86756122 -2.09221840 0.58106005
1.46009731 -1.70047247 0.01102566
1.36673141 1.69172966 0.42932263
0.79735047 1.12766004 -1.26585388
0.58928967 -1.55849028 -1.16175616
0.77830595 -1.82768786 -0.91121000
1.20297599 -1.61329460 0.74859852
1.50800920 -0.09110183 -1.00548720
-0.99269730 1.30088222 1.10061550
0.34120101 -0.07490744 1.55762017
-1.65114486 -1.06825471 0.53035820
1.57152224 -1.11599278 0.63892180
-1.86053288 -0.63825893 0.28231844
1.63017190 1.38989639 -0.15100889
0.75895935 -0.14759013 1.45564353
1.05493629 2.12276721 0.22676028
0.91461378 -0.52250570 1.36060333
-1.47671914 1.67470181 -0.03529054
-1.26704335 1.14447796 -0.97496122
0.05510191 2.38419819 0.57183355
0.10376271 2.04782677 0.94556016
-0.64861947 -1.31653655 -1.25170636
0.93001914 0.08870407 1.39084423
-1.48436642 0.74223506 -0.92170286
0.37853241 -2.36400557 0.52295429
0.48396370 -2.05204344 -0.86007488
1.38267219 1.80581033 0.05869445
1.02498293 1.32589972 -1.06980300
0.62114155 2.36104012 0.34643590
1.27379143 -1.43533134 -0.80806118
0.98927593 0.89380199 -1.24804819
-0.44570142 -0.37690485 1.52373791
1.35245574 -1.71445179 0.42526138
-0.11546230 -0.76688385 -1.50731444
1.14385283 0.22027233 -1.27632809
0.48444539 -2.43196654 0.29581302
1.61192989 -0.67090011 -0.79305655
-0.54799771 1.87768269 -0.97937977
1.91924608 0.29776463 0.23605941
-1.74295306 0.70171332 0.56951863
-1.81974030 0.29236600 0.54910362
1.08085608 -0.13711083 -1.31626761
-0.87494463 -1.84196937 -0.83964473
-0.15184304 -1.95477378 -1.01350534
1.33236623 0.73379970 -1.06577134
1.34301460 -0.21140264 1.14268804
1.20854628 0.43525892 1.21410108
1.27993238 -0.11037220 -1.19423103
-1.12156701 2.09568167 0.00655977
-0.43533459 1.12473321 -1.37707865
1.76635289 0.97095966 0.31341884
0.36860529 -1.95460677 0.97636008
0.21377817 -0.22106493 -1.56736481
-0.99547237 -1.84201539 0.74708086
0.30262375 1.59444475 -1.21330440
-1.17791152 0.87001687 -1.14299119
0.56830651 0.55091572 1.47572303
-0.58823383 1.02086723 1.37098777
-0.81083375 -2.32810330 -0.00408594
-1.49183726 -1.63985896 -0.12707990
-0.32429543 1.37900138 1.30741835
-1.81009650 0.28958043 -0.56948578
-0.38426954 2.43483639 -0.37377700
0.78574461 -2.33856177 0.08946387
-0.68173176 -0.56101036 1.44228411
1.00547910 2.09718919 -0.39811283
-0.04809177 -0.18893211 -1.57789052
1.60389161 -0.12470865 0.90172887
1.41054559 1.72573578 -0.24743582
-1.04072332 2.13430214 0.22605215
-1.49644029 -1.62298501 0.16823010
0.06393667 -1.39132047 -1.32756805
-0.32303455 -2.23200083 0.72773278
-0.36668360 0.63398808 -1.50414836
-0.90779358 0.93791592 -1.27572227
-0.90381187 -1.00179303 1.25929654
1.12991273 1.57577026 -0.84708416
0.76091248 1.86243105 0.89321631
-0.42618904 -2.04824519 0.88373959
-0.95883858 -0.01554843 1.37917233
1.69685948 1.04996991 -0.44160923
-1.49056804 -1.34996331 0.59207809
1.36131752 -1.77750385 -0.28431627
0.67887831 0.86252934 -1.38540804
1.89539266 -0.27409601 -0.34721965
1.94059074 -0.25739998 -0.10540225
0.61153764 -2.25183606 0.56440127
-0.69582999 2.34085965 -0.30226883
-0.10646947 2.45179772 -0.44429967
-1.50202560 1.40891278 0.51556927
-1.42087436 0.49746197 1.04252481
-1.41004324 1.68045211 0.34735721
-0.04094351 0.82475603 1.49827540
-1.02100635 -1.95661676 -0.59703749
-1.87966061 -0.62138534 -0.20207943
-0.28402478 -1.52907717 -1.24769509
1.08398771 -2.05240488 -0.34914428
-0.59302437 0.01096379 -1.50834835
-1.57866538 -0.02713306 0.93380064
-1.66919482 1.33067822 0.01998342
1.54318428 0.37001306 0.94400752
-1.18096530 -1.25349855 0.99520582
0.09670385 -2.40271616 0.53802872
0.92921102 -1.35461926 1.11185908
-1.24727786 1.52962291 -0.76768130
-1.30171454 -1.35943794 -0.82874602
0.26930419 -1.70423198 -1.16019809
-0.71444869 2.35659361 0.21117796
-0.97858340 1.66453230 0.90375620
-1.58529115 1.06987453 -0.64704621
0.58278996 2.33793330 -0.43745470
1.32230258 1.73191047 -0.45942426
0.68332452 2.14857626 -0.65833420
0.03041924 2.51771021 0.28004089
-1.81835294 0.81309086 -0.28908968
-0.28236598 -2.45065618 -0.39216048
-1.54887259 0.11732733 -0.96288019
-1.93308926 0.09316263 0.22793201
-1.27401137 -1.90691912 -0.22127998
1.65131235 1.07931888 0.52080858
-0.10103454 -2.16920590 -0.83526027
-0.24356785 -2.52091742 -0.18816313
-1.79047096 0.63087749 -0.49988461
-1.74601448 -1.11094201 -0.18443567
1.02375662 -1.62855113 -0.89645404
0.75355947 -2.27554560 0.38856074
-1.34654319 -0.85192156 1.01935351
1.43600678 0.91990244 -0.91086721
-1.62945700 -1.41207850 0.03047266
-1.57390392 -0.47842339 0.89079237
0.12661169 0.47245124 1.55235732
-1.25587356 -1.70005035 -0.60378581
1.22955179 -1.97896647 -0.12362674
1.94650936 -0.07409069 0.13379328
0.31572741 -2.24448180 0.71558964
-1.86716247 -0.23126155 0.44536006
1.02559006 1.99468362 0.54226315
-0.92074007 -1.51841795 1.03311205
1.48168755 0.23545897 -1.02187133
1.55267310 -1.51622450 -0.21173048
0.23690601 2.14490986 -0.84220868
-1.05528259 1.93892956 -0.57990956
1.62383652 -0.64283079 0.78572154
-0.62492502 -1.05489790 1.35024893
0.02137157 1.49035716 1.28655541
-0.96032453 -2.12264299 -0.42063251
-0.71237123 0.68458503 1.41214776
1.00599611 1.96082199 -0.60839957
0.41824570 1.51861441 1.22836697
-1.79487312 0.87268317 0.31865102
-1.37397110 0.13351920 -1.12258923
-1.87382686 -0.38657868 -0.38130239
1.80533969 0.64618868 -0.45604068
0.66111052 -0.88341093 -1.38590848
-0.40165877 2.19940686 0.74044251
-0.17944822 -0.79499906 1.49771559
-1.32525849 1.73964775 -0.44188717
1.24516559 -1.21561897 0.96024579
1.25504446 1.59407485 0.70649487
0.08364686 1.47570479 -1.29107618
-1.32822442 1.18203676 0.90192276
1.69933891 -1.23308504 -0.17163838
-0.00505068 2.09107161 -0.91238320
1.26079583 -1.04805923 -1.02110374
-0.45321828 -1.13103390 -1.37132263
0.30585259 -2.31243706 -0.63001490
-0.06469306 1.75645804 -1.14985192
1.15478313 -1.99759090 0.32262853
-1.59754586 -1.28377116 -0.44963893
0.13507922 -1.20733285 1.39128649
-1.41272259 -1.66757870 0.36301824
-0.99770331 0.13711070 -1.35825014
-1.26926649 -0.02641962 1.20364332
-0.58073223 -1.47587276 1.20445371
-0.00578166 -2.43077660 -0.49426067
-1.92674446 0.17355144 -0.24499339
-0.53718078 -2.44231153 0.18051283
0.59746116 -1.80886292 1.00965106
1.81613851 -0.93656170 -0.08501264
1.87292838 0.67111647 0.18261923
0.24690762 0.32506284 -1.55754423
-1.78174114 -0.56200653 0.54999310
1.39649725 -0.67724526 1.02504086
0.89209735 1.39765406 1.11206770
-0.52730644 0.35954493 -1.50768244
1.56813729 0.99684072 -0.71668297
0.44794524 -0.47685552 -1.51201320
0.45850986 -1.22751045 1.33870566
-0.46237129 -1.98204672 -0.92800969
0.55885303 -0.57509851 1.47413301
-0.87768489 1.93212688 -0.75600362
-0.00610245 -1.65392065 1.20765531
1.70703614 1.22792077 0.13077767
-0.53632122 -0.64554554 -1.46863365
-0.64685738 2.29788113 0.45947716
-0.33874393 2.51889825 0.04188735
0.41994017 2.49478889 -0.08678801
0.94302094 -1.76255190 0.85572845
1.09566474 -0.28037488 1.29887366
-0.94342321 1.63712955 -0.94626862
-1.57168591 -0.48135787 -0.89270413
-0.90736037 2.24519134 -0.19115555
1.08760309 2.11921334 -0.10720139
0.09775759 1.11380434 1.42274714
0.81607068 -0.99289292 1.30030096
1.79414821 -0.53948331 -0.53270149
1.26471961 -1.78437257 -0.48788095
-0.15682453 1.84147549 1.09177756
0.86565751 -2.12373114 -0.53740466
-0.64258105 1.60124099 1.11935079
1.00674450 1.64381230 0.89800024
1.91246223 0.42950344 -0.19210184
1.75484347 -0.83252865 0.46990824
0.17615637 1.92474508 -1.03303432
-0.91303194 -2.19407392 0.34157529
0.07780417 -1.97890246 1.00116789
1.76285696 1.06526434 -0.18179804
0.38478166 2.40501142 0.44184586
-1.11022127 1.93854368 0.50839859
-0.47972375 1.58834851 -1.17872560
1.59473467 -1.26064849 -0.47914770
1.67890131 0.37707660 -0.77626371
-0.01503634 2.54809737 -0.14069122
-0.34822646 -2.41978598 0.42908683
3 135 229 189
3 110 247 223
3 223 247 83
3 30 31 99
3 209 229 135
3 209 223 83
3 38 189 229
3 64 43 38
3 38 43 189
3 94 194 69
3 149 181 146
3 80 233 188
3 146 181 131
3 146 131 141
3 141 131 188
3 110 223 205
3 237 68 22
3 172 144 29
3 198 86 191
3 191 251 198
3 69 194 198
3 198 251 69
3 51 226 186
3 23 78 132
3 99 31 132
3 19 78 23
3 165 30 11
3 23 190 242
3 159 76 59
3 59 108 159
3 248 184 112
3 243 184 248
3 211 243 248
3 248 224 211
3 211 224 82
3 82 30 211
3 34 224 58
3 234 47 58
3 58 47 34
3 21 43 64
3 174 30 99
3 135 189 236
3 46 48 230
3 227 94 119
3 167 149 44
3 44 213 167
3 49 80 188
3 188 131 49
3 136 141 188
3 182 55 28
3 148 55 182
3 250 226 101
3 180 109 52
3 186 239 52
3 52 51 186
3 72 149 167
3 181 149 72
3 72 71 181
3 121 140 250
3 107 158 133
3 96 107 175
3 175 107 205
3 68 237 252
3 252 61 68
3 68 61 195
3 61 156 195
3 245 198 194
3 86 198 245
3 245 194 172
3 172 29 245
3 245 29 86
3 59 76 62
3 191 86 12
3 86 29 12
3 81 251 191
3 191 105 81
3 212 105 191
3 191 12 212
3 203 182 28
3 17 144 172
3 60 47 1
3 1 47 234
3 168 190 34
3 34 47 168
3 109 242 168
3 168 242 190
3 168 47 60
3 227 226 145
3 226 51 145
3 145 1 228
3 109 168 18
3 18 168 60
3 18 52 109
3 51 52 18
3 180 19 215
3 215 19 23
3 23 242 215
3 215 109 180
3 215 242 109
3 78 19 4
3 4 41 46
3 70 243 211
3 70 165 243
3 211 30 70
3 30 165 70
3 116 237 22
3 22 184 116
3 116 184 243
3 25 29 144
3 25 108 59
3 25 12 29
3 217 108 14
3 217 159 108
3 217 14 112
3 112 184 217
3 253 184 22
3 253 217 184
3 159 217 253
3 112 14 45
3 45 248 112
3 224 248 45
3 45 58 224
3 151 224 34
3 151 82 224
3 34 190 151
3 151 190 23
3 31 30 151
3 30 82 151
3 23 132 151
3 151 132 31
3 210 252 237
3 237 116 210
3 43 21 244
3 244 174 43
3 244 210 11
3 21 210 244
3 11 30 244
3 30 174 244
3 214 236 189
3 48 236 214
3 214 230 48
3 189 43 214
3 43 174 214
3 214 174 99
3 201 205 223
3 201 175 205
3 221 236 48
3 46 41 221
3 221 48 46
3 78 230 77
3 99 132 77
3 77 132 78
3 77 214 99
3 230 214 77
3 222 94 69
3 222 119 94
3 69 251 231
3 231 222 69
3 136 222 231
3 141 136 50
3 50 55 141
3 136 231 50
3 93 55 148
3 148 2 93
3 93 2 183
3 16 85 246
3 110 205 16
3 220 75 152
3 233 80 139
3 80 101 139
3 227 119 139
3 139 119 233
3 139 226 227
3 139 101 226
3 180 52 176
3 176 52 239
3 63 41 3
3 3 26 63
3 89 13 92
3 92 241 89
3 13 176 92
3 239 241 92
3 92 176 239
3 5 239 186
3 5 241 239
3 140 241 5
3 186 226 5
3 5 226 250
3 250 140 5
3 40 178 89
3 40 15 178
3 89 241 40
3 40 241 140
3 181 71 27
3 71 121 27
3 27 131 181
3 140 121 192
3 192 40 140
3 15 40 192
3 71 15 192
3 192 121 71
3 33 21 64
3 37 156 240
3 61 252 238
3 128 240 238
3 238 156 61
3 238 240 156
3 127 220 53
3 75 220 127
3 53 196 127
3 196 103 127
3 127 138 75
3 103 138 127
3 106 81 105
3 106 203 28
3 106 50 231
3 251 81 106
3 106 231 251
3 84 7 218
3 84 212 7
3 7 212 115
3 115 212 12
3 115 62 7
3 228 17 254
3 254 94 227
3 227 145 254
3 254 145 228
3 249 18 60
3 51 18 249
3 249 145 51
3 60 1 249
3 1 145 249
3 54 230 78
3 78 4 54
3 46 230 54
3 54 4 46
3 243 165 117
3 117 116 243
3 117 165 11
3 11 210 117
3 117 210 116
3 179 25 144
3 108 25 179
3 144 97 179
3 35 25 59
3 12 25 35
3 35 115 12
3 59 62 35
3 62 115 35
3 142 17 228
3 234 97 142
3 144 17 142
3 142 97 144
3 142 1 234
3 228 1 142
3 234 58 100
3 58 45 100
3 100 97 234
3 100 45 14
3 193 210 21
3 193 33 171
3 21 33 193
3 171 252 193
3 252 210 193
3 187 41 63
3 175 201 187
3 187 221 41
3 201 221 187
3 63 96 187
3 96 175 187
3 236 221 219
3 219 221 201
3 219 209 135
3 135 236 219
3 223 209 219
3 219 201 223
3 173 136 188
3 173 222 136
3 188 233 173
3 233 119 173
3 119 222 173
3 148 182 232
3 232 2 148
3 6 2 232
3 182 203 232
3 126 155 44
3 126 44 149
3 183 2 126
3 207 93 183
3 207 126 149
3 183 126 207
3 207 149 146
3 141 55 154
3 55 93 154
3 146 141 154
3 154 207 146
3 93 207 154
3 246 255 104
3 104 16 246
3 110 16 104
3 104 247 110
3 133 85 169
3 85 16 169
3 169 16 205
3 169 107 133
3 205 107 169
3 208 255 246
3 246 90 208
3 235 176 13
3 235 19 180
3 180 176 235
3 124 235 13
3 178 26 24
3 26 3 24
3 89 178 24
3 3 124 24
3 24 13 89
3 24 124 13
3 111 107 96
3 111 96 63
3 63 26 111
3 111 26 178
3 123 27 121
3 123 121 250
3 123 49 131
3 131 27 123
3 250 101 123
3 80 49 123
3 123 101 80
3 255 208 20
3 199 33 64
3 164 33 199
3 37 240 57
3 57 240 197
3 57 197 152
3 152 75 57
3 75 138 57
3 114 252 171
3 114 238 252
3 171 33 114
3 114 33 164
3 114 164 128
3 128 238 114
3 36 195 156
3 36 185 195
3 36 156 37
3 37 57 36
3 36 57 138
3 103 185 36
3 36 138 103
3 66 62 76
3 7 62 66
3 76 159 170
3 159 253 170
3 170 66 76
3 79 66 170
3 87 106 28
3 50 106 87
3 28 55 87
3 55 50 87
3 105 212 98
3 212 84 98
3 94 254 120
3 120 254 17
3 194 94 120
3 172 194 120
3 120 17 172
3 143 179 97
3 97 100 143
3 143 100 14
3 14 108 143
3 108 179 143
3 200 126 2
3 155 126 200
3 200 2 6
3 6 163 200
3 53 220 74
3 246 85 9
3 9 202 246
3 177 90 150
3 150 90 246
3 247 104 166
3 83 247 166
3 166 209 83
3 166 118 209
3 88 4 19
3 19 235 88
3 41 4 88
3 204 161 158
3 158 107 204
3 107 111 204
3 128 164 95
3 164 199 95
3 153 208 90
3 153 20 208
3 229 209 32
3 209 118 32
3 32 38 229
3 64 38 32
3 32 199 64
3 73 66 79
3 73 185 218
3 218 7 73
3 7 66 73
3 195 185 73
3 73 79 195
3 79 170 39
3 68 195 39
3 195 79 39
3 22 68 39
3 39 253 22
3 39 170 253
3 65 103 196
3 218 185 65
3 65 185 103
3 65 84 218
3 65 98 84
3 163 74 125
3 177 150 125
3 125 150 163
3 125 220 177
3 125 74 220
3 53 74 137
3 137 232 53
3 6 232 137
3 137 163 6
3 137 74 163
3 213 44 42
3 44 0 42
3 42 161 213
3 158 161 42
3 155 200 91
3 91 200 163
3 163 150 91
3 118 166 56
3 162 124 3
3 162 3 41
3 41 88 162
3 235 124 162
3 162 88 235
3 161 204 130
3 130 72 167
3 167 213 130
3 213 161 130
3 197 240 10
3 10 240 128
3 128 95 10
3 147 90 177
3 147 153 90
3 147 220 152
3 177 220 147
3 105 98 216
3 98 129 216
3 216 129 203
3 216 106 105
3 203 106 216
3 98 65 225
3 225 129 98
3 225 65 196
3 203 129 225
3 225 196 53
3 53 232 225
3 225 232 203
3 133 158 113
3 158 42 113
3 113 0 202
3 113 42 0
3 155 91 160
3 44 155 160
3 160 0 44
3 102 91 150
3 246 202 102
3 102 150 246
3 102 160 91
3 202 0 102
3 0 160 102
3 118 56 67
3 20 10 67
3 67 10 95
3 134 56 166
3 134 104 255
3 134 166 104
3 255 20 134
3 20 67 134
3 134 67 56
3 122 130 204
3 178 15 122
3 122 15 71
3 122 111 178
3 122 204 111
3 71 72 122
3 72 130 122
3 152 197 206
3 206 147 152
3 153 147 206
3 197 10 206
3 20 153 206
3 206 10 20
3 8 85 133
3 133 113 8
3 8 9 85
3 202 9 8
3 8 113 202
3 118 67 157
3 157 67 95
3 157 32 118
3 157 95 199
3 199 32 157