ply
format ascii 1.0
comment https://github.com/mikedh/trimesh
element vertex 256
property float x
property float y
property float z
element face 508
property list uchar int vertex_indices
end_header
-3.29738402 -2.12208104 0.22568586
1.26389933 3.81858063 0.06889341
-3.49219036 -0.85945928 -0.48567447
-0.25845665 0.75733739 1.09415686
1.62739551 0.61551183 1.00520432
-1.26820922 2.94626832 0.67481583
-3.11168933 -1.85909641 -0.47346830
1.43291986 0.70714819 -1.02339494
-2.66023254 -2.66472697 0.38624907
-2.29526019 -3.03760862 0.35668844
1.18754709 -3.82483363 -0.12577574
3.90125179 -0.70939529 0.13305753
0.88545835 2.07569528 -0.92500657
-0.41427773 1.75732601 0.99828148
3.17270875 2.11280394 -0.34235203
-2.72080779 1.42429793 0.71557909
-1.40958750 -3.08525348 0.60212225
0.60381627 3.78098369 -0.35067627
1.15827084 3.55306029 0.41760695
1.37723243 1.52332807 0.95919329
-0.06018676 -4.02998686 0.04958528
3.39477110 -1.95952010 0.22504781
3.58479881 -0.40270877 -0.47833622
2.29178238 2.02101851 0.72311664
-0.69648784 1.31022573 1.03822446
1.80477309 2.59785509 -0.68919051
-1.19384277 0.55187851 1.05471373
-3.36448169 1.99103069 0.23921351
-2.45315385 0.71251792 -0.85846084
1.11162162 2.90754247 -0.70891696
3.73296118 0.39539483 0.38009498
3.46524715 0.63138479 0.52573371
1.77192068 -3.29824209 0.40984523
2.98212576 -2.68068099 0.00777685
2.79143357 2.66689873 0.30281866
1.62852120 1.77768052 -0.89285803
1.20357442 -2.45685554 -0.81943375
1.58962429 -2.88122749 -0.64271331
2.45697689 -2.54325104 0.52801687
3.07998157 -0.14361593 -0.70921087
-2.02750063 2.05075359 0.77630877
0.69687426 -0.11808657 1.09865272
-3.37232423 -1.68403208 0.37408313
3.20970178 -1.75928795 0.45065743
-3.79998159 -1.00617242 0.19913064
3.32948875 2.19107866 -0.10651269
1.55011058 -0.23266596 1.02672446
2.15461826 3.34640026 0.15994322
1.86802149 -0.82369524 0.95968866
-3.01607418 2.64005518 -0.02489185
-2.58782935 1.80419302 -0.68767965
0.11254101 3.75852871 0.40333739
0.21192658 3.22826195 0.66694194
-1.32475066 -2.07543159 -0.88287920
1.89948571 0.13983603 0.98101884
-3.03169322 1.17008388 -0.65011442
0.77312052 -3.72669625 0.36886087
0.98845506 -3.23490906 -0.60664564
2.82399130 2.84673905 0.04139957
2.09344125 2.09019208 -0.75457537
1.26862919 3.72202158 0.24435528
2.60161161 -2.26270390 -0.56995833
2.02051282 1.40901899 -0.88029903
-0.91030759 -0.59416527 1.07475412
2.76227689 -2.70271850 0.29995409
-0.23582201 -1.20894098 -1.06316996
2.33622289 0.34724459 -0.90024596
0.98943889 -3.83383250 0.20864891
3.29223084 -1.05762911 -0.55937493
-1.11923909 2.96004105 -0.69079626
3.91989827 0.46940601 0.16650228
-3.55983472 1.10620415 0.40170458
-3.71666622 0.46089545 0.38730505
2.20755744 -0.21614604 -0.92841691
-1.78700066 -2.90374136 -0.59223545
-0.31012660 -3.08156991 -0.71486640
2.72124577 1.15678608 -0.75173175
2.74299407 -0.33326212 0.80598420
2.46835399 0.68615657 0.85635471
2.61415386 -0.17399439 -0.84233958
-2.29070616 3.30370212 0.00462687
-0.88913417 1.77306664 -0.97130936
3.60762691 1.53065288 0.22106700
0.75284523 -3.08130670 0.68866634
0.43662390 -0.34849405 -1.10552585
-2.03316832 -2.90381384 0.52694643
0.61808348 2.51353550 -0.85579276
-2.40578485 1.37152326 -0.80619806
1.16071820 0.86848176 1.04088724
-1.20141804 1.60932887 0.96701330
-1.65605962 -3.67009902 -0.00288198
-3.04695201 -2.58512783 -0.08963460
-0.66234607 2.17390347 0.92217511
-3.69696951 0.45650417 -0.40168139
-0.78483814 3.83835649 -0.26364008
1.60481715 -3.68658614 0.06310250
-1.39237964 -0.88439530 1.01730144
2.05360627 3.30607843 -0.28080511
-0.09822340 -0.29783884 -1.11295021
3.27581334 -0.19659483 0.63602591
2.88092041 2.72050691 -0.17452651
-2.12558961 3.36458421 0.15944374
-3.05635309 -2.55852723 0.11865951
0.13058525 -2.19332337 -0.93638754
-0.65977085 -3.51859999 0.51329947
-0.74892032 0.99943978 -1.06093681
-1.85409188 1.47856176 -0.89981860
-1.84595954 -1.57925963 0.88823289
2.30775142 2.48409629 -0.59748280
1.55409956 2.93599796 0.63002169
-0.87045515 -3.22892141 0.62333733
-1.95834696 -0.02451105 0.97278613
3.46569252 1.65520728 -0.31148487
-3.04435968 -2.12812662 0.41761667
2.78037620 -2.80211568 -0.20053980
1.38655174 1.35971975 -0.97718441
3.87117982 -0.43209404 -0.24490809
3.96349287 -0.40577385 -0.07434448
1.24901414 -3.54986882 0.39809507
-1.42117405 3.69020867 -0.21320246
-0.21745491 3.86509490 -0.31338257
-3.06776071 2.22105670 0.36365190
-2.90201616 0.78421551 0.73533499
-2.87989450 2.64912033 0.24500513
-0.08362367 1.30017269 1.05679440
-2.08531928 -3.08447552 -0.42111474
-3.83904839 -0.97957242 -0.14253482
-0.58009666 -2.41048765 -0.88004994
2.21395350 -3.23547888 -0.24626561
-1.21120226 0.01728369 -1.06389928
-3.22429085 -0.04277346 0.65864742
-3.40918970 2.09772515 0.01409512
3.15182376 0.58330077 0.66584677
-2.41202188 -1.97605658 0.70195901
0.19750945 -3.78772116 0.37949345
1.89783525 -2.13546658 0.78423929
-2.54745984 2.41134810 -0.54147673
-2.65864229 -2.14306283 -0.58454818
0.55003113 -2.68660784 -0.81833476
-1.45920122 3.71501231 0.14895238
-1.99867404 2.62402391 0.63745588
-3.23782349 1.68658555 -0.45638794
1.19029939 3.68559527 -0.30855453
2.70069146 2.73024082 -0.32405055
1.39563274 3.38708663 -0.46434981
0.06212873 3.96900153 0.19752419
-3.71383262 1.28178334 -0.20390667
-0.57670867 -3.86329532 -0.27660668
-3.16344166 0.18495868 -0.67915839
-3.94817185 0.14686465 0.16076969
-2.60206103 -3.00613046 -0.15607774
3.37266636 1.70147407 0.36734739
-0.20635454 -3.41960764 -0.58914292
-0.49746680 -3.97405744 -0.13271908
-3.65688610 0.99453616 -0.35258889
-3.56608748 -1.75132573 -0.13008995
2.09093666 -2.56730199 -0.63230538
1.53908169 -3.58724523 0.27406764
-2.75020099 -1.34299731 0.71899134
2.93292284 1.45016468 -0.64247155
-3.32802868 -2.22604728 0.02149360
-3.21456599 -0.75420243 0.62831193
0.25859371 0.74478775 1.09494054
-2.56501579 -2.68001556 -0.42587462
2.51125598 -3.11970830 -0.08719895
3.97558141 -0.11679901 0.09436983
0.64484662 -3.53827524 0.50473440
-3.81352186 -0.36456835 0.31413049
2.09468126 3.14448524 0.38248017
-1.88053393 -2.39368415 0.72869581
3.02622199 0.37118530 -0.72076726
3.17120385 -2.39022636 -0.14934209
0.48386055 3.38130665 -0.59404391
-2.15532565 3.05659270 -0.40903372
3.31654930 -1.01337969 0.55420125
-1.27635658 -1.66297603 0.95238537
0.04364964 2.34944844 0.90745968
-1.96138191 -3.34620452 -0.29668915
-1.45495820 1.07920241 0.99604505
2.05466223 3.09110451 -0.42912889
0.85423160 2.39399385 0.86641705
-3.66587687 1.37572658 0.22475748
-2.80622005 0.21048409 -0.79180765
-3.82713342 -0.60941541 -0.26894802
3.68725419 1.01867318 -0.32166398
1.35026252 -1.39263821 -0.97753739
-0.82035416 3.46721768 0.52226412
-0.36650786 -1.25326288 1.05639958
-2.70672870 2.74243832 -0.31168094
2.54314566 -1.91634190 0.67730027
2.56332254 2.51295233 0.49831948
0.17084166 2.32634974 -0.91064835
-2.71278644 1.86340189 0.63616270
3.47075653 -1.94387615 -0.12106351
-0.01031560 3.29643440 -0.64354086
2.57506919 -1.65219533 -0.72022581
-0.92566013 -1.78299928 -0.96724939
0.62467813 -3.64540219 -0.44437507
-0.13213012 2.76893854 -0.81103718
2.35854721 -3.14906836 0.22756299
-3.26285267 -2.02377915 -0.31714857
0.27588794 -1.90327942 0.98133075
-2.88536668 -2.62882614 0.25605148
-2.03772497 0.21614583 -0.95802891
-2.59236979 -0.04164876 0.84897840
-1.18609655 -2.32661462 0.84955001
-0.01180855 -3.83195662 -0.34862208
-3.93521309 0.27359223 -0.17280376
-1.09714639 -3.85014081 0.12732302
1.22026396 -2.85155129 0.71214777
3.70930982 -1.47642684 -0.05996286
3.82529831 1.05797017 0.12880875
0.50428802 0.51243985 -1.09859908
-3.63905597 -0.88596565 0.38793242
2.85222793 -1.06763184 0.72300285
1.82203352 2.20330811 0.78438646
-1.07697892 0.56679851 -1.06342959
3.20278811 1.57145262 -0.50550556
0.91489041 -0.75173080 -1.06648421
0.93646771 -1.93508804 0.94424331
-0.94435436 -3.12456393 -0.65456289
1.14141023 -0.90660429 1.03976583
-1.79259741 3.04586864 -0.53324002
-0.01246375 -2.60729504 0.85180825
3.48647738 1.93573499 0.09224278
-1.09539092 -1.01765931 -1.03588688
-1.32115161 3.62245560 0.32408786
-0.69185591 3.97087455 0.02954485
0.85769242 3.93286753 -0.06121510
1.92604077 -2.77854514 0.60357994
2.23780274 -0.44199225 0.91614819
-1.92686236 2.58082509 -0.66744161
-3.21003580 -0.75882846 -0.62966043
-1.85320711 3.53939390 -0.13482976
2.22133756 3.34079790 -0.07561348
0.19966163 1.75583804 1.00352120
1.66675556 -1.56522918 0.91715503
3.66439652 -0.85045934 -0.37573594
2.58308315 -2.81294394 -0.34412220
-0.32030088 2.90296292 0.77007496
1.76803243 -3.34791970 -0.37905329
-1.31241763 2.52424932 0.78952348
2.05619073 2.59136009 0.63339597
3.90604281 0.67708343 -0.13549721
3.58411980 -1.31242573 0.33144534
0.35978454 3.03423190 -0.72864097
-1.86479080 -3.45881057 0.24092691
0.15890846 -3.11960745 0.70616430
3.60048652 1.67931795 -0.12822953
0.78588408 3.79133940 0.31165180
-2.26753330 3.05598450 0.35859415
-0.97979534 2.50392509 -0.83140296
3.25711107 -1.98732781 -0.33796230
3.42901444 0.59443599 -0.54753023
-0.03071046 4.01690483 -0.09923522
-0.71122319 -3.81463075 0.30265233
3 135 229 189
3 110 247 223
3 223 247 83
3 30 31 99
3 209 229 135
3 209 223 83
3 38 189 229
3 64 43 38
3 38 43 189
3 94 194 69
3 149 181 146
3 80 233 188
3 146 181 131
3 146 131 141
3 141 131 188
3 110 223 205
3 237 68 22
3 172 144 29
3 198 86 191
3 191 251 198
3 69 194 198
3 198 251 69
3 51 226 186
3 23 78 132
3 99 31 132
3 19 78 23
3 165 30 11
3 23 190 242
3 159 76 59
3 59 108 159
3 248 184 112
3 243 184 248
3 211 243 248
3 248 224 211
3 211 224 82
3 82 30 211
3 34 224 58
3 234 47 58
3 58 47 34
3 21 43 64
3 174 30 99
3 135 189 236
3 46 48 230
3 227 94 119
3 167 149 44
3 44 213 167
3 49 80 188
3 188 131 49
3 136 141 188
3 182 55 28
3 148 55 182
3 250 226 101
3 180 109 52
3 186 239 52
3 52 51 186
3 72 149 167
3 181 149 72
3 72 71 181
3 121 140 250
3 107 158 133
3 96 107 175
3 175 107 205
3 68 237 252
3 252 61 68
3 68 61 195
3 61 156 195
3 245 198 194
3 86 198 245
3 245 194 172
3 172 29 245
3 245 29 86
3 59 76 62
3 191 86 12
3 86 29 12
3 81 251 191
3 191 105 81
3 212 105 191
3 191 12 212
3 203 182 28
3 17 144 172
3 60 47 1
3 1 47 234
3 168 190 34
3 34 47 168
3 109 242 168
3 168 242 190
3 168 47 60
3 227 226 145
3 226 51 145
3 145 1 228
3 109 168 18
3 18 168 60
3 18 52 109
3 51 52 18
3 180 19 215
3 215 19 23
3 23 242 215
3 215 109 180
3 215 242 109
3 78 19 4
3 4 41 46
3 70 243 211
3 70 165 243
3 211 30 70
3 30 165 70
3 116 237 22
3 22 184 116
3 116 184 243
3 25 29 144
3 25 108 59
3 25 12 29
3 217 108 14
3 217 159 108
3 217 14 112
3 112 184 217
3 253 184 22
3 253 217 184
3 159 217 253
3 112 14 45
3 45 248 112
3 224 248 45
3 45 58 224
3 151 224 34
3 151 82 224
3 34 190 151
3 151 190 23
3 31 30 151
3 30 82 151
3 23 132 151
3 151 132 31
3 210 252 237
3 237 116 210
3 43 21 244
3 244 174 43
3 244 210 11
3 21 210 244
3 11 30 244
3 30 174 244
3 214 236 189
3 48 236 214
3 214 230 48
3 189 43 214
3 43 174 214
3 214 174 99
3 201 205 223
3 201 175 205
3 221 236 48
3 46 41 221
3 221 48 46
3 78 230 77
3 99 132 77
3 77 132 78
3 77 214 99
3 230 214 77
3 222 94 69
3 222 119 94
3 69 251 231
3 231 222 69
3 136 222 231
3 141 136 50
3 50 55 141
3 136 231 50
3 93 55 148
3 148 2 93
3 93 2 183
3 16 85 246
3 110 205 16
3 220 75 152
3 233 80 139
3 80 101 139
3 227 119 139
3 139 119 233
3 139 226 227
3 139 101 226
3 180 52 176
3 176 52 239
3 63 41 3
3 3 26 63
3 89 13 92
3 92 241 89
3 13 176 92
3 239 241 92
3 92 176 239
3 5 239 186
3 5 241 239
3 140 241 5
3 186 226 5
3 5 226 250
3 250 140 5
3 40 178 89
3 40 15 178
3 89 241 40
3 40 241 140
3 181 71 27
3 71 121 27
3 27 131 181
3 140 121 192
3 192 40 140
3 15 40 192
3 71 15 192
3 192 121 71
3 33 21 64
3 37 156 240
3 61 252 238
3 128 240 238
3 238 156 61
3 238 240 156
3 127 220 53
3 75 220 127
3 53 196 127
3 196 103 127
3 127 138 75
3 103 138 127
3 106 81 105
3 106 203 28
3 106 50 231
3 251 81 106
3 106 231 251
3 84 7 218
3 84 212 7
3 7 212 115
3 115 212 12
3 115 62 7
3 228 17 254
3 254 94 227
3 227 145 254
3 254 145 228
3 249 18 60
3 51 18 249
3 249 145 51
3 60 1 249
3 1 145 249
3 54 230 78
3 78 4 54
3 46 230 54
3 54 4 46
3 243 165 117
3 117 116 243
3 117 165 11
3 11 210 117
3 117 210 116
3 179 25 144
3 108 25 179
3 144 97 179
3 35 25 59
3 12 25 35
3 35 115 12
3 59 62 35
3 62 115 35
3 142 17 228
3 234 97 142
3 144 17 142
3 142 97 144
3 142 1 234
3 228 1 142
3 234 58 100
3 58 45 100
3 100 97 234
3 100 45 14
3 193 210 21
3 193 33 171
3 21 33 193
3 171 252 193
3 252 210 193
3 187 41 63
3 175 201 187
3 187 221 41
3 201 221 187
3 63 96 187
3 96 175 187
3 236 221 219
3 219 221 201
3 219 209 135
3 135 236 219
3 223 209 219
3 219 201 223
3 173 136 188
3 173 222 136
3 188 233 173
3 233 119 173
3 119 222 173
3 148 182 232
3 232 2 148
3 6 2 232
3 182 203 232
3 126 155 44
3 126 44 149
3 183 2 126
3 207 93 183
3 207 126 149
3 183 126 207
3 207 149 146
3 141 55 154
3 55 93 154
3 146 141 154
3 154 207 146
3 93 207 154
3 246 255 104
3 104 16 246
3 110 16 104
3 104 247 110
3 133 85 169
3 85 16 169
3 169 16 205
3 169 107 133
3 205 107 169
3 208 255 246
3 246 90 208
3 235 176 13
3 235 19 180
3 180 176 235
3 124 235 13
3 178 26 24
3 26 3 24
3 89 178 24
3 3 124 24
3 24 13 89
3 24 124 13
3 111 107 96
3 111 96 63
3 63 26 111
3 111 26 178
3 123 27 121
3 123 121 250
3 123 49 131
3 131 27 123
3 250 101 123
3 80 49 123
3 123 101 80
3 255 208 20
3 199 33 64
3 164 33 199
3 37 240 57
3 57 240 197
3 57 197 152
3 152 75 57
3 75 138 57
3 114 252 171
3 114 238 252
3 171 33 114
3 114 33 164
3 114 164 128
3 128 238 114
3 36 195 156
3 36 185 195
3 36 156 37
3 37 57 36
3 36 57 138
3 103 185 36
3 36 138 103
3 66 62 76
3 7 62 66
3 76 159 170
3 159 253 170
3 170 66 76
3 79 66 170
3 87 106 28
3 50 106 87
3 28 55 87
3 55 50 87
3 105 212 98
3 212 84 98
3 94 254 120
3 120 254 17
3 194 94 120
3 172 194 120
3 120 17 172
3 143 179 97
3 97 100 143
3 143 100 14
3 14 108 143
3 108 179 143
3 200 126 2
3 155 126 200
3 200 2 6
3 6 163 200
3 53 220 74
3 246 85 9
3 9 202 246
3 177 90 150
3 150 90 246
3 247 104 166
3 83 247 166
3 166 209 83
3 166 118 209
3 88 4 19
3 19 235 88
3 41 4 88
3 204 161 158
3 158 107 204
3 107 111 204
3 128 164 95
3 164 199 95
3 153 208 90
3 153 20 208
3 229 209 32
3 209 118 32
3 32 38 229
3 64 38 32
3 32 199 64
3 73 66 79
3 73 185 218
3 218 7 73
3 7 66 73
3 195 185 73
3 73 79 195
3 79 170 39
3 68 195 39
3 195 79 39
3 22 68 39
3 39 253 22
3 39 170 253
3 65 103 196
3 218 185 65
3 65 185 103
3 65 84 218
3 65 98 84
3 163 74 125
3 177 150 125
3 125 150 163
3 125 220 177
3 125 74 220
3 53 74 137
3 137 232 53
3 6 232 137
3 137 163 6
3 137 74 163
3 213 44 42
3 44 0 42
3 42 161 213
3 158 161 42
3 155 200 91
3 91 200 163
3 163 150 91
3 118 166 56
3 162 124 3
3 162 3 41
3 41 88 162
3 235 124 162
3 162 88 235
3 161 204 130
3 130 72 167
3 167 213 130
3 213 161 130
3 197 240 10
3 10 240 128
3 128 95 10
3 147 90 177
3 147 153 90
3 147 220 152
3 177 220 147
3 105 98 216
3 98 129 216
3 216 129 203
3 216 106 105
3 203 106 216
3 98 65 225
3 225 129 98
3 225 65 196
3 203 129 225
3 225 196 53
3 53 232 225
3 225 232 203
3 133 158 113
3 158 42 113
3 113 0 202
3 113 42 0
3 155 91 160
3 44 155 160
3 160 0 44
3 102 91 150
3 246 202 102
3 102 150 246
3 102 160 91
3 202 0 102
3 0 160 102
3 118 56 67
3 20 10 67
3 67 10 95
3 134 56 166
3 134 104 255
3 134 166 104
3 255 20 134
3 20 67 134
3 134 67 56
3 122 130 204
3 178 15 122
3 122 15 71
3 122 111 178
3 122 204 111
3 71 72 122
3 72 130 122
3 152 197 206
3 206 147 152
3 153 147 206
3 197 10 206
3 20 153 206
3 206 10 20
3 8 85 133
3 133 113 8
3 8 9 85
3 202 9 8
3 8 113 202
3 118 67 157
3 157 67 95
3 157 32 118
3 157 95 199
3 199 32 157