ply
format ascii 1.0
comment https://github.com/mikedh/trimesh
element vertex 256
property float x
property float y
property float z
element face 508
property list uchar int vertex_indices
end_header
0.14437498 1.32268870 2.20396924
-0.96680099 0.41616946 3.42408085
-3.73964715 0.50888747 -1.09379923
1.85851920 0.77743977 -2.77445292
1.10182357 0.50903451 -3.32975626
-3.13482904 1.03326166 -0.72840023
-2.02119780 1.30525041 1.39030385
-0.65896010 0.23873095 3.55840826
2.69354749 1.22239327 0.69309586
0.00239490 0.05627414 3.64105630
0.02043337 0.69883174 3.30567122
-1.53885663 0.66574550 3.05121660
-2.31856465 1.36729228 -0.36447641
3.60031438 0.42271647 -1.54040039
-2.31363463 1.31267655 -0.92359173
1.24986660 0.21192010 -3.44197702
3.01060939 1.13529491 0.26009747
3.52911663 0.57814509 -1.42075622
-0.42356750 1.27200711 -2.31613326
0.70548517 1.57131815 1.01851916
-0.89124203 1.42787087 -1.69421887
0.72152328 0.25054431 3.54507017
3.08703470 -0.03215694 2.42630887
2.03148723 0.72212124 -2.75152111
-1.37426436 1.51604915 -0.88037753
1.76517200 0.47682282 -3.12579346
-0.18345229 0.23347679 -3.60427690
0.64449686 0.12080285 3.58882284
3.12844825 0.34223798 2.26544595
2.91013312 1.06004965 -1.15076661
2.10788465 0.82491297 -2.56232476
-2.27177000 1.26283145 -1.27117276
0.22381122 0.62704581 3.36883664
-2.74998307 1.18052471 0.85335714
0.46533436 1.19600511 -2.49722195
-1.37841368 0.82892603 -2.91636086
3.64646792 0.74530315 0.54850221
1.74907231 1.36565518 -1.39627182
-2.66264796 0.29408124 2.71399760
1.20969844 0.51441699 3.29699445
-1.37331760 -0.00330101 3.43695331
-2.58512712 0.52454036 -2.60291672
1.19384515 0.12886538 3.47752619
0.26305777 0.25925672 -3.59104896
0.68910110 0.67026109 -3.27929354
-1.72033656 1.50780320 -0.26092863
-3.69971490 0.20727998 -1.56839633
-3.57362485 0.65214562 -1.16011226
-4.09857655 0.22867244 0.10478692
-2.37977982 1.23185003 -1.26566851
2.75079823 0.16540568 2.69864821
3.05624914 0.66423237 1.98178077
0.38822877 0.07068341 -3.62447381
-3.83876896 0.57435042 -0.52017057
-0.26470482 0.07347222 3.63199115
0.30331686 0.89714283 3.05576801
-0.28481174 0.57046527 3.41318822
0.02091074 0.09835930 -3.63700819
0.81099415 1.04537058 2.74135542
-2.12488484 0.34002909 3.03654575
0.11903179 0.55979621 3.42959476
1.13280344 -1.52804053 -1.03536129
0.81661969 0.49548161 -3.40258980
2.54217339 1.23566198 0.96953017
0.45418152 0.18374676 -3.59917188
0.99328512 0.27739650 3.48484969
0.59906584 0.19915092 3.57853699
-1.07319820 1.17917812 -2.38921356
3.81199098 0.43408614 1.05230260
-3.33992004 0.68423510 1.54497159
-3.13722730 1.07110298 0.37150639
0.94232589 1.56029046 0.94986010
-0.10433275 -1.25395405 2.39104414
3.26460600 1.01038432 -0.33688045
-2.64133048 0.37087762 -2.68521905
-0.35180512 1.53510046 -1.36508667
-3.88160706 0.34267277 1.01975715
-1.03420675 0.29778761 -3.46687555
-0.58003855 -1.41007423 -1.86279511
-0.21455157 0.10215573 3.63127065
-2.78168607 1.09264755 -1.24358618
-0.03680385 0.13987769 -3.63012075
4.13520384 0.07380561 -0.04190618
2.38487434 0.83955616 2.34088707
2.24939036 0.06076372 3.05504274
0.73254699 1.58763218 0.87162668
2.20581174 1.18355596 -1.66845798
-4.02201080 0.30363345 -0.54381198
3.55185890 0.54655337 -1.43604398
3.63172555 0.14813048 -1.71808290
0.12951776 1.65176487 0.40562329
1.80232275 0.06811324 3.27704215
0.13055970 0.08764202 -3.63644481
-2.02479053 0.01572548 3.17752099
0.73583031 1.36247456 1.98616004
-1.76541722 0.23861103 -3.25344563
2.26424265 1.00372171 2.11420298
1.46727073 0.65832961 -3.08654022
0.22168054 0.34689236 3.55757022
2.35287309 1.10577285 -1.76384783
2.98388290 0.72410661 1.96623039
0.37924045 1.52708220 -1.40156138
4.13619900 0.03870373 -0.11142088
-2.68521309 -1.11299407 -1.32039511
3.59614706 0.81707925 -0.21486123
-0.81493223 0.78781843 -3.12730885
-1.41476727 0.02649128 -3.42422128
-2.68232369 1.26668990 0.04999666
3.33067966 0.63284791 -1.66289341
-0.62891120 0.00895982 -3.60152960
-3.43335772 -0.51762849 1.68992639
0.96748817 0.87520415 2.97821307
-3.95801044 0.39681062 -0.61811352
-2.44571781 0.68383652 -2.52930355
1.53444004 0.57744277 3.13810682
-2.66116261 1.20904899 0.87510312
0.19255017 1.25408888 -2.38627481
-3.46975255 0.07052103 1.98140359
-2.54886222 0.31854382 2.78509164
-0.04643941 0.96885926 2.96039557
2.21354580 0.26009175 3.02565050
-2.61506033 1.01726639 1.73453534
1.27952039 0.46459544 3.31173182
-2.73238969 0.99213856 1.66380429
-0.07354488 0.10231905 3.63572598
-0.97357559 0.32710379 3.46774912
-0.33440003 0.52222365 -3.44618368
1.16522288 1.59248066 -0.22710492
-1.96452188 0.50846809 3.00812364
-0.78307623 0.66809553 -3.26429224
2.91265869 1.12439430 0.79544836
3.64308882 0.78487450 0.18914966
3.68702936 0.75272936 -0.13735899
-2.55791974 0.87387305 -2.13147712
-2.02697134 0.99915689 2.30152273
-0.27710411 0.20958127 -3.60632825
-1.69270551 -0.63990837 3.01538253
0.08487888 -1.59075212 1.05667078
2.00300860 0.41533798 -3.05524373
0.62573051 1.63864267 0.28589642
-2.73268390 1.18399155 -0.87099010
1.11946321 1.33192325 1.94617963
-0.75539720 0.56978601 -3.35835481
-0.46173033 0.60202438 -3.37181759
1.47765613 0.15521497 -3.38593006
-1.68118906 0.52946430 3.12113571
-0.80750042 1.40455139 1.81699276
-3.91947722 0.14668778 1.12585771
0.39063030 -1.48482108 1.60247731
-4.07705688 0.07770335 0.60501659
2.88115478 0.13149948 -2.59941268
-0.08186564 0.34500816 -3.56335616
-1.61882567 0.14749160 3.33755851
0.27942345 0.62946945 -3.36370301
1.04971993 1.22997427 -2.27269435
0.98304915 1.52014303 1.19579554
0.56770504 -1.23963511 -2.37665248
-1.71889448 0.64585626 -2.99733806
3.16681600 0.28270954 -2.26343036
-3.01860023 0.57154298 -2.15534711
-3.82702398 0.50957590 -0.82918900
-0.04373930 1.50589013 1.54562485
-0.14732136 1.50226951 -1.55530214
2.63608837 0.99745321 1.76393712
-1.36728191 0.53716588 3.23090386
-3.70864034 0.57717943 1.01235771
-1.85685241 0.48294458 3.07935596
-0.34666529 0.23364641 3.59410429
-3.19055080 0.28537142 -2.23565626
-2.36097956 0.04812509 2.99067116
-0.29554367 0.07228034 3.63038945
0.66347831 0.03724872 -3.59522700
1.25406337 1.18993080 -2.29312444
-1.79068029 -1.20394707 -1.95749867
1.63539100 1.21195340 -2.03653955
1.65723932 -1.43164372 -1.14604640
1.18408751 0.41725188 3.36936450
-1.96079767 0.48119691 -3.03042650
0.15993884 0.06736694 -3.63792777
1.15456367 0.05055279 -3.49683356
4.03495646 0.10667094 -0.77797079
2.11168909 1.34615541 1.05617440
-1.10889506 1.59469664 -0.33241221
3.61621785 0.25512937 -1.68237686
-2.21333313 1.40504897 -0.04012295
1.87568736 1.10381246 -2.16724491
-0.23613946 0.56253690 -3.42299151
-3.68180585 -0.69478309 0.67266923
-2.28399682 1.35027647 0.69175738
-3.52795768 0.17074993 1.86881816
0.61629158 0.96239805 -2.92129970
2.98542500 1.10680509 0.69956982
-1.26141834 0.02973581 3.46942210
-0.41466400 0.56527823 3.40671325
-1.39549184 0.02319746 -3.43005562
0.43905750 1.37593794 -2.00913525
-3.43610597 0.79450989 1.04789948
-0.50371510 0.99446517 2.88635421
1.80861533 0.20891906 -3.24458981
3.56058311 0.84250885 -0.20511618
3.23467016 0.21113092 2.22530627
2.41062593 0.87327909 -2.26161718
-1.57734990 1.48987913 -0.83309054
3.53423715 0.84402102 0.42355764
3.22328782 1.02343631 0.44523543
3.11912823 0.28076214 2.31418777
0.20821284 1.59281015 -1.02908981
3.93656182 0.04570360 -1.12073851
-1.72097754 1.41502583 1.17206943
3.40127921 0.08992278 -2.06619740
-2.69851518 -0.90369570 -1.92571473
0.51124859 1.64948225 -0.10904729
2.40622616 1.18691921 1.42328131
-0.20973404 0.71396840 3.28597713
1.26736093 0.03076044 -3.46764326
0.62938064 -1.44028533 1.73366773
-0.63584131 1.53963697 1.25746632
1.26890063 1.50238824 -1.09076047
-0.80796802 -0.91122061 2.96294141
0.35397819 0.68731135 -3.30273104
-0.20911849 0.15596272 -3.62285113
-2.67173290 0.12094472 -2.77027106
1.61991167 1.33333397 -1.64530027
-0.23928392 0.16499977 3.61905599
1.21611071 0.17585517 -3.46096516
-3.35111308 -0.25474259 2.06378531
-0.98973161 1.50656116 -1.27314413
-0.50965309 1.49029708 1.55137241
-0.44268575 0.54295808 -3.42224264
-2.52395344 0.94231284 -2.01831579
-3.49933577 0.84725153 -0.58088827
0.48738402 0.47436672 -3.46535254
-2.24234867 -0.22977662 -3.02108359
0.22020563 1.59444904 -1.01535475
3.97269225 0.46328339 -0.12627108
-0.36237693 0.45099404 -3.49233770
3.52775621 0.64244342 1.28377748
-3.42932606 0.44583979 -1.79163313
2.60661578 0.66729885 -2.42361546
-0.08826923 0.62415177 3.37598705
1.69492006 0.06506340 -3.32055211
-0.33225328 1.09047794 -2.73444986
3.92170286 -0.52559412 -0.16647184
-3.24982452 0.86537230 1.22199261
1.14358842 1.15067291 -2.43060780
0.60150611 0.05388232 3.60350990
3.10785294 0.21907432 2.35733271
0.40192544 0.36477113 -3.53718162
-1.05148101 0.13220680 -3.51157260
0.45212686 0.25112820 -3.57947326
1.97860563 1.39918780 -0.91592366
-3.20770669 -0.68011206 1.75453448
-3.32407689 0.61031026 -1.71027327
0.83592045 1.42207730 -1.73905849
0.22159262 0.14590839 -3.62455988
-0.78653234 1.46446764 1.58098876
3 187 149 48
3 48 87 187
3 48 149 76
3 156 78 173
3 242 22 215
3 215 175 242
3 251 187 137
3 210 221 232
3 232 173 210
3 156 173 232
3 46 221 210
3 210 187 46
3 46 187 87
3 103 187 210
3 210 173 103
3 137 187 103
3 103 78 137
3 103 173 78
3 137 78 61
3 61 215 137
3 175 215 61
3 61 78 156
3 156 175 61
3 171 156 178
3 171 214 156
3 242 175 209
3 136 251 218
3 82 68 22
3 82 242 102
3 82 22 242
3 22 68 200
3 149 187 110
3 187 251 110
3 178 156 109
3 156 232 109
3 112 46 87
3 112 87 48
3 137 215 148
3 28 236 51
3 28 200 68
3 68 236 28
3 246 50 22
3 22 200 246
3 225 110 251
3 225 251 136
3 136 169 225
3 169 117 225
3 150 175 156
3 150 209 175
3 83 28 51
3 83 163 96
3 71 181 127
3 8 250 127
3 127 181 8
3 118 169 59
3 196 69 243
3 84 215 22
3 22 50 84
3 72 91 218
3 72 148 215
3 215 84 72
3 72 84 91
3 137 148 72
3 72 251 137
3 72 218 251
3 176 91 122
3 114 39 122
3 122 39 176
3 1 7 193
3 193 7 167
3 58 119 55
3 102 242 180
3 180 82 102
3 200 28 205
3 205 246 200
3 205 28 50
3 50 246 205
3 189 69 76
3 147 225 117
3 117 189 147
3 149 110 147
3 110 225 147
3 147 76 149
3 147 189 76
3 52 171 178
3 198 15 25
3 209 150 158
3 158 150 238
3 194 248 109
3 194 106 248
3 194 109 232
3 232 106 194
3 51 236 100
3 236 163 100
3 100 83 51
3 163 83 100
3 130 163 236
3 96 163 212
3 163 130 212
3 155 181 71
3 111 96 58
3 111 83 96
3 114 83 111
3 58 55 111
3 111 39 114
3 93 59 169
3 93 169 136
3 59 93 152
3 76 69 165
3 69 196 165
3 48 76 165
3 91 84 120
3 114 122 120
3 120 122 91
3 120 84 50
3 120 83 114
3 50 28 120
3 28 83 120
3 136 218 170
3 170 7 192
3 167 7 170
3 218 91 245
3 134 69 118
3 73 199 104
3 36 236 68
3 82 180 234
3 68 82 234
3 234 36 68
3 118 69 38
3 69 189 38
3 38 189 117
3 38 169 118
3 38 117 169
3 221 46 168
3 133 159 252
3 95 232 221
3 95 106 232
3 95 177 77
3 77 248 95
3 248 106 95
3 113 159 133
3 31 67 229
3 133 252 229
3 244 3 190
3 217 127 250
3 254 52 178
3 171 52 64
3 52 254 64
3 214 171 179
3 138 198 25
3 150 198 138
3 238 150 138
3 15 198 144
3 108 158 238
3 108 238 201
3 201 99 108
3 141 212 181
3 141 155 94
3 181 155 141
3 96 212 141
3 94 58 141
3 58 96 141
3 63 130 8
3 63 212 130
3 8 181 63
3 181 212 63
3 11 145 164
3 164 193 11
3 1 193 164
3 145 152 164
3 118 59 128
3 128 145 11
3 128 134 118
3 11 134 128
3 125 152 192
3 192 7 125
3 125 7 1
3 1 164 125
3 125 164 152
3 192 152 40
3 40 152 93
3 40 93 136
3 136 170 40
3 40 170 192
3 59 152 166
3 166 152 145
3 166 128 59
3 145 128 166
3 98 66 21
3 21 176 98
3 21 65 176
3 98 167 223
3 167 170 223
3 9 170 218
3 218 245 9
3 9 245 66
3 42 245 91
3 42 91 176
3 176 65 42
3 65 21 42
3 243 69 123
3 69 134 123
3 123 33 243
3 0 58 94
3 0 119 58
3 94 155 161
3 161 0 94
3 227 0 161
3 6 134 146
3 146 0 227
3 6 146 208
3 70 196 243
3 243 33 70
3 11 193 213
3 213 55 119
3 213 10 55
3 98 176 60
3 32 111 55
3 55 10 32
3 39 111 32
3 176 39 32
3 32 60 176
3 16 250 8
3 16 73 250
3 36 234 131
3 159 168 237
3 237 252 159
3 237 168 46
3 74 168 159
3 221 168 74
3 74 95 221
3 177 95 74
3 31 229 49
3 49 14 31
3 80 229 252
3 80 47 5
3 252 47 80
3 80 49 229
3 25 15 4
3 190 3 97
3 97 44 190
3 97 4 44
3 25 4 97
3 253 217 222
3 201 238 30
3 211 127 233
3 127 217 233
3 35 113 133
3 133 229 35
3 35 229 67
3 92 254 178
3 81 220 26
3 26 220 135
3 135 248 77
3 109 248 135
3 135 220 109
3 224 179 171
3 171 64 224
3 15 144 224
3 249 15 224
3 224 64 249
3 214 179 224
3 224 144 214
3 207 180 242
3 242 209 207
3 209 89 207
3 238 138 23
3 23 30 238
3 3 30 23
3 23 138 25
3 25 97 23
3 23 97 3
3 214 144 240
3 240 144 198
3 240 198 150
3 156 214 240
3 240 150 156
3 158 108 13
3 180 207 13
3 67 18 241
3 241 35 67
3 241 18 116
3 98 223 124
3 124 66 98
3 124 9 66
3 27 21 66
3 27 42 21
3 66 245 27
3 245 42 27
3 121 134 6
3 121 123 134
3 119 0 197
3 0 146 197
3 197 146 134
3 197 134 11
3 11 213 197
3 197 213 119
3 227 161 216
3 161 90 216
3 6 208 188
3 188 208 45
3 98 60 56
3 56 167 98
3 56 193 167
3 56 213 193
3 199 73 204
3 73 16 204
3 132 131 234
3 132 17 104
3 132 234 17
3 104 199 132
3 199 131 132
3 5 47 230
3 230 70 5
3 196 70 230
3 46 112 2
3 2 237 46
3 252 237 2
3 2 47 252
3 159 113 41
3 41 74 159
3 41 113 177
3 177 74 41
3 14 49 140
3 49 80 140
3 140 80 5
3 12 14 140
3 62 15 249
3 62 4 15
3 44 4 62
3 26 135 235
3 77 142 235
3 235 135 77
3 250 86 37
3 37 86 222
3 37 217 250
3 222 217 37
3 99 86 29
3 29 108 99
3 250 73 29
3 29 86 250
3 17 108 29
3 104 17 29
3 29 73 104
3 185 86 99
3 185 99 201
3 201 30 185
3 3 244 185
3 185 30 3
3 116 18 195
3 154 253 222
3 154 195 253
3 217 253 101
3 101 233 217
3 253 195 101
3 143 142 129
3 177 113 157
3 113 35 157
3 157 35 129
3 129 142 157
3 77 177 157
3 157 142 77
3 220 81 57
3 178 109 57
3 109 220 57
3 57 92 178
3 254 92 57
3 57 81 254
3 158 13 183
3 209 158 183
3 183 89 209
3 183 207 89
3 183 13 207
3 88 108 17
3 88 13 108
3 180 13 88
3 88 234 180
3 17 234 88
3 20 18 67
3 20 67 31
3 31 226 20
3 182 216 90
3 182 90 211
3 211 233 182
3 45 208 182
3 208 216 182
3 31 14 202
3 202 226 31
3 12 45 202
3 202 14 12
3 45 182 202
3 170 9 54
3 9 124 54
3 19 90 161
3 19 85 90
3 19 161 155
3 19 155 71
3 71 85 19
3 211 90 139
3 90 85 139
3 139 127 211
3 71 127 139
3 139 85 71
3 255 208 146
3 255 216 208
3 255 146 227
3 227 216 255
3 6 188 115
3 115 121 6
3 33 123 115
3 123 121 115
3 107 70 33
3 33 115 107
3 107 115 188
3 5 70 107
3 12 140 107
3 107 140 5
3 184 45 12
3 184 188 45
3 12 107 184
3 184 107 188
3 10 213 239
3 213 56 239
3 239 56 60
3 239 32 10
3 60 32 239
3 191 204 16
3 8 130 191
3 191 16 8
3 191 130 236
3 203 131 199
3 199 204 203
3 36 131 203
3 204 191 203
3 236 36 203
3 203 191 236
3 53 230 47
3 53 112 48
3 48 165 53
3 53 165 196
3 196 230 53
3 151 235 186
3 26 235 151
3 222 86 174
3 86 185 174
3 174 154 222
3 116 195 34
3 195 154 34
3 34 154 244
3 34 244 190
3 34 241 116
3 190 241 34
3 233 101 206
3 206 182 233
3 105 143 129
3 129 35 105
3 35 241 105
3 228 235 142
3 142 143 228
3 228 143 186
3 162 101 195
3 162 195 18
3 18 20 162
3 162 206 101
3 24 182 226
3 226 202 24
3 24 202 182
3 79 124 223
3 79 54 124
3 79 223 170
3 170 54 79
3 47 2 160
3 160 53 47
3 160 2 112
3 112 53 160
3 44 62 231
3 231 153 44
3 231 151 186
3 186 153 231
3 190 44 219
3 44 153 219
3 219 241 190
3 219 105 241
3 143 105 219
3 186 143 219
3 219 153 186
3 244 154 172
3 154 174 172
3 172 185 244
3 172 174 185
3 186 235 126
3 126 228 186
3 235 228 126
3 206 162 75
3 226 182 75
3 182 206 75
3 75 20 226
3 75 162 20
3 247 62 249
3 247 231 62
3 151 231 247
3 43 247 249
3 151 247 43
3 249 64 43
3 43 64 254
3 26 151 43
3 43 81 26
3 254 81 43