ply
format ascii 1.0
comment https://github.com/mikedh/trimesh
element vertex 256
property float x
property float y
property float z
element face 508
property list uchar int vertex_indices
end_header
0.13775612 2.15715313 1.43309927
-0.92247814 0.67872453 2.22645926
-3.56820345 0.82993692 -0.71122724
1.77331555 1.26791477 -1.80404818
1.05131066 0.83017671 -2.16512609
-2.99111319 1.68513095 -0.47363180
-1.92853630 2.12871313 0.90402514
-0.62875015 0.38934273 2.31380391
2.57006216 1.99358284 0.45067564
0.00228510 0.09177665 2.36754465
0.01949661 1.13971424 2.14946532
-1.46830797 1.08575428 1.98400974
-2.21227026 2.22989631 -0.23699556
3.43525839 0.68940192 -1.00162327
-2.20756626 2.14082432 -0.60055226
1.19256663 0.34561729 -2.23809600
2.87258840 1.85153556 0.16912465
3.36732483 0.94288814 -0.92382634
-0.40414912 2.07449722 -1.50603235
0.67314231 2.56263924 0.66227752
-0.85038316 2.32869315 -1.10164142
0.68844515 0.40860894 2.30513096
2.94550991 -0.05244428 1.57767248
1.93835402 1.17769659 -1.78913713
-1.31126142 2.47250175 -0.57245284
1.68424785 0.77764314 -2.03250241
-0.17504194 0.38077378 -2.34362936
0.61495000 0.19701555 2.33358049
2.98502493 0.55815077 1.47307372
2.77671838 1.72881901 -0.74826944
2.01124907 1.34533811 -1.66611493
-2.16762090 2.05953288 -0.82656187
0.21355063 1.02263963 2.19053769
-2.62391043 1.92530000 0.55488318
0.44400117 1.95054674 -1.62378263
-1.31522048 1.35188305 -1.89632177
3.47929621 1.21550369 0.35665569
1.66888630 2.22722650 -0.90790570
-2.54057932 0.47961268 1.76473784
1.15423989 0.83895499 2.14382315
-1.31035805 -0.00538357 2.23482966
-2.46661234 0.85546499 -1.69250917
1.13911343 0.21016461 2.26121140
0.25099793 0.42281789 -2.33502793
0.65750939 1.09311867 -2.13231349
-1.64146793 2.45905375 -0.16966510
-3.53010201 0.33804980 -1.01982713
-3.40979242 1.06357443 -0.75434637
-3.91067791 0.37293845 0.06813619
-2.27067924 2.00900578 -0.82298279
2.62468839 0.26975763 1.75475729
2.91613579 1.08328652 1.28862453
0.37043047 0.11527652 -2.35676217
-3.66278100 0.93669951 -0.33823341
-0.25256947 0.11982475 2.36164999
0.28941134 1.46313679 1.98696923
-0.27175456 0.93036324 2.21937656
0.01995209 0.16041271 -2.36491227
0.77381426 1.70487916 1.78252697
-2.02746987 0.55454832 1.97447026
0.11357480 0.91296321 2.23004460
1.08087027 -2.49205828 -0.67322880
0.77918190 0.80807352 -2.21248507
2.42562795 2.01522255 0.63042307
0.43335962 0.29966983 -2.34030986
0.94774806 0.45240176 2.26597333
0.57160175 0.32479224 2.32689238
-1.02399755 1.92310393 -1.55355179
3.63723063 0.70794457 0.68424463
-3.18680191 1.11590874 1.00459564
-2.99340153 1.74684572 0.24156670
0.89912510 2.54465413 0.61763287
-0.09954964 -2.04505467 1.55474222
3.11494040 1.64782059 -0.21905166
-2.52023911 0.60485870 -1.74602520
-0.33567667 2.50357223 -0.88762796
-3.70365524 0.55885988 0.66308248
-0.98679364 0.48565733 -2.25428605
-0.55344677 -2.29966879 -1.21125579
-0.20471548 0.16660425 2.36118174
-2.65416002 1.78198254 -0.80862403
-0.03511659 0.22812442 -2.36043382
3.94562602 0.12036846 -0.02724889
2.27554011 1.36921954 1.52212811
2.14626718 0.09909863 1.98649764
0.69896346 2.58924556 0.56676275
2.10468650 1.93024373 -1.08489084
-3.83762240 0.49519122 -0.35360593
3.38902450 0.89136571 -0.93376696
3.46522951 0.24158378 -1.11715877
0.12358004 2.69383836 0.26375070
1.71969545 0.11108486 2.13084960
0.12457421 0.14293405 -2.36454606
-1.93196440 0.02564645 2.06613755
0.70209628 2.22203922 1.29147208
-1.68448186 0.38914713 -2.11550641
2.16043878 1.63695478 1.37473011
1.40000391 1.07365978 -2.00697827
0.21151762 0.56574154 2.31325889
2.24500585 1.80338824 -1.14691675
2.84708714 1.18093455 1.27851307
0.36185423 2.49049544 -0.91134518
3.94657564 0.06312133 -0.07244983
-2.56210995 -1.81516540 -0.85856801
3.43128204 1.33256221 -0.13971043
-0.77757174 1.28484130 -2.03348756
-1.34990740 0.04320424 -2.22655082
-2.55935287 2.06582546 0.03250961
3.17798519 1.03210211 -1.08127260
-0.60007882 0.01461244 -2.34184289
-3.27595568 -0.84419256 1.09885037
0.92313385 1.42735732 1.93654037
-3.77655602 0.64715248 -0.40191945
-2.33359408 1.11525869 -1.64464331
1.46409380 0.94174278 2.04050899
-2.53916192 1.97181988 0.56902325
0.18372272 2.04527473 -1.55164099
-3.31068230 0.11501169 1.28837919
-2.43201017 0.51950830 1.81096578
-0.04431039 1.58009803 1.92495477
2.11206603 0.42417973 1.96738577
-2.49517322 1.65904438 1.12785673
1.22086096 0.75770175 2.15340614
-2.60712361 1.61806393 1.08186483
-0.07017323 0.16687059 2.36407852
-0.92894214 0.53346866 2.25485420
-0.31906950 0.85168672 -2.24083138
1.11180341 2.59715295 -0.14767171
-1.87445867 0.82925296 1.95598924
-0.74717623 1.08958697 -2.12255907
2.77912807 1.83375764 0.51722890
3.47607183 1.28004003 0.12299185
3.51799798 1.22761500 -0.08931571
-2.44065237 1.42518640 -1.38596237
-1.93404508 1.62950993 1.49653208
-0.26440030 0.34180295 -2.34496331
-1.61510372 -1.04361689 1.96070910
0.08098762 -2.59433389 0.68708503
1.91118097 0.67736846 -1.98662841
0.59704399 2.67243767 0.18590005
-2.60740423 1.93095398 -0.56634879
1.06814146 2.17221355 1.26547539
-0.72076607 0.92925543 -2.18372202
-0.44056237 0.98183250 -2.19247603
1.40991318 0.25313777 -2.20165229
-1.60411525 0.86349541 2.02947378
-0.77048069 2.29066181 1.18147337
-3.73978925 0.23923090 0.73207277
0.37272191 -2.42157245 1.04198790
-3.89014482 0.12672523 0.39340338
2.74906874 0.21446054 -1.69023073
-0.07811252 0.56266868 -2.31702113
-1.54461086 0.24054185 2.17019939
0.26661333 1.02659237 -2.18719959
1.00159574 2.00594664 -1.47778678
0.93798137 2.47917843 0.77754885
0.54167867 -2.02170229 -1.54538405
-1.64009202 1.05331731 -1.94897604
3.02163363 0.46106675 -1.47176313
-2.88021302 0.93212086 -1.40148342
-3.65157461 0.83105969 -0.53916824
-0.04173408 2.45593357 1.00502038
-0.14056744 2.45002866 -1.01131284
2.51523709 1.62673151 1.14697480
-1.30459905 0.87605578 2.10084891
-3.53861809 0.94131321 0.65827107
-1.77172530 0.78762704 2.00230694
-0.33077246 0.38105041 2.33701468
-3.04428029 0.46540797 -1.45370328
-2.25274086 0.07848649 1.94464099
-0.28199452 0.11788093 2.36060858
0.63306123 0.06074838 -2.33774471
1.19657099 1.94064021 -1.49107122
-1.70858681 -1.96349931 -1.27283537
1.56041670 1.97655654 -1.32423067
1.58126342 -2.33484626 -0.74520022
1.12980318 0.68048984 2.19088101
-1.87090516 0.78477681 -1.97049141
0.15260647 0.10986774 -2.36551023
1.10163283 0.08244578 -2.27376580
3.84997416 0.17396803 -0.50586432
2.01487899 2.19542456 0.68676221
-1.05805790 2.60076690 -0.21614626
3.45043302 0.41608664 -1.09394145
-2.11186314 2.29147315 -0.02608937
1.78969669 1.80019116 -1.40921998
-0.22531368 0.91743296 -2.22575116
-3.51301384 -1.13311136 0.43739352
-2.17928743 2.20214558 0.44980529
-3.36621881 0.27847350 1.21517217
0.58803773 1.56956053 -1.89953315
2.84855866 1.80507183 0.45488524
-1.20358884 0.04849569 2.25594187
-0.39565378 0.92190379 2.21516633
-1.33151567 0.03783239 -2.23034453
0.41892895 2.24399638 -1.30641139
-3.27857804 1.29575419 0.68138158
-0.48062232 1.62185836 1.87681043
1.72569966 0.34072295 -2.10974789
3.39734864 1.37403500 -0.13337386
3.08637714 0.34433022 1.44697344
2.30011106 1.42421770 -1.47058415
-1.50503647 2.42982149 -0.54170513
3.37221050 1.37650120 0.27541226
3.07551670 1.66910696 0.28950796
2.97613215 0.45789072 1.50476730
0.19866735 2.59769011 -0.66915083
3.75609064 0.07453731 -0.72874415
-1.64207947 2.30774426 0.76212132
3.24534798 0.14665371 -1.34351528
-2.57480216 -1.47382367 -1.25216842
0.48781049 2.69011569 -0.07090643
2.29591298 1.93572879 0.92546821
-0.20011881 1.16440034 2.13665938
1.20925891 0.05016674 -2.25478530
0.60052675 -2.34893966 1.12729251
-0.60669124 2.51097083 0.81764936
1.21072805 2.45022249 -0.70925134
-0.77092683 -1.48609602 1.92660999
0.33775011 1.12092578 -2.14755344
-0.19953148 0.25435725 -2.35570693
-2.54924774 0.19724692 -1.80132902
1.54564703 2.17451429 -1.06983292
-0.22831398 0.26909563 2.35323930
1.16035819 0.28679955 -2.25044298
-3.19748163 -0.41545585 1.34194684
-0.94435745 2.45702791 -0.82784367
-0.48628810 2.43050313 1.00875759
-0.42239088 0.88550216 -2.22526407
-2.40824294 1.53680384 -1.31238079
-3.33890915 1.38176978 -0.37771425
0.46503997 0.77363753 -2.25329566
-2.13954830 -0.37473923 -1.96441627
0.21011034 2.60036302 -0.66021985
3.79056478 0.75556195 -0.08210596
-0.34576380 0.73551941 -2.27084255
3.36602688 1.04775131 0.83475792
-3.27210903 0.72711343 -1.16498375
2.48711562 1.08828759 -1.57592118
-0.08422253 1.01791978 2.19518709
1.61721671 0.10611093 -2.15914130
-0.31702116 1.77844405 -1.77803683
3.74191284 -0.85718358 -0.10824592
-3.10083675 1.41132259 0.79458314
1.09116077 1.87661517 -1.58046782
0.57393014 0.08787587 2.34313059
2.96537399 0.35728502 1.53282177
0.38349923 0.59489977 -2.30000162
-1.00327599 0.21561408 -2.28334975
0.43139917 0.40956119 -2.32750106
1.88789678 2.28191447 -0.59556621
-3.06064963 -1.10918450 1.14086080
-3.17168498 0.99534583 -1.11208057
0.79759777 2.31924462 -1.13079774
0.21143374 0.23795980 -2.35681820
-0.75047392 2.38837814 1.02801526
3 187 149 48
3 48 87 187
3 48 149 76
3 156 78 173
3 242 22 215
3 215 175 242
3 251 187 137
3 210 221 232
3 232 173 210
3 156 173 232
3 46 221 210
3 210 187 46
3 46 187 87
3 103 187 210
3 210 173 103
3 137 187 103
3 103 78 137
3 103 173 78
3 137 78 61
3 61 215 137
3 175 215 61
3 61 78 156
3 156 175 61
3 171 156 178
3 171 214 156
3 242 175 209
3 136 251 218
3 82 68 22
3 82 242 102
3 82 22 242
3 22 68 200
3 149 187 110
3 187 251 110
3 178 156 109
3 156 232 109
3 112 46 87
3 112 87 48
3 137 215 148
3 28 236 51
3 28 200 68
3 68 236 28
3 246 50 22
3 22 200 246
3 225 110 251
3 225 251 136
3 136 169 225
3 169 117 225
3 150 175 156
3 150 209 175
3 83 28 51
3 83 163 96
3 71 181 127
3 8 250 127
3 127 181 8
3 118 169 59
3 196 69 243
3 84 215 22
3 22 50 84
3 72 91 218
3 72 148 215
3 215 84 72
3 72 84 91
3 137 148 72
3 72 251 137
3 72 218 251
3 176 91 122
3 114 39 122
3 122 39 176
3 1 7 193
3 193 7 167
3 58 119 55
3 102 242 180
3 180 82 102
3 200 28 205
3 205 246 200
3 205 28 50
3 50 246 205
3 189 69 76
3 147 225 117
3 117 189 147
3 149 110 147
3 110 225 147
3 147 76 149
3 147 189 76
3 52 171 178
3 198 15 25
3 209 150 158
3 158 150 238
3 194 248 109
3 194 106 248
3 194 109 232
3 232 106 194
3 51 236 100
3 236 163 100
3 100 83 51
3 163 83 100
3 130 163 236
3 96 163 212
3 163 130 212
3 155 181 71
3 111 96 58
3 111 83 96
3 114 83 111
3 58 55 111
3 111 39 114
3 93 59 169
3 93 169 136
3 59 93 152
3 76 69 165
3 69 196 165
3 48 76 165
3 91 84 120
3 114 122 120
3 120 122 91
3 120 84 50
3 120 83 114
3 50 28 120
3 28 83 120
3 136 218 170
3 170 7 192
3 167 7 170
3 218 91 245
3 134 69 118
3 73 199 104
3 36 236 68
3 82 180 234
3 68 82 234
3 234 36 68
3 118 69 38
3 69 189 38
3 38 189 117
3 38 169 118
3 38 117 169
3 221 46 168
3 133 159 252
3 95 232 221
3 95 106 232
3 95 177 77
3 77 248 95
3 248 106 95
3 113 159 133
3 31 67 229
3 133 252 229
3 244 3 190
3 217 127 250
3 254 52 178
3 171 52 64
3 52 254 64
3 214 171 179
3 138 198 25
3 150 198 138
3 238 150 138
3 15 198 144
3 108 158 238
3 108 238 201
3 201 99 108
3 141 212 181
3 141 155 94
3 181 155 141
3 96 212 141
3 94 58 141
3 58 96 141
3 63 130 8
3 63 212 130
3 8 181 63
3 181 212 63
3 11 145 164
3 164 193 11
3 1 193 164
3 145 152 164
3 118 59 128
3 128 145 11
3 128 134 118
3 11 134 128
3 125 152 192
3 192 7 125
3 125 7 1
3 1 164 125
3 125 164 152
3 192 152 40
3 40 152 93
3 40 93 136
3 136 170 40
3 40 170 192
3 59 152 166
3 166 152 145
3 166 128 59
3 145 128 166
3 98 66 21
3 21 176 98
3 21 65 176
3 98 167 223
3 167 170 223
3 9 170 218
3 218 245 9
3 9 245 66
3 42 245 91
3 42 91 176
3 176 65 42
3 65 21 42
3 243 69 123
3 69 134 123
3 123 33 243
3 0 58 94
3 0 119 58
3 94 155 161
3 161 0 94
3 227 0 161
3 6 134 146
3 146 0 227
3 6 146 208
3 70 196 243
3 243 33 70
3 11 193 213
3 213 55 119
3 213 10 55
3 98 176 60
3 32 111 55
3 55 10 32
3 39 111 32
3 176 39 32
3 32 60 176
3 16 250 8
3 16 73 250
3 36 234 131
3 159 168 237
3 237 252 159
3 237 168 46
3 74 168 159
3 221 168 74
3 74 95 221
3 177 95 74
3 31 229 49
3 49 14 31
3 80 229 252
3 80 47 5
3 252 47 80
3 80 49 229
3 25 15 4
3 190 3 97
3 97 44 190
3 97 4 44
3 25 4 97
3 253 217 222
3 201 238 30
3 211 127 233
3 127 217 233
3 35 113 133
3 133 229 35
3 35 229 67
3 92 254 178
3 81 220 26
3 26 220 135
3 135 248 77
3 109 248 135
3 135 220 109
3 224 179 171
3 171 64 224
3 15 144 224
3 249 15 224
3 224 64 249
3 214 179 224
3 224 144 214
3 207 180 242
3 242 209 207
3 209 89 207
3 238 138 23
3 23 30 238
3 3 30 23
3 23 138 25
3 25 97 23
3 23 97 3
3 214 144 240
3 240 144 198
3 240 198 150
3 156 214 240
3 240 150 156
3 158 108 13
3 180 207 13
3 67 18 241
3 241 35 67
3 241 18 116
3 98 223 124
3 124 66 98
3 124 9 66
3 27 21 66
3 27 42 21
3 66 245 27
3 245 42 27
3 121 134 6
3 121 123 134
3 119 0 197
3 0 146 197
3 197 146 134
3 197 134 11
3 11 213 197
3 197 213 119
3 227 161 216
3 161 90 216
3 6 208 188
3 188 208 45
3 98 60 56
3 56 167 98
3 56 193 167
3 56 213 193
3 199 73 204
3 73 16 204
3 132 131 234
3 132 17 104
3 132 234 17
3 104 199 132
3 199 131 132
3 5 47 230
3 230 70 5
3 196 70 230
3 46 112 2
3 2 237 46
3 252 237 2
3 2 47 252
3 159 113 41
3 41 74 159
3 41 113 177
3 177 74 41
3 14 49 140
3 49 80 140
3 140 80 5
3 12 14 140
3 62 15 249
3 62 4 15
3 44 4 62
3 26 135 235
3 77 142 235
3 235 135 77
3 250 86 37
3 37 86 222
3 37 217 250
3 222 217 37
3 99 86 29
3 29 108 99
3 250 73 29
3 29 86 250
3 17 108 29
3 104 17 29
3 29 73 104
3 185 86 99
3 185 99 201
3 201 30 185
3 3 244 185
3 185 30 3
3 116 18 195
3 154 253 222
3 154 195 253
3 217 253 101
3 101 233 217
3 253 195 101
3 143 142 129
3 177 113 157
3 113 35 157
3 157 35 129
3 129 142 157
3 77 177 157
3 157 142 77
3 220 81 57
3 178 109 57
3 109 220 57
3 57 92 178
3 254 92 57
3 57 81 254
3 158 13 183
3 209 158 183
3 183 89 209
3 183 207 89
3 183 13 207
3 88 108 17
3 88 13 108
3 180 13 88
3 88 234 180
3 17 234 88
3 20 18 67
3 20 67 31
3 31 226 20
3 182 216 90
3 182 90 211
3 211 233 182
3 45 208 182
3 208 216 182
3 31 14 202
3 202 226 31
3 12 45 202
3 202 14 12
3 45 182 202
3 170 9 54
3 9 124 54
3 19 90 161
3 19 85 90
3 19 161 155
3 19 155 71
3 71 85 19
3 211 90 139
3 90 85 139
3 139 127 211
3 71 127 139
3 139 85 71
3 255 208 146
3 255 216 208
3 255 146 227
3 227 216 255
3 6 188 115
3 115 121 6
3 33 123 115
3 123 121 115
3 107 70 33
3 33 115 107
3 107 115 188
3 5 70 107
3 12 140 107
3 107 140 5
3 184 45 12
3 184 188 45
3 12 107 184
3 184 107 188
3 10 213 239
3 213 56 239
3 239 56 60
3 239 32 10
3 60 32 239
3 191 204 16
3 8 130 191
3 191 16 8
3 191 130 236
3 203 131 199
3 199 204 203
3 36 131 203
3 204 191 203
3 236 36 203
3 203 191 236
3 53 230 47
3 53 112 48
3 48 165 53
3 53 165 196
3 196 230 53
3 151 235 186
3 26 235 151
3 222 86 174
3 86 185 174
3 174 154 222
3 116 195 34
3 195 154 34
3 34 154 244
3 34 244 190
3 34 241 116
3 190 241 34
3 233 101 206
3 206 182 233
3 105 143 129
3 129 35 105
3 35 241 105
3 228 235 142
3 142 143 228
3 228 143 186
3 162 101 195
3 162 195 18
3 18 20 162
3 162 206 101
3 24 182 226
3 226 202 24
3 24 202 182
3 79 124 223
3 79 54 124
3 79 223 170
3 170 54 79
3 47 2 160
3 160 53 47
3 160 2 112
3 112 53 160
3 44 62 231
3 231 153 44
3 231 151 186
3 186 153 231
3 190 44 219
3 44 153 219
3 219 241 190
3 219 105 241
3 143 105 219
3 186 143 219
3 219 153 186
3 244 154 172
3 154 174 172
3 172 185 244
3 172 174 185
3 186 235 126
3 126 228 186
3 235 228 126
3 206 162 75
3 226 182 75
3 182 206 75
3 75 20 226
3 75 162 20
3 247 62 249
3 247 231 62
3 151 231 247
3 43 247 249
3 151 247 43
3 249 64 43
3 43 64 254
3 26 151 43
3 43 81 26
3 254 81 43