ply
format ascii 1.0
comment https://github.com/mikedh/trimesh
element vertex 256
property float x
property float y
property float z
element face 508
property list uchar int vertex_indices
end_header
0.03917862 3.16197824 2.17956400
-0.26235801 0.99488169 3.38616490
-1.01481736 1.21653044 -1.08168721
0.50434101 1.85852301 -2.74373055
0.29899871 1.21688187 -3.29288483
-0.85068959 2.47008276 -0.72033441
-0.54848665 3.12029052 1.37490869
-0.17882012 0.57070273 3.51900482
0.73094028 2.92221498 0.68542099
0.00064990 0.13452719 3.60073781
0.00554495 1.67060518 3.26906657
-0.41759512 1.59151030 3.01742959
-0.62918222 3.26860595 -0.36044046
0.97700697 1.01053274 -1.52334309
-0.62784439 3.13804340 -0.91336453
0.33917272 0.50660950 -3.40386295
0.81698042 2.71400046 0.25721735
0.95768631 1.38209546 -1.40502381
-0.11494230 3.04082012 -2.29048586
0.19144550 3.75634384 1.00724089
-0.24185380 3.41342330 -1.67545819
0.19579771 0.59894335 3.50581455
0.83771974 -0.07687338 2.39944172
0.55127889 1.72628033 -2.72105265
-0.37293020 3.62421942 -0.87062883
0.47900966 1.13987768 -3.09118056
-0.04978292 0.55814230 -3.56436563
0.17489527 0.28878751 3.54908276
0.84895802 0.81814337 2.24036002
0.78971446 2.53412127 -1.13802373
0.57201064 1.97201097 -2.53395128
-0.61648369 3.01888514 -1.25709665
0.06073501 1.49899614 3.33153248
-0.74625498 2.82212543 0.84390765
0.12627645 2.85913229 -2.46956944
-0.37405616 1.98160458 -2.88406706
0.98953158 1.78169823 0.54242849
0.47464076 3.26469231 -1.38081050
-0.72255516 0.70302141 2.68394446
0.32827240 1.22974920 3.26048565
-0.37267324 -0.00789130 3.39889503
-0.70151854 1.25394976 -2.57409382
0.32397032 0.30806154 3.43901849
0.07138523 0.61977100 -3.55128407
0.18699940 1.60230505 -3.24298096
-0.46684280 3.60450721 -0.25803930
-1.00398099 0.49551699 -1.55102897
-0.96976435 1.55899882 -1.14726603
-1.11221898 0.54665715 0.10362658
-0.64579403 2.94482207 -1.25165343
0.74647623 0.39541361 2.66876531
0.82936561 1.58789301 1.95983589
0.10535253 0.16897355 -3.58433890
-1.04171574 1.37302411 -0.51441056
-0.07183219 0.17564040 3.59177303
0.08231022 2.14468145 3.02193046
-0.07728855 1.36373639 3.37539291
0.00567449 0.23513466 -3.59673452
0.22007716 2.49903011 2.71099949
-0.57662392 0.81286287 3.00292110
0.03230132 1.33823121 3.39161777
0.30740562 -3.65288568 -1.02389646
0.22160375 1.18448281 -3.36491179
0.68986237 2.95393491 0.95879424
0.12324994 0.43925923 -3.55931711
0.26954493 0.66313535 3.44626069
0.16256678 0.47608393 3.53891087
-0.29123074 2.81890631 -2.36275697
1.03444910 1.03771269 1.04065013
-0.90634453 1.63571095 1.52786374
-0.85134035 2.56054521 0.36739260
0.25571629 3.72998118 0.93934196
-0.02831248 -2.99766302 2.36456752
0.88590676 2.41539311 -0.33315006
-0.71677029 0.88660836 -2.65548491
-0.09546835 3.66976285 -1.34997058
-1.05334055 0.81918275 1.00846505
-0.28064972 0.71188170 -3.42848587
-0.15740339 -3.37087917 -1.84216774
-0.05822224 0.24421029 3.59106064
-0.75485820 2.61204910 -1.22981548
-0.00998736 0.33438721 -3.58992338
1.12215841 0.17643738 -0.04144214
0.64717656 2.00701666 2.31496549
0.61041057 0.14525983 3.02121329
0.19878918 3.79534364 0.86197490
0.59858477 2.82937193 -1.64998257
-1.09144163 0.72585654 -0.53779018
0.96385777 1.30657339 -1.42014229
0.98553097 0.35411608 -1.69905806
0.03514687 3.94865704 0.40113169
0.48909116 0.16282937 3.24075437
0.03542961 0.20951428 -3.59617734
-0.54946166 0.03759284 3.14233541
0.19968016 3.25708890 1.96416676
-0.47907621 0.57041603 -3.21741939
0.61444104 2.39946580 2.09079170
0.39816907 1.57378209 -3.05236197
0.06015681 0.82926995 3.51817608
0.63849247 2.64342570 -1.74431622
0.80972773 1.73102653 1.94445765
0.10291340 3.65059495 -1.38604140
1.12242854 0.09252393 -0.11018708
-0.72867864 -2.66068888 -1.30577397
0.97587609 1.95328391 -0.21248201
-0.22114582 1.88333404 -3.09267902
-0.38392133 0.06332923 -3.38630390
-0.72789448 3.02810907 0.04944303
0.90383703 1.51286638 -1.64447963
-0.17066583 0.02141907 -3.56164885
-0.93170041 -1.23742652 1.67121327
0.26254451 2.09223557 2.94523454
-1.07407403 0.94860303 -0.61126894
-0.66368741 1.63475811 -2.50129580
0.41639659 1.38041663 3.10335755
-0.72215211 2.89031458 0.86541283
0.05225179 2.99798560 -2.35985088
-0.94157684 0.16858537 1.95946288
-0.69167745 0.76150084 2.75425148
-0.01260213 2.31612468 2.92761421
0.60068357 0.62176716 2.99214649
-0.70964146 2.43184495 1.71532834
0.34721979 1.11064732 3.27505994
-0.74148077 2.37177539 1.64538050
-0.01995767 0.24460070 3.59546638
-0.26419643 0.78196406 3.42934966
-0.09074518 1.24841154 -3.40802312
0.31620321 3.80693436 -0.22459011
-0.53310668 1.21552777 2.97481394
-0.21250115 1.59712827 -3.22814584
0.79039985 2.68794155 0.78664017
0.98861456 1.87629640 0.18705516
1.00053859 1.79945111 -0.13583797
-0.69413537 2.08905339 -2.10787463
-0.55005342 2.38855314 2.27603722
-0.07519695 0.50101840 -3.56639433
-0.45934466 -1.52974486 2.98199224
0.02303334 -3.80280209 1.04497004
0.54355073 0.99289393 -3.02141213
0.16980271 3.91728759 0.28273061
-0.74156058 2.83041310 -0.86134535
0.30378550 3.18405390 1.92462897
-0.20498997 1.36211252 -3.32116675
-0.12529844 1.43918049 -3.33448052
0.40098730 0.37105203 -3.34843659
-0.45621946 1.26572073 3.08657432
-0.21912909 3.35767651 1.79687262
-1.06361735 0.35066721 1.11339068
0.10600422 -3.54956675 1.58473265
-1.10637927 0.18575518 0.59831709
0.78185076 0.31435853 -2.57062840
-0.02221564 0.82476574 -3.52389789
-0.43929610 0.35258880 3.30060077
0.07582635 1.50478995 -3.32645583
0.28485951 2.94033790 -2.24752808
0.26676723 3.63400626 1.18255413
0.15405649 -2.96343279 -2.35033488
-0.46645147 1.54396379 -2.96414757
0.85936975 0.67583656 -2.23836660
-0.81914890 1.36631274 -2.13148022
-1.03852856 1.21817613 -0.82000715
-0.01186941 3.59993362 1.52850974
-0.03997818 3.59127831 -1.53807974
0.71534771 2.38448048 1.74440444
-0.37103537 1.28413188 3.19512725
-1.00640309 1.37978697 1.00114763
-0.50388873 1.15451217 3.04525733
-0.09407356 0.55854779 3.55430555
-0.86581063 0.68220001 -2.21090007
-0.64069229 0.11504633 2.95755458
-0.08020084 0.17279112 3.59018898
0.18004622 0.08904562 -3.55541611
0.34031159 2.84461117 -2.26773190
-0.48593178 -2.87811828 -1.93582261
0.44379139 2.89725757 -2.01398849
0.44972029 -3.42244267 -1.13335598
0.32132244 0.99746925 3.33205462
-0.53209609 1.15033424 -2.99686980
0.04340215 0.16104530 -3.59764385
0.31331065 0.12084990 -3.45811200
1.09495449 0.25500420 -0.76935613
0.57304305 3.21807671 1.04447901
-0.30091769 3.81223178 -0.32873130
0.98132271 0.60990423 -1.66374743
-0.60062587 3.35886574 -0.03967866
0.50899988 2.63873959 -2.14324641
-0.06408049 1.34478307 -3.38508773
-0.99912107 -1.66092670 0.66522056
-0.61980170 3.22792864 0.68409735
-0.95737177 0.40818942 1.84812427
0.16724128 2.30067849 -2.88895130
0.81014621 2.64589357 0.69182330
-0.34230748 0.07108550 3.43100429
-0.11252619 1.35133636 3.36898971
-0.37869060 0.05545512 -3.39207363
0.11914577 3.28927398 -1.98688757
-0.93244624 1.89933038 1.03629577
-0.13669172 2.37733722 2.85439277
0.49079877 0.49943534 -3.20866132
0.96622527 2.01407528 -0.20284487
0.87778318 0.50472295 2.20066476
0.65416467 2.08763361 -2.23657370
-0.42804092 3.56165814 -0.82386547
0.95907581 2.01769018 0.41886744
0.87469441 2.44659472 0.44030520
0.84642887 0.67118114 2.28856206
0.05650212 3.80772209 -1.01769435
1.06825352 0.10925759 -1.10832822
-0.46701673 3.38271642 1.15909076
0.92299539 0.21496657 -2.04331779
-0.73228836 -2.16034651 -1.90439069
0.13873607 3.94320035 -0.10783977
0.65297067 2.83741188 1.40752089
-0.05691493 1.70679045 3.24959040
0.34392011 0.07353494 -3.42924500
0.17079322 -3.44310093 1.71447027
-0.17254643 3.68060803 1.24354196
0.34433791 3.59156227 -1.07868218
-0.21925597 -2.17833543 2.93013167
0.09605805 1.64306498 -3.26615906
-0.05674789 0.37283957 -3.58273411
-0.72502053 0.28912663 -2.73959494
0.43959081 3.18742633 -1.62708139
-0.06493379 0.39444324 3.57898116
0.33001247 0.42039385 -3.42264080
-0.90938199 -0.60897964 2.04093242
-0.26858062 3.60153770 -1.25904620
-0.13830310 3.56265736 1.53419352
-0.12013037 1.29797852 -3.38434720
-0.68491799 2.25266337 -1.99596632
-0.94960475 2.02541280 -0.57445592
0.13226001 1.13400614 -3.42697978
-0.60849971 -0.54929680 -2.98763013
0.05975657 3.81163979 -1.00411141
1.07805812 1.10751069 -0.12487285
-0.09833719 1.07813215 -3.45366597
0.95731711 1.53580511 1.26956189
-0.93060637 1.06581068 -1.77179384
0.70734984 1.59522367 -2.39677811
-0.02395337 1.49207759 3.33860373
0.45994562 0.15553853 -3.28378272
-0.09016262 2.60686231 -2.70417047
1.06422126 -1.25646889 -0.16462845
-0.88189554 2.06873178 1.20846117
0.31033233 2.75076246 -2.40369296
0.16322899 0.12880938 3.56360722
0.84336919 0.52371216 2.33122921
0.10906935 0.87201041 -3.49801350
-0.28533739 0.31604943 -3.47268796
0.12269238 0.60033917 -3.53983665
0.53692853 3.34485435 -0.90578139
-0.87046617 -1.62585449 1.73510599
-0.90204525 1.45898855 -1.69133484
0.22684135 3.39957356 -1.71980131
0.06013295 0.34880403 -3.58442402
-0.21343903 3.50091028 1.56348205
3 187 149 48
3 48 87 187
3 48 149 76
3 156 78 173
3 242 22 215
3 215 175 242
3 251 187 137
3 210 221 232
3 232 173 210
3 156 173 232
3 46 221 210
3 210 187 46
3 46 187 87
3 103 187 210
3 210 173 103
3 137 187 103
3 103 78 137
3 103 173 78
3 137 78 61
3 61 215 137
3 175 215 61
3 61 78 156
3 156 175 61
3 171 156 178
3 171 214 156
3 242 175 209
3 136 251 218
3 82 68 22
3 82 242 102
3 82 22 242
3 22 68 200
3 149 187 110
3 187 251 110
3 178 156 109
3 156 232 109
3 112 46 87
3 112 87 48
3 137 215 148
3 28 236 51
3 28 200 68
3 68 236 28
3 246 50 22
3 22 200 246
3 225 110 251
3 225 251 136
3 136 169 225
3 169 117 225
3 150 175 156
3 150 209 175
3 83 28 51
3 83 163 96
3 71 181 127
3 8 250 127
3 127 181 8
3 118 169 59
3 196 69 243
3 84 215 22
3 22 50 84
3 72 91 218
3 72 148 215
3 215 84 72
3 72 84 91
3 137 148 72
3 72 251 137
3 72 218 251
3 176 91 122
3 114 39 122
3 122 39 176
3 1 7 193
3 193 7 167
3 58 119 55
3 102 242 180
3 180 82 102
3 200 28 205
3 205 246 200
3 205 28 50
3 50 246 205
3 189 69 76
3 147 225 117
3 117 189 147
3 149 110 147
3 110 225 147
3 147 76 149
3 147 189 76
3 52 171 178
3 198 15 25
3 209 150 158
3 158 150 238
3 194 248 109
3 194 106 248
3 194 109 232
3 232 106 194
3 51 236 100
3 236 163 100
3 100 83 51
3 163 83 100
3 130 163 236
3 96 163 212
3 163 130 212
3 155 181 71
3 111 96 58
3 111 83 96
3 114 83 111
3 58 55 111
3 111 39 114
3 93 59 169
3 93 169 136
3 59 93 152
3 76 69 165
3 69 196 165
3 48 76 165
3 91 84 120
3 114 122 120
3 120 122 91
3 120 84 50
3 120 83 114
3 50 28 120
3 28 83 120
3 136 218 170
3 170 7 192
3 167 7 170
3 218 91 245
3 134 69 118
3 73 199 104
3 36 236 68
3 82 180 234
3 68 82 234
3 234 36 68
3 118 69 38
3 69 189 38
3 38 189 117
3 38 169 118
3 38 117 169
3 221 46 168
3 133 159 252
3 95 232 221
3 95 106 232
3 95 177 77
3 77 248 95
3 248 106 95
3 113 159 133
3 31 67 229
3 133 252 229
3 244 3 190
3 217 127 250
3 254 52 178
3 171 52 64
3 52 254 64
3 214 171 179
3 138 198 25
3 150 198 138
3 238 150 138
3 15 198 144
3 108 158 238
3 108 238 201
3 201 99 108
3 141 212 181
3 141 155 94
3 181 155 141
3 96 212 141
3 94 58 141
3 58 96 141
3 63 130 8
3 63 212 130
3 8 181 63
3 181 212 63
3 11 145 164
3 164 193 11
3 1 193 164
3 145 152 164
3 118 59 128
3 128 145 11
3 128 134 118
3 11 134 128
3 125 152 192
3 192 7 125
3 125 7 1
3 1 164 125
3 125 164 152
3 192 152 40
3 40 152 93
3 40 93 136
3 136 170 40
3 40 170 192
3 59 152 166
3 166 152 145
3 166 128 59
3 145 128 166
3 98 66 21
3 21 176 98
3 21 65 176
3 98 167 223
3 167 170 223
3 9 170 218
3 218 245 9
3 9 245 66
3 42 245 91
3 42 91 176
3 176 65 42
3 65 21 42
3 243 69 123
3 69 134 123
3 123 33 243
3 0 58 94
3 0 119 58
3 94 155 161
3 161 0 94
3 227 0 161
3 6 134 146
3 146 0 227
3 6 146 208
3 70 196 243
3 243 33 70
3 11 193 213
3 213 55 119
3 213 10 55
3 98 176 60
3 32 111 55
3 55 10 32
3 39 111 32
3 176 39 32
3 32 60 176
3 16 250 8
3 16 73 250
3 36 234 131
3 159 168 237
3 237 252 159
3 237 168 46
3 74 168 159
3 221 168 74
3 74 95 221
3 177 95 74
3 31 229 49
3 49 14 31
3 80 229 252
3 80 47 5
3 252 47 80
3 80 49 229
3 25 15 4
3 190 3 97
3 97 44 190
3 97 4 44
3 25 4 97
3 253 217 222
3 201 238 30
3 211 127 233
3 127 217 233
3 35 113 133
3 133 229 35
3 35 229 67
3 92 254 178
3 81 220 26
3 26 220 135
3 135 248 77
3 109 248 135
3 135 220 109
3 224 179 171
3 171 64 224
3 15 144 224
3 249 15 224
3 224 64 249
3 214 179 224
3 224 144 214
3 207 180 242
3 242 209 207
3 209 89 207
3 238 138 23
3 23 30 238
3 3 30 23
3 23 138 25
3 25 97 23
3 23 97 3
3 214 144 240
3 240 144 198
3 240 198 150
3 156 214 240
3 240 150 156
3 158 108 13
3 180 207 13
3 67 18 241
3 241 35 67
3 241 18 116
3 98 223 124
3 124 66 98
3 124 9 66
3 27 21 66
3 27 42 21
3 66 245 27
3 245 42 27
3 121 134 6
3 121 123 134
3 119 0 197
3 0 146 197
3 197 146 134
3 197 134 11
3 11 213 197
3 197 213 119
3 227 161 216
3 161 90 216
3 6 208 188
3 188 208 45
3 98 60 56
3 56 167 98
3 56 193 167
3 56 213 193
3 199 73 204
3 73 16 204
3 132 131 234
3 132 17 104
3 132 234 17
3 104 199 132
3 199 131 132
3 5 47 230
3 230 70 5
3 196 70 230
3 46 112 2
3 2 237 46
3 252 237 2
3 2 47 252
3 159 113 41
3 41 74 159
3 41 113 177
3 177 74 41
3 14 49 140
3 49 80 140
3 140 80 5
3 12 14 140
3 62 15 249
3 62 4 15
3 44 4 62
3 26 135 235
3 77 142 235
3 235 135 77
3 250 86 37
3 37 86 222
3 37 217 250
3 222 217 37
3 99 86 29
3 29 108 99
3 250 73 29
3 29 86 250
3 17 108 29
3 104 17 29
3 29 73 104
3 185 86 99
3 185 99 201
3 201 30 185
3 3 244 185
3 185 30 3
3 116 18 195
3 154 253 222
3 154 195 253
3 217 253 101
3 101 233 217
3 253 195 101
3 143 142 129
3 177 113 157
3 113 35 157
3 157 35 129
3 129 142 157
3 77 177 157
3 157 142 77
3 220 81 57
3 178 109 57
3 109 220 57
3 57 92 178
3 254 92 57
3 57 81 254
3 158 13 183
3 209 158 183
3 183 89 209
3 183 207 89
3 183 13 207
3 88 108 17
3 88 13 108
3 180 13 88
3 88 234 180
3 17 234 88
3 20 18 67
3 20 67 31
3 31 226 20
3 182 216 90
3 182 90 211
3 211 233 182
3 45 208 182
3 208 216 182
3 31 14 202
3 202 226 31
3 12 45 202
3 202 14 12
3 45 182 202
3 170 9 54
3 9 124 54
3 19 90 161
3 19 85 90
3 19 161 155
3 19 155 71
3 71 85 19
3 211 90 139
3 90 85 139
3 139 127 211
3 71 127 139
3 139 85 71
3 255 208 146
3 255 216 208
3 255 146 227
3 227 216 255
3 6 188 115
3 115 121 6
3 33 123 115
3 123 121 115
3 107 70 33
3 33 115 107
3 107 115 188
3 5 70 107
3 12 140 107
3 107 140 5
3 184 45 12
3 184 188 45
3 12 107 184
3 184 107 188
3 10 213 239
3 213 56 239
3 239 56 60
3 239 32 10
3 60 32 239
3 191 204 16
3 8 130 191
3 191 16 8
3 191 130 236
3 203 131 199
3 199 204 203
3 36 131 203
3 204 191 203
3 236 36 203
3 203 191 236
3 53 230 47
3 53 112 48
3 48 165 53
3 53 165 196
3 196 230 53
3 151 235 186
3 26 235 151
3 222 86 174
3 86 185 174
3 174 154 222
3 116 195 34
3 195 154 34
3 34 154 244
3 34 244 190
3 34 241 116
3 190 241 34
3 233 101 206
3 206 182 233
3 105 143 129
3 129 35 105
3 35 241 105
3 228 235 142
3 142 143 228
3 228 143 186
3 162 101 195
3 162 195 18
3 18 20 162
3 162 206 101
3 24 182 226
3 226 202 24
3 24 202 182
3 79 124 223
3 79 54 124
3 79 223 170
3 170 54 79
3 47 2 160
3 160 53 47
3 160 2 112
3 112 53 160
3 44 62 231
3 231 153 44
3 231 151 186
3 186 153 231
3 190 44 219
3 44 153 219
3 219 241 190
3 219 105 241
3 143 105 219
3 186 143 219
3 219 153 186
3 244 154 172
3 154 174 172
3 172 185 244
3 172 174 185
3 186 235 126
3 126 228 186
3 235 228 126
3 206 162 75
3 226 182 75
3 182 206 75
3 75 20 226
3 75 162 20
3 247 62 249
3 247 231 62
3 151 231 247
3 43 247 249
3 151 247 43
3 249 64 43
3 43 64 254
3 26 151 43
3 43 81 26
3 254 81 43