ply
format ascii 1.0
comment https://github.com/mikedh/trimesh
element vertex 256
property float x
property float y
property float z
element face 508
property list uchar int vertex_indices
end_header
0.13317572 3.19960642 0.85462147
-0.89180565 1.00672102 1.32773769
-3.44956040 1.23100746 -0.42413673
1.71435273 1.88063991 -1.07583499
1.01635444 1.23136306 -1.29116189
-2.89165854 2.49947739 -0.28244790
-1.86441231 3.15742278 0.53911078
-0.60784417 0.57749420 1.37982512
2.48460746 2.95699000 0.26875812
0.00220912 0.13612810 1.41187322
0.01884834 1.69048584 1.28182268
-1.41948664 1.61044955 1.18315411
-2.13871217 3.30750299 -0.14133109
3.32103586 1.02255833 -0.59731293
-2.13416457 3.17538667 -0.35813627
1.15291369 0.51263827 -1.33467722
2.77707458 2.74629784 0.10085662
3.25536108 1.39854276 -0.55091918
-0.39071110 3.07700658 -0.89811474
0.65076023 3.80104518 0.39494580
-0.82210785 3.45404363 -0.65695828
0.66555429 0.60607094 1.37465310
2.84757137 -0.07778819 0.94083697
1.87390351 1.74682343 -1.06694281
-1.26766193 3.66734838 -0.34137934
1.62824655 1.15344238 -1.21207237
-0.16922179 0.56478429 -1.39761138
0.59450287 0.29222414 1.39161885
2.88577247 0.82787949 0.87845999
2.68439221 2.56427789 -0.44622666
1.94437480 1.99547839 -0.99357909
-2.09554744 3.05481052 -0.49291596
0.20645006 1.51683450 1.30631590
-2.53666520 2.85570931 0.33090177
0.42923808 2.89315653 -0.96833456
-1.27148926 2.00518608 -1.13086176
3.36360931 1.80290091 0.21268980
1.61339569 3.30354285 -0.54142493
-2.45610476 0.71138752 1.05239248
1.11586130 1.24438345 1.27845812
-1.26678848 -0.00798521 1.33272922
-2.38459706 1.26887202 -1.00931919
1.10123777 0.31172752 1.34846199
0.24265222 0.62714636 -1.39248204
0.63564712 1.62137282 -1.27159429
-1.58688903 3.64740157 -0.10117891
-3.41272569 0.50141376 -0.60816872
-3.29641652 1.57755125 -0.44985059
-3.78064752 0.55316252 0.04063267
-2.19517899 2.97986603 -0.49078158
2.53741717 0.40011913 1.04644060
2.81917405 1.60678935 0.76846462
0.35811362 0.17098437 -1.40544307
-3.54099321 1.38936341 -0.20170379
-0.24417152 0.17773056 1.40835798
0.27978837 2.17020369 1.18491900
-0.26271871 1.37996507 1.32351398
0.01928869 0.23793282 -1.41030347
0.74808484 2.52876902 1.06300092
-1.96005630 0.82253611 1.17746532
0.10979842 1.35415649 1.32987583
1.04493117 -3.69635606 -0.40147659
0.75327402 1.19857836 -1.31940424
2.34497547 2.98908734 0.37594959
0.41895038 0.44448653 -1.39563191
0.91623539 0.67102677 1.35130167
0.55259591 0.48174945 1.38763034
-0.98994958 2.85245180 -0.92645270
3.51629233 1.05006170 0.40804580
-3.08084035 1.65517628 0.59908551
-2.89387059 2.59101605 0.14405708
0.86922914 3.77436876 0.36832222
-0.09623960 -3.03333592 0.92716259
3.01136851 2.44413662 -0.13063034
-2.43644094 0.89715922 -1.04123318
-0.32451537 3.71343398 -0.52933240
-3.58050823 0.82893121 0.39542586
-0.95398265 0.72035325 -1.34433198
-0.53504461 -3.41099334 -0.72232622
-0.19790867 0.24711643 1.40807867
-2.56590891 2.64313293 -0.48221880
-0.03394896 0.33836648 -1.40763271
3.81443357 0.17853701 -0.01624974
2.19987822 2.03090048 0.90771335
2.07490373 0.14698845 1.18463778
0.67572284 3.84050918 0.33798605
2.03470540 2.86304212 -0.64696914
-3.71002102 0.73449445 -0.21087110
3.27633905 1.32212186 -0.55684721
3.35001040 0.35833013 -0.66621190
0.11947099 3.99564695 0.15728639
1.66251540 0.16476707 1.27072132
0.12043211 0.21200754 -1.41008496
-1.86772633 0.03804021 1.23213053
0.67875153 3.29584885 0.77016276
-1.62847269 0.57720411 -1.26157141
2.08860397 2.42802000 0.81981331
1.35345364 1.59251034 -1.19685137
0.20448464 0.83913845 1.37950015
2.17035937 2.67488313 -0.68395793
2.75242114 1.75162613 0.76243472
0.34982255 3.69403768 -0.54347605
3.81535172 0.09362498 -0.04320509
-2.47691965 -2.69235158 -0.51200265
3.31719160 1.97652853 -0.08331560
-0.75171745 1.90574610 -1.21265996
-1.30502284 0.06408286 -1.32779217
-2.47425413 3.06414413 0.01938694
3.07231688 1.53086984 -0.64481139
-0.58012617 0.02167396 -1.39654613
-3.16702986 -1.25215209 0.65529382
0.89243954 2.11713362 1.15484595
-3.65098524 0.95989162 -0.23968261
-2.25600195 1.65421212 -0.98077470
1.41541255 1.39684391 1.21684706
-2.45473456 2.92471004 0.33933413
0.17761393 3.03366208 -0.92531317
-3.20060182 0.17059158 0.76831836
-2.35114551 0.77056283 1.07996023
-0.04283707 2.34368706 1.14793694
2.04183960 0.62916631 1.17324054
-2.41220856 2.46078444 0.67259157
1.18026721 1.12386429 1.28417277
-2.52043653 2.39999986 0.64516461
-0.06783997 0.24751151 1.40980625
-0.89805472 0.79126960 1.34467077
-0.30846041 1.26326787 -1.33630848
1.07483590 3.85223770 -0.08806327
-1.81213272 1.22999287 1.16644418
-0.72233254 1.61613441 -1.26577735
2.68672180 2.71992874 0.30844682
3.36049199 1.89862466 0.07334556
3.40102434 1.82086504 -0.05326297
-2.35950041 2.11391377 -0.82651162
-1.86973786 2.41697741 0.89244932
-0.25560898 0.50698066 -1.39840686
-1.56140137 -1.54794919 1.16925895
0.07829477 -3.84805632 0.40973964
1.84763408 1.00470960 -1.18471575
0.57719225 3.96390414 0.11086054
-2.52070785 2.86409545 -0.33773920
1.03262568 3.22194481 0.75465977
-0.69680053 1.37832201 -1.30225146
-0.42591363 1.45630705 -1.30747187
1.36303341 0.37546763 -1.31294417
-1.55077827 1.28078318 1.21026623
-0.74486214 3.39763355 0.70456564
-3.61544085 0.35484022 0.43656787
0.36032885 -3.59180737 0.62138414
-3.76079702 0.18796571 0.23460409
2.65766191 0.31809947 -1.00796044
-0.07551527 0.83458060 -1.38174367
-1.49325240 0.35678467 1.29418743
0.25774840 1.52269733 -1.30432534
0.96829253 2.97532868 -0.88127065
0.90679342 3.67725182 0.46368730
0.52366781 -2.99869847 -0.92158192
-1.58555877 1.56233728 -1.16226196
2.92116404 0.68387914 -0.87767839
-2.78444552 1.38257217 -0.83576751
-3.53015947 1.23267269 -0.32153022
-0.04034642 3.64277363 0.59933877
-0.13589355 3.63401532 -0.60309130
2.43160534 2.41285634 0.68399256
-1.26122093 1.29941332 1.25283051
-3.42095876 1.39620674 0.39255661
-1.71281528 1.16825104 1.19406557
-0.31977424 0.56519461 1.39366674
-2.94305778 0.69031835 -0.86690855
-2.17783713 0.11641541 1.15967679
-0.27261817 0.17484738 1.40773690
0.61201191 0.09010529 -1.39410222
1.15678489 2.87846255 -0.88919270
-1.65177608 -2.91236854 -0.75904888
1.50853276 2.93173575 -0.78969818
1.52868629 -3.46317053 -0.44439638
1.09223711 1.00933933 1.30652070
-1.80869746 1.16402340 -1.17509246
0.14753228 0.16296177 -1.41065991
1.06500351 0.12228804 -1.35594869
3.72196221 0.25803879 -0.30166963
1.94788408 3.25637269 0.40954715
-1.02287734 3.85759830 -0.12889773
3.33570576 0.61716223 -0.65236640
-2.04164338 3.39883709 -0.01555826
1.73018909 2.67014098 -0.84038115
-0.21782199 1.36078620 -1.32731533
-3.39620590 -1.68069208 0.26083741
-2.10682583 3.26634169 0.26823911
-3.25429177 0.41304696 0.72466177
0.56848544 2.32805705 -1.13277686
2.75384378 2.67738032 0.27126849
-1.16356933 0.07193143 1.34531951
-0.38249826 1.36741757 1.32100320
-1.28724265 0.05611505 -1.33005452
0.40499952 3.32841706 -0.77907175
-3.16956520 1.92193282 0.40633842
-0.46464160 2.40562797 1.11922634
1.66831994 0.50537872 -1.25813735
3.28438640 2.03804302 -0.07953682
2.98375463 0.51072925 0.86289525
2.22363210 2.11247683 -0.87697536
-1.45499384 3.60404277 -0.32304311
3.26008415 2.04170108 0.16424070
2.97325540 2.47570992 0.17264660
2.87717557 0.67916834 0.89736032
0.19206165 3.85303473 -0.39904469
3.63120031 0.11055777 -0.43458283
-1.58748019 3.42297149 0.45448717
3.13743973 0.21752472 -0.80119848
-2.48918962 -2.18605518 -0.74672425
0.47159076 3.99012542 -0.04228469
2.21957374 2.87117767 0.55189824
-0.19346483 1.72710156 1.27418590
1.16905093 0.07441002 -1.34462976
0.58055919 -3.48407459 0.67225516
-0.58651870 3.72440791 0.48760104
1.17047119 3.63430262 -0.42295843
-0.74529344 -2.20425820 1.14892411
0.32651988 1.66261780 -1.28068256
-0.19289704 0.37727645 -1.40481377
-2.46448493 0.29256731 -1.07421339
1.49425411 3.22535753 -0.63798940
-0.22072251 0.39913720 1.40334225
1.12177622 0.42539662 -1.34204018
-3.09116507 -0.61622661 0.80026317
-0.91295749 3.64439678 -0.49368036
-0.47011897 3.60505390 0.60156745
-0.40834635 1.31342471 -1.32702494
-2.32816863 2.27947068 -0.78263164
-3.22789025 2.04951572 -0.22524796
0.44957733 1.14750111 -1.34374142
-2.06840825 -0.55583352 -1.17146957
0.20312415 3.85699916 -0.39371872
3.66452813 1.12069035 -0.04896347
-0.33426714 1.09096217 -1.35420537
3.25410604 1.55408156 0.49780363
-3.16331100 1.07849395 -0.69473213
2.40441895 1.61420715 -0.93979257
-0.08142213 1.50983369 1.30908859
1.56344414 0.15738948 -1.28759289
-0.30648020 2.63788438 -1.06032324
3.61749387 -1.27142107 -0.06455190
-2.99773359 2.09335017 0.47384560
1.05487955 2.78349710 -0.94250393
0.55484688 0.13034225 1.39731395
2.86677504 0.52994448 0.91409045
0.37074783 0.88238752 -1.37159419
-0.96991700 0.31981048 -1.36166394
0.41705510 0.60748333 -1.38799345
1.82512403 3.38465905 -0.35516289
-2.95888281 -1.64520252 0.68034655
-3.06622624 1.47635078 -0.66318363
0.77107757 3.44002914 -0.67434549
0.20440355 0.35295486 -1.40547645
-0.72552055 3.54257202 0.61305165
3 187 149 48
3 48 87 187
3 48 149 76
3 156 78 173
3 242 22 215
3 215 175 242
3 251 187 137
3 210 221 232
3 232 173 210
3 156 173 232
3 46 221 210
3 210 187 46
3 46 187 87
3 103 187 210
3 210 173 103
3 137 187 103
3 103 78 137
3 103 173 78
3 137 78 61
3 61 215 137
3 175 215 61
3 61 78 156
3 156 175 61
3 171 156 178
3 171 214 156
3 242 175 209
3 136 251 218
3 82 68 22
3 82 242 102
3 82 22 242
3 22 68 200
3 149 187 110
3 187 251 110
3 178 156 109
3 156 232 109
3 112 46 87
3 112 87 48
3 137 215 148
3 28 236 51
3 28 200 68
3 68 236 28
3 246 50 22
3 22 200 246
3 225 110 251
3 225 251 136
3 136 169 225
3 169 117 225
3 150 175 156
3 150 209 175
3 83 28 51
3 83 163 96
3 71 181 127
3 8 250 127
3 127 181 8
3 118 169 59
3 196 69 243
3 84 215 22
3 22 50 84
3 72 91 218
3 72 148 215
3 215 84 72
3 72 84 91
3 137 148 72
3 72 251 137
3 72 218 251
3 176 91 122
3 114 39 122
3 122 39 176
3 1 7 193
3 193 7 167
3 58 119 55
3 102 242 180
3 180 82 102
3 200 28 205
3 205 246 200
3 205 28 50
3 50 246 205
3 189 69 76
3 147 225 117
3 117 189 147
3 149 110 147
3 110 225 147
3 147 76 149
3 147 189 76
3 52 171 178
3 198 15 25
3 209 150 158
3 158 150 238
3 194 248 109
3 194 106 248
3 194 109 232
3 232 106 194
3 51 236 100
3 236 163 100
3 100 83 51
3 163 83 100
3 130 163 236
3 96 163 212
3 163 130 212
3 155 181 71
3 111 96 58
3 111 83 96
3 114 83 111
3 58 55 111
3 111 39 114
3 93 59 169
3 93 169 136
3 59 93 152
3 76 69 165
3 69 196 165
3 48 76 165
3 91 84 120
3 114 122 120
3 120 122 91
3 120 84 50
3 120 83 114
3 50 28 120
3 28 83 120
3 136 218 170
3 170 7 192
3 167 7 170
3 218 91 245
3 134 69 118
3 73 199 104
3 36 236 68
3 82 180 234
3 68 82 234
3 234 36 68
3 118 69 38
3 69 189 38
3 38 189 117
3 38 169 118
3 38 117 169
3 221 46 168
3 133 159 252
3 95 232 221
3 95 106 232
3 95 177 77
3 77 248 95
3 248 106 95
3 113 159 133
3 31 67 229
3 133 252 229
3 244 3 190
3 217 127 250
3 254 52 178
3 171 52 64
3 52 254 64
3 214 171 179
3 138 198 25
3 150 198 138
3 238 150 138
3 15 198 144
3 108 158 238
3 108 238 201
3 201 99 108
3 141 212 181
3 141 155 94
3 181 155 141
3 96 212 141
3 94 58 141
3 58 96 141
3 63 130 8
3 63 212 130
3 8 181 63
3 181 212 63
3 11 145 164
3 164 193 11
3 1 193 164
3 145 152 164
3 118 59 128
3 128 145 11
3 128 134 118
3 11 134 128
3 125 152 192
3 192 7 125
3 125 7 1
3 1 164 125
3 125 164 152
3 192 152 40
3 40 152 93
3 40 93 136
3 136 170 40
3 40 170 192
3 59 152 166
3 166 152 145
3 166 128 59
3 145 128 166
3 98 66 21
3 21 176 98
3 21 65 176
3 98 167 223
3 167 170 223
3 9 170 218
3 218 245 9
3 9 245 66
3 42 245 91
3 42 91 176
3 176 65 42
3 65 21 42
3 243 69 123
3 69 134 123
3 123 33 243
3 0 58 94
3 0 119 58
3 94 155 161
3 161 0 94
3 227 0 161
3 6 134 146
3 146 0 227
3 6 146 208
3 70 196 243
3 243 33 70
3 11 193 213
3 213 55 119
3 213 10 55
3 98 176 60
3 32 111 55
3 55 10 32
3 39 111 32
3 176 39 32
3 32 60 176
3 16 250 8
3 16 73 250
3 36 234 131
3 159 168 237
3 237 252 159
3 237 168 46
3 74 168 159
3 221 168 74
3 74 95 221
3 177 95 74
3 31 229 49
3 49 14 31
3 80 229 252
3 80 47 5
3 252 47 80
3 80 49 229
3 25 15 4
3 190 3 97
3 97 44 190
3 97 4 44
3 25 4 97
3 253 217 222
3 201 238 30
3 211 127 233
3 127 217 233
3 35 113 133
3 133 229 35
3 35 229 67
3 92 254 178
3 81 220 26
3 26 220 135
3 135 248 77
3 109 248 135
3 135 220 109
3 224 179 171
3 171 64 224
3 15 144 224
3 249 15 224
3 224 64 249
3 214 179 224
3 224 144 214
3 207 180 242
3 242 209 207
3 209 89 207
3 238 138 23
3 23 30 238
3 3 30 23
3 23 138 25
3 25 97 23
3 23 97 3
3 214 144 240
3 240 144 198
3 240 198 150
3 156 214 240
3 240 150 156
3 158 108 13
3 180 207 13
3 67 18 241
3 241 35 67
3 241 18 116
3 98 223 124
3 124 66 98
3 124 9 66
3 27 21 66
3 27 42 21
3 66 245 27
3 245 42 27
3 121 134 6
3 121 123 134
3 119 0 197
3 0 146 197
3 197 146 134
3 197 134 11
3 11 213 197
3 197 213 119
3 227 161 216
3 161 90 216
3 6 208 188
3 188 208 45
3 98 60 56
3 56 167 98
3 56 193 167
3 56 213 193
3 199 73 204
3 73 16 204
3 132 131 234
3 132 17 104
3 132 234 17
3 104 199 132
3 199 131 132
3 5 47 230
3 230 70 5
3 196 70 230
3 46 112 2
3 2 237 46
3 252 237 2
3 2 47 252
3 159 113 41
3 41 74 159
3 41 113 177
3 177 74 41
3 14 49 140
3 49 80 140
3 140 80 5
3 12 14 140
3 62 15 249
3 62 4 15
3 44 4 62
3 26 135 235
3 77 142 235
3 235 135 77
3 250 86 37
3 37 86 222
3 37 217 250
3 222 217 37
3 99 86 29
3 29 108 99
3 250 73 29
3 29 86 250
3 17 108 29
3 104 17 29
3 29 73 104
3 185 86 99
3 185 99 201
3 201 30 185
3 3 244 185
3 185 30 3
3 116 18 195
3 154 253 222
3 154 195 253
3 217 253 101
3 101 233 217
3 253 195 101
3 143 142 129
3 177 113 157
3 113 35 157
3 157 35 129
3 129 142 157
3 77 177 157
3 157 142 77
3 220 81 57
3 178 109 57
3 109 220 57
3 57 92 178
3 254 92 57
3 57 81 254
3 158 13 183
3 209 158 183
3 183 89 209
3 183 207 89
3 183 13 207
3 88 108 17
3 88 13 108
3 180 13 88
3 88 234 180
3 17 234 88
3 20 18 67
3 20 67 31
3 31 226 20
3 182 216 90
3 182 90 211
3 211 233 182
3 45 208 182
3 208 216 182
3 31 14 202
3 202 226 31
3 12 45 202
3 202 14 12
3 45 182 202
3 170 9 54
3 9 124 54
3 19 90 161
3 19 85 90
3 19 161 155
3 19 155 71
3 71 85 19
3 211 90 139
3 90 85 139
3 139 127 211
3 71 127 139
3 139 85 71
3 255 208 146
3 255 216 208
3 255 146 227
3 227 216 255
3 6 188 115
3 115 121 6
3 33 123 115
3 123 121 115
3 107 70 33
3 33 115 107
3 107 115 188
3 5 70 107
3 12 140 107
3 107 140 5
3 184 45 12
3 184 188 45
3 12 107 184
3 184 107 188
3 10 213 239
3 213 56 239
3 239 56 60
3 239 32 10
3 60 32 239
3 191 204 16
3 8 130 191
3 191 16 8
3 191 130 236
3 203 131 199
3 199 204 203
3 36 131 203
3 204 191 203
3 236 36 203
3 203 191 236
3 53 230 47
3 53 112 48
3 48 165 53
3 53 165 196
3 196 230 53
3 151 235 186
3 26 235 151
3 222 86 174
3 86 185 174
3 174 154 222
3 116 195 34
3 195 154 34
3 34 154 244
3 34 244 190
3 34 241 116
3 190 241 34
3 233 101 206
3 206 182 233
3 105 143 129
3 129 35 105
3 35 241 105
3 228 235 142
3 142 143 228
3 228 143 186
3 162 101 195
3 162 195 18
3 18 20 162
3 162 206 101
3 24 182 226
3 226 202 24
3 24 202 182
3 79 124 223
3 79 54 124
3 79 223 170
3 170 54 79
3 47 2 160
3 160 53 47
3 160 2 112
3 112 53 160
3 44 62 231
3 231 153 44
3 231 151 186
3 186 153 231
3 190 44 219
3 44 153 219
3 219 241 190
3 219 105 241
3 143 105 219
3 186 143 219
3 219 153 186
3 244 154 172
3 154 174 172
3 172 185 244
3 172 174 185
3 186 235 126
3 126 228 186
3 235 228 126
3 206 162 75
3 226 182 75
3 182 206 75
3 75 20 226
3 75 162 20
3 247 62 249
3 247 231 62
3 151 231 247
3 43 247 249
3 151 247 43
3 249 64 43
3 43 64 254
3 26 151 43
3 43 81 26
3 254 81 43