ply
format ascii 1.0
comment https://github.com/mikedh/trimesh
element vertex 256
property float x
property float y
property float z
element face 508
property list uchar int vertex_indices
end_header
0.06277087 2.41918445 2.40742970
-0.42034250 0.76116979 3.74017668
-1.62591124 0.93075013 -1.19477391
0.80804074 1.42192948 -3.03057814
0.47904718 0.93101901 -3.63714433
-1.36295056 1.88982522 -0.79564291
-0.87876964 2.38729000 1.51865053
-0.28650045 0.43663654 3.88690472
1.17109156 2.23574519 0.75707936
0.00104125 0.10292484 3.97718239
0.00888395 1.27815628 3.61083627
-0.66905892 1.21764183 3.33289123
-1.00805771 2.50076389 -0.39812326
1.56533265 0.77314419 -1.68260336
-1.00591433 2.40087223 -1.00885355
0.54341280 0.38759974 -3.75972486
1.30894268 2.07644320 0.28410852
1.53437757 1.05742157 -1.55191422
-0.18415727 2.32648826 -2.52994823
0.30672848 2.87392521 1.11254442
-0.38749123 2.61156154 -1.85062158
0.31370148 0.45824304 3.87233520
1.34217060 -0.05881473 2.65029502
0.88324320 1.32075250 -3.00552940
-0.59749806 2.77283859 -0.96165001
0.76745558 0.87210417 -3.41435289
-0.07976077 0.42702672 -3.93700767
0.28021219 0.22094721 3.92012715
1.36017621 0.62594986 2.47458172
1.26525795 1.93882012 -1.25700021
0.91645902 1.50875759 -2.79886723
-0.98771250 2.30970597 -1.38852179
0.09730790 1.14686060 3.67983246
-1.19562840 2.15916800 0.93213522
0.20231652 2.18748140 -2.72775435
-0.59930205 1.51609743 -3.18558621
1.58539915 1.36315203 0.59913749
0.76045579 2.49776959 -1.52516937
-1.15765715 0.53787166 2.96454167
0.52594864 0.94086355 3.60135818
-0.59708643 -0.00603752 3.75423765
-1.12395287 0.95937908 -2.84320641
0.51905596 0.23569348 3.79855585
0.11437137 0.47417796 -3.92255855
0.29960507 1.22590077 -3.58202338
-0.74796218 2.75775719 -0.28501639
-1.60854971 0.37911299 -1.71318364
-1.55372858 1.19276786 -1.26720870
-1.78196537 0.41823959 0.11446038
-1.03467274 2.25304151 -1.38250935
1.19598281 0.30252534 2.94777536
1.32878578 1.21487439 2.16472983
0.16879280 0.12927926 -3.95906925
-1.66900706 1.05048120 -0.56819040
-0.11508748 0.13437997 3.96728039
0.13187508 1.64086521 3.33786273
-0.12382949 1.04337525 3.72827864
0.00909150 0.17989819 -3.97276068
0.35260132 1.91197228 2.99442506
-0.92385036 0.62190980 3.31686616
0.05175224 1.02386165 3.74619961
0.49251649 -2.79477096 -1.13094127
0.35504717 0.90623087 -3.71670175
1.10527766 2.26001358 1.05903280
0.19746752 0.33607098 -3.93143153
0.43185717 0.50735539 3.80655551
0.26045984 0.36424503 3.90889168
-0.46660155 2.15670514 -2.60977507
1.65736461 0.79393923 1.14944649
-1.45211923 1.25145924 1.68759656
-1.36399317 1.95903659 0.40580222
0.40970132 2.85375547 1.03754687
-0.04536144 -2.29346943 2.61177492
1.41937447 1.84798276 -0.36797974
-1.14838886 0.67833143 -2.93310666
-0.15295665 2.80768347 -1.49110532
-1.68763208 0.62674505 1.11389661
-0.44964895 0.54465055 -3.78692198
-0.25218722 -2.57901168 -2.03476000
-0.09328201 0.18684180 3.96649337
-1.20941210 1.99844146 -1.35838842
-0.01600146 0.25583488 -3.96523738
1.79789007 0.13498972 -0.04577477
1.03688776 1.53553975 2.55698729
0.97798234 0.11113623 3.33707070
0.31849432 2.90376329 0.95209134
0.95903540 2.16471219 -1.82248259
-1.74867642 0.55534250 -0.59401429
1.54426527 0.99964070 -1.56861317
1.57898951 0.27092916 -1.87668860
0.05631130 3.02106142 0.44306862
0.78360784 0.12457843 3.57956409
0.05676431 0.16029638 -3.97214508
-0.88033170 0.02876175 3.47085571
0.31992185 2.49195218 2.16951346
-0.76756215 0.43641716 -3.55378938
0.98443979 1.83579707 2.30937672
0.63793510 1.20407820 -3.37147570
0.09638152 0.63446265 3.88598919
1.02297425 2.02244735 -1.92667842
1.29732263 1.32438374 2.14774394
0.16488490 2.79301810 -1.53094733
1.79832280 0.07078873 -0.12170675
-1.16746795 -2.03565502 -1.44228816
1.56352079 1.49442971 -0.23469627
-0.35431349 1.44091201 -3.41600800
-0.61510777 0.04845229 -3.74033022
-1.16621172 2.31676316 0.05461212
1.44810176 1.15747249 -1.81640434
-0.27343592 0.01638742 -3.93400669
-1.49274373 -0.94673735 1.84593284
0.42064127 1.60073960 3.25314856
-1.72085059 0.72576267 -0.67517501
-1.06334102 1.25073016 -2.76279759
0.66713870 1.05613708 3.42780280
-1.15701139 2.21133852 0.95588875
0.08371632 2.29371595 -2.60656524
-1.50856745 0.12898226 2.16431785
-1.10818589 0.58261341 3.04219890
-0.02019077 1.77203393 3.23368621
0.96239805 0.47570521 3.30496502
-1.13696718 1.86056995 1.89465988
0.55630559 0.84974045 3.61745620
-1.18797922 1.81461155 1.81739926
-0.03197560 0.18714051 3.97135997
-0.42328793 0.59826952 3.78787637
-0.14538932 0.95514184 -3.76432014
0.50661170 2.91263127 -0.24807023
-0.85412824 0.92998302 3.28582025
-0.34046325 1.22194004 -3.56563711
1.26635599 2.05650592 0.86888063
1.58392990 1.43552756 0.20661113
1.60303438 1.37673438 -0.15003936
-1.11212385 1.59830511 -2.32824564
-0.88127977 1.82744801 2.51398921
-0.12047840 0.38332206 -3.93924856
-0.73594886 -1.17038596 3.29374909
0.03690335 -2.90946984 1.15421796
0.87086141 0.75964898 -3.33729029
0.27205303 2.99706101 0.31228912
-1.18810713 2.16550875 -0.95139599
0.48671645 2.43607426 2.12584233
-0.32842904 1.04213297 -3.66838312
-0.20074958 1.10109651 -3.68308878
0.64245039 0.28388661 -3.69850397
-0.73094177 0.96838492 3.40926504
-0.35108235 2.56891036 1.98472941
-1.70409715 0.26829049 1.22979188
0.16983694 -2.71572304 1.75041091
-1.77260911 0.14211865 0.66086906
1.25265884 0.24051124 -2.83937883
-0.03559327 0.63101649 -3.89230919
-0.70382762 0.26976067 3.64566708
0.12148680 1.15129340 -3.67422509
0.45639372 2.24961066 -2.48249936
0.42740682 2.78032637 1.30618608
0.24682489 -2.26728034 -2.59605432
-0.74733520 1.18126464 -3.27403903
1.37685764 0.51707292 -2.47238016
-1.31241691 1.04534638 -2.35431910
-1.66390073 0.93200922 -0.90573603
-0.01901683 2.75425792 1.68831003
-0.06405189 2.74763584 -1.69888067
1.14610970 1.82433200 1.92677593
-0.59446222 0.98247105 3.52916670
-1.61243021 1.05565536 1.10581410
-0.80731606 0.88330078 3.36362839
-0.15072197 0.42733693 3.92589593
-1.38717699 0.52194148 -2.44204211
-1.02649879 0.08802031 3.26675653
-0.12849548 0.13220002 3.96553087
0.28846487 0.06812754 -3.92712235
0.54523748 2.17637134 -2.50481534
-0.77854598 -2.20200729 -2.13820624
0.71102983 2.21665049 -2.22454381
0.72052896 -2.61846209 -1.25184429
0.51481360 0.76314950 3.68040943
-0.85250908 0.88010430 -3.31018209
0.06953768 0.12321346 -3.97376490
0.50197732 0.09246054 -3.81964564
1.75430477 0.19510008 -0.84978962
0.91811311 2.46210480 1.15367568
-0.48212168 2.91668439 -0.36309904
1.57224715 0.46662906 -1.83768642
-0.96230555 2.56982040 -0.04382692
0.81550503 2.01886201 -2.36731553
-0.10266793 1.02887440 -3.73898697
-1.60076320 -1.27075136 0.73476708
-0.99302852 2.46964216 0.75561732
-1.53387356 0.31229991 2.04133916
0.26794919 1.76021636 -3.19098091
1.29799306 2.02433538 0.76415098
-0.54843527 0.05438650 3.78970385
-0.18028623 1.03388822 3.72120571
-0.60672724 0.04242792 -3.74670315
0.19089195 2.51657677 -2.19460964
-1.49393868 1.45315063 1.14463687
-0.21900356 1.81886685 3.15280962
0.78634375 0.38211086 -3.54411578
1.54805839 1.54094028 -0.22405159
1.40635908 0.38615632 2.43073678
1.04808390 1.59721863 -2.47039962
-0.68579489 2.72497392 -0.90999770
1.53660381 1.54370594 0.46265858
1.40141034 1.87185490 0.48633760
1.35612416 0.51351112 2.52782321
0.09052608 2.91323400 -1.12409079
1.71152520 0.08359142 -1.22420013
-0.74824083 2.58806801 1.28026962
1.47879672 0.16446786 -2.25693965
-1.17325139 -1.65285039 -2.10348821
0.22227897 3.01688647 -0.11911404
1.04617095 2.17086339 1.55467224
-0.09118746 1.30584097 3.58932376
0.55101895 0.05626053 -3.78776073
0.27364001 -2.63426757 1.89371216
-0.27644897 2.81598067 1.37354994
0.55168837 2.74785304 -1.19145465
-0.35128564 -1.66661346 3.23646688
0.15390144 1.25708556 -3.60762453
-0.09091984 0.28525424 -3.95729661
-1.16160715 0.22120668 -3.02601004
0.70429981 2.43865442 -1.79718709
-0.10403506 0.30178291 3.95315123
0.52873653 0.32163736 -3.78046608
-1.45698571 -0.46592164 2.25430489
-0.43031219 2.75548530 -1.39067507
-0.22158526 2.72573853 1.69458818
-0.19246943 0.99306488 -3.73816895
-1.09735596 1.72348070 -2.20463777
-1.52142954 1.54961455 -0.63451326
0.21190320 0.86761200 -3.78525853
-0.97492081 -0.42025915 -3.29997659
0.09574027 2.91623139 -1.10908771
1.72723389 0.84734070 -0.13792787
-0.15755303 0.82486361 -3.81473470
1.53378606 1.17502260 1.40229011
-1.49099088 0.81543654 -1.95702875
1.13329566 1.22048295 -2.64735293
-0.03837740 1.14156735 3.68764305
0.73691171 0.11900032 -3.62709069
-0.14445597 1.99447322 -2.98688221
1.70506489 -0.96130639 -0.18183978
-1.41294777 1.58275723 1.33480155
0.49720556 2.10456920 -2.65499067
0.26152080 0.09855022 3.93616986
1.35122192 0.40068474 2.57495117
0.17474779 0.66716272 -3.86371851
-0.45715940 0.24180491 -3.83574533
0.19657421 0.45931095 -3.90991426
0.86025155 2.55910039 -1.00047767
-1.39463592 -1.24391818 1.91650534
-1.44523108 1.11625135 -1.86815798
0.36343870 2.60096526 -1.89960063
0.09634330 0.26686499 -3.95916319
-0.34196591 2.67849660 1.72693861
3 187 149 48
3 48 87 187
3 48 149 76
3 156 78 173
3 242 22 215
3 215 175 242
3 251 187 137
3 210 221 232
3 232 173 210
3 156 173 232
3 46 221 210
3 210 187 46
3 46 187 87
3 103 187 210
3 210 173 103
3 137 187 103
3 103 78 137
3 103 173 78
3 137 78 61
3 61 215 137
3 175 215 61
3 61 78 156
3 156 175 61
3 171 156 178
3 171 214 156
3 242 175 209
3 136 251 218
3 82 68 22
3 82 242 102
3 82 22 242
3 22 68 200
3 149 187 110
3 187 251 110
3 178 156 109
3 156 232 109
3 112 46 87
3 112 87 48
3 137 215 148
3 28 236 51
3 28 200 68
3 68 236 28
3 246 50 22
3 22 200 246
3 225 110 251
3 225 251 136
3 136 169 225
3 169 117 225
3 150 175 156
3 150 209 175
3 83 28 51
3 83 163 96
3 71 181 127
3 8 250 127
3 127 181 8
3 118 169 59
3 196 69 243
3 84 215 22
3 22 50 84
3 72 91 218
3 72 148 215
3 215 84 72
3 72 84 91
3 137 148 72
3 72 251 137
3 72 218 251
3 176 91 122
3 114 39 122
3 122 39 176
3 1 7 193
3 193 7 167
3 58 119 55
3 102 242 180
3 180 82 102
3 200 28 205
3 205 246 200
3 205 28 50
3 50 246 205
3 189 69 76
3 147 225 117
3 117 189 147
3 149 110 147
3 110 225 147
3 147 76 149
3 147 189 76
3 52 171 178
3 198 15 25
3 209 150 158
3 158 150 238
3 194 248 109
3 194 106 248
3 194 109 232
3 232 106 194
3 51 236 100
3 236 163 100
3 100 83 51
3 163 83 100
3 130 163 236
3 96 163 212
3 163 130 212
3 155 181 71
3 111 96 58
3 111 83 96
3 114 83 111
3 58 55 111
3 111 39 114
3 93 59 169
3 93 169 136
3 59 93 152
3 76 69 165
3 69 196 165
3 48 76 165
3 91 84 120
3 114 122 120
3 120 122 91
3 120 84 50
3 120 83 114
3 50 28 120
3 28 83 120
3 136 218 170
3 170 7 192
3 167 7 170
3 218 91 245
3 134 69 118
3 73 199 104
3 36 236 68
3 82 180 234
3 68 82 234
3 234 36 68
3 118 69 38
3 69 189 38
3 38 189 117
3 38 169 118
3 38 117 169
3 221 46 168
3 133 159 252
3 95 232 221
3 95 106 232
3 95 177 77
3 77 248 95
3 248 106 95
3 113 159 133
3 31 67 229
3 133 252 229
3 244 3 190
3 217 127 250
3 254 52 178
3 171 52 64
3 52 254 64
3 214 171 179
3 138 198 25
3 150 198 138
3 238 150 138
3 15 198 144
3 108 158 238
3 108 238 201
3 201 99 108
3 141 212 181
3 141 155 94
3 181 155 141
3 96 212 141
3 94 58 141
3 58 96 141
3 63 130 8
3 63 212 130
3 8 181 63
3 181 212 63
3 11 145 164
3 164 193 11
3 1 193 164
3 145 152 164
3 118 59 128
3 128 145 11
3 128 134 118
3 11 134 128
3 125 152 192
3 192 7 125
3 125 7 1
3 1 164 125
3 125 164 152
3 192 152 40
3 40 152 93
3 40 93 136
3 136 170 40
3 40 170 192
3 59 152 166
3 166 152 145
3 166 128 59
3 145 128 166
3 98 66 21
3 21 176 98
3 21 65 176
3 98 167 223
3 167 170 223
3 9 170 218
3 218 245 9
3 9 245 66
3 42 245 91
3 42 91 176
3 176 65 42
3 65 21 42
3 243 69 123
3 69 134 123
3 123 33 243
3 0 58 94
3 0 119 58
3 94 155 161
3 161 0 94
3 227 0 161
3 6 134 146
3 146 0 227
3 6 146 208
3 70 196 243
3 243 33 70
3 11 193 213
3 213 55 119
3 213 10 55
3 98 176 60
3 32 111 55
3 55 10 32
3 39 111 32
3 176 39 32
3 32 60 176
3 16 250 8
3 16 73 250
3 36 234 131
3 159 168 237
3 237 252 159
3 237 168 46
3 74 168 159
3 221 168 74
3 74 95 221
3 177 95 74
3 31 229 49
3 49 14 31
3 80 229 252
3 80 47 5
3 252 47 80
3 80 49 229
3 25 15 4
3 190 3 97
3 97 44 190
3 97 4 44
3 25 4 97
3 253 217 222
3 201 238 30
3 211 127 233
3 127 217 233
3 35 113 133
3 133 229 35
3 35 229 67
3 92 254 178
3 81 220 26
3 26 220 135
3 135 248 77
3 109 248 135
3 135 220 109
3 224 179 171
3 171 64 224
3 15 144 224
3 249 15 224
3 224 64 249
3 214 179 224
3 224 144 214
3 207 180 242
3 242 209 207
3 209 89 207
3 238 138 23
3 23 30 238
3 3 30 23
3 23 138 25
3 25 97 23
3 23 97 3
3 214 144 240
3 240 144 198
3 240 198 150
3 156 214 240
3 240 150 156
3 158 108 13
3 180 207 13
3 67 18 241
3 241 35 67
3 241 18 116
3 98 223 124
3 124 66 98
3 124 9 66
3 27 21 66
3 27 42 21
3 66 245 27
3 245 42 27
3 121 134 6
3 121 123 134
3 119 0 197
3 0 146 197
3 197 146 134
3 197 134 11
3 11 213 197
3 197 213 119
3 227 161 216
3 161 90 216
3 6 208 188
3 188 208 45
3 98 60 56
3 56 167 98
3 56 193 167
3 56 213 193
3 199 73 204
3 73 16 204
3 132 131 234
3 132 17 104
3 132 234 17
3 104 199 132
3 199 131 132
3 5 47 230
3 230 70 5
3 196 70 230
3 46 112 2
3 2 237 46
3 252 237 2
3 2 47 252
3 159 113 41
3 41 74 159
3 41 113 177
3 177 74 41
3 14 49 140
3 49 80 140
3 140 80 5
3 12 14 140
3 62 15 249
3 62 4 15
3 44 4 62
3 26 135 235
3 77 142 235
3 235 135 77
3 250 86 37
3 37 86 222
3 37 217 250
3 222 217 37
3 99 86 29
3 29 108 99
3 250 73 29
3 29 86 250
3 17 108 29
3 104 17 29
3 29 73 104
3 185 86 99
3 185 99 201
3 201 30 185
3 3 244 185
3 185 30 3
3 116 18 195
3 154 253 222
3 154 195 253
3 217 253 101
3 101 233 217
3 253 195 101
3 143 142 129
3 177 113 157
3 113 35 157
3 157 35 129
3 129 142 157
3 77 177 157
3 157 142 77
3 220 81 57
3 178 109 57
3 109 220 57
3 57 92 178
3 254 92 57
3 57 81 254
3 158 13 183
3 209 158 183
3 183 89 209
3 183 207 89
3 183 13 207
3 88 108 17
3 88 13 108
3 180 13 88
3 88 234 180
3 17 234 88
3 20 18 67
3 20 67 31
3 31 226 20
3 182 216 90
3 182 90 211
3 211 233 182
3 45 208 182
3 208 216 182
3 31 14 202
3 202 226 31
3 12 45 202
3 202 14 12
3 45 182 202
3 170 9 54
3 9 124 54
3 19 90 161
3 19 85 90
3 19 161 155
3 19 155 71
3 71 85 19
3 211 90 139
3 90 85 139
3 139 127 211
3 71 127 139
3 139 85 71
3 255 208 146
3 255 216 208
3 255 146 227
3 227 216 255
3 6 188 115
3 115 121 6
3 33 123 115
3 123 121 115
3 107 70 33
3 33 115 107
3 107 115 188
3 5 70 107
3 12 140 107
3 107 140 5
3 184 45 12
3 184 188 45
3 12 107 184
3 184 107 188
3 10 213 239
3 213 56 239
3 239 56 60
3 239 32 10
3 60 32 239
3 191 204 16
3 8 130 191
3 191 16 8
3 191 130 236
3 203 131 199
3 199 204 203
3 36 131 203
3 204 191 203
3 236 36 203
3 203 191 236
3 53 230 47
3 53 112 48
3 48 165 53
3 53 165 196
3 196 230 53
3 151 235 186
3 26 235 151
3 222 86 174
3 86 185 174
3 174 154 222
3 116 195 34
3 195 154 34
3 34 154 244
3 34 244 190
3 34 241 116
3 190 241 34
3 233 101 206
3 206 182 233
3 105 143 129
3 129 35 105
3 35 241 105
3 228 235 142
3 142 143 228
3 228 143 186
3 162 101 195
3 162 195 18
3 18 20 162
3 162 206 101
3 24 182 226
3 226 202 24
3 24 202 182
3 79 124 223
3 79 54 124
3 79 223 170
3 170 54 79
3 47 2 160
3 160 53 47
3 160 2 112
3 112 53 160
3 44 62 231
3 231 153 44
3 231 151 186
3 186 153 231
3 190 44 219
3 44 153 219
3 219 241 190
3 219 105 241
3 143 105 219
3 186 143 219
3 219 153 186
3 244 154 172
3 154 174 172
3 172 185 244
3 172 174 185
3 186 235 126
3 126 228 186
3 235 228 126
3 206 162 75
3 226 182 75
3 182 206 75
3 75 20 226
3 75 162 20
3 247 62 249
3 247 231 62
3 151 231 247
3 43 247 249
3 151 247 43
3 249 64 43
3 43 64 254
3 26 151 43
3 43 81 26
3 254 81 43