ply
format ascii 1.0
comment https://github.com/mikedh/trimesh
element vertex 256
property float x
property float y
property float z
element face 508
property list uchar int vertex_indices
end_header
0.14427586 2.50304770 2.89162707
-0.96613723 0.78755641 4.49242449
-3.73707962 0.96301538 -1.43507433
1.85724318 1.47122192 -3.64010692
1.10106719 0.96329361 -4.36866951
-3.13267684 1.95533764 -0.95566756
-2.01981020 2.47004724 1.82409108
-0.65850765 0.45177293 4.66866302
2.69169831 2.31324911 0.90934795
0.00239325 0.10649282 4.77709818
0.02041934 1.32246470 4.33706999
-1.53780019 1.25985241 4.00322342
-2.31697273 2.58745503 -0.47819629
3.59784245 0.79994589 -2.02101898
-2.31204605 2.48410058 -1.21176052
1.24900854 0.40103620 -4.51590443
3.00854230 2.14842486 0.34125021
3.52669382 1.09407794 -1.86404479
-0.42327669 2.40713787 -3.03878736
0.70500082 2.97355223 1.33630621
-0.89063019 2.70209360 -2.22283006
0.72102791 0.47412843 4.65116358
3.08491516 -0.06085359 3.18333888
2.03009248 1.36653745 -3.61002016
-1.37332094 2.86896157 -1.15506315
1.76396012 0.90233642 -4.10106897
-0.18332635 0.44182998 -4.72884321
0.64405441 0.22860654 4.70856762
3.12630033 0.64764893 2.97228527
2.90813518 2.00603104 -1.50981593
2.10643744 1.56105995 -3.36179280
-2.27021027 2.38977408 -1.66778994
0.22365758 1.18661749 4.41994333
-2.74809504 2.23401737 1.11961210
0.46501490 2.26331234 -3.27637720
-1.37746727 1.56865418 -3.82629132
3.64396453 1.41040683 0.71963978
1.74787152 2.58435702 -1.83192098
-2.66082001 0.55651742 3.56078887
1.20886791 0.97347939 4.32568598
-1.37237477 -0.00624682 4.50931358
-2.58335233 0.99263674 -3.41504979
1.19302547 0.24386400 4.56254530
0.26287717 0.49061573 -4.71148777
0.68862802 1.26839769 -4.30246210
-1.71915543 2.85335708 -0.34234068
-3.69717479 0.39225528 -2.05774999
-3.57117128 1.23411608 -1.52207756
-4.09576273 0.43273824 0.13748136
-2.37814593 2.33114505 -1.66056836
2.74890971 0.31301263 3.54065037
3.05415082 1.25698900 2.60011387
0.38796222 0.13376084 -4.75534201
-3.83613348 1.08689702 -0.68246835
-0.26452309 0.13903837 4.76520443
0.30310860 1.69774723 4.00919437
-0.28461620 1.07954478 4.47813320
0.02089639 0.18613450 -4.77178717
0.81043738 1.97825241 3.59668255
-2.12342620 0.64346886 3.98397493
0.11895007 1.05935466 4.49965858
1.13202572 -2.89165401 -1.35840321
0.81605905 0.93764615 -4.46422815
2.54042816 2.33835888 1.27203214
0.45386970 0.34772119 -4.72214556
0.99260318 0.52494329 4.57215357
0.59865457 0.37687191 4.69507217
-1.07246149 2.23146915 -3.13466930
3.80937386 0.82146180 1.38063037
-3.33762693 1.29484212 2.02701640
-3.13507342 2.02694821 0.48741969
0.94167894 2.95268345 1.24622488
-0.10426112 -2.37297440 3.13707137
3.26236463 1.91204476 -0.44199011
-2.63951707 0.70184636 -3.52303123
-0.35156357 2.90501404 -1.79100573
-3.87894201 0.64847171 1.33793044
-1.03349674 0.56353134 -4.54857159
-0.57964033 -2.66841531 -2.44400358
-0.21440426 0.19331884 4.76425934
-2.77977633 2.06771922 -1.63159609
-0.03677859 0.26470363 -4.76275063
4.13236475 0.13966925 -0.05498128
2.38323712 1.58877063 3.07126451
2.24784589 0.11498886 4.00824308
0.73204404 3.00442481 1.14358187
2.20429730 2.23975372 -2.18903160
-4.01924944 0.57459396 -0.71348614
3.54942036 1.03429413 -1.88410246
3.62923217 0.28032115 -2.25413990
0.12942885 3.12578893 0.53218132
1.80108535 0.12889704 4.29950857
0.13047007 0.16585320 -4.77104759
-2.02340055 0.02975880 4.16893578
0.73532516 2.57833791 2.60585976
-1.76420510 0.45154595 -4.26854992
2.26268816 1.89943659 2.77385306
1.46626341 1.24581861 -4.04956818
0.22152834 0.65645683 4.66756392
2.35125780 2.09255719 -2.31418419
2.98183417 1.37029469 2.57971168
0.37898010 2.88984060 -1.83886099
4.13335943 0.07324269 -0.14618517
-2.68336964 -2.10622287 -1.73237014
3.59367800 1.54623544 -0.28189984
-0.81437272 1.49086249 -4.10305691
-1.41379595 0.05013193 -4.49260855
-2.68048215 2.39707565 0.06559605
3.32839298 1.19759727 -2.18173099
-0.62847942 0.01695551 -4.72523880
-3.43100047 -0.97955686 2.21719837
0.96682400 1.65623057 3.90744209
-3.95529318 0.75092185 -0.81097043
-2.44403863 1.29408777 -3.31846881
1.53338659 1.09274900 4.11722422
-2.65933561 2.28799653 1.14814305
0.19241796 2.37322974 -3.13081384
-3.46737051 0.13345355 2.59961915
-2.54711246 0.60281020 3.65406489
-0.04640752 1.83346295 3.88406539
2.21202612 0.49219593 3.96968031
-2.61326504 1.92506826 2.27572584
1.27864194 0.87919742 4.34502172
-2.73051381 1.87751663 2.18292594
-0.07349440 0.19362789 4.77010489
-0.97290719 0.61900908 4.54971790
-0.33417043 0.98825270 -4.52142382
1.16442287 3.01360011 -0.29796365
-1.96317315 0.96222168 3.94668508
-0.78253859 1.26429975 -4.28278065
2.91065884 2.12779641 1.04363537
3.64058757 1.48529136 0.24816604
3.68449807 1.42446005 -0.18021621
-2.55616379 1.65371168 -2.79651690
-2.02557969 1.89079797 3.01961827
-0.27691385 0.39661023 -4.73153496
-1.69154346 -1.21095848 3.95620847
0.08482060 -3.01032901 1.38636148
2.00163341 0.78598291 -4.00850677
0.62530094 3.10095668 0.37509865
-2.73080778 2.24057794 -1.14274669
1.11869454 2.52052307 2.55340505
-0.75487858 1.07825935 -4.40619135
-0.46141335 1.13926697 -4.42385483
1.47664165 0.29372779 -4.44237041
-1.68003488 1.00195479 4.09495783
-0.80694604 2.65796399 2.38391066
-3.91678619 0.27759099 1.47713530
0.39036211 -2.80986571 2.10246444
-4.07425785 0.14704531 0.79378718
2.87917686 0.24884877 -3.41045237
-0.08180943 0.65289122 -4.67515469
-1.61771429 0.27911216 4.37890625
0.27923161 1.19120395 -4.41320848
1.04899931 2.32759547 -2.98179507
0.98237425 2.87670875 1.56889439
0.56731528 -2.34587741 -3.11818910
-1.71771443 1.22221422 -3.93253422
3.16464186 0.53499770 -2.96964073
-3.01652789 1.08158422 -2.82783437
-3.82439661 0.96431810 -1.08790326
-0.04370927 2.84973669 2.02787352
-0.14722022 2.84288502 -2.04057026
2.63427854 1.88757396 2.31430101
-1.36634314 1.01652920 4.23897457
-3.70609403 1.09225059 1.32822239
-1.85557759 0.91392118 4.04014206
-0.34642726 0.44215095 4.71549654
-3.18836021 0.54003507 -2.93320084
-2.35935879 0.09107161 3.92378712
-0.29534078 0.13678285 4.76310301
0.66302282 0.07048924 -4.71696997
1.25320244 2.25181723 -3.00859952
-1.78945088 -2.27834177 -2.56825566
1.63426828 2.29349279 -2.67195797
1.65610158 -2.70923328 -1.50362313
1.18327451 0.78960478 4.42063618
-1.95945156 0.91061389 -3.97594666
0.15982904 0.12748477 -4.77299356
1.15377104 0.09566576 -4.58787680
4.03218603 0.20186339 -1.02070463
2.11023927 2.54745579 1.38571012
-1.10813367 3.01779366 -0.43612778
3.61373520 0.48280513 -2.20729351
-2.21181345 2.65890551 -0.05264167
1.87439954 2.08884764 -2.84344482
-0.23597734 1.06454122 -4.49099541
-3.67927790 -1.31480300 0.88254803
-2.28242874 2.55525446 0.90759182
-3.52553558 0.32312605 2.45190597
0.61586845 1.82123578 -3.83277106
2.98337531 2.09451079 0.91784185
-1.26055229 0.05627185 4.55191278
-0.41437933 1.06972885 4.46963787
-1.39453375 0.04389872 -4.50026369
0.43875605 2.60381603 -2.63600326
-3.43374681 1.50352538 1.37485337
-0.50336927 1.88191938 3.78692245
1.80737364 0.39535707 -4.25693035
3.55813861 1.59435833 -0.26911426
3.23244929 0.39954278 2.91962171
2.40897083 1.65258765 -2.96726179
-1.57626700 2.81943750 -1.09302211
3.53181076 1.59721994 0.55571139
3.22107482 1.93674433 0.58415288
3.11698675 0.53131241 3.03623486
0.20806989 3.01422358 -1.35017490
3.93385911 0.08648919 -1.47041881
-1.71979594 2.67778563 1.53776550
3.39894390 0.17016928 -2.71086955
-2.69666243 -1.71014786 -2.52655482
0.51089764 3.12146950 -0.14307101
2.40457416 2.24611831 1.86735761
-0.20959003 1.35110915 4.31123114
1.26649082 0.05821085 -4.54957867
0.62894851 -2.72558665 2.27458739
-0.63540477 2.91359901 1.64980686
1.26802945 2.84310985 -1.43108749
-0.80741328 -1.72438800 3.88740516
0.35373515 1.30066359 -4.33321238
-0.20897493 0.29514283 -4.75321293
-2.66989875 0.22887500 -3.63462019
1.61879957 2.52319264 -2.15864873
-0.23911963 0.31224447 4.74823380
1.21527576 0.33278719 -4.54081726
-3.34881234 -0.48207322 2.70770478
-0.98905212 2.85100651 -1.67037642
-0.50930315 2.82022858 2.03541422
-0.44238183 1.02749038 -4.49001265
-2.52222061 1.78322673 -2.64804816
-3.49693346 1.60333323 -0.76213056
0.48704940 0.89768851 -4.54657316
-2.24080896 -0.43482777 -3.96368837
0.22005445 3.01732492 -1.33215439
3.96996474 0.87671447 -0.16566879
-0.36212814 0.85345817 -4.58197832
3.52533436 1.21575582 1.68432748
-3.42697167 0.84370434 -2.35063863
2.60482621 1.26279199 -3.17980504
-0.08820862 1.18114078 4.42932463
1.69375646 0.12312557 -4.35659409
-0.33202517 2.06361341 -3.58762264
3.91901040 -0.99463093 -0.21841252
-3.24759340 1.63762486 1.60326517
1.14280331 2.17752600 -3.18897891
0.60109311 0.10196655 4.72783709
3.10571933 0.41457480 3.09284163
0.40164950 0.69029051 -4.64081383
-1.05075920 0.25018728 -4.60721445
0.45181647 0.47523335 -4.69630098
1.97724724 2.64781380 -1.20169997
-3.20550442 -1.28703964 2.30196476
-3.32179475 1.15494716 -2.24389362
0.83534658 2.69112992 -2.28166008
0.22144048 0.27611610 -4.75545502
-0.78599238 2.77134895 2.07427120
3 187 149 48
3 48 87 187
3 48 149 76
3 156 78 173
3 242 22 215
3 215 175 242
3 251 187 137
3 210 221 232
3 232 173 210
3 156 173 232
3 46 221 210
3 210 187 46
3 46 187 87
3 103 187 210
3 210 173 103
3 137 187 103
3 103 78 137
3 103 173 78
3 137 78 61
3 61 215 137
3 175 215 61
3 61 78 156
3 156 175 61
3 171 156 178
3 171 214 156
3 242 175 209
3 136 251 218
3 82 68 22
3 82 242 102
3 82 22 242
3 22 68 200
3 149 187 110
3 187 251 110
3 178 156 109
3 156 232 109
3 112 46 87
3 112 87 48
3 137 215 148
3 28 236 51
3 28 200 68
3 68 236 28
3 246 50 22
3 22 200 246
3 225 110 251
3 225 251 136
3 136 169 225
3 169 117 225
3 150 175 156
3 150 209 175
3 83 28 51
3 83 163 96
3 71 181 127
3 8 250 127
3 127 181 8
3 118 169 59
3 196 69 243
3 84 215 22
3 22 50 84
3 72 91 218
3 72 148 215
3 215 84 72
3 72 84 91
3 137 148 72
3 72 251 137
3 72 218 251
3 176 91 122
3 114 39 122
3 122 39 176
3 1 7 193
3 193 7 167
3 58 119 55
3 102 242 180
3 180 82 102
3 200 28 205
3 205 246 200
3 205 28 50
3 50 246 205
3 189 69 76
3 147 225 117
3 117 189 147
3 149 110 147
3 110 225 147
3 147 76 149
3 147 189 76
3 52 171 178
3 198 15 25
3 209 150 158
3 158 150 238
3 194 248 109
3 194 106 248
3 194 109 232
3 232 106 194
3 51 236 100
3 236 163 100
3 100 83 51
3 163 83 100
3 130 163 236
3 96 163 212
3 163 130 212
3 155 181 71
3 111 96 58
3 111 83 96
3 114 83 111
3 58 55 111
3 111 39 114
3 93 59 169
3 93 169 136
3 59 93 152
3 76 69 165
3 69 196 165
3 48 76 165
3 91 84 120
3 114 122 120
3 120 122 91
3 120 84 50
3 120 83 114
3 50 28 120
3 28 83 120
3 136 218 170
3 170 7 192
3 167 7 170
3 218 91 245
3 134 69 118
3 73 199 104
3 36 236 68
3 82 180 234
3 68 82 234
3 234 36 68
3 118 69 38
3 69 189 38
3 38 189 117
3 38 169 118
3 38 117 169
3 221 46 168
3 133 159 252
3 95 232 221
3 95 106 232
3 95 177 77
3 77 248 95
3 248 106 95
3 113 159 133
3 31 67 229
3 133 252 229
3 244 3 190
3 217 127 250
3 254 52 178
3 171 52 64
3 52 254 64
3 214 171 179
3 138 198 25
3 150 198 138
3 238 150 138
3 15 198 144
3 108 158 238
3 108 238 201
3 201 99 108
3 141 212 181
3 141 155 94
3 181 155 141
3 96 212 141
3 94 58 141
3 58 96 141
3 63 130 8
3 63 212 130
3 8 181 63
3 181 212 63
3 11 145 164
3 164 193 11
3 1 193 164
3 145 152 164
3 118 59 128
3 128 145 11
3 128 134 118
3 11 134 128
3 125 152 192
3 192 7 125
3 125 7 1
3 1 164 125
3 125 164 152
3 192 152 40
3 40 152 93
3 40 93 136
3 136 170 40
3 40 170 192
3 59 152 166
3 166 152 145
3 166 128 59
3 145 128 166
3 98 66 21
3 21 176 98
3 21 65 176
3 98 167 223
3 167 170 223
3 9 170 218
3 218 245 9
3 9 245 66
3 42 245 91
3 42 91 176
3 176 65 42
3 65 21 42
3 243 69 123
3 69 134 123
3 123 33 243
3 0 58 94
3 0 119 58
3 94 155 161
3 161 0 94
3 227 0 161
3 6 134 146
3 146 0 227
3 6 146 208
3 70 196 243
3 243 33 70
3 11 193 213
3 213 55 119
3 213 10 55
3 98 176 60
3 32 111 55
3 55 10 32
3 39 111 32
3 176 39 32
3 32 60 176
3 16 250 8
3 16 73 250
3 36 234 131
3 159 168 237
3 237 252 159
3 237 168 46
3 74 168 159
3 221 168 74
3 74 95 221
3 177 95 74
3 31 229 49
3 49 14 31
3 80 229 252
3 80 47 5
3 252 47 80
3 80 49 229
3 25 15 4
3 190 3 97
3 97 44 190
3 97 4 44
3 25 4 97
3 253 217 222
3 201 238 30
3 211 127 233
3 127 217 233
3 35 113 133
3 133 229 35
3 35 229 67
3 92 254 178
3 81 220 26
3 26 220 135
3 135 248 77
3 109 248 135
3 135 220 109
3 224 179 171
3 171 64 224
3 15 144 224
3 249 15 224
3 224 64 249
3 214 179 224
3 224 144 214
3 207 180 242
3 242 209 207
3 209 89 207
3 238 138 23
3 23 30 238
3 3 30 23
3 23 138 25
3 25 97 23
3 23 97 3
3 214 144 240
3 240 144 198
3 240 198 150
3 156 214 240
3 240 150 156
3 158 108 13
3 180 207 13
3 67 18 241
3 241 35 67
3 241 18 116
3 98 223 124
3 124 66 98
3 124 9 66
3 27 21 66
3 27 42 21
3 66 245 27
3 245 42 27
3 121 134 6
3 121 123 134
3 119 0 197
3 0 146 197
3 197 146 134
3 197 134 11
3 11 213 197
3 197 213 119
3 227 161 216
3 161 90 216
3 6 208 188
3 188 208 45
3 98 60 56
3 56 167 98
3 56 193 167
3 56 213 193
3 199 73 204
3 73 16 204
3 132 131 234
3 132 17 104
3 132 234 17
3 104 199 132
3 199 131 132
3 5 47 230
3 230 70 5
3 196 70 230
3 46 112 2
3 2 237 46
3 252 237 2
3 2 47 252
3 159 113 41
3 41 74 159
3 41 113 177
3 177 74 41
3 14 49 140
3 49 80 140
3 140 80 5
3 12 14 140
3 62 15 249
3 62 4 15
3 44 4 62
3 26 135 235
3 77 142 235
3 235 135 77
3 250 86 37
3 37 86 222
3 37 217 250
3 222 217 37
3 99 86 29
3 29 108 99
3 250 73 29
3 29 86 250
3 17 108 29
3 104 17 29
3 29 73 104
3 185 86 99
3 185 99 201
3 201 30 185
3 3 244 185
3 185 30 3
3 116 18 195
3 154 253 222
3 154 195 253
3 217 253 101
3 101 233 217
3 253 195 101
3 143 142 129
3 177 113 157
3 113 35 157
3 157 35 129
3 129 142 157
3 77 177 157
3 157 142 77
3 220 81 57
3 178 109 57
3 109 220 57
3 57 92 178
3 254 92 57
3 57 81 254
3 158 13 183
3 209 158 183
3 183 89 209
3 183 207 89
3 183 13 207
3 88 108 17
3 88 13 108
3 180 13 88
3 88 234 180
3 17 234 88
3 20 18 67
3 20 67 31
3 31 226 20
3 182 216 90
3 182 90 211
3 211 233 182
3 45 208 182
3 208 216 182
3 31 14 202
3 202 226 31
3 12 45 202
3 202 14 12
3 45 182 202
3 170 9 54
3 9 124 54
3 19 90 161
3 19 85 90
3 19 161 155
3 19 155 71
3 71 85 19
3 211 90 139
3 90 85 139
3 139 127 211
3 71 127 139
3 139 85 71
3 255 208 146
3 255 216 208
3 255 146 227
3 227 216 255
3 6 188 115
3 115 121 6
3 33 123 115
3 123 121 115
3 107 70 33
3 33 115 107
3 107 115 188
3 5 70 107
3 12 140 107
3 107 140 5
3 184 45 12
3 184 188 45
3 12 107 184
3 184 107 188
3 10 213 239
3 213 56 239
3 239 56 60
3 239 32 10
3 60 32 239
3 191 204 16
3 8 130 191
3 191 16 8
3 191 130 236
3 203 131 199
3 199 204 203
3 36 131 203
3 204 191 203
3 236 36 203
3 203 191 236
3 53 230 47
3 53 112 48
3 48 165 53
3 53 165 196
3 196 230 53
3 151 235 186
3 26 235 151
3 222 86 174
3 86 185 174
3 174 154 222
3 116 195 34
3 195 154 34
3 34 154 244
3 34 244 190
3 34 241 116
3 190 241 34
3 233 101 206
3 206 182 233
3 105 143 129
3 129 35 105
3 35 241 105
3 228 235 142
3 142 143 228
3 228 143 186
3 162 101 195
3 162 195 18
3 18 20 162
3 162 206 101
3 24 182 226
3 226 202 24
3 24 202 182
3 79 124 223
3 79 54 124
3 79 223 170
3 170 54 79
3 47 2 160
3 160 53 47
3 160 2 112
3 112 53 160
3 44 62 231
3 231 153 44
3 231 151 186
3 186 153 231
3 190 44 219
3 44 153 219
3 219 241 190
3 219 105 241
3 143 105 219
3 186 143 219
3 219 153 186
3 244 154 172
3 154 174 172
3 172 185 244
3 172 174 185
3 186 235 126
3 126 228 186
3 235 228 126
3 206 162 75
3 226 182 75
3 182 206 75
3 75 20 226
3 75 162 20
3 247 62 249
3 247 231 62
3 151 231 247
3 43 247 249
3 151 247 43
3 249 64 43
3 43 64 254
3 26 151 43
3 43 81 26
3 254 81 43