ply
format ascii 1.0
comment https://github.com/mikedh/trimesh
element vertex 256
property float x
property float y
property float z
element face 508
property list uchar int vertex_indices
end_header
0.12056590 0.95526916 2.23179889
-0.80736452 0.30056494 3.46731687
-3.12293673 0.36752751 -1.10761070
1.55202818 0.56148070 -2.80948615
0.92012036 0.36763370 -3.37180138
-2.61786008 0.74623984 -0.73759782
-1.68787932 0.94267488 1.40785944
-0.55029005 0.17241572 3.60334063
2.24935079 0.88283402 0.70184767
0.00199995 0.04064218 3.68703222
0.01706368 0.50470865 3.34741235
-1.28508162 0.48081315 3.08974457
-1.93620694 0.98748261 -0.36907870
3.00658154 0.30529329 -1.55985117
-1.93208981 0.94803816 -0.93525404
1.04374945 0.15305243 -3.48543906
2.51412559 0.81993008 0.26338175
2.94712520 0.41754660 -1.43869627
-0.35371640 0.91866595 -2.34537935
0.58914262 1.13483369 1.03138018
-0.74426609 1.03123355 -1.71561193
0.60253590 0.18094753 3.58983397
2.57794738 -0.02322431 2.45694613
1.69647193 0.52152872 -2.78626490
-1.14763260 1.09491742 -0.89149415
1.47407496 0.34436986 -3.16526318
-0.15319893 0.16862106 -3.64978838
0.53821200 0.08724596 3.63413930
2.61253142 0.24717031 2.29405189
2.43021894 0.76558656 -1.16529739
1.76027048 0.59576672 -2.59467959
-1.89712918 0.91203916 -1.28722405
0.18690221 0.45286357 3.41137528
-2.29647946 0.85259581 0.86413252
0.38859543 0.86377603 -2.52875447
-1.15109754 0.59866500 -2.95318604
3.04512382 0.53827107 0.55542821
1.46063042 0.98630029 -1.41390264
-2.22354698 0.21239068 2.74826741
1.01020539 0.37152106 3.33862591
-1.14684188 -0.00238405 3.48035216
-2.15881014 0.37883231 -2.63578391
0.99696642 0.09306885 3.52143717
0.21967655 0.18723978 -3.63639331
0.57546049 0.48407438 -3.32070160
-1.43663347 1.08896220 -0.26422340
-3.08958983 0.14970125 -1.58820057
-2.98429346 0.47099108 -1.17476118
-3.42267466 0.16515128 0.10611007
-1.98732710 0.88966388 -1.28165019
2.29716039 0.11945890 2.73272443
2.55223894 0.47972035 2.00680494
0.32420543 0.05104881 -3.67024040
-3.20571232 0.41480604 -0.52673876
-0.22105199 0.05306294 3.67785263
0.25329643 0.64793241 3.09435344
-0.23784304 0.41200009 3.45628691
0.01746232 0.07103683 -3.68293309
0.67725199 0.75498509 2.77597070
-1.77446723 0.24557503 3.07488847
0.09940209 0.40429470 3.47290039
0.94599128 -1.10357785 -1.04843497
0.68194979 0.35784557 -3.44555473
2.12294006 0.89241695 0.98177248
0.37928182 0.13270515 -3.64461899
0.82948107 0.20034064 3.52885318
0.50027305 0.14383031 3.62372351
-0.89621562 0.85162330 -2.41938233
3.18335009 0.31350467 1.06559014
-2.78912926 0.49416670 1.56448019
-2.61986279 0.77356946 0.37619746
0.78692561 1.12686932 0.96185404
-0.08712710 -0.90562773 2.42123628
2.72623515 0.72971737 -0.34113425
-2.20574498 0.26785436 -2.71912575
-0.29378843 1.10867667 -1.38232374
-3.24148583 0.24748433 1.03263378
-0.86365426 0.21506748 -3.51065207
-0.48438358 -1.01838052 -1.88631678
-0.17916957 0.07377867 3.67712307
-2.32295442 0.78912938 -1.25928903
-0.03073448 0.10102214 -3.67595863
3.45326161 0.05330371 -0.04243533
1.99158144 0.60634226 2.37044549
1.87844014 0.04388463 3.09361911
0.61174166 1.14661598 0.88263279
1.84204817 0.85478508 -1.68952572
-3.35873556 0.21928944 -0.55067873
2.96611691 0.39473051 -1.45417702
3.03281260 0.10698245 -1.73977733
0.10815881 1.19293368 0.41074514
1.50509918 0.04919258 3.31842160
0.10902892 0.06329662 -3.68236256
-1.69087958 0.01135722 3.21764398
0.61448354 0.98400319 2.01123953
-1.47427976 0.17232910 -3.29452729
1.89084315 0.72490561 2.14089918
1.22530115 0.47545725 -3.12551427
0.18512289 0.25053179 3.60249209
1.96485758 0.79860866 -1.78612018
2.49180651 0.52296257 1.99105811
0.31669939 1.10288572 -1.41925907
3.45409274 0.02795252 -0.11282780
-2.24239087 -0.80382401 -1.33706796
3.00310135 0.59010905 -0.21757430
-0.68054062 0.56897640 -3.16679764
-1.18145597 0.01913247 -3.46745920
-2.23997784 0.91482580 0.05062797
2.78141260 0.45705393 -1.68389094
-0.52519661 0.00647094 -3.64700651
-2.86715794 -0.37384045 1.71126521
0.80793840 0.63208789 3.01581931
-3.30528951 0.28658363 -0.62591851
-2.04239106 0.49387881 -2.56124139
1.28139341 0.41703939 3.17773199
-2.22230673 0.87319654 0.88615316
0.16079645 0.90572512 -2.41640663
-2.89755082 0.05093154 2.00642300
-2.12852597 0.23005797 2.82025909
-0.03878102 0.69972730 2.99777699
1.84850693 0.18784285 3.06385565
-2.18380713 0.73468775 1.75643742
1.06851292 0.33553904 3.35354948
-2.28178763 0.71653998 1.68481338
-0.06141650 0.07389662 3.68163466
-0.81302190 0.23624013 3.51153684
-0.27925366 0.37715915 -3.48969913
0.97306436 1.15011764 -0.22997259
-1.64054990 0.36722463 3.04610753
-0.65393806 0.48251042 -3.30551076
2.43232799 0.81205738 0.80549258
3.04230189 0.56685024 0.19153808
3.07899618 0.54363441 -0.13909343
-2.13608980 0.63112658 -2.15839148
-1.69270062 0.72160876 2.33058429
-0.23140648 0.15136330 -3.65186572
-1.41355920 -0.46215314 3.05345798
0.07088138 -1.14886928 1.07001352
1.67268968 0.29996443 -3.09382272
0.52254045 1.18345666 0.28950647
-2.28203321 0.85509962 -0.88198817
0.93485093 0.96193850 1.97075427
-0.63082355 0.41150951 -3.40076113
-0.38558576 0.43479261 -3.41439390
1.23397374 0.11209899 -3.42868447
-1.40394187 0.38238847 3.16054654
-0.67433441 1.01439178 1.83993602
-3.27311063 0.10594051 1.14007401
0.32621092 -1.07236409 1.62271202
-3.40470386 0.05611873 0.61265624
2.40601969 0.09497125 -2.63223553
-0.06836506 0.24917100 -3.60835099
-1.35186291 0.10652104 3.37970209
0.23334335 0.45461398 -3.40617681
0.87660921 0.88830918 -2.30139184
0.82093316 1.09787416 1.21089494
0.47408399 -0.89528638 -2.40666270
-1.43542922 0.46644881 -3.03518581
2.64457202 0.20417783 -2.29201102
-2.52079868 0.41277844 -2.18256283
-3.19590425 0.36802471 -0.83965921
-0.03652619 1.08758044 1.56514168
-0.12302639 1.08496559 -1.57494104
2.20136738 0.72037834 1.78621054
-1.14180148 0.38795069 3.27170086
-3.09704328 0.41684917 1.02514088
-1.55063629 0.34879109 3.11823916
-0.28949621 0.16874357 3.63948727
-2.66439271 0.20610029 -2.26388597
-1.97162724 0.03475679 3.02843475
-0.24680516 0.05220214 3.67623067
0.55406320 0.02690168 -3.64062428
1.04725409 0.85938901 -2.32207990
-1.49537671 -0.86951190 -1.98221612
1.36569643 0.87529415 -2.06225514
1.38394165 -1.03395844 -1.16051769
0.98881799 0.30134669 3.41190982
-1.63743985 0.34752890 -3.06869221
0.13356310 0.04865360 -3.68386412
0.96416301 0.03651011 -3.54098845
3.36954594 0.07703964 -0.78779435
1.76344752 0.97221720 1.06951082
-0.92602563 1.15171814 -0.33660960
3.01986241 0.18425892 -1.70362043
-1.84832919 1.01475120 -0.04062959
1.56636512 0.79719287 -2.19461107
-0.19719738 0.40627408 -3.46621394
-3.07463408 -0.50178462 0.68116313
-1.90733981 0.97519356 0.70049226
-2.94615722 0.12331861 1.89241600
0.51465809 0.69506085 -2.95818710
2.49309444 0.79935420 0.70840335
-1.05339611 0.02147573 3.51323080
-0.34628120 0.40825394 3.44973016
-1.16535926 0.01675362 -3.47336721
0.36665192 0.99372667 -2.03450489
-2.86945295 0.57380909 1.06113136
-0.42064673 0.71822029 2.92280054
1.51035404 0.15088503 -3.28555942
2.97340250 0.60847479 -0.20770620
2.70123625 0.15248248 2.25340557
2.01308632 0.63069755 -2.29017496
-1.31722689 1.07601702 -0.84361005
2.95140123 0.60956687 0.42890593
2.69173098 0.73914379 0.45085746
2.60474849 0.20277137 2.34340930
0.17387618 1.15035570 -1.04208422
3.28737783 0.03300795 -1.13489020
-1.43716872 1.02195668 1.18686926
2.84036946 0.06494382 -2.09228754
-2.25349927 -0.65266496 -1.95003092
0.42693791 1.19128525 -0.11042424
2.00941205 0.85721403 1.44125319
-0.17514651 0.51564056 3.32746935
1.05835867 0.02221573 -3.51142955
0.52558857 -1.04019952 1.75555885
-0.53098381 1.11195302 1.27334440
1.05964446 1.08505130 -1.10453367
-0.67472488 -0.65809965 3.00035453
0.29560316 0.49638841 -3.34443498
-0.17463247 0.11263902 -3.66859722
-2.23113370 0.08734841 -2.80525160
1.35276985 0.96295738 -1.66607571
-0.19982328 0.11916574 3.66475415
1.01556015 0.12700571 -3.50466704
-2.79847646 -0.18397959 2.08984494
-0.82651359 1.08806503 -1.28922021
-0.42560548 1.07631886 1.57096171
-0.36968184 0.39213392 -3.46545577
-2.10772467 0.68055499 -2.04380131
-2.92225552 0.61190003 -0.58822316
0.40700886 0.34259602 -3.50910997
-1.87255979 -0.16594873 -3.05923104
0.18389122 1.15153921 -1.02817571
3.31755018 0.33459145 -0.12786552
-0.30261683 0.32571587 -3.53643584
2.94598913 0.46398398 1.29998791
-2.86379099 0.32199338 -1.81425631
2.17675519 0.48193499 -2.45421863
-0.07371262 0.45077342 3.41861582
1.41540849 0.04698994 -3.36248112
-0.27746093 0.78756243 -2.76897812
3.27496934 -0.37959337 -0.16857389
-2.71389151 0.62498713 1.23742282
0.95499772 0.83103627 -2.46129942
0.50231087 0.03891476 3.64901185
2.59533262 0.15821934 2.38709903
0.33564335 0.26344416 -3.58184600
-0.87807983 0.09548209 -3.55591369
0.37756601 0.18136922 -3.62467170
1.65231109 1.01051819 -0.92748916
-2.67871928 -0.49118894 1.77668917
-2.77589869 0.44077682 -1.73186898
0.69806767 1.02704942 -1.76101780
0.18504947 0.10537761 -3.67032766
-0.65682423 1.05766439 1.60095203
3 187 149 48
3 48 87 187
3 48 149 76
3 156 78 173
3 242 22 215
3 215 175 242
3 251 187 137
3 210 221 232
3 232 173 210
3 156 173 232
3 46 221 210
3 210 187 46
3 46 187 87
3 103 187 210
3 210 173 103
3 137 187 103
3 103 78 137
3 103 173 78
3 137 78 61
3 61 215 137
3 175 215 61
3 61 78 156
3 156 175 61
3 171 156 178
3 171 214 156
3 242 175 209
3 136 251 218
3 82 68 22
3 82 242 102
3 82 22 242
3 22 68 200
3 149 187 110
3 187 251 110
3 178 156 109
3 156 232 109
3 112 46 87
3 112 87 48
3 137 215 148
3 28 236 51
3 28 200 68
3 68 236 28
3 246 50 22
3 22 200 246
3 225 110 251
3 225 251 136
3 136 169 225
3 169 117 225
3 150 175 156
3 150 209 175
3 83 28 51
3 83 163 96
3 71 181 127
3 8 250 127
3 127 181 8
3 118 169 59
3 196 69 243
3 84 215 22
3 22 50 84
3 72 91 218
3 72 148 215
3 215 84 72
3 72 84 91
3 137 148 72
3 72 251 137
3 72 218 251
3 176 91 122
3 114 39 122
3 122 39 176
3 1 7 193
3 193 7 167
3 58 119 55
3 102 242 180
3 180 82 102
3 200 28 205
3 205 246 200
3 205 28 50
3 50 246 205
3 189 69 76
3 147 225 117
3 117 189 147
3 149 110 147
3 110 225 147
3 147 76 149
3 147 189 76
3 52 171 178
3 198 15 25
3 209 150 158
3 158 150 238
3 194 248 109
3 194 106 248
3 194 109 232
3 232 106 194
3 51 236 100
3 236 163 100
3 100 83 51
3 163 83 100
3 130 163 236
3 96 163 212
3 163 130 212
3 155 181 71
3 111 96 58
3 111 83 96
3 114 83 111
3 58 55 111
3 111 39 114
3 93 59 169
3 93 169 136
3 59 93 152
3 76 69 165
3 69 196 165
3 48 76 165
3 91 84 120
3 114 122 120
3 120 122 91
3 120 84 50
3 120 83 114
3 50 28 120
3 28 83 120
3 136 218 170
3 170 7 192
3 167 7 170
3 218 91 245
3 134 69 118
3 73 199 104
3 36 236 68
3 82 180 234
3 68 82 234
3 234 36 68
3 118 69 38
3 69 189 38
3 38 189 117
3 38 169 118
3 38 117 169
3 221 46 168
3 133 159 252
3 95 232 221
3 95 106 232
3 95 177 77
3 77 248 95
3 248 106 95
3 113 159 133
3 31 67 229
3 133 252 229
3 244 3 190
3 217 127 250
3 254 52 178
3 171 52 64
3 52 254 64
3 214 171 179
3 138 198 25
3 150 198 138
3 238 150 138
3 15 198 144
3 108 158 238
3 108 238 201
3 201 99 108
3 141 212 181
3 141 155 94
3 181 155 141
3 96 212 141
3 94 58 141
3 58 96 141
3 63 130 8
3 63 212 130
3 8 181 63
3 181 212 63
3 11 145 164
3 164 193 11
3 1 193 164
3 145 152 164
3 118 59 128
3 128 145 11
3 128 134 118
3 11 134 128
3 125 152 192
3 192 7 125
3 125 7 1
3 1 164 125
3 125 164 152
3 192 152 40
3 40 152 93
3 40 93 136
3 136 170 40
3 40 170 192
3 59 152 166
3 166 152 145
3 166 128 59
3 145 128 166
3 98 66 21
3 21 176 98
3 21 65 176
3 98 167 223
3 167 170 223
3 9 170 218
3 218 245 9
3 9 245 66
3 42 245 91
3 42 91 176
3 176 65 42
3 65 21 42
3 243 69 123
3 69 134 123
3 123 33 243
3 0 58 94
3 0 119 58
3 94 155 161
3 161 0 94
3 227 0 161
3 6 134 146
3 146 0 227
3 6 146 208
3 70 196 243
3 243 33 70
3 11 193 213
3 213 55 119
3 213 10 55
3 98 176 60
3 32 111 55
3 55 10 32
3 39 111 32
3 176 39 32
3 32 60 176
3 16 250 8
3 16 73 250
3 36 234 131
3 159 168 237
3 237 252 159
3 237 168 46
3 74 168 159
3 221 168 74
3 74 95 221
3 177 95 74
3 31 229 49
3 49 14 31
3 80 229 252
3 80 47 5
3 252 47 80
3 80 49 229
3 25 15 4
3 190 3 97
3 97 44 190
3 97 4 44
3 25 4 97
3 253 217 222
3 201 238 30
3 211 127 233
3 127 217 233
3 35 113 133
3 133 229 35
3 35 229 67
3 92 254 178
3 81 220 26
3 26 220 135
3 135 248 77
3 109 248 135
3 135 220 109
3 224 179 171
3 171 64 224
3 15 144 224
3 249 15 224
3 224 64 249
3 214 179 224
3 224 144 214
3 207 180 242
3 242 209 207
3 209 89 207
3 238 138 23
3 23 30 238
3 3 30 23
3 23 138 25
3 25 97 23
3 23 97 3
3 214 144 240
3 240 144 198
3 240 198 150
3 156 214 240
3 240 150 156
3 158 108 13
3 180 207 13
3 67 18 241
3 241 35 67
3 241 18 116
3 98 223 124
3 124 66 98
3 124 9 66
3 27 21 66
3 27 42 21
3 66 245 27
3 245 42 27
3 121 134 6
3 121 123 134
3 119 0 197
3 0 146 197
3 197 146 134
3 197 134 11
3 11 213 197
3 197 213 119
3 227 161 216
3 161 90 216
3 6 208 188
3 188 208 45
3 98 60 56
3 56 167 98
3 56 193 167
3 56 213 193
3 199 73 204
3 73 16 204
3 132 131 234
3 132 17 104
3 132 234 17
3 104 199 132
3 199 131 132
3 5 47 230
3 230 70 5
3 196 70 230
3 46 112 2
3 2 237 46
3 252 237 2
3 2 47 252
3 159 113 41
3 41 74 159
3 41 113 177
3 177 74 41
3 14 49 140
3 49 80 140
3 140 80 5
3 12 14 140
3 62 15 249
3 62 4 15
3 44 4 62
3 26 135 235
3 77 142 235
3 235 135 77
3 250 86 37
3 37 86 222
3 37 217 250
3 222 217 37
3 99 86 29
3 29 108 99
3 250 73 29
3 29 86 250
3 17 108 29
3 104 17 29
3 29 73 104
3 185 86 99
3 185 99 201
3 201 30 185
3 3 244 185
3 185 30 3
3 116 18 195
3 154 253 222
3 154 195 253
3 217 253 101
3 101 233 217
3 253 195 101
3 143 142 129
3 177 113 157
3 113 35 157
3 157 35 129
3 129 142 157
3 77 177 157
3 157 142 77
3 220 81 57
3 178 109 57
3 109 220 57
3 57 92 178
3 254 92 57
3 57 81 254
3 158 13 183
3 209 158 183
3 183 89 209
3 183 207 89
3 183 13 207
3 88 108 17
3 88 13 108
3 180 13 88
3 88 234 180
3 17 234 88
3 20 18 67
3 20 67 31
3 31 226 20
3 182 216 90
3 182 90 211
3 211 233 182
3 45 208 182
3 208 216 182
3 31 14 202
3 202 226 31
3 12 45 202
3 202 14 12
3 45 182 202
3 170 9 54
3 9 124 54
3 19 90 161
3 19 85 90
3 19 161 155
3 19 155 71
3 71 85 19
3 211 90 139
3 90 85 139
3 139 127 211
3 71 127 139
3 139 85 71
3 255 208 146
3 255 216 208
3 255 146 227
3 227 216 255
3 6 188 115
3 115 121 6
3 33 123 115
3 123 121 115
3 107 70 33
3 33 115 107
3 107 115 188
3 5 70 107
3 12 140 107
3 107 140 5
3 184 45 12
3 184 188 45
3 12 107 184
3 184 107 188
3 10 213 239
3 213 56 239
3 239 56 60
3 239 32 10
3 60 32 239
3 191 204 16
3 8 130 191
3 191 16 8
3 191 130 236
3 203 131 199
3 199 204 203
3 36 131 203
3 204 191 203
3 236 36 203
3 203 191 236
3 53 230 47
3 53 112 48
3 48 165 53
3 53 165 196
3 196 230 53
3 151 235 186
3 26 235 151
3 222 86 174
3 86 185 174
3 174 154 222
3 116 195 34
3 195 154 34
3 34 154 244
3 34 244 190
3 34 241 116
3 190 241 34
3 233 101 206
3 206 182 233
3 105 143 129
3 129 35 105
3 35 241 105
3 228 235 142
3 142 143 228
3 228 143 186
3 162 101 195
3 162 195 18
3 18 20 162
3 162 206 101
3 24 182 226
3 226 202 24
3 24 202 182
3 79 124 223
3 79 54 124
3 79 223 170
3 170 54 79
3 47 2 160
3 160 53 47
3 160 2 112
3 112 53 160
3 44 62 231
3 231 153 44
3 231 151 186
3 186 153 231
3 190 44 219
3 44 153 219
3 219 241 190
3 219 105 241
3 143 105 219
3 186 143 219
3 219 153 186
3 244 154 172
3 154 174 172
3 172 185 244
3 172 174 185
3 186 235 126
3 126 228 186
3 235 228 126
3 206 162 75
3 226 182 75
3 182 206 75
3 75 20 226
3 75 162 20
3 247 62 249
3 247 231 62
3 151 231 247
3 43 247 249
3 151 247 43
3 249 64 43
3 43 64 254
3 26 151 43
3 43 81 26
3 254 81 43