ply
format ascii 1.0
comment https://github.com/mikedh/trimesh
element vertex 256
property float x
property float y
property float z
element face 508
property list uchar int vertex_indices
end_header
0.14196128 3.58453751 2.10421729
-0.95063776 1.12783527 3.26910663
-3.67712688 1.37910461 -1.04429376
1.82744801 2.10689163 -2.64888120
1.08340311 1.37950313 -3.17905116
-3.08242035 2.80017877 -0.69543278
-1.98740697 3.53727865 1.32737863
-0.64794344 0.64697009 3.39735460
2.64851618 3.31273270 0.66172630
0.00235486 0.15250508 3.47626185
0.02009176 1.89386094 3.15605640
-1.51312971 1.80419588 2.91311836
-2.27980232 3.70541453 -0.34798020
3.54012346 1.14557791 -1.47068179
-2.27495456 3.55740380 -0.88178992
1.22897100 0.57431161 -3.28619289
2.96027732 3.07669306 0.24832545
3.47011614 1.56679535 -1.35645282
-0.41648620 3.44718814 -2.21130490
0.69369072 4.25833273 0.97242099
-0.87634206 3.86958504 -1.61753845
0.70946068 0.67898470 3.38461995
3.03542495 -0.08714656 2.31649399
1.99752438 1.95697629 -2.62698722
-1.35128915 4.10855150 -0.84053159
1.73566139 1.29220819 -2.98431993
-0.18038529 0.63273108 -3.44114709
0.63372201 0.32738039 3.42639256
3.07614613 0.92747808 2.16291165
2.86148071 2.87277532 -1.09868276
2.07264447 2.23554587 -2.44635391
-2.23378992 3.42232180 -1.21363950
0.22006950 1.69931829 3.21636271
-2.70400810 3.19926739 0.81473410
0.45755479 3.24122000 -2.38419747
-1.35536897 2.24642134 -2.78436613
3.58550549 2.01980019 0.52367699
1.71983087 3.70097804 -1.33307648
-2.61813307 0.79697150 2.59116173
1.18947434 1.39408994 3.14777231
-1.35035813 -0.00894587 3.28139663
-2.54190826 1.42152452 -2.48510861
1.17388606 0.34923014 3.32013321
0.25865990 0.70259571 -3.42851782
0.67758054 1.81643331 -3.13087249
-1.69157553 4.08620501 -0.24911898
-3.63786221 0.56173670 -1.49741066
-3.51388001 1.76733971 -1.10760558
-4.03005552 0.61971110 0.10004426
-2.33999419 3.33836102 -1.20838428
2.70480967 0.44825575 2.57650733
3.00515413 1.80009532 1.89208531
0.38173828 0.19155477 -3.46042991
-3.77459145 1.55651176 -0.49662760
-0.26027945 0.19911256 3.46760702
0.29824594 2.43129158 2.91746378
-0.28005019 1.54598284 3.25870705
0.02056115 0.26655748 -3.47239709
0.79743576 2.83299446 2.61728144
-2.08936071 0.92149192 2.89911151
0.11704179 1.51706922 3.27437091
1.11386502 -4.14104891 -0.98850083
0.80296725 1.34277415 -3.24858832
2.49967289 3.34869170 0.92564917
0.44658840 0.49796081 -3.43627334
0.97667915 0.75175518 3.32712507
0.58905053 0.53970665 3.41657233
-1.05525625 3.19561815 -2.28107762
3.74826121 1.17639017 1.00467527
-3.28408241 1.85430348 1.47504616
-3.08477831 2.90273023 0.35469201
0.92657191 4.22844696 0.90686935
-0.10258850 -3.39826369 2.28282547
3.21002746 2.73818040 -0.32163322
-2.59717202 1.00509262 -2.56368589
-0.34592354 4.16018105 -1.30330276
-3.81671333 0.92865640 0.97360295
-1.01691663 0.80701590 -3.30996466
-0.57034135 -3.82135534 -1.77848494
-0.21096464 0.27684596 3.46691918
-2.73518109 2.96111703 -1.18730140
-0.03618856 0.37907392 -3.46582127
4.06607056 0.20001604 -0.04000950
2.34500360 2.27522945 2.23493838
2.21178436 0.16467200 2.91677141
0.72030008 4.30254412 0.83217680
2.16893435 3.20748234 -1.59294343
-3.95477009 0.82285827 -0.51919901
3.49247813 1.48118067 -1.37104857
3.57100940 0.40143931 -1.64032233
0.12735246 4.47634602 0.38726476
1.77219105 0.18458949 3.12872314
0.12837698 0.23751326 -3.47185898
-1.99093974 0.04261666 3.03370619
0.72352856 3.69235849 1.89626634
-1.73590255 0.64664507 -3.10619450
2.22638845 2.72012472 2.01851416
1.44274056 1.78409851 -2.94684315
0.21797442 0.94009161 3.39655447
2.31353712 2.99668670 -1.68401599
2.93399763 1.96235681 1.87723863
0.37290022 4.13845158 -1.33812666
4.06704903 0.10488860 -0.10637796
-2.64032125 -3.01625681 -1.26063395
3.53602576 2.21431613 -0.20513660
-0.80130798 2.13501835 -2.98576665
-1.39111483 0.07179239 -3.26924086
-2.63747978 3.43277836 0.04773380
3.27499652 1.71504223 -1.58763075
-0.61839694 0.02428146 -3.43852425
-3.37595797 -1.40279317 1.61344016
0.95131350 2.37183690 2.84341908
-3.89183950 1.07537210 -0.59013766
-2.40482974 1.85322332 -2.41482711
1.50878692 1.56489217 2.99607587
-2.61667275 3.27656937 0.83549595
0.18933107 3.39862919 -2.27827191
-3.41174436 0.19111472 1.89172518
-2.50624990 0.86326599 2.65903807
-0.04566302 2.62564588 2.82640791
2.17653918 0.70485866 2.88870931
-2.57134128 2.75683093 1.65603018
1.25812900 1.25907159 3.16184282
-2.68670893 2.68873358 1.58850038
-0.07231534 0.27728856 3.47117281
-0.95729911 0.88646382 3.31079865
-0.32880944 1.41524625 -3.29020929
1.14574242 4.31568384 -0.21682613
-1.93167853 1.37796807 2.87197590
-0.76998460 1.81056464 -3.11655021
2.86396408 3.04715157 0.75944638
3.58218265 2.12704015 0.18058874
3.62538886 2.03992558 -0.13114211
-2.51515603 2.36822963 -2.03500628
-1.99308383 2.70775366 2.19735575
-0.27247143 0.56797332 -3.44310570
-1.66440654 -1.73417628 2.87890601
0.08345985 -4.31099939 1.00884581
1.96952188 1.12558186 -2.91696334
0.61526942 4.44078445 0.27295673
-2.68699813 3.20866275 -0.83156902
1.10074770 3.60956335 1.85809553
-0.74276829 1.54414201 -3.20635557
-0.45401102 1.63150918 -3.21920896
1.45295227 0.42063853 -3.23268270
-1.65308261 1.43486869 2.97987294
-0.79400045 3.80638814 1.73475552
-3.85395050 0.39752951 1.07490134
0.38409963 -4.02392244 1.52994919
-4.00889587 0.21057907 0.57763356
2.83298707 0.35636866 -2.48176312
-0.08049699 0.93498546 -3.40207839
-1.59176171 0.39970791 3.18650055
0.27475199 1.70588648 -3.21146178
1.03217053 3.33327770 -2.16983199
0.96661431 4.11964607 1.14167380
0.55821401 -3.35945892 -2.26908493
-1.69015765 1.75029540 -2.86167836
3.11387229 0.76615375 -2.16098738
-2.96813464 1.54890347 -2.05779600
-3.76304293 1.38097024 -0.79165983
-0.04300806 4.08102036 1.47566986
-0.14485840 4.07120800 -1.48490906
2.59201765 2.70313668 1.68410122
-1.34442329 1.45574021 3.08467317
-3.64663839 1.56417847 0.96653837
-1.82580912 1.30879843 2.93998408
-0.34086964 0.63319075 3.43143487
-3.13721037 0.77336758 -2.13447022
-2.32150817 0.13042085 2.85531330
-0.29060271 0.19588251 3.46607780
0.65238613 0.10094547 -3.43250704
1.23309767 3.22475815 -2.18933749
-1.76074326 -3.26274300 -1.86890221
1.60805023 3.28444028 -1.94436574
1.62953317 -3.87980962 -1.09417629
1.16429162 1.13076866 3.21686697
-1.92801666 1.30406213 -2.89326930
0.15726495 0.18256700 -3.47327495
1.13526142 0.13699999 -3.33856678
3.96749878 0.28908235 -0.74275982
2.07638550 3.64813280 1.00837183
-1.09035623 4.32168961 -0.31736723
3.55576110 0.69141036 -1.60623240
-2.17633009 3.80773664 -0.03830699
1.84432912 2.99137425 -2.06915545
-0.23219162 1.52449667 -3.26806664
-3.62025237 -1.88288891 0.64222419
-2.24581242 3.65930128 0.66044843
-3.46897626 0.46273887 1.78423536
0.60598826 2.60813570 -2.78908157
2.93551397 2.99948430 0.66790724
-1.24032962 0.08058519 3.31239581
-0.40773156 1.53192580 3.25252509
-1.37216163 0.06286601 -3.27481127
0.43171722 3.72884464 -1.91820168
-3.37866044 2.15315247 1.00047147
-0.49529386 2.69503880 2.75571775
1.77837849 0.56617868 -3.09773946
3.50105643 2.28323150 -0.19583261
3.18059206 0.57217288 2.12458897
2.37032437 2.36661983 -2.15925622
-1.55097938 4.03762960 -0.79538482
3.47515082 2.28732944 0.40438738
3.16940022 2.77355194 0.42508405
3.06698179 0.76087618 2.20944738
0.20473190 4.31657696 -0.98251313
3.87074947 0.12385850 -1.07001388
-1.69220579 3.83477449 1.11902153
3.34441566 0.24369419 -1.97268128
-2.65340066 -2.44904995 -1.83855677
0.50270146 4.47016048 -0.10411180
2.36599827 3.21659684 1.35886347
-0.20622765 1.93488181 3.13725352
1.24617290 0.08336198 -3.31069756
0.61885846 -3.90322876 1.65520179
-0.62521118 4.17247534 1.20055330
1.24768674 4.07152987 -1.04139256
-0.79446024 -2.46944308 2.82883835
0.34806028 1.86264026 -3.15324926
-0.20562240 0.42266497 -3.45888066
-2.62706614 0.32776484 -2.64488840
1.59282959 3.61338639 -1.57083392
-0.23528351 0.44715571 3.45525742
1.19577944 0.47657427 -3.30432177
-3.29508829 -0.69036222 1.97037840
-0.97318500 4.08283854 -1.21552157
-0.50113255 4.03876257 1.48115718
-0.43528482 1.47143722 -3.26735187
-2.48175740 2.55370402 -1.92696667
-3.44083309 2.29608417 -0.55459720
0.47923583 1.28555202 -3.30851054
-2.20486045 -0.62270349 -2.88434911
0.21652418 4.32101822 -0.96939969
3.90627599 1.25551581 -0.12055606
-0.35631862 1.22221124 -3.33427429
3.46877837 1.74104643 1.22567368
-3.37199378 1.20824301 -1.71054375
2.56303763 1.80840552 -2.31392241
-0.08679352 1.69147527 3.22318959
1.66658401 0.17632434 -3.17026377
-0.32669860 2.95523715 -2.61068869
3.85613894 -1.42438030 -0.15893731
-3.19549322 2.34519219 1.16668522
1.12446964 3.11836767 -2.32059836
0.59144998 0.14602315 3.44041491
3.05589509 0.59369981 2.25063968
0.39520594 0.98854381 -3.37708855
-1.03390217 0.35828552 -3.35263872
0.44456810 0.68056703 -3.41746616
1.94552684 3.79185271 -0.87446892
-3.15407944 -1.84312987 1.67512417
-3.26850414 1.65396428 -1.63286614
0.82194531 3.85388446 -1.66034865
0.21788798 0.39541736 -3.46051216
-0.77338296 3.96876359 1.50943315
3 187 149 48
3 48 87 187
3 48 149 76
3 156 78 173
3 242 22 215
3 215 175 242
3 251 187 137
3 210 221 232
3 232 173 210
3 156 173 232
3 46 221 210
3 210 187 46
3 46 187 87
3 103 187 210
3 210 173 103
3 137 187 103
3 103 78 137
3 103 173 78
3 137 78 61
3 61 215 137
3 175 215 61
3 61 78 156
3 156 175 61
3 171 156 178
3 171 214 156
3 242 175 209
3 136 251 218
3 82 68 22
3 82 242 102
3 82 22 242
3 22 68 200
3 149 187 110
3 187 251 110
3 178 156 109
3 156 232 109
3 112 46 87
3 112 87 48
3 137 215 148
3 28 236 51
3 28 200 68
3 68 236 28
3 246 50 22
3 22 200 246
3 225 110 251
3 225 251 136
3 136 169 225
3 169 117 225
3 150 175 156
3 150 209 175
3 83 28 51
3 83 163 96
3 71 181 127
3 8 250 127
3 127 181 8
3 118 169 59
3 196 69 243
3 84 215 22
3 22 50 84
3 72 91 218
3 72 148 215
3 215 84 72
3 72 84 91
3 137 148 72
3 72 251 137
3 72 218 251
3 176 91 122
3 114 39 122
3 122 39 176
3 1 7 193
3 193 7 167
3 58 119 55
3 102 242 180
3 180 82 102
3 200 28 205
3 205 246 200
3 205 28 50
3 50 246 205
3 189 69 76
3 147 225 117
3 117 189 147
3 149 110 147
3 110 225 147
3 147 76 149
3 147 189 76
3 52 171 178
3 198 15 25
3 209 150 158
3 158 150 238
3 194 248 109
3 194 106 248
3 194 109 232
3 232 106 194
3 51 236 100
3 236 163 100
3 100 83 51
3 163 83 100
3 130 163 236
3 96 163 212
3 163 130 212
3 155 181 71
3 111 96 58
3 111 83 96
3 114 83 111
3 58 55 111
3 111 39 114
3 93 59 169
3 93 169 136
3 59 93 152
3 76 69 165
3 69 196 165
3 48 76 165
3 91 84 120
3 114 122 120
3 120 122 91
3 120 84 50
3 120 83 114
3 50 28 120
3 28 83 120
3 136 218 170
3 170 7 192
3 167 7 170
3 218 91 245
3 134 69 118
3 73 199 104
3 36 236 68
3 82 180 234
3 68 82 234
3 234 36 68
3 118 69 38
3 69 189 38
3 38 189 117
3 38 169 118
3 38 117 169
3 221 46 168
3 133 159 252
3 95 232 221
3 95 106 232
3 95 177 77
3 77 248 95
3 248 106 95
3 113 159 133
3 31 67 229
3 133 252 229
3 244 3 190
3 217 127 250
3 254 52 178
3 171 52 64
3 52 254 64
3 214 171 179
3 138 198 25
3 150 198 138
3 238 150 138
3 15 198 144
3 108 158 238
3 108 238 201
3 201 99 108
3 141 212 181
3 141 155 94
3 181 155 141
3 96 212 141
3 94 58 141
3 58 96 141
3 63 130 8
3 63 212 130
3 8 181 63
3 181 212 63
3 11 145 164
3 164 193 11
3 1 193 164
3 145 152 164
3 118 59 128
3 128 145 11
3 128 134 118
3 11 134 128
3 125 152 192
3 192 7 125
3 125 7 1
3 1 164 125
3 125 164 152
3 192 152 40
3 40 152 93
3 40 93 136
3 136 170 40
3 40 170 192
3 59 152 166
3 166 152 145
3 166 128 59
3 145 128 166
3 98 66 21
3 21 176 98
3 21 65 176
3 98 167 223
3 167 170 223
3 9 170 218
3 218 245 9
3 9 245 66
3 42 245 91
3 42 91 176
3 176 65 42
3 65 21 42
3 243 69 123
3 69 134 123
3 123 33 243
3 0 58 94
3 0 119 58
3 94 155 161
3 161 0 94
3 227 0 161
3 6 134 146
3 146 0 227
3 6 146 208
3 70 196 243
3 243 33 70
3 11 193 213
3 213 55 119
3 213 10 55
3 98 176 60
3 32 111 55
3 55 10 32
3 39 111 32
3 176 39 32
3 32 60 176
3 16 250 8
3 16 73 250
3 36 234 131
3 159 168 237
3 237 252 159
3 237 168 46
3 74 168 159
3 221 168 74
3 74 95 221
3 177 95 74
3 31 229 49
3 49 14 31
3 80 229 252
3 80 47 5
3 252 47 80
3 80 49 229
3 25 15 4
3 190 3 97
3 97 44 190
3 97 4 44
3 25 4 97
3 253 217 222
3 201 238 30
3 211 127 233
3 127 217 233
3 35 113 133
3 133 229 35
3 35 229 67
3 92 254 178
3 81 220 26
3 26 220 135
3 135 248 77
3 109 248 135
3 135 220 109
3 224 179 171
3 171 64 224
3 15 144 224
3 249 15 224
3 224 64 249
3 214 179 224
3 224 144 214
3 207 180 242
3 242 209 207
3 209 89 207
3 238 138 23
3 23 30 238
3 3 30 23
3 23 138 25
3 25 97 23
3 23 97 3
3 214 144 240
3 240 144 198
3 240 198 150
3 156 214 240
3 240 150 156
3 158 108 13
3 180 207 13
3 67 18 241
3 241 35 67
3 241 18 116
3 98 223 124
3 124 66 98
3 124 9 66
3 27 21 66
3 27 42 21
3 66 245 27
3 245 42 27
3 121 134 6
3 121 123 134
3 119 0 197
3 0 146 197
3 197 146 134
3 197 134 11
3 11 213 197
3 197 213 119
3 227 161 216
3 161 90 216
3 6 208 188
3 188 208 45
3 98 60 56
3 56 167 98
3 56 193 167
3 56 213 193
3 199 73 204
3 73 16 204
3 132 131 234
3 132 17 104
3 132 234 17
3 104 199 132
3 199 131 132
3 5 47 230
3 230 70 5
3 196 70 230
3 46 112 2
3 2 237 46
3 252 237 2
3 2 47 252
3 159 113 41
3 41 74 159
3 41 113 177
3 177 74 41
3 14 49 140
3 49 80 140
3 140 80 5
3 12 14 140
3 62 15 249
3 62 4 15
3 44 4 62
3 26 135 235
3 77 142 235
3 235 135 77
3 250 86 37
3 37 86 222
3 37 217 250
3 222 217 37
3 99 86 29
3 29 108 99
3 250 73 29
3 29 86 250
3 17 108 29
3 104 17 29
3 29 73 104
3 185 86 99
3 185 99 201
3 201 30 185
3 3 244 185
3 185 30 3
3 116 18 195
3 154 253 222
3 154 195 253
3 217 253 101
3 101 233 217
3 253 195 101
3 143 142 129
3 177 113 157
3 113 35 157
3 157 35 129
3 129 142 157
3 77 177 157
3 157 142 77
3 220 81 57
3 178 109 57
3 109 220 57
3 57 92 178
3 254 92 57
3 57 81 254
3 158 13 183
3 209 158 183
3 183 89 209
3 183 207 89
3 183 13 207
3 88 108 17
3 88 13 108
3 180 13 88
3 88 234 180
3 17 234 88
3 20 18 67
3 20 67 31
3 31 226 20
3 182 216 90
3 182 90 211
3 211 233 182
3 45 208 182
3 208 216 182
3 31 14 202
3 202 226 31
3 12 45 202
3 202 14 12
3 45 182 202
3 170 9 54
3 9 124 54
3 19 90 161
3 19 85 90
3 19 161 155
3 19 155 71
3 71 85 19
3 211 90 139
3 90 85 139
3 139 127 211
3 71 127 139
3 139 85 71
3 255 208 146
3 255 216 208
3 255 146 227
3 227 216 255
3 6 188 115
3 115 121 6
3 33 123 115
3 123 121 115
3 107 70 33
3 33 115 107
3 107 115 188
3 5 70 107
3 12 140 107
3 107 140 5
3 184 45 12
3 184 188 45
3 12 107 184
3 184 107 188
3 10 213 239
3 213 56 239
3 239 56 60
3 239 32 10
3 60 32 239
3 191 204 16
3 8 130 191
3 191 16 8
3 191 130 236
3 203 131 199
3 199 204 203
3 36 131 203
3 204 191 203
3 236 36 203
3 203 191 236
3 53 230 47
3 53 112 48
3 48 165 53
3 53 165 196
3 196 230 53
3 151 235 186
3 26 235 151
3 222 86 174
3 86 185 174
3 174 154 222
3 116 195 34
3 195 154 34
3 34 154 244
3 34 244 190
3 34 241 116
3 190 241 34
3 233 101 206
3 206 182 233
3 105 143 129
3 129 35 105
3 35 241 105
3 228 235 142
3 142 143 228
3 228 143 186
3 162 101 195
3 162 195 18
3 18 20 162
3 162 206 101
3 24 182 226
3 226 202 24
3 24 202 182
3 79 124 223
3 79 54 124
3 79 223 170
3 170 54 79
3 47 2 160
3 160 53 47
3 160 2 112
3 112 53 160
3 44 62 231
3 231 153 44
3 231 151 186
3 186 153 231
3 190 44 219
3 44 153 219
3 219 241 190
3 219 105 241
3 143 105 219
3 186 143 219
3 219 153 186
3 244 154 172
3 154 174 172
3 172 185 244
3 172 174 185
3 186 235 126
3 126 228 186
3 235 228 126
3 206 162 75
3 226 182 75
3 182 206 75
3 75 20 226
3 75 162 20
3 247 62 249
3 247 231 62
3 151 231 247
3 43 247 249
3 151 247 43
3 249 64 43
3 43 64 254
3 26 151 43
3 43 81 26
3 254 81 43