ply
format ascii 1.0
comment https://github.com/mikedh/trimesh
element vertex 256
property float x
property float y
property float z
element face 508
property list uchar int vertex_indices
end_header
0.13235125 1.24921095 2.99359107
-0.88628465 0.39305049 4.65083504
-3.42820477 0.48061785 -1.48567760
1.70373952 0.73425156 -3.76846361
1.01006246 0.48075670 -4.52271652
-2.87375689 0.97586209 -0.98936611
-1.85287011 1.23274136 1.88841176
-0.60408109 0.22546902 4.83328867
2.46922565 1.15448713 0.94141316
0.00219545 0.05314801 4.94554710
0.01873166 0.66001040 4.49000311
-1.41069889 0.62876213 4.14438391
-2.12547183 1.29133666 -0.49505836
3.30047584 0.39923379 -2.09228373
-2.12095237 1.23975492 -1.25448942
1.14577627 0.20014754 -4.67514324
2.75988221 1.07222724 0.35328329
3.23520780 0.54602808 -1.92977440
-0.38829228 1.20134473 -3.14594030
0.64673156 1.48402858 1.38342679
-0.81701833 1.34854996 -2.30121112
0.66143399 0.23662612 4.81517172
2.82994270 -0.03037057 3.29558897
1.86230254 0.68200606 -3.73731589
-1.25981402 1.43182981 -1.19579268
1.61816633 0.45033443 -4.24567986
-0.16817416 0.22050673 -4.89559078
0.59082240 0.11409203 4.87459993
2.86790729 0.32322603 3.07709336
2.66777372 1.00116193 -1.56305468
1.93233752 0.77908754 -3.48033571
-2.08257413 1.19267881 -1.72659922
0.20517196 0.59221232 4.57579851
-2.52096105 1.11494446 1.15909159
0.42658076 1.12956488 -3.39190817
-1.26361775 0.78287768 -3.96121311
3.34278584 0.70390016 0.74501556
1.60340750 1.28979051 -1.89651787
-2.44089937 0.27774450 3.68634868
1.10895324 0.48584020 4.47821712
-1.25894606 -0.00311764 4.66831970
-2.36983466 0.49540117 -3.53547049
1.09442031 0.12170667 4.72342873
0.24115001 0.24485454 -4.87762356
0.63171196 0.63302684 -4.45417500
-1.57706487 1.42404199 -0.35441223
-3.39159822 0.19576520 -2.13030982
-3.27600908 0.61591774 -1.57574880
-3.75724220 0.21596926 0.14232920
-2.18158889 1.16341853 -1.71912289
2.52170849 0.15621708 3.66550016
2.80172110 0.62733305 2.69179869
0.35589662 0.06675682 -4.92302370
-3.51907158 0.54244423 -0.70653343
-0.24265990 0.06939071 4.93323421
0.27805626 0.84730488 4.15056610
-0.26109228 0.53877485 4.63604021
0.01916927 0.09289526 -4.94004869
0.74345362 0.98729831 3.72350812
-1.94792199 0.32113987 4.12445688
0.10911868 0.52869850 4.65832472
1.03846228 -1.44315517 -1.40630293
0.74861062 0.46795669 -4.62164450
2.33045816 1.16701877 1.31688631
0.41635674 0.17353930 -4.88865662
0.91056311 0.26198661 4.73337603
0.54917490 0.18808772 4.86062908
-0.98382103 1.11367261 -3.24520350
3.49452376 0.40997186 1.42931378
-3.06176758 0.64622462 2.09849262
-2.87595534 1.01160121 0.50460696
0.86384791 1.47361338 1.29016900
-0.09564380 -1.18429458 3.24768996
2.99272561 0.95425564 -0.45757547
-2.42135739 0.35027468 -3.64725971
-0.32250637 1.44982278 -1.85415983
-3.55834222 0.32363668 1.38510823
-0.94807673 0.28124496 -4.70896244
-0.53173226 -1.33174205 -2.53018355
-0.19668345 0.09648079 4.93225574
-2.55002379 1.03194904 -1.68912899
-0.03373878 0.13210723 -4.93069363
3.79081917 0.06970558 -0.05692001
2.18625927 0.79291725 3.17956281
2.06205845 0.05738818 4.14958096
0.67153960 1.49943638 1.18390667
2.02210903 1.11780727 -2.26622081
-3.68705297 0.28676605 -0.73864496
3.25605583 0.51619136 -1.95053923
3.32927108 0.13990156 -2.33362508
0.11873137 1.56000626 0.55094701
1.65222311 0.06432942 4.45111656
0.11968654 0.08277335 -4.93928337
-1.85616362 0.01485190 4.31593990
0.67454952 1.28678656 2.69774699
-1.61839116 0.22535574 -4.41906643
2.07567382 0.94796318 2.87166405
1.34507477 0.62175816 -4.19236279
0.20321871 0.32762185 4.83215046
2.15692306 1.04434514 -2.39578629
2.73538160 0.68388116 2.67067695
0.34765688 1.44225001 -1.90370250
3.79173160 0.03655367 -0.15133993
-2.46158552 -1.05116522 -1.79345667
3.29665565 0.77168900 -0.29184014
-0.74706370 0.74405366 -4.24773788
-1.29694378 0.02501964 -4.65102625
-2.45893645 1.19632292 0.06790909
3.05329680 0.59769207 -2.25866270
-0.57653475 0.00846209 -4.89185905
-3.14742351 -0.48887330 2.29538083
0.88691461 0.82658494 4.04522562
-3.62838268 0.37476707 -0.83956671
-2.24203539 0.64584816 -3.43548393
1.40665007 0.54536480 4.26240492
-2.43953776 1.14188409 1.18862867
0.17651436 1.18442190 -3.24121189
-3.18078732 0.06660346 2.69128633
-2.33659005 0.30084813 3.78291368
-0.04257188 0.91503739 4.02102470
2.02919912 0.24564317 4.10965824
-2.39727497 0.96075535 2.35597181
1.17296040 0.43878633 4.49823475
-2.50483298 0.93702346 2.25989985
-0.06741998 0.09663504 4.93830729
-0.89249510 0.30893257 4.71014881
-0.30655080 0.49321318 -4.68085718
1.06818175 1.50401545 -0.30847040
-1.80091417 0.48022175 4.08585215
-0.71786070 0.63098162 -4.43379879
2.67008901 1.06193209 1.08043575
3.33968806 0.74127328 0.25691682
3.37996912 0.71091384 -0.18657096
-2.34489322 0.82532781 -2.89512706
-1.85816264 0.94365191 3.12609553
-0.25402653 0.19793865 -4.89837694
-1.55173504 -0.60436028 4.09571171
0.07781006 -1.50238299 1.43524706
1.83619571 0.39226520 -4.14985418
0.57361895 1.54761302 0.38832530
-2.50510263 1.11821866 -1.18304205
1.02623296 1.25793254 2.64344263
-0.69248682 0.53813338 -4.56156158
-0.42327690 0.56858081 -4.57984781
1.35459518 0.14659248 -4.59901619
-1.54117763 0.50005162 4.23935318
-0.74025083 1.32652593 2.46797156
-3.59305835 0.13853900 1.52922165
0.35809815 -1.40233660 2.17660117
-3.73751473 0.07338678 0.82177752
2.64120889 0.12419445 -3.53071094
-0.07504777 0.32584235 -4.84000921
-1.48400795 0.13929817 4.53331423
0.25615275 0.59450132 -4.56882572
0.96229804 1.16164696 -3.08693862
0.90117961 1.43569636 1.62421632
0.52042586 -1.17077112 -3.22814178
-1.57574296 0.60997778 -4.07120228
2.90307975 0.26700452 -3.07435560
-2.76720762 0.53979272 -2.92754889
-3.50830483 0.48126802 -1.12626469
-0.04009664 1.42223513 2.09938002
-0.13505226 1.41881561 -2.11252427
2.41655183 0.94204289 2.39590740
-1.25341296 0.50732535 4.38844824
-3.39978027 0.54511607 1.37505782
-1.70221150 0.45611611 4.18260479
-0.31779459 0.22066692 4.88177347
-2.92483783 0.26951852 -3.03663063
-2.16435456 0.04545165 4.06214666
-0.27093044 0.06826504 4.93105841
0.60822302 0.03517949 -4.88329887
1.14962351 1.12382793 -3.11468816
-1.64155030 -1.13706565 -2.65881681
1.49919379 1.14462709 -2.76617599
1.51922250 -1.35211337 -1.55664349
1.08547533 0.39407277 4.57651567
-1.79750013 0.45446554 -4.11614561
0.14661895 0.06362458 -4.94129753
1.05841029 0.04774449 -4.74965334
3.69892025 0.10074517 -1.05669653
1.93582511 1.27137399 1.43457270
-1.01654494 1.50610840 -0.45150641
3.31505513 0.24095646 -2.28512645
-2.02900410 1.32699585 -0.05449791
1.71947789 1.04249370 -2.94370961
-0.21647349 0.53128695 -4.64935589
-3.37518048 -0.65618664 0.91366827
-2.09378290 1.27526617 0.93959510
-3.23414516 0.16126446 2.53836465
0.56496608 0.90893507 -3.96792150
2.73679519 1.04532003 0.95020658
-1.15636599 0.02808393 4.71242142
-0.38013029 0.53387600 4.62724543
-1.27927363 0.02190880 -4.65895081
0.40249225 1.29950202 -2.72895360
-3.14994287 0.75037342 1.42333317
-0.46176511 0.93922085 3.92045617
1.65799165 0.19731322 -4.40703726
3.26405358 0.79570591 -0.27860370
2.96528292 0.19940220 3.02257276
2.20986605 0.82476681 -3.07189274
-1.44598627 1.40711355 -1.13156402
3.23990154 0.79713410 0.57530677
2.95484853 0.96658260 0.60475111
2.85936356 0.26516527 3.14329791
0.19087262 1.50432670 -1.39778447
3.60872030 0.04316468 -1.52226841
-1.57765245 1.33641851 1.59198987
3.11801648 0.08492740 -2.80645943
-2.47377968 -0.85349375 -2.61564565
0.46867123 1.55785048 -0.14811595
2.20583272 1.12098372 1.93320405
-0.19226713 0.67430615 4.46325302
1.16181362 0.02905164 -4.71000528
0.57696503 -1.36027491 2.35479331
-0.58288771 1.45410740 1.70798206
1.16322505 1.41892791 -1.48155010
-0.74067950 -0.86060065 4.02448225
0.32449844 0.64912999 -4.48600912
-0.19170286 0.14729871 -4.92081928
-2.44922781 0.11422601 -3.76278329
1.48500359 1.25926483 -2.23476648
-0.21935606 0.15583372 4.91566467
1.11483157 0.16608609 -4.70093441
-3.07202840 -0.24059117 2.80318332
-0.90730560 1.42286885 -1.72927678
-0.46720856 1.40750837 2.10718656
-0.40581834 0.51279575 -4.64833879
-2.31375551 0.88996565 -2.74142313
-3.20790696 0.80018514 -0.78900462
0.44679409 0.44801480 -4.70689344
-2.05560303 -0.21701211 -4.10345507
0.20186664 1.50587440 -1.37912858
3.64184165 0.43754715 -0.17151056
-0.33219776 0.42594048 -4.74354696
3.23396063 0.60675454 1.74371994
-3.14372754 0.42107257 -2.43352628
2.38953352 0.63022918 -3.29193068
-0.08091806 0.58947897 4.58551073
1.55376518 0.06144901 -4.51021528
-0.30458283 1.02989984 -3.71412849
3.59509873 -0.49639642 -0.22611414
-2.97917533 0.81729925 1.65979910
1.04834902 1.08675086 -3.30142808
0.55141193 0.05088906 4.89454889
2.84902740 0.20690434 3.20190072
0.36845261 0.34450743 -4.80445719
-0.96391243 0.12486247 -4.76967287
0.41447321 0.23717757 -4.86190081
1.81382501 1.32146037 -1.24407411
-2.94056487 -0.64233059 2.38313627
-3.04724383 0.57640642 -2.32301736
0.76630402 1.34307837 -2.36211562
0.20313813 0.13780291 -4.92314053
-0.72102904 1.38311374 2.14741373
3 187 149 48
3 48 87 187
3 48 149 76
3 156 78 173
3 242 22 215
3 215 175 242
3 251 187 137
3 210 221 232
3 232 173 210
3 156 173 232
3 46 221 210
3 210 187 46
3 46 187 87
3 103 187 210
3 210 173 103
3 137 187 103
3 103 78 137
3 103 173 78
3 137 78 61
3 61 215 137
3 175 215 61
3 61 78 156
3 156 175 61
3 171 156 178
3 171 214 156
3 242 175 209
3 136 251 218
3 82 68 22
3 82 242 102
3 82 22 242
3 22 68 200
3 149 187 110
3 187 251 110
3 178 156 109
3 156 232 109
3 112 46 87
3 112 87 48
3 137 215 148
3 28 236 51
3 28 200 68
3 68 236 28
3 246 50 22
3 22 200 246
3 225 110 251
3 225 251 136
3 136 169 225
3 169 117 225
3 150 175 156
3 150 209 175
3 83 28 51
3 83 163 96
3 71 181 127
3 8 250 127
3 127 181 8
3 118 169 59
3 196 69 243
3 84 215 22
3 22 50 84
3 72 91 218
3 72 148 215
3 215 84 72
3 72 84 91
3 137 148 72
3 72 251 137
3 72 218 251
3 176 91 122
3 114 39 122
3 122 39 176
3 1 7 193
3 193 7 167
3 58 119 55
3 102 242 180
3 180 82 102
3 200 28 205
3 205 246 200
3 205 28 50
3 50 246 205
3 189 69 76
3 147 225 117
3 117 189 147
3 149 110 147
3 110 225 147
3 147 76 149
3 147 189 76
3 52 171 178
3 198 15 25
3 209 150 158
3 158 150 238
3 194 248 109
3 194 106 248
3 194 109 232
3 232 106 194
3 51 236 100
3 236 163 100
3 100 83 51
3 163 83 100
3 130 163 236
3 96 163 212
3 163 130 212
3 155 181 71
3 111 96 58
3 111 83 96
3 114 83 111
3 58 55 111
3 111 39 114
3 93 59 169
3 93 169 136
3 59 93 152
3 76 69 165
3 69 196 165
3 48 76 165
3 91 84 120
3 114 122 120
3 120 122 91
3 120 84 50
3 120 83 114
3 50 28 120
3 28 83 120
3 136 218 170
3 170 7 192
3 167 7 170
3 218 91 245
3 134 69 118
3 73 199 104
3 36 236 68
3 82 180 234
3 68 82 234
3 234 36 68
3 118 69 38
3 69 189 38
3 38 189 117
3 38 169 118
3 38 117 169
3 221 46 168
3 133 159 252
3 95 232 221
3 95 106 232
3 95 177 77
3 77 248 95
3 248 106 95
3 113 159 133
3 31 67 229
3 133 252 229
3 244 3 190
3 217 127 250
3 254 52 178
3 171 52 64
3 52 254 64
3 214 171 179
3 138 198 25
3 150 198 138
3 238 150 138
3 15 198 144
3 108 158 238
3 108 238 201
3 201 99 108
3 141 212 181
3 141 155 94
3 181 155 141
3 96 212 141
3 94 58 141
3 58 96 141
3 63 130 8
3 63 212 130
3 8 181 63
3 181 212 63
3 11 145 164
3 164 193 11
3 1 193 164
3 145 152 164
3 118 59 128
3 128 145 11
3 128 134 118
3 11 134 128
3 125 152 192
3 192 7 125
3 125 7 1
3 1 164 125
3 125 164 152
3 192 152 40
3 40 152 93
3 40 93 136
3 136 170 40
3 40 170 192
3 59 152 166
3 166 152 145
3 166 128 59
3 145 128 166
3 98 66 21
3 21 176 98
3 21 65 176
3 98 167 223
3 167 170 223
3 9 170 218
3 218 245 9
3 9 245 66
3 42 245 91
3 42 91 176
3 176 65 42
3 65 21 42
3 243 69 123
3 69 134 123
3 123 33 243
3 0 58 94
3 0 119 58
3 94 155 161
3 161 0 94
3 227 0 161
3 6 134 146
3 146 0 227
3 6 146 208
3 70 196 243
3 243 33 70
3 11 193 213
3 213 55 119
3 213 10 55
3 98 176 60
3 32 111 55
3 55 10 32
3 39 111 32
3 176 39 32
3 32 60 176
3 16 250 8
3 16 73 250
3 36 234 131
3 159 168 237
3 237 252 159
3 237 168 46
3 74 168 159
3 221 168 74
3 74 95 221
3 177 95 74
3 31 229 49
3 49 14 31
3 80 229 252
3 80 47 5
3 252 47 80
3 80 49 229
3 25 15 4
3 190 3 97
3 97 44 190
3 97 4 44
3 25 4 97
3 253 217 222
3 201 238 30
3 211 127 233
3 127 217 233
3 35 113 133
3 133 229 35
3 35 229 67
3 92 254 178
3 81 220 26
3 26 220 135
3 135 248 77
3 109 248 135
3 135 220 109
3 224 179 171
3 171 64 224
3 15 144 224
3 249 15 224
3 224 64 249
3 214 179 224
3 224 144 214
3 207 180 242
3 242 209 207
3 209 89 207
3 238 138 23
3 23 30 238
3 3 30 23
3 23 138 25
3 25 97 23
3 23 97 3
3 214 144 240
3 240 144 198
3 240 198 150
3 156 214 240
3 240 150 156
3 158 108 13
3 180 207 13
3 67 18 241
3 241 35 67
3 241 18 116
3 98 223 124
3 124 66 98
3 124 9 66
3 27 21 66
3 27 42 21
3 66 245 27
3 245 42 27
3 121 134 6
3 121 123 134
3 119 0 197
3 0 146 197
3 197 146 134
3 197 134 11
3 11 213 197
3 197 213 119
3 227 161 216
3 161 90 216
3 6 208 188
3 188 208 45
3 98 60 56
3 56 167 98
3 56 193 167
3 56 213 193
3 199 73 204
3 73 16 204
3 132 131 234
3 132 17 104
3 132 234 17
3 104 199 132
3 199 131 132
3 5 47 230
3 230 70 5
3 196 70 230
3 46 112 2
3 2 237 46
3 252 237 2
3 2 47 252
3 159 113 41
3 41 74 159
3 41 113 177
3 177 74 41
3 14 49 140
3 49 80 140
3 140 80 5
3 12 14 140
3 62 15 249
3 62 4 15
3 44 4 62
3 26 135 235
3 77 142 235
3 235 135 77
3 250 86 37
3 37 86 222
3 37 217 250
3 222 217 37
3 99 86 29
3 29 108 99
3 250 73 29
3 29 86 250
3 17 108 29
3 104 17 29
3 29 73 104
3 185 86 99
3 185 99 201
3 201 30 185
3 3 244 185
3 185 30 3
3 116 18 195
3 154 253 222
3 154 195 253
3 217 253 101
3 101 233 217
3 253 195 101
3 143 142 129
3 177 113 157
3 113 35 157
3 157 35 129
3 129 142 157
3 77 177 157
3 157 142 77
3 220 81 57
3 178 109 57
3 109 220 57
3 57 92 178
3 254 92 57
3 57 81 254
3 158 13 183
3 209 158 183
3 183 89 209
3 183 207 89
3 183 13 207
3 88 108 17
3 88 13 108
3 180 13 88
3 88 234 180
3 17 234 88
3 20 18 67
3 20 67 31
3 31 226 20
3 182 216 90
3 182 90 211
3 211 233 182
3 45 208 182
3 208 216 182
3 31 14 202
3 202 226 31
3 12 45 202
3 202 14 12
3 45 182 202
3 170 9 54
3 9 124 54
3 19 90 161
3 19 85 90
3 19 161 155
3 19 155 71
3 71 85 19
3 211 90 139
3 90 85 139
3 139 127 211
3 71 127 139
3 139 85 71
3 255 208 146
3 255 216 208
3 255 146 227
3 227 216 255
3 6 188 115
3 115 121 6
3 33 123 115
3 123 121 115
3 107 70 33
3 33 115 107
3 107 115 188
3 5 70 107
3 12 140 107
3 107 140 5
3 184 45 12
3 184 188 45
3 12 107 184
3 184 107 188
3 10 213 239
3 213 56 239
3 239 56 60
3 239 32 10
3 60 32 239
3 191 204 16
3 8 130 191
3 191 16 8
3 191 130 236
3 203 131 199
3 199 204 203
3 36 131 203
3 204 191 203
3 236 36 203
3 203 191 236
3 53 230 47
3 53 112 48
3 48 165 53
3 53 165 196
3 196 230 53
3 151 235 186
3 26 235 151
3 222 86 174
3 86 185 174
3 174 154 222
3 116 195 34
3 195 154 34
3 34 154 244
3 34 244 190
3 34 241 116
3 190 241 34
3 233 101 206
3 206 182 233
3 105 143 129
3 129 35 105
3 35 241 105
3 228 235 142
3 142 143 228
3 228 143 186
3 162 101 195
3 162 195 18
3 18 20 162
3 162 206 101
3 24 182 226
3 226 202 24
3 24 202 182
3 79 124 223
3 79 54 124
3 79 223 170
3 170 54 79
3 47 2 160
3 160 53 47
3 160 2 112
3 112 53 160
3 44 62 231
3 231 153 44
3 231 151 186
3 186 153 231
3 190 44 219
3 44 153 219
3 219 241 190
3 219 105 241
3 143 105 219
3 186 143 219
3 219 153 186
3 244 154 172
3 154 174 172
3 172 185 244
3 172 174 185
3 186 235 126
3 126 228 186
3 235 228 126
3 206 162 75
3 226 182 75
3 182 206 75
3 75 20 226
3 75 162 20
3 247 62 249
3 247 231 62
3 151 231 247
3 43 247 249
3 151 247 43
3 249 64 43
3 43 64 254
3 26 151 43
3 43 81 26
3 254 81 43