ply
format ascii 1.0
comment https://github.com/mikedh/trimesh
element vertex 256
property float x
property float y
property float z
element face 508
property list uchar int vertex_indices
end_header
0.10737377 1.46414685 1.54222286
-0.71902400 0.46067768 2.39599347
-2.78123021 0.56331164 -0.76538372
1.38220787 0.86058486 -1.94141769
0.81944233 0.56347442 -2.32998991
-2.33141804 1.14376628 -0.50969654
-1.50319433 1.44484341 0.97286224
-0.49007824 0.26426262 2.48998880
2.00323057 1.35312498 0.48499238
0.00178112 0.06229251 2.54782152
0.01519660 0.77356994 2.31313658
-1.14447010 0.73694521 2.13508248
-1.72435033 1.51352060 -0.25504163
2.67760634 0.46792489 -1.07789195
-1.72068369 1.45306385 -0.64628142
0.92954403 0.23458439 -2.40851617
2.23903418 1.25671172 0.18200266
2.62465549 0.63997614 -0.99417126
-0.31501332 1.40804482 -1.62070942
0.52467960 1.73936653 0.71270669
-0.66282970 1.58057785 -1.18552613
0.53660738 0.27733937 2.48065543
2.29587269 -0.03559604 1.69780457
1.51084673 0.79935014 -1.92537117
-1.02206051 1.67818654 -0.61604232
1.31278419 0.52781773 -2.18726754
-0.13643615 0.25844651 -2.52208519
0.47932172 0.13372239 2.51127148
2.32667255 0.37883943 1.58524108
2.16430831 1.17341912 -0.80524653
1.56766462 0.91313523 -1.79298139
-1.68954849 1.39788795 -0.88950050
0.16645168 0.69410676 2.35733628
-2.04520249 1.30677867 0.59713489
0.34607595 1.32391465 -1.74742579
-1.02514637 0.91757745 -2.04071736
2.71193147 0.82501131 0.38381329
1.30081058 1.51170838 -0.97703832
-1.98025012 0.32553247 1.89911413
0.89967036 0.56943256 2.30706501
-1.02135634 -0.00365405 2.40500093
-1.92259669 0.58063859 -1.82138550
0.88788003 0.14264719 2.43339181
0.19563991 0.28698355 -2.51282907
0.51249456 0.74194372 -2.29467893
-1.27943945 1.66905880 -0.18258427
-2.75153208 0.22944802 -1.09748209
-2.65775681 0.72189087 -0.81178617
-3.04817128 0.25312835 0.07332443
-1.76987696 1.36359310 -0.88564891
2.04580879 0.18309538 1.88837349
2.27297711 0.73527026 1.38674700
0.28873140 0.07824282 -2.53621817
-2.85494852 0.63577569 -0.36398825
-0.19686484 0.08132989 2.54147816
0.22558117 0.99308985 2.13826728
-0.21181864 0.63147503 2.38837123
0.01555162 0.10887857 -2.54498887
0.60314816 1.15717018 1.91825771
-1.58030796 0.37639430 2.12481666
0.08852568 0.61966491 2.39985180
0.84248245 -1.69146049 -0.72449195
0.60733199 0.54847205 -2.38095522
1.89065146 1.36781287 0.67842668
0.33778143 0.20339799 -2.51851296
0.73872060 0.30706331 2.43851638
0.44553402 0.22044958 2.50407386
-0.79815316 1.30528808 -1.67184722
2.83503318 0.48051050 0.73634654
-2.48394728 0.75741225 1.08109069
-2.33320165 1.18565464 0.25996083
0.70082152 1.72715938 0.66466260
-0.07759379 -1.38806105 1.67312825
2.42793512 1.11844218 -0.23573138
-1.96439600 0.41054198 -1.87897646
-0.26164261 1.69927537 -0.95521653
-2.88680768 0.37932071 0.71357298
-0.76915461 0.32963520 -2.42593884
-0.43138313 -1.56087792 -1.30348694
-0.15956512 0.11308102 2.54097414
-2.06878042 1.20950329 -0.87019682
-0.02737156 0.15483724 -2.54016948
3.07541132 0.08169892 -0.02932376
1.77366590 0.92934448 1.63803077
1.67290437 0.06726223 2.13775992
0.54480588 1.75742531 0.60991895
1.64049435 1.31013417 -1.16750002
-2.99122810 0.33610624 -0.38053131
2.64156938 0.60500580 -1.00486875
2.70096731 0.16397265 -1.20222497
0.09632425 1.82841671 0.28383404
1.34041369 0.07539777 2.29310346
0.09709916 0.09701511 -2.54459476
-1.50586629 0.01740728 2.22346377
0.54724777 1.50818753 1.38981140
-1.31296647 0.26412985 -2.27659178
1.68395019 1.11106718 1.47940922
1.09123063 0.72873616 -2.15980005
0.16486704 0.38399157 2.48940229
1.74986601 1.22403228 -1.23424888
2.21915722 0.80154788 1.37586558
0.28204668 1.69039965 -0.98073965
3.07615161 0.04284299 -0.07796653
-1.99703217 -1.23202586 -0.92394376
2.67450690 0.90446371 -0.15034869
-0.60607696 0.87207353 -2.18832779
-1.05218303 0.02932446 -2.39609170
-1.99488318 1.40215898 0.03498505
2.47707510 0.70052934 -1.16360617
-0.46773043 0.00991805 -2.52016282
-2.55343819 -0.57298750 1.18252242
0.71953511 0.96880490 2.08399844
-2.94363022 0.43924847 -0.43252364
-1.81891596 0.75697106 -1.76987493
1.14118540 0.63919878 2.19588375
-1.97914541 1.33835363 0.61235160
0.14320236 1.38821042 -1.66979086
-2.58050561 0.07806307 1.38648307
-1.89562607 0.35261121 1.94886208
-0.03453766 1.07247615 2.07153082
1.64624631 0.28790787 2.11719275
-1.94485855 1.12606037 1.21373749
0.95159799 0.51428270 2.31737757
-2.03211808 1.09824514 1.16424358
-0.05469640 0.11326180 2.54409170
-0.72406238 0.36208668 2.42655039
-0.24869817 0.57807410 -2.41145992
0.86659330 1.76279223 -0.15891619
-1.46104360 0.56284738 2.10492826
-0.58238524 0.73954660 -2.28418183
2.16618681 1.24464524 0.55661339
2.70941830 0.86881477 0.13235709
2.74209762 0.83323175 -0.09611666
-1.90236235 0.96733147 -1.49149668
-1.50748813 1.10601401 1.61048579
-0.20608637 0.23199543 -2.52352071
-1.25888979 -0.70834488 2.11000752
0.06312566 -1.76087892 0.73940319
1.48966682 0.45975727 -2.13790035
0.46536493 1.81389117 0.20005544
-2.03233671 1.31061625 -0.60947347
0.83256108 1.47436893 1.36183524
-0.56179988 0.63072312 -2.35000181
-0.34339559 0.66640925 -2.35942245
1.09895444 0.17181480 -2.36929750
-1.25032485 0.58608913 2.18400812
-0.60054988 1.55476439 1.27143693
-2.91497231 0.16237564 0.78781658
0.29051745 -1.64361882 1.12133014
-3.03216672 0.08601352 0.42335913
2.14275694 0.14556301 -1.81893349
-0.06088467 0.38190588 -2.49345088
-1.20394421 0.16326544 2.33544970
0.20781130 0.69678956 -2.35374427
0.78069204 1.36151683 -1.59031308
0.73110801 1.68271828 0.83675545
0.42221051 -1.37221086 -1.66305757
-1.27836692 0.71492893 -2.09738111
2.35520720 0.31294459 -1.58383071
-2.24497700 0.63266802 -1.50819957
-2.84621358 0.56407368 -0.58022326
-0.03252956 1.66694105 1.08154786
-0.10956504 1.66293323 -1.08831942
1.96049726 1.10412824 1.23431134
-1.01686752 0.59461433 2.26081824
-2.75816989 0.63890719 0.70839524
-1.38096821 0.53459424 2.15477300
-0.25782001 0.25863427 2.51496696
-2.37285924 0.31589115 -1.56439579
-1.75589502 0.05327194 2.09271598
-0.21980014 0.08001053 2.54035735
0.49343851 0.04123237 -2.51575279
0.93266523 1.31719065 -1.60460901
-1.33175504 -1.33270609 -1.36975563
1.21626413 1.34156859 -1.42506433
1.23251307 -1.58475423 -0.80194360
0.88062316 0.46187586 2.35770583
-1.45827389 0.53265965 -2.12053466
0.11894885 0.07457166 -2.54563236
0.85866582 0.05595927 -2.44690204
3.00085568 0.11807911 -0.54438347
1.57049406 1.49012315 0.73905581
-0.82470143 1.76524532 -0.23260476
2.68943405 0.28241476 -1.17723978
-1.64608812 1.55531514 -0.02807595
1.39497602 1.22186232 -1.51652515
-0.17562036 0.62269872 -2.39523125
-2.73821259 -0.76908833 0.47069892
-1.69864178 1.49468505 0.48405579
-2.62379360 0.18901119 1.30770171
0.45834503 1.06532395 -2.04417324
2.22030401 1.22517502 0.48952255
-0.93813527 0.03291598 2.42772102
-0.30839169 0.62573326 2.38384056
-1.03784764 0.02567837 -2.40017438
0.32653347 1.52309084 -1.40588820
-2.55548215 0.87948060 0.73326546
-0.37462026 1.10082054 2.01972032
1.34509361 0.23126240 -2.27039480
2.64805770 0.93261296 -0.14352962
2.40567136 0.23371081 1.55715346
1.79281759 0.96667397 -1.58256197
-1.17309809 1.64921772 -0.58295333
2.62846375 0.93428683 0.29638356
2.39720631 1.13289011 0.31155258
2.31974125 0.31078890 1.61934805
0.15485093 1.76315701 -0.72010344
2.92767835 0.05059148 -0.78423446
-1.27991605 1.56635904 0.82015318
2.52958083 0.09953978 -1.44581735
-2.00692511 -1.00034356 -1.34751487
0.38022307 1.82588995 -0.07630561
1.78954542 1.31385708 0.99593812
-0.15598226 0.79032540 2.29935575
0.94255483 0.03405019 -2.42647624
0.46807954 -1.59432006 1.21313035
-0.47288445 1.70429707 0.87990940
0.94369990 1.66306472 -0.76325738
-0.60089761 -1.00867331 2.07331204
0.26325873 0.76081753 -2.31107926
-0.15552448 0.17264251 -2.53508258
-1.98700678 0.13387944 -1.93849146
1.20475197 1.47593057 -1.15129542
-0.17795894 0.18264605 2.53242707
0.90443921 0.19466242 -2.42180324
-2.49227166 -0.28198662 1.44412959
-0.73607785 1.66768384 -0.89087993
-0.37903643 1.64968038 1.08556962
-0.32923186 0.60102600 -2.39470720
-1.87710094 1.04309070 -1.41231227
-2.60250711 0.93786281 -0.40647534
0.36247462 0.52509898 -2.42487335
-1.66766739 -0.25435063 -2.11399698
0.16377014 1.76497114 -0.71049237
2.95454931 0.51283032 -0.08835793
-0.26950502 0.49922666 -2.44375610
2.62364388 0.71115106 0.89832067
-2.55043983 0.49352118 -1.25369155
1.93857813 0.73866469 -1.69591987
-0.06564711 0.69090313 2.36233997
1.26053679 0.07202177 -2.32354951
-0.24710160 1.20710158 -1.91342568
2.91662765 -0.58180505 -0.11648832
-2.41694188 0.95792156 0.85508680
0.85050339 1.27373433 -1.70081270
0.44734886 0.05964489 2.52154851
2.31135559 0.24250373 1.64953876
0.29891780 0.40378243 -2.47513556
-0.78200179 0.14634596 -2.45721579
0.33625335 0.27798569 -2.50472903
1.47151792 1.54882729 -0.64091569
-2.38561821 -0.75284827 1.22773182
-2.47216439 0.67558128 -1.19676018
0.62168622 1.57416475 -1.21690261
0.16480166 0.16151291 -2.53627825
-0.58495557 1.62108850 1.10629356
3 187 149 48
3 48 87 187
3 48 149 76
3 156 78 173
3 242 22 215
3 215 175 242
3 251 187 137
3 210 221 232
3 232 173 210
3 156 173 232
3 46 221 210
3 210 187 46
3 46 187 87
3 103 187 210
3 210 173 103
3 137 187 103
3 103 78 137
3 103 173 78
3 137 78 61
3 61 215 137
3 175 215 61
3 61 78 156
3 156 175 61
3 171 156 178
3 171 214 156
3 242 175 209
3 136 251 218
3 82 68 22
3 82 242 102
3 82 22 242
3 22 68 200
3 149 187 110
3 187 251 110
3 178 156 109
3 156 232 109
3 112 46 87
3 112 87 48
3 137 215 148
3 28 236 51
3 28 200 68
3 68 236 28
3 246 50 22
3 22 200 246
3 225 110 251
3 225 251 136
3 136 169 225
3 169 117 225
3 150 175 156
3 150 209 175
3 83 28 51
3 83 163 96
3 71 181 127
3 8 250 127
3 127 181 8
3 118 169 59
3 196 69 243
3 84 215 22
3 22 50 84
3 72 91 218
3 72 148 215
3 215 84 72
3 72 84 91
3 137 148 72
3 72 251 137
3 72 218 251
3 176 91 122
3 114 39 122
3 122 39 176
3 1 7 193
3 193 7 167
3 58 119 55
3 102 242 180
3 180 82 102
3 200 28 205
3 205 246 200
3 205 28 50
3 50 246 205
3 189 69 76
3 147 225 117
3 117 189 147
3 149 110 147
3 110 225 147
3 147 76 149
3 147 189 76
3 52 171 178
3 198 15 25
3 209 150 158
3 158 150 238
3 194 248 109
3 194 106 248
3 194 109 232
3 232 106 194
3 51 236 100
3 236 163 100
3 100 83 51
3 163 83 100
3 130 163 236
3 96 163 212
3 163 130 212
3 155 181 71
3 111 96 58
3 111 83 96
3 114 83 111
3 58 55 111
3 111 39 114
3 93 59 169
3 93 169 136
3 59 93 152
3 76 69 165
3 69 196 165
3 48 76 165
3 91 84 120
3 114 122 120
3 120 122 91
3 120 84 50
3 120 83 114
3 50 28 120
3 28 83 120
3 136 218 170
3 170 7 192
3 167 7 170
3 218 91 245
3 134 69 118
3 73 199 104
3 36 236 68
3 82 180 234
3 68 82 234
3 234 36 68
3 118 69 38
3 69 189 38
3 38 189 117
3 38 169 118
3 38 117 169
3 221 46 168
3 133 159 252
3 95 232 221
3 95 106 232
3 95 177 77
3 77 248 95
3 248 106 95
3 113 159 133
3 31 67 229
3 133 252 229
3 244 3 190
3 217 127 250
3 254 52 178
3 171 52 64
3 52 254 64
3 214 171 179
3 138 198 25
3 150 198 138
3 238 150 138
3 15 198 144
3 108 158 238
3 108 238 201
3 201 99 108
3 141 212 181
3 141 155 94
3 181 155 141
3 96 212 141
3 94 58 141
3 58 96 141
3 63 130 8
3 63 212 130
3 8 181 63
3 181 212 63
3 11 145 164
3 164 193 11
3 1 193 164
3 145 152 164
3 118 59 128
3 128 145 11
3 128 134 118
3 11 134 128
3 125 152 192
3 192 7 125
3 125 7 1
3 1 164 125
3 125 164 152
3 192 152 40
3 40 152 93
3 40 93 136
3 136 170 40
3 40 170 192
3 59 152 166
3 166 152 145
3 166 128 59
3 145 128 166
3 98 66 21
3 21 176 98
3 21 65 176
3 98 167 223
3 167 170 223
3 9 170 218
3 218 245 9
3 9 245 66
3 42 245 91
3 42 91 176
3 176 65 42
3 65 21 42
3 243 69 123
3 69 134 123
3 123 33 243
3 0 58 94
3 0 119 58
3 94 155 161
3 161 0 94
3 227 0 161
3 6 134 146
3 146 0 227
3 6 146 208
3 70 196 243
3 243 33 70
3 11 193 213
3 213 55 119
3 213 10 55
3 98 176 60
3 32 111 55
3 55 10 32
3 39 111 32
3 176 39 32
3 32 60 176
3 16 250 8
3 16 73 250
3 36 234 131
3 159 168 237
3 237 252 159
3 237 168 46
3 74 168 159
3 221 168 74
3 74 95 221
3 177 95 74
3 31 229 49
3 49 14 31
3 80 229 252
3 80 47 5
3 252 47 80
3 80 49 229
3 25 15 4
3 190 3 97
3 97 44 190
3 97 4 44
3 25 4 97
3 253 217 222
3 201 238 30
3 211 127 233
3 127 217 233
3 35 113 133
3 133 229 35
3 35 229 67
3 92 254 178
3 81 220 26
3 26 220 135
3 135 248 77
3 109 248 135
3 135 220 109
3 224 179 171
3 171 64 224
3 15 144 224
3 249 15 224
3 224 64 249
3 214 179 224
3 224 144 214
3 207 180 242
3 242 209 207
3 209 89 207
3 238 138 23
3 23 30 238
3 3 30 23
3 23 138 25
3 25 97 23
3 23 97 3
3 214 144 240
3 240 144 198
3 240 198 150
3 156 214 240
3 240 150 156
3 158 108 13
3 180 207 13
3 67 18 241
3 241 35 67
3 241 18 116
3 98 223 124
3 124 66 98
3 124 9 66
3 27 21 66
3 27 42 21
3 66 245 27
3 245 42 27
3 121 134 6
3 121 123 134
3 119 0 197
3 0 146 197
3 197 146 134
3 197 134 11
3 11 213 197
3 197 213 119
3 227 161 216
3 161 90 216
3 6 208 188
3 188 208 45
3 98 60 56
3 56 167 98
3 56 193 167
3 56 213 193
3 199 73 204
3 73 16 204
3 132 131 234
3 132 17 104
3 132 234 17
3 104 199 132
3 199 131 132
3 5 47 230
3 230 70 5
3 196 70 230
3 46 112 2
3 2 237 46
3 252 237 2
3 2 47 252
3 159 113 41
3 41 74 159
3 41 113 177
3 177 74 41
3 14 49 140
3 49 80 140
3 140 80 5
3 12 14 140
3 62 15 249
3 62 4 15
3 44 4 62
3 26 135 235
3 77 142 235
3 235 135 77
3 250 86 37
3 37 86 222
3 37 217 250
3 222 217 37
3 99 86 29
3 29 108 99
3 250 73 29
3 29 86 250
3 17 108 29
3 104 17 29
3 29 73 104
3 185 86 99
3 185 99 201
3 201 30 185
3 3 244 185
3 185 30 3
3 116 18 195
3 154 253 222
3 154 195 253
3 217 253 101
3 101 233 217
3 253 195 101
3 143 142 129
3 177 113 157
3 113 35 157
3 157 35 129
3 129 142 157
3 77 177 157
3 157 142 77
3 220 81 57
3 178 109 57
3 109 220 57
3 57 92 178
3 254 92 57
3 57 81 254
3 158 13 183
3 209 158 183
3 183 89 209
3 183 207 89
3 183 13 207
3 88 108 17
3 88 13 108
3 180 13 88
3 88 234 180
3 17 234 88
3 20 18 67
3 20 67 31
3 31 226 20
3 182 216 90
3 182 90 211
3 211 233 182
3 45 208 182
3 208 216 182
3 31 14 202
3 202 226 31
3 12 45 202
3 202 14 12
3 45 182 202
3 170 9 54
3 9 124 54
3 19 90 161
3 19 85 90
3 19 161 155
3 19 155 71
3 71 85 19
3 211 90 139
3 90 85 139
3 139 127 211
3 71 127 139
3 139 85 71
3 255 208 146
3 255 216 208
3 255 146 227
3 227 216 255
3 6 188 115
3 115 121 6
3 33 123 115
3 123 121 115
3 107 70 33
3 33 115 107
3 107 115 188
3 5 70 107
3 12 140 107
3 107 140 5
3 184 45 12
3 184 188 45
3 12 107 184
3 184 107 188
3 10 213 239
3 213 56 239
3 239 56 60
3 239 32 10
3 60 32 239
3 191 204 16
3 8 130 191
3 191 16 8
3 191 130 236
3 203 131 199
3 199 204 203
3 36 131 203
3 204 191 203
3 236 36 203
3 203 191 236
3 53 230 47
3 53 112 48
3 48 165 53
3 53 165 196
3 196 230 53
3 151 235 186
3 26 235 151
3 222 86 174
3 86 185 174
3 174 154 222
3 116 195 34
3 195 154 34
3 34 154 244
3 34 244 190
3 34 241 116
3 190 241 34
3 233 101 206
3 206 182 233
3 105 143 129
3 129 35 105
3 35 241 105
3 228 235 142
3 142 143 228
3 228 143 186
3 162 101 195
3 162 195 18
3 18 20 162
3 162 206 101
3 24 182 226
3 226 202 24
3 24 202 182
3 79 124 223
3 79 54 124
3 79 223 170
3 170 54 79
3 47 2 160
3 160 53 47
3 160 2 112
3 112 53 160
3 44 62 231
3 231 153 44
3 231 151 186
3 186 153 231
3 190 44 219
3 44 153 219
3 219 241 190
3 219 105 241
3 143 105 219
3 186 143 219
3 219 153 186
3 244 154 172
3 154 174 172
3 172 185 244
3 172 174 185
3 186 235 126
3 126 228 186
3 235 228 126
3 206 162 75
3 226 182 75
3 182 206 75
3 75 20 226
3 75 162 20
3 247 62 249
3 247 231 62
3 151 231 247
3 43 247 249
3 151 247 43
3 249 64 43
3 43 64 254
3 26 151 43
3 43 81 26
3 254 81 43