ply
format ascii 1.0
comment https://github.com/mikedh/trimesh
element vertex 256
property float x
property float y
property float z
element face 508
property list uchar int vertex_indices
end_header
0.16301332 2.82586122 1.97833395
-1.09161186 0.88912612 3.07353449
-4.22242355 1.08721375 -0.98181957
2.09844804 1.66096282 -2.49041343
1.24406552 1.08752787 -2.98886633
-3.53952551 2.20751405 -0.65382898
-2.28212810 2.78860497 1.24796903
-0.74402970 0.51003724 3.19410992
3.04127598 2.61158466 0.62213892
0.00270407 0.12022700 3.26829672
0.02307126 1.49302053 2.96724725
-1.73751807 1.42233336 2.73884273
-2.61788392 2.92115426 -0.32716250
4.06510353 0.90311348 -1.38269913
-2.61231732 2.80447054 -0.82903737
1.41122043 0.45275712 -3.08959842
3.39926934 2.42550325 0.23346953
3.98471451 1.23517919 -1.27530384
-0.47824872 2.71758223 -2.07901502
0.79656106 3.35704589 0.91424650
-1.00629854 3.05057764 -1.52077019
0.81466961 0.53527588 3.18213725
3.48556089 -0.06870177 2.17791128
2.29374576 1.54277730 -2.46982932
-1.55167758 3.23896623 -0.79024732
1.99304998 1.01870906 -2.80578470
-0.20713539 0.49881199 -3.23528266
0.72769934 0.25808951 3.22141075
3.53232074 0.73117507 2.03351688
3.28582191 2.26474524 -1.03295481
2.38000584 1.76238704 -2.30000210
-2.56504822 2.69797873 -1.14103425
0.25270453 1.33965337 3.02394581
-3.10499692 2.52213454 0.76599318
0.52540755 2.55520773 -2.24156427
-1.55636239 1.77096069 -2.61779332
4.11721516 1.59230447 0.49234831
1.97487199 2.91765690 -1.25332606
-3.00638723 0.62829047 2.43614721
1.36586654 1.09902728 2.95945883
-1.55060852 -0.00705246 3.08508921
-2.91885853 1.12065530 -2.33643842
1.34796667 0.27531469 3.12150812
0.29701769 0.55388957 -3.22340894
0.77806187 1.43198061 -2.94357014
-1.94242656 3.22134948 -0.23421560
-4.17733622 0.44284374 -1.40782893
-4.03496838 1.39327788 -1.04134369
-4.62768984 0.48854771 0.09405917
-2.68700194 2.63178849 -1.13609350
3.10591745 0.35338131 2.42236924
3.45080113 1.41910064 1.77889240
0.43834785 0.15101172 -3.25341201
-4.33434153 1.22707224 -0.46691716
-0.29887739 0.15696989 3.26015949
0.34247407 1.91670263 2.74292827
-0.32158002 1.21877170 3.06375694
0.02361025 0.21013995 -3.26466298
0.91569090 2.23338413 2.46070433
-2.39920068 0.72645587 2.72567391
0.13439842 1.19597781 3.07848382
1.27904475 -3.26458549 -0.92936438
0.92204267 1.05857265 -3.05424356
2.87035990 2.63993263 0.87027276
0.51281488 0.39256614 -3.23070025
1.12151504 0.59264427 3.12808180
0.67640334 0.42547640 3.21217799
-1.21174467 2.51925755 -2.14461350
4.30410671 0.92740422 0.94457126
-3.77109313 1.46183550 1.38680243
-3.54223323 2.28836012 0.33347279
1.06397712 3.33348560 0.85261643
-0.11780178 -2.67901278 2.14625692
3.68605614 2.15863776 -0.30239171
-2.98231769 0.79236221 -2.41031504
-0.39722204 3.27966857 -1.22533345
-4.38270998 0.73210394 0.91535771
-1.16771948 0.63620895 -3.11194801
-0.65491968 -3.01255608 -1.67208815
-0.24224949 0.21825083 3.25951290
-3.14079285 2.33438921 -1.11627173
-0.04155511 0.29884198 -3.25848079
4.66904545 0.15768215 -0.03761596
2.69275403 1.79367149 2.10123444
2.53977942 0.12981877 2.74227738
0.82711643 3.39190006 0.78239232
2.49057484 2.52861071 -1.49764657
-4.54123974 0.64869827 -0.48813826
4.01039267 1.16768515 -1.28902638
4.10056973 0.31647366 -1.54219115
0.14623809 3.52891636 0.36409688
2.03499675 0.14552067 2.94154906
0.14741454 0.18724298 -3.26415730
-2.28618455 0.03359674 2.85221672
0.83082366 2.91086149 1.78282344
-1.99332690 0.50978100 -2.92036843
2.55654907 2.14440346 1.89775777
1.65669072 1.40648961 -2.77055001
0.25029877 0.74111885 3.19335771
2.65662146 2.36243057 -1.58327079
3.36909246 1.54701900 1.76493406
0.42819920 3.26253796 -1.25807405
4.67016935 0.08268867 -0.10001396
-3.03186560 -2.37785864 -1.18521738
4.06039810 1.74565065 -0.19286443
-0.92013735 1.68313634 -2.80714488
-1.59740913 0.05659736 -3.07366061
-3.02860308 2.70622230 0.04487816
3.76065969 1.35204923 -1.49265170
-0.71010160 0.01914223 -3.23281646
-3.87659311 -1.10588849 1.51691711
1.09238780 1.86983168 2.67331338
-4.46897697 0.84776688 -0.55483305
-2.76145220 1.46098399 -2.27036166
1.73253131 1.23367882 2.81683755
-3.00471020 2.58307528 0.78551292
0.21740778 2.67930079 -2.14197564
-3.91768646 0.15066481 1.77855384
-2.87791228 0.68055356 2.49996281
-0.05243458 2.06992149 2.65732002
2.49930739 0.55567354 2.71589422
-2.95265627 2.17334080 1.55695915
1.44470239 0.99258590 2.97268748
-3.08513236 2.11965656 1.49346936
-0.08303929 0.21859974 3.26351213
-1.09926105 0.69884157 3.11273217
-0.37757000 1.11570585 -3.09337449
1.31564951 3.40225863 -0.20385464
-2.21813536 1.08631766 2.70016170
-0.88416886 1.42735410 -2.93010449
3.28867340 2.40221429 0.71401292
4.11339998 1.67684674 0.16978513
4.16301298 1.60817015 -0.12329662
-2.88813901 1.86698782 -1.91326332
-2.28864670 2.13465071 2.06590033
-0.31287736 0.44776034 -3.23712397
-1.91122842 -1.36713350 2.70667720
0.09583647 -3.39856577 0.94849229
2.26159072 0.88734967 -2.74245763
0.70651037 3.50088143 0.25662726
-3.08546448 2.52954125 -0.78182089
1.26398230 2.84559011 1.74693608
-0.85291654 1.21732056 -3.01453733
-0.52133822 1.28619611 -3.02662182
1.66841674 0.33160934 -3.03928947
-1.89822519 1.13117516 2.80160379
-0.91174614 3.00075674 1.63097489
-4.42546892 0.31339142 1.01059604
0.44105941 -3.17224908 1.43842089
-4.60339212 0.16600947 0.54307699
3.25310278 0.28094235 -2.33329296
-0.09243423 0.73709345 -3.19855118
-1.82781088 0.31510875 2.99587011
0.31549612 1.34483135 -3.01933789
1.18523538 2.62778115 -2.04002309
1.10995758 3.24771285 1.07337379
0.64099395 -2.64842105 -2.13333845
-1.94079828 1.37984097 -2.69048023
3.57564187 0.60399538 -2.03170776
-3.40829206 1.22107422 -1.93468952
-4.32108068 1.08868444 -0.74429929
-0.04938591 3.21726203 1.38738883
-0.16634008 3.20952678 -1.39607525
2.97639894 2.13101101 1.58335090
-1.54379356 1.14762914 2.90013433
-4.18741369 1.23311615 0.90871584
-2.09656620 1.03178787 2.76410127
-0.39141867 0.49917436 3.22615147
-3.60244060 0.60968238 -2.00677681
-2.66577458 0.10281695 2.68449593
-0.33369741 0.15442349 3.25872183
0.74913126 0.07958011 -3.22715926
1.41595900 2.54222989 -2.05836177
-2.02185130 -2.57217526 -1.75709629
1.84651482 2.58928037 -1.82804525
1.87118363 -3.05863833 -1.02871788
1.33694935 0.89143866 3.02441978
-2.21393037 1.02805412 -2.72018123
0.18058644 0.14392625 -3.26548839
1.30361414 0.10800360 -3.13883901
4.55585623 0.22789735 -0.69832468
2.38430142 2.87599635 0.94804662
-1.25204980 3.40699315 -0.29838091
4.08306026 0.54507166 -1.51014054
-2.49906731 3.00181961 -0.03601529
2.11783266 2.35824251 -1.94536948
-0.26662430 1.20183313 -3.07255673
-4.15711498 -1.48437083 0.60380358
-2.57885361 2.88480115 0.62093747
-3.98340559 0.36479902 1.67749465
0.69585282 2.05611730 -2.62222648
3.37083387 2.36463594 0.62795013
-1.42426348 0.06352913 3.11423397
-0.46819580 1.20768988 3.05794477
-1.57564533 0.04956026 -3.07889748
0.49573839 2.93962526 -1.80344653
-3.87969613 1.69743228 0.94061887
-0.56874311 2.12462711 2.59085870
2.04210186 0.44634557 -2.91241908
4.02024317 1.79997981 -0.18411705
3.65225554 0.45107108 1.99748659
2.72182989 1.86571884 -2.03008008
-1.78098071 3.18305516 -0.74780142
3.99049568 1.80321050 0.38019517
3.63940406 2.18652272 0.39965367
3.52179766 0.59983480 2.07726860
0.23509246 3.40296268 -0.92373490
4.44475937 0.09764355 -1.00600088
-1.94315016 3.02313495 1.05207670
3.84037328 0.19211571 -1.85466683
-3.04688478 -1.93070245 -1.72856629
0.57724917 3.52403975 -0.09788337
2.71686220 2.53579617 1.27757037
-0.23681003 1.52535927 2.94956923
1.43097317 0.06571820 -3.11263728
0.71063161 -3.07710052 1.55618036
-0.71792638 3.28936076 1.12873089
1.43271160 3.20978045 -0.97909194
-0.91227406 -1.94677925 2.65960479
0.39967564 1.46840775 -2.96460819
-0.23611502 0.33320686 -3.25195527
-3.01664495 0.25839257 -2.48665953
1.82903707 2.84860420 -1.47685981
-0.27017471 0.35251409 3.24854875
1.37310660 0.37570614 -3.10664272
-3.78373098 -0.54424530 1.85250163
-1.11750281 3.21869564 -1.14280367
-0.57544768 3.18394828 1.39254785
-0.49983507 1.16000390 -3.07188463
-2.84978771 2.01320624 -1.81168711
-3.95108891 1.81011224 -0.52141881
0.55030376 1.01346171 -3.11058092
-2.53182864 -0.49090672 -2.71179485
0.24863347 3.40646386 -0.91140598
4.48555422 0.98978275 -0.11334386
-0.40915862 0.96352714 -3.13480353
3.98317838 1.37254953 1.15234852
-3.87204099 0.95251536 -1.60821152
2.94312143 1.42565203 -2.17549348
-0.09966449 1.33347034 3.03036427
1.91372883 0.13900484 -2.98060465
-0.37514612 2.32975388 -2.45450568
4.42798233 -1.12290668 -0.14942898
-3.66936636 1.84882641 1.09688890
1.29122210 2.45835733 -2.18177009
0.67915857 0.11511699 3.23459411
3.50906682 0.46804178 2.11599660
0.45381272 0.77931601 -3.17505646
-1.18722391 0.28245348 -3.15206909
0.51049501 0.53652334 -3.21301842
2.23403740 2.98929763 -0.82215434
-3.62181115 -1.45302677 1.57491088
-3.75320458 1.30389857 -1.53518093
0.94383508 3.03820014 -1.56101930
0.25019953 0.31172627 -3.25348926
-0.88807118 3.12876487 1.41913223
3 187 149 48
3 48 87 187
3 48 149 76
3 156 78 173
3 242 22 215
3 215 175 242
3 251 187 137
3 210 221 232
3 232 173 210
3 156 173 232
3 46 221 210
3 210 187 46
3 46 187 87
3 103 187 210
3 210 173 103
3 137 187 103
3 103 78 137
3 103 173 78
3 137 78 61
3 61 215 137
3 175 215 61
3 61 78 156
3 156 175 61
3 171 156 178
3 171 214 156
3 242 175 209
3 136 251 218
3 82 68 22
3 82 242 102
3 82 22 242
3 22 68 200
3 149 187 110
3 187 251 110
3 178 156 109
3 156 232 109
3 112 46 87
3 112 87 48
3 137 215 148
3 28 236 51
3 28 200 68
3 68 236 28
3 246 50 22
3 22 200 246
3 225 110 251
3 225 251 136
3 136 169 225
3 169 117 225
3 150 175 156
3 150 209 175
3 83 28 51
3 83 163 96
3 71 181 127
3 8 250 127
3 127 181 8
3 118 169 59
3 196 69 243
3 84 215 22
3 22 50 84
3 72 91 218
3 72 148 215
3 215 84 72
3 72 84 91
3 137 148 72
3 72 251 137
3 72 218 251
3 176 91 122
3 114 39 122
3 122 39 176
3 1 7 193
3 193 7 167
3 58 119 55
3 102 242 180
3 180 82 102
3 200 28 205
3 205 246 200
3 205 28 50
3 50 246 205
3 189 69 76
3 147 225 117
3 117 189 147
3 149 110 147
3 110 225 147
3 147 76 149
3 147 189 76
3 52 171 178
3 198 15 25
3 209 150 158
3 158 150 238
3 194 248 109
3 194 106 248
3 194 109 232
3 232 106 194
3 51 236 100
3 236 163 100
3 100 83 51
3 163 83 100
3 130 163 236
3 96 163 212
3 163 130 212
3 155 181 71
3 111 96 58
3 111 83 96
3 114 83 111
3 58 55 111
3 111 39 114
3 93 59 169
3 93 169 136
3 59 93 152
3 76 69 165
3 69 196 165
3 48 76 165
3 91 84 120
3 114 122 120
3 120 122 91
3 120 84 50
3 120 83 114
3 50 28 120
3 28 83 120
3 136 218 170
3 170 7 192
3 167 7 170
3 218 91 245
3 134 69 118
3 73 199 104
3 36 236 68
3 82 180 234
3 68 82 234
3 234 36 68
3 118 69 38
3 69 189 38
3 38 189 117
3 38 169 118
3 38 117 169
3 221 46 168
3 133 159 252
3 95 232 221
3 95 106 232
3 95 177 77
3 77 248 95
3 248 106 95
3 113 159 133
3 31 67 229
3 133 252 229
3 244 3 190
3 217 127 250
3 254 52 178
3 171 52 64
3 52 254 64
3 214 171 179
3 138 198 25
3 150 198 138
3 238 150 138
3 15 198 144
3 108 158 238
3 108 238 201
3 201 99 108
3 141 212 181
3 141 155 94
3 181 155 141
3 96 212 141
3 94 58 141
3 58 96 141
3 63 130 8
3 63 212 130
3 8 181 63
3 181 212 63
3 11 145 164
3 164 193 11
3 1 193 164
3 145 152 164
3 118 59 128
3 128 145 11
3 128 134 118
3 11 134 128
3 125 152 192
3 192 7 125
3 125 7 1
3 1 164 125
3 125 164 152
3 192 152 40
3 40 152 93
3 40 93 136
3 136 170 40
3 40 170 192
3 59 152 166
3 166 152 145
3 166 128 59
3 145 128 166
3 98 66 21
3 21 176 98
3 21 65 176
3 98 167 223
3 167 170 223
3 9 170 218
3 218 245 9
3 9 245 66
3 42 245 91
3 42 91 176
3 176 65 42
3 65 21 42
3 243 69 123
3 69 134 123
3 123 33 243
3 0 58 94
3 0 119 58
3 94 155 161
3 161 0 94
3 227 0 161
3 6 134 146
3 146 0 227
3 6 146 208
3 70 196 243
3 243 33 70
3 11 193 213
3 213 55 119
3 213 10 55
3 98 176 60
3 32 111 55
3 55 10 32
3 39 111 32
3 176 39 32
3 32 60 176
3 16 250 8
3 16 73 250
3 36 234 131
3 159 168 237
3 237 252 159
3 237 168 46
3 74 168 159
3 221 168 74
3 74 95 221
3 177 95 74
3 31 229 49
3 49 14 31
3 80 229 252
3 80 47 5
3 252 47 80
3 80 49 229
3 25 15 4
3 190 3 97
3 97 44 190
3 97 4 44
3 25 4 97
3 253 217 222
3 201 238 30
3 211 127 233
3 127 217 233
3 35 113 133
3 133 229 35
3 35 229 67
3 92 254 178
3 81 220 26
3 26 220 135
3 135 248 77
3 109 248 135
3 135 220 109
3 224 179 171
3 171 64 224
3 15 144 224
3 249 15 224
3 224 64 249
3 214 179 224
3 224 144 214
3 207 180 242
3 242 209 207
3 209 89 207
3 238 138 23
3 23 30 238
3 3 30 23
3 23 138 25
3 25 97 23
3 23 97 3
3 214 144 240
3 240 144 198
3 240 198 150
3 156 214 240
3 240 150 156
3 158 108 13
3 180 207 13
3 67 18 241
3 241 35 67
3 241 18 116
3 98 223 124
3 124 66 98
3 124 9 66
3 27 21 66
3 27 42 21
3 66 245 27
3 245 42 27
3 121 134 6
3 121 123 134
3 119 0 197
3 0 146 197
3 197 146 134
3 197 134 11
3 11 213 197
3 197 213 119
3 227 161 216
3 161 90 216
3 6 208 188
3 188 208 45
3 98 60 56
3 56 167 98
3 56 193 167
3 56 213 193
3 199 73 204
3 73 16 204
3 132 131 234
3 132 17 104
3 132 234 17
3 104 199 132
3 199 131 132
3 5 47 230
3 230 70 5
3 196 70 230
3 46 112 2
3 2 237 46
3 252 237 2
3 2 47 252
3 159 113 41
3 41 74 159
3 41 113 177
3 177 74 41
3 14 49 140
3 49 80 140
3 140 80 5
3 12 14 140
3 62 15 249
3 62 4 15
3 44 4 62
3 26 135 235
3 77 142 235
3 235 135 77
3 250 86 37
3 37 86 222
3 37 217 250
3 222 217 37
3 99 86 29
3 29 108 99
3 250 73 29
3 29 86 250
3 17 108 29
3 104 17 29
3 29 73 104
3 185 86 99
3 185 99 201
3 201 30 185
3 3 244 185
3 185 30 3
3 116 18 195
3 154 253 222
3 154 195 253
3 217 253 101
3 101 233 217
3 253 195 101
3 143 142 129
3 177 113 157
3 113 35 157
3 157 35 129
3 129 142 157
3 77 177 157
3 157 142 77
3 220 81 57
3 178 109 57
3 109 220 57
3 57 92 178
3 254 92 57
3 57 81 254
3 158 13 183
3 209 158 183
3 183 89 209
3 183 207 89
3 183 13 207
3 88 108 17
3 88 13 108
3 180 13 88
3 88 234 180
3 17 234 88
3 20 18 67
3 20 67 31
3 31 226 20
3 182 216 90
3 182 90 211
3 211 233 182
3 45 208 182
3 208 216 182
3 31 14 202
3 202 226 31
3 12 45 202
3 202 14 12
3 45 182 202
3 170 9 54
3 9 124 54
3 19 90 161
3 19 85 90
3 19 161 155
3 19 155 71
3 71 85 19
3 211 90 139
3 90 85 139
3 139 127 211
3 71 127 139
3 139 85 71
3 255 208 146
3 255 216 208
3 255 146 227
3 227 216 255
3 6 188 115
3 115 121 6
3 33 123 115
3 123 121 115
3 107 70 33
3 33 115 107
3 107 115 188
3 5 70 107
3 12 140 107
3 107 140 5
3 184 45 12
3 184 188 45
3 12 107 184
3 184 107 188
3 10 213 239
3 213 56 239
3 239 56 60
3 239 32 10
3 60 32 239
3 191 204 16
3 8 130 191
3 191 16 8
3 191 130 236
3 203 131 199
3 199 204 203
3 36 131 203
3 204 191 203
3 236 36 203
3 203 191 236
3 53 230 47
3 53 112 48
3 48 165 53
3 53 165 196
3 196 230 53
3 151 235 186
3 26 235 151
3 222 86 174
3 86 185 174
3 174 154 222
3 116 195 34
3 195 154 34
3 34 154 244
3 34 244 190
3 34 241 116
3 190 241 34
3 233 101 206
3 206 182 233
3 105 143 129
3 129 35 105
3 35 241 105
3 228 235 142
3 142 143 228
3 228 143 186
3 162 101 195
3 162 195 18
3 18 20 162
3 162 206 101
3 24 182 226
3 226 202 24
3 24 202 182
3 79 124 223
3 79 54 124
3 79 223 170
3 170 54 79
3 47 2 160
3 160 53 47
3 160 2 112
3 112 53 160
3 44 62 231
3 231 153 44
3 231 151 186
3 186 153 231
3 190 44 219
3 44 153 219
3 219 241 190
3 219 105 241
3 143 105 219
3 186 143 219
3 219 153 186
3 244 154 172
3 154 174 172
3 172 185 244
3 172 174 185
3 186 235 126
3 126 228 186
3 235 228 126
3 206 162 75
3 226 182 75
3 182 206 75
3 75 20 226
3 75 162 20
3 247 62 249
3 247 231 62
3 151 231 247
3 43 247 249
3 151 247 43
3 249 64 43
3 43 64 254
3 26 151 43
3 43 81 26
3 254 81 43