ply
format ascii 1.0
comment https://github.com/mikedh/trimesh
element vertex 256
property float x
property float y
property float z
element face 508
property list uchar int vertex_indices
end_header
0.03629580 2.43675280 0.72490883
-0.24305329 0.76669747 1.12621653
-0.94014543 0.93750930 -0.35976216
0.46723080 1.43225563 -0.91254699
0.27699789 0.93778014 -1.09519207
-0.78809446 1.90354931 -0.23957856
-0.50812811 2.40462661 0.45728570
-0.16566223 0.43980742 1.17039824
0.67715651 2.25198126 0.22796658
0.00060208 0.10367229 1.19758201
0.00513694 1.28743827 1.08727038
-0.38686779 1.22648442 1.00357747
-0.58288598 2.51892447 -0.11988016
0.90511721 0.77875882 -0.50665402
-0.58164656 2.41830754 -0.30377913
0.31421584 0.39041451 -1.13210273
0.75686568 2.09152246 0.08554882
0.88721818 1.06510067 -0.46730182
-0.10648466 2.34338331 -0.76180077
0.17735863 2.89479589 0.33500177
-0.22405781 2.63052678 -0.55724657
0.18139060 0.46157083 1.16601121
0.77607894 -0.05924184 0.79803872
0.51071489 1.33034384 -0.90500450
-0.34548938 2.79297519 -0.28956550
0.44376335 0.87843740 -1.02810669
-0.04611981 0.43012783 -1.18548489
0.16202620 0.22255175 1.18040192
0.78649032 0.63049555 0.74512923
0.73160601 1.95290005 -0.37849933
0.52992117 1.51971424 -0.84277576
-0.57112181 2.32647920 -0.41810220
0.05626603 1.15518916 1.10804605
-0.69134432 2.17484784 0.28067821
0.11698483 2.20336699 -0.82136279
-0.34653249 1.52710736 -0.95922202
0.91672021 1.37305129 0.18040819
0.43971589 2.51590872 -0.45924860
-0.66938835 0.54177773 0.89266258
0.30411756 0.94769621 1.08441639
-0.34525135 -0.00608137 1.13045049
-0.64989966 0.96634614 -0.85612690
0.30013207 0.23740511 1.14379525
0.06613259 0.47762147 -1.18113410
0.17323968 1.23480332 -1.07859445
-0.43249175 2.77778411 -0.08582219
-0.93010646 0.38186613 -0.51586217
-0.89840746 1.20142972 -0.38157323
-1.03038013 0.42127690 0.03446553
-0.59827548 2.26940322 -0.41629180
0.69154930 0.30472228 0.88761401
0.76833951 1.22369683 0.65182871
0.09760052 0.13021809 -1.19212794
-0.96506459 1.05810988 -0.17108960
-0.06654666 0.13535585 1.19460034
0.07625370 1.65278137 1.00507450
-0.07160152 1.05095232 1.12263381
0.00525695 0.18120462 -1.19625056
0.20388353 1.92585719 0.90166086
-0.53419501 0.62642616 0.99875206
0.02992453 1.03129697 1.12803006
0.28478622 -2.81506681 -0.34054130
0.20529778 0.91281199 -1.11914790
0.63910115 2.27642584 0.31888875
0.11418100 0.33851156 -1.18380582
0.24971138 0.51103985 1.14620399
0.15060486 0.36689022 1.17701876
-0.26980150 2.17236710 -0.78583771
0.95833260 0.79970485 0.34611347
-0.83965421 1.26054740 0.50815755
-0.78869736 1.97326326 0.12219240
0.23690027 2.87447977 0.31241906
-0.02622920 -2.31012464 0.78643984
0.82072031 1.86140299 -0.11080354
-0.66402918 0.68325752 -0.88319707
-0.08844363 2.82807302 -0.44899148
-0.97583407 0.63129652 0.33540896
-0.25999904 0.54860586 -1.14029217
-0.14582141 -2.59774065 -0.61269307
-0.05393815 0.18819867 1.19436347
-0.69931448 2.01295424 -0.40902868
-0.00925247 0.25769278 -1.19398522
1.03958821 0.13597003 -0.01378339
0.59955627 1.54669094 0.76994252
0.56549561 0.11194330 1.00483596
0.18416195 2.92485070 0.28668725
0.55453992 2.18043232 -0.54877353
-1.01113153 0.55937546 -0.17886552
0.89293557 1.00690019 -0.47233009
0.91301399 0.27289668 -0.56509566
0.03256070 3.04300046 0.13341381
0.45310304 0.12548313 1.07785392
0.03282264 0.16146046 -1.19606519
-0.50903136 0.02897062 1.04512036
0.18498738 2.51004910 0.65326911
-0.44382501 0.43958646 -1.07009280
0.56922942 1.84912872 0.69538379
0.36887115 1.21282232 -1.01519573
0.05573038 0.63907015 1.17012262
0.59151113 2.03713441 -0.58014828
0.75014663 1.33400154 0.64671403
0.09534086 2.81330132 -0.46098840
1.03983843 0.07130281 -0.03664751
-0.67506123 -2.05043817 -0.43429196
0.90406954 1.50528240 -0.07067014
-0.20487355 1.45137608 -1.02860498
-0.35567179 0.04880416 -1.12626266
-0.67433482 2.33358765 0.01644443
0.83733124 1.16587818 -0.54694325
-0.15810797 0.01650643 -1.18458128
-0.86314440 -0.95361263 0.55583471
0.24322605 1.61236429 0.97956592
-0.99504185 0.73103321 -0.20330410
-0.61485225 1.25981307 -0.83191478
0.38575745 1.06380677 1.03215659
-0.66901493 2.22739744 0.28783071
0.04840701 2.31037307 -0.78487110
-0.87229407 0.12991895 0.65170467
-0.64078271 0.58684438 0.91604614
-0.01167484 1.78490257 0.97370553
0.55648428 0.47915980 0.99516851
-0.65742487 1.87408161 0.57050705
0.32167077 0.85591131 1.08926368
-0.68692142 1.82778931 0.54724288
-0.01848915 0.18849954 1.19582880
-0.24475642 0.60261422 1.14057946
-0.08406800 0.96207815 -1.13348639
0.29293644 2.93378305 -0.07469721
-0.49387982 0.93673664 0.98940378
-0.19686498 1.23081386 -1.07366037
0.73224092 2.07144022 0.26163140
0.91587067 1.44595253 0.06221333
0.92691737 1.38673234 -0.04517883
-0.64305979 1.60991204 -0.70106542
-0.50957954 1.84071898 0.75699526
-0.06966383 0.38610575 -1.18615961
-0.42554533 -1.17888546 0.99179125
0.02133851 -2.93059850 0.34755024
0.50355536 0.76516563 -1.00490212
0.15730834 3.01882577 0.09403437
-0.68699533 2.18123484 -0.28647786
0.28143248 2.45376539 0.64011914
-0.18990648 1.04970098 -1.10459852
-0.11607878 1.10909271 -1.10902655
0.37148201 0.28594822 -1.11366832
-0.42265010 0.97541744 1.02657461
-0.20300521 2.58756590 0.59762818
-0.98535460 0.27023882 0.37030652
0.09820426 -2.73544478 0.52707177
-1.02497005 0.14315072 0.19899638
0.72432089 0.24225785 -0.85497439
-0.02058098 0.63559896 -1.17202556
-0.40697196 0.27171969 1.09775841
0.07024692 1.15965414 -1.10635757
0.26389906 2.26594758 -0.74751323
0.24713807 2.80051732 0.39330983
0.14272076 -2.28374553 -0.78170615
-0.43212920 1.18984306 -0.98585629
0.79613596 0.52082795 -0.74446625
-0.75887460 1.05293775 -0.70891649
-0.96211195 0.93877751 -0.27272904
-0.01099604 2.77425957 0.50837243
-0.03703652 2.76758933 -0.51155537
0.66271126 1.83758044 0.58017761
-0.34373397 0.98960578 1.06267858
-0.93235034 1.06332159 0.33297521
-0.46681178 0.88971537 1.01283276
-0.08715148 0.43044028 1.18213904
-0.80210286 0.52573186 -0.73533100
-0.59354913 0.08865952 0.98366350
-0.07429953 0.13316007 1.19407356
0.16679811 0.06862228 -1.18250835
0.31527090 2.19217634 -0.75423294
-0.45017612 -2.21799827 -0.64384204
0.41113648 2.23274803 -0.66983950
0.41662914 -2.63747764 -0.37694684
0.29767901 0.76869154 1.10821974
-0.49294356 0.88649571 -0.99673945
0.04020854 0.12410825 -1.19655299
0.29025674 0.09313199 -1.15014565
1.01438594 0.19651690 -0.25588286
0.53087759 2.47998476 0.34738696
-0.27877566 2.93786550 -0.10933390
0.90911537 0.47001773 -0.55335158
-0.55643082 2.58848262 -0.01319686
0.47154686 2.03352308 -0.71282989
-0.05936534 1.03634608 -1.12585819
-0.92560410 -1.27997959 0.22124806
-0.57419568 2.48757696 0.22752634
-0.88692677 0.31456786 0.61467415
0.15493539 1.77299917 -0.96084642
0.75053436 2.03903627 0.23009594
-0.31711996 0.05478146 1.14112973
-0.10424633 1.04139638 1.12050414
-0.35082594 0.04273604 -1.12818170
0.11037883 2.53485227 -0.66082591
-0.86383533 1.46370351 0.34466523
-0.12663372 1.83207560 0.94935256
0.45468500 0.38488579 -1.06717992
0.89512879 1.55213070 -0.06746489
0.81319445 0.38896063 0.73192686
0.60603017 1.60881782 -0.74386990
-0.39654496 2.74476290 -0.27401230
0.88850546 1.55491650 0.13931260
0.81033295 1.88544834 0.14644265
0.78414726 0.51724029 0.76116085
0.05234461 2.93439007 -0.33847854
0.98964965 0.08419847 -0.36862278
-0.43265289 2.60686278 0.38550606
0.85507989 0.16566223 -0.67959428
-0.67840534 -1.66485345 -0.63338798
0.12852764 3.03879523 -0.03586681
0.60492402 2.18662834 0.46813232
-0.05272703 1.31532407 1.08079267
0.31861392 0.05666910 -1.14054465
0.15822597 -2.65339780 0.57022166
-0.15985018 2.83643055 0.41359398
0.31900096 2.76780820 -0.35876268
-0.20312275 -1.67871654 0.97454280
0.08898994 1.26621461 -1.08630323
-0.05257228 0.28732577 -1.19159412
-0.67167234 0.22281308 -0.91117156
0.40724498 2.45636415 -0.54115671
-0.06015586 0.30397448 1.19034588
0.30572960 0.32397309 -1.13834810
-0.84246814 -0.46930519 0.67880088
-0.24881802 2.77549577 -0.41875061
-0.12812653 2.74553299 0.51026285
-0.11129098 1.00027657 -1.12561190
-0.63452059 1.73599672 -0.66384548
-0.87973130 1.56086791 -0.19106030
0.12252810 0.87391263 -1.13979125
-0.56372529 -0.42331108 -0.99366641
0.05535959 2.93740916 -0.33396092
0.99873286 0.85349411 -0.04153190
-0.09110138 0.83085382 -1.14866686
0.88687617 1.18355572 0.42224804
-0.86213082 0.82135826 -0.58928716
0.65530187 1.22934616 -0.79715282
-0.02219084 1.14985740 1.11039793
0.42610207 0.11986451 -1.09216487
-0.08352831 2.00895715 -0.89938956
0.98591411 -0.96828747 -0.05475435
-0.81700426 1.59425128 0.40192634
0.28749755 2.11985278 -0.79945266
0.15121832 0.09926590 1.18523264
0.78131270 0.40359452 0.77535176
0.10104386 0.67200774 -1.16341662
-0.26434180 0.24356091 -1.15499353
0.11366447 0.46264648 -1.17732680
0.49742049 2.57768488 -0.30125701
-0.80641586 -1.25295162 0.57708502
-0.83567125 1.12435758 -0.56252700
0.21014999 2.61985373 -0.57199478
0.05570827 0.26880297 -1.19215620
-0.19773385 2.69794798 0.52000397
3 187 149 48
3 48 87 187
3 48 149 76
3 156 78 173
3 242 22 215
3 215 175 242
3 251 187 137
3 210 221 232
3 232 173 210
3 156 173 232
3 46 221 210
3 210 187 46
3 46 187 87
3 103 187 210
3 210 173 103
3 137 187 103
3 103 78 137
3 103 173 78
3 137 78 61
3 61 215 137
3 175 215 61
3 61 78 156
3 156 175 61
3 171 156 178
3 171 214 156
3 242 175 209
3 136 251 218
3 82 68 22
3 82 242 102
3 82 22 242
3 22 68 200
3 149 187 110
3 187 251 110
3 178 156 109
3 156 232 109
3 112 46 87
3 112 87 48
3 137 215 148
3 28 236 51
3 28 200 68
3 68 236 28
3 246 50 22
3 22 200 246
3 225 110 251
3 225 251 136
3 136 169 225
3 169 117 225
3 150 175 156
3 150 209 175
3 83 28 51
3 83 163 96
3 71 181 127
3 8 250 127
3 127 181 8
3 118 169 59
3 196 69 243
3 84 215 22
3 22 50 84
3 72 91 218
3 72 148 215
3 215 84 72
3 72 84 91
3 137 148 72
3 72 251 137
3 72 218 251
3 176 91 122
3 114 39 122
3 122 39 176
3 1 7 193
3 193 7 167
3 58 119 55
3 102 242 180
3 180 82 102
3 200 28 205
3 205 246 200
3 205 28 50
3 50 246 205
3 189 69 76
3 147 225 117
3 117 189 147
3 149 110 147
3 110 225 147
3 147 76 149
3 147 189 76
3 52 171 178
3 198 15 25
3 209 150 158
3 158 150 238
3 194 248 109
3 194 106 248
3 194 109 232
3 232 106 194
3 51 236 100
3 236 163 100
3 100 83 51
3 163 83 100
3 130 163 236
3 96 163 212
3 163 130 212
3 155 181 71
3 111 96 58
3 111 83 96
3 114 83 111
3 58 55 111
3 111 39 114
3 93 59 169
3 93 169 136
3 59 93 152
3 76 69 165
3 69 196 165
3 48 76 165
3 91 84 120
3 114 122 120
3 120 122 91
3 120 84 50
3 120 83 114
3 50 28 120
3 28 83 120
3 136 218 170
3 170 7 192
3 167 7 170
3 218 91 245
3 134 69 118
3 73 199 104
3 36 236 68
3 82 180 234
3 68 82 234
3 234 36 68
3 118 69 38
3 69 189 38
3 38 189 117
3 38 169 118
3 38 117 169
3 221 46 168
3 133 159 252
3 95 232 221
3 95 106 232
3 95 177 77
3 77 248 95
3 248 106 95
3 113 159 133
3 31 67 229
3 133 252 229
3 244 3 190
3 217 127 250
3 254 52 178
3 171 52 64
3 52 254 64
3 214 171 179
3 138 198 25
3 150 198 138
3 238 150 138
3 15 198 144
3 108 158 238
3 108 238 201
3 201 99 108
3 141 212 181
3 141 155 94
3 181 155 141
3 96 212 141
3 94 58 141
3 58 96 141
3 63 130 8
3 63 212 130
3 8 181 63
3 181 212 63
3 11 145 164
3 164 193 11
3 1 193 164
3 145 152 164
3 118 59 128
3 128 145 11
3 128 134 118
3 11 134 128
3 125 152 192
3 192 7 125
3 125 7 1
3 1 164 125
3 125 164 152
3 192 152 40
3 40 152 93
3 40 93 136
3 136 170 40
3 40 170 192
3 59 152 166
3 166 152 145
3 166 128 59
3 145 128 166
3 98 66 21
3 21 176 98
3 21 65 176
3 98 167 223
3 167 170 223
3 9 170 218
3 218 245 9
3 9 245 66
3 42 245 91
3 42 91 176
3 176 65 42
3 65 21 42
3 243 69 123
3 69 134 123
3 123 33 243
3 0 58 94
3 0 119 58
3 94 155 161
3 161 0 94
3 227 0 161
3 6 134 146
3 146 0 227
3 6 146 208
3 70 196 243
3 243 33 70
3 11 193 213
3 213 55 119
3 213 10 55
3 98 176 60
3 32 111 55
3 55 10 32
3 39 111 32
3 176 39 32
3 32 60 176
3 16 250 8
3 16 73 250
3 36 234 131
3 159 168 237
3 237 252 159
3 237 168 46
3 74 168 159
3 221 168 74
3 74 95 221
3 177 95 74
3 31 229 49
3 49 14 31
3 80 229 252
3 80 47 5
3 252 47 80
3 80 49 229
3 25 15 4
3 190 3 97
3 97 44 190
3 97 4 44
3 25 4 97
3 253 217 222
3 201 238 30
3 211 127 233
3 127 217 233
3 35 113 133
3 133 229 35
3 35 229 67
3 92 254 178
3 81 220 26
3 26 220 135
3 135 248 77
3 109 248 135
3 135 220 109
3 224 179 171
3 171 64 224
3 15 144 224
3 249 15 224
3 224 64 249
3 214 179 224
3 224 144 214
3 207 180 242
3 242 209 207
3 209 89 207
3 238 138 23
3 23 30 238
3 3 30 23
3 23 138 25
3 25 97 23
3 23 97 3
3 214 144 240
3 240 144 198
3 240 198 150
3 156 214 240
3 240 150 156
3 158 108 13
3 180 207 13
3 67 18 241
3 241 35 67
3 241 18 116
3 98 223 124
3 124 66 98
3 124 9 66
3 27 21 66
3 27 42 21
3 66 245 27
3 245 42 27
3 121 134 6
3 121 123 134
3 119 0 197
3 0 146 197
3 197 146 134
3 197 134 11
3 11 213 197
3 197 213 119
3 227 161 216
3 161 90 216
3 6 208 188
3 188 208 45
3 98 60 56
3 56 167 98
3 56 193 167
3 56 213 193
3 199 73 204
3 73 16 204
3 132 131 234
3 132 17 104
3 132 234 17
3 104 199 132
3 199 131 132
3 5 47 230
3 230 70 5
3 196 70 230
3 46 112 2
3 2 237 46
3 252 237 2
3 2 47 252
3 159 113 41
3 41 74 159
3 41 113 177
3 177 74 41
3 14 49 140
3 49 80 140
3 140 80 5
3 12 14 140
3 62 15 249
3 62 4 15
3 44 4 62
3 26 135 235
3 77 142 235
3 235 135 77
3 250 86 37
3 37 86 222
3 37 217 250
3 222 217 37
3 99 86 29
3 29 108 99
3 250 73 29
3 29 86 250
3 17 108 29
3 104 17 29
3 29 73 104
3 185 86 99
3 185 99 201
3 201 30 185
3 3 244 185
3 185 30 3
3 116 18 195
3 154 253 222
3 154 195 253
3 217 253 101
3 101 233 217
3 253 195 101
3 143 142 129
3 177 113 157
3 113 35 157
3 157 35 129
3 129 142 157
3 77 177 157
3 157 142 77
3 220 81 57
3 178 109 57
3 109 220 57
3 57 92 178
3 254 92 57
3 57 81 254
3 158 13 183
3 209 158 183
3 183 89 209
3 183 207 89
3 183 13 207
3 88 108 17
3 88 13 108
3 180 13 88
3 88 234 180
3 17 234 88
3 20 18 67
3 20 67 31
3 31 226 20
3 182 216 90
3 182 90 211
3 211 233 182
3 45 208 182
3 208 216 182
3 31 14 202
3 202 226 31
3 12 45 202
3 202 14 12
3 45 182 202
3 170 9 54
3 9 124 54
3 19 90 161
3 19 85 90
3 19 161 155
3 19 155 71
3 71 85 19
3 211 90 139
3 90 85 139
3 139 127 211
3 71 127 139
3 139 85 71
3 255 208 146
3 255 216 208
3 255 146 227
3 227 216 255
3 6 188 115
3 115 121 6
3 33 123 115
3 123 121 115
3 107 70 33
3 33 115 107
3 107 115 188
3 5 70 107
3 12 140 107
3 107 140 5
3 184 45 12
3 184 188 45
3 12 107 184
3 184 107 188
3 10 213 239
3 213 56 239
3 239 56 60
3 239 32 10
3 60 32 239
3 191 204 16
3 8 130 191
3 191 16 8
3 191 130 236
3 203 131 199
3 199 204 203
3 36 131 203
3 204 191 203
3 236 36 203
3 203 191 236
3 53 230 47
3 53 112 48
3 48 165 53
3 53 165 196
3 196 230 53
3 151 235 186
3 26 235 151
3 222 86 174
3 86 185 174
3 174 154 222
3 116 195 34
3 195 154 34
3 34 154 244
3 34 244 190
3 34 241 116
3 190 241 34
3 233 101 206
3 206 182 233
3 105 143 129
3 129 35 105
3 35 241 105
3 228 235 142
3 142 143 228
3 228 143 186
3 162 101 195
3 162 195 18
3 18 20 162
3 162 206 101
3 24 182 226
3 226 202 24
3 24 202 182
3 79 124 223
3 79 54 124
3 79 223 170
3 170 54 79
3 47 2 160
3 160 53 47
3 160 2 112
3 112 53 160
3 44 62 231
3 231 153 44
3 231 151 186
3 186 153 231
3 190 44 219
3 44 153 219
3 219 241 190
3 219 105 241
3 143 105 219
3 186 143 219
3 219 153 186
3 244 154 172
3 154 174 172
3 172 185 244
3 172 174 185
3 186 235 126
3 126 228 186
3 235 228 126
3 206 162 75
3 226 182 75
3 182 206 75
3 75 20 226
3 75 162 20
3 247 62 249
3 247 231 62
3 151 231 247
3 43 247 249
3 151 247 43
3 249 64 43
3 43 64 254
3 26 151 43
3 43 81 26
3 254 81 43