ply
format ascii 1.0
comment https://github.com/mikedh/trimesh
element vertex 256
property float x
property float y
property float z
element face 508
property list uchar int vertex_indices
end_header
0.09859920 2.90138364 2.16895103
-0.66026545 0.91288841 3.36967683
-2.55394840 1.11626995 -1.07642019
1.26925397 1.70535278 -2.73037076
0.75247759 1.11659253 -3.27685094
-2.14089489 2.26651073 -0.71682692
-1.38035345 2.86313152 1.36821389
-0.45002910 0.52366823 3.50186992
1.83952689 2.68138051 0.68208355
0.00163557 0.12344012 3.58320498
0.01395473 1.53292215 3.25314879
-1.05094421 1.46034586 3.00273705
-1.58343661 2.99922347 -0.35868540
2.45879269 0.92724961 -1.51592553
-1.58006966 2.87942123 -0.90891713
0.85358185 0.46485725 -3.38728857
2.05606055 2.49032593 0.25596488
2.41016912 1.26819003 -1.39818239
-0.28927049 2.79021072 -2.27933311
0.48180288 3.44676447 1.00233638
-0.60866332 3.13210583 -1.66729999
0.49275592 0.54958141 3.48874378
2.10825419 -0.07053786 2.38775826
1.38738048 1.58400881 -2.70780325
-0.93853784 3.32552910 -0.86638951
1.20550358 1.04593456 -3.07612896
-0.12528661 0.51214296 -3.54700994
0.44015163 0.26498705 3.53180146
2.13653708 0.75071603 2.22945118
1.98744142 2.32527161 -1.13248241
1.43955529 1.80948758 -2.52161288
-1.55147874 2.77008343 -1.25097561
0.15284927 1.37545621 3.31531024
-1.87806880 2.58953977 0.83979845
0.31779468 2.62349677 -2.45754457
-0.94137150 1.81829047 -2.87002397
2.49031281 1.63485944 0.53978723
1.19450855 2.99563265 -1.37408698
-1.81842434 0.64508182 2.67087579
0.82614940 1.12839925 3.24460959
-0.93789119 -0.00724094 3.38234496
-1.76548231 1.15060532 -2.56155992
0.81532258 0.28267261 3.42227292
0.17965223 0.56869251 -3.53399205
0.47061357 1.47025096 -3.22719002
-1.17488384 3.30744147 -0.25678283
-2.52667713 0.45467892 -1.54347658
-2.44056535 1.43051386 -1.14167964
-2.79907513 0.50160438 0.10312200
-1.62524295 2.70212436 -1.24555874
1.87862563 0.36282557 2.65577030
2.08722973 1.45702672 1.95029294
0.26513630 0.15504758 -3.56688595
-2.62164235 1.25986624 -0.51190573
-0.18077707 0.16116498 3.57428384
0.20714670 1.96792734 3.00721598
-0.19450885 1.25134397 3.35895729
0.01428075 0.21575603 -3.57922101
0.55385900 2.29307222 2.69779897
-1.45116532 0.74587071 2.98829913
0.08129137 1.22794080 3.37510300
0.77363491 -3.35183287 -1.01891088
0.55770087 1.08686352 -3.34852743
1.73614776 2.71048617 0.95412564
0.31017795 0.40305766 -3.54198599
0.67835248 0.60848302 3.42948008
0.40912503 0.43684745 3.52167892
-0.73292822 2.58658600 -2.35125232
2.60335469 0.95218956 1.03558290
-2.28095937 1.50090373 1.52042413
-2.14253283 2.34951758 0.36560369
0.64355052 3.42257452 0.93476808
-0.07125284 -2.75061059 2.35305381
2.22952461 2.21632814 -0.33152786
-1.80386579 0.81353849 -2.64255476
-0.24026120 3.36731911 -1.34339726
-2.65089822 0.75166976 1.00355458
-0.70629942 0.65321195 -3.41179156
-0.39613056 -3.09306788 -1.83319783
-0.14652549 0.22408368 3.57357478
-1.89972007 2.39677691 -1.22382724
-0.02513476 0.30682868 -3.57244301
2.82408929 0.16189627 -0.04124035
1.62872219 1.84160817 2.30369353
1.53619480 0.13328823 3.00650239
0.50028443 3.48255014 0.85777771
1.50643337 2.59618902 -1.64194846
-2.74678540 0.66603506 -0.53517157
2.42570066 1.19889200 -1.41322720
2.48024464 0.32493159 -1.69078493
0.08845264 3.62322831 0.39917848
1.23087525 0.14940977 3.22497439
0.08916423 0.19224714 -3.57866669
-1.38280714 0.03449462 3.12703466
0.50252676 2.98865557 1.95460272
-1.20567107 0.52340513 -3.20175290
1.54633808 2.20171356 2.08061123
1.00205541 1.44407868 -3.03749919
0.15139413 0.76092559 3.50104523
1.60686719 2.42556763 -1.73582280
2.03780794 1.58836389 1.93498969
0.25899786 3.34973097 -1.37929249
2.82476902 0.08489856 -0.10965055
-1.83383501 -2.44140792 -1.29941583
2.45594668 1.79230392 -0.21144739
-0.55654848 1.72811890 -3.07762003
-0.96619880 0.05810995 -3.36981511
-1.83186162 2.77854729 0.04920227
2.27464890 1.38818336 -1.63647234
-0.42950755 0.01965381 -3.54430628
-2.34477162 -1.13544393 1.66307569
0.66073477 1.91980374 2.93089342
-2.70307708 0.87042385 -0.60829252
-1.67027438 1.50002944 -2.48911643
1.04792798 1.26664948 3.08824658
-1.81740999 2.65210915 0.86119896
0.13149989 2.75090623 -2.34836030
-2.36962700 0.15469140 1.94992185
-1.74071574 0.69874167 2.74084020
-0.03171525 2.12524104 2.91335917
1.51171529 0.57052416 2.97757697
-1.78592491 2.23142433 1.70697594
0.87383348 1.01911318 3.25911307
-1.86605370 2.17630529 1.63736868
-0.05022662 0.22444192 3.57795930
-0.66489208 0.71751845 3.41265130
-0.22837460 1.14552355 -3.39142847
0.79577541 3.49318552 -0.22349653
-1.34164739 1.11535001 2.96032882
-0.53479278 1.46550083 -3.21242714
1.98916626 2.46641469 0.78280979
2.48800492 1.72166121 0.18614434
2.51801372 1.65114927 -0.13517654
-1.74690151 1.91688395 -2.09761095
-1.38429642 2.19170022 2.26495481
-0.18924502 0.45972693 -3.54902864
-1.15601349 -1.40367079 2.96747208
0.05796704 -3.48939395 1.03988183
1.36793137 0.91106451 -3.00670004
0.42733538 3.59444404 0.28135392
-1.86625445 2.59714437 -0.85715121
0.76452428 2.92163992 1.91525757
-0.51588970 1.24985397 -3.30499530
-0.31533334 1.32057035 -3.31824398
1.00914800 0.34047174 -3.33213210
-1.14814842 1.16140628 3.07154512
-0.55147302 3.08095336 1.78812325
-2.67676115 0.32176694 1.10796940
0.26677641 -3.25702906 1.57701623
-2.78437853 0.17044616 0.59540373
1.96765113 0.28845066 -2.55811143
-0.05590918 0.75679260 -3.50673914
-1.10555804 0.32353017 3.28452921
0.19082899 1.38077259 -3.31025839
0.71689397 2.69800973 -2.23658442
0.67136192 3.33450937 1.17679596
0.38770753 -2.71920133 -2.33889055
-1.17389894 1.41671789 -2.94971442
2.16273999 0.62013745 -2.22746754
-2.06151795 1.25370800 -2.12110162
-2.61362147 1.11778009 -0.81601429
-0.02987125 3.30324483 1.52106702
-0.10061140 3.29530287 -1.53059053
1.80028570 2.18796325 1.73591053
-0.93376923 1.17830002 3.17956924
-2.53277254 1.26607180 0.99627280
-1.26811564 1.05936289 3.03042912
-0.23675101 0.51251501 3.53699875
-2.17894936 0.62597644 -2.20013475
-1.61240351 0.10556478 2.94315362
-0.20183811 0.15855053 3.57270741
0.45311478 0.08170693 -3.53810382
0.85644794 2.61017227 -2.25668979
-1.22292423 -2.64091778 -1.92639673
1.11687124 2.65847993 -2.00418186
1.13179231 -3.14038181 -1.12783730
0.80865872 0.91526276 3.31582999
-1.33910394 1.05552936 -2.98227739
0.10922837 0.14777274 -3.58012605
0.78849578 0.11089005 -3.44127369
2.75562620 0.23398800 -0.76560992
1.44215345 2.95285869 1.03939319
-0.75730693 3.49804640 -0.32713065
2.46965384 0.55963892 -1.65564620
-1.51156998 3.08204460 -0.03948545
1.28097880 2.42126751 -2.13281059
-0.16126870 1.23395264 -3.36860490
-2.51444626 -1.52404130 0.66198146
-1.55982900 2.96189880 0.68076628
-2.40937757 0.37454847 1.83912528
0.42088914 2.11106801 -2.87488413
2.03886127 2.42783213 0.68845463
-0.86147094 0.06522698 3.41429782
-0.28318995 1.23996592 3.35258508
-0.95303482 0.05088478 -3.37555671
0.29984918 3.01818824 -1.97721291
-2.34664845 1.74279702 1.03124976
-0.34400633 2.18140888 2.84049416
1.23517275 0.45827433 -3.19303751
2.43165874 1.84808505 -0.20185716
2.20908022 0.46312615 2.18994927
1.64630878 1.91558111 -2.22568321
-1.07723272 3.26812387 -0.81985384
2.41366601 1.85140204 0.41682789
2.20130682 2.24495864 0.43816125
2.13017225 0.61586571 2.27741838
0.14219654 3.49390841 -1.01273894
2.68842888 0.10025311 -1.10293150
-1.17532146 3.10392952 1.15344691
2.32286382 0.19725008 -2.03336835
-1.84291947 -1.98230135 -1.89511776
0.34915128 3.61822128 -0.10731467
1.64330399 2.60356641 1.40066731
-0.14323542 1.56612515 3.23376751
0.86552936 0.06747455 -3.41254735
0.42982814 -3.15933752 1.70612204
-0.43424040 3.37727046 1.23748684
0.86658084 3.29556346 -1.07342982
-0.55179232 -1.99880779 2.91586423
0.24174526 1.50765169 -3.25025535
-0.14281504 0.34211197 -3.56528902
-1.82462883 0.26529825 -2.72625518
1.10629976 2.92473435 -1.61915874
-0.16341616 0.36193517 3.56155419
0.83052856 0.38574708 -3.40597510
-2.28860354 -0.55879050 2.03099465
-0.67592567 3.30471683 -1.25291562
-0.34806162 3.26904082 1.52672315
-0.30232707 1.19100547 -3.36786795
-1.72370446 2.06701016 -1.98624754
-2.38983059 1.85848832 -0.57165873
0.33285323 1.04054701 -3.41029286
-1.53138578 -0.50402641 -2.97308278
0.15038687 3.49750328 -0.99922210
2.71310377 1.01623511 -0.12426481
-0.24748109 0.98927784 -3.43684936
2.40924001 1.40923166 1.26338005
-2.34201813 0.97797179 -1.76316655
1.78015780 1.46375322 -2.38510752
-0.06028244 1.36910796 3.32234716
1.15752590 0.14271982 -3.26779318
-0.22690850 2.39201760 -2.69100332
2.67828131 -1.15291691 -0.16382682
-2.21942973 1.89823711 1.20257688
0.78100038 2.52405810 -2.39198875
0.41079158 0.11819354 3.54625511
2.12247205 0.48055041 2.31987810
0.27449030 0.80014360 -3.48098063
-0.71809673 0.29000220 -3.45577860
0.30877477 0.55086219 -3.52260041
1.35126567 3.06918812 -0.90137088
-2.19066572 -1.49185967 1.72665727
-2.27013946 1.33874583 -1.68309939
0.57088214 3.11939740 -1.71142721
0.15133409 0.32005730 -3.56697059
-0.53715312 3.21238256 1.55586898
3 187 149 48
3 48 87 187
3 48 149 76
3 156 78 173
3 242 22 215
3 215 175 242
3 251 187 137
3 210 221 232
3 232 173 210
3 156 173 232
3 46 221 210
3 210 187 46
3 46 187 87
3 103 187 210
3 210 173 103
3 137 187 103
3 103 78 137
3 103 173 78
3 137 78 61
3 61 215 137
3 175 215 61
3 61 78 156
3 156 175 61
3 171 156 178
3 171 214 156
3 242 175 209
3 136 251 218
3 82 68 22
3 82 242 102
3 82 22 242
3 22 68 200
3 149 187 110
3 187 251 110
3 178 156 109
3 156 232 109
3 112 46 87
3 112 87 48
3 137 215 148
3 28 236 51
3 28 200 68
3 68 236 28
3 246 50 22
3 22 200 246
3 225 110 251
3 225 251 136
3 136 169 225
3 169 117 225
3 150 175 156
3 150 209 175
3 83 28 51
3 83 163 96
3 71 181 127
3 8 250 127
3 127 181 8
3 118 169 59
3 196 69 243
3 84 215 22
3 22 50 84
3 72 91 218
3 72 148 215
3 215 84 72
3 72 84 91
3 137 148 72
3 72 251 137
3 72 218 251
3 176 91 122
3 114 39 122
3 122 39 176
3 1 7 193
3 193 7 167
3 58 119 55
3 102 242 180
3 180 82 102
3 200 28 205
3 205 246 200
3 205 28 50
3 50 246 205
3 189 69 76
3 147 225 117
3 117 189 147
3 149 110 147
3 110 225 147
3 147 76 149
3 147 189 76
3 52 171 178
3 198 15 25
3 209 150 158
3 158 150 238
3 194 248 109
3 194 106 248
3 194 109 232
3 232 106 194
3 51 236 100
3 236 163 100
3 100 83 51
3 163 83 100
3 130 163 236
3 96 163 212
3 163 130 212
3 155 181 71
3 111 96 58
3 111 83 96
3 114 83 111
3 58 55 111
3 111 39 114
3 93 59 169
3 93 169 136
3 59 93 152
3 76 69 165
3 69 196 165
3 48 76 165
3 91 84 120
3 114 122 120
3 120 122 91
3 120 84 50
3 120 83 114
3 50 28 120
3 28 83 120
3 136 218 170
3 170 7 192
3 167 7 170
3 218 91 245
3 134 69 118
3 73 199 104
3 36 236 68
3 82 180 234
3 68 82 234
3 234 36 68
3 118 69 38
3 69 189 38
3 38 189 117
3 38 169 118
3 38 117 169
3 221 46 168
3 133 159 252
3 95 232 221
3 95 106 232
3 95 177 77
3 77 248 95
3 248 106 95
3 113 159 133
3 31 67 229
3 133 252 229
3 244 3 190
3 217 127 250
3 254 52 178
3 171 52 64
3 52 254 64
3 214 171 179
3 138 198 25
3 150 198 138
3 238 150 138
3 15 198 144
3 108 158 238
3 108 238 201
3 201 99 108
3 141 212 181
3 141 155 94
3 181 155 141
3 96 212 141
3 94 58 141
3 58 96 141
3 63 130 8
3 63 212 130
3 8 181 63
3 181 212 63
3 11 145 164
3 164 193 11
3 1 193 164
3 145 152 164
3 118 59 128
3 128 145 11
3 128 134 118
3 11 134 128
3 125 152 192
3 192 7 125
3 125 7 1
3 1 164 125
3 125 164 152
3 192 152 40
3 40 152 93
3 40 93 136
3 136 170 40
3 40 170 192
3 59 152 166
3 166 152 145
3 166 128 59
3 145 128 166
3 98 66 21
3 21 176 98
3 21 65 176
3 98 167 223
3 167 170 223
3 9 170 218
3 218 245 9
3 9 245 66
3 42 245 91
3 42 91 176
3 176 65 42
3 65 21 42
3 243 69 123
3 69 134 123
3 123 33 243
3 0 58 94
3 0 119 58
3 94 155 161
3 161 0 94
3 227 0 161
3 6 134 146
3 146 0 227
3 6 146 208
3 70 196 243
3 243 33 70
3 11 193 213
3 213 55 119
3 213 10 55
3 98 176 60
3 32 111 55
3 55 10 32
3 39 111 32
3 176 39 32
3 32 60 176
3 16 250 8
3 16 73 250
3 36 234 131
3 159 168 237
3 237 252 159
3 237 168 46
3 74 168 159
3 221 168 74
3 74 95 221
3 177 95 74
3 31 229 49
3 49 14 31
3 80 229 252
3 80 47 5
3 252 47 80
3 80 49 229
3 25 15 4
3 190 3 97
3 97 44 190
3 97 4 44
3 25 4 97
3 253 217 222
3 201 238 30
3 211 127 233
3 127 217 233
3 35 113 133
3 133 229 35
3 35 229 67
3 92 254 178
3 81 220 26
3 26 220 135
3 135 248 77
3 109 248 135
3 135 220 109
3 224 179 171
3 171 64 224
3 15 144 224
3 249 15 224
3 224 64 249
3 214 179 224
3 224 144 214
3 207 180 242
3 242 209 207
3 209 89 207
3 238 138 23
3 23 30 238
3 3 30 23
3 23 138 25
3 25 97 23
3 23 97 3
3 214 144 240
3 240 144 198
3 240 198 150
3 156 214 240
3 240 150 156
3 158 108 13
3 180 207 13
3 67 18 241
3 241 35 67
3 241 18 116
3 98 223 124
3 124 66 98
3 124 9 66
3 27 21 66
3 27 42 21
3 66 245 27
3 245 42 27
3 121 134 6
3 121 123 134
3 119 0 197
3 0 146 197
3 197 146 134
3 197 134 11
3 11 213 197
3 197 213 119
3 227 161 216
3 161 90 216
3 6 208 188
3 188 208 45
3 98 60 56
3 56 167 98
3 56 193 167
3 56 213 193
3 199 73 204
3 73 16 204
3 132 131 234
3 132 17 104
3 132 234 17
3 104 199 132
3 199 131 132
3 5 47 230
3 230 70 5
3 196 70 230
3 46 112 2
3 2 237 46
3 252 237 2
3 2 47 252
3 159 113 41
3 41 74 159
3 41 113 177
3 177 74 41
3 14 49 140
3 49 80 140
3 140 80 5
3 12 14 140
3 62 15 249
3 62 4 15
3 44 4 62
3 26 135 235
3 77 142 235
3 235 135 77
3 250 86 37
3 37 86 222
3 37 217 250
3 222 217 37
3 99 86 29
3 29 108 99
3 250 73 29
3 29 86 250
3 17 108 29
3 104 17 29
3 29 73 104
3 185 86 99
3 185 99 201
3 201 30 185
3 3 244 185
3 185 30 3
3 116 18 195
3 154 253 222
3 154 195 253
3 217 253 101
3 101 233 217
3 253 195 101
3 143 142 129
3 177 113 157
3 113 35 157
3 157 35 129
3 129 142 157
3 77 177 157
3 157 142 77
3 220 81 57
3 178 109 57
3 109 220 57
3 57 92 178
3 254 92 57
3 57 81 254
3 158 13 183
3 209 158 183
3 183 89 209
3 183 207 89
3 183 13 207
3 88 108 17
3 88 13 108
3 180 13 88
3 88 234 180
3 17 234 88
3 20 18 67
3 20 67 31
3 31 226 20
3 182 216 90
3 182 90 211
3 211 233 182
3 45 208 182
3 208 216 182
3 31 14 202
3 202 226 31
3 12 45 202
3 202 14 12
3 45 182 202
3 170 9 54
3 9 124 54
3 19 90 161
3 19 85 90
3 19 161 155
3 19 155 71
3 71 85 19
3 211 90 139
3 90 85 139
3 139 127 211
3 71 127 139
3 139 85 71
3 255 208 146
3 255 216 208
3 255 146 227
3 227 216 255
3 6 188 115
3 115 121 6
3 33 123 115
3 123 121 115
3 107 70 33
3 33 115 107
3 107 115 188
3 5 70 107
3 12 140 107
3 107 140 5
3 184 45 12
3 184 188 45
3 12 107 184
3 184 107 188
3 10 213 239
3 213 56 239
3 239 56 60
3 239 32 10
3 60 32 239
3 191 204 16
3 8 130 191
3 191 16 8
3 191 130 236
3 203 131 199
3 199 204 203
3 36 131 203
3 204 191 203
3 236 36 203
3 203 191 236
3 53 230 47
3 53 112 48
3 48 165 53
3 53 165 196
3 196 230 53
3 151 235 186
3 26 235 151
3 222 86 174
3 86 185 174
3 174 154 222
3 116 195 34
3 195 154 34
3 34 154 244
3 34 244 190
3 34 241 116
3 190 241 34
3 233 101 206
3 206 182 233
3 105 143 129
3 129 35 105
3 35 241 105
3 228 235 142
3 142 143 228
3 228 143 186
3 162 101 195
3 162 195 18
3 18 20 162
3 162 206 101
3 24 182 226
3 226 202 24
3 24 202 182
3 79 124 223
3 79 54 124
3 79 223 170
3 170 54 79
3 47 2 160
3 160 53 47
3 160 2 112
3 112 53 160
3 44 62 231
3 231 153 44
3 231 151 186
3 186 153 231
3 190 44 219
3 44 153 219
3 219 241 190
3 219 105 241
3 143 105 219
3 186 143 219
3 219 153 186
3 244 154 172
3 154 174 172
3 172 185 244
3 172 174 185
3 186 235 126
3 126 228 186
3 235 228 126
3 206 162 75
3 226 182 75
3 182 206 75
3 75 20 226
3 75 162 20
3 247 62 249
3 247 231 62
3 151 231 247
3 43 247 249
3 151 247 43
3 249 64 43
3 43 64 254
3 26 151 43
3 43 81 26
3 254 81 43