ply
format ascii 1.0
comment https://github.com/mikedh/trimesh
element vertex 256
property float x
property float y
property float z
element face 508
property list uchar int vertex_indices
end_header
0.06984937 3.16167021 1.27679968
-0.46774340 0.99478477 1.98363256
-1.80926096 1.21641195 -0.63365787
0.89916134 1.85834205 -1.60729134
0.53306806 1.21676338 -1.92898858
-1.51664686 2.46984220 -0.42197558
-0.97786617 3.11998653 0.80542850
-0.31880835 0.57064712 2.06145096
1.30315244 2.92193031 0.40152311
0.00115866 0.13451409 2.10933042
0.00988577 1.67044246 1.91503584
-0.74450696 1.59135520 1.76762557
-1.12173378 3.26828742 -0.21114786
1.74185109 1.01043427 -0.89238214
-1.11934853 3.13773751 -0.53505355
0.60469204 0.50656015 -1.99400020
1.45654869 2.71373606 0.15067923
1.70740521 1.38196087 -0.82307011
-0.20492418 3.04052401 -1.34177828
0.34131745 3.75597787 0.59004682
-0.43118760 3.41309071 -0.98149192
0.34907678 0.59888500 2.05372405
1.49352360 -0.07686589 1.40560508
0.98284423 1.72611213 -1.59400654
-0.66487634 3.62386632 -0.51001877
0.85399950 1.13976657 -1.81082928
-0.08875518 0.55808794 -2.08802342
0.31181097 0.28875938 2.07907081
1.51355970 0.81806368 1.31241429
1.40793777 2.53387451 -0.66666013
1.01980567 1.97181892 -1.48440158
-1.09909427 3.01859117 -0.73641366
0.10828105 1.49885011 1.95162857
-1.33045626 2.82185030 0.49436536
0.22513121 2.85885382 -1.44668627
-0.66688377 1.98141146 -1.68950117
1.76418042 1.78152466 0.31775737
0.84621042 3.26437426 -0.80888581
-1.28820312 0.70295292 1.57226837
0.58525842 1.22962940 1.91000915
-0.66441828 -0.00789053 1.99108994
-1.25069809 1.25382757 -1.50791717
0.57758856 0.30803153 2.01459455
0.12726873 0.61971062 -2.08036017
0.33339074 1.60214901 -1.89975476
-0.83230788 3.60415602 -0.15116073
-1.78994155 0.49546874 -0.90860069
-1.72893846 1.55884695 -0.67207426
-1.98291302 0.54660392 0.06070498
-1.15135002 2.94453526 -0.73322493
1.33085072 0.39537510 1.56337631
1.47862947 1.58773839 1.14808178
0.18782713 0.16895710 -2.09972405
-1.85721660 1.37289035 -0.30134431
-0.12806560 0.17562328 2.10407877
0.14674629 2.14447260 1.77026224
-0.13779342 1.36360347 1.97732234
0.01011673 0.23511176 -2.10698533
0.39236325 2.49878669 1.58811736
-1.02803051 0.81278372 1.75912642
0.05758821 1.33810091 1.98682690
0.54805630 -3.65252995 -0.59980375
0.39508492 1.18436742 -1.97118247
1.22991693 2.95364714 0.56166655
0.21973541 0.43921643 -2.08506608
0.48055655 0.66307074 2.01883721
0.28983122 0.47603756 2.07311201
-0.51921898 2.81863165 -1.38411510
1.84426129 1.03761160 0.60961813
-1.61587095 1.63555169 0.89503032
-1.51780713 2.56029558 0.21522045
0.45590225 3.72961783 0.55027133
-0.05047674 -2.99737120 1.38517570
1.57943356 2.41515779 -0.19516100
-1.27788961 0.88652200 -1.55559647
-0.17020516 3.66940546 -0.79081964
-1.87794185 0.81910294 0.59076399
-0.50035465 0.71181238 -2.00842428
-0.28062570 -3.37055087 -1.07915127
-0.10380118 0.24418649 2.10366154
-1.34579432 2.61179447 -0.72043216
-0.01780590 0.33435464 -2.10299540
2.00063348 0.17642018 -0.02427701
1.15381479 2.00682116 1.35611868
1.08826685 0.14524569 1.76984215
0.35441008 3.79497385 0.50494927
1.06718326 2.82909632 -0.96656817
-1.94587004 0.72578585 -0.31504023
1.71840799 1.30644608 -0.83192652
1.75704789 0.35408157 -0.99531680
0.06266138 3.94827247 0.23498498
0.87197322 0.16281350 1.89845049
0.06316547 0.20949386 -2.10665894
-0.97960436 0.03758918 1.84079611
0.35599861 3.25677156 1.15061891
-0.85411811 0.57036042 -1.88478065
1.09545243 2.39923191 1.22479641
0.70987332 1.57362878 -1.78808916
0.10725021 0.82918918 2.06096554
1.13833237 2.64316821 -1.02182937
1.44361830 1.73085785 1.13907325
0.18347853 3.65023923 -0.81195015
2.00111485 0.09251491 -0.06454815
-1.29912031 -2.66042948 -0.76492906
1.73983490 1.95309365 -0.12447304
-0.39426851 1.88315058 -1.81170714
-0.68447185 0.06332306 -1.98371398
-1.29772234 3.02781415 0.02896398
1.61140037 1.51271904 -0.96334457
-0.30427057 0.02141698 -2.08643198
-1.66107655 -1.23730588 0.97900522
0.46807590 2.09203172 1.72533333
-1.91490626 0.94851065 -0.35808447
-1.18325114 1.63459885 -1.46527183
0.74237019 1.38028216 1.81796265
-1.28748453 2.89003301 0.50696325
0.09315678 2.99769354 -1.38241267
-1.67868459 0.16856895 1.14786327
-1.23315299 0.76142663 1.61345446
-0.02246763 2.31589890 1.71501136
1.07092512 0.62170660 1.75281465
-1.26517999 2.43160820 1.00484800
0.61903870 1.11053908 1.91854680
-1.32194459 2.37154436 0.96387225
-0.03558140 0.24457687 2.10624266
-0.47102100 0.78188789 2.00893044
-0.16178450 1.24828994 -1.99643719
0.56374097 3.80656338 -0.13156603
-0.95044607 1.21540940 1.74266112
-0.37885642 1.59697270 -1.89106417
1.40915954 2.68767977 0.46081778
1.76254547 1.87611353 0.10957786
1.78380430 1.79927588 -0.07957457
-1.23753512 2.08885002 -1.23480368
-0.98065937 2.38832045 1.33331418
-0.13406442 0.50096959 -2.08921194
-0.81893986 -1.52959585 1.74686623
0.04106485 -3.80243158 0.61214870
0.96906614 0.99279720 -1.76995862
0.30273172 3.91690612 0.16562502
-1.32208681 2.83013725 -0.50458050
0.54160219 3.18374372 1.12745750
-0.36546513 1.36197984 -1.94555640
-0.22338757 1.43904030 -1.95335555
0.71489781 0.37101588 -1.96153116
-0.81336814 1.26559746 1.80813098
-0.39067298 3.35734940 1.05261707
-1.89626372 0.35063303 0.65222996
0.18898900 -3.54922104 0.92834443
-1.97250164 0.18573709 0.35049719
1.39391792 0.31432793 -1.50588727
-0.03960703 0.82468539 -2.06431723
-0.78319639 0.35255444 1.93350863
0.13518654 1.50464344 -1.94865465
0.50786006 2.94005156 -1.31661332
0.47560436 3.63365221 0.69274622
0.27465868 -2.96314430 -1.37683821
-0.83161020 1.54381335 -1.73641276
1.53212225 0.67577070 -1.31124663
-1.46041477 1.36617959 -1.24863195
-1.85153437 1.21805751 -0.48036435
-0.02116130 3.59958291 0.89540875
-0.07127485 3.59092832 -0.90101498
1.27535343 2.38424802 1.02188098
-0.66149819 1.28400683 1.87172174
-1.79425967 1.37965262 0.58647734
-0.89835495 1.15439963 1.78392720
-0.16771848 0.55849338 2.08213019
-1.54360533 0.68213356 -1.29515648
-1.14225435 0.11503512 1.73255050
-0.14298558 0.17277429 2.10315108
0.32099432 0.08903695 -2.08278084
0.60672247 2.84433389 -1.32844889
-0.86634058 -2.87783790 -1.13401473
0.79121077 2.89697552 -1.17980468
0.80178112 -3.42210913 -0.66392565
0.57286775 0.99737209 1.95193446
-0.94864428 1.15022218 -1.75558150
0.07737926 0.16102961 -2.10751796
0.55858397 0.12083813 -2.02577972
1.95213306 0.25497934 -0.45069271
1.02164638 3.21776319 0.61186111
-0.53648925 3.81186056 -0.19257247
1.74954534 0.60984480 -0.97463167
-1.07082224 3.35853863 -0.02324396
0.90746742 2.63848233 -1.25552464
-0.11424552 1.34465206 -1.98300159
-1.78127706 -1.66076493 0.38968959
-1.10500968 3.22761416 0.40074769
-1.70684445 0.40814966 1.08264053
0.29816511 2.30045438 -1.69236231
1.44436431 2.64563584 0.40527359
-0.61028087 0.07107857 2.00989962
-0.20061663 1.35120475 1.97357118
-0.67514628 0.05544972 -1.98709393
0.21241832 3.28895354 -1.16392887
-1.66240621 1.89914536 0.60706729
-0.24370001 2.37710571 1.67211783
0.87501764 0.49938670 -1.87965012
1.72262883 2.01387906 -0.11882755
1.56495047 0.50467378 1.28916061
1.16627347 2.08743024 -1.31019616
-0.76313019 3.56131124 -0.48262456
1.70988250 2.01749349 0.24537468
1.55944359 2.44635653 0.25793302
1.50905061 0.67111576 1.34065127
0.10073447 3.80735111 -0.59617054
1.90452933 0.10924694 -0.64926434
-0.83261800 3.38238668 0.67900127
1.64555681 0.21494563 -1.19698596
-1.30555582 -2.16013598 -1.11560178
0.24734478 3.94281626 -0.06317309
1.16414487 2.83713555 0.82453287
-0.10147043 1.70662415 1.90362656
0.61315590 0.07352778 -2.00886917
0.30449766 -3.44276547 1.00434542
-0.30762336 3.68024945 0.72847319
0.61390078 3.59121227 -0.63189751
-0.39089918 -2.17812324 1.71648610
0.17125651 1.64290488 -1.91333258
-0.10117263 0.37280324 -2.09878397
-1.29259849 0.28909847 -1.60486865
0.78372180 3.18711591 -0.95315254
-0.11576682 0.39440483 2.09658527
0.58836073 0.42035291 -2.00500035
-1.62128615 -0.60892028 1.19558859
-0.47883737 3.60118675 -0.73755568
-0.24657284 3.56231022 0.89873838
-0.21417370 1.29785204 -1.98256779
-1.22110188 2.25244403 -1.16924727
-1.69299710 2.02521563 -0.33651918
0.23579895 1.13389575 -2.00754213
-1.08486009 -0.54924327 -1.75016892
0.10653664 3.81126833 -0.58821356
1.92200947 1.10740280 -0.07315115
-0.17531987 1.07802713 -2.02317500
1.70674706 1.53565550 0.74371576
-1.65912592 1.06570685 -1.03792584
1.26109445 1.59506822 -1.40404475
-0.04270511 1.49193227 1.95577097
0.82001126 0.15552337 -1.92365658
-0.16074589 2.60660839 -1.58411682
1.89734054 -1.25634646 -0.09644018
-1.57228220 2.06853032 0.70792264
0.55327410 2.75049448 -1.40809560
0.29101181 0.12879683 2.08757925
1.50359571 0.52366114 1.36564600
0.19445364 0.87192547 -2.04915404
-0.50871205 0.31601864 -2.03431821
0.21874136 0.60028070 -2.07365441
0.95725983 3.34452868 -0.53061134
-1.55190539 -1.62569618 1.01643395
-1.60820591 1.45884633 -0.99079257
0.40442273 3.39924240 -1.00746834
0.10720768 0.34877005 -2.09977388
-0.38052851 3.50056934 0.91589570
3 187 149 48
3 48 87 187
3 48 149 76
3 156 78 173
3 242 22 215
3 215 175 242
3 251 187 137
3 210 221 232
3 232 173 210
3 156 173 232
3 46 221 210
3 210 187 46
3 46 187 87
3 103 187 210
3 210 173 103
3 137 187 103
3 103 78 137
3 103 173 78
3 137 78 61
3 61 215 137
3 175 215 61
3 61 78 156
3 156 175 61
3 171 156 178
3 171 214 156
3 242 175 209
3 136 251 218
3 82 68 22
3 82 242 102
3 82 22 242
3 22 68 200
3 149 187 110
3 187 251 110
3 178 156 109
3 156 232 109
3 112 46 87
3 112 87 48
3 137 215 148
3 28 236 51
3 28 200 68
3 68 236 28
3 246 50 22
3 22 200 246
3 225 110 251
3 225 251 136
3 136 169 225
3 169 117 225
3 150 175 156
3 150 209 175
3 83 28 51
3 83 163 96
3 71 181 127
3 8 250 127
3 127 181 8
3 118 169 59
3 196 69 243
3 84 215 22
3 22 50 84
3 72 91 218
3 72 148 215
3 215 84 72
3 72 84 91
3 137 148 72
3 72 251 137
3 72 218 251
3 176 91 122
3 114 39 122
3 122 39 176
3 1 7 193
3 193 7 167
3 58 119 55
3 102 242 180
3 180 82 102
3 200 28 205
3 205 246 200
3 205 28 50
3 50 246 205
3 189 69 76
3 147 225 117
3 117 189 147
3 149 110 147
3 110 225 147
3 147 76 149
3 147 189 76
3 52 171 178
3 198 15 25
3 209 150 158
3 158 150 238
3 194 248 109
3 194 106 248
3 194 109 232
3 232 106 194
3 51 236 100
3 236 163 100
3 100 83 51
3 163 83 100
3 130 163 236
3 96 163 212
3 163 130 212
3 155 181 71
3 111 96 58
3 111 83 96
3 114 83 111
3 58 55 111
3 111 39 114
3 93 59 169
3 93 169 136
3 59 93 152
3 76 69 165
3 69 196 165
3 48 76 165
3 91 84 120
3 114 122 120
3 120 122 91
3 120 84 50
3 120 83 114
3 50 28 120
3 28 83 120
3 136 218 170
3 170 7 192
3 167 7 170
3 218 91 245
3 134 69 118
3 73 199 104
3 36 236 68
3 82 180 234
3 68 82 234
3 234 36 68
3 118 69 38
3 69 189 38
3 38 189 117
3 38 169 118
3 38 117 169
3 221 46 168
3 133 159 252
3 95 232 221
3 95 106 232
3 95 177 77
3 77 248 95
3 248 106 95
3 113 159 133
3 31 67 229
3 133 252 229
3 244 3 190
3 217 127 250
3 254 52 178
3 171 52 64
3 52 254 64
3 214 171 179
3 138 198 25
3 150 198 138
3 238 150 138
3 15 198 144
3 108 158 238
3 108 238 201
3 201 99 108
3 141 212 181
3 141 155 94
3 181 155 141
3 96 212 141
3 94 58 141
3 58 96 141
3 63 130 8
3 63 212 130
3 8 181 63
3 181 212 63
3 11 145 164
3 164 193 11
3 1 193 164
3 145 152 164
3 118 59 128
3 128 145 11
3 128 134 118
3 11 134 128
3 125 152 192
3 192 7 125
3 125 7 1
3 1 164 125
3 125 164 152
3 192 152 40
3 40 152 93
3 40 93 136
3 136 170 40
3 40 170 192
3 59 152 166
3 166 152 145
3 166 128 59
3 145 128 166
3 98 66 21
3 21 176 98
3 21 65 176
3 98 167 223
3 167 170 223
3 9 170 218
3 218 245 9
3 9 245 66
3 42 245 91
3 42 91 176
3 176 65 42
3 65 21 42
3 243 69 123
3 69 134 123
3 123 33 243
3 0 58 94
3 0 119 58
3 94 155 161
3 161 0 94
3 227 0 161
3 6 134 146
3 146 0 227
3 6 146 208
3 70 196 243
3 243 33 70
3 11 193 213
3 213 55 119
3 213 10 55
3 98 176 60
3 32 111 55
3 55 10 32
3 39 111 32
3 176 39 32
3 32 60 176
3 16 250 8
3 16 73 250
3 36 234 131
3 159 168 237
3 237 252 159
3 237 168 46
3 74 168 159
3 221 168 74
3 74 95 221
3 177 95 74
3 31 229 49
3 49 14 31
3 80 229 252
3 80 47 5
3 252 47 80
3 80 49 229
3 25 15 4
3 190 3 97
3 97 44 190
3 97 4 44
3 25 4 97
3 253 217 222
3 201 238 30
3 211 127 233
3 127 217 233
3 35 113 133
3 133 229 35
3 35 229 67
3 92 254 178
3 81 220 26
3 26 220 135
3 135 248 77
3 109 248 135
3 135 220 109
3 224 179 171
3 171 64 224
3 15 144 224
3 249 15 224
3 224 64 249
3 214 179 224
3 224 144 214
3 207 180 242
3 242 209 207
3 209 89 207
3 238 138 23
3 23 30 238
3 3 30 23
3 23 138 25
3 25 97 23
3 23 97 3
3 214 144 240
3 240 144 198
3 240 198 150
3 156 214 240
3 240 150 156
3 158 108 13
3 180 207 13
3 67 18 241
3 241 35 67
3 241 18 116
3 98 223 124
3 124 66 98
3 124 9 66
3 27 21 66
3 27 42 21
3 66 245 27
3 245 42 27
3 121 134 6
3 121 123 134
3 119 0 197
3 0 146 197
3 197 146 134
3 197 134 11
3 11 213 197
3 197 213 119
3 227 161 216
3 161 90 216
3 6 208 188
3 188 208 45
3 98 60 56
3 56 167 98
3 56 193 167
3 56 213 193
3 199 73 204
3 73 16 204
3 132 131 234
3 132 17 104
3 132 234 17
3 104 199 132
3 199 131 132
3 5 47 230
3 230 70 5
3 196 70 230
3 46 112 2
3 2 237 46
3 252 237 2
3 2 47 252
3 159 113 41
3 41 74 159
3 41 113 177
3 177 74 41
3 14 49 140
3 49 80 140
3 140 80 5
3 12 14 140
3 62 15 249
3 62 4 15
3 44 4 62
3 26 135 235
3 77 142 235
3 235 135 77
3 250 86 37
3 37 86 222
3 37 217 250
3 222 217 37
3 99 86 29
3 29 108 99
3 250 73 29
3 29 86 250
3 17 108 29
3 104 17 29
3 29 73 104
3 185 86 99
3 185 99 201
3 201 30 185
3 3 244 185
3 185 30 3
3 116 18 195
3 154 253 222
3 154 195 253
3 217 253 101
3 101 233 217
3 253 195 101
3 143 142 129
3 177 113 157
3 113 35 157
3 157 35 129
3 129 142 157
3 77 177 157
3 157 142 77
3 220 81 57
3 178 109 57
3 109 220 57
3 57 92 178
3 254 92 57
3 57 81 254
3 158 13 183
3 209 158 183
3 183 89 209
3 183 207 89
3 183 13 207
3 88 108 17
3 88 13 108
3 180 13 88
3 88 234 180
3 17 234 88
3 20 18 67
3 20 67 31
3 31 226 20
3 182 216 90
3 182 90 211
3 211 233 182
3 45 208 182
3 208 216 182
3 31 14 202
3 202 226 31
3 12 45 202
3 202 14 12
3 45 182 202
3 170 9 54
3 9 124 54
3 19 90 161
3 19 85 90
3 19 161 155
3 19 155 71
3 71 85 19
3 211 90 139
3 90 85 139
3 139 127 211
3 71 127 139
3 139 85 71
3 255 208 146
3 255 216 208
3 255 146 227
3 227 216 255
3 6 188 115
3 115 121 6
3 33 123 115
3 123 121 115
3 107 70 33
3 33 115 107
3 107 115 188
3 5 70 107
3 12 140 107
3 107 140 5
3 184 45 12
3 184 188 45
3 12 107 184
3 184 107 188
3 10 213 239
3 213 56 239
3 239 56 60
3 239 32 10
3 60 32 239
3 191 204 16
3 8 130 191
3 191 16 8
3 191 130 236
3 203 131 199
3 199 204 203
3 36 131 203
3 204 191 203
3 236 36 203
3 203 191 236
3 53 230 47
3 53 112 48
3 48 165 53
3 53 165 196
3 196 230 53
3 151 235 186
3 26 235 151
3 222 86 174
3 86 185 174
3 174 154 222
3 116 195 34
3 195 154 34
3 34 154 244
3 34 244 190
3 34 241 116
3 190 241 34
3 233 101 206
3 206 182 233
3 105 143 129
3 129 35 105
3 35 241 105
3 228 235 142
3 142 143 228
3 228 143 186
3 162 101 195
3 162 195 18
3 18 20 162
3 162 206 101
3 24 182 226
3 226 202 24
3 24 202 182
3 79 124 223
3 79 54 124
3 79 223 170
3 170 54 79
3 47 2 160
3 160 53 47
3 160 2 112
3 112 53 160
3 44 62 231
3 231 153 44
3 231 151 186
3 186 153 231
3 190 44 219
3 44 153 219
3 219 241 190
3 219 105 241
3 143 105 219
3 186 143 219
3 219 153 186
3 244 154 172
3 154 174 172
3 172 185 244
3 172 174 185
3 186 235 126
3 126 228 186
3 235 228 126
3 206 162 75
3 226 182 75
3 182 206 75
3 75 20 226
3 75 162 20
3 247 62 249
3 247 231 62
3 151 231 247
3 43 247 249
3 151 247 43
3 249 64 43
3 43 64 254
3 26 151 43
3 43 81 26
3 254 81 43