ply
format ascii 1.0
comment https://github.com/mikedh/trimesh
element vertex 256
property float x
property float y
property float z
element face 508
property list uchar int vertex_indices
end_header
0.05259413 3.84445333 1.70315456
-0.35219437 1.20961499 2.64601660
-1.36231005 1.47910404 -0.84525192
0.67703694 2.25966311 -2.14400554
0.40138155 1.47953129 -2.57312560
-1.14198184 3.00322080 -0.56288368
-0.73629892 3.79376793 1.07438099
-0.24005151 0.69388211 2.74982047
0.98122805 3.55294013 0.53560162
0.00087243 0.16356328 2.81368804
0.00744364 2.03118539 2.55451369
-0.56058758 1.93501878 2.35787940
-0.84462619 3.97409534 -0.28165534
1.31155264 1.22864413 -1.19037056
-0.84283018 3.81535244 -0.71372122
0.45531189 0.61595511 -2.65984607
1.09672999 3.29978514 0.20099474
1.28561628 1.68040431 -1.09791350
-0.15430072 3.69714475 -1.78983128
0.25700006 4.56710577 0.78707802
-0.32466912 4.15016985 -1.30923641
0.26284257 0.72821814 2.73951316
1.12457085 -0.09346558 1.87497139
0.74004722 2.09887719 -2.12628460
-0.50062859 4.40646410 -0.68032670
0.64303166 1.38590658 -2.41550994
-0.06682954 0.67861062 -2.78526616
0.23478273 0.35111883 2.77332377
1.13965738 0.99472982 1.75066185
1.06012762 3.08108115 -0.88927442
0.76787788 2.39764595 -1.98008001
-0.82757938 3.67047548 -0.98232037
0.08153183 1.82253647 2.60332561
-1.00178683 3.43124723 0.65944618
0.16951591 3.47624183 -1.92977059
-0.50214010 2.40931010 -2.25366735
1.32836592 2.16625643 0.42386439
0.63716674 3.96933722 -1.07899272
-0.96997172 0.85476017 2.09728765
0.44067907 1.49517584 2.54780841
-0.50028366 -0.00959454 2.65596414
-0.94173175 1.52459979 -2.01144814
0.43490389 0.37455294 2.68731737
0.09582889 0.75354111 -2.77504396
0.25103152 1.94814348 -2.53412986
-0.62669861 4.38249683 -0.20163703
-1.34776318 0.60246843 -1.21200490
-1.30183005 1.89549005 -0.89649647
-1.49306381 0.66464657 0.08097588
-0.86692613 3.58042669 -0.97806686
1.00208390 0.48075894 2.08542633
1.11335611 1.93062079 1.53145480
0.14142723 0.20544447 -2.80087376
-1.39841890 1.66937494 -0.40197062
-0.09642889 0.21355028 2.80668283
0.11049481 2.60758519 2.36139655
-0.10375360 1.65808249 2.63759923
0.00761754 0.28588566 -2.81055975
0.29543576 3.03841567 2.11842895
-0.77407092 0.98830962 2.34654236
0.04336190 1.62707245 2.65027761
0.41266716 -4.44131756 -0.80009305
0.29748505 1.44013917 -2.62940907
0.92608428 3.59150648 0.74922091
0.16545305 0.53406811 -2.78132129
0.36184222 0.80626518 2.69297671
0.21823274 0.57884097 2.76537538
-0.39095366 3.42733359 -1.84630537
1.38866401 1.26169062 0.81318468
-1.21669412 1.98875964 1.19390309
-1.14285541 3.11320806 0.28708789
0.34327838 4.53505325 0.73402053
-0.03800721 -3.64467287 1.84772003
1.18925798 2.93672681 -0.26033008
-0.96220601 1.07797217 -2.07504869
-0.12815851 4.46183729 -1.05489385
-1.41402435 0.99599355 0.78803468
-0.37674949 0.86553288 -2.67908692
-0.21130131 -4.09844303 -1.43950653
-0.07815864 0.29692015 2.80612612
-1.01333594 3.17582846 -0.96100229
-0.01340722 0.40656069 -2.80523753
1.50640666 0.21451928 -0.03238371
0.86878204 2.44020700 1.80896020
0.81942672 0.17661242 2.36083627
0.26685837 4.61452341 0.67356431
0.80355155 3.44005799 -1.28932917
-1.46517181 0.88252401 -0.42023996
1.29390097 1.58858156 -1.10972738
1.32299542 0.43054780 -1.32767773
0.04718182 4.80092764 0.31345227
0.65656525 0.19797413 2.53239012
0.04756138 0.25473541 -2.81012440
-0.73760772 0.04570680 2.45548344
0.26805446 3.96009254 1.53483891
-0.64312094 0.69353348 -2.51415539
0.82483727 2.91736174 1.63378632
0.53450972 1.91346407 -2.38517642
0.08075564 1.00825799 2.74917293
0.85712433 3.21397758 -1.36304343
1.08699381 2.10464787 1.51943791
0.13815290 4.43853235 -1.08308041
1.50676930 0.11249410 -0.08610237
-0.97819197 -3.23496652 -1.02035773
1.31003463 2.37487698 -0.16603766
-0.29687035 2.28982925 -2.41668105
-0.51538330 0.07699808 -2.64612532
-0.97713935 3.68169022 0.03863576
1.21332788 1.83940041 -1.28502917
-0.22910504 0.02604212 -2.78314304
-1.25073230 -1.50451016 1.30591929
0.35244471 2.54381943 2.30146480
-1.44185722 1.15334761 -0.47765774
-0.89094657 1.98760116 -1.95456231
0.55897868 1.67836297 2.42502546
-0.96943063 3.51415443 0.67625082
0.07014379 3.64506483 -1.84403443
-1.26399052 0.20497251 1.53116322
-0.92852092 0.92586166 2.15222692
-0.01691733 2.81603241 2.28769612
0.80636901 0.75596815 2.33812284
-0.95263612 2.95672965 1.34039164
0.46611440 1.35036719 2.55919695
-0.99537784 2.88369465 1.28573298
-0.02679155 0.29739484 2.80956912
-0.35466227 0.95074165 2.67976213
-0.12181804 1.51786613 -2.66309690
0.42447716 4.62861538 -0.17549917
-0.71565253 1.47788501 2.32457876
-0.28526556 1.94184935 -2.52253723
1.06104767 3.26810169 0.61469626
1.32713485 2.28127241 0.14616862
1.34314203 2.18784118 -0.10614649
-0.93182045 2.53995061 -1.64713514
-0.73840207 2.90409374 1.77854085
-0.10094581 0.60915726 -2.78685141
-0.61663300 -1.85992193 2.33018804
0.03092039 -4.62359142 0.81656033
0.72967279 1.20719826 -2.36099148
0.22794637 4.76278734 0.22093132
-0.99548495 3.44132376 -0.67307240
0.40780741 3.87129402 1.50394344
-0.27518243 1.65610826 -2.59522581
-0.16820300 1.74981046 -2.60562944
0.53829294 0.45113915 -2.61653495
-0.61243767 1.53891146 2.41191053
-0.29416305 4.08239079 1.40411198
-1.42781997 0.42635453 0.87002563
0.14230208 -4.31569815 1.23834157
-1.48522449 0.22584821 0.46753687
1.04957128 0.38220906 -2.00874019
-0.02982270 1.00278151 -2.75364399
-0.58971936 0.42869088 2.57915497
0.10179072 1.82958090 -2.59935880
0.38240078 3.57497478 -1.75626314
0.35811338 4.41836309 0.92407131
0.20680834 -3.60305452 -1.83659852
-0.62617332 1.87720990 -2.31624389
1.15363431 0.82170779 -1.74910426
-1.09964108 1.66121495 -1.66558099
-1.39414036 1.48110485 -0.64076990
-0.01593372 4.37693644 1.19440782
-0.05366746 4.36641264 -1.20188618
0.96029633 2.89914203 1.36311233
-0.49808490 1.56129634 2.49673581
-1.35101461 1.67759752 0.78231663
-0.67642975 1.40369976 2.37962461
-0.12628613 0.67910361 2.77740502
-1.16228056 0.82944471 -1.72764122
-0.86007744 0.13987771 2.31109190
-0.10766312 0.21008602 2.80544519
0.24169745 0.10826506 -2.77827287
0.45684072 3.45858645 -1.77205086
-0.65232402 -3.49932551 -1.51269031
0.59575397 3.52259612 -1.57377064
0.60371304 -4.16113567 -0.88562685
0.43134931 1.21276104 2.60373378
-0.71429580 1.39862013 -2.34181356
0.05826386 0.19580500 -2.81127048
0.42059413 0.14693390 -2.70223761
1.46988773 0.31004381 -0.60119015
0.76926380 3.91266012 0.81617665
-0.40395758 4.63505650 -0.25687718
1.31734622 0.74154478 -1.30008531
-0.80629152 4.08383703 -0.03100569
0.68329108 3.20827985 -1.67477536
-0.08602286 1.63503838 -2.64517474
-1.34123909 -2.01941776 0.51981658
-0.83203351 3.92463851 0.53456730
-1.28519392 0.49629220 1.44416106
0.22450785 2.79725242 -2.25748396
1.08755565 3.21697807 0.54060447
-0.45952004 0.08642845 2.68105483
-0.15105729 1.64300621 2.63259554
-0.50836146 0.06742445 -2.65063381
0.15994354 3.99922442 -1.55259347
-1.25173354 2.30927825 0.80978209
-0.18349755 2.89045691 2.23047924
0.65885758 0.60723251 -2.50731182
1.29707909 2.44878912 -0.15850702
1.17835271 0.61366135 1.71964324
0.87816304 2.53822422 -1.74770308
-0.57461023 4.33039951 -0.64378488
1.28748155 2.45318437 0.32731137
1.17420638 2.97466302 0.34406325
1.13626218 0.81604755 1.78832781
0.07584952 4.62957335 -0.79524660
1.43404377 0.13283953 -0.86606973
-0.62693208 4.11283493 0.90573657
1.23904645 0.26136452 -1.59668922
-0.98303771 -2.62663150 -1.48812878
0.18624192 4.79429293 -0.08426814
0.87656021 3.44983339 1.09986472
-0.07640367 2.07518077 2.53929472
0.46168488 0.08940658 -2.67968035
0.22927605 -4.18625307 1.33972120
-0.23162960 4.47502327 0.97172844
0.46224573 4.36675787 -0.84290367
-0.29433337 -2.64850307 2.28966331
0.12895013 1.99770093 -2.55224156
-0.07617944 0.45331252 -2.79961967
-0.97328126 0.35153118 -2.14077401
0.59011501 3.87539434 -1.27143371
-0.08716835 0.47957912 2.79668713
0.44301498 0.51113087 -2.67451954
-1.22077155 -0.74042058 1.59482527
-0.36054772 4.37888670 -0.98384374
-0.18566069 4.33161449 1.19884932
-0.16126528 1.57813168 -2.64459610
-0.91944689 2.73887396 -1.55968773
-1.27476740 2.46257401 -0.44889125
0.17754833 1.37876785 -2.67791009
-0.81686151 -0.66785592 -2.33459377
0.08021835 4.63433647 -0.78463262
1.44720566 1.34655368 -0.09757813
-0.13200970 1.31083417 -2.69876337
1.28512061 1.86729026 0.99206090
-1.24926364 1.29585314 -1.38451493
0.94955981 1.93953359 -1.87289000
-0.03215545 1.81412470 2.60885119
0.61743969 0.18910967 -2.56601310
-0.12103601 3.16952229 -2.11309266
1.42863083 -1.52766263 -0.12864394
-1.18387330 2.51524282 0.94431555
0.41659600 3.34448171 -1.87829351
0.21912168 0.15661134 2.78467345
1.13215470 0.63674921 1.82166898
0.14641677 1.06022346 -2.73341727
-0.38304234 0.38426492 -2.71362734
0.16470456 0.72991520 -2.76609874
0.72078305 4.06680107 -0.70779556
-1.16853023 -1.97677577 1.35584629
-1.21092260 1.77389371 -1.32164264
0.30451611 4.13333082 -1.34388697
0.08072361 0.42408919 -2.80094028
-0.28652459 4.25653982 1.22173595
3 187 149 48
3 48 87 187
3 48 149 76
3 156 78 173
3 242 22 215
3 215 175 242
3 251 187 137
3 210 221 232
3 232 173 210
3 156 173 232
3 46 221 210
3 210 187 46
3 46 187 87
3 103 187 210
3 210 173 103
3 137 187 103
3 103 78 137
3 103 173 78
3 137 78 61
3 61 215 137
3 175 215 61
3 61 78 156
3 156 175 61
3 171 156 178
3 171 214 156
3 242 175 209
3 136 251 218
3 82 68 22
3 82 242 102
3 82 22 242
3 22 68 200
3 149 187 110
3 187 251 110
3 178 156 109
3 156 232 109
3 112 46 87
3 112 87 48
3 137 215 148
3 28 236 51
3 28 200 68
3 68 236 28
3 246 50 22
3 22 200 246
3 225 110 251
3 225 251 136
3 136 169 225
3 169 117 225
3 150 175 156
3 150 209 175
3 83 28 51
3 83 163 96
3 71 181 127
3 8 250 127
3 127 181 8
3 118 169 59
3 196 69 243
3 84 215 22
3 22 50 84
3 72 91 218
3 72 148 215
3 215 84 72
3 72 84 91
3 137 148 72
3 72 251 137
3 72 218 251
3 176 91 122
3 114 39 122
3 122 39 176
3 1 7 193
3 193 7 167
3 58 119 55
3 102 242 180
3 180 82 102
3 200 28 205
3 205 246 200
3 205 28 50
3 50 246 205
3 189 69 76
3 147 225 117
3 117 189 147
3 149 110 147
3 110 225 147
3 147 76 149
3 147 189 76
3 52 171 178
3 198 15 25
3 209 150 158
3 158 150 238
3 194 248 109
3 194 106 248
3 194 109 232
3 232 106 194
3 51 236 100
3 236 163 100
3 100 83 51
3 163 83 100
3 130 163 236
3 96 163 212
3 163 130 212
3 155 181 71
3 111 96 58
3 111 83 96
3 114 83 111
3 58 55 111
3 111 39 114
3 93 59 169
3 93 169 136
3 59 93 152
3 76 69 165
3 69 196 165
3 48 76 165
3 91 84 120
3 114 122 120
3 120 122 91
3 120 84 50
3 120 83 114
3 50 28 120
3 28 83 120
3 136 218 170
3 170 7 192
3 167 7 170
3 218 91 245
3 134 69 118
3 73 199 104
3 36 236 68
3 82 180 234
3 68 82 234
3 234 36 68
3 118 69 38
3 69 189 38
3 38 189 117
3 38 169 118
3 38 117 169
3 221 46 168
3 133 159 252
3 95 232 221
3 95 106 232
3 95 177 77
3 77 248 95
3 248 106 95
3 113 159 133
3 31 67 229
3 133 252 229
3 244 3 190
3 217 127 250
3 254 52 178
3 171 52 64
3 52 254 64
3 214 171 179
3 138 198 25
3 150 198 138
3 238 150 138
3 15 198 144
3 108 158 238
3 108 238 201
3 201 99 108
3 141 212 181
3 141 155 94
3 181 155 141
3 96 212 141
3 94 58 141
3 58 96 141
3 63 130 8
3 63 212 130
3 8 181 63
3 181 212 63
3 11 145 164
3 164 193 11
3 1 193 164
3 145 152 164
3 118 59 128
3 128 145 11
3 128 134 118
3 11 134 128
3 125 152 192
3 192 7 125
3 125 7 1
3 1 164 125
3 125 164 152
3 192 152 40
3 40 152 93
3 40 93 136
3 136 170 40
3 40 170 192
3 59 152 166
3 166 152 145
3 166 128 59
3 145 128 166
3 98 66 21
3 21 176 98
3 21 65 176
3 98 167 223
3 167 170 223
3 9 170 218
3 218 245 9
3 9 245 66
3 42 245 91
3 42 91 176
3 176 65 42
3 65 21 42
3 243 69 123
3 69 134 123
3 123 33 243
3 0 58 94
3 0 119 58
3 94 155 161
3 161 0 94
3 227 0 161
3 6 134 146
3 146 0 227
3 6 146 208
3 70 196 243
3 243 33 70
3 11 193 213
3 213 55 119
3 213 10 55
3 98 176 60
3 32 111 55
3 55 10 32
3 39 111 32
3 176 39 32
3 32 60 176
3 16 250 8
3 16 73 250
3 36 234 131
3 159 168 237
3 237 252 159
3 237 168 46
3 74 168 159
3 221 168 74
3 74 95 221
3 177 95 74
3 31 229 49
3 49 14 31
3 80 229 252
3 80 47 5
3 252 47 80
3 80 49 229
3 25 15 4
3 190 3 97
3 97 44 190
3 97 4 44
3 25 4 97
3 253 217 222
3 201 238 30
3 211 127 233
3 127 217 233
3 35 113 133
3 133 229 35
3 35 229 67
3 92 254 178
3 81 220 26
3 26 220 135
3 135 248 77
3 109 248 135
3 135 220 109
3 224 179 171
3 171 64 224
3 15 144 224
3 249 15 224
3 224 64 249
3 214 179 224
3 224 144 214
3 207 180 242
3 242 209 207
3 209 89 207
3 238 138 23
3 23 30 238
3 3 30 23
3 23 138 25
3 25 97 23
3 23 97 3
3 214 144 240
3 240 144 198
3 240 198 150
3 156 214 240
3 240 150 156
3 158 108 13
3 180 207 13
3 67 18 241
3 241 35 67
3 241 18 116
3 98 223 124
3 124 66 98
3 124 9 66
3 27 21 66
3 27 42 21
3 66 245 27
3 245 42 27
3 121 134 6
3 121 123 134
3 119 0 197
3 0 146 197
3 197 146 134
3 197 134 11
3 11 213 197
3 197 213 119
3 227 161 216
3 161 90 216
3 6 208 188
3 188 208 45
3 98 60 56
3 56 167 98
3 56 193 167
3 56 213 193
3 199 73 204
3 73 16 204
3 132 131 234
3 132 17 104
3 132 234 17
3 104 199 132
3 199 131 132
3 5 47 230
3 230 70 5
3 196 70 230
3 46 112 2
3 2 237 46
3 252 237 2
3 2 47 252
3 159 113 41
3 41 74 159
3 41 113 177
3 177 74 41
3 14 49 140
3 49 80 140
3 140 80 5
3 12 14 140
3 62 15 249
3 62 4 15
3 44 4 62
3 26 135 235
3 77 142 235
3 235 135 77
3 250 86 37
3 37 86 222
3 37 217 250
3 222 217 37
3 99 86 29
3 29 108 99
3 250 73 29
3 29 86 250
3 17 108 29
3 104 17 29
3 29 73 104
3 185 86 99
3 185 99 201
3 201 30 185
3 3 244 185
3 185 30 3
3 116 18 195
3 154 253 222
3 154 195 253
3 217 253 101
3 101 233 217
3 253 195 101
3 143 142 129
3 177 113 157
3 113 35 157
3 157 35 129
3 129 142 157
3 77 177 157
3 157 142 77
3 220 81 57
3 178 109 57
3 109 220 57
3 57 92 178
3 254 92 57
3 57 81 254
3 158 13 183
3 209 158 183
3 183 89 209
3 183 207 89
3 183 13 207
3 88 108 17
3 88 13 108
3 180 13 88
3 88 234 180
3 17 234 88
3 20 18 67
3 20 67 31
3 31 226 20
3 182 216 90
3 182 90 211
3 211 233 182
3 45 208 182
3 208 216 182
3 31 14 202
3 202 226 31
3 12 45 202
3 202 14 12
3 45 182 202
3 170 9 54
3 9 124 54
3 19 90 161
3 19 85 90
3 19 161 155
3 19 155 71
3 71 85 19
3 211 90 139
3 90 85 139
3 139 127 211
3 71 127 139
3 139 85 71
3 255 208 146
3 255 216 208
3 255 146 227
3 227 216 255
3 6 188 115
3 115 121 6
3 33 123 115
3 123 121 115
3 107 70 33
3 33 115 107
3 107 115 188
3 5 70 107
3 12 140 107
3 107 140 5
3 184 45 12
3 184 188 45
3 12 107 184
3 184 107 188
3 10 213 239
3 213 56 239
3 239 56 60
3 239 32 10
3 60 32 239
3 191 204 16
3 8 130 191
3 191 16 8
3 191 130 236
3 203 131 199
3 199 204 203
3 36 131 203
3 204 191 203
3 236 36 203
3 203 191 236
3 53 230 47
3 53 112 48
3 48 165 53
3 53 165 196
3 196 230 53
3 151 235 186
3 26 235 151
3 222 86 174
3 86 185 174
3 174 154 222
3 116 195 34
3 195 154 34
3 34 154 244
3 34 244 190
3 34 241 116
3 190 241 34
3 233 101 206
3 206 182 233
3 105 143 129
3 129 35 105
3 35 241 105
3 228 235 142
3 142 143 228
3 228 143 186
3 162 101 195
3 162 195 18
3 18 20 162
3 162 206 101
3 24 182 226
3 226 202 24
3 24 202 182
3 79 124 223
3 79 54 124
3 79 223 170
3 170 54 79
3 47 2 160
3 160 53 47
3 160 2 112
3 112 53 160
3 44 62 231
3 231 153 44
3 231 151 186
3 186 153 231
3 190 44 219
3 44 153 219
3 219 241 190
3 219 105 241
3 143 105 219
3 186 143 219
3 219 153 186
3 244 154 172
3 154 174 172
3 172 185 244
3 172 174 185
3 186 235 126
3 126 228 186
3 235 228 126
3 206 162 75
3 226 182 75
3 182 206 75
3 75 20 226
3 75 162 20
3 247 62 249
3 247 231 62
3 151 231 247
3 43 247 249
3 151 247 43
3 249 64 43
3 43 64 254
3 26 151 43
3 43 81 26
3 254 81 43