ply
format ascii 1.0
comment https://github.com/mikedh/trimesh
element vertex 256
property float x
property float y
property float z
element face 508
property list uchar int vertex_indices
end_header
0.12894300 3.63228655 1.12852502
-0.86346132 1.14285910 1.75327349
-3.33992290 1.39747560 -0.56007123
1.65986538 2.13495731 -1.42063677
0.98405164 1.39787924 -1.70497537
-2.79975271 2.83747959 -0.37297159
-1.80515552 3.58439851 0.71189415
-0.58852500 0.65558827 1.82205486
2.40563893 3.35686135 0.35489428
0.00213891 0.15453659 1.86437416
0.01824928 1.91908884 1.69264293
-1.37437093 1.82822943 1.56235135
-2.07073736 3.75477409 -0.18662727
3.21548319 1.16083801 -0.78874987
-2.06633425 3.60479164 -0.47291785
1.11627054 0.58196193 -1.76243711
2.68881059 3.11767721 0.13318086
3.15189576 1.58766651 -0.72748703
-0.37829313 3.49310756 -1.18595767
0.63007712 4.31505728 0.52152473
-0.79597872 3.92113113 -0.86751139
0.64440095 0.68802941 1.81522512
2.75706697 -0.08830743 1.24237227
1.81434512 1.98304486 -1.40889466
-1.22737169 4.16328096 -0.45079035
1.57649589 1.30942154 -1.60053790
-0.16384339 0.64115965 -1.84554148
0.57560772 0.33174136 1.83762848
2.79405379 0.93983293 1.16000366
2.59907413 2.91104317 -0.58924091
1.88257658 2.26532531 -1.31201816
-2.02894449 3.46791005 -0.65089399
0.19988844 1.72195470 1.72498620
-2.45604205 3.24188447 0.43695477
0.41559559 3.28439569 -1.27868271
-1.23107743 2.27634573 -1.49329948
3.25670338 2.04670572 0.28085622
1.56211710 3.75027847 -0.71494997
-2.37804222 0.80758786 1.38968098
1.08039582 1.41266036 1.68820000
-1.22652602 -0.00906504 1.75986481
-2.30880737 1.44046056 -1.33280289
1.06623709 0.35388219 1.78063977
0.23493999 0.71195489 -1.83876824
0.61544430 1.84062970 -1.67913640
-1.53645289 4.14063644 -0.13360645
-3.30425882 0.56921953 -0.80308497
-3.19164634 1.79088223 -0.59402633
-3.66048694 0.62796623 0.05365532
-2.12540936 3.38283086 -0.64807558
2.45677018 0.45422691 1.38182151
2.72957206 1.82407415 1.01475525
0.34673169 0.19410644 -1.85588324
-3.42844963 1.57724595 -0.26634923
-0.23641101 0.20176491 1.85973239
0.27089584 2.46367860 1.56468177
-0.25436872 1.56657660 1.74769604
0.01867563 0.27010828 -1.86230135
0.72430843 2.87073231 1.40368938
-1.89775968 0.93376702 1.55483925
0.10630869 1.53727794 1.75609684
1.01172006 -4.19621134 -0.53014857
0.72933263 1.36066115 -1.74226928
2.27044511 3.39329910 0.49644026
0.40563485 0.50459409 -1.84292758
0.88711458 0.76176918 1.78438973
0.53503275 0.54689604 1.83236170
-0.95848596 3.23818660 -1.22337794
3.40453386 1.19206071 0.53882325
-2.98292184 1.87900448 0.79109055
-2.80189466 2.94139719 0.19022693
0.84160239 4.28477383 0.48636836
-0.09318081 -3.44353151 1.22431529
2.91565800 2.77465534 -0.17249696
-2.35900331 1.01848125 -1.37494528
-0.31420130 4.21559858 -0.69898182
-3.46670890 0.94102693 0.52215862
-0.92366219 0.81776607 -1.77518630
-0.51803923 -3.87225914 -0.95382953
-0.19161852 0.28053379 1.85936356
-2.48435640 3.00056171 -0.63676846
-0.03286995 0.38412350 -1.85877466
3.69319916 0.20268044 -0.02145773
2.12995934 2.30553746 1.19863272
2.00895691 0.16686559 1.56431055
0.65424633 4.35985804 0.44630957
1.97003627 3.25020885 -0.85432070
-3.59210515 0.83381951 -0.27845463
3.17220688 1.50091136 -0.73531497
3.24353671 0.40678683 -0.87973076
0.11567384 4.53597498 0.20769620
1.60967565 0.18704839 1.67798352
0.11660440 0.24067713 -1.86201286
-1.80836427 0.04318435 1.62702453
0.65717870 3.74154377 1.01699758
-1.57671487 0.65525895 -1.66590118
2.02222157 2.75635910 1.08256102
1.31043684 1.80786431 -1.58043849
0.19798549 0.95261449 1.82162571
2.10137868 3.03660536 -0.90316439
2.66494083 1.98849702 1.00679278
0.33870411 4.19357967 -0.71765846
3.69408798 0.10628581 -0.05705218
-2.39819551 -3.05643606 -0.67609793
3.21176124 2.24381280 -0.11001800
-0.72782558 2.16345859 -1.60131371
-1.26354527 0.07274874 -1.75334549
-2.39561486 3.47850585 0.02560039
2.97466922 1.73788810 -0.85147142
-0.56168801 0.02460491 -1.84413481
-3.06637216 -1.42147958 0.86531347
0.86407506 2.40343189 1.52497053
-3.53494573 1.08969700 -0.31650016
-2.18429923 1.87790990 -1.29510999
1.37042642 1.58573794 1.60684288
-2.37671566 3.32021618 0.44808966
0.17196882 3.44390178 -1.22187316
-3.09887671 0.19366053 1.01456201
-2.27641892 0.87476546 1.42608416
-0.04147558 2.66062188 1.51584721
1.97694373 0.71424800 1.54926050
-2.33554125 2.79355431 0.88815510
1.14275467 1.27584350 1.69574618
-2.44032931 2.72455001 0.85193783
-0.06568380 0.28098229 1.86164474
-0.86951184 0.89827234 1.77563357
-0.29865658 1.43409860 -1.76459122
1.04067433 4.37317276 -0.11628728
-1.75453758 1.39632380 1.54028606
-0.69937462 1.83468294 -1.67145503
2.60132957 3.08774233 0.40730307
3.25368547 2.15537405 0.09685259
3.29292941 2.06709909 -0.07033359
-2.28450823 2.39977646 -1.09140599
-1.81031191 2.74382329 1.17847657
-0.24748494 0.57553923 -1.84659195
-1.51177526 -1.75727701 1.54400277
0.07580632 -4.36842585 0.54105997
1.78891063 1.14057565 -1.56441343
0.55884731 4.49993992 0.14639100
-2.44059205 3.25140476 -0.44598359
0.99980569 3.65764594 0.99652594
-0.67465413 1.56471133 -1.71961904
-0.41237679 1.65324235 -1.72651255
1.31971204 0.42624179 -1.73373866
-1.50148976 1.45398235 1.59815288
-0.72118813 3.85709262 0.93037677
-3.50053120 0.40282497 0.57648653
0.34887651 -4.07752466 0.82053590
-3.64126754 0.21338417 0.30979398
2.57319331 0.36111581 -1.33100867
-0.07311516 0.94744027 -1.82458830
-1.44579220 0.40503240 1.70897055
0.24955638 1.72861040 -1.72235763
0.93751723 3.37767982 -1.16371512
0.87797272 4.17452335 0.61229765
0.50702405 -3.40420985 -1.21694613
-1.53516483 1.77361083 -1.53476334
2.82832050 0.77635956 -1.15897167
-2.69594741 1.56953621 -1.10362840
-3.41796017 1.39936602 -0.42457968
-0.03906408 4.13538313 0.79142499
-0.13157444 4.12544012 -0.79638016
2.35432148 2.73914480 0.90321004
-1.22113550 1.47513199 1.65435886
-3.31223035 1.58501470 0.51836979
-1.65837669 1.32623267 1.57675993
-0.30961084 0.64162540 1.84033275
-2.84951830 0.78366947 -1.14475012
-2.10861874 0.13215816 1.53134954
-0.26395354 0.19849184 1.85891223
0.59256029 0.10229015 -1.84090769
1.12001872 3.26771474 -1.17417622
-1.59927762 -3.30620551 -1.00232172
1.46058702 3.32819200 -1.04279399
1.48009992 -3.93149209 -0.58682406
1.05752242 1.14583147 1.72525656
-1.75121152 1.32143342 -1.55170608
0.14284326 0.18499896 -1.86277211
1.03115439 0.13882495 -1.79052603
3.60366678 0.29293317 -0.39835382
1.88597441 3.69672918 0.54080576
-0.99036717 4.37925816 -0.17020905
3.22968674 0.70062059 -0.86144781
-1.97675371 3.85845900 -0.02054464
1.67519844 3.03122211 -1.10972071
-0.21089894 1.54480422 -1.75271583
-3.28826404 -1.90797067 0.34443498
-2.03986454 3.70804644 0.35420892
-3.15086055 0.46890298 0.95691359
0.55041724 2.64287829 -1.49582839
2.66631818 3.03944016 0.35820919
-1.12658763 0.08165865 1.77649021
-0.37034130 1.55233240 1.74438059
-1.24633014 0.06370344 -1.75633287
0.39212739 3.77851605 -1.02876186
-3.06882668 2.18183422 0.53656864
-0.44987386 2.73093915 1.47793496
1.61529565 0.57372069 -1.66136658
3.17999864 2.31364608 -0.10502812
2.88892198 0.57979476 1.13945055
2.15295839 2.39814544 -1.15804327
-1.40874970 4.09141445 -0.42657742
3.15646863 2.31779861 0.21687934
2.87875628 2.81049800 0.22797929
2.78573012 0.77101171 1.18496156
0.18595734 4.37407732 -0.52693731
3.51578951 0.12550841 -0.57386529
-1.53702521 3.88585711 0.60014892
3.03772235 0.24694040 -1.05798006
-2.41007566 -2.48167348 -0.98604703
0.45660216 4.52970695 -0.05583680
2.14902878 3.25944471 0.72877991
-0.18731593 1.96065605 1.68255866
1.13189495 0.08447243 -1.77557933
0.56210721 -3.95522308 0.88771087
-0.56787735 4.22805643 0.64387566
1.13327003 4.12576628 -0.55851531
-0.72160572 -2.50233817 1.51715064
0.31614208 1.88745224 -1.69113743
-0.18676619 0.42829522 -1.85505223
-2.38615608 0.33213094 -1.41849542
1.44676220 3.66152000 -0.84246302
-0.21370728 0.45311221 1.85310912
1.08612275 0.48292267 -1.77215993
-2.99291849 -0.69955844 1.05674505
-0.88394094 4.13722563 -0.65190339
-0.45517716 4.09256220 0.79436797
-0.39536786 1.49103808 -1.75233233
-2.25417233 2.58772159 -1.03346264
-3.12529802 2.32666993 -0.29743925
0.43528840 1.30267680 -1.77440643
-2.00266790 -0.63099843 -1.54692197
0.19666824 4.37857771 -0.51990438
3.54805827 1.27224040 -0.06465612
-0.32364309 1.23849213 -1.78822398
3.15068054 1.76423872 0.65734816
-3.06277132 1.22433782 -0.91739160
2.32799911 1.83249509 -1.24099314
-0.07883428 1.71400726 1.72864747
1.51375306 0.17867313 -1.70026255
-0.29673931 2.99460340 -1.40015352
3.50251889 -1.44335437 -0.08524059
-2.90245652 2.37643218 0.62571168
1.02135229 3.15990710 -1.24457347
0.53721213 0.14796832 1.84514880
2.77566004 0.60160846 1.20705366
0.35896432 1.00171208 -1.81118596
-0.93909007 0.36305818 -1.79807305
0.40379983 0.68963283 -1.83284104
1.76711595 3.84236360 -0.46899149
-2.86484051 -1.86768198 0.89839554
-2.96877217 1.67599654 -0.87573189
0.74657041 3.90522146 -0.89047116
0.19790697 0.40068465 -1.85592735
-0.70246130 4.02163124 0.80953282
3 187 149 48
3 48 87 187
3 48 149 76
3 156 78 173
3 242 22 215
3 215 175 242
3 251 187 137
3 210 221 232
3 232 173 210
3 156 173 232
3 46 221 210
3 210 187 46
3 46 187 87
3 103 187 210
3 210 173 103
3 137 187 103
3 103 78 137
3 103 173 78
3 137 78 61
3 61 215 137
3 175 215 61
3 61 78 156
3 156 175 61
3 171 156 178
3 171 214 156
3 242 175 209
3 136 251 218
3 82 68 22
3 82 242 102
3 82 22 242
3 22 68 200
3 149 187 110
3 187 251 110
3 178 156 109
3 156 232 109
3 112 46 87
3 112 87 48
3 137 215 148
3 28 236 51
3 28 200 68
3 68 236 28
3 246 50 22
3 22 200 246
3 225 110 251
3 225 251 136
3 136 169 225
3 169 117 225
3 150 175 156
3 150 209 175
3 83 28 51
3 83 163 96
3 71 181 127
3 8 250 127
3 127 181 8
3 118 169 59
3 196 69 243
3 84 215 22
3 22 50 84
3 72 91 218
3 72 148 215
3 215 84 72
3 72 84 91
3 137 148 72
3 72 251 137
3 72 218 251
3 176 91 122
3 114 39 122
3 122 39 176
3 1 7 193
3 193 7 167
3 58 119 55
3 102 242 180
3 180 82 102
3 200 28 205
3 205 246 200
3 205 28 50
3 50 246 205
3 189 69 76
3 147 225 117
3 117 189 147
3 149 110 147
3 110 225 147
3 147 76 149
3 147 189 76
3 52 171 178
3 198 15 25
3 209 150 158
3 158 150 238
3 194 248 109
3 194 106 248
3 194 109 232
3 232 106 194
3 51 236 100
3 236 163 100
3 100 83 51
3 163 83 100
3 130 163 236
3 96 163 212
3 163 130 212
3 155 181 71
3 111 96 58
3 111 83 96
3 114 83 111
3 58 55 111
3 111 39 114
3 93 59 169
3 93 169 136
3 59 93 152
3 76 69 165
3 69 196 165
3 48 76 165
3 91 84 120
3 114 122 120
3 120 122 91
3 120 84 50
3 120 83 114
3 50 28 120
3 28 83 120
3 136 218 170
3 170 7 192
3 167 7 170
3 218 91 245
3 134 69 118
3 73 199 104
3 36 236 68
3 82 180 234
3 68 82 234
3 234 36 68
3 118 69 38
3 69 189 38
3 38 189 117
3 38 169 118
3 38 117 169
3 221 46 168
3 133 159 252
3 95 232 221
3 95 106 232
3 95 177 77
3 77 248 95
3 248 106 95
3 113 159 133
3 31 67 229
3 133 252 229
3 244 3 190
3 217 127 250
3 254 52 178
3 171 52 64
3 52 254 64
3 214 171 179
3 138 198 25
3 150 198 138
3 238 150 138
3 15 198 144
3 108 158 238
3 108 238 201
3 201 99 108
3 141 212 181
3 141 155 94
3 181 155 141
3 96 212 141
3 94 58 141
3 58 96 141
3 63 130 8
3 63 212 130
3 8 181 63
3 181 212 63
3 11 145 164
3 164 193 11
3 1 193 164
3 145 152 164
3 118 59 128
3 128 145 11
3 128 134 118
3 11 134 128
3 125 152 192
3 192 7 125
3 125 7 1
3 1 164 125
3 125 164 152
3 192 152 40
3 40 152 93
3 40 93 136
3 136 170 40
3 40 170 192
3 59 152 166
3 166 152 145
3 166 128 59
3 145 128 166
3 98 66 21
3 21 176 98
3 21 65 176
3 98 167 223
3 167 170 223
3 9 170 218
3 218 245 9
3 9 245 66
3 42 245 91
3 42 91 176
3 176 65 42
3 65 21 42
3 243 69 123
3 69 134 123
3 123 33 243
3 0 58 94
3 0 119 58
3 94 155 161
3 161 0 94
3 227 0 161
3 6 134 146
3 146 0 227
3 6 146 208
3 70 196 243
3 243 33 70
3 11 193 213
3 213 55 119
3 213 10 55
3 98 176 60
3 32 111 55
3 55 10 32
3 39 111 32
3 176 39 32
3 32 60 176
3 16 250 8
3 16 73 250
3 36 234 131
3 159 168 237
3 237 252 159
3 237 168 46
3 74 168 159
3 221 168 74
3 74 95 221
3 177 95 74
3 31 229 49
3 49 14 31
3 80 229 252
3 80 47 5
3 252 47 80
3 80 49 229
3 25 15 4
3 190 3 97
3 97 44 190
3 97 4 44
3 25 4 97
3 253 217 222
3 201 238 30
3 211 127 233
3 127 217 233
3 35 113 133
3 133 229 35
3 35 229 67
3 92 254 178
3 81 220 26
3 26 220 135
3 135 248 77
3 109 248 135
3 135 220 109
3 224 179 171
3 171 64 224
3 15 144 224
3 249 15 224
3 224 64 249
3 214 179 224
3 224 144 214
3 207 180 242
3 242 209 207
3 209 89 207
3 238 138 23
3 23 30 238
3 3 30 23
3 23 138 25
3 25 97 23
3 23 97 3
3 214 144 240
3 240 144 198
3 240 198 150
3 156 214 240
3 240 150 156
3 158 108 13
3 180 207 13
3 67 18 241
3 241 35 67
3 241 18 116
3 98 223 124
3 124 66 98
3 124 9 66
3 27 21 66
3 27 42 21
3 66 245 27
3 245 42 27
3 121 134 6
3 121 123 134
3 119 0 197
3 0 146 197
3 197 146 134
3 197 134 11
3 11 213 197
3 197 213 119
3 227 161 216
3 161 90 216
3 6 208 188
3 188 208 45
3 98 60 56
3 56 167 98
3 56 193 167
3 56 213 193
3 199 73 204
3 73 16 204
3 132 131 234
3 132 17 104
3 132 234 17
3 104 199 132
3 199 131 132
3 5 47 230
3 230 70 5
3 196 70 230
3 46 112 2
3 2 237 46
3 252 237 2
3 2 47 252
3 159 113 41
3 41 74 159
3 41 113 177
3 177 74 41
3 14 49 140
3 49 80 140
3 140 80 5
3 12 14 140
3 62 15 249
3 62 4 15
3 44 4 62
3 26 135 235
3 77 142 235
3 235 135 77
3 250 86 37
3 37 86 222
3 37 217 250
3 222 217 37
3 99 86 29
3 29 108 99
3 250 73 29
3 29 86 250
3 17 108 29
3 104 17 29
3 29 73 104
3 185 86 99
3 185 99 201
3 201 30 185
3 3 244 185
3 185 30 3
3 116 18 195
3 154 253 222
3 154 195 253
3 217 253 101
3 101 233 217
3 253 195 101
3 143 142 129
3 177 113 157
3 113 35 157
3 157 35 129
3 129 142 157
3 77 177 157
3 157 142 77
3 220 81 57
3 178 109 57
3 109 220 57
3 57 92 178
3 254 92 57
3 57 81 254
3 158 13 183
3 209 158 183
3 183 89 209
3 183 207 89
3 183 13 207
3 88 108 17
3 88 13 108
3 180 13 88
3 88 234 180
3 17 234 88
3 20 18 67
3 20 67 31
3 31 226 20
3 182 216 90
3 182 90 211
3 211 233 182
3 45 208 182
3 208 216 182
3 31 14 202
3 202 226 31
3 12 45 202
3 202 14 12
3 45 182 202
3 170 9 54
3 9 124 54
3 19 90 161
3 19 85 90
3 19 161 155
3 19 155 71
3 71 85 19
3 211 90 139
3 90 85 139
3 139 127 211
3 71 127 139
3 139 85 71
3 255 208 146
3 255 216 208
3 255 146 227
3 227 216 255
3 6 188 115
3 115 121 6
3 33 123 115
3 123 121 115
3 107 70 33
3 33 115 107
3 107 115 188
3 5 70 107
3 12 140 107
3 107 140 5
3 184 45 12
3 184 188 45
3 12 107 184
3 184 107 188
3 10 213 239
3 213 56 239
3 239 56 60
3 239 32 10
3 60 32 239
3 191 204 16
3 8 130 191
3 191 16 8
3 191 130 236
3 203 131 199
3 199 204 203
3 36 131 203
3 204 191 203
3 236 36 203
3 203 191 236
3 53 230 47
3 53 112 48
3 48 165 53
3 53 165 196
3 196 230 53
3 151 235 186
3 26 235 151
3 222 86 174
3 86 185 174
3 174 154 222
3 116 195 34
3 195 154 34
3 34 154 244
3 34 244 190
3 34 241 116
3 190 241 34
3 233 101 206
3 206 182 233
3 105 143 129
3 129 35 105
3 35 241 105
3 228 235 142
3 142 143 228
3 228 143 186
3 162 101 195
3 162 195 18
3 18 20 162
3 162 206 101
3 24 182 226
3 226 202 24
3 24 202 182
3 79 124 223
3 79 54 124
3 79 223 170
3 170 54 79
3 47 2 160
3 160 53 47
3 160 2 112
3 112 53 160
3 44 62 231
3 231 153 44
3 231 151 186
3 186 153 231
3 190 44 219
3 44 153 219
3 219 241 190
3 219 105 241
3 143 105 219
3 186 143 219
3 219 153 186
3 244 154 172
3 154 174 172
3 172 185 244
3 172 174 185
3 186 235 126
3 126 228 186
3 235 228 126
3 206 162 75
3 226 182 75
3 182 206 75
3 75 20 226
3 75 162 20
3 247 62 249
3 247 231 62
3 151 231 247
3 43 247 249
3 151 247 43
3 249 64 43
3 43 64 254
3 26 151 43
3 43 81 26
3 254 81 43