ply
format ascii 1.0
comment https://github.com/mikedh/trimesh
element vertex 256
property float x
property float y
property float z
element face 508
property list uchar int vertex_indices
end_header
0.16137177 1.15701675 2.83542013
-1.08061922 0.36404258 4.40510130
-4.17990351 0.44514731 -1.40717959
2.07731652 0.68006229 -3.56935120
1.23153770 0.44527590 -4.28375196
-3.50388217 0.90384150 -0.93709147
-2.25914669 1.14176261 1.78863466
-0.73653728 0.20882896 4.57791471
3.01064992 1.06928360 0.89167219
0.00267684 0.04922558 4.68424177
0.02283892 0.61130029 4.25276661
-1.72002113 0.58235824 3.92540932
-2.59152150 1.19603348 -0.46890119
4.02416754 0.36976954 -1.98173475
-2.58601093 1.14825857 -1.18820655
1.39700925 0.18537626 -4.42812490
3.36503839 0.99309474 0.33461705
3.94458795 0.50573009 -1.82781184
-0.47343269 1.11268306 -2.97971988
0.78853959 1.37450433 1.31033134
-0.99616498 1.24902427 -2.17962313
0.80646580 0.21916263 4.56075478
3.45046091 -0.02812916 3.12146163
2.27064753 0.63167262 -3.53984928
-1.53605199 1.32615793 -1.13261116
1.97297978 0.41709885 -4.02135277
-0.20504951 0.20423290 -4.63692474
0.72037137 0.10567182 4.61704302
3.49674988 0.29937130 2.91451049
3.25273347 0.92727417 -1.48046839
2.35603905 0.72158933 -3.29644680
-2.53921795 1.10465670 -1.63537180
0.25015977 0.54850584 4.33402920
-3.07372928 1.03265929 1.09784925
0.52011663 1.04620075 -3.21269155
-1.54068971 0.72509974 -3.75191641
4.07575464 0.65195096 0.70565152
1.95498478 1.19460142 -1.79631245
-2.97611260 0.25724640 3.49157476
1.35211217 0.44998422 4.24160385
-1.53499365 -0.00288755 4.42166185
-2.88946557 0.45883960 -3.34866858
1.33439255 0.11272448 4.47385931
0.29402670 0.22678378 -4.61990690
0.77022672 0.58630818 -4.21883154
-1.92286611 1.31894493 -0.33568633
-4.13527012 0.18131733 -2.01775169
-3.99433589 0.57046175 -1.49249172
-4.58108854 0.20003031 0.13480903
-2.65994334 1.07755589 -1.62829053
3.07464051 0.14468795 3.47182775
3.41605115 0.58103460 2.54957342
0.43393365 0.06183004 -4.66290855
-4.29069424 0.50241077 -0.66920269
-0.29586765 0.06426954 4.67257929
0.33902535 0.78477210 3.93126464
-0.31834167 0.49901220 4.39108801
0.02337250 0.08603941 -4.67903376
0.90646982 0.91443372 3.52677083
-2.37504053 0.29743910 3.90653515
0.13304500 0.48967952 4.41219521
1.26616466 -1.33664739 -1.33199883
0.91275764 0.43342054 -4.37745333
2.84145522 1.08089042 1.24730659
0.50765079 0.16073175 -4.63035727
1.11022127 0.24265148 4.48328066
0.66959190 0.17420647 4.60381031
-1.19954228 1.03148139 -3.07373834
4.26076412 0.37971511 1.35379386
-3.73311782 0.59853196 1.98761570
-3.50656271 0.93694305 0.47794533
1.05326283 1.36485779 1.22200096
-0.11661550 -1.09689128 3.07609344
3.64893723 0.88382965 -0.43339878
-2.95228553 0.32442370 -3.45455122
-0.39322197 1.34282303 -1.75619245
-4.33857584 0.29975164 1.31192398
-1.15596044 0.26048854 -4.46015692
-0.64832455 -1.23345685 -2.39649749
-0.23981000 0.08936032 4.67165232
-3.10916471 0.95578909 -1.59988129
-0.04113665 0.12235745 -4.67017317
4.62202740 0.06456117 -0.05391256
2.66563773 0.73439837 3.01156569
2.51420355 0.05315282 3.93033171
0.81878734 1.38877487 1.12135315
2.46549463 1.03531086 -2.14648151
-4.49550915 0.26560214 -0.69961751
3.97000742 0.47809538 -1.84747958
4.05927658 0.12957655 -2.21032429
0.14476547 1.44487464 0.52183688
2.01450419 0.05958178 4.21593523
0.14593007 0.07666451 -4.67830896
-2.26316261 0.01375580 4.08790064
0.82245719 1.19181919 2.55520749
-1.97325385 0.20872404 -4.18557835
2.53080440 0.87800163 2.71993542
1.64000773 0.57587117 -3.97085309
0.24777825 0.30344269 4.57683659
2.62986898 0.96727031 -2.26920128
3.33516550 0.63340938 2.52956772
0.42388719 1.33580911 -1.80311751
4.62314034 0.03385593 -0.14334366
-3.00133443 -0.97358716 -1.69869661
4.01950932 0.71473682 -0.27642033
-0.91087151 0.68914104 -4.02330208
-1.58132315 0.02317314 -4.40528202
-2.99810457 1.10803187 0.06432101
3.72278953 0.55358118 -2.13932276
-0.70295084 0.00783757 -4.63339043
-3.83755541 -0.45279348 2.17410088
1.08138740 0.76558131 3.83148980
-4.42397404 0.34710851 -0.79520690
-2.73364401 0.59818327 -3.25396490
1.71508455 0.50511575 4.03719425
-2.97445250 1.05761075 1.12582564
0.21521845 1.09700918 -3.06995749
-3.87823510 0.06168799 2.54908800
-2.84893131 0.27864492 3.58303761
-0.05190656 0.84750581 3.80856752
2.47413921 0.22751422 3.89251828
-2.92292285 0.88984972 2.23149061
1.43015409 0.40640301 4.26056385
-3.05406499 0.86786926 2.14049459
-0.08220308 0.08950318 4.67738438
-1.08819139 0.28613272 4.46128082
-0.37376782 0.45681307 -4.43353701
1.30240071 1.39301610 -0.29217190
-2.19579864 0.44478041 3.86997008
-0.87526518 0.58441395 -4.19953251
3.25555634 0.98355937 1.02334929
4.07197762 0.68656582 0.24334222
4.12109137 0.65844697 -0.17671320
-2.85905528 0.76441699 -2.74215865
-2.26559997 0.87400848 2.96092343
-0.30972666 0.18333039 -4.63956404
-1.89198220 -0.55975729 3.87930846
0.09487139 -1.39150405 1.35941362
2.23881626 0.36331522 -3.93059015
0.69939572 1.43339610 0.36780754
-3.05439353 1.03569186 -1.12053418
1.25125384 1.16509461 2.50377226
-0.84432757 0.49841803 -4.32054472
-0.51608831 0.52661842 -4.33786440
1.65161562 0.13577367 -4.35601997
-1.87910986 0.46314681 4.01536083
-0.90256482 1.22862566 2.33757257
-4.38090420 0.12831455 1.44842291
0.43661791 -1.29884136 2.06159711
-4.55703545 0.06797069 0.77835768
3.22034359 0.11502865 -3.34416056
-0.09150340 0.30179453 -4.58428001
-1.80940461 0.12901770 4.29378986
0.31231904 0.55062592 -4.32742500
1.17330003 1.07591510 -2.92383552
1.09878027 1.32973909 1.53839839
0.63453907 -1.08436596 -3.05757809
-1.92125428 0.56496018 -3.85609412
3.53963470 0.24729905 -2.91191745
-3.37397003 0.49995497 -2.77286744
-4.27756691 0.44574949 -1.06675684
-0.04888858 1.31727135 1.98845613
-0.16466501 1.31410420 -2.00090599
2.94642615 0.87251824 2.26931620
-1.52824748 0.46988371 4.15657806
-4.14524603 0.50488538 1.30240464
-2.07545352 0.42245385 3.96161056
-0.38747704 0.20438126 4.62383747
-3.56616378 0.24962752 -2.87618566
-2.63893008 0.04209723 3.84751725
-0.33033705 0.06322694 4.67051888
0.74158740 0.03258317 -4.62528229
1.40170014 1.04088712 -2.95011878
-2.00149107 -1.05314791 -2.51833415
1.82792020 1.06015134 -2.62002087
1.85234058 -1.25232470 -1.47439587
1.32348621 0.36498943 4.33470869
-2.19163585 0.42092508 -3.89866281
0.17876792 0.05892896 -4.68021679
1.29048657 0.04422085 -4.49869823
4.50997829 0.09330998 -1.00086427
2.36029124 1.17754400 1.35877490
-1.23944151 1.39495456 -0.42765039
4.04194307 0.22317339 -2.16438842
-2.47390127 1.22906089 -0.05161843
2.09650564 0.96555555 -2.78817439
-0.26393938 0.49207690 -4.40369987
-4.11525249 -0.60775876 0.86539322
-2.55288434 1.18114901 0.88995022
-3.94329238 0.14936282 2.40424633
0.68884552 0.84185386 -3.75827026
3.33688927 0.96817333 0.90000099
-1.40992093 0.02601128 4.46343327
-0.46348104 0.49447489 4.38275766
-1.55977845 0.02029189 -4.41278791
0.49074626 1.20359623 -2.58476520
-3.84062743 0.69499433 1.34812915
-0.56301582 0.86990446 3.71331286
2.02153754 0.18275112 -4.17418480
3.97975874 0.73698127 -0.26388326
3.61547709 0.18468592 2.86287045
2.69442081 0.76389736 -2.90958476
-1.76304603 1.30326581 -1.07177615
3.95031118 0.73830402 0.54490954
3.60275483 0.89524686 0.57279819
3.48633289 0.24559554 2.97721696
0.23272505 1.39330435 -1.32393038
4.40000010 0.03997904 -1.44183707
-1.92358243 1.23778820 1.50787473
3.80170035 0.07865959 -2.65817595
-3.01620245 -0.79050416 -2.47744417
0.57143623 1.44287801 -0.14029001
2.68950319 1.03825283 1.83106029
-0.23442532 0.62454098 4.22742987
1.41656315 0.02690757 -4.46114492
0.70347548 -1.25988388 2.23037434
-0.71069682 1.34679139 1.61773825
1.41828406 1.31420815 -1.40327024
-0.90308738 -0.79708660 3.81184244
0.39565086 0.60122287 -4.24898434
-0.23373732 0.13642776 -4.66082048
-2.98626709 0.10579590 -3.56397104
1.81061852 1.16632855 -2.11668921
-0.26745403 0.14433289 4.65593815
1.35927927 0.15382861 -4.45255327
-3.74562860 -0.22283506 2.65507293
-1.10624945 1.31785834 -1.63790786
-0.56965286 1.30363142 1.99585032
-0.49480167 0.47495040 -4.40273666
-2.82108998 0.82428437 -2.59657598
-3.91130114 0.74112988 -0.74731636
0.54476213 0.41495040 -4.45819759
-2.50633287 -0.20099618 -3.88664293
0.24612971 1.39473796 -1.30626023
4.44038439 0.40525529 -0.16244854
-0.40503836 0.39450523 -4.49291420
3.94306731 0.56197482 1.65158784
-3.83304906 0.38999659 -2.30494738
2.91348386 0.58371699 -3.11799645
-0.09866086 0.54597425 4.34322834
1.89445746 0.05691395 -4.27191114
-0.37136835 0.95389122 -3.51788688
4.38339186 -0.45976138 -0.21416706
-3.63241553 0.75698096 1.57210112
1.27821934 1.00654650 -3.12699223
0.67231941 0.04713335 4.63593817
3.47373033 0.19163439 3.03272343
0.44924280 0.31908208 -4.55060625
-1.17526841 0.11564737 -4.51766014
0.50535429 0.21967338 -4.60501480
2.21154046 1.22393394 -1.17834151
-3.58533931 -0.59492528 2.25721955
-3.71540952 0.53386647 -2.20027733
0.93433058 1.24395645 -2.23730969
0.24767998 0.12763278 -4.66301918
-0.87912822 1.28103721 2.03395200
3 187 149 48
3 48 87 187
3 48 149 76
3 156 78 173
3 242 22 215
3 215 175 242
3 251 187 137
3 210 221 232
3 232 173 210
3 156 173 232
3 46 221 210
3 210 187 46
3 46 187 87
3 103 187 210
3 210 173 103
3 137 187 103
3 103 78 137
3 103 173 78
3 137 78 61
3 61 215 137
3 175 215 61
3 61 78 156
3 156 175 61
3 171 156 178
3 171 214 156
3 242 175 209
3 136 251 218
3 82 68 22
3 82 242 102
3 82 22 242
3 22 68 200
3 149 187 110
3 187 251 110
3 178 156 109
3 156 232 109
3 112 46 87
3 112 87 48
3 137 215 148
3 28 236 51
3 28 200 68
3 68 236 28
3 246 50 22
3 22 200 246
3 225 110 251
3 225 251 136
3 136 169 225
3 169 117 225
3 150 175 156
3 150 209 175
3 83 28 51
3 83 163 96
3 71 181 127
3 8 250 127
3 127 181 8
3 118 169 59
3 196 69 243
3 84 215 22
3 22 50 84
3 72 91 218
3 72 148 215
3 215 84 72
3 72 84 91
3 137 148 72
3 72 251 137
3 72 218 251
3 176 91 122
3 114 39 122
3 122 39 176
3 1 7 193
3 193 7 167
3 58 119 55
3 102 242 180
3 180 82 102
3 200 28 205
3 205 246 200
3 205 28 50
3 50 246 205
3 189 69 76
3 147 225 117
3 117 189 147
3 149 110 147
3 110 225 147
3 147 76 149
3 147 189 76
3 52 171 178
3 198 15 25
3 209 150 158
3 158 150 238
3 194 248 109
3 194 106 248
3 194 109 232
3 232 106 194
3 51 236 100
3 236 163 100
3 100 83 51
3 163 83 100
3 130 163 236
3 96 163 212
3 163 130 212
3 155 181 71
3 111 96 58
3 111 83 96
3 114 83 111
3 58 55 111
3 111 39 114
3 93 59 169
3 93 169 136
3 59 93 152
3 76 69 165
3 69 196 165
3 48 76 165
3 91 84 120
3 114 122 120
3 120 122 91
3 120 84 50
3 120 83 114
3 50 28 120
3 28 83 120
3 136 218 170
3 170 7 192
3 167 7 170
3 218 91 245
3 134 69 118
3 73 199 104
3 36 236 68
3 82 180 234
3 68 82 234
3 234 36 68
3 118 69 38
3 69 189 38
3 38 189 117
3 38 169 118
3 38 117 169
3 221 46 168
3 133 159 252
3 95 232 221
3 95 106 232
3 95 177 77
3 77 248 95
3 248 106 95
3 113 159 133
3 31 67 229
3 133 252 229
3 244 3 190
3 217 127 250
3 254 52 178
3 171 52 64
3 52 254 64
3 214 171 179
3 138 198 25
3 150 198 138
3 238 150 138
3 15 198 144
3 108 158 238
3 108 238 201
3 201 99 108
3 141 212 181
3 141 155 94
3 181 155 141
3 96 212 141
3 94 58 141
3 58 96 141
3 63 130 8
3 63 212 130
3 8 181 63
3 181 212 63
3 11 145 164
3 164 193 11
3 1 193 164
3 145 152 164
3 118 59 128
3 128 145 11
3 128 134 118
3 11 134 128
3 125 152 192
3 192 7 125
3 125 7 1
3 1 164 125
3 125 164 152
3 192 152 40
3 40 152 93
3 40 93 136
3 136 170 40
3 40 170 192
3 59 152 166
3 166 152 145
3 166 128 59
3 145 128 166
3 98 66 21
3 21 176 98
3 21 65 176
3 98 167 223
3 167 170 223
3 9 170 218
3 218 245 9
3 9 245 66
3 42 245 91
3 42 91 176
3 176 65 42
3 65 21 42
3 243 69 123
3 69 134 123
3 123 33 243
3 0 58 94
3 0 119 58
3 94 155 161
3 161 0 94
3 227 0 161
3 6 134 146
3 146 0 227
3 6 146 208
3 70 196 243
3 243 33 70
3 11 193 213
3 213 55 119
3 213 10 55
3 98 176 60
3 32 111 55
3 55 10 32
3 39 111 32
3 176 39 32
3 32 60 176
3 16 250 8
3 16 73 250
3 36 234 131
3 159 168 237
3 237 252 159
3 237 168 46
3 74 168 159
3 221 168 74
3 74 95 221
3 177 95 74
3 31 229 49
3 49 14 31
3 80 229 252
3 80 47 5
3 252 47 80
3 80 49 229
3 25 15 4
3 190 3 97
3 97 44 190
3 97 4 44
3 25 4 97
3 253 217 222
3 201 238 30
3 211 127 233
3 127 217 233
3 35 113 133
3 133 229 35
3 35 229 67
3 92 254 178
3 81 220 26
3 26 220 135
3 135 248 77
3 109 248 135
3 135 220 109
3 224 179 171
3 171 64 224
3 15 144 224
3 249 15 224
3 224 64 249
3 214 179 224
3 224 144 214
3 207 180 242
3 242 209 207
3 209 89 207
3 238 138 23
3 23 30 238
3 3 30 23
3 23 138 25
3 25 97 23
3 23 97 3
3 214 144 240
3 240 144 198
3 240 198 150
3 156 214 240
3 240 150 156
3 158 108 13
3 180 207 13
3 67 18 241
3 241 35 67
3 241 18 116
3 98 223 124
3 124 66 98
3 124 9 66
3 27 21 66
3 27 42 21
3 66 245 27
3 245 42 27
3 121 134 6
3 121 123 134
3 119 0 197
3 0 146 197
3 197 146 134
3 197 134 11
3 11 213 197
3 197 213 119
3 227 161 216
3 161 90 216
3 6 208 188
3 188 208 45
3 98 60 56
3 56 167 98
3 56 193 167
3 56 213 193
3 199 73 204
3 73 16 204
3 132 131 234
3 132 17 104
3 132 234 17
3 104 199 132
3 199 131 132
3 5 47 230
3 230 70 5
3 196 70 230
3 46 112 2
3 2 237 46
3 252 237 2
3 2 47 252
3 159 113 41
3 41 74 159
3 41 113 177
3 177 74 41
3 14 49 140
3 49 80 140
3 140 80 5
3 12 14 140
3 62 15 249
3 62 4 15
3 44 4 62
3 26 135 235
3 77 142 235
3 235 135 77
3 250 86 37
3 37 86 222
3 37 217 250
3 222 217 37
3 99 86 29
3 29 108 99
3 250 73 29
3 29 86 250
3 17 108 29
3 104 17 29
3 29 73 104
3 185 86 99
3 185 99 201
3 201 30 185
3 3 244 185
3 185 30 3
3 116 18 195
3 154 253 222
3 154 195 253
3 217 253 101
3 101 233 217
3 253 195 101
3 143 142 129
3 177 113 157
3 113 35 157
3 157 35 129
3 129 142 157
3 77 177 157
3 157 142 77
3 220 81 57
3 178 109 57
3 109 220 57
3 57 92 178
3 254 92 57
3 57 81 254
3 158 13 183
3 209 158 183
3 183 89 209
3 183 207 89
3 183 13 207
3 88 108 17
3 88 13 108
3 180 13 88
3 88 234 180
3 17 234 88
3 20 18 67
3 20 67 31
3 31 226 20
3 182 216 90
3 182 90 211
3 211 233 182
3 45 208 182
3 208 216 182
3 31 14 202
3 202 226 31
3 12 45 202
3 202 14 12
3 45 182 202
3 170 9 54
3 9 124 54
3 19 90 161
3 19 85 90
3 19 161 155
3 19 155 71
3 71 85 19
3 211 90 139
3 90 85 139
3 139 127 211
3 71 127 139
3 139 85 71
3 255 208 146
3 255 216 208
3 255 146 227
3 227 216 255
3 6 188 115
3 115 121 6
3 33 123 115
3 123 121 115
3 107 70 33
3 33 115 107
3 107 115 188
3 5 70 107
3 12 140 107
3 107 140 5
3 184 45 12
3 184 188 45
3 12 107 184
3 184 107 188
3 10 213 239
3 213 56 239
3 239 56 60
3 239 32 10
3 60 32 239
3 191 204 16
3 8 130 191
3 191 16 8
3 191 130 236
3 203 131 199
3 199 204 203
3 36 131 203
3 204 191 203
3 236 36 203
3 203 191 236
3 53 230 47
3 53 112 48
3 48 165 53
3 53 165 196
3 196 230 53
3 151 235 186
3 26 235 151
3 222 86 174
3 86 185 174
3 174 154 222
3 116 195 34
3 195 154 34
3 34 154 244
3 34 244 190
3 34 241 116
3 190 241 34
3 233 101 206
3 206 182 233
3 105 143 129
3 129 35 105
3 35 241 105
3 228 235 142
3 142 143 228
3 228 143 186
3 162 101 195
3 162 195 18
3 18 20 162
3 162 206 101
3 24 182 226
3 226 202 24
3 24 202 182
3 79 124 223
3 79 54 124
3 79 223 170
3 170 54 79
3 47 2 160
3 160 53 47
3 160 2 112
3 112 53 160
3 44 62 231
3 231 153 44
3 231 151 186
3 186 153 231
3 190 44 219
3 44 153 219
3 219 241 190
3 219 105 241
3 143 105 219
3 186 143 219
3 219 153 186
3 244 154 172
3 154 174 172
3 172 185 244
3 172 174 185
3 186 235 126
3 126 228 186
3 235 228 126
3 206 162 75
3 226 182 75
3 182 206 75
3 75 20 226
3 75 162 20
3 247 62 249
3 247 231 62
3 151 231 247
3 43 247 249
3 151 247 43
3 249 64 43
3 43 64 254
3 26 151 43
3 43 81 26
3 254 81 43