ply
format ascii 1.0
comment https://github.com/mikedh/trimesh
element vertex 256
property float x
property float y
property float z
element face 508
property list uchar int vertex_indices
end_header
0.14042456 3.22355938 2.29550242
-0.94034719 1.01425755 3.56628680
-3.63732219 1.24022293 -1.13922596
1.80766606 1.89471877 -2.88967919
1.07167530 1.24058127 -3.46804476
-3.04905343 2.51818895 -0.75865155
-1.96589351 3.18105984 1.44804478
-0.64092952 0.58181745 3.70619297
2.61984611 2.97912669 0.72188091
0.00232937 0.13714717 3.79227352
0.01987427 1.70314109 3.44295955
-1.49675012 1.62250578 3.17793703
-2.25512362 3.33226371 -0.37961355
3.50180197 1.03021336 -1.60437500
-2.25032854 3.19915819 -0.96194953
1.21566761 0.51647598 -3.58492613
2.92823243 2.76685715 0.27089962
3.43255234 1.40901244 -1.47976196
-0.41197777 3.10004163 -2.41232491
0.68618155 3.82950068 1.06081951
-0.86685568 3.47990131 -1.76458168
0.70178086 0.61060810 3.69230103
3.00256658 -0.07837053 2.52707624
1.97590137 1.75990045 -2.86579490
-1.33666158 3.69480300 -0.91694063
1.71687305 1.16207731 -3.25561118
-0.17843264 0.56901240 -3.75396657
0.62686205 0.29441178 3.73787093
3.04284692 0.83407712 2.35953259
2.83050537 2.58347464 -1.19855917
2.05020833 2.01041698 -2.66874099
-2.20960927 3.07767940 -1.32396603
0.21768726 1.52818978 3.50874829
-2.67473745 2.87708759 0.88879800
0.45260179 2.91481543 -2.60093451
-1.34069729 2.02019739 -3.03748059
3.54669261 1.81639779 0.57128215
1.70121384 3.32827401 -1.45426059
-2.58979201 0.71671307 2.82671285
1.17659843 1.25369918 3.43392229
-1.33574057 -0.00804499 3.57969403
-2.51439238 1.27837098 -2.71101880
1.16117895 0.31406116 3.62195182
0.25585994 0.63184130 -3.74018931
0.67024577 1.63351071 -3.41548634
-1.67326438 3.67470670 -0.27176529
-3.59848261 0.50516742 -1.63353360
-3.47584271 1.58936107 -1.20829308
-3.98643064 0.55730361 0.10913884
-2.31466389 3.00217390 -1.31823313
2.67553043 0.40311450 2.81072617
2.97262359 1.61881804 2.06408644
0.37760597 0.17226440 -3.77500248
-3.73373175 1.39976442 -0.54177380
-0.25746194 0.17906108 3.78283191
0.29501745 2.18645024 3.18267751
-0.27701867 1.39029574 3.55494189
0.02033858 0.23971403 -3.78805733
0.78880358 2.54769993 2.85520697
-2.06674337 0.82869381 3.16265702
0.11577482 1.36429393 3.57202959
1.10180748 -3.72402763 -1.07836103
0.79427516 1.20755112 -3.54390335
2.47261405 3.01146412 1.00979590
0.44175410 0.44781405 -3.74864960
0.96610665 0.67605025 3.62957931
0.58267409 0.48535591 3.72715783
-1.04383314 2.87380600 -2.48844028
3.70768642 1.05792272 1.09600592
-3.24853253 1.66756725 1.60913610
-3.05138588 2.61041307 0.38693550
0.91654181 3.80262446 0.98930883
-0.10147798 -3.05604410 2.49034715
3.17527914 2.46243405 -0.35087147
-2.56905794 0.90387553 -2.79673934
-0.34217897 3.74123335 -1.42178023
-3.77539778 0.83513677 1.06210887
-1.00590861 0.72574598 -3.61085892
-0.56416744 -3.43652868 -1.94015908
-0.20868096 0.24896640 3.78208160
-2.70557308 2.66292000 -1.29523373
-0.03579682 0.34089956 -3.78088379
4.02205563 0.17987359 -0.04364659
2.31961918 2.04610419 2.43810678
2.18784213 0.14808884 3.18192220
0.71250290 3.86925983 0.90782630
2.14545584 2.88447523 -1.73775089
-3.91195989 0.73999298 -0.56639713
3.45467234 1.33201957 -1.49568450
3.53235364 0.36101267 -1.78943682
0.12597388 4.02555943 0.42246929
1.75300717 0.16600055 3.41314149
0.12698731 0.21359466 -3.78747058
-1.96938789 0.03832498 3.30948710
0.71569639 3.32052231 2.06864762
-1.71711147 0.58152515 -3.38856506
2.20228791 2.44619656 2.20200825
1.42712307 1.60443223 -3.21472764
0.21561487 0.84542042 3.70532036
2.28849339 2.69490767 -1.83710253
2.90223742 1.76473916 2.04789019
0.36886361 3.72169209 -1.45976985
4.02302361 0.09432587 -0.11604831
-2.61173987 -2.71250701 -1.37523270
3.49774861 1.99132514 -0.22378467
-0.79263389 1.92001295 -3.25718951
-1.37605608 0.06456260 -3.56643319
-2.60892940 3.08708310 0.05207307
3.23954511 1.54233015 -1.73195529
-0.61170280 0.02183621 -3.75110531
-3.33941340 -1.26152599 1.76011097
0.94101560 2.13298297 3.10190177
-3.84971070 0.96707755 -0.64378446
-2.37879753 1.66659594 -2.63434839
1.49245441 1.40730095 3.26843596
-2.58834743 2.94660497 0.91144717
0.18728156 3.05637288 -2.48537970
-3.37481260 0.17186865 2.06369352
-2.47911978 0.77633142 2.90075970
-0.04516872 2.36123228 3.08334422
2.15297842 0.63387638 3.15130925
-2.54350662 2.47920632 1.80657256
1.24450994 1.13227773 3.44927192
-2.65762568 2.41796684 1.73290396
-0.07153254 0.24936442 3.78672194
-0.94693643 0.79719317 3.61176872
-0.32525012 1.27272499 -3.58930779
1.13333988 3.88107634 -0.23653685
-1.91076827 1.23920083 3.13305449
-0.76164955 1.62823319 -3.39986205
2.83296204 2.74029064 0.82848430
3.54340577 1.91283810 0.19700527
3.58614421 1.83449638 -0.14306366
-2.48792958 2.12973881 -2.21999979
-1.97150886 2.43507147 2.39710760
-0.26952192 0.51077598 -3.75610328
-1.64638948 -1.55953741 3.14061475
0.08255640 -3.87686372 1.10055554
1.94820201 1.01223099 -3.18213153
0.60860920 3.99357867 0.29777002
-2.65791154 2.88553667 -0.90716332
1.08883214 3.24606490 2.02700686
-0.73472786 1.38864040 -3.49783111
-0.44909638 1.46720934 -3.51185298
1.43722415 0.37827843 -3.52655149
-1.63518810 1.29037130 3.25076008
-0.78540546 3.42306876 1.89245450
-3.81223178 0.35749662 1.17261589
0.37994179 -3.61869621 1.66903007
-3.96549964 0.18937285 0.63014364
2.80232024 0.32048082 -2.70736909
-0.07962561 0.84082842 -3.71134639
-1.57453108 0.35945565 3.47617126
0.27177781 1.53409648 -3.50340152
1.02099729 2.99760246 -2.36708188
0.95615077 3.70478034 1.24545825
0.55217135 -3.02114725 -2.47535753
-1.67186177 1.57403326 -3.12182093
3.08016491 0.68899882 -2.35743332
-2.93600488 1.39292240 -2.24486113
-3.72230840 1.24190068 -0.86362618
-0.04254250 3.67004418 1.60981643
-0.14329033 3.66122007 -1.61989558
2.56395912 2.43091941 1.83719540
-1.32987010 1.30914104 3.36508703
-3.60716391 1.40665901 1.05440211
-1.80604482 1.17699683 3.20724511
-0.33717975 0.56942576 3.74337149
-3.10325027 0.69548619 -2.32850552
-2.29637814 0.11728691 3.11487722
-0.28745696 0.17615631 3.78116369
0.64532411 0.09077983 -3.74454093
1.21974945 2.90001130 -2.38836050
-1.74168336 -2.93417096 -2.03879571
1.59064317 2.95368314 -2.12111950
1.61189365 -3.48909640 -1.19364309
1.15168822 1.01689541 3.50929809
-1.90714598 1.17273760 -3.15628362
0.15556256 0.16418174 -3.78901505
1.12297225 0.12320351 -3.64206100
3.92455101 0.25997052 -0.81028086
2.05390859 3.28075051 1.10003853
-1.07855320 3.88647699 -0.34621766
3.51727033 0.62178242 -1.75224793
-2.15277147 3.42428136 -0.04178930
1.82436442 2.69013023 -2.25725317
-0.22967817 1.37097335 -3.56515241
-3.58106351 -1.69327402 0.70060599
-2.22150183 3.29079413 0.72048688
-3.43142509 0.41613910 1.94643235
0.59942847 2.34548545 -3.04262447
2.90373731 2.69742370 0.72862375
-1.22690320 0.07246992 3.61351132
-0.40331790 1.37765431 3.54819798
-1.35730803 0.05653514 -3.57250977
0.42704391 3.35333419 -2.09257698
-3.34208655 1.93632078 1.09141994
-0.48993233 2.42363715 3.00622797
1.75912762 0.50916213 -3.37934113
3.46315765 2.05330038 -0.21363489
3.14616251 0.51455265 2.31772590
2.34466600 2.12829113 -2.35554481
-1.53419018 3.63102317 -0.86768973
3.43753266 2.05698562 0.44114846
3.13509154 2.49424338 0.46372658
3.03378201 0.68425268 2.41029859
0.20251569 3.88187933 -1.07182908
3.82884884 0.11138543 -1.16728401
-1.67388785 3.44859648 1.22074687
3.30821276 0.21915315 -2.15200901
-2.62467790 -2.20242023 -2.00569201
0.49725974 4.01999617 -0.11357614
2.34038639 2.89267182 1.48239183
-0.20399526 1.74003100 3.42244744
1.23268318 0.07496707 -3.61165857
0.61215937 -3.51015711 1.80566883
-0.61844331 3.75228953 1.30969024
1.23418069 3.66150975 -1.13606107
-0.78586024 -2.22075963 3.08599567
0.34429255 1.67506444 -3.43989730
-0.20339656 0.38010082 -3.77331233
-2.59862852 0.29475752 -2.88532352
1.57558739 3.24950314 -1.71363151
-0.23273659 0.40212524 3.76935959
1.18283522 0.42858124 -3.60470295
-3.25941920 -0.62083977 2.14949679
-0.96265036 3.67167950 -1.32601929
-0.49570784 3.63204193 1.61580265
-0.43057290 1.32325733 -3.56437230
-2.45489240 2.29653525 -2.10213876
-3.40358639 2.06485868 -0.60501319
0.47404814 1.15609157 -3.60927272
-2.18099308 -0.55999458 -3.14655256
0.21418032 3.88587332 -1.05752361
3.86399078 1.12908006 -0.13151528
-0.35246152 1.09912932 -3.63737845
3.43122911 1.56571567 1.33709431
-3.33549213 1.08656776 -1.86604178
2.53529286 1.62629139 -2.52427101
-0.08585399 1.52113652 3.51619554
1.64854336 0.15856773 -3.45845842
-0.32316211 2.65763211 -2.84801483
3.81439638 -1.28093922 -0.17338561
-3.16090226 2.10902143 1.27274334
1.11229742 2.80433488 -2.53155375
0.58504754 0.13131800 3.75316787
3.02281547 0.53391176 2.45523548
0.39092788 0.88899326 -3.68408489
-1.02271020 0.32220465 -3.65741229
0.43975568 0.61203104 -3.72813296
1.92446673 3.40999722 -0.95396304
-3.11993670 -1.65751886 1.82740235
-3.23312283 1.48740304 -1.78130281
0.81304783 3.46578193 -1.81128359
0.21552937 0.35559714 -3.77509212
-0.76501113 3.56909227 1.64664900
3 187 149 48
3 48 87 187
3 48 149 76
3 156 78 173
3 242 22 215
3 215 175 242
3 251 187 137
3 210 221 232
3 232 173 210
3 156 173 232
3 46 221 210
3 210 187 46
3 46 187 87
3 103 187 210
3 210 173 103
3 137 187 103
3 103 78 137
3 103 173 78
3 137 78 61
3 61 215 137
3 175 215 61
3 61 78 156
3 156 175 61
3 171 156 178
3 171 214 156
3 242 175 209
3 136 251 218
3 82 68 22
3 82 242 102
3 82 22 242
3 22 68 200
3 149 187 110
3 187 251 110
3 178 156 109
3 156 232 109
3 112 46 87
3 112 87 48
3 137 215 148
3 28 236 51
3 28 200 68
3 68 236 28
3 246 50 22
3 22 200 246
3 225 110 251
3 225 251 136
3 136 169 225
3 169 117 225
3 150 175 156
3 150 209 175
3 83 28 51
3 83 163 96
3 71 181 127
3 8 250 127
3 127 181 8
3 118 169 59
3 196 69 243
3 84 215 22
3 22 50 84
3 72 91 218
3 72 148 215
3 215 84 72
3 72 84 91
3 137 148 72
3 72 251 137
3 72 218 251
3 176 91 122
3 114 39 122
3 122 39 176
3 1 7 193
3 193 7 167
3 58 119 55
3 102 242 180
3 180 82 102
3 200 28 205
3 205 246 200
3 205 28 50
3 50 246 205
3 189 69 76
3 147 225 117
3 117 189 147
3 149 110 147
3 110 225 147
3 147 76 149
3 147 189 76
3 52 171 178
3 198 15 25
3 209 150 158
3 158 150 238
3 194 248 109
3 194 106 248
3 194 109 232
3 232 106 194
3 51 236 100
3 236 163 100
3 100 83 51
3 163 83 100
3 130 163 236
3 96 163 212
3 163 130 212
3 155 181 71
3 111 96 58
3 111 83 96
3 114 83 111
3 58 55 111
3 111 39 114
3 93 59 169
3 93 169 136
3 59 93 152
3 76 69 165
3 69 196 165
3 48 76 165
3 91 84 120
3 114 122 120
3 120 122 91
3 120 84 50
3 120 83 114
3 50 28 120
3 28 83 120
3 136 218 170
3 170 7 192
3 167 7 170
3 218 91 245
3 134 69 118
3 73 199 104
3 36 236 68
3 82 180 234
3 68 82 234
3 234 36 68
3 118 69 38
3 69 189 38
3 38 189 117
3 38 169 118
3 38 117 169
3 221 46 168
3 133 159 252
3 95 232 221
3 95 106 232
3 95 177 77
3 77 248 95
3 248 106 95
3 113 159 133
3 31 67 229
3 133 252 229
3 244 3 190
3 217 127 250
3 254 52 178
3 171 52 64
3 52 254 64
3 214 171 179
3 138 198 25
3 150 198 138
3 238 150 138
3 15 198 144
3 108 158 238
3 108 238 201
3 201 99 108
3 141 212 181
3 141 155 94
3 181 155 141
3 96 212 141
3 94 58 141
3 58 96 141
3 63 130 8
3 63 212 130
3 8 181 63
3 181 212 63
3 11 145 164
3 164 193 11
3 1 193 164
3 145 152 164
3 118 59 128
3 128 145 11
3 128 134 118
3 11 134 128
3 125 152 192
3 192 7 125
3 125 7 1
3 1 164 125
3 125 164 152
3 192 152 40
3 40 152 93
3 40 93 136
3 136 170 40
3 40 170 192
3 59 152 166
3 166 152 145
3 166 128 59
3 145 128 166
3 98 66 21
3 21 176 98
3 21 65 176
3 98 167 223
3 167 170 223
3 9 170 218
3 218 245 9
3 9 245 66
3 42 245 91
3 42 91 176
3 176 65 42
3 65 21 42
3 243 69 123
3 69 134 123
3 123 33 243
3 0 58 94
3 0 119 58
3 94 155 161
3 161 0 94
3 227 0 161
3 6 134 146
3 146 0 227
3 6 146 208
3 70 196 243
3 243 33 70
3 11 193 213
3 213 55 119
3 213 10 55
3 98 176 60
3 32 111 55
3 55 10 32
3 39 111 32
3 176 39 32
3 32 60 176
3 16 250 8
3 16 73 250
3 36 234 131
3 159 168 237
3 237 252 159
3 237 168 46
3 74 168 159
3 221 168 74
3 74 95 221
3 177 95 74
3 31 229 49
3 49 14 31
3 80 229 252
3 80 47 5
3 252 47 80
3 80 49 229
3 25 15 4
3 190 3 97
3 97 44 190
3 97 4 44
3 25 4 97
3 253 217 222
3 201 238 30
3 211 127 233
3 127 217 233
3 35 113 133
3 133 229 35
3 35 229 67
3 92 254 178
3 81 220 26
3 26 220 135
3 135 248 77
3 109 248 135
3 135 220 109
3 224 179 171
3 171 64 224
3 15 144 224
3 249 15 224
3 224 64 249
3 214 179 224
3 224 144 214
3 207 180 242
3 242 209 207
3 209 89 207
3 238 138 23
3 23 30 238
3 3 30 23
3 23 138 25
3 25 97 23
3 23 97 3
3 214 144 240
3 240 144 198
3 240 198 150
3 156 214 240
3 240 150 156
3 158 108 13
3 180 207 13
3 67 18 241
3 241 35 67
3 241 18 116
3 98 223 124
3 124 66 98
3 124 9 66
3 27 21 66
3 27 42 21
3 66 245 27
3 245 42 27
3 121 134 6
3 121 123 134
3 119 0 197
3 0 146 197
3 197 146 134
3 197 134 11
3 11 213 197
3 197 213 119
3 227 161 216
3 161 90 216
3 6 208 188
3 188 208 45
3 98 60 56
3 56 167 98
3 56 193 167
3 56 213 193
3 199 73 204
3 73 16 204
3 132 131 234
3 132 17 104
3 132 234 17
3 104 199 132
3 199 131 132
3 5 47 230
3 230 70 5
3 196 70 230
3 46 112 2
3 2 237 46
3 252 237 2
3 2 47 252
3 159 113 41
3 41 74 159
3 41 113 177
3 177 74 41
3 14 49 140
3 49 80 140
3 140 80 5
3 12 14 140
3 62 15 249
3 62 4 15
3 44 4 62
3 26 135 235
3 77 142 235
3 235 135 77
3 250 86 37
3 37 86 222
3 37 217 250
3 222 217 37
3 99 86 29
3 29 108 99
3 250 73 29
3 29 86 250
3 17 108 29
3 104 17 29
3 29 73 104
3 185 86 99
3 185 99 201
3 201 30 185
3 3 244 185
3 185 30 3
3 116 18 195
3 154 253 222
3 154 195 253
3 217 253 101
3 101 233 217
3 253 195 101
3 143 142 129
3 177 113 157
3 113 35 157
3 157 35 129
3 129 142 157
3 77 177 157
3 157 142 77
3 220 81 57
3 178 109 57
3 109 220 57
3 57 92 178
3 254 92 57
3 57 81 254
3 158 13 183
3 209 158 183
3 183 89 209
3 183 207 89
3 183 13 207
3 88 108 17
3 88 13 108
3 180 13 88
3 88 234 180
3 17 234 88
3 20 18 67
3 20 67 31
3 31 226 20
3 182 216 90
3 182 90 211
3 211 233 182
3 45 208 182
3 208 216 182
3 31 14 202
3 202 226 31
3 12 45 202
3 202 14 12
3 45 182 202
3 170 9 54
3 9 124 54
3 19 90 161
3 19 85 90
3 19 161 155
3 19 155 71
3 71 85 19
3 211 90 139
3 90 85 139
3 139 127 211
3 71 127 139
3 139 85 71
3 255 208 146
3 255 216 208
3 255 146 227
3 227 216 255
3 6 188 115
3 115 121 6
3 33 123 115
3 123 121 115
3 107 70 33
3 33 115 107
3 107 115 188
3 5 70 107
3 12 140 107
3 107 140 5
3 184 45 12
3 184 188 45
3 12 107 184
3 184 107 188
3 10 213 239
3 213 56 239
3 239 56 60
3 239 32 10
3 60 32 239
3 191 204 16
3 8 130 191
3 191 16 8
3 191 130 236
3 203 131 199
3 199 204 203
3 36 131 203
3 204 191 203
3 236 36 203
3 203 191 236
3 53 230 47
3 53 112 48
3 48 165 53
3 53 165 196
3 196 230 53
3 151 235 186
3 26 235 151
3 222 86 174
3 86 185 174
3 174 154 222
3 116 195 34
3 195 154 34
3 34 154 244
3 34 244 190
3 34 241 116
3 190 241 34
3 233 101 206
3 206 182 233
3 105 143 129
3 129 35 105
3 35 241 105
3 228 235 142
3 142 143 228
3 228 143 186
3 162 101 195
3 162 195 18
3 18 20 162
3 162 206 101
3 24 182 226
3 226 202 24
3 24 202 182
3 79 124 223
3 79 54 124
3 79 223 170
3 170 54 79
3 47 2 160
3 160 53 47
3 160 2 112
3 112 53 160
3 44 62 231
3 231 153 44
3 231 151 186
3 186 153 231
3 190 44 219
3 44 153 219
3 219 241 190
3 219 105 241
3 143 105 219
3 186 143 219
3 219 153 186
3 244 154 172
3 154 174 172
3 172 185 244
3 172 174 185
3 186 235 126
3 126 228 186
3 235 228 126
3 206 162 75
3 226 182 75
3 182 206 75
3 75 20 226
3 75 162 20
3 247 62 249
3 247 231 62
3 151 231 247
3 43 247 249
3 151 247 43
3 249 64 43
3 43 64 254
3 26 151 43
3 43 81 26
3 254 81 43