ply
format ascii 1.0
comment https://github.com/mikedh/trimesh
element vertex 256
property float x
property float y
property float z
element face 508
property list uchar int vertex_indices
end_header
0.05994297 1.93298268 1.18126988
-0.40140560 0.60819173 1.83521783
-1.55266213 0.74369025 -0.58624780
0.77163762 1.13615358 -1.48703432
0.45746559 0.74390507 -1.78466225
-1.30154800 1.51001275 -0.39040348
-0.83918011 1.90749824 0.74516660
-0.27359331 0.34888238 1.90721381
1.11833262 1.78641045 0.37148127
0.00099434 0.08223926 1.95151103
0.00848372 1.02127552 1.77175343
-0.63891709 0.97292316 1.63537240
-0.96264362 1.99816644 -0.19534984
1.49481261 0.61775959 -0.82561439
-0.96059674 1.91835082 -0.49502105
0.51893145 0.30970088 -1.84480965
1.24997330 1.65912461 0.13940546
1.46525216 0.84490353 -0.76148826
-0.17586076 1.85891628 -1.24138689
0.29291004 2.29633069 0.54589969
-0.37003431 2.08669615 -0.90805703
0.29956889 0.36614648 1.90006495
1.28170431 -0.04699429 1.30043817
0.84345216 1.05531085 -1.47474349
-0.57058012 2.21556044 -0.47185934
0.73288083 0.69683081 -1.67534363
-0.07616746 0.34120393 -1.93179822
0.26758832 0.17654178 1.92351532
1.29889882 0.50014800 1.21421981
1.20825660 1.54916084 -0.61678082
0.87517154 1.20553112 -1.37333918
-0.94321495 1.84550691 -0.68131542
0.09292407 0.91636729 1.80560839
-1.14176404 1.72522354 0.45737711
0.19320193 1.74784672 -1.33844566
-0.57230282 1.21139586 -1.56309319
1.51397514 1.08918905 0.29398286
0.72619641 1.99577403 -0.74836522
-1.10550344 0.42977151 1.45463181
0.50225407 0.75177109 1.76710284
-0.57018703 -0.00482411 1.84211719
-1.07331753 0.76656538 -1.39509535
0.49567193 0.18832438 1.86386311
0.10921882 0.37887883 -1.92470837
0.28610754 0.97952223 -1.75761569
-0.71426564 2.20350981 -0.13985093
-1.53608274 0.30291981 -0.84061944
-1.48373139 0.95304823 -0.62178987
-1.70168591 0.33418283 0.05616305
-0.98805958 1.80023062 -0.67836523
1.14210248 0.24172452 1.44640493
1.26892257 0.97071189 1.06218266
0.16118850 0.10329702 -1.94262326
-1.59381652 0.83935803 -0.27879781
-0.10990267 0.10737261 1.94665229
0.12593396 1.31108820 1.63781178
-0.11825083 0.83368021 1.82937968
0.00868192 0.14374268 -1.94934130
0.33671623 1.52770877 1.46929491
-0.88222986 0.49691990 1.62750912
0.04942075 0.81808847 1.83817315
0.47032809 -2.23308468 -0.55492663
0.33905190 0.72409880 -1.82369924
1.05548370 1.80580151 0.51964283
0.18857139 0.26852825 -1.92906213
0.41240153 0.40538836 1.86778831
0.24872583 0.29103994 1.91800237
-0.44558063 1.72325575 -1.28055608
1.58269846 0.63437521 0.56400669
-1.38669968 0.99994397 0.82806444
-1.30254376 1.56531417 0.19911774
0.39124382 2.28021479 0.50910020
-0.04331786 -1.83253348 1.28153729
1.35543001 1.47657967 -0.18055911
-1.09665263 0.54200202 -1.43920732
-0.14606579 2.24340200 -0.73165077
-1.61160243 0.50078338 0.54656321
-0.42939174 0.43518803 -1.85815477
-0.24082591 -2.06068826 -0.99840951
-0.08907955 0.14929080 1.94626629
-1.15492678 1.59679961 -0.66652966
-0.01528057 0.20441782 -1.94564986
1.71689308 0.10785982 -0.02246062
0.99017477 1.22693074 1.25465429
0.93392318 0.08880034 1.63742304
0.30414581 2.32017207 0.46716914
0.91582978 1.72965360 -0.89424986
-1.66989660 0.44373113 -0.29146901
1.47469449 0.79873532 -0.76968205
1.50785422 0.21647848 -0.92084754
0.05377441 2.41389585 0.21740349
0.74830544 0.09954096 1.75640893
0.05420702 0.12808041 -1.94903934
-0.84067178 0.02298128 1.70306826
0.30550900 1.99112582 1.06452990
-0.73298264 0.34870711 -1.74376190
0.94008970 1.46684301 1.13315761
0.60919541 0.96208555 -1.65430486
0.09203943 0.50694990 1.90676475
0.97688818 1.61598086 -0.94537640
1.23887682 1.05821228 1.05384815
0.15745665 2.23168421 -0.75120026
1.71730638 0.05656179 -0.05971868
-1.11487222 -1.62653410 -0.70769733
1.49308240 1.19408286 -0.11516000
-0.33835128 1.15132105 -1.67615581
-0.58739650 0.03871447 -1.83529317
-1.11367249 1.85114574 0.02679690
1.38286316 0.92484647 -0.89126742
-0.26111731 0.01309392 -1.93032575
-1.42549396 -0.75646442 0.90575635
0.40169093 1.27902687 1.59624445
-1.64332426 0.57990068 -0.33129269
-1.01543629 0.99936146 -1.35564065
0.63708335 0.84387726 1.68194330
-1.10488677 1.76690912 0.46903241
0.07994480 1.83273053 -1.27898097
-1.44060481 0.10305972 1.06198061
-1.05826080 0.46552122 1.49273634
-0.01928115 1.41589487 1.58669472
0.91904092 0.38009912 1.62166965
-1.08574557 1.48663723 0.92966563
0.53124338 0.67896169 1.77500176
-1.13445950 1.44991529 0.89175564
-0.03053506 0.14952947 1.94865417
-0.40421835 0.47803080 1.85862291
-0.13883938 0.76317978 -1.84706438
0.48378828 2.32725763 -0.12172230
-0.81564885 0.74307728 1.61227572
-0.32512501 0.97635752 -1.74957538
1.20930517 1.64319432 0.42633957
1.51257217 1.14701879 0.10137928
1.53081584 1.10004175 -0.07362083
-1.06202137 1.27708161 -1.14241600
-0.84157711 1.46017194 1.23355603
-0.11505071 0.30628291 -1.93289781
-0.70279354 -0.93516469 1.61616623
0.03524082 -2.32473159 0.56634796
0.83162814 0.60697663 -1.63753080
0.25979674 2.39471889 0.15323301
-1.13458157 1.73029006 -0.46682793
0.46478933 1.94647801 1.04310143
-0.31363297 0.83268756 -1.79999042
-0.19170558 0.87980080 -1.80720615
0.61350727 0.22683178 -1.81476998
-0.69801199 0.77376127 1.67284715
-0.33526570 2.05261707 0.97386062
-1.62732565 0.21437012 0.60343033
0.16218559 -2.16992354 0.85888600
-1.69275117 0.11355598 0.32427311
1.19622517 0.19217388 -1.39321721
-0.03398975 0.50419635 -1.90986574
-0.67211938 0.21554483 1.78884423
0.11601368 0.91990924 -1.80285692
0.43583268 1.79748940 -1.21810472
0.40815166 2.22154331 0.64091516
0.23570515 -1.81160784 -1.27382362
-0.71366692 0.94385701 -1.60649490
1.31482863 0.41315287 -1.21313953
-1.25329113 0.83525527 -1.15520966
-1.58894014 0.74469626 -0.44442365
-0.01816010 2.20071387 0.82841456
-0.06116628 2.19542265 -0.83360130
1.09447610 1.45768213 0.94542420
-0.56768107 0.78501642 1.73168015
-1.53978848 0.84349233 0.54259729
-0.77094561 0.70577717 1.65045428
-0.14393178 0.34145179 1.92634594
-1.32468307 0.41704297 -1.19825327
-0.98025393 0.07033020 1.60292161
-0.12270662 0.10563079 1.94579387
0.27546921 0.05443543 -1.92694783
0.52067393 1.73896956 -1.22905481
-0.74347162 -1.75945318 -1.04916811
0.67899716 1.77115357 -1.09153199
0.68806833 -2.09221005 -0.61425096
0.49162066 0.60977358 1.80589139
-0.81410259 0.70322311 -1.62422955
0.06640492 0.09845032 -1.94983423
0.47936270 0.07387804 -1.87421143
1.67527139 0.15588933 -0.41697204
0.87675112 1.96727693 0.56608188
-0.46040156 2.33049631 -0.17816426
1.50141561 0.37284708 -0.90171003
-0.91895258 2.05334425 -0.02150485
0.77876562 1.61311603 -1.16158676
-0.09804262 0.82209367 -1.83463407
-1.52864707 -1.01535881 0.36053315
-0.94829148 1.97329950 0.37076390
-1.46477091 0.24953464 1.00163770
0.25587776 1.40645242 -1.56574023
1.23951709 1.61748946 0.37495115
-0.52372766 0.04345603 1.85951960
-0.17216414 0.82609987 1.82590926
-0.57939351 0.03390086 -1.83842027
0.18229204 2.01080132 -1.07684398
-1.42663503 1.16110003 0.56164670
-0.20913720 1.45331538 1.54701054
0.75091809 0.30531517 -1.73901534
1.47831666 1.23124588 -0.10993692
1.34300101 0.30854756 1.19270611
1.00086653 1.27621353 -1.21216774
-0.65489906 2.17731524 -0.44651476
1.46737802 1.23345578 0.22701582
1.33827519 1.49565399 0.23863457
1.29502916 0.41030690 1.24034417
0.08644778 2.32773924 -0.55156523
1.63441908 0.06679142 -0.60068655
-0.71453178 2.06792450 0.62819862
1.41217530 0.13141350 -1.10742784
-1.12039506 -1.32066453 -1.03213274
0.21226504 2.41055989 -0.05844649
0.99903977 1.73456860 0.76284158
-0.08707936 1.04339623 1.76119792
0.52619493 0.04495343 -1.85856628
0.26131222 -2.10483885 0.92920059
-0.26399460 2.25003171 0.67396909
0.52683419 2.19559622 -0.58461910
-0.33545983 -1.33166158 1.58805907
0.14696802 1.00443959 -1.77017760
-0.08682380 0.22792454 -1.94175351
-1.10927534 0.17674910 -1.48479295
0.67257029 1.94853973 -0.88183796
-0.09934817 0.24113132 1.93971956
0.50491637 0.25699547 -1.85498691
-1.39134693 -0.37228185 1.10613501
-0.41092613 2.20169449 -0.68237197
-0.21160260 2.17792606 0.83149505
-0.18379846 0.79348111 -1.83423269
-1.04791892 1.37709975 -1.08176446
-1.45288742 1.23817682 -0.31134093
0.20235671 0.69324142 -1.85733843
-0.93099952 -0.33579648 -1.61922193
0.09142706 2.33013415 -0.54420358
1.64942002 0.67704421 -0.06767800
-0.15045509 0.65908450 -1.87180173
1.46468735 0.93886942 0.68807119
-1.42382002 0.65155208 -0.96026856
1.08223939 0.97519320 -1.29899454
-0.03664845 0.91213793 1.80944085
0.70371300 0.09508392 -1.77972925
-0.13794807 1.59362876 -1.46559370
1.62824976 -0.76810539 -0.08922455
-1.34929287 1.26465857 0.65495610
0.47480589 1.68159795 -1.30274224
0.24973901 0.07874384 1.93138719
1.29034793 0.32015610 1.26346874
0.16687521 0.53307801 -1.89583695
-0.43656385 0.19320755 -1.88211119
0.18771832 0.36699975 -1.91850424
0.82149625 2.04477882 -0.49091116
-1.33180606 -0.99391854 0.94038463
-1.38012171 0.89190984 -0.91666174
0.34706539 2.07822967 -0.93208992
0.09200292 0.21323112 -1.94266951
-0.32655996 2.14017892 0.84736866
3 187 149 48
3 48 87 187
3 48 149 76
3 156 78 173
3 242 22 215
3 215 175 242
3 251 187 137
3 210 221 232
3 232 173 210
3 156 173 232
3 46 221 210
3 210 187 46
3 46 187 87
3 103 187 210
3 210 173 103
3 137 187 103
3 103 78 137
3 103 173 78
3 137 78 61
3 61 215 137
3 175 215 61
3 61 78 156
3 156 175 61
3 171 156 178
3 171 214 156
3 242 175 209
3 136 251 218
3 82 68 22
3 82 242 102
3 82 22 242
3 22 68 200
3 149 187 110
3 187 251 110
3 178 156 109
3 156 232 109
3 112 46 87
3 112 87 48
3 137 215 148
3 28 236 51
3 28 200 68
3 68 236 28
3 246 50 22
3 22 200 246
3 225 110 251
3 225 251 136
3 136 169 225
3 169 117 225
3 150 175 156
3 150 209 175
3 83 28 51
3 83 163 96
3 71 181 127
3 8 250 127
3 127 181 8
3 118 169 59
3 196 69 243
3 84 215 22
3 22 50 84
3 72 91 218
3 72 148 215
3 215 84 72
3 72 84 91
3 137 148 72
3 72 251 137
3 72 218 251
3 176 91 122
3 114 39 122
3 122 39 176
3 1 7 193
3 193 7 167
3 58 119 55
3 102 242 180
3 180 82 102
3 200 28 205
3 205 246 200
3 205 28 50
3 50 246 205
3 189 69 76
3 147 225 117
3 117 189 147
3 149 110 147
3 110 225 147
3 147 76 149
3 147 189 76
3 52 171 178
3 198 15 25
3 209 150 158
3 158 150 238
3 194 248 109
3 194 106 248
3 194 109 232
3 232 106 194
3 51 236 100
3 236 163 100
3 100 83 51
3 163 83 100
3 130 163 236
3 96 163 212
3 163 130 212
3 155 181 71
3 111 96 58
3 111 83 96
3 114 83 111
3 58 55 111
3 111 39 114
3 93 59 169
3 93 169 136
3 59 93 152
3 76 69 165
3 69 196 165
3 48 76 165
3 91 84 120
3 114 122 120
3 120 122 91
3 120 84 50
3 120 83 114
3 50 28 120
3 28 83 120
3 136 218 170
3 170 7 192
3 167 7 170
3 218 91 245
3 134 69 118
3 73 199 104
3 36 236 68
3 82 180 234
3 68 82 234
3 234 36 68
3 118 69 38
3 69 189 38
3 38 189 117
3 38 169 118
3 38 117 169
3 221 46 168
3 133 159 252
3 95 232 221
3 95 106 232
3 95 177 77
3 77 248 95
3 248 106 95
3 113 159 133
3 31 67 229
3 133 252 229
3 244 3 190
3 217 127 250
3 254 52 178
3 171 52 64
3 52 254 64
3 214 171 179
3 138 198 25
3 150 198 138
3 238 150 138
3 15 198 144
3 108 158 238
3 108 238 201
3 201 99 108
3 141 212 181
3 141 155 94
3 181 155 141
3 96 212 141
3 94 58 141
3 58 96 141
3 63 130 8
3 63 212 130
3 8 181 63
3 181 212 63
3 11 145 164
3 164 193 11
3 1 193 164
3 145 152 164
3 118 59 128
3 128 145 11
3 128 134 118
3 11 134 128
3 125 152 192
3 192 7 125
3 125 7 1
3 1 164 125
3 125 164 152
3 192 152 40
3 40 152 93
3 40 93 136
3 136 170 40
3 40 170 192
3 59 152 166
3 166 152 145
3 166 128 59
3 145 128 166
3 98 66 21
3 21 176 98
3 21 65 176
3 98 167 223
3 167 170 223
3 9 170 218
3 218 245 9
3 9 245 66
3 42 245 91
3 42 91 176
3 176 65 42
3 65 21 42
3 243 69 123
3 69 134 123
3 123 33 243
3 0 58 94
3 0 119 58
3 94 155 161
3 161 0 94
3 227 0 161
3 6 134 146
3 146 0 227
3 6 146 208
3 70 196 243
3 243 33 70
3 11 193 213
3 213 55 119
3 213 10 55
3 98 176 60
3 32 111 55
3 55 10 32
3 39 111 32
3 176 39 32
3 32 60 176
3 16 250 8
3 16 73 250
3 36 234 131
3 159 168 237
3 237 252 159
3 237 168 46
3 74 168 159
3 221 168 74
3 74 95 221
3 177 95 74
3 31 229 49
3 49 14 31
3 80 229 252
3 80 47 5
3 252 47 80
3 80 49 229
3 25 15 4
3 190 3 97
3 97 44 190
3 97 4 44
3 25 4 97
3 253 217 222
3 201 238 30
3 211 127 233
3 127 217 233
3 35 113 133
3 133 229 35
3 35 229 67
3 92 254 178
3 81 220 26
3 26 220 135
3 135 248 77
3 109 248 135
3 135 220 109
3 224 179 171
3 171 64 224
3 15 144 224
3 249 15 224
3 224 64 249
3 214 179 224
3 224 144 214
3 207 180 242
3 242 209 207
3 209 89 207
3 238 138 23
3 23 30 238
3 3 30 23
3 23 138 25
3 25 97 23
3 23 97 3
3 214 144 240
3 240 144 198
3 240 198 150
3 156 214 240
3 240 150 156
3 158 108 13
3 180 207 13
3 67 18 241
3 241 35 67
3 241 18 116
3 98 223 124
3 124 66 98
3 124 9 66
3 27 21 66
3 27 42 21
3 66 245 27
3 245 42 27
3 121 134 6
3 121 123 134
3 119 0 197
3 0 146 197
3 197 146 134
3 197 134 11
3 11 213 197
3 197 213 119
3 227 161 216
3 161 90 216
3 6 208 188
3 188 208 45
3 98 60 56
3 56 167 98
3 56 193 167
3 56 213 193
3 199 73 204
3 73 16 204
3 132 131 234
3 132 17 104
3 132 234 17
3 104 199 132
3 199 131 132
3 5 47 230
3 230 70 5
3 196 70 230
3 46 112 2
3 2 237 46
3 252 237 2
3 2 47 252
3 159 113 41
3 41 74 159
3 41 113 177
3 177 74 41
3 14 49 140
3 49 80 140
3 140 80 5
3 12 14 140
3 62 15 249
3 62 4 15
3 44 4 62
3 26 135 235
3 77 142 235
3 235 135 77
3 250 86 37
3 37 86 222
3 37 217 250
3 222 217 37
3 99 86 29
3 29 108 99
3 250 73 29
3 29 86 250
3 17 108 29
3 104 17 29
3 29 73 104
3 185 86 99
3 185 99 201
3 201 30 185
3 3 244 185
3 185 30 3
3 116 18 195
3 154 253 222
3 154 195 253
3 217 253 101
3 101 233 217
3 253 195 101
3 143 142 129
3 177 113 157
3 113 35 157
3 157 35 129
3 129 142 157
3 77 177 157
3 157 142 77
3 220 81 57
3 178 109 57
3 109 220 57
3 57 92 178
3 254 92 57
3 57 81 254
3 158 13 183
3 209 158 183
3 183 89 209
3 183 207 89
3 183 13 207
3 88 108 17
3 88 13 108
3 180 13 88
3 88 234 180
3 17 234 88
3 20 18 67
3 20 67 31
3 31 226 20
3 182 216 90
3 182 90 211
3 211 233 182
3 45 208 182
3 208 216 182
3 31 14 202
3 202 226 31
3 12 45 202
3 202 14 12
3 45 182 202
3 170 9 54
3 9 124 54
3 19 90 161
3 19 85 90
3 19 161 155
3 19 155 71
3 71 85 19
3 211 90 139
3 90 85 139
3 139 127 211
3 71 127 139
3 139 85 71
3 255 208 146
3 255 216 208
3 255 146 227
3 227 216 255
3 6 188 115
3 115 121 6
3 33 123 115
3 123 121 115
3 107 70 33
3 33 115 107
3 107 115 188
3 5 70 107
3 12 140 107
3 107 140 5
3 184 45 12
3 184 188 45
3 12 107 184
3 184 107 188
3 10 213 239
3 213 56 239
3 239 56 60
3 239 32 10
3 60 32 239
3 191 204 16
3 8 130 191
3 191 16 8
3 191 130 236
3 203 131 199
3 199 204 203
3 36 131 203
3 204 191 203
3 236 36 203
3 203 191 236
3 53 230 47
3 53 112 48
3 48 165 53
3 53 165 196
3 196 230 53
3 151 235 186
3 26 235 151
3 222 86 174
3 86 185 174
3 174 154 222
3 116 195 34
3 195 154 34
3 34 154 244
3 34 244 190
3 34 241 116
3 190 241 34
3 233 101 206
3 206 182 233
3 105 143 129
3 129 35 105
3 35 241 105
3 228 235 142
3 142 143 228
3 228 143 186
3 162 101 195
3 162 195 18
3 18 20 162
3 162 206 101
3 24 182 226
3 226 202 24
3 24 202 182
3 79 124 223
3 79 54 124
3 79 223 170
3 170 54 79
3 47 2 160
3 160 53 47
3 160 2 112
3 112 53 160
3 44 62 231
3 231 153 44
3 231 151 186
3 186 153 231
3 190 44 219
3 44 153 219
3 219 241 190
3 219 105 241
3 143 105 219
3 186 143 219
3 219 153 186
3 244 154 172
3 154 174 172
3 172 185 244
3 172 174 185
3 186 235 126
3 126 228 186
3 235 228 126
3 206 162 75
3 226 182 75
3 182 206 75
3 75 20 226
3 75 162 20
3 247 62 249
3 247 231 62
3 151 231 247
3 43 247 249
3 151 247 43
3 249 64 43
3 43 64 254
3 26 151 43
3 43 81 26
3 254 81 43