ply
format ascii 1.0
comment https://github.com/mikedh/trimesh
element vertex 256
property float x
property float y
property float z
element face 508
property list uchar int vertex_indices
end_header
0.06617892 3.63390946 1.31082618
-0.44316435 1.14336967 2.03649616
-1.71418762 1.39810002 -0.65054482
0.85191208 2.13591123 -1.65012550
0.50505632 1.39850390 -1.98039591
-1.43694973 2.83874750 -0.43322116
-0.92648107 3.58599997 0.82689303
-0.30205557 0.65588123 2.11638832
1.23467422 3.35836124 0.41222367
0.00109778 0.15460564 2.16554403
0.00936629 1.91994631 1.96607137
-0.70538443 1.82904625 1.81473255
-1.06278872 3.75645161 -0.21677493
1.65031993 1.16135669 -0.91616404
-1.06052887 3.60640240 -0.54931271
0.57291657 0.58222198 -2.04714012
1.38000965 3.11907029 0.15469481
1.61768425 1.58837593 -0.84500480
-0.19415580 3.49466848 -1.37753654
0.32338184 4.31698561 0.60577148
-0.40852946 3.92288327 -1.00764859
0.33073342 0.68833679 2.10845542
1.41504169 -0.08834688 1.44306433
0.93119752 1.98393095 -1.63648665
-0.62993830 4.16514111 -0.52361071
0.80912334 1.31000662 -1.85908771
-0.08409126 0.64144611 -2.14366913
0.29542589 0.33188960 2.13447785
1.43402493 0.94025284 1.34738994
1.33395314 2.91234398 -0.68442655
0.96621674 2.26633739 -1.52396071
-1.04133880 3.46945953 -0.75603896
0.10259108 1.72272420 2.00363922
-1.26054323 3.24333286 0.50754017
0.21330097 3.28586340 -1.48524034
-0.63184023 2.27736282 -1.73452616
1.67147589 2.04762030 0.32622555
0.80174357 3.75195408 -0.83044255
-1.22051036 0.80794871 1.61416912
0.55450416 1.41329157 1.96091068
-0.62950432 -0.00906909 2.04415226
-1.18497610 1.44110417 -1.54810309
0.54723734 0.35404029 2.06828332
0.12058099 0.71227300 -2.13580155
0.31587166 1.84145212 -1.95038307
-0.78857166 4.14248657 -0.15518914
-1.69588339 0.56947386 -0.93281478
-1.63808596 1.79168248 -0.68998498
-1.87871444 0.62824678 0.06232276
-1.09084868 3.38434243 -0.75276530
1.26091695 0.45442986 1.60504007
1.40093017 1.82488918 1.17867804
0.17795715 0.19419318 -2.15568137
-1.75962329 1.57795060 -0.30937511
-0.12133598 0.20185506 2.16015244
0.13903503 2.46477938 1.81743956
-0.13055262 1.56727660 2.03001785
0.00958511 0.27022898 -2.16313624
0.37174526 2.87201500 1.63044047
-0.97400939 0.93418425 1.80600703
0.05456205 1.53796482 2.03977561
0.51925695 -4.19808626 -0.61578846
0.37432390 1.36126912 -2.02371430
1.16528702 3.39481544 0.57663488
0.20818871 0.50481951 -2.14063287
0.45530418 0.76210958 2.07263899
0.27460110 0.54714036 2.12836027
-0.49193496 3.23963356 -1.42100167
1.74734867 1.19259334 0.62586439
-1.53095984 1.87984407 0.91888279
-1.43804908 2.94271135 0.22095606
0.43194541 4.28668833 0.56493598
-0.04782427 -3.44507027 1.42209041
1.49643719 2.77589512 -0.20036201
-1.21073878 1.01893640 -1.59705305
-0.16126120 4.21748209 -0.81189489
-1.77925944 0.94144738 0.60650778
-0.47406194 0.81813145 -2.06194878
-0.26587933 -3.87398934 -1.10791051
-0.09834661 0.28065914 2.15972400
-1.27507532 3.00190234 -0.73963165
-0.01687023 0.38429514 -2.15903997
1.89550376 0.20277099 -0.02492400
1.09318399 2.30656767 1.39225900
1.03108037 0.16694014 1.81700826
0.33578649 4.36180592 0.51840609
1.01110470 3.25166106 -0.99232715
-1.84361815 0.83419204 -0.32343602
1.62810886 1.50158203 -0.85409731
1.66471827 0.40696859 -1.02184188
0.05936864 4.53800201 0.24124731
0.82615262 0.18713197 1.94904399
0.05984624 0.24078467 -2.16280127
-0.92812794 0.04320364 1.88985312
0.33729151 3.74321556 1.18128276
-0.80923575 0.65555173 -1.93500984
1.03788841 2.75759077 1.25743711
0.67257077 1.80867207 -1.83574152
0.10161441 0.95304012 2.11589003
1.07851505 3.03796220 -1.04906094
1.36775875 1.98938560 1.16942942
0.17383707 4.19545317 -0.83358854
1.89595997 0.10633330 -0.06626835
-1.23085392 -3.05780172 -0.78531432
1.64840972 2.24481535 -0.12779023
-0.37355042 2.16442537 -1.85998893
-0.64850408 0.07278124 -2.03657985
-1.22952938 3.48006010 0.02973586
1.52672422 1.73866463 -0.98901761
-0.28828168 0.02461590 -2.14203501
-1.57378995 -1.42211473 1.00509560
0.44347936 2.40450573 1.77131331
-1.81428146 1.09018385 -0.36762738
-1.12107348 1.87874901 -1.50432122
0.70335996 1.58644640 1.86641121
-1.21982956 3.32169962 0.52047378
0.08826156 3.44544053 -1.41925383
-1.59047270 0.19374706 1.17845380
-1.16835308 0.87515628 1.65645289
-0.02128700 2.66181064 1.76071620
1.01464999 0.71456712 1.79952693
-1.19869709 2.79480267 1.03162718
0.58650935 1.27641356 1.96967590
-1.25247872 2.72576737 0.98955935
-0.03371166 0.28110781 2.16237378
-0.44626969 0.89867371 2.06246829
-0.15328301 1.43473935 -2.04964209
0.53411740 4.37512684 -0.13507225
-0.90050185 1.39694774 1.78910279
-0.35894820 1.83550274 -1.94146085
1.33511078 3.08912206 0.47309855
1.66992700 2.15633726 0.11249810
1.69006860 2.06802273 -0.08169523
-1.17250490 2.40084887 -1.26771104
-0.92912751 2.74504924 1.36884689
-0.12701958 0.57579637 -2.14488912
-0.77590609 -1.75806224 1.79341996
0.03890697 -4.37037754 0.62846243
0.91814345 1.14108527 -1.81712782
0.28682372 4.50195026 0.17003891
-1.25261354 3.25285769 -0.51802748
0.51314193 3.65928030 1.15750408
-0.34626061 1.56541049 -1.99740529
-0.21164896 1.65398097 -2.00541234
0.67733121 0.42643225 -2.01380587
-0.77062708 1.45463204 1.85631752
-0.37014380 3.85881615 1.08066928
-1.79661846 0.40300494 0.66961181
0.17905797 -4.07934666 0.95308471
-1.86885023 0.21347950 0.35983789
1.32067001 0.36127716 -1.54601896
-0.03752575 0.94786358 -2.11933112
-0.74204081 0.40521336 1.98503649
0.12808274 1.72938275 -2.00058603
0.48117292 3.37918901 -1.35170102
0.45061222 4.17638874 0.71120781
0.26022586 -3.40573096 -1.41353071
-0.78791058 1.77440333 -1.78268802
1.45161200 0.77670646 -1.34619117
-1.38367260 1.57023752 -1.28190780
-1.75423968 1.39999127 -0.49316600
-0.02004931 4.13723087 0.91927129
-0.06752948 4.12728357 -0.92502689
1.20833588 2.74036860 1.04911399
-0.62673765 1.47579110 1.92160296
-1.69997466 1.58572280 0.60210693
-0.85114807 1.32682526 1.83146870
-0.15890518 0.64191210 2.13761878
-1.46249163 0.78401965 -1.32967234
-1.08223104 0.13221721 1.77872276
-0.13547195 0.19858053 2.15919971
0.30412662 0.10233586 -2.13828659
0.57484031 3.26917481 -1.36385190
-0.82081592 -3.30768299 -1.16423619
0.74963409 3.32967901 -1.21124625
0.75964898 -3.93324876 -0.68161923
0.54276460 1.14634347 2.00395346
-0.89879471 1.32202387 -1.80236757
0.07331312 0.18508162 -2.16368318
0.52923143 0.13888699 -2.07976651
1.84955204 0.29306406 -0.46270365
0.96796066 3.69838095 0.62816715
-0.50829774 4.38121462 -0.19770451
1.65760982 0.70093364 -1.00060558
-1.01455247 3.86018300 -0.02386341
0.85978162 3.03257656 -1.28898430
-0.10824212 1.54549456 -2.03584838
-1.68767416 -1.90882325 0.40007478
-1.04694343 3.70970321 0.41142759
-1.61715293 0.46911249 1.11149287
0.28249708 2.64405918 -1.73746359
1.36846566 3.04079819 0.41607410
-0.57821167 0.08169515 2.06346321
-0.19007459 1.55302596 2.02616668
-0.63966858 0.06373190 -2.04004979
0.20125613 3.78020453 -1.19494736
-1.57504976 2.18280911 0.62324560
-0.23089401 2.73215938 1.71667957
0.82903701 0.57397705 -1.92974257
1.63210785 2.31467986 -0.12199429
1.48271513 0.58005381 1.32351661
1.10498798 2.39921689 -1.34511280
-0.72302908 4.09324265 -0.49548647
1.62003124 2.31883430 0.25191391
1.47749770 2.81175375 0.26480693
1.42975283 0.77135623 1.37637949
0.09544106 4.37603188 -0.61205840
1.80444980 0.12556449 -0.66656715
-0.78886539 3.88759327 0.69709659
1.55908573 0.24705075 -1.22888553
-1.23695123 -2.48278236 -1.14533246
0.23434725 4.53173065 -0.06485664
1.10297120 3.26090097 0.84650660
-0.09613834 1.96153212 1.95435810
0.58093566 0.08451017 -2.06240535
0.28849685 -3.95699048 1.03111112
-0.29145831 4.22994566 0.74788696
0.58164144 4.12760973 -0.64873749
-0.37035814 -2.50345612 1.76223028
0.16225728 1.88829565 -1.96432269
-0.09585619 0.42848659 -2.15471625
-1.22467470 0.33227935 -1.64763820
0.74253863 3.66315603 -0.97855395
-0.10968348 0.45331466 2.15245914
0.55744344 0.48313844 -2.05843353
-1.53609049 -0.69987100 1.22745097
-0.45367533 4.13907433 -0.75721145
-0.23361589 4.09439087 0.92268968
-0.20291926 1.49170434 -2.03540301
-1.15693521 2.58887792 -1.20040751
-1.60403323 2.32770967 -0.34548739
0.22340815 1.30325878 -2.06104279
-1.02785265 -0.63128036 -1.79681075
0.10093834 4.38053417 -0.60388941
1.82101130 1.27280891 -0.07510062
-0.16610713 1.23904550 -2.07709241
1.61706066 1.76502693 0.76353574
-1.57194185 1.22488487 -1.06558645
1.19482613 1.83331382 -1.44146240
-0.04046104 1.71477306 2.00789213
0.77692115 0.17875296 -1.97492182
-0.15229899 2.99594140 -1.62633336
1.79763865 -1.44399929 -0.09901030
-1.48966157 2.37749410 0.72678870
0.52420056 3.16131902 -1.44562113
0.27571967 0.14803442 2.14321303
1.42458439 0.60187721 1.40204036
0.18423545 1.00215960 -2.10376382
-0.48198017 0.36322042 -2.08853269
0.20724690 0.68994093 -2.12891698
0.90695757 3.84408045 -0.54475206
-1.47035551 -1.86851645 1.04352176
-1.52369761 1.67674541 -1.01719701
0.38317105 3.90696645 -1.03431726
0.10157411 0.40086371 -2.15573263
-0.36053243 4.02342796 0.94030422
3 187 149 48
3 48 87 187
3 48 149 76
3 156 78 173
3 242 22 215
3 215 175 242
3 251 187 137
3 210 221 232
3 232 173 210
3 156 173 232
3 46 221 210
3 210 187 46
3 46 187 87
3 103 187 210
3 210 173 103
3 137 187 103
3 103 78 137
3 103 173 78
3 137 78 61
3 61 215 137
3 175 215 61
3 61 78 156
3 156 175 61
3 171 156 178
3 171 214 156
3 242 175 209
3 136 251 218
3 82 68 22
3 82 242 102
3 82 22 242
3 22 68 200
3 149 187 110
3 187 251 110
3 178 156 109
3 156 232 109
3 112 46 87
3 112 87 48
3 137 215 148
3 28 236 51
3 28 200 68
3 68 236 28
3 246 50 22
3 22 200 246
3 225 110 251
3 225 251 136
3 136 169 225
3 169 117 225
3 150 175 156
3 150 209 175
3 83 28 51
3 83 163 96
3 71 181 127
3 8 250 127
3 127 181 8
3 118 169 59
3 196 69 243
3 84 215 22
3 22 50 84
3 72 91 218
3 72 148 215
3 215 84 72
3 72 84 91
3 137 148 72
3 72 251 137
3 72 218 251
3 176 91 122
3 114 39 122
3 122 39 176
3 1 7 193
3 193 7 167
3 58 119 55
3 102 242 180
3 180 82 102
3 200 28 205
3 205 246 200
3 205 28 50
3 50 246 205
3 189 69 76
3 147 225 117
3 117 189 147
3 149 110 147
3 110 225 147
3 147 76 149
3 147 189 76
3 52 171 178
3 198 15 25
3 209 150 158
3 158 150 238
3 194 248 109
3 194 106 248
3 194 109 232
3 232 106 194
3 51 236 100
3 236 163 100
3 100 83 51
3 163 83 100
3 130 163 236
3 96 163 212
3 163 130 212
3 155 181 71
3 111 96 58
3 111 83 96
3 114 83 111
3 58 55 111
3 111 39 114
3 93 59 169
3 93 169 136
3 59 93 152
3 76 69 165
3 69 196 165
3 48 76 165
3 91 84 120
3 114 122 120
3 120 122 91
3 120 84 50
3 120 83 114
3 50 28 120
3 28 83 120
3 136 218 170
3 170 7 192
3 167 7 170
3 218 91 245
3 134 69 118
3 73 199 104
3 36 236 68
3 82 180 234
3 68 82 234
3 234 36 68
3 118 69 38
3 69 189 38
3 38 189 117
3 38 169 118
3 38 117 169
3 221 46 168
3 133 159 252
3 95 232 221
3 95 106 232
3 95 177 77
3 77 248 95
3 248 106 95
3 113 159 133
3 31 67 229
3 133 252 229
3 244 3 190
3 217 127 250
3 254 52 178
3 171 52 64
3 52 254 64
3 214 171 179
3 138 198 25
3 150 198 138
3 238 150 138
3 15 198 144
3 108 158 238
3 108 238 201
3 201 99 108
3 141 212 181
3 141 155 94
3 181 155 141
3 96 212 141
3 94 58 141
3 58 96 141
3 63 130 8
3 63 212 130
3 8 181 63
3 181 212 63
3 11 145 164
3 164 193 11
3 1 193 164
3 145 152 164
3 118 59 128
3 128 145 11
3 128 134 118
3 11 134 128
3 125 152 192
3 192 7 125
3 125 7 1
3 1 164 125
3 125 164 152
3 192 152 40
3 40 152 93
3 40 93 136
3 136 170 40
3 40 170 192
3 59 152 166
3 166 152 145
3 166 128 59
3 145 128 166
3 98 66 21
3 21 176 98
3 21 65 176
3 98 167 223
3 167 170 223
3 9 170 218
3 218 245 9
3 9 245 66
3 42 245 91
3 42 91 176
3 176 65 42
3 65 21 42
3 243 69 123
3 69 134 123
3 123 33 243
3 0 58 94
3 0 119 58
3 94 155 161
3 161 0 94
3 227 0 161
3 6 134 146
3 146 0 227
3 6 146 208
3 70 196 243
3 243 33 70
3 11 193 213
3 213 55 119
3 213 10 55
3 98 176 60
3 32 111 55
3 55 10 32
3 39 111 32
3 176 39 32
3 32 60 176
3 16 250 8
3 16 73 250
3 36 234 131
3 159 168 237
3 237 252 159
3 237 168 46
3 74 168 159
3 221 168 74
3 74 95 221
3 177 95 74
3 31 229 49
3 49 14 31
3 80 229 252
3 80 47 5
3 252 47 80
3 80 49 229
3 25 15 4
3 190 3 97
3 97 44 190
3 97 4 44
3 25 4 97
3 253 217 222
3 201 238 30
3 211 127 233
3 127 217 233
3 35 113 133
3 133 229 35
3 35 229 67
3 92 254 178
3 81 220 26
3 26 220 135
3 135 248 77
3 109 248 135
3 135 220 109
3 224 179 171
3 171 64 224
3 15 144 224
3 249 15 224
3 224 64 249
3 214 179 224
3 224 144 214
3 207 180 242
3 242 209 207
3 209 89 207
3 238 138 23
3 23 30 238
3 3 30 23
3 23 138 25
3 25 97 23
3 23 97 3
3 214 144 240
3 240 144 198
3 240 198 150
3 156 214 240
3 240 150 156
3 158 108 13
3 180 207 13
3 67 18 241
3 241 35 67
3 241 18 116
3 98 223 124
3 124 66 98
3 124 9 66
3 27 21 66
3 27 42 21
3 66 245 27
3 245 42 27
3 121 134 6
3 121 123 134
3 119 0 197
3 0 146 197
3 197 146 134
3 197 134 11
3 11 213 197
3 197 213 119
3 227 161 216
3 161 90 216
3 6 208 188
3 188 208 45
3 98 60 56
3 56 167 98
3 56 193 167
3 56 213 193
3 199 73 204
3 73 16 204
3 132 131 234
3 132 17 104
3 132 234 17
3 104 199 132
3 199 131 132
3 5 47 230
3 230 70 5
3 196 70 230
3 46 112 2
3 2 237 46
3 252 237 2
3 2 47 252
3 159 113 41
3 41 74 159
3 41 113 177
3 177 74 41
3 14 49 140
3 49 80 140
3 140 80 5
3 12 14 140
3 62 15 249
3 62 4 15
3 44 4 62
3 26 135 235
3 77 142 235
3 235 135 77
3 250 86 37
3 37 86 222
3 37 217 250
3 222 217 37
3 99 86 29
3 29 108 99
3 250 73 29
3 29 86 250
3 17 108 29
3 104 17 29
3 29 73 104
3 185 86 99
3 185 99 201
3 201 30 185
3 3 244 185
3 185 30 3
3 116 18 195
3 154 253 222
3 154 195 253
3 217 253 101
3 101 233 217
3 253 195 101
3 143 142 129
3 177 113 157
3 113 35 157
3 157 35 129
3 129 142 157
3 77 177 157
3 157 142 77
3 220 81 57
3 178 109 57
3 109 220 57
3 57 92 178
3 254 92 57
3 57 81 254
3 158 13 183
3 209 158 183
3 183 89 209
3 183 207 89
3 183 13 207
3 88 108 17
3 88 13 108
3 180 13 88
3 88 234 180
3 17 234 88
3 20 18 67
3 20 67 31
3 31 226 20
3 182 216 90
3 182 90 211
3 211 233 182
3 45 208 182
3 208 216 182
3 31 14 202
3 202 226 31
3 12 45 202
3 202 14 12
3 45 182 202
3 170 9 54
3 9 124 54
3 19 90 161
3 19 85 90
3 19 161 155
3 19 155 71
3 71 85 19
3 211 90 139
3 90 85 139
3 139 127 211
3 71 127 139
3 139 85 71
3 255 208 146
3 255 216 208
3 255 146 227
3 227 216 255
3 6 188 115
3 115 121 6
3 33 123 115
3 123 121 115
3 107 70 33
3 33 115 107
3 107 115 188
3 5 70 107
3 12 140 107
3 107 140 5
3 184 45 12
3 184 188 45
3 12 107 184
3 184 107 188
3 10 213 239
3 213 56 239
3 239 56 60
3 239 32 10
3 60 32 239
3 191 204 16
3 8 130 191
3 191 16 8
3 191 130 236
3 203 131 199
3 199 204 203
3 36 131 203
3 204 191 203
3 236 36 203
3 203 191 236
3 53 230 47
3 53 112 48
3 48 165 53
3 53 165 196
3 196 230 53
3 151 235 186
3 26 235 151
3 222 86 174
3 86 185 174
3 174 154 222
3 116 195 34
3 195 154 34
3 34 154 244
3 34 244 190
3 34 241 116
3 190 241 34
3 233 101 206
3 206 182 233
3 105 143 129
3 129 35 105
3 35 241 105
3 228 235 142
3 142 143 228
3 228 143 186
3 162 101 195
3 162 195 18
3 18 20 162
3 162 206 101
3 24 182 226
3 226 202 24
3 24 202 182
3 79 124 223
3 79 54 124
3 79 223 170
3 170 54 79
3 47 2 160
3 160 53 47
3 160 2 112
3 112 53 160
3 44 62 231
3 231 153 44
3 231 151 186
3 186 153 231
3 190 44 219
3 44 153 219
3 219 241 190
3 219 105 241
3 143 105 219
3 186 143 219
3 219 153 186
3 244 154 172
3 154 174 172
3 172 185 244
3 172 174 185
3 186 235 126
3 126 228 186
3 235 228 126
3 206 162 75
3 226 182 75
3 182 206 75
3 75 20 226
3 75 162 20
3 247 62 249
3 247 231 62
3 151 231 247
3 43 247 249
3 151 247 43
3 249 64 43
3 43 64 254
3 26 151 43
3 43 81 26
3 254 81 43