ply
format ascii 1.0
comment https://github.com/mikedh/trimesh
element vertex 256
property float x
property float y
property float z
element face 508
property list uchar int vertex_indices
end_header
0.15949096 0.80236214 1.22975552
-1.06802452 0.25245443 1.91054499
-4.13118601 0.30869851 -0.61031055
2.05310512 0.47160619 -1.54807007
1.21718395 0.30878770 -1.85791433
-3.46304393 0.62679148 -0.40642774
-2.23281622 0.79178375 0.77575219
-0.72795284 0.14481765 1.98549604
2.97556043 0.74152142 0.38672885
0.00264564 0.03413671 2.03161144
0.02257274 0.42392144 1.84447563
-1.69997406 0.40385085 1.70249677
-2.56131721 0.82941926 -0.20336804
3.97726536 0.25642592 -0.85950202
-2.55587077 0.79628855 -0.51533931
1.38072705 0.12855379 -1.92053056
3.32581854 0.68868637 0.14512740
3.89861345 0.35071117 -0.79274380
-0.46791479 0.77161789 -1.29234004
0.77934909 0.95318431 0.56830633
-0.98455459 0.86616713 -0.94532853
0.79706639 0.15198380 1.97805381
3.41024542 -0.01950687 1.35381508
2.24418283 0.43804917 -1.53527474
-1.51814914 0.91965729 -0.49122697
1.94998455 0.28924760 -1.74410868
-0.20265965 0.14163040 -2.01108956
0.71197534 0.07328076 2.00246668
3.45599508 0.20760651 1.26405787
3.21482253 0.64304143 -0.64209676
2.32857919 0.50040412 -1.42970824
-2.50962305 0.76605177 -0.70928019
0.24724415 0.38037506 1.87972021
-3.03790474 0.71612334 0.47615030
0.51405460 0.72551399 -1.39338267
-1.52273285 0.50283849 -1.62725091
4.02825117 0.45211166 0.30604947
1.93219924 0.82842618 -0.77908212
-2.94142580 0.17839393 1.51433754
1.33635318 0.31205279 1.83963418
-1.51710320 -0.00200244 1.91772759
-2.85578847 0.31819376 -1.45235753
1.31884003 0.07817160 1.94036603
0.29059979 0.15726888 -2.00370860
0.76124960 0.40659004 -1.82975757
-1.90045488 0.91465527 -0.14559115
-4.08707333 0.12573902 -0.87512296
-3.94778132 0.39560094 -0.64731145
-4.52769518 0.13871601 0.05846828
-2.62894154 0.74725807 -0.70620900
3.03880548 0.10033748 1.50577307
3.37623692 0.40293294 1.10578036
0.42887610 0.04287758 -2.02235889
-4.24068594 0.34840930 -0.29024118
-0.29241928 0.04456931 2.02655339
0.33507395 0.54421979 1.70503628
-0.31463137 0.34605247 1.90446723
0.02310009 0.05966618 -2.02935266
0.89590484 0.63413692 1.52960253
-2.34735918 0.20626657 1.69431078
0.13149436 0.33958048 1.91362154
1.25140738 -0.92693150 -0.57770377
0.90211934 0.30056632 -1.89855361
2.80833769 0.74957043 0.54097176
0.50173408 0.11146344 -2.00824118
1.09728158 0.16827272 1.94445229
0.66178775 0.12080783 1.99672747
-1.18556154 0.71530652 -1.33311689
4.21110439 0.26332292 0.58715653
-3.68960786 0.41506693 0.86205262
-3.46569324 0.64974654 0.20729057
1.04098690 0.94649470 0.52999640
-0.11525634 -0.76066667 1.33413839
3.60640836 0.61291373 -0.18797022
-2.91787624 0.22497971 -1.49828005
-0.38863891 0.93121409 -0.76168162
-4.28800917 0.20787026 0.56899709
-1.14248765 0.18064228 -1.93442333
-0.64076829 -0.85537142 -1.03938949
-0.23701499 0.06196914 2.02615142
-3.07292700 0.66281581 -0.69388759
-0.04065720 0.08485182 -2.02550983
4.56815720 0.04477155 -0.02338252
2.63456941 0.50928688 1.30615199
2.48490024 0.03686015 1.70463169
0.80924428 0.96308064 0.48634425
2.43675900 0.71796221 -0.93095464
-4.44311333 0.18418843 -0.30343246
3.92373657 0.33154720 -0.80127394
4.01196527 0.08985809 -0.95864403
0.14307821 1.00198448 0.22632688
1.99102497 0.04131847 1.82850134
0.14422923 0.05316492 -2.02903843
-2.23678517 0.00953930 1.77297127
0.81287140 0.82649678 1.10822392
-1.95025539 0.14474489 -1.81533515
2.50130749 0.60887212 1.17966843
1.62089324 0.39935225 -1.72220635
0.24489036 0.21042991 1.98502851
2.59921765 0.67077774 -0.98417968
3.29629374 0.43925354 1.09710360
0.41894674 0.92635018 -0.78203356
4.56925678 0.02347824 -0.06216985
-2.96635365 -0.67515832 -0.73674500
3.97266173 0.49565208 -0.11988679
-0.90025520 0.47790205 -1.74495411
-1.56289268 0.01607000 -1.91062343
-2.96316147 0.76839238 0.02789679
3.67939997 0.38389468 -0.92784977
-0.69475788 0.00543516 -2.00955653
-3.79282832 -0.31400093 0.94293344
1.06878364 0.53091151 1.66176283
-4.37241220 0.24071106 -0.34489071
-2.70178318 0.41482514 -1.41128337
1.69509506 0.35028514 1.75097919
-2.93978500 0.73342663 0.48828402
0.21271007 0.76074845 -1.33147717
-3.83303380 0.04277908 1.10556984
-2.81572676 0.19323328 1.55400622
-0.05130158 0.58772403 1.65182114
2.44530296 0.15777542 1.68823159
-2.88885570 0.61708850 0.96782404
1.41348553 0.28183031 1.84785724
-3.01846957 0.60184562 0.92835802
-0.08124500 0.06206821 2.02863741
-1.07550848 0.19842589 1.93491077
-0.36941153 0.31678843 -1.92287779
1.28722107 0.96602184 -0.12671843
-2.17020631 0.30844408 1.67845213
-0.86506391 0.40527642 -1.82138729
3.21761250 0.68207377 0.44383880
4.02451801 0.47611621 0.10554042
4.07305956 0.45661649 -0.07664262
-2.82573271 0.53010404 -1.18930686
-2.23919415 0.60610300 1.28418779
-0.30611676 0.12713502 -2.01223421
-1.86993098 -0.38817766 1.68250227
0.09376565 -0.96497327 0.58959389
2.21272254 0.25195003 -1.70474386
0.69124418 0.99402434 0.15952252
-3.01879430 0.71822637 -0.48598903
1.23667037 0.80796391 1.08591592
-0.83448684 0.34564042 -1.87387168
-0.51007324 0.36519668 -1.88138354
1.63236594 0.09415564 -1.88925791
-1.85720873 0.32118070 1.74150980
-0.89204532 0.85202116 1.01383305
-4.32984447 0.08898292 0.62819833
0.43152907 -0.90071398 0.89413923
-4.50392246 0.04713598 0.33758301
3.18281031 0.07976949 -1.45040226
-0.09043693 0.20928694 -1.98825681
-1.78831577 0.08947054 1.86226785
0.30867895 0.38184530 -1.87685585
1.15962505 0.74612021 -1.26810229
1.08597386 0.92214078 0.66722172
0.62714344 -0.75198060 -1.32610810
-1.89886189 0.39178577 -1.67243397
3.49837995 0.17149569 -1.26293325
-3.33464622 0.34670624 -1.20262563
-4.22771120 0.30911610 -0.46266514
-0.04831878 0.91349471 0.86241710
-0.16274583 0.91129839 -0.86781675
2.91208529 0.60506958 0.98422945
-1.51043558 0.32585260 1.80275750
-4.09693289 0.35012537 0.56486839
-2.05126381 0.29296115 1.71819770
-0.38296095 0.14173329 2.00541353
-3.52459979 0.17311044 -1.24743605
-2.60817289 0.02919338 1.66871405
-0.32648695 0.04384630 2.02565956
0.73294413 0.02259561 -2.00604010
1.38536310 0.72182918 -1.27950168
-1.97816360 -0.73033172 -1.09223163
1.80661559 0.73518842 -1.13633430
1.83075142 -0.86845577 -0.63946307
1.30806088 0.25311103 1.88001478
-2.16609216 0.29190099 -1.69089651
0.17668435 0.04086576 -2.02986574
1.27544582 0.03066605 -1.95113909
4.45741415 0.06470814 -0.43408680
2.33278179 0.81659728 0.58931690
-1.22499573 0.96736604 -0.18547708
3.99483395 0.15476516 -0.93872106
-2.44506788 0.85232300 -0.02238753
2.07207084 0.66958863 -1.20926440
-0.26086313 0.34124300 -1.90993714
-4.06728888 -0.42146549 0.37533134
-2.52313018 0.81909728 0.38598201
-3.89733291 0.10357937 1.04275024
0.68081695 0.58380455 -1.63000667
3.29799747 0.67140394 0.39034113
-1.39348817 0.01803817 1.93584418
-0.45807910 0.34290594 1.90085435
-1.54159904 0.01407191 -1.91387880
0.48502657 0.83466381 -1.12104344
-3.79586434 0.48196119 0.58469969
-0.55645376 0.60325694 1.61050808
1.99797642 0.12673332 -1.81039381
3.93337417 0.51107806 -0.11444931
3.57333827 0.12807506 1.24166107
2.66301703 0.52974373 -1.26192153
-1.74249756 0.90378219 -0.46484211
3.90426993 0.51199538 0.23633377
3.56076431 0.62083131 0.24842940
3.44569921 0.17031436 1.29125452
0.23001263 0.96622169 -0.57420439
4.34871769 0.02772446 -0.62534195
-1.90116286 0.85837513 0.65398324
3.75739121 0.05454846 -1.15288258
-2.98104835 -0.54819489 -1.07449698
0.56477606 1.00059974 -0.06084545
2.65815663 0.72000235 0.79415268
-0.23169307 0.43310353 1.83348680
1.40005291 0.01865973 -1.93485165
0.69527644 -0.87369794 0.96733993
-0.70241356 0.93396610 0.70163238
1.40175378 0.91137046 -0.60861498
-0.89256185 -0.55275959 1.65324152
0.39103952 0.41693300 -1.84283507
-0.23101309 0.09460924 -2.02145338
-2.95146203 0.07336681 -1.54573667
1.78951561 0.80881965 -0.91803330
-0.26433682 0.10009124 2.01933599
1.34343684 0.10667629 -1.93112552
-3.70197272 -0.15453054 1.15153670
-1.09335601 0.91390175 -0.71038020
-0.56301349 0.90403575 0.86562407
-0.48903471 0.32936621 -1.90951931
-2.78820992 0.57162058 -1.12616587
-3.86571455 0.51395500 -0.32412001
0.53841287 0.28775769 -1.93357348
-2.47712135 -0.13938582 -1.68568337
0.24326104 0.96721584 -0.56654060
4.38863087 0.28103441 -0.07045587
-0.40031761 0.27357951 -1.94863045
3.89711046 0.38971546 0.71631330
-3.78837466 0.27045286 -0.99968314
2.87952685 0.40479311 -1.35231221
-0.09751096 0.37861949 1.88370991
1.87237728 0.03946840 -1.85277879
-0.36704001 0.66149968 -1.52574944
4.33230305 -0.31883299 -0.09288681
-3.59007931 0.52494735 0.68183899
1.26332152 0.69801480 -1.35621381
0.66448343 0.03268579 2.01066160
3.43324351 0.13289365 1.31532824
0.44400683 0.22127543 -1.97365224
-1.16157055 0.08019856 -1.95936310
0.49946430 0.15233798 -1.99724984
2.18576455 0.84876752 -0.51106077
-3.54355168 -0.41256580 0.97898304
-3.67210603 0.37022302 -0.95428646
0.92344087 0.86265266 -0.97034782
0.24479325 0.08851014 -2.02240705
-0.86888188 0.88836724 0.88214922
3 187 149 48
3 48 87 187
3 48 149 76
3 156 78 173
3 242 22 215
3 215 175 242
3 251 187 137
3 210 221 232
3 232 173 210
3 156 173 232
3 46 221 210
3 210 187 46
3 46 187 87
3 103 187 210
3 210 173 103
3 137 187 103
3 103 78 137
3 103 173 78
3 137 78 61
3 61 215 137
3 175 215 61
3 61 78 156
3 156 175 61
3 171 156 178
3 171 214 156
3 242 175 209
3 136 251 218
3 82 68 22
3 82 242 102
3 82 22 242
3 22 68 200
3 149 187 110
3 187 251 110
3 178 156 109
3 156 232 109
3 112 46 87
3 112 87 48
3 137 215 148
3 28 236 51
3 28 200 68
3 68 236 28
3 246 50 22
3 22 200 246
3 225 110 251
3 225 251 136
3 136 169 225
3 169 117 225
3 150 175 156
3 150 209 175
3 83 28 51
3 83 163 96
3 71 181 127
3 8 250 127
3 127 181 8
3 118 169 59
3 196 69 243
3 84 215 22
3 22 50 84
3 72 91 218
3 72 148 215
3 215 84 72
3 72 84 91
3 137 148 72
3 72 251 137
3 72 218 251
3 176 91 122
3 114 39 122
3 122 39 176
3 1 7 193
3 193 7 167
3 58 119 55
3 102 242 180
3 180 82 102
3 200 28 205
3 205 246 200
3 205 28 50
3 50 246 205
3 189 69 76
3 147 225 117
3 117 189 147
3 149 110 147
3 110 225 147
3 147 76 149
3 147 189 76
3 52 171 178
3 198 15 25
3 209 150 158
3 158 150 238
3 194 248 109
3 194 106 248
3 194 109 232
3 232 106 194
3 51 236 100
3 236 163 100
3 100 83 51
3 163 83 100
3 130 163 236
3 96 163 212
3 163 130 212
3 155 181 71
3 111 96 58
3 111 83 96
3 114 83 111
3 58 55 111
3 111 39 114
3 93 59 169
3 93 169 136
3 59 93 152
3 76 69 165
3 69 196 165
3 48 76 165
3 91 84 120
3 114 122 120
3 120 122 91
3 120 84 50
3 120 83 114
3 50 28 120
3 28 83 120
3 136 218 170
3 170 7 192
3 167 7 170
3 218 91 245
3 134 69 118
3 73 199 104
3 36 236 68
3 82 180 234
3 68 82 234
3 234 36 68
3 118 69 38
3 69 189 38
3 38 189 117
3 38 169 118
3 38 117 169
3 221 46 168
3 133 159 252
3 95 232 221
3 95 106 232
3 95 177 77
3 77 248 95
3 248 106 95
3 113 159 133
3 31 67 229
3 133 252 229
3 244 3 190
3 217 127 250
3 254 52 178
3 171 52 64
3 52 254 64
3 214 171 179
3 138 198 25
3 150 198 138
3 238 150 138
3 15 198 144
3 108 158 238
3 108 238 201
3 201 99 108
3 141 212 181
3 141 155 94
3 181 155 141
3 96 212 141
3 94 58 141
3 58 96 141
3 63 130 8
3 63 212 130
3 8 181 63
3 181 212 63
3 11 145 164
3 164 193 11
3 1 193 164
3 145 152 164
3 118 59 128
3 128 145 11
3 128 134 118
3 11 134 128
3 125 152 192
3 192 7 125
3 125 7 1
3 1 164 125
3 125 164 152
3 192 152 40
3 40 152 93
3 40 93 136
3 136 170 40
3 40 170 192
3 59 152 166
3 166 152 145
3 166 128 59
3 145 128 166
3 98 66 21
3 21 176 98
3 21 65 176
3 98 167 223
3 167 170 223
3 9 170 218
3 218 245 9
3 9 245 66
3 42 245 91
3 42 91 176
3 176 65 42
3 65 21 42
3 243 69 123
3 69 134 123
3 123 33 243
3 0 58 94
3 0 119 58
3 94 155 161
3 161 0 94
3 227 0 161
3 6 134 146
3 146 0 227
3 6 146 208
3 70 196 243
3 243 33 70
3 11 193 213
3 213 55 119
3 213 10 55
3 98 176 60
3 32 111 55
3 55 10 32
3 39 111 32
3 176 39 32
3 32 60 176
3 16 250 8
3 16 73 250
3 36 234 131
3 159 168 237
3 237 252 159
3 237 168 46
3 74 168 159
3 221 168 74
3 74 95 221
3 177 95 74
3 31 229 49
3 49 14 31
3 80 229 252
3 80 47 5
3 252 47 80
3 80 49 229
3 25 15 4
3 190 3 97
3 97 44 190
3 97 4 44
3 25 4 97
3 253 217 222
3 201 238 30
3 211 127 233
3 127 217 233
3 35 113 133
3 133 229 35
3 35 229 67
3 92 254 178
3 81 220 26
3 26 220 135
3 135 248 77
3 109 248 135
3 135 220 109
3 224 179 171
3 171 64 224
3 15 144 224
3 249 15 224
3 224 64 249
3 214 179 224
3 224 144 214
3 207 180 242
3 242 209 207
3 209 89 207
3 238 138 23
3 23 30 238
3 3 30 23
3 23 138 25
3 25 97 23
3 23 97 3
3 214 144 240
3 240 144 198
3 240 198 150
3 156 214 240
3 240 150 156
3 158 108 13
3 180 207 13
3 67 18 241
3 241 35 67
3 241 18 116
3 98 223 124
3 124 66 98
3 124 9 66
3 27 21 66
3 27 42 21
3 66 245 27
3 245 42 27
3 121 134 6
3 121 123 134
3 119 0 197
3 0 146 197
3 197 146 134
3 197 134 11
3 11 213 197
3 197 213 119
3 227 161 216
3 161 90 216
3 6 208 188
3 188 208 45
3 98 60 56
3 56 167 98
3 56 193 167
3 56 213 193
3 199 73 204
3 73 16 204
3 132 131 234
3 132 17 104
3 132 234 17
3 104 199 132
3 199 131 132
3 5 47 230
3 230 70 5
3 196 70 230
3 46 112 2
3 2 237 46
3 252 237 2
3 2 47 252
3 159 113 41
3 41 74 159
3 41 113 177
3 177 74 41
3 14 49 140
3 49 80 140
3 140 80 5
3 12 14 140
3 62 15 249
3 62 4 15
3 44 4 62
3 26 135 235
3 77 142 235
3 235 135 77
3 250 86 37
3 37 86 222
3 37 217 250
3 222 217 37
3 99 86 29
3 29 108 99
3 250 73 29
3 29 86 250
3 17 108 29
3 104 17 29
3 29 73 104
3 185 86 99
3 185 99 201
3 201 30 185
3 3 244 185
3 185 30 3
3 116 18 195
3 154 253 222
3 154 195 253
3 217 253 101
3 101 233 217
3 253 195 101
3 143 142 129
3 177 113 157
3 113 35 157
3 157 35 129
3 129 142 157
3 77 177 157
3 157 142 77
3 220 81 57
3 178 109 57
3 109 220 57
3 57 92 178
3 254 92 57
3 57 81 254
3 158 13 183
3 209 158 183
3 183 89 209
3 183 207 89
3 183 13 207
3 88 108 17
3 88 13 108
3 180 13 88
3 88 234 180
3 17 234 88
3 20 18 67
3 20 67 31
3 31 226 20
3 182 216 90
3 182 90 211
3 211 233 182
3 45 208 182
3 208 216 182
3 31 14 202
3 202 226 31
3 12 45 202
3 202 14 12
3 45 182 202
3 170 9 54
3 9 124 54
3 19 90 161
3 19 85 90
3 19 161 155
3 19 155 71
3 71 85 19
3 211 90 139
3 90 85 139
3 139 127 211
3 71 127 139
3 139 85 71
3 255 208 146
3 255 216 208
3 255 146 227
3 227 216 255
3 6 188 115
3 115 121 6
3 33 123 115
3 123 121 115
3 107 70 33
3 33 115 107
3 107 115 188
3 5 70 107
3 12 140 107
3 107 140 5
3 184 45 12
3 184 188 45
3 12 107 184
3 184 107 188
3 10 213 239
3 213 56 239
3 239 56 60
3 239 32 10
3 60 32 239
3 191 204 16
3 8 130 191
3 191 16 8
3 191 130 236
3 203 131 199
3 199 204 203
3 36 131 203
3 204 191 203
3 236 36 203
3 203 191 236
3 53 230 47
3 53 112 48
3 48 165 53
3 53 165 196
3 196 230 53
3 151 235 186
3 26 235 151
3 222 86 174
3 86 185 174
3 174 154 222
3 116 195 34
3 195 154 34
3 34 154 244
3 34 244 190
3 34 241 116
3 190 241 34
3 233 101 206
3 206 182 233
3 105 143 129
3 129 35 105
3 35 241 105
3 228 235 142
3 142 143 228
3 228 143 186
3 162 101 195
3 162 195 18
3 18 20 162
3 162 206 101
3 24 182 226
3 226 202 24
3 24 202 182
3 79 124 223
3 79 54 124
3 79 223 170
3 170 54 79
3 47 2 160
3 160 53 47
3 160 2 112
3 112 53 160
3 44 62 231
3 231 153 44
3 231 151 186
3 186 153 231
3 190 44 219
3 44 153 219
3 219 241 190
3 219 105 241
3 143 105 219
3 186 143 219
3 219 153 186
3 244 154 172
3 154 174 172
3 172 185 244
3 172 174 185
3 186 235 126
3 126 228 186
3 235 228 126
3 206 162 75
3 226 182 75
3 182 206 75
3 75 20 226
3 75 162 20
3 247 62 249
3 247 231 62
3 151 231 247
3 43 247 249
3 151 247 43
3 249 64 43
3 43 64 254
3 26 151 43
3 43 81 26
3 254 81 43