ply
format ascii 1.0
comment https://github.com/mikedh/trimesh
element vertex 256
property float x
property float y
property float z
element face 508
property list uchar int vertex_indices
end_header
0.11743731 1.83838415 1.19781208
-0.78641403 0.57842737 1.86091769
-3.04189897 0.70729464 -0.59445745
1.51175427 1.08055127 -1.50785840
0.89624393 0.70749903 -1.80965424
-2.54992867 1.43611407 -0.39587060
-1.64408016 1.81414688 0.75560170
-0.53601044 0.33180839 1.93392193
2.19098186 1.69898510 0.37668341
0.00194805 0.07821453 1.97883952
0.01662089 0.97129518 1.79656458
-1.25173485 0.92530912 1.65827370
-1.88596380 1.90037787 -0.19808547
2.92856312 0.58752692 -0.83717608
-1.88195360 1.82446837 -0.50195318
1.01666486 0.29454440 -1.87064397
2.44888592 1.57792854 0.14135765
2.87064958 0.80355471 -0.77215195
-0.34453773 1.76794255 -1.25877094
0.57385486 2.18395019 0.55354434
-0.72495294 1.98457515 -0.92077321
0.58690053 0.34822756 1.92667294
2.51105165 -0.04469443 1.31864917
1.65244973 1.00366485 -1.49539542
-1.11785245 2.10713267 -0.47846714
1.43582392 0.66272849 -1.69880474
-0.14922352 0.32450572 -1.95885062
0.52424580 0.16790198 1.95045173
2.54473829 0.47567114 1.23122346
2.36715674 1.47334623 -0.62541807
1.71459281 1.14653349 -1.39257097
-1.84790015 1.75518942 -0.69085634
0.18205224 0.87152112 1.83089364
-2.23688769 1.64079261 0.46378210
0.37851167 1.66230857 -1.35718894
-1.12122750 1.15211117 -1.58498240
2.96610522 1.03588498 0.29809973
1.42272818 1.89810252 -0.75884515
-2.16584778 0.40873888 1.47500205
0.98399132 0.71498007 1.79184890
-1.11708224 -0.00458803 1.86791372
-2.10279059 0.72905034 -1.41463184
0.97109592 0.17910795 1.88996422
0.21397611 0.36033681 -1.95166147
0.56052774 0.93158525 -1.78222883
-1.39935398 2.09567189 -0.14180936
-3.00941730 0.28809515 -0.85239124
-2.90685320 0.90640688 -0.63049728
-3.33385897 0.31782821 0.05694954
-1.93575752 1.71212888 -0.68786490
2.23755074 0.22989473 1.46666002
2.48601031 0.92320603 1.07705724
0.31579253 0.09824176 -1.96982729
-3.12252641 0.79828060 -0.28270203
-0.21531586 0.10211789 1.97391272
0.24672361 1.24692464 1.66074729
-0.23167120 0.79288065 1.85499787
0.01700919 0.13670804 -1.97663939
0.65967780 1.45294404 1.48987055
-1.72842121 0.47260106 1.65030038
0.09682269 0.77805191 1.86391437
0.92144352 -2.12379932 -0.56269765
0.66425371 0.68866205 -1.84923780
2.06785154 1.71742713 0.52691978
0.36943975 0.25538671 -1.95607615
0.80795670 0.38554898 1.89394438
0.48729137 0.27679670 1.94486153
-0.87295955 1.63892102 -1.29848862
3.10074472 0.60332948 0.57190490
-2.71675348 0.95100754 0.83966041
-2.55187941 1.48870909 0.20190611
0.76650554 2.16862297 0.51622951
-0.08486622 -1.74285090 1.29948354
2.65549159 1.40431714 -0.18308762
-2.14850760 0.51547694 -1.45936155
-0.28616485 2.13361192 -0.74189663
-3.15737176 0.47627547 0.55421716
-0.84124309 0.41389030 -1.88417578
-0.47181422 -1.95983982 -1.01239097
-0.17452025 0.14198463 1.97352123
-2.26267552 1.51865363 -0.67586356
-0.02993694 0.19441378 -1.97289622
3.36365223 0.10258125 -0.02277515
1.93990147 1.16688585 1.27222407
1.82969618 0.08445453 1.66035318
0.59586746 2.20662498 0.47371122
1.79424846 1.64500582 -0.90677273
-3.27157903 0.42201531 -0.29555067
2.88914847 0.75964588 -0.78046048
2.95411348 0.20588422 -0.93374282
0.10535218 2.29576182 0.22044794
1.46604300 0.09466951 1.78100526
0.10619970 0.12181226 -1.97633326
-1.64700258 0.02185660 1.72691762
0.59853816 1.89368176 1.07943726
-1.43602335 0.33164167 -1.76818109
1.84177732 1.39505696 1.14902604
1.19350553 0.91500187 -1.67747128
0.18031910 0.48214018 1.93346655
1.91387105 1.53689611 -0.95861518
2.42714620 1.00642431 1.06860590
0.30848128 2.12246752 -0.76171988
3.36446166 0.05379370 -0.06055496
-2.18420267 -1.54693294 -0.71760774
2.92517328 1.13564551 -0.11677267
-0.66288114 1.09497643 -1.69962823
-1.15079820 0.03681982 -1.86099410
-2.18185210 1.76055217 0.02717216
2.70923710 0.87958533 -0.90374851
-0.51156813 0.01245311 -1.95735753
-2.79275727 -0.71944368 0.91844034
0.78697300 1.21643233 1.61859787
-3.21951985 0.55152082 -0.33593205
-1.98939264 0.95045358 -1.37462473
1.24814224 0.80257857 1.70549679
-2.16463947 1.68043816 0.47560063
0.15662390 1.74303830 -1.29689157
-2.82236171 0.09801607 1.07685220
-2.07329226 0.44273901 1.51364017
-0.03777468 1.34660220 1.60891438
1.80053961 0.36149740 1.64437902
-2.12713909 1.41388237 0.94268441
1.04078579 0.64573389 1.79985845
-2.22257686 1.37895775 0.90424353
-0.05982279 0.14221163 1.97594261
-0.79192460 0.45463637 1.88465059
-0.27200723 0.72583044 -1.87293029
0.94781411 2.21336365 -0.12342687
-1.59797895 0.70671171 1.63485360
-0.63696885 0.92857546 -1.77407598
2.36921096 1.56277776 0.43230990
2.96335649 1.09088469 0.10279897
2.99909878 1.04620659 -0.07465179
-2.08065987 1.21458232 -1.15841413
-1.64877629 1.38871241 1.25083041
-0.22540167 0.29129368 -1.95996559
-1.37687838 -0.88939852 1.63879859
0.06904206 -2.21096134 0.57427895
1.62928474 0.57727170 -1.66046238
0.50898093 2.27752352 0.15537885
-2.22281623 1.64561117 -0.47336525
0.91059226 1.85121906 1.05770874
-0.61445421 0.79193658 -1.82519710
-0.37558010 0.83674413 -1.83251381
1.20195317 0.21573082 -1.84018362
-1.36751068 0.73589408 1.69627333
-0.65683597 1.95216370 0.98749834
-3.18817616 0.20387903 0.61188060
0.31774598 -2.06372929 0.87091362
-3.31635427 0.10799865 0.32881415
2.34358525 0.18276906 -1.41272748
-0.06659104 0.47952139 -1.93661106
-1.31678307 0.20499624 1.81389463
0.22728828 0.87488967 -1.82810366
0.85386187 1.70952189 -1.23516273
0.79963058 2.11282277 0.64989036
0.46178189 -1.72294927 -1.29166186
-1.39818096 0.89766544 -1.62899184
2.57594728 0.39293352 -1.23012805
-2.45538592 0.79437858 -1.17138696
-3.11297297 0.70825148 -0.45064723
-0.03557837 2.09301281 0.84001547
-0.11983395 2.08798051 -0.84527487
2.14424348 1.38634443 0.95866364
-1.11217260 0.74659836 1.75593007
-3.01667738 0.80221254 0.55019569
-1.51039851 0.67123699 1.67356682
-0.28198403 0.32474145 1.95332205
-2.59525371 0.39663324 -1.21503329
-1.92046499 0.06688830 1.62536848
-0.24040076 0.10046130 1.97304225
0.53968567 0.05177141 -1.95393229
1.02007866 1.65386593 -1.24626613
-1.45657289 -1.67334700 -1.06386042
1.33025765 1.68447483 -1.10681760
1.34802949 -1.98981905 -0.62285274
0.96315891 0.57993180 1.83118057
-1.59494948 0.66880798 -1.64697480
0.13009726 0.09363224 -1.97713912
0.93914372 0.07026251 -1.90045738
3.28210878 0.14826025 -0.42281121
1.71768749 1.87100005 0.57400912
-0.90199596 2.21644378 -0.18065922
2.94149947 0.35460025 -0.91433740
-1.80036652 1.95285523 -0.02180600
1.52571917 1.53417146 -1.17785323
-0.19208026 0.78186113 -1.86032581
-2.99484968 -0.96566802 0.36558196
-1.85784578 1.87672794 0.37595597
-2.86970663 0.23732263 1.01566446
0.50130308 1.33762181 -1.58766651
2.42840052 1.53833091 0.38020188
-1.02606130 0.04132933 1.88555980
-0.33729547 0.78567129 1.85147882
-1.13511908 0.03224178 -1.86416495
0.35713756 1.91239429 -1.09192383
-2.79499292 1.10427678 0.56951189
-0.40973127 1.38219142 1.56867445
1.47116160 0.29037330 -1.76336801
2.89624500 1.17098975 -0.11147644
2.63114119 0.29344752 1.20940840
1.96084821 1.21375680 -1.22914255
-1.28304589 2.07075930 -0.45276764
2.87481451 1.17309141 0.23019490
2.62188268 1.42245805 0.24197634
2.53715730 0.39022684 1.25771356
0.16936423 2.21382165 -0.55928922
3.20207310 0.06352270 -0.60909843
-1.39987528 1.96672201 0.63699573
2.76666403 0.12498225 -1.12293601
-2.19502282 -1.25603235 -1.04658651
0.41585919 2.29258919 -0.05926497
1.95726931 1.64968026 0.77352422
-0.17060159 0.99233335 1.78586125
1.03089511 0.04275345 -1.88459313
0.51194996 -2.00182986 0.94221288
-0.51720524 2.13991714 0.68340713
1.03214753 2.08814573 -0.59280598
-0.65721631 -1.26649117 1.61029792
0.28793249 0.95528322 -1.79496670
-0.17010090 0.21677011 -1.96894526
-2.17323756 0.16809915 -1.50558555
1.31766653 1.85317981 -0.89418703
-0.19463801 0.22933055 1.96688282
0.98920715 0.24441832 -1.88096368
-2.72585797 -0.35406268 1.12162507
-0.80506623 2.09394550 -0.69192773
-0.41456133 2.07134032 0.84313911
-0.36008888 0.75464880 -1.85991883
-2.05303097 1.30970573 -1.09691322
-2.84642529 1.17758143 -0.31570086
0.39644727 0.65931481 -1.88334811
-1.82396829 -0.31936288 -1.64189708
0.17911938 2.21609950 -0.55182451
3.23146224 0.64391029 -0.06862575
-0.29476419 0.62682950 -1.89801395
2.86954308 0.89292198 0.69770676
-2.78947783 0.61966568 -0.97371590
2.12027001 0.92746806 -1.31718540
-0.07179984 0.86749864 1.83477974
1.37867975 0.09043059 -1.80465209
-0.27026105 1.51563799 -1.48611748
3.18998647 -0.73051494 -0.09047403
-2.64346814 1.20276725 0.66412795
0.93021625 1.59930205 -1.32098556
0.48927632 0.07489018 1.95843387
2.52798581 0.30448791 1.28116202
0.32693368 0.50698960 -1.92238581
-0.85529435 0.18375213 -1.90846777
0.36776847 0.34903911 -1.94537044
1.60943484 1.94470894 -0.49778575
-2.60920858 -0.94527698 0.95355356
-2.70386624 0.84826052 -0.92949843
0.67995334 1.97652280 -0.94514263
0.18024759 0.20279576 -1.96987414
-0.63978016 2.03544044 0.85923499
3 187 149 48
3 48 87 187
3 48 149 76
3 156 78 173
3 242 22 215
3 215 175 242
3 251 187 137
3 210 221 232
3 232 173 210
3 156 173 232
3 46 221 210
3 210 187 46
3 46 187 87
3 103 187 210
3 210 173 103
3 137 187 103
3 103 78 137
3 103 173 78
3 137 78 61
3 61 215 137
3 175 215 61
3 61 78 156
3 156 175 61
3 171 156 178
3 171 214 156
3 242 175 209
3 136 251 218
3 82 68 22
3 82 242 102
3 82 22 242
3 22 68 200
3 149 187 110
3 187 251 110
3 178 156 109
3 156 232 109
3 112 46 87
3 112 87 48
3 137 215 148
3 28 236 51
3 28 200 68
3 68 236 28
3 246 50 22
3 22 200 246
3 225 110 251
3 225 251 136
3 136 169 225
3 169 117 225
3 150 175 156
3 150 209 175
3 83 28 51
3 83 163 96
3 71 181 127
3 8 250 127
3 127 181 8
3 118 169 59
3 196 69 243
3 84 215 22
3 22 50 84
3 72 91 218
3 72 148 215
3 215 84 72
3 72 84 91
3 137 148 72
3 72 251 137
3 72 218 251
3 176 91 122
3 114 39 122
3 122 39 176
3 1 7 193
3 193 7 167
3 58 119 55
3 102 242 180
3 180 82 102
3 200 28 205
3 205 246 200
3 205 28 50
3 50 246 205
3 189 69 76
3 147 225 117
3 117 189 147
3 149 110 147
3 110 225 147
3 147 76 149
3 147 189 76
3 52 171 178
3 198 15 25
3 209 150 158
3 158 150 238
3 194 248 109
3 194 106 248
3 194 109 232
3 232 106 194
3 51 236 100
3 236 163 100
3 100 83 51
3 163 83 100
3 130 163 236
3 96 163 212
3 163 130 212
3 155 181 71
3 111 96 58
3 111 83 96
3 114 83 111
3 58 55 111
3 111 39 114
3 93 59 169
3 93 169 136
3 59 93 152
3 76 69 165
3 69 196 165
3 48 76 165
3 91 84 120
3 114 122 120
3 120 122 91
3 120 84 50
3 120 83 114
3 50 28 120
3 28 83 120
3 136 218 170
3 170 7 192
3 167 7 170
3 218 91 245
3 134 69 118
3 73 199 104
3 36 236 68
3 82 180 234
3 68 82 234
3 234 36 68
3 118 69 38
3 69 189 38
3 38 189 117
3 38 169 118
3 38 117 169
3 221 46 168
3 133 159 252
3 95 232 221
3 95 106 232
3 95 177 77
3 77 248 95
3 248 106 95
3 113 159 133
3 31 67 229
3 133 252 229
3 244 3 190
3 217 127 250
3 254 52 178
3 171 52 64
3 52 254 64
3 214 171 179
3 138 198 25
3 150 198 138
3 238 150 138
3 15 198 144
3 108 158 238
3 108 238 201
3 201 99 108
3 141 212 181
3 141 155 94
3 181 155 141
3 96 212 141
3 94 58 141
3 58 96 141
3 63 130 8
3 63 212 130
3 8 181 63
3 181 212 63
3 11 145 164
3 164 193 11
3 1 193 164
3 145 152 164
3 118 59 128
3 128 145 11
3 128 134 118
3 11 134 128
3 125 152 192
3 192 7 125
3 125 7 1
3 1 164 125
3 125 164 152
3 192 152 40
3 40 152 93
3 40 93 136
3 136 170 40
3 40 170 192
3 59 152 166
3 166 152 145
3 166 128 59
3 145 128 166
3 98 66 21
3 21 176 98
3 21 65 176
3 98 167 223
3 167 170 223
3 9 170 218
3 218 245 9
3 9 245 66
3 42 245 91
3 42 91 176
3 176 65 42
3 65 21 42
3 243 69 123
3 69 134 123
3 123 33 243
3 0 58 94
3 0 119 58
3 94 155 161
3 161 0 94
3 227 0 161
3 6 134 146
3 146 0 227
3 6 146 208
3 70 196 243
3 243 33 70
3 11 193 213
3 213 55 119
3 213 10 55
3 98 176 60
3 32 111 55
3 55 10 32
3 39 111 32
3 176 39 32
3 32 60 176
3 16 250 8
3 16 73 250
3 36 234 131
3 159 168 237
3 237 252 159
3 237 168 46
3 74 168 159
3 221 168 74
3 74 95 221
3 177 95 74
3 31 229 49
3 49 14 31
3 80 229 252
3 80 47 5
3 252 47 80
3 80 49 229
3 25 15 4
3 190 3 97
3 97 44 190
3 97 4 44
3 25 4 97
3 253 217 222
3 201 238 30
3 211 127 233
3 127 217 233
3 35 113 133
3 133 229 35
3 35 229 67
3 92 254 178
3 81 220 26
3 26 220 135
3 135 248 77
3 109 248 135
3 135 220 109
3 224 179 171
3 171 64 224
3 15 144 224
3 249 15 224
3 224 64 249
3 214 179 224
3 224 144 214
3 207 180 242
3 242 209 207
3 209 89 207
3 238 138 23
3 23 30 238
3 3 30 23
3 23 138 25
3 25 97 23
3 23 97 3
3 214 144 240
3 240 144 198
3 240 198 150
3 156 214 240
3 240 150 156
3 158 108 13
3 180 207 13
3 67 18 241
3 241 35 67
3 241 18 116
3 98 223 124
3 124 66 98
3 124 9 66
3 27 21 66
3 27 42 21
3 66 245 27
3 245 42 27
3 121 134 6
3 121 123 134
3 119 0 197
3 0 146 197
3 197 146 134
3 197 134 11
3 11 213 197
3 197 213 119
3 227 161 216
3 161 90 216
3 6 208 188
3 188 208 45
3 98 60 56
3 56 167 98
3 56 193 167
3 56 213 193
3 199 73 204
3 73 16 204
3 132 131 234
3 132 17 104
3 132 234 17
3 104 199 132
3 199 131 132
3 5 47 230
3 230 70 5
3 196 70 230
3 46 112 2
3 2 237 46
3 252 237 2
3 2 47 252
3 159 113 41
3 41 74 159
3 41 113 177
3 177 74 41
3 14 49 140
3 49 80 140
3 140 80 5
3 12 14 140
3 62 15 249
3 62 4 15
3 44 4 62
3 26 135 235
3 77 142 235
3 235 135 77
3 250 86 37
3 37 86 222
3 37 217 250
3 222 217 37
3 99 86 29
3 29 108 99
3 250 73 29
3 29 86 250
3 17 108 29
3 104 17 29
3 29 73 104
3 185 86 99
3 185 99 201
3 201 30 185
3 3 244 185
3 185 30 3
3 116 18 195
3 154 253 222
3 154 195 253
3 217 253 101
3 101 233 217
3 253 195 101
3 143 142 129
3 177 113 157
3 113 35 157
3 157 35 129
3 129 142 157
3 77 177 157
3 157 142 77
3 220 81 57
3 178 109 57
3 109 220 57
3 57 92 178
3 254 92 57
3 57 81 254
3 158 13 183
3 209 158 183
3 183 89 209
3 183 207 89
3 183 13 207
3 88 108 17
3 88 13 108
3 180 13 88
3 88 234 180
3 17 234 88
3 20 18 67
3 20 67 31
3 31 226 20
3 182 216 90
3 182 90 211
3 211 233 182
3 45 208 182
3 208 216 182
3 31 14 202
3 202 226 31
3 12 45 202
3 202 14 12
3 45 182 202
3 170 9 54
3 9 124 54
3 19 90 161
3 19 85 90
3 19 161 155
3 19 155 71
3 71 85 19
3 211 90 139
3 90 85 139
3 139 127 211
3 71 127 139
3 139 85 71
3 255 208 146
3 255 216 208
3 255 146 227
3 227 216 255
3 6 188 115
3 115 121 6
3 33 123 115
3 123 121 115
3 107 70 33
3 33 115 107
3 107 115 188
3 5 70 107
3 12 140 107
3 107 140 5
3 184 45 12
3 184 188 45
3 12 107 184
3 184 107 188
3 10 213 239
3 213 56 239
3 239 56 60
3 239 32 10
3 60 32 239
3 191 204 16
3 8 130 191
3 191 16 8
3 191 130 236
3 203 131 199
3 199 204 203
3 36 131 203
3 204 191 203
3 236 36 203
3 203 191 236
3 53 230 47
3 53 112 48
3 48 165 53
3 53 165 196
3 196 230 53
3 151 235 186
3 26 235 151
3 222 86 174
3 86 185 174
3 174 154 222
3 116 195 34
3 195 154 34
3 34 154 244
3 34 244 190
3 34 241 116
3 190 241 34
3 233 101 206
3 206 182 233
3 105 143 129
3 129 35 105
3 35 241 105
3 228 235 142
3 142 143 228
3 228 143 186
3 162 101 195
3 162 195 18
3 18 20 162
3 162 206 101
3 24 182 226
3 226 202 24
3 24 202 182
3 79 124 223
3 79 54 124
3 79 223 170
3 170 54 79
3 47 2 160
3 160 53 47
3 160 2 112
3 112 53 160
3 44 62 231
3 231 153 44
3 231 151 186
3 186 153 231
3 190 44 219
3 44 153 219
3 219 241 190
3 219 105 241
3 143 105 219
3 186 143 219
3 219 153 186
3 244 154 172
3 154 174 172
3 172 185 244
3 172 174 185
3 186 235 126
3 126 228 186
3 235 228 126
3 206 162 75
3 226 182 75
3 182 206 75
3 75 20 226
3 75 162 20
3 247 62 249
3 247 231 62
3 151 231 247
3 43 247 249
3 151 247 43
3 249 64 43
3 43 64 254
3 26 151 43
3 43 81 26
3 254 81 43