ply
format ascii 1.0
comment https://github.com/mikedh/trimesh
element vertex 256
property float x
property float y
property float z
element face 508
property list uchar int vertex_indices
end_header
0.15493402 1.61824501 2.62238288
-1.03750920 0.50916296 4.07412720
-4.01315069 0.62259895 -1.30145204
1.99444425 0.95115948 -3.30117035
1.18240690 0.62277883 -3.96189547
-3.36409879 1.26414514 -0.86668372
-2.16902065 1.59691000 1.65424681
-0.70715392 0.29207563 4.23395586
2.89054346 1.49553835 0.82467699
0.00257005 0.06884865 4.33229446
0.02192779 0.85498643 3.93323803
-1.65140283 0.81450707 3.63047624
-2.48813581 1.67281520 -0.43367064
3.86362767 0.51717293 -1.83283854
-2.48284507 1.60599554 -1.09893143
1.34127712 0.25927386 -4.09542084
3.23079395 1.38897789 0.30947581
3.78722310 0.70733219 -1.69048047
-0.45454562 1.55623841 -2.75584078
0.75708169 1.92243087 1.21188056
-0.95642412 1.74693012 -2.01585865
0.77429277 0.30652869 4.21808577
3.31280875 -0.03934245 2.88693261
2.18006253 0.88347995 -3.27388501
-1.47477293 1.85481191 -1.04751325
1.89426994 0.58336937 -3.71921134
-0.19686930 0.28564742 -4.28853273
0.69163293 0.14779638 4.27014494
3.35725117 0.41871142 2.69553065
3.12296915 1.29691887 -1.36923444
2.26204753 1.00924063 -3.04877067
-2.43791866 1.54501247 -1.51249921
0.24017994 0.76715988 4.00839520
-2.95110631 1.44431424 1.01536310
0.49936718 1.46325374 -2.97130823
-1.47922564 1.01415050 -3.47001886
3.91315699 0.91184193 0.65263289
1.87699282 1.67081225 -1.66134775
-2.85738397 0.35979402 3.22923779
1.29817116 0.62936407 3.92291403
-1.47375679 -0.00403863 4.08944368
-2.77419353 0.64174944 -3.09706879
1.28115845 0.15766048 4.13771868
0.28229684 0.31718791 -4.27279329
0.73949939 0.82003164 -3.90185285
-1.84615552 1.84472346 -0.31046477
-3.97029805 0.25359690 -1.86614931
-3.83498621 0.79786825 -1.38035440
-4.39833117 0.27976954 0.12468024
-2.55382800 1.50710833 -1.50594997
2.95198131 0.20236576 3.21097445
3.27977180 0.81265581 2.35801291
0.41662237 0.08647770 -4.31256390
-4.11952209 0.70268965 -0.61892259
-0.28406435 0.08988968 4.32150841
0.32550031 1.09761035 3.63589168
-0.30564180 0.69793636 4.06116676
0.02244008 0.12033780 -4.32747793
0.87030721 1.27895975 3.26178932
-2.28029108 0.41600895 3.61302018
0.12773733 0.68488330 4.08068752
1.21565247 -1.86948287 -1.23192000
0.87634420 0.60619748 -4.04855633
2.72809839 1.51177204 1.15359104
0.48739865 0.22480518 -4.28245831
1.06593025 0.33938104 4.14643240
0.64287925 0.24365140 4.25790644
-1.15168786 1.44266677 -2.84279513
4.09078550 0.53108317 1.25207746
-3.58418918 0.83712822 1.83827758
-3.36667228 1.31044209 0.44203523
1.01124406 1.90893900 1.13018668
-0.11196326 -1.53415143 2.84497333
3.50336695 1.23615575 -0.40083566
-2.83450747 0.45375061 -3.19499588
-0.37753481 1.87812030 -1.62424219
-4.16549301 0.41924337 1.21335351
-1.10984468 0.36432856 -4.12504625
-0.62246037 -1.72515690 -2.21643829
-0.23024306 0.12498254 4.32065105
-2.98512816 1.33680081 -1.47967541
-0.03949555 0.17113350 -4.31928301
4.43763685 0.09029755 -0.04986188
2.55929518 1.02715588 2.78529382
2.41390228 0.07434143 3.63502884
0.78612274 1.94239032 1.03710103
2.36713648 1.44802284 -1.98520720
-4.31616545 0.37148064 -0.64705223
3.81162858 0.66868132 -1.70867050
3.89733624 0.18123040 -2.04425311
0.13899021 2.02085352 0.48262903
1.93413782 0.08333322 3.89917397
0.14010835 0.10722573 -4.32680750
-2.17287612 0.01923936 3.78075910
0.78964621 1.66692090 2.36322355
-1.89453316 0.29192892 -3.87109780
2.42984080 1.22800446 2.51557493
1.57458138 0.80543405 -3.67250586
0.23789342 0.42440581 4.23295879
2.52495337 1.35285890 -2.09870648
3.20211291 0.88590902 2.33951044
0.40697667 1.86831045 -1.66764152
4.43870497 0.04735212 -0.13257363
-2.88159966 -1.36169386 -1.57106626
3.85915565 0.99965644 -0.25565168
-0.87453330 0.96385729 -3.72101426
-1.51823795 0.03241079 -4.07429457
-2.87849855 1.54973304 0.05948829
3.57427311 0.77425843 -1.97858620
-0.67490739 0.01096190 -4.28526354
-3.68446040 -0.63329315 2.01075125
1.03824663 1.07076943 3.54361367
-4.24748468 0.48547840 -0.73545957
-2.62458825 0.83664054 -3.00948048
1.64666319 0.70647299 3.73386240
-2.85579014 1.47921228 1.04123759
0.20663255 1.53431642 -2.83929849
-3.72351718 0.08627903 2.35756421
-2.73527646 0.38972276 3.31382871
-0.04983581 1.18535197 3.52241349
2.37543631 0.31820953 3.60005665
-2.80631614 1.24457562 2.06382895
1.37309968 0.56840980 3.94044924
-2.93222642 1.21383297 1.97967005
-0.07892368 0.12518235 4.32595205
-1.04477930 0.40019548 4.12608576
-0.35885680 0.63891512 -4.10042620
1.25044286 1.94832218 -0.27021974
-2.10819960 0.62208581 3.57920241
-0.84034747 0.81738222 -3.88400340
3.12567949 1.37564135 0.94646066
3.90953040 0.96025556 0.22505888
3.95668483 0.92092752 -0.16343597
-2.74499655 1.06914091 -2.53612852
-2.17521620 1.22241962 2.73845649
-0.29737046 0.25641242 -4.29097366
-1.81650364 -0.78289658 3.58783913
0.09108660 -1.94620740 1.25727499
2.14950109 0.50814569 -3.63526797
0.67149413 2.00479913 0.34017256
-2.93254209 1.44855571 -1.03634357
1.20133650 1.62954295 2.31565309
-0.81064409 0.69710529 -3.99592352
-0.49549955 0.73654735 -4.01194191
1.58572626 0.18989791 -4.02873373
-1.80414486 0.64777368 3.71366930
-0.86655802 1.71839988 2.16194057
-4.20613289 0.17946532 1.33959675
0.41919953 -1.81660604 1.90670049
-4.37523746 0.09506624 0.71987629
3.09187174 0.16088319 -3.09289932
-0.08785298 0.42210063 -4.23984337
-1.73722041 0.18044876 3.97117901
0.29985943 0.77012509 -4.00228691
1.12649250 1.50481343 -2.70415521
1.05494559 1.85982060 1.42281187
0.60922486 -1.51663291 -2.82784915
-1.84460795 0.79017359 -3.56636930
3.39842486 0.34588128 -2.69313240
-3.23936939 0.69925487 -2.56452990
-4.10691833 0.62344116 -0.98660678
-0.04693823 1.84238291 1.83905482
-0.15809590 1.83795321 -1.85056925
2.82888174 1.22033525 2.09881258
-1.46727967 0.65719616 3.84427643
-3.97987628 0.70615077 1.20454931
-1.99265563 0.59085906 3.66395783
-0.37201908 0.28585494 4.27642870
-3.42389560 0.34913799 -2.66008544
-2.53365278 0.05887869 3.55843663
-0.31715864 0.08843146 4.31960249
0.71200264 0.04557199 -4.27776480
1.34578085 1.45582199 -2.72846365
-1.92164385 -1.47297037 -2.32912087
1.75499737 1.48276567 -2.42316747
1.77844357 -1.75154614 -1.36361825
1.27068722 0.51048726 4.00902319
-2.10420299 0.58872086 -3.60573936
0.17163616 0.08242016 -4.32857180
1.23900414 0.06184886 -4.16069174
4.33005762 0.13050668 -0.92566508
2.26613021 1.64695525 1.25668430
-1.18999541 1.95103335 -0.39551917
3.88069463 0.31213829 -2.00176859
-2.37520790 1.71900856 -0.04774011
2.01286793 1.35046053 -2.57868671
-0.25340980 0.68823636 -4.07283115
-3.95107913 -0.85003316 0.80037248
-2.45103979 1.65199721 0.82308441
-3.78597903 0.20890418 2.22360492
0.66136479 1.17744696 -3.47589517
3.20376778 1.35412192 0.83238000
-1.35367370 0.03638031 4.12807655
-0.44499096 0.69159025 4.05346251
-1.49755275 0.02838096 -4.08123636
0.47116849 1.68339276 -2.39056063
-3.68740988 0.97204399 1.24683845
-0.54055494 1.21667945 3.43431568
1.94089067 0.25560224 -3.86056042
3.82099080 1.03076839 -0.24405657
3.47124171 0.25830835 2.64777064
2.58693004 1.06841421 -2.69097495
-1.69271135 1.82279420 -0.99124902
3.79271793 1.03261840 0.50396812
3.45902705 1.25212431 0.52976137
3.34724951 0.34349871 2.75352573
0.22344075 1.94872534 -1.22445786
4.22446728 0.05591612 -1.33350563
-1.84684336 1.73121488 1.39458156
3.65003586 0.11001612 -2.45845580
-2.89587426 -1.10562742 -2.29130292
0.54863942 2.01806068 -0.12974942
2.58220840 1.45213759 1.69348478
-0.22507319 0.87350541 3.90980506
1.36005092 0.03763389 -4.12595987
0.67541116 -1.76211870 2.06279659
-0.68234432 1.88367057 1.49619055
1.36170316 1.83809853 -1.29783642
-0.86705977 -1.11483383 3.52544236
0.37986681 0.84089184 -3.92973971
-0.22441263 0.19081275 -4.31063318
-2.86713338 0.14796995 -3.29619455
1.73838592 1.63126886 -1.95765316
-0.25678423 0.20186913 4.30611753
1.30505240 0.21515021 -4.11801386
-3.59620094 -0.31166509 2.45558572
-1.06211686 1.84320378 -1.51484478
-0.54692715 1.82330561 1.84589338
-0.47506213 0.66428262 -4.07193995
-2.70854568 1.15287364 -2.40148401
-3.75526404 1.03657079 -0.69116729
0.52302945 0.58036447 -4.12323427
-2.40634537 -0.28112045 -3.59462261
0.23631065 1.95073032 -1.20811522
4.26323986 0.56680459 -0.15024309
-0.38887981 0.55176914 -4.15534210
3.78576303 0.78599811 1.52749693
-3.68013406 0.54546320 -2.13176680
2.79725361 0.81640750 -2.88372803
-0.09472490 0.76361912 4.01690292
1.81888020 0.07960189 -3.95094395
-0.35655302 1.33414638 -3.25357294
4.20852137 -0.64303869 -0.19807576
-3.48750448 1.05874062 1.45398235
1.22722626 1.40779197 -2.89204764
0.64549798 0.06592238 4.28762007
3.33514977 0.26802671 2.80486178
0.43132076 0.44627962 -4.20869970
-1.12838244 0.16174854 -4.17822886
0.48519373 0.30724305 -4.25902033
2.12331343 1.71183777 -1.08980763
-3.44230628 -0.83208382 2.08762503
-3.56718731 0.74668473 -2.03496099
0.89705652 1.73984206 -2.06921101
0.23779906 0.17851178 -4.31266642
-0.84405637 1.79170454 1.88113236
3 187 149 48
3 48 87 187
3 48 149 76
3 156 78 173
3 242 22 215
3 215 175 242
3 251 187 137
3 210 221 232
3 232 173 210
3 156 173 232
3 46 221 210
3 210 187 46
3 46 187 87
3 103 187 210
3 210 173 103
3 137 187 103
3 103 78 137
3 103 173 78
3 137 78 61
3 61 215 137
3 175 215 61
3 61 78 156
3 156 175 61
3 171 156 178
3 171 214 156
3 242 175 209
3 136 251 218
3 82 68 22
3 82 242 102
3 82 22 242
3 22 68 200
3 149 187 110
3 187 251 110
3 178 156 109
3 156 232 109
3 112 46 87
3 112 87 48
3 137 215 148
3 28 236 51
3 28 200 68
3 68 236 28
3 246 50 22
3 22 200 246
3 225 110 251
3 225 251 136
3 136 169 225
3 169 117 225
3 150 175 156
3 150 209 175
3 83 28 51
3 83 163 96
3 71 181 127
3 8 250 127
3 127 181 8
3 118 169 59
3 196 69 243
3 84 215 22
3 22 50 84
3 72 91 218
3 72 148 215
3 215 84 72
3 72 84 91
3 137 148 72
3 72 251 137
3 72 218 251
3 176 91 122
3 114 39 122
3 122 39 176
3 1 7 193
3 193 7 167
3 58 119 55
3 102 242 180
3 180 82 102
3 200 28 205
3 205 246 200
3 205 28 50
3 50 246 205
3 189 69 76
3 147 225 117
3 117 189 147
3 149 110 147
3 110 225 147
3 147 76 149
3 147 189 76
3 52 171 178
3 198 15 25
3 209 150 158
3 158 150 238
3 194 248 109
3 194 106 248
3 194 109 232
3 232 106 194
3 51 236 100
3 236 163 100
3 100 83 51
3 163 83 100
3 130 163 236
3 96 163 212
3 163 130 212
3 155 181 71
3 111 96 58
3 111 83 96
3 114 83 111
3 58 55 111
3 111 39 114
3 93 59 169
3 93 169 136
3 59 93 152
3 76 69 165
3 69 196 165
3 48 76 165
3 91 84 120
3 114 122 120
3 120 122 91
3 120 84 50
3 120 83 114
3 50 28 120
3 28 83 120
3 136 218 170
3 170 7 192
3 167 7 170
3 218 91 245
3 134 69 118
3 73 199 104
3 36 236 68
3 82 180 234
3 68 82 234
3 234 36 68
3 118 69 38
3 69 189 38
3 38 189 117
3 38 169 118
3 38 117 169
3 221 46 168
3 133 159 252
3 95 232 221
3 95 106 232
3 95 177 77
3 77 248 95
3 248 106 95
3 113 159 133
3 31 67 229
3 133 252 229
3 244 3 190
3 217 127 250
3 254 52 178
3 171 52 64
3 52 254 64
3 214 171 179
3 138 198 25
3 150 198 138
3 238 150 138
3 15 198 144
3 108 158 238
3 108 238 201
3 201 99 108
3 141 212 181
3 141 155 94
3 181 155 141
3 96 212 141
3 94 58 141
3 58 96 141
3 63 130 8
3 63 212 130
3 8 181 63
3 181 212 63
3 11 145 164
3 164 193 11
3 1 193 164
3 145 152 164
3 118 59 128
3 128 145 11
3 128 134 118
3 11 134 128
3 125 152 192
3 192 7 125
3 125 7 1
3 1 164 125
3 125 164 152
3 192 152 40
3 40 152 93
3 40 93 136
3 136 170 40
3 40 170 192
3 59 152 166
3 166 152 145
3 166 128 59
3 145 128 166
3 98 66 21
3 21 176 98
3 21 65 176
3 98 167 223
3 167 170 223
3 9 170 218
3 218 245 9
3 9 245 66
3 42 245 91
3 42 91 176
3 176 65 42
3 65 21 42
3 243 69 123
3 69 134 123
3 123 33 243
3 0 58 94
3 0 119 58
3 94 155 161
3 161 0 94
3 227 0 161
3 6 134 146
3 146 0 227
3 6 146 208
3 70 196 243
3 243 33 70
3 11 193 213
3 213 55 119
3 213 10 55
3 98 176 60
3 32 111 55
3 55 10 32
3 39 111 32
3 176 39 32
3 32 60 176
3 16 250 8
3 16 73 250
3 36 234 131
3 159 168 237
3 237 252 159
3 237 168 46
3 74 168 159
3 221 168 74
3 74 95 221
3 177 95 74
3 31 229 49
3 49 14 31
3 80 229 252
3 80 47 5
3 252 47 80
3 80 49 229
3 25 15 4
3 190 3 97
3 97 44 190
3 97 4 44
3 25 4 97
3 253 217 222
3 201 238 30
3 211 127 233
3 127 217 233
3 35 113 133
3 133 229 35
3 35 229 67
3 92 254 178
3 81 220 26
3 26 220 135
3 135 248 77
3 109 248 135
3 135 220 109
3 224 179 171
3 171 64 224
3 15 144 224
3 249 15 224
3 224 64 249
3 214 179 224
3 224 144 214
3 207 180 242
3 242 209 207
3 209 89 207
3 238 138 23
3 23 30 238
3 3 30 23
3 23 138 25
3 25 97 23
3 23 97 3
3 214 144 240
3 240 144 198
3 240 198 150
3 156 214 240
3 240 150 156
3 158 108 13
3 180 207 13
3 67 18 241
3 241 35 67
3 241 18 116
3 98 223 124
3 124 66 98
3 124 9 66
3 27 21 66
3 27 42 21
3 66 245 27
3 245 42 27
3 121 134 6
3 121 123 134
3 119 0 197
3 0 146 197
3 197 146 134
3 197 134 11
3 11 213 197
3 197 213 119
3 227 161 216
3 161 90 216
3 6 208 188
3 188 208 45
3 98 60 56
3 56 167 98
3 56 193 167
3 56 213 193
3 199 73 204
3 73 16 204
3 132 131 234
3 132 17 104
3 132 234 17
3 104 199 132
3 199 131 132
3 5 47 230
3 230 70 5
3 196 70 230
3 46 112 2
3 2 237 46
3 252 237 2
3 2 47 252
3 159 113 41
3 41 74 159
3 41 113 177
3 177 74 41
3 14 49 140
3 49 80 140
3 140 80 5
3 12 14 140
3 62 15 249
3 62 4 15
3 44 4 62
3 26 135 235
3 77 142 235
3 235 135 77
3 250 86 37
3 37 86 222
3 37 217 250
3 222 217 37
3 99 86 29
3 29 108 99
3 250 73 29
3 29 86 250
3 17 108 29
3 104 17 29
3 29 73 104
3 185 86 99
3 185 99 201
3 201 30 185
3 3 244 185
3 185 30 3
3 116 18 195
3 154 253 222
3 154 195 253
3 217 253 101
3 101 233 217
3 253 195 101
3 143 142 129
3 177 113 157
3 113 35 157
3 157 35 129
3 129 142 157
3 77 177 157
3 157 142 77
3 220 81 57
3 178 109 57
3 109 220 57
3 57 92 178
3 254 92 57
3 57 81 254
3 158 13 183
3 209 158 183
3 183 89 209
3 183 207 89
3 183 13 207
3 88 108 17
3 88 13 108
3 180 13 88
3 88 234 180
3 17 234 88
3 20 18 67
3 20 67 31
3 31 226 20
3 182 216 90
3 182 90 211
3 211 233 182
3 45 208 182
3 208 216 182
3 31 14 202
3 202 226 31
3 12 45 202
3 202 14 12
3 45 182 202
3 170 9 54
3 9 124 54
3 19 90 161
3 19 85 90
3 19 161 155
3 19 155 71
3 71 85 19
3 211 90 139
3 90 85 139
3 139 127 211
3 71 127 139
3 139 85 71
3 255 208 146
3 255 216 208
3 255 146 227
3 227 216 255
3 6 188 115
3 115 121 6
3 33 123 115
3 123 121 115
3 107 70 33
3 33 115 107
3 107 115 188
3 5 70 107
3 12 140 107
3 107 140 5
3 184 45 12
3 184 188 45
3 12 107 184
3 184 107 188
3 10 213 239
3 213 56 239
3 239 56 60
3 239 32 10
3 60 32 239
3 191 204 16
3 8 130 191
3 191 16 8
3 191 130 236
3 203 131 199
3 199 204 203
3 36 131 203
3 204 191 203
3 236 36 203
3 203 191 236
3 53 230 47
3 53 112 48
3 48 165 53
3 53 165 196
3 196 230 53
3 151 235 186
3 26 235 151
3 222 86 174
3 86 185 174
3 174 154 222
3 116 195 34
3 195 154 34
3 34 154 244
3 34 244 190
3 34 241 116
3 190 241 34
3 233 101 206
3 206 182 233
3 105 143 129
3 129 35 105
3 35 241 105
3 228 235 142
3 142 143 228
3 228 143 186
3 162 101 195
3 162 195 18
3 18 20 162
3 162 206 101
3 24 182 226
3 226 202 24
3 24 202 182
3 79 124 223
3 79 54 124
3 79 223 170
3 170 54 79
3 47 2 160
3 160 53 47
3 160 2 112
3 112 53 160
3 44 62 231
3 231 153 44
3 231 151 186
3 186 153 231
3 190 44 219
3 44 153 219
3 219 241 190
3 219 105 241
3 143 105 219
3 186 143 219
3 219 153 186
3 244 154 172
3 154 174 172
3 172 185 244
3 172 174 185
3 186 235 126
3 126 228 186
3 235 228 126
3 206 162 75
3 226 182 75
3 182 206 75
3 75 20 226
3 75 162 20
3 247 62 249
3 247 231 62
3 151 231 247
3 43 247 249
3 151 247 43
3 249 64 43
3 43 64 254
3 26 151 43
3 43 81 26
3 254 81 43