ply
format ascii 1.0
comment https://github.com/mikedh/trimesh
element vertex 256
property float x
property float y
property float z
element face 508
property list uchar int vertex_indices
end_header
0.11664338 3.76895714 1.97917557
-0.78109753 1.18586087 3.07484198
-3.02133441 1.45005774 -0.98223728
1.50153422 2.21528840 -2.49147296
0.89018500 1.45047677 -2.99013805
-2.53269005 2.94424438 -0.65410709
-1.63296556 3.71926713 1.24849999
-0.53238684 0.68025583 3.19546866
2.17617011 3.48316860 0.62240362
0.00193488 0.16035128 3.26968718
0.01650852 1.99129760 2.96850967
-1.24327254 1.89701939 2.74000812
-1.87321401 3.89605331 -0.32730168
2.90876484 1.20451641 -1.38328743
-1.86923087 3.74042773 -0.82939005
1.00979185 0.60385919 -3.09091282
2.43233061 3.23498487 0.23356886
2.85124278 1.64740491 -1.27584636
-0.34220850 3.62454128 -2.07989931
0.56997538 4.47741842 0.91463542
-0.72005200 4.06866980 -1.52141714
0.58293289 0.71391755 3.18349099
2.49407601 -0.09163013 2.17883778
1.64127851 2.05766010 -2.47088003
-1.11029530 4.31993103 -0.79058349
1.42611718 1.35869062 -2.80697846
-0.14821471 0.66528428 -3.23665905
0.52070171 0.34422368 3.22278118
2.52753472 0.97519565 2.03438187
2.35115385 3.02057576 -1.03339422
1.70300150 2.35056186 -2.30098057
-1.83540761 3.59839559 -1.14151967
0.18082149 1.78674603 3.02523232
-2.22176528 3.36386538 0.76631904
0.37595278 3.40797639 -2.24251795
-1.11364746 2.36199689 -2.61890697
2.94605327 2.12371635 0.49255776
1.41310990 3.89138865 -1.25385916
-2.15120578 0.83797461 2.43718362
0.97733915 1.46581399 2.96071768
-1.10953033 -0.00940613 3.08640170
-2.08857489 1.49466014 -2.33743238
0.96453094 0.36719757 3.12283611
0.21252955 0.73874331 -3.22478008
0.55673832 1.90988636 -2.94482231
-1.38989377 4.29643488 -0.23431523
-2.98907256 0.59063733 -1.40842783
-2.88720179 1.85826707 -1.04178667
-3.31132078 0.65159446 0.09409919
-1.92267096 3.51011539 -1.13657677
2.22242403 0.47131792 2.42339993
2.46920395 1.89270782 1.77964926
0.31365767 0.20141001 -3.25479603
-3.10141683 1.63659227 -0.46711579
-0.21386024 0.20935664 3.26154637
0.24505565 2.55637836 2.74409509
-0.23010500 1.62552154 3.06506038
0.01689420 0.28027153 -3.26605177
0.65521812 2.97874832 2.46175122
-1.71673632 0.96890146 2.72683358
0.09616812 1.59512055 3.07979345
0.91521424 -4.35410023 -0.92975974
0.65976310 1.41185820 -3.05554295
2.05387211 3.52097750 0.87064302
0.36694220 0.52358019 -3.23207474
0.80249459 0.79043198 3.12941265
0.48399708 0.56747383 3.21354437
-0.86705798 3.36002851 -2.14552593
3.07978249 1.23691392 0.94497305
-2.69838715 1.94970500 1.38739240
-2.53462768 3.05207181 0.33361465
0.76132363 4.44599485 0.85297918
-0.08429249 -3.57309985 2.14716983
2.63753939 2.87905622 -0.30252033
-2.13398290 1.05680335 -2.41134048
-0.28423026 4.37421703 -1.22585475
-3.13602662 0.97643453 0.91574717
-0.83555597 0.84853578 -3.11327195
-0.46862456 -4.01795912 -1.67279947
-0.17334042 0.29108933 3.26089954
-2.24737883 3.11346245 -1.11674666
-0.02973456 0.39857677 -3.25986695
3.34091258 0.21030660 -0.03763196
1.92678702 2.39228702 2.10212851
1.81732666 0.17314416 2.74344397
0.59183913 4.52390480 0.78272516
1.78211868 3.37250304 -1.49828374
-3.24946189 0.86519325 -0.48834592
2.86961675 1.55738556 -1.28957486
2.93414259 0.42209283 -1.54284716
0.10463995 4.70664835 0.36425176
1.45613194 0.19408637 2.94280052
0.10548175 0.24973300 -3.26554585
-1.63586819 0.04480923 2.85343003
0.59449178 3.88232541 1.78358185
-1.42631531 0.67991406 -2.92161083
1.82932615 2.86007142 1.89856505
1.18543696 1.87588799 -2.77172875
0.17910007 0.98845810 3.19471622
1.90093255 3.15086246 -1.58394432
2.41073775 2.06331754 1.76568484
0.30639583 4.35136938 -1.25860929
3.34171677 0.11028498 -0.10005651
-2.16943669 -3.17143941 -1.18572152
2.90539789 2.32823992 -0.19294648
-0.65839976 2.24486208 -2.80833912
-1.14301825 0.07548602 -3.07496810
-2.16710210 3.60939026 0.04489725
2.69092178 1.80327880 -1.49328673
-0.50810975 0.02553071 -3.23419189
-2.77387714 -1.47496510 1.51756251
0.78165275 2.49386477 2.67445064
-3.19775462 1.13069856 -0.55506909
-1.97594357 1.94856918 -2.27132750
1.23970425 1.64540386 2.81803584
-2.15000558 3.44514465 0.78584707
0.15556507 3.57348418 -2.14288688
-2.80328131 0.20094731 1.77931046
-2.05927610 0.90767986 2.50102639
-0.03751931 2.76073194 2.65845037
1.78836715 0.74112266 2.71704960
-2.11275864 2.89866638 1.55762160
1.03374970 1.32384908 2.97395205
-2.20755148 2.82706547 1.49410474
-0.05941836 0.29155469 3.26490045
-0.78657091 0.93207127 3.11405635
-0.27016836 1.48805881 -3.09469056
0.94140649 4.53772020 -0.20394136
-1.58717597 1.44886267 2.70131040
-0.63266271 1.90371585 -2.93135095
2.35319424 3.20392370 0.71431673
2.94332314 2.23647356 0.16985737
2.97882366 2.14487696 -0.12334907
-2.06659389 2.49007177 -1.91407728
-1.63762999 2.84706402 2.06677914
-0.22387786 0.59719479 -3.23850107
-1.36757016 -1.82339740 2.70782876
0.06857532 -4.53279495 0.94889575
1.61827016 1.18349159 -2.74362445
0.50554001 4.66925716 0.25673643
-2.20778894 3.37374401 -0.78215349
0.90443629 3.79527068 1.74767923
-0.61030024 1.62358606 -3.01581979
-0.37304103 1.71544814 -3.02790928
1.19382739 0.44227982 -3.04058242
-1.35826576 1.50869071 2.80279565
-0.65239549 4.00222206 1.63166869
-3.16662264 0.41798189 1.01102591
0.31559789 -4.23094797 1.43903279
-3.29393458 0.22141308 0.54330802
2.32774162 0.37470338 -2.33428574
-0.06614086 0.98308921 -3.19991183
-1.30788112 0.42027238 2.99714446
0.22575171 1.79365218 -3.02062249
0.84808940 3.50477052 -2.04089093
0.79422474 4.33159637 1.07383049
0.45866007 -3.53229880 -2.13424587
-1.38872874 1.84034574 -2.69162488
2.55853295 0.80557132 -2.03257203
-2.43878651 1.62859261 -1.93551254
-3.09192801 1.45201933 -0.74461591
-0.03533784 4.29098320 1.38797903
-0.11902383 4.28066635 -1.39666927
2.12974763 2.84220958 1.58402443
-1.10465395 1.53063607 2.90136814
-2.99628353 1.64465332 0.90910238
-1.50018764 1.37613428 2.76527715
-0.28007770 0.66576761 3.22752380
-2.57770872 0.81315631 -2.00763059
-1.90748191 0.13713083 2.68563795
-0.23877555 0.20596041 3.26010823
0.53603721 0.10613898 -3.22853231
1.01318252 3.39066768 -2.05923748
-1.44672585 -3.43060684 -1.75784373
1.32126462 3.45342040 -1.82882297
1.33891630 -4.07942057 -1.02915549
0.95664757 1.18894517 3.02570653
-1.58416700 1.37115443 -2.72133851
0.12921774 0.19195984 -3.26687741
0.93279469 0.14404847 -3.14017439
3.25992060 0.30395526 -0.69862175
1.70607519 3.83582449 0.94844997
-0.89589810 4.54403448 -0.29850787
2.92161369 0.72698253 -1.51078296
-1.78819537 4.00363970 -0.03603061
1.51540470 3.14527655 -1.94619703
-0.19078171 1.60292995 -3.07386374
-2.97460341 -1.97976112 0.60406041
-1.84528601 3.84756756 0.62120163
-2.85030627 0.48654619 1.67820823
0.49791408 2.74232078 -2.62334204
2.41198373 3.15380383 0.62821728
-1.01912475 0.08473119 3.11555862
-0.33501521 1.61074138 3.05924582
-1.12744534 0.06610038 -3.08020735
0.35472319 3.92068887 -1.80421376
-2.77609754 2.26392913 0.94101900
-0.40696132 2.83369517 2.59196091
1.46121597 0.59530783 -2.91365814
2.87666512 2.40070057 -0.18419537
2.61335349 0.60161042 1.99833643
1.94759214 2.48837924 -2.03094363
-1.27437198 4.24536037 -0.74811953
2.85537982 2.40500951 0.38035691
2.60415769 2.91624761 0.39982370
2.52000499 0.80002224 2.07815242
0.16821925 4.53865910 -0.92412788
3.18042564 0.13023086 -1.00642884
-1.39041162 4.03206873 1.05252433
2.74796033 0.25623193 -1.85545588
-2.18018341 -2.57505035 -1.72930157
0.41304782 4.70014429 -0.09792501
1.94403744 3.38208652 1.27811384
-0.16944826 2.03442883 2.95082402
1.02392590 0.08765084 -3.11396146
0.50848901 -4.10404491 1.55684245
-0.51370871 4.38714409 1.12921107
1.02516973 4.28100491 -0.97950846
-0.65277326 -2.59649253 2.66073632
0.28598595 1.95847070 -2.96586943
-0.16895095 0.44441050 -3.25333858
-2.15854549 0.34462789 -2.48771739
1.30875850 3.79929042 -1.47748804
-0.19332218 0.47016129 3.24993086
0.98251975 0.50109339 -3.10796428
-2.70743012 -0.72588044 1.85328972
-0.79962361 4.29289532 -1.14328992
-0.41175875 4.24655151 1.39314032
-0.35765454 1.54714072 -3.07319140
-2.03915167 2.68508863 -1.81245780
-2.82718229 2.41421461 -0.52164060
0.39376715 1.35169208 -3.11190414
-1.81163752 -0.65474075 -2.71294832
0.17790847 4.54332876 -0.91179371
3.20961618 1.32011044 -0.11339208
-0.29277146 1.28509235 -3.13613701
2.85014367 1.83062100 1.15283871
-2.77061987 1.27040553 -1.60889566
2.10593605 1.90144563 -2.17641902
-0.07131445 1.77849948 3.03165340
1.36935925 0.18539599 -2.98187280
-0.26843396 3.10728002 -2.45554996
3.16842079 -1.49766278 -0.14949255
-2.62559724 2.46584916 1.09735560
0.92392761 3.27880359 -2.18269825
0.48596859 0.15353586 3.23597026
2.51089573 0.62424493 2.11689687
0.32472348 1.03940308 -3.17640710
-0.84951222 0.37671882 -3.15341020
0.36528218 0.71558136 -3.21438527
1.59855449 3.98693871 -0.82250410
-2.59156919 -1.93795645 1.57558084
-2.68558717 1.73905849 -1.53583407
0.67535657 4.05216169 -1.56168330
0.17902903 0.41576105 -3.25487328
-0.63545495 4.17295122 1.41973591
3 187 149 48
3 48 87 187
3 48 149 76
3 156 78 173
3 242 22 215
3 215 175 242
3 251 187 137
3 210 221 232
3 232 173 210
3 156 173 232
3 46 221 210
3 210 187 46
3 46 187 87
3 103 187 210
3 210 173 103
3 137 187 103
3 103 78 137
3 103 173 78
3 137 78 61
3 61 215 137
3 175 215 61
3 61 78 156
3 156 175 61
3 171 156 178
3 171 214 156
3 242 175 209
3 136 251 218
3 82 68 22
3 82 242 102
3 82 22 242
3 22 68 200
3 149 187 110
3 187 251 110
3 178 156 109
3 156 232 109
3 112 46 87
3 112 87 48
3 137 215 148
3 28 236 51
3 28 200 68
3 68 236 28
3 246 50 22
3 22 200 246
3 225 110 251
3 225 251 136
3 136 169 225
3 169 117 225
3 150 175 156
3 150 209 175
3 83 28 51
3 83 163 96
3 71 181 127
3 8 250 127
3 127 181 8
3 118 169 59
3 196 69 243
3 84 215 22
3 22 50 84
3 72 91 218
3 72 148 215
3 215 84 72
3 72 84 91
3 137 148 72
3 72 251 137
3 72 218 251
3 176 91 122
3 114 39 122
3 122 39 176
3 1 7 193
3 193 7 167
3 58 119 55
3 102 242 180
3 180 82 102
3 200 28 205
3 205 246 200
3 205 28 50
3 50 246 205
3 189 69 76
3 147 225 117
3 117 189 147
3 149 110 147
3 110 225 147
3 147 76 149
3 147 189 76
3 52 171 178
3 198 15 25
3 209 150 158
3 158 150 238
3 194 248 109
3 194 106 248
3 194 109 232
3 232 106 194
3 51 236 100
3 236 163 100
3 100 83 51
3 163 83 100
3 130 163 236
3 96 163 212
3 163 130 212
3 155 181 71
3 111 96 58
3 111 83 96
3 114 83 111
3 58 55 111
3 111 39 114
3 93 59 169
3 93 169 136
3 59 93 152
3 76 69 165
3 69 196 165
3 48 76 165
3 91 84 120
3 114 122 120
3 120 122 91
3 120 84 50
3 120 83 114
3 50 28 120
3 28 83 120
3 136 218 170
3 170 7 192
3 167 7 170
3 218 91 245
3 134 69 118
3 73 199 104
3 36 236 68
3 82 180 234
3 68 82 234
3 234 36 68
3 118 69 38
3 69 189 38
3 38 189 117
3 38 169 118
3 38 117 169
3 221 46 168
3 133 159 252
3 95 232 221
3 95 106 232
3 95 177 77
3 77 248 95
3 248 106 95
3 113 159 133
3 31 67 229
3 133 252 229
3 244 3 190
3 217 127 250
3 254 52 178
3 171 52 64
3 52 254 64
3 214 171 179
3 138 198 25
3 150 198 138
3 238 150 138
3 15 198 144
3 108 158 238
3 108 238 201
3 201 99 108
3 141 212 181
3 141 155 94
3 181 155 141
3 96 212 141
3 94 58 141
3 58 96 141
3 63 130 8
3 63 212 130
3 8 181 63
3 181 212 63
3 11 145 164
3 164 193 11
3 1 193 164
3 145 152 164
3 118 59 128
3 128 145 11
3 128 134 118
3 11 134 128
3 125 152 192
3 192 7 125
3 125 7 1
3 1 164 125
3 125 164 152
3 192 152 40
3 40 152 93
3 40 93 136
3 136 170 40
3 40 170 192
3 59 152 166
3 166 152 145
3 166 128 59
3 145 128 166
3 98 66 21
3 21 176 98
3 21 65 176
3 98 167 223
3 167 170 223
3 9 170 218
3 218 245 9
3 9 245 66
3 42 245 91
3 42 91 176
3 176 65 42
3 65 21 42
3 243 69 123
3 69 134 123
3 123 33 243
3 0 58 94
3 0 119 58
3 94 155 161
3 161 0 94
3 227 0 161
3 6 134 146
3 146 0 227
3 6 146 208
3 70 196 243
3 243 33 70
3 11 193 213
3 213 55 119
3 213 10 55
3 98 176 60
3 32 111 55
3 55 10 32
3 39 111 32
3 176 39 32
3 32 60 176
3 16 250 8
3 16 73 250
3 36 234 131
3 159 168 237
3 237 252 159
3 237 168 46
3 74 168 159
3 221 168 74
3 74 95 221
3 177 95 74
3 31 229 49
3 49 14 31
3 80 229 252
3 80 47 5
3 252 47 80
3 80 49 229
3 25 15 4
3 190 3 97
3 97 44 190
3 97 4 44
3 25 4 97
3 253 217 222
3 201 238 30
3 211 127 233
3 127 217 233
3 35 113 133
3 133 229 35
3 35 229 67
3 92 254 178
3 81 220 26
3 26 220 135
3 135 248 77
3 109 248 135
3 135 220 109
3 224 179 171
3 171 64 224
3 15 144 224
3 249 15 224
3 224 64 249
3 214 179 224
3 224 144 214
3 207 180 242
3 242 209 207
3 209 89 207
3 238 138 23
3 23 30 238
3 3 30 23
3 23 138 25
3 25 97 23
3 23 97 3
3 214 144 240
3 240 144 198
3 240 198 150
3 156 214 240
3 240 150 156
3 158 108 13
3 180 207 13
3 67 18 241
3 241 35 67
3 241 18 116
3 98 223 124
3 124 66 98
3 124 9 66
3 27 21 66
3 27 42 21
3 66 245 27
3 245 42 27
3 121 134 6
3 121 123 134
3 119 0 197
3 0 146 197
3 197 146 134
3 197 134 11
3 11 213 197
3 197 213 119
3 227 161 216
3 161 90 216
3 6 208 188
3 188 208 45
3 98 60 56
3 56 167 98
3 56 193 167
3 56 213 193
3 199 73 204
3 73 16 204
3 132 131 234
3 132 17 104
3 132 234 17
3 104 199 132
3 199 131 132
3 5 47 230
3 230 70 5
3 196 70 230
3 46 112 2
3 2 237 46
3 252 237 2
3 2 47 252
3 159 113 41
3 41 74 159
3 41 113 177
3 177 74 41
3 14 49 140
3 49 80 140
3 140 80 5
3 12 14 140
3 62 15 249
3 62 4 15
3 44 4 62
3 26 135 235
3 77 142 235
3 235 135 77
3 250 86 37
3 37 86 222
3 37 217 250
3 222 217 37
3 99 86 29
3 29 108 99
3 250 73 29
3 29 86 250
3 17 108 29
3 104 17 29
3 29 73 104
3 185 86 99
3 185 99 201
3 201 30 185
3 3 244 185
3 185 30 3
3 116 18 195
3 154 253 222
3 154 195 253
3 217 253 101
3 101 233 217
3 253 195 101
3 143 142 129
3 177 113 157
3 113 35 157
3 157 35 129
3 129 142 157
3 77 177 157
3 157 142 77
3 220 81 57
3 178 109 57
3 109 220 57
3 57 92 178
3 254 92 57
3 57 81 254
3 158 13 183
3 209 158 183
3 183 89 209
3 183 207 89
3 183 13 207
3 88 108 17
3 88 13 108
3 180 13 88
3 88 234 180
3 17 234 88
3 20 18 67
3 20 67 31
3 31 226 20
3 182 216 90
3 182 90 211
3 211 233 182
3 45 208 182
3 208 216 182
3 31 14 202
3 202 226 31
3 12 45 202
3 202 14 12
3 45 182 202
3 170 9 54
3 9 124 54
3 19 90 161
3 19 85 90
3 19 161 155
3 19 155 71
3 71 85 19
3 211 90 139
3 90 85 139
3 139 127 211
3 71 127 139
3 139 85 71
3 255 208 146
3 255 216 208
3 255 146 227
3 227 216 255
3 6 188 115
3 115 121 6
3 33 123 115
3 123 121 115
3 107 70 33
3 33 115 107
3 107 115 188
3 5 70 107
3 12 140 107
3 107 140 5
3 184 45 12
3 184 188 45
3 12 107 184
3 184 107 188
3 10 213 239
3 213 56 239
3 239 56 60
3 239 32 10
3 60 32 239
3 191 204 16
3 8 130 191
3 191 16 8
3 191 130 236
3 203 131 199
3 199 204 203
3 36 131 203
3 204 191 203
3 236 36 203
3 203 191 236
3 53 230 47
3 53 112 48
3 48 165 53
3 53 165 196
3 196 230 53
3 151 235 186
3 26 235 151
3 222 86 174
3 86 185 174
3 174 154 222
3 116 195 34
3 195 154 34
3 34 154 244
3 34 244 190
3 34 241 116
3 190 241 34
3 233 101 206
3 206 182 233
3 105 143 129
3 129 35 105
3 35 241 105
3 228 235 142
3 142 143 228
3 228 143 186
3 162 101 195
3 162 195 18
3 18 20 162
3 162 206 101
3 24 182 226
3 226 202 24
3 24 202 182
3 79 124 223
3 79 54 124
3 79 223 170
3 170 54 79
3 47 2 160
3 160 53 47
3 160 2 112
3 112 53 160
3 44 62 231
3 231 153 44
3 231 151 186
3 186 153 231
3 190 44 219
3 44 153 219
3 219 241 190
3 219 105 241
3 143 105 219
3 186 143 219
3 219 153 186
3 244 154 172
3 154 174 172
3 172 185 244
3 172 174 185
3 186 235 126
3 126 228 186
3 235 228 126
3 206 162 75
3 226 182 75
3 182 206 75
3 75 20 226
3 75 162 20
3 247 62 249
3 247 231 62
3 151 231 247
3 43 247 249
3 151 247 43
3 249 64 43
3 43 64 254
3 26 151 43
3 43 81 26
3 254 81 43