ply
format ascii 1.0
comment https://github.com/mikedh/trimesh
element vertex 256
property float x
property float y
property float z
element face 508
property list uchar int vertex_indices
end_header
0.12571537 3.31242990 1.91547120
-0.84184778 1.04221964 2.97587109
-3.25632024 1.27441478 -0.95062172
1.61831677 1.94695437 -2.41127920
0.95941955 1.27478302 -2.89389348
-2.72967124 2.58761311 -0.63305318
-1.75997019 3.26875877 1.20831418
-0.57379347 0.59785759 3.09261513
2.34542274 3.06125832 0.60237014
0.00208537 0.14092819 3.16444468
0.01779248 1.75009513 2.87296128
-1.33996868 1.66723669 2.65181470
-2.01890421 3.42413116 -0.31676674
3.13499546 1.05861533 -1.33876312
-2.01461124 3.28735614 -0.80269426
1.08832884 0.53071475 -2.99142480
2.62150621 2.84313679 0.22605091
3.07299972 1.44785762 -1.23478031
-0.36882395 3.18550682 -2.01295304
0.61430550 3.93507624 0.88519579
-0.77605438 3.57583904 -1.47244680
0.62827075 0.62744194 3.08102298
2.68805408 -0.08053113 2.10870695
1.76892972 1.80841935 -2.39134908
-1.19664896 3.79666519 -0.76513672
1.53703415 1.19411469 -2.71662951
-0.15974219 0.58469951 -3.13247967
0.56119955 0.30252844 3.11904860
2.72411513 0.85707188 1.96890080
2.53401589 2.65469861 -1.00013208
1.83545327 2.06584215 -2.22691822
-1.97815728 3.16252828 -1.10477722
0.19488497 1.57032061 2.92785835
-2.39456415 2.95640635 0.74165332
0.40519270 2.99517417 -2.17033744
-1.20026195 2.07589221 -2.53461146
3.17518401 1.86647415 0.47670367
1.52301526 3.42003131 -1.21350086
-2.31851673 0.73647219 2.35873723
1.05335212 1.28826249 2.86542034
-1.19582450 -0.00826678 2.98705864
-2.25101495 1.31361449 -2.26219678
1.03954780 0.32271954 3.02232051
0.22905914 0.64926058 -3.12098312
0.60003895 1.67854512 -2.85003638
-1.49799347 3.77601504 -0.22677326
-3.22154903 0.51909441 -1.36309445
-3.11175537 1.63317835 -1.00825441
-3.56886029 0.57266790 0.09107039
-2.07220769 3.08494115 -1.09999347
2.39527416 0.41422799 2.34539723
2.66124749 1.66344738 1.72236717
0.33805254 0.17701356 -3.15003300
-3.34263110 1.43835461 -0.45208061
-0.23049332 0.18399763 3.15656614
0.26411498 2.24672866 2.65577006
-0.24800153 1.42862499 2.96640444
0.01820816 0.24632272 -3.16092658
0.70617807 2.61793756 2.38251400
-1.85025632 0.85154009 2.63906407
0.10364765 1.40190625 2.98066330
0.98639542 -3.82669544 -0.89983326
0.71107650 1.24084222 -2.95719337
2.21361279 3.09448743 0.84261936
0.39548129 0.46015984 -3.12804294
0.86490899 0.69468832 3.02868533
0.52164018 0.49873671 3.11010909
-0.93449384 2.95303392 -2.07646728
3.31931400 1.08708858 0.91455698
-2.90825558 1.71354055 1.34273601
-2.73175955 2.68237972 0.32287648
0.82053596 3.90745926 0.82552409
-0.09084837 -3.14029646 2.07805824
2.84267521 2.53032112 -0.29278302
-2.29995441 0.92879450 -2.33372593
-0.30633643 3.84437561 -1.18639779
-3.37993264 0.85816073 0.88627172
-0.90054172 0.74575412 -3.01306415
-0.50507206 -3.53127074 -1.61895657
-0.18682206 0.25583017 3.15594006
-2.42216992 2.73633409 -1.08080161
-0.03204718 0.35029784 -3.15494061
3.60075355 0.18483253 -0.03642069
2.07664371 2.10251331 2.03446651
1.95867014 0.15217151 2.65513992
0.63786972 3.97593188 0.75753140
1.92072380 2.96399760 -1.45005798
-3.50219011 0.76039392 -0.47262740
3.09280252 1.36874211 -1.24806690
3.16234684 0.37096545 -1.49318707
0.11277837 4.13653994 0.35252750
1.56938338 0.17057703 2.84807968
0.11368565 0.21948327 -3.16043687
-1.76309860 0.03938156 2.76158595
0.64072871 3.41206598 1.72617316
-1.53724766 0.59755725 -2.82757211
1.97160280 2.51363587 1.83745539
1.27763486 1.64866495 -2.68251419
0.19302966 0.86872786 3.09188700
2.04877853 2.76920390 -1.53296149
2.59823394 1.81339133 1.70885229
0.33022591 3.82429552 -1.21809804
3.60162020 0.09692635 -0.09683596
-2.33816552 -2.78728819 -1.14755642
3.13136673 2.04622412 -0.18673606
-0.70960712 1.97294593 -2.71794629
-1.23191714 0.06634253 -2.97599339
-2.33564949 3.17219090 0.04345213
2.90020943 1.58485079 -1.44522190
-0.54762822 0.02243822 -3.13009191
-2.98961687 -1.29630506 1.46871626
0.84244615 2.19178724 2.58836722
-3.44646144 0.99373895 -0.53720289
-2.12962341 1.71254241 -2.19821954
1.33612287 1.44609892 2.72733092
-2.31722331 3.02784014 0.76055276
0.16766421 3.14063406 -2.07391334
-3.02130795 0.17660691 1.72203934
-2.21943712 0.79773414 2.42052507
-0.04043739 2.42632914 2.57288218
1.92745829 0.65135175 2.62959504
-2.27707958 2.54755592 1.50748599
1.11415005 1.16349351 2.87822866
-2.37924480 2.48462796 1.44601357
-0.06403966 0.25623918 3.15981221
-0.84774679 0.81917107 3.01382327
-0.29118085 1.30781281 -2.99508071
1.01462483 3.98807406 -0.19737704
-1.71061933 1.27336442 2.61436248
-0.68186837 1.67312205 -2.83699870
2.53621507 2.81583786 0.69132477
3.17224145 1.96557331 0.16439012
3.21050310 1.88507164 -0.11937880
-2.22732401 2.18845367 -1.85246837
-1.76499736 2.50220394 2.00025511
-0.24129006 0.52485758 -3.13426256
-1.47393358 -1.60253239 2.62067103
0.07390879 -3.98374510 0.91835338
1.74413180 1.04013729 -2.65531468
0.54485863 4.10367823 0.24847279
-2.37950087 2.96508837 -0.75697809
0.97477925 3.33555603 1.69142616
-0.65776664 1.42692387 -2.91874862
-0.40205449 1.50765884 -2.93044925
1.28667796 0.38870722 -2.94271421
-1.46390545 1.32594562 2.71258140
-0.70313585 3.51743960 1.57914972
-3.41290832 0.36735246 0.97848374
0.34014368 -3.71846032 1.39271426
-3.55012178 0.19459370 0.52582037
2.50878286 0.32931620 -2.25915146
-0.07128499 0.86400932 -3.09691548
-1.40960217 0.36936551 2.90067458
0.24330966 1.57639015 -2.92339683
0.91404998 3.08024359 -1.97520030
0.85599595 3.80691767 1.03926682
0.49433258 -3.10443735 -2.06555033
-1.49673772 1.61742783 -2.60498881
2.75752401 0.70799387 -1.96714902
-2.62846446 1.43132389 -1.87321365
-3.33240414 1.27613878 -0.72064877
-0.03808626 3.77122378 1.34330368
-0.12828097 3.76215672 -1.35171425
2.29538965 2.49793744 1.53303897
-1.19056892 1.34523284 2.80798101
-3.22932076 1.44543934 0.87984085
-1.61686540 1.20944560 2.67627048
-0.30186087 0.58512431 3.12363863
-2.77819133 0.71466005 -1.94301045
-2.05583715 0.12052041 2.59919453
-0.25734642 0.18101278 3.15517402
0.57772774 0.09328255 -3.12461448
1.09198320 2.97996187 -1.99295616
-1.55924559 -3.01506329 -1.70126355
1.42402661 3.03511357 -1.76995814
1.44305110 -3.58528757 -0.99602979
1.03105128 1.04493034 2.92831731
-1.70737636 1.20506883 -2.63374591
0.13926771 0.16870807 -3.16172552
1.00534332 0.12660012 -3.03910065
3.51346231 0.26713768 -0.67613500
1.83876598 3.37119770 0.91792190
-0.96557701 3.99362350 -0.28889969
3.14884353 0.63892442 -1.46215498
-1.92727304 3.51868558 -0.03487089
1.63326597 2.76429462 -1.88355422
-0.20561986 1.40876985 -2.97492456
-3.20595455 -1.73995602 0.58461738
-1.98880398 3.38151836 0.60120684
-3.07199025 0.42761168 1.62419128
0.53663957 2.41014838 -2.53890371
2.59957671 2.77178907 0.60799664
-1.09838760 0.07446785 3.01527739
-0.36107120 1.41563499 2.96077704
-1.21513283 0.05809376 -2.98106384
0.38231194 3.44578242 -1.74614096
-2.99200988 1.98970342 0.91073018
-0.43861294 2.49045444 2.50853276
1.57486272 0.52319920 -2.81987524
3.10039926 2.10990787 -0.17826663
2.81660843 0.52873838 1.93401539
2.09906697 2.18696618 -1.96557319
-1.37348688 3.73112726 -0.72403961
3.07745814 2.11369491 0.36811426
2.80669737 2.56300735 0.38695446
2.71599960 0.70311689 2.01126218
0.18130259 3.98889899 -0.89438266
3.42778492 0.11445622 -0.97403467
-1.49855149 3.54367089 1.01864648
2.96168423 0.22519501 -1.79573381
-2.34974837 -2.26313901 -1.67364013
0.44517282 4.13082361 -0.09477308
2.09523582 2.97242022 1.23697484
-0.18262717 1.78800201 2.85584521
1.10356212 0.07703384 -3.01373148
0.54803693 -3.60692883 1.50673187
-0.55366266 3.85573673 1.09286487
1.10490286 3.76245403 -0.94798076
-0.70354301 -2.28198385 2.57509446
0.30822864 1.72124445 -2.87040615
-0.18209119 0.39057982 -3.14862251
-2.32642746 0.30288371 -2.40764451
1.41054785 3.33908892 -1.42993176
-0.20835792 0.41321144 3.14532423
1.05893564 0.44039682 -3.00792742
-2.91800189 -0.63795578 1.79363739
-0.86181474 3.77290416 -1.10649049
-0.44378349 3.73217392 1.34829891
-0.38547128 1.35973823 -2.97427368
-2.19774747 2.35984850 -1.75411975
-3.04706764 2.12178493 -0.50485039
0.42439258 1.18796384 -3.01174045
-1.95253849 -0.57543314 -2.62562609
0.19174539 3.99300313 -0.88244551
3.45924568 1.16020775 -0.10974230
-0.31554189 1.12943137 -3.03519320
3.07181501 1.60888100 1.11573195
-2.98610616 1.11652350 -1.55710971
2.26972628 1.67112672 -2.10636592
-0.07686096 1.56307292 2.93407273
1.47586191 0.16293930 -2.88589430
-0.28931153 2.73090053 -2.37651253
3.41484642 -1.31625354 -0.14468080
-2.82980418 2.16716504 1.06203473
0.99578655 2.88164783 -2.11244297
0.52376503 0.13493833 3.13181305
2.70618176 0.54863119 2.04875970
0.34997898 0.91350198 -3.07416725
-0.91558343 0.33108753 -3.05191040
0.39369220 0.62890422 -3.11092281
1.72288275 3.50400758 -0.79602993
-2.79312992 -1.70321512 1.52486718
-2.89445996 1.52840936 -1.48639977
0.72788274 3.56133032 -1.51141703
0.19295311 0.36540064 -3.15010786
-0.68487781 3.66748881 1.37403846
3 187 149 48
3 48 87 187
3 48 149 76
3 156 78 173
3 242 22 215
3 215 175 242
3 251 187 137
3 210 221 232
3 232 173 210
3 156 173 232
3 46 221 210
3 210 187 46
3 46 187 87
3 103 187 210
3 210 173 103
3 137 187 103
3 103 78 137
3 103 173 78
3 137 78 61
3 61 215 137
3 175 215 61
3 61 78 156
3 156 175 61
3 171 156 178
3 171 214 156
3 242 175 209
3 136 251 218
3 82 68 22
3 82 242 102
3 82 22 242
3 22 68 200
3 149 187 110
3 187 251 110
3 178 156 109
3 156 232 109
3 112 46 87
3 112 87 48
3 137 215 148
3 28 236 51
3 28 200 68
3 68 236 28
3 246 50 22
3 22 200 246
3 225 110 251
3 225 251 136
3 136 169 225
3 169 117 225
3 150 175 156
3 150 209 175
3 83 28 51
3 83 163 96
3 71 181 127
3 8 250 127
3 127 181 8
3 118 169 59
3 196 69 243
3 84 215 22
3 22 50 84
3 72 91 218
3 72 148 215
3 215 84 72
3 72 84 91
3 137 148 72
3 72 251 137
3 72 218 251
3 176 91 122
3 114 39 122
3 122 39 176
3 1 7 193
3 193 7 167
3 58 119 55
3 102 242 180
3 180 82 102
3 200 28 205
3 205 246 200
3 205 28 50
3 50 246 205
3 189 69 76
3 147 225 117
3 117 189 147
3 149 110 147
3 110 225 147
3 147 76 149
3 147 189 76
3 52 171 178
3 198 15 25
3 209 150 158
3 158 150 238
3 194 248 109
3 194 106 248
3 194 109 232
3 232 106 194
3 51 236 100
3 236 163 100
3 100 83 51
3 163 83 100
3 130 163 236
3 96 163 212
3 163 130 212
3 155 181 71
3 111 96 58
3 111 83 96
3 114 83 111
3 58 55 111
3 111 39 114
3 93 59 169
3 93 169 136
3 59 93 152
3 76 69 165
3 69 196 165
3 48 76 165
3 91 84 120
3 114 122 120
3 120 122 91
3 120 84 50
3 120 83 114
3 50 28 120
3 28 83 120
3 136 218 170
3 170 7 192
3 167 7 170
3 218 91 245
3 134 69 118
3 73 199 104
3 36 236 68
3 82 180 234
3 68 82 234
3 234 36 68
3 118 69 38
3 69 189 38
3 38 189 117
3 38 169 118
3 38 117 169
3 221 46 168
3 133 159 252
3 95 232 221
3 95 106 232
3 95 177 77
3 77 248 95
3 248 106 95
3 113 159 133
3 31 67 229
3 133 252 229
3 244 3 190
3 217 127 250
3 254 52 178
3 171 52 64
3 52 254 64
3 214 171 179
3 138 198 25
3 150 198 138
3 238 150 138
3 15 198 144
3 108 158 238
3 108 238 201
3 201 99 108
3 141 212 181
3 141 155 94
3 181 155 141
3 96 212 141
3 94 58 141
3 58 96 141
3 63 130 8
3 63 212 130
3 8 181 63
3 181 212 63
3 11 145 164
3 164 193 11
3 1 193 164
3 145 152 164
3 118 59 128
3 128 145 11
3 128 134 118
3 11 134 128
3 125 152 192
3 192 7 125
3 125 7 1
3 1 164 125
3 125 164 152
3 192 152 40
3 40 152 93
3 40 93 136
3 136 170 40
3 40 170 192
3 59 152 166
3 166 152 145
3 166 128 59
3 145 128 166
3 98 66 21
3 21 176 98
3 21 65 176
3 98 167 223
3 167 170 223
3 9 170 218
3 218 245 9
3 9 245 66
3 42 245 91
3 42 91 176
3 176 65 42
3 65 21 42
3 243 69 123
3 69 134 123
3 123 33 243
3 0 58 94
3 0 119 58
3 94 155 161
3 161 0 94
3 227 0 161
3 6 134 146
3 146 0 227
3 6 146 208
3 70 196 243
3 243 33 70
3 11 193 213
3 213 55 119
3 213 10 55
3 98 176 60
3 32 111 55
3 55 10 32
3 39 111 32
3 176 39 32
3 32 60 176
3 16 250 8
3 16 73 250
3 36 234 131
3 159 168 237
3 237 252 159
3 237 168 46
3 74 168 159
3 221 168 74
3 74 95 221
3 177 95 74
3 31 229 49
3 49 14 31
3 80 229 252
3 80 47 5
3 252 47 80
3 80 49 229
3 25 15 4
3 190 3 97
3 97 44 190
3 97 4 44
3 25 4 97
3 253 217 222
3 201 238 30
3 211 127 233
3 127 217 233
3 35 113 133
3 133 229 35
3 35 229 67
3 92 254 178
3 81 220 26
3 26 220 135
3 135 248 77
3 109 248 135
3 135 220 109
3 224 179 171
3 171 64 224
3 15 144 224
3 249 15 224
3 224 64 249
3 214 179 224
3 224 144 214
3 207 180 242
3 242 209 207
3 209 89 207
3 238 138 23
3 23 30 238
3 3 30 23
3 23 138 25
3 25 97 23
3 23 97 3
3 214 144 240
3 240 144 198
3 240 198 150
3 156 214 240
3 240 150 156
3 158 108 13
3 180 207 13
3 67 18 241
3 241 35 67
3 241 18 116
3 98 223 124
3 124 66 98
3 124 9 66
3 27 21 66
3 27 42 21
3 66 245 27
3 245 42 27
3 121 134 6
3 121 123 134
3 119 0 197
3 0 146 197
3 197 146 134
3 197 134 11
3 11 213 197
3 197 213 119
3 227 161 216
3 161 90 216
3 6 208 188
3 188 208 45
3 98 60 56
3 56 167 98
3 56 193 167
3 56 213 193
3 199 73 204
3 73 16 204
3 132 131 234
3 132 17 104
3 132 234 17
3 104 199 132
3 199 131 132
3 5 47 230
3 230 70 5
3 196 70 230
3 46 112 2
3 2 237 46
3 252 237 2
3 2 47 252
3 159 113 41
3 41 74 159
3 41 113 177
3 177 74 41
3 14 49 140
3 49 80 140
3 140 80 5
3 12 14 140
3 62 15 249
3 62 4 15
3 44 4 62
3 26 135 235
3 77 142 235
3 235 135 77
3 250 86 37
3 37 86 222
3 37 217 250
3 222 217 37
3 99 86 29
3 29 108 99
3 250 73 29
3 29 86 250
3 17 108 29
3 104 17 29
3 29 73 104
3 185 86 99
3 185 99 201
3 201 30 185
3 3 244 185
3 185 30 3
3 116 18 195
3 154 253 222
3 154 195 253
3 217 253 101
3 101 233 217
3 253 195 101
3 143 142 129
3 177 113 157
3 113 35 157
3 157 35 129
3 129 142 157
3 77 177 157
3 157 142 77
3 220 81 57
3 178 109 57
3 109 220 57
3 57 92 178
3 254 92 57
3 57 81 254
3 158 13 183
3 209 158 183
3 183 89 209
3 183 207 89
3 183 13 207
3 88 108 17
3 88 13 108
3 180 13 88
3 88 234 180
3 17 234 88
3 20 18 67
3 20 67 31
3 31 226 20
3 182 216 90
3 182 90 211
3 211 233 182
3 45 208 182
3 208 216 182
3 31 14 202
3 202 226 31
3 12 45 202
3 202 14 12
3 45 182 202
3 170 9 54
3 9 124 54
3 19 90 161
3 19 85 90
3 19 161 155
3 19 155 71
3 71 85 19
3 211 90 139
3 90 85 139
3 139 127 211
3 71 127 139
3 139 85 71
3 255 208 146
3 255 216 208
3 255 146 227
3 227 216 255
3 6 188 115
3 115 121 6
3 33 123 115
3 123 121 115
3 107 70 33
3 33 115 107
3 107 115 188
3 5 70 107
3 12 140 107
3 107 140 5
3 184 45 12
3 184 188 45
3 12 107 184
3 184 107 188
3 10 213 239
3 213 56 239
3 239 56 60
3 239 32 10
3 60 32 239
3 191 204 16
3 8 130 191
3 191 16 8
3 191 130 236
3 203 131 199
3 199 204 203
3 36 131 203
3 204 191 203
3 236 36 203
3 203 191 236
3 53 230 47
3 53 112 48
3 48 165 53
3 53 165 196
3 196 230 53
3 151 235 186
3 26 235 151
3 222 86 174
3 86 185 174
3 174 154 222
3 116 195 34
3 195 154 34
3 34 154 244
3 34 244 190
3 34 241 116
3 190 241 34
3 233 101 206
3 206 182 233
3 105 143 129
3 129 35 105
3 35 241 105
3 228 235 142
3 142 143 228
3 228 143 186
3 162 101 195
3 162 195 18
3 18 20 162
3 162 206 101
3 24 182 226
3 226 202 24
3 24 202 182
3 79 124 223
3 79 54 124
3 79 223 170
3 170 54 79
3 47 2 160
3 160 53 47
3 160 2 112
3 112 53 160
3 44 62 231
3 231 153 44
3 231 151 186
3 186 153 231
3 190 44 219
3 44 153 219
3 219 241 190
3 219 105 241
3 143 105 219
3 186 143 219
3 219 153 186
3 244 154 172
3 154 174 172
3 172 185 244
3 172 174 185
3 186 235 126
3 126 228 186
3 235 228 126
3 206 162 75
3 226 182 75
3 182 206 75
3 75 20 226
3 75 162 20
3 247 62 249
3 247 231 62
3 151 231 247
3 43 247 249
3 151 247 43
3 249 64 43
3 43 64 254
3 26 151 43
3 43 81 26
3 254 81 43