ply
format ascii 1.0
comment https://github.com/mikedh/trimesh
element vertex 256
property float x
property float y
property float z
element face 508
property list uchar int vertex_indices
end_header
0.16358681 3.36341238 0.81582254
-1.09545219 1.05826080 1.26745975
-4.23727798 1.29402971 -0.40488139
2.10583043 1.97692049 -1.02699316
1.24844217 1.29440355 -1.23254454
-3.55197763 2.62743974 -0.26962507
-2.29015660 3.31906915 0.51463574
-0.74664724 0.60705942 1.31718254
3.05197501 3.10837507 0.25655678
0.00271358 0.14309727 1.34777558
0.02315242 1.77703142 1.22362924
-1.74363065 1.69289768 1.12944019
-2.62709355 3.47683287 -0.13491482
4.07940435 1.07490885 -0.57019556
-2.62150741 3.33795285 -0.34187728
1.41618514 0.53888315 -1.27408421
3.41122794 2.88689637 0.09627784
3.99873257 1.47014201 -0.52590799
-0.47993118 3.23453593 -0.85734129
0.79936337 3.99564219 0.37701568
-1.00983870 3.63087583 -0.62713307
0.81753564 0.63709909 1.31224525
3.49782300 -0.08177061 0.89812398
2.30181527 1.83625317 -1.01850474
-1.55713630 3.85510087 -0.32588106
2.00006151 1.21249366 -1.15704560
-0.20786411 0.59369880 -1.33416128
0.73025942 0.30718476 1.32844090
3.54474759 0.87026328 0.83857882
3.29738140 2.69555783 -0.42596844
2.38837862 2.09763813 -0.94847167
-2.57407188 3.21120358 -0.47053808
0.25359356 1.59448981 1.24701059
-3.11592031 3.00190926 0.31587920
0.52725595 3.04127359 -0.92437315
-1.56183767 2.10784292 -1.07952189
4.13169956 1.89520156 0.20303391
1.98181951 3.47267008 -0.51684481
-3.01696372 0.74780744 1.00461495
1.37067175 1.30809045 1.22041738
-1.55606353 -0.00839402 1.27222478
-2.92912722 1.33383274 -0.96349722
1.35270882 0.32768664 1.28724313
0.29806259 0.65925360 -1.32926476
0.78079909 1.70438015 -1.21386528
-1.94926000 3.83413267 -0.09658550
-4.19203234 0.52708399 -0.58055854
-4.04916334 1.65831506 -0.42942786
-4.64397001 0.58148199 0.03878799
-2.69645476 3.13242245 -0.46850061
3.11684418 0.42060348 0.99893326
3.46294117 1.68904996 0.73357719
0.43988997 0.17973803 -1.34163749
-4.34958982 1.46049285 -0.19254664
-0.29992884 0.18682960 1.34441996
0.34367892 2.28130865 1.13112485
-0.32271135 1.45061338 1.26342785
0.02369331 0.25011396 -1.34627712
0.91891229 2.65823102 1.01474178
-2.40764117 0.86464643 1.12400961
0.13487123 1.42348349 1.26950085
1.28354442 -3.88559341 -0.38324997
0.92528641 1.25994039 -1.25950468
2.88045788 3.14211559 0.35888186
0.51461899 0.46724230 -1.33227170
1.12546051 0.70538044 1.28995407
0.67878294 0.50641292 1.32463348
-1.21600759 2.99848509 -0.88439274
4.31924868 1.10382032 0.38952097
-3.78435969 1.73991418 0.57188761
-3.55469489 2.72366500 0.13751704
1.06772029 3.96760011 0.35160077
-0.11821621 -3.18862963 0.88507038
3.69902372 2.56926584 -0.12469987
-2.99280953 0.94308990 -0.99396235
-0.39861944 3.90354562 -0.50530130
-4.39812851 0.87136894 0.37747392
-1.17182755 0.75723225 -1.28330076
-0.65722370 -3.58562160 -0.68953335
-0.24310172 0.25976774 1.34415340
-3.15184212 2.77845001 -0.46032658
-0.04170131 0.35568938 -1.34372771
4.68547106 0.18767734 -0.01551202
2.70222712 2.13487387 0.86650413
2.54871416 0.15451363 1.13085651
0.83002627 4.03712654 0.32264185
2.49933672 3.00961733 -0.61759740
-4.55721569 0.77209735 -0.20129777
4.02450085 1.38980877 -0.53156692
4.11499548 0.37667510 -0.63596660
0.14675257 4.20020676 0.15014575
2.04215598 0.17320243 1.21303189
0.14793314 0.22286141 -1.34606862
-2.29422736 0.03998770 1.17619312
0.83374649 3.46458220 0.73519820
-2.00033951 0.60675442 -1.20429742
2.56554294 2.55232406 0.78259468
1.66251898 1.67404008 -1.14251554
0.25117934 0.88209873 1.31687236
2.66596746 2.81182551 -0.65290701
3.38094497 1.84130180 0.72782099
0.42970559 3.88315654 -0.51880282
4.68659878 0.09841817 -0.04124362
-3.04253173 -2.83018827 -0.48875827
4.07468271 2.07771826 -0.07953316
-0.92337441 2.00331211 -1.15760648
-1.60302889 0.06736363 -1.26751184
-3.03925753 3.22101521 0.01850679
3.77388978 1.60924375 -0.61553764
-0.71259975 0.02278357 -1.33314431
-3.89023089 -1.31625688 0.62554413
1.09623086 2.22552156 1.10241723
-4.48469877 1.00903392 -0.22880128
-2.77116680 1.73890066 -0.93624854
1.73862636 1.46835625 1.16160357
-3.01528072 3.07444263 0.32392871
0.21817261 3.18897247 -0.88330495
-3.93146896 0.17932512 0.73343754
-2.88803673 0.81001234 1.03093112
-0.05261905 2.46367359 1.09582186
2.50810003 0.66137689 1.11997664
-2.96304369 2.58676600 0.64205664
1.44978487 1.18140125 1.22587264
-3.09598589 2.52286959 0.61587483
-0.08333143 0.26018301 1.34580255
-1.10312831 0.83177918 1.28362417
-0.37889829 1.32794166 -1.27564144
1.32027793 4.04945564 -0.08406529
-2.22593880 1.29296315 1.11348891
-0.88727939 1.69887352 -1.20831239
3.30024314 2.85917735 0.29444367
4.12787056 1.99582601 0.07001575
4.17765856 1.91408539 -0.05084489
-2.89829946 2.22213697 -0.78898883
-2.29669833 2.54071617 0.85193306
-0.31397808 0.53293586 -1.33492064
-1.91795218 -1.62719750 1.11617577
0.09617362 -4.04506016 0.39113790
2.26954699 1.05614638 -1.13093090
0.70899582 4.16683912 0.10582759
-3.09631920 3.01072478 -0.32240620
1.26842892 3.38689446 0.72039902
-0.85591710 1.44888616 -1.24313068
-0.52317232 1.53086364 -1.24811399
1.67428625 0.39468995 -1.25333786
-1.90490317 1.34635365 1.15532148
-0.91495371 3.57157755 0.67257911
-4.44103813 0.37300649 0.41674817
0.44261107 -3.77569246 0.59317398
-4.61958647 0.19758874 0.22395332
3.26454711 0.33438480 -0.96220011
-0.09275941 0.87730753 -1.31901407
-1.83424115 0.37505051 1.23543262
0.31660604 1.60065281 -1.24511039
1.18940508 3.12765265 -0.84126192
1.11386251 3.86551118 0.44263640
0.64324892 -3.15221882 -0.87974310
-1.94762599 1.64232218 -1.10949647
3.58822083 0.71889079 -0.83783275
-3.42028236 1.45335388 -0.79782456
-4.33628225 1.29578018 -0.30693310
-0.04955965 3.82926798 0.57212943
-0.16692527 3.82006121 -0.57571155
2.98686981 2.53638411 0.65294003
-1.54922462 1.36593771 1.19595337
-4.20214510 1.46768653 0.37473497
-2.10394192 1.22806048 1.13985622
-0.39279565 0.59413010 1.33039582
-3.61511397 0.72565961 -0.82755184
-2.67515278 0.12237537 1.10702860
-0.33487135 0.18379880 1.34382713
0.75176668 0.09471828 -1.33081138
1.42094028 3.02582741 -0.84882432
-2.02896428 -3.06146908 -0.72458887
1.85301077 3.08182788 -0.75384676
1.87776637 -3.64046979 -0.42422125
1.34165275 1.06101322 1.24720597
-2.22171903 1.22361636 -1.12174451
0.18122174 0.17130470 -1.34661746
1.30820024 0.12854865 -1.29438996
4.57188368 0.27124926 -0.28797415
2.39268947 3.42308474 0.39095414
-1.25645459 4.05509043 -0.12304591
4.09742451 0.64875829 -0.62274963
-2.50785899 3.57284284 -0.01485194
2.12528300 2.80684066 -0.80222875
-0.26756230 1.43045259 -1.26705658
-4.17173958 -1.76673627 0.24899566
-2.58792591 3.43356419 0.25606132
-3.99741936 0.43419316 0.69176286
0.69830084 2.44724369 -1.08135009
3.38269234 2.81445050 0.25895318
-1.42927396 0.07561401 1.28424335
-0.46984291 1.43742347 1.26103103
-1.58118844 0.05898790 -1.26967144
0.49748242 3.49881768 -0.74370271
-3.89334512 2.02032757 0.38789108
-0.57074392 2.52878571 1.06841469
2.04928589 0.53125197 -1.20101929
4.03438616 2.14238214 -0.07592593
3.66510415 0.53687638 0.82372075
2.73140550 2.22062659 -0.83716160
-1.78724623 3.78855395 -0.30837730
4.00453424 2.14622736 0.15678436
3.65220737 2.60245538 0.16480862
3.53418732 0.71393877 0.85662115
0.23591951 4.05029345 -0.38092849
4.46039581 0.11621785 -0.41485325
-1.94998622 3.59821272 0.43385392
3.85388374 0.22866105 -0.76482493
-3.05760384 -2.29797173 -0.71282375
0.57927996 4.19440269 -0.04036501
2.72642016 3.01816964 0.52684265
-0.23764312 1.81552172 1.21633923
1.43600738 0.07821950 -1.28358495
0.71313167 -3.66244411 0.64173549
-0.72045207 3.91508150 0.46546447
1.43775189 3.82036328 -0.40375656
-0.91548347 -2.31710649 1.09676409
0.40108168 1.74773669 -1.22254097
-0.23694567 0.39659137 -1.34103668
-3.02725768 0.30754548 -1.02544522
1.83547163 3.39048171 -0.60902536
-0.27112517 0.41957131 1.33963203
1.37793720 0.44717509 -1.28111291
-3.79704213 -0.64777476 0.76393205
-1.12143409 3.83097410 -0.47126779
-0.57747209 3.78961706 0.57425696
-0.50159347 1.38066638 -1.26677942
-2.85981321 2.39616966 -0.74710101
-3.96498871 2.15444207 -0.21502195
0.55223972 1.20624816 -1.28273702
-2.54073548 -0.58428979 -1.11828613
0.24950817 4.05446053 -0.37584430
4.50133419 1.17806482 -0.04674058
-0.41059804 1.14681470 -1.29272580
3.99719119 1.63364375 0.47520387
-3.88566279 1.13370824 -0.66319203
2.95347524 1.69684756 -0.89712697
-0.10001512 1.58713055 1.24965739
1.92046142 0.16544713 -1.22913754
-0.37646589 2.77293277 -1.01218569
4.44355965 -1.33651233 -0.06162132
-3.68227530 2.20052052 0.45233351
1.29576457 2.92600012 -0.89971524
0.68154788 0.13701519 1.33387744
3.52141190 0.55707532 0.87259173
0.45540923 0.92756194 -1.30932534
-1.19140053 0.33618340 -1.29984581
0.51229089 0.63858384 -1.32498002
2.24189663 3.55793881 -0.33903885
-3.63455272 -1.72942984 0.64945954
-3.76640844 1.55193353 -0.63307577
0.94715554 3.61614370 -0.64373094
0.25107971 0.37102464 -1.34166932
-0.89119542 3.72393632 0.58521974
3 187 149 48
3 48 87 187
3 48 149 76
3 156 78 173
3 242 22 215
3 215 175 242
3 251 187 137
3 210 221 232
3 232 173 210
3 156 173 232
3 46 221 210
3 210 187 46
3 46 187 87
3 103 187 210
3 210 173 103
3 137 187 103
3 103 78 137
3 103 173 78
3 137 78 61
3 61 215 137
3 175 215 61
3 61 78 156
3 156 175 61
3 171 156 178
3 171 214 156
3 242 175 209
3 136 251 218
3 82 68 22
3 82 242 102
3 82 22 242
3 22 68 200
3 149 187 110
3 187 251 110
3 178 156 109
3 156 232 109
3 112 46 87
3 112 87 48
3 137 215 148
3 28 236 51
3 28 200 68
3 68 236 28
3 246 50 22
3 22 200 246
3 225 110 251
3 225 251 136
3 136 169 225
3 169 117 225
3 150 175 156
3 150 209 175
3 83 28 51
3 83 163 96
3 71 181 127
3 8 250 127
3 127 181 8
3 118 169 59
3 196 69 243
3 84 215 22
3 22 50 84
3 72 91 218
3 72 148 215
3 215 84 72
3 72 84 91
3 137 148 72
3 72 251 137
3 72 218 251
3 176 91 122
3 114 39 122
3 122 39 176
3 1 7 193
3 193 7 167
3 58 119 55
3 102 242 180
3 180 82 102
3 200 28 205
3 205 246 200
3 205 28 50
3 50 246 205
3 189 69 76
3 147 225 117
3 117 189 147
3 149 110 147
3 110 225 147
3 147 76 149
3 147 189 76
3 52 171 178
3 198 15 25
3 209 150 158
3 158 150 238
3 194 248 109
3 194 106 248
3 194 109 232
3 232 106 194
3 51 236 100
3 236 163 100
3 100 83 51
3 163 83 100
3 130 163 236
3 96 163 212
3 163 130 212
3 155 181 71
3 111 96 58
3 111 83 96
3 114 83 111
3 58 55 111
3 111 39 114
3 93 59 169
3 93 169 136
3 59 93 152
3 76 69 165
3 69 196 165
3 48 76 165
3 91 84 120
3 114 122 120
3 120 122 91
3 120 84 50
3 120 83 114
3 50 28 120
3 28 83 120
3 136 218 170
3 170 7 192
3 167 7 170
3 218 91 245
3 134 69 118
3 73 199 104
3 36 236 68
3 82 180 234
3 68 82 234
3 234 36 68
3 118 69 38
3 69 189 38
3 38 189 117
3 38 169 118
3 38 117 169
3 221 46 168
3 133 159 252
3 95 232 221
3 95 106 232
3 95 177 77
3 77 248 95
3 248 106 95
3 113 159 133
3 31 67 229
3 133 252 229
3 244 3 190
3 217 127 250
3 254 52 178
3 171 52 64
3 52 254 64
3 214 171 179
3 138 198 25
3 150 198 138
3 238 150 138
3 15 198 144
3 108 158 238
3 108 238 201
3 201 99 108
3 141 212 181
3 141 155 94
3 181 155 141
3 96 212 141
3 94 58 141
3 58 96 141
3 63 130 8
3 63 212 130
3 8 181 63
3 181 212 63
3 11 145 164
3 164 193 11
3 1 193 164
3 145 152 164
3 118 59 128
3 128 145 11
3 128 134 118
3 11 134 128
3 125 152 192
3 192 7 125
3 125 7 1
3 1 164 125
3 125 164 152
3 192 152 40
3 40 152 93
3 40 93 136
3 136 170 40
3 40 170 192
3 59 152 166
3 166 152 145
3 166 128 59
3 145 128 166
3 98 66 21
3 21 176 98
3 21 65 176
3 98 167 223
3 167 170 223
3 9 170 218
3 218 245 9
3 9 245 66
3 42 245 91
3 42 91 176
3 176 65 42
3 65 21 42
3 243 69 123
3 69 134 123
3 123 33 243
3 0 58 94
3 0 119 58
3 94 155 161
3 161 0 94
3 227 0 161
3 6 134 146
3 146 0 227
3 6 146 208
3 70 196 243
3 243 33 70
3 11 193 213
3 213 55 119
3 213 10 55
3 98 176 60
3 32 111 55
3 55 10 32
3 39 111 32
3 176 39 32
3 32 60 176
3 16 250 8
3 16 73 250
3 36 234 131
3 159 168 237
3 237 252 159
3 237 168 46
3 74 168 159
3 221 168 74
3 74 95 221
3 177 95 74
3 31 229 49
3 49 14 31
3 80 229 252
3 80 47 5
3 252 47 80
3 80 49 229
3 25 15 4
3 190 3 97
3 97 44 190
3 97 4 44
3 25 4 97
3 253 217 222
3 201 238 30
3 211 127 233
3 127 217 233
3 35 113 133
3 133 229 35
3 35 229 67
3 92 254 178
3 81 220 26
3 26 220 135
3 135 248 77
3 109 248 135
3 135 220 109
3 224 179 171
3 171 64 224
3 15 144 224
3 249 15 224
3 224 64 249
3 214 179 224
3 224 144 214
3 207 180 242
3 242 209 207
3 209 89 207
3 238 138 23
3 23 30 238
3 3 30 23
3 23 138 25
3 25 97 23
3 23 97 3
3 214 144 240
3 240 144 198
3 240 198 150
3 156 214 240
3 240 150 156
3 158 108 13
3 180 207 13
3 67 18 241
3 241 35 67
3 241 18 116
3 98 223 124
3 124 66 98
3 124 9 66
3 27 21 66
3 27 42 21
3 66 245 27
3 245 42 27
3 121 134 6
3 121 123 134
3 119 0 197
3 0 146 197
3 197 146 134
3 197 134 11
3 11 213 197
3 197 213 119
3 227 161 216
3 161 90 216
3 6 208 188
3 188 208 45
3 98 60 56
3 56 167 98
3 56 193 167
3 56 213 193
3 199 73 204
3 73 16 204
3 132 131 234
3 132 17 104
3 132 234 17
3 104 199 132
3 199 131 132
3 5 47 230
3 230 70 5
3 196 70 230
3 46 112 2
3 2 237 46
3 252 237 2
3 2 47 252
3 159 113 41
3 41 74 159
3 41 113 177
3 177 74 41
3 14 49 140
3 49 80 140
3 140 80 5
3 12 14 140
3 62 15 249
3 62 4 15
3 44 4 62
3 26 135 235
3 77 142 235
3 235 135 77
3 250 86 37
3 37 86 222
3 37 217 250
3 222 217 37
3 99 86 29
3 29 108 99
3 250 73 29
3 29 86 250
3 17 108 29
3 104 17 29
3 29 73 104
3 185 86 99
3 185 99 201
3 201 30 185
3 3 244 185
3 185 30 3
3 116 18 195
3 154 253 222
3 154 195 253
3 217 253 101
3 101 233 217
3 253 195 101
3 143 142 129
3 177 113 157
3 113 35 157
3 157 35 129
3 129 142 157
3 77 177 157
3 157 142 77
3 220 81 57
3 178 109 57
3 109 220 57
3 57 92 178
3 254 92 57
3 57 81 254
3 158 13 183
3 209 158 183
3 183 89 209
3 183 207 89
3 183 13 207
3 88 108 17
3 88 13 108
3 180 13 88
3 88 234 180
3 17 234 88
3 20 18 67
3 20 67 31
3 31 226 20
3 182 216 90
3 182 90 211
3 211 233 182
3 45 208 182
3 208 216 182
3 31 14 202
3 202 226 31
3 12 45 202
3 202 14 12
3 45 182 202
3 170 9 54
3 9 124 54
3 19 90 161
3 19 85 90
3 19 161 155
3 19 155 71
3 71 85 19
3 211 90 139
3 90 85 139
3 139 127 211
3 71 127 139
3 139 85 71
3 255 208 146
3 255 216 208
3 255 146 227
3 227 216 255
3 6 188 115
3 115 121 6
3 33 123 115
3 123 121 115
3 107 70 33
3 33 115 107
3 107 115 188
3 5 70 107
3 12 140 107
3 107 140 5
3 184 45 12
3 184 188 45
3 12 107 184
3 184 107 188
3 10 213 239
3 213 56 239
3 239 56 60
3 239 32 10
3 60 32 239
3 191 204 16
3 8 130 191
3 191 16 8
3 191 130 236
3 203 131 199
3 199 204 203
3 36 131 203
3 204 191 203
3 236 36 203
3 203 191 236
3 53 230 47
3 53 112 48
3 48 165 53
3 53 165 196
3 196 230 53
3 151 235 186
3 26 235 151
3 222 86 174
3 86 185 174
3 174 154 222
3 116 195 34
3 195 154 34
3 34 154 244
3 34 244 190
3 34 241 116
3 190 241 34
3 233 101 206
3 206 182 233
3 105 143 129
3 129 35 105
3 35 241 105
3 228 235 142
3 142 143 228
3 228 143 186
3 162 101 195
3 162 195 18
3 18 20 162
3 162 206 101
3 24 182 226
3 226 202 24
3 24 202 182
3 79 124 223
3 79 54 124
3 79 223 170
3 170 54 79
3 47 2 160
3 160 53 47
3 160 2 112
3 112 53 160
3 44 62 231
3 231 153 44
3 231 151 186
3 186 153 231
3 190 44 219
3 44 153 219
3 219 241 190
3 219 105 241
3 143 105 219
3 186 143 219
3 219 153 186
3 244 154 172
3 154 174 172
3 172 185 244
3 172 174 185
3 186 235 126
3 126 228 186
3 235 228 126
3 206 162 75
3 226 182 75
3 182 206 75
3 75 20 226
3 75 162 20
3 247 62 249
3 247 231 62
3 151 231 247
3 43 247 249
3 151 247 43
3 249 64 43
3 43 64 254
3 26 151 43
3 43 81 26
3 254 81 43