ply
format ascii 1.0
comment https://github.com/mikedh/trimesh
element vertex 256
property float x
property float y
property float z
element face 508
property list uchar int vertex_indices
end_header
0.07507946 1.39722598 2.89764857
-0.50276649 0.43962181 4.50177956
-1.94473255 0.53756469 -1.43806267
0.96648765 0.82125068 -3.64768720
0.57298249 0.53772002 -4.37776709
-1.63020837 1.09148884 -0.95765764
-1.05108559 1.37880492 1.82788956
-0.34267968 0.25218412 4.67838526
1.40072823 1.29127860 0.91124153
0.00124542 0.05944534 4.78704596
0.01062599 0.73821288 4.34610176
-0.80025321 0.70326215 4.01155949
-1.20572555 1.44434297 -0.47919211
1.87227511 0.44653773 -2.02522755
-1.20316172 1.38664949 -1.21428394
0.64996940 0.22386238 -4.52530813
1.56561029 1.19927204 0.34196082
1.83525014 0.61072516 -1.86792660
-0.22026823 1.34368825 -3.04511523
0.36687419 1.65986633 1.33908904
-0.46347350 1.50833535 -2.22745895
0.37521449 0.26466319 4.66084909
1.60535371 -0.03396908 3.18996787
1.05643642 0.76281476 -3.61753774
-0.71466011 1.60148275 -1.15746844
0.91794419 0.50369310 -4.10960913
-0.09540088 0.24663387 -4.73869085
0.33515838 0.12761043 4.71837282
1.62689006 0.36152405 2.97847462
1.51335943 1.11978638 -1.51295996
1.09616542 0.87139910 -3.36879349
-1.18139088 1.33399546 -1.67126298
0.11638878 0.66238165 4.42914772
-1.43007648 1.24705064 1.12194359
0.24198830 1.26340342 -3.28320003
-0.71681786 0.87563837 -3.83425927
1.89627647 0.78730303 0.72113836
0.90957189 1.44261372 -1.83573580
-1.38465953 0.31065354 3.56820393
0.62908071 0.54340583 4.33469391
-0.71416771 -0.00348704 4.51870346
-1.34434628 0.55409968 -3.42216134
0.62083650 0.13612731 4.57204628
0.13679820 0.27386656 -4.72129917
0.35835394 0.70803213 -4.31142187
-0.89462841 1.59277225 -0.34305358
-1.92396653 0.21896078 -2.06203485
-1.85839570 0.68889588 -1.52524722
-2.13138700 0.24155878 0.13776766
-1.23755932 1.30126822 -1.66402626
1.43050039 0.17472675 3.54802346
1.58934438 0.70166373 2.60552835
0.20189101 0.07466663 -4.76524448
-1.99627888 0.60671669 -0.68388957
-0.13765472 0.07761259 4.77512741
0.15773417 0.94769931 4.01754332
-0.14811094 0.60261256 4.48745871
0.01087424 0.10390212 -4.78172398
0.42174211 1.10428011 3.60417247
-1.10500610 0.35919070 3.99227118
0.06190022 0.59134233 4.50902891
0.58909297 -1.61414993 -1.36123192
0.42466757 0.52340341 -4.47352457
1.32200909 1.30529511 1.27468109
0.23618847 0.19410141 -4.73197889
0.51653904 0.29302856 4.58167458
0.31153283 0.21037363 4.70484924
-0.55809635 1.24562812 -3.14119697
1.98235357 0.45854813 1.38350534
-1.73686206 0.72279370 2.03123760
-1.63145554 1.13146257 0.48843470
0.49003869 1.64821720 1.24881995
-0.05425627 -1.32461786 3.14360404
1.69769633 1.06732225 -0.44291052
-1.37357378 0.39177760 -3.53036761
-0.18294957 1.62160766 -1.79473543
-2.01855612 0.36198336 1.34071660
-0.53781956 0.31456879 -4.55804348
-0.30163804 -1.48953593 -2.44909310
-0.11157347 0.10791250 4.77418041
-1.44656301 1.15422130 -1.63499367
-0.01913915 0.14776018 -4.77266884
2.15043426 0.07796476 -0.05509577
1.24020875 0.88686752 3.07766008
1.16975272 0.06418792 4.01659012
0.38094714 1.67709970 1.14596331
1.14709044 1.25025272 -2.19359016
-2.09157038 0.32074404 -0.71497190
1.84707677 0.57735318 -1.88802600
1.88860989 0.15647805 -2.25883412
0.06735326 1.74484646 0.53328955
0.93726373 0.07195161 4.30846167
0.06789509 0.09258090 -4.78098297
-1.05295396 0.01661166 4.17761707
0.38265461 1.43925381 2.61128616
-0.91807169 0.25205743 -4.27743864
1.17747641 1.06028426 2.77962947
0.76302630 0.69542831 -4.05800104
0.11528075 0.36644071 4.67728329
1.22356701 1.16808617 -2.31900311
1.55171168 0.76491207 2.58508372
0.19721681 1.61313760 -1.84269023
2.15095186 0.04088479 -0.14648959
-1.39639413 -1.17571449 -1.73597765
1.87010801 0.86312395 -0.28248689
-0.42379004 0.83221424 -4.11160088
-0.73572284 0.02798414 -4.50196409
-1.39489150 1.33807147 0.06573265
1.73205674 0.66851068 -2.18627405
-0.32705334 0.00946473 -4.73507881
-1.78545249 -0.54679835 2.22181559
0.50312388 0.92452437 3.91557908
-2.05828834 0.41917202 -0.81265920
-1.27184916 0.72237265 -3.32537913
0.79795641 0.60998333 4.12579775
-1.38388717 1.27718234 1.15053403
0.10013206 1.32476032 -3.13733339
-1.80437899 0.07449509 2.60503244
-1.32548749 0.33649465 3.66167402
-0.02414993 1.02345717 3.89215374
1.15111244 0.27474865 3.97794676
-1.35991251 1.07459223 2.28046465
0.66539031 0.49077672 4.35406971
-1.42092741 1.04804838 2.18747187
-0.03824562 0.10808501 4.78003788
-0.50628954 0.34553701 4.55919218
-0.17389838 0.55165243 -4.53083897
0.60595208 1.68222141 -0.29858413
-1.02161229 0.53712165 3.95490360
-0.40722394 0.70574462 -4.29169893
1.51467288 1.18775702 1.04580867
1.89451921 0.82910436 0.24868283
1.91736972 0.79514778 -0.18059149
-1.33019769 0.92311823 -2.80234027
-1.05408788 1.05546224 3.02590632
-0.14410274 0.22139177 -4.74138784
-0.88025939 -0.67596900 3.96444702
0.04413965 -1.68039548 1.38924849
1.04162669 0.43874344 -4.01685429
0.32539928 1.73098469 0.37587976
-1.42108035 1.25071275 -1.14512634
0.58215559 1.40698087 2.55872226
-0.39282995 0.60189503 -4.41536665
-0.24011411 0.63595009 -4.43306684
0.76842701 0.16396177 -4.45162106
-0.87427050 0.55930114 4.10348511
-0.41992527 1.48370183 2.38887477
-2.03824973 0.15495405 1.48021126
0.20313987 -1.56849492 2.10684276
-2.12019610 0.08208215 0.79544014
1.49828994 0.13890985 -3.41755438
-0.04257267 0.36445037 -4.68489027
-0.84183955 0.15580317 4.38802528
0.14530887 0.66494185 -4.42239857
0.54588693 1.29928684 -2.98800445
0.51121604 1.60580742 1.57216144
0.29522422 -1.30949211 -3.12468243
-0.89387846 0.68225211 -3.94072318
1.64684248 0.29864103 -2.97582483
-1.56976581 0.60375106 -2.83372307
-1.99017119 0.53829193 -1.09016871
-0.02274579 1.59075129 2.03209639
-0.07661168 1.58692658 -2.04481959
1.37084770 1.05366254 2.31912041
-0.71102899 0.56743670 4.24780178
-1.92860794 0.60970509 1.33098829
-0.96562088 0.51015985 4.04855537
-0.18027669 0.24681304 4.72531605
-1.65918541 0.30145290 -2.93930888
-1.22778273 0.05083707 3.93195796
-0.15369187 0.07635354 4.77302170
0.34502929 0.03934779 -4.72679234
0.65215188 1.25698674 -3.01486468
-0.93120927 -1.27179289 -2.57360363
0.85045409 1.28025031 -2.67752218
0.86181587 -1.51232088 -1.50675428
0.61576223 0.44076520 4.42984200
-1.01967561 0.50831372 -3.98422623
0.08317316 0.07116326 -4.78293276
0.60040891 0.05340157 -4.59743071
2.09830236 0.11268214 -1.02283013
1.09814382 1.42201495 1.38859570
-0.57665980 1.68456233 -0.43703598
1.88054550 0.26950660 -2.21188998
-1.15100181 1.48422742 -0.05275129
0.97541559 1.16601539 -2.84936595
-0.12279984 0.59423745 -4.50034714
-1.91465318 -0.73393607 0.88438588
-1.18774927 1.42636836 0.90948182
-1.83464742 0.18037216 2.45701194
0.32049072 1.01663184 -3.84075236
1.55251360 1.16917670 0.91975313
-0.65597665 0.03141151 4.56139135
-0.21563815 0.59713328 4.47894573
-0.72569901 0.02450470 -4.50963497
0.22832352 1.45347583 -2.64149261
-1.78688169 0.83928275 1.37771630
-0.26194748 1.05050611 3.79480839
0.94053608 0.22069223 -4.26579523
1.85161364 0.88998657 -0.26967466
1.68212879 0.22302873 2.92570162
1.25360024 0.92249078 -2.97344089
-0.82027090 1.57383800 -1.09529829
1.83791292 0.89158398 0.55686861
1.67620969 1.08110988 0.58536929
1.62204337 0.29658386 3.04255748
0.10827713 1.68256950 -1.35298657
2.04713416 0.04827912 -1.47348082
-0.89496166 1.49476647 1.54096782
1.76877069 0.09499018 -2.71651459
-1.40331161 -0.95462143 -2.53181624
0.26586515 1.74243522 -0.14336893
1.25131226 1.25380552 1.87124622
-0.10906820 0.75420249 4.32020903
0.65906703 0.03249387 -4.55905294
0.32729745 -1.52144945 2.27932405
-0.33065721 1.62639987 1.65324247
0.65986764 1.58705211 -1.43406749
-0.42016843 -0.96257049 3.89550042
0.18407963 0.72604328 -4.34223604
-0.10874810 0.16475165 -4.76311064
-1.38938403 0.12776029 -3.64218903
0.84240437 1.40847111 -2.16314387
-0.12443506 0.17429796 4.75812149
0.63241529 0.18576510 -4.55027294
-1.74268270 -0.26909804 2.71334338
-0.51469111 1.59146011 -1.67385483
-0.26503542 1.57427955 2.03965282
-0.23021032 0.57355529 -4.49936295
-1.31253409 0.99541479 -2.65356255
-1.81976318 0.89499652 -0.76371759
0.25345480 0.50109863 -4.55604124
-1.16609085 -0.24272518 -3.97194242
0.11451376 1.68430066 -1.33492851
2.06592321 0.48939070 -0.16601378
-0.18844725 0.47640881 -4.59151983
1.83454275 0.67864692 1.68783498
-1.78335583 0.47096413 -2.35553360
1.35552096 0.70490301 -3.18642664
-0.04590273 0.65932447 4.43854856
0.88141102 0.06872991 -4.36566591
-0.17278202 1.15192938 -3.59509349
2.03940725 -0.55521286 -0.21886735
-1.69000947 0.91413844 1.60660386
0.59470147 1.21551657 -3.19561982
0.31280184 0.05691874 4.73768234
1.61617994 0.23141977 3.09928203
0.20901370 0.38532701 -4.65047789
-0.54680276 0.13965702 -4.61680841
0.23512000 0.26527998 -4.70608044
1.02893639 1.47803593 -1.20420241
-1.66810691 -0.71843827 2.30675840
-1.72862315 0.64470291 -2.24856639
0.43470457 1.50221539 -2.28641152
0.11523504 0.15413074 -4.76535749
-0.40902123 1.54699445 2.07859087
3 187 149 48
3 48 87 187
3 48 149 76
3 156 78 173
3 242 22 215
3 215 175 242
3 251 187 137
3 210 221 232
3 232 173 210
3 156 173 232
3 46 221 210
3 210 187 46
3 46 187 87
3 103 187 210
3 210 173 103
3 137 187 103
3 103 78 137
3 103 173 78
3 137 78 61
3 61 215 137
3 175 215 61
3 61 78 156
3 156 175 61
3 171 156 178
3 171 214 156
3 242 175 209
3 136 251 218
3 82 68 22
3 82 242 102
3 82 22 242
3 22 68 200
3 149 187 110
3 187 251 110
3 178 156 109
3 156 232 109
3 112 46 87
3 112 87 48
3 137 215 148
3 28 236 51
3 28 200 68
3 68 236 28
3 246 50 22
3 22 200 246
3 225 110 251
3 225 251 136
3 136 169 225
3 169 117 225
3 150 175 156
3 150 209 175
3 83 28 51
3 83 163 96
3 71 181 127
3 8 250 127
3 127 181 8
3 118 169 59
3 196 69 243
3 84 215 22
3 22 50 84
3 72 91 218
3 72 148 215
3 215 84 72
3 72 84 91
3 137 148 72
3 72 251 137
3 72 218 251
3 176 91 122
3 114 39 122
3 122 39 176
3 1 7 193
3 193 7 167
3 58 119 55
3 102 242 180
3 180 82 102
3 200 28 205
3 205 246 200
3 205 28 50
3 50 246 205
3 189 69 76
3 147 225 117
3 117 189 147
3 149 110 147
3 110 225 147
3 147 76 149
3 147 189 76
3 52 171 178
3 198 15 25
3 209 150 158
3 158 150 238
3 194 248 109
3 194 106 248
3 194 109 232
3 232 106 194
3 51 236 100
3 236 163 100
3 100 83 51
3 163 83 100
3 130 163 236
3 96 163 212
3 163 130 212
3 155 181 71
3 111 96 58
3 111 83 96
3 114 83 111
3 58 55 111
3 111 39 114
3 93 59 169
3 93 169 136
3 59 93 152
3 76 69 165
3 69 196 165
3 48 76 165
3 91 84 120
3 114 122 120
3 120 122 91
3 120 84 50
3 120 83 114
3 50 28 120
3 28 83 120
3 136 218 170
3 170 7 192
3 167 7 170
3 218 91 245
3 134 69 118
3 73 199 104
3 36 236 68
3 82 180 234
3 68 82 234
3 234 36 68
3 118 69 38
3 69 189 38
3 38 189 117
3 38 169 118
3 38 117 169
3 221 46 168
3 133 159 252
3 95 232 221
3 95 106 232
3 95 177 77
3 77 248 95
3 248 106 95
3 113 159 133
3 31 67 229
3 133 252 229
3 244 3 190
3 217 127 250
3 254 52 178
3 171 52 64
3 52 254 64
3 214 171 179
3 138 198 25
3 150 198 138
3 238 150 138
3 15 198 144
3 108 158 238
3 108 238 201
3 201 99 108
3 141 212 181
3 141 155 94
3 181 155 141
3 96 212 141
3 94 58 141
3 58 96 141
3 63 130 8
3 63 212 130
3 8 181 63
3 181 212 63
3 11 145 164
3 164 193 11
3 1 193 164
3 145 152 164
3 118 59 128
3 128 145 11
3 128 134 118
3 11 134 128
3 125 152 192
3 192 7 125
3 125 7 1
3 1 164 125
3 125 164 152
3 192 152 40
3 40 152 93
3 40 93 136
3 136 170 40
3 40 170 192
3 59 152 166
3 166 152 145
3 166 128 59
3 145 128 166
3 98 66 21
3 21 176 98
3 21 65 176
3 98 167 223
3 167 170 223
3 9 170 218
3 218 245 9
3 9 245 66
3 42 245 91
3 42 91 176
3 176 65 42
3 65 21 42
3 243 69 123
3 69 134 123
3 123 33 243
3 0 58 94
3 0 119 58
3 94 155 161
3 161 0 94
3 227 0 161
3 6 134 146
3 146 0 227
3 6 146 208
3 70 196 243
3 243 33 70
3 11 193 213
3 213 55 119
3 213 10 55
3 98 176 60
3 32 111 55
3 55 10 32
3 39 111 32
3 176 39 32
3 32 60 176
3 16 250 8
3 16 73 250
3 36 234 131
3 159 168 237
3 237 252 159
3 237 168 46
3 74 168 159
3 221 168 74
3 74 95 221
3 177 95 74
3 31 229 49
3 49 14 31
3 80 229 252
3 80 47 5
3 252 47 80
3 80 49 229
3 25 15 4
3 190 3 97
3 97 44 190
3 97 4 44
3 25 4 97
3 253 217 222
3 201 238 30
3 211 127 233
3 127 217 233
3 35 113 133
3 133 229 35
3 35 229 67
3 92 254 178
3 81 220 26
3 26 220 135
3 135 248 77
3 109 248 135
3 135 220 109
3 224 179 171
3 171 64 224
3 15 144 224
3 249 15 224
3 224 64 249
3 214 179 224
3 224 144 214
3 207 180 242
3 242 209 207
3 209 89 207
3 238 138 23
3 23 30 238
3 3 30 23
3 23 138 25
3 25 97 23
3 23 97 3
3 214 144 240
3 240 144 198
3 240 198 150
3 156 214 240
3 240 150 156
3 158 108 13
3 180 207 13
3 67 18 241
3 241 35 67
3 241 18 116
3 98 223 124
3 124 66 98
3 124 9 66
3 27 21 66
3 27 42 21
3 66 245 27
3 245 42 27
3 121 134 6
3 121 123 134
3 119 0 197
3 0 146 197
3 197 146 134
3 197 134 11
3 11 213 197
3 197 213 119
3 227 161 216
3 161 90 216
3 6 208 188
3 188 208 45
3 98 60 56
3 56 167 98
3 56 193 167
3 56 213 193
3 199 73 204
3 73 16 204
3 132 131 234
3 132 17 104
3 132 234 17
3 104 199 132
3 199 131 132
3 5 47 230
3 230 70 5
3 196 70 230
3 46 112 2
3 2 237 46
3 252 237 2
3 2 47 252
3 159 113 41
3 41 74 159
3 41 113 177
3 177 74 41
3 14 49 140
3 49 80 140
3 140 80 5
3 12 14 140
3 62 15 249
3 62 4 15
3 44 4 62
3 26 135 235
3 77 142 235
3 235 135 77
3 250 86 37
3 37 86 222
3 37 217 250
3 222 217 37
3 99 86 29
3 29 108 99
3 250 73 29
3 29 86 250
3 17 108 29
3 104 17 29
3 29 73 104
3 185 86 99
3 185 99 201
3 201 30 185
3 3 244 185
3 185 30 3
3 116 18 195
3 154 253 222
3 154 195 253
3 217 253 101
3 101 233 217
3 253 195 101
3 143 142 129
3 177 113 157
3 113 35 157
3 157 35 129
3 129 142 157
3 77 177 157
3 157 142 77
3 220 81 57
3 178 109 57
3 109 220 57
3 57 92 178
3 254 92 57
3 57 81 254
3 158 13 183
3 209 158 183
3 183 89 209
3 183 207 89
3 183 13 207
3 88 108 17
3 88 13 108
3 180 13 88
3 88 234 180
3 17 234 88
3 20 18 67
3 20 67 31
3 31 226 20
3 182 216 90
3 182 90 211
3 211 233 182
3 45 208 182
3 208 216 182
3 31 14 202
3 202 226 31
3 12 45 202
3 202 14 12
3 45 182 202
3 170 9 54
3 9 124 54
3 19 90 161
3 19 85 90
3 19 161 155
3 19 155 71
3 71 85 19
3 211 90 139
3 90 85 139
3 139 127 211
3 71 127 139
3 139 85 71
3 255 208 146
3 255 216 208
3 255 146 227
3 227 216 255
3 6 188 115
3 115 121 6
3 33 123 115
3 123 121 115
3 107 70 33
3 33 115 107
3 107 115 188
3 5 70 107
3 12 140 107
3 107 140 5
3 184 45 12
3 184 188 45
3 12 107 184
3 184 107 188
3 10 213 239
3 213 56 239
3 239 56 60
3 239 32 10
3 60 32 239
3 191 204 16
3 8 130 191
3 191 16 8
3 191 130 236
3 203 131 199
3 199 204 203
3 36 131 203
3 204 191 203
3 236 36 203
3 203 191 236
3 53 230 47
3 53 112 48
3 48 165 53
3 53 165 196
3 196 230 53
3 151 235 186
3 26 235 151
3 222 86 174
3 86 185 174
3 174 154 222
3 116 195 34
3 195 154 34
3 34 154 244
3 34 244 190
3 34 241 116
3 190 241 34
3 233 101 206
3 206 182 233
3 105 143 129
3 129 35 105
3 35 241 105
3 228 235 142
3 142 143 228
3 228 143 186
3 162 101 195
3 162 195 18
3 18 20 162
3 162 206 101
3 24 182 226
3 226 202 24
3 24 202 182
3 79 124 223
3 79 54 124
3 79 223 170
3 170 54 79
3 47 2 160
3 160 53 47
3 160 2 112
3 112 53 160
3 44 62 231
3 231 153 44
3 231 151 186
3 186 153 231
3 190 44 219
3 44 153 219
3 219 241 190
3 219 105 241
3 143 105 219
3 186 143 219
3 219 153 186
3 244 154 172
3 154 174 172
3 172 185 244
3 172 174 185
3 186 235 126
3 126 228 186
3 235 228 126
3 206 162 75
3 226 182 75
3 182 206 75
3 75 20 226
3 75 162 20
3 247 62 249
3 247 231 62
3 151 231 247
3 43 247 249
3 151 247 43
3 249 64 43
3 43 64 254
3 26 151 43
3 43 81 26
3 254 81 43