ply
format ascii 1.0
comment https://github.com/mikedh/trimesh
element vertex 256
property float x
property float y
property float z
element face 508
property list uchar int vertex_indices
end_header
0.12237275 3.96203828 2.81184340
-0.81946397 1.24661183 4.36847258
-3.16973829 1.52434325 -1.39547873
1.57528746 2.32877612 -3.53967166
0.93390965 1.52478373 -4.24813271
-2.65709233 3.09507608 -0.92929947
-1.71317458 3.90980268 1.77376211
-0.55853695 0.71510488 4.53984880
2.28306055 3.66160893 0.88425785
0.00202992 0.16856596 4.64529228
0.01731940 2.09331036 4.21740484
-1.30434036 1.99420249 3.89276934
-1.96522367 4.09564543 -0.46500227
3.05163932 1.26622295 -1.96525657
-1.96104491 3.93204737 -1.17832649
1.05939150 0.63479447 -4.39130497
2.55180335 3.40071106 0.33183467
2.99129200 1.73180044 -1.81261349
-0.35901734 3.81022429 -2.95494342
0.59797180 4.70679379 1.29943585
-0.75541997 4.27710533 -2.16149950
0.61156571 0.75049108 4.52283192
2.61658168 -0.09632428 3.09550643
1.72189593 2.16307282 -3.51041508
-1.16483140 4.54123831 -1.12319350
1.49616611 1.42829537 -3.98791504
-0.15549482 0.69936633 -4.59836864
0.54627788 0.36185801 4.57865238
2.65168381 1.02515423 2.89027619
2.46663928 3.17531800 -1.46815825
1.78665066 2.47097945 -3.26903677
-1.92556036 3.78273916 -1.62177360
0.18970320 1.87827992 4.29799175
-2.33089542 3.53619409 1.08872056
0.39441907 3.58256483 -3.18597794
-1.16834831 2.48300052 -3.72071910
3.09075928 2.23251295 0.69978398
1.48251998 4.09074163 -1.78137600
-2.25687003 0.88090354 3.46254206
1.02534473 1.54090667 4.20633459
-1.16402888 -0.00988800 4.38489580
-2.19116282 1.57123053 -3.32082415
1.01190734 0.38600886 4.43665886
0.22296871 0.77658868 -4.58149195
0.58408457 2.00772858 -4.18375206
-1.45816350 4.51653814 -0.33289507
-3.13589168 0.62089527 -2.00097394
-3.02901721 1.95346487 -1.48008156
-3.47396827 0.68497521 0.13368808
-2.01710987 3.68993616 -1.61475110
2.33158660 0.49546322 3.44295931
2.59048772 1.98967004 2.52837348
0.32906410 0.21172813 -4.62413597
-3.25375438 1.72043383 -0.66363823
-0.22436477 0.22008185 4.63372660
0.25709245 2.68734002 3.89857578
-0.24140744 1.70879602 4.35457563
0.01772402 0.29462966 -4.64012718
0.68740153 3.13134766 3.49744558
-1.80106008 1.01853764 3.87405205
0.10089177 1.67683744 4.37550735
0.96016830 -4.57715797 -1.32092321
0.69216979 1.48418677 -4.34105444
2.15475535 3.70135474 1.23693514
0.38496590 0.55040288 -4.59185553
0.84191203 0.83092529 4.44600201
0.50777036 0.59654516 4.56552935
-0.90964669 3.53216052 -3.04817986
3.23105717 1.30028021 1.34253705
-2.83092833 2.04958701 1.97108853
-2.65912509 3.20842743 0.47397119
0.79871881 4.67376041 1.21183991
-0.08843282 -3.75614738 3.05051541
2.76709175 3.02654839 -0.42979506
-2.23880124 1.11094260 -3.42582631
-0.29819128 4.59830523 -1.74158967
-3.29006386 1.02645659 1.30101526
-0.87659734 0.89200574 -4.42307043
-0.49164274 -4.22379637 -2.37657046
-0.18185468 0.30600163 4.63280773
-2.35776711 3.27296329 -1.58657825
-0.03119508 0.41899559 -4.63134050
3.50501347 0.22108048 -0.05346427
2.02142811 2.51484227 2.98652434
1.90659130 0.18201423 3.89765072
0.62090945 4.75566149 1.11202908
1.86965382 3.54527426 -2.12863350
-3.40907097 0.90951657 -0.69380015
3.01056838 1.63716936 -1.83211768
3.07826352 0.44371638 -2.19194531
0.10977972 4.94776678 0.51749778
1.52765512 0.20402929 4.18087959
0.11066287 0.26252666 -4.63940859
-1.71621978 0.04710478 4.05390978
0.62369245 4.08121443 2.53396082
-1.49637389 0.71474564 -4.15077496
1.91918015 3.00659108 2.69731903
1.24366403 1.97198856 -3.93783545
0.18789722 1.03909612 4.53877974
1.99430370 3.31227899 -2.25033283
2.52914977 2.16901994 2.50853419
0.32144558 4.57428741 -1.78812444
3.50585723 0.11593480 -0.14215174
-2.27599645 -3.33390999 -1.68457186
3.04810715 2.44751406 -0.27412188
-0.69073945 2.35986495 -3.98984838
-1.19916177 0.07935312 -4.36865187
-2.27354717 3.79429698 0.06378618
2.82309604 1.89565969 -2.12153411
-0.53306741 0.02683863 -4.59486341
-2.91012621 -1.55052650 2.15602303
0.82004648 2.62162375 3.79963088
-3.35482383 1.18862355 -0.78859472
-2.07299924 2.04839325 -3.22690797
1.30059683 1.72969675 4.00362444
-2.25561094 3.62163711 1.11646438
0.16320620 3.75655127 -3.04443073
-2.94097471 0.21124172 2.52789235
-2.16042495 0.95417970 3.55324459
-0.03936221 2.90216255 3.77689910
1.87620938 0.77908993 3.86015177
-2.21653461 3.04716301 2.21293569
1.08452606 1.39166903 4.22513676
-2.31598330 2.97189426 2.12269640
-0.06233691 0.30649084 4.63849163
-0.82520616 0.97982067 4.42418528
-0.28343865 1.56429112 -4.39667177
0.98764712 4.77018452 -0.28974247
-1.66513586 1.52308702 3.83779097
-0.66373825 2.00124192 -4.16461325
2.46877980 3.36805844 1.01484013
3.08789515 2.35104656 0.24131882
3.12513947 2.25475764 -0.17524381
-2.16810203 2.61763668 -2.71935749
-1.71806812 2.99291730 2.93630314
-0.23487443 0.62778866 -4.60098553
-1.43474329 -1.91680884 3.84705186
0.07194364 -4.76500702 1.34811008
1.69775736 1.24412107 -3.89790726
0.53037143 4.90846014 0.36474919
-2.31623268 3.54657888 -1.11121690
0.94886100 3.98969984 2.48295331
-0.64027733 1.70676136 -4.28461885
-0.39136431 1.80332947 -4.30179501
1.25246656 0.46493754 -4.31979942
-1.42498195 1.58598006 3.98197269
-0.68444026 4.20725298 2.31813550
-3.32216287 0.43939483 1.43637919
0.33109963 -4.44769669 2.04445481
-3.45572805 0.23275593 0.77188557
2.44207716 0.39389917 -3.31635380
-0.06938960 1.03345227 -4.54616117
-1.37212241 0.44180265 4.25808668
0.23684032 1.88553977 -4.29144239
0.88974637 3.68431759 -2.89952350
0.83323598 4.55350161 1.52560651
0.48118880 -3.71325612 -3.03215432
-1.45694113 1.93462551 -3.82403064
2.68420458 0.84684026 -2.88770461
-2.55857635 1.71202433 -2.74981093
-3.24379921 1.52640533 -1.05788672
-0.03707359 4.51080751 1.97192192
-0.12487011 4.49996233 -1.98426831
2.23435783 2.98781395 2.25044656
-1.15891302 1.60904956 4.12201595
-3.14345670 1.72890782 1.29157507
-1.57387471 1.44663274 3.92866969
-0.29383475 0.69987440 4.58539009
-2.70432234 0.85481375 -2.85227013
-2.00117493 0.14415595 3.81552482
-0.25050387 0.21651162 4.63168287
0.56236660 0.11157641 -4.58682251
1.06294858 3.56436944 -2.92558861
-1.51778698 -3.60635471 -2.49739408
1.38616335 3.63033676 -2.59823537
1.40468204 -4.28840685 -1.46213627
1.00363684 1.24985409 4.29866552
-1.66197920 1.44139779 -3.86624527
0.13556474 0.20179382 -4.64130068
0.97861230 0.15142797 -4.46129131
3.42004347 0.31952667 -0.99254209
1.78987527 4.03233147 1.34747660
-0.93990344 4.77682257 -0.42409447
3.06511927 0.76422536 -2.14639139
-1.87602901 4.20874357 -0.05118922
1.58983934 3.30640697 -2.76499057
-0.20015265 1.68504703 -4.36708307
-3.12071180 -2.08118296 0.85819745
-1.93592393 4.04467583 0.88255024
-2.99030948 0.51147163 2.38425493
0.52237093 2.88280821 -3.72702003
2.53045702 3.31537127 0.89251739
-1.06918275 0.08907191 4.42631960
-0.35147071 1.69325852 4.34631491
-1.18282390 0.06948666 -4.37609529
0.37214670 4.12154293 -2.56327271
-2.91245580 2.37990880 1.33691943
-0.42695072 2.97886348 3.68243647
1.53298891 0.62580508 -4.13947630
3.01796293 2.52368689 -0.26168904
2.74171805 0.63243055 2.83906555
2.04325509 2.61585736 -2.88539124
-1.33696747 4.46284723 -1.06286430
2.99563193 2.52821660 0.54037857
2.73207045 3.06564498 0.56803536
2.64378428 0.84100688 2.95246124
0.17648195 4.77117157 -1.31292188
3.33664393 0.13690251 -1.42984819
-1.45870674 4.23862886 1.49533665
2.88293648 0.26935852 -2.63607311
-2.28727102 -2.70696855 -2.45684409
0.43333617 4.94092941 -0.13912350
2.03952575 3.55534863 1.81583488
-0.17777131 2.13865137 4.19227886
1.07421970 0.09214113 -4.42405033
0.53346527 -4.31429243 2.21182871
-0.53894138 4.61189461 1.60428667
1.07552469 4.50031805 -1.39160192
-0.68483657 -2.72950912 3.78014684
0.30003318 2.05880189 -4.21365356
-0.17724958 0.46717736 -4.62206554
-2.26457047 0.36228296 -3.53433657
1.37304294 3.99392557 -2.09908867
-0.20281790 0.49424732 4.61722374
1.03077972 0.52676409 -4.41553020
-2.84041548 -0.76306683 2.63299584
-0.83890003 4.51281738 -1.62428856
-0.43198377 4.46409941 1.97925472
-0.37522203 1.62639976 -4.36612749
-2.13931203 2.82264400 -2.57498527
-2.96604967 2.53789330 -0.74110240
0.41310844 1.42093837 -4.42112780
-1.90062273 -0.68828267 -3.85432529
0.18664709 4.77608061 -1.29539859
3.36726832 1.38773882 -0.16109778
-0.30715197 1.35092676 -4.45555544
2.99013877 1.92440248 1.63785481
-2.90670896 1.33548760 -2.28578162
2.20937681 1.99885547 -3.09207010
-0.07481731 1.86961079 4.30711412
1.43662035 0.19489370 -4.23639011
-0.28161907 3.26646399 -3.48863554
3.32404947 -1.57438707 -0.21238625
-2.75456285 2.59217310 1.55902910
0.96930969 3.44677472 -3.10099101
0.50983870 0.16140141 4.59739017
2.63422728 0.65622455 3.00750613
0.34067345 1.09265101 -4.51276779
-0.89123911 0.39601788 -4.48009586
0.38322434 0.75224012 -4.56672382
1.67707324 4.19118690 -1.16854358
-2.71886373 -2.03723669 2.23845077
-2.81749940 1.82814932 -2.18198180
0.70852917 4.25975132 -2.21870637
0.18782270 0.43706024 -4.62424564
-0.66666764 4.38672876 2.01703954
3 187 149 48
3 48 87 187
3 48 149 76
3 156 78 173
3 242 22 215
3 215 175 242
3 251 187 137
3 210 221 232
3 232 173 210
3 156 173 232
3 46 221 210
3 210 187 46
3 46 187 87
3 103 187 210
3 210 173 103
3 137 187 103
3 103 78 137
3 103 173 78
3 137 78 61
3 61 215 137
3 175 215 61
3 61 78 156
3 156 175 61
3 171 156 178
3 171 214 156
3 242 175 209
3 136 251 218
3 82 68 22
3 82 242 102
3 82 22 242
3 22 68 200
3 149 187 110
3 187 251 110
3 178 156 109
3 156 232 109
3 112 46 87
3 112 87 48
3 137 215 148
3 28 236 51
3 28 200 68
3 68 236 28
3 246 50 22
3 22 200 246
3 225 110 251
3 225 251 136
3 136 169 225
3 169 117 225
3 150 175 156
3 150 209 175
3 83 28 51
3 83 163 96
3 71 181 127
3 8 250 127
3 127 181 8
3 118 169 59
3 196 69 243
3 84 215 22
3 22 50 84
3 72 91 218
3 72 148 215
3 215 84 72
3 72 84 91
3 137 148 72
3 72 251 137
3 72 218 251
3 176 91 122
3 114 39 122
3 122 39 176
3 1 7 193
3 193 7 167
3 58 119 55
3 102 242 180
3 180 82 102
3 200 28 205
3 205 246 200
3 205 28 50
3 50 246 205
3 189 69 76
3 147 225 117
3 117 189 147
3 149 110 147
3 110 225 147
3 147 76 149
3 147 189 76
3 52 171 178
3 198 15 25
3 209 150 158
3 158 150 238
3 194 248 109
3 194 106 248
3 194 109 232
3 232 106 194
3 51 236 100
3 236 163 100
3 100 83 51
3 163 83 100
3 130 163 236
3 96 163 212
3 163 130 212
3 155 181 71
3 111 96 58
3 111 83 96
3 114 83 111
3 58 55 111
3 111 39 114
3 93 59 169
3 93 169 136
3 59 93 152
3 76 69 165
3 69 196 165
3 48 76 165
3 91 84 120
3 114 122 120
3 120 122 91
3 120 84 50
3 120 83 114
3 50 28 120
3 28 83 120
3 136 218 170
3 170 7 192
3 167 7 170
3 218 91 245
3 134 69 118
3 73 199 104
3 36 236 68
3 82 180 234
3 68 82 234
3 234 36 68
3 118 69 38
3 69 189 38
3 38 189 117
3 38 169 118
3 38 117 169
3 221 46 168
3 133 159 252
3 95 232 221
3 95 106 232
3 95 177 77
3 77 248 95
3 248 106 95
3 113 159 133
3 31 67 229
3 133 252 229
3 244 3 190
3 217 127 250
3 254 52 178
3 171 52 64
3 52 254 64
3 214 171 179
3 138 198 25
3 150 198 138
3 238 150 138
3 15 198 144
3 108 158 238
3 108 238 201
3 201 99 108
3 141 212 181
3 141 155 94
3 181 155 141
3 96 212 141
3 94 58 141
3 58 96 141
3 63 130 8
3 63 212 130
3 8 181 63
3 181 212 63
3 11 145 164
3 164 193 11
3 1 193 164
3 145 152 164
3 118 59 128
3 128 145 11
3 128 134 118
3 11 134 128
3 125 152 192
3 192 7 125
3 125 7 1
3 1 164 125
3 125 164 152
3 192 152 40
3 40 152 93
3 40 93 136
3 136 170 40
3 40 170 192
3 59 152 166
3 166 152 145
3 166 128 59
3 145 128 166
3 98 66 21
3 21 176 98
3 21 65 176
3 98 167 223
3 167 170 223
3 9 170 218
3 218 245 9
3 9 245 66
3 42 245 91
3 42 91 176
3 176 65 42
3 65 21 42
3 243 69 123
3 69 134 123
3 123 33 243
3 0 58 94
3 0 119 58
3 94 155 161
3 161 0 94
3 227 0 161
3 6 134 146
3 146 0 227
3 6 146 208
3 70 196 243
3 243 33 70
3 11 193 213
3 213 55 119
3 213 10 55
3 98 176 60
3 32 111 55
3 55 10 32
3 39 111 32
3 176 39 32
3 32 60 176
3 16 250 8
3 16 73 250
3 36 234 131
3 159 168 237
3 237 252 159
3 237 168 46
3 74 168 159
3 221 168 74
3 74 95 221
3 177 95 74
3 31 229 49
3 49 14 31
3 80 229 252
3 80 47 5
3 252 47 80
3 80 49 229
3 25 15 4
3 190 3 97
3 97 44 190
3 97 4 44
3 25 4 97
3 253 217 222
3 201 238 30
3 211 127 233
3 127 217 233
3 35 113 133
3 133 229 35
3 35 229 67
3 92 254 178
3 81 220 26
3 26 220 135
3 135 248 77
3 109 248 135
3 135 220 109
3 224 179 171
3 171 64 224
3 15 144 224
3 249 15 224
3 224 64 249
3 214 179 224
3 224 144 214
3 207 180 242
3 242 209 207
3 209 89 207
3 238 138 23
3 23 30 238
3 3 30 23
3 23 138 25
3 25 97 23
3 23 97 3
3 214 144 240
3 240 144 198
3 240 198 150
3 156 214 240
3 240 150 156
3 158 108 13
3 180 207 13
3 67 18 241
3 241 35 67
3 241 18 116
3 98 223 124
3 124 66 98
3 124 9 66
3 27 21 66
3 27 42 21
3 66 245 27
3 245 42 27
3 121 134 6
3 121 123 134
3 119 0 197
3 0 146 197
3 197 146 134
3 197 134 11
3 11 213 197
3 197 213 119
3 227 161 216
3 161 90 216
3 6 208 188
3 188 208 45
3 98 60 56
3 56 167 98
3 56 193 167
3 56 213 193
3 199 73 204
3 73 16 204
3 132 131 234
3 132 17 104
3 132 234 17
3 104 199 132
3 199 131 132
3 5 47 230
3 230 70 5
3 196 70 230
3 46 112 2
3 2 237 46
3 252 237 2
3 2 47 252
3 159 113 41
3 41 74 159
3 41 113 177
3 177 74 41
3 14 49 140
3 49 80 140
3 140 80 5
3 12 14 140
3 62 15 249
3 62 4 15
3 44 4 62
3 26 135 235
3 77 142 235
3 235 135 77
3 250 86 37
3 37 86 222
3 37 217 250
3 222 217 37
3 99 86 29
3 29 108 99
3 250 73 29
3 29 86 250
3 17 108 29
3 104 17 29
3 29 73 104
3 185 86 99
3 185 99 201
3 201 30 185
3 3 244 185
3 185 30 3
3 116 18 195
3 154 253 222
3 154 195 253
3 217 253 101
3 101 233 217
3 253 195 101
3 143 142 129
3 177 113 157
3 113 35 157
3 157 35 129
3 129 142 157
3 77 177 157
3 157 142 77
3 220 81 57
3 178 109 57
3 109 220 57
3 57 92 178
3 254 92 57
3 57 81 254
3 158 13 183
3 209 158 183
3 183 89 209
3 183 207 89
3 183 13 207
3 88 108 17
3 88 13 108
3 180 13 88
3 88 234 180
3 17 234 88
3 20 18 67
3 20 67 31
3 31 226 20
3 182 216 90
3 182 90 211
3 211 233 182
3 45 208 182
3 208 216 182
3 31 14 202
3 202 226 31
3 12 45 202
3 202 14 12
3 45 182 202
3 170 9 54
3 9 124 54
3 19 90 161
3 19 85 90
3 19 161 155
3 19 155 71
3 71 85 19
3 211 90 139
3 90 85 139
3 139 127 211
3 71 127 139
3 139 85 71
3 255 208 146
3 255 216 208
3 255 146 227
3 227 216 255
3 6 188 115
3 115 121 6
3 33 123 115
3 123 121 115
3 107 70 33
3 33 115 107
3 107 115 188
3 5 70 107
3 12 140 107
3 107 140 5
3 184 45 12
3 184 188 45
3 12 107 184
3 184 107 188
3 10 213 239
3 213 56 239
3 239 56 60
3 239 32 10
3 60 32 239
3 191 204 16
3 8 130 191
3 191 16 8
3 191 130 236
3 203 131 199
3 199 204 203
3 36 131 203
3 204 191 203
3 236 36 203
3 203 191 236
3 53 230 47
3 53 112 48
3 48 165 53
3 53 165 196
3 196 230 53
3 151 235 186
3 26 235 151
3 222 86 174
3 86 185 174
3 174 154 222
3 116 195 34
3 195 154 34
3 34 154 244
3 34 244 190
3 34 241 116
3 190 241 34
3 233 101 206
3 206 182 233
3 105 143 129
3 129 35 105
3 35 241 105
3 228 235 142
3 142 143 228
3 228 143 186
3 162 101 195
3 162 195 18
3 18 20 162
3 162 206 101
3 24 182 226
3 226 202 24
3 24 202 182
3 79 124 223
3 79 54 124
3 79 223 170
3 170 54 79
3 47 2 160
3 160 53 47
3 160 2 112
3 112 53 160
3 44 62 231
3 231 153 44
3 231 151 186
3 186 153 231
3 190 44 219
3 44 153 219
3 219 241 190
3 219 105 241
3 143 105 219
3 186 143 219
3 219 153 186
3 244 154 172
3 154 174 172
3 172 185 244
3 172 174 185
3 186 235 126
3 126 228 186
3 235 228 126
3 206 162 75
3 226 182 75
3 182 206 75
3 75 20 226
3 75 162 20
3 247 62 249
3 247 231 62
3 151 231 247
3 43 247 249
3 151 247 43
3 249 64 43
3 43 64 254
3 26 151 43
3 43 81 26
3 254 81 43