ply
format ascii 1.0
comment https://github.com/mikedh/trimesh
element vertex 256
property float x
property float y
property float z
element face 508
property list uchar int vertex_indices
end_header
0.09382720 1.46994519 1.78860092
-0.62830997 0.46250209 2.77876568
-2.43034244 0.56554252 -0.88765770
1.20782459 0.86399299 -2.25156927
0.71605921 0.56570590 -2.70221782
-2.03727984 1.14829588 -0.59112316
-1.31354713 1.45056534 1.12828207
-0.42824858 0.26530915 2.88777733
1.75049746 1.35848367 0.56247240
0.00155641 0.06253920 2.95484924
0.01327935 0.77663350 2.68267202
-1.00008059 0.73986369 2.47617292
-1.50680149 1.51951444 -0.29578581
2.33979201 0.46977797 -1.25009084
-1.50359750 1.45881832 -0.74952817
0.81227016 0.23551339 -2.79328895
1.95655131 1.26168859 0.21107854
2.29352164 0.64251059 -1.15299523
-0.27527037 1.41362107 -1.87962604
0.45848459 1.74625480 0.82656527
-0.57920527 1.58683729 -1.37492001
0.46890751 0.27843767 2.87695289
2.00621891 -0.03573701 1.96903765
1.32023406 0.80251580 -2.23295927
-0.89311451 1.68483257 -0.71445829
1.14715970 0.52990800 -2.53669477
-0.11922298 0.25947002 -2.92500138
0.41884917 0.13425197 2.91245985
2.03313303 0.38033971 1.83849156
1.89125323 1.17806613 -0.93388879
1.36988366 0.91675144 -2.07941937
-1.47639036 1.40342391 -1.03160274
0.14545166 0.69685555 2.73393297
-1.78717399 1.31195390 0.69253021
0.30241406 1.32915771 -2.02658606
-0.89581102 0.92121130 -2.36673260
2.36978674 0.82827860 0.44512942
1.13669670 1.51769507 -1.13312519
-1.73041630 0.32682166 2.20250726
0.78616542 0.57168764 2.67563057
-0.89249915 -0.00366852 2.78921223
-1.68003654 0.58293802 -2.11236119
0.77586263 0.14321211 2.82213855
0.17095743 0.28812006 -2.91426635
0.44783682 0.74488199 -2.66126561
-1.11802173 1.67566872 -0.21175304
-2.40439105 0.23035669 -1.27281046
-2.32244682 0.72474974 -0.94147319
-2.66360545 0.25413081 0.08503839
-1.54658437 1.36899328 -1.02713585
1.78770387 0.18382047 2.19005084
1.98621202 0.73818213 1.60828698
0.25230426 0.07855268 -2.94139194
-2.49476027 0.63829350 -0.42213726
-0.17202783 0.08165197 2.94749236
0.19712122 0.99702275 2.47986650
-0.18509501 0.63397580 2.76992607
0.01358959 0.10930976 -2.95156407
0.52705336 1.16175282 2.22470927
-1.38093185 0.37788492 2.46426702
0.07735703 0.62211895 2.78324032
0.73619252 -1.69815898 -0.84023327
0.53070927 0.55064410 -2.76132488
1.65212166 1.37322962 0.78680885
0.29516599 0.20420350 -2.92085838
0.64552158 0.30827937 2.82808185
0.38932419 0.22132261 2.90411258
-0.69745594 1.31045735 -1.93893337
2.47735763 0.48241344 0.85398167
-2.17056561 0.76041180 1.25380051
-2.03883839 1.19035006 0.30149090
0.61240393 1.73399925 0.77084589
-0.06780434 -1.39355814 1.94041908
2.12161994 1.12287152 -0.27339068
-1.71656239 0.41216782 -2.17915273
-0.22863305 1.70600486 -1.10781729
-2.52259994 0.38082293 0.82756990
-0.67211592 0.33094063 -2.81349516
-0.37695864 -1.56705940 -1.51172578
-0.13943395 0.11352884 2.94690776
-1.80777740 1.21429324 -1.00921524
-0.02391829 0.15545043 -2.94597459
2.68740892 0.08202247 -0.03400838
1.54989529 0.93302488 1.89971459
1.46184611 0.06752861 2.47927785
0.47607166 1.76438510 0.70735663
1.43352497 1.31532264 -1.35401416
-2.61384654 0.33743730 -0.44132313
2.30830145 0.60740179 -1.16540182
2.36020565 0.16462201 -1.39428651
0.08417172 1.83565772 0.32917801
1.17130339 0.07569636 2.65943861
0.08484886 0.09739931 -2.95110679
-1.31588209 0.01747622 2.57867360
0.47820547 1.51416039 1.61184096
-1.14731896 0.26517585 -2.64028907
1.47149837 1.11546719 1.71575236
0.95355797 0.73162216 -2.50483918
0.14406696 0.38551226 2.88709712
1.52909815 1.22887969 -1.43142653
1.93918216 0.80472219 1.59566724
0.24646288 1.69709408 -1.13741791
2.68805575 0.04301266 -0.09042208
-1.74508107 -1.23690498 -1.07154858
2.33708382 0.90804559 -0.17436768
-0.52961260 0.87552714 -2.53792453
-0.91943669 0.02944059 -2.77887964
-1.74320316 1.40771186 0.04057410
2.16456032 0.70330358 -1.34949827
-0.40872025 0.00995733 -2.92277193
-2.23128939 -0.57525671 1.37143648
0.62875652 0.97264159 2.41692805
-2.57225347 0.44098800 -0.50162154
-1.58943653 0.75996882 -2.05262160
0.99721032 0.64173013 2.54668736
-1.72945094 1.34365380 0.71017790
0.12513556 1.39370799 -1.93654859
-2.25494194 0.07837222 1.60798085
-1.65646863 0.35400766 2.26020288
-0.03018030 1.07672346 2.40246844
1.43855131 0.28904805 2.45542502
-1.69948983 1.13051975 1.40763831
0.83154172 0.51631939 2.68759036
-1.77574039 1.10259449 1.35023749
-0.04779575 0.11371034 2.95052338
-0.63271266 0.36352062 2.81420422
-0.21732172 0.58036339 -2.79670310
0.75726146 1.76977336 -0.18430386
-1.27671432 0.56507641 2.44120145
-0.50890988 0.74247539 -2.64909148
1.89289463 1.24957430 0.64553523
2.36759043 0.87225544 0.15350181
2.39614701 0.83653152 -0.11147179
-1.66235495 0.97116232 -1.72977090
-1.31729925 1.11039412 1.86776912
-0.18008594 0.23291419 -2.92666626
-1.10006475 -0.71115011 2.44709229
0.05516155 -1.76785243 0.85752666
1.30172622 0.46157801 -2.47944117
0.40665320 1.82107460 0.23201531
-1.77593160 1.31580663 -0.70684004
0.72752285 1.48020780 1.57939541
-0.49092168 0.63322091 -2.72542667
-0.30007187 0.66904843 -2.73635221
0.96030724 0.17249522 -2.74780488
-1.09258044 0.58841020 2.53291488
-0.52478284 1.56092167 1.47455549
-2.54721141 0.16301869 0.91367435
0.25386497 -1.65012789 1.30046844
-2.64962006 0.08635415 0.49099290
1.87242079 0.14613947 -2.10951757
-0.05320329 0.38341832 -2.89179254
-1.05205131 0.16391201 2.70854974
0.18159325 0.69954902 -2.72976708
0.68219775 1.36690879 -1.84437382
0.63886935 1.68938231 0.97043139
0.36894327 -1.37764513 -1.92873955
-1.11708462 0.71776021 -2.43244863
2.05806780 0.31418392 -1.83685577
-1.96174455 0.63517350 -1.74914229
-2.48712730 0.56630754 -0.67291695
-0.02842554 1.67354262 1.25433064
-0.09574202 1.66951883 -1.26218402
1.71315551 1.10850084 1.43149889
-0.88857663 0.59696919 2.62199569
-2.41019154 0.64143747 0.82156503
-1.20674145 0.53671134 2.49900889
-0.22529273 0.25965852 2.91674590
-2.07349277 0.31714216 -1.81431603
-1.53436649 0.05348291 2.42703819
-0.19206955 0.08032739 2.94619250
0.43118492 0.04139566 -2.91765714
0.81499761 1.32240713 -1.86095357
-1.16373718 -1.33798397 -1.58858109
1.06281686 1.34688151 -1.65272570
1.07701576 -1.59103024 -0.93005824
0.76952130 0.46370500 2.73436141
-1.27429402 0.53476912 -2.45930099
0.10394193 0.07486698 -2.95231009
0.75033420 0.05618088 -2.83780718
2.62225962 0.11854673 -0.63135153
1.37235618 1.49602437 0.85712379
-0.72065479 1.77223611 -0.26976457
2.35012770 0.28353319 -1.36530983
-1.43841302 1.56147456 -0.03256123
1.21898198 1.22670114 -1.75879788
-0.15346362 0.62516475 -2.77788162
-2.39275217 -0.77213407 0.54589552
-1.48433638 1.50060427 0.56138617
-2.29276848 0.18975970 1.51661372
0.40051895 1.06954288 -2.37074065
1.94018435 1.23002696 0.56772625
-0.81977749 0.03304633 2.81556177
-0.26948413 0.62821132 2.76467133
-0.90690988 0.02578006 -2.78361440
0.28533709 1.52912259 -1.63048613
-2.23307538 0.88296360 0.85040838
-0.32735711 1.10518014 2.34238124
1.17539287 0.23217826 -2.63310218
2.31397128 0.93630630 -0.16645922
2.10216522 0.23463635 1.80591679
1.56663084 0.97050220 -1.83538437
-1.02509677 1.65574896 -0.67608315
2.29684949 0.93798685 0.34373239
2.09476805 1.13737667 0.36132470
2.02707624 0.31201968 1.87804723
0.13531451 1.77013958 -0.83514369
2.55831432 0.05079183 -0.90951991
-1.11843836 1.57256222 0.95117682
2.21044207 0.09993398 -1.67679417
-1.75372589 -1.00430512 -1.56278729
0.33225307 1.83312094 -0.08849582
1.56377149 1.31906033 1.15504432
-0.13630311 0.79345530 2.66668963
0.82363951 0.03418503 -2.81411839
0.40902534 -1.60063398 1.40693414
-0.41322404 1.71104658 1.02047944
0.82464010 1.66965079 -0.88519168
-0.52508670 -1.01266789 2.40453434
0.23004529 0.76383054 -2.68028593
-0.13590308 0.17332622 -2.94007492
-1.73632050 0.13440962 -2.24817538
1.05275714 1.48177552 -1.33522081
-0.15550715 0.18336937 2.93699527
0.79033267 0.19543333 -2.80869865
-2.17783976 -0.28310335 1.67483664
-0.64321220 1.67428827 -1.03320265
-0.33121613 1.65621352 1.25899494
-0.28769505 0.60340619 -2.77727413
-1.64028060 1.04722154 -1.63793635
-2.27416754 0.94157696 -0.47141188
0.31674379 0.52717853 -2.81225920
-1.45726979 -0.25535792 -2.45171881
0.14310844 1.77196085 -0.82399714
2.58179498 0.51486129 -0.10247356
-0.23550351 0.50120372 -2.83415866
2.29263759 0.71396738 1.04183197
-2.22866917 0.49547565 -1.45397532
1.69400167 0.74158996 -1.96685183
-0.05736489 0.69363928 2.73973584
1.10150397 0.07230699 -2.69474840
-0.21592659 1.21188200 -2.21910524
2.54865789 -0.58410913 -0.13509794
-2.11201382 0.96171516 0.99169129
0.74320155 1.27877855 -1.97252631
0.39091009 0.05988110 2.92437887
2.01974869 0.24346411 1.91306102
0.26120552 0.40538150 -2.87055111
-0.68334228 0.14692552 -2.84976840
0.29383069 0.27908656 -2.90487242
1.28586709 1.55496097 -0.74330527
-2.08464193 -0.75582969 1.42386830
-2.16026926 0.67825675 -1.38794875
0.54325259 1.58039880 -1.41130900
0.14400983 0.16215253 -2.94146180
-0.51115596 1.62750840 1.28302968
3 187 149 48
3 48 87 187
3 48 149 76
3 156 78 173
3 242 22 215
3 215 175 242
3 251 187 137
3 210 221 232
3 232 173 210
3 156 173 232
3 46 221 210
3 210 187 46
3 46 187 87
3 103 187 210
3 210 173 103
3 137 187 103
3 103 78 137
3 103 173 78
3 137 78 61
3 61 215 137
3 175 215 61
3 61 78 156
3 156 175 61
3 171 156 178
3 171 214 156
3 242 175 209
3 136 251 218
3 82 68 22
3 82 242 102
3 82 22 242
3 22 68 200
3 149 187 110
3 187 251 110
3 178 156 109
3 156 232 109
3 112 46 87
3 112 87 48
3 137 215 148
3 28 236 51
3 28 200 68
3 68 236 28
3 246 50 22
3 22 200 246
3 225 110 251
3 225 251 136
3 136 169 225
3 169 117 225
3 150 175 156
3 150 209 175
3 83 28 51
3 83 163 96
3 71 181 127
3 8 250 127
3 127 181 8
3 118 169 59
3 196 69 243
3 84 215 22
3 22 50 84
3 72 91 218
3 72 148 215
3 215 84 72
3 72 84 91
3 137 148 72
3 72 251 137
3 72 218 251
3 176 91 122
3 114 39 122
3 122 39 176
3 1 7 193
3 193 7 167
3 58 119 55
3 102 242 180
3 180 82 102
3 200 28 205
3 205 246 200
3 205 28 50
3 50 246 205
3 189 69 76
3 147 225 117
3 117 189 147
3 149 110 147
3 110 225 147
3 147 76 149
3 147 189 76
3 52 171 178
3 198 15 25
3 209 150 158
3 158 150 238
3 194 248 109
3 194 106 248
3 194 109 232
3 232 106 194
3 51 236 100
3 236 163 100
3 100 83 51
3 163 83 100
3 130 163 236
3 96 163 212
3 163 130 212
3 155 181 71
3 111 96 58
3 111 83 96
3 114 83 111
3 58 55 111
3 111 39 114
3 93 59 169
3 93 169 136
3 59 93 152
3 76 69 165
3 69 196 165
3 48 76 165
3 91 84 120
3 114 122 120
3 120 122 91
3 120 84 50
3 120 83 114
3 50 28 120
3 28 83 120
3 136 218 170
3 170 7 192
3 167 7 170
3 218 91 245
3 134 69 118
3 73 199 104
3 36 236 68
3 82 180 234
3 68 82 234
3 234 36 68
3 118 69 38
3 69 189 38
3 38 189 117
3 38 169 118
3 38 117 169
3 221 46 168
3 133 159 252
3 95 232 221
3 95 106 232
3 95 177 77
3 77 248 95
3 248 106 95
3 113 159 133
3 31 67 229
3 133 252 229
3 244 3 190
3 217 127 250
3 254 52 178
3 171 52 64
3 52 254 64
3 214 171 179
3 138 198 25
3 150 198 138
3 238 150 138
3 15 198 144
3 108 158 238
3 108 238 201
3 201 99 108
3 141 212 181
3 141 155 94
3 181 155 141
3 96 212 141
3 94 58 141
3 58 96 141
3 63 130 8
3 63 212 130
3 8 181 63
3 181 212 63
3 11 145 164
3 164 193 11
3 1 193 164
3 145 152 164
3 118 59 128
3 128 145 11
3 128 134 118
3 11 134 128
3 125 152 192
3 192 7 125
3 125 7 1
3 1 164 125
3 125 164 152
3 192 152 40
3 40 152 93
3 40 93 136
3 136 170 40
3 40 170 192
3 59 152 166
3 166 152 145
3 166 128 59
3 145 128 166
3 98 66 21
3 21 176 98
3 21 65 176
3 98 167 223
3 167 170 223
3 9 170 218
3 218 245 9
3 9 245 66
3 42 245 91
3 42 91 176
3 176 65 42
3 65 21 42
3 243 69 123
3 69 134 123
3 123 33 243
3 0 58 94
3 0 119 58
3 94 155 161
3 161 0 94
3 227 0 161
3 6 134 146
3 146 0 227
3 6 146 208
3 70 196 243
3 243 33 70
3 11 193 213
3 213 55 119
3 213 10 55
3 98 176 60
3 32 111 55
3 55 10 32
3 39 111 32
3 176 39 32
3 32 60 176
3 16 250 8
3 16 73 250
3 36 234 131
3 159 168 237
3 237 252 159
3 237 168 46
3 74 168 159
3 221 168 74
3 74 95 221
3 177 95 74
3 31 229 49
3 49 14 31
3 80 229 252
3 80 47 5
3 252 47 80
3 80 49 229
3 25 15 4
3 190 3 97
3 97 44 190
3 97 4 44
3 25 4 97
3 253 217 222
3 201 238 30
3 211 127 233
3 127 217 233
3 35 113 133
3 133 229 35
3 35 229 67
3 92 254 178
3 81 220 26
3 26 220 135
3 135 248 77
3 109 248 135
3 135 220 109
3 224 179 171
3 171 64 224
3 15 144 224
3 249 15 224
3 224 64 249
3 214 179 224
3 224 144 214
3 207 180 242
3 242 209 207
3 209 89 207
3 238 138 23
3 23 30 238
3 3 30 23
3 23 138 25
3 25 97 23
3 23 97 3
3 214 144 240
3 240 144 198
3 240 198 150
3 156 214 240
3 240 150 156
3 158 108 13
3 180 207 13
3 67 18 241
3 241 35 67
3 241 18 116
3 98 223 124
3 124 66 98
3 124 9 66
3 27 21 66
3 27 42 21
3 66 245 27
3 245 42 27
3 121 134 6
3 121 123 134
3 119 0 197
3 0 146 197
3 197 146 134
3 197 134 11
3 11 213 197
3 197 213 119
3 227 161 216
3 161 90 216
3 6 208 188
3 188 208 45
3 98 60 56
3 56 167 98
3 56 193 167
3 56 213 193
3 199 73 204
3 73 16 204
3 132 131 234
3 132 17 104
3 132 234 17
3 104 199 132
3 199 131 132
3 5 47 230
3 230 70 5
3 196 70 230
3 46 112 2
3 2 237 46
3 252 237 2
3 2 47 252
3 159 113 41
3 41 74 159
3 41 113 177
3 177 74 41
3 14 49 140
3 49 80 140
3 140 80 5
3 12 14 140
3 62 15 249
3 62 4 15
3 44 4 62
3 26 135 235
3 77 142 235
3 235 135 77
3 250 86 37
3 37 86 222
3 37 217 250
3 222 217 37
3 99 86 29
3 29 108 99
3 250 73 29
3 29 86 250
3 17 108 29
3 104 17 29
3 29 73 104
3 185 86 99
3 185 99 201
3 201 30 185
3 3 244 185
3 185 30 3
3 116 18 195
3 154 253 222
3 154 195 253
3 217 253 101
3 101 233 217
3 253 195 101
3 143 142 129
3 177 113 157
3 113 35 157
3 157 35 129
3 129 142 157
3 77 177 157
3 157 142 77
3 220 81 57
3 178 109 57
3 109 220 57
3 57 92 178
3 254 92 57
3 57 81 254
3 158 13 183
3 209 158 183
3 183 89 209
3 183 207 89
3 183 13 207
3 88 108 17
3 88 13 108
3 180 13 88
3 88 234 180
3 17 234 88
3 20 18 67
3 20 67 31
3 31 226 20
3 182 216 90
3 182 90 211
3 211 233 182
3 45 208 182
3 208 216 182
3 31 14 202
3 202 226 31
3 12 45 202
3 202 14 12
3 45 182 202
3 170 9 54
3 9 124 54
3 19 90 161
3 19 85 90
3 19 161 155
3 19 155 71
3 71 85 19
3 211 90 139
3 90 85 139
3 139 127 211
3 71 127 139
3 139 85 71
3 255 208 146
3 255 216 208
3 255 146 227
3 227 216 255
3 6 188 115
3 115 121 6
3 33 123 115
3 123 121 115
3 107 70 33
3 33 115 107
3 107 115 188
3 5 70 107
3 12 140 107
3 107 140 5
3 184 45 12
3 184 188 45
3 12 107 184
3 184 107 188
3 10 213 239
3 213 56 239
3 239 56 60
3 239 32 10
3 60 32 239
3 191 204 16
3 8 130 191
3 191 16 8
3 191 130 236
3 203 131 199
3 199 204 203
3 36 131 203
3 204 191 203
3 236 36 203
3 203 191 236
3 53 230 47
3 53 112 48
3 48 165 53
3 53 165 196
3 196 230 53
3 151 235 186
3 26 235 151
3 222 86 174
3 86 185 174
3 174 154 222
3 116 195 34
3 195 154 34
3 34 154 244
3 34 244 190
3 34 241 116
3 190 241 34
3 233 101 206
3 206 182 233
3 105 143 129
3 129 35 105
3 35 241 105
3 228 235 142
3 142 143 228
3 228 143 186
3 162 101 195
3 162 195 18
3 18 20 162
3 162 206 101
3 24 182 226
3 226 202 24
3 24 202 182
3 79 124 223
3 79 54 124
3 79 223 170
3 170 54 79
3 47 2 160
3 160 53 47
3 160 2 112
3 112 53 160
3 44 62 231
3 231 153 44
3 231 151 186
3 186 153 231
3 190 44 219
3 44 153 219
3 219 241 190
3 219 105 241
3 143 105 219
3 186 143 219
3 219 153 186
3 244 154 172
3 154 174 172
3 172 185 244
3 172 174 185
3 186 235 126
3 126 228 186
3 235 228 126
3 206 162 75
3 226 182 75
3 182 206 75
3 75 20 226
3 75 162 20
3 247 62 249
3 247 231 62
3 151 231 247
3 43 247 249
3 151 247 43
3 249 64 43
3 43 64 254
3 26 151 43
3 43 81 26
3 254 81 43