ply
format ascii 1.0
comment https://github.com/mikedh/trimesh
element vertex 256
property float x
property float y
property float z
element face 508
property list uchar int vertex_indices
end_header
0.16194543 2.95137453 0.77019668
-1.08446085 0.92861760 1.19657552
-4.19476271 1.13550341 -0.38223788
2.08470130 1.73473608 -0.96955729
1.23591578 1.13583148 -1.16361296
-3.51633835 2.30556297 -0.25454596
-2.26717806 2.91246367 0.48585409
-0.73915565 0.53269106 1.24351740
3.02135277 2.72758079 0.24220853
0.00268636 0.12556700 1.27239954
0.02292012 1.55933452 1.15519631
-1.72613573 1.48550773 1.06627476
-2.60073423 3.05090046 -0.12736952
4.03847313 0.94322616 -0.53830665
-2.59520411 2.92903376 -0.32275736
1.40197563 0.47286677 -1.20282948
3.37700105 2.53323436 0.09089338
3.95861077 1.29004097 -0.49649593
-0.47511572 2.83828640 -0.80939341
0.79134285 3.50615263 0.35593060
-0.99970633 3.18607211 -0.59205985
0.80933279 0.55905074 1.23885632
3.46272731 -0.07175323 0.84789526
2.27871966 1.61130142 -0.96154356
-1.54151261 3.38282824 -0.30765575
1.97999370 1.06395602 -1.09233642
-0.20577846 0.52096725 -1.25954664
0.72293222 0.26955280 1.25414610
3.50918078 0.76365089 0.79168028
3.26429677 2.36533618 -0.40214562
2.36441469 1.84066522 -0.89542723
-2.54824471 2.81781220 -0.44422266
0.25104910 1.39915538 1.17726994
-3.08465624 2.63415766 0.29821324
0.52196562 2.66869974 -0.87267643
-1.54616678 1.84961975 -1.01914823
4.09024382 1.66302824 0.19167899
1.96193469 3.04724741 -0.48793963
-2.98669267 0.65619665 0.94843060
1.35691881 1.14784169 1.15216410
-1.54045057 -0.00736570 1.20107400
-2.89973736 1.17043042 -0.90961242
1.33913624 0.28754309 1.21525252
0.29507193 0.57849109 -1.25492406
0.77296484 1.49558353 -1.14597833
-1.92970181 3.36442876 -0.09118383
-4.14997101 0.46251309 -0.54809004
-4.00853539 1.45516169 -0.40541157
-4.59737396 0.51024705 0.03661872
-2.66939950 2.74868226 -0.44229913
3.08557081 0.36907709 0.94306666
3.42819524 1.48213136 0.69255096
0.43547627 0.15771906 -1.26660466
-4.30594778 1.28157389 -0.18177822
-0.29691947 0.16394188 1.26923168
0.34023055 2.00183487 1.06786525
-0.31947336 1.27290463 1.19276905
0.02345558 0.21947351 -1.27098489
0.90969229 2.33258200 0.95799106
-2.38348365 0.75872213 1.06114793
0.13351798 1.24909830 1.19850242
1.27066588 -3.40958524 -0.36181623
0.91600245 1.10559022 -1.18906534
2.85155630 2.75718808 0.33881095
0.50945550 0.41000238 -1.25776267
1.11416805 0.61896718 1.21781170
0.67197227 0.44437435 1.25055158
-1.20380664 2.63115287 -0.83493197
4.27591085 0.96859580 0.36773652
-3.74638891 1.52676439 0.53990412
-3.51902819 2.38999987 0.12982622
1.05700707 3.48154569 0.33193704
-0.11703007 -2.79800367 0.83557171
3.66190886 2.25451565 -0.11772586
-2.96278071 0.82755584 -0.93837374
-0.39461985 3.42533827 -0.47704169
-4.35399914 0.76462108 0.35636324
-1.16006982 0.66446680 -1.21153057
-0.65062934 -3.14636183 -0.65097034
-0.24066252 0.22794466 1.26897991
-3.12021756 2.43807340 -0.43458223
-0.04128289 0.31211534 -1.26857805
4.63845873 0.16468576 -0.01464449
2.67511392 1.87333918 0.81804377
2.52314138 0.13558480 1.06761193
0.82169807 3.54255486 0.30459771
2.47425938 2.64092159 -0.58305746
-4.51149035 0.67751086 -0.19003995
3.98412061 1.21954906 -0.50183839
4.07370710 0.33053017 -0.60039937
0.14528009 3.68565679 0.14174867
2.02166557 0.15198411 1.14519155
0.14644884 0.19555956 -1.27078795
-2.27120805 0.03508897 1.11041307
0.82538098 3.04015040 0.69408131
-1.98026872 0.53242344 -1.13694561
2.53980112 2.23964930 0.73882705
1.64583790 1.46896029 -1.07861888
0.24865909 0.77403641 1.24322462
2.63921809 2.46736026 -0.61639237
3.34702182 1.61573148 0.68711668
0.42539409 3.40744686 -0.48978812
4.63957500 0.08636136 -0.03893702
-3.01200414 -2.48347354 -0.46142384
4.03379869 1.82318544 -0.07508517
-0.91410959 1.75789452 -1.09286594
-1.58694470 0.05911119 -1.19662464
-3.00876284 2.82642174 0.01747178
3.73602390 1.41210186 -0.58111292
-0.70544982 0.01999245 -1.25858653
-3.85119772 -1.15500772 0.59055984
1.08523166 1.95288217 1.04076314
-4.43970108 0.88542134 -0.21600528
-2.74336195 1.52587509 -0.88388765
1.72118163 1.28847396 1.09663939
-2.98502660 2.69780517 0.30581260
0.21598354 2.79830456 -0.83390498
-3.89202189 0.15735674 0.69241911
-2.85905933 0.71078104 0.97327507
-0.05209109 2.16185904 1.03453660
2.48293471 0.58035433 1.05734050
-2.93331361 2.26987195 0.60614884
1.43523824 1.03667259 1.15731418
-3.06492186 2.21380329 0.58143121
-0.08249531 0.22830907 1.27053678
-1.09205985 0.72988129 1.21183586
-0.37509656 1.16526103 -1.20429957
1.30703068 3.55337334 -0.07936383
-2.20360446 1.13456762 1.05121565
-0.87837672 1.49075150 -1.14073598
3.26712966 2.50891113 0.27797651
4.08645296 1.75132561 0.06610003
4.13574171 1.67959869 -0.04800132
-2.86921906 1.94991207 -0.74486369
-2.27365398 2.22946358 0.80428761
-0.31082773 0.46764806 -1.26026356
-1.89870811 -1.42785621 1.05375230
0.09520864 -3.54951644 0.36926302
2.24677515 0.92676222 -1.06768215
0.70188206 3.65637660 0.09990905
-3.06525183 2.64189339 -0.30437523
1.25570202 2.97198009 0.68010980
-0.84732914 1.27138901 -1.17360699
-0.51792300 1.34332383 -1.17831171
1.65748703 0.34633809 -1.18324339
-1.88578999 1.18141747 1.09070861
-0.90577340 3.13403821 0.63496429
-4.39647818 0.32731101 0.39344099
0.43817005 -3.31314778 0.56000000
-4.57323551 0.17338295 0.21142845
3.23179197 0.29342067 -0.90838784
-0.09182870 0.76983219 -1.24524653
-1.81583703 0.32910460 1.16633952
0.31342933 1.40456343 -1.17547596
1.17747104 2.74449682 -0.79421324
1.10268641 3.39196324 0.41788140
0.63679481 -2.76605344 -0.83054233
-1.92808425 1.44112802 -1.04744649
3.55221796 0.63082248 -0.79097587
-3.38596439 1.27530944 -0.75320518
-4.29277325 1.13703954 -0.28976747
-0.04906238 3.36016011 0.54013240
-0.16525039 3.35208106 -0.54351419
2.95690060 2.22566199 0.61642355
-1.53368032 1.19860232 1.12906814
-4.15998220 1.28788626 0.35377744
-2.08283162 1.07761586 1.07610834
-0.38885450 0.52134567 1.25599170
-3.57884121 0.63676202 -0.78126997
-2.64831114 0.10738367 1.04511666
-0.33151138 0.16128236 1.26867187
0.74422371 0.08311474 -1.25638413
1.40668309 2.65514565 -0.80135274
-2.00860643 -2.68642116 -0.68406534
1.83441842 2.70428586 -0.71168691
1.85892558 -3.19449067 -0.40049613
1.32819116 0.93103278 1.17745447
-2.19942713 1.07371616 -1.05900955
0.17940342 0.15031888 -1.27130616
1.29507422 0.11280069 -1.22199965
4.52601099 0.23801963 -0.27186882
2.36868191 3.00373673 0.36908954
-1.24384773 3.55831814 -0.11616441
4.05631208 0.56928158 -0.58792156
-2.48269606 3.13514853 -0.01402132
2.10395885 2.46298623 -0.75736308
-0.26487768 1.25521374 -1.19619489
-4.12988186 -1.55030060 0.23507026
-2.56195974 3.01293230 0.24174078
-3.95731068 0.38100195 0.65307516
0.69129431 2.14744186 -1.02087414
3.34875178 2.46966362 0.24447091
-1.41493320 0.06635085 1.21242046
-0.46512869 1.26133060 1.19050622
-1.56532335 0.05176153 -1.19866347
0.49249086 3.07019186 -0.70211023
-3.85428071 1.77282548 0.36619779
-0.56501728 2.21899462 1.00866222
2.02872419 0.46617046 -1.13385081
3.99390650 1.87992764 -0.07167967
3.62832999 0.47110584 0.77765310
2.70399952 1.94858670 -0.79034227
-1.76931357 3.32443380 -0.29113090
3.96435428 1.88330185 0.14801599
3.61556244 2.28363943 0.15559149
3.49872661 0.62647706 0.80871350
0.23355238 3.55410862 -0.35962459
4.41564178 0.10198048 -0.39165205
-1.93042076 3.15741038 0.40959010
3.81521535 0.20064871 -0.72205108
-3.02692485 -2.01645660 -0.67295814
0.57346767 3.68056345 -0.03810754
2.69906425 2.64842606 0.49737832
-0.23525870 1.59310961 1.14831400
1.42159891 0.06863714 -1.21179879
0.70597631 -3.21377325 0.60584563
-0.71322328 3.43546104 0.43943277
1.42332602 3.35234618 -0.38117597
-0.90629786 -2.03324747 1.03542626
0.39705738 1.53362858 -1.15416884
-0.23456824 0.34800658 -1.26603758
-2.99688315 0.26986936 -0.96809590
1.81705523 2.97512770 -0.57496482
-0.26840481 0.36817136 1.26471138
1.36411154 0.39239353 -1.20946515
-3.75894403 -0.56841850 0.72120816
-1.11018205 3.36165714 -0.44491154
-0.57167792 3.32536650 0.54214090
-0.49656066 1.21152663 -1.19593322
-2.83111882 2.10262489 -0.70531839
-3.92520547 1.89051020 -0.20299657
0.54669875 1.05847573 -1.21099830
-2.51524282 -0.51271087 -1.05574453
0.24700469 3.55776548 -0.35482475
4.45616961 1.03374493 -0.04412656
-0.40647826 1.00632322 -1.22042847
3.95708466 1.43351281 0.44862747
-3.84667540 0.99482226 -0.62610215
2.92384124 1.48897374 -0.84695399
-0.09901160 1.39269769 1.17976868
1.90119219 0.14517888 -1.16039646
-0.37268856 2.43323207 -0.95557785
4.39897490 -1.17278171 -0.05817506
-3.64532852 1.93094385 0.42703620
1.28276336 2.56754780 -0.84939754
0.67470944 0.12023003 1.25927866
3.48607922 0.48883033 0.82379091
0.45083982 0.81393015 -1.23609960
-1.17944646 0.29499894 -1.22715032
0.50715077 0.56035358 -1.25087881
2.21940231 3.12207031 -0.32007769
-3.59808493 -1.51756442 0.61313772
-3.72861767 1.36181259 -0.59767020
0.93765211 3.17314482 -0.60772949
0.24856047 0.32557192 -1.26663470
-0.88225347 3.26773214 0.55249059
3 187 149 48
3 48 87 187
3 48 149 76
3 156 78 173
3 242 22 215
3 215 175 242
3 251 187 137
3 210 221 232
3 232 173 210
3 156 173 232
3 46 221 210
3 210 187 46
3 46 187 87
3 103 187 210
3 210 173 103
3 137 187 103
3 103 78 137
3 103 173 78
3 137 78 61
3 61 215 137
3 175 215 61
3 61 78 156
3 156 175 61
3 171 156 178
3 171 214 156
3 242 175 209
3 136 251 218
3 82 68 22
3 82 242 102
3 82 22 242
3 22 68 200
3 149 187 110
3 187 251 110
3 178 156 109
3 156 232 109
3 112 46 87
3 112 87 48
3 137 215 148
3 28 236 51
3 28 200 68
3 68 236 28
3 246 50 22
3 22 200 246
3 225 110 251
3 225 251 136
3 136 169 225
3 169 117 225
3 150 175 156
3 150 209 175
3 83 28 51
3 83 163 96
3 71 181 127
3 8 250 127
3 127 181 8
3 118 169 59
3 196 69 243
3 84 215 22
3 22 50 84
3 72 91 218
3 72 148 215
3 215 84 72
3 72 84 91
3 137 148 72
3 72 251 137
3 72 218 251
3 176 91 122
3 114 39 122
3 122 39 176
3 1 7 193
3 193 7 167
3 58 119 55
3 102 242 180
3 180 82 102
3 200 28 205
3 205 246 200
3 205 28 50
3 50 246 205
3 189 69 76
3 147 225 117
3 117 189 147
3 149 110 147
3 110 225 147
3 147 76 149
3 147 189 76
3 52 171 178
3 198 15 25
3 209 150 158
3 158 150 238
3 194 248 109
3 194 106 248
3 194 109 232
3 232 106 194
3 51 236 100
3 236 163 100
3 100 83 51
3 163 83 100
3 130 163 236
3 96 163 212
3 163 130 212
3 155 181 71
3 111 96 58
3 111 83 96
3 114 83 111
3 58 55 111
3 111 39 114
3 93 59 169
3 93 169 136
3 59 93 152
3 76 69 165
3 69 196 165
3 48 76 165
3 91 84 120
3 114 122 120
3 120 122 91
3 120 84 50
3 120 83 114
3 50 28 120
3 28 83 120
3 136 218 170
3 170 7 192
3 167 7 170
3 218 91 245
3 134 69 118
3 73 199 104
3 36 236 68
3 82 180 234
3 68 82 234
3 234 36 68
3 118 69 38
3 69 189 38
3 38 189 117
3 38 169 118
3 38 117 169
3 221 46 168
3 133 159 252
3 95 232 221
3 95 106 232
3 95 177 77
3 77 248 95
3 248 106 95
3 113 159 133
3 31 67 229
3 133 252 229
3 244 3 190
3 217 127 250
3 254 52 178
3 171 52 64
3 52 254 64
3 214 171 179
3 138 198 25
3 150 198 138
3 238 150 138
3 15 198 144
3 108 158 238
3 108 238 201
3 201 99 108
3 141 212 181
3 141 155 94
3 181 155 141
3 96 212 141
3 94 58 141
3 58 96 141
3 63 130 8
3 63 212 130
3 8 181 63
3 181 212 63
3 11 145 164
3 164 193 11
3 1 193 164
3 145 152 164
3 118 59 128
3 128 145 11
3 128 134 118
3 11 134 128
3 125 152 192
3 192 7 125
3 125 7 1
3 1 164 125
3 125 164 152
3 192 152 40
3 40 152 93
3 40 93 136
3 136 170 40
3 40 170 192
3 59 152 166
3 166 152 145
3 166 128 59
3 145 128 166
3 98 66 21
3 21 176 98
3 21 65 176
3 98 167 223
3 167 170 223
3 9 170 218
3 218 245 9
3 9 245 66
3 42 245 91
3 42 91 176
3 176 65 42
3 65 21 42
3 243 69 123
3 69 134 123
3 123 33 243
3 0 58 94
3 0 119 58
3 94 155 161
3 161 0 94
3 227 0 161
3 6 134 146
3 146 0 227
3 6 146 208
3 70 196 243
3 243 33 70
3 11 193 213
3 213 55 119
3 213 10 55
3 98 176 60
3 32 111 55
3 55 10 32
3 39 111 32
3 176 39 32
3 32 60 176
3 16 250 8
3 16 73 250
3 36 234 131
3 159 168 237
3 237 252 159
3 237 168 46
3 74 168 159
3 221 168 74
3 74 95 221
3 177 95 74
3 31 229 49
3 49 14 31
3 80 229 252
3 80 47 5
3 252 47 80
3 80 49 229
3 25 15 4
3 190 3 97
3 97 44 190
3 97 4 44
3 25 4 97
3 253 217 222
3 201 238 30
3 211 127 233
3 127 217 233
3 35 113 133
3 133 229 35
3 35 229 67
3 92 254 178
3 81 220 26
3 26 220 135
3 135 248 77
3 109 248 135
3 135 220 109
3 224 179 171
3 171 64 224
3 15 144 224
3 249 15 224
3 224 64 249
3 214 179 224
3 224 144 214
3 207 180 242
3 242 209 207
3 209 89 207
3 238 138 23
3 23 30 238
3 3 30 23
3 23 138 25
3 25 97 23
3 23 97 3
3 214 144 240
3 240 144 198
3 240 198 150
3 156 214 240
3 240 150 156
3 158 108 13
3 180 207 13
3 67 18 241
3 241 35 67
3 241 18 116
3 98 223 124
3 124 66 98
3 124 9 66
3 27 21 66
3 27 42 21
3 66 245 27
3 245 42 27
3 121 134 6
3 121 123 134
3 119 0 197
3 0 146 197
3 197 146 134
3 197 134 11
3 11 213 197
3 197 213 119
3 227 161 216
3 161 90 216
3 6 208 188
3 188 208 45
3 98 60 56
3 56 167 98
3 56 193 167
3 56 213 193
3 199 73 204
3 73 16 204
3 132 131 234
3 132 17 104
3 132 234 17
3 104 199 132
3 199 131 132
3 5 47 230
3 230 70 5
3 196 70 230
3 46 112 2
3 2 237 46
3 252 237 2
3 2 47 252
3 159 113 41
3 41 74 159
3 41 113 177
3 177 74 41
3 14 49 140
3 49 80 140
3 140 80 5
3 12 14 140
3 62 15 249
3 62 4 15
3 44 4 62
3 26 135 235
3 77 142 235
3 235 135 77
3 250 86 37
3 37 86 222
3 37 217 250
3 222 217 37
3 99 86 29
3 29 108 99
3 250 73 29
3 29 86 250
3 17 108 29
3 104 17 29
3 29 73 104
3 185 86 99
3 185 99 201
3 201 30 185
3 3 244 185
3 185 30 3
3 116 18 195
3 154 253 222
3 154 195 253
3 217 253 101
3 101 233 217
3 253 195 101
3 143 142 129
3 177 113 157
3 113 35 157
3 157 35 129
3 129 142 157
3 77 177 157
3 157 142 77
3 220 81 57
3 178 109 57
3 109 220 57
3 57 92 178
3 254 92 57
3 57 81 254
3 158 13 183
3 209 158 183
3 183 89 209
3 183 207 89
3 183 13 207
3 88 108 17
3 88 13 108
3 180 13 88
3 88 234 180
3 17 234 88
3 20 18 67
3 20 67 31
3 31 226 20
3 182 216 90
3 182 90 211
3 211 233 182
3 45 208 182
3 208 216 182
3 31 14 202
3 202 226 31
3 12 45 202
3 202 14 12
3 45 182 202
3 170 9 54
3 9 124 54
3 19 90 161
3 19 85 90
3 19 161 155
3 19 155 71
3 71 85 19
3 211 90 139
3 90 85 139
3 139 127 211
3 71 127 139
3 139 85 71
3 255 208 146
3 255 216 208
3 255 146 227
3 227 216 255
3 6 188 115
3 115 121 6
3 33 123 115
3 123 121 115
3 107 70 33
3 33 115 107
3 107 115 188
3 5 70 107
3 12 140 107
3 107 140 5
3 184 45 12
3 184 188 45
3 12 107 184
3 184 107 188
3 10 213 239
3 213 56 239
3 239 56 60
3 239 32 10
3 60 32 239
3 191 204 16
3 8 130 191
3 191 16 8
3 191 130 236
3 203 131 199
3 199 204 203
3 36 131 203
3 204 191 203
3 236 36 203
3 203 191 236
3 53 230 47
3 53 112 48
3 48 165 53
3 53 165 196
3 196 230 53
3 151 235 186
3 26 235 151
3 222 86 174
3 86 185 174
3 174 154 222
3 116 195 34
3 195 154 34
3 34 154 244
3 34 244 190
3 34 241 116
3 190 241 34
3 233 101 206
3 206 182 233
3 105 143 129
3 129 35 105
3 35 241 105
3 228 235 142
3 142 143 228
3 228 143 186
3 162 101 195
3 162 195 18
3 18 20 162
3 162 206 101
3 24 182 226
3 226 202 24
3 24 202 182
3 79 124 223
3 79 54 124
3 79 223 170
3 170 54 79
3 47 2 160
3 160 53 47
3 160 2 112
3 112 53 160
3 44 62 231
3 231 153 44
3 231 151 186
3 186 153 231
3 190 44 219
3 44 153 219
3 219 241 190
3 219 105 241
3 143 105 219
3 186 143 219
3 219 153 186
3 244 154 172
3 154 174 172
3 172 185 244
3 172 174 185
3 186 235 126
3 126 228 186
3 235 228 126
3 206 162 75
3 226 182 75
3 182 206 75
3 75 20 226
3 75 162 20
3 247 62 249
3 247 231 62
3 151 231 247
3 43 247 249
3 151 247 43
3 249 64 43
3 43 64 254
3 26 151 43
3 43 81 26
3 254 81 43