ply
format ascii 1.0
comment https://github.com/mikedh/trimesh
element vertex 256
property float x
property float y
property float z
element face 508
property list uchar int vertex_indices
end_header
0.12571663 3.18166637 1.34733307
-0.84185606 1.00107634 2.09321308
-3.25635242 1.22410524 -0.66866267
1.61833274 1.87009525 -1.69608188
0.95942903 1.22445881 -2.03555059
-2.72969818 2.48546290 -0.44528651
-1.75998759 3.13971925 0.84992224
-0.57379913 0.57425624 2.17533040
2.34544587 2.94041014 0.42370421
0.00208539 0.13536483 2.22585487
0.01779266 1.68100727 2.02082705
-1.33998191 1.60141981 1.86527336
-2.01892400 3.28895807 -0.22281216
3.13502622 1.01682484 -0.94167942
-2.01463103 3.15758228 -0.56461120
1.08833969 0.50976396 -2.10415339
2.62153196 2.73089933 0.15900311
3.07302999 1.39070117 -0.86853844
-0.36882758 3.05975389 -1.41590130
0.61431152 3.77973294 0.62264240
-0.77606201 3.43467689 -1.03571188
0.62827694 0.60267270 2.16717649
2.68808055 -0.07735203 1.48325408
1.76894724 1.73702908 -1.68206322
-1.19666088 3.64678574 -0.53819346
1.53704929 1.14697516 -1.91086388
-0.15974377 0.56161755 -2.20337081
0.56120509 0.29058564 2.19392347
2.72414184 0.82323754 1.38491511
2.53404093 2.54990005 -0.70348799
1.83547139 1.98428977 -1.56640339
-1.97817683 3.03768229 -0.77709490
0.19488689 1.50832963 2.05944109
-2.39458776 2.83969736 0.52167529
0.40519670 2.87693477 -1.52660465
-1.20027387 1.99394310 -1.78283322
3.17521524 1.79279208 0.33531103
1.52303028 3.28502011 -0.85357058
-2.31853962 0.70739877 1.65912426
1.05336261 1.23740625 2.01552248
-1.19583631 -0.00794043 2.10108256
-2.25103712 1.26175749 -1.59121811
1.03955805 0.30997968 2.12588549
0.22906139 0.62362999 -2.19528437
0.60004485 1.61228180 -2.00470161
-1.49800825 3.62695074 -0.15951121
-3.22158074 0.49860236 -0.95879394
-3.11178613 1.56870604 -0.70920122
-3.56889558 0.55006093 0.06405847
-2.07222819 2.96315813 -0.77372998
2.39529777 0.39787567 1.64974082
2.66127372 1.59778011 1.21150458
0.33805588 0.17002568 -2.21571779
-3.34266400 1.38157332 -0.31799129
-0.23049560 0.17673403 2.22031307
0.26411757 2.15803528 1.86805570
-0.24800397 1.37222767 2.08655429
0.01820834 0.23659873 -2.22338009
0.70618498 2.51459026 1.67584872
-1.85027456 0.81792420 1.85630476
0.10364867 1.34656382 2.09658384
0.98640519 -3.67563057 -0.63293833
0.71108353 1.19185793 -2.08007526
2.21363473 2.97232771 0.59269434
0.39548519 0.44199431 -2.20025015
0.86491752 0.66726434 2.13036251
0.52164537 0.47904828 2.18763566
-0.93450302 2.83645821 -1.46057689
3.31934667 1.04417408 0.64329487
-2.90828419 1.64589584 0.94447392
-2.73178649 2.57648849 0.22710975
0.82054406 3.75320601 0.58066958
-0.09084927 -3.01632810 1.46169603
2.84270334 2.43043256 -0.20594215
-2.29997706 0.89212888 -1.64153135
-0.30633944 3.69261289 -0.83450639
-3.37996602 0.82428342 0.62339920
-0.90055060 0.71631426 -2.11937451
-0.50507706 -3.39186811 -1.13876617
-0.18682390 0.24573086 2.21987271
-2.42219377 2.62831306 -0.76023054
-0.03204750 0.33646929 -2.21916986
3.60078907 0.17753597 -0.02561814
2.07666421 2.01951337 1.43103385
1.95868945 0.14616430 1.86761236
0.63787597 3.81897545 0.53284389
1.92074275 2.84698892 -1.01996374
-3.50222468 0.73037612 -0.33244380
3.09283304 1.31470883 -0.87788415
3.16237807 0.35632101 -1.05030048
0.11277949 3.97324347 0.24796611
1.56939888 0.16384323 2.00332546
0.11368677 0.21081881 -2.22303581
-1.76311600 0.03782691 1.94248605
0.64073503 3.27736926 1.21418178
-1.53726280 0.57396775 -1.98890030
1.97162235 2.41440606 1.29245710
1.27764750 1.58358121 -1.88686740
0.19303156 0.83443344 2.17481804
2.04879856 2.65988517 -1.07827759
2.59825969 1.74180484 1.20199835
0.33022916 3.67332530 -0.85680419
3.60165572 0.09310003 -0.06811395
-2.33818865 -2.67725563 -0.80718553
3.13139749 1.96544611 -0.13134922
-0.70961416 1.89506066 -1.91179013
-1.23192930 0.06372355 -2.09329915
-2.33567238 3.04696369 0.03056402
2.90023804 1.52228630 -1.01656199
-0.54763365 0.02155243 -2.20169139
-2.98964620 -1.24513137 1.03308785
0.84245449 2.10526299 1.82064486
-3.44649553 0.95450956 -0.37786591
-2.12964439 1.64493704 -1.54621696
1.33613610 1.38901186 1.91839123
-2.31724620 2.90831137 0.53496909
0.16766587 3.01665258 -1.45878041
-3.02133775 0.16963507 1.21127403
-2.21945906 0.76624233 1.70258546
-0.04043779 2.33054590 1.80975270
1.92747736 0.62563860 1.84964430
-2.27710199 2.44698691 1.06035817
1.11416101 1.11756277 2.02453184
-2.37926817 2.38654327 1.01711881
-0.06404028 0.24612372 2.22259641
-0.84775519 0.78683299 2.11990857
-0.29118371 1.25618482 -2.10672522
1.01463485 3.83063841 -0.13883404
-1.71063614 1.22309637 1.83892977
-0.68187505 1.60707283 -1.99553108
2.53624010 2.70467806 0.48627445
3.17227268 1.88797915 0.11563120
3.21053481 1.81065547 -0.08397046
-2.22734618 2.10206103 -1.30301714
-1.76501489 2.40342546 1.40696967
-0.24129245 0.50413799 -2.20462489
-1.47394812 -1.53926980 1.84336722
0.07390952 -3.82648039 0.64596528
1.74414909 0.99907619 -1.86773527
0.54486400 3.94167876 0.17477454
-2.37952423 2.84803677 -0.53245467
0.97478890 3.20387959 1.18974090
-0.65777314 1.37059379 -2.05303359
-0.40205845 1.44814157 -2.06126356
1.28669059 0.37336239 -2.06989074
-1.46392000 1.27360177 1.90801644
-0.70314282 3.37858295 1.11076617
-3.41294193 0.35285065 0.68826067
0.34014705 -3.57166815 0.97962838
-3.55015683 0.18691179 0.36985949
2.50880766 0.31631589 -1.58907604
-0.07128570 0.82990116 -2.17835498
-1.40961611 0.35478419 2.04032040
0.24331206 1.51415956 -2.05630302
0.91405898 2.95864606 -1.38934624
0.85600442 3.65663338 0.73101515
0.49433744 -2.98188472 -1.45289803
-1.49675250 1.55357730 -1.83233631
2.75755119 0.68004465 -1.38368297
-2.62849045 1.37482011 -1.31760931
-3.33243704 1.22576118 -0.50690079
-0.03808663 3.62234879 0.94487327
-0.12828223 3.61363935 -0.95078915
2.29541230 2.39932752 1.07833219
-1.19058073 1.29212761 1.97512007
-3.22935271 1.38837826 0.61887574
-1.61688137 1.16170073 1.88247550
-0.30186385 0.56202555 2.19715214
-2.77821875 0.68644774 -1.36670399
-2.05585766 0.11576267 1.82826066
-0.25734898 0.17386700 2.21933413
0.57773346 0.08960007 -2.19783854
1.09199405 2.86232305 -1.40183556
-1.55926096 -2.89603877 -1.19666040
1.42404068 2.91529751 -1.24497986
1.44306540 -3.44375253 -0.70060247
1.03106153 1.00367999 2.05976391
-1.70739329 1.15749681 -1.85256410
0.13926908 0.16204804 -2.22394228
1.00535321 0.12160237 -2.13768840
3.51349711 0.25659198 -0.47559005
1.83878422 3.23811412 0.64566177
-0.96558654 3.83596873 -0.20321064
3.14887452 0.61370182 -1.02847266
-1.92729211 3.37977982 -0.02452801
1.63328218 2.65516973 -1.32488286
-0.20562188 1.35315633 -2.09254718
-3.20598626 -1.67126846 0.41121697
-1.98882365 3.24802732 0.42288595
-3.07202077 0.41073102 1.14244819
0.53664488 2.31500387 -1.78585243
2.59960246 2.66236830 0.42766187
-1.09839845 0.07152811 2.12093139
-0.36107475 1.35975051 2.08259606
-1.21514487 0.05580041 -2.09686565
0.38231573 3.30975461 -1.22822702
-2.99203944 1.91115665 0.64060313
-0.43861726 2.39213967 1.76448953
1.57487822 0.50254512 -1.98348641
3.10042977 2.02661586 -0.12539187
2.81663632 0.50786561 1.36037695
2.09908772 2.10063219 -1.38257456
-1.37350047 3.58383489 -0.50928593
3.07748866 2.03025341 0.25892976
2.80672503 2.46182871 0.27218187
2.71602654 0.67536026 1.41471195
0.18130438 3.83143091 -0.62910438
3.42781878 0.10993788 -0.68513119
-1.49856627 3.40377879 0.71651089
2.96171355 0.21630506 -1.26311028
-2.34977150 -2.17379785 -1.17723024
0.44517720 3.96775293 -0.06666292
2.09525657 2.85507917 0.87008202
-0.18262897 1.71741772 2.00878739
1.10357308 0.07399280 -2.11984396
0.54804236 -3.46453953 1.05982780
-0.55366808 3.70352530 0.76871580
1.10491371 3.61392522 -0.66680503
-0.70354998 -2.19189882 1.81130886
0.30823168 1.65329552 -2.01902962
-0.18209298 0.37516105 -2.21472573
-2.32645059 0.29092690 -1.69352543
1.41056180 3.20727301 -1.00580692
-0.20835997 0.39689925 2.21240568
1.05894613 0.42301145 -2.11576152
-2.91803074 -0.61277145 1.26163578
-0.86182326 3.62396288 -0.77829999
-0.44378787 3.58484030 0.94838685
-0.38547510 1.30606043 -2.09208941
-2.19776917 2.26668978 -1.23383915
-3.04709792 2.03802419 -0.35510930
0.42439675 1.14106715 -2.11844349
-1.95255780 -0.55271697 -1.84685242
0.19174728 3.83537292 -0.62070787
3.45927978 1.11440670 -0.07719219
-0.31554502 1.08484519 -2.13494015
3.07184529 1.54536784 0.78480041
-2.98613572 1.07244694 -1.09526336
2.26974869 1.60515630 -1.48160756
-0.07686172 1.50136805 2.06381249
1.47587645 0.15650700 -2.02992392
-0.28931439 2.62309384 -1.67162716
3.41488004 -1.26429224 -0.10176776
-2.82983208 2.08161283 0.74703002
0.99579638 2.76789021 -1.48588204
0.52377021 0.12961142 2.20290208
2.70620847 0.52697307 1.44108748
0.34998244 0.87743998 -2.16235423
-0.91559249 0.31801730 -2.14669871
0.39369607 0.60407716 -2.18820786
1.72289979 3.36568117 -0.55992359
-2.79315734 -1.63597798 1.07258415
-2.89448857 1.46807289 -1.04552627
0.72788996 3.42074108 -1.06312335
0.19295502 0.35097584 -2.21577024
-0.68488455 3.52270889 0.96649194
3 187 149 48
3 48 87 187
3 48 149 76
3 156 78 173
3 242 22 215
3 215 175 242
3 251 187 137
3 210 221 232
3 232 173 210
3 156 173 232
3 46 221 210
3 210 187 46
3 46 187 87
3 103 187 210
3 210 173 103
3 137 187 103
3 103 78 137
3 103 173 78
3 137 78 61
3 61 215 137
3 175 215 61
3 61 78 156
3 156 175 61
3 171 156 178
3 171 214 156
3 242 175 209
3 136 251 218
3 82 68 22
3 82 242 102
3 82 22 242
3 22 68 200
3 149 187 110
3 187 251 110
3 178 156 109
3 156 232 109
3 112 46 87
3 112 87 48
3 137 215 148
3 28 236 51
3 28 200 68
3 68 236 28
3 246 50 22
3 22 200 246
3 225 110 251
3 225 251 136
3 136 169 225
3 169 117 225
3 150 175 156
3 150 209 175
3 83 28 51
3 83 163 96
3 71 181 127
3 8 250 127
3 127 181 8
3 118 169 59
3 196 69 243
3 84 215 22
3 22 50 84
3 72 91 218
3 72 148 215
3 215 84 72
3 72 84 91
3 137 148 72
3 72 251 137
3 72 218 251
3 176 91 122
3 114 39 122
3 122 39 176
3 1 7 193
3 193 7 167
3 58 119 55
3 102 242 180
3 180 82 102
3 200 28 205
3 205 246 200
3 205 28 50
3 50 246 205
3 189 69 76
3 147 225 117
3 117 189 147
3 149 110 147
3 110 225 147
3 147 76 149
3 147 189 76
3 52 171 178
3 198 15 25
3 209 150 158
3 158 150 238
3 194 248 109
3 194 106 248
3 194 109 232
3 232 106 194
3 51 236 100
3 236 163 100
3 100 83 51
3 163 83 100
3 130 163 236
3 96 163 212
3 163 130 212
3 155 181 71
3 111 96 58
3 111 83 96
3 114 83 111
3 58 55 111
3 111 39 114
3 93 59 169
3 93 169 136
3 59 93 152
3 76 69 165
3 69 196 165
3 48 76 165
3 91 84 120
3 114 122 120
3 120 122 91
3 120 84 50
3 120 83 114
3 50 28 120
3 28 83 120
3 136 218 170
3 170 7 192
3 167 7 170
3 218 91 245
3 134 69 118
3 73 199 104
3 36 236 68
3 82 180 234
3 68 82 234
3 234 36 68
3 118 69 38
3 69 189 38
3 38 189 117
3 38 169 118
3 38 117 169
3 221 46 168
3 133 159 252
3 95 232 221
3 95 106 232
3 95 177 77
3 77 248 95
3 248 106 95
3 113 159 133
3 31 67 229
3 133 252 229
3 244 3 190
3 217 127 250
3 254 52 178
3 171 52 64
3 52 254 64
3 214 171 179
3 138 198 25
3 150 198 138
3 238 150 138
3 15 198 144
3 108 158 238
3 108 238 201
3 201 99 108
3 141 212 181
3 141 155 94
3 181 155 141
3 96 212 141
3 94 58 141
3 58 96 141
3 63 130 8
3 63 212 130
3 8 181 63
3 181 212 63
3 11 145 164
3 164 193 11
3 1 193 164
3 145 152 164
3 118 59 128
3 128 145 11
3 128 134 118
3 11 134 128
3 125 152 192
3 192 7 125
3 125 7 1
3 1 164 125
3 125 164 152
3 192 152 40
3 40 152 93
3 40 93 136
3 136 170 40
3 40 170 192
3 59 152 166
3 166 152 145
3 166 128 59
3 145 128 166
3 98 66 21
3 21 176 98
3 21 65 176
3 98 167 223
3 167 170 223
3 9 170 218
3 218 245 9
3 9 245 66
3 42 245 91
3 42 91 176
3 176 65 42
3 65 21 42
3 243 69 123
3 69 134 123
3 123 33 243
3 0 58 94
3 0 119 58
3 94 155 161
3 161 0 94
3 227 0 161
3 6 134 146
3 146 0 227
3 6 146 208
3 70 196 243
3 243 33 70
3 11 193 213
3 213 55 119
3 213 10 55
3 98 176 60
3 32 111 55
3 55 10 32
3 39 111 32
3 176 39 32
3 32 60 176
3 16 250 8
3 16 73 250
3 36 234 131
3 159 168 237
3 237 252 159
3 237 168 46
3 74 168 159
3 221 168 74
3 74 95 221
3 177 95 74
3 31 229 49
3 49 14 31
3 80 229 252
3 80 47 5
3 252 47 80
3 80 49 229
3 25 15 4
3 190 3 97
3 97 44 190
3 97 4 44
3 25 4 97
3 253 217 222
3 201 238 30
3 211 127 233
3 127 217 233
3 35 113 133
3 133 229 35
3 35 229 67
3 92 254 178
3 81 220 26
3 26 220 135
3 135 248 77
3 109 248 135
3 135 220 109
3 224 179 171
3 171 64 224
3 15 144 224
3 249 15 224
3 224 64 249
3 214 179 224
3 224 144 214
3 207 180 242
3 242 209 207
3 209 89 207
3 238 138 23
3 23 30 238
3 3 30 23
3 23 138 25
3 25 97 23
3 23 97 3
3 214 144 240
3 240 144 198
3 240 198 150
3 156 214 240
3 240 150 156
3 158 108 13
3 180 207 13
3 67 18 241
3 241 35 67
3 241 18 116
3 98 223 124
3 124 66 98
3 124 9 66
3 27 21 66
3 27 42 21
3 66 245 27
3 245 42 27
3 121 134 6
3 121 123 134
3 119 0 197
3 0 146 197
3 197 146 134
3 197 134 11
3 11 213 197
3 197 213 119
3 227 161 216
3 161 90 216
3 6 208 188
3 188 208 45
3 98 60 56
3 56 167 98
3 56 193 167
3 56 213 193
3 199 73 204
3 73 16 204
3 132 131 234
3 132 17 104
3 132 234 17
3 104 199 132
3 199 131 132
3 5 47 230
3 230 70 5
3 196 70 230
3 46 112 2
3 2 237 46
3 252 237 2
3 2 47 252
3 159 113 41
3 41 74 159
3 41 113 177
3 177 74 41
3 14 49 140
3 49 80 140
3 140 80 5
3 12 14 140
3 62 15 249
3 62 4 15
3 44 4 62
3 26 135 235
3 77 142 235
3 235 135 77
3 250 86 37
3 37 86 222
3 37 217 250
3 222 217 37
3 99 86 29
3 29 108 99
3 250 73 29
3 29 86 250
3 17 108 29
3 104 17 29
3 29 73 104
3 185 86 99
3 185 99 201
3 201 30 185
3 3 244 185
3 185 30 3
3 116 18 195
3 154 253 222
3 154 195 253
3 217 253 101
3 101 233 217
3 253 195 101
3 143 142 129
3 177 113 157
3 113 35 157
3 157 35 129
3 129 142 157
3 77 177 157
3 157 142 77
3 220 81 57
3 178 109 57
3 109 220 57
3 57 92 178
3 254 92 57
3 57 81 254
3 158 13 183
3 209 158 183
3 183 89 209
3 183 207 89
3 183 13 207
3 88 108 17
3 88 13 108
3 180 13 88
3 88 234 180
3 17 234 88
3 20 18 67
3 20 67 31
3 31 226 20
3 182 216 90
3 182 90 211
3 211 233 182
3 45 208 182
3 208 216 182
3 31 14 202
3 202 226 31
3 12 45 202
3 202 14 12
3 45 182 202
3 170 9 54
3 9 124 54
3 19 90 161
3 19 85 90
3 19 161 155
3 19 155 71
3 71 85 19
3 211 90 139
3 90 85 139
3 139 127 211
3 71 127 139
3 139 85 71
3 255 208 146
3 255 216 208
3 255 146 227
3 227 216 255
3 6 188 115
3 115 121 6
3 33 123 115
3 123 121 115
3 107 70 33
3 33 115 107
3 107 115 188
3 5 70 107
3 12 140 107
3 107 140 5
3 184 45 12
3 184 188 45
3 12 107 184
3 184 107 188
3 10 213 239
3 213 56 239
3 239 56 60
3 239 32 10
3 60 32 239
3 191 204 16
3 8 130 191
3 191 16 8
3 191 130 236
3 203 131 199
3 199 204 203
3 36 131 203
3 204 191 203
3 236 36 203
3 203 191 236
3 53 230 47
3 53 112 48
3 48 165 53
3 53 165 196
3 196 230 53
3 151 235 186
3 26 235 151
3 222 86 174
3 86 185 174
3 174 154 222
3 116 195 34
3 195 154 34
3 34 154 244
3 34 244 190
3 34 241 116
3 190 241 34
3 233 101 206
3 206 182 233
3 105 143 129
3 129 35 105
3 35 241 105
3 228 235 142
3 142 143 228
3 228 143 186
3 162 101 195
3 162 195 18
3 18 20 162
3 162 206 101
3 24 182 226
3 226 202 24
3 24 202 182
3 79 124 223
3 79 54 124
3 79 223 170
3 170 54 79
3 47 2 160
3 160 53 47
3 160 2 112
3 112 53 160
3 44 62 231
3 231 153 44
3 231 151 186
3 186 153 231
3 190 44 219
3 44 153 219
3 219 241 190
3 219 105 241
3 143 105 219
3 186 143 219
3 219 153 186
3 244 154 172
3 154 174 172
3 172 185 244
3 172 174 185
3 186 235 126
3 126 228 186
3 235 228 126
3 206 162 75
3 226 182 75
3 182 206 75
3 75 20 226
3 75 162 20
3 247 62 249
3 247 231 62
3 151 231 247
3 43 247 249
3 151 247 43
3 249 64 43
3 43 64 254
3 26 151 43
3 43 81 26
3 254 81 43