ply
format ascii 1.0
comment https://github.com/mikedh/trimesh
element vertex 256
property float x
property float y
property float z
element face 508
property list uchar int vertex_indices
end_header
0.83083755 -0.76186275 -1.51501405
1.26554430 0.36482117 1.51506543
-0.71975660 0.97762644 0.58945006
0.63904530 0.16709103 2.63217354
0.08163425 -0.42162558 2.69194508
0.76804912 0.94000709 -0.77367753
-0.91100878 -0.83980310 -1.00086451
0.76698500 0.55645734 2.10904288
0.62764043 0.62263376 -2.13710761
-1.19826984 -0.01849414 1.93251252
-0.59621102 0.72248644 -1.94709110
-1.21299601 0.73468250 0.02848175
-0.12758654 -0.39076823 2.71686053
0.69835198 0.99247634 0.50594926
0.68486148 -0.95129311 0.92432749
-0.62157112 -1.03119195 0.25123030
-0.03349537 -0.97745454 -1.43329823
-1.39327204 -0.48992124 0.68058646
-0.64911294 0.89932817 -1.28538799
-0.29357868 0.95876235 -1.42061973
1.17417049 0.52800363 -1.43280423
-1.54576433 0.29811123 0.00009033
-0.38337964 -0.98785734 -1.20037580
-1.16430831 -0.51408356 -1.49217367
-1.43506896 0.02545683 1.29577851
-0.53403783 -1.03757417 -0.55290246
-0.27414623 0.63234085 2.35179567
0.72347456 -0.93610775 -0.93124378
0.40559623 0.97948158 -1.22150397
1.49500346 0.27924210 -0.76190192
1.57173085 0.13119270 0.45919314
0.33879042 0.05993061 2.83830142
-0.61009246 -0.79077125 -1.74432647
-1.40550661 -0.10695259 -1.37071502
-0.03303634 1.11362326 0.38406363
-0.31675807 0.75817072 2.06768346
0.83348155 0.46572033 -2.17193294
0.23940305 1.10350621 -0.33278316
0.69021565 -0.35257718 -2.46120739
-1.17439508 0.73724264 0.52754331
0.15007171 0.17064443 2.86153007
-0.61862296 -0.08227401 -2.67504954
1.07113004 0.70587730 -1.15908849
0.90004939 0.16897421 2.36637592
-0.82897347 0.95258212 -0.34550458
-0.55965310 -1.02591193 0.61411792
1.41237128 -0.51883292 -0.29696414
-1.52696514 0.23085041 0.65614629
-1.53506374 -0.06616902 -0.82069528
0.01695343 -1.07432842 -0.84952575
-1.28436804 0.59521860 -0.80991536
1.49335265 -0.21352604 -0.90357190
0.52112657 -1.02671003 0.70811206
-1.39001393 -0.55657387 0.16219294
0.51485503 1.05303454 0.39806008
1.18246341 -0.50128359 1.47536433
0.12681836 -0.90235049 -1.71785736
-0.96900254 0.41338125 2.05493593
-1.25357938 -0.69621527 -0.21126479
0.79472834 0.89450276 1.00811768
-0.97234023 -0.05208617 2.30905986
-1.34716618 -0.45073932 -1.06141412
0.72696346 -0.65850747 -1.95267713
1.01728022 0.77045184 1.03691721
1.02967453 -0.64178884 -1.48618031
1.05045867 -0.22393574 -2.11989713
1.56873143 0.11005766 -0.53098977
-0.29593787 -1.02192247 1.08375633
0.39059424 0.93308538 1.45897126
1.05427599 0.51699781 -1.73444629
-1.06805170 0.14109622 -2.13854265
-0.74912757 0.94722492 -0.77811193
-0.91611415 -0.88973129 -0.62641144
-1.15982783 -0.35656816 -1.78323030
0.43338323 0.99901104 1.07505190
1.09051156 -0.81411052 0.31917042
0.02500312 -0.86358243 1.85956025
0.99983424 -0.46663889 1.92711926
0.90906852 -0.15264700 -2.36247396
1.47777498 -0.39459792 -0.47680393
-1.14583242 -0.34181610 1.83167100
-0.17728376 -0.09439396 -2.88029289
-1.11230958 -0.80702651 -0.14462592
-1.55007923 -0.23351555 -0.42893046
1.02119696 -0.74540818 -1.14096832
-0.77477252 -0.74442601 1.66388941
-0.56927711 -0.65922540 2.11692405
-0.61879599 -0.63123852 -2.12904763
-0.01368560 0.32009619 2.78783822
-0.41522685 -0.09354513 -2.79845715
-0.62188429 -0.48635551 2.36626053
1.09168220 0.62257534 1.39218855
0.73345232 0.99907053 0.04625010
1.35074341 0.01264899 1.56668282
-1.54688728 -0.27624464 0.26391312
-0.41927317 0.82414800 -1.82499588
1.54153895 -0.08841228 0.76496333
0.06851531 -0.18765564 -2.86461544
-1.02040136 -0.47631076 1.87340438
-0.97795480 0.34642649 -2.12378025
-0.96201891 -0.67997473 -1.52062201
1.01569748 0.33461368 -2.07666636
0.53678781 -0.48881793 2.43066072
-0.86126280 0.82376081 1.21283376
-1.42956817 0.37937760 0.87613004
-1.22509921 -0.05103444 -1.87076128
1.34184933 0.57312542 0.57677138
-0.35396773 0.27064726 -2.74861312
1.35626006 -0.04140016 -1.54729617
1.03303945 -0.02096780 -2.22392249
-0.40014744 1.08495402 0.22156388
-0.36652943 1.08796000 -0.28786629
-0.87146533 -0.57741785 1.93086433
-0.05115378 0.68090063 2.31221747
-0.31966910 -0.91628987 -1.58094919
-0.34813410 1.06344855 -0.69339818
0.30699655 -0.38987216 2.67035699
1.59103036 0.13624865 0.01972606
1.50042701 0.02094199 -1.02200878
0.32055962 0.20059872 -2.80172110
0.87273836 0.65543735 -1.75247538
-0.00843249 1.06200767 0.95045590
-0.89025509 -0.27169093 -2.31490588
0.26389343 0.94316477 -1.50617409
-0.61515933 0.52790171 2.31258678
-0.75133377 0.37817481 2.37538600
1.52098119 0.32840210 -0.35818508
0.24790302 -1.10818243 -0.15984921
1.13370156 0.49891409 1.60024858
-0.71441227 -0.90812039 -1.11984098
-0.66557008 0.69743240 1.93474507
0.71769899 0.90195638 -1.14461994
1.42007232 -0.26234064 1.16653430
-1.37992263 -0.11701848 1.45081007
-0.55632174 -0.84940612 1.61380696
-0.11058437 0.81082094 2.00321054
0.14418702 0.62028855 2.41120744
0.54160559 1.05743039 0.00500618
1.37123072 -0.16728735 1.44353867
1.15600324 -0.65904081 1.07372785
-1.34440315 0.55668414 0.65972000
0.31505352 -0.90419030 1.62917459
1.44373763 0.21346949 -1.13669419
0.54552978 -0.83702344 1.66922235
-0.65248543 0.08263778 2.64778495
0.29406878 -0.82863313 -1.89029396
-0.45995900 -0.38735729 2.59930658
-1.40672326 0.53850710 0.03872114
0.30247197 -0.54000014 -2.49110770
0.23823464 0.64077276 -2.34935594
-0.88836092 -0.79287040 1.28399312
1.04233456 0.40093154 1.95100951
-0.27745876 -1.07121170 -0.71710169
1.33545983 0.52360243 -0.86598498
-0.88838601 -0.91911995 0.44698593
0.18650395 -0.12011711 2.87202001
-1.03788269 0.75396848 1.05188322
-1.13970029 0.23649886 1.95150566
-1.49012268 -0.12621206 1.02242517
1.26238990 0.59283674 0.92967570
0.64230549 0.88683844 1.35330498
-0.98853862 0.17724805 2.24330521
0.38411337 0.74909204 2.05273890
0.67488229 0.32669249 -2.49895978
-0.89612120 0.03315191 -2.41043043
-1.09275949 -0.79623222 -0.53045458
0.28379431 0.38144204 2.68716979
-0.81734025 0.96559483 0.10698213
-0.92020887 -0.50258052 -1.99480939
0.54278243 -0.52254903 -2.37910008
1.06363094 0.84039468 -0.08545519
-0.67843431 0.79608256 1.64176691
-1.47403026 -0.29639211 0.84771413
-0.06229470 1.03436053 -1.12906325
-0.26338661 0.14625961 -2.84383273
-1.28518951 -0.60282046 -0.76648343
1.03100777 -0.86017674 -0.06026747
-0.63012880 -0.06906494 2.66838169
0.05887380 -1.06452656 0.92777801
0.56952846 0.86502284 -1.54258895
-0.85773695 0.88794434 0.86791831
-0.72940916 -0.99635094 -0.23773618
1.41998649 0.52082652 0.08327249
-1.12280619 0.70229465 -1.00170088
1.58975518 -0.14343727 -0.06691789
-0.36052081 -0.82507616 1.86234581
-1.32311118 0.03098436 1.64000094
-0.78733182 0.54103303 -2.11138701
0.55809790 -0.07242755 2.71997762
-0.07834268 -1.09666967 0.61673826
-0.25243685 -0.23945427 -2.80423403
1.26808167 -0.60883844 -0.82659101
-0.24511646 -0.80665159 -1.97527468
0.02295760 -0.75575799 2.15177369
-0.18261856 -1.11634433 -0.02552050
-0.18930677 0.80250263 -2.00678253
1.51274908 0.32193172 0.48658460
-1.07674193 -0.67580944 1.25742269
0.17742366 1.03639901 -1.07667899
-0.25387031 -0.54362327 2.50327492
-1.08531380 -0.02665165 -2.14001560
0.53716141 0.77592534 -1.86360896
-1.29899120 0.41024050 -1.33496475
0.55072254 0.45791814 2.46066689
1.10577106 -0.44999427 -1.75371611
-0.11333641 -0.23594442 2.83586264
0.33576334 0.78716552 -1.98379600
-1.13170779 0.34830114 -1.85213757
-0.58105546 0.29981646 2.59694338
0.97907746 -0.80391461 0.98531449
0.07029478 0.26183403 -2.82557917
1.51236713 -0.36530268 0.19181558
-0.97531831 0.87065572 0.50257051
0.46302310 -1.07043004 -0.27375850
-0.16225567 -1.03039086 -1.12232888
0.01238989 0.51401019 2.58580351
0.54653597 0.62602115 2.20204997
0.05365353 0.55765027 -2.52271008
-0.40396351 -0.18489099 2.77384424
1.15651941 0.23017599 1.92474902
0.01264887 1.11473489 -0.36613765
-0.81912357 0.25838992 -2.40963531
0.42047659 0.34666905 -2.65902758
0.29709458 1.08705580 0.50631946
-1.20136046 -0.71693504 0.51649934
-1.16663086 0.55728644 1.37700164
-1.08164406 -0.16622245 2.10312080
0.87001616 -0.02798720 2.44163227
1.16943681 -0.06491836 1.98175824
-0.09740143 -0.93703902 1.59553015
-0.30754992 0.86739886 1.76191688
0.23245470 -1.07197011 -0.76258808
-1.16923726 0.38449743 1.72285271
-0.84530628 0.58763772 1.94762743
0.88162911 0.08455233 -2.41932058
0.15323797 -0.65876889 2.33948445
1.15276480 0.08044112 2.01102591
0.08097874 0.80849552 -2.01444912
-0.94792563 -0.67239285 1.57287860
-1.44648004 -0.41581896 -0.64522207
-0.47893137 0.98580372 1.09161055
1.23348546 -0.69795966 0.43038788
0.97890836 0.86405885 -0.54974878
-0.11842395 -0.39278007 -2.71635127
-0.15828444 1.11798286 0.00943658
0.81791025 -0.29283941 2.38369894
0.47693953 0.09445802 -2.76579928
1.23852897 0.69224834 -0.44347474
-0.92681372 0.70399600 1.51981568
-1.59457982 -0.01939377 0.29526138
0.73556918 -0.99072903 0.32177562
0.16528399 0.77401215 2.08644724
-0.40105876 0.14966780 2.78913879
0.77503586 -0.97938204 -0.23452477
0.63784432 -0.72442853 1.89805865
-0.27995741 0.42327017 -2.64555287
3 249 48 83
3 64 0 62
3 220 34 37
3 64 62 204
3 204 191 64
3 51 191 204
3 213 27 253
3 21 48 249
3 104 24 232
3 40 205 155
3 7 151 128
3 128 151 1
3 115 111 220
3 220 111 244
3 244 34 220
3 113 26 215
3 117 184 66
3 66 51 118
3 184 51 66
3 117 196 30
3 30 184 117
3 30 196 1
3 64 191 84
3 84 0 64
3 84 27 0
3 46 191 79
3 79 191 51
3 79 51 184
3 168 87 100
3 100 23 168
3 168 23 73
3 168 73 122
3 122 87 168
3 25 152 194
3 32 87 192
3 100 87 32
3 32 129 100
3 145 62 0
3 0 27 145
3 220 37 198
3 99 70 207
3 78 246 234
3 246 163 234
3 118 51 108
3 51 204 108
3 126 196 117
3 117 66 126
3 126 66 29
3 148 145 192
3 107 174 41
3 122 164 41
3 81 174 210
3 210 174 107
3 210 97 81
3 38 204 62
3 38 148 97
3 38 246 78
3 38 97 246
3 73 33 105
3 207 70 105
3 112 86 90
3 146 177 90
3 231 213 127
3 27 213 231
3 134 45 67
3 67 229 134
3 185 86 134
3 134 229 185
3 249 83 94
3 112 90 98
3 150 45 134
3 175 23 100
3 11 183 50
3 47 24 104
3 47 21 249
3 104 21 47
3 186 232 24
3 186 133 9
3 24 133 186
3 31 40 155
3 215 26 88
3 136 113 215
3 251 113 136
3 7 128 91
3 212 167 11
3 225 232 233
3 104 232 225
3 225 140 104
3 44 183 11
3 11 167 44
3 44 167 111
3 121 34 110
3 34 244 110
3 111 167 110
3 110 244 111
3 218 177 146
3 121 110 240
3 233 124 130
3 56 16 192
3 192 145 56
3 56 231 16
3 56 145 27
3 27 231 56
3 129 32 22
3 22 214 152
3 152 25 22
3 22 25 129
3 107 41 221
3 221 41 164
3 164 70 221
3 70 99 221
3 20 69 120
3 120 42 20
3 120 69 36
3 20 42 153
3 153 126 29
3 101 69 20
3 36 69 101
3 101 163 36
3 101 234 163
3 62 145 169
3 145 148 169
3 169 38 62
3 148 38 169
3 192 87 243
3 243 148 192
3 97 148 243
3 89 174 81
3 89 41 174
3 222 163 246
3 255 210 107
3 107 221 255
3 65 38 78
3 204 38 65
3 65 108 204
3 122 73 200
3 73 105 200
3 200 164 122
3 200 70 164
3 200 105 70
3 80 98 226
3 226 98 90
3 9 133 226
3 226 133 80
3 178 141 229
3 229 67 178
3 49 127 194
3 49 231 127
3 194 152 49
3 152 214 49
3 49 214 16
3 16 231 49
3 254 77 102
3 102 77 245
3 86 185 199
3 146 90 199
3 199 90 86
3 85 150 134
3 85 86 112
3 134 86 85
3 23 175 61
3 73 23 61
3 61 33 73
3 48 33 61
3 11 50 147
3 147 50 21
3 147 140 11
3 147 21 104
3 104 140 147
3 202 183 207
3 202 50 183
3 202 33 48
3 48 21 202
3 21 50 202
3 207 105 202
3 202 105 33
3 158 133 24
3 158 47 249
3 24 47 158
3 249 94 158
3 26 124 208
3 208 88 26
3 232 186 157
3 9 161 157
3 157 186 9
3 57 157 161
3 233 232 57
3 232 157 57
3 3 31 188
3 188 31 155
3 166 88 40
3 3 203 166
3 215 88 166
3 166 31 3
3 40 31 166
3 166 136 215
3 203 136 166
3 216 136 203
3 216 203 7
3 106 170 63
3 92 170 242
3 180 212 156
3 140 225 156
3 2 110 167
3 2 212 180
3 167 212 2
3 180 240 2
3 2 240 110
3 230 240 171
3 121 240 230
3 93 30 1
3 129 25 72
3 58 82 224
3 114 32 192
3 114 22 32
3 192 16 114
3 16 214 114
3 214 22 114
3 237 206 149
3 123 206 237
3 123 237 19
3 19 18 115
3 95 18 19
3 8 120 36
3 149 206 8
3 8 222 149
3 36 163 8
3 163 222 8
3 42 120 131
3 242 170 247
3 247 42 242
3 247 153 42
3 142 101 20
3 108 101 142
3 20 153 142
3 142 153 29
3 118 108 142
3 142 66 118
3 29 66 142
3 234 101 109
3 109 101 108
3 108 65 109
3 78 234 109
3 109 65 78
3 81 97 190
3 97 243 190
3 190 89 81
3 41 89 190
3 122 41 190
3 190 87 122
3 190 243 87
3 119 222 246
3 210 222 119
3 246 97 119
3 97 210 119
3 149 222 217
3 217 222 210
3 210 255 217
3 217 237 149
3 10 18 95
3 183 18 10
3 60 177 144
3 144 161 60
3 60 90 177
3 60 226 90
3 60 161 9
3 9 226 60
3 189 178 67
3 189 45 194
3 189 67 45
3 194 127 189
3 127 178 189
3 176 84 191
3 176 191 46
3 253 27 176
3 27 84 176
3 46 241 176
3 241 75 176
3 209 139 254
3 209 241 139
3 209 75 241
3 141 14 143
3 143 209 254
3 14 209 143
3 253 176 250
3 250 176 75
3 250 213 253
3 75 209 250
3 250 209 14
3 141 178 52
3 52 14 141
3 52 250 14
3 52 178 127
3 127 213 52
3 213 250 52
3 254 139 55
3 55 77 254
3 139 132 55
3 138 77 55
3 55 132 138
3 146 199 12
3 12 218 146
3 205 218 12
3 193 199 185
3 80 133 172
3 172 17 80
3 133 158 172
3 94 17 172
3 172 158 94
3 197 98 80
3 80 17 197
3 224 150 197
3 197 17 224
3 239 61 175
3 175 58 239
3 239 83 48
3 48 61 239
3 239 94 83
3 125 161 144
3 144 208 125
3 125 57 161
3 125 208 124
3 125 124 233
3 233 57 125
3 252 208 144
3 88 208 252
3 144 177 252
3 177 218 252
3 40 88 252
3 205 40 252
3 252 218 205
3 251 136 162
3 136 216 162
3 106 63 159
3 159 63 91
3 1 196 159
3 196 106 159
3 159 128 1
3 159 91 128
3 170 92 13
3 59 63 13
3 13 63 170
3 13 74 59
3 180 156 103
3 103 240 180
3 171 240 103
3 140 156 39
3 39 156 212
3 11 140 39
3 39 212 11
3 135 113 251
3 121 230 135
3 171 130 35
3 35 230 171
3 35 124 26
3 35 130 124
3 35 135 230
3 26 113 35
3 113 135 35
3 139 241 211
3 211 132 139
3 211 241 46
3 46 79 211
3 211 79 184
3 184 30 96
3 96 211 184
3 132 211 96
3 138 132 96
3 30 93 96
3 96 93 138
3 181 72 25
3 82 72 181
3 100 129 6
3 129 72 6
3 6 175 100
3 53 17 94
3 94 239 53
3 53 239 58
3 224 17 53
3 53 58 224
3 183 44 71
3 71 18 183
3 115 18 71
3 111 115 71
3 71 44 111
3 173 198 123
3 123 19 173
3 173 19 115
3 173 115 220
3 220 198 173
3 242 42 5
3 42 131 5
3 5 92 242
3 123 198 28
3 28 5 131
3 28 198 37
3 37 5 28
3 179 131 120
3 179 28 131
3 179 206 123
3 123 28 179
3 182 170 106
3 182 247 170
3 182 106 196
3 196 126 182
3 126 153 182
3 153 247 182
3 237 217 195
3 95 19 195
3 195 19 237
3 195 217 255
3 195 10 95
3 255 10 195
3 187 255 221
3 187 10 255
3 187 221 99
3 187 99 207
3 207 183 187
3 183 10 187
3 229 141 76
3 141 193 76
3 76 185 229
3 76 193 185
3 4 12 199
3 155 205 4
3 205 12 4
3 150 85 238
3 238 197 150
3 238 85 112
3 112 98 238
3 98 197 238
3 59 74 160
3 7 91 160
3 160 216 7
3 160 162 216
3 160 63 59
3 91 63 160
3 137 5 37
3 92 5 137
3 248 156 225
3 248 103 156
3 248 225 233
3 171 103 248
3 233 130 248
3 248 130 171
3 227 188 245
3 3 188 227
3 1 151 219
3 219 93 1
3 219 236 93
3 82 181 154
3 224 82 154
3 45 150 154
3 154 150 224
3 175 6 165
3 165 6 72
3 165 58 175
3 165 72 82
3 82 58 165
3 120 8 201
3 201 179 120
3 201 8 206
3 206 179 201
3 155 4 116
3 116 188 155
3 116 102 245
3 245 188 116
3 199 193 235
3 235 4 199
3 254 102 235
3 102 116 235
3 235 116 4
3 235 193 141
3 235 143 254
3 141 143 235
3 68 160 74
3 162 160 68
3 251 162 68
3 68 74 121
3 121 135 68
3 68 135 251
3 223 34 121
3 121 74 223
3 223 37 34
3 223 137 37
3 228 227 245
3 236 227 228
3 245 77 228
3 228 77 138
3 138 93 228
3 93 236 228
3 43 227 236
3 236 219 43
3 3 227 43
3 43 219 151
3 43 203 3
3 43 151 7
3 7 203 43
3 45 154 15
3 15 154 181
3 194 45 15
3 15 25 194
3 15 181 25
3 137 223 54
3 54 13 92
3 92 137 54
3 74 13 54
3 54 223 74