ply
format ascii 1.0
comment https://github.com/mikedh/trimesh
element vertex 256
property float x
property float y
property float z
element face 508
property list uchar int vertex_indices
end_header
1.82628417 -1.75277960 -1.30714440
2.78182387 0.83932579 1.30718875
-1.58211458 2.24917626 0.50857371
1.40470111 0.38441795 2.27102232
0.17944221 -0.97001290 2.32259274
1.68826735 2.16262722 -0.66752398
-2.00251055 -1.93209302 -0.86353946
1.68592834 1.28021348 1.81966853
1.37963176 1.43246233 -1.84388268
-2.63394618 -0.04254854 1.66735935
-1.31054592 1.66218841 -1.67993760
-2.66631603 1.69024718 0.02457387
-0.28045109 -0.89902091 2.34408975
1.53506446 2.28334045 0.43652979
1.50541079 -2.18859243 0.79750383
-1.36629057 -2.37241149 0.21675988
-0.07362698 -2.24878073 -1.23664045
-3.06258535 -1.12713730 0.58720559
-1.42683089 2.06903934 -1.10902441
-0.64532244 2.20577645 -1.22570157
2.58097267 1.21475148 -1.23621428
-3.39778209 0.68584955 0.00007794
-0.84271610 -2.27271390 -1.03567660
-2.55929422 -1.18272638 -1.28743780
-3.15445995 0.05856724 1.11798942
-1.17388153 -2.38709497 -0.47704071
-0.60260755 1.45479500 2.02911425
1.59028697 -2.15365624 -0.80347115
0.89155090 2.25344419 -1.05390573
3.28620338 0.64243829 -0.65736407
3.45485973 0.30182847 0.39618888
0.74470341 0.13787936 2.44886804
-1.34105897 -1.81928790 -1.50499368
-3.08947825 -0.24606048 -1.18264413
-0.07261799 2.56205726 0.33136764
-0.69627362 1.74428535 1.78398395
1.83209610 1.07145941 -1.87392974
0.52623767 2.53878164 -0.28712317
1.51717985 -0.81115663 -2.12351394
-2.58146620 1.69613719 0.45516098
0.32987627 0.39259309 2.46890974
-1.35981023 -0.18928370 -2.30801558
2.35447693 1.62397647 -1.00005412
1.97842050 0.38875049 2.04169393
-1.82218671 2.19155788 -0.29809913
-1.23018706 -2.36026430 0.52985704
3.10456777 -1.19365287 -0.25621876
-3.35645914 0.53110600 0.56611878
-3.37426090 -0.15223175 -0.70809060
0.03726576 -2.47165346 -0.73296535
-2.82320046 1.36938965 -0.69878978
3.28257489 -0.49124867 -0.77959603
1.14550102 -2.36210036 0.61095452
-3.05542326 -1.28048158 0.13993903
1.13171530 2.42266393 0.34344369
2.59920168 -1.15327799 1.27293479
0.27876252 -2.07599258 -1.48215628
-2.12998796 0.95104551 1.77298546
-2.75552344 -1.60174763 -0.18227790
1.74691164 2.05793762 0.86979747
-2.13732481 -0.11983205 1.99224198
-2.96123886 -1.03699338 -0.91578126
1.59795594 -1.51499510 -1.68475735
2.23610830 1.77254009 0.89464545
2.26335239 -1.47653139 -1.28226686
2.30903864 -0.51519775 -1.82903361
3.44826674 0.25320414 -0.45813456
-0.65050822 -2.35108590 0.93505794
0.85857469 2.14670277 1.25879097
2.31742954 1.18943107 -1.49646902
-2.34771037 0.32461300 -1.84512091
-1.64667547 2.17923284 -0.67135000
-2.01373291 -2.04696035 -0.54046375
-2.54944587 -0.82033855 -1.53855956
0.95263022 2.29837465 0.92754787
2.39707994 -1.87298322 0.27537817
0.05495996 -1.98680091 1.60441661
2.19775987 -1.07357275 1.66270614
1.99824560 -0.35118732 -2.03832722
3.24833298 -0.90783167 -0.41138336
-2.51868200 -0.78639913 1.58035398
-0.38969177 -0.21716747 -2.48509812
-2.44499469 -1.85668552 -0.12478232
-3.40726686 -0.53723752 -0.37007844
2.24471784 -1.71492326 -0.98442012
-1.70304644 -1.71266365 1.43559301
-1.25134194 -1.51664686 1.82646847
-1.36019051 -1.45225883 -1.83692861
-0.03008265 0.73642927 2.40532899
-0.91272020 -0.21521460 -2.41449094
-1.36697900 -1.11893380 2.04159427
2.39965320 1.43232787 1.20117128
1.61221933 2.29851151 0.03990429
2.96910214 0.02910089 1.35172379
-3.40025067 -0.63554215 0.22770256
-0.92161453 1.89607608 -1.57459474
3.38849449 -0.20340571 0.66000545
0.15060516 -0.43172991 -2.47157192
-2.24296904 -1.09582436 1.61636126
-2.14966631 0.79700607 -1.83238387
-2.11463714 -1.56438386 -1.31198287
2.23262930 0.76982892 -1.79173434
1.17992640 -1.12459898 2.09715843
-1.89316273 1.89518523 1.04642522
-3.14236856 0.87281507 0.75591934
-2.69292021 -0.11741237 -1.61408079
2.94955158 1.31856096 0.49763465
-0.77806509 0.62266463 -2.37148571
2.98122811 -0.09524729 -1.33499718
2.27074909 -0.04823957 -1.91878605
-0.87957376 2.49609947 0.19116388
-0.80567729 2.50301504 -0.24836919
-1.91558909 -1.32843626 1.66593730
-0.11244237 1.56651390 1.99496639
-0.70267242 -2.10806227 -1.36403275
-0.76524198 2.44662285 -0.59825951
0.67481661 -0.89695936 2.30396676
3.49728227 0.31346044 0.01701952
3.29812503 0.04818018 -0.88178259
0.70462990 0.46150741 -2.41730690
1.91838741 1.50793183 -1.51202452
-0.01853566 2.44330764 0.82004726
-1.95689130 -0.62506574 -1.99728596
0.58007056 2.16989207 -1.29951739
-1.35219657 1.21451712 1.99528503
-1.65152502 0.87004787 2.04946756
3.34330583 0.75553828 -0.30903977
0.54492164 -2.54953980 -0.13791686
2.49201703 1.14782667 1.38068414
-1.57036698 -2.08926725 -0.96619165
-1.46300578 1.60454786 1.66928554
1.57759154 2.07508588 -0.98757070
3.12149549 -0.60355395 1.00647831
-3.03324151 -0.26921853 1.25174963
-1.22286439 -1.95418608 1.39238226
-0.24307820 1.86541510 1.72835708
0.31694096 1.42706692 2.08037424
1.19051647 2.43277717 0.00431930
3.01413560 -0.38486964 1.24547589
2.54103899 -1.51622224 0.92640543
-2.95516515 1.28073525 0.56920218
0.69252682 -2.08022547 1.40564132
3.17351460 0.49111855 -0.98073244
1.19914222 -1.92569780 1.44019437
-1.43424416 0.19012059 2.28449178
0.64639980 -1.90639472 -1.63093352
-1.01104701 -0.89117348 2.24266505
-3.09215283 1.23891640 0.03340835
0.66487098 -1.24235117 -2.14931178
0.52366936 1.47419381 -2.02700901
-1.95272779 -1.82411730 1.10782099
2.29118109 0.92240310 1.68331850
-0.60988885 -2.46448326 -0.61871070
2.93550658 1.20462584 -0.74716628
-1.95278287 -2.11457324 0.38565660
0.40995884 -0.27634743 2.47796035
-2.28139520 1.73461747 0.90755802
-2.50520277 0.54410106 1.68374658
-3.27547503 -0.29036978 0.88214183
2.77488995 1.36390984 0.80211824
1.41186738 2.04030490 1.16762280
-2.17293072 0.40778568 1.93550932
0.84432894 1.72339857 1.77109003
1.48347521 0.75160503 -2.15608644
-1.96978581 0.07627095 -2.07970381
-2.40202117 -1.83185160 -0.45767280
0.62381518 0.87756461 2.31847286
-1.79661548 2.22149563 0.09230349
-2.02273345 -1.15626180 -1.72110868
1.19310319 -1.20220232 -2.05267215
2.33799291 1.93345392 -0.07373019
-1.49128294 1.83150721 1.41650593
-3.24010181 -0.68189448 0.73140228
-0.13693149 2.37970138 -0.97414851
-0.57895648 0.33649215 -2.45364046
-2.82500625 -1.38687885 -0.66131699
2.26628327 -1.97896564 -0.05199839
-1.38510144 -0.15889427 2.30226254
0.12941194 -2.44910288 0.80048090
1.25189435 1.99011469 -1.33093584
-1.88541245 2.04284906 0.74883437
-1.60333204 -2.29225469 -0.20511726
3.12130690 1.19823956 0.07184697
-2.46806765 1.61573410 -0.86426109
3.49447942 -0.32999894 -0.05773633
-0.79246956 -1.89821148 1.60681999
-2.90836287 0.07128417 1.41498220
-1.73065317 1.24472761 -1.82169104
1.22676861 -0.16663043 2.34677935
-0.17220695 -2.52305317 0.53211784
-0.55488759 -0.55090046 -2.41947508
2.78740096 -1.40072405 -0.71317738
-0.53879642 -1.85582292 -1.70425427
0.05046367 -1.73873460 1.85653639
-0.40141827 -2.56831741 -0.02201893
-0.41611978 1.84627759 -1.73143911
3.32521057 0.74065220 0.41982207
-2.36681271 -1.55480099 1.08489621
0.38999927 2.38439131 -0.92895174
-0.55803847 -1.25068688 2.15980935
-2.38565445 -0.06131611 -1.84639180
1.18074751 1.78513253 -1.60790980
-2.85534406 0.94381976 -1.15179896
1.21055651 1.05350935 2.12304735
2.43062234 -1.03527927 -1.51309490
-0.24912751 -0.54282552 2.44676399
0.73804957 1.81099224 -1.71160650
-2.48763442 0.80131900 -1.59801233
-1.27723217 0.68977273 2.24062586
2.15213394 -1.84952617 0.85012299
0.15451665 0.60238844 -2.43789148
3.32437086 -0.84043360 0.16549724
-2.14387083 2.00307393 0.43361461
1.01778233 -2.46268463 -0.23619708
-0.35665816 -2.37056851 -0.96833813
0.02723452 1.18255746 2.23101449
1.20135403 1.44025540 1.89991450
0.11793714 1.28295815 -2.17657804
-0.88796204 -0.42536941 2.39325500
2.54217339 0.52955437 1.66066110
0.02780379 2.56461477 -0.31590122
-1.80053544 0.59446472 -2.07901788
0.92425978 0.79756415 -2.29419184
0.65305084 2.50093508 0.43684918
-2.64073968 -1.64941657 0.44563228
-2.56439972 1.28212106 1.18806815
-2.37758803 -0.38241968 1.81455898
1.91240370 -0.06438875 2.10662460
2.57056737 -0.14935443 1.70984828
-0.21410045 -2.15579867 1.37661314
-0.67603296 1.99558115 1.52017057
0.51096433 -2.46622801 -0.65795612
-2.57012868 0.88459402 1.48646629
-1.85808825 1.35194874 1.68040049
1.93793046 0.19452530 -2.08737421
0.33683610 -1.51559663 2.01849222
2.53392029 0.18506686 1.73510015
0.17800134 1.86006522 -1.73805368
-2.08365822 -1.54694045 1.35706949
-3.17954302 -0.95665383 -0.55669343
-1.05275071 2.26798916 0.94183457
2.71135449 -1.60576081 0.37133589
2.15176225 1.98789692 -0.47431973
-0.26031056 -0.90364939 -2.34365034
-0.34792888 2.57208729 0.00814182
1.79786837 -0.67372096 2.05664015
1.04837239 0.21731485 -2.38631392
2.72244048 1.59262109 -0.38262713
-2.03725171 1.61964834 1.31128716
-3.50508475 -0.04461827 0.25474963
1.61687243 -2.27932072 0.27762595
0.36331478 1.78073096 1.80017340
-0.88157701 0.34433320 2.40645099
1.70362520 -2.25321531 -0.20234646
1.40206122 -1.66665649 1.63763285
-0.61538124 0.97379649 -2.28256583
3 249 48 83
3 64 0 62
3 220 34 37
3 64 62 204
3 204 191 64
3 51 191 204
3 213 27 253
3 21 48 249
3 104 24 232
3 40 205 155
3 7 151 128
3 128 151 1
3 115 111 220
3 220 111 244
3 244 34 220
3 113 26 215
3 117 184 66
3 66 51 118
3 184 51 66
3 117 196 30
3 30 184 117
3 30 196 1
3 64 191 84
3 84 0 64
3 84 27 0
3 46 191 79
3 79 191 51
3 79 51 184
3 168 87 100
3 100 23 168
3 168 23 73
3 168 73 122
3 122 87 168
3 25 152 194
3 32 87 192
3 100 87 32
3 32 129 100
3 145 62 0
3 0 27 145
3 220 37 198
3 99 70 207
3 78 246 234
3 246 163 234
3 118 51 108
3 51 204 108
3 126 196 117
3 117 66 126
3 126 66 29
3 148 145 192
3 107 174 41
3 122 164 41
3 81 174 210
3 210 174 107
3 210 97 81
3 38 204 62
3 38 148 97
3 38 246 78
3 38 97 246
3 73 33 105
3 207 70 105
3 112 86 90
3 146 177 90
3 231 213 127
3 27 213 231
3 134 45 67
3 67 229 134
3 185 86 134
3 134 229 185
3 249 83 94
3 112 90 98
3 150 45 134
3 175 23 100
3 11 183 50
3 47 24 104
3 47 21 249
3 104 21 47
3 186 232 24
3 186 133 9
3 24 133 186
3 31 40 155
3 215 26 88
3 136 113 215
3 251 113 136
3 7 128 91
3 212 167 11
3 225 232 233
3 104 232 225
3 225 140 104
3 44 183 11
3 11 167 44
3 44 167 111
3 121 34 110
3 34 244 110
3 111 167 110
3 110 244 111
3 218 177 146
3 121 110 240
3 233 124 130
3 56 16 192
3 192 145 56
3 56 231 16
3 56 145 27
3 27 231 56
3 129 32 22
3 22 214 152
3 152 25 22
3 22 25 129
3 107 41 221
3 221 41 164
3 164 70 221
3 70 99 221
3 20 69 120
3 120 42 20
3 120 69 36
3 20 42 153
3 153 126 29
3 101 69 20
3 36 69 101
3 101 163 36
3 101 234 163
3 62 145 169
3 145 148 169
3 169 38 62
3 148 38 169
3 192 87 243
3 243 148 192
3 97 148 243
3 89 174 81
3 89 41 174
3 222 163 246
3 255 210 107
3 107 221 255
3 65 38 78
3 204 38 65
3 65 108 204
3 122 73 200
3 73 105 200
3 200 164 122
3 200 70 164
3 200 105 70
3 80 98 226
3 226 98 90
3 9 133 226
3 226 133 80
3 178 141 229
3 229 67 178
3 49 127 194
3 49 231 127
3 194 152 49
3 152 214 49
3 49 214 16
3 16 231 49
3 254 77 102
3 102 77 245
3 86 185 199
3 146 90 199
3 199 90 86
3 85 150 134
3 85 86 112
3 134 86 85
3 23 175 61
3 73 23 61
3 61 33 73
3 48 33 61
3 11 50 147
3 147 50 21
3 147 140 11
3 147 21 104
3 104 140 147
3 202 183 207
3 202 50 183
3 202 33 48
3 48 21 202
3 21 50 202
3 207 105 202
3 202 105 33
3 158 133 24
3 158 47 249
3 24 47 158
3 249 94 158
3 26 124 208
3 208 88 26
3 232 186 157
3 9 161 157
3 157 186 9
3 57 157 161
3 233 232 57
3 232 157 57
3 3 31 188
3 188 31 155
3 166 88 40
3 3 203 166
3 215 88 166
3 166 31 3
3 40 31 166
3 166 136 215
3 203 136 166
3 216 136 203
3 216 203 7
3 106 170 63
3 92 170 242
3 180 212 156
3 140 225 156
3 2 110 167
3 2 212 180
3 167 212 2
3 180 240 2
3 2 240 110
3 230 240 171
3 121 240 230
3 93 30 1
3 129 25 72
3 58 82 224
3 114 32 192
3 114 22 32
3 192 16 114
3 16 214 114
3 214 22 114
3 237 206 149
3 123 206 237
3 123 237 19
3 19 18 115
3 95 18 19
3 8 120 36
3 149 206 8
3 8 222 149
3 36 163 8
3 163 222 8
3 42 120 131
3 242 170 247
3 247 42 242
3 247 153 42
3 142 101 20
3 108 101 142
3 20 153 142
3 142 153 29
3 118 108 142
3 142 66 118
3 29 66 142
3 234 101 109
3 109 101 108
3 108 65 109
3 78 234 109
3 109 65 78
3 81 97 190
3 97 243 190
3 190 89 81
3 41 89 190
3 122 41 190
3 190 87 122
3 190 243 87
3 119 222 246
3 210 222 119
3 246 97 119
3 97 210 119
3 149 222 217
3 217 222 210
3 210 255 217
3 217 237 149
3 10 18 95
3 183 18 10
3 60 177 144
3 144 161 60
3 60 90 177
3 60 226 90
3 60 161 9
3 9 226 60
3 189 178 67
3 189 45 194
3 189 67 45
3 194 127 189
3 127 178 189
3 176 84 191
3 176 191 46
3 253 27 176
3 27 84 176
3 46 241 176
3 241 75 176
3 209 139 254
3 209 241 139
3 209 75 241
3 141 14 143
3 143 209 254
3 14 209 143
3 253 176 250
3 250 176 75
3 250 213 253
3 75 209 250
3 250 209 14
3 141 178 52
3 52 14 141
3 52 250 14
3 52 178 127
3 127 213 52
3 213 250 52
3 254 139 55
3 55 77 254
3 139 132 55
3 138 77 55
3 55 132 138
3 146 199 12
3 12 218 146
3 205 218 12
3 193 199 185
3 80 133 172
3 172 17 80
3 133 158 172
3 94 17 172
3 172 158 94
3 197 98 80
3 80 17 197
3 224 150 197
3 197 17 224
3 239 61 175
3 175 58 239
3 239 83 48
3 48 61 239
3 239 94 83
3 125 161 144
3 144 208 125
3 125 57 161
3 125 208 124
3 125 124 233
3 233 57 125
3 252 208 144
3 88 208 252
3 144 177 252
3 177 218 252
3 40 88 252
3 205 40 252
3 252 218 205
3 251 136 162
3 136 216 162
3 106 63 159
3 159 63 91
3 1 196 159
3 196 106 159
3 159 128 1
3 159 91 128
3 170 92 13
3 59 63 13
3 13 63 170
3 13 74 59
3 180 156 103
3 103 240 180
3 171 240 103
3 140 156 39
3 39 156 212
3 11 140 39
3 39 212 11
3 135 113 251
3 121 230 135
3 171 130 35
3 35 230 171
3 35 124 26
3 35 130 124
3 35 135 230
3 26 113 35
3 113 135 35
3 139 241 211
3 211 132 139
3 211 241 46
3 46 79 211
3 211 79 184
3 184 30 96
3 96 211 184
3 132 211 96
3 138 132 96
3 30 93 96
3 96 93 138
3 181 72 25
3 82 72 181
3 100 129 6
3 129 72 6
3 6 175 100
3 53 17 94
3 94 239 53
3 53 239 58
3 224 17 53
3 53 58 224
3 183 44 71
3 71 18 183
3 115 18 71
3 111 115 71
3 71 44 111
3 173 198 123
3 123 19 173
3 173 19 115
3 173 115 220
3 220 198 173
3 242 42 5
3 42 131 5
3 5 92 242
3 123 198 28
3 28 5 131
3 28 198 37
3 37 5 28
3 179 131 120
3 179 28 131
3 179 206 123
3 123 28 179
3 182 170 106
3 182 247 170
3 182 106 196
3 196 126 182
3 126 153 182
3 153 247 182
3 237 217 195
3 95 19 195
3 195 19 237
3 195 217 255
3 195 10 95
3 255 10 195
3 187 255 221
3 187 10 255
3 187 221 99
3 187 99 207
3 207 183 187
3 183 10 187
3 229 141 76
3 141 193 76
3 76 185 229
3 76 193 185
3 4 12 199
3 155 205 4
3 205 12 4
3 150 85 238
3 238 197 150
3 238 85 112
3 112 98 238
3 98 197 238
3 59 74 160
3 7 91 160
3 160 216 7
3 160 162 216
3 160 63 59
3 91 63 160
3 137 5 37
3 92 5 137
3 248 156 225
3 248 103 156
3 248 225 233
3 171 103 248
3 233 130 248
3 248 130 171
3 227 188 245
3 3 188 227
3 1 151 219
3 219 93 1
3 219 236 93
3 82 181 154
3 224 82 154
3 45 150 154
3 154 150 224
3 175 6 165
3 165 6 72
3 165 58 175
3 165 72 82
3 82 58 165
3 120 8 201
3 201 179 120
3 201 8 206
3 206 179 201
3 155 4 116
3 116 188 155
3 116 102 245
3 245 188 116
3 199 193 235
3 235 4 199
3 254 102 235
3 102 116 235
3 235 116 4
3 235 193 141
3 235 143 254
3 141 143 235
3 68 160 74
3 162 160 68
3 251 162 68
3 68 74 121
3 121 135 68
3 68 135 251
3 223 34 121
3 121 74 223
3 223 37 34
3 223 137 37
3 228 227 245
3 236 227 228
3 245 77 228
3 228 77 138
3 138 93 228
3 93 236 228
3 43 227 236
3 236 219 43
3 3 227 43
3 43 219 151
3 43 203 3
3 43 151 7
3 7 203 43
3 45 154 15
3 15 154 181
3 194 45 15
3 15 25 194
3 15 181 25
3 137 223 54
3 54 13 92
3 92 137 54
3 74 13 54
3 54 223 74