ply
format ascii 1.0
comment https://github.com/mikedh/trimesh
element vertex 256
property float x
property float y
property float z
element face 508
property list uchar int vertex_indices
end_header
0.83947140 -2.93464422 -2.49319220
1.27869558 1.40526664 2.49327683
-0.72723621 3.76575136 0.97003204
0.64568615 0.64362341 4.33165216
0.08248257 -1.62407339 4.43001556
0.77603048 3.62084413 -1.27320719
-0.92047578 -3.23486519 -1.64707875
0.77495533 2.14343619 3.47075915
0.63416278 2.39834332 -3.51694417
-1.21072209 -0.07123818 3.18025088
-0.60240674 2.78296924 -3.20424223
-1.22560120 2.82994747 0.04687117
-0.12891240 -1.50521302 4.47101831
0.70560908 3.82295203 0.83261853
0.69197845 -3.66431713 1.52112520
-0.62803036 -3.97208190 0.41343865
-0.03384344 -3.76508927 -2.35871577
-1.40775073 -1.88714373 1.12001121
-0.65585834 3.46415162 -2.11530662
-0.29662949 3.69308805 -2.33785152
1.18637216 2.03383446 -2.35790300
-1.56182754 1.14830434 0.00014866
-0.38736364 -3.80516005 -1.97540581
-1.17640746 -1.98021543 -2.45560455
-1.44998181 0.09805799 2.13240576
-0.53958744 -3.99666595 -0.90988731
-0.27699512 2.43573451 3.87024689
0.73099273 -3.60582423 -1.53250694
0.40981111 3.77289724 -2.01017547
1.51053917 1.07562184 -1.25382853
1.58806396 0.50534546 0.75567400
0.34231105 0.23084868 4.67086792
-0.61643237 -3.04599786 -2.87056160
-1.42011237 -0.41197419 -2.25572562
-0.03337965 4.28960180 0.63203669
-0.32004976 2.92042255 3.40269589
0.84214294 1.79392338 -3.57425475
0.24189088 4.25063181 -0.54764664
0.69738823 -1.35810351 -4.05030107
-1.18659914 2.83980894 0.86815488
0.15163122 0.65731084 4.70909452
-0.62505156 -0.31691396 -4.40221167
1.08226097 2.71899176 -1.90746105
0.90940249 0.65087730 3.89424086
-0.83758801 3.66928244 -0.56858170
-0.56546891 -3.95174384 1.01062691
1.42704833 -1.99850953 -0.48870084
-1.54283309 0.88922024 1.07979107
-1.55101573 -0.25487861 -1.35058212
0.01712961 -4.13824081 -1.39802730
-1.29771483 2.29274201 -1.33284223
1.50887132 -0.82248795 -1.48696852
0.52654201 -3.95481801 1.16530895
-1.40445864 -2.14388514 0.26691380
0.52020532 4.05621815 0.65507001
1.19475138 -1.93091059 2.42794228
0.12813623 -3.47579336 -2.82700253
-0.97907221 1.59231675 3.38171768
-1.26660633 -2.68177438 -0.34766918
0.80298698 3.44556451 1.65901506
-0.98244458 -0.20063244 3.79991841
-1.36116564 -1.73621762 -1.74672258
0.73451787 -2.53652644 -3.21343517
1.02785158 2.96772885 1.70640910
1.04037464 -2.47212744 -2.44574165
1.06137478 -0.86258543 -3.48862171
1.58503342 0.42393470 -0.87382656
-0.29901320 -3.93637681 1.78349018
0.39465323 3.59418201 2.40096474
1.06523180 1.99144089 -2.85430193
-1.07915068 0.54349315 -3.51930594
-0.75691229 3.64864659 -1.28050470
-0.92563426 -3.42718506 -1.03085780
-1.17188048 -1.37347662 -2.93458366
0.43788686 3.84812331 1.76916575
1.10184383 -3.13589883 0.52524471
0.02526294 -3.32646155 3.06019664
1.01022434 -1.79746163 3.17137551
0.91851538 -0.58798599 -3.88781977
1.49313164 -1.51996458 -0.78465527
-1.15773964 -1.31665254 3.01430058
-0.17912607 -0.36359921 -4.73997164
-1.12386847 -3.10861182 -0.23800454
-1.56618726 -0.89948618 -0.70587200
1.03180897 -2.87126207 -1.87764144
-0.78282380 -2.86747909 2.73818970
-0.57519293 -2.53929186 3.48372912
-0.62522638 -2.43148828 -3.50368023
-0.01382782 1.23298907 4.58782291
-0.41954178 -0.36032957 -4.60529804
-0.62834680 -1.87340879 3.89405084
1.10302675 2.39811826 2.29106355
0.74107414 3.84835243 0.07611176
1.36478007 0.04872305 2.57822108
-1.56296217 -1.06407571 0.43431026
-0.42363015 3.17456269 -3.00331569
1.55755842 -0.34055817 1.25886655
0.06922730 -0.72283691 -4.71417189
-1.03100514 -1.83471704 3.08297944
-0.98811752 1.33441162 -3.49501181
-0.97201604 -2.61921716 -2.50242090
1.02625239 1.28890932 -3.41747856
0.54236603 -1.88289380 4.00003147
-0.87021285 3.17307115 1.99590731
-1.44442403 1.46133709 1.44180870
-1.23783016 -0.19658121 -3.07862973
1.35579348 2.20764065 0.94916737
-0.35764611 1.04251504 -4.52327156
1.37035394 -0.15947065 -2.54631734
1.04377460 -0.08076656 -3.65981174
-0.40430567 4.17917013 0.36461794
-0.37033835 4.19074869 -0.47372892
-0.88052142 -2.22417474 3.17753863
-0.05168536 2.62278342 3.80511475
-0.32299104 -3.52948689 -2.60169864
-0.35175183 4.09633255 -1.14109492
0.31018680 -1.50176132 4.39448929
1.60756397 0.52482063 0.03246232
1.51601911 0.08066712 -1.68187499
0.32389084 0.77269280 -4.61066961
0.88180768 2.52470064 -2.88397169
-0.00852012 4.09078217 1.56412351
-0.89950645 -1.04653525 -3.80953908
0.26663575 3.63300729 -2.47864461
-0.62155193 2.03344202 3.80572271
-0.75914150 1.45670402 3.90906835
1.53678691 1.26498282 -0.58944947
0.25047916 -4.26864433 -0.26305681
1.14548278 1.92178357 2.63345885
-0.72183633 -3.49801874 -1.84287322
-0.67248654 2.68646264 3.18392491
0.72515714 3.47427535 -1.88365066
1.43482947 -1.01051843 1.91971433
-1.39426243 -0.45074728 2.38753438
-0.56210291 -3.27185535 2.65577126
-0.11173354 3.12322783 3.29659534
0.14568537 2.38930988 3.96801829
0.54723382 4.07315063 0.00823845
1.38548028 -0.64437962 2.37556815
1.16801620 -2.53858089 1.76698673
-1.35837388 2.14430976 1.08567226
0.31832749 -3.48288035 2.68106103
1.45874059 0.82227010 -1.87060773
0.55119878 -3.22415805 2.74696589
-0.65926594 0.31831515 4.35734320
0.29712468 -3.19183898 -3.11077380
-0.46473879 -1.49207425 4.27756500
-1.42134166 2.07429338 0.06372168
0.30561519 -2.08004427 -4.09950686
0.24071032 2.46821356 -3.86623168
-0.89759260 -3.05408359 2.11301112
1.05316627 1.54436135 3.21069074
-0.28034204 -4.12623549 -1.18010271
1.34933758 2.01688147 -1.42511344
-0.89761794 -3.54038835 0.73558515
0.18844205 -0.46268302 4.72635698
-1.04866815 2.90423584 1.73103797
-1.15154374 0.91097772 3.21150708
-1.50560772 -0.48616037 1.68256021
1.27550840 2.28356719 1.52992654
0.64898020 3.41604209 2.22707462
-0.99881130 0.68274754 3.69170880
0.38810501 2.88545227 3.37810254
0.68189555 1.25839746 -4.11242867
-0.90543354 0.12769894 -3.96673965
-1.10411513 -3.06703305 -0.87294585
0.28674343 1.46928906 4.42215729
-0.82583392 3.71940637 0.17605579
-0.92977148 -1.93590629 -3.28277016
0.54842287 -2.01282358 -3.91518044
1.07468390 3.23714375 -0.14062984
-0.68548441 3.06645656 2.70178366
-1.48934805 -1.14168251 1.39504588
-0.06294205 3.98428726 -1.85804987
-0.26612365 0.56338215 -4.67997074
-1.29854488 -2.32202387 -1.26136816
1.04172182 -3.31334305 -0.09917954
-0.63667697 -0.26603353 4.39123869
0.05948561 -4.10048485 1.52680349
0.57544690 3.33200979 -2.53857088
-0.86665040 3.42030191 1.42829514
-0.73698908 -3.83787680 -0.39123201
1.43474269 2.00618887 0.13703789
-1.13447416 2.70519185 -1.64845526
1.60627556 -0.55251068 -0.11012384
-0.36426729 -3.17813802 3.06478071
-1.33686066 0.11934968 2.69887733
-0.79551363 2.08402276 -3.47461677
0.56389755 -0.27898604 4.47614813
-0.07915680 -4.22429800 1.01493907
-0.25506014 -0.92236173 -4.61480522
1.28125930 -2.34520459 -1.36028457
-0.24766365 -3.10716772 -3.25062275
0.02319617 -2.91112900 3.54107928
-0.18451628 -4.30008316 -0.04199797
-0.19127400 3.09118605 -3.30247402
1.52846932 1.24005938 0.80075091
-1.08793116 -2.60317254 2.06928515
0.17926741 3.99213958 -1.77184343
-0.25650847 -2.09400034 4.11952972
-1.09659207 -0.10266035 -3.52172995
0.54274350 2.98881221 -3.06685925
-1.31249011 1.58021879 -2.19689298
0.55644548 1.76386988 4.04941130
1.11726201 -1.73334765 -2.88601351
-0.11451417 -0.90884203 4.66685438
0.33925253 3.03210855 -3.26464605
-1.14346826 1.34163260 -3.04798150
-0.58709371 1.15487289 4.27367544
0.98925185 -3.09662509 1.62148881
0.07102527 1.00856709 -4.64993143
1.52808332 -1.40712142 0.31566247
-0.98545361 3.35370731 0.82705826
0.46783474 -4.12322426 -0.45051235
-0.16394182 -3.96899629 -1.84696734
0.01251865 1.97993267 4.25534296
0.55221546 2.41139126 3.62381673
0.05421109 2.14803147 -4.15151358
-0.40816143 -0.71218765 4.56479359
1.16853774 0.88662243 3.16747499
0.01278031 4.29388428 -0.60253668
-0.82763571 0.99530059 -3.96543097
0.42484608 1.33534586 -4.37584496
0.30018193 4.18726587 0.83322775
-1.21384478 -2.76158571 0.84998024
-1.17875433 2.14663005 2.26607132
-1.09288418 -0.64027774 3.46101332
0.87905717 -0.10780481 4.01808691
1.18158937 -0.25006118 3.26129246
-0.09841360 -3.60941124 2.62569404
-0.31074589 3.34116197 2.89950919
0.23487033 -4.12915659 -1.25495768
-1.18138766 1.48105824 2.83522320
-0.85409051 2.26354098 3.20512509
0.89079082 0.32568988 -3.98136973
0.15483038 -2.53753352 3.84998679
1.16474402 0.30985379 3.30945706
0.08182026 3.11427045 -3.31509042
-0.95777625 -2.59001184 2.58841729
-1.46151161 -1.60170662 -1.06181359
-0.48390833 3.79724956 1.79641557
1.24630356 -2.68849373 0.70827043
0.98908097 3.32829666 -0.90469748
-0.11965459 -1.51296234 -4.47018003
-0.15992931 4.30639505 0.01552937
0.82640982 -1.12799776 3.92274857
0.48189577 0.36384597 -4.55155468
1.25139952 2.66649413 -0.72980690
-0.93644494 2.71174526 2.50109410
-1.61115038 -0.07470348 0.48589867
0.74321306 -3.81622171 0.52953202
0.16700159 2.98144269 3.43357491
-0.40522650 0.57651025 4.58996344
0.78308988 -3.77251387 -0.38594711
0.64447272 -2.79045010 3.12355185
-0.28286669 1.63040829 -4.35367012
3 249 48 83
3 64 0 62
3 220 34 37
3 64 62 204
3 204 191 64
3 51 191 204
3 213 27 253
3 21 48 249
3 104 24 232
3 40 205 155
3 7 151 128
3 128 151 1
3 115 111 220
3 220 111 244
3 244 34 220
3 113 26 215
3 117 184 66
3 66 51 118
3 184 51 66
3 117 196 30
3 30 184 117
3 30 196 1
3 64 191 84
3 84 0 64
3 84 27 0
3 46 191 79
3 79 191 51
3 79 51 184
3 168 87 100
3 100 23 168
3 168 23 73
3 168 73 122
3 122 87 168
3 25 152 194
3 32 87 192
3 100 87 32
3 32 129 100
3 145 62 0
3 0 27 145
3 220 37 198
3 99 70 207
3 78 246 234
3 246 163 234
3 118 51 108
3 51 204 108
3 126 196 117
3 117 66 126
3 126 66 29
3 148 145 192
3 107 174 41
3 122 164 41
3 81 174 210
3 210 174 107
3 210 97 81
3 38 204 62
3 38 148 97
3 38 246 78
3 38 97 246
3 73 33 105
3 207 70 105
3 112 86 90
3 146 177 90
3 231 213 127
3 27 213 231
3 134 45 67
3 67 229 134
3 185 86 134
3 134 229 185
3 249 83 94
3 112 90 98
3 150 45 134
3 175 23 100
3 11 183 50
3 47 24 104
3 47 21 249
3 104 21 47
3 186 232 24
3 186 133 9
3 24 133 186
3 31 40 155
3 215 26 88
3 136 113 215
3 251 113 136
3 7 128 91
3 212 167 11
3 225 232 233
3 104 232 225
3 225 140 104
3 44 183 11
3 11 167 44
3 44 167 111
3 121 34 110
3 34 244 110
3 111 167 110
3 110 244 111
3 218 177 146
3 121 110 240
3 233 124 130
3 56 16 192
3 192 145 56
3 56 231 16
3 56 145 27
3 27 231 56
3 129 32 22
3 22 214 152
3 152 25 22
3 22 25 129
3 107 41 221
3 221 41 164
3 164 70 221
3 70 99 221
3 20 69 120
3 120 42 20
3 120 69 36
3 20 42 153
3 153 126 29
3 101 69 20
3 36 69 101
3 101 163 36
3 101 234 163
3 62 145 169
3 145 148 169
3 169 38 62
3 148 38 169
3 192 87 243
3 243 148 192
3 97 148 243
3 89 174 81
3 89 41 174
3 222 163 246
3 255 210 107
3 107 221 255
3 65 38 78
3 204 38 65
3 65 108 204
3 122 73 200
3 73 105 200
3 200 164 122
3 200 70 164
3 200 105 70
3 80 98 226
3 226 98 90
3 9 133 226
3 226 133 80
3 178 141 229
3 229 67 178
3 49 127 194
3 49 231 127
3 194 152 49
3 152 214 49
3 49 214 16
3 16 231 49
3 254 77 102
3 102 77 245
3 86 185 199
3 146 90 199
3 199 90 86
3 85 150 134
3 85 86 112
3 134 86 85
3 23 175 61
3 73 23 61
3 61 33 73
3 48 33 61
3 11 50 147
3 147 50 21
3 147 140 11
3 147 21 104
3 104 140 147
3 202 183 207
3 202 50 183
3 202 33 48
3 48 21 202
3 21 50 202
3 207 105 202
3 202 105 33
3 158 133 24
3 158 47 249
3 24 47 158
3 249 94 158
3 26 124 208
3 208 88 26
3 232 186 157
3 9 161 157
3 157 186 9
3 57 157 161
3 233 232 57
3 232 157 57
3 3 31 188
3 188 31 155
3 166 88 40
3 3 203 166
3 215 88 166
3 166 31 3
3 40 31 166
3 166 136 215
3 203 136 166
3 216 136 203
3 216 203 7
3 106 170 63
3 92 170 242
3 180 212 156
3 140 225 156
3 2 110 167
3 2 212 180
3 167 212 2
3 180 240 2
3 2 240 110
3 230 240 171
3 121 240 230
3 93 30 1
3 129 25 72
3 58 82 224
3 114 32 192
3 114 22 32
3 192 16 114
3 16 214 114
3 214 22 114
3 237 206 149
3 123 206 237
3 123 237 19
3 19 18 115
3 95 18 19
3 8 120 36
3 149 206 8
3 8 222 149
3 36 163 8
3 163 222 8
3 42 120 131
3 242 170 247
3 247 42 242
3 247 153 42
3 142 101 20
3 108 101 142
3 20 153 142
3 142 153 29
3 118 108 142
3 142 66 118
3 29 66 142
3 234 101 109
3 109 101 108
3 108 65 109
3 78 234 109
3 109 65 78
3 81 97 190
3 97 243 190
3 190 89 81
3 41 89 190
3 122 41 190
3 190 87 122
3 190 243 87
3 119 222 246
3 210 222 119
3 246 97 119
3 97 210 119
3 149 222 217
3 217 222 210
3 210 255 217
3 217 237 149
3 10 18 95
3 183 18 10
3 60 177 144
3 144 161 60
3 60 90 177
3 60 226 90
3 60 161 9
3 9 226 60
3 189 178 67
3 189 45 194
3 189 67 45
3 194 127 189
3 127 178 189
3 176 84 191
3 176 191 46
3 253 27 176
3 27 84 176
3 46 241 176
3 241 75 176
3 209 139 254
3 209 241 139
3 209 75 241
3 141 14 143
3 143 209 254
3 14 209 143
3 253 176 250
3 250 176 75
3 250 213 253
3 75 209 250
3 250 209 14
3 141 178 52
3 52 14 141
3 52 250 14
3 52 178 127
3 127 213 52
3 213 250 52
3 254 139 55
3 55 77 254
3 139 132 55
3 138 77 55
3 55 132 138
3 146 199 12
3 12 218 146
3 205 218 12
3 193 199 185
3 80 133 172
3 172 17 80
3 133 158 172
3 94 17 172
3 172 158 94
3 197 98 80
3 80 17 197
3 224 150 197
3 197 17 224
3 239 61 175
3 175 58 239
3 239 83 48
3 48 61 239
3 239 94 83
3 125 161 144
3 144 208 125
3 125 57 161
3 125 208 124
3 125 124 233
3 233 57 125
3 252 208 144
3 88 208 252
3 144 177 252
3 177 218 252
3 40 88 252
3 205 40 252
3 252 218 205
3 251 136 162
3 136 216 162
3 106 63 159
3 159 63 91
3 1 196 159
3 196 106 159
3 159 128 1
3 159 91 128
3 170 92 13
3 59 63 13
3 13 63 170
3 13 74 59
3 180 156 103
3 103 240 180
3 171 240 103
3 140 156 39
3 39 156 212
3 11 140 39
3 39 212 11
3 135 113 251
3 121 230 135
3 171 130 35
3 35 230 171
3 35 124 26
3 35 130 124
3 35 135 230
3 26 113 35
3 113 135 35
3 139 241 211
3 211 132 139
3 211 241 46
3 46 79 211
3 211 79 184
3 184 30 96
3 96 211 184
3 132 211 96
3 138 132 96
3 30 93 96
3 96 93 138
3 181 72 25
3 82 72 181
3 100 129 6
3 129 72 6
3 6 175 100
3 53 17 94
3 94 239 53
3 53 239 58
3 224 17 53
3 53 58 224
3 183 44 71
3 71 18 183
3 115 18 71
3 111 115 71
3 71 44 111
3 173 198 123
3 123 19 173
3 173 19 115
3 173 115 220
3 220 198 173
3 242 42 5
3 42 131 5
3 5 92 242
3 123 198 28
3 28 5 131
3 28 198 37
3 37 5 28
3 179 131 120
3 179 28 131
3 179 206 123
3 123 28 179
3 182 170 106
3 182 247 170
3 182 106 196
3 196 126 182
3 126 153 182
3 153 247 182
3 237 217 195
3 95 19 195
3 195 19 237
3 195 217 255
3 195 10 95
3 255 10 195
3 187 255 221
3 187 10 255
3 187 221 99
3 187 99 207
3 207 183 187
3 183 10 187
3 229 141 76
3 141 193 76
3 76 185 229
3 76 193 185
3 4 12 199
3 155 205 4
3 205 12 4
3 150 85 238
3 238 197 150
3 238 85 112
3 112 98 238
3 98 197 238
3 59 74 160
3 7 91 160
3 160 216 7
3 160 162 216
3 160 63 59
3 91 63 160
3 137 5 37
3 92 5 137
3 248 156 225
3 248 103 156
3 248 225 233
3 171 103 248
3 233 130 248
3 248 130 171
3 227 188 245
3 3 188 227
3 1 151 219
3 219 93 1
3 219 236 93
3 82 181 154
3 224 82 154
3 45 150 154
3 154 150 224
3 175 6 165
3 165 6 72
3 165 58 175
3 165 72 82
3 82 58 165
3 120 8 201
3 201 179 120
3 201 8 206
3 206 179 201
3 155 4 116
3 116 188 155
3 116 102 245
3 245 188 116
3 199 193 235
3 235 4 199
3 254 102 235
3 102 116 235
3 235 116 4
3 235 193 141
3 235 143 254
3 141 143 235
3 68 160 74
3 162 160 68
3 251 162 68
3 68 74 121
3 121 135 68
3 68 135 251
3 223 34 121
3 121 74 223
3 223 37 34
3 223 137 37
3 228 227 245
3 236 227 228
3 245 77 228
3 228 77 138
3 138 93 228
3 93 236 228
3 43 227 236
3 236 219 43
3 3 227 43
3 43 219 151
3 43 203 3
3 43 151 7
3 7 203 43
3 45 154 15
3 15 154 181
3 194 45 15
3 15 25 194
3 15 181 25
3 137 223 54
3 54 13 92
3 92 137 54
3 74 13 54
3 54 223 74