ply
format ascii 1.0
comment https://github.com/mikedh/trimesh
element vertex 256
property float x
property float y
property float z
element face 508
property list uchar int vertex_indices
end_header
1.65730274 -0.99652833 -2.46010566
2.52442861 0.47719175 2.46018910
-1.43572557 1.27875054 0.95715904
1.27472770 0.21855766 4.27416801
0.16283889 -0.55149281 4.37122631
1.53205633 1.22954392 -1.25631082
-1.81722331 -1.09847546 -1.62522089
1.52993369 0.72785479 3.42469978
1.25197792 0.81441462 -3.47027183
-2.39023376 -0.02419062 3.13804674
-1.18928456 0.94502348 -3.16171980
-2.41960859 0.96097606 0.04624915
-0.25450167 -0.51113093 4.41168451
1.39302886 1.29817438 0.82156909
1.36611891 -1.24430609 1.50093877
-1.23987114 -1.34881496 0.40795204
-0.06681446 -1.27852571 -2.32741404
-2.77921200 -0.64082456 1.10514784
-1.29480982 1.17633522 -2.08723497
-0.58561242 1.25407600 -2.30682659
2.34216189 0.69063693 -2.32661200
-3.08339405 0.38993409 0.00014669
-0.76474172 -1.29213274 -1.94919074
-2.32248926 -0.67242932 -2.42301702
-2.86258578 0.03329792 2.10410738
-1.06526530 -1.35716319 -0.89781249
-0.54684979 0.82711166 3.81888604
1.44314182 -1.22444344 -1.51216948
0.80905801 1.28117716 -1.98349893
2.98213935 0.36525300 -1.23718929
3.13519025 0.17160209 0.74564570
0.67579794 0.07839017 4.60888243
-1.21697426 -1.03434110 -2.83246708
-2.80361676 -0.13989565 -2.22579050
-0.06589884 1.45663643 0.62364906
-0.63184923 0.99169904 3.35753965
1.66257691 0.60916942 -3.52682185
0.47754624 1.44340324 -0.54037899
1.37679911 -0.46117643 -3.99655080
-2.34260988 0.96432477 0.85663384
0.29935366 0.22320555 4.64660120
-1.23399043 -0.10761568 -4.34379101
2.13662314 0.92329842 -1.88214767
1.79536223 0.22102089 3.84256172
-1.65358448 1.24599218 -0.56103623
-1.11636102 -1.34190881 0.99721521
2.81730986 -0.67864150 -0.48221543
-3.04589462 0.30195591 1.06546152
-3.06204915 -0.08655011 -1.33265901
0.03381765 -1.40523827 -1.37947440
-2.56197691 0.77855515 -1.31515443
2.97884655 -0.27929536 -1.46723545
1.03951073 -1.34295273 1.14984441
-2.77271295 -0.72800726 0.26337165
1.02700067 1.37738550 0.64637679
2.35870409 -0.65568668 2.39572167
0.25296935 -1.18028843 -2.78948617
-1.93290567 0.54070908 3.33683991
-2.50056195 -0.91066039 -0.34305537
1.58527434 1.17002344 1.63699877
-1.93956351 -0.06812952 3.74949098
-2.68724298 -0.58957404 -1.72354233
1.45010126 -0.86133796 -3.17079043
2.02920699 1.00776303 1.68376374
2.05393028 -0.83946973 -2.41328502
2.09538913 -0.29291141 -3.44232535
3.12920737 0.14395712 -0.86223024
-0.59031832 -1.33669055 1.75982201
0.77913302 1.22049010 2.36910224
2.10300374 0.67624116 -2.81642342
-2.13048267 0.18455605 -3.47260213
-1.49431276 1.23898482 -1.26351142
-1.82740724 -1.16378236 -1.01717758
-2.31355214 -0.46639669 -2.89563966
0.86448574 1.30672193 1.74568760
2.17528415 -1.06486917 0.51827437
0.04987465 -1.12957919 3.01958561
1.99440682 -0.61037093 3.12928915
1.81335306 -0.19966465 -3.83622551
2.94777298 -0.51614016 -0.77424234
-2.28563476 -0.44710073 2.97429872
-0.35363457 -0.12346877 -4.67706871
-2.21876550 -1.05560327 -0.23484604
-3.09200120 -0.30544195 -0.69650459
2.03701973 -0.97500545 -1.85272384
-1.54546785 -0.97372079 2.70185208
-1.13555849 -0.86227709 3.43749738
-1.23433554 -0.82566983 -3.45718384
-0.02729918 0.41869080 4.52693939
-0.82826853 -0.12235849 -4.54418278
-1.24049592 -0.63616055 3.84237409
2.17761946 0.81433821 2.26065946
1.46304476 1.30679977 0.07510170
2.69437861 0.01654507 2.54400611
-3.08563399 -0.36133227 0.42854667
-0.83633989 1.07799840 -2.96345949
3.07496572 -0.11564464 1.24216044
0.13667005 -0.24545649 -4.65161180
-2.03543282 -0.62302184 3.04206610
-1.95076311 0.45313123 -3.44863033
-1.91897523 -0.88941753 -2.46921206
2.02604985 0.43767989 -3.37212634
1.07075083 -0.63938141 3.94694829
-1.71799314 1.07749188 1.96942019
-2.85161328 0.49623179 1.42267489
-2.44375134 -0.06675383 -3.03777409
2.67663717 0.74965698 0.93657124
-0.70607275 0.35401082 -4.46324492
2.70538282 -0.05415206 -2.51252580
2.06064248 -0.02742621 -3.61124349
-0.79818904 1.41913664 0.35977921
-0.73113000 1.42306852 -0.46744221
-1.73834455 -0.75527149 3.13537049
-0.10203836 0.89062858 3.75461817
-0.63765597 -1.19852138 -2.56717229
-0.69443613 1.39100730 -1.12595189
0.61237752 -0.50995886 4.33617115
3.17368770 0.17821535 0.03203152
2.99295807 0.02739244 -1.65955532
0.63943231 0.26238623 -4.54948282
1.74088395 0.85732222 -2.84569955
-0.01682060 1.38912249 1.54336655
-1.77582514 -0.35537595 -3.75898385
0.52639812 1.23367417 -2.44575119
-1.22708130 0.69050366 3.75521803
-1.49871361 0.49465853 3.85719204
3.03395820 0.42955506 -0.58162701
0.49450144 -1.44951975 -0.25956586
2.26143694 0.65258741 2.59851098
-1.42506492 -1.18783557 -1.81841695
-1.32763755 0.91225243 3.14167213
1.43162107 1.17977297 -1.85865331
2.83267164 -0.34314561 1.89423835
-2.75258327 -0.15306199 2.35585022
-1.10971582 -1.11103642 2.62052727
-0.22058679 1.06056643 3.25284719
0.28761524 0.81134707 3.91535974
1.08036101 1.38313532 0.00812912
2.73524523 -0.21881445 2.34404278
2.30592299 -0.86203563 1.74353755
-2.68173122 0.72815144 1.07126462
0.62844908 -1.18269491 2.64548135
2.87987757 0.27922139 -1.84578347
1.08818865 -1.09483957 2.71051192
-1.30153716 0.10809150 4.29951811
0.58659005 -1.08386493 -3.06949162
-0.91749746 -0.50666934 4.22079849
-2.80604362 0.70437568 0.06287605
0.60335219 -0.70632851 -4.04510355
0.47521555 0.83814073 -3.81492424
-1.77204680 -1.03708684 2.08496976
2.07918382 0.52442467 3.16808248
-0.55345738 -1.40116155 -1.16444194
2.66389155 0.68488014 -1.40620124
-1.77209687 -1.20222318 0.72582340
0.37202641 -0.15711504 4.66363478
-2.07030344 0.98620248 1.70806587
-2.27340269 0.30934417 3.16888833
-2.97240353 -0.16508734 1.66023135
2.51813650 0.77543962 1.50962329
1.28123093 1.15999842 2.19751978
-1.97187495 0.23184319 3.64271736
0.76620537 0.97982401 3.33327270
1.34621298 0.42731884 -4.05785370
-1.78752661 0.04336322 -3.91409802
-2.17976832 -1.04148412 -0.86136121
0.56609511 0.49893212 4.36347198
-1.63037932 1.26301301 0.17371941
-1.83557522 -0.65738308 -3.23920536
1.08270848 -0.68350220 -3.86322308
2.12166452 1.09924924 -0.13876359
-1.35329831 1.04128838 2.66592908
-2.94030333 -0.38768548 1.37653267
-0.12426157 1.35295963 -1.83339226
-0.52538711 0.19130984 -4.61786413
-2.56361580 -0.78849852 -1.24462891
2.05658984 -1.12512457 -0.09786335
-1.25694144 -0.09033802 4.33296394
0.11743778 -1.39241731 1.50654173
1.13605976 1.13146329 -2.50488234
-1.71096003 1.16144502 1.40934062
-1.45497990 -1.30324256 -0.38604006
2.83250022 0.68124920 0.13521929
-2.23970366 0.91861230 -1.62657905
3.17114425 -0.18761817 -0.10866241
-0.71914440 -1.07921243 3.02410913
-2.63925958 0.04052803 2.66306138
-1.57052028 0.70767957 -3.42850614
1.11325884 -0.09473636 4.41674614
-0.15627308 -1.43446100 1.00147021
-0.50354528 -0.31320989 -4.55356312
2.52948999 -0.79637009 -1.34223258
-0.48894298 -1.05511284 -3.20748472
0.04579439 -0.98854321 3.49408674
-0.36427608 -1.46019566 -0.04144063
-0.37761730 1.04968584 -3.25864768
3.01753736 0.42109171 0.79012436
-2.14781761 -0.88396925 2.04182434
0.35391364 1.35562611 -1.74832976
-0.50640464 -0.71106768 4.06486034
-2.16491604 -0.03486077 -3.47499394
1.07149601 1.01492238 -3.02616000
-2.59114647 0.53660095 -2.16773868
1.09854686 0.59896404 3.99567270
2.20572305 -0.58859950 -2.84771419
-0.22607638 -0.30861896 4.60492182
0.66975975 1.02962470 -3.22132182
-2.25746012 0.45558330 -3.00753260
-1.15905321 0.39216459 4.21696091
1.95300257 -1.05153286 1.59997046
0.14021963 0.34248298 -4.58822346
3.01677537 -0.47782156 0.31147343
-1.94550395 1.13883114 0.81608260
0.92360950 -1.40013909 -0.44453374
-0.32365748 -1.34776723 -1.82245684
0.02471458 0.67233330 4.19887161
1.09019578 0.81884533 3.57572603
0.10702472 0.72941524 -4.09641981
-0.80580115 -0.24184027 4.50421572
2.30695248 0.30107376 3.12544036
0.02523117 1.45809066 -0.59454054
-1.63393641 0.33797804 -3.91280699
0.83874041 0.45344850 -4.31777430
0.59262568 1.42188597 0.82217020
-2.39639878 -0.93776220 0.83870041
-2.32712245 0.72893935 2.23599887
-2.15759587 -0.21742155 3.41508341
1.73545384 -0.03660769 3.96476388
2.33271933 -0.08491423 3.21801281
-0.19429028 -1.22566152 2.59084916
-0.61348134 1.13457119 2.86103058
0.46368611 -1.40215349 -1.23830354
-2.33232141 0.50292861 2.79759765
-1.68616414 0.76863927 3.16259074
1.75861871 0.11059576 -3.92853403
0.30566952 -0.86167991 3.79889488
2.29946303 0.10521824 3.26553822
0.16153133 1.05752468 -3.27109671
-1.89086270 -0.87950021 2.55406713
-2.88534808 -0.54389763 -1.04772258
-0.95534235 1.28944647 1.77257586
2.46047974 -0.91294211 0.69887120
1.95266521 1.13020241 -0.89269149
-0.23622470 -0.51376241 -4.41085768
-0.31573591 1.46233892 0.01532328
1.63151622 -0.38303849 3.87069106
0.95136917 0.12355256 -4.49115229
2.47054005 0.90547162 -0.72012186
-1.84875000 0.92083770 2.46790266
-3.18076801 -0.02536735 0.47945046
1.46726739 -1.29588890 0.52250475
0.32969818 1.01241994 3.38800883
-0.80000699 0.19576779 4.52905130
1.54599309 -1.28104687 -0.38082534
1.27233207 -0.94756377 3.08210015
-0.55844158 0.55364394 -4.29589367
3 249 48 83
3 64 0 62
3 220 34 37
3 64 62 204
3 204 191 64
3 51 191 204
3 213 27 253
3 21 48 249
3 104 24 232
3 40 205 155
3 7 151 128
3 128 151 1
3 115 111 220
3 220 111 244
3 244 34 220
3 113 26 215
3 117 184 66
3 66 51 118
3 184 51 66
3 117 196 30
3 30 184 117
3 30 196 1
3 64 191 84
3 84 0 64
3 84 27 0
3 46 191 79
3 79 191 51
3 79 51 184
3 168 87 100
3 100 23 168
3 168 23 73
3 168 73 122
3 122 87 168
3 25 152 194
3 32 87 192
3 100 87 32
3 32 129 100
3 145 62 0
3 0 27 145
3 220 37 198
3 99 70 207
3 78 246 234
3 246 163 234
3 118 51 108
3 51 204 108
3 126 196 117
3 117 66 126
3 126 66 29
3 148 145 192
3 107 174 41
3 122 164 41
3 81 174 210
3 210 174 107
3 210 97 81
3 38 204 62
3 38 148 97
3 38 246 78
3 38 97 246
3 73 33 105
3 207 70 105
3 112 86 90
3 146 177 90
3 231 213 127
3 27 213 231
3 134 45 67
3 67 229 134
3 185 86 134
3 134 229 185
3 249 83 94
3 112 90 98
3 150 45 134
3 175 23 100
3 11 183 50
3 47 24 104
3 47 21 249
3 104 21 47
3 186 232 24
3 186 133 9
3 24 133 186
3 31 40 155
3 215 26 88
3 136 113 215
3 251 113 136
3 7 128 91
3 212 167 11
3 225 232 233
3 104 232 225
3 225 140 104
3 44 183 11
3 11 167 44
3 44 167 111
3 121 34 110
3 34 244 110
3 111 167 110
3 110 244 111
3 218 177 146
3 121 110 240
3 233 124 130
3 56 16 192
3 192 145 56
3 56 231 16
3 56 145 27
3 27 231 56
3 129 32 22
3 22 214 152
3 152 25 22
3 22 25 129
3 107 41 221
3 221 41 164
3 164 70 221
3 70 99 221
3 20 69 120
3 120 42 20
3 120 69 36
3 20 42 153
3 153 126 29
3 101 69 20
3 36 69 101
3 101 163 36
3 101 234 163
3 62 145 169
3 145 148 169
3 169 38 62
3 148 38 169
3 192 87 243
3 243 148 192
3 97 148 243
3 89 174 81
3 89 41 174
3 222 163 246
3 255 210 107
3 107 221 255
3 65 38 78
3 204 38 65
3 65 108 204
3 122 73 200
3 73 105 200
3 200 164 122
3 200 70 164
3 200 105 70
3 80 98 226
3 226 98 90
3 9 133 226
3 226 133 80
3 178 141 229
3 229 67 178
3 49 127 194
3 49 231 127
3 194 152 49
3 152 214 49
3 49 214 16
3 16 231 49
3 254 77 102
3 102 77 245
3 86 185 199
3 146 90 199
3 199 90 86
3 85 150 134
3 85 86 112
3 134 86 85
3 23 175 61
3 73 23 61
3 61 33 73
3 48 33 61
3 11 50 147
3 147 50 21
3 147 140 11
3 147 21 104
3 104 140 147
3 202 183 207
3 202 50 183
3 202 33 48
3 48 21 202
3 21 50 202
3 207 105 202
3 202 105 33
3 158 133 24
3 158 47 249
3 24 47 158
3 249 94 158
3 26 124 208
3 208 88 26
3 232 186 157
3 9 161 157
3 157 186 9
3 57 157 161
3 233 232 57
3 232 157 57
3 3 31 188
3 188 31 155
3 166 88 40
3 3 203 166
3 215 88 166
3 166 31 3
3 40 31 166
3 166 136 215
3 203 136 166
3 216 136 203
3 216 203 7
3 106 170 63
3 92 170 242
3 180 212 156
3 140 225 156
3 2 110 167
3 2 212 180
3 167 212 2
3 180 240 2
3 2 240 110
3 230 240 171
3 121 240 230
3 93 30 1
3 129 25 72
3 58 82 224
3 114 32 192
3 114 22 32
3 192 16 114
3 16 214 114
3 214 22 114
3 237 206 149
3 123 206 237
3 123 237 19
3 19 18 115
3 95 18 19
3 8 120 36
3 149 206 8
3 8 222 149
3 36 163 8
3 163 222 8
3 42 120 131
3 242 170 247
3 247 42 242
3 247 153 42
3 142 101 20
3 108 101 142
3 20 153 142
3 142 153 29
3 118 108 142
3 142 66 118
3 29 66 142
3 234 101 109
3 109 101 108
3 108 65 109
3 78 234 109
3 109 65 78
3 81 97 190
3 97 243 190
3 190 89 81
3 41 89 190
3 122 41 190
3 190 87 122
3 190 243 87
3 119 222 246
3 210 222 119
3 246 97 119
3 97 210 119
3 149 222 217
3 217 222 210
3 210 255 217
3 217 237 149
3 10 18 95
3 183 18 10
3 60 177 144
3 144 161 60
3 60 90 177
3 60 226 90
3 60 161 9
3 9 226 60
3 189 178 67
3 189 45 194
3 189 67 45
3 194 127 189
3 127 178 189
3 176 84 191
3 176 191 46
3 253 27 176
3 27 84 176
3 46 241 176
3 241 75 176
3 209 139 254
3 209 241 139
3 209 75 241
3 141 14 143
3 143 209 254
3 14 209 143
3 253 176 250
3 250 176 75
3 250 213 253
3 75 209 250
3 250 209 14
3 141 178 52
3 52 14 141
3 52 250 14
3 52 178 127
3 127 213 52
3 213 250 52
3 254 139 55
3 55 77 254
3 139 132 55
3 138 77 55
3 55 132 138
3 146 199 12
3 12 218 146
3 205 218 12
3 193 199 185
3 80 133 172
3 172 17 80
3 133 158 172
3 94 17 172
3 172 158 94
3 197 98 80
3 80 17 197
3 224 150 197
3 197 17 224
3 239 61 175
3 175 58 239
3 239 83 48
3 48 61 239
3 239 94 83
3 125 161 144
3 144 208 125
3 125 57 161
3 125 208 124
3 125 124 233
3 233 57 125
3 252 208 144
3 88 208 252
3 144 177 252
3 177 218 252
3 40 88 252
3 205 40 252
3 252 218 205
3 251 136 162
3 136 216 162
3 106 63 159
3 159 63 91
3 1 196 159
3 196 106 159
3 159 128 1
3 159 91 128
3 170 92 13
3 59 63 13
3 13 63 170
3 13 74 59
3 180 156 103
3 103 240 180
3 171 240 103
3 140 156 39
3 39 156 212
3 11 140 39
3 39 212 11
3 135 113 251
3 121 230 135
3 171 130 35
3 35 230 171
3 35 124 26
3 35 130 124
3 35 135 230
3 26 113 35
3 113 135 35
3 139 241 211
3 211 132 139
3 211 241 46
3 46 79 211
3 211 79 184
3 184 30 96
3 96 211 184
3 132 211 96
3 138 132 96
3 30 93 96
3 96 93 138
3 181 72 25
3 82 72 181
3 100 129 6
3 129 72 6
3 6 175 100
3 53 17 94
3 94 239 53
3 53 239 58
3 224 17 53
3 53 58 224
3 183 44 71
3 71 18 183
3 115 18 71
3 111 115 71
3 71 44 111
3 173 198 123
3 123 19 173
3 173 19 115
3 173 115 220
3 220 198 173
3 242 42 5
3 42 131 5
3 5 92 242
3 123 198 28
3 28 5 131
3 28 198 37
3 37 5 28
3 179 131 120
3 179 28 131
3 179 206 123
3 123 28 179
3 182 170 106
3 182 247 170
3 182 106 196
3 196 126 182
3 126 153 182
3 153 247 182
3 237 217 195
3 95 19 195
3 195 19 237
3 195 217 255
3 195 10 95
3 255 10 195
3 187 255 221
3 187 10 255
3 187 221 99
3 187 99 207
3 207 183 187
3 183 10 187
3 229 141 76
3 141 193 76
3 76 185 229
3 76 193 185
3 4 12 199
3 155 205 4
3 205 12 4
3 150 85 238
3 238 197 150
3 238 85 112
3 112 98 238
3 98 197 238
3 59 74 160
3 7 91 160
3 160 216 7
3 160 162 216
3 160 63 59
3 91 63 160
3 137 5 37
3 92 5 137
3 248 156 225
3 248 103 156
3 248 225 233
3 171 103 248
3 233 130 248
3 248 130 171
3 227 188 245
3 3 188 227
3 1 151 219
3 219 93 1
3 219 236 93
3 82 181 154
3 224 82 154
3 45 150 154
3 154 150 224
3 175 6 165
3 165 6 72
3 165 58 175
3 165 72 82
3 82 58 165
3 120 8 201
3 201 179 120
3 201 8 206
3 206 179 201
3 155 4 116
3 116 188 155
3 116 102 245
3 245 188 116
3 199 193 235
3 235 4 199
3 254 102 235
3 102 116 235
3 235 116 4
3 235 193 141
3 235 143 254
3 141 143 235
3 68 160 74
3 162 160 68
3 251 162 68
3 68 74 121
3 121 135 68
3 68 135 251
3 223 34 121
3 121 74 223
3 223 37 34
3 223 137 37
3 228 227 245
3 236 227 228
3 245 77 228
3 228 77 138
3 138 93 228
3 93 236 228
3 43 227 236
3 236 219 43
3 3 227 43
3 43 219 151
3 43 203 3
3 43 151 7
3 7 203 43
3 45 154 15
3 15 154 181
3 194 45 15
3 15 25 194
3 15 181 25
3 137 223 54
3 54 13 92
3 92 137 54
3 74 13 54
3 54 223 74