ply
format ascii 1.0
comment https://github.com/mikedh/trimesh
element vertex 256
property float x
property float y
property float z
element face 508
property list uchar int vertex_indices
end_header
1.20834899 -0.94477975 -1.39957309
1.84057546 0.45241174 1.39962053
-1.04679573 1.21234655 0.54453516
0.92941123 0.20720822 2.43160725
0.11872677 -0.52285445 2.48682427
1.11703110 1.16569507 -0.71472490
-1.32494795 -1.04143298 -0.92460066
1.11548340 0.69005811 1.94833803
0.91282427 0.77212298 -1.97426438
-1.74273312 -0.02293443 1.78525901
-0.86711413 0.89594948 -1.79872668
-1.76415050 0.91107368 0.02631150
-0.18555863 -0.48458847 2.50984144
1.01566529 1.23076177 0.46739697
0.99604511 -1.17969072 0.85389560
-0.90399718 -1.27877259 0.23208705
-0.04871481 -1.21213341 -1.32408381
-2.02633953 -0.60754728 0.62872714
-0.94405329 1.11524951 -1.18744397
-0.42697334 1.18895328 -1.31237137
1.70768368 0.65477294 -1.32362747
-2.24812031 0.36968526 0.00008345
-0.55757755 -1.22503376 -1.10890961
-1.69334030 -0.63751084 -1.37847304
-2.08712769 0.03156880 1.19704282
-0.77669108 -1.28668725 -0.51077241
-0.39871132 0.78416067 2.17259359
1.05220294 -1.16085958 -0.86028486
0.58988881 1.21464705 -1.12842774
2.17429495 0.34628582 -0.70384651
2.28588533 0.16269098 0.42420357
0.49272814 0.07431946 2.62202859
-0.88730288 -0.98062897 -1.61141241
-2.04413295 -0.13263103 -1.26626933
-0.04804722 1.38099504 0.35479876
-0.46068490 0.94020128 1.91013014
1.21219432 0.57753593 -2.00643611
0.34818169 1.36844897 -0.30742577
1.00383210 -0.43722805 -2.27366853
-1.70801020 0.91424853 0.48734561
0.21826047 0.21161474 2.64348722
-0.89970952 -0.10202733 -2.47121620
1.55782413 0.87535262 -1.07076824
1.30900896 0.20954353 2.18606281
-1.20563793 1.18128932 -0.31917784
-0.81394523 -1.27222502 0.56732339
2.05411673 -0.64340043 -0.27433607
-2.22077918 0.28627568 0.60614926
-2.23255754 -0.08205566 -0.75815994
0.02465664 -1.33226585 -0.78479362
-1.86795211 0.73812568 -0.74820149
2.17189407 -0.26479188 -0.83472157
0.75791323 -1.27321470 0.65415537
-2.02160072 -0.69020265 0.14983417
0.74879205 1.30585945 0.36772871
1.71974468 -0.62163764 1.36294448
0.18444140 -1.11899745 -1.58696008
-1.40929258 0.51263070 1.89835393
-1.82317400 -0.86337084 -0.19516684
1.15583265 1.10926557 0.93130118
-1.41414690 -0.06459164 2.13311434
-1.95928419 -0.55895811 -0.98053652
1.05727708 -0.81660968 -1.80388713
1.47950637 0.95543104 0.95790619
1.49753237 -0.79587704 -1.37293649
1.52776027 -0.27770087 -1.95836532
2.28152299 0.13648160 -0.49052942
-0.43040448 -1.26727772 1.00117624
0.56807035 1.15711153 1.34780061
1.53331208 0.64112478 -1.60228491
-1.55334723 0.17497227 -1.97559011
-1.08951199 1.17464578 -0.71882141
-1.33237314 -1.10334849 -0.57868016
-1.68682408 -0.44217724 -1.64735174
0.63030154 1.23886538 0.99313509
1.58601213 -1.00957179 0.29485026
0.03636390 -1.07092154 1.71786559
1.45413339 -0.57867503 1.78027666
1.32212615 -0.18929629 -2.18245816
2.14923811 -0.48933762 -0.44047242
-1.66646945 -0.42388332 1.69210148
-0.25783700 -0.11705717 -2.66082025
-1.61771476 -1.00078702 -0.13360572
-2.25439572 -0.28958070 -0.39624682
1.48520279 -0.92437458 -1.05402887
-1.12680948 -0.92315662 1.53710437
-0.82794219 -0.81750000 1.95561874
-0.89996111 -0.78279370 -1.96681845
-0.01990399 0.39694867 2.57541060
-0.60389537 -0.11600455 -2.58522034
-0.90445268 -0.60312551 2.18595624
1.58771479 0.77205056 1.28610659
1.06671429 1.23893917 0.04272594
1.96448684 0.01568590 1.44730473
-2.24975348 -0.34256870 0.24380349
-0.60978019 1.02201915 -1.68593490
2.24197507 -0.10963935 0.70667464
0.09964692 -0.23271021 -2.64633775
-1.48404574 -0.59066904 1.73065484
-1.42231250 0.42960066 -1.96195245
-1.39913583 -0.84323108 -1.40475368
1.47720456 0.41495165 -1.91842866
0.78069055 -0.60617912 2.24544930
-1.25259864 1.02153897 1.12041831
-2.07912755 0.47046307 0.80937070
-1.78175306 -0.06328738 -1.72821307
1.95155144 0.71072817 0.53282261
-0.51480168 0.33562744 -2.53917432
1.97250998 -0.05134001 -1.42939532
1.50242627 -0.02600200 -2.05446410
-0.58196419 1.34544253 0.20468116
-0.53307110 1.34917021 -0.26593146
-1.26743698 -0.71605110 1.78373647
-0.07439675 0.84437925 2.13603115
-0.46491861 -1.13628352 -1.46048403
-0.50631738 1.31877387 -0.64056265
0.44648796 -0.48347726 2.46688104
2.31395388 0.16896084 0.01822298
2.18218279 0.02596999 -0.94413376
0.46621376 0.24876082 -2.58823562
1.26928842 0.81280243 -1.61894035
-0.01226400 1.31698692 0.87803310
-1.29476428 -0.33692169 -2.13851476
0.38379988 1.16961086 -1.39140666
-0.89467204 0.65464658 2.13637233
-1.09272075 0.46897149 2.19438624
2.21207619 0.40724877 -0.33089209
0.36054382 -1.37424791 -0.14766902
1.64882660 0.61869931 1.47831285
-1.03902304 -1.12615263 -1.03451145
-0.96798819 0.86488020 1.78732145
1.04380310 1.11850870 -1.05740213
2.06531715 -0.32532647 1.07764673
-2.00692439 -0.14511365 1.34026134
-0.80910015 -1.05334151 1.49083817
-0.16083109 1.00549233 1.85056984
0.20970191 0.76921475 2.22747827
0.78769737 1.31131077 0.00462472
1.99428308 -0.20745167 1.33354390
1.68126178 -0.81727111 0.99191195
-1.95526564 0.69033939 0.60945070
0.45820582 -1.12127900 1.50503480
2.09973526 0.26472175 -1.05008042
0.79340458 -1.03798580 1.54203105
-0.94895822 0.10247843 2.44602919
0.42768615 -1.02758110 -1.74625742
-0.66895264 -0.48035857 2.40124464
-2.04590249 0.66779828 0.03577067
0.43990752 -0.66964972 -2.30129051
0.34648240 0.79461706 -2.17033958
-1.29200947 -0.98323208 1.18615544
1.51594484 0.49719191 1.80234659
-0.40352896 -1.32840085 -0.66245997
1.94225872 0.64931506 -0.79999870
-1.29204595 -1.13979316 0.41292652
0.27124658 -0.14895624 2.65317774
-1.50947022 0.93499011 0.97173178
-1.65755105 0.29328027 1.80280495
-2.16719651 -0.15651454 0.94451839
1.83598781 0.73517197 0.85883629
0.93415278 1.09976113 1.25018597
-1.43770540 0.21980384 2.07236981
0.55864471 0.92894286 1.89632452
0.98153162 0.40512866 -2.30854416
-1.30329585 0.04111142 -2.22676063
-1.58928156 -0.98740107 -0.49003503
0.41274321 0.47302315 2.48241282
-1.18871891 1.19742620 0.09883031
-1.33832836 -0.62324595 -1.84280896
0.78940892 -0.64800870 -2.19781733
1.54691768 1.04216647 -0.07894368
-0.98669755 0.98721540 1.51666760
-2.14379215 -0.36755341 0.78312004
-0.09059983 1.28270197 -1.04303098
-0.38306278 0.18137534 -2.62713838
-1.86914694 -0.74755269 -0.70807892
1.49947143 -1.06669807 -0.05567522
-0.91644323 -0.08564688 2.46505642
0.08562456 -1.32011068 0.85708320
0.82830769 1.07270765 -1.42504680
-1.24747074 1.10113251 0.80178469
-1.06083417 -1.23556662 -0.21962117
2.06519222 0.64587271 0.07692730
-1.63298070 0.87090981 -0.92537338
2.31209946 -0.17787537 -0.06181888
-0.52433228 -1.02317023 1.72043896
-1.92429924 0.03842345 1.51503611
-1.14507532 0.67093062 -1.95050359
0.81168342 -0.08981681 2.51272106
-0.11393960 -1.35997105 0.56974405
-0.36713773 -0.29694527 -2.59055710
1.84426558 -0.75501549 -0.76360649
-0.35649112 -1.00032198 -1.82476282
0.03338895 -0.93720931 1.98781276
-0.26559576 -1.38436937 -0.02357589
-0.27532294 0.99517691 -1.85386980
2.20010376 0.39922488 0.44950783
-1.56598604 -0.83806574 1.16160965
0.25804046 1.28522992 -0.99463826
-0.36922252 -0.67414278 2.31253028
-1.57845271 -0.03305049 -1.97695088
0.78123385 0.96221858 -1.72160566
-1.88921976 0.50873590 -1.23324311
0.80095679 0.56786054 2.27316904
1.60820532 -0.55803418 -1.62008643
-0.16483358 -0.29259273 2.61977553
0.48832566 0.97615749 -1.83263481
-1.64592707 0.43192539 -1.71100843
-0.84507233 0.37179992 2.39906144
1.42394531 -0.99692792 0.91023552
0.10223493 0.32469824 -2.61027575
2.19954824 -0.45300886 0.17719963
-1.41847813 1.07969296 0.46427569
0.67340899 -1.32743144 -0.25289866
-0.23598053 -1.27777922 -1.03680968
0.01801955 0.63741982 2.38877034
0.79486799 0.77632362 2.03425813
0.07803234 0.69153756 -2.33048487
-0.58751428 -0.22928178 2.56248283
1.68201232 0.28543934 1.77808714
0.01839619 1.38237369 -0.33823872
-1.19131243 0.32042721 -2.22602606
0.61153042 0.42990145 -2.45641518
0.43208680 1.34804904 0.46773896
-1.74722803 -0.88906527 0.47714311
-1.69671822 0.69108635 1.27207696
-1.57311547 -0.20613110 1.94286716
1.26532936 -0.03470670 2.25558472
1.70079911 -0.08050473 1.83075225
-0.14165816 -1.16201437 1.47395408
-0.44729275 1.07565415 1.62766242
0.33807620 -1.32934129 -0.70448041
-1.70050883 0.47681212 1.59157491
-1.22939193 0.72872472 1.79922223
1.28221893 0.10485265 -2.23497319
0.22286540 -0.81693387 2.16122055
1.67655170 0.09975438 1.85778975
0.11777342 1.00260866 -1.86095214
-1.37863886 -0.83382881 1.45302844
-2.10372376 -0.51565367 -0.59605742
-0.69654560 1.22248709 1.00843203
1.79394984 -0.86553407 0.39759320
1.42369938 1.07151234 -0.50785905
-0.17223278 -0.48708332 -2.50937080
-0.23020487 1.38640141 0.00871753
1.18954778 -0.36314774 2.20206594
0.69364870 0.11713662 -2.55505109
1.80128491 0.85845149 -0.40968287
-1.34793425 0.87301964 1.40400887
-2.31911635 -0.02405005 0.27276307
1.06979311 -1.22859490 0.29725698
0.24038483 0.95984608 1.92746425
-0.58328968 0.18560180 2.57661200
1.12719238 -1.21452367 -0.21665446
0.92766458 -0.89835787 1.75343049
-0.40716296 0.52489388 -2.44396710
3 249 48 83
3 64 0 62
3 220 34 37
3 64 62 204
3 204 191 64
3 51 191 204
3 213 27 253
3 21 48 249
3 104 24 232
3 40 205 155
3 7 151 128
3 128 151 1
3 115 111 220
3 220 111 244
3 244 34 220
3 113 26 215
3 117 184 66
3 66 51 118
3 184 51 66
3 117 196 30
3 30 184 117
3 30 196 1
3 64 191 84
3 84 0 64
3 84 27 0
3 46 191 79
3 79 191 51
3 79 51 184
3 168 87 100
3 100 23 168
3 168 23 73
3 168 73 122
3 122 87 168
3 25 152 194
3 32 87 192
3 100 87 32
3 32 129 100
3 145 62 0
3 0 27 145
3 220 37 198
3 99 70 207
3 78 246 234
3 246 163 234
3 118 51 108
3 51 204 108
3 126 196 117
3 117 66 126
3 126 66 29
3 148 145 192
3 107 174 41
3 122 164 41
3 81 174 210
3 210 174 107
3 210 97 81
3 38 204 62
3 38 148 97
3 38 246 78
3 38 97 246
3 73 33 105
3 207 70 105
3 112 86 90
3 146 177 90
3 231 213 127
3 27 213 231
3 134 45 67
3 67 229 134
3 185 86 134
3 134 229 185
3 249 83 94
3 112 90 98
3 150 45 134
3 175 23 100
3 11 183 50
3 47 24 104
3 47 21 249
3 104 21 47
3 186 232 24
3 186 133 9
3 24 133 186
3 31 40 155
3 215 26 88
3 136 113 215
3 251 113 136
3 7 128 91
3 212 167 11
3 225 232 233
3 104 232 225
3 225 140 104
3 44 183 11
3 11 167 44
3 44 167 111
3 121 34 110
3 34 244 110
3 111 167 110
3 110 244 111
3 218 177 146
3 121 110 240
3 233 124 130
3 56 16 192
3 192 145 56
3 56 231 16
3 56 145 27
3 27 231 56
3 129 32 22
3 22 214 152
3 152 25 22
3 22 25 129
3 107 41 221
3 221 41 164
3 164 70 221
3 70 99 221
3 20 69 120
3 120 42 20
3 120 69 36
3 20 42 153
3 153 126 29
3 101 69 20
3 36 69 101
3 101 163 36
3 101 234 163
3 62 145 169
3 145 148 169
3 169 38 62
3 148 38 169
3 192 87 243
3 243 148 192
3 97 148 243
3 89 174 81
3 89 41 174
3 222 163 246
3 255 210 107
3 107 221 255
3 65 38 78
3 204 38 65
3 65 108 204
3 122 73 200
3 73 105 200
3 200 164 122
3 200 70 164
3 200 105 70
3 80 98 226
3 226 98 90
3 9 133 226
3 226 133 80
3 178 141 229
3 229 67 178
3 49 127 194
3 49 231 127
3 194 152 49
3 152 214 49
3 49 214 16
3 16 231 49
3 254 77 102
3 102 77 245
3 86 185 199
3 146 90 199
3 199 90 86
3 85 150 134
3 85 86 112
3 134 86 85
3 23 175 61
3 73 23 61
3 61 33 73
3 48 33 61
3 11 50 147
3 147 50 21
3 147 140 11
3 147 21 104
3 104 140 147
3 202 183 207
3 202 50 183
3 202 33 48
3 48 21 202
3 21 50 202
3 207 105 202
3 202 105 33
3 158 133 24
3 158 47 249
3 24 47 158
3 249 94 158
3 26 124 208
3 208 88 26
3 232 186 157
3 9 161 157
3 157 186 9
3 57 157 161
3 233 232 57
3 232 157 57
3 3 31 188
3 188 31 155
3 166 88 40
3 3 203 166
3 215 88 166
3 166 31 3
3 40 31 166
3 166 136 215
3 203 136 166
3 216 136 203
3 216 203 7
3 106 170 63
3 92 170 242
3 180 212 156
3 140 225 156
3 2 110 167
3 2 212 180
3 167 212 2
3 180 240 2
3 2 240 110
3 230 240 171
3 121 240 230
3 93 30 1
3 129 25 72
3 58 82 224
3 114 32 192
3 114 22 32
3 192 16 114
3 16 214 114
3 214 22 114
3 237 206 149
3 123 206 237
3 123 237 19
3 19 18 115
3 95 18 19
3 8 120 36
3 149 206 8
3 8 222 149
3 36 163 8
3 163 222 8
3 42 120 131
3 242 170 247
3 247 42 242
3 247 153 42
3 142 101 20
3 108 101 142
3 20 153 142
3 142 153 29
3 118 108 142
3 142 66 118
3 29 66 142
3 234 101 109
3 109 101 108
3 108 65 109
3 78 234 109
3 109 65 78
3 81 97 190
3 97 243 190
3 190 89 81
3 41 89 190
3 122 41 190
3 190 87 122
3 190 243 87
3 119 222 246
3 210 222 119
3 246 97 119
3 97 210 119
3 149 222 217
3 217 222 210
3 210 255 217
3 217 237 149
3 10 18 95
3 183 18 10
3 60 177 144
3 144 161 60
3 60 90 177
3 60 226 90
3 60 161 9
3 9 226 60
3 189 178 67
3 189 45 194
3 189 67 45
3 194 127 189
3 127 178 189
3 176 84 191
3 176 191 46
3 253 27 176
3 27 84 176
3 46 241 176
3 241 75 176
3 209 139 254
3 209 241 139
3 209 75 241
3 141 14 143
3 143 209 254
3 14 209 143
3 253 176 250
3 250 176 75
3 250 213 253
3 75 209 250
3 250 209 14
3 141 178 52
3 52 14 141
3 52 250 14
3 52 178 127
3 127 213 52
3 213 250 52
3 254 139 55
3 55 77 254
3 139 132 55
3 138 77 55
3 55 132 138
3 146 199 12
3 12 218 146
3 205 218 12
3 193 199 185
3 80 133 172
3 172 17 80
3 133 158 172
3 94 17 172
3 172 158 94
3 197 98 80
3 80 17 197
3 224 150 197
3 197 17 224
3 239 61 175
3 175 58 239
3 239 83 48
3 48 61 239
3 239 94 83
3 125 161 144
3 144 208 125
3 125 57 161
3 125 208 124
3 125 124 233
3 233 57 125
3 252 208 144
3 88 208 252
3 144 177 252
3 177 218 252
3 40 88 252
3 205 40 252
3 252 218 205
3 251 136 162
3 136 216 162
3 106 63 159
3 159 63 91
3 1 196 159
3 196 106 159
3 159 128 1
3 159 91 128
3 170 92 13
3 59 63 13
3 13 63 170
3 13 74 59
3 180 156 103
3 103 240 180
3 171 240 103
3 140 156 39
3 39 156 212
3 11 140 39
3 39 212 11
3 135 113 251
3 121 230 135
3 171 130 35
3 35 230 171
3 35 124 26
3 35 130 124
3 35 135 230
3 26 113 35
3 113 135 35
3 139 241 211
3 211 132 139
3 211 241 46
3 46 79 211
3 211 79 184
3 184 30 96
3 96 211 184
3 132 211 96
3 138 132 96
3 30 93 96
3 96 93 138
3 181 72 25
3 82 72 181
3 100 129 6
3 129 72 6
3 6 175 100
3 53 17 94
3 94 239 53
3 53 239 58
3 224 17 53
3 53 58 224
3 183 44 71
3 71 18 183
3 115 18 71
3 111 115 71
3 71 44 111
3 173 198 123
3 123 19 173
3 173 19 115
3 173 115 220
3 220 198 173
3 242 42 5
3 42 131 5
3 5 92 242
3 123 198 28
3 28 5 131
3 28 198 37
3 37 5 28
3 179 131 120
3 179 28 131
3 179 206 123
3 123 28 179
3 182 170 106
3 182 247 170
3 182 106 196
3 196 126 182
3 126 153 182
3 153 247 182
3 237 217 195
3 95 19 195
3 195 19 237
3 195 217 255
3 195 10 95
3 255 10 195
3 187 255 221
3 187 10 255
3 187 221 99
3 187 99 207
3 207 183 187
3 183 10 187
3 229 141 76
3 141 193 76
3 76 185 229
3 76 193 185
3 4 12 199
3 155 205 4
3 205 12 4
3 150 85 238
3 238 197 150
3 238 85 112
3 112 98 238
3 98 197 238
3 59 74 160
3 7 91 160
3 160 216 7
3 160 162 216
3 160 63 59
3 91 63 160
3 137 5 37
3 92 5 137
3 248 156 225
3 248 103 156
3 248 225 233
3 171 103 248
3 233 130 248
3 248 130 171
3 227 188 245
3 3 188 227
3 1 151 219
3 219 93 1
3 219 236 93
3 82 181 154
3 224 82 154
3 45 150 154
3 154 150 224
3 175 6 165
3 165 6 72
3 165 58 175
3 165 72 82
3 82 58 165
3 120 8 201
3 201 179 120
3 201 8 206
3 206 179 201
3 155 4 116
3 116 188 155
3 116 102 245
3 245 188 116
3 199 193 235
3 235 4 199
3 254 102 235
3 102 116 235
3 235 116 4
3 235 193 141
3 235 143 254
3 141 143 235
3 68 160 74
3 162 160 68
3 251 162 68
3 68 74 121
3 121 135 68
3 68 135 251
3 223 34 121
3 121 74 223
3 223 37 34
3 223 137 37
3 228 227 245
3 236 227 228
3 245 77 228
3 228 77 138
3 138 93 228
3 93 236 228
3 43 227 236
3 236 219 43
3 3 227 43
3 43 219 151
3 43 203 3
3 43 151 7
3 7 203 43
3 45 154 15
3 15 154 181
3 194 45 15
3 15 25 194
3 15 181 25
3 137 223 54
3 54 13 92
3 92 137 54
3 74 13 54
3 54 223 74