ply
format ascii 1.0
comment https://github.com/mikedh/trimesh
element vertex 256
property float x
property float y
property float z
element face 508
property list uchar int vertex_indices
end_header
2.38438725 -2.29462147 -0.92833167
3.63193488 1.09878910 0.92836314
-2.06560063 2.94447064 0.36118817
1.83397055 0.50325423 1.61287606
0.23427884 -1.26987588 1.64950132
2.20419335 2.83116674 -0.47407439
-2.61446762 -2.52936673 -0.61328423
2.20113945 1.67596972 1.29232538
1.80124021 1.87528360 -1.30952227
-3.43886662 -0.05570169 1.18415570
-1.71104217 2.17602563 -1.19308877
-3.48112869 2.21275830 0.01745232
-0.36615551 -1.17693794 1.66476858
2.00417233 2.98919654 0.31002268
1.96545660 -2.86515856 0.56638581
-1.78382194 -3.10580230 0.15394248
-0.09612700 -2.94395304 -0.87825990
-3.99849558 -1.47557259 0.41703239
-1.86286306 2.70864749 -0.78762722
-0.84252965 2.88765478 -0.87049115
3.36970472 1.59027123 -0.87795722
-4.43612719 0.89786828 0.00005535
-1.10024583 -2.97528481 -0.73553568
-3.34140158 -1.54834616 -0.91433609
-4.11844683 0.07667231 0.79399413
-1.53261387 -3.12502480 -0.33879349
-0.78676128 1.90452003 1.44107330
2.07627058 -2.81942248 -0.57062382
1.16400433 2.95005822 -0.74848199
4.29045057 0.84103715 -0.46685880
4.51064730 0.39513361 0.28137267
0.97228098 0.18050241 1.73918188
-1.75087976 -2.38168979 -1.06884384
-4.03360701 -0.32212588 -0.83991176
-0.09480968 3.35407352 0.23533672
-0.90905130 2.28350163 1.26698232
2.39197516 1.40268290 -1.33086169
0.68705320 3.32360268 -0.20391437
1.98082221 -1.06191194 -1.50811589
-3.37034917 2.22046900 0.32325453
0.43068478 0.51395655 1.75341535
-1.77536130 -0.24779752 -1.63914859
3.07399297 2.12600112 -0.71023667
2.58301568 0.50892609 1.45000744
-2.37903762 2.86904097 -0.21170948
-1.60612595 -3.08989978 0.37630352
4.05330753 -1.56265044 -0.18196611
-4.38217592 0.69528836 0.40205657
-4.40541792 -0.19929160 -0.50288469
0.04865398 -3.23572326 -0.52055073
-3.68595624 1.79271317 -0.49627930
4.28571320 -0.64310980 -0.55366772
1.49556029 -3.09230351 0.43389884
-3.98914504 -1.67632067 0.09938445
1.47756183 3.17158914 0.24391311
3.39350438 -1.50979424 0.90403610
0.36395094 -2.71775031 -1.05262482
-2.78090167 1.24504507 1.25917113
-3.59759736 -2.09690070 -0.12945345
2.28075886 2.69411421 0.61772865
-2.79048038 -0.15687609 1.41488683
-3.86617827 -1.35756230 -0.65038627
2.08628321 -1.98333013 -1.19651175
2.91945148 2.32049060 0.63537568
2.95502138 -1.93297589 -0.91066366
3.01466894 -0.67446232 -1.29897654
4.50203943 0.33147791 -0.32536638
-0.84930021 -3.07788420 0.66407651
1.12095082 2.81031942 0.89399117
3.02562428 1.55712342 -1.06278968
-3.06515884 0.42496160 -1.31040168
-2.14989114 2.85290575 -0.47679159
-2.62911940 -2.67974305 -0.38383639
-3.32854342 -1.07393217 -1.09268236
1.24374914 3.00887799 0.65874285
3.12961531 -2.45198417 0.19557309
0.07175544 -2.60098648 1.13945389
2.86938405 -1.40544951 1.18085098
2.60889935 -0.45975092 -1.44761658
4.24100685 -1.18847239 -0.29216376
-3.28837848 -1.02950108 1.12236464
-0.50877959 -0.28430110 -1.76491237
-3.19217253 -2.43064833 -0.08862019
-4.44851017 -0.70331532 -0.26282907
2.93069220 -2.24506259 -0.69913346
-2.22348857 -2.24210453 1.01955569
-1.63374567 -1.98549247 1.29715478
-1.77585781 -1.90119994 -1.30458343
-0.03927575 0.96408385 1.70826042
-1.19164288 -0.28174454 -1.71476722
-1.78472078 -1.46483314 1.44993675
3.13297486 1.87510765 0.85306978
2.10490537 3.00905728 0.02833996
3.87644458 0.03809693 0.95999187
-4.43934965 -0.83200920 0.16171396
-1.20325518 2.48221564 -1.11827445
4.42400074 -0.26628512 0.46873471
0.19662933 -0.56519186 -1.75530601
-2.92840886 -1.43457973 1.14793694
-2.80659318 1.04338694 -1.30135584
-2.76085949 -2.04798651 -0.93176800
2.91490936 1.00780845 -1.27248669
1.54050589 -1.47224951 1.48939824
-2.47170353 2.48104954 0.74316937
-4.10266066 1.14263105 0.53685260
-3.51586294 -0.15370841 -1.14631736
3.85091949 1.72617173 0.35341927
-1.01583779 0.81515080 -1.68422496
3.89227629 -0.12469137 -0.94811261
2.96467829 -0.06315202 -1.36271858
-1.14836705 3.26772594 0.13576426
-1.05188811 3.27677965 -0.17639136
-2.50098348 -1.73909974 1.18314576
-0.14680418 2.05077505 1.41682160
-0.91740555 -2.75973368 -0.96873373
-0.99909604 3.20295477 -0.42488286
0.88103712 -1.17423904 1.63627315
4.56603384 0.41036141 0.01208724
4.30601549 0.06307426 -0.62624043
0.91996121 0.60417461 -1.71676719
2.50463676 1.97408330 -1.07383716
-0.02420007 3.19861484 0.58239615
-2.55490732 -0.81829417 -1.41846907
0.75733715 2.84067726 -0.92291498
-1.76542103 1.58996439 1.41704798
-2.15622258 1.13900840 1.45552838
4.36500311 0.98910010 -0.21947952
0.71144688 -3.33768654 -0.09794832
3.25356460 1.50265777 0.98055953
-2.05026317 -2.73512864 -0.68618762
-1.91009295 2.10056639 1.18552375
2.05969548 2.71656322 -0.70137095
4.07540846 -0.79013240 0.71479917
-3.96018457 -0.35244286 0.88899040
-1.59656549 -2.55828953 0.98886746
-0.31736165 2.44207644 1.22747624
0.41379651 1.86822033 1.47747815
1.55433214 3.18482876 0.00306756
3.93524003 -0.50384551 0.88453478
3.31756735 -1.98493648 0.65793157
-3.85824847 1.67665279 0.40424639
0.90415949 -2.72329164 0.99828404
4.14332438 0.64293951 -0.69651449
1.56559396 -2.52099466 1.02282357
-1.87254179 0.24889314 1.62244213
0.84393626 -2.49572420 -1.15828609
-1.32001793 -1.16666460 1.59273684
-4.03709888 1.62190628 0.02372655
0.86805218 -1.62640297 -1.52643752
0.68370003 1.92991579 -1.43957829
-2.54947138 -2.38801217 0.78677249
2.99135423 1.20754838 1.19548988
-0.79626775 -3.22633624 -0.43940726
3.83258247 1.57701552 -0.53063619
-2.54954338 -2.76825762 0.27389264
0.53524017 -0.36177552 1.75984311
-2.97857785 2.27084494 0.64454615
-3.27078009 0.71230066 1.19579387
-4.27644348 -0.38013265 0.62649560
3.62288237 1.78553927 0.56966299
1.84332681 2.67103028 0.82924372
-2.83696723 0.53384572 1.37459528
1.10235155 2.25615788 1.25782502
1.93681765 0.98395091 -1.53124893
-2.57174230 0.09984881 -1.47700214
-3.13606644 -2.39813733 -0.32503843
0.81444991 1.14884877 1.64657533
-2.34565210 2.90823317 0.06555378
-2.64087057 -1.51370049 -1.22232842
1.55770946 -1.57384276 -1.45780420
3.05247164 2.53114820 -0.05236305
-1.94701135 2.39768648 1.00600004
-4.23026037 -0.89269060 0.51944065
-0.17877705 3.11534572 -0.69183856
-0.75588262 0.44051298 -1.74257123
-3.68831396 -1.81560886 -0.46966615
2.95884800 -2.59072924 -0.03692917
-1.80838132 -0.20801373 1.63506293
0.16895956 -3.20620155 0.56850010
1.63446689 2.60532475 -0.94522834
-2.46158481 2.67436099 0.53182083
-2.09330225 -3.00086617 -0.14567392
4.07516241 1.56865489 0.05102560
-3.22229648 2.11521077 -0.61379671
4.56237459 -0.43201250 -0.04100424
-1.03464425 -2.48501134 1.14116085
-3.79714370 0.09332046 1.00491786
-2.25953197 1.62951398 -1.29376185
1.60166287 -0.21814139 1.66667855
-0.22483250 -3.30301213 0.37790915
-0.72445840 -0.72120196 -1.71830702
3.63921666 -1.83373404 -0.50649738
-0.70344985 -2.42951894 -1.21035850
0.06588510 -2.27623487 1.31850886
-0.52408963 -3.36226892 -0.01563780
-0.54328388 2.41702294 -1.22966504
4.34137821 0.96961224 0.29815689
-3.09009838 -2.03544116 0.77049136
0.50918102 3.12148547 -0.65973991
-0.72857219 -1.63731539 1.53389287
-3.11469841 -0.08027094 -1.31130421
1.54157794 2.33697581 -1.14193475
-3.72792268 1.23558557 -0.81800568
1.58049643 1.37918377 1.50778461
3.17340803 -1.35531819 -1.07459736
-0.32525960 -0.71063077 1.73768747
0.96359378 2.37082958 -1.21557987
-3.24784279 1.04903316 -1.13490558
-1.66754782 0.90300423 1.59128869
2.80981517 -2.42127562 0.60375589
0.20173617 0.78860658 -1.73138630
4.34028196 -1.10023928 0.11753586
-2.79902697 2.62229037 0.30795234
1.32881141 -3.22398186 -0.16774675
-0.46565107 -3.10338950 -0.68771207
0.03555726 1.54812503 1.58446264
1.56848168 1.88548589 1.34931588
0.15397812 1.67956281 -1.54580200
-1.15931869 -0.55686516 1.69968545
3.31904864 0.69325709 1.17939866
0.03630048 3.35742188 -0.22435249
-2.35076976 0.77823341 -1.47651482
1.20670891 1.04411745 -1.62933111
0.85261983 3.27405643 0.31024954
-3.44773626 -2.15930557 0.31648728
-3.34806728 1.67846692 0.84376395
-3.10416675 -0.50063825 1.28869665
2.49682450 -0.08429343 1.49612105
3.35611963 -0.19552481 1.21433127
-0.27952844 -2.82222724 0.97766829
-0.88262516 2.61248112 1.07962251
0.66711241 -3.22862029 -0.46727929
-3.35554695 1.15805113 1.05568576
-2.42591071 1.76988065 1.19341743
2.53015208 0.25465950 -1.48244953
0.43977150 -1.98411751 1.43352962
3.30827332 0.24227715 1.23226511
0.23239765 2.43507266 -1.23436272
-2.72041368 -2.02515078 0.96378839
-4.15119505 -1.25238705 -0.39536270
-1.37446594 2.96909952 0.66888928
3.53993034 -2.10215449 0.26372212
2.80932975 2.60242152 -0.33686104
-0.33986014 -1.18299723 -1.66445649
-0.45425418 3.36720419 0.00578231
2.34728789 -0.88199031 1.46062219
1.36874962 0.28449404 -1.69475603
3.55440450 2.08495283 -0.27174112
-2.65982556 2.12033510 0.93127388
-4.57622051 -0.05841124 0.18092273
2.11098051 -2.98393393 0.19716945
0.47434193 2.33121371 1.27847993
-1.15098250 0.45077795 1.70905733
2.22424436 -2.94975829 -0.14370611
1.83052397 -2.18187499 1.16304398
-0.80343860 1.27482915 -1.62107432
3 249 48 83
3 64 0 62
3 220 34 37
3 64 62 204
3 204 191 64
3 51 191 204
3 213 27 253
3 21 48 249
3 104 24 232
3 40 205 155
3 7 151 128
3 128 151 1
3 115 111 220
3 220 111 244
3 244 34 220
3 113 26 215
3 117 184 66
3 66 51 118
3 184 51 66
3 117 196 30
3 30 184 117
3 30 196 1
3 64 191 84
3 84 0 64
3 84 27 0
3 46 191 79
3 79 191 51
3 79 51 184
3 168 87 100
3 100 23 168
3 168 23 73
3 168 73 122
3 122 87 168
3 25 152 194
3 32 87 192
3 100 87 32
3 32 129 100
3 145 62 0
3 0 27 145
3 220 37 198
3 99 70 207
3 78 246 234
3 246 163 234
3 118 51 108
3 51 204 108
3 126 196 117
3 117 66 126
3 126 66 29
3 148 145 192
3 107 174 41
3 122 164 41
3 81 174 210
3 210 174 107
3 210 97 81
3 38 204 62
3 38 148 97
3 38 246 78
3 38 97 246
3 73 33 105
3 207 70 105
3 112 86 90
3 146 177 90
3 231 213 127
3 27 213 231
3 134 45 67
3 67 229 134
3 185 86 134
3 134 229 185
3 249 83 94
3 112 90 98
3 150 45 134
3 175 23 100
3 11 183 50
3 47 24 104
3 47 21 249
3 104 21 47
3 186 232 24
3 186 133 9
3 24 133 186
3 31 40 155
3 215 26 88
3 136 113 215
3 251 113 136
3 7 128 91
3 212 167 11
3 225 232 233
3 104 232 225
3 225 140 104
3 44 183 11
3 11 167 44
3 44 167 111
3 121 34 110
3 34 244 110
3 111 167 110
3 110 244 111
3 218 177 146
3 121 110 240
3 233 124 130
3 56 16 192
3 192 145 56
3 56 231 16
3 56 145 27
3 27 231 56
3 129 32 22
3 22 214 152
3 152 25 22
3 22 25 129
3 107 41 221
3 221 41 164
3 164 70 221
3 70 99 221
3 20 69 120
3 120 42 20
3 120 69 36
3 20 42 153
3 153 126 29
3 101 69 20
3 36 69 101
3 101 163 36
3 101 234 163
3 62 145 169
3 145 148 169
3 169 38 62
3 148 38 169
3 192 87 243
3 243 148 192
3 97 148 243
3 89 174 81
3 89 41 174
3 222 163 246
3 255 210 107
3 107 221 255
3 65 38 78
3 204 38 65
3 65 108 204
3 122 73 200
3 73 105 200
3 200 164 122
3 200 70 164
3 200 105 70
3 80 98 226
3 226 98 90
3 9 133 226
3 226 133 80
3 178 141 229
3 229 67 178
3 49 127 194
3 49 231 127
3 194 152 49
3 152 214 49
3 49 214 16
3 16 231 49
3 254 77 102
3 102 77 245
3 86 185 199
3 146 90 199
3 199 90 86
3 85 150 134
3 85 86 112
3 134 86 85
3 23 175 61
3 73 23 61
3 61 33 73
3 48 33 61
3 11 50 147
3 147 50 21
3 147 140 11
3 147 21 104
3 104 140 147
3 202 183 207
3 202 50 183
3 202 33 48
3 48 21 202
3 21 50 202
3 207 105 202
3 202 105 33
3 158 133 24
3 158 47 249
3 24 47 158
3 249 94 158
3 26 124 208
3 208 88 26
3 232 186 157
3 9 161 157
3 157 186 9
3 57 157 161
3 233 232 57
3 232 157 57
3 3 31 188
3 188 31 155
3 166 88 40
3 3 203 166
3 215 88 166
3 166 31 3
3 40 31 166
3 166 136 215
3 203 136 166
3 216 136 203
3 216 203 7
3 106 170 63
3 92 170 242
3 180 212 156
3 140 225 156
3 2 110 167
3 2 212 180
3 167 212 2
3 180 240 2
3 2 240 110
3 230 240 171
3 121 240 230
3 93 30 1
3 129 25 72
3 58 82 224
3 114 32 192
3 114 22 32
3 192 16 114
3 16 214 114
3 214 22 114
3 237 206 149
3 123 206 237
3 123 237 19
3 19 18 115
3 95 18 19
3 8 120 36
3 149 206 8
3 8 222 149
3 36 163 8
3 163 222 8
3 42 120 131
3 242 170 247
3 247 42 242
3 247 153 42
3 142 101 20
3 108 101 142
3 20 153 142
3 142 153 29
3 118 108 142
3 142 66 118
3 29 66 142
3 234 101 109
3 109 101 108
3 108 65 109
3 78 234 109
3 109 65 78
3 81 97 190
3 97 243 190
3 190 89 81
3 41 89 190
3 122 41 190
3 190 87 122
3 190 243 87
3 119 222 246
3 210 222 119
3 246 97 119
3 97 210 119
3 149 222 217
3 217 222 210
3 210 255 217
3 217 237 149
3 10 18 95
3 183 18 10
3 60 177 144
3 144 161 60
3 60 90 177
3 60 226 90
3 60 161 9
3 9 226 60
3 189 178 67
3 189 45 194
3 189 67 45
3 194 127 189
3 127 178 189
3 176 84 191
3 176 191 46
3 253 27 176
3 27 84 176
3 46 241 176
3 241 75 176
3 209 139 254
3 209 241 139
3 209 75 241
3 141 14 143
3 143 209 254
3 14 209 143
3 253 176 250
3 250 176 75
3 250 213 253
3 75 209 250
3 250 209 14
3 141 178 52
3 52 14 141
3 52 250 14
3 52 178 127
3 127 213 52
3 213 250 52
3 254 139 55
3 55 77 254
3 139 132 55
3 138 77 55
3 55 132 138
3 146 199 12
3 12 218 146
3 205 218 12
3 193 199 185
3 80 133 172
3 172 17 80
3 133 158 172
3 94 17 172
3 172 158 94
3 197 98 80
3 80 17 197
3 224 150 197
3 197 17 224
3 239 61 175
3 175 58 239
3 239 83 48
3 48 61 239
3 239 94 83
3 125 161 144
3 144 208 125
3 125 57 161
3 125 208 124
3 125 124 233
3 233 57 125
3 252 208 144
3 88 208 252
3 144 177 252
3 177 218 252
3 40 88 252
3 205 40 252
3 252 218 205
3 251 136 162
3 136 216 162
3 106 63 159
3 159 63 91
3 1 196 159
3 196 106 159
3 159 128 1
3 159 91 128
3 170 92 13
3 59 63 13
3 13 63 170
3 13 74 59
3 180 156 103
3 103 240 180
3 171 240 103
3 140 156 39
3 39 156 212
3 11 140 39
3 39 212 11
3 135 113 251
3 121 230 135
3 171 130 35
3 35 230 171
3 35 124 26
3 35 130 124
3 35 135 230
3 26 113 35
3 113 135 35
3 139 241 211
3 211 132 139
3 211 241 46
3 46 79 211
3 211 79 184
3 184 30 96
3 96 211 184
3 132 211 96
3 138 132 96
3 30 93 96
3 96 93 138
3 181 72 25
3 82 72 181
3 100 129 6
3 129 72 6
3 6 175 100
3 53 17 94
3 94 239 53
3 53 239 58
3 224 17 53
3 53 58 224
3 183 44 71
3 71 18 183
3 115 18 71
3 111 115 71
3 71 44 111
3 173 198 123
3 123 19 173
3 173 19 115
3 173 115 220
3 220 198 173
3 242 42 5
3 42 131 5
3 5 92 242
3 123 198 28
3 28 5 131
3 28 198 37
3 37 5 28
3 179 131 120
3 179 28 131
3 179 206 123
3 123 28 179
3 182 170 106
3 182 247 170
3 182 106 196
3 196 126 182
3 126 153 182
3 153 247 182
3 237 217 195
3 95 19 195
3 195 19 237
3 195 217 255
3 195 10 95
3 255 10 195
3 187 255 221
3 187 10 255
3 187 221 99
3 187 99 207
3 207 183 187
3 183 10 187
3 229 141 76
3 141 193 76
3 76 185 229
3 76 193 185
3 4 12 199
3 155 205 4
3 205 12 4
3 150 85 238
3 238 197 150
3 238 85 112
3 112 98 238
3 98 197 238
3 59 74 160
3 7 91 160
3 160 216 7
3 160 162 216
3 160 63 59
3 91 63 160
3 137 5 37
3 92 5 137
3 248 156 225
3 248 103 156
3 248 225 233
3 171 103 248
3 233 130 248
3 248 130 171
3 227 188 245
3 3 188 227
3 1 151 219
3 219 93 1
3 219 236 93
3 82 181 154
3 224 82 154
3 45 150 154
3 154 150 224
3 175 6 165
3 165 6 72
3 165 58 175
3 165 72 82
3 82 58 165
3 120 8 201
3 201 179 120
3 201 8 206
3 206 179 201
3 155 4 116
3 116 188 155
3 116 102 245
3 245 188 116
3 199 193 235
3 235 4 199
3 254 102 235
3 102 116 235
3 235 116 4
3 235 193 141
3 235 143 254
3 141 143 235
3 68 160 74
3 162 160 68
3 251 162 68
3 68 74 121
3 121 135 68
3 68 135 251
3 223 34 121
3 121 74 223
3 223 37 34
3 223 137 37
3 228 227 245
3 236 227 228
3 245 77 228
3 228 77 138
3 138 93 228
3 93 236 228
3 43 227 236
3 236 219 43
3 3 227 43
3 43 219 151
3 43 203 3
3 43 151 7
3 7 203 43
3 45 154 15
3 15 154 181
3 194 45 15
3 15 25 194
3 15 181 25
3 137 223 54
3 54 13 92
3 92 137 54
3 74 13 54
3 54 223 74