ply
format ascii 1.0
comment https://github.com/mikedh/trimesh
element vertex 256
property float x
property float y
property float z
element face 508
property list uchar int vertex_indices
end_header
2.15383077 -2.73575783 -0.98802561
3.28074765 1.31002903 0.98805910
-1.86586893 3.51053929 0.38441342
1.65663612 0.60000384 1.71658790
0.21162543 -1.51400697 1.75556827
1.99106050 3.37545276 -0.50455850
-2.36166358 -3.01563215 -0.65271986
1.98830187 1.99817145 1.37542498
1.62707055 2.23580313 -1.39372766
-3.10634804 -0.06641023 1.26029980
-1.54559422 2.59436226 -1.26980722
-3.14452338 2.63815665 0.01857455
-0.33075038 -1.40320182 1.77181709
1.81038034 3.56386328 0.32995790
1.77540827 -3.41597939 0.60280579
-1.61133659 -3.70288634 0.16384135
-0.08683208 -3.50992203 -0.93473411
-3.61186409 -1.75924838 0.44384858
-1.68273497 3.22937965 -0.83827353
-0.76106191 3.44280052 -0.92646581
3.04387379 1.89599764 -0.93441194
-4.00717878 1.07048166 0.00005891
-0.99385840 -3.54727721 -0.78283238
-3.01830721 -1.84601247 -0.97313011
-3.72021651 0.09141241 0.84504986
-1.38441885 -3.72580433 -0.36057872
-0.71068603 2.27066016 1.53373778
1.87550712 -3.36145067 -0.60731626
1.05145180 3.51720095 -0.79661119
3.87558842 1.00272489 -0.49687895
4.07449341 0.47109726 0.29946560
0.87826699 0.21520363 1.85101545
-1.58157980 -2.83956480 -1.13757312
-3.64358044 -0.38405395 -0.89392012
-0.08564213 3.99888730 0.25046942
-0.82115126 2.72250009 1.34845233
2.16068506 1.67234576 -1.41643918
0.62061912 3.96255851 -0.21702656
1.78928804 -1.26606238 -1.60509133
-3.04445577 2.64734983 0.34404057
0.38904002 0.61276364 1.86616421
-1.60369396 -0.29543608 -1.74454987
2.77675557 2.53472066 -0.75590658
2.33325291 0.60676610 1.54324639
-2.14899850 3.42060804 -0.22532292
-1.45082283 -3.68392682 0.40050074
3.66137624 -1.86306679 -0.19366696
-3.95844483 0.82895613 0.42790976
-3.97943926 -0.23760502 -0.53522140
0.04394942 -3.85778451 -0.55402339
-3.32954526 2.13735867 -0.52819121
3.87130904 -0.76674640 -0.58926988
1.35094821 -3.68679261 0.46179956
-3.60341763 -1.99858999 0.10577511
1.33469009 3.78132081 0.25959730
3.06537199 -1.80004919 0.96216774
0.32875896 -3.24023223 -1.12031114
-2.51200438 1.48440242 1.34013879
-3.24973035 -2.50002551 -0.13777761
2.06022263 3.21205211 0.65745008
-2.52065682 -0.18703520 1.50586736
-3.49234104 -1.61855090 -0.69220763
1.88455164 -2.36462140 -1.27345026
2.63715744 2.76660013 0.67623180
2.66928792 -2.30458665 -0.96922153
2.72316790 -0.80412638 -1.38250387
4.06671810 0.39520386 -0.34628820
-0.76717776 -3.66960120 0.70677823
1.01256132 3.35059762 0.95147693
2.73306370 1.85647714 -1.13112962
-2.76877546 0.50665963 -1.39466357
-1.94200897 3.40137100 -0.50745040
-2.37489867 -3.19491839 -0.40851799
-3.00669241 -1.28039348 -1.16294444
1.12348568 3.58732867 0.70110160
2.82699943 -2.92337322 0.20814891
0.06481710 -3.10102105 1.21272349
2.59193110 -1.67564428 1.25678253
2.35663366 -0.54813707 -1.54070175
3.83092594 -1.41695368 -0.31095058
-2.97041106 -1.22742057 1.19453537
-0.45958352 -0.33895740 -1.87840044
-2.88350797 -2.89793539 -0.09431867
-4.01836491 -0.83852631 -0.27972960
2.64731097 -2.67667127 -0.74408942
-2.00849009 -2.67314458 1.08511555
-1.47577178 -2.36719942 1.38056493
-1.60414255 -2.26670194 -1.38847125
-0.03547801 1.14942706 1.81810558
-1.07641780 -0.33590934 -1.82503080
-1.61214852 -1.74644434 1.54317105
2.83003426 2.23559332 0.90792418
1.90137303 3.58754230 0.03016228
3.50161457 0.04542099 1.02172160
-4.01009035 -0.99196130 0.17211255
-1.08690739 2.95941663 -1.19018209
3.99622536 -0.31747791 0.49887547
0.17761640 -0.67384887 -1.86817634
-2.64524865 -1.71037483 1.22175205
-2.53521180 1.24397600 -1.38503611
-2.49390030 -2.44170785 -0.99168289
2.63305449 1.20155752 -1.35431051
1.39154780 -1.75528657 1.58517003
-2.23270392 2.95802617 0.79095691
-3.70595670 1.36229956 0.57137352
-3.17589927 -0.18325853 -1.22002828
3.47855759 2.05802464 0.37614498
-0.91761214 0.97186184 -1.79252458
3.51591539 -0.14866303 -1.00907850
2.67801094 -0.07529286 -1.45034456
-1.03732657 3.89593959 0.14449422
-0.95017660 3.90673375 -0.18773375
-2.25915265 -2.07343817 1.25922489
-0.13260905 2.44503236 1.50792658
-0.82869768 -3.29028702 -1.03102553
-0.90248919 3.81871629 -0.45220384
0.79584587 -1.39998412 1.74148941
4.12452459 0.48925257 0.01286447
3.88964820 0.07520016 -0.66650921
0.83100629 0.72032595 -1.82715940
2.26245284 2.35359693 -1.14288747
-0.02186006 3.81354189 0.61984557
-2.30786252 -0.97560954 -1.50967991
0.68410701 3.38679171 -0.98226058
-1.59471500 1.89563179 1.50816751
-1.94772828 1.35798037 1.54912233
3.94293213 1.17925262 -0.23359257
0.64265406 -3.97935009 -0.10424663
2.93896365 1.79154074 1.04361176
-1.85201442 -3.26095152 -0.73031110
-1.72539794 2.50439620 1.26175570
1.86053479 3.23881721 -0.74647081
3.68133998 -0.94203371 0.76076245
-3.57725739 -0.42019930 0.94615459
-1.44218671 -3.05011535 1.05245399
-0.28667459 2.91156077 1.30640578
0.37378478 2.22738194 1.57248354
1.40403724 3.79710579 0.00326481
3.55472493 -0.60070878 0.94141251
2.99677777 -2.36653662 0.70023811
-3.48517799 1.99898589 0.43024039
0.81673241 -3.24683905 1.06247604
3.74268889 0.76654333 -0.74130201
1.41420996 -3.00565076 1.08859348
-1.69147778 0.29674235 1.72676897
0.76233244 -2.97552204 -1.23276663
-1.19237971 -1.39095354 1.69515359
-3.64673448 1.93371451 0.02525222
0.78411651 -1.93907559 -1.62459099
0.61759019 2.30093813 -1.53214669
-2.30295205 -2.84710264 0.83736384
2.70210743 1.43969703 1.27236271
-0.71927327 -3.84659290 -0.46766219
3.46199369 1.88019347 -0.56475735
-2.30301714 -3.30044961 0.29150459
0.48348552 -0.43132612 1.87300515
-2.69056654 2.70741034 0.68599200
-2.95451427 0.84923899 1.27268624
-3.86293578 -0.45321238 0.66678077
3.27257037 2.12880564 0.60629368
1.66508770 3.18453050 0.88256603
-2.56264877 0.63647646 1.46298504
0.99576050 2.68989968 1.33870614
1.74953854 1.17311347 -1.62971187
-2.32306957 0.11904454 -1.57197678
-2.83282685 -2.85917449 -0.34593919
0.73569727 1.36971259 1.75245404
-2.11884093 3.46733522 0.06976904
-2.38551354 -1.80470634 -1.30092704
1.40708792 -1.87641084 -1.55154443
2.75731516 3.01775646 -0.05573012
-1.75874650 2.85863686 1.07068825
-3.82121849 -1.06430852 0.55284190
-0.16149035 3.71426463 -0.73632544
-0.68279314 0.52520072 -1.85462272
-3.33167505 -2.16465592 -0.49986681
2.67274427 -3.08879161 -0.03930380
-1.63352120 -0.24800394 1.74020135
0.15262215 -3.82258725 0.60505605
1.47642338 3.10619330 -1.00600874
-2.22356367 3.18850160 0.56601822
-1.89089191 -3.57777667 -0.15504110
3.68111753 1.87022567 0.05430666
-2.91071892 2.52185583 -0.65326536
4.12121916 -0.51506603 -0.04364091
-0.93460011 -2.96274948 1.21454012
-3.42998171 0.11126113 1.06953657
-2.04104829 1.94278467 -1.37695384
1.44679117 -0.26007864 1.77384996
-0.20309250 -3.93800950 0.40220961
-0.65440744 -0.85985154 -1.82879829
3.28732514 -2.18626571 -0.53906631
-0.63543028 -2.89658904 -1.28818738
0.05951440 -2.71383643 1.40329218
-0.47341320 -4.00865841 -0.01664335
-0.49075145 2.88169050 -1.30873537
3.92159176 1.15601826 0.31732911
-2.79130363 -2.42675066 0.82003582
0.45994616 3.72158480 -0.70216274
-0.65812349 -1.95208597 1.63252592
-2.81352496 -0.09570286 -1.39562416
1.39251626 2.78625464 -1.21536386
-3.36745405 1.47312438 -0.87060535
1.42767155 1.64432907 1.60473871
2.86655760 -1.61587548 -1.14369655
-0.29380888 -0.84724808 1.84942496
0.87041980 2.82661676 -1.29374456
-2.93379521 1.25070763 -1.20788276
-1.50630558 1.07660496 1.69361234
2.53812218 -2.88676095 0.64257884
0.18222943 0.94021457 -1.84271848
3.92060137 -1.31175804 0.12509370
-2.52837706 3.12642026 0.32775441
1.20032299 -3.84378576 -0.17853327
-0.42062530 -3.70000982 -0.73193359
0.03211907 1.84574890 1.68634737
1.41681850 2.24796677 1.43608022
0.13908933 2.00245523 -1.64520073
-1.04721928 -0.66392136 1.80897927
2.99811578 0.82653439 1.25523674
0.03279043 4.00287962 -0.23877889
-2.12346387 0.92784721 -1.57145834
1.09002709 1.24484694 -1.73410106
0.77017635 3.90348721 0.33019930
-3.11435986 -2.57442784 0.33683816
-3.02432823 2.00114894 0.89801997
-2.80401158 -0.59688491 1.37156296
2.25539589 -0.10049868 1.59232521
3.03160214 -0.23311406 1.29241562
-0.25249967 -3.36479473 1.04053473
-0.79728037 3.11472535 1.14904475
0.60260648 -3.84931612 -0.49732643
-3.03108478 1.38068414 1.12356889
-2.19133902 2.11013651 1.27015710
2.28550100 0.30361727 -1.57777464
0.39724812 -2.36556005 1.52570891
2.98838234 0.28885442 1.31150270
0.20992613 2.90321040 -1.31373513
-2.45736527 -2.41448188 1.02576232
-3.74979830 -1.49315596 -0.42078546
-1.24156296 3.53990269 0.71190041
3.19763947 -2.50628948 0.28068006
2.53768373 3.10273170 -0.35852200
-0.30699763 -1.41042602 -1.77148497
-0.41033041 4.01454258 0.00615412
2.12031865 -1.05155122 1.55454373
1.23639941 0.33918744 -1.80373287
3.21071410 2.48578072 -0.28921473
-2.40263557 2.52796507 0.99115705
-4.13372660 -0.06964069 0.19255650
1.90686083 -3.55758905 0.20984793
0.42847577 2.77938485 1.36068928
-1.03968906 0.53743911 1.81895375
2.00917268 -3.51684332 -0.15294676
1.65352273 -2.60133600 1.23783052
-0.72575068 1.51991248 -1.72531331
3 249 48 83
3 64 0 62
3 220 34 37
3 64 62 204
3 204 191 64
3 51 191 204
3 213 27 253
3 21 48 249
3 104 24 232
3 40 205 155
3 7 151 128
3 128 151 1
3 115 111 220
3 220 111 244
3 244 34 220
3 113 26 215
3 117 184 66
3 66 51 118
3 184 51 66
3 117 196 30
3 30 184 117
3 30 196 1
3 64 191 84
3 84 0 64
3 84 27 0
3 46 191 79
3 79 191 51
3 79 51 184
3 168 87 100
3 100 23 168
3 168 23 73
3 168 73 122
3 122 87 168
3 25 152 194
3 32 87 192
3 100 87 32
3 32 129 100
3 145 62 0
3 0 27 145
3 220 37 198
3 99 70 207
3 78 246 234
3 246 163 234
3 118 51 108
3 51 204 108
3 126 196 117
3 117 66 126
3 126 66 29
3 148 145 192
3 107 174 41
3 122 164 41
3 81 174 210
3 210 174 107
3 210 97 81
3 38 204 62
3 38 148 97
3 38 246 78
3 38 97 246
3 73 33 105
3 207 70 105
3 112 86 90
3 146 177 90
3 231 213 127
3 27 213 231
3 134 45 67
3 67 229 134
3 185 86 134
3 134 229 185
3 249 83 94
3 112 90 98
3 150 45 134
3 175 23 100
3 11 183 50
3 47 24 104
3 47 21 249
3 104 21 47
3 186 232 24
3 186 133 9
3 24 133 186
3 31 40 155
3 215 26 88
3 136 113 215
3 251 113 136
3 7 128 91
3 212 167 11
3 225 232 233
3 104 232 225
3 225 140 104
3 44 183 11
3 11 167 44
3 44 167 111
3 121 34 110
3 34 244 110
3 111 167 110
3 110 244 111
3 218 177 146
3 121 110 240
3 233 124 130
3 56 16 192
3 192 145 56
3 56 231 16
3 56 145 27
3 27 231 56
3 129 32 22
3 22 214 152
3 152 25 22
3 22 25 129
3 107 41 221
3 221 41 164
3 164 70 221
3 70 99 221
3 20 69 120
3 120 42 20
3 120 69 36
3 20 42 153
3 153 126 29
3 101 69 20
3 36 69 101
3 101 163 36
3 101 234 163
3 62 145 169
3 145 148 169
3 169 38 62
3 148 38 169
3 192 87 243
3 243 148 192
3 97 148 243
3 89 174 81
3 89 41 174
3 222 163 246
3 255 210 107
3 107 221 255
3 65 38 78
3 204 38 65
3 65 108 204
3 122 73 200
3 73 105 200
3 200 164 122
3 200 70 164
3 200 105 70
3 80 98 226
3 226 98 90
3 9 133 226
3 226 133 80
3 178 141 229
3 229 67 178
3 49 127 194
3 49 231 127
3 194 152 49
3 152 214 49
3 49 214 16
3 16 231 49
3 254 77 102
3 102 77 245
3 86 185 199
3 146 90 199
3 199 90 86
3 85 150 134
3 85 86 112
3 134 86 85
3 23 175 61
3 73 23 61
3 61 33 73
3 48 33 61
3 11 50 147
3 147 50 21
3 147 140 11
3 147 21 104
3 104 140 147
3 202 183 207
3 202 50 183
3 202 33 48
3 48 21 202
3 21 50 202
3 207 105 202
3 202 105 33
3 158 133 24
3 158 47 249
3 24 47 158
3 249 94 158
3 26 124 208
3 208 88 26
3 232 186 157
3 9 161 157
3 157 186 9
3 57 157 161
3 233 232 57
3 232 157 57
3 3 31 188
3 188 31 155
3 166 88 40
3 3 203 166
3 215 88 166
3 166 31 3
3 40 31 166
3 166 136 215
3 203 136 166
3 216 136 203
3 216 203 7
3 106 170 63
3 92 170 242
3 180 212 156
3 140 225 156
3 2 110 167
3 2 212 180
3 167 212 2
3 180 240 2
3 2 240 110
3 230 240 171
3 121 240 230
3 93 30 1
3 129 25 72
3 58 82 224
3 114 32 192
3 114 22 32
3 192 16 114
3 16 214 114
3 214 22 114
3 237 206 149
3 123 206 237
3 123 237 19
3 19 18 115
3 95 18 19
3 8 120 36
3 149 206 8
3 8 222 149
3 36 163 8
3 163 222 8
3 42 120 131
3 242 170 247
3 247 42 242
3 247 153 42
3 142 101 20
3 108 101 142
3 20 153 142
3 142 153 29
3 118 108 142
3 142 66 118
3 29 66 142
3 234 101 109
3 109 101 108
3 108 65 109
3 78 234 109
3 109 65 78
3 81 97 190
3 97 243 190
3 190 89 81
3 41 89 190
3 122 41 190
3 190 87 122
3 190 243 87
3 119 222 246
3 210 222 119
3 246 97 119
3 97 210 119
3 149 222 217
3 217 222 210
3 210 255 217
3 217 237 149
3 10 18 95
3 183 18 10
3 60 177 144
3 144 161 60
3 60 90 177
3 60 226 90
3 60 161 9
3 9 226 60
3 189 178 67
3 189 45 194
3 189 67 45
3 194 127 189
3 127 178 189
3 176 84 191
3 176 191 46
3 253 27 176
3 27 84 176
3 46 241 176
3 241 75 176
3 209 139 254
3 209 241 139
3 209 75 241
3 141 14 143
3 143 209 254
3 14 209 143
3 253 176 250
3 250 176 75
3 250 213 253
3 75 209 250
3 250 209 14
3 141 178 52
3 52 14 141
3 52 250 14
3 52 178 127
3 127 213 52
3 213 250 52
3 254 139 55
3 55 77 254
3 139 132 55
3 138 77 55
3 55 132 138
3 146 199 12
3 12 218 146
3 205 218 12
3 193 199 185
3 80 133 172
3 172 17 80
3 133 158 172
3 94 17 172
3 172 158 94
3 197 98 80
3 80 17 197
3 224 150 197
3 197 17 224
3 239 61 175
3 175 58 239
3 239 83 48
3 48 61 239
3 239 94 83
3 125 161 144
3 144 208 125
3 125 57 161
3 125 208 124
3 125 124 233
3 233 57 125
3 252 208 144
3 88 208 252
3 144 177 252
3 177 218 252
3 40 88 252
3 205 40 252
3 252 218 205
3 251 136 162
3 136 216 162
3 106 63 159
3 159 63 91
3 1 196 159
3 196 106 159
3 159 128 1
3 159 91 128
3 170 92 13
3 59 63 13
3 13 63 170
3 13 74 59
3 180 156 103
3 103 240 180
3 171 240 103
3 140 156 39
3 39 156 212
3 11 140 39
3 39 212 11
3 135 113 251
3 121 230 135
3 171 130 35
3 35 230 171
3 35 124 26
3 35 130 124
3 35 135 230
3 26 113 35
3 113 135 35
3 139 241 211
3 211 132 139
3 211 241 46
3 46 79 211
3 211 79 184
3 184 30 96
3 96 211 184
3 132 211 96
3 138 132 96
3 30 93 96
3 96 93 138
3 181 72 25
3 82 72 181
3 100 129 6
3 129 72 6
3 6 175 100
3 53 17 94
3 94 239 53
3 53 239 58
3 224 17 53
3 53 58 224
3 183 44 71
3 71 18 183
3 115 18 71
3 111 115 71
3 71 44 111
3 173 198 123
3 123 19 173
3 173 19 115
3 173 115 220
3 220 198 173
3 242 42 5
3 42 131 5
3 5 92 242
3 123 198 28
3 28 5 131
3 28 198 37
3 37 5 28
3 179 131 120
3 179 28 131
3 179 206 123
3 123 28 179
3 182 170 106
3 182 247 170
3 182 106 196
3 196 126 182
3 126 153 182
3 153 247 182
3 237 217 195
3 95 19 195
3 195 19 237
3 195 217 255
3 195 10 95
3 255 10 195
3 187 255 221
3 187 10 255
3 187 221 99
3 187 99 207
3 207 183 187
3 183 10 187
3 229 141 76
3 141 193 76
3 76 185 229
3 76 193 185
3 4 12 199
3 155 205 4
3 205 12 4
3 150 85 238
3 238 197 150
3 238 85 112
3 112 98 238
3 98 197 238
3 59 74 160
3 7 91 160
3 160 216 7
3 160 162 216
3 160 63 59
3 91 63 160
3 137 5 37
3 92 5 137
3 248 156 225
3 248 103 156
3 248 225 233
3 171 103 248
3 233 130 248
3 248 130 171
3 227 188 245
3 3 188 227
3 1 151 219
3 219 93 1
3 219 236 93
3 82 181 154
3 224 82 154
3 45 150 154
3 154 150 224
3 175 6 165
3 165 6 72
3 165 58 175
3 165 72 82
3 82 58 165
3 120 8 201
3 201 179 120
3 201 8 206
3 206 179 201
3 155 4 116
3 116 188 155
3 116 102 245
3 245 188 116
3 199 193 235
3 235 4 199
3 254 102 235
3 102 116 235
3 235 116 4
3 235 193 141
3 235 143 254
3 141 143 235
3 68 160 74
3 162 160 68
3 251 162 68
3 68 74 121
3 121 135 68
3 68 135 251
3 223 34 121
3 121 74 223
3 223 37 34
3 223 137 37
3 228 227 245
3 236 227 228
3 245 77 228
3 228 77 138
3 138 93 228
3 93 236 228
3 43 227 236
3 236 219 43
3 3 227 43
3 43 219 151
3 43 203 3
3 43 151 7
3 7 203 43
3 45 154 15
3 15 154 181
3 194 45 15
3 15 25 194
3 15 181 25
3 137 223 54
3 54 13 92
3 92 137 54
3 74 13 54
3 54 223 74