ply
format ascii 1.0
comment https://github.com/mikedh/trimesh
element vertex 256
property float x
property float y
property float z
element face 508
property list uchar int vertex_indices
end_header
1.78445220 -1.14421141 -1.95535254
2.71810460 0.54791039 1.95541883
-1.54587543 1.46825826 0.76077354
1.37252569 0.25094739 3.39721394
0.17533199 -0.63322270 3.47435808
1.64959669 1.41175926 -0.99854672
-1.95664191 -1.26126695 -1.29176557
1.64731121 0.83572114 2.72203565
1.34803057 0.93510884 -2.75825739
-2.57361412 -0.02777561 2.49419689
-1.28052723 1.08507371 -2.51301265
-2.60524273 1.10339034 0.03675997
-0.27402720 -0.58687925 3.50651550
1.49990296 1.49056077 0.65300333
1.47092855 -1.42870927 1.19298303
-1.33499491 -1.54870605 0.32425031
-0.07194051 -1.46800017 -1.84988594
-2.99243522 -0.73579323 0.87839872
-1.39414859 1.35066521 -1.65898561
-0.63054097 1.43992710 -1.83352256
2.52185416 0.79298764 -1.84924841
-3.31995416 0.44772139 0.00011659
-0.82341325 -1.48362362 -1.54926479
-2.50067234 -0.77208173 -1.92587352
-3.08220530 0.03823259 1.67239630
-1.14699316 -1.55829144 -0.71360344
-0.58880448 0.94968760 3.03534436
1.55386055 -1.40590298 -1.20190954
0.87112951 1.47104442 -1.57653368
3.21093130 0.41938260 -0.98334849
3.37572432 0.19703309 0.59265751
0.72764558 0.09000740 3.66325283
-1.31034136 -1.18762791 -2.25131464
-3.01871204 -0.16062784 -1.76911294
-0.07095464 1.67250645 0.49569163
-0.68032515 1.13866639 2.66865516
1.79013097 0.69944680 -2.80320477
0.51418394 1.65731215 -0.42950651
1.48242807 -0.52952164 -3.17655683
-2.52233648 1.10723531 0.68087363
0.32232028 0.25628409 3.69323301
-1.32866299 -0.12356406 -3.45255208
2.30054641 1.06012905 -1.49597728
1.93310368 0.25377566 3.05416250
-1.78044856 1.43064523 -0.44592541
-1.20200896 -1.54077637 0.79261118
3.03345585 -0.77921456 -0.38327670
-3.27957773 0.34670505 0.84685504
-3.29697156 -0.09937662 -1.05923009
0.03641216 -1.61349106 -1.09644020
-2.75853372 0.89393514 -1.04531705
3.20738578 -0.32068625 -1.16619480
1.11926270 -1.54197502 0.91392463
-2.98543739 -0.83589613 0.20933427
1.10579276 1.58151066 0.51375616
2.53966570 -0.75285786 1.90417850
0.27237731 -1.35520434 -2.21715212
-2.08119965 0.62084085 2.65220237
-2.69240665 -1.04561806 -0.27266884
1.70689774 1.34341812 1.30112684
-2.08836818 -0.07822616 2.98018765
-2.89340997 -0.67694747 -1.36991382
1.56135392 -0.98898619 -2.52022243
2.18488908 1.15711105 1.33829689
2.21150923 -0.96387708 -1.91813827
2.25614882 -0.33632019 -2.73604488
3.36928248 0.16529122 -0.68532181
-0.63560796 -1.53478479 1.39874983
0.83890861 1.40136385 1.88302076
2.26434755 0.77645850 -2.23856258
-2.29393482 0.21190681 -2.76010966
-1.60895753 1.42259943 -1.00426996
-1.96760726 -1.33625209 -0.80847770
-2.49104929 -0.53551555 -2.30152559
0.93080974 1.50037491 1.38751543
2.34217358 -1.22268021 0.41193721
0.05370107 -1.29698014 2.40004086
2.14741898 -0.70082641 2.48723602
1.95247483 -0.22925447 -3.04912639
3.17392826 -0.59263092 -0.61538684
-2.46099019 -0.51335996 2.36404586
-0.38076568 -0.14176653 -3.71744919
-2.38899088 -1.21204102 -0.18666141
-3.32922149 -0.35070771 -0.55359900
2.19330144 -1.11949885 -1.47259045
-1.66403723 -1.11802387 2.14749837
-1.22267926 -0.99006444 2.73220754
-1.32903469 -0.94803202 -2.74785471
-0.02939359 0.48073974 3.59812284
-0.89181387 -0.14049171 -3.61182809
-1.33566761 -0.73043805 3.05401349
2.34468794 0.93502110 1.79682779
1.57529056 1.50046432 0.05969268
2.90109324 0.01899701 2.02203870
-3.32236600 -0.41488081 0.34061942
-0.90050447 1.23775506 -2.35543036
3.31087923 -0.13278289 0.98729968
0.14715548 -0.28183255 -3.69721532
-2.19159269 -0.71535218 2.41790891
-2.10042691 0.52028418 -2.74105620
-2.06620026 -1.02122700 -1.96259046
2.18148971 0.50254297 -2.68024898
1.15289950 -0.73413622 3.13713145
-1.84979880 1.23717356 1.56534362
-3.07039118 0.56977218 1.13077700
-2.63123751 -0.07664659 -2.41449761
2.88199067 0.86075431 0.74440986
-0.76024312 0.40647435 -3.54749656
2.91294146 -0.06217726 -1.99701738
2.21873641 -0.03149071 -2.87030506
-0.85942668 1.62944925 0.28596136
-0.78722280 1.63396382 -0.37153456
-1.87171161 -0.86720085 2.49206948
-0.10986681 1.02261758 2.98426294
-0.68657738 -1.37613928 -2.04045177
-0.74771374 1.59715116 -0.89493424
0.65935957 -0.58553350 3.44649553
3.41717529 0.20462643 0.02545944
3.22257972 0.03145194 -1.31905532
0.68848997 0.30127123 -3.61604071
1.87444568 0.98437530 -2.26183200
-0.01811109 1.59498703 1.22670567
-1.91206777 -0.40804181 -2.98773289
0.56678373 1.41650164 -1.94394326
-1.32122386 0.79283464 2.98473978
-1.61369598 0.56796575 3.06579113
3.26672554 0.49321407 -0.46229148
0.53243995 -1.66433513 -0.20630935
2.43493605 0.74929923 2.06536055
-1.53439689 -1.36386991 -1.44532251
-1.42949486 1.04744601 2.49707818
1.54145598 1.35461235 -1.47730339
3.04999614 -0.39399895 1.50558722
-2.96376348 -0.17574540 1.87248766
-1.19485402 -1.27568924 2.08285952
-0.23751037 1.21773970 2.58544302
0.30968127 0.93158674 3.11202431
1.16324699 1.58811259 0.00646122
2.94509530 -0.25124222 1.86310279
2.48283505 -0.98978722 1.38580656
-2.88747549 0.83606172 0.85146743
0.67666411 -1.35796750 2.10269380
3.10082364 0.32060131 -1.46707416
1.17167521 -1.25709224 2.15438151
-1.40139198 0.12411039 3.41736293
0.63159364 -1.24449110 -2.43970752
-0.98788851 -0.58175647 3.35479450
-3.02132535 0.80876243 0.04997543
0.64964175 -0.81100470 -3.21514773
0.51167440 0.96235114 -3.03219557
-1.90799952 -1.19078052 1.65718532
2.23870039 0.60214317 2.51806998
-0.59591901 -1.60881031 -0.92552710
2.86826730 0.78637767 -1.11768329
-1.90805340 -1.38038969 0.57690227
0.40056852 -0.18039910 3.70677185
-2.22913861 1.13235521 1.35761273
-2.44781971 0.35518822 2.51871037
-3.20044851 -0.18955287 1.31959271
2.71132970 0.89035791 1.19988573
1.37952781 1.33190739 1.74664271
-2.12315869 0.26620179 2.89532137
0.82498914 1.12503159 2.64936709
1.44949543 0.49064645 -3.22528195
-1.92466688 0.04978954 -3.11102152
-2.34700155 -1.19582951 -0.68463111
0.60952634 0.57287264 3.46819496
-1.75546312 1.45018852 0.13807645
-1.97640181 -0.75480568 -2.57460022
1.16577458 -0.78479558 -3.07058477
2.28444004 1.26215529 -0.11029272
-1.45712423 1.19560468 2.11894608
-3.16588545 -0.44513953 1.09410203
-0.13379501 1.55346489 -1.45722520
-0.56569517 0.21966149 -3.67039180
-2.76029801 -0.90535206 -0.98926163
2.21437287 -1.29186523 -0.07778420
-1.35337496 -0.10372590 3.44394636
0.12644769 -1.59877014 1.19743645
1.22321904 1.29914343 -1.99094212
-1.84222603 1.33356833 1.12017858
-1.56660688 -1.49637985 -0.30683416
3.04981160 0.78220868 0.10747562
-2.41153526 1.05474842 -1.29284501
3.41443658 -0.21542272 -0.08636756
-0.77431768 -1.23914909 2.40363622
-2.84174538 0.04653418 2.11666679
-1.69101167 0.81255597 -2.72506118
1.19866884 -0.10877606 3.51053858
-0.16826245 -1.64704466 0.79599309
-0.54217762 -0.35962683 -3.61928415
2.72355413 -0.91439021 -1.06683946
-0.52645499 -1.21147799 -2.54938769
0.04930777 -1.13504291 2.77718592
-0.39222360 -1.67659307 -0.03293803
-0.40658835 1.20524681 -2.59005332
3.24904490 0.48349646 0.62801027
-2.31259942 -1.01497138 1.62289226
0.38106611 1.55652654 -1.38961554
-0.54525632 -0.81644619 3.23085117
-2.33100986 -0.04002705 -2.76201081
1.15370190 1.16533136 -2.40526628
-2.78994107 0.61612391 -1.72297192
1.18282807 0.68772906 3.17585897
2.37494755 -0.67582852 -2.26343322
-0.24342111 -0.35435554 3.66010523
0.72114414 1.18221259 -2.56038594
-2.43065381 0.52309960 -2.39046073
-1.24797654 0.45028242 3.35174417
2.10283828 -1.20736742 1.27169597
0.15097737 0.39323813 -3.64683294
3.24822450 -0.54863358 0.24756673
-2.09476447 1.30760324 0.64864254
0.99446946 -1.60763621 -0.35332635
-0.34848872 -1.54750299 -1.44853354
0.02661070 0.77197146 3.33736658
1.17383635 0.94019622 2.84207511
0.11523573 0.83751279 -3.25593519
-0.86762279 -0.27768040 3.58006144
2.48394370 0.34569216 2.48417687
0.02716693 1.67417610 -0.47255546
-1.75929320 0.38806555 -3.10999537
0.90308917 0.52064848 -3.43187332
0.63809234 1.63260591 0.65348113
-2.58025217 -1.07673621 0.66661972
-2.50566077 0.83696640 1.77722692
-2.32312799 -0.24964289 2.71439219
1.86859906 -0.04203286 3.15129185
2.51168728 -0.09749831 2.55775571
-0.20919636 -1.40730166 2.05927062
-0.66054803 1.30271184 2.27401757
0.49926043 -1.60994923 -0.98423415
-2.51125860 0.57746142 2.22359943
-1.81552780 0.88254970 2.51370478
1.89354110 0.12698577 -3.12249541
0.32912070 -0.98937881 3.01945496
2.47587943 0.12081133 2.59553003
0.17392412 1.21424735 -2.59994817
-2.03593111 -1.00984001 2.03003526
-3.10671377 -0.62450194 -0.83275568
-1.02863681 1.48053932 1.40888691
2.64924932 -1.04823792 0.55548000
2.10247493 1.29769564 -0.70953315
-0.25434801 -0.58990073 -3.50585818
-0.33995938 1.67905402 0.01217932
1.75668728 -0.43980387 3.07652044
1.02435887 0.14186275 -3.56967831
2.66008162 1.03966033 -0.57237053
-1.99058747 1.05730355 1.96154976
-3.42479897 -0.02912673 0.38107902
1.57983720 -1.48793650 0.41529962
0.35499287 1.16245806 2.69287276
-0.86138403 0.22478011 3.59980130
1.66460276 -1.47089493 -0.30268934
1.36994624 -1.08799040 2.44972897
-0.60128558 0.63569266 -3.41448212
3 249 48 83
3 64 0 62
3 220 34 37
3 64 62 204
3 204 191 64
3 51 191 204
3 213 27 253
3 21 48 249
3 104 24 232
3 40 205 155
3 7 151 128
3 128 151 1
3 115 111 220
3 220 111 244
3 244 34 220
3 113 26 215
3 117 184 66
3 66 51 118
3 184 51 66
3 117 196 30
3 30 184 117
3 30 196 1
3 64 191 84
3 84 0 64
3 84 27 0
3 46 191 79
3 79 191 51
3 79 51 184
3 168 87 100
3 100 23 168
3 168 23 73
3 168 73 122
3 122 87 168
3 25 152 194
3 32 87 192
3 100 87 32
3 32 129 100
3 145 62 0
3 0 27 145
3 220 37 198
3 99 70 207
3 78 246 234
3 246 163 234
3 118 51 108
3 51 204 108
3 126 196 117
3 117 66 126
3 126 66 29
3 148 145 192
3 107 174 41
3 122 164 41
3 81 174 210
3 210 174 107
3 210 97 81
3 38 204 62
3 38 148 97
3 38 246 78
3 38 97 246
3 73 33 105
3 207 70 105
3 112 86 90
3 146 177 90
3 231 213 127
3 27 213 231
3 134 45 67
3 67 229 134
3 185 86 134
3 134 229 185
3 249 83 94
3 112 90 98
3 150 45 134
3 175 23 100
3 11 183 50
3 47 24 104
3 47 21 249
3 104 21 47
3 186 232 24
3 186 133 9
3 24 133 186
3 31 40 155
3 215 26 88
3 136 113 215
3 251 113 136
3 7 128 91
3 212 167 11
3 225 232 233
3 104 232 225
3 225 140 104
3 44 183 11
3 11 167 44
3 44 167 111
3 121 34 110
3 34 244 110
3 111 167 110
3 110 244 111
3 218 177 146
3 121 110 240
3 233 124 130
3 56 16 192
3 192 145 56
3 56 231 16
3 56 145 27
3 27 231 56
3 129 32 22
3 22 214 152
3 152 25 22
3 22 25 129
3 107 41 221
3 221 41 164
3 164 70 221
3 70 99 221
3 20 69 120
3 120 42 20
3 120 69 36
3 20 42 153
3 153 126 29
3 101 69 20
3 36 69 101
3 101 163 36
3 101 234 163
3 62 145 169
3 145 148 169
3 169 38 62
3 148 38 169
3 192 87 243
3 243 148 192
3 97 148 243
3 89 174 81
3 89 41 174
3 222 163 246
3 255 210 107
3 107 221 255
3 65 38 78
3 204 38 65
3 65 108 204
3 122 73 200
3 73 105 200
3 200 164 122
3 200 70 164
3 200 105 70
3 80 98 226
3 226 98 90
3 9 133 226
3 226 133 80
3 178 141 229
3 229 67 178
3 49 127 194
3 49 231 127
3 194 152 49
3 152 214 49
3 49 214 16
3 16 231 49
3 254 77 102
3 102 77 245
3 86 185 199
3 146 90 199
3 199 90 86
3 85 150 134
3 85 86 112
3 134 86 85
3 23 175 61
3 73 23 61
3 61 33 73
3 48 33 61
3 11 50 147
3 147 50 21
3 147 140 11
3 147 21 104
3 104 140 147
3 202 183 207
3 202 50 183
3 202 33 48
3 48 21 202
3 21 50 202
3 207 105 202
3 202 105 33
3 158 133 24
3 158 47 249
3 24 47 158
3 249 94 158
3 26 124 208
3 208 88 26
3 232 186 157
3 9 161 157
3 157 186 9
3 57 157 161
3 233 232 57
3 232 157 57
3 3 31 188
3 188 31 155
3 166 88 40
3 3 203 166
3 215 88 166
3 166 31 3
3 40 31 166
3 166 136 215
3 203 136 166
3 216 136 203
3 216 203 7
3 106 170 63
3 92 170 242
3 180 212 156
3 140 225 156
3 2 110 167
3 2 212 180
3 167 212 2
3 180 240 2
3 2 240 110
3 230 240 171
3 121 240 230
3 93 30 1
3 129 25 72
3 58 82 224
3 114 32 192
3 114 22 32
3 192 16 114
3 16 214 114
3 214 22 114
3 237 206 149
3 123 206 237
3 123 237 19
3 19 18 115
3 95 18 19
3 8 120 36
3 149 206 8
3 8 222 149
3 36 163 8
3 163 222 8
3 42 120 131
3 242 170 247
3 247 42 242
3 247 153 42
3 142 101 20
3 108 101 142
3 20 153 142
3 142 153 29
3 118 108 142
3 142 66 118
3 29 66 142
3 234 101 109
3 109 101 108
3 108 65 109
3 78 234 109
3 109 65 78
3 81 97 190
3 97 243 190
3 190 89 81
3 41 89 190
3 122 41 190
3 190 87 122
3 190 243 87
3 119 222 246
3 210 222 119
3 246 97 119
3 97 210 119
3 149 222 217
3 217 222 210
3 210 255 217
3 217 237 149
3 10 18 95
3 183 18 10
3 60 177 144
3 144 161 60
3 60 90 177
3 60 226 90
3 60 161 9
3 9 226 60
3 189 178 67
3 189 45 194
3 189 67 45
3 194 127 189
3 127 178 189
3 176 84 191
3 176 191 46
3 253 27 176
3 27 84 176
3 46 241 176
3 241 75 176
3 209 139 254
3 209 241 139
3 209 75 241
3 141 14 143
3 143 209 254
3 14 209 143
3 253 176 250
3 250 176 75
3 250 213 253
3 75 209 250
3 250 209 14
3 141 178 52
3 52 14 141
3 52 250 14
3 52 178 127
3 127 213 52
3 213 250 52
3 254 139 55
3 55 77 254
3 139 132 55
3 138 77 55
3 55 132 138
3 146 199 12
3 12 218 146
3 205 218 12
3 193 199 185
3 80 133 172
3 172 17 80
3 133 158 172
3 94 17 172
3 172 158 94
3 197 98 80
3 80 17 197
3 224 150 197
3 197 17 224
3 239 61 175
3 175 58 239
3 239 83 48
3 48 61 239
3 239 94 83
3 125 161 144
3 144 208 125
3 125 57 161
3 125 208 124
3 125 124 233
3 233 57 125
3 252 208 144
3 88 208 252
3 144 177 252
3 177 218 252
3 40 88 252
3 205 40 252
3 252 218 205
3 251 136 162
3 136 216 162
3 106 63 159
3 159 63 91
3 1 196 159
3 196 106 159
3 159 128 1
3 159 91 128
3 170 92 13
3 59 63 13
3 13 63 170
3 13 74 59
3 180 156 103
3 103 240 180
3 171 240 103
3 140 156 39
3 39 156 212
3 11 140 39
3 39 212 11
3 135 113 251
3 121 230 135
3 171 130 35
3 35 230 171
3 35 124 26
3 35 130 124
3 35 135 230
3 26 113 35
3 113 135 35
3 139 241 211
3 211 132 139
3 211 241 46
3 46 79 211
3 211 79 184
3 184 30 96
3 96 211 184
3 132 211 96
3 138 132 96
3 30 93 96
3 96 93 138
3 181 72 25
3 82 72 181
3 100 129 6
3 129 72 6
3 6 175 100
3 53 17 94
3 94 239 53
3 53 239 58
3 224 17 53
3 53 58 224
3 183 44 71
3 71 18 183
3 115 18 71
3 111 115 71
3 71 44 111
3 173 198 123
3 123 19 173
3 173 19 115
3 173 115 220
3 220 198 173
3 242 42 5
3 42 131 5
3 5 92 242
3 123 198 28
3 28 5 131
3 28 198 37
3 37 5 28
3 179 131 120
3 179 28 131
3 179 206 123
3 123 28 179
3 182 170 106
3 182 247 170
3 182 106 196
3 196 126 182
3 126 153 182
3 153 247 182
3 237 217 195
3 95 19 195
3 195 19 237
3 195 217 255
3 195 10 95
3 255 10 195
3 187 255 221
3 187 10 255
3 187 221 99
3 187 99 207
3 207 183 187
3 183 10 187
3 229 141 76
3 141 193 76
3 76 185 229
3 76 193 185
3 4 12 199
3 155 205 4
3 205 12 4
3 150 85 238
3 238 197 150
3 238 85 112
3 112 98 238
3 98 197 238
3 59 74 160
3 7 91 160
3 160 216 7
3 160 162 216
3 160 63 59
3 91 63 160
3 137 5 37
3 92 5 137
3 248 156 225
3 248 103 156
3 248 225 233
3 171 103 248
3 233 130 248
3 248 130 171
3 227 188 245
3 3 188 227
3 1 151 219
3 219 93 1
3 219 236 93
3 82 181 154
3 224 82 154
3 45 150 154
3 154 150 224
3 175 6 165
3 165 6 72
3 165 58 175
3 165 72 82
3 82 58 165
3 120 8 201
3 201 179 120
3 201 8 206
3 206 179 201
3 155 4 116
3 116 188 155
3 116 102 245
3 245 188 116
3 199 193 235
3 235 4 199
3 254 102 235
3 102 116 235
3 235 116 4
3 235 193 141
3 235 143 254
3 141 143 235
3 68 160 74
3 162 160 68
3 251 162 68
3 68 74 121
3 121 135 68
3 68 135 251
3 223 34 121
3 121 74 223
3 223 37 34
3 223 137 37
3 228 227 245
3 236 227 228
3 245 77 228
3 228 77 138
3 138 93 228
3 93 236 228
3 43 227 236
3 236 219 43
3 3 227 43
3 43 219 151
3 43 203 3
3 43 151 7
3 7 203 43
3 45 154 15
3 15 154 181
3 194 45 15
3 15 25 194
3 15 181 25
3 137 223 54
3 54 13 92
3 92 137 54
3 74 13 54
3 54 223 74