ply
format ascii 1.0
comment https://github.com/mikedh/trimesh
element vertex 256
property float x
property float y
property float z
element face 508
property list uchar int vertex_indices
end_header
2.13914418 -2.49656510 -2.12942433
3.25837684 1.19549060 2.12949657
-1.85314596 3.20360589 0.82850009
1.64533985 0.54754430 3.69964504
0.21018238 -1.38163424 3.78365684
1.97748375 3.08033013 -1.08744061
-2.34555984 -2.75196958 -1.40676272
1.97474396 1.82346725 2.96436000
1.61597586 2.04032230 -3.00380659
-3.08516645 -0.06060385 2.71623826
-1.53505504 2.36753178 -2.73672915
-3.12308168 2.40749741 0.04003246
-0.32849506 -1.28051710 3.81867695
1.79803574 3.25226760 0.71113580
1.76330209 -3.11731339 1.29918635
-1.60034919 -3.37913561 0.35311612
-0.08623999 -3.20304251 -2.01456881
-3.58723545 -1.60543382 0.95659661
-1.67126071 2.94702840 -1.80667400
-0.75587237 3.14178967 -1.99674869
3.02311802 1.73022676 -2.01387453
-3.97985482 0.97688729 0.00012697
-0.98708147 -3.23713160 -1.68718541
-2.99772596 -1.68461192 -2.09732103
-3.69484901 0.08342004 1.82127845
-1.37497878 -3.40004992 -0.77713078
-0.70583999 2.07213187 3.30556083
1.86271834 -3.06755233 -1.30890751
1.04428220 3.20968509 -1.71688187
3.84916162 0.91505462 -1.07088935
4.04671049 0.42990828 0.64541781
0.87227827 0.19638795 3.98936772
-1.57079530 -2.59129596 -2.45173407
-3.61873555 -0.35047531 -1.92660522
-0.08505815 3.64925647 0.53981972
-0.81555200 2.48446631 2.90622759
2.14595175 1.52612925 -3.05275512
0.61638725 3.61610413 -0.46774259
1.77708733 -1.15536797 -3.45934439
-3.02369618 2.41588664 0.74148726
0.38638723 0.55918849 4.02201653
-1.59275877 -0.26960552 -3.75990963
2.75782132 2.31310487 -1.62915409
2.31734276 0.55371535 3.32605410
-2.13434482 3.12153745 -0.48562315
-1.44092989 -3.36183357 0.86317199
3.63641000 -1.70017505 -0.41739723
-3.93145275 0.75647885 0.92224485
-3.95230412 -0.21683073 -1.15352631
0.04364974 -3.52049065 -1.19404888
-3.30684185 1.95048511 -1.13837469
3.84491134 -0.69970822 -1.27001333
1.34173632 -3.36444902 0.99528521
-3.57884669 -1.82384920 0.22796990
1.32558906 3.45071220 0.55949241
3.04446983 -1.64266717 2.07369471
0.32651722 -2.95693231 -2.41453028
-2.49487543 1.35461819 2.88831019
-3.22757101 -2.28144336 -0.29694271
2.04617429 2.93121600 1.41695750
-2.50346899 -0.17068234 3.24549365
-3.46852732 -1.47703767 -1.49186802
1.87170124 -2.15787768 -2.74458075
2.61917520 2.52471089 1.45743644
2.65108657 -2.10309196 -2.08889723
2.70459914 -0.73381996 -2.97961640
4.03898811 0.36065039 -0.74633139
-0.76194650 -3.34876060 1.52327108
1.00565684 3.05764818 2.05065346
2.71442747 1.69416165 -2.43784666
-2.74989581 0.46236134 -3.00582361
-1.92876673 3.10398221 -1.09367335
-2.35870457 -2.91558027 -0.88045108
-2.98619032 -1.16844606 -2.50641513
1.11582494 3.27368140 1.51103663
2.80772257 -2.66777682 0.44860920
0.06437512 -2.82989240 2.61370039
2.57425737 -1.52913940 2.70865798
2.34056425 -0.50021237 -3.32056952
3.80480361 -1.29306662 -0.67017061
-2.95015645 -1.12010467 2.57450080
-0.45644969 -0.30932167 -4.04838848
-2.86384583 -2.64456320 -0.20327862
-3.99096417 -0.76521224 -0.60288215
2.62925959 -2.44264460 -1.60368526
-1.99479461 -2.43942618 2.33867574
-1.46570873 -2.16023040 2.97543764
-1.59320426 -2.06851959 -2.99247789
-0.03523609 1.04893029 3.91843939
-1.06907797 -0.30654010 -3.93336487
-1.60115564 -1.59374917 3.32589173
2.81073666 2.04013085 1.95678723
1.88840795 3.27387643 0.06500672
3.47773767 0.04144974 2.20204711
-3.98274612 -0.90523213 0.37094247
-1.07949591 2.70066881 -2.56511855
3.96897602 -0.28972018 1.07519233
0.17640527 -0.61493289 -4.02635336
-2.62721109 -1.56083333 2.63315916
-2.51792455 1.13521266 -2.98507404
-2.47689486 -2.22822428 -2.13730669
2.61510015 1.09650302 -2.91885352
1.38205910 -1.60181832 3.41640925
-2.21747971 2.69939995 1.70469570
-3.68068647 1.24319088 1.23144245
-3.15424347 -0.16723588 -2.62944412
3.45483804 1.87808752 0.81067967
-0.91135514 0.88688999 -3.86330652
3.49194121 -0.13566512 -2.17479825
2.65975022 -0.06870985 -3.12582898
-1.03025317 3.55530977 0.31141856
-0.94369751 3.56516027 -0.40460977
-2.24374795 -1.89215326 2.71392179
-0.13170482 2.23125839 3.24993181
-0.82304698 -3.00261068 -2.22209930
-0.89633530 3.48483825 -0.97460419
0.79041916 -1.27758074 3.75331378
4.09640026 0.44647622 0.02772592
3.86312556 0.06862526 -1.43648195
0.82533979 0.65734637 -3.93795252
2.24702549 2.14781713 -2.46318769
-0.02171100 3.48011637 1.33591104
-2.29212570 -0.89031005 -3.25371051
0.67944217 3.09067750 -2.11699939
-1.58384085 1.72989285 3.25045085
-1.93444717 1.23924947 3.33871794
3.91604614 1.07614815 -0.50344616
0.63827193 -3.63142753 -0.22467567
2.91892338 1.63490272 2.24922562
-1.83938599 -2.97583985 -1.57398987
-1.71363270 2.28543162 2.71937633
1.84784818 2.95564079 -1.60881782
3.65623760 -0.85966980 1.63961959
-3.55286479 -0.38346043 2.03918266
-1.43235278 -2.78343773 2.26828241
-0.28471982 2.65699720 2.81560755
0.37123600 2.03263736 3.38906693
1.39446330 3.46511698 0.00703642
3.53048587 -0.54818761 2.02896237
2.97634315 -2.15962553 1.50917554
-3.46141315 1.82421052 0.92726785
0.81116331 -2.96296120 2.28988242
3.71716809 0.69952291 -1.59767783
1.40456676 -2.74286056 2.34617162
-1.67994392 0.27079755 3.72158766
0.75713426 -2.71536613 -2.65689826
-1.18424916 -1.26933968 3.65344930
-3.62186813 1.76464593 0.05442441
0.77876979 -1.76953840 -3.50137067
0.61337894 2.09976244 -3.30213141
-2.28724885 -2.59817457 1.80471337
2.68368220 1.31382143 2.74223685
-0.71436864 -3.51027751 -1.00792050
3.43838716 1.71580446 -1.21718311
-2.28731322 -3.01188469 0.62826002
0.48018873 -0.39361441 4.03676081
-2.67221999 2.47069597 1.47847188
-2.93436813 0.77498835 2.74293423
-3.83659530 -0.41358709 1.43706715
3.25025535 1.94267988 1.30670345
1.65373385 2.90610051 1.90213466
-2.54517460 0.58082801 3.15307236
0.98897058 2.45471621 2.88522243
1.73760867 1.07054579 -3.51240706
-2.30722904 0.10863624 -3.38797474
-2.81351042 -2.60919118 -0.74557918
0.73068070 1.24995589 3.77694511
-2.10439301 3.16417909 0.15036847
-2.36924720 -1.64691722 -2.80379963
1.39749324 -1.71235240 -3.34393835
2.73851347 2.75390792 -0.12011133
-1.74675393 2.60870051 2.30758142
-3.79516220 -0.97125387 1.19150257
-0.16038917 3.38951898 -1.58695221
-0.67813730 0.47928134 -3.99714208
-3.30895710 -1.97539568 -1.07732892
2.65451932 -2.81873226 -0.08470881
-1.62238252 -0.22632046 3.75053763
0.15158144 -3.48837066 1.30403614
1.46635592 2.83461261 -2.16818237
-2.20840168 2.90972447 1.21990049
-1.87799823 -3.26496458 -0.33414954
3.65601659 1.70670807 0.11704346
-2.89087129 2.30136490 -1.40793836
4.09311724 -0.47003275 -0.09405628
-0.92822725 -2.70371056 2.61761570
-3.40659332 0.10153335 2.30509925
-2.02713060 1.77292311 -2.96765494
1.43692589 -0.23733944 3.82305813
-0.20170765 -3.59370136 0.86685503
-0.64994514 -0.78467298 -3.94148469
3.26490951 -1.99511611 -1.16181302
-0.63109744 -2.64333439 -2.77634263
0.05910858 -2.47656012 3.02442026
-0.47018510 -3.65817332 -0.03587028
-0.48740512 2.62973857 -2.82062840
3.89485121 1.05494523 0.68391782
-2.77227044 -2.21457505 1.76736736
0.45680988 3.39619899 -1.51332366
-0.65363586 -1.78141117 3.51847196
-2.79434013 -0.08733537 -3.00789404
1.38302100 2.54264688 -2.61939096
-3.34449196 1.34432626 -1.87635648
1.41793644 1.50056207 3.45858431
2.84701109 -1.47459614 -2.46493149
-0.29180545 -0.77317148 3.98593974
0.86448455 2.57948017 -2.78831983
-2.91379023 1.14135575 -2.60326743
-1.49603426 0.98247522 3.65012741
2.52081513 -2.63436556 1.38490641
0.18098684 0.85800976 -3.97148585
3.89386749 -1.19706845 0.26960593
-2.51113653 2.85307097 0.70638680
1.19213820 -3.50771570 -0.38478062
-0.41775712 -3.37651062 -1.57748663
0.03190006 1.68437135 3.63446975
1.40715754 2.05142260 3.09508586
0.13814090 1.82737660 -3.54578924
-1.04007840 -0.60587335 3.89877009
2.97767210 0.75426883 2.70532656
0.03256684 3.65289974 -0.51462388
-2.10898447 0.84672368 -3.38685727
1.08259439 1.13600755 -3.73739004
0.76492471 3.56219745 0.71165615
-3.09312367 -2.34934044 0.72596437
-3.00370598 1.82618439 1.93544137
-2.78489161 -0.54469806 2.95603633
2.24001670 -0.09171187 3.43183017
3.01093030 -0.21273243 2.78545547
-0.25077790 -3.07060385 2.24259377
-0.79184389 2.84239864 2.47645807
0.59849745 -3.51276255 -1.07185388
-3.01041651 1.25996816 2.42155147
-2.17639661 1.92564309 2.73748302
2.26991653 0.27707139 -3.40047026
0.39453936 -2.15873432 3.28825688
2.96800494 0.26359931 2.82659268
0.20849468 2.64937687 -2.83140397
-2.44060898 -2.20337892 2.21075559
-3.72422910 -1.36260629 -0.90689027
-1.23309696 3.23040199 1.53431058
3.17583537 -2.28715944 0.60493070
2.52037978 2.83145356 -0.77269810
-0.30490425 -1.28710961 -3.81796098
-0.40753245 3.66354299 0.01326356
2.10586047 -0.95961195 3.35040236
1.22796857 0.30953160 -3.88746262
3.18882084 2.26844406 -0.62332487
-2.38625240 2.30694008 2.13617325
-4.10553932 -0.06355186 0.41500393
1.89385819 -3.24654198 0.45227095
0.42555407 2.53637767 2.93260121
-1.03259969 0.49044970 3.92026734
1.99547255 -3.20935869 -0.32963574
1.64224768 -2.37389588 2.66781187
-0.72080195 1.38702345 -3.71845031
3 249 48 83
3 64 0 62
3 220 34 37
3 64 62 204
3 204 191 64
3 51 191 204
3 213 27 253
3 21 48 249
3 104 24 232
3 40 205 155
3 7 151 128
3 128 151 1
3 115 111 220
3 220 111 244
3 244 34 220
3 113 26 215
3 117 184 66
3 66 51 118
3 184 51 66
3 117 196 30
3 30 184 117
3 30 196 1
3 64 191 84
3 84 0 64
3 84 27 0
3 46 191 79
3 79 191 51
3 79 51 184
3 168 87 100
3 100 23 168
3 168 23 73
3 168 73 122
3 122 87 168
3 25 152 194
3 32 87 192
3 100 87 32
3 32 129 100
3 145 62 0
3 0 27 145
3 220 37 198
3 99 70 207
3 78 246 234
3 246 163 234
3 118 51 108
3 51 204 108
3 126 196 117
3 117 66 126
3 126 66 29
3 148 145 192
3 107 174 41
3 122 164 41
3 81 174 210
3 210 174 107
3 210 97 81
3 38 204 62
3 38 148 97
3 38 246 78
3 38 97 246
3 73 33 105
3 207 70 105
3 112 86 90
3 146 177 90
3 231 213 127
3 27 213 231
3 134 45 67
3 67 229 134
3 185 86 134
3 134 229 185
3 249 83 94
3 112 90 98
3 150 45 134
3 175 23 100
3 11 183 50
3 47 24 104
3 47 21 249
3 104 21 47
3 186 232 24
3 186 133 9
3 24 133 186
3 31 40 155
3 215 26 88
3 136 113 215
3 251 113 136
3 7 128 91
3 212 167 11
3 225 232 233
3 104 232 225
3 225 140 104
3 44 183 11
3 11 167 44
3 44 167 111
3 121 34 110
3 34 244 110
3 111 167 110
3 110 244 111
3 218 177 146
3 121 110 240
3 233 124 130
3 56 16 192
3 192 145 56
3 56 231 16
3 56 145 27
3 27 231 56
3 129 32 22
3 22 214 152
3 152 25 22
3 22 25 129
3 107 41 221
3 221 41 164
3 164 70 221
3 70 99 221
3 20 69 120
3 120 42 20
3 120 69 36
3 20 42 153
3 153 126 29
3 101 69 20
3 36 69 101
3 101 163 36
3 101 234 163
3 62 145 169
3 145 148 169
3 169 38 62
3 148 38 169
3 192 87 243
3 243 148 192
3 97 148 243
3 89 174 81
3 89 41 174
3 222 163 246
3 255 210 107
3 107 221 255
3 65 38 78
3 204 38 65
3 65 108 204
3 122 73 200
3 73 105 200
3 200 164 122
3 200 70 164
3 200 105 70
3 80 98 226
3 226 98 90
3 9 133 226
3 226 133 80
3 178 141 229
3 229 67 178
3 49 127 194
3 49 231 127
3 194 152 49
3 152 214 49
3 49 214 16
3 16 231 49
3 254 77 102
3 102 77 245
3 86 185 199
3 146 90 199
3 199 90 86
3 85 150 134
3 85 86 112
3 134 86 85
3 23 175 61
3 73 23 61
3 61 33 73
3 48 33 61
3 11 50 147
3 147 50 21
3 147 140 11
3 147 21 104
3 104 140 147
3 202 183 207
3 202 50 183
3 202 33 48
3 48 21 202
3 21 50 202
3 207 105 202
3 202 105 33
3 158 133 24
3 158 47 249
3 24 47 158
3 249 94 158
3 26 124 208
3 208 88 26
3 232 186 157
3 9 161 157
3 157 186 9
3 57 157 161
3 233 232 57
3 232 157 57
3 3 31 188
3 188 31 155
3 166 88 40
3 3 203 166
3 215 88 166
3 166 31 3
3 40 31 166
3 166 136 215
3 203 136 166
3 216 136 203
3 216 203 7
3 106 170 63
3 92 170 242
3 180 212 156
3 140 225 156
3 2 110 167
3 2 212 180
3 167 212 2
3 180 240 2
3 2 240 110
3 230 240 171
3 121 240 230
3 93 30 1
3 129 25 72
3 58 82 224
3 114 32 192
3 114 22 32
3 192 16 114
3 16 214 114
3 214 22 114
3 237 206 149
3 123 206 237
3 123 237 19
3 19 18 115
3 95 18 19
3 8 120 36
3 149 206 8
3 8 222 149
3 36 163 8
3 163 222 8
3 42 120 131
3 242 170 247
3 247 42 242
3 247 153 42
3 142 101 20
3 108 101 142
3 20 153 142
3 142 153 29
3 118 108 142
3 142 66 118
3 29 66 142
3 234 101 109
3 109 101 108
3 108 65 109
3 78 234 109
3 109 65 78
3 81 97 190
3 97 243 190
3 190 89 81
3 41 89 190
3 122 41 190
3 190 87 122
3 190 243 87
3 119 222 246
3 210 222 119
3 246 97 119
3 97 210 119
3 149 222 217
3 217 222 210
3 210 255 217
3 217 237 149
3 10 18 95
3 183 18 10
3 60 177 144
3 144 161 60
3 60 90 177
3 60 226 90
3 60 161 9
3 9 226 60
3 189 178 67
3 189 45 194
3 189 67 45
3 194 127 189
3 127 178 189
3 176 84 191
3 176 191 46
3 253 27 176
3 27 84 176
3 46 241 176
3 241 75 176
3 209 139 254
3 209 241 139
3 209 75 241
3 141 14 143
3 143 209 254
3 14 209 143
3 253 176 250
3 250 176 75
3 250 213 253
3 75 209 250
3 250 209 14
3 141 178 52
3 52 14 141
3 52 250 14
3 52 178 127
3 127 213 52
3 213 250 52
3 254 139 55
3 55 77 254
3 139 132 55
3 138 77 55
3 55 132 138
3 146 199 12
3 12 218 146
3 205 218 12
3 193 199 185
3 80 133 172
3 172 17 80
3 133 158 172
3 94 17 172
3 172 158 94
3 197 98 80
3 80 17 197
3 224 150 197
3 197 17 224
3 239 61 175
3 175 58 239
3 239 83 48
3 48 61 239
3 239 94 83
3 125 161 144
3 144 208 125
3 125 57 161
3 125 208 124
3 125 124 233
3 233 57 125
3 252 208 144
3 88 208 252
3 144 177 252
3 177 218 252
3 40 88 252
3 205 40 252
3 252 218 205
3 251 136 162
3 136 216 162
3 106 63 159
3 159 63 91
3 1 196 159
3 196 106 159
3 159 128 1
3 159 91 128
3 170 92 13
3 59 63 13
3 13 63 170
3 13 74 59
3 180 156 103
3 103 240 180
3 171 240 103
3 140 156 39
3 39 156 212
3 11 140 39
3 39 212 11
3 135 113 251
3 121 230 135
3 171 130 35
3 35 230 171
3 35 124 26
3 35 130 124
3 35 135 230
3 26 113 35
3 113 135 35
3 139 241 211
3 211 132 139
3 211 241 46
3 46 79 211
3 211 79 184
3 184 30 96
3 96 211 184
3 132 211 96
3 138 132 96
3 30 93 96
3 96 93 138
3 181 72 25
3 82 72 181
3 100 129 6
3 129 72 6
3 6 175 100
3 53 17 94
3 94 239 53
3 53 239 58
3 224 17 53
3 53 58 224
3 183 44 71
3 71 18 183
3 115 18 71
3 111 115 71
3 71 44 111
3 173 198 123
3 123 19 173
3 173 19 115
3 173 115 220
3 220 198 173
3 242 42 5
3 42 131 5
3 5 92 242
3 123 198 28
3 28 5 131
3 28 198 37
3 37 5 28
3 179 131 120
3 179 28 131
3 179 206 123
3 123 28 179
3 182 170 106
3 182 247 170
3 182 106 196
3 196 126 182
3 126 153 182
3 153 247 182
3 237 217 195
3 95 19 195
3 195 19 237
3 195 217 255
3 195 10 95
3 255 10 195
3 187 255 221
3 187 10 255
3 187 221 99
3 187 99 207
3 207 183 187
3 183 10 187
3 229 141 76
3 141 193 76
3 76 185 229
3 76 193 185
3 4 12 199
3 155 205 4
3 205 12 4
3 150 85 238
3 238 197 150
3 238 85 112
3 112 98 238
3 98 197 238
3 59 74 160
3 7 91 160
3 160 216 7
3 160 162 216
3 160 63 59
3 91 63 160
3 137 5 37
3 92 5 137
3 248 156 225
3 248 103 156
3 248 225 233
3 171 103 248
3 233 130 248
3 248 130 171
3 227 188 245
3 3 188 227
3 1 151 219
3 219 93 1
3 219 236 93
3 82 181 154
3 224 82 154
3 45 150 154
3 154 150 224
3 175 6 165
3 165 6 72
3 165 58 175
3 165 72 82
3 82 58 165
3 120 8 201
3 201 179 120
3 201 8 206
3 206 179 201
3 155 4 116
3 116 188 155
3 116 102 245
3 245 188 116
3 199 193 235
3 235 4 199
3 254 102 235
3 102 116 235
3 235 116 4
3 235 193 141
3 235 143 254
3 141 143 235
3 68 160 74
3 162 160 68
3 251 162 68
3 68 74 121
3 121 135 68
3 68 135 251
3 223 34 121
3 121 74 223
3 223 37 34
3 223 137 37
3 228 227 245
3 236 227 228
3 245 77 228
3 228 77 138
3 138 93 228
3 93 236 228
3 43 227 236
3 236 219 43
3 3 227 43
3 43 219 151
3 43 203 3
3 43 151 7
3 7 203 43
3 45 154 15
3 15 154 181
3 194 45 15
3 15 25 194
3 15 181 25
3 137 223 54
3 54 13 92
3 92 137 54
3 74 13 54
3 54 223 74