ply
format ascii 1.0
comment https://github.com/mikedh/trimesh
element vertex 256
property float x
property float y
property float z
element face 508
property list uchar int vertex_indices
end_header
1.27223885 -1.85601139 -2.17049289
1.93789351 0.88875878 2.17056656
-1.10214365 2.38164377 0.84447873
0.97855270 0.40705866 3.77099729
0.12500429 -1.02714276 3.85662913
1.17609262 2.28999758 -1.10841322
-1.39500284 -2.04588556 -1.43389380
1.17446315 1.35561299 3.02153134
0.96108872 1.51682866 -3.06173873
-1.83487797 -0.04505448 2.76862431
-0.91296172 1.76008475 -2.78951025
-1.85742772 1.78979611 0.04080454
-0.19536979 -0.95196968 3.89232469
1.06936729 2.41782022 0.72485095
1.04870975 -2.31749177 1.32424271
-0.95179486 -2.51213717 0.35992640
-0.05129054 -2.38122511 -2.05342221
-2.13347960 -1.19352114 0.97504574
-0.99396890 2.19089746 -1.84151793
-0.44954902 2.33568811 -2.03525853
1.79797530 1.28629553 -2.05271459
-2.36698675 0.72624338 0.00012942
-0.58705878 -2.40656781 -1.71972477
-1.78287351 -1.25238431 -2.13777041
-2.19748187 0.06201662 1.85640395
-0.81775761 -2.52768540 -0.79211867
-0.41979265 1.54047668 3.36931252
1.10783684 -2.28049803 -1.33415127
0.62107843 2.38616323 -1.74999404
2.28925800 0.68027538 -1.09154284
2.40674853 0.31960499 0.65786552
0.51878053 0.14599991 4.06630754
-0.93421793 -1.92643678 -2.49901867
-2.15221405 -0.26055247 -1.96376216
-0.05058765 2.71295214 0.55023080
-0.48504302 1.84701693 2.96227765
1.27628756 1.13456416 -3.11163116
0.36659136 2.68830585 -0.47676358
1.05690837 -0.85893059 -3.52606201
-1.79831910 1.79603291 0.75578773
0.22980072 0.41571528 4.09958601
-0.94728047 -0.20043175 -3.83242393
1.64019215 1.71962225 -1.66057420
1.37822104 0.41164637 3.39020109
-1.26938450 2.32063222 -0.49498898
-0.85698152 -2.49927449 0.87981933
2.16272569 -1.26395440 -0.42544726
-2.33820009 0.56238604 0.94003147
-2.35060120 -0.16119760 -1.17577338
0.02596033 -2.61722422 -1.21707761
-1.96671772 1.45004129 -1.16032958
2.28673029 -0.52018124 -1.29450703
0.79798692 -2.50121880 1.01448047
-2.12849045 -1.35589695 0.23236658
0.78838348 2.56534910 0.57028288
1.81067407 -1.22120154 2.11368847
0.19419350 -2.19826031 -2.46109748
-1.48380721 1.00705838 2.94401479
-1.91957200 -1.69608426 -0.30266961
1.21694577 2.17914200 1.44428515
-1.48891807 -0.12688969 3.30808687
-2.06287885 -1.09806824 -1.52064049
1.11317933 -1.60422242 -2.79751325
1.55773342 1.87693560 1.48554492
1.57671249 -1.56349325 -2.12918425
1.60853863 -0.54554087 -3.03708196
2.40215564 0.26811686 -0.76072532
-0.45316157 -2.48955560 1.55264914
0.59810632 2.27313519 2.09020281
1.61438406 1.25948381 -2.48486352
-1.63547850 0.34373143 -3.06379461
-1.14711857 2.30758119 -1.11476624
-1.40282071 -2.16751814 -0.89743161
-1.77601278 -0.86865324 -2.55475426
0.66362792 2.43373990 1.54017878
1.66987050 -1.98329461 0.45726117
0.03828659 -2.10381556 2.66410875
1.53101885 -1.13680196 2.76089764
1.39203191 -0.37187088 -3.38461089
2.26287651 -0.96129936 -0.68309569
-1.75458193 -0.83271497 2.62415314
-0.27146980 -0.22995777 -4.12646675
-1.70324934 -1.96603692 -0.20719910
-2.37359405 -0.56887865 -0.61450946
1.56373107 -1.81592548 -1.63461435
-1.18638813 -1.81353283 2.38378000
-0.87171853 -1.60597134 3.03282261
-0.94754541 -1.53779113 -3.05019140
-0.02095639 0.77980208 3.99401116
-0.63582551 -0.22788990 -4.00922441
-0.95227444 -1.18483460 3.39003563
1.67166317 1.51668632 1.99452627
1.12311554 2.43388486 0.06626046
2.06835675 0.03081482 2.24451637
-2.36870623 -0.67297310 0.37809655
-0.64202154 2.00774741 -2.61458993
2.36051655 -0.21538551 1.09592879
0.10491562 -0.45715711 -4.10400677
-1.56251276 -1.16036403 2.68394279
-1.49751544 0.84394664 -3.04264498
-1.47311330 -1.65651989 -2.17852736
1.55530989 0.81516880 -2.97514701
0.82196856 -1.19083333 3.48229885
-1.31882823 2.00680423 1.73757279
-2.18905878 0.92422044 1.25519240
-1.87596095 -0.12432750 -2.68015599
2.05473733 1.39621902 0.82631463
-0.54202116 0.65933710 -3.93781495
2.07680392 -0.10085697 -2.21674204
1.58186507 -0.05108069 -3.18611455
-0.61273485 2.64310980 0.31742465
-0.56125653 2.65043283 -0.41241318
-1.33445108 -1.40667593 2.76626301
-0.07833039 1.65877545 3.31261063
-0.48950058 -2.23221874 -2.26495528
-0.53308821 2.59071946 -0.99340063
0.47009546 -0.94978672 3.82570100
2.43630123 0.33192202 0.02826065
2.29756284 0.05101780 -1.46418631
0.49086422 0.48868838 -4.01390076
1.33640039 1.59674311 -2.51069307
-0.01291244 2.58720899 1.36167574
-1.36322331 -0.66187966 -3.31646228
0.40409279 2.29769015 -2.15782833
-0.94197667 1.28604734 3.31313992
-1.15049696 0.92129028 3.40310907
2.32903695 0.80003655 -0.51315576
0.37960711 -2.69969749 -0.22900882
1.73600626 1.21542919 2.29260468
-1.09396005 -2.21231675 -1.60434616
-1.01916933 1.69904935 2.77182269
1.09899282 2.19730020 -1.63984573
2.17451811 -0.63910091 1.67124164
-2.11303782 -0.28507444 2.07851076
-0.85188031 -2.06927991 2.31202912
-0.16933483 1.97528076 2.86991000
0.22078964 1.51111543 3.45442915
0.82934588 2.57605815 0.00717213
2.09972811 -0.40753692 2.06809330
1.77015626 -1.60552168 1.53828192
-2.05864787 1.35616553 0.94515139
0.48243287 -2.20274234 2.33404565
2.21075606 0.52004349 -1.62849104
0.83535486 -2.03911376 2.39142036
-0.99913317 0.20131795 3.79336309
0.45029953 -2.01867390 -2.70813966
-0.70432270 -0.94366008 3.72391033
-2.15407705 1.31188369 0.05547405
0.46316707 -1.31552076 -3.56889868
0.36480221 1.56101799 -3.36581707
-1.36032283 -1.93155062 1.83951950
1.59609854 0.97672904 2.79512405
-0.42486504 -2.60963154 -1.02735949
2.04495311 1.27557361 -1.24065804
-1.36036122 -2.23911333 0.64037675
0.28558841 -0.29262319 4.11461449
-1.58928144 1.83677959 1.50698602
-1.74519193 0.57614648 2.79583502
-2.28178430 -0.30747139 1.46478283
1.93306327 1.44423866 1.33190489
0.98354495 2.16047072 1.93881965
-1.51372218 0.43180266 3.21388316
0.58818233 1.82489991 2.94086742
1.03342891 0.79587162 -3.58014822
-1.37220597 0.08076300 -3.45331597
-1.67331278 -1.93974042 -0.75995862
0.43456650 0.92924970 3.84978795
-1.25157082 2.35233307 0.15326852
-1.40909076 -1.22436106 -2.85787416
0.83114791 -1.27300727 -3.40843010
1.62870896 2.04732680 -0.12242783
-1.03886795 1.93937576 2.35208607
-2.25714231 -0.72205538 1.21448219
-0.09539018 2.51985645 -1.61755848
-0.40331674 0.35631022 -4.07423210
-1.96797562 -1.46856046 -1.09810650
1.57875407 -2.09551883 -0.08634252
-0.96489900 -0.16825251 3.82287121
0.09015185 -2.59334540 1.32918608
0.87210339 2.10732460 -2.20999837
-1.31342924 2.16316485 1.24342775
-1.11692441 -2.42725945 -0.34059399
2.17438650 1.26881111 0.11930078
-1.71932244 1.71089447 -1.43509209
2.43434882 -0.34943455 -0.09587027
-0.55205572 -2.01000857 2.66809964
-2.02604413 0.07548252 2.34955597
-1.20561969 1.31803715 -3.02488971
0.85460013 -0.17644431 3.89679050
-0.11996401 -2.67165089 0.88357335
-0.38654968 -0.58334631 -4.01750088
1.94177878 -1.48322117 -1.18421996
-0.37534013 -1.96512353 -2.82988787
0.03515435 -1.84113920 3.08274984
-0.27963883 -2.71958113 -0.03656209
-0.28988028 1.95501602 -2.87502766
2.31643152 0.78427368 0.69710803
-1.64878559 -1.64637268 1.80145323
0.27168402 2.52482271 -1.54250991
-0.38874468 -1.32434738 3.58632994
-1.66191137 -0.06492738 -3.06590486
0.82254064 1.89026976 -2.66990924
-1.98910987 0.99940705 -1.91254437
0.84330636 1.11555684 3.52528739
1.69323707 -1.09625316 -2.51247072
-0.17354895 -0.57479578 4.06281328
0.51414526 1.91765249 -2.84209585
-1.73295331 0.84851348 -2.65347457
-0.88975441 0.73039758 3.72052455
1.49923468 -1.95845592 1.41161609
0.10764048 0.63786674 -4.04808092
2.31584644 -0.88993180 0.27480561
-1.49347830 2.12104726 0.72001034
0.70901465 -2.60772705 -0.39220157
-0.24845770 -2.51018572 -1.60791039
0.01897231 1.25220549 3.70456505
0.83689564 1.52508080 3.15477848
0.08215819 1.35851932 -3.61417413
-0.61857831 -0.45042199 3.97396255
1.77094662 0.56074303 2.75750208
0.01936887 2.71566057 -0.52454907
-1.25430155 0.62947637 -3.45217681
0.64386433 0.84453750 -3.80947018
0.45493284 2.64823008 0.72538126
-1.83961058 -1.74656069 0.73996550
-1.78643012 1.35763288 1.97276878
-1.65629196 -0.40494269 3.01304698
1.33223200 -0.06818099 3.49801731
1.79072666 -0.15815082 2.83917642
-0.14914815 -2.28276682 2.28584480
-0.47094280 2.11311293 2.52421951
0.35595155 -2.61147904 -1.09252584
-1.79042113 0.93669307 2.46825409
-1.29439449 1.43157315 2.79027891
1.35001469 0.20598207 -3.46605253
0.23464912 -1.60485923 3.35167480
1.76519716 0.19596657 2.88110685
0.12400053 1.96961570 -2.88601112
-1.45153260 -1.63804913 2.25339270
-2.21495557 -1.01299691 -0.92438078
-0.73337454 2.40156484 1.56390166
1.88880265 -1.70033383 0.61659747
1.49897563 2.10497618 -0.78760052
-0.18133937 -0.95687079 -3.89159513
-0.24237666 2.72357297 0.01351937
1.25244367 -0.71340048 3.41501880
0.73032451 0.23011383 -3.96243715
1.89652562 1.68642020 -0.63534641
-1.41920459 1.71503925 2.17737198
-2.44173670 -0.04724611 0.42300779
1.12635708 -2.41356373 0.46099356
0.25309488 1.88560903 2.98915982
-0.61413038 0.36461306 3.99587440
1.18679130 -2.38592076 -0.33599317
0.97671366 -1.76481593 2.71926379
-0.42869118 1.03114927 -3.79016519
3 249 48 83
3 64 0 62
3 220 34 37
3 64 62 204
3 204 191 64
3 51 191 204
3 213 27 253
3 21 48 249
3 104 24 232
3 40 205 155
3 7 151 128
3 128 151 1
3 115 111 220
3 220 111 244
3 244 34 220
3 113 26 215
3 117 184 66
3 66 51 118
3 184 51 66
3 117 196 30
3 30 184 117
3 30 196 1
3 64 191 84
3 84 0 64
3 84 27 0
3 46 191 79
3 79 191 51
3 79 51 184
3 168 87 100
3 100 23 168
3 168 23 73
3 168 73 122
3 122 87 168
3 25 152 194
3 32 87 192
3 100 87 32
3 32 129 100
3 145 62 0
3 0 27 145
3 220 37 198
3 99 70 207
3 78 246 234
3 246 163 234
3 118 51 108
3 51 204 108
3 126 196 117
3 117 66 126
3 126 66 29
3 148 145 192
3 107 174 41
3 122 164 41
3 81 174 210
3 210 174 107
3 210 97 81
3 38 204 62
3 38 148 97
3 38 246 78
3 38 97 246
3 73 33 105
3 207 70 105
3 112 86 90
3 146 177 90
3 231 213 127
3 27 213 231
3 134 45 67
3 67 229 134
3 185 86 134
3 134 229 185
3 249 83 94
3 112 90 98
3 150 45 134
3 175 23 100
3 11 183 50
3 47 24 104
3 47 21 249
3 104 21 47
3 186 232 24
3 186 133 9
3 24 133 186
3 31 40 155
3 215 26 88
3 136 113 215
3 251 113 136
3 7 128 91
3 212 167 11
3 225 232 233
3 104 232 225
3 225 140 104
3 44 183 11
3 11 167 44
3 44 167 111
3 121 34 110
3 34 244 110
3 111 167 110
3 110 244 111
3 218 177 146
3 121 110 240
3 233 124 130
3 56 16 192
3 192 145 56
3 56 231 16
3 56 145 27
3 27 231 56
3 129 32 22
3 22 214 152
3 152 25 22
3 22 25 129
3 107 41 221
3 221 41 164
3 164 70 221
3 70 99 221
3 20 69 120
3 120 42 20
3 120 69 36
3 20 42 153
3 153 126 29
3 101 69 20
3 36 69 101
3 101 163 36
3 101 234 163
3 62 145 169
3 145 148 169
3 169 38 62
3 148 38 169
3 192 87 243
3 243 148 192
3 97 148 243
3 89 174 81
3 89 41 174
3 222 163 246
3 255 210 107
3 107 221 255
3 65 38 78
3 204 38 65
3 65 108 204
3 122 73 200
3 73 105 200
3 200 164 122
3 200 70 164
3 200 105 70
3 80 98 226
3 226 98 90
3 9 133 226
3 226 133 80
3 178 141 229
3 229 67 178
3 49 127 194
3 49 231 127
3 194 152 49
3 152 214 49
3 49 214 16
3 16 231 49
3 254 77 102
3 102 77 245
3 86 185 199
3 146 90 199
3 199 90 86
3 85 150 134
3 85 86 112
3 134 86 85
3 23 175 61
3 73 23 61
3 61 33 73
3 48 33 61
3 11 50 147
3 147 50 21
3 147 140 11
3 147 21 104
3 104 140 147
3 202 183 207
3 202 50 183
3 202 33 48
3 48 21 202
3 21 50 202
3 207 105 202
3 202 105 33
3 158 133 24
3 158 47 249
3 24 47 158
3 249 94 158
3 26 124 208
3 208 88 26
3 232 186 157
3 9 161 157
3 157 186 9
3 57 157 161
3 233 232 57
3 232 157 57
3 3 31 188
3 188 31 155
3 166 88 40
3 3 203 166
3 215 88 166
3 166 31 3
3 40 31 166
3 166 136 215
3 203 136 166
3 216 136 203
3 216 203 7
3 106 170 63
3 92 170 242
3 180 212 156
3 140 225 156
3 2 110 167
3 2 212 180
3 167 212 2
3 180 240 2
3 2 240 110
3 230 240 171
3 121 240 230
3 93 30 1
3 129 25 72
3 58 82 224
3 114 32 192
3 114 22 32
3 192 16 114
3 16 214 114
3 214 22 114
3 237 206 149
3 123 206 237
3 123 237 19
3 19 18 115
3 95 18 19
3 8 120 36
3 149 206 8
3 8 222 149
3 36 163 8
3 163 222 8
3 42 120 131
3 242 170 247
3 247 42 242
3 247 153 42
3 142 101 20
3 108 101 142
3 20 153 142
3 142 153 29
3 118 108 142
3 142 66 118
3 29 66 142
3 234 101 109
3 109 101 108
3 108 65 109
3 78 234 109
3 109 65 78
3 81 97 190
3 97 243 190
3 190 89 81
3 41 89 190
3 122 41 190
3 190 87 122
3 190 243 87
3 119 222 246
3 210 222 119
3 246 97 119
3 97 210 119
3 149 222 217
3 217 222 210
3 210 255 217
3 217 237 149
3 10 18 95
3 183 18 10
3 60 177 144
3 144 161 60
3 60 90 177
3 60 226 90
3 60 161 9
3 9 226 60
3 189 178 67
3 189 45 194
3 189 67 45
3 194 127 189
3 127 178 189
3 176 84 191
3 176 191 46
3 253 27 176
3 27 84 176
3 46 241 176
3 241 75 176
3 209 139 254
3 209 241 139
3 209 75 241
3 141 14 143
3 143 209 254
3 14 209 143
3 253 176 250
3 250 176 75
3 250 213 253
3 75 209 250
3 250 209 14
3 141 178 52
3 52 14 141
3 52 250 14
3 52 178 127
3 127 213 52
3 213 250 52
3 254 139 55
3 55 77 254
3 139 132 55
3 138 77 55
3 55 132 138
3 146 199 12
3 12 218 146
3 205 218 12
3 193 199 185
3 80 133 172
3 172 17 80
3 133 158 172
3 94 17 172
3 172 158 94
3 197 98 80
3 80 17 197
3 224 150 197
3 197 17 224
3 239 61 175
3 175 58 239
3 239 83 48
3 48 61 239
3 239 94 83
3 125 161 144
3 144 208 125
3 125 57 161
3 125 208 124
3 125 124 233
3 233 57 125
3 252 208 144
3 88 208 252
3 144 177 252
3 177 218 252
3 40 88 252
3 205 40 252
3 252 218 205
3 251 136 162
3 136 216 162
3 106 63 159
3 159 63 91
3 1 196 159
3 196 106 159
3 159 128 1
3 159 91 128
3 170 92 13
3 59 63 13
3 13 63 170
3 13 74 59
3 180 156 103
3 103 240 180
3 171 240 103
3 140 156 39
3 39 156 212
3 11 140 39
3 39 212 11
3 135 113 251
3 121 230 135
3 171 130 35
3 35 230 171
3 35 124 26
3 35 130 124
3 35 135 230
3 26 113 35
3 113 135 35
3 139 241 211
3 211 132 139
3 211 241 46
3 46 79 211
3 211 79 184
3 184 30 96
3 96 211 184
3 132 211 96
3 138 132 96
3 30 93 96
3 96 93 138
3 181 72 25
3 82 72 181
3 100 129 6
3 129 72 6
3 6 175 100
3 53 17 94
3 94 239 53
3 53 239 58
3 224 17 53
3 53 58 224
3 183 44 71
3 71 18 183
3 115 18 71
3 111 115 71
3 71 44 111
3 173 198 123
3 123 19 173
3 173 19 115
3 173 115 220
3 220 198 173
3 242 42 5
3 42 131 5
3 5 92 242
3 123 198 28
3 28 5 131
3 28 198 37
3 37 5 28
3 179 131 120
3 179 28 131
3 179 206 123
3 123 28 179
3 182 170 106
3 182 247 170
3 182 106 196
3 196 126 182
3 126 153 182
3 153 247 182
3 237 217 195
3 95 19 195
3 195 19 237
3 195 217 255
3 195 10 95
3 255 10 195
3 187 255 221
3 187 10 255
3 187 221 99
3 187 99 207
3 207 183 187
3 183 10 187
3 229 141 76
3 141 193 76
3 76 185 229
3 76 193 185
3 4 12 199
3 155 205 4
3 205 12 4
3 150 85 238
3 238 197 150
3 238 85 112
3 112 98 238
3 98 197 238
3 59 74 160
3 7 91 160
3 160 216 7
3 160 162 216
3 160 63 59
3 91 63 160
3 137 5 37
3 92 5 137
3 248 156 225
3 248 103 156
3 248 225 233
3 171 103 248
3 233 130 248
3 248 130 171
3 227 188 245
3 3 188 227
3 1 151 219
3 219 93 1
3 219 236 93
3 82 181 154
3 224 82 154
3 45 150 154
3 154 150 224
3 175 6 165
3 165 6 72
3 165 58 175
3 165 72 82
3 82 58 165
3 120 8 201
3 201 179 120
3 201 8 206
3 206 179 201
3 155 4 116
3 116 188 155
3 116 102 245
3 245 188 116
3 199 193 235
3 235 4 199
3 254 102 235
3 102 116 235
3 235 116 4
3 235 193 141
3 235 143 254
3 141 143 235
3 68 160 74
3 162 160 68
3 251 162 68
3 68 74 121
3 121 135 68
3 68 135 251
3 223 34 121
3 121 74 223
3 223 37 34
3 223 137 37
3 228 227 245
3 236 227 228
3 245 77 228
3 228 77 138
3 138 93 228
3 93 236 228
3 43 227 236
3 236 219 43
3 3 227 43
3 43 219 151
3 43 203 3
3 43 151 7
3 7 203 43
3 45 154 15
3 15 154 181
3 194 45 15
3 15 25 194
3 15 181 25
3 137 223 54
3 54 13 92
3 92 137 54
3 74 13 54
3 54 223 74