ply
format ascii 1.0
comment https://github.com/mikedh/trimesh
element vertex 256
property float x
property float y
property float z
element face 508
property list uchar int vertex_indices
end_header
1.94293094 -1.97916698 -0.82950312
2.95950174 0.94773233 0.82953125
-1.68316591 2.53967762 0.32273671
1.49442077 0.43406904 1.44117212
0.19090338 -1.09529889 1.47389829
1.79609883 2.44195032 -0.42360526
-2.13041306 -2.18164039 -0.54799503
1.79361033 1.44556463 1.15474677
1.46775031 1.61747777 -1.17011285
-2.80217910 -0.04804407 1.05809259
-1.39425194 1.87687504 -1.06607461
-2.83661652 1.90855789 0.01559438
-0.29836380 -1.01513767 1.48754013
1.63311064 2.57825470 0.27701822
1.60156298 -2.47126889 0.50608939
-1.45355701 -2.67883015 0.13755403
-0.07832961 -2.53923130 -0.78476191
-3.25819588 -1.27271724 0.37263584
-1.51796412 2.33627439 -0.70377779
-0.68653983 2.49067259 -0.77782017
2.74582219 1.37164772 -0.78449142
-3.61480212 0.77443326 0.00004946
-0.89654130 -2.56625557 -0.65723187
-2.72275925 -1.33548617 -0.81699747
-3.35593867 0.06613173 0.70946687
-1.24885869 -2.69541001 -0.30272612
-0.64109671 1.64269495 1.28765917
1.69186032 -2.43182039 -0.50987619
0.94849521 2.54449701 -0.66879994
3.49609661 0.72541505 -0.41715783
3.67552519 0.34081236 0.25141823
0.79226846 0.15568772 1.55403161
-1.42671394 -2.05426550 -0.95505661
-3.28680658 -0.27784142 -0.75049621
-0.07725618 2.89297009 0.21028318
-0.74074537 1.96957564 1.13210154
1.94911397 1.20984817 -1.18918049
0.55984902 2.86668825 -0.18220600
1.61408377 -0.91592491 -1.34756458
-2.74634719 1.91520870 0.28884143
0.35094583 0.44330004 1.56674981
-1.44666278 -0.21373139 -1.46464777
2.50485992 1.83372784 -0.63462609
2.10478425 0.43896115 1.29564214
-1.93857181 2.47461772 -0.18917127
-1.30876040 -2.66511393 0.33624291
3.30285978 -1.34782398 -0.16259432
-3.57083988 0.59970313 0.35925433
-3.58977842 -0.17189386 -0.44934848
0.03964596 -2.79088998 -0.46513382
-3.00352144 1.54625869 -0.44344625
3.49223638 -0.55469787 -0.49472523
1.21866536 -2.66718698 0.38770673
-3.25057650 -1.44586742 0.08880416
1.20399916 2.73557281 0.21794654
2.76521540 -1.30223429 0.80779397
0.29656738 -2.34412575 -0.94056422
-2.26603270 1.07388163 1.12512195
-2.93152165 -1.80862784 -0.11567206
1.85848868 2.32373905 0.55196631
-2.27383804 -0.13530946 1.26426041
-3.15037632 -1.17093050 -0.58114725
1.70001912 -1.71067047 -1.06913316
2.37893081 2.00147963 0.56773466
2.40791512 -1.66723883 -0.81371599
2.45651937 -0.58174020 -1.16068971
3.66851139 0.28590775 -0.29072842
-0.69205683 -2.65475011 0.59338009
0.91341281 2.42396879 0.79881841
2.46544623 1.34305680 -0.94964695
-2.49766111 0.36653975 -1.17089856
-1.75185037 2.46070051 -0.42603320
-2.14235210 -2.31134367 -0.34297386
-2.71228147 -0.92629266 -0.97635728
1.01347578 2.59523058 0.58861423
2.55018401 -2.11489606 0.17475273
0.05847031 -2.24341416 1.01814961
2.33813310 -1.21223438 1.05513966
2.12587571 -0.39654636 -1.29350579
3.45580745 -1.02508628 -0.26106051
-2.67955303 -0.88796973 1.00287962
-0.41458178 -0.24521661 -1.57702279
-2.60115910 -2.09649324 -0.07918584
-3.62489247 -0.60662663 -0.23484874
2.38809037 -1.93642116 -0.62470496
-1.81182182 -1.93386972 0.91101557
-1.33126640 -1.71253562 1.15906191
-1.44706738 -1.63983130 -1.16569984
-0.03200406 0.83154583 1.52640200
-0.97101665 -0.24301152 -1.53221607
-1.45428944 -1.26345432 1.29557896
2.55292153 1.61732602 0.76225346
1.71519351 2.59538507 0.02532293
3.15874171 0.03285953 0.85779285
-3.61742830 -0.71762824 0.14449817
-0.98047906 2.14097142 -0.99922484
3.60492110 -0.22967741 0.41883403
0.16022447 -0.48749176 -1.56843925
-2.38622999 -1.23736000 1.02572954
-2.28696775 0.89994669 -1.16281569
-2.24970126 -1.76643825 -0.83257359
2.37522960 0.86925930 -1.13701987
1.25528955 -1.26985109 1.33083951
-2.01408100 2.13996553 0.66405284
-3.34307504 0.98554707 0.47970021
-2.86491990 -0.13257724 -1.02428246
3.13794255 1.48886514 0.31579486
-0.82776093 0.70308739 -1.50492525
3.17164230 -0.10754934 -0.84717822
2.41578412 -0.05447015 -1.21764588
-0.93575311 2.81849313 0.12131103
-0.85713673 2.82630205 -0.15761304
-2.03793979 -1.50001585 1.05719018
-0.11962418 1.76884341 1.26598930
-0.74755287 -2.38033748 -0.86560398
-0.81411880 2.76262641 -0.37965056
0.71791786 -1.01280975 1.46207833
3.72065759 0.35394672 0.01080045
3.50877976 0.05440309 -0.55957198
0.74963540 0.52111530 -1.53400314
2.04091692 1.70269501 -0.95951831
-0.01971955 2.75888300 0.52039522
-2.08188009 -0.70579863 -1.26746130
0.61712027 2.45015335 -0.82466304
-1.43856287 1.37138295 1.26619148
-1.75700974 0.98242247 1.30057538
3.55684614 0.85312295 -0.19611411
0.57972634 -2.87883592 -0.08752091
2.65118480 1.29607892 0.87617087
-1.67066801 -2.35911489 -0.61313725
-1.55644953 1.81178975 1.05931497
1.67835402 2.34310198 -0.62670428
3.32086873 -0.68150842 0.63870287
-3.22697783 -0.30399057 0.79435003
-1.30096996 -2.20658708 0.88359433
-0.25860387 2.10635042 1.09680116
0.33718434 1.61138546 1.32018840
1.26655602 2.74699235 0.00274099
3.20665169 -0.43457904 0.79036874
2.70333767 -1.71205604 0.58788931
-3.14391470 1.44615388 0.36121103
0.73675925 -2.34890532 0.89200842
3.37621045 0.55455095 -0.62236476
1.27573276 -2.17441916 0.91393548
-1.52585077 0.21467640 1.44971967
0.68768603 -2.15262294 -1.03497696
-1.07562375 -1.00627661 1.42317677
-3.28965187 1.39893365 0.02120066
0.70733702 -1.40281212 -1.36393559
0.55711669 1.66459930 -1.28632331
-2.07745051 -2.05971861 0.70301408
2.43752122 1.04153991 1.06822014
-0.64884311 -2.78279352 -0.39262873
3.12300062 1.36021423 -0.47414559
-2.07750916 -2.38768959 0.24473451
0.43614337 -0.31204021 1.57249331
-2.42711043 1.95865905 0.57592887
-2.66521287 0.61437666 1.06849170
-3.48468304 -0.32787365 0.55979997
2.95212531 1.54007113 0.50901765
1.50204480 2.30382872 0.74096388
-2.31171823 0.46045491 1.22825837
0.89825714 1.94599104 1.12391913
1.57822633 0.84868163 -1.36823475
-2.09559822 0.08612203 -1.31976306
-2.55544066 -2.06845188 -0.29043540
0.66365892 0.99091005 1.47128379
-1.91136730 2.50842190 0.05857504
-2.15192771 -1.30560350 -1.09220147
1.26930797 -1.35747766 -1.30260885
2.48732305 2.18317699 -0.04678857
-1.58653271 2.06806302 0.89890301
-3.44705057 -0.76996738 0.46414188
-0.14567745 2.68706155 -0.61818665
-0.61593509 0.37995318 -1.55706012
-3.00544262 -1.56600678 -0.41966632
2.41103315 -2.23456693 -0.03299775
-1.47356927 -0.17941691 1.46099699
0.13767761 -2.76542687 0.50797862
1.33185422 2.24715614 -0.84460098
-2.00583577 2.30670166 0.47520414
-1.70573854 -2.58832026 -0.13016573
3.32066798 1.35300303 0.04559350
-2.62570572 1.82442093 -0.54845303
3.71767569 -0.37262130 -0.03663900
-0.84308547 -2.14338279 1.01967478
-3.09412313 0.08049117 0.89793611
-1.84119189 1.40549541 -1.15603018
1.30512357 -0.18815227 1.48924685
-0.18320599 -2.84892821 0.33767760
-0.59032887 -0.62205422 -1.53537905
2.96543527 -1.58164024 -0.45257652
-0.57320994 -2.09551930 -1.08150578
0.05368683 -1.96330798 1.17814279
-0.42705730 -2.90003896 -0.01397303
-0.44269782 2.08474112 -1.09875703
3.53759551 0.83631414 0.26641563
-2.51798344 -1.75561762 0.68846619
0.41490892 2.69235730 -0.58950514
-0.59368104 -1.41222441 1.37059736
-2.53802896 -0.06923564 -1.17170513
1.25616312 2.01569867 -1.02036631
-3.03771806 1.06572270 -0.73092222
1.28787613 1.18957961 1.34726846
2.58586860 -1.16899502 -0.96019763
-0.26503953 -0.61293638 1.55269635
0.78518957 2.04489827 -1.08617139
-2.64652228 0.90481663 -1.01408553
-1.35881042 0.77886313 1.42188287
2.28959298 -2.08840919 0.53948110
0.16438580 0.68019235 -1.54706585
3.53670216 -0.94898319 0.10502320
-2.28080225 2.26178932 0.27516827
1.08278918 -2.78076267 -0.14988872
-0.37943828 -2.67674899 -0.61449945
0.02897402 1.33529556 1.41578352
1.27808583 1.62627745 1.20567012
0.12546991 1.44866383 -1.38123858
-0.94467711 -0.48030972 1.51873994
2.70454478 0.59795111 1.05384195
0.02957964 2.89585805 -0.20046832
-1.91553748 0.67124528 -1.31932771
0.98329324 0.90057677 -1.45587540
0.69476187 2.82395339 0.27722090
-2.80940652 -1.86245370 0.28279459
-2.72819066 1.44771862 0.75393832
-2.52944708 -0.43181264 1.15150428
2.03455091 -0.07270514 1.33684659
2.73475242 -0.16864491 1.08505571
-0.22777528 -2.43423963 0.87358743
-0.71921188 2.25332856 0.96468776
0.54360014 -2.78476357 -0.41753355
-2.73428559 0.99884737 0.94329929
-1.97676635 1.52656507 1.06636834
2.06170821 0.21965002 -1.32463050
0.35835019 -1.71134961 1.28091848
2.69576430 0.20896994 1.10108030
0.18937047 2.10030961 -1.10295463
-2.21674371 -1.74674189 0.86118513
-3.38262367 -1.08021438 -0.35327306
-1.11999094 2.56092048 0.59768045
2.88453150 -1.81315947 0.23564671
2.28919768 2.24465179 -0.30099940
-0.27693689 -1.02036393 -1.48726130
-0.37015149 2.90429568 0.00516673
1.91270018 -0.76073813 1.30512691
1.11533308 0.24538302 -1.51433527
2.89632583 1.79832256 -0.24281204
-2.16737318 1.82884061 0.83213210
-3.72895813 -0.05038112 0.16166201
1.72014391 -2.57371569 0.17617914
0.38652009 2.01072860 1.14237523
-0.93788433 0.38880697 1.52711403
1.81243753 -2.54423833 -0.12840740
1.49161232 -1.88192034 1.03922832
-0.65468627 1.09957111 -1.44849753
3 249 48 83
3 64 0 62
3 220 34 37
3 64 62 204
3 204 191 64
3 51 191 204
3 213 27 253
3 21 48 249
3 104 24 232
3 40 205 155
3 7 151 128
3 128 151 1
3 115 111 220
3 220 111 244
3 244 34 220
3 113 26 215
3 117 184 66
3 66 51 118
3 184 51 66
3 117 196 30
3 30 184 117
3 30 196 1
3 64 191 84
3 84 0 64
3 84 27 0
3 46 191 79
3 79 191 51
3 79 51 184
3 168 87 100
3 100 23 168
3 168 23 73
3 168 73 122
3 122 87 168
3 25 152 194
3 32 87 192
3 100 87 32
3 32 129 100
3 145 62 0
3 0 27 145
3 220 37 198
3 99 70 207
3 78 246 234
3 246 163 234
3 118 51 108
3 51 204 108
3 126 196 117
3 117 66 126
3 126 66 29
3 148 145 192
3 107 174 41
3 122 164 41
3 81 174 210
3 210 174 107
3 210 97 81
3 38 204 62
3 38 148 97
3 38 246 78
3 38 97 246
3 73 33 105
3 207 70 105
3 112 86 90
3 146 177 90
3 231 213 127
3 27 213 231
3 134 45 67
3 67 229 134
3 185 86 134
3 134 229 185
3 249 83 94
3 112 90 98
3 150 45 134
3 175 23 100
3 11 183 50
3 47 24 104
3 47 21 249
3 104 21 47
3 186 232 24
3 186 133 9
3 24 133 186
3 31 40 155
3 215 26 88
3 136 113 215
3 251 113 136
3 7 128 91
3 212 167 11
3 225 232 233
3 104 232 225
3 225 140 104
3 44 183 11
3 11 167 44
3 44 167 111
3 121 34 110
3 34 244 110
3 111 167 110
3 110 244 111
3 218 177 146
3 121 110 240
3 233 124 130
3 56 16 192
3 192 145 56
3 56 231 16
3 56 145 27
3 27 231 56
3 129 32 22
3 22 214 152
3 152 25 22
3 22 25 129
3 107 41 221
3 221 41 164
3 164 70 221
3 70 99 221
3 20 69 120
3 120 42 20
3 120 69 36
3 20 42 153
3 153 126 29
3 101 69 20
3 36 69 101
3 101 163 36
3 101 234 163
3 62 145 169
3 145 148 169
3 169 38 62
3 148 38 169
3 192 87 243
3 243 148 192
3 97 148 243
3 89 174 81
3 89 41 174
3 222 163 246
3 255 210 107
3 107 221 255
3 65 38 78
3 204 38 65
3 65 108 204
3 122 73 200
3 73 105 200
3 200 164 122
3 200 70 164
3 200 105 70
3 80 98 226
3 226 98 90
3 9 133 226
3 226 133 80
3 178 141 229
3 229 67 178
3 49 127 194
3 49 231 127
3 194 152 49
3 152 214 49
3 49 214 16
3 16 231 49
3 254 77 102
3 102 77 245
3 86 185 199
3 146 90 199
3 199 90 86
3 85 150 134
3 85 86 112
3 134 86 85
3 23 175 61
3 73 23 61
3 61 33 73
3 48 33 61
3 11 50 147
3 147 50 21
3 147 140 11
3 147 21 104
3 104 140 147
3 202 183 207
3 202 50 183
3 202 33 48
3 48 21 202
3 21 50 202
3 207 105 202
3 202 105 33
3 158 133 24
3 158 47 249
3 24 47 158
3 249 94 158
3 26 124 208
3 208 88 26
3 232 186 157
3 9 161 157
3 157 186 9
3 57 157 161
3 233 232 57
3 232 157 57
3 3 31 188
3 188 31 155
3 166 88 40
3 3 203 166
3 215 88 166
3 166 31 3
3 40 31 166
3 166 136 215
3 203 136 166
3 216 136 203
3 216 203 7
3 106 170 63
3 92 170 242
3 180 212 156
3 140 225 156
3 2 110 167
3 2 212 180
3 167 212 2
3 180 240 2
3 2 240 110
3 230 240 171
3 121 240 230
3 93 30 1
3 129 25 72
3 58 82 224
3 114 32 192
3 114 22 32
3 192 16 114
3 16 214 114
3 214 22 114
3 237 206 149
3 123 206 237
3 123 237 19
3 19 18 115
3 95 18 19
3 8 120 36
3 149 206 8
3 8 222 149
3 36 163 8
3 163 222 8
3 42 120 131
3 242 170 247
3 247 42 242
3 247 153 42
3 142 101 20
3 108 101 142
3 20 153 142
3 142 153 29
3 118 108 142
3 142 66 118
3 29 66 142
3 234 101 109
3 109 101 108
3 108 65 109
3 78 234 109
3 109 65 78
3 81 97 190
3 97 243 190
3 190 89 81
3 41 89 190
3 122 41 190
3 190 87 122
3 190 243 87
3 119 222 246
3 210 222 119
3 246 97 119
3 97 210 119
3 149 222 217
3 217 222 210
3 210 255 217
3 217 237 149
3 10 18 95
3 183 18 10
3 60 177 144
3 144 161 60
3 60 90 177
3 60 226 90
3 60 161 9
3 9 226 60
3 189 178 67
3 189 45 194
3 189 67 45
3 194 127 189
3 127 178 189
3 176 84 191
3 176 191 46
3 253 27 176
3 27 84 176
3 46 241 176
3 241 75 176
3 209 139 254
3 209 241 139
3 209 75 241
3 141 14 143
3 143 209 254
3 14 209 143
3 253 176 250
3 250 176 75
3 250 213 253
3 75 209 250
3 250 209 14
3 141 178 52
3 52 14 141
3 52 250 14
3 52 178 127
3 127 213 52
3 213 250 52
3 254 139 55
3 55 77 254
3 139 132 55
3 138 77 55
3 55 132 138
3 146 199 12
3 12 218 146
3 205 218 12
3 193 199 185
3 80 133 172
3 172 17 80
3 133 158 172
3 94 17 172
3 172 158 94
3 197 98 80
3 80 17 197
3 224 150 197
3 197 17 224
3 239 61 175
3 175 58 239
3 239 83 48
3 48 61 239
3 239 94 83
3 125 161 144
3 144 208 125
3 125 57 161
3 125 208 124
3 125 124 233
3 233 57 125
3 252 208 144
3 88 208 252
3 144 177 252
3 177 218 252
3 40 88 252
3 205 40 252
3 252 218 205
3 251 136 162
3 136 216 162
3 106 63 159
3 159 63 91
3 1 196 159
3 196 106 159
3 159 128 1
3 159 91 128
3 170 92 13
3 59 63 13
3 13 63 170
3 13 74 59
3 180 156 103
3 103 240 180
3 171 240 103
3 140 156 39
3 39 156 212
3 11 140 39
3 39 212 11
3 135 113 251
3 121 230 135
3 171 130 35
3 35 230 171
3 35 124 26
3 35 130 124
3 35 135 230
3 26 113 35
3 113 135 35
3 139 241 211
3 211 132 139
3 211 241 46
3 46 79 211
3 211 79 184
3 184 30 96
3 96 211 184
3 132 211 96
3 138 132 96
3 30 93 96
3 96 93 138
3 181 72 25
3 82 72 181
3 100 129 6
3 129 72 6
3 6 175 100
3 53 17 94
3 94 239 53
3 53 239 58
3 224 17 53
3 53 58 224
3 183 44 71
3 71 18 183
3 115 18 71
3 111 115 71
3 71 44 111
3 173 198 123
3 123 19 173
3 173 19 115
3 173 115 220
3 220 198 173
3 242 42 5
3 42 131 5
3 5 92 242
3 123 198 28
3 28 5 131
3 28 198 37
3 37 5 28
3 179 131 120
3 179 28 131
3 179 206 123
3 123 28 179
3 182 170 106
3 182 247 170
3 182 106 196
3 196 126 182
3 126 153 182
3 153 247 182
3 237 217 195
3 95 19 195
3 195 19 237
3 195 217 255
3 195 10 95
3 255 10 195
3 187 255 221
3 187 10 255
3 187 221 99
3 187 99 207
3 207 183 187
3 183 10 187
3 229 141 76
3 141 193 76
3 76 185 229
3 76 193 185
3 4 12 199
3 155 205 4
3 205 12 4
3 150 85 238
3 238 197 150
3 238 85 112
3 112 98 238
3 98 197 238
3 59 74 160
3 7 91 160
3 160 216 7
3 160 162 216
3 160 63 59
3 91 63 160
3 137 5 37
3 92 5 137
3 248 156 225
3 248 103 156
3 248 225 233
3 171 103 248
3 233 130 248
3 248 130 171
3 227 188 245
3 3 188 227
3 1 151 219
3 219 93 1
3 219 236 93
3 82 181 154
3 224 82 154
3 45 150 154
3 154 150 224
3 175 6 165
3 165 6 72
3 165 58 175
3 165 72 82
3 82 58 165
3 120 8 201
3 201 179 120
3 201 8 206
3 206 179 201
3 155 4 116
3 116 188 155
3 116 102 245
3 245 188 116
3 199 193 235
3 235 4 199
3 254 102 235
3 102 116 235
3 235 116 4
3 235 193 141
3 235 143 254
3 141 143 235
3 68 160 74
3 162 160 68
3 251 162 68
3 68 74 121
3 121 135 68
3 68 135 251
3 223 34 121
3 121 74 223
3 223 37 34
3 223 137 37
3 228 227 245
3 236 227 228
3 245 77 228
3 228 77 138
3 138 93 228
3 93 236 228
3 43 227 236
3 236 219 43
3 3 227 43
3 43 219 151
3 43 203 3
3 43 151 7
3 7 203 43
3 45 154 15
3 15 154 181
3 194 45 15
3 15 25 194
3 15 181 25
3 137 223 54
3 54 13 92
3 92 137 54
3 74 13 54
3 54 223 74