ply
format ascii 1.0
comment https://github.com/mikedh/trimesh
element vertex 256
property float x
property float y
property float z
element face 508
property list uchar int vertex_indices
end_header
1.71369815 -0.73626924 -1.07634401
2.61033106 0.35256562 1.07638049
-1.48458099 0.94478470 0.41877568
1.31810462 0.16147788 1.87003160
0.16838004 -0.40746176 1.91249633
1.58418977 0.90842915 -0.54966038
-1.87906063 -0.81159133 -0.71106571
1.58199489 0.53776401 1.49837267
1.29458082 0.60171741 -1.51831138
-2.47156978 -0.01787286 1.37295640
-1.22975397 0.69821572 -1.38331378
-2.50194407 0.71000201 0.02023490
-0.26316196 -0.37764102 1.93019772
1.44043148 0.95913571 0.35945243
1.41260576 -0.91933596 0.65668988
-1.28206205 -0.99655068 0.17848693
-0.06908806 -0.94461858 -1.01828885
-2.87378430 -0.47346315 0.48352367
-1.33887017 0.86911672 -0.91320580
-0.60553986 0.92655432 -1.00928140
2.42186189 0.51026618 -1.01793790
-3.18831706 0.28809667 0.00006418
-0.79076469 -0.95467186 -0.85280883
-2.40152001 -0.49681380 -1.06011701
-2.95999503 0.02460165 0.92058784
-1.10151470 -1.00271857 -0.39281040
-0.56545824 0.61109841 1.67083681
1.49224961 -0.90466076 -0.66160351
0.83658898 0.94657755 -0.86781931
3.08361697 0.26986143 -0.54129434
3.24187589 0.12678550 0.32623446
0.69879425 0.05791734 2.01647544
-1.25838602 -0.76420659 -1.23925936
-2.89901948 -0.10335970 -0.97382653
-0.06814127 1.07621288 0.27285859
-0.65335006 0.73270118 1.46898878
1.71915174 0.45007521 -1.54305303
0.49379641 1.06643581 -0.23642629
1.42364931 -0.34073293 -1.74856853
-2.42232513 0.71247613 0.37479395
0.30954018 0.16491191 2.03297830
-1.27598119 -0.07951015 -1.90049303
2.20932913 0.68216449 -0.82347614
1.85645568 0.16329780 1.68119538
-1.70985341 0.92058170 -0.24546425
-1.15434909 -0.99144816 0.43630102
2.91317868 -0.50140357 -0.21097861
-3.14954162 0.22309537 0.46616012
-3.16624594 -0.06394618 -0.58306420
0.03496841 -1.03823805 -0.60354686
-2.64915705 0.57522321 -0.57540560
3.08021212 -0.20635298 -0.64194399
1.07488370 -0.99221939 0.50307930
-2.86706400 -0.53787667 0.11523022
1.06194782 1.01765954 0.28280240
2.43896723 -0.48444375 1.04817474
0.26157749 -0.87203747 -1.22045434
-1.99867952 0.39949438 1.45993221
-2.58565211 -0.67282706 -0.15009339
1.63921881 0.86445343 0.71621877
-2.00556397 -0.05033642 1.64047503
-2.77868557 -0.43559748 -0.75408328
1.49944592 -0.63638598 -1.38728249
2.09825754 0.74456978 0.73667938
2.12382221 -0.62022895 -1.05585909
2.16669202 -0.21641298 -1.50608420
3.23568940 0.10636045 -0.37724248
-0.61040592 -0.98759270 0.76995629
0.80564564 0.90173990 1.03652823
2.17456579 0.49963012 -1.23223996
-2.20297980 0.13635632 -1.51933098
-1.54516196 0.91540444 -0.55281079
-1.88959110 -0.85984224 -0.44503492
-2.39227867 -0.34458983 -1.26689863
0.89390284 0.96545088 0.76377225
2.24930573 -0.78676182 0.22675510
0.05157181 -0.83457178 1.32112741
2.06227326 -0.45096293 1.36912477
1.87505865 -0.14751908 -1.67842317
3.04808116 -0.38134202 -0.33874607
-2.36341143 -0.33033332 1.30131340
-0.36566821 -0.09122295 -2.04630828
-2.29426670 -0.77991581 -0.10274971
-3.19721699 -0.22567096 -0.30473429
2.10633636 -0.72036743 -0.81060266
-1.59805775 -0.71941823 1.18211269
-1.17419970 -0.63707983 1.50397193
-1.27633810 -0.61003309 -1.51258504
-0.02822813 0.30934310 1.98062384
-0.85645324 -0.09040263 -1.98816812
-1.28270805 -0.47001722 1.68111324
2.25172043 0.60166091 0.98908246
1.51282990 0.96550840 0.03285845
2.78606415 0.01222406 1.11305213
-3.19063330 -0.26696464 0.18749748
-0.86479926 0.79646212 -1.29657102
3.17960191 -0.08544222 0.54346931
0.14132072 -0.18135165 -2.03517032
-2.10469556 -0.46030989 1.33096302
-2.01714444 0.33478886 -1.50884283
-1.98427486 -0.65713215 -1.08032823
2.09499311 0.32337287 -1.47537076
1.10718679 -0.47239688 1.72686648
-1.77645385 0.79608792 0.86165959
-2.94864917 0.36663306 0.62244791
-2.52690840 -0.04932002 -1.32908511
2.76771879 0.55387223 0.40976810
-0.73009926 0.26155531 -1.95275629
2.79744267 -0.04000939 -1.09927881
2.13076282 -0.02026342 -1.57998908
-0.82535017 1.04850674 0.15741038
-0.75600922 1.05141175 -0.20451504
-1.79749775 -0.55802041 1.37178552
-0.10551057 0.65802687 1.64271843
-0.65935439 -0.88550860 -1.12318766
-0.71806669 1.02772379 -0.49262580
0.63321579 -0.37677506 1.89715910
3.28168344 0.13167161 0.01401441
3.09480357 0.02023848 -0.72608769
0.66119123 0.19385993 -1.99048698
1.80012345 0.63341898 -1.24504876
-0.01739298 1.02633119 0.67525285
-1.83625376 -0.26256391 -1.64462841
0.54431063 0.91148072 -1.07006371
-1.26883698 0.51016772 1.64298081
-1.54971254 0.36547065 1.68759644
3.13719916 0.31737000 -0.25447312
0.51132852 -1.07095480 -0.11356511
2.33839011 0.48215389 1.13689899
-1.47355771 -0.87761360 -0.79559273
-1.37281501 0.67400330 1.37454259
1.48033690 0.87165660 -0.81319696
2.92906284 -0.25352773 0.82876605
-2.84624934 -0.11308743 1.03073025
-1.14747775 -0.82087171 1.14653158
-0.22809301 0.78358275 1.42318392
0.29740232 0.59945101 1.71304595
1.11712396 1.02190781 0.00355665
2.82832146 -0.16166760 1.02556419
2.38439012 -0.63690144 0.76283157
-2.77298641 0.53798324 0.46869907
0.64983422 -0.87381554 1.15744948
2.97787523 0.20629832 -0.80756611
1.12521803 -0.80890501 1.18590152
-1.34582639 0.07986169 1.88112271
0.60655081 -0.80079651 -1.34296215
-0.94871849 -0.37434465 1.84668136
-2.90152907 0.52041686 0.02750949
0.62388331 -0.52185971 -1.76981127
0.49138641 0.61924708 -1.66910338
-1.83234680 -0.76623523 0.91221482
2.14993525 0.38746291 1.38609767
-0.57229066 -1.03522611 -0.50946593
2.75453973 0.50601286 -0.61524034
-1.83239853 -0.88824368 0.31756184
0.38468587 -0.11608198 2.04043078
-2.14075279 0.72864014 0.74731201
-2.35076308 0.22855407 1.38645017
-3.07354975 -0.12197217 0.72638345
2.60382485 0.57292134 0.66048950
1.32482922 0.85704654 0.96145755
-2.03897476 0.17129368 1.59375954
0.79227811 0.72392750 1.45837152
1.39202249 0.31571779 -1.77538979
-1.84835327 0.03203823 -1.71249390
-2.25394225 -0.76948410 -0.37686226
0.58535850 0.36862811 1.90910375
-1.68585849 0.93315727 0.07600562
-1.89803696 -0.48569715 -1.41721535
1.11955130 -0.50499481 -1.69023514
2.19386125 0.81216300 -0.06071177
-1.39934897 0.76933944 1.16639578
-3.04035735 -0.28643531 0.60225976
-0.12849000 0.99961287 -0.80214471
-0.54326522 0.14134626 -2.02040529
-2.65085149 -0.58256972 -0.54454929
2.12657237 -0.83128053 -0.04281712
-1.29971325 -0.06674483 1.89575589
0.12143400 -1.02876556 0.65914124
1.17471814 0.83596379 -1.09593463
-1.76918137 0.85811532 0.61661386
-1.50449049 -0.96288019 -0.16890003
2.92888570 0.50333023 0.05916107
-2.31591725 0.67870224 -0.71165991
3.27905345 -0.13861872 -0.04754192
-0.74361575 -0.79735911 1.32310641
-2.72906947 0.02994349 1.16514111
-1.62396264 0.52285790 -1.50003803
1.15114129 -0.06999446 1.93241227
-0.16159080 -1.05982888 0.43816265
-0.52068013 -0.23141019 -1.99227238
2.61556458 -0.58838546 -0.58725286
-0.50558096 -0.77955347 -1.40333688
0.04735271 -0.73036957 1.52873075
-0.37667182 -1.07884252 -0.01813108
-0.39046702 0.77554387 -1.42572165
3.12021947 0.31111696 0.34569475
-2.22090435 -0.65310675 0.89333779
0.36595675 1.00158298 -0.76492822
-0.52363676 -0.52536118 1.77845538
-2.23858476 -0.02575633 -1.52037740
1.10795736 0.74985939 -1.32400370
-2.67931914 0.39645916 -0.94842774
1.13592863 0.44253513 1.74818444
2.28078032 -0.43487746 -1.24593019
-0.23376940 -0.22801825 2.01474285
0.69255060 0.76072198 -1.40939093
-2.33427787 0.33660054 -1.31585395
-1.19849396 0.28974462 1.84500229
2.01946020 -0.77690846 0.70001817
0.14499108 0.25303814 -2.00743699
3.11943150 -0.35303092 0.13627566
-2.01170635 0.84140748 0.35705200
0.95503849 -1.03447068 -0.19449215
-0.33467105 -0.99577653 -0.79736024
0.02555558 0.49674284 1.83708799
1.12729347 0.60499096 1.56444967
0.11066660 0.53891695 -1.79226327
-0.83322132 -0.17867987 1.97068179
2.38545465 0.22244361 1.36744082
0.02608975 1.07728720 -0.26012304
-1.68953681 0.24970973 -1.71192908
0.86728144 0.33502328 -1.88911021
0.61279184 1.05053794 0.35971543
-2.47794437 -0.69285077 0.36694771
-2.40631080 0.53856534 0.97829294
-2.23101544 -0.16063848 1.49416530
1.79450870 -0.02704702 1.73466122
2.41209817 -0.06273754 1.40794313
-0.20090167 -0.90556073 1.13354683
-0.63435715 0.83825999 1.25175643
0.47946462 -1.03595901 -0.54178184
-2.41168666 0.37158087 1.22400331
-1.74354172 0.56789702 1.38369489
1.81846178 0.08171193 -1.71880996
0.31607097 -0.63663864 1.66209030
2.37771010 0.07773884 1.42873633
0.16702799 0.78133547 -1.43116832
-1.95520580 -0.64980489 1.11745393
-2.98353195 -0.40185019 -0.45839897
-0.98785114 0.95268726 0.77553636
2.54420590 -0.67451286 0.30576971
2.01911139 0.83503222 -0.39056987
-0.24426305 -0.37958527 -1.92983592
-0.32647991 1.08042610 0.00670423
1.68703413 -0.28300196 1.69350243
0.98374277 0.09128486 -1.96496630
2.55460882 0.66899341 -0.31506729
-1.91166008 0.68034637 1.07975531
-3.28900480 -0.01874226 0.20976889
1.51719618 -0.95744711 0.22860597
0.34091729 0.74801046 1.48231971
-0.82722998 0.14463995 1.98154783
1.59860086 -0.94648129 -0.16661848
1.31562746 -0.70009255 1.34847867
-0.57744449 0.40905112 -1.87953699
3 249 48 83
3 64 0 62
3 220 34 37
3 64 62 204
3 204 191 64
3 51 191 204
3 213 27 253
3 21 48 249
3 104 24 232
3 40 205 155
3 7 151 128
3 128 151 1
3 115 111 220
3 220 111 244
3 244 34 220
3 113 26 215
3 117 184 66
3 66 51 118
3 184 51 66
3 117 196 30
3 30 184 117
3 30 196 1
3 64 191 84
3 84 0 64
3 84 27 0
3 46 191 79
3 79 191 51
3 79 51 184
3 168 87 100
3 100 23 168
3 168 23 73
3 168 73 122
3 122 87 168
3 25 152 194
3 32 87 192
3 100 87 32
3 32 129 100
3 145 62 0
3 0 27 145
3 220 37 198
3 99 70 207
3 78 246 234
3 246 163 234
3 118 51 108
3 51 204 108
3 126 196 117
3 117 66 126
3 126 66 29
3 148 145 192
3 107 174 41
3 122 164 41
3 81 174 210
3 210 174 107
3 210 97 81
3 38 204 62
3 38 148 97
3 38 246 78
3 38 97 246
3 73 33 105
3 207 70 105
3 112 86 90
3 146 177 90
3 231 213 127
3 27 213 231
3 134 45 67
3 67 229 134
3 185 86 134
3 134 229 185
3 249 83 94
3 112 90 98
3 150 45 134
3 175 23 100
3 11 183 50
3 47 24 104
3 47 21 249
3 104 21 47
3 186 232 24
3 186 133 9
3 24 133 186
3 31 40 155
3 215 26 88
3 136 113 215
3 251 113 136
3 7 128 91
3 212 167 11
3 225 232 233
3 104 232 225
3 225 140 104
3 44 183 11
3 11 167 44
3 44 167 111
3 121 34 110
3 34 244 110
3 111 167 110
3 110 244 111
3 218 177 146
3 121 110 240
3 233 124 130
3 56 16 192
3 192 145 56
3 56 231 16
3 56 145 27
3 27 231 56
3 129 32 22
3 22 214 152
3 152 25 22
3 22 25 129
3 107 41 221
3 221 41 164
3 164 70 221
3 70 99 221
3 20 69 120
3 120 42 20
3 120 69 36
3 20 42 153
3 153 126 29
3 101 69 20
3 36 69 101
3 101 163 36
3 101 234 163
3 62 145 169
3 145 148 169
3 169 38 62
3 148 38 169
3 192 87 243
3 243 148 192
3 97 148 243
3 89 174 81
3 89 41 174
3 222 163 246
3 255 210 107
3 107 221 255
3 65 38 78
3 204 38 65
3 65 108 204
3 122 73 200
3 73 105 200
3 200 164 122
3 200 70 164
3 200 105 70
3 80 98 226
3 226 98 90
3 9 133 226
3 226 133 80
3 178 141 229
3 229 67 178
3 49 127 194
3 49 231 127
3 194 152 49
3 152 214 49
3 49 214 16
3 16 231 49
3 254 77 102
3 102 77 245
3 86 185 199
3 146 90 199
3 199 90 86
3 85 150 134
3 85 86 112
3 134 86 85
3 23 175 61
3 73 23 61
3 61 33 73
3 48 33 61
3 11 50 147
3 147 50 21
3 147 140 11
3 147 21 104
3 104 140 147
3 202 183 207
3 202 50 183
3 202 33 48
3 48 21 202
3 21 50 202
3 207 105 202
3 202 105 33
3 158 133 24
3 158 47 249
3 24 47 158
3 249 94 158
3 26 124 208
3 208 88 26
3 232 186 157
3 9 161 157
3 157 186 9
3 57 157 161
3 233 232 57
3 232 157 57
3 3 31 188
3 188 31 155
3 166 88 40
3 3 203 166
3 215 88 166
3 166 31 3
3 40 31 166
3 166 136 215
3 203 136 166
3 216 136 203
3 216 203 7
3 106 170 63
3 92 170 242
3 180 212 156
3 140 225 156
3 2 110 167
3 2 212 180
3 167 212 2
3 180 240 2
3 2 240 110
3 230 240 171
3 121 240 230
3 93 30 1
3 129 25 72
3 58 82 224
3 114 32 192
3 114 22 32
3 192 16 114
3 16 214 114
3 214 22 114
3 237 206 149
3 123 206 237
3 123 237 19
3 19 18 115
3 95 18 19
3 8 120 36
3 149 206 8
3 8 222 149
3 36 163 8
3 163 222 8
3 42 120 131
3 242 170 247
3 247 42 242
3 247 153 42
3 142 101 20
3 108 101 142
3 20 153 142
3 142 153 29
3 118 108 142
3 142 66 118
3 29 66 142
3 234 101 109
3 109 101 108
3 108 65 109
3 78 234 109
3 109 65 78
3 81 97 190
3 97 243 190
3 190 89 81
3 41 89 190
3 122 41 190
3 190 87 122
3 190 243 87
3 119 222 246
3 210 222 119
3 246 97 119
3 97 210 119
3 149 222 217
3 217 222 210
3 210 255 217
3 217 237 149
3 10 18 95
3 183 18 10
3 60 177 144
3 144 161 60
3 60 90 177
3 60 226 90
3 60 161 9
3 9 226 60
3 189 178 67
3 189 45 194
3 189 67 45
3 194 127 189
3 127 178 189
3 176 84 191
3 176 191 46
3 253 27 176
3 27 84 176
3 46 241 176
3 241 75 176
3 209 139 254
3 209 241 139
3 209 75 241
3 141 14 143
3 143 209 254
3 14 209 143
3 253 176 250
3 250 176 75
3 250 213 253
3 75 209 250
3 250 209 14
3 141 178 52
3 52 14 141
3 52 250 14
3 52 178 127
3 127 213 52
3 213 250 52
3 254 139 55
3 55 77 254
3 139 132 55
3 138 77 55
3 55 132 138
3 146 199 12
3 12 218 146
3 205 218 12
3 193 199 185
3 80 133 172
3 172 17 80
3 133 158 172
3 94 17 172
3 172 158 94
3 197 98 80
3 80 17 197
3 224 150 197
3 197 17 224
3 239 61 175
3 175 58 239
3 239 83 48
3 48 61 239
3 239 94 83
3 125 161 144
3 144 208 125
3 125 57 161
3 125 208 124
3 125 124 233
3 233 57 125
3 252 208 144
3 88 208 252
3 144 177 252
3 177 218 252
3 40 88 252
3 205 40 252
3 252 218 205
3 251 136 162
3 136 216 162
3 106 63 159
3 159 63 91
3 1 196 159
3 196 106 159
3 159 128 1
3 159 91 128
3 170 92 13
3 59 63 13
3 13 63 170
3 13 74 59
3 180 156 103
3 103 240 180
3 171 240 103
3 140 156 39
3 39 156 212
3 11 140 39
3 39 212 11
3 135 113 251
3 121 230 135
3 171 130 35
3 35 230 171
3 35 124 26
3 35 130 124
3 35 135 230
3 26 113 35
3 113 135 35
3 139 241 211
3 211 132 139
3 211 241 46
3 46 79 211
3 211 79 184
3 184 30 96
3 96 211 184
3 132 211 96
3 138 132 96
3 30 93 96
3 96 93 138
3 181 72 25
3 82 72 181
3 100 129 6
3 129 72 6
3 6 175 100
3 53 17 94
3 94 239 53
3 53 239 58
3 224 17 53
3 53 58 224
3 183 44 71
3 71 18 183
3 115 18 71
3 111 115 71
3 71 44 111
3 173 198 123
3 123 19 173
3 173 19 115
3 173 115 220
3 220 198 173
3 242 42 5
3 42 131 5
3 5 92 242
3 123 198 28
3 28 5 131
3 28 198 37
3 37 5 28
3 179 131 120
3 179 28 131
3 179 206 123
3 123 28 179
3 182 170 106
3 182 247 170
3 182 106 196
3 196 126 182
3 126 153 182
3 153 247 182
3 237 217 195
3 95 19 195
3 195 19 237
3 195 217 255
3 195 10 95
3 255 10 195
3 187 255 221
3 187 10 255
3 187 221 99
3 187 99 207
3 207 183 187
3 183 10 187
3 229 141 76
3 141 193 76
3 76 185 229
3 76 193 185
3 4 12 199
3 155 205 4
3 205 12 4
3 150 85 238
3 238 197 150
3 238 85 112
3 112 98 238
3 98 197 238
3 59 74 160
3 7 91 160
3 160 216 7
3 160 162 216
3 160 63 59
3 91 63 160
3 137 5 37
3 92 5 137
3 248 156 225
3 248 103 156
3 248 225 233
3 171 103 248
3 233 130 248
3 248 130 171
3 227 188 245
3 3 188 227
3 1 151 219
3 219 93 1
3 219 236 93
3 82 181 154
3 224 82 154
3 45 150 154
3 154 150 224
3 175 6 165
3 165 6 72
3 165 58 175
3 165 72 82
3 82 58 165
3 120 8 201
3 201 179 120
3 201 8 206
3 206 179 201
3 155 4 116
3 116 188 155
3 116 102 245
3 245 188 116
3 199 193 235
3 235 4 199
3 254 102 235
3 102 116 235
3 235 116 4
3 235 193 141
3 235 143 254
3 141 143 235
3 68 160 74
3 162 160 68
3 251 162 68
3 68 74 121
3 121 135 68
3 68 135 251
3 223 34 121
3 121 74 223
3 223 37 34
3 223 137 37
3 228 227 245
3 236 227 228
3 245 77 228
3 228 77 138
3 138 93 228
3 93 236 228
3 43 227 236
3 236 219 43
3 3 227 43
3 43 219 151
3 43 203 3
3 43 151 7
3 7 203 43
3 45 154 15
3 15 154 181
3 194 45 15
3 15 25 194
3 15 181 25
3 137 223 54
3 54 13 92
3 92 137 54
3 74 13 54
3 54 223 74