ply
format ascii 1.0
comment https://github.com/mikedh/trimesh
element vertex 256
property float x
property float y
property float z
element face 508
property list uchar int vertex_indices
end_header
1.15772891 -3.06241179 -2.12099743
1.76347017 1.46644866 2.12106943
-1.00294340 3.92970324 0.82522136
0.89047641 0.67164528 3.68500400
0.11375307 -1.69478178 3.76868320
1.07023644 3.77848721 -1.08313715
-1.26944327 -3.37570357 -1.40119553
1.06875360 2.23675632 2.95262885
0.87458432 2.50276160 -2.99191928
-1.66972673 -0.07433972 2.70548892
-0.83078909 2.90413308 -2.72589874
-1.69024682 2.95315671 0.03987403
-0.17778522 -1.57074642 3.80356479
0.97311717 3.98939443 0.70832151
0.95431888 -3.82385278 1.29404485
-0.86612701 -4.14501715 0.35171869
-0.04667405 -3.92901230 -2.00659633
-1.94145215 -1.96930552 0.95281094
-0.90450507 3.61497283 -1.79952419
-0.40908661 3.85387659 -1.98884666
1.63614547 2.12238288 -2.00590467
-2.15394211 1.19829881 0.00012647
-0.53421956 -3.97082782 -1.68050849
-1.62240303 -2.06642938 -2.08902121
-1.99969387 0.10232720 1.81407082
-0.74415398 -4.17067146 -0.77405530
-0.38200852 2.54178071 3.29247928
1.00812411 -3.76281333 -1.30372751
0.56517726 3.93716049 -1.71008754
2.08320951 1.12245190 -1.06665146
2.19012523 0.52734703 0.64286363
0.47208682 0.24089929 3.97358012
-0.85013205 -3.17861342 -2.44203138
-1.95850039 -0.42991060 -1.91898084
-0.04603443 4.47636080 0.53768343
-0.44138590 3.04757094 2.89472628
1.16141319 1.87202656 -3.04067397
0.33359569 4.43569422 -0.46589151
0.96177959 -1.41723228 -3.44565415
-1.63645840 2.96344757 0.73855287
0.20911711 0.68592864 4.00609970
-0.86201894 -0.33071163 -3.74502993
1.49256396 2.83737040 -1.62270677
1.25417197 0.67921495 3.31289148
-1.15513146 3.82903433 -0.48370132
-0.77984750 -4.12379360 0.85975605
1.96806598 -2.08552003 -0.41574541
-2.12774658 0.92793483 0.91859514
-2.13903141 -0.26597545 -1.14896131
0.02362373 -4.31840992 -1.18932354
-1.78970003 2.39256263 -1.13386965
2.08090925 -0.85829711 -1.26498735
0.72616279 -4.12700176 0.99134642
-1.93691206 -2.23722482 0.22706772
0.71742368 4.23281670 0.55727828
1.64770126 -2.01497793 2.06548834
0.17671479 -3.62712121 -2.40497494
-1.35025465 1.66164243 2.87687993
-1.74679768 -2.79853272 -0.29576758
1.10741258 3.59557629 1.41134989
-1.35490561 -0.20936751 3.23264980
-1.87720597 -1.81180847 -1.48596406
1.01298571 -2.64696097 -2.73371935
1.41752696 3.09693670 1.45166874
1.43479776 -2.57975793 -2.08063054
1.46375942 -0.90014035 -2.96782494
2.18594575 0.44239184 -0.74337786
-0.41237402 -4.10775757 1.51724279
0.54427278 3.75066423 2.04253817
1.46907866 2.07814360 -2.42819905
-1.48827446 0.56715560 -2.99392843
-1.04387021 3.80750012 -1.08934522
-1.27655745 -3.57639670 -0.87696671
-1.61615980 -1.43327451 -2.49649596
0.60389698 4.01566172 1.50505686
1.51957107 -3.27242851 0.44683385
0.03484054 -3.47128773 2.60335684
1.39321697 -1.87571895 2.69793868
1.26673973 -0.61358553 -3.30742860
2.05920243 -1.58614028 -0.66751850
-1.59665787 -1.37397659 2.56431246
-0.24703571 -0.37942946 -4.03236771
-1.54994547 -3.24395370 -0.20247416
-2.15995479 -0.93864769 -0.60049629
1.42298484 -2.99627018 -1.59733880
-1.07960522 -2.99232221 2.32942057
-0.79325807 -2.64984679 2.96366262
-0.86226004 -2.53734970 -2.98063517
-0.01907017 1.28667045 3.90293241
-0.57859701 -0.37601745 -3.91779876
-0.86656344 -1.95497262 3.31272984
1.52120233 2.50252676 1.94904339
1.02202761 4.01590061 0.06474946
1.88219070 0.05084433 2.19333267
-2.15550709 -1.11040306 0.36947450
-0.58423537 3.31277561 -2.55496740
2.14805436 -0.35538527 1.07093740
0.09547251 -0.75430751 -4.01041937
-1.42187619 -1.91459632 2.62273860
-1.36272907 1.39250875 -2.97326088
-1.34052336 -2.73325157 -2.12884855
1.41532159 1.34502542 -2.90730238
0.74798590 -1.96487057 3.40288901
-1.20012486 3.31121922 1.69794941
-1.99202895 1.52496028 1.22656918
-1.70711195 -0.20513991 -2.61903811
1.86979723 2.30375624 0.80747145
-0.49323565 1.08790374 -3.84801769
1.88987780 -0.16641364 -2.16619182
1.43948674 -0.08428295 -3.11345887
-0.55758464 4.36112118 0.31018615
-0.51073968 4.37320423 -0.40300858
-1.21434164 -2.32101011 2.70318174
-0.07128013 2.73697329 3.23707032
-0.44544226 -3.68315244 -2.21330547
-0.48510674 4.27467728 -0.97074723
0.42778373 -1.56714451 3.73846030
2.21701789 0.54767013 0.02761620
2.09076691 0.08417919 -1.43079722
0.44668317 0.80633402 -3.92236829
1.21611547 2.63462019 -2.45343971
-0.01175024 4.26888514 1.33062422
-1.24052417 -1.09209895 -3.24083424
0.36772177 3.79117990 -2.10862160
-0.85719252 2.12197328 3.23758745
-1.04694450 1.52012551 3.32550526
2.11940813 1.32005727 -0.50145382
0.34543994 -4.45449066 -0.22378653
1.57975411 2.00545359 2.24032450
-0.99549633 -3.65031433 -1.56776094
-0.92743731 2.80342507 2.70861459
1.00007617 3.62553716 -1.60245097
1.97879696 -1.05451405 1.63313091
-1.92285037 -0.47037178 2.03111267
-0.77520543 -3.41430426 2.25930595
-0.15409356 3.25920582 2.80446506
0.20091709 2.49333477 3.37565494
0.75469923 4.25048637 0.00700857
1.91073871 -0.67243439 2.02093291
1.61083043 -2.64910483 1.50320315
-1.87335575 2.23766804 0.92359829
0.43901068 -3.63451672 2.28082037
2.01177311 0.85806984 -1.59135520
0.76016736 -3.36453032 2.33688664
-0.90920454 0.33217385 3.70685983
0.40976956 -3.33080411 -2.64638376
-0.64092892 -1.55703557 3.63899088
-1.96019578 2.16460323 0.05420902
0.42147896 -2.17060447 -3.48751426
0.33196759 2.57567382 -3.28906345
-1.23788476 -3.18705130 1.79757142
1.45243907 1.61159921 2.73138452
-0.38662437 -4.30588245 -1.00393176
1.86089373 2.10469174 -1.21236622
-1.23791969 -3.69452858 0.62577373
0.25988355 -0.48282716 4.02078533
-1.44623554 3.03067946 1.47262096
-1.58811295 0.95063955 2.73207927
-2.07640839 -0.50732666 1.43138015
1.75907469 2.38298845 1.30153227
0.89501935 3.56476855 1.89460707
-1.37747717 0.71247274 3.14059424
0.53524202 3.01107788 2.87380433
0.94041336 1.31318510 -3.49850702
-1.24869823 0.13325866 -3.37456703
-1.52270341 -3.20056438 -0.74262863
0.39545262 1.53325856 3.76199794
-1.13892114 3.88134050 0.14977340
-1.28226328 -2.02019119 -2.79270363
0.75633907 -2.10045719 -3.33070493
1.48211432 3.37808132 -0.11963600
-0.94536287 3.19996285 2.29844952
-2.05398440 -1.19138873 1.18678725
-0.08680442 4.15775394 -1.58067191
-0.36701554 0.58791053 -3.98132372
-1.79084480 -2.42311931 -1.07306552
1.43665576 -3.45759821 -0.08437358
-0.87805170 -0.27761602 3.73569512
0.08203758 -4.27901030 1.29887557
0.79360831 3.47707772 -2.15960193
-1.19521177 3.56921387 1.21507287
-1.01639378 -4.00496912 -0.33282715
1.97867727 2.09353352 0.11658026
-1.56457198 2.82296944 -1.40236652
2.21524119 -0.57656574 -0.09368406
-0.50236702 -3.31650662 2.60725665
-1.84368670 0.12454589 2.29597712
-1.09710598 2.17475629 -2.95591068
0.77768040 -0.29113245 3.80792880
-0.10916645 -4.40821409 0.86342448
-0.35175762 -0.96251923 -3.92588639
1.76700580 -2.44730926 -1.15721524
-0.34155703 -3.24244642 -2.76535559
0.03199023 -3.03787279 3.01245141
-0.25446945 -4.48729849 -0.03572833
-0.26378912 3.22576904 -2.80946612
2.10793734 1.29404867 0.68121129
-1.50038385 -2.71650863 1.76037312
0.24723063 4.16594791 -1.50733471
-0.35375506 -2.18516827 3.50454783
-1.51232827 -0.10712994 -2.99599051
0.74850649 3.11893797 -2.60902500
-1.81007671 1.64901781 -1.86893094
0.76740319 1.84066463 3.44489717
1.54083443 -1.80881357 -2.45517659
-0.15792839 -0.94841087 3.97016573
0.46786875 3.16411948 -2.77728510
-1.57697594 1.40004408 -2.59296513
-0.80967057 1.20515335 3.63568234
1.36429358 -3.23144484 1.37942576
0.09795211 1.05247772 -3.95576906
2.10740495 -1.46838415 0.26853898
-1.35905528 3.49971986 0.70359135
0.64519858 -4.30274010 -0.38325787
-0.22609486 -4.14179707 -1.57124388
0.01726467 2.06613421 3.62008667
0.76156944 2.51637769 3.08283734
0.07476341 2.24155164 -3.53175712
-0.56290215 -0.74319458 3.88334107
1.61154962 0.92522389 2.69462037
0.01762554 4.48082972 -0.51258731
-1.14140606 1.03863358 -3.37345386
0.58591223 1.39348376 -3.72259951
0.41398585 4.36956978 0.70883977
-1.67403328 -2.88181853 0.72309142
-1.62563944 2.24008918 1.92778206
-1.50721467 -0.66815394 2.94433808
1.21232224 -0.11249838 3.41824913
1.62954926 -0.26094824 2.77443242
-0.13572383 -3.76655650 2.23371863
-0.42855480 3.48662853 2.46665764
0.32391354 -4.30893040 -1.06761205
-1.62927127 1.54554009 2.41196847
-1.17789030 2.36209035 2.72664976
1.22850430 0.33986965 -3.38701320
0.21352914 -2.64801168 3.27524376
1.60631776 0.32334411 2.81540656
0.11283966 3.24985862 -2.82019901
-1.32088506 -2.70277500 2.20200682
-2.01559472 -1.67144120 -0.90330136
-0.66736597 3.96257281 1.52823865
1.71879780 -2.80554438 0.60253668
1.36405790 3.47320294 -0.76964021
-0.16501762 -1.57883322 -3.80285168
-0.22056115 4.49388504 0.01321107
1.13971543 -1.17710805 3.33714342
0.66459042 0.37968695 -3.87207842
1.72582567 2.78258705 -0.62085807
-1.29146671 2.82980824 2.12771964
-2.22196412 -0.07795589 0.41336158
1.02497733 -3.98237109 0.45048112
0.23031466 3.11124778 2.92099547
-0.55885452 0.60161018 3.90475321
1.07997215 -3.93676019 -0.32833123
0.88880295 -2.91193986 2.65725422
-0.39010611 1.70139241 -3.70373487
3 249 48 83
3 64 0 62
3 220 34 37
3 64 62 204
3 204 191 64
3 51 191 204
3 213 27 253
3 21 48 249
3 104 24 232
3 40 205 155
3 7 151 128
3 128 151 1
3 115 111 220
3 220 111 244
3 244 34 220
3 113 26 215
3 117 184 66
3 66 51 118
3 184 51 66
3 117 196 30
3 30 184 117
3 30 196 1
3 64 191 84
3 84 0 64
3 84 27 0
3 46 191 79
3 79 191 51
3 79 51 184
3 168 87 100
3 100 23 168
3 168 23 73
3 168 73 122
3 122 87 168
3 25 152 194
3 32 87 192
3 100 87 32
3 32 129 100
3 145 62 0
3 0 27 145
3 220 37 198
3 99 70 207
3 78 246 234
3 246 163 234
3 118 51 108
3 51 204 108
3 126 196 117
3 117 66 126
3 126 66 29
3 148 145 192
3 107 174 41
3 122 164 41
3 81 174 210
3 210 174 107
3 210 97 81
3 38 204 62
3 38 148 97
3 38 246 78
3 38 97 246
3 73 33 105
3 207 70 105
3 112 86 90
3 146 177 90
3 231 213 127
3 27 213 231
3 134 45 67
3 67 229 134
3 185 86 134
3 134 229 185
3 249 83 94
3 112 90 98
3 150 45 134
3 175 23 100
3 11 183 50
3 47 24 104
3 47 21 249
3 104 21 47
3 186 232 24
3 186 133 9
3 24 133 186
3 31 40 155
3 215 26 88
3 136 113 215
3 251 113 136
3 7 128 91
3 212 167 11
3 225 232 233
3 104 232 225
3 225 140 104
3 44 183 11
3 11 167 44
3 44 167 111
3 121 34 110
3 34 244 110
3 111 167 110
3 110 244 111
3 218 177 146
3 121 110 240
3 233 124 130
3 56 16 192
3 192 145 56
3 56 231 16
3 56 145 27
3 27 231 56
3 129 32 22
3 22 214 152
3 152 25 22
3 22 25 129
3 107 41 221
3 221 41 164
3 164 70 221
3 70 99 221
3 20 69 120
3 120 42 20
3 120 69 36
3 20 42 153
3 153 126 29
3 101 69 20
3 36 69 101
3 101 163 36
3 101 234 163
3 62 145 169
3 145 148 169
3 169 38 62
3 148 38 169
3 192 87 243
3 243 148 192
3 97 148 243
3 89 174 81
3 89 41 174
3 222 163 246
3 255 210 107
3 107 221 255
3 65 38 78
3 204 38 65
3 65 108 204
3 122 73 200
3 73 105 200
3 200 164 122
3 200 70 164
3 200 105 70
3 80 98 226
3 226 98 90
3 9 133 226
3 226 133 80
3 178 141 229
3 229 67 178
3 49 127 194
3 49 231 127
3 194 152 49
3 152 214 49
3 49 214 16
3 16 231 49
3 254 77 102
3 102 77 245
3 86 185 199
3 146 90 199
3 199 90 86
3 85 150 134
3 85 86 112
3 134 86 85
3 23 175 61
3 73 23 61
3 61 33 73
3 48 33 61
3 11 50 147
3 147 50 21
3 147 140 11
3 147 21 104
3 104 140 147
3 202 183 207
3 202 50 183
3 202 33 48
3 48 21 202
3 21 50 202
3 207 105 202
3 202 105 33
3 158 133 24
3 158 47 249
3 24 47 158
3 249 94 158
3 26 124 208
3 208 88 26
3 232 186 157
3 9 161 157
3 157 186 9
3 57 157 161
3 233 232 57
3 232 157 57
3 3 31 188
3 188 31 155
3 166 88 40
3 3 203 166
3 215 88 166
3 166 31 3
3 40 31 166
3 166 136 215
3 203 136 166
3 216 136 203
3 216 203 7
3 106 170 63
3 92 170 242
3 180 212 156
3 140 225 156
3 2 110 167
3 2 212 180
3 167 212 2
3 180 240 2
3 2 240 110
3 230 240 171
3 121 240 230
3 93 30 1
3 129 25 72
3 58 82 224
3 114 32 192
3 114 22 32
3 192 16 114
3 16 214 114
3 214 22 114
3 237 206 149
3 123 206 237
3 123 237 19
3 19 18 115
3 95 18 19
3 8 120 36
3 149 206 8
3 8 222 149
3 36 163 8
3 163 222 8
3 42 120 131
3 242 170 247
3 247 42 242
3 247 153 42
3 142 101 20
3 108 101 142
3 20 153 142
3 142 153 29
3 118 108 142
3 142 66 118
3 29 66 142
3 234 101 109
3 109 101 108
3 108 65 109
3 78 234 109
3 109 65 78
3 81 97 190
3 97 243 190
3 190 89 81
3 41 89 190
3 122 41 190
3 190 87 122
3 190 243 87
3 119 222 246
3 210 222 119
3 246 97 119
3 97 210 119
3 149 222 217
3 217 222 210
3 210 255 217
3 217 237 149
3 10 18 95
3 183 18 10
3 60 177 144
3 144 161 60
3 60 90 177
3 60 226 90
3 60 161 9
3 9 226 60
3 189 178 67
3 189 45 194
3 189 67 45
3 194 127 189
3 127 178 189
3 176 84 191
3 176 191 46
3 253 27 176
3 27 84 176
3 46 241 176
3 241 75 176
3 209 139 254
3 209 241 139
3 209 75 241
3 141 14 143
3 143 209 254
3 14 209 143
3 253 176 250
3 250 176 75
3 250 213 253
3 75 209 250
3 250 209 14
3 141 178 52
3 52 14 141
3 52 250 14
3 52 178 127
3 127 213 52
3 213 250 52
3 254 139 55
3 55 77 254
3 139 132 55
3 138 77 55
3 55 132 138
3 146 199 12
3 12 218 146
3 205 218 12
3 193 199 185
3 80 133 172
3 172 17 80
3 133 158 172
3 94 17 172
3 172 158 94
3 197 98 80
3 80 17 197
3 224 150 197
3 197 17 224
3 239 61 175
3 175 58 239
3 239 83 48
3 48 61 239
3 239 94 83
3 125 161 144
3 144 208 125
3 125 57 161
3 125 208 124
3 125 124 233
3 233 57 125
3 252 208 144
3 88 208 252
3 144 177 252
3 177 218 252
3 40 88 252
3 205 40 252
3 252 218 205
3 251 136 162
3 136 216 162
3 106 63 159
3 159 63 91
3 1 196 159
3 196 106 159
3 159 128 1
3 159 91 128
3 170 92 13
3 59 63 13
3 13 63 170
3 13 74 59
3 180 156 103
3 103 240 180
3 171 240 103
3 140 156 39
3 39 156 212
3 11 140 39
3 39 212 11
3 135 113 251
3 121 230 135
3 171 130 35
3 35 230 171
3 35 124 26
3 35 130 124
3 35 135 230
3 26 113 35
3 113 135 35
3 139 241 211
3 211 132 139
3 211 241 46
3 46 79 211
3 211 79 184
3 184 30 96
3 96 211 184
3 132 211 96
3 138 132 96
3 30 93 96
3 96 93 138
3 181 72 25
3 82 72 181
3 100 129 6
3 129 72 6
3 6 175 100
3 53 17 94
3 94 239 53
3 53 239 58
3 224 17 53
3 53 58 224
3 183 44 71
3 71 18 183
3 115 18 71
3 111 115 71
3 71 44 111
3 173 198 123
3 123 19 173
3 173 19 115
3 173 115 220
3 220 198 173
3 242 42 5
3 42 131 5
3 5 92 242
3 123 198 28
3 28 5 131
3 28 198 37
3 37 5 28
3 179 131 120
3 179 28 131
3 179 206 123
3 123 28 179
3 182 170 106
3 182 247 170
3 182 106 196
3 196 126 182
3 126 153 182
3 153 247 182
3 237 217 195
3 95 19 195
3 195 19 237
3 195 217 255
3 195 10 95
3 255 10 195
3 187 255 221
3 187 10 255
3 187 221 99
3 187 99 207
3 207 183 187
3 183 10 187
3 229 141 76
3 141 193 76
3 76 185 229
3 76 193 185
3 4 12 199
3 155 205 4
3 205 12 4
3 150 85 238
3 238 197 150
3 238 85 112
3 112 98 238
3 98 197 238
3 59 74 160
3 7 91 160
3 160 216 7
3 160 162 216
3 160 63 59
3 91 63 160
3 137 5 37
3 92 5 137
3 248 156 225
3 248 103 156
3 248 225 233
3 171 103 248
3 233 130 248
3 248 130 171
3 227 188 245
3 3 188 227
3 1 151 219
3 219 93 1
3 219 236 93
3 82 181 154
3 224 82 154
3 45 150 154
3 154 150 224
3 175 6 165
3 165 6 72
3 165 58 175
3 165 72 82
3 82 58 165
3 120 8 201
3 201 179 120
3 201 8 206
3 206 179 201
3 155 4 116
3 116 188 155
3 116 102 245
3 245 188 116
3 199 193 235
3 235 4 199
3 254 102 235
3 102 116 235
3 235 116 4
3 235 193 141
3 235 143 254
3 141 143 235
3 68 160 74
3 162 160 68
3 251 162 68
3 68 74 121
3 121 135 68
3 68 135 251
3 223 34 121
3 121 74 223
3 223 37 34
3 223 137 37
3 228 227 245
3 236 227 228
3 245 77 228
3 228 77 138
3 138 93 228
3 93 236 228
3 43 227 236
3 236 219 43
3 3 227 43
3 43 219 151
3 43 203 3
3 43 151 7
3 7 203 43
3 45 154 15
3 15 154 181
3 194 45 15
3 15 25 194
3 15 181 25
3 137 223 54
3 54 13 92
3 92 137 54
3 74 13 54
3 54 223 74