ply
format ascii 1.0
comment https://github.com/mikedh/trimesh
element vertex 256
property float x
property float y
property float z
element face 508
property list uchar int vertex_indices
end_header
1.92789257 -1.81549346 -1.12286186
2.93659520 0.86935663 1.12289989
-1.67013812 2.32965088 0.43687445
1.48285389 0.39817232 1.95085120
0.18942578 -1.00471961 1.99515128
1.78219688 2.24000549 -0.57341576
-2.11392355 -2.00122261 -0.74179679
1.77972770 1.32601905 1.56312978
1.45638978 1.48371530 -1.58393025
-2.78048992 -0.04407091 1.43229330
-1.38346040 1.72166097 -1.44309831
-2.81466103 1.75072372 0.02110942
-0.29605445 -0.93118757 2.01361752
1.62047029 2.36503768 0.37498736
1.58916676 -2.26689959 0.68507087
-1.44230640 -2.45729566 0.18620084
-0.07772333 -2.32924151 -1.06229758
-3.23297715 -1.16746581 0.50442076
-1.50621498 2.14306879 -0.95267302
-0.68122602 2.28469849 -1.05290091
2.72456932 1.25821495 -1.06193149
-3.58682323 0.71038902 0.00006695
-0.88960201 -2.35403085 -0.88966578
-2.70168471 -1.22504389 -1.10593343
-3.32996345 0.06066276 0.96037406
-1.23919237 -2.47250438 -0.40978700
-0.63613456 1.50684702 1.74304748
1.67876518 -2.23071337 -0.69019693
0.94115382 2.33407187 -0.90532500
3.46903682 0.66542453 -0.56468821
3.64707637 0.31262779 0.34033376
0.78613621 0.14281264 2.10362411
-1.41567099 -1.88438141 -1.29281807
-3.26136637 -0.25486442 -1.01591372
-0.07665821 2.65372682 0.28465107
-0.73501194 1.80669534 1.53247607
1.93402767 1.10979593 -1.60974121
0.55551577 2.62961841 -0.24664424
1.60159063 -0.84017956 -1.82413876
-2.72509050 1.75682437 0.39099193
0.34822947 0.40663993 2.12084031
-1.43546546 -0.19605620 -1.98262918
2.48547196 1.68208182 -0.85906541
2.08849311 0.40265986 1.75385380
-1.92356706 2.26997113 -0.25607282
-1.29863060 -2.44471383 0.45515722
3.27729535 -1.23636138 -0.22009677
-3.54320121 0.55010879 0.48630676
-3.56199336 -0.15767856 -0.60826325
0.03933910 -2.56008863 -0.62963116
-2.98027396 1.41838598 -0.60027367
3.46520638 -0.50882536 -0.66968775
1.20923281 -2.44661546 0.52482152
-3.22541690 -1.32629681 0.12021028
1.19468021 2.50934601 0.29502463
2.74381256 -1.19454193 1.09347510
0.29427195 -2.15027094 -1.27320027
-2.24849343 0.98507363 1.52302802
-2.90883136 -1.65905762 -0.15658017
1.84410393 2.13157010 0.74717253
-2.25623822 -0.12411960 1.71137369
-3.12599206 -1.07409668 -0.78667349
1.68686092 -1.56920123 -1.44723845
2.36051774 1.83596098 0.76851743
2.38927770 -1.52936125 -1.10149157
2.43750572 -0.53363132 -1.57117462
3.64011669 0.26226372 -0.39354625
-0.68670028 -2.43520689 0.80323249
0.90634292 2.22351098 1.08132529
2.44636369 1.23198843 -1.28549528
-2.47832918 0.33622757 -1.58499384
-1.73829091 2.25720501 -0.57670236
-2.12577009 -2.12019992 -0.46426859
-2.69128823 -0.84968996 -1.32165182
1.00563133 2.38060975 0.79678118
2.53044534 -1.93999803 0.23655507
0.05801775 -2.05788803 1.37822425
2.32003593 -1.11198485 1.42829609
2.10942125 -0.36375269 -1.75096178
3.42905927 -0.94031358 -0.35338610
-2.65881300 -0.81453627 1.35755408
-0.41137290 -0.22493765 -2.13474631
-2.58102608 -1.92311716 -0.10719037
-3.59683561 -0.55645967 -0.31790438
2.36960649 -1.77628267 -0.84563553
-1.79779816 -1.77394223 1.23320162
-1.32096231 -1.57091200 1.56897104
-1.43586695 -1.50422025 -1.57795644
-0.03175635 0.76277846 2.06622314
-0.96350092 -0.22291490 -2.07409334
-1.44303310 -1.15896893 1.75376821
2.53316188 1.48357606 1.03182888
1.70191777 2.38075161 0.03427854
3.13429284 0.03014211 1.16115642
-3.58942914 -0.65828168 0.19560081
-0.97289008 1.96391702 -1.35260665
3.57701874 -0.21068351 0.56695718
0.15898433 -0.44717708 -2.12312698
-2.36776042 -1.13503253 1.38848495
-2.26926637 0.82552272 -1.57405245
-2.23228836 -1.62035704 -1.12701821
2.35684538 0.79737318 -1.53913379
1.24557352 -1.16483676 1.80149877
-1.99849188 1.96299434 0.89889908
-3.31719947 0.90404409 0.64934903
-2.84274530 -0.12161335 -1.38652599
3.11365461 1.36573863 0.42747760
-0.82135403 0.64494336 -2.03715110
3.14709353 -0.09865520 -1.14678788
2.39708591 -0.04996557 -1.64827359
-0.92851031 2.58540893 0.16421340
-0.85050243 2.59257221 -0.21335384
-2.02216601 -1.37596726 1.43107176
-0.11869828 1.62256324 1.71371388
-0.74176675 -2.18348789 -1.17173004
-0.80781752 2.53416228 -0.51391625
0.71236110 -0.92905229 1.97915113
3.69185948 0.32467595 0.01462009
3.48162174 0.04990405 -0.75746793
0.74383318 0.47802001 -2.07651258
2.02512002 1.56188524 -1.29885769
-0.01956692 2.53072858 0.70443612
-2.06576610 -0.64743036 -1.71570647
0.61234373 2.24752998 -1.11631000
-1.42742825 1.25797212 1.71398771
-1.74341035 0.90117788 1.76053154
3.52931595 0.78257120 -0.26547101
0.57523924 -2.64076138 -0.11847320
2.63066435 1.18889558 1.18603384
-1.65773690 -2.16402054 -0.82997692
-1.54440248 1.66195798 1.43394792
1.66536343 2.14933181 -0.84834194
3.29516506 -0.62514889 0.86458397
-3.20200086 -0.27885109 1.07527661
-1.29090047 -2.02410626 1.19608271
-0.25660226 1.93215907 1.48469150
0.33457449 1.47812688 1.78708088
1.25675273 2.51982117 0.00371036
3.18183184 -0.39864013 1.06988740
2.68241382 -1.57047212 0.79579985
-3.11958051 1.32655954 0.48895547
0.73105669 -2.15465522 1.20747256
3.35007834 0.50869060 -0.84246778
1.26585841 -1.99459875 1.23715425
-1.51404059 0.19692305 1.96242177
0.68236327 -1.97460485 -1.40100276
-1.06729829 -0.92305940 1.92649174
-3.26418972 1.28324437 0.02869841
0.70186222 -1.28680217 -1.84629953
0.55280453 1.52693999 -1.74123919
-2.06137085 -1.88938355 0.95163918
2.41865468 0.95540643 1.44600248
-0.64382100 -2.55266166 -0.53148425
3.09882832 1.24772704 -0.64183003
-2.06142902 -2.19023204 0.33128631
0.43276757 -0.28623503 2.12861490
-2.40832448 1.79668152 0.77960956
-2.64458394 0.56356883 1.44637012
-3.45771146 -0.30075911 0.75777656
2.92927551 1.41271007 0.68903476
1.49041891 2.11330628 1.00301015
-2.29382539 0.42237613 1.66263914
0.89130455 1.78506112 1.52139986
1.56601071 0.77849722 -1.85211921
-2.07937813 0.07899990 -1.78650510
-2.53566146 -1.89739466 -0.39314961
0.65852213 0.90896356 1.99161208
-1.89657319 2.30098009 0.07929045
-2.13527155 -1.19763243 -1.47846496
1.25948346 -1.24521673 -1.76328433
2.46807098 2.00263238 -0.06333563
-1.57425284 1.89703798 1.21680546
-3.42037010 -0.70629245 0.62828845
-0.14454991 2.46484637 -0.83681202
-0.61116767 0.34853172 -2.10772371
-2.98218012 -1.43650091 -0.56808382
2.39237165 -2.04977226 -0.04466760
-1.46216381 -0.16457945 1.97768724
0.13661198 -2.53673100 0.68762827
1.32154560 2.06132030 -1.14329910
-1.99031043 2.11594152 0.64326292
-1.69253612 -2.37427092 -0.17619960
3.29496574 1.24111211 0.06171791
-2.60538244 1.67354465 -0.74241668
3.68890071 -0.34180617 -0.04959660
-0.83655995 -1.96612883 1.38028884
-3.07017446 0.07383469 1.21549654
-1.82694089 1.28926349 -1.56486714
1.29502189 -0.17259242 2.01592779
-0.18178797 -2.61332703 0.45709929
-0.58575964 -0.57061148 -2.07837510
2.94248271 -1.45084155 -0.61263293
-0.56877327 -1.92222369 -1.46398675
0.05327130 -1.80094600 1.59480000
-0.42375186 -2.66021085 -0.01891467
-0.43927130 1.91233683 -1.48733902
3.51021409 0.76715249 0.36063510
-2.49849415 -1.61043131 0.93194634
0.41169751 2.46970415 -0.79798716
-0.58908588 -1.29543602 1.85531723
-2.51838446 -0.06350998 -1.58608556
1.24644041 1.84900391 -1.38122499
-3.01420593 0.97758937 -0.98941720
1.27790785 1.09120357 1.82373798
2.56585383 -1.07232118 -1.29977727
-0.26298812 -0.56224763 2.10181665
0.77911216 1.87578893 -1.47030234
-2.62603807 0.82998991 -1.37272286
-1.34829307 0.71445256 1.92474020
2.27187157 -1.91570151 0.73027176
0.16311345 0.62394172 -2.09419489
3.50932789 -0.87050402 0.14216527
-2.26314855 2.07474327 0.37248316
1.07440829 -2.55079865 -0.20289777
-0.37650141 -2.45538664 -0.83182079
0.02874976 1.22486901 1.91648376
1.26819336 1.49178731 1.63206255
0.12449877 1.32886195 -1.86972189
-0.93736523 -0.44058901 2.05585146
2.68361139 0.54850167 1.42653942
0.02935069 2.65637589 -0.27136514
-1.90071118 0.61573452 -1.78591573
0.97568250 0.82610071 -1.97075438
0.68938440 2.59041762 0.37526172
-2.78766155 -1.70843220 0.38280657
-2.70707440 1.32799494 1.02057314
-2.50986910 -0.39610255 1.55874062
2.01880336 -0.06669255 1.80963039
2.71358514 -0.15469828 1.46879208
-0.22601227 -2.23293257 1.18253684
-0.71364516 2.06698227 1.30585527
0.53939265 -2.55446887 -0.56519675
-2.71312213 0.91624451 1.27690268
-1.96146607 1.40032101 1.44349587
2.04575038 0.20148535 -1.79309404
0.35557655 -1.56982410 1.73392296
2.67489910 0.19168849 1.49048388
0.18790473 1.92661774 -1.49302101
-2.19958615 -1.60228956 1.16574836
-3.35644197 -0.99088258 -0.47821021
-1.11132216 2.34913707 0.80905372
2.86220503 -1.66321445 0.31898457
2.27147913 2.05902314 -0.40744963
-0.27479336 -0.93598169 -2.01324010
-0.36728647 2.66411567 0.00699398
1.89789581 -0.69782645 1.76669276
1.10670030 0.22509030 -2.04988885
2.87390804 1.64960456 -0.32868397
-2.15059757 1.67759883 1.12642062
-3.70009589 -0.04621469 0.21883474
1.70682979 -2.36087394 0.23848593
0.38352838 1.84444499 1.54638302
-0.93062502 0.35665333 2.06718707
1.79840922 -2.33383465 -0.17381945
1.48006713 -1.72628891 1.40675759
-0.64961898 1.00863862 -1.96076739
3 249 48 83
3 64 0 62
3 220 34 37
3 64 62 204
3 204 191 64
3 51 191 204
3 213 27 253
3 21 48 249
3 104 24 232
3 40 205 155
3 7 151 128
3 128 151 1
3 115 111 220
3 220 111 244
3 244 34 220
3 113 26 215
3 117 184 66
3 66 51 118
3 184 51 66
3 117 196 30
3 30 184 117
3 30 196 1
3 64 191 84
3 84 0 64
3 84 27 0
3 46 191 79
3 79 191 51
3 79 51 184
3 168 87 100
3 100 23 168
3 168 23 73
3 168 73 122
3 122 87 168
3 25 152 194
3 32 87 192
3 100 87 32
3 32 129 100
3 145 62 0
3 0 27 145
3 220 37 198
3 99 70 207
3 78 246 234
3 246 163 234
3 118 51 108
3 51 204 108
3 126 196 117
3 117 66 126
3 126 66 29
3 148 145 192
3 107 174 41
3 122 164 41
3 81 174 210
3 210 174 107
3 210 97 81
3 38 204 62
3 38 148 97
3 38 246 78
3 38 97 246
3 73 33 105
3 207 70 105
3 112 86 90
3 146 177 90
3 231 213 127
3 27 213 231
3 134 45 67
3 67 229 134
3 185 86 134
3 134 229 185
3 249 83 94
3 112 90 98
3 150 45 134
3 175 23 100
3 11 183 50
3 47 24 104
3 47 21 249
3 104 21 47
3 186 232 24
3 186 133 9
3 24 133 186
3 31 40 155
3 215 26 88
3 136 113 215
3 251 113 136
3 7 128 91
3 212 167 11
3 225 232 233
3 104 232 225
3 225 140 104
3 44 183 11
3 11 167 44
3 44 167 111
3 121 34 110
3 34 244 110
3 111 167 110
3 110 244 111
3 218 177 146
3 121 110 240
3 233 124 130
3 56 16 192
3 192 145 56
3 56 231 16
3 56 145 27
3 27 231 56
3 129 32 22
3 22 214 152
3 152 25 22
3 22 25 129
3 107 41 221
3 221 41 164
3 164 70 221
3 70 99 221
3 20 69 120
3 120 42 20
3 120 69 36
3 20 42 153
3 153 126 29
3 101 69 20
3 36 69 101
3 101 163 36
3 101 234 163
3 62 145 169
3 145 148 169
3 169 38 62
3 148 38 169
3 192 87 243
3 243 148 192
3 97 148 243
3 89 174 81
3 89 41 174
3 222 163 246
3 255 210 107
3 107 221 255
3 65 38 78
3 204 38 65
3 65 108 204
3 122 73 200
3 73 105 200
3 200 164 122
3 200 70 164
3 200 105 70
3 80 98 226
3 226 98 90
3 9 133 226
3 226 133 80
3 178 141 229
3 229 67 178
3 49 127 194
3 49 231 127
3 194 152 49
3 152 214 49
3 49 214 16
3 16 231 49
3 254 77 102
3 102 77 245
3 86 185 199
3 146 90 199
3 199 90 86
3 85 150 134
3 85 86 112
3 134 86 85
3 23 175 61
3 73 23 61
3 61 33 73
3 48 33 61
3 11 50 147
3 147 50 21
3 147 140 11
3 147 21 104
3 104 140 147
3 202 183 207
3 202 50 183
3 202 33 48
3 48 21 202
3 21 50 202
3 207 105 202
3 202 105 33
3 158 133 24
3 158 47 249
3 24 47 158
3 249 94 158
3 26 124 208
3 208 88 26
3 232 186 157
3 9 161 157
3 157 186 9
3 57 157 161
3 233 232 57
3 232 157 57
3 3 31 188
3 188 31 155
3 166 88 40
3 3 203 166
3 215 88 166
3 166 31 3
3 40 31 166
3 166 136 215
3 203 136 166
3 216 136 203
3 216 203 7
3 106 170 63
3 92 170 242
3 180 212 156
3 140 225 156
3 2 110 167
3 2 212 180
3 167 212 2
3 180 240 2
3 2 240 110
3 230 240 171
3 121 240 230
3 93 30 1
3 129 25 72
3 58 82 224
3 114 32 192
3 114 22 32
3 192 16 114
3 16 214 114
3 214 22 114
3 237 206 149
3 123 206 237
3 123 237 19
3 19 18 115
3 95 18 19
3 8 120 36
3 149 206 8
3 8 222 149
3 36 163 8
3 163 222 8
3 42 120 131
3 242 170 247
3 247 42 242
3 247 153 42
3 142 101 20
3 108 101 142
3 20 153 142
3 142 153 29
3 118 108 142
3 142 66 118
3 29 66 142
3 234 101 109
3 109 101 108
3 108 65 109
3 78 234 109
3 109 65 78
3 81 97 190
3 97 243 190
3 190 89 81
3 41 89 190
3 122 41 190
3 190 87 122
3 190 243 87
3 119 222 246
3 210 222 119
3 246 97 119
3 97 210 119
3 149 222 217
3 217 222 210
3 210 255 217
3 217 237 149
3 10 18 95
3 183 18 10
3 60 177 144
3 144 161 60
3 60 90 177
3 60 226 90
3 60 161 9
3 9 226 60
3 189 178 67
3 189 45 194
3 189 67 45
3 194 127 189
3 127 178 189
3 176 84 191
3 176 191 46
3 253 27 176
3 27 84 176
3 46 241 176
3 241 75 176
3 209 139 254
3 209 241 139
3 209 75 241
3 141 14 143
3 143 209 254
3 14 209 143
3 253 176 250
3 250 176 75
3 250 213 253
3 75 209 250
3 250 209 14
3 141 178 52
3 52 14 141
3 52 250 14
3 52 178 127
3 127 213 52
3 213 250 52
3 254 139 55
3 55 77 254
3 139 132 55
3 138 77 55
3 55 132 138
3 146 199 12
3 12 218 146
3 205 218 12
3 193 199 185
3 80 133 172
3 172 17 80
3 133 158 172
3 94 17 172
3 172 158 94
3 197 98 80
3 80 17 197
3 224 150 197
3 197 17 224
3 239 61 175
3 175 58 239
3 239 83 48
3 48 61 239
3 239 94 83
3 125 161 144
3 144 208 125
3 125 57 161
3 125 208 124
3 125 124 233
3 233 57 125
3 252 208 144
3 88 208 252
3 144 177 252
3 177 218 252
3 40 88 252
3 205 40 252
3 252 218 205
3 251 136 162
3 136 216 162
3 106 63 159
3 159 63 91
3 1 196 159
3 196 106 159
3 159 128 1
3 159 91 128
3 170 92 13
3 59 63 13
3 13 63 170
3 13 74 59
3 180 156 103
3 103 240 180
3 171 240 103
3 140 156 39
3 39 156 212
3 11 140 39
3 39 212 11
3 135 113 251
3 121 230 135
3 171 130 35
3 35 230 171
3 35 124 26
3 35 130 124
3 35 135 230
3 26 113 35
3 113 135 35
3 139 241 211
3 211 132 139
3 211 241 46
3 46 79 211
3 211 79 184
3 184 30 96
3 96 211 184
3 132 211 96
3 138 132 96
3 30 93 96
3 96 93 138
3 181 72 25
3 82 72 181
3 100 129 6
3 129 72 6
3 6 175 100
3 53 17 94
3 94 239 53
3 53 239 58
3 224 17 53
3 53 58 224
3 183 44 71
3 71 18 183
3 115 18 71
3 111 115 71
3 71 44 111
3 173 198 123
3 123 19 173
3 173 19 115
3 173 115 220
3 220 198 173
3 242 42 5
3 42 131 5
3 5 92 242
3 123 198 28
3 28 5 131
3 28 198 37
3 37 5 28
3 179 131 120
3 179 28 131
3 179 206 123
3 123 28 179
3 182 170 106
3 182 247 170
3 182 106 196
3 196 126 182
3 126 153 182
3 153 247 182
3 237 217 195
3 95 19 195
3 195 19 237
3 195 217 255
3 195 10 95
3 255 10 195
3 187 255 221
3 187 10 255
3 187 221 99
3 187 99 207
3 207 183 187
3 183 10 187
3 229 141 76
3 141 193 76
3 76 185 229
3 76 193 185
3 4 12 199
3 155 205 4
3 205 12 4
3 150 85 238
3 238 197 150
3 238 85 112
3 112 98 238
3 98 197 238
3 59 74 160
3 7 91 160
3 160 216 7
3 160 162 216
3 160 63 59
3 91 63 160
3 137 5 37
3 92 5 137
3 248 156 225
3 248 103 156
3 248 225 233
3 171 103 248
3 233 130 248
3 248 130 171
3 227 188 245
3 3 188 227
3 1 151 219
3 219 93 1
3 219 236 93
3 82 181 154
3 224 82 154
3 45 150 154
3 154 150 224
3 175 6 165
3 165 6 72
3 165 58 175
3 165 72 82
3 82 58 165
3 120 8 201
3 201 179 120
3 201 8 206
3 206 179 201
3 155 4 116
3 116 188 155
3 116 102 245
3 245 188 116
3 199 193 235
3 235 4 199
3 254 102 235
3 102 116 235
3 235 116 4
3 235 193 141
3 235 143 254
3 141 143 235
3 68 160 74
3 162 160 68
3 251 162 68
3 68 74 121
3 121 135 68
3 68 135 251
3 223 34 121
3 121 74 223
3 223 37 34
3 223 137 37
3 228 227 245
3 236 227 228
3 245 77 228
3 228 77 138
3 138 93 228
3 93 236 228
3 43 227 236
3 236 219 43
3 3 227 43
3 43 219 151
3 43 203 3
3 43 151 7
3 7 203 43
3 45 154 15
3 15 154 181
3 194 45 15
3 15 25 194
3 15 181 25
3 137 223 54
3 54 13 92
3 92 137 54
3 74 13 54
3 54 223 74