ply
format ascii 1.0
comment https://github.com/mikedh/trimesh
element vertex 256
property float x
property float y
property float z
element face 508
property list uchar int vertex_indices
end_header
0.65406805 -1.74361587 -1.64632654
0.99628633 0.83493775 1.64638233
-0.56662077 2.23741746 0.64054006
0.50308162 0.38240820 2.86031461
0.06426569 -0.96494156 2.92526674
0.60463852 2.15132093 -0.84073532
-0.71718198 -1.92199183 -1.08761346
0.60380077 1.27352047 2.29184198
0.49410328 1.42497325 -2.32233953
-0.94332522 -0.04232609 2.10001111
-0.46936080 1.65349829 -2.11585331
-0.95491827 1.68141043 0.03095038
-0.10044116 -0.89432079 2.95234203
0.54977018 2.27140307 0.54980195
0.53914994 -2.17715025 1.00444269
-0.48932526 -2.36000848 0.27300543
-0.02636887 -2.23702407 -1.55752790
-1.09683871 -1.12124455 0.73957562
-0.51100725 2.05822229 -1.39679778
-0.23111670 2.19424462 -1.54375064
0.92435324 1.20840073 -1.55699122
-1.21688652 0.68226391 0.00009816
-0.30181155 -2.26083207 -1.30441725
-0.91658932 -1.17654300 -1.62150645
-1.12974274 0.05826105 1.40808892
-0.42041564 -2.37461495 -0.60082477
-0.21581872 1.44718921 2.55563545
0.56954765 -2.14239669 -1.01195848
0.31930134 2.24166322 -1.32737660
1.17692554 0.63907957 -0.82793903
1.23732841 0.30025050 0.49899328
0.26670915 0.13715851 3.08430839
-0.48028880 -1.80977654 -1.89551437
-1.10647011 -0.24477406 -1.48952043
-0.02600751 2.54866242 0.41735199
-0.24936444 1.73516619 2.24689794
0.65614951 1.06585777 -2.36018324
0.18846752 2.52550864 -0.36162683
0.54336494 -0.80691588 -2.67453027
-0.92453003 1.68726969 0.57326764
0.11814236 0.39054057 3.10955048
-0.48700437 -0.18829411 -2.90690708
0.84323573 1.61548626 -1.25955141
0.70855433 0.38671809 2.57147932
-0.65260059 2.18010044 -0.37545088
-0.44058096 -2.34792471 0.66734606
1.11187434 -1.18741238 -0.32270321
-1.20208704 0.52832931 0.71301717
-1.20846260 -0.15143587 -0.89182824
0.01334641 -2.45873165 -0.92315763
-1.01110506 1.36223042 -0.88011402
1.17562604 -0.48868036 -0.98188812
0.41025138 -2.34975123 0.76948702
-1.09427369 -1.27378714 0.17625086
0.40531415 2.40999794 0.43256158
0.93088180 -1.14724863 1.60324013
0.09983641 -2.06513906 -1.86675107
-0.76283699 0.94607335 2.23304534
-0.98686707 -1.59337354 -0.22957596
0.62564141 2.04717875 1.09549534
-0.76546454 -0.11920556 2.50919557
-1.06054223 -1.03157198 -1.15341115
0.57229424 -1.50707459 -2.12192369
0.80084300 1.76327312 1.12679100
0.81060028 -1.46881199 -1.61499369
0.82696241 -0.51250422 -2.30363727
1.23496723 0.25188038 -0.57701284
-0.23297393 -2.33879423 1.17768979
0.30749118 2.13547969 1.58542621
0.82996756 1.18321264 -1.88477778
-0.84081239 0.32291591 -2.32389903
-0.58974272 2.16783977 -0.84555405
-0.72120118 -2.03625870 -0.68070501
-0.91306216 -0.81604975 -1.93779004
0.34117633 2.28635859 1.16823101
0.85849363 -1.86319113 0.34683418
0.01968344 -1.97641373 2.02073598
0.78710890 -1.06796002 2.09415054
0.71565455 -0.34935129 -2.56723928
1.16336262 -0.90308541 -0.51813048
-0.90204442 -0.78228778 1.99042940
-0.13956477 -0.21603210 -3.12993956
-0.87565392 -1.84697866 -0.15716124
-1.22028339 -0.53442878 -0.46610761
0.80392647 -1.70595753 -1.23986065
-0.60993147 -1.70370972 1.80810547
-0.44815737 -1.50871778 2.30040646
-0.48714057 -1.44466639 -2.31358075
-0.01077384 0.73257917 3.02947140
-0.32688293 -0.21408944 -3.04101086
-0.48957181 -1.11308396 2.57135391
0.85941523 1.42483950 1.51285517
0.57740253 2.28649473 0.05025879
1.06335843 0.02894875 1.70247352
-1.21777058 -0.63221949 0.28678757
-0.33006835 1.88616323 -1.98317564
1.21356022 -0.20234229 0.83126581
0.05393795 -0.42947280 -3.11290336
-0.80330014 -1.09009528 2.03577995
-0.76988453 0.79283929 -2.30785680
-0.75733918 -1.55620515 -1.65242052
0.79959702 0.76580417 -2.25665951
0.42258051 -1.11871946 2.64133573
-0.67802000 1.88527703 1.31795502
-1.12541246 0.86825192 0.95206779
-0.96444631 -0.11679853 -2.03290772
1.05635667 1.31166744 0.62676251
-0.27865735 0.61940926 -2.98684645
1.06770134 -0.09474932 -1.68140650
0.81324935 -0.04798737 -2.41667891
-0.31501180 2.48304963 0.24076772
-0.28854641 2.48992920 -0.31281683
-0.68605185 -1.32149112 2.09822011
-0.04027027 1.55832410 2.51262665
-0.25165612 -2.09704113 -1.71797645
-0.27406487 2.43383193 -0.75349784
0.24167977 -0.89226997 2.90180755
1.25252175 0.31182167 0.02143580
1.18119526 0.04792829 -1.11059046
0.25235716 0.45909464 -3.04455781
0.68705398 1.50004828 -1.90436959
-0.00663839 2.43053389 1.03283584
-0.70084387 -0.62179786 -2.51554823
0.20774730 2.15854764 -1.63672030
-0.48427764 1.20816755 2.51302814
-0.59147954 0.86549920 2.58127022
1.19737625 0.75158828 -0.38923043
0.19515902 -2.53621054 -0.17370398
0.89249450 1.14182580 1.73894858
-0.56241351 -2.07834435 -1.21690214
-0.52396297 1.59615910 2.10243726
0.56500089 2.06423712 -1.24382877
1.11793685 -0.60039854 1.26764262
-1.08632946 -0.26781106 1.57655764
-0.43795839 -1.94396949 1.75368214
-0.08705638 1.85566258 2.17683673
0.11350969 1.41960609 2.62019658
0.42637324 2.42005849 0.00544008
1.07948685 -0.38285750 1.56865597
0.91005129 -1.50829530 1.16679215
-1.05836701 1.27403951 0.71690059
0.24802254 -2.06934977 1.77038169
1.13656712 0.48855096 -1.23521614
0.42946252 -1.91563022 1.81390071
-0.51366222 0.18912663 2.87727928
0.23150253 -1.89642787 -2.05413342
-0.36209783 -0.88651437 2.82459903
-1.10742795 1.23243928 0.04207726
0.23811784 -1.23585618 -2.70702219
0.18754768 1.46648657 -2.55298400
-0.69935268 -1.81458068 1.39528191
0.82056683 0.91758072 2.12011147
-0.21842647 -2.45159864 -0.77925575
1.05132651 1.19832802 -0.94104344
-0.69937247 -2.10351825 0.48572803
0.14682324 -0.27490267 3.12094951
-0.81706214 1.72554874 1.14305413
-0.89721692 0.54125649 2.12065053
-1.17308331 -0.28885171 1.11104286
0.99380308 1.35677922 1.01025450
0.50564820 2.02963805 1.47060144
-0.77821654 0.40565374 2.43774152
0.30238917 1.71438849 2.23065829
0.53129393 0.74767560 -2.71555495
-0.70546192 0.07587220 -2.61935234
-0.86026329 -1.82227457 -0.57643127
0.22341405 0.87297666 2.92007756
-0.64344245 2.20988154 0.11625470
-0.72442466 -1.15021682 -2.16770768
0.42729971 -1.19591713 -2.58530617
0.83733213 1.92334569 -0.09286194
-0.53409022 1.82193196 1.78406549
-1.16041470 -0.67832953 0.92118895
-0.04904084 2.36726022 -1.22692382
-0.20734830 0.33473295 -3.09031916
-1.01175177 -1.37962818 -0.83291763
0.81164992 -1.96861947 -0.06549110
-0.49606219 -0.15806356 2.89966130
0.04634777 -2.43629885 1.00819230
0.44835523 1.97971022 -1.67629147
-0.67524433 2.03216887 0.94314432
-0.57421964 -2.28027058 -0.25834176
1.11786926 1.19197500 0.09049006
-0.88391721 1.60728693 -1.08852243
1.25151789 -0.32827368 -0.07271793
-0.28381619 -1.88828743 2.02376294
-1.04160523 0.07091149 1.78214645
-0.61981863 1.23822010 -2.29438949
0.43935665 -0.16575928 2.95572925
-0.06167444 -2.50986242 0.67019349
-0.19872823 -0.54802030 -3.04728842
0.99828380 -1.39340103 -0.89823502
-0.19296533 -1.84612060 -2.14647985
0.01807313 -1.72964442 2.33827662
-0.14376453 -2.55488992 -0.02773247
-0.14902973 1.83662510 -2.18071866
1.19089568 0.73678005 0.52875888
-0.84765363 -1.54667234 1.36640859
0.13967489 2.37192559 -1.16999912
-0.19985671 -1.24414825 2.72024393
-0.85440177 -0.06099554 -2.32549953
0.42287463 1.77579975 -2.02513552
-1.02261710 0.93888545 -1.45067155
0.43355045 1.04800153 2.67394280
0.87050653 -1.02986681 -1.90571773
-0.08922288 -0.53998756 3.08165836
0.26432613 1.80152428 -2.15573978
-0.89092499 0.79712963 -2.01266980
-0.45742977 0.68616652 2.82203078
0.77076834 -1.83985662 1.07071567
0.05533882 0.59923911 -3.07048345
1.19059491 -0.83603972 0.20844102
-0.76780897 1.99260175 0.54613036
0.36451003 -2.44980955 -0.29748628
-0.12773407 -2.35817504 -1.21960568
0.00975381 1.17637503 2.80992556
0.43025464 1.43272567 2.39291048
0.04223818 1.27625072 -2.74136376
-0.31801599 -0.42314556 3.01426458
0.91045761 0.52678585 2.09157491
0.00995769 2.55120683 -0.39787230
-0.64484632 0.59135681 -2.61848831
0.33101574 0.79339439 -2.88949633
0.23388456 2.48785996 0.55020422
-0.94575828 -1.64079332 0.56126642
-0.91841781 1.27541804 1.49635196
-0.85151279 -0.38042036 2.28540683
0.68491101 -0.06405212 2.65325832
0.92062670 -0.14857359 2.15352535
-0.07667824 -2.14452815 1.73382127
-0.24211541 1.98514807 1.91462934
0.18299749 -2.45333433 -0.82868469
-0.92046958 0.87996930 1.87217939
-0.66545838 1.34488058 2.11643624
0.69405317 0.19350831 -2.62901282
0.12063497 -1.50767291 2.54225707
0.90750182 0.18409933 2.18532968
0.06374966 1.85034060 -2.18904948
-0.74624437 -1.53885293 1.70920634
-1.13872612 -0.95165241 -0.70114607
-0.37703362 2.25613189 1.18622482
0.97104836 -1.59736586 0.46769136
0.77063519 1.97750413 -0.59739774
-0.09322800 -0.89892507 -2.95178843
-0.12460775 2.55864024 0.01025449
0.64389116 -0.67019868 2.59030366
0.37546557 0.21617872 -3.00552249
0.97501874 1.58429480 -0.48191249
-0.72962427 1.61118066 1.65154433
-1.25531602 -0.04438500 0.32085288
0.57906902 -2.26740432 0.34966522
0.13011807 1.77142119 2.26728821
-0.31572926 0.34253299 3.03088474
0.61013877 -2.24143529 -0.25485200
0.50213617 -1.65794313 2.06257105
-0.22039351 0.96870542 -2.87485361
3 249 48 83
3 64 0 62
3 220 34 37
3 64 62 204
3 204 191 64
3 51 191 204
3 213 27 253
3 21 48 249
3 104 24 232
3 40 205 155
3 7 151 128
3 128 151 1
3 115 111 220
3 220 111 244
3 244 34 220
3 113 26 215
3 117 184 66
3 66 51 118
3 184 51 66
3 117 196 30
3 30 184 117
3 30 196 1
3 64 191 84
3 84 0 64
3 84 27 0
3 46 191 79
3 79 191 51
3 79 51 184
3 168 87 100
3 100 23 168
3 168 23 73
3 168 73 122
3 122 87 168
3 25 152 194
3 32 87 192
3 100 87 32
3 32 129 100
3 145 62 0
3 0 27 145
3 220 37 198
3 99 70 207
3 78 246 234
3 246 163 234
3 118 51 108
3 51 204 108
3 126 196 117
3 117 66 126
3 126 66 29
3 148 145 192
3 107 174 41
3 122 164 41
3 81 174 210
3 210 174 107
3 210 97 81
3 38 204 62
3 38 148 97
3 38 246 78
3 38 97 246
3 73 33 105
3 207 70 105
3 112 86 90
3 146 177 90
3 231 213 127
3 27 213 231
3 134 45 67
3 67 229 134
3 185 86 134
3 134 229 185
3 249 83 94
3 112 90 98
3 150 45 134
3 175 23 100
3 11 183 50
3 47 24 104
3 47 21 249
3 104 21 47
3 186 232 24
3 186 133 9
3 24 133 186
3 31 40 155
3 215 26 88
3 136 113 215
3 251 113 136
3 7 128 91
3 212 167 11
3 225 232 233
3 104 232 225
3 225 140 104
3 44 183 11
3 11 167 44
3 44 167 111
3 121 34 110
3 34 244 110
3 111 167 110
3 110 244 111
3 218 177 146
3 121 110 240
3 233 124 130
3 56 16 192
3 192 145 56
3 56 231 16
3 56 145 27
3 27 231 56
3 129 32 22
3 22 214 152
3 152 25 22
3 22 25 129
3 107 41 221
3 221 41 164
3 164 70 221
3 70 99 221
3 20 69 120
3 120 42 20
3 120 69 36
3 20 42 153
3 153 126 29
3 101 69 20
3 36 69 101
3 101 163 36
3 101 234 163
3 62 145 169
3 145 148 169
3 169 38 62
3 148 38 169
3 192 87 243
3 243 148 192
3 97 148 243
3 89 174 81
3 89 41 174
3 222 163 246
3 255 210 107
3 107 221 255
3 65 38 78
3 204 38 65
3 65 108 204
3 122 73 200
3 73 105 200
3 200 164 122
3 200 70 164
3 200 105 70
3 80 98 226
3 226 98 90
3 9 133 226
3 226 133 80
3 178 141 229
3 229 67 178
3 49 127 194
3 49 231 127
3 194 152 49
3 152 214 49
3 49 214 16
3 16 231 49
3 254 77 102
3 102 77 245
3 86 185 199
3 146 90 199
3 199 90 86
3 85 150 134
3 85 86 112
3 134 86 85
3 23 175 61
3 73 23 61
3 61 33 73
3 48 33 61
3 11 50 147
3 147 50 21
3 147 140 11
3 147 21 104
3 104 140 147
3 202 183 207
3 202 50 183
3 202 33 48
3 48 21 202
3 21 50 202
3 207 105 202
3 202 105 33
3 158 133 24
3 158 47 249
3 24 47 158
3 249 94 158
3 26 124 208
3 208 88 26
3 232 186 157
3 9 161 157
3 157 186 9
3 57 157 161
3 233 232 57
3 232 157 57
3 3 31 188
3 188 31 155
3 166 88 40
3 3 203 166
3 215 88 166
3 166 31 3
3 40 31 166
3 166 136 215
3 203 136 166
3 216 136 203
3 216 203 7
3 106 170 63
3 92 170 242
3 180 212 156
3 140 225 156
3 2 110 167
3 2 212 180
3 167 212 2
3 180 240 2
3 2 240 110
3 230 240 171
3 121 240 230
3 93 30 1
3 129 25 72
3 58 82 224
3 114 32 192
3 114 22 32
3 192 16 114
3 16 214 114
3 214 22 114
3 237 206 149
3 123 206 237
3 123 237 19
3 19 18 115
3 95 18 19
3 8 120 36
3 149 206 8
3 8 222 149
3 36 163 8
3 163 222 8
3 42 120 131
3 242 170 247
3 247 42 242
3 247 153 42
3 142 101 20
3 108 101 142
3 20 153 142
3 142 153 29
3 118 108 142
3 142 66 118
3 29 66 142
3 234 101 109
3 109 101 108
3 108 65 109
3 78 234 109
3 109 65 78
3 81 97 190
3 97 243 190
3 190 89 81
3 41 89 190
3 122 41 190
3 190 87 122
3 190 243 87
3 119 222 246
3 210 222 119
3 246 97 119
3 97 210 119
3 149 222 217
3 217 222 210
3 210 255 217
3 217 237 149
3 10 18 95
3 183 18 10
3 60 177 144
3 144 161 60
3 60 90 177
3 60 226 90
3 60 161 9
3 9 226 60
3 189 178 67
3 189 45 194
3 189 67 45
3 194 127 189
3 127 178 189
3 176 84 191
3 176 191 46
3 253 27 176
3 27 84 176
3 46 241 176
3 241 75 176
3 209 139 254
3 209 241 139
3 209 75 241
3 141 14 143
3 143 209 254
3 14 209 143
3 253 176 250
3 250 176 75
3 250 213 253
3 75 209 250
3 250 209 14
3 141 178 52
3 52 14 141
3 52 250 14
3 52 178 127
3 127 213 52
3 213 250 52
3 254 139 55
3 55 77 254
3 139 132 55
3 138 77 55
3 55 132 138
3 146 199 12
3 12 218 146
3 205 218 12
3 193 199 185
3 80 133 172
3 172 17 80
3 133 158 172
3 94 17 172
3 172 158 94
3 197 98 80
3 80 17 197
3 224 150 197
3 197 17 224
3 239 61 175
3 175 58 239
3 239 83 48
3 48 61 239
3 239 94 83
3 125 161 144
3 144 208 125
3 125 57 161
3 125 208 124
3 125 124 233
3 233 57 125
3 252 208 144
3 88 208 252
3 144 177 252
3 177 218 252
3 40 88 252
3 205 40 252
3 252 218 205
3 251 136 162
3 136 216 162
3 106 63 159
3 159 63 91
3 1 196 159
3 196 106 159
3 159 128 1
3 159 91 128
3 170 92 13
3 59 63 13
3 13 63 170
3 13 74 59
3 180 156 103
3 103 240 180
3 171 240 103
3 140 156 39
3 39 156 212
3 11 140 39
3 39 212 11
3 135 113 251
3 121 230 135
3 171 130 35
3 35 230 171
3 35 124 26
3 35 130 124
3 35 135 230
3 26 113 35
3 113 135 35
3 139 241 211
3 211 132 139
3 211 241 46
3 46 79 211
3 211 79 184
3 184 30 96
3 96 211 184
3 132 211 96
3 138 132 96
3 30 93 96
3 96 93 138
3 181 72 25
3 82 72 181
3 100 129 6
3 129 72 6
3 6 175 100
3 53 17 94
3 94 239 53
3 53 239 58
3 224 17 53
3 53 58 224
3 183 44 71
3 71 18 183
3 115 18 71
3 111 115 71
3 71 44 111
3 173 198 123
3 123 19 173
3 173 19 115
3 173 115 220
3 220 198 173
3 242 42 5
3 42 131 5
3 5 92 242
3 123 198 28
3 28 5 131
3 28 198 37
3 37 5 28
3 179 131 120
3 179 28 131
3 179 206 123
3 123 28 179
3 182 170 106
3 182 247 170
3 182 106 196
3 196 126 182
3 126 153 182
3 153 247 182
3 237 217 195
3 95 19 195
3 195 19 237
3 195 217 255
3 195 10 95
3 255 10 195
3 187 255 221
3 187 10 255
3 187 221 99
3 187 99 207
3 207 183 187
3 183 10 187
3 229 141 76
3 141 193 76
3 76 185 229
3 76 193 185
3 4 12 199
3 155 205 4
3 205 12 4
3 150 85 238
3 238 197 150
3 238 85 112
3 112 98 238
3 98 197 238
3 59 74 160
3 7 91 160
3 160 216 7
3 160 162 216
3 160 63 59
3 91 63 160
3 137 5 37
3 92 5 137
3 248 156 225
3 248 103 156
3 248 225 233
3 171 103 248
3 233 130 248
3 248 130 171
3 227 188 245
3 3 188 227
3 1 151 219
3 219 93 1
3 219 236 93
3 82 181 154
3 224 82 154
3 45 150 154
3 154 150 224
3 175 6 165
3 165 6 72
3 165 58 175
3 165 72 82
3 82 58 165
3 120 8 201
3 201 179 120
3 201 8 206
3 206 179 201
3 155 4 116
3 116 188 155
3 116 102 245
3 245 188 116
3 199 193 235
3 235 4 199
3 254 102 235
3 102 116 235
3 235 116 4
3 235 193 141
3 235 143 254
3 141 143 235
3 68 160 74
3 162 160 68
3 251 162 68
3 68 74 121
3 121 135 68
3 68 135 251
3 223 34 121
3 121 74 223
3 223 37 34
3 223 137 37
3 228 227 245
3 236 227 228
3 245 77 228
3 228 77 138
3 138 93 228
3 93 236 228
3 43 227 236
3 236 219 43
3 3 227 43
3 43 219 151
3 43 203 3
3 43 151 7
3 7 203 43
3 45 154 15
3 15 154 181
3 194 45 15
3 15 25 194
3 15 181 25
3 137 223 54
3 54 13 92
3 92 137 54
3 74 13 54
3 54 223 74