ply
format ascii 1.0
comment https://github.com/mikedh/trimesh
element vertex 256
property float x
property float y
property float z
element face 508
property list uchar int vertex_indices
end_header
2.33381915 -1.39674664 -1.09847188
3.55490875 0.66883796 1.09850907
-2.02179337 1.79231274 0.42738500
1.79507565 0.30633315 1.90847623
0.22931026 -0.77297926 1.95181406
2.15744686 1.72334409 -0.56096047
-2.55901980 -1.53963697 -0.72568399
2.15445757 1.02017045 1.52917659
1.76303947 1.14149368 -1.54952526
-3.36593509 -0.03390587 1.40118206
-1.67475438 1.32455671 -1.41175234
-3.40730095 1.34691608 0.02065090
-0.35839009 -0.71640748 1.96987927
1.96166790 1.81953752 0.36684215
1.92377317 -1.74403501 0.67019027
-1.74599063 -1.89051604 0.18215632
-0.09408835 -1.79199767 -1.03922307
-3.91369557 -0.89818776 0.49346408
-1.82335556 1.64876616 -0.93197978
-0.82466131 1.75772870 -1.03003049
3.29824018 0.96800536 -1.03886497
-4.34204578 0.54653651 0.00006550
-1.07691181 -1.81106937 -0.87034112
-3.27053714 -0.94248533 -1.08191121
-4.03110266 0.04667079 0.93951356
-1.50011015 -1.90221679 -0.40088591
-0.77007568 1.15929008 1.70518637
2.03223705 -1.71619534 -0.67520499
1.13931811 1.79571390 -0.88566017
4.19945860 0.51194316 -0.55242246
4.41498518 0.24051963 0.33294129
0.95166087 0.10987264 2.05793071
-1.71374714 -1.44974542 -1.26473641
-3.94806242 -0.19607949 -0.99384677
-0.09279896 2.04163980 0.27846810
-0.88977212 1.38997781 1.49918866
2.34124613 0.85381943 -1.57477558
0.67248219 2.02309203 -0.24128683
1.93881297 -0.64639062 -1.78451622
-3.29887080 1.35160971 0.38249907
0.42155081 0.31284770 2.07477283
-1.73770940 -0.15083548 -1.93956387
3.00879979 1.29410660 -0.84040540
2.52823496 0.30978563 1.71575785
-2.32858300 1.74639833 -0.25051057
-1.57206333 -1.88083613 0.44527063
3.96734524 -0.95119244 -0.21531598
-4.28923893 0.42322519 0.47574356
-4.31198788 -0.12130971 -0.59505099
0.04762213 -1.96959949 -0.61595476
-3.60778451 1.09123266 -0.58723497
4.19482136 -0.39146388 -0.65514129
1.46384239 -1.88229930 0.51342171
-3.90454340 -1.02038407 0.11759915
1.44622564 1.93056083 0.28861633
3.32153487 -0.91901863 1.06972349
0.35623226 -1.65430701 -1.24554479
-2.72192430 0.75786459 1.48994601
-3.52129936 -1.27639294 -0.15317905
2.23238850 1.63991952 0.73094296
-2.73129988 -0.09549119 1.67420042
-3.78418422 -0.82635432 -0.76958591
2.04203725 -1.20726216 -1.41580260
2.85753584 1.41249323 0.75182426
2.89235139 -1.17661130 -1.07756579
2.95073390 -0.41054830 -1.53704667
4.40656042 0.20177211 -0.38499793
-0.83128822 -1.87352216 0.78578526
1.09717762 1.71065426 1.05783749
2.96145678 0.94782811 -1.25757265
-3.00015283 0.25867608 -1.55056584
-2.10429621 1.73657668 -0.56417567
-2.57336092 -1.63117194 -0.45418409
-3.25795174 -0.65370744 -1.29294395
1.21737170 1.83151782 0.77947408
3.06324244 -1.49253392 0.23141679
0.07023365 -1.58323240 1.34828746
2.80853033 -0.85550350 1.39727163
2.55356979 -0.27985248 -1.71292865
4.15106392 -0.72342855 -0.34571010
-3.21863842 -0.62666202 1.32806623
-0.49798939 -0.17305537 -2.08837700
-3.12447309 -1.47954667 -0.10486206
-4.35416603 -0.42811126 -0.31099910
2.86853814 -1.36657989 -0.82726729
-2.17633295 -1.36477923 1.20641494
-1.59909713 -1.20857835 1.53489101
-1.73819542 -1.15726912 -1.54368126
-0.03844279 0.58684224 2.02134204
-1.16637051 -0.17149918 -2.02904153
-1.74687040 -0.89165062 1.71567416
3.06653070 1.14138663 1.00941622
2.06026459 1.83162689 0.03353397
3.79423285 0.02318978 1.13593459
-4.34520006 -0.50644779 0.19135211
-1.17773664 1.51093602 -1.32322633
4.33017683 -0.16208898 0.55464214
0.19245921 -0.34403488 -2.07701015
-2.86630321 -0.87323523 1.35832536
-2.74707103 0.63511443 -1.53986204
-2.70230722 -1.24661875 -1.10253787
2.85309005 0.61345762 -1.50570190
1.50783479 -0.89616501 1.76236796
-2.41928363 1.51022613 0.87937385
-4.01565123 0.69552469 0.63524437
-3.44129848 -0.09356301 -1.35640883
3.76924920 1.05072856 0.41819224
-0.99429393 0.49618599 -1.99290156
3.80972886 -0.07590020 -1.12187815
2.90180349 -0.03844092 -1.61247098
-1.12401247 1.98907971 0.16064648
-1.02957964 1.99459064 -0.20871952
-2.44794250 -1.05859792 1.39998710
-0.14369075 1.24831617 1.67648983
-0.89794922 -1.67986250 -1.14627850
-0.97790724 1.94965315 -0.50275332
0.86235207 -0.71476471 1.93616140
4.46919775 0.24978887 0.01430252
4.21469307 0.03839359 -0.74101478
0.90045071 0.36776382 -2.03140807
2.45151854 1.20163357 -1.27064490
-0.02368683 1.94701135 0.68913490
-2.50072289 -0.49809939 -1.67843914
0.74127555 1.72913313 -1.09206235
-1.72798002 0.96781856 1.67675769
-2.11049342 0.69331962 1.72229064
4.27242994 0.60206974 -0.25970465
0.69635856 -2.03166509 -0.11589982
3.18456292 0.91467464 1.16027176
-2.00678110 -1.66488528 -0.81194878
-1.86958361 1.27862442 1.40280080
2.01601338 1.65358448 -0.82991487
3.98897743 -0.48095718 0.84580410
-3.87619686 -0.21453358 1.05192029
-1.56270552 -1.55724251 1.17010224
-0.31063104 1.48650312 1.45244205
0.40502071 1.13719428 1.74826324
1.52136791 1.93861985 0.00362976
3.85178137 -0.30669308 1.04664803
3.24720836 -1.20823991 0.77851409
-3.77642274 1.02058625 0.47833472
0.88498408 -1.65768003 1.18124473
4.05545282 0.39136019 -0.82416832
1.53239083 -1.53454089 1.21028173
-1.83282888 0.15150239 1.91979539
0.82603806 -1.51915872 -1.37057126
-1.29202294 -0.71015406 1.88464594
-3.95147991 0.98726177 0.02807504
0.84964252 -0.98999894 -1.80619562
0.66920012 1.17474854 -1.70341730
-2.49540210 -1.45359385 0.93096840
2.92791367 0.73504019 1.41459346
-0.77938050 -1.96388555 -0.51993972
3.75130105 0.95993656 -0.62788862
-2.49547267 -1.68505108 0.32409036
0.52388883 -0.22021441 2.08237863
-2.91540837 1.38227367 0.76267546
-3.20141339 0.43358067 1.41495323
-4.18574858 -0.23138848 0.74131668
3.54604816 1.08686590 0.67406803
1.80423355 1.62586832 0.98122352
-2.77680087 0.32495430 1.62652457
1.07897294 1.37333357 1.48835313
1.89574158 0.59893543 -1.81188881
-2.51720071 0.06077843 -1.74769986
-3.06955671 -1.45975721 -0.38460991
0.79717702 0.69930947 1.94835174
-2.29590559 1.77025485 0.07756816
-2.58486295 -0.92139637 -1.44635081
1.52467358 -0.95800525 -1.72498357
2.98773479 1.54072154 -0.06195990
-1.90571916 1.45948279 1.19037485
-4.14054489 -0.54338485 0.61464119
-0.17498556 1.89632511 -0.81863540
-0.73985189 0.26814225 -2.06194139
-3.61009216 -1.10516942 -0.55574429
2.89609671 -1.57698870 -0.04369736
-1.77002919 -0.12661891 1.93472934
0.16537628 -1.95162952 0.67269212
1.59980309 1.58587313 -1.11846519
-2.40937948 1.62789583 0.62929040
-2.04890752 -1.82664096 -0.17237233
3.98873615 0.95484740 0.06037732
-3.15395784 1.28753853 -0.72629046
4.46561575 -0.26296797 -0.04851930
-1.01270151 -1.51263773 1.35030723
-3.71661401 0.05680459 1.18909442
-2.21161175 0.99189258 -1.53087628
1.56769478 -0.13278367 1.97213936
-0.22006427 -2.01055861 0.44717053
-0.70909411 -0.43899891 -2.03323007
3.56203604 -1.11620235 -0.59932578
-0.68853110 -1.47885931 -1.43218708
0.06448781 -1.38555455 1.56015885
-0.51297480 -2.04662848 -0.01850382
-0.53176194 1.47125280 -1.45503211
4.24930620 0.59020740 0.35280165
-3.02456379 -1.23898244 0.91170329
0.49838233 1.90006244 -0.78065383
-0.71312064 -0.99664140 1.81501734
-3.04864192 -0.04886129 -1.55163372
1.50888419 1.42252791 -1.35122299
-3.64886093 0.75210661 -0.96792579
1.54697728 0.83951551 1.78412414
3.10610628 -0.82498842 -1.27154446
-0.31836149 -0.43256420 2.05616260
0.94315785 1.44313490 -1.43836558
-3.17896271 0.63855124 -1.34290564
-1.63218248 0.54966277 1.88293231
2.75022459 -1.47384155 0.71440935
0.19745775 0.48002842 -2.04870629
4.24823284 -0.66972071 0.13907726
-2.73966503 1.59620011 0.36439237
1.30062997 -1.96245241 -0.19849057
-0.45577553 -1.88904738 -0.81375259
0.03480316 0.94235075 1.87485528
1.53521729 1.14770389 1.59661210
0.15071256 1.02235746 -1.82910907
-1.13473189 -0.33896634 2.01119566
3.24865818 0.42198876 1.39555311
0.03553062 2.04367805 -0.26547074
-2.30091476 0.47371423 -1.74712336
1.18111694 0.63555908 -1.92794704
0.83453745 1.99293315 0.36711058
-3.37461662 -1.31437922 0.37449154
-3.27706146 1.02169049 0.99840498
-3.03833365 -0.30474076 1.52488279
2.44387174 -0.05130980 1.77032292
3.28494310 -0.11901685 1.43688798
-0.27360022 -1.71790266 1.15685058
-0.86390644 1.59022915 1.27749050
0.65296429 -1.96527588 -0.55291998
-3.28438258 0.70491105 1.24916673
-2.37446189 1.07733440 1.41214132
2.47649264 0.15501240 -1.75414574
0.43044484 -1.20774138 1.69625998
3.23811150 0.14747520 1.45810878
0.22746895 1.48223984 -1.46059072
-2.66271901 -1.23271859 1.14042687
-4.06315660 -0.76233375 -0.46782288
-1.34531629 1.80730438 0.79148006
3.46485567 -1.27959108 0.31205583
2.74974942 1.58410585 -0.39859930
-0.33265239 -0.72009581 -1.96950996
-0.44462037 2.04963255 0.00684206
2.29750657 -0.53687155 1.72831798
1.33972120 0.17317282 -2.00536275
3.47902274 1.26912034 -0.32154453
-2.60341597 1.29065764 1.10195327
-4.47916794 -0.03555519 0.21408138
2.06621075 -1.81633413 0.23330572
0.46428207 1.41902041 1.51279366
-1.12657249 0.27439061 2.02228498
2.17707253 -1.79553139 -0.17004387
1.79170215 -1.32811725 1.37620103
-0.78639925 0.77599430 -1.91817701
3 249 48 83
3 64 0 62
3 220 34 37
3 64 62 204
3 204 191 64
3 51 191 204
3 213 27 253
3 21 48 249
3 104 24 232
3 40 205 155
3 7 151 128
3 128 151 1
3 115 111 220
3 220 111 244
3 244 34 220
3 113 26 215
3 117 184 66
3 66 51 118
3 184 51 66
3 117 196 30
3 30 184 117
3 30 196 1
3 64 191 84
3 84 0 64
3 84 27 0
3 46 191 79
3 79 191 51
3 79 51 184
3 168 87 100
3 100 23 168
3 168 23 73
3 168 73 122
3 122 87 168
3 25 152 194
3 32 87 192
3 100 87 32
3 32 129 100
3 145 62 0
3 0 27 145
3 220 37 198
3 99 70 207
3 78 246 234
3 246 163 234
3 118 51 108
3 51 204 108
3 126 196 117
3 117 66 126
3 126 66 29
3 148 145 192
3 107 174 41
3 122 164 41
3 81 174 210
3 210 174 107
3 210 97 81
3 38 204 62
3 38 148 97
3 38 246 78
3 38 97 246
3 73 33 105
3 207 70 105
3 112 86 90
3 146 177 90
3 231 213 127
3 27 213 231
3 134 45 67
3 67 229 134
3 185 86 134
3 134 229 185
3 249 83 94
3 112 90 98
3 150 45 134
3 175 23 100
3 11 183 50
3 47 24 104
3 47 21 249
3 104 21 47
3 186 232 24
3 186 133 9
3 24 133 186
3 31 40 155
3 215 26 88
3 136 113 215
3 251 113 136
3 7 128 91
3 212 167 11
3 225 232 233
3 104 232 225
3 225 140 104
3 44 183 11
3 11 167 44
3 44 167 111
3 121 34 110
3 34 244 110
3 111 167 110
3 110 244 111
3 218 177 146
3 121 110 240
3 233 124 130
3 56 16 192
3 192 145 56
3 56 231 16
3 56 145 27
3 27 231 56
3 129 32 22
3 22 214 152
3 152 25 22
3 22 25 129
3 107 41 221
3 221 41 164
3 164 70 221
3 70 99 221
3 20 69 120
3 120 42 20
3 120 69 36
3 20 42 153
3 153 126 29
3 101 69 20
3 36 69 101
3 101 163 36
3 101 234 163
3 62 145 169
3 145 148 169
3 169 38 62
3 148 38 169
3 192 87 243
3 243 148 192
3 97 148 243
3 89 174 81
3 89 41 174
3 222 163 246
3 255 210 107
3 107 221 255
3 65 38 78
3 204 38 65
3 65 108 204
3 122 73 200
3 73 105 200
3 200 164 122
3 200 70 164
3 200 105 70
3 80 98 226
3 226 98 90
3 9 133 226
3 226 133 80
3 178 141 229
3 229 67 178
3 49 127 194
3 49 231 127
3 194 152 49
3 152 214 49
3 49 214 16
3 16 231 49
3 254 77 102
3 102 77 245
3 86 185 199
3 146 90 199
3 199 90 86
3 85 150 134
3 85 86 112
3 134 86 85
3 23 175 61
3 73 23 61
3 61 33 73
3 48 33 61
3 11 50 147
3 147 50 21
3 147 140 11
3 147 21 104
3 104 140 147
3 202 183 207
3 202 50 183
3 202 33 48
3 48 21 202
3 21 50 202
3 207 105 202
3 202 105 33
3 158 133 24
3 158 47 249
3 24 47 158
3 249 94 158
3 26 124 208
3 208 88 26
3 232 186 157
3 9 161 157
3 157 186 9
3 57 157 161
3 233 232 57
3 232 157 57
3 3 31 188
3 188 31 155
3 166 88 40
3 3 203 166
3 215 88 166
3 166 31 3
3 40 31 166
3 166 136 215
3 203 136 166
3 216 136 203
3 216 203 7
3 106 170 63
3 92 170 242
3 180 212 156
3 140 225 156
3 2 110 167
3 2 212 180
3 167 212 2
3 180 240 2
3 2 240 110
3 230 240 171
3 121 240 230
3 93 30 1
3 129 25 72
3 58 82 224
3 114 32 192
3 114 22 32
3 192 16 114
3 16 214 114
3 214 22 114
3 237 206 149
3 123 206 237
3 123 237 19
3 19 18 115
3 95 18 19
3 8 120 36
3 149 206 8
3 8 222 149
3 36 163 8
3 163 222 8
3 42 120 131
3 242 170 247
3 247 42 242
3 247 153 42
3 142 101 20
3 108 101 142
3 20 153 142
3 142 153 29
3 118 108 142
3 142 66 118
3 29 66 142
3 234 101 109
3 109 101 108
3 108 65 109
3 78 234 109
3 109 65 78
3 81 97 190
3 97 243 190
3 190 89 81
3 41 89 190
3 122 41 190
3 190 87 122
3 190 243 87
3 119 222 246
3 210 222 119
3 246 97 119
3 97 210 119
3 149 222 217
3 217 222 210
3 210 255 217
3 217 237 149
3 10 18 95
3 183 18 10
3 60 177 144
3 144 161 60
3 60 90 177
3 60 226 90
3 60 161 9
3 9 226 60
3 189 178 67
3 189 45 194
3 189 67 45
3 194 127 189
3 127 178 189
3 176 84 191
3 176 191 46
3 253 27 176
3 27 84 176
3 46 241 176
3 241 75 176
3 209 139 254
3 209 241 139
3 209 75 241
3 141 14 143
3 143 209 254
3 14 209 143
3 253 176 250
3 250 176 75
3 250 213 253
3 75 209 250
3 250 209 14
3 141 178 52
3 52 14 141
3 52 250 14
3 52 178 127
3 127 213 52
3 213 250 52
3 254 139 55
3 55 77 254
3 139 132 55
3 138 77 55
3 55 132 138
3 146 199 12
3 12 218 146
3 205 218 12
3 193 199 185
3 80 133 172
3 172 17 80
3 133 158 172
3 94 17 172
3 172 158 94
3 197 98 80
3 80 17 197
3 224 150 197
3 197 17 224
3 239 61 175
3 175 58 239
3 239 83 48
3 48 61 239
3 239 94 83
3 125 161 144
3 144 208 125
3 125 57 161
3 125 208 124
3 125 124 233
3 233 57 125
3 252 208 144
3 88 208 252
3 144 177 252
3 177 218 252
3 40 88 252
3 205 40 252
3 252 218 205
3 251 136 162
3 136 216 162
3 106 63 159
3 159 63 91
3 1 196 159
3 196 106 159
3 159 128 1
3 159 91 128
3 170 92 13
3 59 63 13
3 13 63 170
3 13 74 59
3 180 156 103
3 103 240 180
3 171 240 103
3 140 156 39
3 39 156 212
3 11 140 39
3 39 212 11
3 135 113 251
3 121 230 135
3 171 130 35
3 35 230 171
3 35 124 26
3 35 130 124
3 35 135 230
3 26 113 35
3 113 135 35
3 139 241 211
3 211 132 139
3 211 241 46
3 46 79 211
3 211 79 184
3 184 30 96
3 96 211 184
3 132 211 96
3 138 132 96
3 30 93 96
3 96 93 138
3 181 72 25
3 82 72 181
3 100 129 6
3 129 72 6
3 6 175 100
3 53 17 94
3 94 239 53
3 53 239 58
3 224 17 53
3 53 58 224
3 183 44 71
3 71 18 183
3 115 18 71
3 111 115 71
3 71 44 111
3 173 198 123
3 123 19 173
3 173 19 115
3 173 115 220
3 220 198 173
3 242 42 5
3 42 131 5
3 5 92 242
3 123 198 28
3 28 5 131
3 28 198 37
3 37 5 28
3 179 131 120
3 179 28 131
3 179 206 123
3 123 28 179
3 182 170 106
3 182 247 170
3 182 106 196
3 196 126 182
3 126 153 182
3 153 247 182
3 237 217 195
3 95 19 195
3 195 19 237
3 195 217 255
3 195 10 95
3 255 10 195
3 187 255 221
3 187 10 255
3 187 221 99
3 187 99 207
3 207 183 187
3 183 10 187
3 229 141 76
3 141 193 76
3 76 185 229
3 76 193 185
3 4 12 199
3 155 205 4
3 205 12 4
3 150 85 238
3 238 197 150
3 238 85 112
3 112 98 238
3 98 197 238
3 59 74 160
3 7 91 160
3 160 216 7
3 160 162 216
3 160 63 59
3 91 63 160
3 137 5 37
3 92 5 137
3 248 156 225
3 248 103 156
3 248 225 233
3 171 103 248
3 233 130 248
3 248 130 171
3 227 188 245
3 3 188 227
3 1 151 219
3 219 93 1
3 219 236 93
3 82 181 154
3 224 82 154
3 45 150 154
3 154 150 224
3 175 6 165
3 165 6 72
3 165 58 175
3 165 72 82
3 82 58 165
3 120 8 201
3 201 179 120
3 201 8 206
3 206 179 201
3 155 4 116
3 116 188 155
3 116 102 245
3 245 188 116
3 199 193 235
3 235 4 199
3 254 102 235
3 102 116 235
3 235 116 4
3 235 193 141
3 235 143 254
3 141 143 235
3 68 160 74
3 162 160 68
3 251 162 68
3 68 74 121
3 121 135 68
3 68 135 251
3 223 34 121
3 121 74 223
3 223 37 34
3 223 137 37
3 228 227 245
3 236 227 228
3 245 77 228
3 228 77 138
3 138 93 228
3 93 236 228
3 43 227 236
3 236 219 43
3 3 227 43
3 43 219 151
3 43 203 3
3 43 151 7
3 7 203 43
3 45 154 15
3 15 154 181
3 194 45 15
3 15 25 194
3 15 181 25
3 137 223 54
3 54 13 92
3 92 137 54
3 74 13 54
3 54 223 74