ply
format ascii 1.0
comment https://github.com/mikedh/trimesh
element vertex 256
property float x
property float y
property float z
element face 508
property list uchar int vertex_indices
end_header
0.98887420 -1.17828727 -0.89203995
1.50626826 0.56422776 0.89207023
-0.85666418 1.51198459 0.34706807
0.76060051 0.25842085 1.54982316
0.09716219 -0.65208071 1.58501661
0.91414255 1.45380294 -0.45554116
-1.08429515 -1.29882872 -0.58930880
0.91287601 0.86060977 1.24180388
0.74702626 0.96295738 -1.25832856
-1.42619717 -0.02860280 1.13786292
-0.70961857 1.11738825 -1.14644682
-1.44372451 1.13625050 0.01677005
-0.15185526 -0.60435718 1.59968698
0.83118808 1.53495121 0.29790282
0.81513155 -1.47125769 0.54424381
-0.73980242 -1.59482825 0.14792433
-0.03986664 -1.51171875 -0.84392565
-1.65829158 -0.75770593 0.40072915
-0.77258307 1.39088941 -0.75683618
-0.34942135 1.48280954 -0.83646059
1.39751375 0.81660366 -0.84363478
-1.83978987 0.46105501 0.00005319
-0.45630369 -1.52780747 -0.70678103
-1.38577569 -0.79507512 -0.87859154
-1.70803869 0.03937120 0.76295412
-0.63561916 -1.60469890 -0.32554886
-0.32629260 0.97797030 1.38473678
0.86108929 -1.44777226 -0.54831612
0.48274618 1.51485372 -0.71922123
1.77937353 0.43187225 -0.44860768
1.87069559 0.20290095 0.27037284
0.40323299 0.09268791 1.67119122
-0.72614038 -1.22299671 -1.02705908
-1.67285323 -0.16541152 -0.80707669
-0.03932031 1.72231543 0.22613658
-0.37700981 1.17257714 1.21745157
0.99202114 0.72027707 -1.27883363
0.28494081 1.70666862 -0.19594266
0.82150412 -0.54529136 -1.44915843
-1.39778101 1.14021003 0.31061739
0.17861740 0.26391649 1.68486822
-0.73629355 -0.12724394 -1.57506859
1.27487361 1.09170079 -0.68247104
1.07125115 0.26133335 1.39332163
-0.98665559 1.47325134 -0.20343302
-0.66610682 -1.58666229 0.36159250
1.68102372 -0.80242038 -0.17485242
-1.81741488 0.35703027 0.38633880
-1.82705390 -0.10233616 -0.48322520
0.02017821 -1.66154253 -0.50020057
-1.52867234 0.92055750 -0.47687799
1.77740884 -0.33023664 -0.53202295
0.62025201 -1.58789659 0.41693622
-1.65441358 -0.86079001 0.09549917
0.61278749 1.62860978 0.23437770
1.40738416 -0.77527875 0.86869419
0.15094095 -1.39556372 -1.01147401
-1.15332007 0.63933015 1.20994580
-1.49202740 -1.07675767 -0.12439266
0.94589651 1.38342655 0.59357947
-1.15729272 -0.08055581 1.35957396
-1.60341561 -0.69710767 -0.62496042
0.86524183 -1.01843917 -1.14973593
1.21078086 1.19157100 0.61053658
1.22553265 -0.99258238 -0.87506264
1.25027025 -0.34633616 -1.24819505
1.86712575 0.17021377 -0.31264666
-0.35222930 -1.58049226 0.63811547
0.46489063 1.44309783 0.85904193
1.25481367 0.79958224 -1.02124155
-1.27120984 0.21821761 -1.25917351
-0.89162189 1.46496594 -0.45815215
-1.09037161 -1.37604702 -0.36883089
-1.38044298 -0.55146378 -1.04996562
0.51581866 1.54505765 0.63299030
1.29794168 -1.25909293 0.18792747
0.02975905 -1.33560550 1.09490871
1.19001639 -0.72169775 1.13468742
1.08198583 -0.23608191 -1.39102411
1.75886798 -0.61028010 -0.28074205
-1.36378539 -0.52864838 1.07848752
-0.21100557 -0.14598849 -1.69591582
-1.32388604 -1.24813688 -0.08515571
-1.84492552 -0.36115214 -0.25255415
1.21544266 -1.15283871 -0.67180192
-0.92214489 -1.15131974 0.97969770
-0.67756146 -1.01954961 1.24644446
-0.73649949 -0.97626543 -1.25358272
-0.01628879 0.49505669 1.64147854
-0.49420866 -0.14467570 -1.64773095
-0.74017519 -0.75219125 1.39325368
1.29933512 0.96286702 0.81972033
0.87296498 1.54514968 0.02723205
1.60767341 0.01956276 0.92246246
-1.84112644 -0.42723641 0.15539199
-0.49902466 1.27461672 -1.07455719
1.83476090 -0.13673730 0.45041025
0.08154786 -0.29022580 -1.68668497
-1.21449566 -0.73665613 1.10306013
-1.16397524 0.53577882 -1.25048125
-1.14500809 -1.05164027 -0.89534193
1.20889699 0.51750922 -1.22274065
0.63889223 -0.75599957 1.43117249
-1.02508676 1.27401793 0.71411628
-1.70149171 0.58674055 0.51586515
-1.45812988 -0.07892921 -1.10150385
1.59708738 0.88638848 0.33960289
-0.42129725 0.41857958 -1.61838269
1.61423922 -0.06402896 -0.91104764
1.22953773 -0.03242853 -1.30944514
-0.47626096 1.67797601 0.13045676
-0.43624836 1.68262494 -0.16949561
-1.03723001 -0.89302701 1.13689256
-0.06088393 1.05307221 1.36143315
-0.38047454 -1.41712213 -0.93086255
-0.41435397 1.64471602 -0.40827271
0.36539149 -0.60297132 1.57230556
1.89366603 0.21072042 0.01161470
1.78582883 0.03238861 -0.60175854
0.38153446 0.31024340 -1.64965284
1.03874516 1.01369095 -1.03185713
-0.01003646 1.64248741 0.55962825
-1.05959380 -0.42019373 -1.36301613
0.31408957 1.45868659 -0.88683498
-0.73217106 0.81644607 1.36165071
-0.89424777 0.58488035 1.39862669
1.81029260 0.50790250 -0.21089929
0.29505756 -1.71390069 -0.09411918
1.34934711 0.77161419 0.94222599
-0.85030329 -1.40448737 -0.65936214
-0.79217064 1.07863998 1.13917744
0.85421515 1.39495420 -0.67395192
1.69018960 -0.40573266 0.68685514
-1.64240277 -0.18097927 0.85423666
-0.66214174 -1.31368065 0.95020914
-0.13161904 1.25400531 1.17948985
0.17161335 0.95933038 1.41971838
0.64462638 1.63540828 0.00294764
1.63205755 -0.25872448 0.84995526
1.37589097 -1.01926410 0.63221073
-1.60012698 0.86096054 0.38844299
0.37498102 -1.39840913 0.95925760
1.71835625 0.33014917 -0.66928530
0.64929700 -1.29452968 0.98283780
-0.77659708 0.12780653 1.55901515
0.35000470 -1.28155339 -1.11300468
-0.54744953 -0.59908181 1.53047121
-1.67430139 0.83284825 0.02279900
0.36000630 -0.83515728 -1.46676373
0.28355014 0.99101096 -1.38330019
-1.05733931 -1.22624326 0.75601482
1.24060094 0.62007558 1.14875400
-0.33023521 -1.65672231 -0.42222929
1.58948255 0.80979681 -0.50989181
-1.05736923 -1.42149925 0.26318523
0.22197954 -0.18577158 1.69104469
-1.23530221 1.16607797 0.61934859
-1.35648680 0.36576611 1.14904606
-1.77356446 -0.19519795 0.60200369
1.50251377 0.91687369 0.54739285
0.76448083 1.37157297 0.79682571
-1.17657220 0.27412954 1.32085764
0.45717701 1.15853620 1.20865226
0.80325419 0.50525844 -1.47138703
-1.06657577 0.05127233 -1.41926098
-1.30061722 -1.23144257 -0.31233156
0.33777589 0.58993340 1.58220494
-0.97280961 1.49337661 0.06299105
-1.09524524 -0.77728456 -1.17454326
0.64602709 -0.80816764 -1.40081358
1.26594806 1.29974365 -0.05031599
-0.80748177 1.23121107 0.96667200
-1.75441098 -0.45839626 0.49913388
-0.07414401 1.59972870 -0.66479218
-0.31348634 0.22620323 -1.67444801
-1.52965021 -0.93231440 -0.45130527
1.22711957 -1.33033836 -0.03548548
-0.74998790 -0.10681497 1.57114267
0.07007241 -1.64638317 0.54627550
0.67786056 1.33783329 -0.90827608
-1.02089024 1.37328339 0.51103014
-0.86815280 -1.54094362 -0.13997902
1.69008732 0.80550367 0.04903083
-1.33637929 1.08615994 -0.58980131
1.89214838 -0.22183824 -0.03940124
-0.42909682 -1.27605224 1.09654880
-1.57478511 0.04792002 0.96563214
-0.93709314 0.83675474 -1.24318421
0.66425580 -0.11201552 1.60152233
-0.09324453 -1.69609535 0.36313537
-0.30045381 -0.37033689 -1.65113246
1.50928819 -0.94162172 -0.48669660
-0.29174095 -1.24755704 -1.16304135
0.02732445 -1.16884565 1.26696384
-0.21735510 -1.72652376 -0.01502647
-0.22531550 1.24114025 -1.18159318
1.80049479 0.49789548 0.28650090
-1.28155303 -1.04519832 0.74037015
0.21117207 1.60288155 -0.63394839
-0.30215994 -0.84076083 1.47392774
-1.29175532 -0.04121910 -1.26004076
0.63933688 1.20003617 -1.09729254
-1.54607713 0.63447273 -0.78602695
0.65547746 0.70821035 1.44884002
1.31610382 -0.69595540 -1.03258765
-0.13489453 -0.36490861 1.66975522
0.39963013 1.21742010 -1.16805863
-1.34697413 0.53867811 -1.09053814
-0.69158018 0.46369231 1.52907968
1.16531146 -1.24332404 0.58015299
0.08366580 0.40494916 -1.66370034
1.80004013 -0.56497246 0.11294097
-1.16083717 1.34654498 0.29591343
0.55109644 -1.65551329 -0.16118895
-0.19311893 -1.59358931 -0.66082698
0.01474662 0.79496157 1.52252054
0.65049464 0.96819627 1.29656649
0.06385917 0.86245483 -1.48537123
-0.48080292 -0.28595003 1.63323891
1.37650526 0.35598725 1.13329184
0.01505486 1.72403479 -0.21558177
-0.97493207 0.39962253 -1.41879272
0.50045699 0.53615391 -1.56563497
0.35360605 1.68122673 0.29812080
-1.42987573 -1.10880256 0.30411470
-1.38854003 0.86189210 0.81077832
-1.28738749 -0.25707752 1.23831701
1.03550518 -0.04328464 1.43763244
1.39187968 -0.10040192 1.16685879
-0.11592852 -1.44921255 0.93944782
-0.36605012 1.34150791 1.03741622
0.27667078 -1.65789521 -0.44901171
-1.39164221 0.59465879 1.01441526
-1.00609517 0.90883297 1.14676261
1.04932714 0.13076754 -1.42449546
0.18238594 -1.01884353 1.37748790
1.37203634 0.12440921 1.18409157
0.09638201 1.25040889 -1.18610716
-1.12823403 -1.03991413 0.92611057
-1.72162044 -0.64310026 -0.37990659
-0.57003069 1.52463138 0.64274007
1.46811128 -1.07945549 0.25341231
1.16511011 1.33634233 -0.32369196
-0.14094980 -0.60746861 -1.59938705
-0.18839231 1.72905803 0.00555626
0.97348797 -0.45290166 1.40352142
0.56765997 0.14608757 -1.62850213
1.47411418 1.07062244 -0.26111782
-1.10310638 1.08879113 0.89486718
-1.89789069 -0.02999415 0.17384984
0.87548453 -1.53224885 0.18946141
0.19672328 1.19707727 1.22849977
-0.47734565 0.23147430 1.64224434
0.92245829 -1.51469970 -0.13808814
0.75917107 -1.12039196 1.11757660
-0.33320916 0.65462422 -1.55770087
3 249 48 83
3 64 0 62
3 220 34 37
3 64 62 204
3 204 191 64
3 51 191 204
3 213 27 253
3 21 48 249
3 104 24 232
3 40 205 155
3 7 151 128
3 128 151 1
3 115 111 220
3 220 111 244
3 244 34 220
3 113 26 215
3 117 184 66
3 66 51 118
3 184 51 66
3 117 196 30
3 30 184 117
3 30 196 1
3 64 191 84
3 84 0 64
3 84 27 0
3 46 191 79
3 79 191 51
3 79 51 184
3 168 87 100
3 100 23 168
3 168 23 73
3 168 73 122
3 122 87 168
3 25 152 194
3 32 87 192
3 100 87 32
3 32 129 100
3 145 62 0
3 0 27 145
3 220 37 198
3 99 70 207
3 78 246 234
3 246 163 234
3 118 51 108
3 51 204 108
3 126 196 117
3 117 66 126
3 126 66 29
3 148 145 192
3 107 174 41
3 122 164 41
3 81 174 210
3 210 174 107
3 210 97 81
3 38 204 62
3 38 148 97
3 38 246 78
3 38 97 246
3 73 33 105
3 207 70 105
3 112 86 90
3 146 177 90
3 231 213 127
3 27 213 231
3 134 45 67
3 67 229 134
3 185 86 134
3 134 229 185
3 249 83 94
3 112 90 98
3 150 45 134
3 175 23 100
3 11 183 50
3 47 24 104
3 47 21 249
3 104 21 47
3 186 232 24
3 186 133 9
3 24 133 186
3 31 40 155
3 215 26 88
3 136 113 215
3 251 113 136
3 7 128 91
3 212 167 11
3 225 232 233
3 104 232 225
3 225 140 104
3 44 183 11
3 11 167 44
3 44 167 111
3 121 34 110
3 34 244 110
3 111 167 110
3 110 244 111
3 218 177 146
3 121 110 240
3 233 124 130
3 56 16 192
3 192 145 56
3 56 231 16
3 56 145 27
3 27 231 56
3 129 32 22
3 22 214 152
3 152 25 22
3 22 25 129
3 107 41 221
3 221 41 164
3 164 70 221
3 70 99 221
3 20 69 120
3 120 42 20
3 120 69 36
3 20 42 153
3 153 126 29
3 101 69 20
3 36 69 101
3 101 163 36
3 101 234 163
3 62 145 169
3 145 148 169
3 169 38 62
3 148 38 169
3 192 87 243
3 243 148 192
3 97 148 243
3 89 174 81
3 89 41 174
3 222 163 246
3 255 210 107
3 107 221 255
3 65 38 78
3 204 38 65
3 65 108 204
3 122 73 200
3 73 105 200
3 200 164 122
3 200 70 164
3 200 105 70
3 80 98 226
3 226 98 90
3 9 133 226
3 226 133 80
3 178 141 229
3 229 67 178
3 49 127 194
3 49 231 127
3 194 152 49
3 152 214 49
3 49 214 16
3 16 231 49
3 254 77 102
3 102 77 245
3 86 185 199
3 146 90 199
3 199 90 86
3 85 150 134
3 85 86 112
3 134 86 85
3 23 175 61
3 73 23 61
3 61 33 73
3 48 33 61
3 11 50 147
3 147 50 21
3 147 140 11
3 147 21 104
3 104 140 147
3 202 183 207
3 202 50 183
3 202 33 48
3 48 21 202
3 21 50 202
3 207 105 202
3 202 105 33
3 158 133 24
3 158 47 249
3 24 47 158
3 249 94 158
3 26 124 208
3 208 88 26
3 232 186 157
3 9 161 157
3 157 186 9
3 57 157 161
3 233 232 57
3 232 157 57
3 3 31 188
3 188 31 155
3 166 88 40
3 3 203 166
3 215 88 166
3 166 31 3
3 40 31 166
3 166 136 215
3 203 136 166
3 216 136 203
3 216 203 7
3 106 170 63
3 92 170 242
3 180 212 156
3 140 225 156
3 2 110 167
3 2 212 180
3 167 212 2
3 180 240 2
3 2 240 110
3 230 240 171
3 121 240 230
3 93 30 1
3 129 25 72
3 58 82 224
3 114 32 192
3 114 22 32
3 192 16 114
3 16 214 114
3 214 22 114
3 237 206 149
3 123 206 237
3 123 237 19
3 19 18 115
3 95 18 19
3 8 120 36
3 149 206 8
3 8 222 149
3 36 163 8
3 163 222 8
3 42 120 131
3 242 170 247
3 247 42 242
3 247 153 42
3 142 101 20
3 108 101 142
3 20 153 142
3 142 153 29
3 118 108 142
3 142 66 118
3 29 66 142
3 234 101 109
3 109 101 108
3 108 65 109
3 78 234 109
3 109 65 78
3 81 97 190
3 97 243 190
3 190 89 81
3 41 89 190
3 122 41 190
3 190 87 122
3 190 243 87
3 119 222 246
3 210 222 119
3 246 97 119
3 97 210 119
3 149 222 217
3 217 222 210
3 210 255 217
3 217 237 149
3 10 18 95
3 183 18 10
3 60 177 144
3 144 161 60
3 60 90 177
3 60 226 90
3 60 161 9
3 9 226 60
3 189 178 67
3 189 45 194
3 189 67 45
3 194 127 189
3 127 178 189
3 176 84 191
3 176 191 46
3 253 27 176
3 27 84 176
3 46 241 176
3 241 75 176
3 209 139 254
3 209 241 139
3 209 75 241
3 141 14 143
3 143 209 254
3 14 209 143
3 253 176 250
3 250 176 75
3 250 213 253
3 75 209 250
3 250 209 14
3 141 178 52
3 52 14 141
3 52 250 14
3 52 178 127
3 127 213 52
3 213 250 52
3 254 139 55
3 55 77 254
3 139 132 55
3 138 77 55
3 55 132 138
3 146 199 12
3 12 218 146
3 205 218 12
3 193 199 185
3 80 133 172
3 172 17 80
3 133 158 172
3 94 17 172
3 172 158 94
3 197 98 80
3 80 17 197
3 224 150 197
3 197 17 224
3 239 61 175
3 175 58 239
3 239 83 48
3 48 61 239
3 239 94 83
3 125 161 144
3 144 208 125
3 125 57 161
3 125 208 124
3 125 124 233
3 233 57 125
3 252 208 144
3 88 208 252
3 144 177 252
3 177 218 252
3 40 88 252
3 205 40 252
3 252 218 205
3 251 136 162
3 136 216 162
3 106 63 159
3 159 63 91
3 1 196 159
3 196 106 159
3 159 128 1
3 159 91 128
3 170 92 13
3 59 63 13
3 13 63 170
3 13 74 59
3 180 156 103
3 103 240 180
3 171 240 103
3 140 156 39
3 39 156 212
3 11 140 39
3 39 212 11
3 135 113 251
3 121 230 135
3 171 130 35
3 35 230 171
3 35 124 26
3 35 130 124
3 35 135 230
3 26 113 35
3 113 135 35
3 139 241 211
3 211 132 139
3 211 241 46
3 46 79 211
3 211 79 184
3 184 30 96
3 96 211 184
3 132 211 96
3 138 132 96
3 30 93 96
3 96 93 138
3 181 72 25
3 82 72 181
3 100 129 6
3 129 72 6
3 6 175 100
3 53 17 94
3 94 239 53
3 53 239 58
3 224 17 53
3 53 58 224
3 183 44 71
3 71 18 183
3 115 18 71
3 111 115 71
3 71 44 111
3 173 198 123
3 123 19 173
3 173 19 115
3 173 115 220
3 220 198 173
3 242 42 5
3 42 131 5
3 5 92 242
3 123 198 28
3 28 5 131
3 28 198 37
3 37 5 28
3 179 131 120
3 179 28 131
3 179 206 123
3 123 28 179
3 182 170 106
3 182 247 170
3 182 106 196
3 196 126 182
3 126 153 182
3 153 247 182
3 237 217 195
3 95 19 195
3 195 19 237
3 195 217 255
3 195 10 95
3 255 10 195
3 187 255 221
3 187 10 255
3 187 221 99
3 187 99 207
3 207 183 187
3 183 10 187
3 229 141 76
3 141 193 76
3 76 185 229
3 76 193 185
3 4 12 199
3 155 205 4
3 205 12 4
3 150 85 238
3 238 197 150
3 238 85 112
3 112 98 238
3 98 197 238
3 59 74 160
3 7 91 160
3 160 216 7
3 160 162 216
3 160 63 59
3 91 63 160
3 137 5 37
3 92 5 137
3 248 156 225
3 248 103 156
3 248 225 233
3 171 103 248
3 233 130 248
3 248 130 171
3 227 188 245
3 3 188 227
3 1 151 219
3 219 93 1
3 219 236 93
3 82 181 154
3 224 82 154
3 45 150 154
3 154 150 224
3 175 6 165
3 165 6 72
3 165 58 175
3 165 72 82
3 82 58 165
3 120 8 201
3 201 179 120
3 201 8 206
3 206 179 201
3 155 4 116
3 116 188 155
3 116 102 245
3 245 188 116
3 199 193 235
3 235 4 199
3 254 102 235
3 102 116 235
3 235 116 4
3 235 193 141
3 235 143 254
3 141 143 235
3 68 160 74
3 162 160 68
3 251 162 68
3 68 74 121
3 121 135 68
3 68 135 251
3 223 34 121
3 121 74 223
3 223 37 34
3 223 137 37
3 228 227 245
3 236 227 228
3 245 77 228
3 228 77 138
3 138 93 228
3 93 236 228
3 43 227 236
3 236 219 43
3 3 227 43
3 43 219 151
3 43 203 3
3 43 151 7
3 7 203 43
3 45 154 15
3 15 154 181
3 194 45 15
3 15 25 194
3 15 181 25
3 137 223 54
3 54 13 92
3 92 137 54
3 74 13 54
3 54 223 74