ply
format ascii 1.0
comment https://github.com/mikedh/trimesh
element vertex 256
property float x
property float y
property float z
element face 508
property list uchar int vertex_indices
end_header
2.51882792 -1.26842773 -2.31193376
3.83671689 0.60739195 2.31201220
-2.18206692 1.62765336 0.89950943
1.93737662 0.27819037 4.01673508
0.24748836 -0.70196575 4.10794735
2.32847404 1.56502080 -1.18064332
-2.76188087 -1.39819086 -1.52733397
2.32524776 0.92644751 3.21843028
1.90280080 1.03662491 -3.26125765
-3.63276291 -0.03079095 2.94904232
-1.80751705 1.20287001 -2.97128940
-3.67740774 1.22317517 0.04346357
-0.38680074 -0.65059125 4.14596891
2.11717510 1.65237701 0.77208602
2.07627630 -1.58381093 1.41053736
-1.88440061 -1.71683466 0.38338110
-0.10154701 -1.62736714 -2.18723416
-4.22394562 -0.81567144 1.03858483
-1.96789825 1.49729431 -1.96152091
-0.89003462 1.59624648 -2.16788650
3.55970144 0.87907487 -2.18648028
-4.68625259 0.49632633 0.00013785
-1.16228187 -1.64468682 -1.83179116
-3.52980232 -0.85589939 -2.27707887
-4.35066032 0.04238315 1.97737706
-1.61902833 -1.72746050 -0.84373730
-0.83112186 1.05278635 3.58887458
2.19333839 -1.55852878 -1.42109168
1.22963524 1.63074207 -1.86403286
4.53236198 0.46491104 -1.16267347
4.76497459 0.21842314 0.70073551
1.02710187 0.09977866 4.33128929
-1.84960091 -1.31655765 -2.66186786
-4.26103687 -0.17806572 -2.09173131
-0.10015541 1.85407484 0.58608675
-0.96030700 1.26228082 3.15531516
2.52684379 0.77537924 -3.31440163
0.72579187 1.83723104 -0.50783199
2.09250832 -0.58700687 -3.75583863
-3.56038213 1.22743762 0.80503887
0.45496839 0.28410643 4.36673689
-1.87546277 -0.13697825 -4.08216476
3.24731612 1.17521727 -1.76878607
2.72865582 0.28132570 3.61112428
-2.51317668 1.58595705 -0.52724504
-1.69668543 -1.70804405 0.93715298
4.28184843 -0.86380655 -0.45317164
-4.62925959 0.38434356 1.00128889
-4.65381193 -0.11016501 -1.25239301
0.05139728 -1.78865278 -1.29638875
-3.89378428 0.99098134 -1.23594272
4.52735758 -0.35550016 -1.37886393
1.57988560 -1.70937276 1.08058941
-4.21406794 -0.92664158 0.24750879
1.56087220 1.75320053 0.60744554
3.58484292 -0.83458859 2.25142741
0.38447186 -1.50232613 -2.62147546
-2.93769908 0.68823975 3.13586211
-3.80044341 -1.15913105 -0.32239315
2.40935659 1.48926044 1.53840244
-2.94781804 -0.08671844 3.52365923
-4.08416796 -0.75043732 -1.61973345
2.20391560 -1.09635115 -2.97981405
3.08406115 1.28272772 1.58235085
3.12163663 -1.06851625 -2.26793313
3.18464732 -0.37283131 -3.23499417
4.75588131 0.18323535 -0.81029820
-0.89718693 -1.70140195 1.65382802
1.18415415 1.55349672 2.22641134
3.19622016 0.86075133 -2.64679050
-3.23798394 0.23491155 -3.26344752
-2.27111006 1.57703769 -1.18741024
-2.77735901 -1.48131645 -0.95591301
-3.51621914 -0.59365147 -2.72123551
1.31387639 1.66325665 1.64054501
3.30607462 -1.35541511 0.48705870
0.07580128 -1.43778110 2.83771610
3.03117085 -0.77690858 2.94081235
2.75599885 -0.25414249 -3.60517001
4.48013067 -0.65696728 -0.72760981
-3.47378945 -0.56909066 2.79515696
-0.53746647 -0.15715681 -4.39536905
-3.37215924 -1.34362102 -0.22070128
-4.69933367 -0.38878077 -0.65455419
3.09593558 -1.24103248 -1.74113441
-2.34885740 -1.23939729 2.53911948
-1.72586226 -1.09754646 3.23045731
-1.87598729 -1.05095100 -3.24895787
-0.04149027 0.53292918 4.25428200
-1.25883210 -0.15574358 -4.27048683
-1.88534999 -0.80973488 3.61094809
3.30962372 1.03652763 2.12450004
2.22358775 1.66335571 0.07057834
4.09501314 0.02105934 2.39078093
-4.68965673 -0.45992056 0.40273532
-1.27109933 1.37212658 -2.78497052
4.67344284 -0.14719789 1.16734529
0.20771603 -0.31242847 -4.37144518
-3.09352374 -0.79301131 2.85884261
-2.96483946 0.57676655 -3.24091959
-2.91652703 -1.13209212 -2.32049155
3.07926297 0.55709934 -3.16902328
1.62736535 -0.81383449 3.70922375
-2.61106753 1.37148190 1.85080218
-4.33398390 0.63162696 1.33698726
-3.71410060 -0.08496739 -2.85480905
4.06804895 0.95419836 0.88016158
-1.07311451 0.45060149 -4.19442368
4.11173725 -0.06892727 -2.36119652
3.13183808 -0.03490936 -3.39373851
-1.21311629 1.80634332 0.33810973
-1.11119759 1.81134796 -0.43928820
-2.64199829 -0.96134478 2.94652724
-0.15508156 1.13363361 3.52847767
-0.96913230 -1.52553391 -2.41255164
-1.05542886 1.77053893 -1.05813587
0.93071324 -0.64909941 4.07500362
4.82348394 0.22684081 0.03010226
4.54880428 0.03486638 -1.55960035
0.97183210 0.33397743 -4.27546740
2.64585757 1.09123969 -2.67430305
-0.02556456 1.76813984 1.45040965
-2.69896269 -0.45233908 -3.53258038
0.80003864 1.57027805 -2.29844379
-1.86496210 0.87890530 3.52904153
-2.27779865 0.62962449 3.62487364
4.61111832 0.54675770 -0.54659569
0.75156093 -1.84501636 -0.24393223
3.43701267 0.83064365 2.44200277
-2.16586471 -1.51193249 -1.70889378
-2.01779103 1.16115737 2.95244932
2.17582893 1.50167000 -1.74670672
4.30519533 -0.43677175 1.78014851
-4.18347454 -0.19482443 2.21395755
-1.68658578 -1.41417897 2.46269298
-0.33525568 1.34993839 3.05692840
0.43712792 1.03272045 3.67953801
1.64197123 1.76051915 0.00763950
4.15712357 -0.27851725 2.20286107
3.50462437 -1.09723914 1.63852441
-4.07579088 0.92682517 1.00674236
0.95513934 -1.50538933 2.48614430
4.37694073 0.35540602 -1.73461211
1.65386796 -1.39356291 2.54725790
-1.97812271 0.13758390 4.04055882
0.89152050 -1.37959385 -2.88461637
-1.39444542 -0.64491236 3.96658015
-4.26472569 0.89656222 0.05908903
0.91699624 -0.89904791 -3.80146694
0.72224963 1.06682456 -3.58515143
-2.69322014 -1.32005250 1.95939231
3.16001797 0.66751218 2.97726917
-0.84116435 -1.78346384 -1.09430766
4.04867792 0.87174737 -1.32150578
-2.69329619 -1.53024578 0.68210709
0.56541902 -0.19998336 4.38274431
-3.14652133 1.25528443 1.60518920
-3.45519876 0.39374769 2.97802639
-4.51756525 -0.21013086 1.56023574
3.82715392 0.98701572 1.41869879
1.94726050 1.47650015 2.06516337
-2.99692607 0.29510081 3.42331672
1.16450632 1.24716568 3.13250995
2.04602265 0.54391134 -3.81344938
-2.71674681 0.05519472 -3.67835236
-3.31288958 -1.32564962 -0.80948150
0.86037165 0.63506407 4.10066032
-2.47790861 1.60762191 0.16325629
-2.78977275 -0.83674788 -3.04410839
1.64553905 -0.86999351 -3.63054156
3.22458148 1.39917576 -0.13040587
-2.05679107 1.32540035 2.50536036
-4.46877813 -0.49346417 1.29362416
-0.18885718 1.72211015 -1.72296715
-0.79850215 0.24350809 -4.33973026
-3.89627481 -1.00363767 -1.16966498
3.12567878 -1.43211102 -0.09196905
-1.91034460 -0.11498645 4.07198954
0.17848614 -1.77233362 1.41580284
1.72662425 1.44017923 -2.35401344
-2.60037827 1.47834134 1.32445610
-2.21133041 -1.65882790 -0.36278892
4.30493498 0.86712575 0.12707505
-3.40398145 1.16925263 -1.52861035
4.81961823 -0.23880915 -0.10211768
-1.09298134 -1.37367189 2.84196711
-4.01124096 0.05158596 2.50266552
-2.38693285 0.90076756 -3.22200751
1.69197059 -0.12058485 4.15072584
-0.23750941 -1.82584894 0.94115168
-0.76530606 -0.39866817 -4.27930260
3.84440923 -1.01365697 -1.26138997
-0.74311298 -1.34299684 -3.01429820
0.06959996 -1.25826395 3.28363800
-0.55363983 -1.85860515 -0.03894466
-0.57391626 1.33608913 -3.06237960
4.58616114 0.53598517 0.74253523
-3.26432991 -1.12515736 1.91884542
0.53789055 1.72550404 -1.64302802
-0.76965183 -0.90508014 3.82003403
-3.29031682 -0.04437241 -3.26569533
1.62849796 1.29184055 -2.84389448
-3.93811703 0.68301070 -2.03717589
1.66961074 0.76238936 3.75501370
3.35233665 -0.74919689 -2.67619658
-0.34359896 -0.39282462 4.32756805
1.01792479 1.31055439 -3.02730179
-3.43096852 0.57988769 -2.82638907
-1.76157045 0.49916539 3.96297359
2.96824312 -1.33844006 1.50360441
0.21311080 0.43592831 -4.31187534
4.58500290 -0.60819358 0.29271340
-2.95684648 1.44955742 0.76692998
1.40373480 -1.78216231 -0.41775951
-0.49190623 -1.71550095 -1.71269035
0.03756211 0.85577714 3.94597387
1.65691853 1.04226458 3.36036038
0.16265999 0.92843372 -3.84969282
-1.22468543 -0.30782557 4.23292685
3.50618911 0.38322073 2.93719530
0.03834724 1.85592568 -0.55873144
-2.48331499 0.43019420 -3.67713881
1.27474761 0.57717043 -4.05771542
0.90069371 1.80984271 0.77265096
-3.64213252 -1.19362748 0.78818554
-3.53684378 0.92782801 2.10132480
-3.27919126 -0.27674431 3.20939302
2.63760471 -0.04659598 3.72596645
3.54535031 -0.10808279 3.02419209
-0.29528931 -1.56007922 2.43480253
-0.93239087 1.44413507 2.68871093
0.70472670 -1.78472638 -1.16372061
-3.54474521 0.64015102 2.62909842
-2.56269264 0.97835988 2.97210813
2.67281151 0.14077143 -3.69191861
0.46456745 -1.09678638 3.57008767
3.49480605 0.13392669 3.06885505
0.24550109 1.34606683 -3.07407880
-2.87380075 -1.11946893 2.40023565
-4.38525486 -0.69229829 -0.98461831
-1.45196342 1.64126766 1.66581368
3.73952508 -1.16203523 0.65677822
2.96773028 1.43857431 -0.83892471
-0.35902274 -0.65394074 -4.14519215
-0.47986674 1.86133325 0.01440036
2.47963667 -0.48754925 3.63755941
1.44592488 0.15726346 -4.22065067
3.75481510 1.15252650 -0.67674893
-2.80979633 1.17208517 2.31926107
-4.83424520 -0.03228874 0.45057321
2.23000550 -1.64946795 0.49103433
0.50108707 1.28865528 3.18394923
-1.21587920 0.24918239 4.25626659
2.34965563 -1.63057625 -0.35788825
1.93373573 -1.20610344 2.89646530
-0.84873945 0.70470387 -4.03715229
3 249 48 83
3 64 0 62
3 220 34 37
3 64 62 204
3 204 191 64
3 51 191 204
3 213 27 253
3 21 48 249
3 104 24 232
3 40 205 155
3 7 151 128
3 128 151 1
3 115 111 220
3 220 111 244
3 244 34 220
3 113 26 215
3 117 184 66
3 66 51 118
3 184 51 66
3 117 196 30
3 30 184 117
3 30 196 1
3 64 191 84
3 84 0 64
3 84 27 0
3 46 191 79
3 79 191 51
3 79 51 184
3 168 87 100
3 100 23 168
3 168 23 73
3 168 73 122
3 122 87 168
3 25 152 194
3 32 87 192
3 100 87 32
3 32 129 100
3 145 62 0
3 0 27 145
3 220 37 198
3 99 70 207
3 78 246 234
3 246 163 234
3 118 51 108
3 51 204 108
3 126 196 117
3 117 66 126
3 126 66 29
3 148 145 192
3 107 174 41
3 122 164 41
3 81 174 210
3 210 174 107
3 210 97 81
3 38 204 62
3 38 148 97
3 38 246 78
3 38 97 246
3 73 33 105
3 207 70 105
3 112 86 90
3 146 177 90
3 231 213 127
3 27 213 231
3 134 45 67
3 67 229 134
3 185 86 134
3 134 229 185
3 249 83 94
3 112 90 98
3 150 45 134
3 175 23 100
3 11 183 50
3 47 24 104
3 47 21 249
3 104 21 47
3 186 232 24
3 186 133 9
3 24 133 186
3 31 40 155
3 215 26 88
3 136 113 215
3 251 113 136
3 7 128 91
3 212 167 11
3 225 232 233
3 104 232 225
3 225 140 104
3 44 183 11
3 11 167 44
3 44 167 111
3 121 34 110
3 34 244 110
3 111 167 110
3 110 244 111
3 218 177 146
3 121 110 240
3 233 124 130
3 56 16 192
3 192 145 56
3 56 231 16
3 56 145 27
3 27 231 56
3 129 32 22
3 22 214 152
3 152 25 22
3 22 25 129
3 107 41 221
3 221 41 164
3 164 70 221
3 70 99 221
3 20 69 120
3 120 42 20
3 120 69 36
3 20 42 153
3 153 126 29
3 101 69 20
3 36 69 101
3 101 163 36
3 101 234 163
3 62 145 169
3 145 148 169
3 169 38 62
3 148 38 169
3 192 87 243
3 243 148 192
3 97 148 243
3 89 174 81
3 89 41 174
3 222 163 246
3 255 210 107
3 107 221 255
3 65 38 78
3 204 38 65
3 65 108 204
3 122 73 200
3 73 105 200
3 200 164 122
3 200 70 164
3 200 105 70
3 80 98 226
3 226 98 90
3 9 133 226
3 226 133 80
3 178 141 229
3 229 67 178
3 49 127 194
3 49 231 127
3 194 152 49
3 152 214 49
3 49 214 16
3 16 231 49
3 254 77 102
3 102 77 245
3 86 185 199
3 146 90 199
3 199 90 86
3 85 150 134
3 85 86 112
3 134 86 85
3 23 175 61
3 73 23 61
3 61 33 73
3 48 33 61
3 11 50 147
3 147 50 21
3 147 140 11
3 147 21 104
3 104 140 147
3 202 183 207
3 202 50 183
3 202 33 48
3 48 21 202
3 21 50 202
3 207 105 202
3 202 105 33
3 158 133 24
3 158 47 249
3 24 47 158
3 249 94 158
3 26 124 208
3 208 88 26
3 232 186 157
3 9 161 157
3 157 186 9
3 57 157 161
3 233 232 57
3 232 157 57
3 3 31 188
3 188 31 155
3 166 88 40
3 3 203 166
3 215 88 166
3 166 31 3
3 40 31 166
3 166 136 215
3 203 136 166
3 216 136 203
3 216 203 7
3 106 170 63
3 92 170 242
3 180 212 156
3 140 225 156
3 2 110 167
3 2 212 180
3 167 212 2
3 180 240 2
3 2 240 110
3 230 240 171
3 121 240 230
3 93 30 1
3 129 25 72
3 58 82 224
3 114 32 192
3 114 22 32
3 192 16 114
3 16 214 114
3 214 22 114
3 237 206 149
3 123 206 237
3 123 237 19
3 19 18 115
3 95 18 19
3 8 120 36
3 149 206 8
3 8 222 149
3 36 163 8
3 163 222 8
3 42 120 131
3 242 170 247
3 247 42 242
3 247 153 42
3 142 101 20
3 108 101 142
3 20 153 142
3 142 153 29
3 118 108 142
3 142 66 118
3 29 66 142
3 234 101 109
3 109 101 108
3 108 65 109
3 78 234 109
3 109 65 78
3 81 97 190
3 97 243 190
3 190 89 81
3 41 89 190
3 122 41 190
3 190 87 122
3 190 243 87
3 119 222 246
3 210 222 119
3 246 97 119
3 97 210 119
3 149 222 217
3 217 222 210
3 210 255 217
3 217 237 149
3 10 18 95
3 183 18 10
3 60 177 144
3 144 161 60
3 60 90 177
3 60 226 90
3 60 161 9
3 9 226 60
3 189 178 67
3 189 45 194
3 189 67 45
3 194 127 189
3 127 178 189
3 176 84 191
3 176 191 46
3 253 27 176
3 27 84 176
3 46 241 176
3 241 75 176
3 209 139 254
3 209 241 139
3 209 75 241
3 141 14 143
3 143 209 254
3 14 209 143
3 253 176 250
3 250 176 75
3 250 213 253
3 75 209 250
3 250 209 14
3 141 178 52
3 52 14 141
3 52 250 14
3 52 178 127
3 127 213 52
3 213 250 52
3 254 139 55
3 55 77 254
3 139 132 55
3 138 77 55
3 55 132 138
3 146 199 12
3 12 218 146
3 205 218 12
3 193 199 185
3 80 133 172
3 172 17 80
3 133 158 172
3 94 17 172
3 172 158 94
3 197 98 80
3 80 17 197
3 224 150 197
3 197 17 224
3 239 61 175
3 175 58 239
3 239 83 48
3 48 61 239
3 239 94 83
3 125 161 144
3 144 208 125
3 125 57 161
3 125 208 124
3 125 124 233
3 233 57 125
3 252 208 144
3 88 208 252
3 144 177 252
3 177 218 252
3 40 88 252
3 205 40 252
3 252 218 205
3 251 136 162
3 136 216 162
3 106 63 159
3 159 63 91
3 1 196 159
3 196 106 159
3 159 128 1
3 159 91 128
3 170 92 13
3 59 63 13
3 13 63 170
3 13 74 59
3 180 156 103
3 103 240 180
3 171 240 103
3 140 156 39
3 39 156 212
3 11 140 39
3 39 212 11
3 135 113 251
3 121 230 135
3 171 130 35
3 35 230 171
3 35 124 26
3 35 130 124
3 35 135 230
3 26 113 35
3 113 135 35
3 139 241 211
3 211 132 139
3 211 241 46
3 46 79 211
3 211 79 184
3 184 30 96
3 96 211 184
3 132 211 96
3 138 132 96
3 30 93 96
3 96 93 138
3 181 72 25
3 82 72 181
3 100 129 6
3 129 72 6
3 6 175 100
3 53 17 94
3 94 239 53
3 53 239 58
3 224 17 53
3 53 58 224
3 183 44 71
3 71 18 183
3 115 18 71
3 111 115 71
3 71 44 111
3 173 198 123
3 123 19 173
3 173 19 115
3 173 115 220
3 220 198 173
3 242 42 5
3 42 131 5
3 5 92 242
3 123 198 28
3 28 5 131
3 28 198 37
3 37 5 28
3 179 131 120
3 179 28 131
3 179 206 123
3 123 28 179
3 182 170 106
3 182 247 170
3 182 106 196
3 196 126 182
3 126 153 182
3 153 247 182
3 237 217 195
3 95 19 195
3 195 19 237
3 195 217 255
3 195 10 95
3 255 10 195
3 187 255 221
3 187 10 255
3 187 221 99
3 187 99 207
3 207 183 187
3 183 10 187
3 229 141 76
3 141 193 76
3 76 185 229
3 76 193 185
3 4 12 199
3 155 205 4
3 205 12 4
3 150 85 238
3 238 197 150
3 238 85 112
3 112 98 238
3 98 197 238
3 59 74 160
3 7 91 160
3 160 216 7
3 160 162 216
3 160 63 59
3 91 63 160
3 137 5 37
3 92 5 137
3 248 156 225
3 248 103 156
3 248 225 233
3 171 103 248
3 233 130 248
3 248 130 171
3 227 188 245
3 3 188 227
3 1 151 219
3 219 93 1
3 219 236 93
3 82 181 154
3 224 82 154
3 45 150 154
3 154 150 224
3 175 6 165
3 165 6 72
3 165 58 175
3 165 72 82
3 82 58 165
3 120 8 201
3 201 179 120
3 201 8 206
3 206 179 201
3 155 4 116
3 116 188 155
3 116 102 245
3 245 188 116
3 199 193 235
3 235 4 199
3 254 102 235
3 102 116 235
3 235 116 4
3 235 193 141
3 235 143 254
3 141 143 235
3 68 160 74
3 162 160 68
3 251 162 68
3 68 74 121
3 121 135 68
3 68 135 251
3 223 34 121
3 121 74 223
3 223 37 34
3 223 137 37
3 228 227 245
3 236 227 228
3 245 77 228
3 228 77 138
3 138 93 228
3 93 236 228
3 43 227 236
3 236 219 43
3 3 227 43
3 43 219 151
3 43 203 3
3 43 151 7
3 7 203 43
3 45 154 15
3 15 154 181
3 194 45 15
3 15 25 194
3 15 181 25
3 137 223 54
3 54 13 92
3 92 137 54
3 74 13 54
3 54 223 74