ply
format ascii 1.0
comment https://github.com/mikedh/trimesh
element vertex 256
property float x
property float y
property float z
element face 508
property list uchar int vertex_indices
end_header
1.57431066 -1.85511124 -2.07705903
2.39801383 0.88832778 2.07712960
-1.36382926 2.38048887 0.80812621
1.21089363 0.40686128 3.60866594
0.15468447 -1.02664471 3.69061160
1.45533609 2.28888702 -1.06069899
-1.72622287 -2.04489350 -1.37216854
1.45331979 1.35495555 2.89146256
1.18928313 1.51609302 -2.92993903
-2.27053905 -0.04503263 2.64944243
-1.12972915 1.75923121 -2.66942930
-2.29844284 1.78892815 0.03904801
-0.24175708 -0.95150805 3.72477055
1.32327068 2.41664767 0.69364804
1.29770827 -2.31636786 1.26723754
-1.17778265 -2.51091909 0.34443253
-0.06346862 -2.38007021 -1.96502793
-2.64003849 -1.19294238 0.93307263
-1.22997010 2.18983507 -1.76224542
-0.55628687 2.33455539 -1.94764602
2.22487426 1.28567171 -1.96435070
-2.92898798 0.72589117 0.00012385
-0.72644603 -2.40540075 -1.64569533
-2.20618701 -1.25177693 -2.04574513
-2.71923709 0.06198655 1.77649081
-1.01192045 -2.52645969 -0.75802010
-0.51946539 1.53972960 3.22427273
1.37087405 -2.27939224 -1.27671969
0.76854312 2.38500619 -1.67466152
2.83280396 0.67994547 -1.04455483
2.97819066 0.31944999 0.62954617
0.64195627 0.14592910 3.89126396
-1.15603232 -1.92550254 -2.39144254
-2.66322112 -0.26042610 -1.87922740
-0.06259885 2.71163654 0.52654487
-0.60020834 1.84612119 2.83475947
1.57932067 1.13401389 -2.97768378
0.45363235 2.68700194 -0.45624018
1.30785358 -0.85851401 -3.37427449
-2.22529984 1.79516196 0.72325313
0.28436303 0.41551366 3.92311001
-1.17219639 -0.20033455 -3.66744852
2.02962828 1.71878839 -1.58909094
1.70545661 0.41144675 3.24426198
-1.57077849 2.31950665 -0.47368103
-1.06045747 -2.49806261 0.84194547
2.67622852 -1.26334143 -0.40713289
-2.89336658 0.56211329 0.89956564
-2.90871215 -0.16111943 -1.12515950
0.03212418 -2.61595488 -1.16468573
-2.43368173 1.44933808 -1.11038053
2.82967591 -0.51992899 -1.23878205
0.98745555 -2.50000572 0.97080982
-2.63386464 -1.35523939 0.22236381
0.97557187 2.56410503 0.54573375
2.24058819 -1.22060931 2.02269983
0.24030149 -2.19719434 -2.35515380
-1.83611238 1.00656998 2.81728268
-2.37534213 -1.69526172 -0.28964052
1.50588918 2.17808533 1.38211262
-1.84243679 -0.12682815 3.16568255
-2.55267477 -1.09753573 -1.45518100
1.37748504 -1.60344446 -2.67708778
1.92759109 1.87602544 1.42159617
1.95107639 -1.56273508 -2.03752851
1.99045920 -0.54527628 -2.90634370
2.97250724 0.26798683 -0.72797811
-0.56075722 -2.48834825 1.48581183
0.74011666 2.27203274 2.00022531
1.99769247 1.25887299 -2.37789679
-2.02379537 0.34356475 -2.93190646
-1.41948259 2.30646205 -1.06677854
-1.73589694 -2.16646695 -0.85879958
-2.19769716 -0.86823195 -2.44477892
0.82119524 2.43255949 1.47387826
2.06635332 -1.98233283 0.43757731
0.04737710 -2.10279536 2.54942608
1.89453363 -1.13625062 2.64204836
1.72254646 -0.37169054 -3.23891234
2.80015850 -0.96083313 -0.65369022
-2.17117786 -0.83231109 2.51119041
-0.33592576 -0.22984625 -3.94883347
-2.10765719 -1.96508348 -0.19827972
-2.93716407 -0.56860280 -0.58805650
1.93501282 -1.81504488 -1.56424856
-1.46807599 -1.81265330 2.28116465
-1.07869351 -1.60519254 2.90226769
-1.17252421 -1.53704548 -2.91888881
-0.02593213 0.77942389 3.82207966
-0.78679162 -0.22777937 -3.83663821
-1.17837608 -1.18426001 3.24410367
2.06857157 1.51595080 1.90866721
1.38978040 2.43270445 0.06340812
2.55945325 0.03079987 2.14789605
-2.93111587 -0.67264676 0.36182052
-0.79445881 2.00677371 -2.50203896
2.92098165 -0.21528105 1.04875195
0.12982607 -0.45693541 -3.92734027
-1.93350530 -1.15980136 2.56840634
-1.85307550 0.84353733 -2.91166711
-1.82287943 -1.65571654 -2.08474755
1.92459214 0.81477350 -2.84707499
1.01713121 -1.19025588 3.33239508
-1.63196194 2.00583100 1.66277492
-2.70881414 0.92377222 1.20115972
-2.32137656 -0.12426721 -2.56478262
2.54260015 1.39554191 0.79074395
-0.67071497 0.65901732 -3.76830268
2.56990623 -0.10080807 -2.12131715
1.95745242 -0.05105592 -3.04896069
-0.75821847 2.64182806 0.30376038
-0.69451749 2.64914751 -0.39465988
-1.65129411 -1.40599382 2.64718294
-0.09692863 1.65797102 3.17001152
-0.60572428 -2.23113632 -2.16745496
-0.65966111 2.58946300 -0.95063740
0.58171171 -0.94932616 3.66101480
3.01476026 0.33176106 0.02704411
2.84308076 0.05099306 -1.40115702
0.60741168 0.48845139 -3.84111309
1.65370631 1.59596872 -2.40261459
-0.01597828 2.58595419 1.30305922
-1.68689787 -0.66155863 -3.17369747
0.50003785 2.29657578 -2.06493974
-1.16563320 1.28542364 3.17051816
-1.42366314 0.92084348 3.25661445
2.88202786 0.79964852 -0.49106577
0.46973848 -2.69838834 -0.21915060
2.14819193 1.21483970 2.19391418
-1.35370255 -2.21124387 -1.53528333
-1.26115406 1.69822538 2.65250325
1.35993028 2.19623470 -1.56925476
2.69082093 -0.63879097 1.59929919
-2.61474323 -0.28493619 1.98903644
-1.05414498 -2.06827641 2.21250248
-0.20954055 1.97432280 2.74636817
0.27321243 1.51038265 3.30572534
1.02626014 2.57480884 0.00686338
2.59827352 -0.40733930 1.97906744
2.19045019 -1.60474312 1.47206295
-2.54743910 1.35550785 0.90446514
0.59697849 -2.20167422 2.23357105
2.73566294 0.51979131 -1.55838883
1.03369582 -2.03812504 2.28847599
-1.23636055 0.20122032 3.63006902
0.55721557 -2.01769495 -2.59156156
-0.87155229 -0.94320250 3.56360602
-2.66552663 1.31124747 0.05308603
0.57313836 -1.31488287 -3.41526723
0.45141837 1.56026101 -3.22092772
-1.68330872 -1.93061388 1.76033306
1.97506535 0.97625536 2.67480159
-0.52574211 -2.60836601 -0.98313445
2.53049302 1.27495503 -1.18725097
-1.68335629 -2.23802757 0.61281025
0.35339656 -0.29248127 3.93749142
-1.96662974 1.83588886 1.44211435
-2.15955853 0.57586706 2.67548180
-2.82355571 -0.30732229 1.40172780
2.39203668 1.44353831 1.27456987
1.21707118 2.15942311 1.85535860
-1.87313020 0.43159324 3.07553411
0.72783637 1.82401490 2.81427097
1.27879918 0.79548562 -3.42603230
-1.69801331 0.08072384 -3.30466008
-2.07061291 -1.93879974 -0.72724444
0.53774703 0.92879903 3.68406487
-1.54873538 2.35119224 0.14667071
-1.74365580 -1.22376728 -2.73485041
1.02849007 -1.27239001 -3.26170635
2.01541877 2.04633379 -0.11715764
-1.28552973 1.93843532 2.25083494
-2.79306293 -0.72170526 1.16220188
-0.11803897 2.51863456 -1.54792690
-0.49907753 0.35613742 -3.89884710
-2.43523860 -1.46784830 -1.05083597
1.95360279 -2.09450269 -0.08262570
-1.19399810 -0.16817091 3.65830684
0.11155690 -2.59208775 1.27196813
1.07916975 2.10630274 -2.11486387
-1.62528098 2.16211581 1.18990159
-1.38211942 -2.42608237 -0.32593235
2.69065809 1.26819575 0.11416520
-2.12754679 1.71006477 -1.37331522
3.01234412 -0.34926510 -0.09174331
-0.68313205 -2.00903392 2.55324507
-2.50709438 0.07544592 2.24841380
-1.49187398 1.31739795 -2.89467645
1.05751061 -0.17635874 3.72904420
-0.14844745 -2.67035532 0.84553790
-0.47832942 -0.58306342 -3.84455824
2.40282154 -1.48250186 -1.13324249
-0.46445835 -1.96417058 -2.70806861
0.04350116 -1.84024632 2.95004582
-0.34603435 -2.71826220 -0.03498818
-0.35870749 1.95406795 -2.75126553
2.86642933 0.78389335 0.66709936
-2.04026198 -1.64557421 1.72390544
0.33619082 2.52359819 -1.47610903
-0.48104560 -1.32370520 3.43194818
-2.05650425 -0.06489590 -2.93392587
1.01783907 1.88935304 -2.55497670
-2.46139050 0.99892241 -1.83021450
1.04353535 1.11501586 3.37353325
2.09526777 -1.09572148 -2.40431547
-0.21475524 -0.57451701 3.88792038
0.63622046 1.91672254 -2.71975136
-2.14441395 0.84810203 -2.53924966
-1.10101175 0.73004341 3.56036592
1.85520279 -1.95750618 1.35084975
0.13319790 0.63755739 -3.87382174
2.86570549 -0.88950020 0.26297596
-1.84807968 2.12001848 0.68901581
0.87735826 -2.60646248 -0.37531835
-0.30744982 -2.50896835 -1.53869414
0.02347696 1.25159824 3.54509330
1.03560245 1.52434123 3.01897359
0.10166528 1.35786045 -3.45859361
-0.76544935 -0.45020357 3.80289412
2.19142818 0.56047112 2.63879895
0.02396768 2.71434355 -0.50196862
-1.55211449 0.62917107 -3.30356979
0.79673910 0.84412795 -3.64548254
0.56294900 2.64694595 0.69415557
-2.27639532 -1.74571371 0.70811194
-2.21058798 1.35697460 1.88784635
-2.04955077 -0.40474632 2.88334346
1.64854825 -0.06814793 3.34743690
2.21590471 -0.15807413 2.71695757
-0.18456088 -2.28165984 2.18744540
-0.58276027 2.11208820 2.41555858
0.44046628 -2.61021256 -1.04549551
-2.21552658 0.93623883 2.36200237
-1.60172677 1.43087888 2.67016482
1.67055297 0.20588219 -3.31684828
0.29036263 -1.60408103 3.20739412
2.18431377 0.19587155 2.75708294
0.15344238 1.96866059 -2.76177597
-1.79617476 -1.63725483 2.15639019
-2.74085951 -1.01250577 -0.88458866
-0.90750206 2.40040016 1.49657989
2.33726716 -1.69950926 0.59005463
1.85488236 2.10395551 -0.75369644
-0.22439535 -0.95640677 -3.72407246
-0.29992494 2.72225213 0.01293740
1.54981542 -0.71305448 3.26801157
0.90372783 0.23000224 -3.79186487
2.34682393 1.68560243 -0.60799646
-1.75617087 1.71420753 2.08364201
-3.02148604 -0.04722319 0.40479842
1.39379156 -2.41239309 0.44114903
0.31318802 1.88469458 2.86048460
-0.75994533 0.36443624 3.82386279
1.46857500 -2.38476372 -0.32152957
1.20861793 -1.76396012 2.60220695
-0.53047669 1.03064919 -3.62700868
3 249 48 83
3 64 0 62
3 220 34 37
3 64 62 204
3 204 191 64
3 51 191 204
3 213 27 253
3 21 48 249
3 104 24 232
3 40 205 155
3 7 151 128
3 128 151 1
3 115 111 220
3 220 111 244
3 244 34 220
3 113 26 215
3 117 184 66
3 66 51 118
3 184 51 66
3 117 196 30
3 30 184 117
3 30 196 1
3 64 191 84
3 84 0 64
3 84 27 0
3 46 191 79
3 79 191 51
3 79 51 184
3 168 87 100
3 100 23 168
3 168 23 73
3 168 73 122
3 122 87 168
3 25 152 194
3 32 87 192
3 100 87 32
3 32 129 100
3 145 62 0
3 0 27 145
3 220 37 198
3 99 70 207
3 78 246 234
3 246 163 234
3 118 51 108
3 51 204 108
3 126 196 117
3 117 66 126
3 126 66 29
3 148 145 192
3 107 174 41
3 122 164 41
3 81 174 210
3 210 174 107
3 210 97 81
3 38 204 62
3 38 148 97
3 38 246 78
3 38 97 246
3 73 33 105
3 207 70 105
3 112 86 90
3 146 177 90
3 231 213 127
3 27 213 231
3 134 45 67
3 67 229 134
3 185 86 134
3 134 229 185
3 249 83 94
3 112 90 98
3 150 45 134
3 175 23 100
3 11 183 50
3 47 24 104
3 47 21 249
3 104 21 47
3 186 232 24
3 186 133 9
3 24 133 186
3 31 40 155
3 215 26 88
3 136 113 215
3 251 113 136
3 7 128 91
3 212 167 11
3 225 232 233
3 104 232 225
3 225 140 104
3 44 183 11
3 11 167 44
3 44 167 111
3 121 34 110
3 34 244 110
3 111 167 110
3 110 244 111
3 218 177 146
3 121 110 240
3 233 124 130
3 56 16 192
3 192 145 56
3 56 231 16
3 56 145 27
3 27 231 56
3 129 32 22
3 22 214 152
3 152 25 22
3 22 25 129
3 107 41 221
3 221 41 164
3 164 70 221
3 70 99 221
3 20 69 120
3 120 42 20
3 120 69 36
3 20 42 153
3 153 126 29
3 101 69 20
3 36 69 101
3 101 163 36
3 101 234 163
3 62 145 169
3 145 148 169
3 169 38 62
3 148 38 169
3 192 87 243
3 243 148 192
3 97 148 243
3 89 174 81
3 89 41 174
3 222 163 246
3 255 210 107
3 107 221 255
3 65 38 78
3 204 38 65
3 65 108 204
3 122 73 200
3 73 105 200
3 200 164 122
3 200 70 164
3 200 105 70
3 80 98 226
3 226 98 90
3 9 133 226
3 226 133 80
3 178 141 229
3 229 67 178
3 49 127 194
3 49 231 127
3 194 152 49
3 152 214 49
3 49 214 16
3 16 231 49
3 254 77 102
3 102 77 245
3 86 185 199
3 146 90 199
3 199 90 86
3 85 150 134
3 85 86 112
3 134 86 85
3 23 175 61
3 73 23 61
3 61 33 73
3 48 33 61
3 11 50 147
3 147 50 21
3 147 140 11
3 147 21 104
3 104 140 147
3 202 183 207
3 202 50 183
3 202 33 48
3 48 21 202
3 21 50 202
3 207 105 202
3 202 105 33
3 158 133 24
3 158 47 249
3 24 47 158
3 249 94 158
3 26 124 208
3 208 88 26
3 232 186 157
3 9 161 157
3 157 186 9
3 57 157 161
3 233 232 57
3 232 157 57
3 3 31 188
3 188 31 155
3 166 88 40
3 3 203 166
3 215 88 166
3 166 31 3
3 40 31 166
3 166 136 215
3 203 136 166
3 216 136 203
3 216 203 7
3 106 170 63
3 92 170 242
3 180 212 156
3 140 225 156
3 2 110 167
3 2 212 180
3 167 212 2
3 180 240 2
3 2 240 110
3 230 240 171
3 121 240 230
3 93 30 1
3 129 25 72
3 58 82 224
3 114 32 192
3 114 22 32
3 192 16 114
3 16 214 114
3 214 22 114
3 237 206 149
3 123 206 237
3 123 237 19
3 19 18 115
3 95 18 19
3 8 120 36
3 149 206 8
3 8 222 149
3 36 163 8
3 163 222 8
3 42 120 131
3 242 170 247
3 247 42 242
3 247 153 42
3 142 101 20
3 108 101 142
3 20 153 142
3 142 153 29
3 118 108 142
3 142 66 118
3 29 66 142
3 234 101 109
3 109 101 108
3 108 65 109
3 78 234 109
3 109 65 78
3 81 97 190
3 97 243 190
3 190 89 81
3 41 89 190
3 122 41 190
3 190 87 122
3 190 243 87
3 119 222 246
3 210 222 119
3 246 97 119
3 97 210 119
3 149 222 217
3 217 222 210
3 210 255 217
3 217 237 149
3 10 18 95
3 183 18 10
3 60 177 144
3 144 161 60
3 60 90 177
3 60 226 90
3 60 161 9
3 9 226 60
3 189 178 67
3 189 45 194
3 189 67 45
3 194 127 189
3 127 178 189
3 176 84 191
3 176 191 46
3 253 27 176
3 27 84 176
3 46 241 176
3 241 75 176
3 209 139 254
3 209 241 139
3 209 75 241
3 141 14 143
3 143 209 254
3 14 209 143
3 253 176 250
3 250 176 75
3 250 213 253
3 75 209 250
3 250 209 14
3 141 178 52
3 52 14 141
3 52 250 14
3 52 178 127
3 127 213 52
3 213 250 52
3 254 139 55
3 55 77 254
3 139 132 55
3 138 77 55
3 55 132 138
3 146 199 12
3 12 218 146
3 205 218 12
3 193 199 185
3 80 133 172
3 172 17 80
3 133 158 172
3 94 17 172
3 172 158 94
3 197 98 80
3 80 17 197
3 224 150 197
3 197 17 224
3 239 61 175
3 175 58 239
3 239 83 48
3 48 61 239
3 239 94 83
3 125 161 144
3 144 208 125
3 125 57 161
3 125 208 124
3 125 124 233
3 233 57 125
3 252 208 144
3 88 208 252
3 144 177 252
3 177 218 252
3 40 88 252
3 205 40 252
3 252 218 205
3 251 136 162
3 136 216 162
3 106 63 159
3 159 63 91
3 1 196 159
3 196 106 159
3 159 128 1
3 159 91 128
3 170 92 13
3 59 63 13
3 13 63 170
3 13 74 59
3 180 156 103
3 103 240 180
3 171 240 103
3 140 156 39
3 39 156 212
3 11 140 39
3 39 212 11
3 135 113 251
3 121 230 135
3 171 130 35
3 35 230 171
3 35 124 26
3 35 130 124
3 35 135 230
3 26 113 35
3 113 135 35
3 139 241 211
3 211 132 139
3 211 241 46
3 46 79 211
3 211 79 184
3 184 30 96
3 96 211 184
3 132 211 96
3 138 132 96
3 30 93 96
3 96 93 138
3 181 72 25
3 82 72 181
3 100 129 6
3 129 72 6
3 6 175 100
3 53 17 94
3 94 239 53
3 53 239 58
3 224 17 53
3 53 58 224
3 183 44 71
3 71 18 183
3 115 18 71
3 111 115 71
3 71 44 111
3 173 198 123
3 123 19 173
3 173 19 115
3 173 115 220
3 220 198 173
3 242 42 5
3 42 131 5
3 5 92 242
3 123 198 28
3 28 5 131
3 28 198 37
3 37 5 28
3 179 131 120
3 179 28 131
3 179 206 123
3 123 28 179
3 182 170 106
3 182 247 170
3 182 106 196
3 196 126 182
3 126 153 182
3 153 247 182
3 237 217 195
3 95 19 195
3 195 19 237
3 195 217 255
3 195 10 95
3 255 10 195
3 187 255 221
3 187 10 255
3 187 221 99
3 187 99 207
3 207 183 187
3 183 10 187
3 229 141 76
3 141 193 76
3 76 185 229
3 76 193 185
3 4 12 199
3 155 205 4
3 205 12 4
3 150 85 238
3 238 197 150
3 238 85 112
3 112 98 238
3 98 197 238
3 59 74 160
3 7 91 160
3 160 216 7
3 160 162 216
3 160 63 59
3 91 63 160
3 137 5 37
3 92 5 137
3 248 156 225
3 248 103 156
3 248 225 233
3 171 103 248
3 233 130 248
3 248 130 171
3 227 188 245
3 3 188 227
3 1 151 219
3 219 93 1
3 219 236 93
3 82 181 154
3 224 82 154
3 45 150 154
3 154 150 224
3 175 6 165
3 165 6 72
3 165 58 175
3 165 72 82
3 82 58 165
3 120 8 201
3 201 179 120
3 201 8 206
3 206 179 201
3 155 4 116
3 116 188 155
3 116 102 245
3 245 188 116
3 199 193 235
3 235 4 199
3 254 102 235
3 102 116 235
3 235 116 4
3 235 193 141
3 235 143 254
3 141 143 235
3 68 160 74
3 162 160 68
3 251 162 68
3 68 74 121
3 121 135 68
3 68 135 251
3 223 34 121
3 121 74 223
3 223 37 34
3 223 137 37
3 228 227 245
3 236 227 228
3 245 77 228
3 228 77 138
3 138 93 228
3 93 236 228
3 43 227 236
3 236 219 43
3 3 227 43
3 43 219 151
3 43 203 3
3 43 151 7
3 7 203 43
3 45 154 15
3 15 154 181
3 194 45 15
3 15 25 194
3 15 181 25
3 137 223 54
3 54 13 92
3 92 137 54
3 74 13 54
3 54 223 74