ply
format ascii 1.0
comment https://github.com/mikedh/trimesh
element vertex 256
property float x
property float y
property float z
element face 508
property list uchar int vertex_indices
end_header
1.68772733 -3.23578763 -0.65431476
2.57077193 1.54947042 0.65433693
-1.46208239 4.15218019 0.25457576
1.29812896 0.70966995 1.13680124
0.16582826 -1.79073048 1.16261578
1.56018162 3.99240327 -0.33414119
-1.85058367 -3.56681633 -0.43226027
1.55802000 2.36338854 0.91086793
1.27496159 2.64445353 -0.92298877
-2.43411350 -0.07854840 0.83462679
-1.21111727 3.06854844 -0.84092313
-2.46402764 3.12034750 0.01230090
-0.25917378 -1.65967298 1.17337644
1.41860199 4.21525097 0.21851286
1.39119804 -4.04033709 0.39920494
-1.26263261 -4.37968397 0.10850307
-0.06804103 -4.15145016 -0.61902267
-2.83023262 -2.08079624 0.29393637
-1.31857979 3.81963158 -0.55514222
-0.59636301 4.07206059 -0.61354703
2.38515902 2.24253988 -0.61880934
-3.13999867 1.26613963 0.00003901
-0.77878076 -4.19563293 -0.51842660
-2.36512542 -2.18341851 -0.64445025
-2.91513681 0.10812037 0.55962974
-1.08482134 -4.40679073 -0.23879133
-0.55688882 2.68568158 1.01570976
1.46963477 -3.97584200 -0.40219197
0.82391059 4.16005945 -0.52755153
3.03688526 1.18599856 -0.32905546
3.19274592 0.55720234 0.19831951
0.68820417 0.25453761 1.22582519
-1.23931527 -3.35856795 -0.75335175
-2.85508513 -0.45424962 -0.59199387
-0.06710860 4.72978640 0.16587205
-0.64344865 3.22010684 0.89300537
1.69309831 1.97800982 -0.93802935
0.48631299 4.68681765 -0.14372468
1.40207422 -1.49746764 -1.06296325
-2.38561511 3.13122082 0.22783905
0.30484915 0.72476190 1.23585725
-1.25664389 -0.34943461 -1.15531886
2.17584705 2.99800587 -0.50059509
1.82832134 0.71766818 1.02200675
-1.68394077 4.04581213 -0.14921890
-1.13685501 -4.35725880 0.26522949
2.86902976 -2.20358992 -0.12825492
-3.10181069 0.98046911 0.28338099
-3.11826181 -0.28103343 -0.35444751
0.03443847 -4.56289339 -0.36689904
-2.60900950 2.52801561 -0.34979182
3.03353190 -0.90688896 -0.39024085
1.05859399 -4.36064863 0.30582431
-2.82361388 -2.36388350 0.07004900
1.04585421 4.47245407 0.17191693
2.40200496 -2.12905431 0.63719046
0.25761333 -3.83246779 -0.74192005
-1.96838975 1.75571501 0.88749987
-2.54646683 -2.95696926 -0.09124249
1.61437666 3.79913688 0.43539283
-1.97516990 -0.22122069 0.99725270
-2.73657489 -1.91438258 -0.45841083
1.47672200 -2.79681659 -0.84333569
2.06645894 3.27226734 0.44783095
2.09163618 -2.72580886 -0.64186180
2.13385606 -0.95110106 -0.91555583
3.18665314 0.46743748 -0.22932751
-0.60115534 -4.34031487 0.46806014
0.79343623 3.96300530 0.63011056
2.14161038 2.19579601 -0.74908459
-2.16959405 0.59926462 -0.92360860
-1.52174520 4.02305889 -0.33605635
-1.86095464 -3.77887154 -0.27053887
-2.35602403 -1.51441824 -0.77015376
0.88035589 4.24300480 0.46430081
2.21521783 -3.45769453 0.13784552
0.05079025 -3.66781211 0.80311972
2.03101993 -1.98191130 0.83229756
1.84664237 -0.64832318 -1.02032149
3.00188780 -1.67593837 -0.20592536
-2.32759428 -1.45176315 0.79107469
-0.36012655 -0.40091056 -1.24396074
-2.25949740 -3.42760754 -0.06246204
-3.14876366 -0.99178845 -0.18524943
2.07441521 -3.16590166 -0.49276927
-1.57383943 -3.16173029 0.71861202
-1.15640485 -2.79986572 0.91427177
-1.25699532 -2.68099976 -0.91950774
-0.02780033 1.35951424 1.20403075
-0.84347379 -0.39730540 -1.20861697
-1.26326883 -2.06565189 1.02195692
2.21759582 2.64420533 0.60126799
1.48990321 4.24325752 0.01997481
2.74384165 0.05372284 0.67662972
-3.14227986 -1.17326772 0.11398062
-0.85169333 3.50032592 -0.78819180
3.13141561 -0.37550512 0.33037764
0.13917902 -0.79701203 -1.23718989
-2.07279921 -2.02298975 0.80909884
-1.98657501 1.47134447 -0.91723281
-1.95420349 -2.88799238 -0.65673673
2.06324387 1.42117298 -0.89688498
1.09040749 -2.07611012 1.04977047
-1.74953198 3.49868131 0.52380705
-2.90396285 1.61129463 0.37838909
-2.48861337 -0.21675374 -0.80795729
2.72577453 2.43418145 0.24910000
-0.71903473 1.14949453 -1.18708992
2.75504780 -0.17583501 -0.66825688
2.09847140 -0.08905456 -0.96048301
-0.81284213 4.60802269 0.09569053
-0.74455202 4.62078953 -0.12432568
-1.77025688 -2.45241213 0.83391500
-0.10391157 2.89192486 0.99861640
-0.64936197 -3.89167118 -0.68279123
-0.70718449 4.51668453 -0.29946959
0.62361950 -1.65586722 1.15329218
3.23195004 0.57867599 0.00851943
3.04790235 0.08894492 -0.44139218
0.65117097 0.85198396 -1.21002662
1.77284288 2.78377700 -0.75687116
-0.01712940 4.51056433 0.41048944
-1.80842555 -1.15392721 -0.99977756
0.53606164 4.00581455 -0.65049684
-1.24960792 2.24210715 0.99877596
-1.52622688 1.60618615 1.02589798
3.08965516 1.39479125 -0.15469544
0.50357944 -4.70667839 -0.06903677
2.30295229 2.11899066 0.69112641
-1.45122612 -3.85697389 -0.48364466
-1.35201025 2.96213865 0.83559102
1.45790255 3.83079410 -0.49434632
2.88467336 -1.11421454 0.50381088
-2.80311489 -0.49700150 0.62658584
-1.13008785 -3.60760236 0.69698203
-0.22463630 3.44372320 0.86516035
0.29289526 2.63449311 1.04136884
1.10019410 4.49112415 0.00216210
2.78545856 -0.71050376 0.62344539
2.34825492 -2.79908180 0.46372896
-2.73096228 2.36435175 0.28492442
0.63998604 -3.84028196 0.70361912
2.93274593 0.90664876 -0.49092335
1.10816550 -3.55501032 0.72091526
-1.32543063 0.35097963 1.14354360
0.59735858 -3.51937509 -0.81639320
-0.93434078 -1.64518595 1.12260652
-2.85755682 2.28715038 0.01672315
0.61442846 -2.29349136 -1.07587683
0.48393953 2.72149348 -1.01465595
-1.80457783 -3.36748362 0.55453980
2.11735320 1.70283866 0.84261543
-0.56361771 -4.54965639 -0.30970681
2.71279502 2.22384715 -0.37400758
-1.80462885 -3.90369129 0.19304736
0.37885603 -0.51016206 1.24038780
-2.10830998 3.20225906 0.45429456
-2.31513762 1.00445926 0.84282970
-3.02697062 -0.53604853 0.44157201
2.56436419 2.51789927 0.40151477
1.30475163 3.76658511 0.58447468
-2.00807452 0.75280881 0.96885413
0.78027123 3.18154764 0.88655108
1.37092662 1.38753009 -1.07926798
-1.82034183 0.14080299 -1.04103327
-2.21978426 -3.38176179 -0.22909638
0.57648748 1.62006271 1.16055334
-1.66030955 4.10107946 0.04620418
-1.86927247 -2.13456273 -0.86153203
1.10258472 -2.21937299 -1.02750206
2.16061378 3.56932878 -0.03690698
-1.37814200 3.38112617 0.70905763
-2.99428105 -1.25883818 0.36611661
-0.12654275 4.39314175 -0.48762763
-0.53503215 0.62119460 -1.22821403
-2.61067820 -2.56030226 -0.33103415
2.09434462 -3.65334749 -0.02602873
-1.28001630 -0.29333302 1.15243912
0.11959369 -4.52126312 0.40069515
1.15691543 3.67392969 -0.66622394
-1.74236965 3.77128196 0.37484255
-1.48169017 -4.23170710 -0.10267514
2.88449907 2.21205735 0.03596430
-2.28081989 2.98278975 -0.43262151
3.22935987 -0.60920751 -0.02890096
-0.73234636 -3.50426793 0.80432278
-2.68771076 0.13159695 0.70829487
-1.59935176 2.29787850 -0.91188037
1.13369596 -0.30761468 1.17472267
-0.15914193 -4.65778160 0.26636118
-0.51278931 -1.01701140 -1.21111202
2.57592607 -2.58586192 -0.35699382
-0.49791893 -3.42601490 -0.85309523
0.04663508 -3.20985961 0.92932278
-0.37096342 -4.74134350 -0.01102197
-0.38454956 3.40839338 -0.86670309
3.07293296 1.36731017 0.21014951
-2.18724680 -2.87030172 0.54306436
0.36041072 4.40179968 -0.46500355
-0.51570112 -2.30887985 1.08113158
-2.20465922 -0.11319502 -0.92424476
1.09116638 3.29551411 -0.80486828
-2.63871455 1.74237573 -0.57655376
1.11871386 1.94487238 1.06272972
2.24621534 -1.91121805 -0.75740701
-0.23022667 -1.00210440 1.22477186
0.68205512 3.34325361 -0.85677552
-2.29890227 1.47930646 -0.79991394
-1.18033087 1.27338207 1.12158573
1.98885548 -3.41439056 0.42554441
0.14279376 1.11206293 -1.22033060
3.07215714 -1.55151558 0.08284263
-1.98121929 3.69785380 0.21705362
0.94056505 -4.54633617 -0.11823271
-0.32959917 -4.37628174 -0.48471913
0.02516829 2.18310690 1.11677456
1.11020947 2.65884042 0.95103645
0.10898947 2.36845541 -1.08952546
-0.82059401 -0.78526998 1.19798696
2.34930348 0.97760475 0.83127391
0.02569436 4.73450851 -0.15813005
-1.66393209 1.09743512 -1.04068995
0.85413790 1.47237468 -1.14839923
0.60350507 4.61694956 0.21867274
-2.44039154 -3.04497051 0.22306928
-2.36984348 2.36691022 0.59470898
-2.19720483 -0.70598090 0.90831029
1.76731312 -0.11886738 1.05450892
2.37554312 -0.27572164 0.85589540
-0.19785704 -3.97979712 0.68908858
-0.62474358 3.68402123 0.76094878
0.47219840 -4.55287743 -0.32935181
-2.37513781 1.63303959 0.74407750
-1.71711850 2.49581814 0.84115475
1.79090321 0.35911110 -1.04487288
0.31128097 -2.79792690 1.01039267
2.34167624 0.34164998 0.86853570
0.16449670 3.43384671 -0.87001413
-1.92557502 -2.85579038 0.67930561
-2.93831682 -1.76606846 -0.27866295
-0.97288042 4.18691063 0.47145230
2.50564885 -2.96437812 0.18587889
1.98851204 3.66983557 -0.23742931
-0.24056128 -1.66821754 -1.17315650
-0.32153216 4.74830294 0.00407554
1.66146743 -1.24374914 1.02948833
0.96883428 0.40118262 -1.19451249
2.51589394 2.94012094 -0.19153093
-1.88268924 2.99001551 0.65638846
-3.23916030 -0.08236931 0.12751952
1.49420333 -4.20782995 0.13897067
0.33575076 3.28738856 0.90110928
-0.81469339 0.63566989 1.20459247
1.57437432 -4.15963697 -0.10128818
1.29568934 -3.07679701 0.81974667
-0.56869340 1.79771543 -1.14257956
3 249 48 83
3 64 0 62
3 220 34 37
3 64 62 204
3 204 191 64
3 51 191 204
3 213 27 253
3 21 48 249
3 104 24 232
3 40 205 155
3 7 151 128
3 128 151 1
3 115 111 220
3 220 111 244
3 244 34 220
3 113 26 215
3 117 184 66
3 66 51 118
3 184 51 66
3 117 196 30
3 30 184 117
3 30 196 1
3 64 191 84
3 84 0 64
3 84 27 0
3 46 191 79
3 79 191 51
3 79 51 184
3 168 87 100
3 100 23 168
3 168 23 73
3 168 73 122
3 122 87 168
3 25 152 194
3 32 87 192
3 100 87 32
3 32 129 100
3 145 62 0
3 0 27 145
3 220 37 198
3 99 70 207
3 78 246 234
3 246 163 234
3 118 51 108
3 51 204 108
3 126 196 117
3 117 66 126
3 126 66 29
3 148 145 192
3 107 174 41
3 122 164 41
3 81 174 210
3 210 174 107
3 210 97 81
3 38 204 62
3 38 148 97
3 38 246 78
3 38 97 246
3 73 33 105
3 207 70 105
3 112 86 90
3 146 177 90
3 231 213 127
3 27 213 231
3 134 45 67
3 67 229 134
3 185 86 134
3 134 229 185
3 249 83 94
3 112 90 98
3 150 45 134
3 175 23 100
3 11 183 50
3 47 24 104
3 47 21 249
3 104 21 47
3 186 232 24
3 186 133 9
3 24 133 186
3 31 40 155
3 215 26 88
3 136 113 215
3 251 113 136
3 7 128 91
3 212 167 11
3 225 232 233
3 104 232 225
3 225 140 104
3 44 183 11
3 11 167 44
3 44 167 111
3 121 34 110
3 34 244 110
3 111 167 110
3 110 244 111
3 218 177 146
3 121 110 240
3 233 124 130
3 56 16 192
3 192 145 56
3 56 231 16
3 56 145 27
3 27 231 56
3 129 32 22
3 22 214 152
3 152 25 22
3 22 25 129
3 107 41 221
3 221 41 164
3 164 70 221
3 70 99 221
3 20 69 120
3 120 42 20
3 120 69 36
3 20 42 153
3 153 126 29
3 101 69 20
3 36 69 101
3 101 163 36
3 101 234 163
3 62 145 169
3 145 148 169
3 169 38 62
3 148 38 169
3 192 87 243
3 243 148 192
3 97 148 243
3 89 174 81
3 89 41 174
3 222 163 246
3 255 210 107
3 107 221 255
3 65 38 78
3 204 38 65
3 65 108 204
3 122 73 200
3 73 105 200
3 200 164 122
3 200 70 164
3 200 105 70
3 80 98 226
3 226 98 90
3 9 133 226
3 226 133 80
3 178 141 229
3 229 67 178
3 49 127 194
3 49 231 127
3 194 152 49
3 152 214 49
3 49 214 16
3 16 231 49
3 254 77 102
3 102 77 245
3 86 185 199
3 146 90 199
3 199 90 86
3 85 150 134
3 85 86 112
3 134 86 85
3 23 175 61
3 73 23 61
3 61 33 73
3 48 33 61
3 11 50 147
3 147 50 21
3 147 140 11
3 147 21 104
3 104 140 147
3 202 183 207
3 202 50 183
3 202 33 48
3 48 21 202
3 21 50 202
3 207 105 202
3 202 105 33
3 158 133 24
3 158 47 249
3 24 47 158
3 249 94 158
3 26 124 208
3 208 88 26
3 232 186 157
3 9 161 157
3 157 186 9
3 57 157 161
3 233 232 57
3 232 157 57
3 3 31 188
3 188 31 155
3 166 88 40
3 3 203 166
3 215 88 166
3 166 31 3
3 40 31 166
3 166 136 215
3 203 136 166
3 216 136 203
3 216 203 7
3 106 170 63
3 92 170 242
3 180 212 156
3 140 225 156
3 2 110 167
3 2 212 180
3 167 212 2
3 180 240 2
3 2 240 110
3 230 240 171
3 121 240 230
3 93 30 1
3 129 25 72
3 58 82 224
3 114 32 192
3 114 22 32
3 192 16 114
3 16 214 114
3 214 22 114
3 237 206 149
3 123 206 237
3 123 237 19
3 19 18 115
3 95 18 19
3 8 120 36
3 149 206 8
3 8 222 149
3 36 163 8
3 163 222 8
3 42 120 131
3 242 170 247
3 247 42 242
3 247 153 42
3 142 101 20
3 108 101 142
3 20 153 142
3 142 153 29
3 118 108 142
3 142 66 118
3 29 66 142
3 234 101 109
3 109 101 108
3 108 65 109
3 78 234 109
3 109 65 78
3 81 97 190
3 97 243 190
3 190 89 81
3 41 89 190
3 122 41 190
3 190 87 122
3 190 243 87
3 119 222 246
3 210 222 119
3 246 97 119
3 97 210 119
3 149 222 217
3 217 222 210
3 210 255 217
3 217 237 149
3 10 18 95
3 183 18 10
3 60 177 144
3 144 161 60
3 60 90 177
3 60 226 90
3 60 161 9
3 9 226 60
3 189 178 67
3 189 45 194
3 189 67 45
3 194 127 189
3 127 178 189
3 176 84 191
3 176 191 46
3 253 27 176
3 27 84 176
3 46 241 176
3 241 75 176
3 209 139 254
3 209 241 139
3 209 75 241
3 141 14 143
3 143 209 254
3 14 209 143
3 253 176 250
3 250 176 75
3 250 213 253
3 75 209 250
3 250 209 14
3 141 178 52
3 52 14 141
3 52 250 14
3 52 178 127
3 127 213 52
3 213 250 52
3 254 139 55
3 55 77 254
3 139 132 55
3 138 77 55
3 55 132 138
3 146 199 12
3 12 218 146
3 205 218 12
3 193 199 185
3 80 133 172
3 172 17 80
3 133 158 172
3 94 17 172
3 172 158 94
3 197 98 80
3 80 17 197
3 224 150 197
3 197 17 224
3 239 61 175
3 175 58 239
3 239 83 48
3 48 61 239
3 239 94 83
3 125 161 144
3 144 208 125
3 125 57 161
3 125 208 124
3 125 124 233
3 233 57 125
3 252 208 144
3 88 208 252
3 144 177 252
3 177 218 252
3 40 88 252
3 205 40 252
3 252 218 205
3 251 136 162
3 136 216 162
3 106 63 159
3 159 63 91
3 1 196 159
3 196 106 159
3 159 128 1
3 159 91 128
3 170 92 13
3 59 63 13
3 13 63 170
3 13 74 59
3 180 156 103
3 103 240 180
3 171 240 103
3 140 156 39
3 39 156 212
3 11 140 39
3 39 212 11
3 135 113 251
3 121 230 135
3 171 130 35
3 35 230 171
3 35 124 26
3 35 130 124
3 35 135 230
3 26 113 35
3 113 135 35
3 139 241 211
3 211 132 139
3 211 241 46
3 46 79 211
3 211 79 184
3 184 30 96
3 96 211 184
3 132 211 96
3 138 132 96
3 30 93 96
3 96 93 138
3 181 72 25
3 82 72 181
3 100 129 6
3 129 72 6
3 6 175 100
3 53 17 94
3 94 239 53
3 53 239 58
3 224 17 53
3 53 58 224
3 183 44 71
3 71 18 183
3 115 18 71
3 111 115 71
3 71 44 111
3 173 198 123
3 123 19 173
3 173 19 115
3 173 115 220
3 220 198 173
3 242 42 5
3 42 131 5
3 5 92 242
3 123 198 28
3 28 5 131
3 28 198 37
3 37 5 28
3 179 131 120
3 179 28 131
3 179 206 123
3 123 28 179
3 182 170 106
3 182 247 170
3 182 106 196
3 196 126 182
3 126 153 182
3 153 247 182
3 237 217 195
3 95 19 195
3 195 19 237
3 195 217 255
3 195 10 95
3 255 10 195
3 187 255 221
3 187 10 255
3 187 221 99
3 187 99 207
3 207 183 187
3 183 10 187
3 229 141 76
3 141 193 76
3 76 185 229
3 76 193 185
3 4 12 199
3 155 205 4
3 205 12 4
3 150 85 238
3 238 197 150
3 238 85 112
3 112 98 238
3 98 197 238
3 59 74 160
3 7 91 160
3 160 216 7
3 160 162 216
3 160 63 59
3 91 63 160
3 137 5 37
3 92 5 137
3 248 156 225
3 248 103 156
3 248 225 233
3 171 103 248
3 233 130 248
3 248 130 171
3 227 188 245
3 3 188 227
3 1 151 219
3 219 93 1
3 219 236 93
3 82 181 154
3 224 82 154
3 45 150 154
3 154 150 224
3 175 6 165
3 165 6 72
3 165 58 175
3 165 72 82
3 82 58 165
3 120 8 201
3 201 179 120
3 201 8 206
3 206 179 201
3 155 4 116
3 116 188 155
3 116 102 245
3 245 188 116
3 199 193 235
3 235 4 199
3 254 102 235
3 102 116 235
3 235 116 4
3 235 193 141
3 235 143 254
3 141 143 235
3 68 160 74
3 162 160 68
3 251 162 68
3 68 74 121
3 121 135 68
3 68 135 251
3 223 34 121
3 121 74 223
3 223 37 34
3 223 137 37
3 228 227 245
3 236 227 228
3 245 77 228
3 228 77 138
3 138 93 228
3 93 236 228
3 43 227 236
3 236 219 43
3 3 227 43
3 43 219 151
3 43 203 3
3 43 151 7
3 7 203 43
3 45 154 15
3 15 154 181
3 194 45 15
3 15 25 194
3 15 181 25
3 137 223 54
3 54 13 92
3 92 137 54
3 74 13 54
3 54 223 74