ply
format ascii 1.0
comment https://github.com/mikedh/trimesh
element vertex 256
property float x
property float y
property float z
element face 508
property list uchar int vertex_indices
end_header
2.44688511 -2.25374985 -0.73210526
3.72713232 1.07921755 0.73213005
-2.11974263 2.89202404 0.28484190
1.88204122 0.49429029 1.27195382
0.24041958 -1.24725688 1.30083740
2.26196790 2.78073812 -0.37386674
-2.68299603 -2.48431373 -0.48365104
2.25883389 1.64611733 1.01915967
1.84845293 1.84188116 -1.03272152
-3.52900362 -0.05470954 0.93385440
-1.75589061 2.13726640 -0.94089919
-3.57237339 2.17334485 0.01376333
-0.37575290 -1.15597439 1.31287754
2.05670404 2.93595290 0.24449153
2.01697350 -2.81412435 0.44666582
-1.83057821 -3.05048180 0.12140284
-0.09864661 -2.89151549 -0.69261742
-4.10330105 -1.44928968 0.32888201
-1.91169107 2.66040134 -0.62114227
-0.86461341 2.83622003 -0.68649077
3.45802879 1.56194544 -0.69237870
-4.55240345 0.88187546 0.00004365
-1.12908459 -2.92228913 -0.58006155
-3.42898393 -1.52076697 -0.72106797
-4.22639608 0.07530662 0.62616330
-1.57278550 -3.06936193 -0.26718089
-0.80738330 1.87059677 1.13646591
2.13069224 -2.76920295 -0.45000798
1.19451427 2.89751196 -0.59027135
4.40290833 0.82605666 -0.36817637
4.62887669 0.38809550 0.22189742
0.99776566 0.17728731 1.37156177
-1.79677248 -2.33926725 -0.84291667
-4.13933277 -0.31638819 -0.66237515
-0.09729476 3.29433084 0.18559234
-0.93287867 2.24282789 0.99917346
2.45467186 1.37769830 -1.04955029
0.70506173 3.26440287 -0.16081190
2.03274202 -1.04299724 -1.18933737
-3.45869017 2.18091822 0.25492650
0.44197354 0.50480199 1.38278651
-1.82189572 -0.24338377 -1.29267299
3.15456605 2.08813286 -0.56011015
2.65071964 0.49986112 1.14351165
-2.44139528 2.81793761 -0.16695932
-1.64822459 -3.03486252 0.29676223
4.15954971 -1.53481650 -0.14350295
-4.49703836 0.68290389 0.31707174
-4.52088928 -0.19574183 -0.39658728
0.04992926 -3.17808867 -0.41051912
-3.78256965 1.76078141 -0.39137807
4.39804697 -0.63165480 -0.43663600
1.53476071 -3.03722358 0.34218332
-4.09370565 -1.64646220 0.07837702
1.51629055 3.11509681 0.19235589
3.48245239 -1.48290181 0.71294516
0.37349054 -2.66934180 -0.83012587
-2.85379243 1.22286832 0.99301338
-3.69189477 -2.05955076 -0.10209018
2.34054041 2.64612675 0.48715603
-2.86362219 -0.15408182 1.11581457
-3.96751547 -1.33338141 -0.51291060
2.14096737 -1.94800317 -0.94359863
2.99597406 2.27915812 0.50107288
3.03247619 -1.89854586 -0.71817183
3.09368730 -0.66244882 -1.02440488
4.62004375 0.32557362 -0.25659195
-0.87156141 -3.02306104 0.52370709
1.15033221 2.76026201 0.70502347
3.10492969 1.52938795 -0.83814216
-3.14550042 0.41739219 -1.03341508
-2.20624232 2.80208969 -0.37600958
-2.69803190 -2.63201165 -0.30270284
-3.41578865 -1.05480337 -0.86171621
1.27634931 2.95528388 0.51950085
3.21164632 -2.40830946 0.15423377
0.07363624 -2.55465794 0.89860141
2.94459414 -1.38041568 0.93124819
2.67728186 -0.45156184 -1.14162612
4.35216904 -1.16730332 -0.23040754
-3.37457085 -1.01116359 0.88512444
-0.52211529 -0.27923712 -1.39185333
-3.27584338 -2.38735366 -0.06988806
-4.56511116 -0.69078791 -0.20727347
3.00750923 -2.20507360 -0.55135387
-2.28176904 -2.20216823 0.80404675
-1.67656815 -1.95012689 1.02296817
-1.82240522 -1.86733592 -1.02882671
-0.04030522 0.94691163 1.34717619
-1.22287726 -0.27672610 -1.35230768
-1.83150053 -1.43874156 1.14345586
3.21509409 1.84170830 0.67275184
2.16007757 2.95546007 0.02234959
3.97805095 0.03741835 0.75707328
-4.55571079 -0.81718951 0.12753162
-1.23479402 2.43800259 -0.88189876
4.53995943 -0.26154208 0.36965573
0.20178322 -0.55512470 -1.38427758
-3.00516605 -1.40902710 0.90529138
-2.88015747 1.02480221 -1.02628124
-2.83322501 -2.01150775 -0.73481518
2.99131274 0.98985738 -1.00351429
1.58088446 -1.44602585 1.17457616
-2.53648996 2.43685699 0.58608168
-4.21019650 1.12227845 0.42337519
-3.60801816 -0.15097056 -0.90401411
3.95185685 1.69542515 0.27871513
-1.04246414 0.80063134 -1.32822132
3.99429750 -0.12247036 -0.74770498
3.04238629 -0.06202715 -1.07467341
-1.17846715 3.20952129 0.10706704
-1.07945943 3.21841359 -0.13910657
-2.56653738 -1.70812297 0.93305796
-0.15065210 2.01424670 1.11734045
-0.94145185 -2.71057749 -0.76396728
-1.02528358 3.14590383 -0.33507308
0.90413016 -1.15332353 1.29040539
4.68571520 0.40305206 0.00953229
4.41888142 0.06195079 -0.49386865
0.94407457 0.59341305 -1.35388494
2.57028627 1.93892109 -0.84685445
-0.02483438 3.14164114 0.45929193
-2.62187457 -0.80371875 -1.11863959
0.77718788 2.79007912 -0.72783345
-1.81169486 1.56164396 1.11751902
-2.21273994 1.11872041 1.14786553
4.47941494 0.97148228 -0.17308696
0.73009479 -3.27823591 -0.07724446
3.33884454 1.47589254 0.77329338
-2.10400319 -2.68641043 -0.54114449
-1.96015882 2.06315112 0.93493325
2.11368275 2.66817594 -0.55311847
4.18223000 -0.77605855 0.56370825
-4.06398582 -0.34616518 0.70107973
-1.63841343 -2.51272130 0.77984524
-0.32568011 2.39857841 0.96801800
0.42464262 1.83494365 1.16517568
1.59507310 3.12810063 0.00241915
4.03838730 -0.49487105 0.69756591
3.40452504 -1.94958091 0.51886106
-3.95937800 1.64678824 0.31879866
0.92785859 -2.67478442 0.78727138
4.25192642 0.63148749 -0.54928851
1.60663009 -2.47609067 0.80662382
-1.92162347 0.24445987 1.27949786
0.86605686 -2.45127034 -0.91345298
-1.35461712 -1.14588404 1.25607145
-4.14291620 1.59301698 0.01871134
0.89080489 -1.59743357 -1.20378625
0.70162064 1.89554012 -1.13528693
-2.61629605 -2.34547687 0.62046820
3.06976128 1.18603957 0.94279277
-0.81713891 -3.16886878 -0.34652740
3.93303919 1.54892576 -0.41847280
-2.61636996 -2.71894956 0.21599849
0.54926950 -0.35533160 1.38785565
-3.05665016 2.23039675 0.50830495
-3.35651112 0.69961321 0.94303250
-4.38853407 -0.37336174 0.49406987
3.71784258 1.75373530 0.44925025
1.89164269 2.62345409 0.65396202
-2.91132760 0.52433687 1.08403981
1.13124561 2.21597123 0.99195182
1.98758399 0.96642482 -1.20758057
-2.63915086 0.09807031 -1.16480029
-3.21826673 -2.35542178 -0.25633332
0.83579761 1.12838554 1.29852986
-2.40713453 2.85643196 0.05169732
-2.71009111 -1.48673844 -0.96395826
1.59853899 -1.54580951 -1.14966035
3.13248062 2.48606348 -0.04129479
-1.99804497 2.35497904 0.79335642
-4.34114075 -0.87678999 0.40964368
-0.18346302 3.05985522 -0.54560095
-0.77569526 0.43266657 -1.37423456
-3.78498912 -1.78326929 -0.37039030
3.03640294 -2.54458308 -0.02912325
-1.85578120 -0.20430860 1.28945088
0.17338820 -3.14909267 0.44833320
1.67730832 2.55891895 -0.74543035
-2.52610612 2.62672544 0.41940704
-2.14817023 -2.94741488 -0.11488204
4.18197727 1.54071403 0.04024004
-3.30675673 2.07753491 -0.48405522
4.68196011 -0.42431751 -0.03233695
-1.06176353 -2.44074821 0.89994752
-3.89667153 0.09165824 0.79250300
-2.31875706 1.60048914 -1.02029252
1.64364433 -0.21425587 1.31438375
-0.23072565 -3.24417901 0.29802847
-0.74344736 -0.70835590 -1.35509932
3.73460507 -1.80107164 -0.39943630
-0.72188818 -2.38624454 -0.95451850
0.06761204 -2.23569059 1.03980863
-0.53782672 -3.30238032 -0.01233236
-0.55752403 2.37397099 -0.96974415
4.45517111 0.95234156 0.23513387
-3.17109370 -1.99918604 0.60762846
0.52252728 3.06588578 -0.52028716
-0.74766898 -1.60815167 1.20966578
-3.19633842 -0.07884116 -1.03412688
1.58198464 2.29534960 -0.90055788
-3.82563615 1.21357739 -0.64509940
1.62192321 1.35461783 1.18907607
3.25658703 -1.33117735 -0.84745401
-0.33378506 -0.69797307 1.37038314
0.98885071 2.32860065 -0.95863628
-3.33297276 1.03034782 -0.89501452
-1.71125627 0.88691992 1.25492942
2.88346386 -2.37814808 0.47613677
0.20702392 0.77455997 -1.36541390
4.45404577 -1.08064187 0.09269167
-2.87239289 2.57558203 0.24285881
1.36364114 -3.16655636 -0.13228923
-0.47785637 -3.04811215 -0.54234666
0.03648926 1.52054989 1.24954629
1.60959351 1.85190165 1.06410384
0.15801409 1.64964640 -1.21905756
-1.18970585 -0.54694629 1.34041393
3.40604496 0.68090886 0.93010283
0.03725196 3.29761958 -0.17692991
-2.41238642 0.76437151 -1.16441596
1.23833823 1.02551973 -1.28493071
0.87496805 3.21573901 0.24467042
-3.53810573 -2.12084413 0.24958967
-3.43582416 1.64857018 0.66541308
-3.18553090 -0.49172086 1.01629794
2.56226945 -0.08279200 1.17987800
3.44408774 -0.19204213 0.95765156
-0.28685525 -2.77195787 0.77101332
-0.90575987 2.56594753 0.85141689
0.68459827 -3.17111230 -0.36850795
-3.44350004 1.13742399 0.83253980
-2.48949671 1.73835552 0.94115841
2.59647059 0.25012350 -1.16909623
0.45129845 -1.94877648 1.13051677
3.39498711 0.23796171 0.97179466
0.23848906 2.39169931 -0.97344887
-2.79171896 -1.98907888 0.76006728
-4.26000309 -1.23007965 -0.31179276
-1.41049230 2.91621399 0.52750254
3.63271642 -2.06471109 0.20797776
2.88296580 2.55606723 -0.26565692
-0.34876829 -1.16192567 -1.31263137
-0.46616074 3.30722761 0.00456007
2.40881300 -0.86628032 1.15188265
1.40462625 0.27942663 -1.33652639
3.64756989 2.04781580 -0.21430175
-2.72954273 2.08256769 0.73442554
-4.69616890 -0.05737082 0.14268012
2.16631198 -2.93078423 0.15549269
0.48677501 2.28969026 1.00824082
-1.18115115 0.44274870 1.34780467
2.28254461 -2.89721727 -0.11333018
1.87850416 -2.14301157 0.91720515
-0.82449770 1.25212193 -1.27841914
3 249 48 83
3 64 0 62
3 220 34 37
3 64 62 204
3 204 191 64
3 51 191 204
3 213 27 253
3 21 48 249
3 104 24 232
3 40 205 155
3 7 151 128
3 128 151 1
3 115 111 220
3 220 111 244
3 244 34 220
3 113 26 215
3 117 184 66
3 66 51 118
3 184 51 66
3 117 196 30
3 30 184 117
3 30 196 1
3 64 191 84
3 84 0 64
3 84 27 0
3 46 191 79
3 79 191 51
3 79 51 184
3 168 87 100
3 100 23 168
3 168 23 73
3 168 73 122
3 122 87 168
3 25 152 194
3 32 87 192
3 100 87 32
3 32 129 100
3 145 62 0
3 0 27 145
3 220 37 198
3 99 70 207
3 78 246 234
3 246 163 234
3 118 51 108
3 51 204 108
3 126 196 117
3 117 66 126
3 126 66 29
3 148 145 192
3 107 174 41
3 122 164 41
3 81 174 210
3 210 174 107
3 210 97 81
3 38 204 62
3 38 148 97
3 38 246 78
3 38 97 246
3 73 33 105
3 207 70 105
3 112 86 90
3 146 177 90
3 231 213 127
3 27 213 231
3 134 45 67
3 67 229 134
3 185 86 134
3 134 229 185
3 249 83 94
3 112 90 98
3 150 45 134
3 175 23 100
3 11 183 50
3 47 24 104
3 47 21 249
3 104 21 47
3 186 232 24
3 186 133 9
3 24 133 186
3 31 40 155
3 215 26 88
3 136 113 215
3 251 113 136
3 7 128 91
3 212 167 11
3 225 232 233
3 104 232 225
3 225 140 104
3 44 183 11
3 11 167 44
3 44 167 111
3 121 34 110
3 34 244 110
3 111 167 110
3 110 244 111
3 218 177 146
3 121 110 240
3 233 124 130
3 56 16 192
3 192 145 56
3 56 231 16
3 56 145 27
3 27 231 56
3 129 32 22
3 22 214 152
3 152 25 22
3 22 25 129
3 107 41 221
3 221 41 164
3 164 70 221
3 70 99 221
3 20 69 120
3 120 42 20
3 120 69 36
3 20 42 153
3 153 126 29
3 101 69 20
3 36 69 101
3 101 163 36
3 101 234 163
3 62 145 169
3 145 148 169
3 169 38 62
3 148 38 169
3 192 87 243
3 243 148 192
3 97 148 243
3 89 174 81
3 89 41 174
3 222 163 246
3 255 210 107
3 107 221 255
3 65 38 78
3 204 38 65
3 65 108 204
3 122 73 200
3 73 105 200
3 200 164 122
3 200 70 164
3 200 105 70
3 80 98 226
3 226 98 90
3 9 133 226
3 226 133 80
3 178 141 229
3 229 67 178
3 49 127 194
3 49 231 127
3 194 152 49
3 152 214 49
3 49 214 16
3 16 231 49
3 254 77 102
3 102 77 245
3 86 185 199
3 146 90 199
3 199 90 86
3 85 150 134
3 85 86 112
3 134 86 85
3 23 175 61
3 73 23 61
3 61 33 73
3 48 33 61
3 11 50 147
3 147 50 21
3 147 140 11
3 147 21 104
3 104 140 147
3 202 183 207
3 202 50 183
3 202 33 48
3 48 21 202
3 21 50 202
3 207 105 202
3 202 105 33
3 158 133 24
3 158 47 249
3 24 47 158
3 249 94 158
3 26 124 208
3 208 88 26
3 232 186 157
3 9 161 157
3 157 186 9
3 57 157 161
3 233 232 57
3 232 157 57
3 3 31 188
3 188 31 155
3 166 88 40
3 3 203 166
3 215 88 166
3 166 31 3
3 40 31 166
3 166 136 215
3 203 136 166
3 216 136 203
3 216 203 7
3 106 170 63
3 92 170 242
3 180 212 156
3 140 225 156
3 2 110 167
3 2 212 180
3 167 212 2
3 180 240 2
3 2 240 110
3 230 240 171
3 121 240 230
3 93 30 1
3 129 25 72
3 58 82 224
3 114 32 192
3 114 22 32
3 192 16 114
3 16 214 114
3 214 22 114
3 237 206 149
3 123 206 237
3 123 237 19
3 19 18 115
3 95 18 19
3 8 120 36
3 149 206 8
3 8 222 149
3 36 163 8
3 163 222 8
3 42 120 131
3 242 170 247
3 247 42 242
3 247 153 42
3 142 101 20
3 108 101 142
3 20 153 142
3 142 153 29
3 118 108 142
3 142 66 118
3 29 66 142
3 234 101 109
3 109 101 108
3 108 65 109
3 78 234 109
3 109 65 78
3 81 97 190
3 97 243 190
3 190 89 81
3 41 89 190
3 122 41 190
3 190 87 122
3 190 243 87
3 119 222 246
3 210 222 119
3 246 97 119
3 97 210 119
3 149 222 217
3 217 222 210
3 210 255 217
3 217 237 149
3 10 18 95
3 183 18 10
3 60 177 144
3 144 161 60
3 60 90 177
3 60 226 90
3 60 161 9
3 9 226 60
3 189 178 67
3 189 45 194
3 189 67 45
3 194 127 189
3 127 178 189
3 176 84 191
3 176 191 46
3 253 27 176
3 27 84 176
3 46 241 176
3 241 75 176
3 209 139 254
3 209 241 139
3 209 75 241
3 141 14 143
3 143 209 254
3 14 209 143
3 253 176 250
3 250 176 75
3 250 213 253
3 75 209 250
3 250 209 14
3 141 178 52
3 52 14 141
3 52 250 14
3 52 178 127
3 127 213 52
3 213 250 52
3 254 139 55
3 55 77 254
3 139 132 55
3 138 77 55
3 55 132 138
3 146 199 12
3 12 218 146
3 205 218 12
3 193 199 185
3 80 133 172
3 172 17 80
3 133 158 172
3 94 17 172
3 172 158 94
3 197 98 80
3 80 17 197
3 224 150 197
3 197 17 224
3 239 61 175
3 175 58 239
3 239 83 48
3 48 61 239
3 239 94 83
3 125 161 144
3 144 208 125
3 125 57 161
3 125 208 124
3 125 124 233
3 233 57 125
3 252 208 144
3 88 208 252
3 144 177 252
3 177 218 252
3 40 88 252
3 205 40 252
3 252 218 205
3 251 136 162
3 136 216 162
3 106 63 159
3 159 63 91
3 1 196 159
3 196 106 159
3 159 128 1
3 159 91 128
3 170 92 13
3 59 63 13
3 13 63 170
3 13 74 59
3 180 156 103
3 103 240 180
3 171 240 103
3 140 156 39
3 39 156 212
3 11 140 39
3 39 212 11
3 135 113 251
3 121 230 135
3 171 130 35
3 35 230 171
3 35 124 26
3 35 130 124
3 35 135 230
3 26 113 35
3 113 135 35
3 139 241 211
3 211 132 139
3 211 241 46
3 46 79 211
3 211 79 184
3 184 30 96
3 96 211 184
3 132 211 96
3 138 132 96
3 30 93 96
3 96 93 138
3 181 72 25
3 82 72 181
3 100 129 6
3 129 72 6
3 6 175 100
3 53 17 94
3 94 239 53
3 53 239 58
3 224 17 53
3 53 58 224
3 183 44 71
3 71 18 183
3 115 18 71
3 111 115 71
3 71 44 111
3 173 198 123
3 123 19 173
3 173 19 115
3 173 115 220
3 220 198 173
3 242 42 5
3 42 131 5
3 5 92 242
3 123 198 28
3 28 5 131
3 28 198 37
3 37 5 28
3 179 131 120
3 179 28 131
3 179 206 123
3 123 28 179
3 182 170 106
3 182 247 170
3 182 106 196
3 196 126 182
3 126 153 182
3 153 247 182
3 237 217 195
3 95 19 195
3 195 19 237
3 195 217 255
3 195 10 95
3 255 10 195
3 187 255 221
3 187 10 255
3 187 221 99
3 187 99 207
3 207 183 187
3 183 10 187
3 229 141 76
3 141 193 76
3 76 185 229
3 76 193 185
3 4 12 199
3 155 205 4
3 205 12 4
3 150 85 238
3 238 197 150
3 238 85 112
3 112 98 238
3 98 197 238
3 59 74 160
3 7 91 160
3 160 216 7
3 160 162 216
3 160 63 59
3 91 63 160
3 137 5 37
3 92 5 137
3 248 156 225
3 248 103 156
3 248 225 233
3 171 103 248
3 233 130 248
3 248 130 171
3 227 188 245
3 3 188 227
3 1 151 219
3 219 93 1
3 219 236 93
3 82 181 154
3 224 82 154
3 45 150 154
3 154 150 224
3 175 6 165
3 165 6 72
3 165 58 175
3 165 72 82
3 82 58 165
3 120 8 201
3 201 179 120
3 201 8 206
3 206 179 201
3 155 4 116
3 116 188 155
3 116 102 245
3 245 188 116
3 199 193 235
3 235 4 199
3 254 102 235
3 102 116 235
3 235 116 4
3 235 193 141
3 235 143 254
3 141 143 235
3 68 160 74
3 162 160 68
3 251 162 68
3 68 74 121
3 121 135 68
3 68 135 251
3 223 34 121
3 121 74 223
3 223 37 34
3 223 137 37
3 228 227 245
3 236 227 228
3 245 77 228
3 228 77 138
3 138 93 228
3 93 236 228
3 43 227 236
3 236 219 43
3 3 227 43
3 43 219 151
3 43 203 3
3 43 151 7
3 7 203 43
3 45 154 15
3 15 154 181
3 194 45 15
3 15 25 194
3 15 181 25
3 137 223 54
3 54 13 92
3 92 137 54
3 74 13 54
3 54 223 74