ply
format ascii 1.0
comment https://github.com/mikedh/trimesh
element vertex 256
property float x
property float y
property float z
element face 508
property list uchar int vertex_indices
end_header
2.00461483 -2.45645666 -1.27305067
3.05345988 1.17628455 1.27309382
-1.73660290 3.15213871 0.49530879
1.54186559 0.53874779 2.21178818
0.19696416 -1.35943770 2.26201344
1.85312116 3.03084350 -0.65011322
-2.19804907 -2.70775795 -0.84101611
1.85055375 1.79417264 1.77220690
1.51434827 2.00754380 -1.79578948
-2.89114237 -0.05963023 1.62387025
-1.43851650 2.32949662 -1.63612044
-2.92667317 2.36881995 0.02393292
-0.30783623 -1.25994515 2.28294992
1.68495846 3.20001864 0.42514396
1.65240920 -3.06723261 0.77670282
-1.49970436 -3.32484841 0.21110621
-0.08081641 -3.15158439 -1.20438564
-3.36163664 -1.57964182 0.57188976
-1.56615627 2.89968324 -1.08009815
-0.70833606 3.09131551 -1.19373214
2.83299637 1.70243001 -1.20397055
-3.72956443 0.96119320 0.00007591
-0.92500460 -3.18512583 -1.00866342
-2.80920100 -1.65754795 -1.25385809
-3.46248269 0.08207987 1.08882928
-1.28850734 -3.34542680 -0.46459824
-0.66145021 2.03884220 1.97618961
1.74557328 -3.01827097 -0.78251451
0.97860795 3.15812016 -1.02641714
3.60709047 0.90035391 -0.64021832
3.79221559 0.42300162 0.38585526
0.81742132 0.19323289 2.38499522
-1.47200906 -2.54966569 -1.46573949
-3.39115572 -0.34484479 -1.15179765
-0.07970890 3.59062982 0.32272470
-0.76426250 2.44455242 1.73745298
2.01099420 1.50161135 -1.82505274
0.57762307 3.55800986 -0.27963427
1.66532755 -1.13680649 -2.06812716
-2.83353806 2.37707448 0.44328919
0.36208761 0.55020493 2.40451407
-1.49259126 -0.26527420 -2.24781656
2.58438396 2.27594399 -0.97397006
2.17160678 0.54481965 1.98844123
-2.00011730 3.07138872 -0.29032394
-1.35031092 -3.30782461 0.51603699
3.40771866 -1.67286110 -0.24953590
-3.68420649 0.74432570 0.55135292
-3.70374656 -0.21334726 -0.68962175
0.04090463 -3.46393251 -0.71384776
-3.09887695 1.91914976 -0.68056351
3.60310769 -0.68846714 -0.75926208
1.25735545 -3.31039762 0.59501922
-3.35377550 -1.79454839 0.13628905
1.24222362 3.39527512 0.33448577
2.85300517 -1.61627710 1.23973334
0.30598277 -2.90942788 -1.44349778
-2.33797455 1.33285570 1.72674131
-3.02459121 -2.24479103 -0.17752361
1.91749191 2.88412476 0.84711087
-2.34602761 -0.16794026 1.94027913
-3.25039411 -1.45330858 -0.89189529
1.75399125 -2.12321067 -1.64081442
2.45445704 2.48415041 0.87131077
2.48436141 -2.06930494 -1.24882197
2.53450871 -0.72203088 -1.78132772
3.78497887 0.35485640 -0.44618520
-0.71402824 -3.29496145 0.91066921
0.94241172 3.00852585 1.22595847
2.54371905 1.66694427 -1.45743728
-2.57695675 0.45493332 -1.79699540
-1.80746794 3.05411553 -0.65383941
-2.21036720 -2.86874032 -0.52636701
-2.79839087 -1.14967453 -1.49842989
1.04565144 3.22108841 0.90335500
2.63114691 -2.62491798 0.26819560
0.06032662 -2.78442907 1.56256926
2.41236401 -1.50457311 1.61933839
2.19336796 -0.49217626 -1.98516250
3.56552219 -1.27229297 -0.40065342
-2.76462317 -1.10210979 1.53913426
-0.42774388 -0.30435228 -2.42028022
-2.68374038 -2.60207725 -0.12152766
-3.73997521 -0.75291884 -0.36042583
2.46390724 -2.40340257 -0.95874387
-1.86934328 -2.40023589 1.39814901
-1.37353134 -2.12552547 1.77882946
-1.49300873 -2.03528786 -1.78901672
-0.03302012 1.03207886 2.34259176
-1.00184441 -0.30161542 -2.35151458
-1.50046003 -1.56814504 1.98834419
2.63397145 2.00735545 1.16984165
1.76964724 3.22128034 0.03886348
3.25902510 0.04078384 1.31646729
-3.73227406 -0.89068925 0.22176348
-1.01160717 2.65728164 -1.53352511
3.71936989 -0.28506571 0.64279079
0.16531126 -0.60505378 -2.40710688
-2.46198773 -1.53575790 1.57420242
-2.35957408 1.11697507 -1.78459048
-2.32112455 -2.19242716 -1.27776301
2.45063829 1.07888722 -1.74500132
1.29514229 -1.57608449 2.04245901
-2.07802391 2.65603304 1.01913166
-3.44921064 1.22321856 0.73620301
-2.95587516 -0.16454917 -1.57198131
3.23756576 1.84791529 0.48465505
-0.85404062 0.87264180 -2.30963111
3.27233529 -0.13348560 -1.30017698
2.49248028 -0.06760600 -1.86873913
-0.96546131 3.49819231 0.18617783
-0.88434905 3.50788450 -0.24189107
-2.10264015 -1.86175513 1.62248540
-0.12342200 2.19541216 1.94293249
-0.77128613 -2.95437241 -1.32845521
-0.83996540 3.42885303 -0.58265531
0.74071026 -1.25705588 2.24387336
3.83878064 0.43930340 0.01657561
3.62017632 0.06752277 -0.85878342
0.77343476 0.64678586 -2.35425735
2.10571170 2.11331153 -1.47258699
-0.02034561 3.42420697 0.79865825
-2.14797544 -0.87600684 -1.94519150
0.63671255 3.04102468 -1.26562250
-1.48423421 1.70210147 1.94324279
-1.81279111 1.21934044 1.99601221
3.66976857 1.05885947 -0.30097920
0.59813148 -3.57308722 -0.13431963
2.73535419 1.60863733 1.34467232
-1.72370827 -2.92803192 -0.94099081
-1.60586357 2.24871540 1.62574625
1.73163831 2.90815735 -0.96181226
3.42629933 -0.84585887 0.98022676
-3.32942748 -0.37729999 1.21910071
-1.34227312 -2.73872066 1.35606527
-0.26681399 2.61431146 1.68327701
0.34788924 1.99998224 2.02611279
1.30676651 3.40944862 0.00420664
3.30845618 -0.53938079 1.21299064
2.78916311 -2.12493014 0.90224236
-3.24372745 1.79490387 0.55435592
0.76014978 -2.91536021 1.36897850
3.48339796 0.68828475 -0.95515239
1.31623459 -2.69879556 1.40263033
-1.57429338 0.26644710 2.22490621
0.70951861 -2.67174268 -1.58839452
-1.10977256 -1.24894726 2.18417048
-3.39409137 1.73629630 0.03253697
0.72979349 -1.74111009 -2.09325218
0.57480395 2.06602907 -1.97413945
-2.14340520 -2.55643392 1.07892609
2.51490736 1.29271436 1.63941312
-0.66944253 -3.45388341 -0.60257310
3.22214937 1.68823934 -0.72767824
-2.14346576 -2.96349764 0.37559766
0.44999000 -0.38729087 2.41332865
-2.50416613 2.43100333 0.88388658
-2.74982762 0.76253784 1.63982999
-3.59531450 -0.40694267 0.85913324
3.04584908 1.91146994 0.78119689
1.54973161 2.85941291 1.13716817
-2.38511038 0.57149678 1.88502622
0.92677492 2.41528034 1.72489536
1.62833178 1.05334711 -2.09985018
-2.16212893 0.10689095 -2.02545977
-2.63657069 -2.56727338 -0.44573551
0.68472868 1.22987485 2.25800085
-1.97204924 3.11334538 0.08989597
-2.22024679 -1.62045884 -1.67621768
1.30960584 -1.68484282 -1.99913311
2.56629038 2.70966530 -0.07180711
-1.63690186 2.56679082 1.37955976
-3.55648708 -0.95565033 0.71232539
-0.15030241 3.33506513 -0.94874018
-0.63548970 0.47158152 -2.38964319
-3.10085893 -1.94366026 -0.64406812
2.48757839 -2.77344823 -0.05064214
-1.52035201 -0.22268453 2.24221373
0.14204860 -3.43232870 0.77960223
1.37413776 2.78907347 -1.29622161
-2.06951690 2.86297870 0.72930282
-1.75989223 -3.21251154 -0.19976726
3.42609215 1.67928910 0.06997301
-2.70906639 2.26439261 -0.84171891
3.83570409 -0.46248150 -0.05623041
-0.86985165 -2.66027427 1.56490993
-3.19235516 0.09990218 1.37807584
-1.89964592 1.74444044 -1.77417660
1.34655857 -0.23352650 2.28556919
-0.18902239 -3.53596711 0.51823878
-0.60907054 -0.77206689 -2.35636902
3.05958176 -1.96306384 -0.69457591
-0.59140813 -2.60086823 -1.65980291
0.05539128 -2.43677330 1.80811310
-0.44061548 -3.59940338 -0.02144461
-0.45675254 2.58749080 -1.68627870
3.64990664 1.03799713 0.40887201
-2.59792423 -2.17899704 1.05659926
0.42808142 3.34163785 -0.90472227
-0.61252916 -1.75279212 2.10347605
-2.61860609 -0.08593229 -1.79823303
1.29604375 2.50179815 -1.56597126
-3.13415933 1.32272911 -1.12175715
1.32876348 1.47645497 2.06767297
2.66796470 -1.45090628 -1.47362947
-0.27345401 -0.76075017 2.38294601
0.81011772 2.53803968 -1.66696334
-2.73054385 1.12301934 -1.55633199
-1.40194976 0.96669137 2.18218470
2.36228275 -2.59204364 0.82794958
0.16960470 0.84422547 -2.37430477
3.64898491 -1.17783713 0.16118065
-2.35321283 2.80723524 0.42230481
1.11716545 -3.45136309 -0.23003645
-0.39148468 -3.32226562 -0.94308138
0.02989389 1.65731132 2.17282391
1.31866229 2.01846552 1.85035968
0.12945332 1.79801905 -2.11980724
-0.97466862 -0.59613979 2.33083272
2.79040837 0.74215120 1.61734676
0.03051873 3.59421444 -0.30766168
-1.97635186 0.83312070 -2.02479172
1.01451075 1.11775708 -2.23435354
0.71681911 3.50496936 0.42545500
-2.89859939 -2.31159735 0.43400905
-2.81480503 1.79684603 1.15708029
-2.60975170 -0.53594726 1.76723063
2.09914374 -0.09023849 2.05167818
2.82157493 -0.20931479 1.66525090
-0.23500666 -3.02127337 1.34070754
-0.74204534 2.79673433 1.48052049
0.56085831 -3.45632863 -0.64079487
-2.82109356 1.23972631 1.44769537
-2.03952456 1.89470685 1.63657117
2.12716293 0.27262014 -2.03293014
0.36972705 -2.12405348 1.96584463
2.78134918 0.25936449 1.68984425
0.19538260 2.60681367 -1.69272077
-2.28712082 -2.16798091 1.32167363
-3.49001503 -1.34071553 -0.54217339
-1.15554833 3.17850423 0.91726905
2.97610927 -2.25041533 0.36165050
2.36187482 2.78596520 -0.46194822
-0.28572905 -1.26643181 -2.28252196
-0.38190302 3.60468674 0.00792946
1.97342443 -0.94419539 2.00299764
1.15074253 0.30455884 -2.32407260
2.98827815 2.23200059 -0.37264723
-2.23618269 2.26987815 1.27708542
-3.84734488 -0.06253088 0.24810508
1.77475488 -3.19438505 0.27038473
0.39879128 2.49562979 1.75322020
-0.96766019 0.48257044 2.34368443
1.86997867 -3.15779924 -0.19706874
1.53896785 -2.33575845 1.59491909
-0.67547119 1.36474037 -2.22303057
3 249 48 83
3 64 0 62
3 220 34 37
3 64 62 204
3 204 191 64
3 51 191 204
3 213 27 253
3 21 48 249
3 104 24 232
3 40 205 155
3 7 151 128
3 128 151 1
3 115 111 220
3 220 111 244
3 244 34 220
3 113 26 215
3 117 184 66
3 66 51 118
3 184 51 66
3 117 196 30
3 30 184 117
3 30 196 1
3 64 191 84
3 84 0 64
3 84 27 0
3 46 191 79
3 79 191 51
3 79 51 184
3 168 87 100
3 100 23 168
3 168 23 73
3 168 73 122
3 122 87 168
3 25 152 194
3 32 87 192
3 100 87 32
3 32 129 100
3 145 62 0
3 0 27 145
3 220 37 198
3 99 70 207
3 78 246 234
3 246 163 234
3 118 51 108
3 51 204 108
3 126 196 117
3 117 66 126
3 126 66 29
3 148 145 192
3 107 174 41
3 122 164 41
3 81 174 210
3 210 174 107
3 210 97 81
3 38 204 62
3 38 148 97
3 38 246 78
3 38 97 246
3 73 33 105
3 207 70 105
3 112 86 90
3 146 177 90
3 231 213 127
3 27 213 231
3 134 45 67
3 67 229 134
3 185 86 134
3 134 229 185
3 249 83 94
3 112 90 98
3 150 45 134
3 175 23 100
3 11 183 50
3 47 24 104
3 47 21 249
3 104 21 47
3 186 232 24
3 186 133 9
3 24 133 186
3 31 40 155
3 215 26 88
3 136 113 215
3 251 113 136
3 7 128 91
3 212 167 11
3 225 232 233
3 104 232 225
3 225 140 104
3 44 183 11
3 11 167 44
3 44 167 111
3 121 34 110
3 34 244 110
3 111 167 110
3 110 244 111
3 218 177 146
3 121 110 240
3 233 124 130
3 56 16 192
3 192 145 56
3 56 231 16
3 56 145 27
3 27 231 56
3 129 32 22
3 22 214 152
3 152 25 22
3 22 25 129
3 107 41 221
3 221 41 164
3 164 70 221
3 70 99 221
3 20 69 120
3 120 42 20
3 120 69 36
3 20 42 153
3 153 126 29
3 101 69 20
3 36 69 101
3 101 163 36
3 101 234 163
3 62 145 169
3 145 148 169
3 169 38 62
3 148 38 169
3 192 87 243
3 243 148 192
3 97 148 243
3 89 174 81
3 89 41 174
3 222 163 246
3 255 210 107
3 107 221 255
3 65 38 78
3 204 38 65
3 65 108 204
3 122 73 200
3 73 105 200
3 200 164 122
3 200 70 164
3 200 105 70
3 80 98 226
3 226 98 90
3 9 133 226
3 226 133 80
3 178 141 229
3 229 67 178
3 49 127 194
3 49 231 127
3 194 152 49
3 152 214 49
3 49 214 16
3 16 231 49
3 254 77 102
3 102 77 245
3 86 185 199
3 146 90 199
3 199 90 86
3 85 150 134
3 85 86 112
3 134 86 85
3 23 175 61
3 73 23 61
3 61 33 73
3 48 33 61
3 11 50 147
3 147 50 21
3 147 140 11
3 147 21 104
3 104 140 147
3 202 183 207
3 202 50 183
3 202 33 48
3 48 21 202
3 21 50 202
3 207 105 202
3 202 105 33
3 158 133 24
3 158 47 249
3 24 47 158
3 249 94 158
3 26 124 208
3 208 88 26
3 232 186 157
3 9 161 157
3 157 186 9
3 57 157 161
3 233 232 57
3 232 157 57
3 3 31 188
3 188 31 155
3 166 88 40
3 3 203 166
3 215 88 166
3 166 31 3
3 40 31 166
3 166 136 215
3 203 136 166
3 216 136 203
3 216 203 7
3 106 170 63
3 92 170 242
3 180 212 156
3 140 225 156
3 2 110 167
3 2 212 180
3 167 212 2
3 180 240 2
3 2 240 110
3 230 240 171
3 121 240 230
3 93 30 1
3 129 25 72
3 58 82 224
3 114 32 192
3 114 22 32
3 192 16 114
3 16 214 114
3 214 22 114
3 237 206 149
3 123 206 237
3 123 237 19
3 19 18 115
3 95 18 19
3 8 120 36
3 149 206 8
3 8 222 149
3 36 163 8
3 163 222 8
3 42 120 131
3 242 170 247
3 247 42 242
3 247 153 42
3 142 101 20
3 108 101 142
3 20 153 142
3 142 153 29
3 118 108 142
3 142 66 118
3 29 66 142
3 234 101 109
3 109 101 108
3 108 65 109
3 78 234 109
3 109 65 78
3 81 97 190
3 97 243 190
3 190 89 81
3 41 89 190
3 122 41 190
3 190 87 122
3 190 243 87
3 119 222 246
3 210 222 119
3 246 97 119
3 97 210 119
3 149 222 217
3 217 222 210
3 210 255 217
3 217 237 149
3 10 18 95
3 183 18 10
3 60 177 144
3 144 161 60
3 60 90 177
3 60 226 90
3 60 161 9
3 9 226 60
3 189 178 67
3 189 45 194
3 189 67 45
3 194 127 189
3 127 178 189
3 176 84 191
3 176 191 46
3 253 27 176
3 27 84 176
3 46 241 176
3 241 75 176
3 209 139 254
3 209 241 139
3 209 75 241
3 141 14 143
3 143 209 254
3 14 209 143
3 253 176 250
3 250 176 75
3 250 213 253
3 75 209 250
3 250 209 14
3 141 178 52
3 52 14 141
3 52 250 14
3 52 178 127
3 127 213 52
3 213 250 52
3 254 139 55
3 55 77 254
3 139 132 55
3 138 77 55
3 55 132 138
3 146 199 12
3 12 218 146
3 205 218 12
3 193 199 185
3 80 133 172
3 172 17 80
3 133 158 172
3 94 17 172
3 172 158 94
3 197 98 80
3 80 17 197
3 224 150 197
3 197 17 224
3 239 61 175
3 175 58 239
3 239 83 48
3 48 61 239
3 239 94 83
3 125 161 144
3 144 208 125
3 125 57 161
3 125 208 124
3 125 124 233
3 233 57 125
3 252 208 144
3 88 208 252
3 144 177 252
3 177 218 252
3 40 88 252
3 205 40 252
3 252 218 205
3 251 136 162
3 136 216 162
3 106 63 159
3 159 63 91
3 1 196 159
3 196 106 159
3 159 128 1
3 159 91 128
3 170 92 13
3 59 63 13
3 13 63 170
3 13 74 59
3 180 156 103
3 103 240 180
3 171 240 103
3 140 156 39
3 39 156 212
3 11 140 39
3 39 212 11
3 135 113 251
3 121 230 135
3 171 130 35
3 35 230 171
3 35 124 26
3 35 130 124
3 35 135 230
3 26 113 35
3 113 135 35
3 139 241 211
3 211 132 139
3 211 241 46
3 46 79 211
3 211 79 184
3 184 30 96
3 96 211 184
3 132 211 96
3 138 132 96
3 30 93 96
3 96 93 138
3 181 72 25
3 82 72 181
3 100 129 6
3 129 72 6
3 6 175 100
3 53 17 94
3 94 239 53
3 53 239 58
3 224 17 53
3 53 58 224
3 183 44 71
3 71 18 183
3 115 18 71
3 111 115 71
3 71 44 111
3 173 198 123
3 123 19 173
3 173 19 115
3 173 115 220
3 220 198 173
3 242 42 5
3 42 131 5
3 5 92 242
3 123 198 28
3 28 5 131
3 28 198 37
3 37 5 28
3 179 131 120
3 179 28 131
3 179 206 123
3 123 28 179
3 182 170 106
3 182 247 170
3 182 106 196
3 196 126 182
3 126 153 182
3 153 247 182
3 237 217 195
3 95 19 195
3 195 19 237
3 195 217 255
3 195 10 95
3 255 10 195
3 187 255 221
3 187 10 255
3 187 221 99
3 187 99 207
3 207 183 187
3 183 10 187
3 229 141 76
3 141 193 76
3 76 185 229
3 76 193 185
3 4 12 199
3 155 205 4
3 205 12 4
3 150 85 238
3 238 197 150
3 238 85 112
3 112 98 238
3 98 197 238
3 59 74 160
3 7 91 160
3 160 216 7
3 160 162 216
3 160 63 59
3 91 63 160
3 137 5 37
3 92 5 137
3 248 156 225
3 248 103 156
3 248 225 233
3 171 103 248
3 233 130 248
3 248 130 171
3 227 188 245
3 3 188 227
3 1 151 219
3 219 93 1
3 219 236 93
3 82 181 154
3 224 82 154
3 45 150 154
3 154 150 224
3 175 6 165
3 165 6 72
3 165 58 175
3 165 72 82
3 82 58 165
3 120 8 201
3 201 179 120
3 201 8 206
3 206 179 201
3 155 4 116
3 116 188 155
3 116 102 245
3 245 188 116
3 199 193 235
3 235 4 199
3 254 102 235
3 102 116 235
3 235 116 4
3 235 193 141
3 235 143 254
3 141 143 235
3 68 160 74
3 162 160 68
3 251 162 68
3 68 74 121
3 121 135 68
3 68 135 251
3 223 34 121
3 121 74 223
3 223 37 34
3 223 137 37
3 228 227 245
3 236 227 228
3 245 77 228
3 228 77 138
3 138 93 228
3 93 236 228
3 43 227 236
3 236 219 43
3 3 227 43
3 43 219 151
3 43 203 3
3 43 151 7
3 7 203 43
3 45 154 15
3 15 154 181
3 194 45 15
3 15 25 194
3 15 181 25
3 137 223 54
3 54 13 92
3 92 137 54
3 74 13 54
3 54 223 74