ply
format ascii 1.0
comment https://github.com/mikedh/trimesh
element vertex 256
property float x
property float y
property float z
element face 508
property list uchar int vertex_indices
end_header
0.55427414 -1.41842496 -0.82350725
0.84427881 0.67921871 0.82353520
-0.48016909 1.82013059 0.32040387
0.42632440 0.31108761 1.43075502
0.05446041 -0.78497630 1.46324468
0.51238632 1.75009143 -0.42054334
-0.60775858 -1.56353307 -0.54403400
0.51167637 1.03600407 1.14639997
0.41871589 1.15921032 -1.16165495
-0.79939818 -0.03443211 1.05044436
-0.39774850 1.34511459 -1.05836880
-0.80922240 1.36782098 0.01548166
-0.08511643 -0.72752655 1.47678792
0.46588945 1.84777784 0.27501586
0.45688960 -1.77110350 0.50243121
-0.41466686 -1.91985786 0.13655977
-0.02234566 -1.81981051 -0.77908945
-0.92948943 -0.91212815 0.36994234
-0.43304077 1.67435598 -0.69869077
-0.19585426 1.78500962 -0.77219790
0.78332084 0.98302937 -0.77882093
-1.03122115 0.55501908 0.00004910
-0.25576290 -1.83917820 -0.65248120
-0.77674150 -0.95711327 -0.81109202
-0.95737326 0.04739514 0.70433867
-0.35627109 -1.93174040 -0.30053794
-0.18289037 1.17728293 1.27835166
0.48264942 -1.74283171 -0.50619066
0.27058420 1.82358444 -0.66396570
0.99735719 0.51988882 -0.41414252
1.04854405 0.24425264 0.24960092
0.22601622 0.11157793 1.54279876
-0.40700915 -1.47224629 -0.94815326
-0.93765146 -0.19912277 -0.74507147
-0.02203944 2.07332730 0.20876320
-0.21131787 1.41155112 1.12391853
0.55603808 0.86707121 -1.18058479
0.15971224 2.05449176 -0.18088898
0.46046150 -0.65642297 -1.33782399
-0.78347063 1.37258744 0.28675362
0.10011689 0.31770328 1.55542493
-0.41270009 -0.15317655 -1.45406091
0.71457976 1.31419194 -0.63003886
0.60044724 0.31459370 1.28627694
-0.55303061 1.77350342 -0.18780389
-0.37335971 -1.91002786 0.33381248
0.94223106 -0.96595550 -0.16141905
-1.01867974 0.42979389 0.35665756
-1.02408242 -0.12319251 -0.44610047
0.01131009 -2.00016880 -0.46177173
-0.85683656 1.10816920 -0.44024092
0.99625593 -0.39753965 -0.49114925
0.34765762 -1.91151369 0.38490430
-0.92731583 -1.03622103 0.08816226
0.34347370 1.96052420 0.21637118
0.78885329 -0.93328238 0.80195504
0.08460396 -1.67998278 -0.93376559
-0.64644778 0.76962709 1.11698937
-0.83629668 -1.29620337 -0.11483596
0.53018475 1.66537213 0.54797661
-0.64867443 -0.09697327 1.25512207
-0.89873093 -0.83917987 -0.57694662
0.48497695 -1.22599947 -1.06140518
0.67865509 1.43441594 0.56363094
0.68692362 -1.19487298 -0.80783427
0.70078933 -0.41692024 -1.15230000
1.04654312 0.20490374 -0.28862697
-0.19742814 -1.90260029 0.58909100
0.26057598 1.73720455 0.79304439
0.70333594 0.96253896 -0.94278270
-0.71252614 0.26269087 -1.16243505
-0.49976322 1.76352942 -0.42295372
-0.61116451 -1.65648866 -0.34049475
-0.77375245 -0.66385335 -0.96929997
0.28912166 1.85994399 0.58435959
0.72750968 -1.51569891 0.17348957
0.01668025 -1.60780513 1.01079023
0.66701645 -0.86878145 1.04751289
0.60646421 -0.28419596 -1.28415608
0.98586357 -0.73465657 -0.25917348
-0.76441574 -0.63638818 0.99563062
-0.11827079 -0.17574129 -1.56562376
-0.74205178 -1.50251007 -0.07861346
-1.03409970 -0.43475580 -0.23315120
0.68126810 -1.38778996 -0.62018943
-0.51687169 -1.38596141 0.90443051
-0.37978014 -1.22733617 1.15068400
-0.41281551 -1.17523062 -1.15727389
-0.00913003 0.59595037 1.51536882
-0.27700904 -0.17416094 -1.52114081
-0.41487581 -0.90548956 1.28621423
0.72829068 1.15910161 0.75674367
0.48930582 1.86005473 0.02513989
0.90111744 0.02354970 0.85159248
-1.03197026 -0.51430815 0.14345370
-0.27970845 1.53438663 -0.99200225
1.02840233 -0.16460469 0.41580659
0.04570841 -0.34937450 -1.55710220
-0.68073732 -0.88678837 1.01831543
-0.65242004 0.64497179 -1.15441060
-0.64178878 -1.26596701 -0.82655555
0.67759919 0.62297881 -1.12880123
0.35810566 -0.91007406 1.32121980
-0.57457167 1.53366578 0.65925288
-0.95370358 0.70631969 0.47623283
-0.81729674 -0.09501516 -1.01687872
0.89518392 1.06703651 0.31351224
-0.23614144 0.50388712 -1.49404740
0.90479767 -0.07707822 -0.84105462
0.68916851 -0.03903754 -1.20884442
-0.26694915 2.01995134 0.12043417
-0.24452169 2.02554798 -0.15647379
-0.58137804 -1.07502806 1.04954851
-0.03412607 1.26769078 1.25683844
-0.21325989 -1.70593500 -0.85934722
-0.23224965 1.97991300 -0.37690637
0.20480569 -0.72585827 1.45151019
1.06141925 0.25366575 0.01072238
1.00097537 0.03898948 -0.55552727
0.21385399 0.37347174 -1.52291501
0.58222735 1.22028363 -0.95258272
-0.00562554 1.97723019 0.51663369
-0.59391320 -0.50583017 -1.25829983
0.17605042 1.75597036 -0.81870216
-0.41038939 0.98283970 1.25703919
-0.50123507 0.70408034 1.29117453
1.01468766 0.61141425 -0.19469655
0.16538280 -2.06319761 -0.08688829
0.75632292 0.92887092 0.86983770
-0.47660375 -1.69072521 -0.60870540
-0.44401979 1.29846942 1.05165792
0.47879636 1.67924905 -0.62217426
0.94736862 -0.48842192 0.63408619
-0.92058367 -0.21786328 0.78860825
-0.37113726 -1.58141184 0.87720752
-0.07377382 1.50957453 1.08887327
0.09619105 1.15484416 1.31064582
0.36131972 1.96870840 0.00272118
0.91478503 -0.31145313 0.78465581
0.77120101 -1.22699249 0.58363992
-0.89688760 1.03642631 0.35860011
0.21018071 -1.68340826 0.88556081
0.96315634 0.39743435 -0.61786616
0.36393765 -1.55835783 0.90732938
-0.43529066 0.15385380 1.43924081
0.19618124 -1.54273689 -1.02749598
-0.30685106 -0.72117609 1.41288972
-0.93846315 1.00258470 0.02104742
0.20178722 -1.00536430 -1.35407674
0.15893276 1.19298136 -1.27702546
-0.59264958 -1.47615445 0.69793254
0.69536954 0.74644846 1.06049871
-0.18510024 -1.99436629 -0.38979071
0.89092129 0.97483534 -0.47071835
-0.59266627 -1.71120405 0.24296550
0.12442182 -0.22363228 1.56112695
-0.69239962 1.40372741 0.57176590
-0.76032484 0.44031009 1.06076837
-0.99410111 -0.23497976 0.55575359
0.84217441 1.10373473 0.50533837
0.42849937 1.65110278 0.73560804
-0.65948081 0.32999781 1.21938014
0.25625241 1.39464855 1.11579525
0.45023221 0.60823125 -1.35834491
-0.59782666 0.06172175 -1.31022346
-0.72900933 -1.48241341 -0.28833607
0.18932685 0.71016318 1.46064901
-0.54526979 1.79773021 0.05815164
-0.61389619 -0.93569702 -1.08430672
0.36210480 -0.97287405 -1.29319334
0.70957690 1.56463444 -0.04645037
-0.45260185 1.48213482 0.89240557
-0.98336542 -0.55181849 0.46078697
-0.04155848 1.92575717 -0.61371827
-0.17571232 0.27230400 -1.54580534
-0.85738462 -1.12232220 -0.41663286
0.68781316 -1.60146439 -0.03275924
-0.42037591 -0.12858410 1.45043659
0.03927631 -1.98191988 0.50430679
0.37994781 1.61048675 -0.83849603
-0.57221949 1.65316164 0.47176924
-0.48660856 -1.85499156 -0.12922485
0.94731134 0.96966720 0.04526394
-0.74905431 1.30752182 -0.54448867
1.06056857 -0.26704940 -0.03637416
-0.24051318 -1.53611469 1.01230431
-0.88268322 0.05768623 0.89144558
-0.52525032 1.00728738 -1.14767420
0.37232220 -0.13484454 1.47848225
-0.05226452 -2.04176354 0.33523679
-0.16840744 -0.44581243 -1.52428102
0.84597152 -1.13352644 -0.44930521
-0.16352381 -1.50181210 -1.07368839
0.01531564 -1.40705919 1.16962683
-0.12182977 -2.07839346 -0.01387203
-0.12629165 1.49408758 -1.09081495
1.00919580 0.59936774 0.26448992
-0.71832365 -1.25821209 0.68348980
0.11836412 1.92955256 -0.58524406
-0.16936374 -1.01210988 1.36069036
-0.72404212 -0.04961964 -1.16323566
0.35835490 1.44460630 -1.01299095
-0.86659211 0.76377976 -0.72563893
0.36740187 0.85254526 1.33753014
0.73768973 -0.83779269 -0.95325708
-0.07560978 -0.43927786 1.54147303
0.22399680 1.46553314 -1.07832026
-0.75499284 0.64846194 -1.00675547
-0.38763782 0.55819386 1.41160512
0.65316904 -1.49671638 0.53558159
0.04689554 0.48747873 -1.53588331
1.00894094 -0.68011516 0.10426407
-0.65066117 1.62097406 0.27317929
0.30889520 -1.99291086 -0.14880529
-0.10824515 -1.91836643 -0.61005771
0.00826563 0.95697659 1.40554988
0.36460891 1.16551685 1.19695520
0.03579372 1.03822505 -1.37125468
-0.26949498 -0.34422731 1.50776219
0.77154535 0.42853826 1.04622447
0.00843840 2.07539701 -0.19901928
-0.54645944 0.48106655 -1.30979121
0.28051129 0.64542335 -1.44535196
0.19819982 2.02386451 0.27521709
-0.80146003 -1.33477914 0.28075048
-0.77829099 1.03754771 0.74848866
-0.72159392 -0.30947053 1.14318097
0.58041131 -0.05210616 1.32718360
0.78016287 -0.12086406 1.07721257
-0.06497912 -1.74456549 0.86727291
-0.20517485 1.61491048 0.95771474
0.15507682 -1.99577820 -0.41451550
-0.78002971 0.71585166 0.93648088
-0.56392664 1.09405529 1.05866039
0.58815861 0.15741828 -1.31505585
0.10222919 -1.22648621 1.27165973
0.76904052 0.14976411 1.09312141
0.05402311 1.50524509 -1.09498215
-0.63238674 -1.25185108 0.85496032
-0.96498591 -0.77416563 -0.35071954
-0.31950805 1.83535480 0.59336030
0.82289147 -1.29945099 0.23394340
0.65305620 1.60869205 -0.29882371
-0.07900382 -0.73127210 -1.47651100
-0.10559583 2.08144403 0.00512939
0.54565001 -0.54520410 1.29569316
0.31817925 0.17586055 -1.50338924
0.82625610 1.28881776 -0.24105695
-0.61830246 1.31068933 0.82611728
-1.06378722 -0.03610703 0.16049348
0.49071807 -1.84452474 0.17490567
0.11026542 1.44104445 1.13411784
-0.26755714 0.27864930 1.51607573
0.51704735 -1.82339907 -0.12747924
0.42552319 -1.34873044 1.03171659
-0.18676716 0.78803819 -1.43802750
3 249 48 83
3 64 0 62
3 220 34 37
3 64 62 204
3 204 191 64
3 51 191 204
3 213 27 253
3 21 48 249
3 104 24 232
3 40 205 155
3 7 151 128
3 128 151 1
3 115 111 220
3 220 111 244
3 244 34 220
3 113 26 215
3 117 184 66
3 66 51 118
3 184 51 66
3 117 196 30
3 30 184 117
3 30 196 1
3 64 191 84
3 84 0 64
3 84 27 0
3 46 191 79
3 79 191 51
3 79 51 184
3 168 87 100
3 100 23 168
3 168 23 73
3 168 73 122
3 122 87 168
3 25 152 194
3 32 87 192
3 100 87 32
3 32 129 100
3 145 62 0
3 0 27 145
3 220 37 198
3 99 70 207
3 78 246 234
3 246 163 234
3 118 51 108
3 51 204 108
3 126 196 117
3 117 66 126
3 126 66 29
3 148 145 192
3 107 174 41
3 122 164 41
3 81 174 210
3 210 174 107
3 210 97 81
3 38 204 62
3 38 148 97
3 38 246 78
3 38 97 246
3 73 33 105
3 207 70 105
3 112 86 90
3 146 177 90
3 231 213 127
3 27 213 231
3 134 45 67
3 67 229 134
3 185 86 134
3 134 229 185
3 249 83 94
3 112 90 98
3 150 45 134
3 175 23 100
3 11 183 50
3 47 24 104
3 47 21 249
3 104 21 47
3 186 232 24
3 186 133 9
3 24 133 186
3 31 40 155
3 215 26 88
3 136 113 215
3 251 113 136
3 7 128 91
3 212 167 11
3 225 232 233
3 104 232 225
3 225 140 104
3 44 183 11
3 11 167 44
3 44 167 111
3 121 34 110
3 34 244 110
3 111 167 110
3 110 244 111
3 218 177 146
3 121 110 240
3 233 124 130
3 56 16 192
3 192 145 56
3 56 231 16
3 56 145 27
3 27 231 56
3 129 32 22
3 22 214 152
3 152 25 22
3 22 25 129
3 107 41 221
3 221 41 164
3 164 70 221
3 70 99 221
3 20 69 120
3 120 42 20
3 120 69 36
3 20 42 153
3 153 126 29
3 101 69 20
3 36 69 101
3 101 163 36
3 101 234 163
3 62 145 169
3 145 148 169
3 169 38 62
3 148 38 169
3 192 87 243
3 243 148 192
3 97 148 243
3 89 174 81
3 89 41 174
3 222 163 246
3 255 210 107
3 107 221 255
3 65 38 78
3 204 38 65
3 65 108 204
3 122 73 200
3 73 105 200
3 200 164 122
3 200 70 164
3 200 105 70
3 80 98 226
3 226 98 90
3 9 133 226
3 226 133 80
3 178 141 229
3 229 67 178
3 49 127 194
3 49 231 127
3 194 152 49
3 152 214 49
3 49 214 16
3 16 231 49
3 254 77 102
3 102 77 245
3 86 185 199
3 146 90 199
3 199 90 86
3 85 150 134
3 85 86 112
3 134 86 85
3 23 175 61
3 73 23 61
3 61 33 73
3 48 33 61
3 11 50 147
3 147 50 21
3 147 140 11
3 147 21 104
3 104 140 147
3 202 183 207
3 202 50 183
3 202 33 48
3 48 21 202
3 21 50 202
3 207 105 202
3 202 105 33
3 158 133 24
3 158 47 249
3 24 47 158
3 249 94 158
3 26 124 208
3 208 88 26
3 232 186 157
3 9 161 157
3 157 186 9
3 57 157 161
3 233 232 57
3 232 157 57
3 3 31 188
3 188 31 155
3 166 88 40
3 3 203 166
3 215 88 166
3 166 31 3
3 40 31 166
3 166 136 215
3 203 136 166
3 216 136 203
3 216 203 7
3 106 170 63
3 92 170 242
3 180 212 156
3 140 225 156
3 2 110 167
3 2 212 180
3 167 212 2
3 180 240 2
3 2 240 110
3 230 240 171
3 121 240 230
3 93 30 1
3 129 25 72
3 58 82 224
3 114 32 192
3 114 22 32
3 192 16 114
3 16 214 114
3 214 22 114
3 237 206 149
3 123 206 237
3 123 237 19
3 19 18 115
3 95 18 19
3 8 120 36
3 149 206 8
3 8 222 149
3 36 163 8
3 163 222 8
3 42 120 131
3 242 170 247
3 247 42 242
3 247 153 42
3 142 101 20
3 108 101 142
3 20 153 142
3 142 153 29
3 118 108 142
3 142 66 118
3 29 66 142
3 234 101 109
3 109 101 108
3 108 65 109
3 78 234 109
3 109 65 78
3 81 97 190
3 97 243 190
3 190 89 81
3 41 89 190
3 122 41 190
3 190 87 122
3 190 243 87
3 119 222 246
3 210 222 119
3 246 97 119
3 97 210 119
3 149 222 217
3 217 222 210
3 210 255 217
3 217 237 149
3 10 18 95
3 183 18 10
3 60 177 144
3 144 161 60
3 60 90 177
3 60 226 90
3 60 161 9
3 9 226 60
3 189 178 67
3 189 45 194
3 189 67 45
3 194 127 189
3 127 178 189
3 176 84 191
3 176 191 46
3 253 27 176
3 27 84 176
3 46 241 176
3 241 75 176
3 209 139 254
3 209 241 139
3 209 75 241
3 141 14 143
3 143 209 254
3 14 209 143
3 253 176 250
3 250 176 75
3 250 213 253
3 75 209 250
3 250 209 14
3 141 178 52
3 52 14 141
3 52 250 14
3 52 178 127
3 127 213 52
3 213 250 52
3 254 139 55
3 55 77 254
3 139 132 55
3 138 77 55
3 55 132 138
3 146 199 12
3 12 218 146
3 205 218 12
3 193 199 185
3 80 133 172
3 172 17 80
3 133 158 172
3 94 17 172
3 172 158 94
3 197 98 80
3 80 17 197
3 224 150 197
3 197 17 224
3 239 61 175
3 175 58 239
3 239 83 48
3 48 61 239
3 239 94 83
3 125 161 144
3 144 208 125
3 125 57 161
3 125 208 124
3 125 124 233
3 233 57 125
3 252 208 144
3 88 208 252
3 144 177 252
3 177 218 252
3 40 88 252
3 205 40 252
3 252 218 205
3 251 136 162
3 136 216 162
3 106 63 159
3 159 63 91
3 1 196 159
3 196 106 159
3 159 128 1
3 159 91 128
3 170 92 13
3 59 63 13
3 13 63 170
3 13 74 59
3 180 156 103
3 103 240 180
3 171 240 103
3 140 156 39
3 39 156 212
3 11 140 39
3 39 212 11
3 135 113 251
3 121 230 135
3 171 130 35
3 35 230 171
3 35 124 26
3 35 130 124
3 35 135 230
3 26 113 35
3 113 135 35
3 139 241 211
3 211 132 139
3 211 241 46
3 46 79 211
3 211 79 184
3 184 30 96
3 96 211 184
3 132 211 96
3 138 132 96
3 30 93 96
3 96 93 138
3 181 72 25
3 82 72 181
3 100 129 6
3 129 72 6
3 6 175 100
3 53 17 94
3 94 239 53
3 53 239 58
3 224 17 53
3 53 58 224
3 183 44 71
3 71 18 183
3 115 18 71
3 111 115 71
3 71 44 111
3 173 198 123
3 123 19 173
3 173 19 115
3 173 115 220
3 220 198 173
3 242 42 5
3 42 131 5
3 5 92 242
3 123 198 28
3 28 5 131
3 28 198 37
3 37 5 28
3 179 131 120
3 179 28 131
3 179 206 123
3 123 28 179
3 182 170 106
3 182 247 170
3 182 106 196
3 196 126 182
3 126 153 182
3 153 247 182
3 237 217 195
3 95 19 195
3 195 19 237
3 195 217 255
3 195 10 95
3 255 10 195
3 187 255 221
3 187 10 255
3 187 221 99
3 187 99 207
3 207 183 187
3 183 10 187
3 229 141 76
3 141 193 76
3 76 185 229
3 76 193 185
3 4 12 199
3 155 205 4
3 205 12 4
3 150 85 238
3 238 197 150
3 238 85 112
3 112 98 238
3 98 197 238
3 59 74 160
3 7 91 160
3 160 216 7
3 160 162 216
3 160 63 59
3 91 63 160
3 137 5 37
3 92 5 137
3 248 156 225
3 248 103 156
3 248 225 233
3 171 103 248
3 233 130 248
3 248 130 171
3 227 188 245
3 3 188 227
3 1 151 219
3 219 93 1
3 219 236 93
3 82 181 154
3 224 82 154
3 45 150 154
3 154 150 224
3 175 6 165
3 165 6 72
3 165 58 175
3 165 72 82
3 82 58 165
3 120 8 201
3 201 179 120
3 201 8 206
3 206 179 201
3 155 4 116
3 116 188 155
3 116 102 245
3 245 188 116
3 199 193 235
3 235 4 199
3 254 102 235
3 102 116 235
3 235 116 4
3 235 193 141
3 235 143 254
3 141 143 235
3 68 160 74
3 162 160 68
3 251 162 68
3 68 74 121
3 121 135 68
3 68 135 251
3 223 34 121
3 121 74 223
3 223 37 34
3 223 137 37
3 228 227 245
3 236 227 228
3 245 77 228
3 228 77 138
3 138 93 228
3 93 236 228
3 43 227 236
3 236 219 43
3 3 227 43
3 43 219 151
3 43 203 3
3 43 151 7
3 7 203 43
3 45 154 15
3 15 154 181
3 194 45 15
3 15 25 194
3 15 181 25
3 137 223 54
3 54 13 92
3 92 137 54
3 74 13 54
3 54 223 74