ply
format ascii 1.0
comment https://github.com/mikedh/trimesh
element vertex 256
property float x
property float y
property float z
element face 508
property list uchar int vertex_indices
end_header
2.04994535 -2.15630865 -1.90838218
3.12250781 1.03255749 1.90844691
-1.77587271 2.76698709 0.74249870
1.57673180 0.47291961 3.31560802
0.20141812 -1.19333160 3.39089894
1.89502585 2.66051269 -0.97456020
-2.24775362 -2.37690425 -1.26073551
1.89240026 1.57494736 2.65664840
1.54859221 1.76224720 -2.69200015
-2.95651984 -0.05234417 2.43428254
-1.47104573 2.04486132 -2.45264649
-2.99285412 2.07938004 0.03587694
-0.31479734 -1.10599566 3.42228389
1.72306049 2.80901670 0.63731724
1.68977511 -2.69245553 1.16432583
-1.53361726 -2.91859388 0.31646135
-0.08264391 -2.76650047 -1.80544901
-3.43765330 -1.38662958 0.85729831
-1.60157180 2.54537845 -1.61913443
-0.72435367 2.71359587 -1.78947866
2.89705873 1.49441457 -1.80482674
-3.81390119 0.84374750 0.00011379
-0.94592172 -2.79594374 -1.51204920
-2.87272549 -1.45501649 -1.87961125
-3.54077983 0.07205074 1.63222289
-1.31764436 -2.93665767 -0.69646168
-0.67640758 1.78972137 2.96243119
1.78504598 -2.64947629 -1.17303789
1.00073719 2.77223778 -1.53866315
3.68865752 0.79034203 -0.95972705
3.87796879 0.37131616 0.57842106
0.83590561 0.16962227 3.57525635
-1.50529563 -2.23812866 -2.19723463
-3.46783996 -0.30270910 -1.72661638
-0.08151136 3.15190029 0.48378441
-0.78154474 2.14585900 2.60455012
2.05646896 1.31813335 -2.73586774
0.59068489 3.12326598 -0.41918916
1.70298553 -0.99790311 -3.10025144
-2.89761281 2.08662605 0.66451812
0.37027550 0.48297682 3.60451627
-1.52634323 -0.23286104 -3.36961675
2.64282465 1.99785233 -1.46004176
2.22071338 0.47824958 2.98079705
-2.04534602 2.69610381 -0.43521363
-1.38084543 -2.90365005 0.77357149
3.48477745 -1.46845865 -0.37406984
-3.76751757 0.65337849 0.82651234
-3.78749919 -0.18727891 -1.03378594
0.04182961 -3.04068375 -1.07010210
-3.16895175 1.68465388 -1.02020705
3.68458462 -0.60434514 -1.13818109
1.28578806 -2.90590882 0.89197087
-3.42961454 -1.57527721 0.20430577
1.27031410 2.98041534 0.50141501
2.91752028 -1.41878843 1.85843742
0.31290197 -2.55393267 -2.16389298
-2.39084315 1.16999757 2.58849263
-3.09298635 -1.97050583 -0.26611894
1.96085215 2.53172112 1.26987195
-2.39907837 -0.14742008 2.90859914
-3.32389522 -1.27573252 -1.33700657
1.79365420 -1.86378098 -2.45968294
2.50995970 2.18061852 1.30614901
2.54054046 -1.81646204 -1.87206185
2.59182167 -0.63380784 -2.67032099
3.87056851 0.31149742 -0.66885942
-0.73017454 -2.89235854 1.36514974
0.96372253 2.64092183 1.83778799
2.60124016 1.46326470 -2.18478918
-2.63522935 0.39934620 -2.69380784
-1.84834027 2.68094110 -0.98014599
-2.26035023 -2.51821637 -0.78905690
-2.86167097 -1.00919890 -2.24623966
1.06929672 2.82751203 1.35418534
2.69064498 -2.30418611 0.40204188
0.06169078 -2.44420695 2.34238863
2.46691489 -1.32073331 2.42748904
2.24296641 -0.43203852 -2.97588205
3.64614940 -1.11683488 -0.60060441
-2.82713962 -0.96744585 2.30725789
-0.43741646 -0.26716429 -3.62815070
-2.74442792 -2.28413606 -0.18217753
-3.82454729 -0.66092163 -0.54030073
2.51962352 -2.10973716 -1.43721676
-1.91161478 -2.10695720 2.09591246
-1.40459108 -1.86581302 2.66657591
-1.52677011 -1.78660142 -2.68184733
-0.03376681 0.90597183 3.51169062
-1.02449906 -0.26476184 -3.52506685
-1.53438997 -1.37653744 2.98065162
2.69353342 1.76208186 1.75366533
1.80966437 2.82768035 0.05825878
3.33272147 0.03580057 1.97346640
-3.81667185 -0.78185827 0.33243725
-1.03448272 2.33259535 -2.29884958
3.80347586 -0.25023428 0.96358335
0.16904946 -0.53112382 -3.60840297
-2.51766062 -1.34810770 2.35982728
-2.41293120 0.98049480 -2.67521214
-2.37361217 -1.92454016 -1.91544616
2.50605464 0.94706082 -2.61586547
1.32442939 -1.38350677 3.06177306
-2.12501431 2.33149934 1.52774179
-3.52720785 1.07375669 1.10361409
-3.02271652 -0.14444333 -2.35649776
3.31077671 1.62212336 0.72652805
-0.87335306 0.76601595 -3.46228075
3.34633279 -0.11717535 -1.94904613
2.54884291 -0.05934540 -2.80135632
-0.98729330 3.07075739 0.27909216
-0.90434682 3.07926536 -0.36260977
-2.15018725 -1.63427210 2.43220639
-0.12621294 1.92716062 2.91257668
-0.78872722 -2.59338546 -1.99143708
-0.85895956 3.00989032 -0.87343657
0.75745994 -1.10345948 3.36370564
3.92558694 0.38562608 0.02484787
3.70203924 0.05927234 -1.28736973
0.79092443 0.56775677 -3.52917814
2.15332818 1.85509157 -2.20749950
-0.02080568 3.00581193 1.19723845
-2.19654751 -0.76896989 -2.91596317
0.65111053 2.66944981 -1.89724696
-1.51779723 1.49412620 2.91304183
-1.85378373 1.07035244 2.99214649
3.75275326 0.92948020 -0.45118657
0.61165702 -3.13650107 -0.20135349
2.79720879 1.41208220 2.01574755
-1.76268649 -2.57026339 -1.41060376
-1.64217699 1.97395074 2.43709469
1.77079582 2.55281711 -1.44181645
3.50377822 -0.74250561 1.46942091
-3.40471601 -0.33119869 1.82750785
-1.37262595 -2.40408349 2.03282619
-0.27284744 2.29487562 2.52333689
0.35575604 1.75560963 3.03726888
1.33631635 2.99285698 0.00630601
3.38327026 -0.47347525 1.81834841
2.85223436 -1.86529064 1.35251749
-3.31707788 1.57558930 0.83101398
0.77733904 -2.55913997 2.05218410
3.56216812 0.60418504 -1.43183291
1.34599853 -2.36903667 2.10263014
-1.60989285 0.23389062 3.33527303
0.72556293 -2.34528947 -2.38110209
-1.13486779 -1.09634161 3.27420735
-3.47084188 1.52414274 0.04877495
0.74629629 -1.52836835 -3.13791513
0.58780199 1.81358635 -2.95935774
-2.19187403 -2.24407005 1.61737740
2.57177687 1.13476098 2.45758224
-0.68458062 -3.03186250 -0.90329456
3.29501176 1.48195779 -1.09083498
-2.19193602 -2.60139561 0.56304425
0.46016562 -0.33996880 3.61772966
-2.56079268 2.13396525 1.32500088
-2.81200957 0.66936535 2.45820713
-3.67661524 -0.35721940 1.28789425
3.11472487 1.67791235 1.17106271
1.58477569 2.51002884 1.70468593
-2.43904495 0.50166708 2.82577157
0.94773209 2.12016344 2.58572555
1.66515315 0.92464137 -3.14780593
-2.21102118 0.09383023 -3.03629017
-2.69619155 -2.25358486 -0.66818529
0.70021248 1.07959962 3.38488388
-2.01664305 2.73293376 0.13475966
-2.27045321 -1.42245924 -2.51275468
1.33922005 -1.47897625 -2.99682498
2.62432194 2.37857842 -0.10764333
-1.67391706 2.25316119 2.06804585
-3.63690996 -0.83888191 1.06782007
-0.15370120 2.92756224 -1.42222059
-0.64986002 0.41396019 -3.58222389
-3.17097878 -1.70616949 -0.96549815
2.54383016 -2.43456793 -0.07591572
-1.55473173 -0.19547530 3.36121774
0.14526074 -3.01294136 1.16867232
1.40521121 2.44828367 -1.94311678
-2.11631489 2.51315880 1.09327030
-1.79968870 -2.81998324 -0.29946354
3.50356650 1.47410119 0.10489390
-2.77032638 1.98771238 -1.26178908
3.92244077 -0.40597209 -0.08429289
-0.88952160 -2.33522224 2.34589744
-3.26454377 0.08769539 2.06582141
-1.94260252 1.53129184 -2.65960121
1.37700832 -0.20499250 3.42621040
-0.19329676 -3.10391665 0.77687222
-0.62284344 -0.67773008 -3.53234363
3.12876797 -1.72320211 -1.04121244
-0.60478169 -2.28307509 -2.48814774
0.05664384 -2.13903022 2.71047401
-0.45057911 -3.15960169 -0.03214681
-0.46708110 2.27133203 -2.52783656
3.73244190 0.91116697 0.61292458
-2.65667105 -1.91275108 1.58390796
0.43776163 2.93333173 -1.35623491
-0.62638026 -1.53862309 3.15324140
-2.67782044 -0.07543245 -2.69566321
1.32535112 2.19611001 -2.34748840
-3.20503211 1.16110826 -1.68158364
1.35881078 1.29605079 3.09957027
2.72829533 -1.27362382 -2.20906234
-0.27963760 -0.66779613 3.57218432
0.82843691 2.22792339 -2.49888158
-2.79228973 0.98580056 -2.33303857
-1.43365204 0.84857386 3.27123046
2.41570115 -2.27532864 1.24114799
0.17343998 0.74107176 -3.55923080
3.73149943 -1.03392029 0.24161983
-2.40642619 2.46422648 0.63306117
1.14242792 -3.02964997 -0.34483895
-0.40033731 -2.91632676 -1.41373765
0.03056988 1.45480871 3.25719810
1.34848130 1.77183461 2.77380443
0.13238065 1.57832384 -3.17772293
-0.99670881 -0.52329898 3.49406314
2.85350776 0.65146971 2.42450333
0.03120885 3.15504670 -0.46120399
-2.02104306 0.73132384 -3.03528857
1.03745186 0.98118126 -3.34943485
0.73302853 3.07670641 0.63778353
-2.96414542 -2.02914929 0.65060657
-2.87845612 1.57729411 1.73453534
-2.66876602 -0.47046128 2.64918852
2.14661169 -0.07921248 3.07559347
2.88537931 -0.18373917 2.49631476
-0.24032086 -2.65211201 2.00980401
-0.75882524 2.45500875 2.21939230
0.57354105 -3.03400898 -0.96059138
-2.88488674 1.08824742 2.17018533
-2.08564425 1.66319764 2.45332217
2.17526460 0.23930940 -3.04748869
0.37808770 -1.86452091 2.94692326
2.84424400 0.22767341 2.53318167
0.19980077 2.28829384 -2.53749371
-2.33883953 -1.90308094 1.98127091
-3.56893468 -1.17689705 -0.81275165
-1.18167877 2.79013109 1.37504339
3.04340816 -1.97544301 0.54213661
2.41528392 2.44555545 -0.69248915
-0.29219022 -1.11168981 -3.42164230
-0.39053899 3.16423941 0.01188676
2.01804948 -0.82882661 3.00261784
1.17676425 0.26734561 -3.48392940
3.05585194 1.95927823 -0.55862141
-2.28674960 1.99252772 1.91443050
-3.93434477 -0.05489039 0.37192497
1.81488740 -2.80407143 0.40532354
0.40780914 2.19069529 2.62818599
-0.98954189 0.42360643 3.51332879
1.91226447 -2.77195597 -0.29541829
1.57376862 -2.05035830 2.39088297
-0.69074565 1.19798625 -3.33246136
3 249 48 83
3 64 0 62
3 220 34 37
3 64 62 204
3 204 191 64
3 51 191 204
3 213 27 253
3 21 48 249
3 104 24 232
3 40 205 155
3 7 151 128
3 128 151 1
3 115 111 220
3 220 111 244
3 244 34 220
3 113 26 215
3 117 184 66
3 66 51 118
3 184 51 66
3 117 196 30
3 30 184 117
3 30 196 1
3 64 191 84
3 84 0 64
3 84 27 0
3 46 191 79
3 79 191 51
3 79 51 184
3 168 87 100
3 100 23 168
3 168 23 73
3 168 73 122
3 122 87 168
3 25 152 194
3 32 87 192
3 100 87 32
3 32 129 100
3 145 62 0
3 0 27 145
3 220 37 198
3 99 70 207
3 78 246 234
3 246 163 234
3 118 51 108
3 51 204 108
3 126 196 117
3 117 66 126
3 126 66 29
3 148 145 192
3 107 174 41
3 122 164 41
3 81 174 210
3 210 174 107
3 210 97 81
3 38 204 62
3 38 148 97
3 38 246 78
3 38 97 246
3 73 33 105
3 207 70 105
3 112 86 90
3 146 177 90
3 231 213 127
3 27 213 231
3 134 45 67
3 67 229 134
3 185 86 134
3 134 229 185
3 249 83 94
3 112 90 98
3 150 45 134
3 175 23 100
3 11 183 50
3 47 24 104
3 47 21 249
3 104 21 47
3 186 232 24
3 186 133 9
3 24 133 186
3 31 40 155
3 215 26 88
3 136 113 215
3 251 113 136
3 7 128 91
3 212 167 11
3 225 232 233
3 104 232 225
3 225 140 104
3 44 183 11
3 11 167 44
3 44 167 111
3 121 34 110
3 34 244 110
3 111 167 110
3 110 244 111
3 218 177 146
3 121 110 240
3 233 124 130
3 56 16 192
3 192 145 56
3 56 231 16
3 56 145 27
3 27 231 56
3 129 32 22
3 22 214 152
3 152 25 22
3 22 25 129
3 107 41 221
3 221 41 164
3 164 70 221
3 70 99 221
3 20 69 120
3 120 42 20
3 120 69 36
3 20 42 153
3 153 126 29
3 101 69 20
3 36 69 101
3 101 163 36
3 101 234 163
3 62 145 169
3 145 148 169
3 169 38 62
3 148 38 169
3 192 87 243
3 243 148 192
3 97 148 243
3 89 174 81
3 89 41 174
3 222 163 246
3 255 210 107
3 107 221 255
3 65 38 78
3 204 38 65
3 65 108 204
3 122 73 200
3 73 105 200
3 200 164 122
3 200 70 164
3 200 105 70
3 80 98 226
3 226 98 90
3 9 133 226
3 226 133 80
3 178 141 229
3 229 67 178
3 49 127 194
3 49 231 127
3 194 152 49
3 152 214 49
3 49 214 16
3 16 231 49
3 254 77 102
3 102 77 245
3 86 185 199
3 146 90 199
3 199 90 86
3 85 150 134
3 85 86 112
3 134 86 85
3 23 175 61
3 73 23 61
3 61 33 73
3 48 33 61
3 11 50 147
3 147 50 21
3 147 140 11
3 147 21 104
3 104 140 147
3 202 183 207
3 202 50 183
3 202 33 48
3 48 21 202
3 21 50 202
3 207 105 202
3 202 105 33
3 158 133 24
3 158 47 249
3 24 47 158
3 249 94 158
3 26 124 208
3 208 88 26
3 232 186 157
3 9 161 157
3 157 186 9
3 57 157 161
3 233 232 57
3 232 157 57
3 3 31 188
3 188 31 155
3 166 88 40
3 3 203 166
3 215 88 166
3 166 31 3
3 40 31 166
3 166 136 215
3 203 136 166
3 216 136 203
3 216 203 7
3 106 170 63
3 92 170 242
3 180 212 156
3 140 225 156
3 2 110 167
3 2 212 180
3 167 212 2
3 180 240 2
3 2 240 110
3 230 240 171
3 121 240 230
3 93 30 1
3 129 25 72
3 58 82 224
3 114 32 192
3 114 22 32
3 192 16 114
3 16 214 114
3 214 22 114
3 237 206 149
3 123 206 237
3 123 237 19
3 19 18 115
3 95 18 19
3 8 120 36
3 149 206 8
3 8 222 149
3 36 163 8
3 163 222 8
3 42 120 131
3 242 170 247
3 247 42 242
3 247 153 42
3 142 101 20
3 108 101 142
3 20 153 142
3 142 153 29
3 118 108 142
3 142 66 118
3 29 66 142
3 234 101 109
3 109 101 108
3 108 65 109
3 78 234 109
3 109 65 78
3 81 97 190
3 97 243 190
3 190 89 81
3 41 89 190
3 122 41 190
3 190 87 122
3 190 243 87
3 119 222 246
3 210 222 119
3 246 97 119
3 97 210 119
3 149 222 217
3 217 222 210
3 210 255 217
3 217 237 149
3 10 18 95
3 183 18 10
3 60 177 144
3 144 161 60
3 60 90 177
3 60 226 90
3 60 161 9
3 9 226 60
3 189 178 67
3 189 45 194
3 189 67 45
3 194 127 189
3 127 178 189
3 176 84 191
3 176 191 46
3 253 27 176
3 27 84 176
3 46 241 176
3 241 75 176
3 209 139 254
3 209 241 139
3 209 75 241
3 141 14 143
3 143 209 254
3 14 209 143
3 253 176 250
3 250 176 75
3 250 213 253
3 75 209 250
3 250 209 14
3 141 178 52
3 52 14 141
3 52 250 14
3 52 178 127
3 127 213 52
3 213 250 52
3 254 139 55
3 55 77 254
3 139 132 55
3 138 77 55
3 55 132 138
3 146 199 12
3 12 218 146
3 205 218 12
3 193 199 185
3 80 133 172
3 172 17 80
3 133 158 172
3 94 17 172
3 172 158 94
3 197 98 80
3 80 17 197
3 224 150 197
3 197 17 224
3 239 61 175
3 175 58 239
3 239 83 48
3 48 61 239
3 239 94 83
3 125 161 144
3 144 208 125
3 125 57 161
3 125 208 124
3 125 124 233
3 233 57 125
3 252 208 144
3 88 208 252
3 144 177 252
3 177 218 252
3 40 88 252
3 205 40 252
3 252 218 205
3 251 136 162
3 136 216 162
3 106 63 159
3 159 63 91
3 1 196 159
3 196 106 159
3 159 128 1
3 159 91 128
3 170 92 13
3 59 63 13
3 13 63 170
3 13 74 59
3 180 156 103
3 103 240 180
3 171 240 103
3 140 156 39
3 39 156 212
3 11 140 39
3 39 212 11
3 135 113 251
3 121 230 135
3 171 130 35
3 35 230 171
3 35 124 26
3 35 130 124
3 35 135 230
3 26 113 35
3 113 135 35
3 139 241 211
3 211 132 139
3 211 241 46
3 46 79 211
3 211 79 184
3 184 30 96
3 96 211 184
3 132 211 96
3 138 132 96
3 30 93 96
3 96 93 138
3 181 72 25
3 82 72 181
3 100 129 6
3 129 72 6
3 6 175 100
3 53 17 94
3 94 239 53
3 53 239 58
3 224 17 53
3 53 58 224
3 183 44 71
3 71 18 183
3 115 18 71
3 111 115 71
3 71 44 111
3 173 198 123
3 123 19 173
3 173 19 115
3 173 115 220
3 220 198 173
3 242 42 5
3 42 131 5
3 5 92 242
3 123 198 28
3 28 5 131
3 28 198 37
3 37 5 28
3 179 131 120
3 179 28 131
3 179 206 123
3 123 28 179
3 182 170 106
3 182 247 170
3 182 106 196
3 196 126 182
3 126 153 182
3 153 247 182
3 237 217 195
3 95 19 195
3 195 19 237
3 195 217 255
3 195 10 95
3 255 10 195
3 187 255 221
3 187 10 255
3 187 221 99
3 187 99 207
3 207 183 187
3 183 10 187
3 229 141 76
3 141 193 76
3 76 185 229
3 76 193 185
3 4 12 199
3 155 205 4
3 205 12 4
3 150 85 238
3 238 197 150
3 238 85 112
3 112 98 238
3 98 197 238
3 59 74 160
3 7 91 160
3 160 216 7
3 160 162 216
3 160 63 59
3 91 63 160
3 137 5 37
3 92 5 137
3 248 156 225
3 248 103 156
3 248 225 233
3 171 103 248
3 233 130 248
3 248 130 171
3 227 188 245
3 3 188 227
3 1 151 219
3 219 93 1
3 219 236 93
3 82 181 154
3 224 82 154
3 45 150 154
3 154 150 224
3 175 6 165
3 165 6 72
3 165 58 175
3 165 72 82
3 82 58 165
3 120 8 201
3 201 179 120
3 201 8 206
3 206 179 201
3 155 4 116
3 116 188 155
3 116 102 245
3 245 188 116
3 199 193 235
3 235 4 199
3 254 102 235
3 102 116 235
3 235 116 4
3 235 193 141
3 235 143 254
3 141 143 235
3 68 160 74
3 162 160 68
3 251 162 68
3 68 74 121
3 121 135 68
3 68 135 251
3 223 34 121
3 121 74 223
3 223 37 34
3 223 137 37
3 228 227 245
3 236 227 228
3 245 77 228
3 228 77 138
3 138 93 228
3 93 236 228
3 43 227 236
3 236 219 43
3 3 227 43
3 43 219 151
3 43 203 3
3 43 151 7
3 7 203 43
3 45 154 15
3 15 154 181
3 194 45 15
3 15 25 194
3 15 181 25
3 137 223 54
3 54 13 92
3 92 137 54
3 74 13 54
3 54 223 74