ply
format ascii 1.0
comment https://github.com/mikedh/trimesh
element vertex 256
property float x
property float y
property float z
element face 508
property list uchar int vertex_indices
end_header
1.91789615 -2.68114495 -2.33108187
2.92136836 1.28387749 2.33116102
-1.66147816 3.44045973 0.90695941
1.47516513 0.58802617 4.05000305
0.18844357 -1.48378336 4.14197063
1.77295601 3.30806994 -1.19042170
-2.10296249 -2.95543242 -1.53998375
1.77049959 1.95828271 3.24508619
1.44883823 2.19117069 -3.28826833
-2.76607275 -0.06508451 2.97346735
-1.37628686 2.54257178 -2.99589872
-2.80006647 2.58549213 0.04382355
-0.29451936 -1.37519026 4.18030739
1.61206794 3.49271941 0.77848065
1.58092666 -3.34778738 1.42221975
-1.43482780 -3.62896705 0.38655639
-0.07732033 -3.43985486 -2.20534945
-3.21621370 -1.72412920 1.04718673
-1.49840498 3.16491270 -1.97776675
-0.67769372 3.37407327 -2.18584156
2.71044207 1.85814857 -2.20458937
-3.56822515 1.04911196 0.00013899
-0.88498926 -3.47646427 -1.84696257
-2.68767619 -1.80916119 -2.29593825
-3.31269717 0.08958758 1.99375427
-1.23276699 -3.65142751 -0.85072535
-0.63283610 2.22533178 3.61859870
1.67006052 -3.29434729 -1.43286157
0.93627381 3.44698834 -1.87947142
3.45104933 0.98270786 -1.17230308
3.62816596 0.46169290 0.70653921
0.78205997 0.21090761 4.36716270
-1.40833056 -2.78287959 -2.68391418
-3.24445581 -0.37638721 -2.10905552
-0.07626073 3.91905904 0.59094089
-0.73120081 2.66815186 3.18144846
1.92399955 1.63896132 -3.34185243
0.55263537 3.88345551 -0.51203799
1.59328616 -1.24078834 -3.78694582
-2.71096039 2.59450173 0.81170642
0.34642386 0.60053128 4.40290356
-1.42802238 -0.28953841 -4.11597443
2.47258449 2.48412085 -1.78343558
2.07766390 0.59465349 3.64103270
-1.91359317 3.35232377 -0.53161186
-1.29189694 -3.61038589 0.94491476
3.26030207 -1.82587504 -0.45692495
-3.52482939 0.81240797 1.00958180
-3.54352403 -0.23286179 -1.26276577
0.03913512 -3.78077292 -1.30712593
-2.96482062 2.09469128 -1.24617922
3.44723868 -0.75144011 -1.39028406
1.20296276 -3.61319447 1.08953917
-3.20869255 -1.95869291 0.24955875
1.18848562 3.70583558 0.61247659
2.72958541 -1.76411545 2.27007461
0.29274610 -3.17554879 -2.64318728
-2.23683476 1.45476985 3.16183424
-2.89374876 -2.45011854 -0.32506332
1.83454192 3.14793110 1.55114388
-2.24453950 -0.18330149 3.55284333
-3.10978341 -1.58624029 -1.63314867
1.67811430 -2.31741714 -3.00449371
2.34827828 2.71137166 1.59545636
2.37688899 -2.25858092 -2.28671670
2.42486691 -0.78807390 -3.26178741
3.62124228 0.38731456 -0.81700933
-0.68313968 -3.59634614 1.66752553
0.90164340 3.28371096 2.24485135
2.43367887 1.81941700 -2.66871190
-2.46547866 0.49654534 -3.29047656
-1.72927761 3.33347058 -1.19724476
-2.11474776 -3.13113928 -0.96383017
-2.67733359 -1.25483346 -2.74377370
1.00041699 3.51571608 1.65413249
2.51732469 -2.86501503 0.49109268
0.05771691 -3.03911638 2.86121893
2.30800629 -1.64219403 2.96516895
2.09848356 -0.53719485 -3.63502908
3.41127920 -1.38866758 -0.73363608
-2.64502668 -1.20291805 2.81830716
-0.40923986 -0.33219090 -4.43177271
-2.56764293 -2.84008503 -0.22252919
-3.57818556 -0.82178712 -0.65997535
2.35731959 -2.62323785 -1.75555503
-1.78847635 -2.61978149 2.56014943
-1.31411302 -2.31994390 3.25721288
-1.42842174 -2.22145247 -3.27586675
-0.03159169 1.12648141 4.28951740
-0.95850503 -0.32920370 -4.30585623
-1.43555081 -1.71158075 3.64085507
2.52002692 2.19096494 2.14209580
1.69309306 3.51592565 0.07116289
3.11804104 0.04451427 2.41058207
-3.57081747 -0.97215915 0.40607089
-0.96784550 2.90033889 -2.80803633
3.55847144 -0.31114021 1.17701352
0.15815997 -0.66039711 -4.40765095
-2.35548306 -1.67623127 2.88252044
-2.25749993 1.21914291 -3.26776195
-2.22071385 -2.39296484 -2.33971047
2.34462476 1.17757130 -3.19527006
1.23911500 -1.72024643 3.73994470
-1.98812950 2.89897633 1.86613107
-3.29999924 1.33510447 1.34806061
-2.82800531 -0.17960021 -2.87845349
3.09750986 2.01694107 0.88745135
-0.81709516 0.95246094 -4.22916317
3.13077545 -0.14569533 -2.38075280
2.38465667 -0.07378981 -3.42184639
-0.92369586 3.81816649 0.34091005
-0.84609246 3.82874513 -0.44292650
-2.01168084 -2.03204679 2.97093129
-0.11808281 2.39622307 3.55770159
-0.73792058 -3.22460413 -2.43253303
-0.80362886 3.74248481 -1.06689966
0.70866740 -1.37203681 4.10875416
3.67271662 0.47948578 0.03035158
3.46356893 0.07369897 -1.57251740
0.73997629 0.70594633 -4.31087828
2.01461935 2.30661297 -2.69645262
-0.01946547 3.73741364 1.46242237
-2.05505490 -0.95613384 -3.56183839
0.60916865 3.31918240 -2.31748009
-1.42002690 1.85778999 3.55826998
-1.73437047 1.33087158 3.65489602
3.51101613 1.15571165 -0.55112273
0.57225657 -3.89991188 -0.24595256
2.61702394 1.75577688 2.46222830
-1.64914131 -3.19585419 -1.72304738
-1.53639460 2.45440173 2.97690248
1.65672827 3.17416191 -1.76117349
3.27807903 -0.92322826 1.79489219
-3.18539786 -0.41181102 2.23229408
-1.28420687 -2.98922706 2.48308969
-0.25527173 2.85343838 3.08224678
0.33283970 2.18291736 3.71001291
1.25023627 3.72130537 0.00770277
3.16533375 -0.58871704 2.22110581
2.66850495 -2.31929421 1.65209520
-3.10340500 1.95908082 1.01508057
0.72726601 -3.18202353 2.50673532
3.33270764 0.75124109 -1.74897861
1.25929475 -2.94565010 2.56835508
-1.50619006 0.29081857 4.07402372
0.67882514 -2.91612291 -2.90850759
-1.06176424 -1.36318648 3.99943256
-3.24726439 1.89511251 0.05957842
0.69822294 -1.90036654 -3.83295202
0.54993820 2.25500536 -3.61484480
-2.05068254 -2.79026699 1.97562051
2.40611362 1.41095698 3.00192785
-0.64048272 -3.76980472 -1.10337102
3.08276033 1.84265995 -1.33245087
-2.05074024 -3.23456383 0.68775654
0.43052360 -0.42271572 4.41904354
-2.39583683 2.65336323 1.61848378
-2.63087130 0.83228600 3.00269127
-3.43978262 -0.44416505 1.57315814
2.91408682 2.08630896 1.43044889
1.48269093 3.12095881 2.08226752
-2.28193140 0.62377071 3.45166969
0.88668305 2.63620210 3.15845418
1.55789077 1.14969504 -3.84503365
-2.06859612 0.11666811 -3.70881748
-2.52251363 -2.80209780 -0.81618589
0.65510762 1.34236956 4.13462353
-1.88673913 3.39811802 0.16460843
-2.12419987 -1.76867962 -3.06932044
1.25295293 -1.83895266 -3.66061068
2.45527363 2.95751405 -0.13148592
-1.56609011 2.80157089 2.52611041
-3.40263510 -1.04306209 1.30433834
-0.14380039 3.64011812 -1.73723722
-0.60799867 0.51471633 -4.37567329
-2.96671724 -2.12144375 -1.17935240
2.37996697 -3.02713108 -0.09273077
-1.45458221 -0.24305314 4.10571527
0.13590363 -3.74627829 1.42752898
1.31469321 3.04418540 -2.37351012
-1.97999036 3.12485075 1.33542562
-1.68376005 -3.50635481 -0.36579365
3.27788091 1.83289099 0.12812752
-2.59187317 2.47151303 -1.54127073
3.66977310 -0.50478393 -0.10296346
-0.83222222 -2.90360522 2.86550522
-3.05425525 0.10904007 2.52339315
-1.81746805 1.90400159 -3.24869323
1.28830707 -0.25488678 4.18510342
-0.18084536 -3.85939646 0.94894660
-0.58272243 -0.84268665 -4.31474495
2.92722559 -2.14262199 -1.27183723
-0.56582409 -2.83876562 -3.03926349
0.05299508 -2.65966105 3.31083417
-0.42155463 -3.92863488 -0.03926721
-0.43699363 2.82416439 -3.08774328
3.49201322 1.13294101 0.74868512
-2.48553896 -2.37830639 1.93473780
0.40956280 3.64729214 -1.65663600
-0.58603138 -1.91311729 3.85167289
-2.50532627 -0.09379239 -3.29274273
1.23997736 2.73063374 -2.86744857
-2.99857688 1.44371700 -2.05404830
1.27128172 1.61150396 3.78611374
2.55254960 -1.58361828 -2.69836164
-0.26162449 -0.83033478 4.36341000
0.77507234 2.77019024 -3.05237484
-2.61242175 1.22574019 -2.84979796
-1.34130204 1.05511308 3.99579597
2.26009154 -2.82913375 1.51605773
0.16226768 0.92144543 -4.34758759
3.49113131 -1.28557193 0.29513773
-2.25141382 3.06400871 0.77328193
1.06883740 -3.76705360 -0.42121950
-0.37454921 -3.62614799 -1.72687531
0.02860069 1.80890286 3.97865558
1.26161754 2.20309138 3.38819194
0.12385322 1.96248102 -3.88157701
-0.93250489 -0.65066773 4.26798534
2.66969657 0.81003457 2.96152210
0.02919851 3.92297149 -0.56335902
-1.89085567 0.90932494 -3.70759392
0.97062343 1.21999657 -4.09132242
0.68580979 3.82556319 0.77905029
-2.77320719 -2.52303553 0.79471350
-2.69303775 1.96120059 2.11872864
-2.49685502 -0.58496952 3.23597431
2.00833559 -0.09849246 3.75682616
2.69951487 -0.22846049 3.04923940
-0.22484037 -3.29762459 2.45496821
-0.70994478 3.05254722 2.71097970
0.53659582 -3.77247357 -1.17335892
-2.69905424 1.35312212 2.65087342
-1.95129561 2.06801271 2.99672389
2.03514290 0.29755625 -3.72249627
0.35373282 -2.31833720 3.59965611
2.66102934 0.28308815 3.09427214
0.18693042 2.84525490 -3.09953928
-2.18818092 -2.36628246 2.42011523
-3.33903837 -1.46334863 -0.99277318
-1.10555983 3.46923709 1.67961049
2.84736419 -2.45625734 0.66221786
2.25970101 3.04079294 -0.84587294
-0.27336851 -1.38227022 -4.17952347
-0.36538205 3.93440151 0.01451963
1.88805485 -1.03055942 3.66768694
1.10096192 0.33241636 -4.25560713
2.85900640 2.43615818 -0.68235397
-2.13944650 2.47750020 2.33846998
-3.68091035 -0.06825048 0.45430496
1.69797969 -3.48657036 0.49510121
0.38153973 2.72390103 3.21031976
-0.92579961 0.52671039 4.29151821
1.78908420 -3.44663811 -0.36085239
1.47239280 -2.54940653 2.92045474
-0.64625061 1.48957098 -4.07058907
3 249 48 83
3 64 0 62
3 220 34 37
3 64 62 204
3 204 191 64
3 51 191 204
3 213 27 253
3 21 48 249
3 104 24 232
3 40 205 155
3 7 151 128
3 128 151 1
3 115 111 220
3 220 111 244
3 244 34 220
3 113 26 215
3 117 184 66
3 66 51 118
3 184 51 66
3 117 196 30
3 30 184 117
3 30 196 1
3 64 191 84
3 84 0 64
3 84 27 0
3 46 191 79
3 79 191 51
3 79 51 184
3 168 87 100
3 100 23 168
3 168 23 73
3 168 73 122
3 122 87 168
3 25 152 194
3 32 87 192
3 100 87 32
3 32 129 100
3 145 62 0
3 0 27 145
3 220 37 198
3 99 70 207
3 78 246 234
3 246 163 234
3 118 51 108
3 51 204 108
3 126 196 117
3 117 66 126
3 126 66 29
3 148 145 192
3 107 174 41
3 122 164 41
3 81 174 210
3 210 174 107
3 210 97 81
3 38 204 62
3 38 148 97
3 38 246 78
3 38 97 246
3 73 33 105
3 207 70 105
3 112 86 90
3 146 177 90
3 231 213 127
3 27 213 231
3 134 45 67
3 67 229 134
3 185 86 134
3 134 229 185
3 249 83 94
3 112 90 98
3 150 45 134
3 175 23 100
3 11 183 50
3 47 24 104
3 47 21 249
3 104 21 47
3 186 232 24
3 186 133 9
3 24 133 186
3 31 40 155
3 215 26 88
3 136 113 215
3 251 113 136
3 7 128 91
3 212 167 11
3 225 232 233
3 104 232 225
3 225 140 104
3 44 183 11
3 11 167 44
3 44 167 111
3 121 34 110
3 34 244 110
3 111 167 110
3 110 244 111
3 218 177 146
3 121 110 240
3 233 124 130
3 56 16 192
3 192 145 56
3 56 231 16
3 56 145 27
3 27 231 56
3 129 32 22
3 22 214 152
3 152 25 22
3 22 25 129
3 107 41 221
3 221 41 164
3 164 70 221
3 70 99 221
3 20 69 120
3 120 42 20
3 120 69 36
3 20 42 153
3 153 126 29
3 101 69 20
3 36 69 101
3 101 163 36
3 101 234 163
3 62 145 169
3 145 148 169
3 169 38 62
3 148 38 169
3 192 87 243
3 243 148 192
3 97 148 243
3 89 174 81
3 89 41 174
3 222 163 246
3 255 210 107
3 107 221 255
3 65 38 78
3 204 38 65
3 65 108 204
3 122 73 200
3 73 105 200
3 200 164 122
3 200 70 164
3 200 105 70
3 80 98 226
3 226 98 90
3 9 133 226
3 226 133 80
3 178 141 229
3 229 67 178
3 49 127 194
3 49 231 127
3 194 152 49
3 152 214 49
3 49 214 16
3 16 231 49
3 254 77 102
3 102 77 245
3 86 185 199
3 146 90 199
3 199 90 86
3 85 150 134
3 85 86 112
3 134 86 85
3 23 175 61
3 73 23 61
3 61 33 73
3 48 33 61
3 11 50 147
3 147 50 21
3 147 140 11
3 147 21 104
3 104 140 147
3 202 183 207
3 202 50 183
3 202 33 48
3 48 21 202
3 21 50 202
3 207 105 202
3 202 105 33
3 158 133 24
3 158 47 249
3 24 47 158
3 249 94 158
3 26 124 208
3 208 88 26
3 232 186 157
3 9 161 157
3 157 186 9
3 57 157 161
3 233 232 57
3 232 157 57
3 3 31 188
3 188 31 155
3 166 88 40
3 3 203 166
3 215 88 166
3 166 31 3
3 40 31 166
3 166 136 215
3 203 136 166
3 216 136 203
3 216 203 7
3 106 170 63
3 92 170 242
3 180 212 156
3 140 225 156
3 2 110 167
3 2 212 180
3 167 212 2
3 180 240 2
3 2 240 110
3 230 240 171
3 121 240 230
3 93 30 1
3 129 25 72
3 58 82 224
3 114 32 192
3 114 22 32
3 192 16 114
3 16 214 114
3 214 22 114
3 237 206 149
3 123 206 237
3 123 237 19
3 19 18 115
3 95 18 19
3 8 120 36
3 149 206 8
3 8 222 149
3 36 163 8
3 163 222 8
3 42 120 131
3 242 170 247
3 247 42 242
3 247 153 42
3 142 101 20
3 108 101 142
3 20 153 142
3 142 153 29
3 118 108 142
3 142 66 118
3 29 66 142
3 234 101 109
3 109 101 108
3 108 65 109
3 78 234 109
3 109 65 78
3 81 97 190
3 97 243 190
3 190 89 81
3 41 89 190
3 122 41 190
3 190 87 122
3 190 243 87
3 119 222 246
3 210 222 119
3 246 97 119
3 97 210 119
3 149 222 217
3 217 222 210
3 210 255 217
3 217 237 149
3 10 18 95
3 183 18 10
3 60 177 144
3 144 161 60
3 60 90 177
3 60 226 90
3 60 161 9
3 9 226 60
3 189 178 67
3 189 45 194
3 189 67 45
3 194 127 189
3 127 178 189
3 176 84 191
3 176 191 46
3 253 27 176
3 27 84 176
3 46 241 176
3 241 75 176
3 209 139 254
3 209 241 139
3 209 75 241
3 141 14 143
3 143 209 254
3 14 209 143
3 253 176 250
3 250 176 75
3 250 213 253
3 75 209 250
3 250 209 14
3 141 178 52
3 52 14 141
3 52 250 14
3 52 178 127
3 127 213 52
3 213 250 52
3 254 139 55
3 55 77 254
3 139 132 55
3 138 77 55
3 55 132 138
3 146 199 12
3 12 218 146
3 205 218 12
3 193 199 185
3 80 133 172
3 172 17 80
3 133 158 172
3 94 17 172
3 172 158 94
3 197 98 80
3 80 17 197
3 224 150 197
3 197 17 224
3 239 61 175
3 175 58 239
3 239 83 48
3 48 61 239
3 239 94 83
3 125 161 144
3 144 208 125
3 125 57 161
3 125 208 124
3 125 124 233
3 233 57 125
3 252 208 144
3 88 208 252
3 144 177 252
3 177 218 252
3 40 88 252
3 205 40 252
3 252 218 205
3 251 136 162
3 136 216 162
3 106 63 159
3 159 63 91
3 1 196 159
3 196 106 159
3 159 128 1
3 159 91 128
3 170 92 13
3 59 63 13
3 13 63 170
3 13 74 59
3 180 156 103
3 103 240 180
3 171 240 103
3 140 156 39
3 39 156 212
3 11 140 39
3 39 212 11
3 135 113 251
3 121 230 135
3 171 130 35
3 35 230 171
3 35 124 26
3 35 130 124
3 35 135 230
3 26 113 35
3 113 135 35
3 139 241 211
3 211 132 139
3 211 241 46
3 46 79 211
3 211 79 184
3 184 30 96
3 96 211 184
3 132 211 96
3 138 132 96
3 30 93 96
3 96 93 138
3 181 72 25
3 82 72 181
3 100 129 6
3 129 72 6
3 6 175 100
3 53 17 94
3 94 239 53
3 53 239 58
3 224 17 53
3 53 58 224
3 183 44 71
3 71 18 183
3 115 18 71
3 111 115 71
3 71 44 111
3 173 198 123
3 123 19 173
3 173 19 115
3 173 115 220
3 220 198 173
3 242 42 5
3 42 131 5
3 5 92 242
3 123 198 28
3 28 5 131
3 28 198 37
3 37 5 28
3 179 131 120
3 179 28 131
3 179 206 123
3 123 28 179
3 182 170 106
3 182 247 170
3 182 106 196
3 196 126 182
3 126 153 182
3 153 247 182
3 237 217 195
3 95 19 195
3 195 19 237
3 195 217 255
3 195 10 95
3 255 10 195
3 187 255 221
3 187 10 255
3 187 221 99
3 187 99 207
3 207 183 187
3 183 10 187
3 229 141 76
3 141 193 76
3 76 185 229
3 76 193 185
3 4 12 199
3 155 205 4
3 205 12 4
3 150 85 238
3 238 197 150
3 238 85 112
3 112 98 238
3 98 197 238
3 59 74 160
3 7 91 160
3 160 216 7
3 160 162 216
3 160 63 59
3 91 63 160
3 137 5 37
3 92 5 137
3 248 156 225
3 248 103 156
3 248 225 233
3 171 103 248
3 233 130 248
3 248 130 171
3 227 188 245
3 3 188 227
3 1 151 219
3 219 93 1
3 219 236 93
3 82 181 154
3 224 82 154
3 45 150 154
3 154 150 224
3 175 6 165
3 165 6 72
3 165 58 175
3 165 72 82
3 82 58 165
3 120 8 201
3 201 179 120
3 201 8 206
3 206 179 201
3 155 4 116
3 116 188 155
3 116 102 245
3 245 188 116
3 199 193 235
3 235 4 199
3 254 102 235
3 102 116 235
3 235 116 4
3 235 193 141
3 235 143 254
3 141 143 235
3 68 160 74
3 162 160 68
3 251 162 68
3 68 74 121
3 121 135 68
3 68 135 251
3 223 34 121
3 121 74 223
3 223 37 34
3 223 137 37
3 228 227 245
3 236 227 228
3 245 77 228
3 228 77 138
3 138 93 228
3 93 236 228
3 43 227 236
3 236 219 43
3 3 227 43
3 43 219 151
3 43 203 3
3 43 151 7
3 7 203 43
3 45 154 15
3 15 154 181
3 194 45 15
3 15 25 194
3 15 181 25
3 137 223 54
3 54 13 92
3 92 137 54
3 74 13 54
3 54 223 74