ply
format ascii 1.0
comment https://github.com/mikedh/trimesh
element vertex 256
property float x
property float y
property float z
element face 508
property list uchar int vertex_indices
end_header
0.65054727 -2.29551315 -1.31837070
0.99092346 1.09921610 1.31841540
-0.56357074 2.94561505 0.51294154
0.50037360 0.50344980 2.29052663
0.06391976 -1.27036929 2.34254003
0.60138381 2.83226705 -0.67325693
-0.71332145 -2.53034949 -0.87095588
0.60055059 1.67662096 1.83529651
0.49144357 1.87601244 -1.85971868
-0.93824744 -0.05572334 1.68167925
-0.46683431 2.17687130 -1.69436562
-0.94977802 2.21361828 0.02478492
-0.09990049 -1.17739534 2.36422181
0.54681081 2.99035811 0.44027886
0.53624779 -2.86627197 0.80435306
-0.48669127 -3.10700917 0.21862149
-0.02622693 -2.94509721 -1.24726117
-1.09093451 -1.47614598 0.59224874
-0.50825655 2.70970011 -1.11854923
-0.22987263 2.88877702 -1.23622835
0.91937757 1.59088922 -1.24683130
-1.21033621 0.89821720 0.00007861
-0.30018693 -2.97644091 -1.04457128
-0.91165543 -1.54894781 -1.29849482
-1.12366152 0.07670211 1.12759113
-0.41815257 -3.12623906 -0.48113769
-0.21465699 1.90526021 2.04654098
0.56648183 -2.82051802 -0.81037164
0.31758255 2.95120454 -1.06295705
1.17059028 0.84136403 -0.66300976
1.23066795 0.39528716 0.39959151
0.26527348 0.18057255 2.46989989
-0.47770345 -2.38261533 -1.51791918
-1.10051417 -0.32225105 -1.19280112
-0.02586752 3.35537696 0.33421355
-0.24802214 2.28438902 1.79930544
0.65261751 1.40322793 -1.89002371
0.18745302 3.32489419 -0.28958911
0.54044008 -1.06232464 -2.14175153
-0.91955340 2.22133207 0.45907009
0.11750641 0.51415628 2.49011350
-0.48438287 -0.24789383 -2.32783771
0.83869666 2.12682748 -1.00864291
0.70474029 0.50912386 2.05922866
-0.64908767 2.87015581 -0.30065933
-0.43820935 -3.09110069 0.53440762
1.10588920 -1.56325769 -0.25841925
-1.19561636 0.69555855 0.57098085
-1.20195758 -0.19936906 -0.71417195
0.01327457 -3.23698068 -0.73926038
-1.00566244 1.79340982 -0.70479125
1.16929781 -0.64335972 -0.78629148
0.40804303 -3.09350514 0.61620164
-1.08838332 -1.67697215 0.14114086
0.40313241 3.17282176 0.34639332
0.92587095 -1.51038098 1.28386724
0.09929901 -2.71880651 -1.49488556
-0.75873071 1.24552894 1.78821242
-0.98155493 -2.09771562 -0.18384337
0.62227368 2.69516110 0.87726760
-0.76134413 -0.15693706 2.00935221
-1.05483353 -1.35808980 -0.92364633
0.56921363 -1.98410082 -1.69922662
0.79653215 2.32139230 0.90232903
0.80623692 -1.93372715 -1.29327941
0.82251096 -0.67472446 -1.84474206
1.22831953 0.33160672 -0.46206918
-0.23171987 -3.07908034 0.94308859
0.30583599 2.81141162 1.26960194
0.82549995 1.55772853 -1.50932133
-0.83628637 0.42512676 -1.86096752
-0.58656818 2.85401440 -0.67711580
-0.71731901 -2.68078446 -0.54510546
-0.90814722 -1.07434952 -1.55177331
0.33933982 3.01004720 0.93551397
0.85387242 -2.45293713 0.27774322
0.01957748 -2.60199738 1.61819589
0.78287196 -1.40599561 1.67698610
0.71180224 -0.45992959 -2.05583334
1.15710032 -1.18893421 -0.41491649
-0.89718878 -1.02990115 1.59392667
-0.13881350 -0.28441158 -2.50644112
-0.87094039 -2.43159294 -0.12585399
-1.21371472 -0.70358866 -0.37325680
0.79959899 -2.24593496 -0.99287468
-0.60664827 -2.24297571 1.44792247
-0.44574499 -1.98626399 1.84215486
-0.48451835 -1.90193880 -1.85270476
-0.01071585 0.96445853 2.42598677
-0.32512334 -0.28185400 -2.43522739
-0.48693651 -1.46540236 2.05912828
0.85478908 1.87583637 1.21148741
0.57429445 3.01022649 0.04024700
1.05763447 0.03811174 1.36333287
-1.21121550 -0.83233255 0.22965816
-0.32829162 2.48318028 -1.58811796
1.20702779 -0.26638862 0.66567379
0.05364761 -0.56541151 -2.49279857
-0.79897606 -1.43513727 1.63024318
-0.76574033 1.04379249 -1.84812105
-0.75326252 -2.04878235 -1.32325077
0.79529291 1.00820005 -1.80712247
0.42030582 -1.47282171 2.11516953
-0.67437029 2.48201370 1.05541229
-1.11935449 1.14307511 0.76241148
-0.95925480 -0.15376814 -1.62794316
1.05067039 1.72684252 0.50190854
-0.27715737 0.81546754 -2.39185286
1.06195402 -0.12473982 -1.34646261
0.80887169 -0.06317656 -1.93526530
-0.31331614 3.26899600 0.19280568
-0.28699321 3.27805305 -0.25050226
-0.68235892 -1.73977554 1.68024504
-0.04005350 2.05157208 2.01209974
-0.25030148 -2.76080632 -1.37574756
-0.27258959 3.20419955 -0.60339761
0.24037884 -1.17469537 2.32375407
1.24577951 0.41052088 0.01716569
1.17483699 0.06309877 -0.88935566
0.25099877 0.60440940 -2.43806767
0.68335569 1.97485054 -1.52501035
-0.00660265 3.19985771 0.82709014
-0.69707131 -0.81861216 -2.01443934
0.20662901 2.84178114 -1.31067812
-0.48167083 1.59058225 2.01242137
-0.58829570 1.13945103 2.06706929
1.19093096 0.98948449 -0.31169394
0.19410850 -3.33898377 -0.13910136
0.88769031 1.50324178 1.39254200
-0.55938607 -2.73619151 -0.97448963
-0.52114254 2.10138273 1.68362200
0.56195956 2.71761894 -0.99605232
1.11191916 -0.79043943 1.01512229
-1.08048189 -0.35257983 1.26250005
-0.43560091 -2.55928373 1.40434051
-0.08658776 2.44302559 1.74320090
0.11289869 1.86894631 2.09824133
0.42407814 3.18606639 0.00435639
1.07367611 -0.50404131 1.25617242
0.90515262 -1.98570788 0.93436176
-1.05267000 1.67730439 0.57409072
0.24668746 -2.72434998 1.41771352
1.13044906 0.64318937 -0.98915535
0.42715076 -2.52197433 1.45256329
-0.51089728 0.24898987 2.30411196
0.23025638 -2.49669409 -1.64494050
-0.36014870 -1.16711795 2.26192594
-1.10146689 1.62253666 0.03369527
0.23683609 -1.62703502 -2.16777086
0.18653814 1.93066573 -2.04441786
-0.69558817 -2.38894010 1.11733532
0.81614983 1.20801759 1.69777548
-0.21725070 -3.22759008 -0.62402439
1.04566741 1.57762837 -0.75358325
-0.69560778 -2.76933336 0.38896877
0.14603291 -0.36191612 2.49924183
-0.81266397 2.27172732 0.91535246
-0.89238733 0.71257746 1.69820714
-1.16676867 -0.38028038 0.88971800
0.98845357 1.78623319 0.80900711
0.50292635 2.67206836 1.17765081
-0.77402747 0.53405315 1.95213223
0.30076146 2.25703454 1.78630078
0.52843404 0.98433334 -2.17460370
-0.70166451 0.09988762 -2.09756517
-0.85563260 -2.39906931 -0.46160349
0.22221145 1.14929521 2.33838463
-0.63997889 2.90936351 0.09309623
-0.72052521 -1.51428866 -1.73589015
0.42499959 -1.57445431 -2.07030129
0.83282489 2.53213191 -0.07436341
-0.53121525 2.39861822 1.42867136
-1.15416825 -0.89303750 0.73768383
-0.04877686 3.11655641 -0.98251486
-0.20623218 0.44068417 -2.47471333
-1.00630569 -1.81631434 -0.66699660
0.80728090 -2.59173584 -0.05244497
-0.49339193 -0.20809457 2.32203531
0.04609829 -3.20744753 0.80735570
0.44594181 2.60633731 -1.34236646
-0.67160952 2.67540026 0.75526559
-0.57112867 -3.00203252 -0.20687887
1.11185193 1.56926453 0.07246402
-0.87915921 2.11603284 -0.87168372
1.24478114 -0.43218037 -0.05823219
-0.28228843 -2.48597693 1.62062001
-1.03599846 0.09335673 1.42713463
-0.61648220 1.63014722 -1.83733642
0.43699166 -0.21822616 2.36693430
-0.06134246 -3.30429554 0.53668785
-0.19765851 -0.72148222 -2.44025445
0.99291015 -1.83444667 -0.71930242
-0.19192661 -2.43046308 -1.71889102
0.01797584 -2.27711940 1.87248099
-0.14299065 -3.36357570 -0.02220803
-0.14822753 2.41796207 -1.74630928
1.18448520 0.96998906 0.42342764
-0.84309083 -2.03623223 1.09421360
0.13892303 3.12269855 -0.93692994
-0.19878089 -1.63795173 2.17835879
-0.84980261 -0.08030213 -1.86224926
0.42059833 2.33788395 -1.62171912
-1.01711237 1.23606575 -1.16169107
0.43121669 1.37971973 2.14128089
0.86582071 -1.35584497 -1.52609003
-0.08874261 -0.71090692 2.46777773
0.26290330 2.37175107 -1.72630632
-0.88612920 1.04944074 -1.61173666
-0.45496747 0.90335512 2.25986934
0.76661938 -2.42221665 0.85742420
0.05504093 0.78891307 -2.45882893
1.18418610 -1.10066688 0.16691861
-0.76367593 2.62330937 0.43733865
0.36254790 -3.22523475 -0.23822562
-0.12704648 -3.10459542 -0.97665459
0.00970131 1.54872656 2.25017524
0.42793864 1.88621867 1.91623163
0.04201081 1.68021548 -2.19527125
-0.31630415 -0.55708152 2.41380906
0.90555674 0.69352651 1.67492354
0.00990409 3.35872674 -0.31861427
-0.64137518 0.77853584 -2.09687328
0.32923391 1.04452324 -2.31389523
0.23262559 3.27532887 0.44060099
-0.94066739 -2.16014481 0.44945955
-0.91347402 1.67911923 1.19827175
-0.84692919 -0.50083280 1.83014309
0.68122417 -0.08432619 2.12471700
0.91567105 -0.19560079 1.72453308
-0.07626549 -2.82332397 1.38843608
-0.24081212 2.61349630 1.53322637
0.18201244 -3.22987509 -0.66360688
-0.91551483 1.15850127 1.49923253
-0.66187632 1.77056837 1.69483232
0.69031715 0.25475845 -2.10530138
0.11998560 -1.98488855 2.03582764
0.90261680 0.24237129 1.75000191
0.06340650 2.43601894 -1.75298071
-0.74222744 -2.02593780 1.36872447
-1.13259649 -1.25287378 -0.56147450
-0.37500411 2.97025323 0.94992340
0.96582127 -2.10297155 0.37452507
0.76648694 2.60343289 -0.47839335
-0.09272616 -1.18345702 -2.36377859
-0.12393700 3.36851287 0.00821175
0.64042515 -0.88233310 2.07430315
0.37344450 0.28460458 -2.40680838
0.96977037 2.08576322 -0.38591328
-0.72569674 2.12115908 1.32254899
-1.24855876 -0.05843394 0.25693750
0.57595193 -2.98509359 0.28001028
0.12941766 2.33211970 1.81563389
-0.31402972 0.45095313 2.42711854
0.60685444 -2.95090461 -0.20408429
0.49943325 -2.18272281 1.65169740
-0.21920715 1.27532458 -2.30216956
3 249 48 83
3 64 0 62
3 220 34 37
3 64 62 204
3 204 191 64
3 51 191 204
3 213 27 253
3 21 48 249
3 104 24 232
3 40 205 155
3 7 151 128
3 128 151 1
3 115 111 220
3 220 111 244
3 244 34 220
3 113 26 215
3 117 184 66
3 66 51 118
3 184 51 66
3 117 196 30
3 30 184 117
3 30 196 1
3 64 191 84
3 84 0 64
3 84 27 0
3 46 191 79
3 79 191 51
3 79 51 184
3 168 87 100
3 100 23 168
3 168 23 73
3 168 73 122
3 122 87 168
3 25 152 194
3 32 87 192
3 100 87 32
3 32 129 100
3 145 62 0
3 0 27 145
3 220 37 198
3 99 70 207
3 78 246 234
3 246 163 234
3 118 51 108
3 51 204 108
3 126 196 117
3 117 66 126
3 126 66 29
3 148 145 192
3 107 174 41
3 122 164 41
3 81 174 210
3 210 174 107
3 210 97 81
3 38 204 62
3 38 148 97
3 38 246 78
3 38 97 246
3 73 33 105
3 207 70 105
3 112 86 90
3 146 177 90
3 231 213 127
3 27 213 231
3 134 45 67
3 67 229 134
3 185 86 134
3 134 229 185
3 249 83 94
3 112 90 98
3 150 45 134
3 175 23 100
3 11 183 50
3 47 24 104
3 47 21 249
3 104 21 47
3 186 232 24
3 186 133 9
3 24 133 186
3 31 40 155
3 215 26 88
3 136 113 215
3 251 113 136
3 7 128 91
3 212 167 11
3 225 232 233
3 104 232 225
3 225 140 104
3 44 183 11
3 11 167 44
3 44 167 111
3 121 34 110
3 34 244 110
3 111 167 110
3 110 244 111
3 218 177 146
3 121 110 240
3 233 124 130
3 56 16 192
3 192 145 56
3 56 231 16
3 56 145 27
3 27 231 56
3 129 32 22
3 22 214 152
3 152 25 22
3 22 25 129
3 107 41 221
3 221 41 164
3 164 70 221
3 70 99 221
3 20 69 120
3 120 42 20
3 120 69 36
3 20 42 153
3 153 126 29
3 101 69 20
3 36 69 101
3 101 163 36
3 101 234 163
3 62 145 169
3 145 148 169
3 169 38 62
3 148 38 169
3 192 87 243
3 243 148 192
3 97 148 243
3 89 174 81
3 89 41 174
3 222 163 246
3 255 210 107
3 107 221 255
3 65 38 78
3 204 38 65
3 65 108 204
3 122 73 200
3 73 105 200
3 200 164 122
3 200 70 164
3 200 105 70
3 80 98 226
3 226 98 90
3 9 133 226
3 226 133 80
3 178 141 229
3 229 67 178
3 49 127 194
3 49 231 127
3 194 152 49
3 152 214 49
3 49 214 16
3 16 231 49
3 254 77 102
3 102 77 245
3 86 185 199
3 146 90 199
3 199 90 86
3 85 150 134
3 85 86 112
3 134 86 85
3 23 175 61
3 73 23 61
3 61 33 73
3 48 33 61
3 11 50 147
3 147 50 21
3 147 140 11
3 147 21 104
3 104 140 147
3 202 183 207
3 202 50 183
3 202 33 48
3 48 21 202
3 21 50 202
3 207 105 202
3 202 105 33
3 158 133 24
3 158 47 249
3 24 47 158
3 249 94 158
3 26 124 208
3 208 88 26
3 232 186 157
3 9 161 157
3 157 186 9
3 57 157 161
3 233 232 57
3 232 157 57
3 3 31 188
3 188 31 155
3 166 88 40
3 3 203 166
3 215 88 166
3 166 31 3
3 40 31 166
3 166 136 215
3 203 136 166
3 216 136 203
3 216 203 7
3 106 170 63
3 92 170 242
3 180 212 156
3 140 225 156
3 2 110 167
3 2 212 180
3 167 212 2
3 180 240 2
3 2 240 110
3 230 240 171
3 121 240 230
3 93 30 1
3 129 25 72
3 58 82 224
3 114 32 192
3 114 22 32
3 192 16 114
3 16 214 114
3 214 22 114
3 237 206 149
3 123 206 237
3 123 237 19
3 19 18 115
3 95 18 19
3 8 120 36
3 149 206 8
3 8 222 149
3 36 163 8
3 163 222 8
3 42 120 131
3 242 170 247
3 247 42 242
3 247 153 42
3 142 101 20
3 108 101 142
3 20 153 142
3 142 153 29
3 118 108 142
3 142 66 118
3 29 66 142
3 234 101 109
3 109 101 108
3 108 65 109
3 78 234 109
3 109 65 78
3 81 97 190
3 97 243 190
3 190 89 81
3 41 89 190
3 122 41 190
3 190 87 122
3 190 243 87
3 119 222 246
3 210 222 119
3 246 97 119
3 97 210 119
3 149 222 217
3 217 222 210
3 210 255 217
3 217 237 149
3 10 18 95
3 183 18 10
3 60 177 144
3 144 161 60
3 60 90 177
3 60 226 90
3 60 161 9
3 9 226 60
3 189 178 67
3 189 45 194
3 189 67 45
3 194 127 189
3 127 178 189
3 176 84 191
3 176 191 46
3 253 27 176
3 27 84 176
3 46 241 176
3 241 75 176
3 209 139 254
3 209 241 139
3 209 75 241
3 141 14 143
3 143 209 254
3 14 209 143
3 253 176 250
3 250 176 75
3 250 213 253
3 75 209 250
3 250 209 14
3 141 178 52
3 52 14 141
3 52 250 14
3 52 178 127
3 127 213 52
3 213 250 52
3 254 139 55
3 55 77 254
3 139 132 55
3 138 77 55
3 55 132 138
3 146 199 12
3 12 218 146
3 205 218 12
3 193 199 185
3 80 133 172
3 172 17 80
3 133 158 172
3 94 17 172
3 172 158 94
3 197 98 80
3 80 17 197
3 224 150 197
3 197 17 224
3 239 61 175
3 175 58 239
3 239 83 48
3 48 61 239
3 239 94 83
3 125 161 144
3 144 208 125
3 125 57 161
3 125 208 124
3 125 124 233
3 233 57 125
3 252 208 144
3 88 208 252
3 144 177 252
3 177 218 252
3 40 88 252
3 205 40 252
3 252 218 205
3 251 136 162
3 136 216 162
3 106 63 159
3 159 63 91
3 1 196 159
3 196 106 159
3 159 128 1
3 159 91 128
3 170 92 13
3 59 63 13
3 13 63 170
3 13 74 59
3 180 156 103
3 103 240 180
3 171 240 103
3 140 156 39
3 39 156 212
3 11 140 39
3 39 212 11
3 135 113 251
3 121 230 135
3 171 130 35
3 35 230 171
3 35 124 26
3 35 130 124
3 35 135 230
3 26 113 35
3 113 135 35
3 139 241 211
3 211 132 139
3 211 241 46
3 46 79 211
3 211 79 184
3 184 30 96
3 96 211 184
3 132 211 96
3 138 132 96
3 30 93 96
3 96 93 138
3 181 72 25
3 82 72 181
3 100 129 6
3 129 72 6
3 6 175 100
3 53 17 94
3 94 239 53
3 53 239 58
3 224 17 53
3 53 58 224
3 183 44 71
3 71 18 183
3 115 18 71
3 111 115 71
3 71 44 111
3 173 198 123
3 123 19 173
3 173 19 115
3 173 115 220
3 220 198 173
3 242 42 5
3 42 131 5
3 5 92 242
3 123 198 28
3 28 5 131
3 28 198 37
3 37 5 28
3 179 131 120
3 179 28 131
3 179 206 123
3 123 28 179
3 182 170 106
3 182 247 170
3 182 106 196
3 196 126 182
3 126 153 182
3 153 247 182
3 237 217 195
3 95 19 195
3 195 19 237
3 195 217 255
3 195 10 95
3 255 10 195
3 187 255 221
3 187 10 255
3 187 221 99
3 187 99 207
3 207 183 187
3 183 10 187
3 229 141 76
3 141 193 76
3 76 185 229
3 76 193 185
3 4 12 199
3 155 205 4
3 205 12 4
3 150 85 238
3 238 197 150
3 238 85 112
3 112 98 238
3 98 197 238
3 59 74 160
3 7 91 160
3 160 216 7
3 160 162 216
3 160 63 59
3 91 63 160
3 137 5 37
3 92 5 137
3 248 156 225
3 248 103 156
3 248 225 233
3 171 103 248
3 233 130 248
3 248 130 171
3 227 188 245
3 3 188 227
3 1 151 219
3 219 93 1
3 219 236 93
3 82 181 154
3 224 82 154
3 45 150 154
3 154 150 224
3 175 6 165
3 165 6 72
3 165 58 175
3 165 72 82
3 82 58 165
3 120 8 201
3 201 179 120
3 201 8 206
3 206 179 201
3 155 4 116
3 116 188 155
3 116 102 245
3 245 188 116
3 199 193 235
3 235 4 199
3 254 102 235
3 102 116 235
3 235 116 4
3 235 193 141
3 235 143 254
3 141 143 235
3 68 160 74
3 162 160 68
3 251 162 68
3 68 74 121
3 121 135 68
3 68 135 251
3 223 34 121
3 121 74 223
3 223 37 34
3 223 137 37
3 228 227 245
3 236 227 228
3 245 77 228
3 228 77 138
3 138 93 228
3 93 236 228
3 43 227 236
3 236 219 43
3 3 227 43
3 43 219 151
3 43 203 3
3 43 151 7
3 7 203 43
3 45 154 15
3 15 154 181
3 194 45 15
3 15 25 194
3 15 181 25
3 137 223 54
3 54 13 92
3 92 137 54
3 74 13 54
3 54 223 74