ply
format ascii 1.0
comment https://github.com/mikedh/trimesh
element vertex 256
property float x
property float y
property float z
element face 508
property list uchar int vertex_indices
end_header
1.41214204 -1.22357678 -0.87789828
2.15099621 0.58591485 0.87792802
-1.22334218 1.57010043 0.34156591
1.08616030 0.26835373 1.52525342
0.13875052 -0.67714465 1.55988896
1.30542302 1.50968254 -0.44831938
-1.54840600 -1.34875154 -0.57996637
1.30361438 0.89368886 1.22211730
1.06677592 0.99997038 -1.23837996
-2.03665233 -0.02970220 1.11982417
-1.01335657 1.16033709 -1.12827194
-2.06168199 1.17992437 0.01650419
-0.21685386 -0.62758672 1.57432675
1.18696153 1.59394979 0.29318011
1.16403234 -1.52780819 0.53561580
-1.05646014 -1.65612829 0.14557926
-0.05693076 -1.56982434 -0.83054668
-2.36808991 -0.78682971 0.39437628
-1.10327184 1.44435084 -0.74483782
-0.49898419 1.53980410 -0.82319999
1.99569166 0.84799129 -0.83026046
-2.62727499 0.47877648 0.00005235
-0.65161538 -1.58653152 -0.69557625
-1.97892916 -0.82563525 -0.86466300
-2.43913054 0.04088451 0.75085884
-0.90768325 -1.66637850 -0.32038784
-0.46595564 1.01556039 1.36278427
1.22966135 -1.50342000 -0.53962356
0.68937606 1.57307982 -0.70781928
2.54099894 0.44847205 -0.44149581
2.67140937 0.21069981 0.26608655
0.57582879 0.09625054 1.64469743
-1.03695023 -1.27000487 -1.01077688
-2.38888454 -0.17176940 -0.79428190
-0.05615058 1.78851569 0.22255158
-0.53838134 1.21764719 1.19815099
1.41663599 0.74796224 -1.25855994
0.40690401 1.77226746 -0.19283633
1.17313254 -0.56625062 -1.42618454
-1.99607325 1.18403602 0.30569309
0.25507101 0.27406058 1.65815759
-1.05144930 -0.13213478 -1.55009866
1.82055771 1.13366222 -0.67165166
1.52977872 0.27137816 1.37123299
-1.40897381 1.52987838 -0.20020795
-0.95122045 -1.64764857 0.35586011
2.40055227 -0.83326280 -0.17208044
-2.59532285 0.37075338 0.38021407
-2.60908771 -0.10626964 -0.47556451
0.02881509 -1.72540700 -0.49227080
-2.18299007 0.95594078 -0.46931794
2.53819323 -0.34292987 -0.52358866
0.88573849 -1.64893031 0.41032642
-2.36255217 -0.89387602 0.09398519
0.87507892 1.69120824 0.23066205
2.00978684 -0.80507797 0.85492253
0.21554820 -1.44920468 -0.99543887
-1.64697576 0.66390395 1.19076419
-2.13065982 -1.11814475 -0.12242063
1.35076857 1.43660104 0.58416933
-1.65264869 -0.08365212 1.33802032
-2.28972554 -0.72390229 -0.61505276
1.23559129 -1.05758476 -1.13150883
1.72903132 1.23737121 0.60085762
1.75009739 -1.03073406 -0.86119008
1.78542340 -0.35964820 -1.22840714
2.66631150 0.17675625 -0.30769020
-0.50299400 -1.64124131 0.62799925
0.66387779 1.49856591 0.84542334
1.79191160 0.83031559 -1.00505161
-1.81532574 0.22660521 -1.23921156
-1.27326274 1.52127457 -0.45088896
-1.55708337 -1.42893791 -0.36298373
-1.97131395 -0.57266027 -1.03332019
0.73660451 1.60444474 0.62295538
1.85349977 -1.30748844 0.18494821
0.04249682 -1.38694191 1.07755077
1.69937909 -0.74943751 1.11669898
1.54510820 -0.24515614 -1.36897194
2.51171613 -0.63373727 -0.27629137
-1.94752645 -0.54896796 1.06139004
-0.30132228 -0.15159982 -1.66903007
-1.89054906 -1.29611135 -0.08380572
-2.63460898 -0.37503368 -0.24855036
1.73568845 -1.19715023 -0.66115165
-1.31685054 -1.19557285 0.96416634
-0.96757805 -1.05873775 1.22668421
-1.05174339 -1.01379001 -1.23370945
-0.02326088 0.51408505 1.61545575
-0.70574480 -0.15023658 -1.62160909
-1.05699241 -0.78110307 1.37116611
1.85548949 0.99987656 0.80672508
1.24662018 1.60454035 0.02680033
2.29580569 0.02031469 0.90783846
-2.62918377 -0.44365799 0.15292853
-0.71262217 1.32360899 -1.05752194
2.62009358 -0.14199305 0.44326976
0.11645278 -0.30138117 -1.65994561
-1.73433626 -0.76497084 1.08557308
-1.66219151 0.55637240 -1.23065710
-1.63510585 -1.09206200 -0.88114786
1.72634125 0.53740060 -1.20335627
0.91235727 -0.78505778 1.40848374
-1.46385467 1.32298708 0.70279521
-2.42978120 0.60929298 0.50768703
-2.08225322 -0.08196300 -1.08404148
2.28068876 0.92045844 0.33421907
-0.60162508 0.43466845 -1.59272611
2.30518198 -0.06649003 -0.89660454
1.75581670 -0.03367498 -1.28868616
-0.68011492 1.74247205 0.12838860
-0.62297577 1.74729967 -0.16680856
-1.48119557 -0.92735213 1.11886907
-0.08694407 1.09354889 1.33985007
-0.54332906 -1.47159183 -0.91610533
-0.59170985 1.70793366 -0.40180027
0.52179003 -0.62614757 1.54737937
2.70421195 0.21881984 0.01143057
2.55021715 0.03363352 -0.59221870
0.54484266 0.32216817 -1.62350047
1.48335922 1.05265403 -1.01549888
-0.01433237 1.70561934 0.55075634
-1.51313174 -0.43634462 -1.34140790
0.44852930 1.51475382 -0.87277579
-1.04556215 0.84782767 1.34006405
-1.27701259 0.60736126 1.37645388
2.58515215 0.52742463 -0.20755586
0.42135105 -1.77977765 -0.09262709
1.92690814 0.80127257 0.92728871
-1.21425855 -1.45847142 -0.64890915
-1.13124347 1.12009954 1.12111783
1.21984482 1.44857180 -0.66326761
2.41364145 -0.42132774 0.67596626
-2.34540033 -0.18793553 0.84069425
-0.94555831 -1.36417437 0.93514526
-0.18795593 1.30220520 1.16079116
0.24506901 0.99620396 1.39721131
0.92054582 1.69826818 0.00290091
2.33062720 -0.26866901 0.83648068
1.96481347 -1.05844140 0.62218815
-2.28502941 0.89405310 0.38228491
0.53548414 -1.45215952 0.94405031
2.45386434 0.34283906 -0.65867496
0.92721558 -1.34428728 0.96725661
-1.10900390 0.13271900 1.53429973
0.49981722 -1.33081222 -1.09535992
-0.78177428 -0.62210858 1.50620830
-2.39095259 0.86486024 0.02243756
0.51409978 -0.86725807 -1.44351077
0.40491810 1.02910221 -1.36137044
-1.50991225 -1.27337611 0.74402958
1.77161527 0.64390934 1.13054252
-0.47158581 -1.72040153 -0.41553560
2.26982880 0.84092283 -0.50180835
-1.50995493 -1.47613704 0.25901288
0.31699345 -0.19291206 1.66423619
-1.76404858 1.21089828 0.60952991
-1.93710387 0.37982500 1.13083005
-2.53270316 -0.20270075 0.59245998
2.14563489 0.95211542 0.53871495
1.09170151 1.42429185 0.78419346
-1.68018043 0.28466621 1.29991770
0.65286249 1.20306659 1.18949127
1.14707100 0.52467895 -1.44806075
-1.52310216 0.05324307 -1.39676106
-1.85732043 -1.27877533 -0.30738008
0.48235407 0.61260855 1.55712187
-1.38920128 1.55077720 0.06199244
-1.56404305 -0.80716091 -1.15592301
0.92254603 -0.83923101 -1.37860608
1.80781186 1.34970164 -0.04951832
-1.15310824 1.27853489 0.95134711
-2.50535154 -0.47601554 0.49122101
-0.10587987 1.66121721 -0.65425313
-0.44766790 0.23489776 -1.64790261
-2.18438625 -0.96814960 -0.44415063
1.75236356 -1.38147235 -0.03492292
-1.07100523 -0.11092059 1.54623497
0.10006550 -1.70966482 0.53761524
0.96800524 1.38925529 -0.89387697
-1.45786190 1.42606795 0.50292861
-1.23974824 -1.60017264 -0.13775989
2.41349554 0.83646464 0.04825353
-1.90838969 1.12790847 -0.58045101
2.70204473 -0.23036499 -0.03877660
-0.61276311 -1.32509959 1.07916498
-2.24884033 0.04976191 0.95032376
-1.33819711 0.86891693 -1.22347569
0.94857717 -0.11632104 1.57613301
-0.13315599 -1.76128781 0.35737848
-0.42905703 -0.38457146 -1.62495661
2.15530872 -0.97781461 -0.47898090
-0.41661483 -1.29550910 -1.14460337
0.03902014 -1.21377242 1.24687839
-0.31038961 -1.79288578 -0.01478825
-0.32175729 1.28884578 -1.16286111
2.57116055 0.51703298 0.28195894
-1.83009613 -1.08537233 0.72863293
0.30156004 1.66449118 -0.62389827
-0.43149343 -0.87307698 1.45056117
-1.84466529 -0.04280343 -1.24006510
0.91299224 1.24616170 -1.07989693
-2.20784450 0.65885979 -0.77356589
0.93604147 0.73543167 1.42587125
1.87943578 -0.72270566 -1.01621783
-0.19263345 -0.37893453 1.64328420
0.57068384 1.26421380 -1.14954114
-1.92351949 0.55938315 -1.07324958
-0.98759729 0.48151514 1.50483882
1.66409969 -1.29111350 0.57095563
0.11947728 0.42051411 -1.63732529
2.57051110 -0.58668816 0.11115050
-1.65771031 1.39830184 0.29122224
0.78698224 -1.71914601 -0.15863359
-0.27577963 -1.65484178 -0.65035075
0.02105862 0.82551736 1.49838364
0.92892581 1.00541067 1.27601171
0.09119281 0.89560479 -1.46182323
-0.68660098 -0.29694104 1.60734677
1.96569073 0.36967027 1.11532545
0.02149879 1.79030120 -0.21216410
-1.39223218 0.41498277 -1.39630032
0.71466756 0.55676198 -1.54081452
0.50496006 1.74584770 0.29339463
-2.04190540 -1.15142143 0.29929349
-1.98287690 0.89502048 0.79792482
-1.83842802 -0.26695877 1.21868563
1.47873247 -0.04494837 1.41484141
1.98764586 -0.10426104 1.14836037
-0.16554940 -1.50491560 0.92455453
-0.52273053 1.39307129 1.02096987
0.39509416 -1.72161949 -0.44189340
-1.98730671 0.61751562 0.99833357
-1.43673396 0.94376564 1.12858272
1.49847054 0.13579383 -1.40191257
0.26045257 -1.05800462 1.35565031
1.95930910 0.12919110 1.16531992
0.13763639 1.29847062 -1.16730356
-1.61115205 -1.07988513 0.91142869
-2.45852542 -0.66781896 -0.37388384
-0.81402087 1.58323336 0.63255054
2.09650707 -1.12094629 0.24939489
1.66381216 1.38770711 -0.31856039
-0.20128055 -0.63081777 -1.57403159
-0.26902989 1.79551744 0.00546817
1.39016998 -0.47030976 1.38127100
0.81063545 0.15170272 -1.60268509
2.10507917 1.11177373 -0.25697827
-1.57526898 1.13064086 0.88068062
-2.71024489 -0.03114703 0.17109375
1.25021815 -1.59114361 0.18645784
0.28092673 1.24308908 1.20902407
-0.68166387 0.24037142 1.61620939
1.31729817 -1.57291996 -0.13589899
1.08411908 -1.16345620 1.09985936
-0.47583267 0.67978591 -1.53300631
3 249 48 83
3 64 0 62
3 220 34 37
3 64 62 204
3 204 191 64
3 51 191 204
3 213 27 253
3 21 48 249
3 104 24 232
3 40 205 155
3 7 151 128
3 128 151 1
3 115 111 220
3 220 111 244
3 244 34 220
3 113 26 215
3 117 184 66
3 66 51 118
3 184 51 66
3 117 196 30
3 30 184 117
3 30 196 1
3 64 191 84
3 84 0 64
3 84 27 0
3 46 191 79
3 79 191 51
3 79 51 184
3 168 87 100
3 100 23 168
3 168 23 73
3 168 73 122
3 122 87 168
3 25 152 194
3 32 87 192
3 100 87 32
3 32 129 100
3 145 62 0
3 0 27 145
3 220 37 198
3 99 70 207
3 78 246 234
3 246 163 234
3 118 51 108
3 51 204 108
3 126 196 117
3 117 66 126
3 126 66 29
3 148 145 192
3 107 174 41
3 122 164 41
3 81 174 210
3 210 174 107
3 210 97 81
3 38 204 62
3 38 148 97
3 38 246 78
3 38 97 246
3 73 33 105
3 207 70 105
3 112 86 90
3 146 177 90
3 231 213 127
3 27 213 231
3 134 45 67
3 67 229 134
3 185 86 134
3 134 229 185
3 249 83 94
3 112 90 98
3 150 45 134
3 175 23 100
3 11 183 50
3 47 24 104
3 47 21 249
3 104 21 47
3 186 232 24
3 186 133 9
3 24 133 186
3 31 40 155
3 215 26 88
3 136 113 215
3 251 113 136
3 7 128 91
3 212 167 11
3 225 232 233
3 104 232 225
3 225 140 104
3 44 183 11
3 11 167 44
3 44 167 111
3 121 34 110
3 34 244 110
3 111 167 110
3 110 244 111
3 218 177 146
3 121 110 240
3 233 124 130
3 56 16 192
3 192 145 56
3 56 231 16
3 56 145 27
3 27 231 56
3 129 32 22
3 22 214 152
3 152 25 22
3 22 25 129
3 107 41 221
3 221 41 164
3 164 70 221
3 70 99 221
3 20 69 120
3 120 42 20
3 120 69 36
3 20 42 153
3 153 126 29
3 101 69 20
3 36 69 101
3 101 163 36
3 101 234 163
3 62 145 169
3 145 148 169
3 169 38 62
3 148 38 169
3 192 87 243
3 243 148 192
3 97 148 243
3 89 174 81
3 89 41 174
3 222 163 246
3 255 210 107
3 107 221 255
3 65 38 78
3 204 38 65
3 65 108 204
3 122 73 200
3 73 105 200
3 200 164 122
3 200 70 164
3 200 105 70
3 80 98 226
3 226 98 90
3 9 133 226
3 226 133 80
3 178 141 229
3 229 67 178
3 49 127 194
3 49 231 127
3 194 152 49
3 152 214 49
3 49 214 16
3 16 231 49
3 254 77 102
3 102 77 245
3 86 185 199
3 146 90 199
3 199 90 86
3 85 150 134
3 85 86 112
3 134 86 85
3 23 175 61
3 73 23 61
3 61 33 73
3 48 33 61
3 11 50 147
3 147 50 21
3 147 140 11
3 147 21 104
3 104 140 147
3 202 183 207
3 202 50 183
3 202 33 48
3 48 21 202
3 21 50 202
3 207 105 202
3 202 105 33
3 158 133 24
3 158 47 249
3 24 47 158
3 249 94 158
3 26 124 208
3 208 88 26
3 232 186 157
3 9 161 157
3 157 186 9
3 57 157 161
3 233 232 57
3 232 157 57
3 3 31 188
3 188 31 155
3 166 88 40
3 3 203 166
3 215 88 166
3 166 31 3
3 40 31 166
3 166 136 215
3 203 136 166
3 216 136 203
3 216 203 7
3 106 170 63
3 92 170 242
3 180 212 156
3 140 225 156
3 2 110 167
3 2 212 180
3 167 212 2
3 180 240 2
3 2 240 110
3 230 240 171
3 121 240 230
3 93 30 1
3 129 25 72
3 58 82 224
3 114 32 192
3 114 22 32
3 192 16 114
3 16 214 114
3 214 22 114
3 237 206 149
3 123 206 237
3 123 237 19
3 19 18 115
3 95 18 19
3 8 120 36
3 149 206 8
3 8 222 149
3 36 163 8
3 163 222 8
3 42 120 131
3 242 170 247
3 247 42 242
3 247 153 42
3 142 101 20
3 108 101 142
3 20 153 142
3 142 153 29
3 118 108 142
3 142 66 118
3 29 66 142
3 234 101 109
3 109 101 108
3 108 65 109
3 78 234 109
3 109 65 78
3 81 97 190
3 97 243 190
3 190 89 81
3 41 89 190
3 122 41 190
3 190 87 122
3 190 243 87
3 119 222 246
3 210 222 119
3 246 97 119
3 97 210 119
3 149 222 217
3 217 222 210
3 210 255 217
3 217 237 149
3 10 18 95
3 183 18 10
3 60 177 144
3 144 161 60
3 60 90 177
3 60 226 90
3 60 161 9
3 9 226 60
3 189 178 67
3 189 45 194
3 189 67 45
3 194 127 189
3 127 178 189
3 176 84 191
3 176 191 46
3 253 27 176
3 27 84 176
3 46 241 176
3 241 75 176
3 209 139 254
3 209 241 139
3 209 75 241
3 141 14 143
3 143 209 254
3 14 209 143
3 253 176 250
3 250 176 75
3 250 213 253
3 75 209 250
3 250 209 14
3 141 178 52
3 52 14 141
3 52 250 14
3 52 178 127
3 127 213 52
3 213 250 52
3 254 139 55
3 55 77 254
3 139 132 55
3 138 77 55
3 55 132 138
3 146 199 12
3 12 218 146
3 205 218 12
3 193 199 185
3 80 133 172
3 172 17 80
3 133 158 172
3 94 17 172
3 172 158 94
3 197 98 80
3 80 17 197
3 224 150 197
3 197 17 224
3 239 61 175
3 175 58 239
3 239 83 48
3 48 61 239
3 239 94 83
3 125 161 144
3 144 208 125
3 125 57 161
3 125 208 124
3 125 124 233
3 233 57 125
3 252 208 144
3 88 208 252
3 144 177 252
3 177 218 252
3 40 88 252
3 205 40 252
3 252 218 205
3 251 136 162
3 136 216 162
3 106 63 159
3 159 63 91
3 1 196 159
3 196 106 159
3 159 128 1
3 159 91 128
3 170 92 13
3 59 63 13
3 13 63 170
3 13 74 59
3 180 156 103
3 103 240 180
3 171 240 103
3 140 156 39
3 39 156 212
3 11 140 39
3 39 212 11
3 135 113 251
3 121 230 135
3 171 130 35
3 35 230 171
3 35 124 26
3 35 130 124
3 35 135 230
3 26 113 35
3 113 135 35
3 139 241 211
3 211 132 139
3 211 241 46
3 46 79 211
3 211 79 184
3 184 30 96
3 96 211 184
3 132 211 96
3 138 132 96
3 30 93 96
3 96 93 138
3 181 72 25
3 82 72 181
3 100 129 6
3 129 72 6
3 6 175 100
3 53 17 94
3 94 239 53
3 53 239 58
3 224 17 53
3 53 58 224
3 183 44 71
3 71 18 183
3 115 18 71
3 111 115 71
3 71 44 111
3 173 198 123
3 123 19 173
3 173 19 115
3 173 115 220
3 220 198 173
3 242 42 5
3 42 131 5
3 5 92 242
3 123 198 28
3 28 5 131
3 28 198 37
3 37 5 28
3 179 131 120
3 179 28 131
3 179 206 123
3 123 28 179
3 182 170 106
3 182 247 170
3 182 106 196
3 196 126 182
3 126 153 182
3 153 247 182
3 237 217 195
3 95 19 195
3 195 19 237
3 195 217 255
3 195 10 95
3 255 10 195
3 187 255 221
3 187 10 255
3 187 221 99
3 187 99 207
3 207 183 187
3 183 10 187
3 229 141 76
3 141 193 76
3 76 185 229
3 76 193 185
3 4 12 199
3 155 205 4
3 205 12 4
3 150 85 238
3 238 197 150
3 238 85 112
3 112 98 238
3 98 197 238
3 59 74 160
3 7 91 160
3 160 216 7
3 160 162 216
3 160 63 59
3 91 63 160
3 137 5 37
3 92 5 137
3 248 156 225
3 248 103 156
3 248 225 233
3 171 103 248
3 233 130 248
3 248 130 171
3 227 188 245
3 3 188 227
3 1 151 219
3 219 93 1
3 219 236 93
3 82 181 154
3 224 82 154
3 45 150 154
3 154 150 224
3 175 6 165
3 165 6 72
3 165 58 175
3 165 72 82
3 82 58 165
3 120 8 201
3 201 179 120
3 201 8 206
3 206 179 201
3 155 4 116
3 116 188 155
3 116 102 245
3 245 188 116
3 199 193 235
3 235 4 199
3 254 102 235
3 102 116 235
3 235 116 4
3 235 193 141
3 235 143 254
3 141 143 235
3 68 160 74
3 162 160 68
3 251 162 68
3 68 74 121
3 121 135 68
3 68 135 251
3 223 34 121
3 121 74 223
3 223 37 34
3 223 137 37
3 228 227 245
3 236 227 228
3 245 77 228
3 228 77 138
3 138 93 228
3 93 236 228
3 43 227 236
3 236 219 43
3 3 227 43
3 43 219 151
3 43 203 3
3 43 151 7
3 7 203 43
3 45 154 15
3 15 154 181
3 194 45 15
3 15 25 194
3 15 181 25
3 137 223 54
3 54 13 92
3 92 137 54
3 74 13 54
3 54 223 74