ply
format ascii 1.0
comment https://github.com/mikedh/trimesh
element vertex 256
property float x
property float y
property float z
element face 508
property list uchar int vertex_indices
end_header
0.58601660 -1.61035788 -1.74675071
0.89262938 0.77112663 1.74680996
-0.50766766 2.06642008 0.67961234
0.45073935 0.35318217 3.03479075
0.05757927 -0.89119470 3.10370493
0.54172987 1.98690355 -0.89201927
-0.64256394 -1.77510130 -1.15395677
0.54097933 1.17619002 2.43164206
0.44269511 1.31606793 -2.46399975
-0.84517848 -0.03909127 2.22810960
-0.42052692 1.52712762 -2.24491811
-0.85556537 1.55290651 0.03283832
-0.08999092 -0.82597119 3.13243175
0.49257025 2.09780836 0.58333927
0.48305497 -2.01075888 1.06571269
-0.43841422 -2.17964196 0.28965849
-0.02362536 -2.06605673 -1.65253556
-0.98271990 -1.03555202 0.78468895
-0.45784032 1.90092003 -1.48200095
-0.20707054 2.02654672 -1.63791776
0.82818043 1.11604714 -1.65196598
-1.09027755 0.63012105 0.00010415
-0.27041006 -2.08804512 -1.38398540
-0.82122427 -1.08662426 -1.72041655
-1.01220059 0.05380838 1.49398088
-0.37667418 -2.19313216 -0.63747448
-0.19336422 1.33658600 2.71152639
0.51028997 -1.97866142 -1.07368684
0.28608015 2.07034135 -1.40834522
1.05447423 0.59023714 -0.87844247
1.10859263 0.27730349 0.52943134
0.23895983 0.12667601 3.27244806
-0.43031794 -1.67146206 -2.01113868
-0.99134928 -0.22606689 -1.58037961
-0.02330160 2.35387778 0.44281003
-0.22341973 1.60255396 2.38395643
0.58788151 0.98439825 -2.50415182
0.16885872 2.33249354 -0.38368568
0.48683143 -0.74524629 -2.83767390
-0.82833880 1.55831802 0.60823637
0.10585043 0.36069304 3.29922962
-0.43633479 -0.17390350 -3.08422518
0.75550264 1.49202073 -1.33638275
0.63483393 0.35716268 2.72833681
-0.58470184 2.01348352 -0.39835298
-0.39474145 -2.16848159 0.70805347
0.99619114 -1.09666300 -0.34238780
-1.07701790 0.48795110 0.75651044
-1.08273005 -0.13986219 -0.94622886
0.01195781 -2.27081990 -0.97946924
-0.90590632 1.25812018 -0.93380004
1.05330992 -0.45133236 -1.04178226
0.36756745 -2.17016840 0.81642491
-0.98042178 -1.17643642 0.18700197
0.36314392 2.22581100 0.45894736
0.83402973 -1.05956864 1.70103610
0.08944909 -1.90730834 -1.98062086
-0.68346882 0.87376857 2.36925888
-0.88419014 -1.47159803 -0.24357985
0.56054759 1.89072049 1.16231942
-0.68582302 -0.11009513 2.66225386
-0.95019990 -0.95273274 -1.22376800
0.51275080 -1.39189458 -2.25135875
0.71752059 1.62851274 1.19552410
0.72626269 -1.35655618 -1.71350658
0.74092245 -0.47333547 -2.44415665
1.10647702 0.23263010 -0.61220998
-0.20873454 -2.16004896 1.24952769
0.27549875 1.97227299 1.68213546
0.74361491 1.09278405 -1.99974716
-0.75333142 0.29823667 -2.46565437
-0.52838391 2.00215983 -0.89713198
-0.64616495 -1.88063502 -0.72222733
-0.81806409 -0.75368214 -2.05599332
0.30567920 2.11162066 1.23949182
0.76917303 -1.72079444 0.36799070
0.01763551 -1.82536387 2.14399862
0.70521545 -0.98633987 2.22189140
0.64119548 -0.32265168 -2.72383809
1.04232252 -0.83406603 -0.54973584
-0.80819267 -0.72250050 2.11184359
-0.12504397 -0.19952157 -3.32086253
-0.78454792 -1.70582104 -0.16674791
-1.09332097 -0.49358442 -0.49453968
0.72028327 -1.57557762 -1.31549084
-0.54647213 -1.57350159 1.91839790
-0.40152958 -1.39341211 2.44072890
-0.43645683 -1.33425593 -2.45470691
-0.00965290 0.67659092 3.21426606
-0.29287294 -0.19772740 -3.22650933
-0.43863511 -1.02801514 2.72820377
0.76999879 1.31594443 1.60513771
0.51732761 2.11174655 0.05332452
0.95272309 0.02673630 1.80632257
-1.09106970 -0.58390135 0.30428129
-0.29572693 1.74201083 -2.10414720
1.08729732 -0.18687804 0.88197213
0.04832606 -0.39664981 -3.30278730
-0.71972209 -1.00678337 2.15996051
-0.68978316 0.73224556 -2.44863367
-0.67854309 -1.43727028 -1.75321639
0.71640426 0.70727664 -2.39431334
0.37861383 -1.03321993 2.80245447
-0.60747653 1.74119246 1.39834893
-1.00832069 0.80189472 1.01014292
-0.86410207 -0.10787206 -2.15691304
0.94644970 1.21142161 0.66499436
-0.24966490 0.57207012 -3.16904092
0.95661408 -0.08750799 -1.78397059
0.72863615 -0.04431988 -2.56409383
-0.28223693 2.29327941 0.25545430
-0.25852507 2.29963326 -0.33189833
-0.61467272 -1.22049451 2.22620940
-0.03608042 1.43922722 2.66589427
-0.22547296 -1.93677211 -1.82277119
-0.24555023 2.24782324 -0.79946041
0.21653460 -0.82407719 3.07881474
1.12220514 0.28799030 0.02274336
1.05829966 0.04426531 -1.17833531
0.22610109 0.42400774 -3.23027253
0.61557060 1.38540530 -2.02053404
-0.00594771 2.24477744 1.09583771
-0.62792569 -0.57427615 -2.66899395
0.18613257 1.99357796 -1.73655856
-0.43389177 1.11583185 2.66632032
-0.52994001 0.79935235 2.73872495
1.07279718 0.69414723 -0.41297308
0.17485401 -2.34237766 -0.18429975
0.79963636 1.05456030 1.84502268
-0.50389808 -1.91950428 -1.29113197
-0.46944812 1.47417068 2.23068380
0.50621629 1.90647531 -1.31970096
1.00162292 -0.55451232 1.34496748
-0.97330403 -0.24734326 1.67272604
-0.39239171 -1.79539919 1.86065483
-0.07799874 1.71384132 2.30962157
0.10169976 1.31111097 2.78002572
0.38201195 2.23510242 0.00577192
0.96717340 -0.35359713 1.66434240
0.81536651 -1.39302194 1.23796523
-0.94825101 1.17666948 0.76063079
0.22221744 -1.91119719 1.87837315
1.01831484 0.45121282 -1.31056297
0.38477978 -1.76922572 1.92454672
-0.46021909 0.17467239 3.05279016
0.20741624 -1.75149107 -2.17943335
-0.32442397 -0.81876141 2.99689674
-0.99220747 1.13824856 0.04464392
0.21334326 -1.14140427 -2.87214780
0.16803460 1.35440862 -2.70871329
-0.62658972 -1.67589915 1.48039269
0.73519230 0.84745347 2.24943590
-0.19570065 -2.26423216 -0.82678956
0.94194299 1.10674429 -0.99844611
-0.62660736 -1.94275415 0.51535690
0.13154726 -0.25389287 3.31132412
-0.73205227 1.59367156 1.21277928
-0.80386746 0.49989027 2.25000811
-1.05103171 -0.26677585 1.17881536
0.89040446 1.25308561 1.07187891
0.45303887 1.87452042 1.56030655
-0.69724828 0.37465116 2.58644128
0.27092758 1.58336425 2.36672592
0.47601631 0.69053358 -2.88120079
-0.63206327 0.07007357 -2.77912998
-0.77075857 -1.68300498 -0.61159295
0.20016931 0.80625832 3.09819937
-0.57649654 2.04098868 0.12334611
-0.64905310 -1.06230998 -2.29993534
0.38284200 -1.10451770 -2.74300718
0.75021327 1.77635157 -0.09852642
-0.47852165 1.68268859 1.89289165
-1.03968120 -0.62648731 0.97738051
-0.04393847 2.18633938 -1.30176485
-0.18577509 0.30915058 -3.27882528
-0.90648574 -1.27418840 -0.88372475
0.72720313 -1.81816530 -0.06948599
-0.44445020 -0.14598335 3.07653761
0.04152560 -2.25010180 1.06969094
0.40170684 1.82840848 -1.77854347
-0.60498965 1.87685788 1.00067508
-0.51447588 -2.10599828 -0.27410030
1.00156236 1.10087693 0.09600986
-0.79195154 1.48444808 -1.15492117
1.12130570 -0.30318496 -0.07715365
-0.25428700 -1.74397278 2.14721036
-0.93323314 0.06549200 1.89085543
-0.55533057 1.14358759 -2.43434477
0.39364451 -0.15309092 3.13602567
-0.05525763 -2.31804299 0.71107459
-0.17805187 -0.50613713 -3.23316979
0.89441901 -1.28690863 -0.95302641
-0.17288856 -1.70502853 -2.27741289
0.01619274 -1.59745419 2.48090887
-0.12880677 -2.35962939 -0.02942412
-0.13352418 1.69625878 -2.31374002
1.06699085 0.68047071 0.56101257
-0.75946093 -1.42846608 1.44975805
0.12514265 2.19064832 -1.24136794
-0.17906295 -1.14906263 2.88617587
-0.76550692 -0.05633388 -2.46735263
0.37887731 1.64008200 -2.14866662
-0.91622055 0.86712992 -1.53916097
0.38844240 0.96790671 2.83705044
0.77993613 -0.95115793 -2.02196455
-0.07993983 -0.49871835 3.26963615
0.23682475 1.66384053 -2.28723764
-0.79823011 0.73620802 -2.13544059
-0.40983725 0.63372540 2.99417186
0.69057500 -1.69924331 1.13602829
0.04958118 0.55344152 -3.25777984
1.06672144 -0.77214438 0.22115570
-0.68792355 1.84031475 0.57944375
0.32658517 -2.26257992 -0.31563261
-0.11444418 -2.17794871 -1.29400039
0.00873899 1.08646905 2.98132801
0.38548949 1.32322788 2.53887558
0.03784357 1.17871165 -2.90858388
-0.28492853 -0.39080614 3.19813156
0.81573057 0.48652557 2.21915865
0.00892166 2.35622764 -0.42214209
-0.57775432 0.54616165 -2.77821326
0.29657573 0.73275828 -3.06575251
0.20955043 2.29772210 0.58376610
-0.84735841 -1.51539361 0.59550309
-0.82286251 1.17794263 1.58762789
-0.76291853 -0.35134625 2.42481422
0.61365056 -0.05915686 2.81510425
0.82484162 -0.13721867 2.28488803
-0.06870038 -1.98062980 1.83958256
-0.21692491 1.83343065 2.03141975
0.16395782 -2.26583529 -0.87923360
-0.82470083 0.81271654 1.98638034
-0.59622186 1.24209642 2.24553657
0.62184155 0.17871919 -2.78937984
0.10808370 -1.39244723 2.69733214
0.81308228 0.17002931 2.31863236
0.05711693 1.70892608 -2.32257915
-0.66860259 -1.42124426 1.81346607
-1.02024913 -0.87892115 -0.74391520
-0.33780578 2.08370423 1.25858331
0.87001717 -1.47528517 0.49622005
0.69045573 1.82637084 -0.63383842
-0.08352824 -0.83022362 -3.13184452
-0.11164314 2.36309290 0.01088000
0.57689857 -0.61897790 2.74830961
0.33640087 0.19965698 -3.18885612
0.87357455 1.46321309 -0.51130861
-0.65371168 1.48804414 1.75228679
-1.12470877 -0.04099282 0.34042457
0.51882076 -2.09411502 0.37099442
0.11658015 1.63603818 2.40559030
-0.28287974 0.31635448 3.21576548
0.54665786 -2.07013083 -0.27039769
0.44989225 -1.53123271 2.18838573
-0.19746304 0.89467090 -3.05021667
3 249 48 83
3 64 0 62
3 220 34 37
3 64 62 204
3 204 191 64
3 51 191 204
3 213 27 253
3 21 48 249
3 104 24 232
3 40 205 155
3 7 151 128
3 128 151 1
3 115 111 220
3 220 111 244
3 244 34 220
3 113 26 215
3 117 184 66
3 66 51 118
3 184 51 66
3 117 196 30
3 30 184 117
3 30 196 1
3 64 191 84
3 84 0 64
3 84 27 0
3 46 191 79
3 79 191 51
3 79 51 184
3 168 87 100
3 100 23 168
3 168 23 73
3 168 73 122
3 122 87 168
3 25 152 194
3 32 87 192
3 100 87 32
3 32 129 100
3 145 62 0
3 0 27 145
3 220 37 198
3 99 70 207
3 78 246 234
3 246 163 234
3 118 51 108
3 51 204 108
3 126 196 117
3 117 66 126
3 126 66 29
3 148 145 192
3 107 174 41
3 122 164 41
3 81 174 210
3 210 174 107
3 210 97 81
3 38 204 62
3 38 148 97
3 38 246 78
3 38 97 246
3 73 33 105
3 207 70 105
3 112 86 90
3 146 177 90
3 231 213 127
3 27 213 231
3 134 45 67
3 67 229 134
3 185 86 134
3 134 229 185
3 249 83 94
3 112 90 98
3 150 45 134
3 175 23 100
3 11 183 50
3 47 24 104
3 47 21 249
3 104 21 47
3 186 232 24
3 186 133 9
3 24 133 186
3 31 40 155
3 215 26 88
3 136 113 215
3 251 113 136
3 7 128 91
3 212 167 11
3 225 232 233
3 104 232 225
3 225 140 104
3 44 183 11
3 11 167 44
3 44 167 111
3 121 34 110
3 34 244 110
3 111 167 110
3 110 244 111
3 218 177 146
3 121 110 240
3 233 124 130
3 56 16 192
3 192 145 56
3 56 231 16
3 56 145 27
3 27 231 56
3 129 32 22
3 22 214 152
3 152 25 22
3 22 25 129
3 107 41 221
3 221 41 164
3 164 70 221
3 70 99 221
3 20 69 120
3 120 42 20
3 120 69 36
3 20 42 153
3 153 126 29
3 101 69 20
3 36 69 101
3 101 163 36
3 101 234 163
3 62 145 169
3 145 148 169
3 169 38 62
3 148 38 169
3 192 87 243
3 243 148 192
3 97 148 243
3 89 174 81
3 89 41 174
3 222 163 246
3 255 210 107
3 107 221 255
3 65 38 78
3 204 38 65
3 65 108 204
3 122 73 200
3 73 105 200
3 200 164 122
3 200 70 164
3 200 105 70
3 80 98 226
3 226 98 90
3 9 133 226
3 226 133 80
3 178 141 229
3 229 67 178
3 49 127 194
3 49 231 127
3 194 152 49
3 152 214 49
3 49 214 16
3 16 231 49
3 254 77 102
3 102 77 245
3 86 185 199
3 146 90 199
3 199 90 86
3 85 150 134
3 85 86 112
3 134 86 85
3 23 175 61
3 73 23 61
3 61 33 73
3 48 33 61
3 11 50 147
3 147 50 21
3 147 140 11
3 147 21 104
3 104 140 147
3 202 183 207
3 202 50 183
3 202 33 48
3 48 21 202
3 21 50 202
3 207 105 202
3 202 105 33
3 158 133 24
3 158 47 249
3 24 47 158
3 249 94 158
3 26 124 208
3 208 88 26
3 232 186 157
3 9 161 157
3 157 186 9
3 57 157 161
3 233 232 57
3 232 157 57
3 3 31 188
3 188 31 155
3 166 88 40
3 3 203 166
3 215 88 166
3 166 31 3
3 40 31 166
3 166 136 215
3 203 136 166
3 216 136 203
3 216 203 7
3 106 170 63
3 92 170 242
3 180 212 156
3 140 225 156
3 2 110 167
3 2 212 180
3 167 212 2
3 180 240 2
3 2 240 110
3 230 240 171
3 121 240 230
3 93 30 1
3 129 25 72
3 58 82 224
3 114 32 192
3 114 22 32
3 192 16 114
3 16 214 114
3 214 22 114
3 237 206 149
3 123 206 237
3 123 237 19
3 19 18 115
3 95 18 19
3 8 120 36
3 149 206 8
3 8 222 149
3 36 163 8
3 163 222 8
3 42 120 131
3 242 170 247
3 247 42 242
3 247 153 42
3 142 101 20
3 108 101 142
3 20 153 142
3 142 153 29
3 118 108 142
3 142 66 118
3 29 66 142
3 234 101 109
3 109 101 108
3 108 65 109
3 78 234 109
3 109 65 78
3 81 97 190
3 97 243 190
3 190 89 81
3 41 89 190
3 122 41 190
3 190 87 122
3 190 243 87
3 119 222 246
3 210 222 119
3 246 97 119
3 97 210 119
3 149 222 217
3 217 222 210
3 210 255 217
3 217 237 149
3 10 18 95
3 183 18 10
3 60 177 144
3 144 161 60
3 60 90 177
3 60 226 90
3 60 161 9
3 9 226 60
3 189 178 67
3 189 45 194
3 189 67 45
3 194 127 189
3 127 178 189
3 176 84 191
3 176 191 46
3 253 27 176
3 27 84 176
3 46 241 176
3 241 75 176
3 209 139 254
3 209 241 139
3 209 75 241
3 141 14 143
3 143 209 254
3 14 209 143
3 253 176 250
3 250 176 75
3 250 213 253
3 75 209 250
3 250 209 14
3 141 178 52
3 52 14 141
3 52 250 14
3 52 178 127
3 127 213 52
3 213 250 52
3 254 139 55
3 55 77 254
3 139 132 55
3 138 77 55
3 55 132 138
3 146 199 12
3 12 218 146
3 205 218 12
3 193 199 185
3 80 133 172
3 172 17 80
3 133 158 172
3 94 17 172
3 172 158 94
3 197 98 80
3 80 17 197
3 224 150 197
3 197 17 224
3 239 61 175
3 175 58 239
3 239 83 48
3 48 61 239
3 239 94 83
3 125 161 144
3 144 208 125
3 125 57 161
3 125 208 124
3 125 124 233
3 233 57 125
3 252 208 144
3 88 208 252
3 144 177 252
3 177 218 252
3 40 88 252
3 205 40 252
3 252 218 205
3 251 136 162
3 136 216 162
3 106 63 159
3 159 63 91
3 1 196 159
3 196 106 159
3 159 128 1
3 159 91 128
3 170 92 13
3 59 63 13
3 13 63 170
3 13 74 59
3 180 156 103
3 103 240 180
3 171 240 103
3 140 156 39
3 39 156 212
3 11 140 39
3 39 212 11
3 135 113 251
3 121 230 135
3 171 130 35
3 35 230 171
3 35 124 26
3 35 130 124
3 35 135 230
3 26 113 35
3 113 135 35
3 139 241 211
3 211 132 139
3 211 241 46
3 46 79 211
3 211 79 184
3 184 30 96
3 96 211 184
3 132 211 96
3 138 132 96
3 30 93 96
3 96 93 138
3 181 72 25
3 82 72 181
3 100 129 6
3 129 72 6
3 6 175 100
3 53 17 94
3 94 239 53
3 53 239 58
3 224 17 53
3 53 58 224
3 183 44 71
3 71 18 183
3 115 18 71
3 111 115 71
3 71 44 111
3 173 198 123
3 123 19 173
3 173 19 115
3 173 115 220
3 220 198 173
3 242 42 5
3 42 131 5
3 5 92 242
3 123 198 28
3 28 5 131
3 28 198 37
3 37 5 28
3 179 131 120
3 179 28 131
3 179 206 123
3 123 28 179
3 182 170 106
3 182 247 170
3 182 106 196
3 196 126 182
3 126 153 182
3 153 247 182
3 237 217 195
3 95 19 195
3 195 19 237
3 195 217 255
3 195 10 95
3 255 10 195
3 187 255 221
3 187 10 255
3 187 221 99
3 187 99 207
3 207 183 187
3 183 10 187
3 229 141 76
3 141 193 76
3 76 185 229
3 76 193 185
3 4 12 199
3 155 205 4
3 205 12 4
3 150 85 238
3 238 197 150
3 238 85 112
3 112 98 238
3 98 197 238
3 59 74 160
3 7 91 160
3 160 216 7
3 160 162 216
3 160 63 59
3 91 63 160
3 137 5 37
3 92 5 137
3 248 156 225
3 248 103 156
3 248 225 233
3 171 103 248
3 233 130 248
3 248 130 171
3 227 188 245
3 3 188 227
3 1 151 219
3 219 93 1
3 219 236 93
3 82 181 154
3 224 82 154
3 45 150 154
3 154 150 224
3 175 6 165
3 165 6 72
3 165 58 175
3 165 72 82
3 82 58 165
3 120 8 201
3 201 179 120
3 201 8 206
3 206 179 201
3 155 4 116
3 116 188 155
3 116 102 245
3 245 188 116
3 199 193 235
3 235 4 199
3 254 102 235
3 102 116 235
3 235 116 4
3 235 193 141
3 235 143 254
3 141 143 235
3 68 160 74
3 162 160 68
3 251 162 68
3 68 74 121
3 121 135 68
3 68 135 251
3 223 34 121
3 121 74 223
3 223 37 34
3 223 137 37
3 228 227 245
3 236 227 228
3 245 77 228
3 228 77 138
3 138 93 228
3 93 236 228
3 43 227 236
3 236 219 43
3 3 227 43
3 43 219 151
3 43 203 3
3 43 151 7
3 7 203 43
3 45 154 15
3 15 154 181
3 194 45 15
3 15 25 194
3 15 181 25
3 137 223 54
3 54 13 92
3 92 137 54
3 74 13 54
3 54 223 74