ply
format ascii 1.0
comment https://github.com/mikedh/trimesh
element vertex 256
property float x
property float y
property float z
element face 508
property list uchar int vertex_indices
end_header
0.94712090 -2.08895946 -1.10833228
1.44266891 1.00030696 1.10836983
-0.82049322 2.68056393 0.43122143
0.72848558 0.45814863 1.92560768
0.09305971 -1.15605950 1.96933448
0.87554467 2.57741523 -0.56599593
-1.03851283 -2.30266476 -0.73219812
0.87433159 1.52575600 1.54290330
0.71548450 1.70720589 -1.56343460
-1.36597884 -0.05070927 1.41375983
-0.67965627 1.98099303 -1.42442501
-1.38276601 2.01443338 0.02083627
-0.14544347 -1.07145143 1.98756194
0.79609275 2.72128105 0.37013513
0.78071421 -2.60836029 0.67620629
-0.70856571 -2.82743573 0.18379146
-0.03818335 -2.68009281 -1.04855180
-1.58827341 -1.34332013 0.49789366
-0.73996228 2.46587729 -0.94034570
-0.33466771 2.62884045 -1.03927660
1.33850646 1.44773853 -1.04819036
-1.76210833 0.81739426 0.00006609
-0.43703714 -2.70861626 -0.87815374
-1.32726395 -1.40957105 -1.09162295
-1.63592005 0.06980033 0.94794708
-0.60878140 -2.84493542 -0.40448448
-0.31251553 1.73382187 1.72049296
0.82473147 -2.56672359 -0.68126595
0.46236315 2.68565083 -0.89361036
1.70424294 0.76565677 -0.55738127
1.79170907 0.35971862 0.33592993
0.38620725 0.16432436 2.07640386
-0.69548053 -2.16822386 -1.27608943
-1.60222018 -0.29325441 -1.00276804
-0.03766008 3.05345488 0.28096777
-0.36109129 2.07883620 1.51264620
0.95013499 1.27696335 -1.58891153
0.27290973 3.02571511 -0.24345274
0.78681773 -0.96673501 -1.80053496
-1.33876240 2.02145314 0.38593259
0.17107563 0.46789172 2.09339714
-0.70520496 -0.22558795 -1.95697439
1.22104454 1.93545222 -0.84794933
1.02601957 0.46331212 1.73115933
-0.94499594 2.61189485 -0.25275931
-0.63798171 -2.81295872 0.44926760
1.61004567 -1.42259336 -0.21724877
-1.74067795 0.63297111 0.48001409
-1.74991000 -0.18142952 -0.60039246
0.01932622 -2.94571209 -0.62148386
-1.46412718 1.63203609 -0.59250629
1.70236123 -0.58546925 -0.66102219
0.59406304 -2.81514692 0.51803046
-1.58455920 -1.52607560 0.11865479
0.58691376 2.88732624 0.29120710
1.34796011 -1.37447453 1.07932580
0.14456776 -2.47416401 -1.25672543
-1.10462344 1.13345432 1.50332046
-1.42902946 -1.90895987 -0.15455407
0.90595788 2.45264626 0.73750430
-1.10842824 -0.14281562 1.68922901
-1.53571451 -1.23588681 -0.77649415
0.82870865 -1.80556846 -1.42851162
1.15965796 2.11250997 0.75857300
1.17378688 -1.75972736 -1.08723855
1.19747996 -0.61401170 -1.55084407
1.78828990 0.30176824 -0.38845387
-0.33735710 -2.80201983 0.79283887
0.44526151 2.55843639 1.06733322
1.20183158 1.41756165 -1.26886129
-1.21753538 0.38687319 -1.56448448
-0.85397482 2.59720564 -0.56923997
-1.04433286 -2.43956351 -0.45826107
-1.32215643 -0.97767794 -1.30455005
0.49403921 2.73919868 0.78647107
1.24313867 -2.23221803 0.23349410
0.02850253 -2.36786556 1.36039042
1.13977027 -1.27948201 1.40981436
1.03630102 -0.41854441 -1.72830486
1.68460310 -1.08195210 -0.34881338
-1.30620217 -0.93722904 1.33998764
-0.20209627 -0.25881979 -2.10712337
-1.26798761 -2.21279430 -0.10580336
-1.76702714 -0.64027870 -0.31379080
1.16412294 -2.04384232 -0.83469325
-0.88320911 -2.04114938 1.21724439
-0.64895272 -1.80753696 1.54866898
-0.70540220 -1.73079944 -1.55753815
-0.01560103 0.87767506 2.03948665
-0.47334167 -0.25649235 -2.04725528
-0.70892274 -1.33354318 1.73107493
1.24447322 1.70704567 1.01847732
0.83610570 2.73936176 0.03383499
1.53979242 0.03468239 1.14613128
-1.76338840 -0.75743800 0.19306979
-0.47795430 2.25973988 -1.33510435
1.75729167 -0.24241856 0.55962092
0.07810465 -0.51453495 -2.09565449
-1.16321599 -1.30600142 1.37051833
-1.11482859 0.94987041 -1.55368459
-1.09666228 -1.86442983 -1.11243486
1.15785372 0.91748071 -1.51921785
0.61191624 -1.34029496 1.77818787
-0.98180449 2.25867820 0.88726759
-1.62964952 1.04021943 0.64094663
-1.39656317 -0.13993184 -1.36858475
1.52965355 1.57145858 0.42194614
-0.40350878 0.74209052 -2.01079082
1.54608107 -0.11351554 -1.13194871
1.17762280 -0.05749183 -1.62694538
-0.45615175 2.97484660 0.16208853
-0.41782862 2.98308873 -0.21059309
-0.99343497 -1.58322787 1.41255403
-0.05831322 1.86696839 1.69153893
-0.36440974 -2.51238465 -1.15656817
-0.39685866 2.91588068 -0.50726634
0.34996355 -1.06899452 1.95354140
1.81370962 0.37358159 0.01443091
1.71042562 0.05742105 -0.74766654
0.36542490 0.55002367 -2.04964304
0.99488610 1.79715037 -1.28205085
-0.00961269 2.91192961 0.69532090
-1.01485455 -0.74495220 -1.69350576
0.30082774 2.58607316 -1.10186529
-0.70125651 1.44745922 1.69180918
-0.85648990 1.03692150 1.73775077
1.73385656 0.90044916 -0.26203591
0.28259933 -3.03853679 -0.11694019
1.29237354 1.36797774 1.17068696
-0.81440085 -2.48998475 -0.81923723
-0.75872278 1.91229713 1.41539311
0.81814760 2.47308350 -0.83736461
1.61882460 -0.71931446 0.85339648
-1.57305551 -0.32085416 1.06136286
-0.63418412 -2.32899547 1.18060577
-0.12606168 2.22319818 1.46547997
0.16436732 1.70077562 1.76395655
0.61740828 2.89937925 0.00366235
1.56314707 -0.45868692 1.05604327
1.31779659 -1.80703080 0.78550243
-1.53256476 1.52637792 0.48262849
0.35914817 -2.47920871 1.19184816
1.64580202 0.58531415 -0.83156645
0.62188166 -2.29504323 1.22114575
-0.74380678 0.22658537 1.93702853
0.33522645 -2.27203774 -1.38287413
-0.52433449 -1.06209898 1.90156353
-1.60360718 1.47653830 0.02832706
0.34480572 -1.48063195 -1.82240891
0.27157778 1.75694144 -1.71870804
-1.01269519 -2.17397952 0.93932527
1.18821895 1.09931839 1.42729163
-0.31629169 -2.93716645 -0.52460694
1.52236974 1.43567085 -0.63352489
-1.01272380 -2.52014446 0.32699957
0.21260689 -0.32935035 2.10107112
-1.18314397 2.06731391 0.76952159
-1.29921186 0.64845866 1.42765450
-1.69867909 -0.34606215 0.74797112
1.43907309 1.62550521 0.68011886
0.73220211 2.43163157 0.99003148
-1.12689376 0.48599824 1.64112508
0.43787357 2.05394316 1.50171340
0.76933831 0.89576149 -1.82815325
-1.02154160 0.09089957 -1.76338816
-1.24570119 -2.18319726 -0.38806239
0.32351393 1.04587984 1.96584117
-0.93173456 2.64757442 0.07826445
-1.04900062 -1.37803066 -1.45933402
0.61874980 -1.43278253 -1.74046791
1.21249580 2.30428672 -0.06251608
-0.77338743 2.18278694 1.20106030
-1.68033433 -0.81268060 0.62015855
-0.07101342 2.83612370 -0.82598394
-0.30024999 0.40103072 -2.08045030
-1.46506369 -1.65287960 -0.56073296
1.17530680 -2.35852742 -0.04408962
-0.71832108 -0.18936989 1.95209646
0.06711373 -2.91883636 0.67873055
0.64923924 2.37181497 -1.12850511
-0.97778517 2.43466377 0.63493925
-0.83149672 -2.73190498 -0.17391963
1.61872673 1.42805970 0.06091930
-1.27995324 1.92562902 -0.73281002
1.81225610 -0.39329213 -0.04895483
-0.41097903 -2.26228499 1.36242831
-1.50829279 0.08495634 1.19976830
-0.89752614 1.48346400 -1.54461825
0.63620889 -0.19858985 1.98984230
-0.08930746 -3.00696993 0.45118454
-0.28776771 -0.65656215 -2.05148149
1.44556141 -1.66938031 -0.60470563
-0.27942276 -2.21176624 -1.44504321
0.02617073 -2.07222056 1.57416368
-0.20817770 -3.06091595 -0.01866992
-0.21580198 2.20039010 -1.46809328
1.72447228 0.88270795 0.35596859
-1.22744191 -1.85300899 0.91988724
0.20225574 2.84171319 -0.78766143
-0.28940180 -1.49056625 1.83130991
-1.23721349 -0.07307643 -1.56556201
0.61234212 2.12751770 -1.36335230
-1.48079705 1.12484264 -0.97661442
0.62780118 1.25557041 1.80013931
1.26053393 -1.23384392 -1.28295851
-0.12919888 -0.64693844 2.07461977
0.38275653 2.15833712 -1.45127702
-1.29010081 0.95501047 -1.35496020
-0.66237956 0.82206982 1.89983451
1.11610842 -2.20426178 0.72082227
0.08013318 0.71792543 -2.06709671
1.72403681 -1.00162721 0.14032570
-1.11182308 2.38725996 0.36766335
0.52782744 -2.93502307 -0.20027232
-0.18496487 -2.82523918 -0.82105726
0.01412397 1.40936983 1.89168501
0.62302876 1.71649373 1.61094403
0.06116284 1.52902710 -1.84552813
-0.46050194 -0.50695449 2.02924919
1.31838500 0.63112193 1.40808034
0.01441919 3.05650330 -0.26785374
-0.93376744 0.70848197 -1.76280653
0.47932616 0.95053548 -1.94525337
0.33867571 2.98060966 0.37040594
-1.36950195 -1.96577168 0.37785316
-1.32991171 1.52802956 1.00736713
-1.23303008 -0.45576707 1.53857088
0.99178296 -0.07673839 1.78621423
1.33311021 -0.17800033 1.44978631
-0.11103366 -2.56927705 1.16723514
-0.35059437 2.37832975 1.28895783
0.26498887 -2.93924594 -0.55788326
-1.33288276 1.05425751 1.26037991
-0.96361470 1.61124992 1.42481732
1.00502121 0.23183490 -1.76989186
0.17468503 -1.80628526 1.71148646
1.31410480 0.22056235 1.47119749
0.09231246 2.21682239 -1.47370172
-1.08059657 -1.84364080 1.15066397
-1.64892828 -1.14013827 -0.47202229
-0.54596221 2.70298529 0.79858482
1.40612316 -1.91374278 0.31485701
1.11591566 2.36917186 -0.40217733
-0.13499847 -1.07696772 -1.98718929
-0.18043782 3.06540871 0.00690348
0.93238431 -0.80293936 1.74383223
0.54369164 0.25899544 -2.02336383
1.41187251 1.89808297 -0.32443088
-1.05652988 1.93029380 1.11184502
-1.81775594 -0.05317597 0.21600309
0.83851886 -2.71649027 0.23539999
0.18841702 2.12227201 1.52637327
-0.45719066 0.41037565 2.04043818
0.88350928 -2.68537784 -0.17157027
0.72711653 -1.98631811 1.38855457
-0.31914005 1.16056883 -1.93539560
3 249 48 83
3 64 0 62
3 220 34 37
3 64 62 204
3 204 191 64
3 51 191 204
3 213 27 253
3 21 48 249
3 104 24 232
3 40 205 155
3 7 151 128
3 128 151 1
3 115 111 220
3 220 111 244
3 244 34 220
3 113 26 215
3 117 184 66
3 66 51 118
3 184 51 66
3 117 196 30
3 30 184 117
3 30 196 1
3 64 191 84
3 84 0 64
3 84 27 0
3 46 191 79
3 79 191 51
3 79 51 184
3 168 87 100
3 100 23 168
3 168 23 73
3 168 73 122
3 122 87 168
3 25 152 194
3 32 87 192
3 100 87 32
3 32 129 100
3 145 62 0
3 0 27 145
3 220 37 198
3 99 70 207
3 78 246 234
3 246 163 234
3 118 51 108
3 51 204 108
3 126 196 117
3 117 66 126
3 126 66 29
3 148 145 192
3 107 174 41
3 122 164 41
3 81 174 210
3 210 174 107
3 210 97 81
3 38 204 62
3 38 148 97
3 38 246 78
3 38 97 246
3 73 33 105
3 207 70 105
3 112 86 90
3 146 177 90
3 231 213 127
3 27 213 231
3 134 45 67
3 67 229 134
3 185 86 134
3 134 229 185
3 249 83 94
3 112 90 98
3 150 45 134
3 175 23 100
3 11 183 50
3 47 24 104
3 47 21 249
3 104 21 47
3 186 232 24
3 186 133 9
3 24 133 186
3 31 40 155
3 215 26 88
3 136 113 215
3 251 113 136
3 7 128 91
3 212 167 11
3 225 232 233
3 104 232 225
3 225 140 104
3 44 183 11
3 11 167 44
3 44 167 111
3 121 34 110
3 34 244 110
3 111 167 110
3 110 244 111
3 218 177 146
3 121 110 240
3 233 124 130
3 56 16 192
3 192 145 56
3 56 231 16
3 56 145 27
3 27 231 56
3 129 32 22
3 22 214 152
3 152 25 22
3 22 25 129
3 107 41 221
3 221 41 164
3 164 70 221
3 70 99 221
3 20 69 120
3 120 42 20
3 120 69 36
3 20 42 153
3 153 126 29
3 101 69 20
3 36 69 101
3 101 163 36
3 101 234 163
3 62 145 169
3 145 148 169
3 169 38 62
3 148 38 169
3 192 87 243
3 243 148 192
3 97 148 243
3 89 174 81
3 89 41 174
3 222 163 246
3 255 210 107
3 107 221 255
3 65 38 78
3 204 38 65
3 65 108 204
3 122 73 200
3 73 105 200
3 200 164 122
3 200 70 164
3 200 105 70
3 80 98 226
3 226 98 90
3 9 133 226
3 226 133 80
3 178 141 229
3 229 67 178
3 49 127 194
3 49 231 127
3 194 152 49
3 152 214 49
3 49 214 16
3 16 231 49
3 254 77 102
3 102 77 245
3 86 185 199
3 146 90 199
3 199 90 86
3 85 150 134
3 85 86 112
3 134 86 85
3 23 175 61
3 73 23 61
3 61 33 73
3 48 33 61
3 11 50 147
3 147 50 21
3 147 140 11
3 147 21 104
3 104 140 147
3 202 183 207
3 202 50 183
3 202 33 48
3 48 21 202
3 21 50 202
3 207 105 202
3 202 105 33
3 158 133 24
3 158 47 249
3 24 47 158
3 249 94 158
3 26 124 208
3 208 88 26
3 232 186 157
3 9 161 157
3 157 186 9
3 57 157 161
3 233 232 57
3 232 157 57
3 3 31 188
3 188 31 155
3 166 88 40
3 3 203 166
3 215 88 166
3 166 31 3
3 40 31 166
3 166 136 215
3 203 136 166
3 216 136 203
3 216 203 7
3 106 170 63
3 92 170 242
3 180 212 156
3 140 225 156
3 2 110 167
3 2 212 180
3 167 212 2
3 180 240 2
3 2 240 110
3 230 240 171
3 121 240 230
3 93 30 1
3 129 25 72
3 58 82 224
3 114 32 192
3 114 22 32
3 192 16 114
3 16 214 114
3 214 22 114
3 237 206 149
3 123 206 237
3 123 237 19
3 19 18 115
3 95 18 19
3 8 120 36
3 149 206 8
3 8 222 149
3 36 163 8
3 163 222 8
3 42 120 131
3 242 170 247
3 247 42 242
3 247 153 42
3 142 101 20
3 108 101 142
3 20 153 142
3 142 153 29
3 118 108 142
3 142 66 118
3 29 66 142
3 234 101 109
3 109 101 108
3 108 65 109
3 78 234 109
3 109 65 78
3 81 97 190
3 97 243 190
3 190 89 81
3 41 89 190
3 122 41 190
3 190 87 122
3 190 243 87
3 119 222 246
3 210 222 119
3 246 97 119
3 97 210 119
3 149 222 217
3 217 222 210
3 210 255 217
3 217 237 149
3 10 18 95
3 183 18 10
3 60 177 144
3 144 161 60
3 60 90 177
3 60 226 90
3 60 161 9
3 9 226 60
3 189 178 67
3 189 45 194
3 189 67 45
3 194 127 189
3 127 178 189
3 176 84 191
3 176 191 46
3 253 27 176
3 27 84 176
3 46 241 176
3 241 75 176
3 209 139 254
3 209 241 139
3 209 75 241
3 141 14 143
3 143 209 254
3 14 209 143
3 253 176 250
3 250 176 75
3 250 213 253
3 75 209 250
3 250 209 14
3 141 178 52
3 52 14 141
3 52 250 14
3 52 178 127
3 127 213 52
3 213 250 52
3 254 139 55
3 55 77 254
3 139 132 55
3 138 77 55
3 55 132 138
3 146 199 12
3 12 218 146
3 205 218 12
3 193 199 185
3 80 133 172
3 172 17 80
3 133 158 172
3 94 17 172
3 172 158 94
3 197 98 80
3 80 17 197
3 224 150 197
3 197 17 224
3 239 61 175
3 175 58 239
3 239 83 48
3 48 61 239
3 239 94 83
3 125 161 144
3 144 208 125
3 125 57 161
3 125 208 124
3 125 124 233
3 233 57 125
3 252 208 144
3 88 208 252
3 144 177 252
3 177 218 252
3 40 88 252
3 205 40 252
3 252 218 205
3 251 136 162
3 136 216 162
3 106 63 159
3 159 63 91
3 1 196 159
3 196 106 159
3 159 128 1
3 159 91 128
3 170 92 13
3 59 63 13
3 13 63 170
3 13 74 59
3 180 156 103
3 103 240 180
3 171 240 103
3 140 156 39
3 39 156 212
3 11 140 39
3 39 212 11
3 135 113 251
3 121 230 135
3 171 130 35
3 35 230 171
3 35 124 26
3 35 130 124
3 35 135 230
3 26 113 35
3 113 135 35
3 139 241 211
3 211 132 139
3 211 241 46
3 46 79 211
3 211 79 184
3 184 30 96
3 96 211 184
3 132 211 96
3 138 132 96
3 30 93 96
3 96 93 138
3 181 72 25
3 82 72 181
3 100 129 6
3 129 72 6
3 6 175 100
3 53 17 94
3 94 239 53
3 53 239 58
3 224 17 53
3 53 58 224
3 183 44 71
3 71 18 183
3 115 18 71
3 111 115 71
3 71 44 111
3 173 198 123
3 123 19 173
3 173 19 115
3 173 115 220
3 220 198 173
3 242 42 5
3 42 131 5
3 5 92 242
3 123 198 28
3 28 5 131
3 28 198 37
3 37 5 28
3 179 131 120
3 179 28 131
3 179 206 123
3 123 28 179
3 182 170 106
3 182 247 170
3 182 106 196
3 196 126 182
3 126 153 182
3 153 247 182
3 237 217 195
3 95 19 195
3 195 19 237
3 195 217 255
3 195 10 95
3 255 10 195
3 187 255 221
3 187 10 255
3 187 221 99
3 187 99 207
3 207 183 187
3 183 10 187
3 229 141 76
3 141 193 76
3 76 185 229
3 76 193 185
3 4 12 199
3 155 205 4
3 205 12 4
3 150 85 238
3 238 197 150
3 238 85 112
3 112 98 238
3 98 197 238
3 59 74 160
3 7 91 160
3 160 216 7
3 160 162 216
3 160 63 59
3 91 63 160
3 137 5 37
3 92 5 137
3 248 156 225
3 248 103 156
3 248 225 233
3 171 103 248
3 233 130 248
3 248 130 171
3 227 188 245
3 3 188 227
3 1 151 219
3 219 93 1
3 219 236 93
3 82 181 154
3 224 82 154
3 45 150 154
3 154 150 224
3 175 6 165
3 165 6 72
3 165 58 175
3 165 72 82
3 82 58 165
3 120 8 201
3 201 179 120
3 201 8 206
3 206 179 201
3 155 4 116
3 116 188 155
3 116 102 245
3 245 188 116
3 199 193 235
3 235 4 199
3 254 102 235
3 102 116 235
3 235 116 4
3 235 193 141
3 235 143 254
3 141 143 235
3 68 160 74
3 162 160 68
3 251 162 68
3 68 74 121
3 121 135 68
3 68 135 251
3 223 34 121
3 121 74 223
3 223 37 34
3 223 137 37
3 228 227 245
3 236 227 228
3 245 77 228
3 228 77 138
3 138 93 228
3 93 236 228
3 43 227 236
3 236 219 43
3 3 227 43
3 43 219 151
3 43 203 3
3 43 151 7
3 7 203 43
3 45 154 15
3 15 154 181
3 194 45 15
3 15 25 194
3 15 181 25
3 137 223 54
3 54 13 92
3 92 137 54
3 74 13 54
3 54 223 74