ply
format ascii 1.0
comment https://github.com/mikedh/trimesh
element vertex 256
property float x
property float y
property float z
element face 508
property list uchar int vertex_indices
end_header
1.94532228 -2.90695333 -1.32723475
2.96314430 1.39200675 1.32727969
-1.68523753 3.73021841 0.51639026
1.49626017 0.63755029 2.30592704
0.19113834 -1.60874891 2.35829020
1.79830945 3.58667850 -0.67778361
-2.13303518 -3.20434141 -0.87681168
1.79581785 2.12321115 1.84763610
1.46955681 2.37571287 -1.87222242
-2.80562806 -0.07056598 1.69298601
-1.39596796 2.75670958 -1.70575762
-2.84010768 2.80324459 0.02495156
-0.29873103 -1.49101007 2.38011765
1.63512063 3.78687930 0.44323906
1.60353410 -3.62974119 0.80976111
-1.45534599 -3.93460202 0.22009139
-0.07842602 -3.72956252 -1.25564706
-3.26220584 -1.86933684 0.59623069
-1.51983237 3.43146443 -1.12606966
-0.68738484 3.65824080 -1.24454010
2.74920177 2.01464343 -1.25521433
-3.61925101 1.13746917 0.00007914
-0.89764470 -3.76925516 -1.05159450
-2.72611022 -1.96153045 -1.30722523
-3.36006904 0.09713272 1.13517249
-1.25039577 -3.95895410 -0.48437262
-0.64188576 2.41275120 2.06030083
1.69394255 -3.57180023 -0.81582016
0.94966263 3.73729682 -1.07010376
3.50039959 1.06547236 -0.66746747
3.68004894 0.50057709 0.40227816
0.79324353 0.22867043 2.48650622
-1.42846990 -3.01725626 -1.52812481
-3.29085183 -0.40808687 -1.20082080
-0.07735126 4.24912596 0.33646062
-0.74165708 2.89286590 1.81140304
1.95151293 1.77699614 -1.90273130
0.56053811 4.21052361 -0.29153615
1.61607027 -1.34528875 -2.15615153
-2.74972749 2.81301308 0.46215662
0.35137776 0.65110856 2.50685573
-1.44844329 -0.31392360 -2.34348893
2.50794268 2.69333577 -1.01542449
2.10737491 0.64473569 2.07307386
-1.94095767 3.63465953 -0.30268079
-1.31037128 -3.91445589 0.53800070
3.30692482 -1.97965193 -0.26015672
-3.57523465 0.88082969 0.57481980
-3.59419680 -0.25247362 -0.71897364
0.03969476 -4.09919310 -0.74423075
-3.00721788 2.27110815 -0.70952988
3.49653459 -0.81472707 -0.79157805
1.22016525 -3.91750097 0.62034464
-3.25457716 -2.12365580 0.14208983
1.20548105 4.01794434 0.34872228
2.76861882 -1.91269088 1.29249930
0.29693240 -3.44299626 -1.50493646
-2.26882172 1.57729185 1.80023551
-2.93512964 -2.65646958 -0.18507944
1.86077607 3.41305280 0.88316590
-2.27663660 -0.19873931 2.02286196
-3.15425372 -1.71983492 -0.92985648
1.70211148 -2.51259232 -1.71065140
2.38185883 2.93972588 0.90839583
2.41087890 -2.44880080 -1.30197477
2.45954275 -0.85444617 -1.85714519
3.67302632 0.41993454 -0.46517590
-0.69290864 -3.89923382 0.94942939
0.91453701 3.56026793 1.27813804
2.46848083 1.97264993 -1.51946914
-2.50073528 0.53836483 -1.87347972
-1.75400651 3.61421871 -0.68166834
-2.14498878 -3.39484668 -0.54877043
-2.71561980 -1.36051667 -1.56220663
1.01472306 3.81181288 0.94180387
2.55332255 -3.10630918 0.27961060
0.05854227 -3.29507351 1.62907588
2.34101081 -1.78050113 1.68826127
2.12849212 -0.58243787 -2.06965566
3.46006083 -1.50562251 -0.41770616
-2.68285084 -1.30422890 1.60464334
-0.41509205 -0.36016834 -2.52329302
-2.60436058 -3.07927966 -0.12670016
-3.62935400 -0.89099878 -0.37576640
2.39102960 -2.84416938 -0.99955028
-1.81405175 -2.84042192 1.45765758
-1.33290493 -2.51533151 1.85454059
-1.44884837 -2.40854526 -1.86516142
-0.03204345 1.22135472 2.44229794
-0.97221172 -0.35692954 -2.45160055
-1.45607936 -1.85573161 2.07297277
2.55606365 2.37548995 1.21963286
1.71730447 3.81204009 0.04051760
3.16262937 0.04826330 1.37249923
-3.62188053 -1.05403531 0.23120226
-0.98168582 3.14460802 -1.59879553
3.60935807 -0.33734474 0.67014945
0.16042167 -0.71601635 -2.50955892
-2.38916683 -1.81740499 1.64120412
-2.28978252 1.32182026 -1.86054683
-2.25247025 -2.59450245 -1.33214760
2.37815309 1.27674747 -1.81927264
1.25683451 -1.86512709 2.12939072
-2.01655984 3.14313054 1.06250834
-3.34718966 1.44754815 0.76753753
-2.86844611 -0.19472630 -1.63888860
3.14180470 2.18680978 0.50528312
-0.82877976 1.03267801 -2.40793443
3.17554593 -0.15796591 -1.35551548
2.41875744 -0.08000446 -1.94827700
-0.93690479 4.13973618 0.19410199
-0.85819167 4.15120554 -0.25218651
-2.04044819 -2.20318770 1.69154215
-0.11977141 2.59803534 2.02562809
-0.74847293 -3.49618340 -1.38499737
-0.81512082 4.05768013 -0.60745454
0.71880144 -1.48759103 2.33937788
3.72523689 0.51986855 0.01728111
3.51309848 0.07990596 -0.89533520
0.75055802 0.76540178 -2.45446014
2.04342866 2.50087786 -1.53526366
-0.01974382 4.05218220 0.83265102
-2.08444238 -1.03666031 -2.02798343
0.61787981 3.59872699 -1.31949043
-1.44033349 2.01425481 2.02595186
-1.75917220 1.44295883 2.08096719
3.56122398 1.25304675 -0.31378958
0.58043987 -4.22836590 -0.14003660
2.65444779 1.90364993 1.40190470
-1.67272425 -3.46501207 -0.98104161
-1.55836523 2.66111374 1.69494188
1.68041968 3.44149256 -1.00274920
3.32495594 -1.00098336 1.02194750
-3.23094940 -0.44649410 1.27098846
-1.30257118 -3.24098253 1.41378260
-0.25892213 3.09375739 1.75492120
0.33759934 2.36676478 2.11234879
1.26811481 4.03471708 0.00438568
3.21059823 -0.63829935 1.26461828
2.70666504 -2.51462722 0.94064391
-3.14778423 2.12407637 0.57795060
0.73766601 -3.45001650 1.42724550
3.38036585 0.81451130 -0.99580592
1.27730286 -3.19373536 1.46232951
-1.52772880 0.31531158 2.31960344
0.68853241 -3.16172123 -1.65600026
-1.07694757 -1.47799528 2.27713394
-3.29370070 2.05472064 0.03392182
0.70820761 -2.06041718 -2.18234587
0.55780238 2.44492388 -2.05816340
-2.08000755 -3.02526569 1.12484777
2.44052124 1.52978897 1.70919037
-0.64964169 -4.08730125 -0.62822002
3.12684417 1.99785042 -0.75864995
-2.08006620 -3.50698185 0.39158398
0.43668014 -0.45831722 2.51604557
-2.43009758 2.87683201 0.92150682
-2.66849303 0.90238184 1.70962501
-3.48897195 -0.48157305 0.89569998
2.95575857 2.26201987 0.81444645
1.50389349 3.38380885 1.18556869
-2.31456327 0.67630523 1.96525729
0.89936268 2.85822558 1.79831100
1.58016884 1.24652350 -2.18922472
-2.09817743 0.12649399 -2.11166811
-2.55858588 -3.03809309 -0.46470708
0.66447574 1.45542514 2.35410666
-1.91371977 3.68431067 0.09372216
-2.15457630 -1.91763937 -1.74756145
1.27087021 -1.99383104 -2.08422089
2.49038434 3.20659852 -0.07486339
-1.58848536 3.03752184 1.43827701
-3.45129299 -1.13090980 0.74264365
-0.14585675 3.94669223 -0.98912078
-0.61669314 0.55806619 -2.49135208
-3.00914145 -2.30011368 -0.67148113
2.41400075 -3.28207898 -0.05279759
-1.47538292 -0.26352328 2.33764744
0.13784707 -4.06179333 0.81278396
1.33349347 3.30056953 -1.35139179
-2.00830460 3.38802838 0.76034361
-1.70783794 -3.80166340 -0.20826982
3.32475495 1.98725879 0.07295123
-2.62893724 2.67966604 -0.87754446
3.72225142 -0.54729730 -0.05862371
-0.84412313 -3.14814949 1.63151622
-3.09793139 0.11822352 1.43672991
-1.84345794 2.06435823 -1.84968972
1.30672991 -0.27635360 2.38284826
-0.18343148 -4.18443823 0.54029626
-0.59105539 -0.91365850 -2.45666146
2.96908522 -2.32307577 -0.72413868
-0.57391542 -3.07784891 -1.73044801
0.05375291 -2.88366008 1.88507056
-0.42758292 -4.25950813 -0.02235735
-0.44324267 3.06201816 -1.75805056
3.54194951 1.22835839 0.42627457
-2.52108264 -2.57860947 1.10157061
0.41541958 3.95447040 -0.94322932
-0.59441173 -2.07424164 2.19300485
-2.54115272 -0.10169166 -1.87477005
1.25770926 2.96061015 -1.63262272
-3.04145670 1.56530821 -1.16950166
1.28946114 1.74722624 2.15567780
2.58905125 -1.71699202 -1.53635061
-0.26536575 -0.90026635 2.48436975
0.78615600 3.00349808 -1.73791313
-2.64977956 1.32897317 -1.62257314
-1.36048281 1.14397562 2.27506351
2.29241109 -3.06740594 0.86318904
0.16458812 0.99905044 -2.47536087
3.54105496 -1.39384401 0.16804087
-2.28360939 3.32206225 0.44027910
1.08412182 -4.08431816 -0.23982733
-0.37990531 -3.93154550 -0.98322111
0.02900968 1.96125031 2.26530433
1.27965879 2.38863778 1.92911541
0.12562434 2.12776303 -2.21003127
-0.94583982 -0.70546752 2.43003821
2.70787334 0.87825644 1.68618476
0.02961605 4.25336790 -0.32075649
-1.91789508 0.98590910 -2.11097145
0.98450345 1.32274580 -2.32945275
0.69561696 4.14775562 0.44356337
-2.81286430 -2.73552775 0.45248148
-2.73154855 2.12637472 1.20632827
-2.53256035 -0.63423616 1.84244800
2.03705502 -0.10678758 2.13900256
2.73811817 -0.24770164 1.73612797
-0.22805561 -3.57535338 1.39777112
-0.72009706 3.30963540 1.54353499
0.54426920 -4.09019470 -0.66806859
-2.73765087 1.46708322 1.50931263
-1.97919941 2.24218249 1.70622754
2.06424570 0.32261673 -2.11945629
0.35879123 -2.51358986 2.04951549
2.69908237 0.30693007 1.76176798
0.18960355 3.08488464 -1.76476681
-2.21947217 -2.56557298 1.37792706
-3.38678694 -1.58659315 -0.56524956
-1.12136948 3.76141930 0.95631015
2.88808179 -2.66312551 0.37704319
2.29201508 3.29689145 -0.48160982
-0.27727771 -1.49868631 -2.37967134
-0.37060705 4.26576042 0.00826696
1.91505432 -1.11735415 2.08824968
1.11670578 0.36041278 -2.42299056
2.89989042 2.64133358 -0.38850796
-2.17004085 2.68615770 1.33144116
-3.73354769 -0.07399859 0.25866503
1.72226095 -3.78021240 0.28189293
0.38699579 2.95331025 1.82784128
-0.93903863 0.57107043 2.44343710
1.81466830 -3.73691702 -0.20545645
1.49344814 -2.76411986 1.66280258
-0.65549207 1.61502397 -2.31764793
3 249 48 83
3 64 0 62
3 220 34 37
3 64 62 204
3 204 191 64
3 51 191 204
3 213 27 253
3 21 48 249
3 104 24 232
3 40 205 155
3 7 151 128
3 128 151 1
3 115 111 220
3 220 111 244
3 244 34 220
3 113 26 215
3 117 184 66
3 66 51 118
3 184 51 66
3 117 196 30
3 30 184 117
3 30 196 1
3 64 191 84
3 84 0 64
3 84 27 0
3 46 191 79
3 79 191 51
3 79 51 184
3 168 87 100
3 100 23 168
3 168 23 73
3 168 73 122
3 122 87 168
3 25 152 194
3 32 87 192
3 100 87 32
3 32 129 100
3 145 62 0
3 0 27 145
3 220 37 198
3 99 70 207
3 78 246 234
3 246 163 234
3 118 51 108
3 51 204 108
3 126 196 117
3 117 66 126
3 126 66 29
3 148 145 192
3 107 174 41
3 122 164 41
3 81 174 210
3 210 174 107
3 210 97 81
3 38 204 62
3 38 148 97
3 38 246 78
3 38 97 246
3 73 33 105
3 207 70 105
3 112 86 90
3 146 177 90
3 231 213 127
3 27 213 231
3 134 45 67
3 67 229 134
3 185 86 134
3 134 229 185
3 249 83 94
3 112 90 98
3 150 45 134
3 175 23 100
3 11 183 50
3 47 24 104
3 47 21 249
3 104 21 47
3 186 232 24
3 186 133 9
3 24 133 186
3 31 40 155
3 215 26 88
3 136 113 215
3 251 113 136
3 7 128 91
3 212 167 11
3 225 232 233
3 104 232 225
3 225 140 104
3 44 183 11
3 11 167 44
3 44 167 111
3 121 34 110
3 34 244 110
3 111 167 110
3 110 244 111
3 218 177 146
3 121 110 240
3 233 124 130
3 56 16 192
3 192 145 56
3 56 231 16
3 56 145 27
3 27 231 56
3 129 32 22
3 22 214 152
3 152 25 22
3 22 25 129
3 107 41 221
3 221 41 164
3 164 70 221
3 70 99 221
3 20 69 120
3 120 42 20
3 120 69 36
3 20 42 153
3 153 126 29
3 101 69 20
3 36 69 101
3 101 163 36
3 101 234 163
3 62 145 169
3 145 148 169
3 169 38 62
3 148 38 169
3 192 87 243
3 243 148 192
3 97 148 243
3 89 174 81
3 89 41 174
3 222 163 246
3 255 210 107
3 107 221 255
3 65 38 78
3 204 38 65
3 65 108 204
3 122 73 200
3 73 105 200
3 200 164 122
3 200 70 164
3 200 105 70
3 80 98 226
3 226 98 90
3 9 133 226
3 226 133 80
3 178 141 229
3 229 67 178
3 49 127 194
3 49 231 127
3 194 152 49
3 152 214 49
3 49 214 16
3 16 231 49
3 254 77 102
3 102 77 245
3 86 185 199
3 146 90 199
3 199 90 86
3 85 150 134
3 85 86 112
3 134 86 85
3 23 175 61
3 73 23 61
3 61 33 73
3 48 33 61
3 11 50 147
3 147 50 21
3 147 140 11
3 147 21 104
3 104 140 147
3 202 183 207
3 202 50 183
3 202 33 48
3 48 21 202
3 21 50 202
3 207 105 202
3 202 105 33
3 158 133 24
3 158 47 249
3 24 47 158
3 249 94 158
3 26 124 208
3 208 88 26
3 232 186 157
3 9 161 157
3 157 186 9
3 57 157 161
3 233 232 57
3 232 157 57
3 3 31 188
3 188 31 155
3 166 88 40
3 3 203 166
3 215 88 166
3 166 31 3
3 40 31 166
3 166 136 215
3 203 136 166
3 216 136 203
3 216 203 7
3 106 170 63
3 92 170 242
3 180 212 156
3 140 225 156
3 2 110 167
3 2 212 180
3 167 212 2
3 180 240 2
3 2 240 110
3 230 240 171
3 121 240 230
3 93 30 1
3 129 25 72
3 58 82 224
3 114 32 192
3 114 22 32
3 192 16 114
3 16 214 114
3 214 22 114
3 237 206 149
3 123 206 237
3 123 237 19
3 19 18 115
3 95 18 19
3 8 120 36
3 149 206 8
3 8 222 149
3 36 163 8
3 163 222 8
3 42 120 131
3 242 170 247
3 247 42 242
3 247 153 42
3 142 101 20
3 108 101 142
3 20 153 142
3 142 153 29
3 118 108 142
3 142 66 118
3 29 66 142
3 234 101 109
3 109 101 108
3 108 65 109
3 78 234 109
3 109 65 78
3 81 97 190
3 97 243 190
3 190 89 81
3 41 89 190
3 122 41 190
3 190 87 122
3 190 243 87
3 119 222 246
3 210 222 119
3 246 97 119
3 97 210 119
3 149 222 217
3 217 222 210
3 210 255 217
3 217 237 149
3 10 18 95
3 183 18 10
3 60 177 144
3 144 161 60
3 60 90 177
3 60 226 90
3 60 161 9
3 9 226 60
3 189 178 67
3 189 45 194
3 189 67 45
3 194 127 189
3 127 178 189
3 176 84 191
3 176 191 46
3 253 27 176
3 27 84 176
3 46 241 176
3 241 75 176
3 209 139 254
3 209 241 139
3 209 75 241
3 141 14 143
3 143 209 254
3 14 209 143
3 253 176 250
3 250 176 75
3 250 213 253
3 75 209 250
3 250 209 14
3 141 178 52
3 52 14 141
3 52 250 14
3 52 178 127
3 127 213 52
3 213 250 52
3 254 139 55
3 55 77 254
3 139 132 55
3 138 77 55
3 55 132 138
3 146 199 12
3 12 218 146
3 205 218 12
3 193 199 185
3 80 133 172
3 172 17 80
3 133 158 172
3 94 17 172
3 172 158 94
3 197 98 80
3 80 17 197
3 224 150 197
3 197 17 224
3 239 61 175
3 175 58 239
3 239 83 48
3 48 61 239
3 239 94 83
3 125 161 144
3 144 208 125
3 125 57 161
3 125 208 124
3 125 124 233
3 233 57 125
3 252 208 144
3 88 208 252
3 144 177 252
3 177 218 252
3 40 88 252
3 205 40 252
3 252 218 205
3 251 136 162
3 136 216 162
3 106 63 159
3 159 63 91
3 1 196 159
3 196 106 159
3 159 128 1
3 159 91 128
3 170 92 13
3 59 63 13
3 13 63 170
3 13 74 59
3 180 156 103
3 103 240 180
3 171 240 103
3 140 156 39
3 39 156 212
3 11 140 39
3 39 212 11
3 135 113 251
3 121 230 135
3 171 130 35
3 35 230 171
3 35 124 26
3 35 130 124
3 35 135 230
3 26 113 35
3 113 135 35
3 139 241 211
3 211 132 139
3 211 241 46
3 46 79 211
3 211 79 184
3 184 30 96
3 96 211 184
3 132 211 96
3 138 132 96
3 30 93 96
3 96 93 138
3 181 72 25
3 82 72 181
3 100 129 6
3 129 72 6
3 6 175 100
3 53 17 94
3 94 239 53
3 53 239 58
3 224 17 53
3 53 58 224
3 183 44 71
3 71 18 183
3 115 18 71
3 111 115 71
3 71 44 111
3 173 198 123
3 123 19 173
3 173 19 115
3 173 115 220
3 220 198 173
3 242 42 5
3 42 131 5
3 5 92 242
3 123 198 28
3 28 5 131
3 28 198 37
3 37 5 28
3 179 131 120
3 179 28 131
3 179 206 123
3 123 28 179
3 182 170 106
3 182 247 170
3 182 106 196
3 196 126 182
3 126 153 182
3 153 247 182
3 237 217 195
3 95 19 195
3 195 19 237
3 195 217 255
3 195 10 95
3 255 10 195
3 187 255 221
3 187 10 255
3 187 221 99
3 187 99 207
3 207 183 187
3 183 10 187
3 229 141 76
3 141 193 76
3 76 185 229
3 76 193 185
3 4 12 199
3 155 205 4
3 205 12 4
3 150 85 238
3 238 197 150
3 238 85 112
3 112 98 238
3 98 197 238
3 59 74 160
3 7 91 160
3 160 216 7
3 160 162 216
3 160 63 59
3 91 63 160
3 137 5 37
3 92 5 137
3 248 156 225
3 248 103 156
3 248 225 233
3 171 103 248
3 233 130 248
3 248 130 171
3 227 188 245
3 3 188 227
3 1 151 219
3 219 93 1
3 219 236 93
3 82 181 154
3 224 82 154
3 45 150 154
3 154 150 224
3 175 6 165
3 165 6 72
3 165 58 175
3 165 72 82
3 82 58 165
3 120 8 201
3 201 179 120
3 201 8 206
3 206 179 201
3 155 4 116
3 116 188 155
3 116 102 245
3 245 188 116
3 199 193 235
3 235 4 199
3 254 102 235
3 102 116 235
3 235 116 4
3 235 193 141
3 235 143 254
3 141 143 235
3 68 160 74
3 162 160 68
3 251 162 68
3 68 74 121
3 121 135 68
3 68 135 251
3 223 34 121
3 121 74 223
3 223 37 34
3 223 137 37
3 228 227 245
3 236 227 228
3 245 77 228
3 228 77 138
3 138 93 228
3 93 236 228
3 43 227 236
3 236 219 43
3 3 227 43
3 43 219 151
3 43 203 3
3 43 151 7
3 7 203 43
3 45 154 15
3 15 154 181
3 194 45 15
3 15 25 194
3 15 181 25
3 137 223 54
3 54 13 92
3 92 137 54
3 74 13 54
3 54 223 74