ply
format ascii 1.0
comment https://github.com/mikedh/trimesh
element vertex 256
property float x
property float y
property float z
element face 508
property list uchar int vertex_indices
end_header
1.48880863 -3.03133011 -0.52736485
2.26777577 1.45156515 0.52738273
-1.28975856 3.88981938 0.20518307
1.14512908 0.66482848 0.91623956
0.14628343 -1.67758083 0.93704557
1.37629569 3.74013805 -0.26931128
-1.63247049 -3.34144235 -0.34839332
1.37438881 2.21405458 0.73414177
1.12469220 2.47736025 -0.74391091
-2.14722419 -0.07358522 0.67269289
-1.06837273 2.87465811 -0.67776757
-2.17361259 2.92318416 0.00991428
-0.22862707 -1.55480433 0.94571853
1.25140285 3.94890451 0.17611709
1.22722876 -3.78504324 0.32175136
-1.11381638 -4.10294771 0.08745135
-0.06002159 -3.88913536 -0.49892020
-2.49665594 -1.94931829 0.23690696
-1.16316950 3.57828307 -0.44743377
-0.52607453 3.81476212 -0.49450693
2.10403967 2.10084200 -0.49874824
-2.76991248 1.18613684 0.00003144
-0.68699223 -3.93052649 -0.41784170
-2.08636713 -2.04545641 -0.51941431
-2.57155323 0.10128864 0.45105064
-0.95696223 -4.12834167 -0.19246115
-0.49125284 2.51598310 0.81864220
1.29642081 -3.72462320 -0.32415888
0.72680295 3.89720058 -0.42519623
2.67895222 1.11105967 -0.26521227
2.81644273 0.52199477 0.15984164
0.60709113 0.23845431 0.98799109
-1.09324729 -3.14635253 -0.60718679
-2.51857948 -0.42554727 -0.47713548
-0.05919905 4.43092871 0.13368963
-0.56761056 3.01663995 0.71974486
1.49354649 1.85302663 -0.75603330
0.42899522 4.39067507 -0.11583929
1.23682308 -1.40284824 -0.85672760
-2.10444212 2.93337059 0.18363382
0.26891905 0.67896688 0.99607682
-1.10853350 -0.32735512 -0.93116438
1.91939759 2.80857277 -0.40346989
1.61283195 0.67232138 0.82371747
-1.48546839 3.79017210 -0.12026752
-1.00286317 -4.08193970 0.21376978
2.53088045 -2.06435323 -0.10337096
-2.73622561 0.91851687 0.22839953
-2.75073767 -0.26327595 -0.28567779
0.03037949 -4.27458096 -0.29571345
-2.30150676 2.36827970 -0.28192538
2.67599416 -0.84958595 -0.31452650
0.93382609 -4.08511496 0.24648842
-2.49081755 -2.21451831 0.05645813
0.92258781 4.18985605 0.13856168
2.11890006 -1.99452710 0.51356310
0.22725053 -3.59030819 -0.59797305
-1.73639166 1.64477789 0.71530753
-2.24633551 -2.77012920 -0.07353967
1.42410314 3.55908346 0.35091811
-1.74237263 -0.20724256 0.80376619
-2.41403699 -1.79341972 -0.36947018
1.30267274 -2.62009597 -0.67971206
1.82290208 3.06550479 0.36094299
1.84511185 -2.55357504 -0.51732808
1.88235581 -0.89100450 -0.73792011
2.81106806 0.43790182 -0.18483350
-0.53030205 -4.06606627 0.37724730
0.69992036 3.71259737 0.50785679
1.88919616 2.05705166 -0.60374755
-1.91388154 0.56139934 -0.74441046
-1.34238946 3.76885653 -0.27085486
-1.64161897 -3.54009867 -0.21804905
-2.07833862 -1.41872776 -0.62072891
0.77659547 3.97490501 0.37421739
1.95412803 -3.23921561 0.11110079
0.04480401 -3.43605638 0.64729875
1.79164004 -1.85668159 0.67081559
1.62899363 -0.60735804 -0.82235920
2.64807963 -1.57004201 -0.16597182
-2.05325961 -1.36003149 0.63759077
-0.31768137 -0.37557849 -1.00260806
-1.99318886 -3.21102953 -0.05034318
-2.77764440 -0.92912102 -0.14930743
1.82992077 -2.96585989 -0.39716238
-1.38834369 -2.96195221 0.57918721
-1.02010882 -2.62295246 0.73688519
-1.10884356 -2.51159716 -0.74110526
-0.02452373 1.27361155 0.97042525
-0.74406040 -0.37220111 -0.97412163
-1.11437750 -1.93513083 0.82367724
1.95622587 2.47712755 0.48461023
1.31430042 3.97514176 0.01609931
2.42044735 0.05032830 0.54535037
-2.77192473 -1.09913325 0.09186616
-0.75131112 3.27915311 -0.63526720
2.76234102 -0.35177833 0.26627791
0.12277512 -0.74665177 -0.99715090
-1.82849514 -1.89516437 0.65211785
-1.75243354 1.37837565 -0.73927170
-1.72387743 -2.70551085 -0.52931696
1.82006598 1.33137429 -0.72287178
0.96189004 -1.94492841 0.84609449
-1.54332876 3.27761245 0.42217821
-2.56169629 1.50948286 0.30497420
-2.19530082 -0.20305786 -0.65119779
2.40450954 2.28037453 0.20076974
-0.63428795 1.07686222 -0.95677125
2.43033266 -0.16472463 -0.53860199
1.85114169 -0.08342753 -0.77413052
-0.71703905 4.31685877 0.07712470
-0.65679771 4.32881880 -0.10020407
-1.56161106 -2.29745317 0.67211920
-0.09166436 2.70919466 0.80486530
-0.57282692 -3.64577079 -0.55031639
-0.62383437 4.23129177 -0.24136664
0.55011851 -1.55123901 0.92953092
2.85102630 0.54211158 0.00686649
2.68867087 0.08332482 -0.35575348
0.57442272 0.79815024 -0.97525781
1.56389225 2.60788035 -0.61002332
-0.01511049 4.22555876 0.33084646
-1.59528112 -1.08101475 -0.80580115
0.47288042 3.75270200 -0.52428776
-1.10232675 2.10043669 0.80499387
-1.34634292 1.50469720 0.82685375
2.72550273 1.30665946 -0.12468150
0.44422662 -4.40928078 -0.05564229
2.03152180 1.98509943 0.55703437
-1.28018188 -3.61326599 -0.38980815
-1.19265974 2.77497196 0.67347002
1.28607142 3.58874011 -0.39843348
2.54468036 -1.04381144 0.40606174
-2.47273445 -0.46559781 0.50501597
-0.99689358 -3.37965107 0.56175393
-0.19816025 3.22612691 0.69730228
0.25837407 2.46802902 0.83932298
0.97052318 4.20734644 0.00174261
2.45715928 -0.66560960 0.50248480
2.07148528 -2.62221813 0.37375650
-2.40908575 2.21495700 0.22964351
0.56455612 -3.59762883 0.56710327
2.58708692 0.84936094 -0.39567462
0.97755504 -3.33038235 0.58104360
-1.16921282 0.32880250 0.92167377
0.52695280 -3.29699874 -0.65799695
-0.82421762 -1.54123271 0.90479887
-2.52075982 2.14263368 0.01347853
0.54201078 -2.14857411 -0.86713564
0.42690149 2.54953241 -0.81779289
-1.59188688 -3.15470457 0.44694823
1.86779797 1.59524250 0.67913157
-0.49718866 -4.26218033 -0.24961764
2.39305997 2.08333039 -0.30144280
-1.59193182 -3.65703154 0.15559240
0.33420333 -0.47792679 0.99972826
-1.85982060 2.99991989 0.36615252
-2.04227114 0.94099116 0.67930430
-2.67020607 -0.50217760 0.35589841
2.26212335 2.35880256 0.32361305
1.15097106 3.52858853 0.47107518
-1.77139902 0.70524162 0.78087747
0.68830699 2.98051739 0.71454281
1.20934665 1.29985714 -0.86986893
-1.60579288 0.13190617 -0.83905250
-1.95815623 -3.16808081 -0.18464720
0.50854152 1.51769686 0.93538332
-1.46462238 3.84194732 0.03723966
-1.64895642 -1.99968743 -0.69437796
0.97263199 -2.07913899 -0.82814658
1.90595973 3.34379601 -0.02974630
-1.21571159 3.16748524 0.57148659
-2.64136958 -1.17929685 0.29508284
-0.11162818 4.11555529 -0.39301834
-0.47197223 0.58194357 -0.98991650
-2.30297875 -2.39852619 -0.26680705
1.84750116 -3.42250586 -0.02097865
-1.12915111 -0.27479839 0.92884338
0.10549815 -4.23558092 0.32295245
1.02055919 3.44178748 -0.53696352
-1.53701067 3.53298855 0.30211577
-1.30705535 -3.96432114 -0.08275416
2.54452658 2.07228541 0.02898652
-2.01199794 2.79431820 -0.34868446
2.84874129 -0.57071394 -0.02329361
-0.64603066 -3.28284621 0.64826840
-2.37093210 0.12328183 0.57087183
-1.41084909 2.15268397 -0.73495775
1.00007641 -0.28817764 0.94680357
-0.14038515 -4.36347342 0.21468191
-0.45235097 -0.95275027 -0.97613257
2.27232265 -2.42247081 -0.28773004
-0.43923327 -3.20953774 -0.68757808
0.04113858 -3.00704026 0.74901599
-0.32724097 -4.44175529 -0.00888349
-0.33922583 3.19302964 -0.69854575
2.71075130 1.28091490 0.16937640
-1.92945385 -2.68893790 0.43769926
0.31793204 4.12366629 -0.37478378
-0.45491964 -2.16299009 0.87137091
-1.94481397 -0.10604264 -0.74492317
0.96255946 3.08728266 -0.64870811
-2.32771063 1.63228142 -0.46469107
0.98686010 1.82198310 0.85653937
1.98147225 -1.79045522 -0.61045521
-0.20309171 -0.93878514 0.98714215
0.60166681 3.13200569 -0.69054431
-2.02794933 1.38583457 -0.64471495
-1.04121494 1.19292176 0.90397620
1.75444531 -3.19864774 0.34298047
0.12596382 1.04179573 -0.98356259
2.71006680 -1.45348096 0.06676955
-1.74770904 3.46420002 0.17494097
0.82970828 -4.25906992 -0.09529325
-0.29075196 -4.09976053 -0.39067414
0.02220191 2.04516435 0.90009850
0.97935808 2.49083805 0.76651680
0.09614376 2.21880126 -0.87813622
-0.72387725 -0.73565167 0.96555406
2.07241011 0.91583347 0.66999048
0.02266598 4.43535233 -0.12744974
-1.46781790 1.02809215 -0.83877569
0.75346762 1.37934077 -0.92558730
0.53237480 4.32522154 0.17624596
-2.15276241 -2.85257006 0.17978948
-2.09052920 2.21735382 0.47932380
-1.93823802 -0.66137260 0.73208034
1.55901432 -0.11135659 0.84991360
2.09555721 -0.25829980 0.68983495
-0.17453724 -3.72832847 0.55539191
-0.55111009 3.45124125 0.61330986
0.41654420 -4.26519775 -0.26545110
-2.09519958 1.52985382 0.59971189
-1.51473570 2.33811665 0.67795432
1.57982397 0.33642018 -0.84214711
0.27459282 -2.62113619 0.81435674
2.06568193 0.32006237 0.70002282
0.14510882 3.21687460 -0.70121437
-1.69862306 -2.67534351 0.54750705
-2.59200120 -1.65447712 -0.22459689
-0.85821491 3.92235518 0.37998131
2.21032834 -2.77707005 0.14981475
1.75414217 3.43795204 -0.19136338
-0.21220827 -1.56280899 -0.94554120
-0.28363577 4.44827509 0.00328480
1.46564376 -1.16516113 0.82974744
0.85464567 0.37583339 -0.96275371
2.21936607 2.75434566 -0.15437017
-1.66079187 2.80108738 0.52903628
-2.85738683 -0.07716469 0.10277824
1.31809366 -3.94195247 0.11200765
0.29617852 3.07967067 0.72627646
-0.71867210 0.59550422 0.97087801
1.38881552 -3.89680457 -0.08163629
1.14297700 -2.88238549 0.66069978
-0.50166613 1.68412435 -0.92089677
3 249 48 83
3 64 0 62
3 220 34 37
3 64 62 204
3 204 191 64
3 51 191 204
3 213 27 253
3 21 48 249
3 104 24 232
3 40 205 155
3 7 151 128
3 128 151 1
3 115 111 220
3 220 111 244
3 244 34 220
3 113 26 215
3 117 184 66
3 66 51 118
3 184 51 66
3 117 196 30
3 30 184 117
3 30 196 1
3 64 191 84
3 84 0 64
3 84 27 0
3 46 191 79
3 79 191 51
3 79 51 184
3 168 87 100
3 100 23 168
3 168 23 73
3 168 73 122
3 122 87 168
3 25 152 194
3 32 87 192
3 100 87 32
3 32 129 100
3 145 62 0
3 0 27 145
3 220 37 198
3 99 70 207
3 78 246 234
3 246 163 234
3 118 51 108
3 51 204 108
3 126 196 117
3 117 66 126
3 126 66 29
3 148 145 192
3 107 174 41
3 122 164 41
3 81 174 210
3 210 174 107
3 210 97 81
3 38 204 62
3 38 148 97
3 38 246 78
3 38 97 246
3 73 33 105
3 207 70 105
3 112 86 90
3 146 177 90
3 231 213 127
3 27 213 231
3 134 45 67
3 67 229 134
3 185 86 134
3 134 229 185
3 249 83 94
3 112 90 98
3 150 45 134
3 175 23 100
3 11 183 50
3 47 24 104
3 47 21 249
3 104 21 47
3 186 232 24
3 186 133 9
3 24 133 186
3 31 40 155
3 215 26 88
3 136 113 215
3 251 113 136
3 7 128 91
3 212 167 11
3 225 232 233
3 104 232 225
3 225 140 104
3 44 183 11
3 11 167 44
3 44 167 111
3 121 34 110
3 34 244 110
3 111 167 110
3 110 244 111
3 218 177 146
3 121 110 240
3 233 124 130
3 56 16 192
3 192 145 56
3 56 231 16
3 56 145 27
3 27 231 56
3 129 32 22
3 22 214 152
3 152 25 22
3 22 25 129
3 107 41 221
3 221 41 164
3 164 70 221
3 70 99 221
3 20 69 120
3 120 42 20
3 120 69 36
3 20 42 153
3 153 126 29
3 101 69 20
3 36 69 101
3 101 163 36
3 101 234 163
3 62 145 169
3 145 148 169
3 169 38 62
3 148 38 169
3 192 87 243
3 243 148 192
3 97 148 243
3 89 174 81
3 89 41 174
3 222 163 246
3 255 210 107
3 107 221 255
3 65 38 78
3 204 38 65
3 65 108 204
3 122 73 200
3 73 105 200
3 200 164 122
3 200 70 164
3 200 105 70
3 80 98 226
3 226 98 90
3 9 133 226
3 226 133 80
3 178 141 229
3 229 67 178
3 49 127 194
3 49 231 127
3 194 152 49
3 152 214 49
3 49 214 16
3 16 231 49
3 254 77 102
3 102 77 245
3 86 185 199
3 146 90 199
3 199 90 86
3 85 150 134
3 85 86 112
3 134 86 85
3 23 175 61
3 73 23 61
3 61 33 73
3 48 33 61
3 11 50 147
3 147 50 21
3 147 140 11
3 147 21 104
3 104 140 147
3 202 183 207
3 202 50 183
3 202 33 48
3 48 21 202
3 21 50 202
3 207 105 202
3 202 105 33
3 158 133 24
3 158 47 249
3 24 47 158
3 249 94 158
3 26 124 208
3 208 88 26
3 232 186 157
3 9 161 157
3 157 186 9
3 57 157 161
3 233 232 57
3 232 157 57
3 3 31 188
3 188 31 155
3 166 88 40
3 3 203 166
3 215 88 166
3 166 31 3
3 40 31 166
3 166 136 215
3 203 136 166
3 216 136 203
3 216 203 7
3 106 170 63
3 92 170 242
3 180 212 156
3 140 225 156
3 2 110 167
3 2 212 180
3 167 212 2
3 180 240 2
3 2 240 110
3 230 240 171
3 121 240 230
3 93 30 1
3 129 25 72
3 58 82 224
3 114 32 192
3 114 22 32
3 192 16 114
3 16 214 114
3 214 22 114
3 237 206 149
3 123 206 237
3 123 237 19
3 19 18 115
3 95 18 19
3 8 120 36
3 149 206 8
3 8 222 149
3 36 163 8
3 163 222 8
3 42 120 131
3 242 170 247
3 247 42 242
3 247 153 42
3 142 101 20
3 108 101 142
3 20 153 142
3 142 153 29
3 118 108 142
3 142 66 118
3 29 66 142
3 234 101 109
3 109 101 108
3 108 65 109
3 78 234 109
3 109 65 78
3 81 97 190
3 97 243 190
3 190 89 81
3 41 89 190
3 122 41 190
3 190 87 122
3 190 243 87
3 119 222 246
3 210 222 119
3 246 97 119
3 97 210 119
3 149 222 217
3 217 222 210
3 210 255 217
3 217 237 149
3 10 18 95
3 183 18 10
3 60 177 144
3 144 161 60
3 60 90 177
3 60 226 90
3 60 161 9
3 9 226 60
3 189 178 67
3 189 45 194
3 189 67 45
3 194 127 189
3 127 178 189
3 176 84 191
3 176 191 46
3 253 27 176
3 27 84 176
3 46 241 176
3 241 75 176
3 209 139 254
3 209 241 139
3 209 75 241
3 141 14 143
3 143 209 254
3 14 209 143
3 253 176 250
3 250 176 75
3 250 213 253
3 75 209 250
3 250 209 14
3 141 178 52
3 52 14 141
3 52 250 14
3 52 178 127
3 127 213 52
3 213 250 52
3 254 139 55
3 55 77 254
3 139 132 55
3 138 77 55
3 55 132 138
3 146 199 12
3 12 218 146
3 205 218 12
3 193 199 185
3 80 133 172
3 172 17 80
3 133 158 172
3 94 17 172
3 172 158 94
3 197 98 80
3 80 17 197
3 224 150 197
3 197 17 224
3 239 61 175
3 175 58 239
3 239 83 48
3 48 61 239
3 239 94 83
3 125 161 144
3 144 208 125
3 125 57 161
3 125 208 124
3 125 124 233
3 233 57 125
3 252 208 144
3 88 208 252
3 144 177 252
3 177 218 252
3 40 88 252
3 205 40 252
3 252 218 205
3 251 136 162
3 136 216 162
3 106 63 159
3 159 63 91
3 1 196 159
3 196 106 159
3 159 128 1
3 159 91 128
3 170 92 13
3 59 63 13
3 13 63 170
3 13 74 59
3 180 156 103
3 103 240 180
3 171 240 103
3 140 156 39
3 39 156 212
3 11 140 39
3 39 212 11
3 135 113 251
3 121 230 135
3 171 130 35
3 35 230 171
3 35 124 26
3 35 130 124
3 35 135 230
3 26 113 35
3 113 135 35
3 139 241 211
3 211 132 139
3 211 241 46
3 46 79 211
3 211 79 184
3 184 30 96
3 96 211 184
3 132 211 96
3 138 132 96
3 30 93 96
3 96 93 138
3 181 72 25
3 82 72 181
3 100 129 6
3 129 72 6
3 6 175 100
3 53 17 94
3 94 239 53
3 53 239 58
3 224 17 53
3 53 58 224
3 183 44 71
3 71 18 183
3 115 18 71
3 111 115 71
3 71 44 111
3 173 198 123
3 123 19 173
3 173 19 115
3 173 115 220
3 220 198 173
3 242 42 5
3 42 131 5
3 5 92 242
3 123 198 28
3 28 5 131
3 28 198 37
3 37 5 28
3 179 131 120
3 179 28 131
3 179 206 123
3 123 28 179
3 182 170 106
3 182 247 170
3 182 106 196
3 196 126 182
3 126 153 182
3 153 247 182
3 237 217 195
3 95 19 195
3 195 19 237
3 195 217 255
3 195 10 95
3 255 10 195
3 187 255 221
3 187 10 255
3 187 221 99
3 187 99 207
3 207 183 187
3 183 10 187
3 229 141 76
3 141 193 76
3 76 185 229
3 76 193 185
3 4 12 199
3 155 205 4
3 205 12 4
3 150 85 238
3 238 197 150
3 238 85 112
3 112 98 238
3 98 197 238
3 59 74 160
3 7 91 160
3 160 216 7
3 160 162 216
3 160 63 59
3 91 63 160
3 137 5 37
3 92 5 137
3 248 156 225
3 248 103 156
3 248 225 233
3 171 103 248
3 233 130 248
3 248 130 171
3 227 188 245
3 3 188 227
3 1 151 219
3 219 93 1
3 219 236 93
3 82 181 154
3 224 82 154
3 45 150 154
3 154 150 224
3 175 6 165
3 165 6 72
3 165 58 175
3 165 72 82
3 82 58 165
3 120 8 201
3 201 179 120
3 201 8 206
3 206 179 201
3 155 4 116
3 116 188 155
3 116 102 245
3 245 188 116
3 199 193 235
3 235 4 199
3 254 102 235
3 102 116 235
3 235 116 4
3 235 193 141
3 235 143 254
3 141 143 235
3 68 160 74
3 162 160 68
3 251 162 68
3 68 74 121
3 121 135 68
3 68 135 251
3 223 34 121
3 121 74 223
3 223 37 34
3 223 137 37
3 228 227 245
3 236 227 228
3 245 77 228
3 228 77 138
3 138 93 228
3 93 236 228
3 43 227 236
3 236 219 43
3 3 227 43
3 43 219 151
3 43 203 3
3 43 151 7
3 7 203 43
3 45 154 15
3 15 154 181
3 194 45 15
3 15 25 194
3 15 181 25
3 137 223 54
3 54 13 92
3 92 137 54
3 74 13 54
3 54 223 74