ply
format ascii 1.0
comment https://github.com/mikedh/trimesh
element vertex 256
property float x
property float y
property float z
element face 508
property list uchar int vertex_indices
end_header
1.69389510 -2.47105479 -2.47894025
2.58016682 1.18327487 2.47902417
-1.46742558 3.17087078 0.96448702
1.30287302 0.54194939 4.30689096
0.16643429 -1.36751652 4.40469217
1.56588328 3.04885483 -1.26592910
-1.85734665 -2.72384953 -1.63766348
1.56371379 1.80483484 3.45091891
1.27962101 2.01947403 -3.49684024
-2.44300890 -0.05998459 3.16207147
-1.21554327 2.34334016 -3.18592572
-2.47303224 2.38289714 0.04660324
-0.26012093 -1.26743257 4.44546032
1.42378616 3.21903563 0.82785898
1.39628208 -3.08546042 1.51242983
-1.26724684 -3.34460711 0.41107529
-0.06828969 -3.17031336 -2.34523273
-2.84057570 -1.58902919 1.11360884
-1.32339859 2.91691542 -2.10321474
-0.59854239 3.10968637 -2.32448745
2.39387560 1.71254706 -2.34442449
-3.15147376 0.96690530 0.00014781
-0.78162682 -3.20405412 -1.96411371
-2.37376857 -1.66739833 -2.44156742
-2.92579007 0.08256764 2.12021637
-1.08878577 -3.36530757 -0.90468609
-0.55892396 2.05095840 3.84812307
1.47500563 -3.03620768 -1.52374661
0.82692158 3.17688799 -1.99868453
3.04798341 0.90570450 -1.24666119
3.20441365 0.42551541 0.75135434
0.69071919 0.19438122 4.64416742
-1.24384439 -2.56481767 -2.85415244
-2.86551905 -0.34689412 -2.24283099
-0.06735384 3.61196804 0.62842369
-0.64580011 2.45907974 3.38324475
1.69928575 1.51053500 -3.55382299
0.48809022 3.57915425 -0.54451609
1.40719807 -1.14356220 -4.02714825
-2.39433336 2.39120078 0.86319220
0.30596322 0.55347466 4.68217564
-1.26123631 -0.26685065 -4.37704706
2.18379855 2.28946924 -1.89655733
1.83500290 0.54805738 3.87198019
-1.69009471 3.08964109 -0.56533152
-1.14100969 -3.32748199 1.00484979
2.87951469 -1.68280244 -0.48590726
-3.11314631 0.74874902 1.07361865
-3.12965751 -0.21461512 -1.34286177
0.03456433 -3.48451781 -1.39003563
-2.61854410 1.93055475 -1.32522321
3.04461789 -0.69255847 -1.47846854
1.06246257 -3.33007050 1.15864754
-2.83393288 -1.80521286 0.26538801
1.04967630 3.41545248 0.65132540
2.41078305 -1.62588227 2.41406322
0.25855479 -2.92671800 -2.81084228
-1.97558320 1.34077644 3.36238647
-2.55577302 -2.25813127 -0.34568179
1.62027633 2.90126443 1.64953148
-1.98238814 -0.16893828 3.77819681
-2.74657583 -1.46194518 -1.73673773
1.48211873 -2.13582826 -3.19506598
2.07401061 2.49891305 1.69665456
2.09927988 -2.08160233 -2.43176103
2.14165425 -0.72632170 -3.46867967
3.19829869 0.35696521 -0.86883146
-0.60335225 -3.31454229 1.77329504
0.79633582 3.02640462 2.38724017
2.14943695 1.67685044 -2.83798575
-2.17752266 0.45763686 -3.49918842
-1.52730644 3.07226539 -1.27318490
-1.86775553 -2.88578844 -1.02496505
-2.36463404 -1.15650678 -2.91780853
0.88357317 3.24023032 1.75905252
2.22331333 -2.64051700 0.52224225
0.05097586 -2.80097628 3.04270339
2.03844237 -1.51351440 3.15324688
1.85339093 -0.49510112 -3.86559558
3.01285839 -1.27985394 -0.78016990
-2.33610034 -1.10865927 2.99706984
-0.36144266 -0.30616099 -4.71287584
-2.26775479 -2.61754060 -0.23664401
-3.16027093 -0.75739318 -0.70183700
2.08199620 -2.41768527 -1.86690819
-1.57959092 -2.41449976 2.72253728
-1.16063094 -2.13815689 3.46381474
-1.26158905 -2.04738307 -3.48365188
-0.02790193 1.03821218 4.56159735
-0.84655631 -0.30340785 -4.57897282
-1.26788545 -1.57746410 3.87179112
2.22570014 2.01928449 2.27796698
1.49534810 3.24042344 0.07567668
2.75386906 0.04102620 2.56348300
-3.15376329 -0.89598233 0.43182760
-0.85480583 2.67307305 -2.98614764
3.14285922 -0.28675976 1.25167036
0.13968766 -0.60864943 -4.68722391
-2.08037424 -1.54488444 3.06535602
-1.99383485 1.12361288 -3.47503304
-1.96134520 -2.20545602 -2.48811626
2.07078385 1.08529878 -3.39794326
1.09439242 -1.58545065 3.97716594
-1.75592554 2.67181706 1.98449802
-2.91457534 1.23048782 1.43356681
-2.49770808 -0.16552703 -3.06103110
2.73573589 1.85889697 0.94374156
-0.72166246 0.87782764 -4.49741507
2.76511621 -0.13427888 -2.53176165
2.10614038 -0.06800777 -3.63889098
-0.81581265 3.51898122 0.36253366
-0.74727297 3.52873087 -0.47102091
-1.77672637 -1.87281895 3.15937471
-0.10429131 2.20845890 3.78336334
-0.65173507 -2.97192955 -2.58682632
-0.70976889 3.44922972 -1.13457203
0.62589848 -1.26452625 4.36936855
3.24376106 0.44191408 0.03227675
3.05904102 0.06792404 -1.67226076
0.65355062 0.65062952 -4.58431339
1.77932167 2.12587047 -2.86748600
-0.01719199 3.44455600 1.55518246
-1.81503451 -0.88121271 -3.78776240
0.53802067 3.05909657 -2.46447587
-1.25417459 1.71221662 3.78396773
-1.53180444 1.22658670 3.88672256
3.10094643 1.06515193 -0.58607996
0.50541979 -3.59432101 -0.26155311
2.31136823 1.61819708 2.61840510
-1.45652962 -2.94543242 -1.83233869
-1.35695112 2.26207876 3.16572452
1.46323049 2.92543960 -1.87288308
2.89521551 -0.85088563 1.90874052
-2.81335902 -0.37954217 2.37388659
-1.13421774 -2.75499630 2.64058995
-0.22545724 2.62984753 3.27775097
0.29396564 2.01186752 3.94533563
1.10421479 3.42971015 0.00819135
2.79563808 -0.54258615 2.36198854
2.35683656 -2.13755822 1.75688601
-2.74094248 1.80557048 1.07946610
0.64232486 -2.93268538 2.66573524
2.94346356 0.69237506 -1.85991466
1.11221528 -2.71483374 2.73126340
-1.33027446 0.26803052 4.33243513
0.59954166 -2.68762016 -3.09299159
-0.93775535 -1.25636935 4.25311279
-2.86799979 1.74661458 0.06335742
0.61667389 -1.75145698 -4.07607269
0.48570809 2.07830691 -3.84413099
-1.81117272 -2.57162619 2.10093236
2.12509108 1.30039668 3.19233727
-0.56567746 -3.47440910 -1.17335689
2.72270894 1.69827211 -1.41696703
-1.81122386 -2.98110867 0.73138028
0.38024056 -0.38959241 4.69933939
-2.11601472 2.44545007 1.72114277
-2.32359838 0.76706940 3.19314909
-3.03803277 -0.40936100 1.67294204
2.57373571 1.92282927 1.52118087
1.30951977 2.87640572 2.21434379
-2.01541305 0.57489306 3.67060566
0.78312278 2.42963362 3.35879207
1.37593675 1.05960691 -4.08892059
-1.82699418 0.10752618 -3.94406438
-2.22789645 -2.58253002 -0.86795580
0.57859421 1.23718369 4.39687872
-1.66637719 3.13184714 0.17504939
-1.87610376 -1.63008881 -3.26400471
1.10661411 -1.69485533 -3.89279985
2.16850972 2.72576809 -0.13982596
-1.38317847 2.58204460 2.68633938
-3.00522375 -0.96132952 1.38707137
-0.12700520 3.35488439 -1.84742856
-0.53698742 0.47438398 -4.65321827
-2.62021899 -1.95521080 -1.25415766
2.10199833 -2.78993011 -0.09861259
-1.28469408 -0.22400789 4.36613703
0.12003075 -3.45272613 1.51807570
1.16114342 2.80564809 -2.52405953
-1.74873710 2.87999249 1.42013049
-1.48710501 -3.23160267 -0.38899559
2.89504027 1.68926871 0.13625453
-2.28915501 2.27784920 -1.63903213
3.24116135 -0.46522990 -0.10949433
-0.73502272 -2.67608356 3.04726148
-2.69753289 0.10049586 2.68344975
-1.60519660 1.75480711 -3.45475459
1.13783896 -0.23491427 4.45056057
-0.15972351 -3.55698037 1.00913739
-0.51466328 -0.77665508 -4.58842516
2.58533978 -1.97472978 -1.35250866
-0.49973857 -2.61632442 -3.23204112
0.04680551 -2.45125437 3.52083731
-0.37231910 -3.62079358 -0.04175790
-0.38595489 2.60286760 -3.28359580
3.08416295 1.04416561 0.79617351
-2.19524026 -2.19194627 2.05745649
0.36172786 3.36149621 -1.76171494
-0.51758575 -1.76320851 4.09598064
-2.21271634 -0.08644296 -3.50159836
1.09515405 2.51666570 -3.04932809
-2.64835763 1.33058965 -2.18433475
1.12280214 1.48522913 4.02626324
2.25442410 -1.45952857 -2.86951613
-0.23106803 -0.76527113 4.64017725
0.68454766 2.55312252 -3.24598408
-2.30730367 1.12969315 -3.03055811
-1.18464446 0.97243613 4.24924564
1.99612379 -2.60744739 1.61221981
0.14331560 0.84924251 -4.62335062
3.08338428 -1.18483663 0.31385803
-1.98845971 2.82391787 0.82233047
0.94400233 -3.47187352 -0.44793707
-0.33080366 -3.34200883 -1.83640945
0.02526027 1.66716015 4.23101807
1.11426675 2.03046083 3.60310173
0.10938777 1.80870426 -4.12778187
-0.82359284 -0.59968245 4.53869963
2.35788894 0.74656159 3.14936852
0.02578826 3.61557388 -0.59909236
-1.67001295 0.83807170 -3.94276333
0.85725933 1.12439966 -4.35083103
0.60571057 3.52579832 0.82846469
-2.44931006 -2.32533455 0.84512144
-2.37850404 1.80752420 2.25311756
-2.20523453 -0.53913224 3.44122910
1.77377176 -0.09077475 3.99511814
2.38422465 -0.21055870 3.24264979
-0.19858010 -3.03922796 2.61068463
-0.62702668 2.81335449 2.88293457
0.47392404 -3.47686863 -1.24778390
-2.38381767 1.24709368 2.81901598
-1.72339380 1.90596664 3.18680334
1.79744804 0.27424026 -3.95861077
0.31241855 -2.13667607 3.82797885
2.35023403 0.26090580 3.29053903
0.16509786 2.62230539 -3.29614019
-1.93261194 -2.18086457 2.57362080
-2.94905496 -1.34868300 -1.05574393
-0.97643578 3.19739318 1.78614664
2.51480579 -2.26378894 0.70422173
1.99577904 2.80252147 -0.89952588
-0.24144040 -1.27395785 -4.44462681
-0.32270721 3.62610841 0.01544060
1.66753924 -0.94980651 3.90032482
0.97237486 0.30636877 -4.52553654
2.52508831 2.24526477 -0.72563505
-1.88956952 2.28336740 2.48679686
-3.25099778 -0.06290248 0.48312113
1.49966395 -3.21336842 0.52650499
0.33697775 2.51046062 3.41394734
-0.81767070 0.48543823 4.56372547
1.58012784 -3.17656517 -0.38374090
1.30042446 -2.34963918 3.10569644
-0.57077169 1.37285066 -4.32878304
3 249 48 83
3 64 0 62
3 220 34 37
3 64 62 204
3 204 191 64
3 51 191 204
3 213 27 253
3 21 48 249
3 104 24 232
3 40 205 155
3 7 151 128
3 128 151 1
3 115 111 220
3 220 111 244
3 244 34 220
3 113 26 215
3 117 184 66
3 66 51 118
3 184 51 66
3 117 196 30
3 30 184 117
3 30 196 1
3 64 191 84
3 84 0 64
3 84 27 0
3 46 191 79
3 79 191 51
3 79 51 184
3 168 87 100
3 100 23 168
3 168 23 73
3 168 73 122
3 122 87 168
3 25 152 194
3 32 87 192
3 100 87 32
3 32 129 100
3 145 62 0
3 0 27 145
3 220 37 198
3 99 70 207
3 78 246 234
3 246 163 234
3 118 51 108
3 51 204 108
3 126 196 117
3 117 66 126
3 126 66 29
3 148 145 192
3 107 174 41
3 122 164 41
3 81 174 210
3 210 174 107
3 210 97 81
3 38 204 62
3 38 148 97
3 38 246 78
3 38 97 246
3 73 33 105
3 207 70 105
3 112 86 90
3 146 177 90
3 231 213 127
3 27 213 231
3 134 45 67
3 67 229 134
3 185 86 134
3 134 229 185
3 249 83 94
3 112 90 98
3 150 45 134
3 175 23 100
3 11 183 50
3 47 24 104
3 47 21 249
3 104 21 47
3 186 232 24
3 186 133 9
3 24 133 186
3 31 40 155
3 215 26 88
3 136 113 215
3 251 113 136
3 7 128 91
3 212 167 11
3 225 232 233
3 104 232 225
3 225 140 104
3 44 183 11
3 11 167 44
3 44 167 111
3 121 34 110
3 34 244 110
3 111 167 110
3 110 244 111
3 218 177 146
3 121 110 240
3 233 124 130
3 56 16 192
3 192 145 56
3 56 231 16
3 56 145 27
3 27 231 56
3 129 32 22
3 22 214 152
3 152 25 22
3 22 25 129
3 107 41 221
3 221 41 164
3 164 70 221
3 70 99 221
3 20 69 120
3 120 42 20
3 120 69 36
3 20 42 153
3 153 126 29
3 101 69 20
3 36 69 101
3 101 163 36
3 101 234 163
3 62 145 169
3 145 148 169
3 169 38 62
3 148 38 169
3 192 87 243
3 243 148 192
3 97 148 243
3 89 174 81
3 89 41 174
3 222 163 246
3 255 210 107
3 107 221 255
3 65 38 78
3 204 38 65
3 65 108 204
3 122 73 200
3 73 105 200
3 200 164 122
3 200 70 164
3 200 105 70
3 80 98 226
3 226 98 90
3 9 133 226
3 226 133 80
3 178 141 229
3 229 67 178
3 49 127 194
3 49 231 127
3 194 152 49
3 152 214 49
3 49 214 16
3 16 231 49
3 254 77 102
3 102 77 245
3 86 185 199
3 146 90 199
3 199 90 86
3 85 150 134
3 85 86 112
3 134 86 85
3 23 175 61
3 73 23 61
3 61 33 73
3 48 33 61
3 11 50 147
3 147 50 21
3 147 140 11
3 147 21 104
3 104 140 147
3 202 183 207
3 202 50 183
3 202 33 48
3 48 21 202
3 21 50 202
3 207 105 202
3 202 105 33
3 158 133 24
3 158 47 249
3 24 47 158
3 249 94 158
3 26 124 208
3 208 88 26
3 232 186 157
3 9 161 157
3 157 186 9
3 57 157 161
3 233 232 57
3 232 157 57
3 3 31 188
3 188 31 155
3 166 88 40
3 3 203 166
3 215 88 166
3 166 31 3
3 40 31 166
3 166 136 215
3 203 136 166
3 216 136 203
3 216 203 7
3 106 170 63
3 92 170 242
3 180 212 156
3 140 225 156
3 2 110 167
3 2 212 180
3 167 212 2
3 180 240 2
3 2 240 110
3 230 240 171
3 121 240 230
3 93 30 1
3 129 25 72
3 58 82 224
3 114 32 192
3 114 22 32
3 192 16 114
3 16 214 114
3 214 22 114
3 237 206 149
3 123 206 237
3 123 237 19
3 19 18 115
3 95 18 19
3 8 120 36
3 149 206 8
3 8 222 149
3 36 163 8
3 163 222 8
3 42 120 131
3 242 170 247
3 247 42 242
3 247 153 42
3 142 101 20
3 108 101 142
3 20 153 142
3 142 153 29
3 118 108 142
3 142 66 118
3 29 66 142
3 234 101 109
3 109 101 108
3 108 65 109
3 78 234 109
3 109 65 78
3 81 97 190
3 97 243 190
3 190 89 81
3 41 89 190
3 122 41 190
3 190 87 122
3 190 243 87
3 119 222 246
3 210 222 119
3 246 97 119
3 97 210 119
3 149 222 217
3 217 222 210
3 210 255 217
3 217 237 149
3 10 18 95
3 183 18 10
3 60 177 144
3 144 161 60
3 60 90 177
3 60 226 90
3 60 161 9
3 9 226 60
3 189 178 67
3 189 45 194
3 189 67 45
3 194 127 189
3 127 178 189
3 176 84 191
3 176 191 46
3 253 27 176
3 27 84 176
3 46 241 176
3 241 75 176
3 209 139 254
3 209 241 139
3 209 75 241
3 141 14 143
3 143 209 254
3 14 209 143
3 253 176 250
3 250 176 75
3 250 213 253
3 75 209 250
3 250 209 14
3 141 178 52
3 52 14 141
3 52 250 14
3 52 178 127
3 127 213 52
3 213 250 52
3 254 139 55
3 55 77 254
3 139 132 55
3 138 77 55
3 55 132 138
3 146 199 12
3 12 218 146
3 205 218 12
3 193 199 185
3 80 133 172
3 172 17 80
3 133 158 172
3 94 17 172
3 172 158 94
3 197 98 80
3 80 17 197
3 224 150 197
3 197 17 224
3 239 61 175
3 175 58 239
3 239 83 48
3 48 61 239
3 239 94 83
3 125 161 144
3 144 208 125
3 125 57 161
3 125 208 124
3 125 124 233
3 233 57 125
3 252 208 144
3 88 208 252
3 144 177 252
3 177 218 252
3 40 88 252
3 205 40 252
3 252 218 205
3 251 136 162
3 136 216 162
3 106 63 159
3 159 63 91
3 1 196 159
3 196 106 159
3 159 128 1
3 159 91 128
3 170 92 13
3 59 63 13
3 13 63 170
3 13 74 59
3 180 156 103
3 103 240 180
3 171 240 103
3 140 156 39
3 39 156 212
3 11 140 39
3 39 212 11
3 135 113 251
3 121 230 135
3 171 130 35
3 35 230 171
3 35 124 26
3 35 130 124
3 35 135 230
3 26 113 35
3 113 135 35
3 139 241 211
3 211 132 139
3 211 241 46
3 46 79 211
3 211 79 184
3 184 30 96
3 96 211 184
3 132 211 96
3 138 132 96
3 30 93 96
3 96 93 138
3 181 72 25
3 82 72 181
3 100 129 6
3 129 72 6
3 6 175 100
3 53 17 94
3 94 239 53
3 53 239 58
3 224 17 53
3 53 58 224
3 183 44 71
3 71 18 183
3 115 18 71
3 111 115 71
3 71 44 111
3 173 198 123
3 123 19 173
3 173 19 115
3 173 115 220
3 220 198 173
3 242 42 5
3 42 131 5
3 5 92 242
3 123 198 28
3 28 5 131
3 28 198 37
3 37 5 28
3 179 131 120
3 179 28 131
3 179 206 123
3 123 28 179
3 182 170 106
3 182 247 170
3 182 106 196
3 196 126 182
3 126 153 182
3 153 247 182
3 237 217 195
3 95 19 195
3 195 19 237
3 195 217 255
3 195 10 95
3 255 10 195
3 187 255 221
3 187 10 255
3 187 221 99
3 187 99 207
3 207 183 187
3 183 10 187
3 229 141 76
3 141 193 76
3 76 185 229
3 76 193 185
3 4 12 199
3 155 205 4
3 205 12 4
3 150 85 238
3 238 197 150
3 238 85 112
3 112 98 238
3 98 197 238
3 59 74 160
3 7 91 160
3 160 216 7
3 160 162 216
3 160 63 59
3 91 63 160
3 137 5 37
3 92 5 137
3 248 156 225
3 248 103 156
3 248 225 233
3 171 103 248
3 233 130 248
3 248 130 171
3 227 188 245
3 3 188 227
3 1 151 219
3 219 93 1
3 219 236 93
3 82 181 154
3 224 82 154
3 45 150 154
3 154 150 224
3 175 6 165
3 165 6 72
3 165 58 175
3 165 72 82
3 82 58 165
3 120 8 201
3 201 179 120
3 201 8 206
3 206 179 201
3 155 4 116
3 116 188 155
3 116 102 245
3 245 188 116
3 199 193 235
3 235 4 199
3 254 102 235
3 102 116 235
3 235 116 4
3 235 193 141
3 235 143 254
3 141 143 235
3 68 160 74
3 162 160 68
3 251 162 68
3 68 74 121
3 121 135 68
3 68 135 251
3 223 34 121
3 121 74 223
3 223 37 34
3 223 137 37
3 228 227 245
3 236 227 228
3 245 77 228
3 228 77 138
3 138 93 228
3 93 236 228
3 43 227 236
3 236 219 43
3 3 227 43
3 43 219 151
3 43 203 3
3 43 151 7
3 7 203 43
3 45 154 15
3 15 154 181
3 194 45 15
3 15 25 194
3 15 181 25
3 137 223 54
3 54 13 92
3 92 137 54
3 74 13 54
3 54 223 74