ply
format ascii 1.0
comment https://github.com/mikedh/trimesh
element vertex 256
property float x
property float y
property float z
element face 508
property list uchar int vertex_indices
end_header
0.62092847 -2.38154173 -2.35656214
0.94580764 1.14041126 2.35664201
-0.53791189 3.05600715 0.91687304
0.47759208 0.52231747 4.09427214
0.06100955 -1.31797874 4.18724489
0.57400334 2.93841124 -1.20343375
-0.68084460 -2.62517905 -1.55681670
0.57320809 1.73945534 3.28055716
0.46906862 1.94631934 -3.32421112
-0.89552993 -0.05781167 3.00596905
-0.44557977 2.25845337 -3.02864575
-0.90653557 2.29657745 0.04430257
-0.09535212 -1.22152030 4.22600079
0.52191508 3.10242724 0.78698999
0.51183289 -2.97369075 1.43776560
-0.46453267 -3.22344995 0.39078167
-0.02503284 -3.05546999 -2.22945523
-1.04126525 -1.53146720 1.05863321
-0.48511612 2.81125116 -1.99938500
-0.21940674 2.99703908 -2.20973420
0.87751919 1.65051067 -2.22868681
-1.15523076 0.93187952 0.00014051
-0.28651971 -3.08798838 -1.86715102
-0.87014860 -1.60699749 -2.32103443
-1.07250226 0.07957666 2.01554728
-0.39911449 -3.24340057 -0.86002433
-0.20488386 1.97666323 3.65815234
0.54069048 -2.92622209 -1.44852364
0.30312333 3.06180644 -1.90001512
1.11729443 0.87289566 -1.18511713
1.17463684 0.41010126 0.71426213
0.25319582 0.18733984 4.41489840
-0.45595407 -2.47190809 -2.71325111
-1.05040884 -0.33432800 -2.13210893
-0.02468979 3.48112583 0.59740025
-0.23672992 2.37000060 3.21622372
0.62290448 1.45581651 -3.37838101
0.17891845 3.44950056 -0.51763493
0.51583433 -1.10213709 -3.82833934
-0.87768698 2.30458045 0.82057887
0.11215646 0.53342521 4.45102978
-0.46232939 -0.25718409 -4.16096497
0.80051160 2.20653415 -1.80292976
0.67265409 0.52820420 3.68083143
-0.61953533 2.97772002 -0.53742272
-0.41825810 -3.20694518 0.95524329
1.05553913 -1.62184358 -0.46191940
-1.14118111 0.72162586 1.02061713
-1.14723361 -0.20684077 -1.27656853
0.01267019 -3.35829234 -1.32141364
-0.95987552 1.86062109 -1.25980067
1.11606073 -0.66747081 -1.40548074
0.38946521 -3.20943999 1.10144854
-1.03883028 -1.73981977 0.25228658
0.38477817 3.29172897 0.61917132
0.88371694 -1.56698525 2.29488778
0.09477802 -2.82069874 -2.67207909
-0.72418642 1.29220736 3.19639516
-0.93686563 -2.17633128 -0.32861647
0.59394217 2.79616714 1.56809890
-0.72668087 -0.16281855 3.59167814
-1.00680792 -1.40898669 -1.65099990
0.54329789 -2.05845857 -3.03733468
0.76026684 2.40839076 1.61289561
0.76952970 -2.00619698 -2.31171203
0.78506279 -0.70001096 -3.29744077
1.17239535 0.34403428 -0.82593971
-0.22116989 -3.19447422 1.68575263
0.29191157 2.91677427 2.26938891
0.78791571 1.61610723 -2.69788265
-0.79821104 0.44105914 -3.32644343
-0.55986232 2.96097374 -1.21033132
-0.68466014 -2.78125167 -0.97436541
-0.86680019 -1.11461270 -2.77376485
0.32389000 3.12285423 1.67221320
0.81499642 -2.54486537 0.49646062
0.01868614 -2.69951177 2.89249396
0.74722856 -1.45868790 2.99758005
0.67939460 -0.47716627 -3.67476225
1.10441864 -1.23349166 -0.74165517
-0.85634065 -1.06849849 2.84911299
-0.13249345 -0.29507041 -4.48021507
-0.83128726 -2.52272105 -0.22496158
-1.15845549 -0.72995692 -0.66718930
0.76319402 -2.33010554 -1.77474427
-0.57902813 -2.32703543 2.58813334
-0.42545065 -2.06070280 3.29281616
-0.46245870 -1.97321737 -3.31167388
-0.01022797 1.00060332 4.33640432
-0.31032079 -0.29241702 -4.35292196
-0.46476674 -1.52032101 3.68065190
0.81587136 1.94613671 2.16551018
0.54814738 3.12304020 0.07194074
1.00948143 0.03954004 2.43693113
-1.15606999 -0.86352575 0.41050950
-0.31334484 2.57624197 -2.83873010
1.15207291 -0.27637202 1.18987906
0.05120508 -0.58660132 -4.45582914
-0.76259947 -1.48892164 2.91402817
-0.73087692 1.08291042 -3.30348063
-0.71896720 -2.12556410 -2.36528516
0.75908399 1.04598415 -3.23019648
0.40116969 -1.52801836 3.78082466
-0.64366686 2.57503152 1.88652909
-1.06839132 1.18591380 1.36279571
-0.91558087 -0.15953088 -2.90991688
1.00283432 1.79155910 0.89715177
-0.26453865 0.84602869 -4.27539062
1.01360428 -0.12941468 -2.40677571
0.77204454 -0.06554421 -3.45924926
-0.29905117 3.39150739 0.34463641
-0.27392668 3.40090394 -0.44776797
-0.65129173 -1.80497682 3.00340557
-0.03822990 2.12845826 3.59658957
-0.23890549 -2.86427236 -2.45912218
-0.26017886 3.32428265 -1.07856154
0.22943462 -1.21871924 4.15366554
1.18906033 0.42590588 0.03068334
1.12134778 0.06546351 -1.58970606
0.23957102 0.62706071 -4.35799885
0.65224314 2.04886150 -2.72592640
-0.00630204 3.31977820 1.47840762
-0.66533428 -0.84929115 -3.60077143
0.19722140 2.94828200 -2.34281182
-0.45974082 1.65019214 3.59716415
-0.56151116 1.18215394 3.69484639
1.13670897 1.02656722 -0.55714685
0.18527092 -3.46411800 -0.24864097
0.84727460 1.55957842 2.48914194
-0.53391778 -2.83873510 -1.74188137
-0.49741542 2.18013597 3.00944185
0.53637409 2.81946659 -1.78042424
1.06129456 -0.82006258 1.81451154
-1.03128850 -0.36579341 2.25669456
-0.41576841 -2.65519738 2.51023149
-0.08264550 2.53458238 3.11593771
0.10775851 1.93898845 3.75056577
0.40477026 3.30546999 0.00778697
1.02479267 -0.52293116 2.24538398
0.86394185 -2.06012583 1.67015362
-1.00474298 1.74016440 1.02617598
0.23545602 -2.82644987 2.53413534
1.07898080 0.66729403 -1.76809609
0.40770298 -2.61648989 2.59642863
-0.48763660 0.25832120 4.11855555
0.21977304 -2.59026217 -2.94029951
-0.34375149 -1.21085787 4.04314899
-1.05131805 1.68334413 0.06022965
0.22605316 -1.68801105 -3.87484837
0.17804524 2.00302100 -3.65435719
-0.66391873 -2.47846985 1.99721527
0.77899128 1.25329030 3.03474069
-0.20735948 -3.34854984 -1.11543155
0.99805909 1.63675284 -1.34701550
-0.66393745 -2.87311912 0.69527411
0.13938418 -0.37547958 4.46734667
-0.77566415 2.35686445 1.63617480
-0.85175776 0.73928261 3.03551245
-1.11364686 -0.39453205 1.59035373
0.94345021 1.85317552 1.44608462
0.48002860 2.77220893 2.10502815
-0.73878676 0.55406773 3.48939848
0.28706807 2.34162116 3.19297814
0.50437492 1.02122295 -3.88706207
-0.66971838 0.10363109 -3.74935722
-0.81667644 -2.48897886 -0.82510728
0.21209437 1.19236708 4.17981720
-0.61084127 3.01839709 0.16640770
-0.68772036 -1.57103944 -3.10287023
0.40564975 -1.63345981 -3.70062351
0.79490715 2.62702823 -0.13292316
-0.50702953 2.48851085 2.55372238
-1.10162008 -0.92650568 1.31859565
-0.04655610 3.23335481 -1.75622630
-0.19684263 0.45719960 -4.42350197
-0.96048951 -1.88438404 -1.19224358
0.77052617 -2.68886590 -0.09374437
-0.47092828 -0.21589328 4.15059328
0.04399948 -3.32765222 1.44313276
0.42563850 2.70401454 -2.39945412
-0.64103180 2.77566576 1.35002267
-0.54512572 -3.11453915 -0.36979198
1.06123030 1.62807548 0.12952803
-0.83913195 2.19533491 -1.55811775
1.18810737 -0.44837710 -0.10408891
-0.26943612 -2.57914329 2.89682698
-0.98883039 0.09685544 2.55097556
-0.58841437 1.69123983 -3.28420329
0.41709584 -0.22640459 4.23084927
-0.05854959 -3.42813015 0.95931917
-0.18865930 -0.74852103 -4.36190796
0.94770390 -1.90319586 -1.28573918
-0.18318838 -2.52154922 -3.07248449
0.01715742 -2.36245847 3.34702349
-0.13648042 -3.48963165 -0.03969643
-0.14147887 2.50857973 -3.12149405
1.13055670 1.00634110 0.75686872
-0.80470574 -2.11254382 1.95588577
0.13259800 3.23972726 -1.67474413
-0.18973060 -1.69933689 3.89377403
-0.81111187 -0.08331160 -3.32873464
0.40144891 2.42550039 -2.89879155
-0.97080427 1.28238952 -2.07650042
0.41158381 1.43142724 3.82749844
0.82640070 -1.40665770 -2.72785640
-0.08470224 -0.73754948 4.41110468
0.25093356 2.46063662 -3.08573914
-0.84578460 1.08877051 -2.88094807
-0.43425325 0.93721002 4.03947258
0.73171592 -2.51299357 1.53262913
0.05253497 0.81847900 -4.39510918
1.13027132 -1.14191639 0.29836378
-0.72890651 2.72162247 0.78173441
0.34604144 -3.34610605 -0.42582369
-0.12126218 -3.22094584 -1.74575114
0.00925962 1.60676789 4.02214479
0.40845498 1.95690811 3.42522693
0.04009810 1.74318457 -3.92400503
-0.30190313 -0.57795918 4.31463718
0.86432761 0.71951765 2.99389338
0.00945316 3.48460102 -0.56951690
-0.61217397 0.80771285 -3.74812031
0.31424421 1.08366871 -4.13604307
0.22203436 3.39807773 0.78756577
-0.89783967 -2.24110007 0.80340022
-0.87188447 1.74204731 2.14188766
-0.80836928 -0.51960236 3.27134538
0.65020871 -0.08748647 3.79789042
0.87398142 -0.20293128 3.08256960
-0.07279319 -2.92913318 2.48180246
-0.22984818 2.71144176 2.74061251
0.17372559 -3.35092044 -1.18618441
-0.87383229 1.20191813 2.67984915
-0.63174170 1.83692360 3.02947998
0.65888768 0.26430598 -3.76318550
0.11452277 -2.05927587 3.63900256
0.86152154 0.25145459 3.12809443
0.06051966 2.52731323 -3.13341904
-0.70843452 -2.10186338 2.44656849
-1.08103037 -1.29982746 -1.00362480
-0.35793051 3.08156896 1.69796968
0.92184836 -2.18178415 0.66945630
0.73158956 2.70100117 -0.85511887
-0.08850443 -1.22780919 -4.22520828
-0.11829427 3.49475384 0.01467834
0.61126721 -0.91540009 3.70777702
0.35644192 0.29527065 -4.30212355
0.92561764 2.16393089 -0.68981254
-0.69265646 2.20065331 2.36403084
-1.19171309 -0.06062386 0.45927081
0.54972941 -3.09696531 0.50051296
0.12352540 2.41951990 3.24541044
-0.29973224 0.46785340 4.33842754
0.57922494 -3.06149507 -0.36479673
0.47669452 -2.26452446 2.95237708
-0.20922686 1.32311964 -4.11508322
3 249 48 83
3 64 0 62
3 220 34 37
3 64 62 204
3 204 191 64
3 51 191 204
3 213 27 253
3 21 48 249
3 104 24 232
3 40 205 155
3 7 151 128
3 128 151 1
3 115 111 220
3 220 111 244
3 244 34 220
3 113 26 215
3 117 184 66
3 66 51 118
3 184 51 66
3 117 196 30
3 30 184 117
3 30 196 1
3 64 191 84
3 84 0 64
3 84 27 0
3 46 191 79
3 79 191 51
3 79 51 184
3 168 87 100
3 100 23 168
3 168 23 73
3 168 73 122
3 122 87 168
3 25 152 194
3 32 87 192
3 100 87 32
3 32 129 100
3 145 62 0
3 0 27 145
3 220 37 198
3 99 70 207
3 78 246 234
3 246 163 234
3 118 51 108
3 51 204 108
3 126 196 117
3 117 66 126
3 126 66 29
3 148 145 192
3 107 174 41
3 122 164 41
3 81 174 210
3 210 174 107
3 210 97 81
3 38 204 62
3 38 148 97
3 38 246 78
3 38 97 246
3 73 33 105
3 207 70 105
3 112 86 90
3 146 177 90
3 231 213 127
3 27 213 231
3 134 45 67
3 67 229 134
3 185 86 134
3 134 229 185
3 249 83 94
3 112 90 98
3 150 45 134
3 175 23 100
3 11 183 50
3 47 24 104
3 47 21 249
3 104 21 47
3 186 232 24
3 186 133 9
3 24 133 186
3 31 40 155
3 215 26 88
3 136 113 215
3 251 113 136
3 7 128 91
3 212 167 11
3 225 232 233
3 104 232 225
3 225 140 104
3 44 183 11
3 11 167 44
3 44 167 111
3 121 34 110
3 34 244 110
3 111 167 110
3 110 244 111
3 218 177 146
3 121 110 240
3 233 124 130
3 56 16 192
3 192 145 56
3 56 231 16
3 56 145 27
3 27 231 56
3 129 32 22
3 22 214 152
3 152 25 22
3 22 25 129
3 107 41 221
3 221 41 164
3 164 70 221
3 70 99 221
3 20 69 120
3 120 42 20
3 120 69 36
3 20 42 153
3 153 126 29
3 101 69 20
3 36 69 101
3 101 163 36
3 101 234 163
3 62 145 169
3 145 148 169
3 169 38 62
3 148 38 169
3 192 87 243
3 243 148 192
3 97 148 243
3 89 174 81
3 89 41 174
3 222 163 246
3 255 210 107
3 107 221 255
3 65 38 78
3 204 38 65
3 65 108 204
3 122 73 200
3 73 105 200
3 200 164 122
3 200 70 164
3 200 105 70
3 80 98 226
3 226 98 90
3 9 133 226
3 226 133 80
3 178 141 229
3 229 67 178
3 49 127 194
3 49 231 127
3 194 152 49
3 152 214 49
3 49 214 16
3 16 231 49
3 254 77 102
3 102 77 245
3 86 185 199
3 146 90 199
3 199 90 86
3 85 150 134
3 85 86 112
3 134 86 85
3 23 175 61
3 73 23 61
3 61 33 73
3 48 33 61
3 11 50 147
3 147 50 21
3 147 140 11
3 147 21 104
3 104 140 147
3 202 183 207
3 202 50 183
3 202 33 48
3 48 21 202
3 21 50 202
3 207 105 202
3 202 105 33
3 158 133 24
3 158 47 249
3 24 47 158
3 249 94 158
3 26 124 208
3 208 88 26
3 232 186 157
3 9 161 157
3 157 186 9
3 57 157 161
3 233 232 57
3 232 157 57
3 3 31 188
3 188 31 155
3 166 88 40
3 3 203 166
3 215 88 166
3 166 31 3
3 40 31 166
3 166 136 215
3 203 136 166
3 216 136 203
3 216 203 7
3 106 170 63
3 92 170 242
3 180 212 156
3 140 225 156
3 2 110 167
3 2 212 180
3 167 212 2
3 180 240 2
3 2 240 110
3 230 240 171
3 121 240 230
3 93 30 1
3 129 25 72
3 58 82 224
3 114 32 192
3 114 22 32
3 192 16 114
3 16 214 114
3 214 22 114
3 237 206 149
3 123 206 237
3 123 237 19
3 19 18 115
3 95 18 19
3 8 120 36
3 149 206 8
3 8 222 149
3 36 163 8
3 163 222 8
3 42 120 131
3 242 170 247
3 247 42 242
3 247 153 42
3 142 101 20
3 108 101 142
3 20 153 142
3 142 153 29
3 118 108 142
3 142 66 118
3 29 66 142
3 234 101 109
3 109 101 108
3 108 65 109
3 78 234 109
3 109 65 78
3 81 97 190
3 97 243 190
3 190 89 81
3 41 89 190
3 122 41 190
3 190 87 122
3 190 243 87
3 119 222 246
3 210 222 119
3 246 97 119
3 97 210 119
3 149 222 217
3 217 222 210
3 210 255 217
3 217 237 149
3 10 18 95
3 183 18 10
3 60 177 144
3 144 161 60
3 60 90 177
3 60 226 90
3 60 161 9
3 9 226 60
3 189 178 67
3 189 45 194
3 189 67 45
3 194 127 189
3 127 178 189
3 176 84 191
3 176 191 46
3 253 27 176
3 27 84 176
3 46 241 176
3 241 75 176
3 209 139 254
3 209 241 139
3 209 75 241
3 141 14 143
3 143 209 254
3 14 209 143
3 253 176 250
3 250 176 75
3 250 213 253
3 75 209 250
3 250 209 14
3 141 178 52
3 52 14 141
3 52 250 14
3 52 178 127
3 127 213 52
3 213 250 52
3 254 139 55
3 55 77 254
3 139 132 55
3 138 77 55
3 55 132 138
3 146 199 12
3 12 218 146
3 205 218 12
3 193 199 185
3 80 133 172
3 172 17 80
3 133 158 172
3 94 17 172
3 172 158 94
3 197 98 80
3 80 17 197
3 224 150 197
3 197 17 224
3 239 61 175
3 175 58 239
3 239 83 48
3 48 61 239
3 239 94 83
3 125 161 144
3 144 208 125
3 125 57 161
3 125 208 124
3 125 124 233
3 233 57 125
3 252 208 144
3 88 208 252
3 144 177 252
3 177 218 252
3 40 88 252
3 205 40 252
3 252 218 205
3 251 136 162
3 136 216 162
3 106 63 159
3 159 63 91
3 1 196 159
3 196 106 159
3 159 128 1
3 159 91 128
3 170 92 13
3 59 63 13
3 13 63 170
3 13 74 59
3 180 156 103
3 103 240 180
3 171 240 103
3 140 156 39
3 39 156 212
3 11 140 39
3 39 212 11
3 135 113 251
3 121 230 135
3 171 130 35
3 35 230 171
3 35 124 26
3 35 130 124
3 35 135 230
3 26 113 35
3 113 135 35
3 139 241 211
3 211 132 139
3 211 241 46
3 46 79 211
3 211 79 184
3 184 30 96
3 96 211 184
3 132 211 96
3 138 132 96
3 30 93 96
3 96 93 138
3 181 72 25
3 82 72 181
3 100 129 6
3 129 72 6
3 6 175 100
3 53 17 94
3 94 239 53
3 53 239 58
3 224 17 53
3 53 58 224
3 183 44 71
3 71 18 183
3 115 18 71
3 111 115 71
3 71 44 111
3 173 198 123
3 123 19 173
3 173 19 115
3 173 115 220
3 220 198 173
3 242 42 5
3 42 131 5
3 5 92 242
3 123 198 28
3 28 5 131
3 28 198 37
3 37 5 28
3 179 131 120
3 179 28 131
3 179 206 123
3 123 28 179
3 182 170 106
3 182 247 170
3 182 106 196
3 196 126 182
3 126 153 182
3 153 247 182
3 237 217 195
3 95 19 195
3 195 19 237
3 195 217 255
3 195 10 95
3 255 10 195
3 187 255 221
3 187 10 255
3 187 221 99
3 187 99 207
3 207 183 187
3 183 10 187
3 229 141 76
3 141 193 76
3 76 185 229
3 76 193 185
3 4 12 199
3 155 205 4
3 205 12 4
3 150 85 238
3 238 197 150
3 238 85 112
3 112 98 238
3 98 197 238
3 59 74 160
3 7 91 160
3 160 216 7
3 160 162 216
3 160 63 59
3 91 63 160
3 137 5 37
3 92 5 137
3 248 156 225
3 248 103 156
3 248 225 233
3 171 103 248
3 233 130 248
3 248 130 171
3 227 188 245
3 3 188 227
3 1 151 219
3 219 93 1
3 219 236 93
3 82 181 154
3 224 82 154
3 45 150 154
3 154 150 224
3 175 6 165
3 165 6 72
3 165 58 175
3 165 72 82
3 82 58 165
3 120 8 201
3 201 179 120
3 201 8 206
3 206 179 201
3 155 4 116
3 116 188 155
3 116 102 245
3 245 188 116
3 199 193 235
3 235 4 199
3 254 102 235
3 102 116 235
3 235 116 4
3 235 193 141
3 235 143 254
3 141 143 235
3 68 160 74
3 162 160 68
3 251 162 68
3 68 74 121
3 121 135 68
3 68 135 251
3 223 34 121
3 121 74 223
3 223 37 34
3 223 137 37
3 228 227 245
3 236 227 228
3 245 77 228
3 228 77 138
3 138 93 228
3 93 236 228
3 43 227 236
3 236 219 43
3 3 227 43
3 43 219 151
3 43 203 3
3 43 151 7
3 7 203 43
3 45 154 15
3 15 154 181
3 194 45 15
3 15 25 194
3 15 181 25
3 137 223 54
3 54 13 92
3 92 137 54
3 74 13 54
3 54 223 74