ply
format ascii 1.0
comment https://github.com/mikedh/trimesh
element vertex 256
property float x
property float y
property float z
element face 508
property list uchar int vertex_indices
end_header
2.14518023 -2.42863083 -1.38646829
3.26757121 1.16296005 1.38651526
-1.85837495 3.11643219 0.53943646
1.64998257 0.53264505 2.40883899
0.21077546 -1.34403849 2.46353912
1.98306370 2.99651098 -0.70803261
-2.35217834 -2.67708540 -0.91594321
1.98031616 1.77384877 1.93009484
1.62053573 1.98480296 -1.95577848
-3.09387183 -0.05895476 1.76854277
-1.53938663 2.30310869 -1.78188443
-3.13189411 2.34198666 0.02606513
-0.32942197 -1.24567282 2.48634052
1.80310929 3.16376996 0.46302053
1.76827765 -3.03248811 0.84590024
-1.60486495 -3.28718567 0.22991392
-0.08648333 -3.11588430 -1.31168580
-3.59735775 -1.56174815 0.62284011
-1.67597651 2.86683655 -1.17632544
-0.75800520 3.05629826 -1.30008316
3.03164840 1.68314540 -1.31123376
-3.99108481 0.95030510 0.00008267
-0.98986673 -3.14904571 -1.09852648
-3.00618482 -1.63877177 -1.36556578
-3.70527506 0.08115008 1.18583441
-1.37885857 -3.30753088 -0.50598985
-0.70783168 2.01574683 2.15225077
1.86797440 -2.98408079 -0.85222965
1.04722881 3.12234592 -1.11786187
3.86002278 0.89015502 -0.69725609
4.05812883 0.41821000 0.42023155
0.87473959 0.19104402 2.59747744
-1.57522762 -2.52078390 -1.59632397
-3.62894654 -0.34093851 -1.25441265
-0.08529816 3.54995632 0.35147664
-0.81785327 2.41686130 1.89224482
2.15200686 1.48460162 -1.98764896
0.61812651 3.51770592 -0.30454719
1.78210175 -1.12392914 -2.25237918
-3.03222823 2.35014772 0.48278236
0.38747752 0.54397237 2.61873507
-1.59725308 -0.26226926 -2.44807720
2.76560307 2.25016284 -1.06074226
2.32388186 0.53864813 2.16559386
-2.14036727 3.03659701 -0.31618923
-1.44499588 -3.27035451 0.56201130
3.64667082 -1.65391147 -0.27176735
-3.94254637 0.73589420 0.60047364
-3.96345639 -0.21093053 -0.75106096
0.04377291 -3.42469430 -0.77744526
-3.31617284 1.89741027 -0.74119574
3.85576081 -0.68066841 -0.82690567
1.34552228 -3.27289867 0.64803022
-3.58894515 -1.77422035 0.14843120
1.32932949 3.35681462 0.36428553
3.05306053 -1.59796846 1.35018265
0.32743856 -2.87647104 -1.57210076
-2.50191522 1.31775749 1.88057876
-3.23667836 -2.21936274 -0.19333941
2.05194807 2.85145450 0.92258102
-2.51053309 -0.16603789 2.11314106
-3.47831464 -1.43684590 -0.97135532
1.87698257 -2.09915948 -1.78699660
2.62656569 2.45601082 0.94893688
2.65856719 -2.04586458 -1.36008108
2.71223068 -0.71385193 -1.94002831
4.05038500 0.35083669 -0.48593637
-0.76409650 -3.25763702 0.99180180
1.00849450 2.97444630 1.33518052
2.72208691 1.64806163 -1.58728206
-2.75765514 0.44977999 -1.95709181
-1.93420923 3.01951957 -0.71209073
-2.36536026 -2.83624411 -0.57326168
-2.99461651 -1.13665140 -1.63192689
1.11897349 3.18460083 0.98383594
2.81564522 -2.59518361 0.29208946
0.06455677 -2.75288796 1.70178044
2.58152103 -1.48752975 1.76360714
2.34716868 -0.48660105 -2.16202283
3.81553960 -1.25788093 -0.43634811
-2.95848107 -1.08962548 1.67625761
-0.45773768 -0.30090469 -2.63590598
-2.87192678 -2.57260180 -0.13235471
-4.00222588 -0.74439001 -0.39253658
2.63667870 -2.37617755 -1.04415953
-2.00042343 -2.37304664 1.52271175
-1.46984458 -2.10144806 1.93730748
-1.59769976 -2.01223278 -1.94840229
-0.03533552 1.02038777 2.55129600
-1.07209456 -0.29819882 -2.56101394
-1.60567367 -1.55038154 2.16548824
2.81866789 1.98461676 1.27406418
1.89373648 3.18479061 0.04232588
3.48755097 0.04032185 1.43375301
-3.99398422 -0.88059980 0.24152066
-1.08254194 2.62718081 -1.67014873
3.98017526 -0.28183657 0.70005774
0.17690304 -0.59819990 -2.62155890
-2.63462448 -1.51836133 1.71444988
-2.52502942 1.10432231 -1.94358182
-2.48388386 -2.16759205 -1.39160037
2.62247920 1.06666589 -1.90046549
1.38595891 -1.55823112 2.22442412
-2.22373676 2.62594652 1.10992742
-3.69107246 1.20936239 0.80179220
-3.16314387 -0.16268520 -1.71203101
3.46458673 1.82698274 0.52783352
-0.91392672 0.86275679 -2.51539898
3.50179434 -0.13197352 -1.41601121
2.66725516 -0.06684019 -2.03522730
-1.03316033 3.45856595 0.20276463
-0.94636035 3.46814823 -0.26344144
-2.25007915 -1.84066570 1.76703453
-0.13207646 2.17054343 2.11603069
-0.82536936 -2.92090631 -1.44680893
-0.89886451 3.39001203 -0.63456482
0.79264951 -1.24281645 2.44378257
4.10795927 0.43432713 0.01805235
3.87402630 0.06675790 -0.93529344
0.82766867 0.63945925 -2.56400084
2.25336599 2.08937263 -1.60378146
-0.02177226 3.38541865 0.86981171
-2.29859328 -0.86608374 -2.11849093
0.68135941 3.00657701 -1.37837839
-1.58831000 1.68282068 2.11636853
-1.93990564 1.20552814 2.17383933
3.92709613 1.04686499 -0.32779381
0.64007294 -3.53261256 -0.14628634
2.92715979 1.59041524 1.46447074
-1.84457624 -2.89486408 -1.02482486
-1.71846807 2.22324276 1.77058589
1.85306227 2.87521458 -1.04750133
3.66655445 -0.83627731 1.06755626
-3.56289005 -0.37302607 1.32771182
-1.43639445 -2.70769739 1.47687876
-0.28552324 2.58469725 1.83324218
0.37228352 1.97732711 2.20662141
1.39839816 3.37082744 0.00458141
3.54044795 -0.53327084 1.32105744
2.98474169 -2.10085964 0.98262423
-3.47118044 1.77457178 0.60374415
0.81345218 -2.88233590 1.49094248
3.72765708 0.68048811 -1.04024804
1.40853012 -2.66822433 1.52759230
-1.68468416 0.26342887 2.42312574
0.75927067 -2.64147806 -1.72990644
-1.18759072 -1.23479962 2.37876081
-3.63208795 1.71662807 0.03543573
0.78096724 -1.72138727 -2.27974248
0.61510974 2.04262567 -2.15001774
-2.29370284 -2.52747560 1.17504895
2.69125485 1.27807093 1.78547037
-0.71638441 -3.41475916 -0.65625709
3.44808912 1.66911554 -0.79250795
-2.29376745 -2.92992806 0.40906009
0.48154369 -0.38290375 2.62833500
-2.67976046 2.40346575 0.96263307
-2.94264817 0.75390005 1.78592443
-3.84742093 -0.40233296 0.93567449
3.25942659 1.88981748 0.85079467
1.65840018 2.82702255 1.23847985
-2.55235648 0.56502306 2.05296540
0.99176121 2.38792086 1.87856841
1.74251175 1.04141510 -2.28692842
-2.31373930 0.10568013 -2.20591044
-2.82144928 -2.53819227 -0.48544663
0.73274249 1.21594322 2.45916891
-2.11033106 3.07807827 0.09790491
-2.37593246 -1.60210276 -1.82555389
1.40143657 -1.66575754 -2.17723823
2.74624085 2.67897105 -0.07820449
-1.75168288 2.53771496 1.50246632
-3.80587125 -0.94482505 0.77578735
-0.16084175 3.29728651 -1.03326464
-0.68005079 0.46623960 -2.60253930
-3.31829405 -1.92164302 -0.70144886
2.66200972 -2.74203157 -0.05515391
-1.62696040 -0.22016203 2.44197512
0.15200916 -3.39344835 0.84905797
1.47049356 2.75747967 -1.41170347
-2.21463323 2.83054781 0.79427725
-1.88329744 -3.17612123 -0.21756476
3.66633296 1.66026664 0.07620700
-2.89902854 2.23874235 -0.91670865
4.10466719 -0.45724267 -0.06124005
-0.93084645 -2.63013959 1.70432973
-3.41620588 0.09877051 1.50085020
-2.03285074 1.72467995 -1.93224013
1.44098043 -0.23088118 2.48919320
-0.20227681 -3.49591279 0.56440932
-0.65177912 -0.76332122 -2.56630063
3.27412224 -1.94082689 -0.75645649
-0.63287818 -2.57140660 -1.80767667
0.05927537 -2.40917039 1.96920002
-0.47151181 -3.55863047 -0.02335514
-0.48878044 2.55818057 -1.83651125
3.90584135 1.02623904 0.44529891
-2.78009295 -2.15431404 1.15073287
0.45809886 3.30378485 -0.98532504
-0.65548021 -1.73293710 2.29087710
-2.80222487 -0.08495888 -1.95843983
1.38692343 2.47345877 -1.70548558
-3.35392928 1.30774570 -1.22169578
1.42193747 1.45973015 2.25188422
2.85504460 -1.43447089 -1.60491693
-0.29262882 -0.75213265 2.59524536
0.86692387 2.50928974 -1.81547499
-2.92201209 1.11029816 -1.69498754
-1.50025570 0.95574099 2.37659812
2.52792811 -2.56268167 0.90171260
0.18149754 0.83466238 -2.58583450
3.90485501 -1.16449487 0.17554043
-2.51822233 2.77543592 0.45992845
1.19550204 -3.41226697 -0.25053066
-0.41893592 -3.28463197 -1.02710164
0.03199007 1.63853776 2.36640334
1.41112804 1.99560106 2.01521039
0.13853070 1.77765167 -2.30866337
-1.04301322 -0.58938688 2.53848934
2.98607421 0.73374432 1.76143813
0.03265874 3.55350041 -0.33507162
-2.11493540 0.82368338 -2.20518279
1.08564913 1.10509551 -2.43341470
0.76708311 3.46526623 0.46335933
-3.10185170 -2.28541231 0.47267541
-3.01218152 1.77649188 1.26016593
-2.79274988 -0.52987623 1.92467523
2.24633741 -0.08921630 2.23446465
3.01942635 -0.20694375 1.81361020
-0.25148553 -2.98704958 1.46015275
-0.79407823 2.76505375 1.61242187
0.60018623 -3.41717649 -0.69788408
-3.01891112 1.22568309 1.57667220
-2.18253779 1.87324429 1.78237534
2.27632165 0.26953200 -2.21404624
0.39565265 -2.09999299 2.14098406
2.97637987 0.25642648 1.84039450
0.20908299 2.57728457 -1.84352720
-2.44749570 -2.14342260 1.43942308
-3.73473787 -1.32552838 -0.59047627
-1.23657644 3.14249921 0.99898964
3.18479681 -2.22492337 0.39387038
2.52749157 2.75440669 -0.50310373
-0.30576462 -1.25208604 -2.48587441
-0.40868238 3.56385398 0.00863591
2.11180258 -0.93349987 2.18144703
1.23143363 0.30110890 -2.53112698
3.19781876 2.20671725 -0.40584680
-2.39298582 2.24416566 1.39086246
-4.11712408 -0.06182255 0.27020907
1.89920223 -3.15820003 0.29447362
0.42675489 2.46736002 1.90941656
-1.03551340 0.47710404 2.55248618
2.00110316 -3.12202859 -0.21462584
1.64688170 -2.30929971 1.73701239
-0.72283584 1.34928107 -2.42108321
3 249 48 83
3 64 0 62
3 220 34 37
3 64 62 204
3 204 191 64
3 51 191 204
3 213 27 253
3 21 48 249
3 104 24 232
3 40 205 155
3 7 151 128
3 128 151 1
3 115 111 220
3 220 111 244
3 244 34 220
3 113 26 215
3 117 184 66
3 66 51 118
3 184 51 66
3 117 196 30
3 30 184 117
3 30 196 1
3 64 191 84
3 84 0 64
3 84 27 0
3 46 191 79
3 79 191 51
3 79 51 184
3 168 87 100
3 100 23 168
3 168 23 73
3 168 73 122
3 122 87 168
3 25 152 194
3 32 87 192
3 100 87 32
3 32 129 100
3 145 62 0
3 0 27 145
3 220 37 198
3 99 70 207
3 78 246 234
3 246 163 234
3 118 51 108
3 51 204 108
3 126 196 117
3 117 66 126
3 126 66 29
3 148 145 192
3 107 174 41
3 122 164 41
3 81 174 210
3 210 174 107
3 210 97 81
3 38 204 62
3 38 148 97
3 38 246 78
3 38 97 246
3 73 33 105
3 207 70 105
3 112 86 90
3 146 177 90
3 231 213 127
3 27 213 231
3 134 45 67
3 67 229 134
3 185 86 134
3 134 229 185
3 249 83 94
3 112 90 98
3 150 45 134
3 175 23 100
3 11 183 50
3 47 24 104
3 47 21 249
3 104 21 47
3 186 232 24
3 186 133 9
3 24 133 186
3 31 40 155
3 215 26 88
3 136 113 215
3 251 113 136
3 7 128 91
3 212 167 11
3 225 232 233
3 104 232 225
3 225 140 104
3 44 183 11
3 11 167 44
3 44 167 111
3 121 34 110
3 34 244 110
3 111 167 110
3 110 244 111
3 218 177 146
3 121 110 240
3 233 124 130
3 56 16 192
3 192 145 56
3 56 231 16
3 56 145 27
3 27 231 56
3 129 32 22
3 22 214 152
3 152 25 22
3 22 25 129
3 107 41 221
3 221 41 164
3 164 70 221
3 70 99 221
3 20 69 120
3 120 42 20
3 120 69 36
3 20 42 153
3 153 126 29
3 101 69 20
3 36 69 101
3 101 163 36
3 101 234 163
3 62 145 169
3 145 148 169
3 169 38 62
3 148 38 169
3 192 87 243
3 243 148 192
3 97 148 243
3 89 174 81
3 89 41 174
3 222 163 246
3 255 210 107
3 107 221 255
3 65 38 78
3 204 38 65
3 65 108 204
3 122 73 200
3 73 105 200
3 200 164 122
3 200 70 164
3 200 105 70
3 80 98 226
3 226 98 90
3 9 133 226
3 226 133 80
3 178 141 229
3 229 67 178
3 49 127 194
3 49 231 127
3 194 152 49
3 152 214 49
3 49 214 16
3 16 231 49
3 254 77 102
3 102 77 245
3 86 185 199
3 146 90 199
3 199 90 86
3 85 150 134
3 85 86 112
3 134 86 85
3 23 175 61
3 73 23 61
3 61 33 73
3 48 33 61
3 11 50 147
3 147 50 21
3 147 140 11
3 147 21 104
3 104 140 147
3 202 183 207
3 202 50 183
3 202 33 48
3 48 21 202
3 21 50 202
3 207 105 202
3 202 105 33
3 158 133 24
3 158 47 249
3 24 47 158
3 249 94 158
3 26 124 208
3 208 88 26
3 232 186 157
3 9 161 157
3 157 186 9
3 57 157 161
3 233 232 57
3 232 157 57
3 3 31 188
3 188 31 155
3 166 88 40
3 3 203 166
3 215 88 166
3 166 31 3
3 40 31 166
3 166 136 215
3 203 136 166
3 216 136 203
3 216 203 7
3 106 170 63
3 92 170 242
3 180 212 156
3 140 225 156
3 2 110 167
3 2 212 180
3 167 212 2
3 180 240 2
3 2 240 110
3 230 240 171
3 121 240 230
3 93 30 1
3 129 25 72
3 58 82 224
3 114 32 192
3 114 22 32
3 192 16 114
3 16 214 114
3 214 22 114
3 237 206 149
3 123 206 237
3 123 237 19
3 19 18 115
3 95 18 19
3 8 120 36
3 149 206 8
3 8 222 149
3 36 163 8
3 163 222 8
3 42 120 131
3 242 170 247
3 247 42 242
3 247 153 42
3 142 101 20
3 108 101 142
3 20 153 142
3 142 153 29
3 118 108 142
3 142 66 118
3 29 66 142
3 234 101 109
3 109 101 108
3 108 65 109
3 78 234 109
3 109 65 78
3 81 97 190
3 97 243 190
3 190 89 81
3 41 89 190
3 122 41 190
3 190 87 122
3 190 243 87
3 119 222 246
3 210 222 119
3 246 97 119
3 97 210 119
3 149 222 217
3 217 222 210
3 210 255 217
3 217 237 149
3 10 18 95
3 183 18 10
3 60 177 144
3 144 161 60
3 60 90 177
3 60 226 90
3 60 161 9
3 9 226 60
3 189 178 67
3 189 45 194
3 189 67 45
3 194 127 189
3 127 178 189
3 176 84 191
3 176 191 46
3 253 27 176
3 27 84 176
3 46 241 176
3 241 75 176
3 209 139 254
3 209 241 139
3 209 75 241
3 141 14 143
3 143 209 254
3 14 209 143
3 253 176 250
3 250 176 75
3 250 213 253
3 75 209 250
3 250 209 14
3 141 178 52
3 52 14 141
3 52 250 14
3 52 178 127
3 127 213 52
3 213 250 52
3 254 139 55
3 55 77 254
3 139 132 55
3 138 77 55
3 55 132 138
3 146 199 12
3 12 218 146
3 205 218 12
3 193 199 185
3 80 133 172
3 172 17 80
3 133 158 172
3 94 17 172
3 172 158 94
3 197 98 80
3 80 17 197
3 224 150 197
3 197 17 224
3 239 61 175
3 175 58 239
3 239 83 48
3 48 61 239
3 239 94 83
3 125 161 144
3 144 208 125
3 125 57 161
3 125 208 124
3 125 124 233
3 233 57 125
3 252 208 144
3 88 208 252
3 144 177 252
3 177 218 252
3 40 88 252
3 205 40 252
3 252 218 205
3 251 136 162
3 136 216 162
3 106 63 159
3 159 63 91
3 1 196 159
3 196 106 159
3 159 128 1
3 159 91 128
3 170 92 13
3 59 63 13
3 13 63 170
3 13 74 59
3 180 156 103
3 103 240 180
3 171 240 103
3 140 156 39
3 39 156 212
3 11 140 39
3 39 212 11
3 135 113 251
3 121 230 135
3 171 130 35
3 35 230 171
3 35 124 26
3 35 130 124
3 35 135 230
3 26 113 35
3 113 135 35
3 139 241 211
3 211 132 139
3 211 241 46
3 46 79 211
3 211 79 184
3 184 30 96
3 96 211 184
3 132 211 96
3 138 132 96
3 30 93 96
3 96 93 138
3 181 72 25
3 82 72 181
3 100 129 6
3 129 72 6
3 6 175 100
3 53 17 94
3 94 239 53
3 53 239 58
3 224 17 53
3 53 58 224
3 183 44 71
3 71 18 183
3 115 18 71
3 111 115 71
3 71 44 111
3 173 198 123
3 123 19 173
3 173 19 115
3 173 115 220
3 220 198 173
3 242 42 5
3 42 131 5
3 5 92 242
3 123 198 28
3 28 5 131
3 28 198 37
3 37 5 28
3 179 131 120
3 179 28 131
3 179 206 123
3 123 28 179
3 182 170 106
3 182 247 170
3 182 106 196
3 196 126 182
3 126 153 182
3 153 247 182
3 237 217 195
3 95 19 195
3 195 19 237
3 195 217 255
3 195 10 95
3 255 10 195
3 187 255 221
3 187 10 255
3 187 221 99
3 187 99 207
3 207 183 187
3 183 10 187
3 229 141 76
3 141 193 76
3 76 185 229
3 76 193 185
3 4 12 199
3 155 205 4
3 205 12 4
3 150 85 238
3 238 197 150
3 238 85 112
3 112 98 238
3 98 197 238
3 59 74 160
3 7 91 160
3 160 216 7
3 160 162 216
3 160 63 59
3 91 63 160
3 137 5 37
3 92 5 137
3 248 156 225
3 248 103 156
3 248 225 233
3 171 103 248
3 233 130 248
3 248 130 171
3 227 188 245
3 3 188 227
3 1 151 219
3 219 93 1
3 219 236 93
3 82 181 154
3 224 82 154
3 45 150 154
3 154 150 224
3 175 6 165
3 165 6 72
3 165 58 175
3 165 72 82
3 82 58 165
3 120 8 201
3 201 179 120
3 201 8 206
3 206 179 201
3 155 4 116
3 116 188 155
3 116 102 245
3 245 188 116
3 199 193 235
3 235 4 199
3 254 102 235
3 102 116 235
3 235 116 4
3 235 193 141
3 235 143 254
3 141 143 235
3 68 160 74
3 162 160 68
3 251 162 68
3 68 74 121
3 121 135 68
3 68 135 251
3 223 34 121
3 121 74 223
3 223 37 34
3 223 137 37
3 228 227 245
3 236 227 228
3 245 77 228
3 228 77 138
3 138 93 228
3 93 236 228
3 43 227 236
3 236 219 43
3 3 227 43
3 43 219 151
3 43 203 3
3 43 151 7
3 7 203 43
3 45 154 15
3 15 154 181
3 194 45 15
3 15 25 194
3 15 181 25
3 137 223 54
3 54 13 92
3 92 137 54
3 74 13 54
3 54 223 74