ply
format ascii 1.0
comment https://github.com/mikedh/trimesh
element vertex 256
property float x
property float y
property float z
element face 508
property list uchar int vertex_indices
end_header
0.64157265 -2.49928641 -1.25396562
0.97725320 1.19679368 1.25400817
-0.55579603 3.20709777 0.48788333
0.49347073 0.54814112 2.17862988
0.06303795 -1.38314021 2.22810245
0.59308743 3.08368778 -0.64036703
-0.70348090 -2.75496912 -0.82840794
0.59226573 1.82545495 1.74563861
0.48466390 2.04254627 -1.76886773
-0.92530388 -0.06066991 1.59952593
-0.46039411 2.37011242 -1.61159241
-0.93667543 2.41012144 0.02357413
-0.09852232 -1.28191292 2.24872494
0.53926730 3.25581264 0.41877037
0.52885002 -3.12071133 0.76505882
-0.47997716 -3.38281894 0.20794140
-0.02586512 -3.20653391 -1.18632996
-1.07588458 -1.60718369 0.56331623
-0.50124490 2.95024085 -1.06390584
-0.22670142 3.14521432 -1.17583621
0.90669435 1.73211277 -1.18592119
-1.19363904 0.97795212 0.00007477
-0.29604572 -3.24066019 -0.99354196
-0.89907873 -1.68644822 -1.23506081
-1.10816014 0.08351097 1.07250607
-0.41238397 -3.40375590 -0.45763317
-0.21169570 2.07439041 1.94656336
0.55866694 -3.07089591 -0.77078336
0.31320137 3.21318364 -1.01102948
1.15444148 0.91605204 -0.63062042
1.21369040 0.43037689 0.38007069
0.26161391 0.19660202 2.34924054
-0.47111332 -2.59412050 -1.44376576
-1.08533204 -0.35085735 -1.13453043
-0.02551066 3.65323424 0.31788656
-0.24460056 2.48717451 1.71140587
0.64361435 1.52779269 -1.79769230
0.18486701 3.62004566 -0.27544209
0.53298450 -1.15662730 -2.03712273
-0.90686774 2.41851997 0.43664360
0.11588535 0.55979800 2.36846662
-0.47770059 -0.26989940 -2.21411824
0.82712650 2.31562614 -0.95936871
0.69501805 0.55431890 1.95863140
-0.64013326 3.12493992 -0.28597152
-0.43216407 -3.36549807 0.50830078
1.09063303 -1.70202827 -0.24579495
-1.17912233 0.75730342 0.54308730
-1.18537605 -0.21706708 -0.67928320
0.01309144 -3.52432799 -0.70314604
-0.99178886 1.95261109 -0.67036080
1.15316677 -0.70047092 -0.74787956
0.40241390 -3.36811614 0.58609897
-1.07336855 -1.82583725 0.13424586
0.39757100 3.45447350 0.32947132
0.91309816 -1.64445782 1.22114778
0.09792913 -2.96015549 -1.42185748
-0.74826366 1.35609472 1.70085478
-0.96801394 -2.28393006 -0.17486225
0.61368912 2.93441105 0.83441138
-0.75084108 -0.17086838 1.91119134
-1.04028165 -1.47864771 -0.87852436
0.56136107 -2.16022992 -1.61621606
0.78554368 2.52746272 0.85824847
0.79511452 -2.10538435 -1.23010015
0.81116402 -0.73461986 -1.75462282
1.21137428 0.36104351 -0.43949619
-0.22852318 -3.35241079 0.89701682
0.30161685 3.06098104 1.20757937
0.81411177 1.69600832 -1.43558800
-0.82474941 0.46286532 -1.77005553
-0.57847619 3.10736561 -0.64403731
-0.70742327 -2.91875815 -0.51847595
-0.89561892 -1.16971970 -1.47596610
0.33465847 3.27724981 0.88981229
0.84209287 -2.67068458 0.26417491
0.01930740 -2.83297706 1.53914392
0.77207190 -1.53080618 1.59506202
0.70198262 -0.50075758 -1.95540166
1.14113760 -1.29447603 -0.39464697
-0.88481164 -1.12132561 1.51606023
-0.13689850 -0.30965883 -2.38399649
-0.85892534 -2.64744568 -0.11970577
-1.19697106 -0.76604635 -0.35502246
0.78856820 -2.44530702 -0.94437081
-0.59827930 -2.44208527 1.37718856
-0.43959576 -2.16258502 1.75216198
-0.47783422 -2.07077432 -1.76219654
-0.01056802 1.05007362 2.30747247
-0.32063812 -0.30687425 -2.31626177
-0.48021901 -1.59548640 1.95853579
0.84299690 2.04235458 1.15230381
0.56637180 3.27744484 0.03828086
1.04304397 0.04149492 1.29673135
-1.19450617 -0.90621889 0.21843889
-0.32376269 2.70361257 -1.51053524
1.19037628 -0.29003596 0.63315433
0.05290751 -0.61560321 -2.37102056
-0.78795385 -1.56253469 1.55060256
-0.75517660 1.13645005 -1.75783670
-0.74287093 -2.23065329 -1.25860727
0.78432149 1.09769821 -1.71884096
0.41450751 -1.60356426 2.01183939
-0.66506708 2.70234251 1.00385332
-1.10391247 1.24454606 0.72516614
-0.94602150 -0.16741817 -1.54841483
1.03617597 1.88013458 0.47738931
-0.27333385 0.88785672 -2.27500606
1.04730392 -0.13581300 -1.28068519
0.79771292 -0.06878475 -1.84072375
-0.30899382 3.55918527 0.18338673
-0.28303400 3.56904626 -0.23826474
-0.67294544 -1.89421582 1.59816170
-0.03950094 2.23369050 1.91380477
-0.24684845 -3.00588346 -1.30853963
-0.26882911 3.48863673 -0.57392043
0.23706271 -1.27897334 2.21023417
1.22859347 0.44696289 0.01632711
1.15862954 0.06870007 -0.84590888
0.24753612 0.65806288 -2.31896329
0.67392844 2.15015841 -1.45051050
-0.00651157 3.48390961 0.78668511
-0.68745488 -0.89128047 -1.91603005
0.20377848 3.09404659 -1.24664891
-0.47502595 1.73177850 1.91411054
-0.58017987 1.24060023 1.96608877
1.17450154 1.07732117 -0.29646707
0.19143069 -3.63538575 -0.13230598
0.87544423 1.63668478 1.32451355
-0.55166912 -2.97908354 -0.92688388
-0.51395315 2.28792286 1.60137379
0.55420709 2.95886254 -0.94739318
1.09657967 -0.86060691 0.96553159
-1.06557608 -0.38387841 1.20082450
-0.42959160 -2.78647184 1.33573568
-0.08539324 2.65989327 1.65804207
0.11134119 2.03485298 1.99573803
0.41822779 3.46889424 0.00414357
1.05886424 -0.54878515 1.19480598
0.89266562 -2.16197944 0.88871634
-1.03814793 1.82619894 0.54604524
0.24328430 -2.96619105 1.34845543
1.11485398 0.70028538 -0.94083315
0.42125803 -2.74585032 1.38160264
-0.50384921 0.27109274 2.19155145
0.22707990 -2.71832609 -1.56458199
-0.35518029 -1.27072322 2.15142632
-1.08627164 1.76656950 0.03204919
0.23356883 -1.77146721 -2.06187105
0.18396476 2.10205126 -1.94454396
-0.68599224 -2.60100675 1.06275129
0.80489063 1.31525350 1.61483574
-0.21425363 -3.51410365 -0.59353960
1.03124189 1.71767473 -0.71676922
-0.68601161 -3.01516771 0.36996686
0.14401832 -0.39404348 2.37714911
-0.80145293 2.47338915 0.87063569
-0.88007641 0.77583307 1.61524642
-1.15067255 -0.41403791 0.84625351
0.97481740 1.94479740 0.76948553
0.49598825 2.90926838 1.12012029
-0.76334941 0.58146113 1.85676670
0.29661232 2.45739198 1.69903648
0.52114403 1.07171273 -2.06837010
-0.69198471 0.10875466 -1.99509490
-0.84382874 -2.61203504 -0.43905324
0.21914594 1.25131834 2.22414994
-0.63115007 3.16762805 0.08854829
-0.71058524 -1.64871240 -1.65108848
0.41913652 -1.71421897 -1.96916294
0.82133567 2.75690961 -0.07073060
-0.52388692 2.61154413 1.35887802
-1.13824606 -0.97231257 0.70164651
-0.04810396 3.39321351 -0.93451709
-0.20338711 0.47980377 -2.35381866
-0.99242324 -1.97754896 -0.63441247
0.79614413 -2.82180476 -0.04988293
-0.48658538 -0.22656715 2.20859933
0.04546234 -3.49217319 0.76791477
0.43978983 2.83770227 -1.27678919
-0.66234440 2.91289616 0.71836936
-0.56324971 -3.26852345 -0.19677243
1.09651339 1.70856833 0.06892401
-0.86703080 2.30387354 -0.82910025
1.22760880 -0.47054511 -0.05538743
-0.27839413 -2.70665765 1.54144955
-1.02170634 0.10164402 1.35741627
-0.60797757 1.77485561 -1.74757898
0.43096316 -0.23759815 2.25130486
-0.06049621 -3.59761858 0.51046956
-0.19493172 -0.78552830 -2.32104325
0.97921252 -1.99729085 -0.68416309
-0.18927890 -2.64621568 -1.63491988
0.01772786 -2.47925973 1.78100657
-0.14101803 -3.66216087 -0.02112313
-0.14618267 2.63260508 -1.66099870
1.16814470 1.05609512 0.40274236
-0.83146000 -2.21698904 1.04075921
0.13700654 3.39990091 -0.89115906
-0.19603863 -1.78335297 2.07194161
-0.83807915 -0.08743057 -1.77127469
0.41479599 2.54541850 -1.54249489
-1.00308084 1.34579158 -1.10494018
0.42526788 1.50219774 2.03667521
0.85387629 -1.47620356 -1.45153749
-0.08751836 -0.77401429 2.34722185
0.25927642 2.58229184 -1.64197290
-0.87390471 1.14259982 -1.53300011
-0.44869098 0.98354614 2.14947009
0.75604355 -2.63723707 0.81553733
0.05428162 0.85894501 -2.33871031
1.16784978 -1.19837332 0.15876430
-0.75314069 2.85618091 0.41597381
0.35754639 -3.51153922 -0.22658783
-0.12529382 -3.38019109 -0.92894310
0.00956747 1.68620729 2.14024973
0.42203504 2.05365849 1.82261992
0.04143126 1.82936847 -2.08802795
-0.31194058 -0.60653377 2.29588985
0.89306414 0.75509101 1.59310019
0.00976746 3.65688133 -0.30304936
-0.63252711 0.84764659 -1.99443686
0.32469198 1.13724577 -2.20085692
0.22941640 3.56608033 0.41907677
-0.92769045 -2.35190129 0.42750254
-0.90087229 1.82817495 1.13973379
-0.83524537 -0.54529178 1.74073696
0.67182642 -0.09181184 2.02092028
0.90303898 -0.21296431 1.64028621
-0.07521337 -3.07395101 1.32060814
-0.23749001 2.84549689 1.45832515
0.17950150 -3.51659155 -0.63118833
-0.90288484 1.26134157 1.42599213
-0.65274543 1.92774212 1.61203647
0.68079394 0.27737340 -2.00245333
0.11833034 -2.16108751 1.93637347
0.89016485 0.26388663 1.66451085
0.06253178 2.65226483 -1.66734421
-0.73198807 -2.20578074 1.30185962
-1.11697173 -1.36409163 -0.53404540
-0.36983076 3.23392320 0.90351772
0.95249736 -2.28965259 0.35622877
0.75591296 2.83453989 -0.45502290
-0.09144696 -1.28851259 -2.24830341
-0.12222724 3.66753626 0.00781059
0.63159019 -0.96065795 1.97296941
0.36829266 0.30986899 -2.28923106
0.95639193 2.27091670 -0.36706066
-0.71568543 2.30945468 1.25793993
-1.23133433 -0.06362113 0.24438560
0.56800646 -3.25008082 0.26633123
0.12763229 2.53914237 1.72693658
-0.30969754 0.49098432 2.30854893
0.59848261 -3.21285701 -0.19411437
0.49254334 -2.37648368 1.57100868
-0.21618310 1.38853526 -2.18970394
3 249 48 83
3 64 0 62
3 220 34 37
3 64 62 204
3 204 191 64
3 51 191 204
3 213 27 253
3 21 48 249
3 104 24 232
3 40 205 155
3 7 151 128
3 128 151 1
3 115 111 220
3 220 111 244
3 244 34 220
3 113 26 215
3 117 184 66
3 66 51 118
3 184 51 66
3 117 196 30
3 30 184 117
3 30 196 1
3 64 191 84
3 84 0 64
3 84 27 0
3 46 191 79
3 79 191 51
3 79 51 184
3 168 87 100
3 100 23 168
3 168 23 73
3 168 73 122
3 122 87 168
3 25 152 194
3 32 87 192
3 100 87 32
3 32 129 100
3 145 62 0
3 0 27 145
3 220 37 198
3 99 70 207
3 78 246 234
3 246 163 234
3 118 51 108
3 51 204 108
3 126 196 117
3 117 66 126
3 126 66 29
3 148 145 192
3 107 174 41
3 122 164 41
3 81 174 210
3 210 174 107
3 210 97 81
3 38 204 62
3 38 148 97
3 38 246 78
3 38 97 246
3 73 33 105
3 207 70 105
3 112 86 90
3 146 177 90
3 231 213 127
3 27 213 231
3 134 45 67
3 67 229 134
3 185 86 134
3 134 229 185
3 249 83 94
3 112 90 98
3 150 45 134
3 175 23 100
3 11 183 50
3 47 24 104
3 47 21 249
3 104 21 47
3 186 232 24
3 186 133 9
3 24 133 186
3 31 40 155
3 215 26 88
3 136 113 215
3 251 113 136
3 7 128 91
3 212 167 11
3 225 232 233
3 104 232 225
3 225 140 104
3 44 183 11
3 11 167 44
3 44 167 111
3 121 34 110
3 34 244 110
3 111 167 110
3 110 244 111
3 218 177 146
3 121 110 240
3 233 124 130
3 56 16 192
3 192 145 56
3 56 231 16
3 56 145 27
3 27 231 56
3 129 32 22
3 22 214 152
3 152 25 22
3 22 25 129
3 107 41 221
3 221 41 164
3 164 70 221
3 70 99 221
3 20 69 120
3 120 42 20
3 120 69 36
3 20 42 153
3 153 126 29
3 101 69 20
3 36 69 101
3 101 163 36
3 101 234 163
3 62 145 169
3 145 148 169
3 169 38 62
3 148 38 169
3 192 87 243
3 243 148 192
3 97 148 243
3 89 174 81
3 89 41 174
3 222 163 246
3 255 210 107
3 107 221 255
3 65 38 78
3 204 38 65
3 65 108 204
3 122 73 200
3 73 105 200
3 200 164 122
3 200 70 164
3 200 105 70
3 80 98 226
3 226 98 90
3 9 133 226
3 226 133 80
3 178 141 229
3 229 67 178
3 49 127 194
3 49 231 127
3 194 152 49
3 152 214 49
3 49 214 16
3 16 231 49
3 254 77 102
3 102 77 245
3 86 185 199
3 146 90 199
3 199 90 86
3 85 150 134
3 85 86 112
3 134 86 85
3 23 175 61
3 73 23 61
3 61 33 73
3 48 33 61
3 11 50 147
3 147 50 21
3 147 140 11
3 147 21 104
3 104 140 147
3 202 183 207
3 202 50 183
3 202 33 48
3 48 21 202
3 21 50 202
3 207 105 202
3 202 105 33
3 158 133 24
3 158 47 249
3 24 47 158
3 249 94 158
3 26 124 208
3 208 88 26
3 232 186 157
3 9 161 157
3 157 186 9
3 57 157 161
3 233 232 57
3 232 157 57
3 3 31 188
3 188 31 155
3 166 88 40
3 3 203 166
3 215 88 166
3 166 31 3
3 40 31 166
3 166 136 215
3 203 136 166
3 216 136 203
3 216 203 7
3 106 170 63
3 92 170 242
3 180 212 156
3 140 225 156
3 2 110 167
3 2 212 180
3 167 212 2
3 180 240 2
3 2 240 110
3 230 240 171
3 121 240 230
3 93 30 1
3 129 25 72
3 58 82 224
3 114 32 192
3 114 22 32
3 192 16 114
3 16 214 114
3 214 22 114
3 237 206 149
3 123 206 237
3 123 237 19
3 19 18 115
3 95 18 19
3 8 120 36
3 149 206 8
3 8 222 149
3 36 163 8
3 163 222 8
3 42 120 131
3 242 170 247
3 247 42 242
3 247 153 42
3 142 101 20
3 108 101 142
3 20 153 142
3 142 153 29
3 118 108 142
3 142 66 118
3 29 66 142
3 234 101 109
3 109 101 108
3 108 65 109
3 78 234 109
3 109 65 78
3 81 97 190
3 97 243 190
3 190 89 81
3 41 89 190
3 122 41 190
3 190 87 122
3 190 243 87
3 119 222 246
3 210 222 119
3 246 97 119
3 97 210 119
3 149 222 217
3 217 222 210
3 210 255 217
3 217 237 149
3 10 18 95
3 183 18 10
3 60 177 144
3 144 161 60
3 60 90 177
3 60 226 90
3 60 161 9
3 9 226 60
3 189 178 67
3 189 45 194
3 189 67 45
3 194 127 189
3 127 178 189
3 176 84 191
3 176 191 46
3 253 27 176
3 27 84 176
3 46 241 176
3 241 75 176
3 209 139 254
3 209 241 139
3 209 75 241
3 141 14 143
3 143 209 254
3 14 209 143
3 253 176 250
3 250 176 75
3 250 213 253
3 75 209 250
3 250 209 14
3 141 178 52
3 52 14 141
3 52 250 14
3 52 178 127
3 127 213 52
3 213 250 52
3 254 139 55
3 55 77 254
3 139 132 55
3 138 77 55
3 55 132 138
3 146 199 12
3 12 218 146
3 205 218 12
3 193 199 185
3 80 133 172
3 172 17 80
3 133 158 172
3 94 17 172
3 172 158 94
3 197 98 80
3 80 17 197
3 224 150 197
3 197 17 224
3 239 61 175
3 175 58 239
3 239 83 48
3 48 61 239
3 239 94 83
3 125 161 144
3 144 208 125
3 125 57 161
3 125 208 124
3 125 124 233
3 233 57 125
3 252 208 144
3 88 208 252
3 144 177 252
3 177 218 252
3 40 88 252
3 205 40 252
3 252 218 205
3 251 136 162
3 136 216 162
3 106 63 159
3 159 63 91
3 1 196 159
3 196 106 159
3 159 128 1
3 159 91 128
3 170 92 13
3 59 63 13
3 13 63 170
3 13 74 59
3 180 156 103
3 103 240 180
3 171 240 103
3 140 156 39
3 39 156 212
3 11 140 39
3 39 212 11
3 135 113 251
3 121 230 135
3 171 130 35
3 35 230 171
3 35 124 26
3 35 130 124
3 35 135 230
3 26 113 35
3 113 135 35
3 139 241 211
3 211 132 139
3 211 241 46
3 46 79 211
3 211 79 184
3 184 30 96
3 96 211 184
3 132 211 96
3 138 132 96
3 30 93 96
3 96 93 138
3 181 72 25
3 82 72 181
3 100 129 6
3 129 72 6
3 6 175 100
3 53 17 94
3 94 239 53
3 53 239 58
3 224 17 53
3 53 58 224
3 183 44 71
3 71 18 183
3 115 18 71
3 111 115 71
3 71 44 111
3 173 198 123
3 123 19 173
3 173 19 115
3 173 115 220
3 220 198 173
3 242 42 5
3 42 131 5
3 5 92 242
3 123 198 28
3 28 5 131
3 28 198 37
3 37 5 28
3 179 131 120
3 179 28 131
3 179 206 123
3 123 28 179
3 182 170 106
3 182 247 170
3 182 106 196
3 196 126 182
3 126 153 182
3 153 247 182
3 237 217 195
3 95 19 195
3 195 19 237
3 195 217 255
3 195 10 95
3 255 10 195
3 187 255 221
3 187 10 255
3 187 221 99
3 187 99 207
3 207 183 187
3 183 10 187
3 229 141 76
3 141 193 76
3 76 185 229
3 76 193 185
3 4 12 199
3 155 205 4
3 205 12 4
3 150 85 238
3 238 197 150
3 238 85 112
3 112 98 238
3 98 197 238
3 59 74 160
3 7 91 160
3 160 216 7
3 160 162 216
3 160 63 59
3 91 63 160
3 137 5 37
3 92 5 137
3 248 156 225
3 248 103 156
3 248 225 233
3 171 103 248
3 233 130 248
3 248 130 171
3 227 188 245
3 3 188 227
3 1 151 219
3 219 93 1
3 219 236 93
3 82 181 154
3 224 82 154
3 45 150 154
3 154 150 224
3 175 6 165
3 165 6 72
3 165 58 175
3 165 72 82
3 82 58 165
3 120 8 201
3 201 179 120
3 201 8 206
3 206 179 201
3 155 4 116
3 116 188 155
3 116 102 245
3 245 188 116
3 199 193 235
3 235 4 199
3 254 102 235
3 102 116 235
3 235 116 4
3 235 193 141
3 235 143 254
3 141 143 235
3 68 160 74
3 162 160 68
3 251 162 68
3 68 74 121
3 121 135 68
3 68 135 251
3 223 34 121
3 121 74 223
3 223 37 34
3 223 137 37
3 228 227 245
3 236 227 228
3 245 77 228
3 228 77 138
3 138 93 228
3 93 236 228
3 43 227 236
3 236 219 43
3 3 227 43
3 43 219 151
3 43 203 3
3 43 151 7
3 7 203 43
3 45 154 15
3 15 154 181
3 194 45 15
3 15 25 194
3 15 181 25
3 137 223 54
3 54 13 92
3 92 137 54
3 74 13 54
3 54 223 74