ply
format ascii 1.0
comment https://github.com/mikedh/trimesh
element vertex 256
property float x
property float y
property float z
element face 508
property list uchar int vertex_indices
end_header
1.76276469 -3.31859756 -1.61280453
2.68506980 1.58912432 1.61285925
-1.52708745 4.25844240 0.62749761
1.35584450 0.72783172 2.80207372
0.17320108 -1.83655870 2.86570334
1.62954819 4.09457636 -0.82361650
-1.93286180 -3.65809798 -1.06546783
1.62729049 2.42387199 2.24517632
1.33164716 2.71213007 -2.27505279
-2.54233551 -0.08055861 2.05725145
-1.26496422 3.14707828 -2.07277107
-2.57357955 3.20020294 0.03032018
-0.27069679 -1.70214713 2.89222717
1.48167384 4.32312679 0.53860706
1.45305145 -4.14373684 0.98399055
-1.31876993 -4.49176836 0.26744658
-0.07106618 -4.25769377 -1.52581406
-2.95606637 -2.13404751 0.72451663
-1.37720466 3.91738296 -1.36835659
-0.62287766 4.17627239 -1.51231730
2.49120450 2.29993057 -1.52528822
-3.27960467 1.29854250 0.00009616
-0.81340581 -4.30300713 -1.27785718
-2.47028017 -2.23929644 -1.58848977
-3.04474545 0.11088737 1.37941790
-1.13305318 -4.51956892 -0.58859098
-0.58164841 2.75441313 2.50359821
1.53497565 -4.07759142 -0.99135327
0.86054212 4.26652336 -1.30034900
3.17190695 1.21635044 -0.81108081
3.33469725 0.57146221 0.48883295
0.71880209 0.26105171 3.02150679
-1.29441595 -3.44452000 -1.85691845
-2.98202395 -0.46587473 -1.45919132
-0.07009228 4.85083055 0.40885401
-0.67205673 3.30251527 2.20114732
1.76837444 2.02863073 -2.31212592
0.50793475 4.80676222 -0.35426348
1.46441126 -1.53579068 -2.62007236
-2.49168110 3.21135473 0.56159496
0.31840295 0.74330997 3.04623485
-1.31251502 -0.35837731 -2.84771752
2.27258635 3.07473040 -1.23390484
1.90960956 0.73603463 2.51911974
-1.75880980 4.14935207 -0.36780605
-1.18740034 -4.46876955 0.65375775
2.99658847 -2.25998402 -0.31613246
-3.23971915 1.00556111 0.69849890
-3.25690150 -0.28822559 -0.87366915
0.03596963 -4.67966652 -0.90436059
-2.72500753 2.59271240 -0.86219341
3.16840458 -0.93009794 -0.96189523
1.10565960 -4.47224569 0.75381893
-2.94915342 -2.42437983 0.17266209
1.09235346 4.58691263 0.42375389
2.50879955 -2.18354082 1.57059538
0.26906696 -3.93054795 -1.82874084
-2.05590558 1.80064702 2.18757677
-2.65968418 -3.03264380 -0.22490141
1.68615282 3.89636397 1.07318926
-2.06298709 -0.22688213 2.45810413
-2.85824466 -1.96337521 -1.12992573
1.54237795 -2.86839223 -2.07871771
2.15833473 3.35601091 1.10384762
2.18463135 -2.79556751 -1.58210969
2.22872853 -0.97544152 -2.25673127
3.32833362 0.47940010 -0.56526387
-0.62788308 -4.45139170 1.15371013
0.82871288 4.06442595 1.55314422
2.23682761 2.25199056 -1.84640050
-2.26605535 0.61460096 -2.27658033
-1.58940291 4.12601614 -0.82833713
-1.94369376 -3.87558007 -0.66684473
-2.46077418 -1.55317509 -1.89833343
0.91949701 4.35159159 1.14444387
2.31370759 -3.54618335 0.33977208
0.05304841 -3.76167822 1.97959030
2.12132025 -2.03263211 2.05151010
1.92874527 -0.66491503 -2.51496577
3.13535357 -1.71882880 -0.50758046
-2.43108034 -1.48891652 1.94990087
-0.37613800 -0.41117060 -3.06620860
-2.35995603 -3.51532626 -0.15396117
-3.28875947 -1.01717019 -0.45661685
2.16664481 -3.24692297 -1.21461499
-1.64381313 -3.24264479 1.77128935
-1.20781934 -2.87151957 2.25356627
-1.31288207 -2.74961162 -2.26647234
-0.02903635 1.39430678 2.96778631
-0.88097513 -0.40747318 -2.97909069
-1.31943440 -2.11851573 2.51899672
2.31619143 2.71187544 1.48205090
1.55614519 4.35185051 0.04923543
2.86583447 0.05509771 1.66780829
-3.28198743 -1.20329380 0.28094807
-0.88956010 3.58990574 -1.94279480
3.27064013 -0.38511503 0.81433982
0.14536701 -0.81740910 -3.04951930
-2.16495705 -2.07476187 1.99432802
-2.07489920 1.50899899 -2.26086497
-2.04108858 -2.96190166 -1.61877441
2.15497684 1.45754349 -2.21071005
1.13888764 -2.12924170 2.58755374
-1.82731712 3.58821917 1.29111922
-3.03307486 1.65253079 0.93268210
-2.59925866 -0.22230087 -1.99151433
2.84696412 2.49647689 0.61400056
-0.75100344 1.17891228 -2.92602921
2.87753892 -0.18033496 -1.64717031
2.19177079 -0.09133364 -2.36747122
-0.84898156 4.72595072 0.23586528
-0.77765524 4.73904419 -0.30644736
-1.84896362 -2.51517391 2.05549693
-0.10853153 2.96593451 2.46146536
-0.67823297 -3.99126649 -1.68299556
-0.73862630 4.63227510 -0.73815536
0.65134597 -1.69824398 2.84272194
3.37564445 0.59348541 0.02099933
3.18341398 0.09122119 -1.08797693
0.68012238 0.87378782 -2.98256540
1.85166442 2.85501909 -1.86559331
-0.01789098 4.62599850 1.01180553
-1.88882923 -1.18345833 -2.46432734
0.55989528 4.10833073 -1.60339391
-1.30516624 2.29948688 2.46185875
-1.59408379 1.64729154 2.52871108
3.22702312 1.43048656 -0.38130504
0.52596885 -4.82713127 -0.17016709
2.40534282 2.17321968 1.70354068
-1.51574850 -3.95568109 -1.19212401
-1.41212142 3.03794527 2.05962801
1.52272177 3.92883110 -1.21850228
3.01292753 -1.14272940 1.24183130
-2.92774296 -0.50972068 1.54445636
-1.18033218 -3.69992757 1.71797419
-0.23462376 3.53185439 2.13251281
0.30591753 2.70191455 2.56684494
1.14910936 4.60606050 0.00532931
2.90930176 -0.72868687 1.53671551
2.45265961 -2.87071562 1.14303434
-2.85238242 2.42486000 0.70230329
0.66844022 -3.93856215 1.73433375
3.06313753 0.92985159 -1.21006501
1.15743518 -3.64598989 1.77696657
-1.38436007 0.35996184 2.81869292
0.62391752 -3.60944247 -2.01230788
-0.97588211 -1.68728936 2.76708555
-2.98460531 2.34568286 0.04122049
0.64174628 -2.35218620 -2.65190268
0.50545573 2.79114175 -2.50100088
-1.88481045 -3.45366383 1.36687171
2.21149206 1.74641752 2.07694244
-0.58867645 -4.66609049 -0.76338881
2.83340764 2.28075957 -0.92188221
-1.88486362 -4.00359392 0.47583777
0.39570019 -0.52321804 3.05740166
-2.20204663 3.28421068 1.11977959
-2.41807008 1.03016520 2.07747054
-3.16155148 -0.54976702 1.08842015
2.67837739 2.58233714 0.98968399
1.36276162 3.86297917 1.44065750
-2.09735465 0.77207464 2.38810492
0.81496257 3.26296949 2.18523836
1.43187881 1.42303956 -2.66026163
-1.90127528 0.14440639 -2.56601787
-2.31847715 -3.46830750 -0.56469417
0.60211843 1.66152310 2.86062002
-1.73412788 4.20603371 0.11388756
-1.95238137 -2.18919015 -2.12356949
1.15160620 -2.27617097 -2.53266501
2.25667596 3.66067457 -0.09097110
-1.43941498 3.46765542 1.74773896
-3.12740874 -1.29105425 0.90243196
-0.13216892 4.50557041 -1.20194149
-0.55881995 0.63709211 -3.02739501
-2.72675061 -2.62582517 -0.81595802
2.18746042 -3.74684334 -0.06415759
-1.33692658 -0.30083996 2.84061933
0.12491090 -4.63697052 0.98766375
1.20835257 3.76795244 -1.64215934
-1.81983638 3.86779618 0.92394030
-1.54756701 -4.34000444 -0.25308147
3.01274538 2.26866794 0.08864753
-2.38222623 3.05912495 -1.06635821
3.37293887 -0.62479830 -0.07123727
-0.76490694 -3.59394884 1.98255575
-2.80720782 0.13496476 1.74585891
-1.67045987 2.35668540 -2.24767184
1.18410075 -0.31548712 2.89554548
-0.16621746 -4.77698278 0.65654725
-0.53558820 -1.04303873 -2.98524046
2.69045329 -2.65203881 -0.87994546
-0.52005672 -3.51369309 -2.10277390
0.04870851 -3.29200578 2.29066515
-0.38745666 -4.86268330 -0.02716779
-0.40164685 3.49562073 -2.13631535
3.20955729 1.40230227 0.51799244
-2.28449321 -2.94375801 1.33858621
0.37643480 4.51445007 -1.14617598
-0.53862953 -2.36796832 2.66485500
-2.30267978 -0.11609189 -2.27814841
1.13968027 3.37985253 -1.98390031
-2.75603318 1.78696632 -1.42113340
1.16845250 1.99464536 2.61949682
2.34608340 -1.96012974 -1.86691415
-0.24046268 -1.02775013 3.01891041
0.71237969 3.42881370 -2.11184525
-2.40111279 1.51716471 -1.97168839
-1.23280919 1.30597031 2.76456952
2.07728124 -3.50177121 1.04891407
0.14914246 1.14052272 -3.00796318
3.20874691 -1.59122169 0.20419681
-2.06930542 3.79248881 0.53501022
0.98238313 -4.66268539 -0.29142895
-0.34425333 -4.48827887 -1.19477248
0.02628729 2.23897672 2.75271058
1.15957010 2.72688508 2.34418678
0.11383520 2.42906857 -2.68554497
-0.85707808 -0.80536652 2.95288897
2.45375466 1.00262344 2.04898691
0.02683675 4.85567331 -0.38977093
-1.73791146 1.12552047 -2.56517124
0.89211339 1.51005554 -2.83066130
0.63033724 4.73510599 0.53900117
-2.54889274 -3.12289691 0.54983807
-2.47520804 2.42748380 1.46588373
-2.29489374 -0.72404832 2.23887205
1.84588885 -0.12190942 2.59923339
2.48116112 -0.28277788 2.10967588
-0.20665388 -4.08164787 1.69851768
-0.65252000 3.77830219 1.87564421
0.49319261 -4.66939402 -0.81181127
-2.48073792 1.67483211 1.83405864
-1.79346263 2.55969071 2.07334208
1.87052774 0.36830142 -2.57548165
0.32512069 -2.86953092 2.49049234
2.44578862 0.35039344 2.14083266
0.17181033 3.52172518 -2.14447689
-2.01118708 -2.92887545 1.67440403
-3.06895614 -1.81126547 -0.68686956
-1.01613522 4.29406166 1.16207135
2.61705160 -3.04024220 0.45816836
2.07692242 3.76375341 -0.58523375
-0.25125676 -1.71091044 -2.89168501
-0.33582768 4.86982107 0.01004569
1.73533726 -1.27557898 2.53756070
1.01190925 0.41144964 -2.94432497
2.62775207 3.01536417 -0.47209993
-1.96639466 3.06653571 1.61791611
-3.38317513 -0.08447729 0.31431976
1.56063652 -4.31551600 0.34254545
0.35067841 3.37151909 2.22112250
-0.85091513 0.65193784 2.96917081
1.64437187 -4.26608944 -0.24966277
1.35329652 -3.15553784 2.02057362
-0.59397781 1.84372234 -2.81631660
3 249 48 83
3 64 0 62
3 220 34 37
3 64 62 204
3 204 191 64
3 51 191 204
3 213 27 253
3 21 48 249
3 104 24 232
3 40 205 155
3 7 151 128
3 128 151 1
3 115 111 220
3 220 111 244
3 244 34 220
3 113 26 215
3 117 184 66
3 66 51 118
3 184 51 66
3 117 196 30
3 30 184 117
3 30 196 1
3 64 191 84
3 84 0 64
3 84 27 0
3 46 191 79
3 79 191 51
3 79 51 184
3 168 87 100
3 100 23 168
3 168 23 73
3 168 73 122
3 122 87 168
3 25 152 194
3 32 87 192
3 100 87 32
3 32 129 100
3 145 62 0
3 0 27 145
3 220 37 198
3 99 70 207
3 78 246 234
3 246 163 234
3 118 51 108
3 51 204 108
3 126 196 117
3 117 66 126
3 126 66 29
3 148 145 192
3 107 174 41
3 122 164 41
3 81 174 210
3 210 174 107
3 210 97 81
3 38 204 62
3 38 148 97
3 38 246 78
3 38 97 246
3 73 33 105
3 207 70 105
3 112 86 90
3 146 177 90
3 231 213 127
3 27 213 231
3 134 45 67
3 67 229 134
3 185 86 134
3 134 229 185
3 249 83 94
3 112 90 98
3 150 45 134
3 175 23 100
3 11 183 50
3 47 24 104
3 47 21 249
3 104 21 47
3 186 232 24
3 186 133 9
3 24 133 186
3 31 40 155
3 215 26 88
3 136 113 215
3 251 113 136
3 7 128 91
3 212 167 11
3 225 232 233
3 104 232 225
3 225 140 104
3 44 183 11
3 11 167 44
3 44 167 111
3 121 34 110
3 34 244 110
3 111 167 110
3 110 244 111
3 218 177 146
3 121 110 240
3 233 124 130
3 56 16 192
3 192 145 56
3 56 231 16
3 56 145 27
3 27 231 56
3 129 32 22
3 22 214 152
3 152 25 22
3 22 25 129
3 107 41 221
3 221 41 164
3 164 70 221
3 70 99 221
3 20 69 120
3 120 42 20
3 120 69 36
3 20 42 153
3 153 126 29
3 101 69 20
3 36 69 101
3 101 163 36
3 101 234 163
3 62 145 169
3 145 148 169
3 169 38 62
3 148 38 169
3 192 87 243
3 243 148 192
3 97 148 243
3 89 174 81
3 89 41 174
3 222 163 246
3 255 210 107
3 107 221 255
3 65 38 78
3 204 38 65
3 65 108 204
3 122 73 200
3 73 105 200
3 200 164 122
3 200 70 164
3 200 105 70
3 80 98 226
3 226 98 90
3 9 133 226
3 226 133 80
3 178 141 229
3 229 67 178
3 49 127 194
3 49 231 127
3 194 152 49
3 152 214 49
3 49 214 16
3 16 231 49
3 254 77 102
3 102 77 245
3 86 185 199
3 146 90 199
3 199 90 86
3 85 150 134
3 85 86 112
3 134 86 85
3 23 175 61
3 73 23 61
3 61 33 73
3 48 33 61
3 11 50 147
3 147 50 21
3 147 140 11
3 147 21 104
3 104 140 147
3 202 183 207
3 202 50 183
3 202 33 48
3 48 21 202
3 21 50 202
3 207 105 202
3 202 105 33
3 158 133 24
3 158 47 249
3 24 47 158
3 249 94 158
3 26 124 208
3 208 88 26
3 232 186 157
3 9 161 157
3 157 186 9
3 57 157 161
3 233 232 57
3 232 157 57
3 3 31 188
3 188 31 155
3 166 88 40
3 3 203 166
3 215 88 166
3 166 31 3
3 40 31 166
3 166 136 215
3 203 136 166
3 216 136 203
3 216 203 7
3 106 170 63
3 92 170 242
3 180 212 156
3 140 225 156
3 2 110 167
3 2 212 180
3 167 212 2
3 180 240 2
3 2 240 110
3 230 240 171
3 121 240 230
3 93 30 1
3 129 25 72
3 58 82 224
3 114 32 192
3 114 22 32
3 192 16 114
3 16 214 114
3 214 22 114
3 237 206 149
3 123 206 237
3 123 237 19
3 19 18 115
3 95 18 19
3 8 120 36
3 149 206 8
3 8 222 149
3 36 163 8
3 163 222 8
3 42 120 131
3 242 170 247
3 247 42 242
3 247 153 42
3 142 101 20
3 108 101 142
3 20 153 142
3 142 153 29
3 118 108 142
3 142 66 118
3 29 66 142
3 234 101 109
3 109 101 108
3 108 65 109
3 78 234 109
3 109 65 78
3 81 97 190
3 97 243 190
3 190 89 81
3 41 89 190
3 122 41 190
3 190 87 122
3 190 243 87
3 119 222 246
3 210 222 119
3 246 97 119
3 97 210 119
3 149 222 217
3 217 222 210
3 210 255 217
3 217 237 149
3 10 18 95
3 183 18 10
3 60 177 144
3 144 161 60
3 60 90 177
3 60 226 90
3 60 161 9
3 9 226 60
3 189 178 67
3 189 45 194
3 189 67 45
3 194 127 189
3 127 178 189
3 176 84 191
3 176 191 46
3 253 27 176
3 27 84 176
3 46 241 176
3 241 75 176
3 209 139 254
3 209 241 139
3 209 75 241
3 141 14 143
3 143 209 254
3 14 209 143
3 253 176 250
3 250 176 75
3 250 213 253
3 75 209 250
3 250 209 14
3 141 178 52
3 52 14 141
3 52 250 14
3 52 178 127
3 127 213 52
3 213 250 52
3 254 139 55
3 55 77 254
3 139 132 55
3 138 77 55
3 55 132 138
3 146 199 12
3 12 218 146
3 205 218 12
3 193 199 185
3 80 133 172
3 172 17 80
3 133 158 172
3 94 17 172
3 172 158 94
3 197 98 80
3 80 17 197
3 224 150 197
3 197 17 224
3 239 61 175
3 175 58 239
3 239 83 48
3 48 61 239
3 239 94 83
3 125 161 144
3 144 208 125
3 125 57 161
3 125 208 124
3 125 124 233
3 233 57 125
3 252 208 144
3 88 208 252
3 144 177 252
3 177 218 252
3 40 88 252
3 205 40 252
3 252 218 205
3 251 136 162
3 136 216 162
3 106 63 159
3 159 63 91
3 1 196 159
3 196 106 159
3 159 128 1
3 159 91 128
3 170 92 13
3 59 63 13
3 13 63 170
3 13 74 59
3 180 156 103
3 103 240 180
3 171 240 103
3 140 156 39
3 39 156 212
3 11 140 39
3 39 212 11
3 135 113 251
3 121 230 135
3 171 130 35
3 35 230 171
3 35 124 26
3 35 130 124
3 35 135 230
3 26 113 35
3 113 135 35
3 139 241 211
3 211 132 139
3 211 241 46
3 46 79 211
3 211 79 184
3 184 30 96
3 96 211 184
3 132 211 96
3 138 132 96
3 30 93 96
3 96 93 138
3 181 72 25
3 82 72 181
3 100 129 6
3 129 72 6
3 6 175 100
3 53 17 94
3 94 239 53
3 53 239 58
3 224 17 53
3 53 58 224
3 183 44 71
3 71 18 183
3 115 18 71
3 111 115 71
3 71 44 111
3 173 198 123
3 123 19 173
3 173 19 115
3 173 115 220
3 220 198 173
3 242 42 5
3 42 131 5
3 5 92 242
3 123 198 28
3 28 5 131
3 28 198 37
3 37 5 28
3 179 131 120
3 179 28 131
3 179 206 123
3 123 28 179
3 182 170 106
3 182 247 170
3 182 106 196
3 196 126 182
3 126 153 182
3 153 247 182
3 237 217 195
3 95 19 195
3 195 19 237
3 195 217 255
3 195 10 95
3 255 10 195
3 187 255 221
3 187 10 255
3 187 221 99
3 187 99 207
3 207 183 187
3 183 10 187
3 229 141 76
3 141 193 76
3 76 185 229
3 76 193 185
3 4 12 199
3 155 205 4
3 205 12 4
3 150 85 238
3 238 197 150
3 238 85 112
3 112 98 238
3 98 197 238
3 59 74 160
3 7 91 160
3 160 216 7
3 160 162 216
3 160 63 59
3 91 63 160
3 137 5 37
3 92 5 137
3 248 156 225
3 248 103 156
3 248 225 233
3 171 103 248
3 233 130 248
3 248 130 171
3 227 188 245
3 3 188 227
3 1 151 219
3 219 93 1
3 219 236 93
3 82 181 154
3 224 82 154
3 45 150 154
3 154 150 224
3 175 6 165
3 165 6 72
3 165 58 175
3 165 72 82
3 82 58 165
3 120 8 201
3 201 179 120
3 201 8 206
3 206 179 201
3 155 4 116
3 116 188 155
3 116 102 245
3 245 188 116
3 199 193 235
3 235 4 199
3 254 102 235
3 102 116 235
3 235 116 4
3 235 193 141
3 235 143 254
3 141 143 235
3 68 160 74
3 162 160 68
3 251 162 68
3 68 74 121
3 121 135 68
3 68 135 251
3 223 34 121
3 121 74 223
3 223 37 34
3 223 137 37
3 228 227 245
3 236 227 228
3 245 77 228
3 228 77 138
3 138 93 228
3 93 236 228
3 43 227 236
3 236 219 43
3 3 227 43
3 43 219 151
3 43 203 3
3 43 151 7
3 7 203 43
3 45 154 15
3 15 154 181
3 194 45 15
3 15 25 194
3 15 181 25
3 137 223 54
3 54 13 92
3 92 137 54
3 74 13 54
3 54 223 74