ply
format ascii 1.0
comment https://github.com/mikedh/trimesh
element vertex 256
property float x
property float y
property float z
element face 508
property list uchar int vertex_indices
end_header
2.05698323 -2.09370995 -1.60114121
3.13322783 1.00258172 1.60119545
-1.78196955 2.68666005 0.62295973
1.58214498 0.45919052 2.78181005
0.20210962 -1.15868855 2.84497952
1.90153182 2.58327651 -0.81766039
-2.25547051 -2.30790138 -1.05776274
1.89889729 1.52922583 2.22893977
1.55390882 1.71108830 -2.25860023
-2.96667004 -0.05082459 2.04237390
-1.47609603 1.98549807 -2.05778146
-3.00312901 2.01901460 0.03010091
-0.31587809 -1.07388806 2.87131166
1.72897613 2.72746968 0.53471202
1.69557643 -2.61429214 0.97687465
-1.53888237 -2.83386564 0.26551250
-0.08292764 -2.68618751 -1.51477981
-3.44945550 -1.34637499 0.71927714
-1.60707033 2.47148490 -1.35846102
-0.72684050 2.63481879 -1.50138068
2.90700507 1.45103097 -1.51425779
-3.82699490 0.81925309 0.00009547
-0.94916922 -2.71477604 -1.26861608
-2.88258815 -1.41277671 -1.57700229
-3.55293584 0.06995907 1.36944234
-1.32216811 -2.85140514 -0.58433443
-0.67872977 1.73776484 2.48549294
1.79117441 -2.57256055 -0.98418409
1.00417292 2.69175816 -1.29094529
3.70132160 0.76739800 -0.80521530
3.89128280 0.36053666 0.48529786
0.83877546 0.16469805 2.99965620
-1.51046360 -2.17315483 -1.84348977
-3.47974586 -0.29392132 -1.44863892
-0.08179121 3.06039882 0.40589729
-0.78422797 2.08356357 2.18522930
2.06352925 1.27986729 -2.29540515
0.59271282 3.03259611 -0.35170159
1.70883226 -0.96893346 -2.60112476
-2.90756083 2.02605009 0.55753368
0.37154672 0.46895576 3.02420521
-1.53158343 -0.22610097 -2.82712364
2.65189791 1.93985367 -1.22498155
2.22833753 0.46436575 2.50090218
-2.05236816 2.61783457 -0.36514619
-1.38558614 -2.81935573 0.64902997
3.49674129 -1.42582846 -0.31384626
-3.78045201 0.63441056 0.69344759
-3.80050254 -0.18184212 -0.86735100
0.04197322 -2.95241117 -0.89782053
-3.17983127 1.63574755 -0.85595828
3.69723463 -0.58680069 -0.95493907
1.29020238 -2.82154894 0.74836755
-3.44138908 -1.52954614 0.17141345
1.27467537 2.89389253 0.42068943
2.92753673 -1.37760031 1.55923736
0.31397623 -2.47979069 -1.81551588
-2.39905143 1.13603187 2.17175698
-3.10360527 -1.91330111 -0.22327499
1.96758413 2.45822406 1.06542826
-2.40731478 -0.14314041 2.44032788
-3.33530688 -1.23869741 -1.12175453
1.79981220 -1.80967450 -2.06368494
2.51857686 2.11731410 1.09586489
2.54926252 -1.76372921 -1.57066834
2.60071993 -0.61540806 -2.24041128
3.88385701 0.30245450 -0.56117606
-0.73268139 -2.80839205 1.14536679
0.96703112 2.56425452 1.54191232
2.61017084 1.42078543 -1.83304787
-2.64427662 0.38775298 -2.26011682
-1.85468590 2.60311198 -0.82234687
-2.26811051 -2.44511127 -0.66202229
-2.87149549 -0.97990131 -1.88460517
1.07296789 2.74542785 1.13616753
2.69988251 -2.23729444 0.33731493
0.06190258 -2.37325048 1.96527445
2.47538424 -1.28239167 2.03667426
2.25066710 -0.41949624 -2.49677825
3.65866733 -1.08441257 -0.50390977
-2.83684564 -0.93936044 1.93579984
-0.43891820 -0.25940835 -3.04403472
-2.75384998 -2.21782660 -0.15284777
-3.83767772 -0.64173472 -0.45331475
2.52827382 -2.04849029 -1.20583129
-1.91817772 -2.04579115 1.75847995
-1.40941334 -1.81164753 2.23726916
-1.53201187 -1.73473549 -2.25008202
-0.03388273 0.87967098 2.94632411
-1.02801633 -0.25707567 -2.95754671
-1.53965783 -1.33657587 2.50078011
2.70278096 1.71092772 1.47133315
1.81587720 2.74559140 0.04887938
3.34416342 0.03476126 1.65574718
-3.82977533 -0.75916052 0.27891636
-1.03803420 2.26487875 -1.92874515
3.81653404 -0.24296984 0.80845076
0.16962983 -0.51570505 -3.02746630
-2.52630424 -1.30897141 1.97990572
-2.42121530 0.95203054 -2.24451494
-2.38176131 -1.86866975 -1.60706794
2.51465845 0.91956717 -2.19472289
1.32897639 -1.34334290 2.56884146
-2.13230991 2.26381469 1.28178227
-3.53931737 1.04258502 0.92593718
-3.03309393 -0.14025007 -1.97711229
3.32214332 1.57503223 0.60956031
-0.87635142 0.74377811 -2.90486908
3.35782123 -0.11377369 -1.63525844
2.55759358 -0.05762257 -2.35035038
-0.99068284 2.98161173 0.23415957
-0.90745163 2.98987269 -0.30423123
-2.15756917 -1.58682835 2.04063225
-0.12664625 1.87121415 2.44366479
-0.79143506 -2.51809812 -1.67082465
-0.86190850 2.92251182 -0.73281723
0.76006043 -1.07142556 2.82216406
3.93906426 0.37443116 0.02084747
3.71474910 0.05755163 -1.08010900
0.79363984 0.55127454 -2.96099639
2.16072083 1.80123734 -1.85210192
-0.02087711 2.91855168 1.00448847
-2.20408869 -0.74664629 -2.44650626
0.65334594 2.59195423 -1.59179866
-1.52300811 1.45075095 2.44405532
-1.86014819 1.03927958 2.51042438
3.76563716 0.90249687 -0.37854755
0.61375695 -3.04544687 -0.16893649
2.80681229 1.37108874 1.69122124
-1.76873815 -2.49564719 -1.18350291
-1.64781487 1.91664588 2.04473352
1.77687526 2.47870755 -1.20969045
3.51580739 -0.72095031 1.23285067
-3.41640496 -0.32158384 1.53328729
-1.37733841 -2.33429193 1.70555031
-0.27378419 2.22825408 2.11709094
0.35697743 1.70464349 2.54828238
1.34090424 2.90597296 0.00529077
3.39488578 -0.45973003 1.52560246
2.86202669 -1.81114030 1.13476825
-3.32846594 1.52984905 0.69722444
0.78000784 -2.48484683 1.72179163
3.57439780 0.58664525 -1.20131421
1.35061967 -2.30026245 1.76411605
-1.61541998 0.22710066 2.79830885
0.72805393 -2.27720451 -1.99775541
-1.13876402 -1.06451428 2.74707484
-3.48275805 1.47989607 0.04092240
0.74885851 -1.48399901 -2.63272500
0.58982003 1.76093698 -2.48291445
-2.19939923 -2.17892361 1.35698688
2.58060646 1.10181832 2.06192255
-0.68693089 -2.94384599 -0.75786823
3.30632424 1.43893576 -0.91521543
-2.19946122 -2.52587557 0.47239667
0.46174547 -0.33009934 3.03529143
-2.56958437 2.07201529 1.11168170
-2.82166386 0.64993334 2.06244683
-3.68923783 -0.34684914 1.08054900
3.12541819 1.62920177 0.98252690
1.59021652 2.43716145 1.43023908
-2.44741869 0.48710346 2.37083507
0.95098585 2.05861402 2.16943526
1.67086995 0.89779854 -2.64102340
-2.21861219 0.09110629 -2.54746127
-2.70544791 -2.18816233 -0.56061041
0.70261639 1.04825830 2.83993268
-2.02356672 2.65359545 0.11306396
-2.27824831 -1.38116443 -2.10821247
1.34381783 -1.43604088 -2.51434946
2.63333178 2.30952716 -0.09031323
-1.67966402 2.18775082 1.73509979
-3.64939618 -0.81452876 0.89590585
-0.15422888 2.84257340 -1.19324946
-0.65209115 0.40194273 -3.00550175
-3.18186522 -1.65663850 -0.81005728
2.55256367 -2.36389112 -0.06369363
-1.56006944 -0.18980055 2.82007670
0.14575945 -2.92547417 0.98052132
1.41003549 2.37720895 -1.63028371
-2.12358046 2.44020057 0.91725868
-1.80586731 -2.73811769 -0.25125125
3.51559496 1.43130720 0.08800646
-2.77983761 1.93000805 -1.05864668
3.93590736 -0.39418653 -0.07072211
-0.89257550 -2.26742959 1.96821845
-3.27575159 0.08514955 1.73323333
-1.94927192 1.48683763 -2.23141742
1.38173580 -0.19904146 2.87460589
-0.19396038 -3.01380825 0.65179926
-0.62498182 -0.65805525 -2.96365213
3.13950968 -1.67317677 -0.87358195
-0.60685802 -2.21679616 -2.08756709
0.05683831 -2.07693315 2.27409983
-0.45212603 -3.06787682 -0.02697132
-0.46868467 2.20539427 -2.12086630
3.74525619 0.88471532 0.51424646
-2.66579199 -1.85722291 1.32890594
0.43926454 2.84817576 -1.13788724
-0.62853074 -1.49395609 2.64558363
-2.68701410 -0.07324261 -2.26167369
1.32990134 2.13235593 -1.96955335
-3.21603560 1.12740076 -1.41085625
1.36347580 1.25842583 2.60055327
2.73766208 -1.23664987 -1.85341322
-0.28059766 -0.64840966 2.99707866
0.83128107 2.16324544 -2.09657288
-2.80187607 0.95718229 -1.95742977
-1.43857408 0.82393932 2.74457717
2.42399478 -2.20927453 1.04132867
0.17403543 0.71955806 -2.98621058
3.74431038 -1.00390506 0.20272012
-2.41468787 2.39268875 0.53114116
1.14635015 -2.94169760 -0.28932142
-0.40171173 -2.83166409 -1.18613219
0.03067483 1.41257489 2.73280382
1.35311079 1.72039723 2.32723427
0.13283513 1.53250432 -2.66612387
-1.00013077 -0.50810736 2.93153477
2.86330462 0.63255715 2.03416920
0.03131600 3.06345415 -0.38695222
-2.02798176 0.71009314 -2.54662085
1.04101372 0.95269710 -2.81019092
0.73554516 2.98738790 0.53510326
-2.97432184 -1.97024202 0.54586184
-2.88833857 1.53150439 1.45528293
-2.67792845 -0.45680353 2.22268105
2.15398145 -0.07691290 2.58043671
2.89528537 -0.17840514 2.09441924
-0.24114594 -2.57511973 1.68623459
-0.76143044 2.38373852 1.86208022
0.57551008 -2.94593000 -0.80594051
-2.89479113 1.05665505 1.82079530
-2.09280467 1.61491418 2.05834818
2.18273258 0.23236212 -2.55685663
0.37938574 -1.81039298 2.47248197
2.85400867 0.22106394 2.12535071
0.20048673 2.22186351 -2.12896848
-2.34686923 -1.84783351 1.66229522
-3.58118749 -1.14273107 -0.68190229
-1.18573570 2.70913219 1.15366757
3.05385661 -1.91809487 0.45485502
2.42357612 2.37455964 -0.58100152
-0.29319337 -1.07941687 -2.87077332
-0.39187980 3.07237983 0.00997304
2.02497792 -0.80476534 2.51920986
1.18080437 0.25958443 -2.92303252
3.06634331 1.90239942 -0.46868584
-2.29460049 1.93468356 1.60621583
-3.94785213 -0.05329689 0.31204671
1.82111824 -2.72266769 0.34006825
0.40920925 2.12709832 2.20506001
-0.99293917 0.41130891 2.94769859
1.91882968 -2.69148469 -0.24785729
1.57917166 -1.99083531 2.00596166
-0.69311708 1.16320813 -2.79594994
3 249 48 83
3 64 0 62
3 220 34 37
3 64 62 204
3 204 191 64
3 51 191 204
3 213 27 253
3 21 48 249
3 104 24 232
3 40 205 155
3 7 151 128
3 128 151 1
3 115 111 220
3 220 111 244
3 244 34 220
3 113 26 215
3 117 184 66
3 66 51 118
3 184 51 66
3 117 196 30
3 30 184 117
3 30 196 1
3 64 191 84
3 84 0 64
3 84 27 0
3 46 191 79
3 79 191 51
3 79 51 184
3 168 87 100
3 100 23 168
3 168 23 73
3 168 73 122
3 122 87 168
3 25 152 194
3 32 87 192
3 100 87 32
3 32 129 100
3 145 62 0
3 0 27 145
3 220 37 198
3 99 70 207
3 78 246 234
3 246 163 234
3 118 51 108
3 51 204 108
3 126 196 117
3 117 66 126
3 126 66 29
3 148 145 192
3 107 174 41
3 122 164 41
3 81 174 210
3 210 174 107
3 210 97 81
3 38 204 62
3 38 148 97
3 38 246 78
3 38 97 246
3 73 33 105
3 207 70 105
3 112 86 90
3 146 177 90
3 231 213 127
3 27 213 231
3 134 45 67
3 67 229 134
3 185 86 134
3 134 229 185
3 249 83 94
3 112 90 98
3 150 45 134
3 175 23 100
3 11 183 50
3 47 24 104
3 47 21 249
3 104 21 47
3 186 232 24
3 186 133 9
3 24 133 186
3 31 40 155
3 215 26 88
3 136 113 215
3 251 113 136
3 7 128 91
3 212 167 11
3 225 232 233
3 104 232 225
3 225 140 104
3 44 183 11
3 11 167 44
3 44 167 111
3 121 34 110
3 34 244 110
3 111 167 110
3 110 244 111
3 218 177 146
3 121 110 240
3 233 124 130
3 56 16 192
3 192 145 56
3 56 231 16
3 56 145 27
3 27 231 56
3 129 32 22
3 22 214 152
3 152 25 22
3 22 25 129
3 107 41 221
3 221 41 164
3 164 70 221
3 70 99 221
3 20 69 120
3 120 42 20
3 120 69 36
3 20 42 153
3 153 126 29
3 101 69 20
3 36 69 101
3 101 163 36
3 101 234 163
3 62 145 169
3 145 148 169
3 169 38 62
3 148 38 169
3 192 87 243
3 243 148 192
3 97 148 243
3 89 174 81
3 89 41 174
3 222 163 246
3 255 210 107
3 107 221 255
3 65 38 78
3 204 38 65
3 65 108 204
3 122 73 200
3 73 105 200
3 200 164 122
3 200 70 164
3 200 105 70
3 80 98 226
3 226 98 90
3 9 133 226
3 226 133 80
3 178 141 229
3 229 67 178
3 49 127 194
3 49 231 127
3 194 152 49
3 152 214 49
3 49 214 16
3 16 231 49
3 254 77 102
3 102 77 245
3 86 185 199
3 146 90 199
3 199 90 86
3 85 150 134
3 85 86 112
3 134 86 85
3 23 175 61
3 73 23 61
3 61 33 73
3 48 33 61
3 11 50 147
3 147 50 21
3 147 140 11
3 147 21 104
3 104 140 147
3 202 183 207
3 202 50 183
3 202 33 48
3 48 21 202
3 21 50 202
3 207 105 202
3 202 105 33
3 158 133 24
3 158 47 249
3 24 47 158
3 249 94 158
3 26 124 208
3 208 88 26
3 232 186 157
3 9 161 157
3 157 186 9
3 57 157 161
3 233 232 57
3 232 157 57
3 3 31 188
3 188 31 155
3 166 88 40
3 3 203 166
3 215 88 166
3 166 31 3
3 40 31 166
3 166 136 215
3 203 136 166
3 216 136 203
3 216 203 7
3 106 170 63
3 92 170 242
3 180 212 156
3 140 225 156
3 2 110 167
3 2 212 180
3 167 212 2
3 180 240 2
3 2 240 110
3 230 240 171
3 121 240 230
3 93 30 1
3 129 25 72
3 58 82 224
3 114 32 192
3 114 22 32
3 192 16 114
3 16 214 114
3 214 22 114
3 237 206 149
3 123 206 237
3 123 237 19
3 19 18 115
3 95 18 19
3 8 120 36
3 149 206 8
3 8 222 149
3 36 163 8
3 163 222 8
3 42 120 131
3 242 170 247
3 247 42 242
3 247 153 42
3 142 101 20
3 108 101 142
3 20 153 142
3 142 153 29
3 118 108 142
3 142 66 118
3 29 66 142
3 234 101 109
3 109 101 108
3 108 65 109
3 78 234 109
3 109 65 78
3 81 97 190
3 97 243 190
3 190 89 81
3 41 89 190
3 122 41 190
3 190 87 122
3 190 243 87
3 119 222 246
3 210 222 119
3 246 97 119
3 97 210 119
3 149 222 217
3 217 222 210
3 210 255 217
3 217 237 149
3 10 18 95
3 183 18 10
3 60 177 144
3 144 161 60
3 60 90 177
3 60 226 90
3 60 161 9
3 9 226 60
3 189 178 67
3 189 45 194
3 189 67 45
3 194 127 189
3 127 178 189
3 176 84 191
3 176 191 46
3 253 27 176
3 27 84 176
3 46 241 176
3 241 75 176
3 209 139 254
3 209 241 139
3 209 75 241
3 141 14 143
3 143 209 254
3 14 209 143
3 253 176 250
3 250 176 75
3 250 213 253
3 75 209 250
3 250 209 14
3 141 178 52
3 52 14 141
3 52 250 14
3 52 178 127
3 127 213 52
3 213 250 52
3 254 139 55
3 55 77 254
3 139 132 55
3 138 77 55
3 55 132 138
3 146 199 12
3 12 218 146
3 205 218 12
3 193 199 185
3 80 133 172
3 172 17 80
3 133 158 172
3 94 17 172
3 172 158 94
3 197 98 80
3 80 17 197
3 224 150 197
3 197 17 224
3 239 61 175
3 175 58 239
3 239 83 48
3 48 61 239
3 239 94 83
3 125 161 144
3 144 208 125
3 125 57 161
3 125 208 124
3 125 124 233
3 233 57 125
3 252 208 144
3 88 208 252
3 144 177 252
3 177 218 252
3 40 88 252
3 205 40 252
3 252 218 205
3 251 136 162
3 136 216 162
3 106 63 159
3 159 63 91
3 1 196 159
3 196 106 159
3 159 128 1
3 159 91 128
3 170 92 13
3 59 63 13
3 13 63 170
3 13 74 59
3 180 156 103
3 103 240 180
3 171 240 103
3 140 156 39
3 39 156 212
3 11 140 39
3 39 212 11
3 135 113 251
3 121 230 135
3 171 130 35
3 35 230 171
3 35 124 26
3 35 130 124
3 35 135 230
3 26 113 35
3 113 135 35
3 139 241 211
3 211 132 139
3 211 241 46
3 46 79 211
3 211 79 184
3 184 30 96
3 96 211 184
3 132 211 96
3 138 132 96
3 30 93 96
3 96 93 138
3 181 72 25
3 82 72 181
3 100 129 6
3 129 72 6
3 6 175 100
3 53 17 94
3 94 239 53
3 53 239 58
3 224 17 53
3 53 58 224
3 183 44 71
3 71 18 183
3 115 18 71
3 111 115 71
3 71 44 111
3 173 198 123
3 123 19 173
3 173 19 115
3 173 115 220
3 220 198 173
3 242 42 5
3 42 131 5
3 5 92 242
3 123 198 28
3 28 5 131
3 28 198 37
3 37 5 28
3 179 131 120
3 179 28 131
3 179 206 123
3 123 28 179
3 182 170 106
3 182 247 170
3 182 106 196
3 196 126 182
3 126 153 182
3 153 247 182
3 237 217 195
3 95 19 195
3 195 19 237
3 195 217 255
3 195 10 95
3 255 10 195
3 187 255 221
3 187 10 255
3 187 221 99
3 187 99 207
3 207 183 187
3 183 10 187
3 229 141 76
3 141 193 76
3 76 185 229
3 76 193 185
3 4 12 199
3 155 205 4
3 205 12 4
3 150 85 238
3 238 197 150
3 238 85 112
3 112 98 238
3 98 197 238
3 59 74 160
3 7 91 160
3 160 216 7
3 160 162 216
3 160 63 59
3 91 63 160
3 137 5 37
3 92 5 137
3 248 156 225
3 248 103 156
3 248 225 233
3 171 103 248
3 233 130 248
3 248 130 171
3 227 188 245
3 3 188 227
3 1 151 219
3 219 93 1
3 219 236 93
3 82 181 154
3 224 82 154
3 45 150 154
3 154 150 224
3 175 6 165
3 165 6 72
3 165 58 175
3 165 72 82
3 82 58 165
3 120 8 201
3 201 179 120
3 201 8 206
3 206 179 201
3 155 4 116
3 116 188 155
3 116 102 245
3 245 188 116
3 199 193 235
3 235 4 199
3 254 102 235
3 102 116 235
3 235 116 4
3 235 193 141
3 235 143 254
3 141 143 235
3 68 160 74
3 162 160 68
3 251 162 68
3 68 74 121
3 121 135 68
3 68 135 251
3 223 34 121
3 121 74 223
3 223 37 34
3 223 137 37
3 228 227 245
3 236 227 228
3 245 77 228
3 228 77 138
3 138 93 228
3 93 236 228
3 43 227 236
3 236 219 43
3 3 227 43
3 43 219 151
3 43 203 3
3 43 151 7
3 7 203 43
3 45 154 15
3 15 154 181
3 194 45 15
3 15 25 194
3 15 181 25
3 137 223 54
3 54 13 92
3 92 137 54
3 74 13 54
3 54 223 74