ply
format ascii 1.0
comment https://github.com/mikedh/trimesh
element vertex 256
property float x
property float y
property float z
element face 508
property list uchar int vertex_indices
end_header
1.77465916 -1.62295747 -0.90770113
2.70318770 0.77715999 0.90773195
-1.53739166 2.08258796 0.35316139
1.36499321 0.35594553 1.57703280
0.17436978 -0.89816755 1.61284411
1.64054382 2.00244927 -0.46353891
-1.94590390 -1.78898978 -0.59965509
1.63827085 1.18539274 1.26360583
1.34063256 1.32636499 -1.28042054
-2.55949020 -0.03939712 1.15783989
-1.27349973 1.53907609 -1.16657448
-2.59094524 1.56505668 0.01706447
-0.27252334 -0.83243370 1.62777197
1.49167156 2.11422181 0.30313298
1.46285605 -2.02649117 0.55379891
-1.32766855 -2.19669557 0.15052138
-0.07154571 -2.08222175 -0.85874212
-2.97601271 -1.04365432 0.40776458
-1.38649750 1.91579306 -0.77012360
-0.62708056 2.04240274 -0.85114598
2.50801420 1.12477922 -0.85844618
-3.30173421 0.63505113 0.00005412
-0.81889439 -2.10438228 -0.71918970
-2.48694873 -1.09512615 -0.89401656
-3.06529021 0.05422938 0.77634901
-1.14069855 -2.21029139 -0.33126438
-0.58557314 1.34704351 1.40904808
1.54533303 -1.99414277 -0.55794269
0.86634874 2.08653975 -0.73184830
3.19330955 0.59485525 -0.45648369
3.35719848 0.27947313 0.27511966
0.72365230 0.12766713 1.70053160
-1.30315018 -1.68453979 -1.04509068
-3.00214553 -0.22783567 -0.82124621
-0.07056524 2.37229490 0.23010677
-0.67659152 1.61509252 1.23882592
1.78030670 0.99210030 -1.30128562
0.51136208 2.35074306 -0.19938274
1.47429252 -0.75107723 -1.47460067
-2.50849390 1.57051039 0.31607077
0.32055140 0.36351514 1.71444881
-1.32137132 -0.17526414 -1.60272145
2.28792095 1.50369442 -0.69445294
1.92249489 0.35995716 1.41778362
-1.77067757 2.02923727 -0.20700462
-1.19541240 -2.18544793 0.36794084
3.01680827 -1.10524333 -0.17792223
-3.26157951 0.49176887 0.39312157
-3.27887797 -0.14095649 -0.49170899
0.03621233 -2.28858709 -0.50898242
-2.74339485 1.26796389 -0.48525035
3.18978357 -0.45486364 -0.54136342
1.11312020 -2.18714809 0.42425621
-2.96905327 -1.18564093 0.09717581
1.09972429 2.24322581 0.23849256
2.52572799 -1.06785882 0.88394547
0.27088252 -1.92223132 -1.02923203
-2.06977797 0.88060498 1.23118830
-2.67763090 -1.48311198 -0.12657657
1.69753027 1.90551364 0.60400075
-2.07690716 -0.11095653 1.38344347
-2.87753105 -0.96018708 -0.63593256
1.55278528 -1.40278494 -1.16992140
2.17289829 1.64125443 0.62125558
2.19937253 -1.36717010 -0.89042580
2.24376726 -0.47703889 -1.27010906
3.35079193 0.23445024 -0.31813568
-0.63211977 -2.17694950 0.64931858
0.83430469 1.98770428 0.87412375
2.25192094 1.10133421 -1.03917110
-2.28134584 0.30057010 -1.28128028
-1.60012758 2.01782489 -0.46619573
-1.95680904 -1.89534926 -0.37530631
-2.47737861 -0.75957900 -1.06839943
0.92570144 2.12814236 0.64410347
2.32931972 -1.73425817 0.19122683
0.05340636 -1.83964574 1.11413157
2.13563395 -0.99405706 1.15460873
1.94175959 -0.32517615 -1.41544580
3.15650964 -0.84059185 -0.28567094
-2.44748449 -0.72815341 1.09742212
-0.37867603 -0.20108265 -1.72569025
-2.37588000 -1.71916747 -0.08665076
-3.31095076 -0.49744627 -0.25698814
2.18126464 -1.58790505 -0.68359643
-1.65490496 -1.58581281 0.99689788
-1.21596920 -1.40431428 1.26832771
-1.32174087 -1.34469533 -1.27559137
-0.02923228 0.68188465 1.67029738
-0.88691962 -0.19927444 -1.67665958
-1.32833743 -1.03605843 1.41771448
2.33182025 1.32624054 0.83411181
1.56664538 2.12826896 0.02771015
2.88517213 0.02694549 0.93865776
-3.30413294 -0.58846986 0.15812016
-0.89556253 1.75564051 -1.09342277
3.29270911 -0.18834019 0.45831791
0.14634788 -0.39975324 -1.71629751
-2.17956519 -1.01466060 1.12242615
-2.08889985 0.73797476 -1.27243543
-2.05486107 -1.44851565 -0.91106111
2.16951776 0.71281046 -1.24420786
1.14657247 -1.04130399 1.45629895
-1.83964717 1.75481570 0.72665375
-3.05354071 0.80816883 0.52492201
-2.61679745 -0.10871606 -1.12084246
2.86617422 1.22089994 0.34556514
-0.75607091 0.57654607 -1.64679599
2.89695525 -0.08819266 -0.92704248
2.20655990 -0.04466664 -1.33243454
-0.85471016 2.31122231 0.13274714
-0.78290254 2.31762576 -0.17247137
-1.86143959 -1.23004377 1.15685248
-0.10926387 1.45048785 1.38533533
-0.68280941 -1.95192564 -0.94720531
-0.74361026 2.26541042 -0.41544059
0.65574098 -0.83052480 1.59990990
3.39842176 0.29024357 0.01181862
3.20489430 0.04461165 -0.61232334
0.68471158 0.42732525 -1.67861509
1.86415875 1.39624476 -1.04997301
-0.01801170 2.26234078 0.56945342
-1.90157437 -0.57876939 -1.38694608
0.56367320 2.00917602 -0.90240479
-1.31397295 1.12456214 1.38555658
-1.60484004 0.80560660 1.42318177
3.24879789 0.69957829 -0.21460196
0.52951789 -2.36070466 -0.09577159
2.42157316 1.06281137 0.95876831
-1.52597618 -1.93452275 -0.67093831
-1.42164981 1.48570478 1.15917754
1.53299654 1.92139173 -0.68578428
3.03325772 -0.55885088 0.69891399
-2.94749832 -0.24927850 0.86923414
-1.18829668 -1.80944657 0.96689159
-0.23620690 1.72725058 1.20019770
0.30798176 1.32136917 1.44464386
1.15686309 2.25259018 0.00299939
2.92893267 -0.35636371 0.86487758
2.46920919 -1.40392113 0.64331019
-2.87162900 1.18587577 0.39526272
0.67295057 -1.92615056 0.97609890
3.08380628 0.45474318 -0.68103570
1.16524506 -1.78306842 1.00009310
-1.39370120 0.17603905 1.58638620
0.62812746 -1.76519489 -1.13254523
-0.98246700 -0.82516748 1.55734110
-3.00474429 1.14715433 0.02319927
0.64607656 -1.15033472 -1.49251509
0.50886637 1.36500561 -1.40758622
-1.89752841 -1.68901157 0.76928788
2.22641420 0.85408407 1.16892219
-0.59264863 -2.28194785 -0.42964220
2.85252619 1.11540365 -0.51884377
-1.89758193 -1.95795453 0.26780584
0.39837021 -0.25587937 1.72073364
-2.21690512 1.60614061 0.63022226
-2.43438625 0.50380147 1.16921949
-3.18288445 -0.26886314 0.61257285
2.69645000 1.26288986 0.55700320
1.37195694 1.88918686 0.81081522
-2.11150670 0.37758249 1.34404743
0.82046163 1.59575260 1.22987211
1.44154060 0.69593638 -1.49721956
-1.91410434 0.07062183 -1.44417834
-2.33412123 -1.69617295 -0.31781504
0.60618126 0.81256658 1.60998309
-1.74582911 2.05695748 0.06409696
-1.96555531 -1.07062161 -1.19516432
1.15937686 -1.11315954 -1.42540705
2.27190304 1.79024994 -0.05119937
-1.44912755 1.69585407 0.98364347
-3.14851117 -0.63138902 0.50789696
-0.13306074 2.20344567 -0.67646372
-0.56259066 0.31156939 -1.70384562
-2.74514961 -1.28415775 -0.45922866
2.20222044 -1.83239079 -0.03610848
-1.34594762 -0.14712554 1.59872651
0.12575375 -2.26770687 0.55586624
1.21650600 1.84271407 -0.92422229
-1.83211601 1.89154255 0.52000207
-1.55800939 -2.12247562 -0.14243656
3.03307438 1.10949028 0.04989164
-2.39830065 1.49606252 -0.60015619
3.39569831 -0.30555710 -0.04009299
-0.77006823 -1.75761783 1.11580050
-2.82614994 0.06600441 0.98258537
-1.68173146 1.15253508 -1.26501024
1.19209051 -0.15428872 1.62963963
-0.16733903 -2.33617973 0.36951080
-0.53920215 -0.51009721 -1.68012071
2.70860744 -1.29697752 -0.49524134
-0.52356583 -1.71836877 -1.18346035
0.04903717 -1.60995281 1.28920734
-0.39007106 -2.37809134 -0.01529028
-0.40435699 1.70953047 -1.20233786
3.23121428 0.68579477 0.29153088
-2.29990792 -1.43964255 0.75336856
0.37897483 2.20778823 -0.64507836
-0.54226398 -1.15805304 1.49980485
-2.31821728 -0.05677465 -1.28216279
1.14737046 1.65291417 -1.11655724
-2.77462983 0.87391448 -0.79982692
1.17633677 0.97547972 1.47427678
2.36191392 -0.95859987 -1.05071640
-0.24208522 -0.50262040 1.69907045
0.71718651 1.67685854 -1.18856585
-2.41731453 0.74196815 -1.10968435
-1.24112761 0.63868374 1.55592513
2.09129786 -1.71253836 0.59033847
0.15014881 0.55777168 -1.69290924
3.23039818 -0.77818573 0.11492383
-2.08326840 1.85471356 0.30110866
0.98901182 -2.28028250 -0.16401888
-0.34657621 -2.19498920 -0.67242885
0.02646467 1.09496975 1.54925072
1.16739440 1.33358097 1.31932974
0.11460332 1.18793404 -1.51144922
-0.86286128 -0.39386386 1.66191304
2.47031164 0.49033222 1.15318859
0.02701783 2.37466311 -0.21936665
-1.74963820 0.55043489 -1.44370198
0.89813298 0.73849142 -1.59312212
0.63459051 2.31569982 0.30335477
-2.56609178 -1.52725029 0.30945390
-2.49190974 1.18715894 0.82501280
-2.31037879 -0.35409525 1.26005769
1.85834420 -0.05961971 1.46287239
2.49790311 -0.13829228 1.18734491
-0.20804830 -1.99612653 0.95594132
-0.65692294 1.84777558 1.05562973
0.49652049 -2.28356338 -0.45689481
-2.49747682 0.81907535 1.03222501
-1.80556417 1.25181472 1.16689587
1.88314939 0.18011752 -1.44950473
0.32731450 -1.40334189 1.40167189
2.46229172 0.17135963 1.20488024
0.17296962 1.72229695 -1.20693123
-2.02475786 -1.43236423 0.94236988
-3.08966422 -0.88579792 -0.38657647
-1.02299178 2.10000753 0.65402436
2.63471031 -1.48682797 0.25786135
2.09093666 1.84066057 -0.32937491
-0.25295216 -0.83671933 -1.62746680
-0.33809370 2.38158202 0.00565381
1.74704659 -0.62382090 1.42816246
1.01873720 0.20121913 -1.65709305
2.64548326 1.47466147 -0.26570216
-1.97966313 1.49968684 0.91057801
-3.40600348 -0.04131355 0.17690204
1.57116699 -2.11049962 0.19278771
0.35304466 1.64883864 1.25006807
-0.85665679 0.31882969 1.67107654
1.65546739 -2.08632779 -0.14051250
1.36242795 -1.54321325 1.13719738
-0.59798574 0.90167093 -1.58504879
3 249 48 83
3 64 0 62
3 220 34 37
3 64 62 204
3 204 191 64
3 51 191 204
3 213 27 253
3 21 48 249
3 104 24 232
3 40 205 155
3 7 151 128
3 128 151 1
3 115 111 220
3 220 111 244
3 244 34 220
3 113 26 215
3 117 184 66
3 66 51 118
3 184 51 66
3 117 196 30
3 30 184 117
3 30 196 1
3 64 191 84
3 84 0 64
3 84 27 0
3 46 191 79
3 79 191 51
3 79 51 184
3 168 87 100
3 100 23 168
3 168 23 73
3 168 73 122
3 122 87 168
3 25 152 194
3 32 87 192
3 100 87 32
3 32 129 100
3 145 62 0
3 0 27 145
3 220 37 198
3 99 70 207
3 78 246 234
3 246 163 234
3 118 51 108
3 51 204 108
3 126 196 117
3 117 66 126
3 126 66 29
3 148 145 192
3 107 174 41
3 122 164 41
3 81 174 210
3 210 174 107
3 210 97 81
3 38 204 62
3 38 148 97
3 38 246 78
3 38 97 246
3 73 33 105
3 207 70 105
3 112 86 90
3 146 177 90
3 231 213 127
3 27 213 231
3 134 45 67
3 67 229 134
3 185 86 134
3 134 229 185
3 249 83 94
3 112 90 98
3 150 45 134
3 175 23 100
3 11 183 50
3 47 24 104
3 47 21 249
3 104 21 47
3 186 232 24
3 186 133 9
3 24 133 186
3 31 40 155
3 215 26 88
3 136 113 215
3 251 113 136
3 7 128 91
3 212 167 11
3 225 232 233
3 104 232 225
3 225 140 104
3 44 183 11
3 11 167 44
3 44 167 111
3 121 34 110
3 34 244 110
3 111 167 110
3 110 244 111
3 218 177 146
3 121 110 240
3 233 124 130
3 56 16 192
3 192 145 56
3 56 231 16
3 56 145 27
3 27 231 56
3 129 32 22
3 22 214 152
3 152 25 22
3 22 25 129
3 107 41 221
3 221 41 164
3 164 70 221
3 70 99 221
3 20 69 120
3 120 42 20
3 120 69 36
3 20 42 153
3 153 126 29
3 101 69 20
3 36 69 101
3 101 163 36
3 101 234 163
3 62 145 169
3 145 148 169
3 169 38 62
3 148 38 169
3 192 87 243
3 243 148 192
3 97 148 243
3 89 174 81
3 89 41 174
3 222 163 246
3 255 210 107
3 107 221 255
3 65 38 78
3 204 38 65
3 65 108 204
3 122 73 200
3 73 105 200
3 200 164 122
3 200 70 164
3 200 105 70
3 80 98 226
3 226 98 90
3 9 133 226
3 226 133 80
3 178 141 229
3 229 67 178
3 49 127 194
3 49 231 127
3 194 152 49
3 152 214 49
3 49 214 16
3 16 231 49
3 254 77 102
3 102 77 245
3 86 185 199
3 146 90 199
3 199 90 86
3 85 150 134
3 85 86 112
3 134 86 85
3 23 175 61
3 73 23 61
3 61 33 73
3 48 33 61
3 11 50 147
3 147 50 21
3 147 140 11
3 147 21 104
3 104 140 147
3 202 183 207
3 202 50 183
3 202 33 48
3 48 21 202
3 21 50 202
3 207 105 202
3 202 105 33
3 158 133 24
3 158 47 249
3 24 47 158
3 249 94 158
3 26 124 208
3 208 88 26
3 232 186 157
3 9 161 157
3 157 186 9
3 57 157 161
3 233 232 57
3 232 157 57
3 3 31 188
3 188 31 155
3 166 88 40
3 3 203 166
3 215 88 166
3 166 31 3
3 40 31 166
3 166 136 215
3 203 136 166
3 216 136 203
3 216 203 7
3 106 170 63
3 92 170 242
3 180 212 156
3 140 225 156
3 2 110 167
3 2 212 180
3 167 212 2
3 180 240 2
3 2 240 110
3 230 240 171
3 121 240 230
3 93 30 1
3 129 25 72
3 58 82 224
3 114 32 192
3 114 22 32
3 192 16 114
3 16 214 114
3 214 22 114
3 237 206 149
3 123 206 237
3 123 237 19
3 19 18 115
3 95 18 19
3 8 120 36
3 149 206 8
3 8 222 149
3 36 163 8
3 163 222 8
3 42 120 131
3 242 170 247
3 247 42 242
3 247 153 42
3 142 101 20
3 108 101 142
3 20 153 142
3 142 153 29
3 118 108 142
3 142 66 118
3 29 66 142
3 234 101 109
3 109 101 108
3 108 65 109
3 78 234 109
3 109 65 78
3 81 97 190
3 97 243 190
3 190 89 81
3 41 89 190
3 122 41 190
3 190 87 122
3 190 243 87
3 119 222 246
3 210 222 119
3 246 97 119
3 97 210 119
3 149 222 217
3 217 222 210
3 210 255 217
3 217 237 149
3 10 18 95
3 183 18 10
3 60 177 144
3 144 161 60
3 60 90 177
3 60 226 90
3 60 161 9
3 9 226 60
3 189 178 67
3 189 45 194
3 189 67 45
3 194 127 189
3 127 178 189
3 176 84 191
3 176 191 46
3 253 27 176
3 27 84 176
3 46 241 176
3 241 75 176
3 209 139 254
3 209 241 139
3 209 75 241
3 141 14 143
3 143 209 254
3 14 209 143
3 253 176 250
3 250 176 75
3 250 213 253
3 75 209 250
3 250 209 14
3 141 178 52
3 52 14 141
3 52 250 14
3 52 178 127
3 127 213 52
3 213 250 52
3 254 139 55
3 55 77 254
3 139 132 55
3 138 77 55
3 55 132 138
3 146 199 12
3 12 218 146
3 205 218 12
3 193 199 185
3 80 133 172
3 172 17 80
3 133 158 172
3 94 17 172
3 172 158 94
3 197 98 80
3 80 17 197
3 224 150 197
3 197 17 224
3 239 61 175
3 175 58 239
3 239 83 48
3 48 61 239
3 239 94 83
3 125 161 144
3 144 208 125
3 125 57 161
3 125 208 124
3 125 124 233
3 233 57 125
3 252 208 144
3 88 208 252
3 144 177 252
3 177 218 252
3 40 88 252
3 205 40 252
3 252 218 205
3 251 136 162
3 136 216 162
3 106 63 159
3 159 63 91
3 1 196 159
3 196 106 159
3 159 128 1
3 159 91 128
3 170 92 13
3 59 63 13
3 13 63 170
3 13 74 59
3 180 156 103
3 103 240 180
3 171 240 103
3 140 156 39
3 39 156 212
3 11 140 39
3 39 212 11
3 135 113 251
3 121 230 135
3 171 130 35
3 35 230 171
3 35 124 26
3 35 130 124
3 35 135 230
3 26 113 35
3 113 135 35
3 139 241 211
3 211 132 139
3 211 241 46
3 46 79 211
3 211 79 184
3 184 30 96
3 96 211 184
3 132 211 96
3 138 132 96
3 30 93 96
3 96 93 138
3 181 72 25
3 82 72 181
3 100 129 6
3 129 72 6
3 6 175 100
3 53 17 94
3 94 239 53
3 53 239 58
3 224 17 53
3 53 58 224
3 183 44 71
3 71 18 183
3 115 18 71
3 111 115 71
3 71 44 111
3 173 198 123
3 123 19 173
3 173 19 115
3 173 115 220
3 220 198 173
3 242 42 5
3 42 131 5
3 5 92 242
3 123 198 28
3 28 5 131
3 28 198 37
3 37 5 28
3 179 131 120
3 179 28 131
3 179 206 123
3 123 28 179
3 182 170 106
3 182 247 170
3 182 106 196
3 196 126 182
3 126 153 182
3 153 247 182
3 237 217 195
3 95 19 195
3 195 19 237
3 195 217 255
3 195 10 95
3 255 10 195
3 187 255 221
3 187 10 255
3 187 221 99
3 187 99 207
3 207 183 187
3 183 10 187
3 229 141 76
3 141 193 76
3 76 185 229
3 76 193 185
3 4 12 199
3 155 205 4
3 205 12 4
3 150 85 238
3 238 197 150
3 238 85 112
3 112 98 238
3 98 197 238
3 59 74 160
3 7 91 160
3 160 216 7
3 160 162 216
3 160 63 59
3 91 63 160
3 137 5 37
3 92 5 137
3 248 156 225
3 248 103 156
3 248 225 233
3 171 103 248
3 233 130 248
3 248 130 171
3 227 188 245
3 3 188 227
3 1 151 219
3 219 93 1
3 219 236 93
3 82 181 154
3 224 82 154
3 45 150 154
3 154 150 224
3 175 6 165
3 165 6 72
3 165 58 175
3 165 72 82
3 82 58 165
3 120 8 201
3 201 179 120
3 201 8 206
3 206 179 201
3 155 4 116
3 116 188 155
3 116 102 245
3 245 188 116
3 199 193 235
3 235 4 199
3 254 102 235
3 102 116 235
3 235 116 4
3 235 193 141
3 235 143 254
3 141 143 235
3 68 160 74
3 162 160 68
3 251 162 68
3 68 74 121
3 121 135 68
3 68 135 251
3 223 34 121
3 121 74 223
3 223 37 34
3 223 137 37
3 228 227 245
3 236 227 228
3 245 77 228
3 228 77 138
3 138 93 228
3 93 236 228
3 43 227 236
3 236 219 43
3 3 227 43
3 43 219 151
3 43 203 3
3 43 151 7
3 7 203 43
3 45 154 15
3 15 154 181
3 194 45 15
3 15 25 194
3 15 181 25
3 137 223 54
3 54 13 92
3 92 137 54
3 74 13 54
3 54 223 74