ply
format ascii 1.0
comment https://github.com/mikedh/trimesh
element vertex 256
property float x
property float y
property float z
element face 508
property list uchar int vertex_indices
end_header
2.10610676 -2.24305844 -1.18383002
3.20805359 1.07409787 1.18387020
-1.82452548 2.87830472 0.46059549
1.61992884 0.49194548 2.05677676
0.20693628 -1.24134016 2.10348225
1.94694304 2.76754665 -0.60455060
-2.30933428 -2.47252846 -0.78207421
1.94424558 1.63830853 1.64800322
1.59101832 1.83314359 -1.66993308
-3.03751826 -0.05445001 1.51006269
-1.51134729 2.12712765 -1.52145433
-3.07484794 2.16303492 0.02225560
-0.32342169 -1.15049064 2.12295127
1.77026641 2.92202544 0.39534810
1.73606920 -2.80077481 0.72226828
-1.57563305 -3.03601098 0.19631101
-0.08490808 -2.87779856 -1.11997736
-3.53183341 -1.44241452 0.53180933
-1.64544928 2.64778090 -1.00440049
-0.74419844 2.82276559 -1.11007035
2.97642827 1.55453575 -1.11959136
-3.91838884 0.87769204 0.00007059
-0.97183669 -2.90842628 -0.93797213
-2.95142841 -1.51355278 -1.16598248
-3.63778496 0.07494938 1.01251960
-1.35374320 -3.05480146 -0.43203726
-0.69493878 1.86172307 1.83769000
1.83395004 -2.75606632 -0.72767264
1.02815402 2.88376665 -0.95448154
3.78971410 0.82213801 -0.59534913
3.98421192 0.38625446 0.35881293
0.85880661 0.17644629 2.21784496
-1.54653549 -2.32817006 -1.36301446
-3.56284690 -0.31488732 -1.07107496
-0.08374449 3.27870321 0.30010682
-0.80295640 2.23218822 1.61568511
2.11280894 1.37116277 -1.69714558
0.60686761 3.24891710 -0.26003632
1.74964154 -1.03804934 -1.92318428
-2.97699738 2.17057228 0.41222167
0.38041976 0.50240731 2.23599577
-1.56815982 -0.24222919 -2.09028029
2.71522880 2.07822728 -0.90571022
2.28155327 0.49748987 1.84908307
-2.10138154 2.80456972 -0.26997682
-1.41867590 -3.02046585 0.47987095
3.58024836 -1.52753568 -0.23204739
-3.87073445 0.67966431 0.51271182
-3.89126372 -0.19481327 -0.64129019
0.04297560 -3.16301227 -0.66381830
-3.25577021 1.75242853 -0.63286680
3.78552961 -0.62865829 -0.70604986
1.32101417 -3.02281547 0.55331784
-3.52357411 -1.63865161 0.12673734
1.30511630 3.10031939 0.31104362
2.99745035 -1.47586727 1.15284765
0.32147440 -2.65667892 -1.34233153
-2.45634389 1.21706724 1.60572410
-3.17772365 -2.04978061 -0.16508202
2.01457262 2.63357401 0.78774184
-2.46480489 -0.15335089 1.80429637
-3.41495848 -1.32705605 -0.82938761
1.84279418 -1.93876219 -1.52581942
2.57872391 2.26834631 0.81024569
2.61014247 -1.88953948 -1.16129935
2.66282868 -0.65930629 -1.65648484
3.97660875 0.32402918 -0.41491470
-0.75017881 -3.00872016 0.84684575
0.99012518 2.74716783 1.14003813
2.67250514 1.52213275 -1.35529399
-2.70742559 0.41541216 -1.67105448
-1.89897835 2.78879714 -0.60801566
-2.32227612 -2.61952591 -0.48947704
-2.94007087 -1.04979956 -1.39341378
1.09859180 2.94126463 0.84004414
2.76435947 -2.39688492 0.24939933
0.06338090 -2.54253912 1.45305789
2.53449988 -1.37386727 1.50584853
2.30441594 -0.44941971 -1.84603405
3.74604130 -1.16176581 -0.37257397
-2.90459347 -1.00636685 1.43126535
-0.44940016 -0.27791247 -2.25065708
-2.81961584 -2.37602854 -0.11301050
-3.92932677 -0.68751097 -0.33516568
2.58865261 -2.19461322 -0.89155114
-1.96398652 -2.19172144 1.30016100
-1.44307196 -1.94087589 1.65416169
-1.56859839 -1.85847759 -1.66363502
-0.03469190 0.94241965 2.17841315
-1.05256689 -0.27541336 -2.18671083
-1.57642698 -1.43191648 1.84899282
2.76732707 1.83297157 1.08785427
1.85924292 2.94143987 0.03613977
3.42402673 0.03724085 1.22420382
-3.92123556 -0.81331289 0.20622137
-1.06282389 2.42643714 -1.42604935
3.90767813 -0.26030135 0.59774131
0.17368083 -0.55249131 -2.23840690
-2.58663583 -1.40234292 1.46387577
-2.47903728 1.01994073 -1.65951896
-2.43864107 -2.00196552 -1.18821204
2.57471180 0.98516166 -1.62270439
1.36071420 -1.43916619 1.89931500
-2.18323231 2.42529702 0.94770676
-3.62384105 1.11695468 0.68460685
-3.10552835 -0.15025438 -1.46181035
3.40148067 1.68738246 0.45068842
-0.89727992 0.79683328 -2.14776254
3.43801069 -0.12188939 -1.20905519
2.61867237 -0.06173291 -1.73777020
-1.01434171 3.19429588 0.17312972
-0.92912281 3.20314622 -0.22493835
-2.20909500 -1.70001996 1.50877488
-0.12967074 2.00469160 1.80676365
-0.81033564 -2.69771910 -1.23535156
-0.88249207 3.13098025 -0.54182047
0.77821171 -1.14785242 2.08661342
4.03313446 0.40114006 0.01541392
3.80346251 0.06165690 -0.79859632
0.81259304 0.59059799 -2.18926120
2.21232200 1.92972314 -1.36938190
-0.02137569 3.12673783 0.74268502
-2.25672555 -0.79990602 -1.80886447
0.66894871 2.77684355 -1.17692244
-1.55937970 1.55423582 1.80705237
-1.90457106 1.11341345 1.85612345
3.85556579 0.96687376 -0.27988535
0.62841433 -3.26268458 -0.12490596
2.87384272 1.46889114 1.25043213
-1.81097806 -2.67366672 -0.87504232
-1.68716693 2.05336404 1.51180720
1.81930947 2.65551853 -0.89440447
3.59976983 -0.77237707 0.91152841
-3.49799347 -0.34452304 1.13366115
-1.41023111 -2.50080132 1.26102662
-0.28032255 2.38719988 1.56530595
0.36550254 1.82623899 1.88411438
1.37292683 3.11326170 0.00391182
3.47596025 -0.49252346 1.12797916
2.93037581 -1.94033241 0.83900952
-3.40795422 1.63897622 0.51550436
0.79863548 -2.66209579 1.27303481
3.65975928 0.62849182 -0.88821137
1.38287425 -2.46434450 1.30432820
-1.65399837 0.24330020 2.06897569
0.74544090 -2.43964195 -1.47707319
-1.16595924 -1.14044821 2.03109479
-3.56593108 1.58545995 0.03025665
0.76674229 -1.58985555 -1.94654834
0.60390574 1.88654804 -1.83578360
-2.25192380 -2.33435035 1.00331044
2.64223480 1.18041325 1.52451622
-0.70333576 -3.15383625 -0.56034231
3.38528371 1.54157794 -0.67667955
-2.25198746 -2.70605135 0.34927422
0.47277257 -0.35364595 2.24419260
-2.63094974 2.21981621 0.82194012
-2.88904905 0.69629437 1.52490401
-3.77734184 -0.37159058 0.79892164
3.20005751 1.74541593 0.72644740
1.62819314 2.61100888 1.05747080
-2.50586629 0.52184951 1.75291574
0.97369671 2.20545912 1.60400760
1.71077263 0.96184027 -1.95268393
-2.27159572 0.09760508 -1.88350713
-2.77005792 -2.34424806 -0.41449654
0.71939588 1.12303269 2.09975100
-2.07189226 2.84288144 0.08359569
-2.33265591 -1.47968566 -1.55874145
1.37591004 -1.53847647 -1.85902560
2.69621921 2.47427011 -0.06677457
-1.71977663 2.34380746 1.28287446
-3.73654890 -0.87263066 0.66240269
-0.15791208 3.04533982 -0.88224858
-0.66766399 0.43061408 -2.22216702
-3.25785255 -1.77480972 -0.59892917
2.61352229 -2.53251219 -0.04709293
-1.59732604 -0.20333938 2.08507013
0.14924037 -3.13415408 0.72496450
1.44370914 2.54677987 -1.20537698
-2.17429447 2.61426473 0.67819023
-1.84899390 -2.93343306 -0.18576674
3.59955215 1.53340518 0.06506902
-2.84622383 2.06767941 -0.78272778
4.02990246 -0.42230460 -0.05228955
-0.91389143 -2.42916989 1.45523465
-3.35398102 0.09122343 1.28149450
-1.99582314 1.59289670 -1.64983499
1.41473353 -0.21323948 2.12538695
-0.19859242 -3.22878909 0.48191848
-0.63990724 -0.70499557 -2.19122481
3.21448541 -1.79252768 -0.64589715
-0.62135059 -2.37492466 -1.54347706
0.05819569 -2.22508478 1.68139303
-0.46292344 -3.28671455 -0.01994169
-0.47987750 2.36270928 -1.56809723
3.83469796 0.94782382 0.38021657
-2.72945476 -1.98970234 0.98254842
0.44975477 3.05134177 -0.84131557
-0.64354092 -1.60052288 1.95605564
-2.75118351 -0.07846715 -1.67220545
1.36166120 2.28446102 -1.45622158
-3.29283881 1.20782042 -1.04313970
1.39603758 1.34819174 1.92276180
2.80304122 -1.32486248 -1.37035143
-0.28729871 -0.69466197 2.21593928
0.85113323 2.31755400 -1.55013561
-2.86878872 1.02546000 -1.44725788
-1.47292924 0.88271254 2.02924800
2.48188305 -2.36686659 0.76992345
0.17819163 0.77088559 -2.20790386
3.83372974 -1.07551551 0.14988445
-2.47235394 2.56336403 0.39270794
1.17372656 -3.15153480 -0.21391454
-0.41130519 -3.03365231 -0.87698632
0.03140739 1.51333666 2.02054334
1.38542497 1.84311664 1.72067881
0.13600743 1.64182079 -1.97124243
-1.02401519 -0.54435164 2.16747832
2.93168426 0.67767870 1.50399637
0.03206387 3.28197622 -0.28609946
-2.07641268 0.76074547 -1.88288593
1.06587446 1.02065480 -2.07776070
0.75311100 3.20048428 0.39563736
-3.04535270 -2.11078334 0.40359187
-2.95731592 1.64074969 1.07598734
-2.74188113 -0.48938823 1.64337575
2.20542145 -0.08239925 1.90788817
2.96442866 -0.19113111 1.54854321
-0.24690484 -2.75880814 1.24674523
-0.77961445 2.55377531 1.37675953
0.58925408 -3.15606904 -0.59588534
-2.96392274 1.13202834 1.34623480
-2.14278388 1.73010910 1.52187347
2.23485923 0.24893697 -1.89045393
0.38844600 -1.93953180 1.82807004
2.92216635 0.23683286 1.57141292
0.20527463 2.38035345 -1.57408786
-2.40291548 -1.97964311 1.22904527
-3.66671133 -1.22424436 -0.50417566
-1.21405268 2.90237999 0.85298306
3.12678695 -2.05491638 0.33630455
2.48145437 2.54394174 -0.42957300
-0.30019525 -1.15641379 -2.12255335
-0.40123841 3.29153872 0.00737373
2.07333708 -0.86217088 1.86261916
1.20900357 0.27810109 -2.16119194
3.13957191 2.03810120 -0.34653056
-2.34939861 2.07268834 1.18758202
-4.04213238 -0.05709867 0.23071685
1.86460900 -2.91688108 0.25143504
0.41898173 2.27882838 1.63034725
-1.01665187 0.44064838 2.17942929
1.96465397 -2.88347340 -0.18325736
1.61688447 -2.13284540 1.48314059
-0.70966971 1.24618208 -2.06723142
3 249 48 83
3 64 0 62
3 220 34 37
3 64 62 204
3 204 191 64
3 51 191 204
3 213 27 253
3 21 48 249
3 104 24 232
3 40 205 155
3 7 151 128
3 128 151 1
3 115 111 220
3 220 111 244
3 244 34 220
3 113 26 215
3 117 184 66
3 66 51 118
3 184 51 66
3 117 196 30
3 30 184 117
3 30 196 1
3 64 191 84
3 84 0 64
3 84 27 0
3 46 191 79
3 79 191 51
3 79 51 184
3 168 87 100
3 100 23 168
3 168 23 73
3 168 73 122
3 122 87 168
3 25 152 194
3 32 87 192
3 100 87 32
3 32 129 100
3 145 62 0
3 0 27 145
3 220 37 198
3 99 70 207
3 78 246 234
3 246 163 234
3 118 51 108
3 51 204 108
3 126 196 117
3 117 66 126
3 126 66 29
3 148 145 192
3 107 174 41
3 122 164 41
3 81 174 210
3 210 174 107
3 210 97 81
3 38 204 62
3 38 148 97
3 38 246 78
3 38 97 246
3 73 33 105
3 207 70 105
3 112 86 90
3 146 177 90
3 231 213 127
3 27 213 231
3 134 45 67
3 67 229 134
3 185 86 134
3 134 229 185
3 249 83 94
3 112 90 98
3 150 45 134
3 175 23 100
3 11 183 50
3 47 24 104
3 47 21 249
3 104 21 47
3 186 232 24
3 186 133 9
3 24 133 186
3 31 40 155
3 215 26 88
3 136 113 215
3 251 113 136
3 7 128 91
3 212 167 11
3 225 232 233
3 104 232 225
3 225 140 104
3 44 183 11
3 11 167 44
3 44 167 111
3 121 34 110
3 34 244 110
3 111 167 110
3 110 244 111
3 218 177 146
3 121 110 240
3 233 124 130
3 56 16 192
3 192 145 56
3 56 231 16
3 56 145 27
3 27 231 56
3 129 32 22
3 22 214 152
3 152 25 22
3 22 25 129
3 107 41 221
3 221 41 164
3 164 70 221
3 70 99 221
3 20 69 120
3 120 42 20
3 120 69 36
3 20 42 153
3 153 126 29
3 101 69 20
3 36 69 101
3 101 163 36
3 101 234 163
3 62 145 169
3 145 148 169
3 169 38 62
3 148 38 169
3 192 87 243
3 243 148 192
3 97 148 243
3 89 174 81
3 89 41 174
3 222 163 246
3 255 210 107
3 107 221 255
3 65 38 78
3 204 38 65
3 65 108 204
3 122 73 200
3 73 105 200
3 200 164 122
3 200 70 164
3 200 105 70
3 80 98 226
3 226 98 90
3 9 133 226
3 226 133 80
3 178 141 229
3 229 67 178
3 49 127 194
3 49 231 127
3 194 152 49
3 152 214 49
3 49 214 16
3 16 231 49
3 254 77 102
3 102 77 245
3 86 185 199
3 146 90 199
3 199 90 86
3 85 150 134
3 85 86 112
3 134 86 85
3 23 175 61
3 73 23 61
3 61 33 73
3 48 33 61
3 11 50 147
3 147 50 21
3 147 140 11
3 147 21 104
3 104 140 147
3 202 183 207
3 202 50 183
3 202 33 48
3 48 21 202
3 21 50 202
3 207 105 202
3 202 105 33
3 158 133 24
3 158 47 249
3 24 47 158
3 249 94 158
3 26 124 208
3 208 88 26
3 232 186 157
3 9 161 157
3 157 186 9
3 57 157 161
3 233 232 57
3 232 157 57
3 3 31 188
3 188 31 155
3 166 88 40
3 3 203 166
3 215 88 166
3 166 31 3
3 40 31 166
3 166 136 215
3 203 136 166
3 216 136 203
3 216 203 7
3 106 170 63
3 92 170 242
3 180 212 156
3 140 225 156
3 2 110 167
3 2 212 180
3 167 212 2
3 180 240 2
3 2 240 110
3 230 240 171
3 121 240 230
3 93 30 1
3 129 25 72
3 58 82 224
3 114 32 192
3 114 22 32
3 192 16 114
3 16 214 114
3 214 22 114
3 237 206 149
3 123 206 237
3 123 237 19
3 19 18 115
3 95 18 19
3 8 120 36
3 149 206 8
3 8 222 149
3 36 163 8
3 163 222 8
3 42 120 131
3 242 170 247
3 247 42 242
3 247 153 42
3 142 101 20
3 108 101 142
3 20 153 142
3 142 153 29
3 118 108 142
3 142 66 118
3 29 66 142
3 234 101 109
3 109 101 108
3 108 65 109
3 78 234 109
3 109 65 78
3 81 97 190
3 97 243 190
3 190 89 81
3 41 89 190
3 122 41 190
3 190 87 122
3 190 243 87
3 119 222 246
3 210 222 119
3 246 97 119
3 97 210 119
3 149 222 217
3 217 222 210
3 210 255 217
3 217 237 149
3 10 18 95
3 183 18 10
3 60 177 144
3 144 161 60
3 60 90 177
3 60 226 90
3 60 161 9
3 9 226 60
3 189 178 67
3 189 45 194
3 189 67 45
3 194 127 189
3 127 178 189
3 176 84 191
3 176 191 46
3 253 27 176
3 27 84 176
3 46 241 176
3 241 75 176
3 209 139 254
3 209 241 139
3 209 75 241
3 141 14 143
3 143 209 254
3 14 209 143
3 253 176 250
3 250 176 75
3 250 213 253
3 75 209 250
3 250 209 14
3 141 178 52
3 52 14 141
3 52 250 14
3 52 178 127
3 127 213 52
3 213 250 52
3 254 139 55
3 55 77 254
3 139 132 55
3 138 77 55
3 55 132 138
3 146 199 12
3 12 218 146
3 205 218 12
3 193 199 185
3 80 133 172
3 172 17 80
3 133 158 172
3 94 17 172
3 172 158 94
3 197 98 80
3 80 17 197
3 224 150 197
3 197 17 224
3 239 61 175
3 175 58 239
3 239 83 48
3 48 61 239
3 239 94 83
3 125 161 144
3 144 208 125
3 125 57 161
3 125 208 124
3 125 124 233
3 233 57 125
3 252 208 144
3 88 208 252
3 144 177 252
3 177 218 252
3 40 88 252
3 205 40 252
3 252 218 205
3 251 136 162
3 136 216 162
3 106 63 159
3 159 63 91
3 1 196 159
3 196 106 159
3 159 128 1
3 159 91 128
3 170 92 13
3 59 63 13
3 13 63 170
3 13 74 59
3 180 156 103
3 103 240 180
3 171 240 103
3 140 156 39
3 39 156 212
3 11 140 39
3 39 212 11
3 135 113 251
3 121 230 135
3 171 130 35
3 35 230 171
3 35 124 26
3 35 130 124
3 35 135 230
3 26 113 35
3 113 135 35
3 139 241 211
3 211 132 139
3 211 241 46
3 46 79 211
3 211 79 184
3 184 30 96
3 96 211 184
3 132 211 96
3 138 132 96
3 30 93 96
3 96 93 138
3 181 72 25
3 82 72 181
3 100 129 6
3 129 72 6
3 6 175 100
3 53 17 94
3 94 239 53
3 53 239 58
3 224 17 53
3 53 58 224
3 183 44 71
3 71 18 183
3 115 18 71
3 111 115 71
3 71 44 111
3 173 198 123
3 123 19 173
3 173 19 115
3 173 115 220
3 220 198 173
3 242 42 5
3 42 131 5
3 5 92 242
3 123 198 28
3 28 5 131
3 28 198 37
3 37 5 28
3 179 131 120
3 179 28 131
3 179 206 123
3 123 28 179
3 182 170 106
3 182 247 170
3 182 106 196
3 196 126 182
3 126 153 182
3 153 247 182
3 237 217 195
3 95 19 195
3 195 19 237
3 195 217 255
3 195 10 95
3 255 10 195
3 187 255 221
3 187 10 255
3 187 221 99
3 187 99 207
3 207 183 187
3 183 10 187
3 229 141 76
3 141 193 76
3 76 185 229
3 76 193 185
3 4 12 199
3 155 205 4
3 205 12 4
3 150 85 238
3 238 197 150
3 238 85 112
3 112 98 238
3 98 197 238
3 59 74 160
3 7 91 160
3 160 216 7
3 160 162 216
3 160 63 59
3 91 63 160
3 137 5 37
3 92 5 137
3 248 156 225
3 248 103 156
3 248 225 233
3 171 103 248
3 233 130 248
3 248 130 171
3 227 188 245
3 3 188 227
3 1 151 219
3 219 93 1
3 219 236 93
3 82 181 154
3 224 82 154
3 45 150 154
3 154 150 224
3 175 6 165
3 165 6 72
3 165 58 175
3 165 72 82
3 82 58 165
3 120 8 201
3 201 179 120
3 201 8 206
3 206 179 201
3 155 4 116
3 116 188 155
3 116 102 245
3 245 188 116
3 199 193 235
3 235 4 199
3 254 102 235
3 102 116 235
3 235 116 4
3 235 193 141
3 235 143 254
3 141 143 235
3 68 160 74
3 162 160 68
3 251 162 68
3 68 74 121
3 121 135 68
3 68 135 251
3 223 34 121
3 121 74 223
3 223 37 34
3 223 137 37
3 228 227 245
3 236 227 228
3 245 77 228
3 228 77 138
3 138 93 228
3 93 236 228
3 43 227 236
3 236 219 43
3 3 227 43
3 43 219 151
3 43 203 3
3 43 151 7
3 7 203 43
3 45 154 15
3 15 154 181
3 194 45 15
3 15 25 194
3 15 181 25
3 137 223 54
3 54 13 92
3 92 137 54
3 74 13 54
3 54 223 74