ply
format ascii 1.0
comment https://github.com/mikedh/trimesh
element vertex 256
property float x
property float y
property float z
element face 508
property list uchar int vertex_indices
end_header
0.65149415 -1.67711818 -2.01053429
0.99236578 0.80309504 2.01060247
-0.56439102 2.15208721 0.78224325
0.50110191 0.36782399 3.49308634
0.06401280 -0.92814082 3.57240748
0.60225910 2.06927419 -1.02672660
-0.71435970 -1.84869123 -1.32822025
0.60142469 1.22495115 2.79885387
0.49215889 1.37062788 -2.83609796
-0.93961304 -0.04071186 2.56458521
-0.46751377 1.59043753 -2.58393192
-0.95116043 1.61728513 0.03779737
-0.10004590 -0.86021334 3.60547233
0.54760671 2.18477678 0.67143166
0.53702831 -2.09411836 1.22665012
-0.48739967 -2.27000284 0.33340093
-0.02626510 -2.15170860 -1.90209138
-1.09252238 -1.07848263 0.90318787
-0.50899631 1.97972608 -1.70580363
-0.23020720 2.11056089 -1.88526618
0.92071575 1.16231489 -1.90143585
-1.21209788 0.65624380 0.00011988
-0.30062386 -2.17460871 -1.59298646
-0.91298234 -1.13167214 -1.98022342
-1.12529695 0.05603910 1.71959281
-0.41876122 -2.28405237 -0.73374194
-0.21496943 1.39199650 3.12100458
0.56730634 -2.06069040 -1.23582852
0.31804481 2.15617085 -1.62102485
1.17229414 0.61470646 -1.01109946
1.23245931 0.28879958 0.60938287
0.26565960 0.13192758 3.76663327
-0.47839877 -1.74075556 -2.31484866
-1.10211599 -0.23543890 -1.81903899
-0.02590517 2.45146203 0.50968051
-0.24838313 1.66899061 2.74396682
0.65356743 1.02520823 -2.88231349
0.18772586 2.42919111 -0.44162756
0.54122669 -0.77614182 -3.26620197
-0.92089182 1.62292087 0.70008850
0.11767744 0.37564620 3.79745936
-0.48508790 -0.18111297 -3.54998612
0.83991742 1.55387509 -1.53819501
0.70576602 0.37196949 3.14035368
-0.65003246 2.09695601 -0.45850980
-0.43884718 -2.25837994 0.81497937
1.10749888 -1.14212704 -0.39409310
-1.19735658 0.50817996 0.87075400
-1.20370710 -0.14566043 -1.08912253
0.01329389 -2.36496091 -1.12738276
-1.00712621 1.31027782 -1.07481682
1.17099977 -0.47004315 -1.19910586
0.40863696 -2.26013684 0.93971640
-1.08996749 -1.22520769 0.21524186
0.40371916 2.31808591 0.52825481
0.92721862 -1.10349500 1.95791614
0.09944353 -1.98637915 -2.27972221
-0.75983506 0.90999216 2.72704983
-0.98298359 -1.53260577 -0.28036380
0.62317938 1.96910369 1.33784580
-0.76245230 -0.11465932 3.06429124
-1.05636883 -0.99223000 -1.40857399
0.57004213 -1.44959807 -2.59134531
0.79769152 1.69602561 1.37606478
0.80741042 -1.41279471 -1.97226989
0.82370812 -0.49295843 -2.81325841
1.23010731 0.24227421 -0.70466220
-0.23205714 -2.24959779 1.43822372
0.30628115 2.05403709 1.93616128
0.82670146 1.13808739 -2.30173683
-0.83750361 0.31060061 -2.83800244
-0.58742195 2.08516288 -1.03261137
-0.71836311 -1.95860004 -0.83129370
-0.90946907 -0.78492737 -2.36647677
0.33983374 2.19916177 1.42667234
0.85511523 -1.79213309 0.42356244
0.01960598 -1.90103757 2.46777225
0.78401142 -1.02723038 2.55742812
0.71283829 -0.33602780 -3.13517547
1.15878451 -0.86864370 -0.63275361
-0.89849466 -0.75245303 2.43076134
-0.13901554 -0.20779310 -3.82235885
-0.87220800 -1.77653885 -0.19192916
-1.21548128 -0.51404685 -0.56922203
0.80076283 -1.64089596 -1.51414824
-0.60753125 -1.63873398 2.20810270
-0.44639379 -1.45117855 2.80931282
-0.48522359 -1.38956988 -2.82540154
-0.01073145 0.70464021 3.69966483
-0.32559657 -0.20592453 -3.71375704
-0.48764524 -1.07063329 3.14020038
0.85603327 1.37049925 1.84753585
0.57513034 2.19929266 0.06137726
1.05917394 0.02784470 2.07910252
-1.21297848 -0.60810804 0.35023201
-0.32876948 1.81422901 -2.42190289
1.20878458 -0.19462539 1.01516223
0.05372569 -0.41309366 -3.80155396
-0.80013901 -1.04852140 2.48614454
-0.76685488 0.76260209 -2.81841135
-0.75435889 -1.49685490 -2.01797652
0.79645050 0.73659807 -2.75588799
0.42091757 -1.07605386 3.22566414
-0.67535186 1.81337667 1.60951900
-1.12098372 0.83513868 1.16268849
-0.96065104 -0.11234409 -2.48263693
1.05219960 1.26164329 0.76541775
-0.27756077 0.59578633 -3.64761019
1.06349969 -0.09113579 -2.05337501
0.81004900 -0.04615724 -2.95130754
-0.31377217 2.38835144 0.29403144
-0.28741091 2.39496851 -0.38201958
-0.68335205 -1.27109230 2.56239796
-0.04011180 1.49889302 3.06848145
-0.25066578 -2.01706457 -2.09803510
-0.27298635 2.34101081 -0.92019004
0.24072872 -0.85824072 3.54375863
1.24759281 0.29992944 0.02617793
1.17654693 0.04610041 -1.35628021
0.25136408 0.44158575 -3.71808863
0.68435031 1.44283974 -2.32566285
-0.00661226 2.33783865 1.26132441
-0.69808590 -0.59808379 -3.07204914
0.20692976 2.07622528 -1.99880302
-0.48237190 1.16209066 3.06897163
-0.58915192 0.83249092 3.15231061
1.19266438 0.72292435 -0.47533774
0.19439103 -2.43948507 -0.21213157
0.88898236 1.09827900 2.12364674
-0.56020027 -1.99908078 -1.48611081
-0.52190107 1.53528500 2.56754804
0.56277752 1.98551166 -1.51899421
1.11353755 -0.57750064 1.54807627
-1.08205450 -0.25759733 1.92533088
-0.43623492 -1.86983073 2.14163971
-0.08671379 1.78489161 2.65840650
0.11306301 1.36546540 3.19984841
0.42469540 2.32776260 0.00664356
1.07523882 -0.36825615 1.91568124
0.90647006 -1.45077217 1.42491519
-1.05420220 1.22545040 0.87549663
0.24704652 -1.99042928 2.16203356
1.13209450 0.46991867 -1.50847626
0.42777249 -1.84257221 2.21517992
-0.51164085 0.18191375 3.51380396
0.23059152 -1.82410228 -2.50855827
-0.36067292 -0.85270464 3.44946980
-1.10307002 1.18543673 0.05138578
0.23718081 -1.18872321 -3.30588198
0.18680966 1.41055799 -3.11776686
-0.69660062 -1.74537647 1.70395255
0.81733775 0.88258618 2.58913207
-0.21756691 -2.35809994 -0.95164627
1.04718935 1.15262640 -1.14922535
-0.69662029 -2.02329445 0.59318298
0.14624546 -0.26441845 3.81138015
-0.81384683 1.65974009 1.39592576
-0.89368618 0.52061415 2.58979058
-1.16846693 -0.27783552 1.35683286
0.98989224 1.30503452 1.23374760
0.50365835 1.95223200 1.79593456
-0.77515405 0.39018300 2.97702980
0.30119923 1.64900541 2.72413468
0.52920318 0.71916085 -3.31630230
-0.70268577 0.07297859 -3.19881725
-0.85687798 -1.75277698 -0.70395201
0.22253488 0.83968318 3.56607056
-0.64091039 2.12560153 0.14197309
-0.72157395 -1.10634995 -2.64725757
0.42561817 -1.15030742 -3.15723944
0.83403707 1.84999347 -0.11340527
-0.53198844 1.75244749 2.17874455
-1.15584815 -0.65245950 1.12497854
-0.04884785 2.27697802 -1.49834943
-0.20653234 0.32196695 -3.77397370
-1.00777030 -1.32701206 -1.01717949
0.80845594 -1.89354050 -0.07997935
-0.49411008 -0.15203536 3.54113746
0.04616539 -2.34338379 1.23122919
0.44659087 1.90420842 -2.04712820
-0.67258710 1.95466638 1.15179098
-0.57195997 -2.19330597 -0.31549329
1.11347020 1.14651573 0.11050868
-0.88043886 1.54598856 -1.32933033
1.24659288 -0.31575403 -0.08880493
-0.28269932 -1.81627226 2.47146893
-1.03750634 0.06820709 2.17640090
-0.61737949 1.19099700 -2.80196476
0.43762770 -0.15943758 3.60960913
-0.06143174 -2.41414165 0.81845677
-0.19794619 -0.52711999 -3.72142339
0.99435538 -1.34025967 -1.09694660
-0.19220597 -1.77571344 -2.62133384
0.01800201 -1.66367948 2.85556078
-0.14319877 -2.45745206 -0.03386757
-0.14844328 1.76658022 -2.66314697
1.18620932 0.70868081 0.64573330
-0.84431797 -1.48768568 1.66869164
0.13912524 2.28146553 -1.42883170
-0.19907023 -1.19669902 3.32202864
-0.85103947 -0.05866931 -2.83995724
0.42121053 1.70807457 -2.47314501
-1.01859283 0.90307838 -1.77159572
0.43184435 1.00803304 3.26548457
0.86708093 -0.99058986 -2.32730937
-0.08887177 -0.51939362 3.76339674
0.26328596 1.73281801 -2.63264227
-0.88741899 0.76672882 -2.45792174
-0.45562968 0.65999764 3.44633341
0.76773518 -1.76968849 1.30758429
0.05512105 0.57638544 -3.74974966
1.18590975 -0.80415499 0.25455329
-0.76478750 1.91660833 0.66694778
0.36307558 -2.35637927 -0.36329752
-0.12723140 -2.26823950 -1.48941243
0.00971543 1.13151062 3.43155003
0.42856151 1.37808466 2.92228103
0.04207196 1.22757721 -3.34782052
-0.31676453 -0.40700769 3.68109393
0.90687478 0.50669533 2.55428267
0.00991850 2.45390940 -0.48589140
-0.64230871 0.56880379 -3.19776201
0.32971311 0.76313609 -3.52872396
0.23296417 2.39297819 0.67192292
-0.94203651 -1.57821703 0.68543231
-0.91480362 1.22677636 1.82738185
-0.84816188 -0.36591196 2.79099464
0.68221575 -0.06160931 3.24022412
0.91700381 -0.14290732 2.62993789
-0.07637650 -2.06274033 2.11738515
-0.24116263 1.90943885 2.33819246
0.18227737 -2.35976934 -1.01201010
-0.91684735 0.84640914 2.28635144
-0.66283971 1.29358971 2.58464384
0.69132191 0.18612832 -3.21061516
0.12016024 -1.45017362 3.10466671
0.90393060 0.17707817 2.66877818
0.06349879 1.77977264 -2.67332101
-0.74330777 -1.48016441 2.08732462
-1.13424492 -0.91535842 -0.85625678
-0.37554994 2.17008805 1.44864690
0.96722704 -1.53644574 0.57115614
0.76760262 1.90208638 -0.72955680
-0.09286112 -0.86464202 -3.60479665
-0.12411739 2.46105909 0.01252303
0.64135730 -0.64463878 3.16334248
0.37398803 0.20793413 -3.67041779
0.97118187 1.52387321 -0.58852333
-0.72675306 1.54973376 2.01690650
-1.25037611 -0.04269225 0.39183339
0.57679027 -2.18093038 0.42701975
0.12960604 1.70386302 2.76886797
-0.31448680 0.32946953 3.70139074
0.60773772 -2.15595174 -0.31123149
0.50016016 -1.59471273 2.51886249
-0.21952622 0.93176109 -3.51084185
3 249 48 83
3 64 0 62
3 220 34 37
3 64 62 204
3 204 191 64
3 51 191 204
3 213 27 253
3 21 48 249
3 104 24 232
3 40 205 155
3 7 151 128
3 128 151 1
3 115 111 220
3 220 111 244
3 244 34 220
3 113 26 215
3 117 184 66
3 66 51 118
3 184 51 66
3 117 196 30
3 30 184 117
3 30 196 1
3 64 191 84
3 84 0 64
3 84 27 0
3 46 191 79
3 79 191 51
3 79 51 184
3 168 87 100
3 100 23 168
3 168 23 73
3 168 73 122
3 122 87 168
3 25 152 194
3 32 87 192
3 100 87 32
3 32 129 100
3 145 62 0
3 0 27 145
3 220 37 198
3 99 70 207
3 78 246 234
3 246 163 234
3 118 51 108
3 51 204 108
3 126 196 117
3 117 66 126
3 126 66 29
3 148 145 192
3 107 174 41
3 122 164 41
3 81 174 210
3 210 174 107
3 210 97 81
3 38 204 62
3 38 148 97
3 38 246 78
3 38 97 246
3 73 33 105
3 207 70 105
3 112 86 90
3 146 177 90
3 231 213 127
3 27 213 231
3 134 45 67
3 67 229 134
3 185 86 134
3 134 229 185
3 249 83 94
3 112 90 98
3 150 45 134
3 175 23 100
3 11 183 50
3 47 24 104
3 47 21 249
3 104 21 47
3 186 232 24
3 186 133 9
3 24 133 186
3 31 40 155
3 215 26 88
3 136 113 215
3 251 113 136
3 7 128 91
3 212 167 11
3 225 232 233
3 104 232 225
3 225 140 104
3 44 183 11
3 11 167 44
3 44 167 111
3 121 34 110
3 34 244 110
3 111 167 110
3 110 244 111
3 218 177 146
3 121 110 240
3 233 124 130
3 56 16 192
3 192 145 56
3 56 231 16
3 56 145 27
3 27 231 56
3 129 32 22
3 22 214 152
3 152 25 22
3 22 25 129
3 107 41 221
3 221 41 164
3 164 70 221
3 70 99 221
3 20 69 120
3 120 42 20
3 120 69 36
3 20 42 153
3 153 126 29
3 101 69 20
3 36 69 101
3 101 163 36
3 101 234 163
3 62 145 169
3 145 148 169
3 169 38 62
3 148 38 169
3 192 87 243
3 243 148 192
3 97 148 243
3 89 174 81
3 89 41 174
3 222 163 246
3 255 210 107
3 107 221 255
3 65 38 78
3 204 38 65
3 65 108 204
3 122 73 200
3 73 105 200
3 200 164 122
3 200 70 164
3 200 105 70
3 80 98 226
3 226 98 90
3 9 133 226
3 226 133 80
3 178 141 229
3 229 67 178
3 49 127 194
3 49 231 127
3 194 152 49
3 152 214 49
3 49 214 16
3 16 231 49
3 254 77 102
3 102 77 245
3 86 185 199
3 146 90 199
3 199 90 86
3 85 150 134
3 85 86 112
3 134 86 85
3 23 175 61
3 73 23 61
3 61 33 73
3 48 33 61
3 11 50 147
3 147 50 21
3 147 140 11
3 147 21 104
3 104 140 147
3 202 183 207
3 202 50 183
3 202 33 48
3 48 21 202
3 21 50 202
3 207 105 202
3 202 105 33
3 158 133 24
3 158 47 249
3 24 47 158
3 249 94 158
3 26 124 208
3 208 88 26
3 232 186 157
3 9 161 157
3 157 186 9
3 57 157 161
3 233 232 57
3 232 157 57
3 3 31 188
3 188 31 155
3 166 88 40
3 3 203 166
3 215 88 166
3 166 31 3
3 40 31 166
3 166 136 215
3 203 136 166
3 216 136 203
3 216 203 7
3 106 170 63
3 92 170 242
3 180 212 156
3 140 225 156
3 2 110 167
3 2 212 180
3 167 212 2
3 180 240 2
3 2 240 110
3 230 240 171
3 121 240 230
3 93 30 1
3 129 25 72
3 58 82 224
3 114 32 192
3 114 22 32
3 192 16 114
3 16 214 114
3 214 22 114
3 237 206 149
3 123 206 237
3 123 237 19
3 19 18 115
3 95 18 19
3 8 120 36
3 149 206 8
3 8 222 149
3 36 163 8
3 163 222 8
3 42 120 131
3 242 170 247
3 247 42 242
3 247 153 42
3 142 101 20
3 108 101 142
3 20 153 142
3 142 153 29
3 118 108 142
3 142 66 118
3 29 66 142
3 234 101 109
3 109 101 108
3 108 65 109
3 78 234 109
3 109 65 78
3 81 97 190
3 97 243 190
3 190 89 81
3 41 89 190
3 122 41 190
3 190 87 122
3 190 243 87
3 119 222 246
3 210 222 119
3 246 97 119
3 97 210 119
3 149 222 217
3 217 222 210
3 210 255 217
3 217 237 149
3 10 18 95
3 183 18 10
3 60 177 144
3 144 161 60
3 60 90 177
3 60 226 90
3 60 161 9
3 9 226 60
3 189 178 67
3 189 45 194
3 189 67 45
3 194 127 189
3 127 178 189
3 176 84 191
3 176 191 46
3 253 27 176
3 27 84 176
3 46 241 176
3 241 75 176
3 209 139 254
3 209 241 139
3 209 75 241
3 141 14 143
3 143 209 254
3 14 209 143
3 253 176 250
3 250 176 75
3 250 213 253
3 75 209 250
3 250 209 14
3 141 178 52
3 52 14 141
3 52 250 14
3 52 178 127
3 127 213 52
3 213 250 52
3 254 139 55
3 55 77 254
3 139 132 55
3 138 77 55
3 55 132 138
3 146 199 12
3 12 218 146
3 205 218 12
3 193 199 185
3 80 133 172
3 172 17 80
3 133 158 172
3 94 17 172
3 172 158 94
3 197 98 80
3 80 17 197
3 224 150 197
3 197 17 224
3 239 61 175
3 175 58 239
3 239 83 48
3 48 61 239
3 239 94 83
3 125 161 144
3 144 208 125
3 125 57 161
3 125 208 124
3 125 124 233
3 233 57 125
3 252 208 144
3 88 208 252
3 144 177 252
3 177 218 252
3 40 88 252
3 205 40 252
3 252 218 205
3 251 136 162
3 136 216 162
3 106 63 159
3 159 63 91
3 1 196 159
3 196 106 159
3 159 128 1
3 159 91 128
3 170 92 13
3 59 63 13
3 13 63 170
3 13 74 59
3 180 156 103
3 103 240 180
3 171 240 103
3 140 156 39
3 39 156 212
3 11 140 39
3 39 212 11
3 135 113 251
3 121 230 135
3 171 130 35
3 35 230 171
3 35 124 26
3 35 130 124
3 35 135 230
3 26 113 35
3 113 135 35
3 139 241 211
3 211 132 139
3 211 241 46
3 46 79 211
3 211 79 184
3 184 30 96
3 96 211 184
3 132 211 96
3 138 132 96
3 30 93 96
3 96 93 138
3 181 72 25
3 82 72 181
3 100 129 6
3 129 72 6
3 6 175 100
3 53 17 94
3 94 239 53
3 53 239 58
3 224 17 53
3 53 58 224
3 183 44 71
3 71 18 183
3 115 18 71
3 111 115 71
3 71 44 111
3 173 198 123
3 123 19 173
3 173 19 115
3 173 115 220
3 220 198 173
3 242 42 5
3 42 131 5
3 5 92 242
3 123 198 28
3 28 5 131
3 28 198 37
3 37 5 28
3 179 131 120
3 179 28 131
3 179 206 123
3 123 28 179
3 182 170 106
3 182 247 170
3 182 106 196
3 196 126 182
3 126 153 182
3 153 247 182
3 237 217 195
3 95 19 195
3 195 19 237
3 195 217 255
3 195 10 95
3 255 10 195
3 187 255 221
3 187 10 255
3 187 221 99
3 187 99 207
3 207 183 187
3 183 10 187
3 229 141 76
3 141 193 76
3 76 185 229
3 76 193 185
3 4 12 199
3 155 205 4
3 205 12 4
3 150 85 238
3 238 197 150
3 238 85 112
3 112 98 238
3 98 197 238
3 59 74 160
3 7 91 160
3 160 216 7
3 160 162 216
3 160 63 59
3 91 63 160
3 137 5 37
3 92 5 137
3 248 156 225
3 248 103 156
3 248 225 233
3 171 103 248
3 233 130 248
3 248 130 171
3 227 188 245
3 3 188 227
3 1 151 219
3 219 93 1
3 219 236 93
3 82 181 154
3 224 82 154
3 45 150 154
3 154 150 224
3 175 6 165
3 165 6 72
3 165 58 175
3 165 72 82
3 82 58 165
3 120 8 201
3 201 179 120
3 201 8 206
3 206 179 201
3 155 4 116
3 116 188 155
3 116 102 245
3 245 188 116
3 199 193 235
3 235 4 199
3 254 102 235
3 102 116 235
3 235 116 4
3 235 193 141
3 235 143 254
3 141 143 235
3 68 160 74
3 162 160 68
3 251 162 68
3 68 74 121
3 121 135 68
3 68 135 251
3 223 34 121
3 121 74 223
3 223 37 34
3 223 137 37
3 228 227 245
3 236 227 228
3 245 77 228
3 228 77 138
3 138 93 228
3 93 236 228
3 43 227 236
3 236 219 43
3 3 227 43
3 43 219 151
3 43 203 3
3 43 151 7
3 7 203 43
3 45 154 15
3 15 154 181
3 194 45 15
3 15 25 194
3 15 181 25
3 137 223 54
3 54 13 92
3 92 137 54
3 74 13 54
3 54 223 74