ply
format ascii 1.0
comment https://github.com/mikedh/trimesh
element vertex 256
property float x
property float y
property float z
element face 508
property list uchar int vertex_indices
end_header
-1.09389317 0.92542738 2.80149674
2.06180358 -1.77968359 -1.02394748
0.90305871 1.69230497 2.23433566
-1.26377690 -2.13535619 1.21097612
-1.55931664 -2.21152639 -0.30918789
0.99201441 -2.10506034 1.51325119
0.18123525 1.99909294 1.98775530
1.85339868 1.27271581 -2.08841038
-1.81782758 0.76230019 2.48482037
-2.07284999 0.90186065 2.19012189
-2.42967391 1.51098323 -0.90217644
-1.39264882 -0.54286361 -2.83040166
2.65826082 0.65867209 -1.62135220
-0.44673836 -2.33214140 1.20655251
1.30213523 -0.70236063 -2.81666732
0.23551242 -1.37029588 2.71080232
-2.66953087 0.36463070 1.74808681
2.84750390 -0.94396669 -0.91666895
1.34344232 -2.26147938 -0.60378265
-0.86444080 -2.44440031 -0.19125019
-2.61344147 1.47609532 0.22386004
-2.23774529 -0.14335582 -2.31569314
-0.13990054 0.43855366 -3.17876482
-0.33460173 -2.36758566 -1.12991512
-0.74166387 -2.18616533 1.47451282
2.43067670 -0.08656231 -2.11670804
-1.15456033 -1.84756172 1.89464760
1.49249256 -0.67211729 2.73203778
2.31137872 1.57178116 1.03599823
2.78761983 -0.06758486 -1.61606717
-1.06811786 -1.36813402 -2.50334001
-1.10751998 -1.66931856 -2.16834307
-3.08248067 0.29863125 -0.85739416
-2.26054907 0.57036561 -2.18326211
0.66748118 -1.96844709 -1.93129551
2.27905941 0.60631347 -2.14870667
-0.43448746 2.17508674 -1.61699152
-1.06339633 1.97639573 -1.73039234
-2.92698669 -0.29861963 -1.29301214
0.49542335 0.81196034 -3.02066898
0.40231311 -1.82044613 2.21855354
-2.00174427 -1.94966888 0.51400578
-1.04621303 0.51264846 2.98531508
-2.44594789 -0.58079809 -1.96677887
-0.25245035 0.61691684 3.12394190
0.93649888 -1.16187871 -2.71518350
-2.11544585 -1.91020215 -0.20220265
1.44879425 -1.88851953 -1.60253656
-2.43807387 -1.61505079 -0.48943126
2.26923513 -0.52015990 2.19427109
2.74611497 0.87770444 1.26545751
1.69140494 -2.15867758 0.17471029
0.90696222 -2.42291784 0.36613259
0.38135126 2.51787043 0.24149980
-1.87069666 -2.02763772 -0.52450764
2.36718202 1.12413847 1.66070068
-3.09966612 0.68451989 -0.11951080
-1.23356283 2.14106250 -1.22552884
1.20257974 -1.59284210 -2.21004176
2.16341639 0.17803749 -2.38274193
1.71293664 -2.04508853 -0.85794264
-0.98068023 1.46064508 -2.45437407
1.95275962 0.66771334 -2.42421460
-1.96352947 -1.48326218 1.73431396
-2.71145439 0.10924456 -1.73740673
1.02019262 2.33039570 -0.78939450
1.25639558 1.06350899 -2.64979959
-2.94551587 0.96887946 -0.43326402
-0.36614534 0.87429392 -3.01093602
3.20696926 0.21679108 0.10329923
-0.70683217 -1.05728674 -2.85118294
0.70462424 -0.58145010 3.06414700
0.35012662 -0.28449729 3.19122005
0.97087938 1.34836185 -2.55996537
-0.53074104 2.40644836 0.89721799
-0.71767062 2.46364808 -0.34136438
1.45261109 0.43819922 -2.82924056
-2.04019189 -1.67120755 -1.31947565
-1.42798734 -2.10921407 -1.09501743
0.78087360 1.12282789 -2.79021025
2.50459123 -0.93576229 1.64671350
2.87380815 1.12201083 -0.30006886
-0.06807408 -1.51295781 -2.59536123
-3.21172214 -0.11126769 0.17845984
1.50720644 1.97061396 -1.37111712
-2.31579018 0.51794028 2.14714336
2.87121892 0.41117537 -1.36568153
2.63298512 1.22088301 1.02801096
-1.37103379 -2.30012250 0.07289252
-0.34226289 -2.10285950 1.78288841
-2.00297499 1.66793942 1.38128245
-0.91699165 1.60861814 2.32607341
-0.01306704 -2.32432580 1.31028450
1.63440204 1.07170570 2.42770982
3.00019217 -0.90680331 0.22467107
-2.72919226 1.06995451 -1.04615366
-1.96285748 -1.20005798 2.05741954
2.16320395 -1.09946251 -1.94226921
1.65102506 2.04437733 -0.97130269
-1.77521944 -1.51162994 -1.89212787
1.46553338 -1.18127847 -2.45430017
2.25896978 -1.25043368 1.66551888
-1.23920250 1.24141002 2.53002429
0.12318686 2.43629670 -0.91699296
-2.93750715 0.57152015 1.10518742
2.50601578 1.55311430 -0.46708375
2.75085640 1.25769150 0.51433647
-2.10572577 -0.64205992 2.30395007
2.11508989 -0.27623373 -2.41016269
0.53270018 -2.44883108 -0.68452853
-2.89541435 0.30232334 1.36110449
-1.24181139 -1.36950910 2.41953635
0.90820938 -0.62330061 -2.99629688
-1.45885909 0.55944949 2.79054761
-1.95879531 1.00592363 -2.22288394
2.19831872 0.94881773 -2.03033686
-0.59370166 0.00514810 -3.17505932
-0.87332624 -0.31234494 -3.08458567
-3.12459755 0.49447900 -0.46098983
2.94279671 -0.84073889 0.76335549
2.99267626 -0.91691852 -0.25674751
1.37879097 -1.01948404 2.61601114
-0.16701806 -1.13045275 2.88873172
1.80804121 -1.00851500 2.34605074
-0.89263296 -2.30648756 1.02436793
-0.86914176 2.22654963 1.29329789
0.33055824 1.20039678 2.82873631
0.02643841 2.52998519 -0.31368607
-2.05192256 1.33678210 -1.81957936
1.97714496 2.00611734 -0.08492675
-0.50344515 -0.63144666 3.08896470
1.93644297 -0.31916350 2.54912281
-1.30865645 -1.84469104 -1.79445410
-1.94591582 -0.08352343 2.57243681
-3.04827547 0.77637035 0.33219680
-2.98454046 -0.81237817 -0.63608295
2.88262200 0.38620567 1.35363233
0.09927300 2.23140311 1.54555333
-0.45946622 2.36006355 -1.10932863
2.37308407 -1.46766841 1.13521540
0.98591357 -1.80670774 2.04617715
2.41467834 0.62289524 1.98518074
2.60906386 -1.06796873 -1.32154751
1.74988317 -0.90064025 -2.45883369
2.63725090 -0.71583813 -1.61650658
2.17033696 -1.87805569 0.01110006
1.83488035 0.41606891 2.60144806
-1.87832379 2.05085325 0.30345637
1.81748915 1.57340944 1.76575375
0.56567389 0.26107335 3.16329217
-1.15694642 1.81814337 1.93690228
-0.15576313 -1.79507315 -2.28265572
-1.15604246 2.36192989 -0.29035836
-2.19839191 1.83402848 0.38305342
1.88619971 0.77395761 2.42620659
-0.22777914 1.43517971 2.65711999
-0.97573799 1.76210999 -2.11359978
-2.99936080 0.67861027 -0.79900312
-1.51118076 -0.30578172 2.82633686
1.41957808 0.10534398 -2.89677095
-0.81975716 1.32140684 2.63453555
-0.90465301 -0.30667511 3.07585216
-1.36936390 -2.20969367 0.81721646
-0.51665723 2.15114236 1.64203036
-2.29449463 0.97376001 -1.89948440
-0.96919507 -0.71575570 -2.94312072
-3.17910957 0.39747247 0.10126418
-0.03310564 0.17394832 3.22256708
0.96847504 -2.18460226 -1.33905399
-2.35231829 -0.04865136 2.20542693
0.84926915 0.64163381 -3.00728774
-1.85543990 0.70035172 -2.48618388
3.01573706 -0.35323456 -1.04298615
3.00010610 -0.14923637 1.15884531
-2.16447186 -1.06235409 -1.97435927
-2.36969256 -0.80592185 1.93248856
-0.00980375 -2.47288942 0.75140017
-1.26098680 2.09463501 1.32519305
-0.67708522 -1.91044390 2.02129412
2.26997113 -0.76161778 -2.07682920
-0.06564820 -2.54143715 0.09190872
1.18397331 -0.36486614 2.96849728
1.95129442 1.70362687 1.38520360
0.76876521 1.27351701 2.68767405
0.48180866 -0.39394259 -3.15451169
0.46849847 2.01509428 -1.91359317
1.48689079 -2.11066818 1.00953174
-2.45086575 -1.27964783 1.32295692
2.74535298 -0.11272893 1.68256414
-2.79158878 -0.80992115 -1.23753619
0.29301625 -2.21117854 -1.56657577
2.92618656 0.64497614 -1.07005990
0.64107835 -1.40400755 2.61506724
-1.67582560 0.43467674 -2.70263553
3.13526297 -0.16100034 -0.70975459
-0.34458172 1.48801243 -2.59650064
0.62954891 2.49031854 -0.15286283
-1.69029653 2.07474613 -0.78039092
3.09904981 0.34870839 -0.75851363
-2.79948401 0.46649644 -1.48324239
-0.15025300 1.81632793 2.25687695
-2.85807014 -0.99679297 0.78218776
-1.54020810 1.00636601 2.53207231
2.08353591 1.87176561 0.64034700
-0.93189907 -1.05446327 2.78687263
-2.63714623 -0.38694248 1.78752422
-1.84603679 2.07766080 -0.19734813
1.18894231 0.78423107 2.83277774
-2.43380213 1.42914534 1.08378506
-3.19225717 -0.31052297 -0.16372316
-1.52521789 0.11358424 -2.84203982
-0.25605920 -1.20490992 -2.83380342
2.02664351 1.61688042 -1.44417739
-0.51544434 0.22155228 3.17626762
-2.38830423 -1.26199794 -1.45779741
-0.23221463 -2.47251654 -0.71891659
2.29818463 1.77343380 -0.20483898
1.22175813 -0.21764897 -2.97686887
1.09967816 1.98678231 -1.68626988
-2.94061422 -1.02015674 0.24349618
-0.72523075 2.47191548 0.20165683
-2.48595309 -1.61152434 0.14420785
3.12891245 0.01399963 0.76430058
-3.03677225 -0.45935792 0.90238738
0.42092499 -1.42911434 -2.63821340
1.25652170 2.33914971 -0.11320004
2.00242496 -1.75412023 1.19895434
2.58687162 -1.47627831 0.42753175
2.42250514 -1.53871119 -0.84085709
-3.10013580 -0.25807977 -0.80816048
-2.19486332 -1.74282718 -0.82556641
3.07996964 0.44424111 0.75461400
1.14952481 1.85880613 1.87894845
2.79993415 -0.85246086 1.17259037
1.81817281 -1.49112093 -1.87681496
-0.57069486 -2.43298984 0.74266040
-2.79899621 -1.22593832 -0.35199049
-0.60518396 0.42251945 -3.12767267
-1.69396245 1.28682804 -2.20807886
0.63214433 -2.39494872 0.88105178
-1.82253528 1.67567706 -1.60133696
0.54624373 -2.13320279 1.66955554
0.21606463 -2.39745402 -1.05362260
-0.07912586 -0.61559892 -3.13388729
-2.03868341 -0.60417622 -2.38037014
3.03999853 0.03071220 -1.06466007
-2.22956109 1.19848716 1.76517797
-3.15380430 -0.03722434 0.64994043
0.59850866 -0.96817309 -2.92615509
1.73658466 -2.11491585 -0.42763165
1.76486135 -1.45284116 1.97291005
3.12311721 0.61341679 -0.12180659
-1.30859530 0.85675216 -2.74384618
0.63168764 0.19695213 -3.15780783
2.70335245 -1.37195063 -0.20111924
-2.77015519 1.05572045 0.95422989
3 135 229 189
3 110 247 223
3 223 247 83
3 30 31 99
3 209 229 135
3 209 223 83
3 38 189 229
3 64 43 38
3 38 43 189
3 94 194 69
3 149 181 146
3 80 233 188
3 146 181 131
3 146 131 141
3 141 131 188
3 110 223 205
3 237 68 22
3 172 144 29
3 198 86 191
3 191 251 198
3 69 194 198
3 198 251 69
3 51 226 186
3 23 78 132
3 99 31 132
3 19 78 23
3 165 30 11
3 23 190 242
3 159 76 59
3 59 108 159
3 248 184 112
3 243 184 248
3 211 243 248
3 248 224 211
3 211 224 82
3 82 30 211
3 34 224 58
3 234 47 58
3 58 47 34
3 21 43 64
3 174 30 99
3 135 189 236
3 46 48 230
3 227 94 119
3 167 149 44
3 44 213 167
3 49 80 188
3 188 131 49
3 136 141 188
3 182 55 28
3 148 55 182
3 250 226 101
3 180 109 52
3 186 239 52
3 52 51 186
3 72 149 167
3 181 149 72
3 72 71 181
3 121 140 250
3 107 158 133
3 96 107 175
3 175 107 205
3 68 237 252
3 252 61 68
3 68 61 195
3 61 156 195
3 245 198 194
3 86 198 245
3 245 194 172
3 172 29 245
3 245 29 86
3 59 76 62
3 191 86 12
3 86 29 12
3 81 251 191
3 191 105 81
3 212 105 191
3 191 12 212
3 203 182 28
3 17 144 172
3 60 47 1
3 1 47 234
3 168 190 34
3 34 47 168
3 109 242 168
3 168 242 190
3 168 47 60
3 227 226 145
3 226 51 145
3 145 1 228
3 109 168 18
3 18 168 60
3 18 52 109
3 51 52 18
3 180 19 215
3 215 19 23
3 23 242 215
3 215 109 180
3 215 242 109
3 78 19 4
3 4 41 46
3 70 243 211
3 70 165 243
3 211 30 70
3 30 165 70
3 116 237 22
3 22 184 116
3 116 184 243
3 25 29 144
3 25 108 59
3 25 12 29
3 217 108 14
3 217 159 108
3 217 14 112
3 112 184 217
3 253 184 22
3 253 217 184
3 159 217 253
3 112 14 45
3 45 248 112
3 224 248 45
3 45 58 224
3 151 224 34
3 151 82 224
3 34 190 151
3 151 190 23
3 31 30 151
3 30 82 151
3 23 132 151
3 151 132 31
3 210 252 237
3 237 116 210
3 43 21 244
3 244 174 43
3 244 210 11
3 21 210 244
3 11 30 244
3 30 174 244
3 214 236 189
3 48 236 214
3 214 230 48
3 189 43 214
3 43 174 214
3 214 174 99
3 201 205 223
3 201 175 205
3 221 236 48
3 46 41 221
3 221 48 46
3 78 230 77
3 99 132 77
3 77 132 78
3 77 214 99
3 230 214 77
3 222 94 69
3 222 119 94
3 69 251 231
3 231 222 69
3 136 222 231
3 141 136 50
3 50 55 141
3 136 231 50
3 93 55 148
3 148 2 93
3 93 2 183
3 16 85 246
3 110 205 16
3 220 75 152
3 233 80 139
3 80 101 139
3 227 119 139
3 139 119 233
3 139 226 227
3 139 101 226
3 180 52 176
3 176 52 239
3 63 41 3
3 3 26 63
3 89 13 92
3 92 241 89
3 13 176 92
3 239 241 92
3 92 176 239
3 5 239 186
3 5 241 239
3 140 241 5
3 186 226 5
3 5 226 250
3 250 140 5
3 40 178 89
3 40 15 178
3 89 241 40
3 40 241 140
3 181 71 27
3 71 121 27
3 27 131 181
3 140 121 192
3 192 40 140
3 15 40 192
3 71 15 192
3 192 121 71
3 33 21 64
3 37 156 240
3 61 252 238
3 128 240 238
3 238 156 61
3 238 240 156
3 127 220 53
3 75 220 127
3 53 196 127
3 196 103 127
3 127 138 75
3 103 138 127
3 106 81 105
3 106 203 28
3 106 50 231
3 251 81 106
3 106 231 251
3 84 7 218
3 84 212 7
3 7 212 115
3 115 212 12
3 115 62 7
3 228 17 254
3 254 94 227
3 227 145 254
3 254 145 228
3 249 18 60
3 51 18 249
3 249 145 51
3 60 1 249
3 1 145 249
3 54 230 78
3 78 4 54
3 46 230 54
3 54 4 46
3 243 165 117
3 117 116 243
3 117 165 11
3 11 210 117
3 117 210 116
3 179 25 144
3 108 25 179
3 144 97 179
3 35 25 59
3 12 25 35
3 35 115 12
3 59 62 35
3 62 115 35
3 142 17 228
3 234 97 142
3 144 17 142
3 142 97 144
3 142 1 234
3 228 1 142
3 234 58 100
3 58 45 100
3 100 97 234
3 100 45 14
3 193 210 21
3 193 33 171
3 21 33 193
3 171 252 193
3 252 210 193
3 187 41 63
3 175 201 187
3 187 221 41
3 201 221 187
3 63 96 187
3 96 175 187
3 236 221 219
3 219 221 201
3 219 209 135
3 135 236 219
3 223 209 219
3 219 201 223
3 173 136 188
3 173 222 136
3 188 233 173
3 233 119 173
3 119 222 173
3 148 182 232
3 232 2 148
3 6 2 232
3 182 203 232
3 126 155 44
3 126 44 149
3 183 2 126
3 207 93 183
3 207 126 149
3 183 126 207
3 207 149 146
3 141 55 154
3 55 93 154
3 146 141 154
3 154 207 146
3 93 207 154
3 246 255 104
3 104 16 246
3 110 16 104
3 104 247 110
3 133 85 169
3 85 16 169
3 169 16 205
3 169 107 133
3 205 107 169
3 208 255 246
3 246 90 208
3 235 176 13
3 235 19 180
3 180 176 235
3 124 235 13
3 178 26 24
3 26 3 24
3 89 178 24
3 3 124 24
3 24 13 89
3 24 124 13
3 111 107 96
3 111 96 63
3 63 26 111
3 111 26 178
3 123 27 121
3 123 121 250
3 123 49 131
3 131 27 123
3 250 101 123
3 80 49 123
3 123 101 80
3 255 208 20
3 199 33 64
3 164 33 199
3 37 240 57
3 57 240 197
3 57 197 152
3 152 75 57
3 75 138 57
3 114 252 171
3 114 238 252
3 171 33 114
3 114 33 164
3 114 164 128
3 128 238 114
3 36 195 156
3 36 185 195
3 36 156 37
3 37 57 36
3 36 57 138
3 103 185 36
3 36 138 103
3 66 62 76
3 7 62 66
3 76 159 170
3 159 253 170
3 170 66 76
3 79 66 170
3 87 106 28
3 50 106 87
3 28 55 87
3 55 50 87
3 105 212 98
3 212 84 98
3 94 254 120
3 120 254 17
3 194 94 120
3 172 194 120
3 120 17 172
3 143 179 97
3 97 100 143
3 143 100 14
3 14 108 143
3 108 179 143
3 200 126 2
3 155 126 200
3 200 2 6
3 6 163 200
3 53 220 74
3 246 85 9
3 9 202 246
3 177 90 150
3 150 90 246
3 247 104 166
3 83 247 166
3 166 209 83
3 166 118 209
3 88 4 19
3 19 235 88
3 41 4 88
3 204 161 158
3 158 107 204
3 107 111 204
3 128 164 95
3 164 199 95
3 153 208 90
3 153 20 208
3 229 209 32
3 209 118 32
3 32 38 229
3 64 38 32
3 32 199 64
3 73 66 79
3 73 185 218
3 218 7 73
3 7 66 73
3 195 185 73
3 73 79 195
3 79 170 39
3 68 195 39
3 195 79 39
3 22 68 39
3 39 253 22
3 39 170 253
3 65 103 196
3 218 185 65
3 65 185 103
3 65 84 218
3 65 98 84
3 163 74 125
3 177 150 125
3 125 150 163
3 125 220 177
3 125 74 220
3 53 74 137
3 137 232 53
3 6 232 137
3 137 163 6
3 137 74 163
3 213 44 42
3 44 0 42
3 42 161 213
3 158 161 42
3 155 200 91
3 91 200 163
3 163 150 91
3 118 166 56
3 162 124 3
3 162 3 41
3 41 88 162
3 235 124 162
3 162 88 235
3 161 204 130
3 130 72 167
3 167 213 130
3 213 161 130
3 197 240 10
3 10 240 128
3 128 95 10
3 147 90 177
3 147 153 90
3 147 220 152
3 177 220 147
3 105 98 216
3 98 129 216
3 216 129 203
3 216 106 105
3 203 106 216
3 98 65 225
3 225 129 98
3 225 65 196
3 203 129 225
3 225 196 53
3 53 232 225
3 225 232 203
3 133 158 113
3 158 42 113
3 113 0 202
3 113 42 0
3 155 91 160
3 44 155 160
3 160 0 44
3 102 91 150
3 246 202 102
3 102 150 246
3 102 160 91
3 202 0 102
3 0 160 102
3 118 56 67
3 20 10 67
3 67 10 95
3 134 56 166
3 134 104 255
3 134 166 104
3 255 20 134
3 20 67 134
3 134 67 56
3 122 130 204
3 178 15 122
3 122 15 71
3 122 111 178
3 122 204 111
3 71 72 122
3 72 130 122
3 152 197 206
3 206 147 152
3 153 147 206
3 197 10 206
3 20 153 206
3 206 10 20
3 8 85 133
3 133 113 8
3 8 9 85
3 202 9 8
3 8 113 202
3 118 67 157
3 157 67 95
3 157 32 118
3 157 95 199
3 199 32 157