ply
format ascii 1.0
comment https://github.com/mikedh/trimesh
element vertex 256
property float x
property float y
property float z
element face 508
property list uchar int vertex_indices
end_header
-1.22435915 1.11497355 2.07468677
2.30770993 -2.14419866 -0.75829828
1.01076424 2.03892303 1.65466774
-1.41450453 -2.57272005 0.89680487
-1.74529243 -2.66449142 -0.22897331
1.11032951 -2.53621888 1.12065887
0.20285074 2.40854740 1.47205925
2.07444882 1.53339350 -1.54660070
-2.03463531 0.91843462 1.84016764
-2.32007360 1.08657980 1.62192476
-2.71945524 1.82046306 -0.66811907
-1.55874658 -0.65405303 -2.09609270
2.97530484 0.79358143 -1.20071447
-0.50001973 -2.80981088 0.89352894
1.45743775 -0.84621823 -2.08592153
0.26360142 -1.65096009 2.00752163
-2.98791909 0.43931440 1.29456949
3.18711877 -1.13731003 -0.67885166
1.50367141 -2.72467566 -0.44713947
-0.96754050 -2.94506264 -0.14163293
-2.92514014 1.77842927 0.16578262
-2.50463557 -0.17271797 -1.71491814
-0.15658613 0.52837831 -2.35407758
-0.37450886 -2.85251498 -0.83677405
-0.83012027 -2.63393593 1.09197056
2.72057748 -0.10429201 -1.56755698
-1.29226184 -2.22597957 1.40310705
1.67049849 -0.80978042 2.02324796
2.58705115 1.89371359 0.76722258
3.12009239 -0.08142760 -1.19680059
-1.19550967 -1.64835536 -1.85388267
-1.23961115 -2.01122856 -1.60579598
-3.45012045 0.35979694 -0.63495493
-2.53015924 0.68718791 -1.61684453
0.74709004 -2.37162447 -1.43024719
2.55087709 0.73049867 -1.59125400
-0.48630771 2.62058830 -1.19748509
-1.19022501 2.38120127 -1.28146565
-3.27608109 -0.35978293 -0.95755780
0.55451125 0.97826612 -2.23699760
0.45029601 -2.19331026 1.64297998
-2.24048734 -2.34900045 0.38065401
-1.17099226 0.61764920 2.21081567
-2.73767018 -0.69975722 -1.45652485
-0.28255948 0.74327379 2.31347775
1.04819274 -1.39985478 -2.01076627
-2.36774993 -2.30145001 -0.14974393
1.62158835 -2.27532625 -1.18678033
-2.72885680 -1.94584572 -0.36245501
2.53988123 -0.62669909 1.62499738
3.07363725 1.05747592 0.93715179
1.89313459 -2.60081816 0.12938409
1.01513338 -2.91918015 0.27114448
0.42683408 3.03358102 0.17884597
-2.09381008 -2.44293857 -0.38843128
2.64950991 1.35438466 1.22985446
-3.46935558 0.82472330 -0.08850536
-1.38068676 2.57959533 -0.90758204
1.34600854 -1.91908824 -1.63667667
2.42144179 0.21450315 -1.76457202
1.91723442 -2.46396399 -0.63536114
-1.09764349 1.75981462 -1.81762016
2.18566036 0.80447441 -1.79528511
-2.19771481 -1.78706408 1.28436995
-3.03484273 0.13162005 -1.28666019
1.14186847 2.80770755 -0.58459687
1.40624273 1.28133702 -1.96234512
-3.29682016 1.16732550 -0.32085958
-0.40981457 1.05336690 -2.22978973
3.58945656 0.26119426 0.07649966
-0.79113430 -1.27384031 -2.11148238
0.78866303 -0.70054281 2.26919580
0.39188537 -0.34276804 2.36330152
1.08667374 1.62453341 -1.89581728
-0.59404117 2.89933729 0.66444701
-0.80326539 2.96825290 -0.25280204
1.62586045 0.52795124 -2.09523273
-2.28352046 -2.01350451 -0.97715575
-1.59829986 -2.54122376 -0.81093007
0.87400645 1.35280550 -2.06632829
2.80330753 -1.12742519 1.21949613
3.21656013 1.35182130 -0.22222008
-0.07619311 -1.82284188 -1.92203009
-3.59477639 -0.13405754 0.13216086
1.68696725 2.37423539 -1.01539958
-2.59198856 0.62402487 1.59009635
3.21366215 0.49539238 -1.01137412
2.94701457 1.47094440 0.76130760
-1.53455365 -2.77123380 0.05398156
-0.38308376 -2.53356743 1.32034230
-2.24186492 2.00956702 1.02292752
-1.02635896 1.93809545 1.72260535
-0.01462552 -2.80039454 0.97034907
1.82933307 1.29121256 1.79787374
3.35801768 -1.09253490 0.16638322
-3.05469632 1.28910267 -0.77474338
-2.19696259 -1.44585395 1.52365017
2.42120385 -1.32465446 -1.43837392
1.84793878 2.46310687 -0.71931142
-1.98694551 -1.82124209 -1.40124106
1.64032400 -1.42322814 -1.81756544
2.52839136 -1.50654769 1.23342276
-1.38699913 1.49567568 1.87364411
0.13787904 2.93529940 -0.67909163
-3.28785634 0.68857902 0.81846166
2.80490232 1.87122333 -0.34590524
3.07894421 1.51529205 0.38089889
-2.35687041 -0.77356672 1.70622170
2.36735153 -0.33281195 -1.78487897
0.59623402 -2.95040107 -0.50693697
-3.24074340 0.36424524 1.00798452
-1.38991916 -1.65001202 1.79182065
1.01652932 -0.75096512 -2.21894836
-1.63285363 0.67403597 2.06657815
-2.19241595 1.21195698 -1.64618695
2.46050692 1.14315474 -1.50359368
-0.66451097 0.00620253 -2.35133338
-0.97748572 -0.37631947 -2.28433204
-3.49726057 0.59575820 -0.34139231
3.29377699 -1.01293910 0.56531334
3.34960532 -1.10472190 -0.19013788
1.54323590 -1.22829497 1.93732274
-0.18693788 -1.36199224 2.13928962
2.02368188 -1.21507907 1.73739982
-0.99909508 -2.77890253 0.75860971
-0.97280216 2.68259168 0.95776933
0.36998308 1.44626224 2.09485912
0.02959165 3.04817724 -0.23230448
-2.29665041 1.61058199 -1.34751427
2.21295428 2.41701055 -0.06289367
-0.56348979 -0.76077962 2.28757477
2.16739774 -0.38453460 1.88778770
-1.46473658 -2.22252083 -1.32890737
-2.17800045 -0.10063071 1.90505326
-3.41183567 0.93538660 0.24601288
-3.34049916 -0.97876960 -0.47105992
3.22642517 0.46530837 1.00245094
0.11111304 2.68843937 1.14458060
-0.51426560 2.84345222 -0.82152849
2.65611601 -1.76827645 0.84069926
1.10350108 -2.17675781 1.51532435
2.70267105 0.75047672 1.47015274
2.92024040 -1.28671014 -0.97868997
1.95858741 -1.08510947 -1.82092273
2.95178914 -0.86245620 -1.19712603
2.42918777 -2.26271939 0.00822030
2.05372190 0.50128824 1.92653787
-2.10234690 2.47090912 0.22472876
2.03425670 1.89567542 1.30765307
0.63314039 0.31454641 2.34261918
-1.29493260 2.19053578 1.43439949
-0.17434062 -2.16274023 -1.69045186
-1.29392087 2.84570050 -0.21502884
-2.46058869 2.20967436 0.28367543
2.11116219 0.93247968 1.79676044
-0.25494578 1.72913337 1.96776652
-1.09211183 2.12302542 -1.56525505
-3.35708737 0.81760329 -0.59171265
-1.69141555 -0.36841196 2.09308219
1.58888769 0.12692055 -2.14524317
-0.91752762 1.59205747 1.95104122
-1.01254880 -0.36948833 2.27786422
-1.53268456 -2.66228342 0.60520083
-0.57827771 2.59173942 1.21602798
-2.56815314 1.17320561 -1.40668905
-1.08478856 -0.86235684 -2.17956805
-3.55827427 0.47888282 0.07499257
-0.03705407 0.20957643 2.38651609
1.08398271 -2.63205290 -0.99165469
-2.63287354 -0.05861614 1.63325906
0.95055938 0.77305329 -2.22708797
-2.07673359 0.84379786 -1.84117746
3.37541676 -0.42558408 -0.77239758
3.35792136 -0.17980297 0.85819870
-2.42262292 -1.27994561 -1.46213865
-2.65231991 -0.97099084 1.43113077
-0.01097302 -2.97938704 0.55645967
-1.41138160 2.52365851 0.98138982
-0.75783950 -2.30174112 1.49689698
2.54070497 -0.91761243 -1.53802419
-0.07347789 -3.06197453 0.06806426
1.32518291 -0.43959808 2.19836116
2.18402052 2.05256391 1.02583134
0.86045390 1.53435898 1.99039376
0.53927279 -0.47462997 -2.33611679
0.52437514 2.42782617 -1.41713750
1.66422856 -2.54297543 0.74762249
-2.74317455 -1.54174542 0.97973377
3.07278442 -0.13581809 1.24604583
-3.12453485 -0.97580928 -0.91647428
0.32796356 -2.66407228 -1.16014898
3.27518559 0.77708024 -0.79244745
0.71753818 -1.69157648 1.93662369
-1.87569714 0.52370727 -2.00147367
3.50919795 -0.19397645 -0.52561843
-0.38567916 1.79278731 -1.92287385
0.70463365 3.00038576 -0.11320466
-1.89189410 2.49969578 -0.57792914
3.46866584 0.42013088 -0.56172758
-3.13337159 0.56204432 -1.09843540
-0.16817330 2.18834829 1.67136097
-3.19894505 -1.20095623 0.57925981
-1.72390497 1.21249008 1.87516069
2.33203411 2.25514078 0.47421771
-1.04304433 -1.27043855 2.06385660
-2.95167208 -0.46619609 1.32377541
-2.06620908 2.50320768 -0.14614885
1.33074450 0.94485736 2.09785223
-2.72407556 1.72186303 0.80261183
-3.57298994 -0.37412432 -0.12124742
-1.70712686 0.13684857 -2.10471129
-0.28659877 -1.45169973 -2.09861183
2.26835608 1.94805002 -1.06950521
-0.57692009 0.26693064 2.35222840
-2.67315125 -1.52048039 -1.07959175
-0.25991032 -2.97893763 -0.53240347
2.57228327 2.13666868 -0.15169629
1.36747420 -0.26222783 -2.20456076
1.23083413 2.39371538 -1.24879014
-3.29133391 -1.22910535 0.18032441
-0.81172723 2.97821331 0.14933972
-2.78244662 -1.94159698 0.10679509
3.50208998 0.01686703 0.56601322
-3.39896059 -0.55344367 0.66827530
0.47112769 -1.72182572 -1.95376492
1.40638387 2.81825447 -0.08383183
2.24124908 -2.11339927 0.88790196
2.89540148 -1.77864981 0.31661448
2.71143150 -1.85387027 -0.62270820
-3.46988130 -0.31093970 -0.59849423
-2.45663929 -2.09979320 -0.61138451
3.44731021 0.53523064 0.55883968
1.28662574 2.23952699 1.39148092
3.13387537 -1.02706194 0.86837780
2.03502178 -1.79653251 -1.38990092
-0.63876027 -2.93131518 0.54998726
-3.13282561 -1.47703516 -0.26067138
-0.67736274 0.50905997 -2.31624055
-1.89599717 1.55039632 -1.63522291
0.70753866 -2.88548231 0.65247488
-2.03990459 2.01888943 -1.18589199
0.61139292 -2.57012558 1.23641217
0.24183412 -2.88850069 -0.78027457
-0.08856300 -0.74168593 -2.32084298
-2.28183222 -0.72792369 -1.76281559
3.40257168 0.03700268 -0.78844857
-2.49547553 1.44396150 1.30722654
-3.52995062 -0.04484864 0.48132226
0.66989136 -1.16647446 -2.16700411
1.94370282 -2.54809308 -0.31668845
1.97535205 -1.75041234 1.46106553
3.49560356 0.73905689 -0.09020554
-1.46466815 1.03223228 -2.03199267
0.70702744 0.23729189 -2.33855772
3.02577448 -1.65295362 -0.14894159
-3.10054469 1.27195323 0.70666796
3 135 229 189
3 110 247 223
3 223 247 83
3 30 31 99
3 209 229 135
3 209 223 83
3 38 189 229
3 64 43 38
3 38 43 189
3 94 194 69
3 149 181 146
3 80 233 188
3 146 181 131
3 146 131 141
3 141 131 188
3 110 223 205
3 237 68 22
3 172 144 29
3 198 86 191
3 191 251 198
3 69 194 198
3 198 251 69
3 51 226 186
3 23 78 132
3 99 31 132
3 19 78 23
3 165 30 11
3 23 190 242
3 159 76 59
3 59 108 159
3 248 184 112
3 243 184 248
3 211 243 248
3 248 224 211
3 211 224 82
3 82 30 211
3 34 224 58
3 234 47 58
3 58 47 34
3 21 43 64
3 174 30 99
3 135 189 236
3 46 48 230
3 227 94 119
3 167 149 44
3 44 213 167
3 49 80 188
3 188 131 49
3 136 141 188
3 182 55 28
3 148 55 182
3 250 226 101
3 180 109 52
3 186 239 52
3 52 51 186
3 72 149 167
3 181 149 72
3 72 71 181
3 121 140 250
3 107 158 133
3 96 107 175
3 175 107 205
3 68 237 252
3 252 61 68
3 68 61 195
3 61 156 195
3 245 198 194
3 86 198 245
3 245 194 172
3 172 29 245
3 245 29 86
3 59 76 62
3 191 86 12
3 86 29 12
3 81 251 191
3 191 105 81
3 212 105 191
3 191 12 212
3 203 182 28
3 17 144 172
3 60 47 1
3 1 47 234
3 168 190 34
3 34 47 168
3 109 242 168
3 168 242 190
3 168 47 60
3 227 226 145
3 226 51 145
3 145 1 228
3 109 168 18
3 18 168 60
3 18 52 109
3 51 52 18
3 180 19 215
3 215 19 23
3 23 242 215
3 215 109 180
3 215 242 109
3 78 19 4
3 4 41 46
3 70 243 211
3 70 165 243
3 211 30 70
3 30 165 70
3 116 237 22
3 22 184 116
3 116 184 243
3 25 29 144
3 25 108 59
3 25 12 29
3 217 108 14
3 217 159 108
3 217 14 112
3 112 184 217
3 253 184 22
3 253 217 184
3 159 217 253
3 112 14 45
3 45 248 112
3 224 248 45
3 45 58 224
3 151 224 34
3 151 82 224
3 34 190 151
3 151 190 23
3 31 30 151
3 30 82 151
3 23 132 151
3 151 132 31
3 210 252 237
3 237 116 210
3 43 21 244
3 244 174 43
3 244 210 11
3 21 210 244
3 11 30 244
3 30 174 244
3 214 236 189
3 48 236 214
3 214 230 48
3 189 43 214
3 43 174 214
3 214 174 99
3 201 205 223
3 201 175 205
3 221 236 48
3 46 41 221
3 221 48 46
3 78 230 77
3 99 132 77
3 77 132 78
3 77 214 99
3 230 214 77
3 222 94 69
3 222 119 94
3 69 251 231
3 231 222 69
3 136 222 231
3 141 136 50
3 50 55 141
3 136 231 50
3 93 55 148
3 148 2 93
3 93 2 183
3 16 85 246
3 110 205 16
3 220 75 152
3 233 80 139
3 80 101 139
3 227 119 139
3 139 119 233
3 139 226 227
3 139 101 226
3 180 52 176
3 176 52 239
3 63 41 3
3 3 26 63
3 89 13 92
3 92 241 89
3 13 176 92
3 239 241 92
3 92 176 239
3 5 239 186
3 5 241 239
3 140 241 5
3 186 226 5
3 5 226 250
3 250 140 5
3 40 178 89
3 40 15 178
3 89 241 40
3 40 241 140
3 181 71 27
3 71 121 27
3 27 131 181
3 140 121 192
3 192 40 140
3 15 40 192
3 71 15 192
3 192 121 71
3 33 21 64
3 37 156 240
3 61 252 238
3 128 240 238
3 238 156 61
3 238 240 156
3 127 220 53
3 75 220 127
3 53 196 127
3 196 103 127
3 127 138 75
3 103 138 127
3 106 81 105
3 106 203 28
3 106 50 231
3 251 81 106
3 106 231 251
3 84 7 218
3 84 212 7
3 7 212 115
3 115 212 12
3 115 62 7
3 228 17 254
3 254 94 227
3 227 145 254
3 254 145 228
3 249 18 60
3 51 18 249
3 249 145 51
3 60 1 249
3 1 145 249
3 54 230 78
3 78 4 54
3 46 230 54
3 54 4 46
3 243 165 117
3 117 116 243
3 117 165 11
3 11 210 117
3 117 210 116
3 179 25 144
3 108 25 179
3 144 97 179
3 35 25 59
3 12 25 35
3 35 115 12
3 59 62 35
3 62 115 35
3 142 17 228
3 234 97 142
3 144 17 142
3 142 97 144
3 142 1 234
3 228 1 142
3 234 58 100
3 58 45 100
3 100 97 234
3 100 45 14
3 193 210 21
3 193 33 171
3 21 33 193
3 171 252 193
3 252 210 193
3 187 41 63
3 175 201 187
3 187 221 41
3 201 221 187
3 63 96 187
3 96 175 187
3 236 221 219
3 219 221 201
3 219 209 135
3 135 236 219
3 223 209 219
3 219 201 223
3 173 136 188
3 173 222 136
3 188 233 173
3 233 119 173
3 119 222 173
3 148 182 232
3 232 2 148
3 6 2 232
3 182 203 232
3 126 155 44
3 126 44 149
3 183 2 126
3 207 93 183
3 207 126 149
3 183 126 207
3 207 149 146
3 141 55 154
3 55 93 154
3 146 141 154
3 154 207 146
3 93 207 154
3 246 255 104
3 104 16 246
3 110 16 104
3 104 247 110
3 133 85 169
3 85 16 169
3 169 16 205
3 169 107 133
3 205 107 169
3 208 255 246
3 246 90 208
3 235 176 13
3 235 19 180
3 180 176 235
3 124 235 13
3 178 26 24
3 26 3 24
3 89 178 24
3 3 124 24
3 24 13 89
3 24 124 13
3 111 107 96
3 111 96 63
3 63 26 111
3 111 26 178
3 123 27 121
3 123 121 250
3 123 49 131
3 131 27 123
3 250 101 123
3 80 49 123
3 123 101 80
3 255 208 20
3 199 33 64
3 164 33 199
3 37 240 57
3 57 240 197
3 57 197 152
3 152 75 57
3 75 138 57
3 114 252 171
3 114 238 252
3 171 33 114
3 114 33 164
3 114 164 128
3 128 238 114
3 36 195 156
3 36 185 195
3 36 156 37
3 37 57 36
3 36 57 138
3 103 185 36
3 36 138 103
3 66 62 76
3 7 62 66
3 76 159 170
3 159 253 170
3 170 66 76
3 79 66 170
3 87 106 28
3 50 106 87
3 28 55 87
3 55 50 87
3 105 212 98
3 212 84 98
3 94 254 120
3 120 254 17
3 194 94 120
3 172 194 120
3 120 17 172
3 143 179 97
3 97 100 143
3 143 100 14
3 14 108 143
3 108 179 143
3 200 126 2
3 155 126 200
3 200 2 6
3 6 163 200
3 53 220 74
3 246 85 9
3 9 202 246
3 177 90 150
3 150 90 246
3 247 104 166
3 83 247 166
3 166 209 83
3 166 118 209
3 88 4 19
3 19 235 88
3 41 4 88
3 204 161 158
3 158 107 204
3 107 111 204
3 128 164 95
3 164 199 95
3 153 208 90
3 153 20 208
3 229 209 32
3 209 118 32
3 32 38 229
3 64 38 32
3 32 199 64
3 73 66 79
3 73 185 218
3 218 7 73
3 7 66 73
3 195 185 73
3 73 79 195
3 79 170 39
3 68 195 39
3 195 79 39
3 22 68 39
3 39 253 22
3 39 170 253
3 65 103 196
3 218 185 65
3 65 185 103
3 65 84 218
3 65 98 84
3 163 74 125
3 177 150 125
3 125 150 163
3 125 220 177
3 125 74 220
3 53 74 137
3 137 232 53
3 6 232 137
3 137 163 6
3 137 74 163
3 213 44 42
3 44 0 42
3 42 161 213
3 158 161 42
3 155 200 91
3 91 200 163
3 163 150 91
3 118 166 56
3 162 124 3
3 162 3 41
3 41 88 162
3 235 124 162
3 162 88 235
3 161 204 130
3 130 72 167
3 167 213 130
3 213 161 130
3 197 240 10
3 10 240 128
3 128 95 10
3 147 90 177
3 147 153 90
3 147 220 152
3 177 220 147
3 105 98 216
3 98 129 216
3 216 129 203
3 216 106 105
3 203 106 216
3 98 65 225
3 225 129 98
3 225 65 196
3 203 129 225
3 225 196 53
3 53 232 225
3 225 232 203
3 133 158 113
3 158 42 113
3 113 0 202
3 113 42 0
3 155 91 160
3 44 155 160
3 160 0 44
3 102 91 150
3 246 202 102
3 102 150 246
3 102 160 91
3 202 0 102
3 0 160 102
3 118 56 67
3 20 10 67
3 67 10 95
3 134 56 166
3 134 104 255
3 134 166 104
3 255 20 134
3 20 67 134
3 134 67 56
3 122 130 204
3 178 15 122
3 122 15 71
3 122 111 178
3 122 204 111
3 71 72 122
3 72 130 122
3 152 197 206
3 206 147 152
3 153 147 206
3 197 10 206
3 20 153 206
3 206 10 20
3 8 85 133
3 133 113 8
3 8 9 85
3 202 9 8
3 8 113 202
3 118 67 157
3 157 67 95
3 157 32 118
3 157 95 199
3 199 32 157