ply
format ascii 1.0
comment https://github.com/mikedh/trimesh
element vertex 256
property float x
property float y
property float z
element face 508
property list uchar int vertex_indices
end_header
-0.61133057 1.10695696 3.45111990
1.15225482 -2.12878203 -1.26138484
0.50468129 2.02426338 2.75244308
-0.70627141 -2.55422258 1.49178243
-0.87143600 -2.64533401 -0.38088372
0.55439484 -2.51798368 1.86415040
0.10128471 2.39123011 2.44868445
1.03578603 1.52236855 -2.57267976
-1.01590681 0.91183114 3.06101131
-1.15842807 1.07876742 2.69797683
-1.35784185 1.80737400 -1.11137700
-0.77829248 -0.64935040 -3.48672748
1.48558939 0.78787559 -1.99731839
-0.24966316 -2.78960872 1.48633313
0.72770828 -0.84013397 -3.46980834
0.13161792 -1.63908982 3.33939505
-1.49188769 0.43615577 2.15344071
1.59134936 -1.12913287 -1.12923002
0.75079304 -2.70508552 -0.74379033
-0.48309937 -2.92388797 -0.23559810
-1.46054173 1.76564252 0.27576968
-1.25058103 -0.17147614 -2.85266614
-0.07818449 0.52457929 -3.91587043
-0.18699475 -2.83200550 -1.39192474
-0.41448453 -2.61499810 1.81642926
1.35840225 -0.10354216 -2.60753918
-0.64523488 -2.20997500 2.33398652
0.83409089 -0.80395818 3.36555457
1.29173172 1.88009787 1.27622986
1.55788267 -0.08084214 -1.99080789
-0.59692585 -1.63650382 -3.08382535
-0.61894602 -1.99676800 -2.67114782
-1.72266781 0.35721004 -1.05621040
-1.26332521 0.68224710 -2.68952632
0.37302697 -2.35457277 -2.37913251
1.27366972 0.72524643 -2.64695787
-0.24281664 2.60174632 -1.99194646
-0.59428716 2.36408067 -2.13164330
-1.63576889 -0.35719612 -1.59284139
0.27687111 0.97123247 -3.72111464
0.22483577 -2.17754054 2.73300123
-1.11869001 -2.33211112 0.63319564
-0.58468413 0.61320835 3.67756271
-1.36693668 -0.69472599 -2.42284393
-0.14108381 0.73792970 3.84833503
0.52336955 -1.38978994 -3.34479213
-1.18223310 -2.28490257 -0.24909027
0.80966979 -2.25896692 -1.97413957
-1.36253619 -1.93185520 -0.60292268
1.26817942 -0.62219316 2.70308805
1.53468740 1.04987276 1.55889726
0.94525456 -2.58211851 0.21522287
0.50686276 -2.89819145 0.45103297
0.21312107 3.01176977 0.29749981
-1.04545319 -2.42537403 -0.64613271
1.32291782 1.34464681 2.04579115
-1.73227203 0.81879365 -0.14722349
-0.68938601 2.56104803 -1.50970972
0.67207092 -1.90529013 -2.72251582
1.20904183 0.21296088 -2.93526244
0.95728779 -2.44624829 -1.05688608
-0.54806066 1.74716175 -3.02350473
1.09131467 0.79869032 -2.98635197
-1.09733343 -1.77421522 2.13647413
-1.51531696 0.13067371 -2.14028406
0.57014251 2.78752041 -0.97244269
0.70214629 1.27212429 -3.26424646
-1.64612412 1.15893257 -0.53373110
-0.20462312 1.04579329 -3.70912504
1.79223931 0.25931630 0.12725270
-0.39501858 -1.26468146 -3.51232743
0.39378464 -0.69550592 3.77467465
0.19567095 -0.34030357 3.93121409
0.54258335 1.61285317 -3.15358114
-0.29660869 2.87849140 1.10526872
-0.40107572 2.94691133 -0.42052141
0.81180280 0.52415532 -3.48529696
-1.14017689 -1.99902761 -1.62544143
-0.79804170 -2.52295256 -1.34893477
0.43639717 1.34307897 -3.43721628
1.39970994 -1.11931908 2.02856064
1.60604966 1.34210181 -0.36965010
-0.03804372 -1.80973589 -3.19718480
-1.79489553 -0.13309368 0.21984187
0.84231389 2.35716486 -1.68905771
-1.29419696 0.61953819 2.64503241
1.60460269 0.49183053 -1.68236172
1.47146380 1.46036851 1.26639068
-0.76621270 -2.75130892 0.08979516
-0.19127624 -2.51535130 2.19631219
-1.11937797 1.99511826 1.70158017
-0.51246780 1.92416072 2.86545324
-0.00730262 -2.78025985 1.61411893
0.91339809 1.28192890 2.99065781
1.67668045 -1.08467960 0.27676877
-1.52522993 1.27983415 -1.28874028
-1.09695792 -1.43545842 2.53450298
1.20892298 -1.31513035 -2.39265108
0.92268801 2.44539738 -1.19653249
-0.99209499 -1.80814755 -2.33088255
0.81902456 -1.41299522 -3.02341390
1.26244247 -1.49571574 2.05172658
-0.69253778 1.48492193 3.11669731
0.06884392 2.91419482 -1.12962925
-1.64164829 0.68362820 1.36146307
1.40050614 1.85776937 -0.57539314
1.53733706 1.50439715 0.63360304
-1.17680097 -0.76800483 2.83820009
1.18203413 -0.33041906 -2.96904182
0.29770356 -2.92918777 -0.84325999
-1.61812449 0.36162636 1.67672324
-0.69399583 -1.63814867 2.98058891
0.50755978 -0.74556571 -3.69109106
-0.81529456 0.66918969 3.43763185
-1.09468782 1.20324314 -2.73833585
1.22854733 1.13493550 -2.50114036
-0.33179471 0.00615794 -3.91130567
-0.48806506 -0.37361374 -3.79985285
-1.74620533 0.59147477 -0.56788617
1.64460456 -1.00565624 0.94036567
1.67247999 -1.09677899 -0.31628323
0.77054787 -1.21946359 3.22262311
-0.09333932 -1.35219955 3.55858326
1.01043773 -1.20634282 2.89006305
-0.49885476 -2.75892258 1.26190281
-0.48572651 2.66330409 1.59319329
0.18473500 1.43586373 3.48467588
0.01477531 3.02626109 -0.38642493
-1.14673269 1.59900212 -2.24151111
1.10494256 2.39963245 -0.10461994
-0.28135416 -0.75530970 3.80524707
1.08219600 -0.38176984 3.14022446
-0.73135263 -2.20654106 -2.21055984
-1.08748996 -0.09990718 3.16894460
-1.70355201 0.92866129 0.40922806
-1.66793323 -0.97173232 -0.78358060
1.61097527 0.46196282 1.66751850
0.05547947 2.66910982 1.90394294
-0.25677621 2.82300806 -1.36656463
1.32621622 -1.75556278 1.39845407
0.55098534 -2.16110706 2.52065349
1.34946156 0.74508083 2.44551301
1.45809531 -1.27745891 -1.62799358
0.97793561 -1.07730770 -3.02899861
1.47384787 -0.85625523 -1.99134910
1.21290946 -2.24645066 0.01367398
1.02543688 0.49768400 3.20468307
-1.04971564 2.45314336 0.37382314
1.01571774 1.88204563 2.17520428
0.31613117 0.31228486 3.89681005
-0.64656842 2.17478585 2.38603950
-0.08704942 -2.14719033 -2.81196785
-0.64606321 2.82524014 -0.35768789
-1.22858822 2.19378710 0.47187752
1.05411720 0.92577523 2.98880601
-0.12729611 1.71670103 3.27326465
-0.54529864 2.10776114 -2.60371041
-1.67621577 0.81172478 -0.98427939
-0.84453493 -0.36576310 3.48171997
0.79334211 0.12600800 -3.56848669
-0.45812759 1.58061075 3.24544311
-0.50557226 -0.36683175 3.78909397
-0.76527953 -2.64314175 1.00671613
-0.28873786 2.57310510 2.02279139
-1.28229582 1.16477036 -2.33994508
-0.54164207 -0.85615659 -3.62558413
-1.77666974 0.47543970 0.12474575
-0.01850134 0.20806959 3.96982980
0.54123968 -2.61312866 -1.64955962
-1.31461108 -0.05819470 2.71683097
0.47462055 0.76749510 -3.70463061
-1.03692675 0.83773100 -3.06269097
1.68536782 -0.42252418 -1.28483820
1.67663229 -0.17851020 1.42756343
-1.20963156 -1.27074289 -2.43218231
-1.32432079 -0.96400952 2.38060236
-0.00547890 -2.95796561 0.92563808
-0.70471215 2.50551367 1.63248456
-0.37839428 -2.28519177 2.49000049
1.26859069 -0.91101491 -2.55841327
-0.03668800 -3.03995919 0.11322091
0.66167253 -0.43643740 3.65684533
1.09049582 2.03780627 1.70641053
0.42963031 1.52332699 3.31090355
0.26926246 -0.47121742 -3.88599348
0.26182395 2.41037035 -2.35732532
0.83096027 -2.52469158 1.24362624
-1.36968517 -1.53066039 1.62972975
1.53426147 -0.13484156 2.07272434
-1.56010079 -0.96879333 -1.52450144
0.16375437 -2.64491773 -1.92984009
1.63532174 0.77149308 -1.31818998
0.35827154 -1.67941415 3.22146010
-0.93654794 0.51994187 -3.32933426
1.75216568 -0.19258177 -0.87433553
-0.19257213 1.77989733 -3.19858813
0.35182822 2.97881317 -0.18830933
-0.94463515 2.48172307 -0.96135134
1.73192775 0.41711017 -0.93440104
-1.56451309 0.55800325 -1.82718301
-0.08397003 2.17261434 2.78021121
-1.59725440 -1.19232142 0.96356481
-0.86075711 1.20377231 3.11922026
1.16439998 2.23892665 0.78883344
-0.52079892 -1.26130426 3.43310475
-1.47378933 -0.46284416 2.20202303
-1.03167176 2.48520970 -0.24311006
0.66444951 0.93806392 3.48965454
-1.36014891 1.70948291 1.33509779
-1.78401732 -0.37143439 -0.20168799
-0.85237968 0.13586465 -3.50106430
-0.14310065 -1.44126213 -3.49091792
1.13260520 1.93404365 -1.77905941
-0.28806001 0.26501143 3.91279435
-1.33472204 -1.50954831 -1.79583776
-0.12977493 -2.95751929 -0.88562208
1.28435802 2.12130642 -0.25233790
0.68278885 -0.26034245 -3.66715813
0.61456358 2.37650466 -2.07728934
-1.64338481 -1.22026813 0.29995912
-0.40530077 2.95680022 0.24841788
-1.38929391 -1.92763710 0.17764738
1.74861670 0.01674576 0.94152987
-1.69712341 -0.54946446 1.11163688
0.23523715 -1.70944595 -3.24997377
0.70221674 2.79799151 -0.13944936
1.11907053 -2.09820414 1.47697294
1.44569302 -1.76586151 0.52666962
1.35383558 -1.84054112 -1.03583860
-1.73253465 -0.30870408 -0.99556023
-1.22661614 -2.08469582 -1.01700234
1.72126460 0.53138238 0.92959714
0.64242071 2.22342515 2.31464720
1.56476462 -1.01967752 1.44449568
1.01609981 -1.78361559 -2.31201887
-0.31893721 -2.91023922 0.91487169
-1.56424046 -1.46641541 -0.43361157
-0.33821169 0.50539982 -3.85293078
-0.94668388 1.53924906 -2.72009778
0.35327870 -2.86473608 1.08535385
-1.01853776 2.00437379 -1.97266197
0.30527249 -2.55164671 2.05669928
0.12074937 -2.86773276 -1.29794109
-0.04422009 -0.73635328 -3.86058664
-1.13933384 -0.72268993 -2.93234062
1.69892645 0.03673664 -1.31153810
-1.24600732 1.43357944 2.17449498
-1.76252759 -0.04452618 0.80065143
0.33448115 -1.15808749 -3.60468459
0.97050363 -2.52977252 -0.52679271
0.98630631 -1.73782694 2.43039703
1.74537790 0.73374313 -0.15005162
-0.73131847 1.02481055 -3.38010097
0.35302347 0.23558578 -3.89005399
1.51078916 -1.64106905 -0.24775563
-1.54812241 1.26280797 1.17550087
3 135 229 189
3 110 247 223
3 223 247 83
3 30 31 99
3 209 229 135
3 209 223 83
3 38 189 229
3 64 43 38
3 38 43 189
3 94 194 69
3 149 181 146
3 80 233 188
3 146 181 131
3 146 131 141
3 141 131 188
3 110 223 205
3 237 68 22
3 172 144 29
3 198 86 191
3 191 251 198
3 69 194 198
3 198 251 69
3 51 226 186
3 23 78 132
3 99 31 132
3 19 78 23
3 165 30 11
3 23 190 242
3 159 76 59
3 59 108 159
3 248 184 112
3 243 184 248
3 211 243 248
3 248 224 211
3 211 224 82
3 82 30 211
3 34 224 58
3 234 47 58
3 58 47 34
3 21 43 64
3 174 30 99
3 135 189 236
3 46 48 230
3 227 94 119
3 167 149 44
3 44 213 167
3 49 80 188
3 188 131 49
3 136 141 188
3 182 55 28
3 148 55 182
3 250 226 101
3 180 109 52
3 186 239 52
3 52 51 186
3 72 149 167
3 181 149 72
3 72 71 181
3 121 140 250
3 107 158 133
3 96 107 175
3 175 107 205
3 68 237 252
3 252 61 68
3 68 61 195
3 61 156 195
3 245 198 194
3 86 198 245
3 245 194 172
3 172 29 245
3 245 29 86
3 59 76 62
3 191 86 12
3 86 29 12
3 81 251 191
3 191 105 81
3 212 105 191
3 191 12 212
3 203 182 28
3 17 144 172
3 60 47 1
3 1 47 234
3 168 190 34
3 34 47 168
3 109 242 168
3 168 242 190
3 168 47 60
3 227 226 145
3 226 51 145
3 145 1 228
3 109 168 18
3 18 168 60
3 18 52 109
3 51 52 18
3 180 19 215
3 215 19 23
3 23 242 215
3 215 109 180
3 215 242 109
3 78 19 4
3 4 41 46
3 70 243 211
3 70 165 243
3 211 30 70
3 30 165 70
3 116 237 22
3 22 184 116
3 116 184 243
3 25 29 144
3 25 108 59
3 25 12 29
3 217 108 14
3 217 159 108
3 217 14 112
3 112 184 217
3 253 184 22
3 253 217 184
3 159 217 253
3 112 14 45
3 45 248 112
3 224 248 45
3 45 58 224
3 151 224 34
3 151 82 224
3 34 190 151
3 151 190 23
3 31 30 151
3 30 82 151
3 23 132 151
3 151 132 31
3 210 252 237
3 237 116 210
3 43 21 244
3 244 174 43
3 244 210 11
3 21 210 244
3 11 30 244
3 30 174 244
3 214 236 189
3 48 236 214
3 214 230 48
3 189 43 214
3 43 174 214
3 214 174 99
3 201 205 223
3 201 175 205
3 221 236 48
3 46 41 221
3 221 48 46
3 78 230 77
3 99 132 77
3 77 132 78
3 77 214 99
3 230 214 77
3 222 94 69
3 222 119 94
3 69 251 231
3 231 222 69
3 136 222 231
3 141 136 50
3 50 55 141
3 136 231 50
3 93 55 148
3 148 2 93
3 93 2 183
3 16 85 246
3 110 205 16
3 220 75 152
3 233 80 139
3 80 101 139
3 227 119 139
3 139 119 233
3 139 226 227
3 139 101 226
3 180 52 176
3 176 52 239
3 63 41 3
3 3 26 63
3 89 13 92
3 92 241 89
3 13 176 92
3 239 241 92
3 92 176 239
3 5 239 186
3 5 241 239
3 140 241 5
3 186 226 5
3 5 226 250
3 250 140 5
3 40 178 89
3 40 15 178
3 89 241 40
3 40 241 140
3 181 71 27
3 71 121 27
3 27 131 181
3 140 121 192
3 192 40 140
3 15 40 192
3 71 15 192
3 192 121 71
3 33 21 64
3 37 156 240
3 61 252 238
3 128 240 238
3 238 156 61
3 238 240 156
3 127 220 53
3 75 220 127
3 53 196 127
3 196 103 127
3 127 138 75
3 103 138 127
3 106 81 105
3 106 203 28
3 106 50 231
3 251 81 106
3 106 231 251
3 84 7 218
3 84 212 7
3 7 212 115
3 115 212 12
3 115 62 7
3 228 17 254
3 254 94 227
3 227 145 254
3 254 145 228
3 249 18 60
3 51 18 249
3 249 145 51
3 60 1 249
3 1 145 249
3 54 230 78
3 78 4 54
3 46 230 54
3 54 4 46
3 243 165 117
3 117 116 243
3 117 165 11
3 11 210 117
3 117 210 116
3 179 25 144
3 108 25 179
3 144 97 179
3 35 25 59
3 12 25 35
3 35 115 12
3 59 62 35
3 62 115 35
3 142 17 228
3 234 97 142
3 144 17 142
3 142 97 144
3 142 1 234
3 228 1 142
3 234 58 100
3 58 45 100
3 100 97 234
3 100 45 14
3 193 210 21
3 193 33 171
3 21 33 193
3 171 252 193
3 252 210 193
3 187 41 63
3 175 201 187
3 187 221 41
3 201 221 187
3 63 96 187
3 96 175 187
3 236 221 219
3 219 221 201
3 219 209 135
3 135 236 219
3 223 209 219
3 219 201 223
3 173 136 188
3 173 222 136
3 188 233 173
3 233 119 173
3 119 222 173
3 148 182 232
3 232 2 148
3 6 2 232
3 182 203 232
3 126 155 44
3 126 44 149
3 183 2 126
3 207 93 183
3 207 126 149
3 183 126 207
3 207 149 146
3 141 55 154
3 55 93 154
3 146 141 154
3 154 207 146
3 93 207 154
3 246 255 104
3 104 16 246
3 110 16 104
3 104 247 110
3 133 85 169
3 85 16 169
3 169 16 205
3 169 107 133
3 205 107 169
3 208 255 246
3 246 90 208
3 235 176 13
3 235 19 180
3 180 176 235
3 124 235 13
3 178 26 24
3 26 3 24
3 89 178 24
3 3 124 24
3 24 13 89
3 24 124 13
3 111 107 96
3 111 96 63
3 63 26 111
3 111 26 178
3 123 27 121
3 123 121 250
3 123 49 131
3 131 27 123
3 250 101 123
3 80 49 123
3 123 101 80
3 255 208 20
3 199 33 64
3 164 33 199
3 37 240 57
3 57 240 197
3 57 197 152
3 152 75 57
3 75 138 57
3 114 252 171
3 114 238 252
3 171 33 114
3 114 33 164
3 114 164 128
3 128 238 114
3 36 195 156
3 36 185 195
3 36 156 37
3 37 57 36
3 36 57 138
3 103 185 36
3 36 138 103
3 66 62 76
3 7 62 66
3 76 159 170
3 159 253 170
3 170 66 76
3 79 66 170
3 87 106 28
3 50 106 87
3 28 55 87
3 55 50 87
3 105 212 98
3 212 84 98
3 94 254 120
3 120 254 17
3 194 94 120
3 172 194 120
3 120 17 172
3 143 179 97
3 97 100 143
3 143 100 14
3 14 108 143
3 108 179 143
3 200 126 2
3 155 126 200
3 200 2 6
3 6 163 200
3 53 220 74
3 246 85 9
3 9 202 246
3 177 90 150
3 150 90 246
3 247 104 166
3 83 247 166
3 166 209 83
3 166 118 209
3 88 4 19
3 19 235 88
3 41 4 88
3 204 161 158
3 158 107 204
3 107 111 204
3 128 164 95
3 164 199 95
3 153 208 90
3 153 20 208
3 229 209 32
3 209 118 32
3 32 38 229
3 64 38 32
3 32 199 64
3 73 66 79
3 73 185 218
3 218 7 73
3 7 66 73
3 195 185 73
3 73 79 195
3 79 170 39
3 68 195 39
3 195 79 39
3 22 68 39
3 39 253 22
3 39 170 253
3 65 103 196
3 218 185 65
3 65 185 103
3 65 84 218
3 65 98 84
3 163 74 125
3 177 150 125
3 125 150 163
3 125 220 177
3 125 74 220
3 53 74 137
3 137 232 53
3 6 232 137
3 137 163 6
3 137 74 163
3 213 44 42
3 44 0 42
3 42 161 213
3 158 161 42
3 155 200 91
3 91 200 163
3 163 150 91
3 118 166 56
3 162 124 3
3 162 3 41
3 41 88 162
3 235 124 162
3 162 88 235
3 161 204 130
3 130 72 167
3 167 213 130
3 213 161 130
3 197 240 10
3 10 240 128
3 128 95 10
3 147 90 177
3 147 153 90
3 147 220 152
3 177 220 147
3 105 98 216
3 98 129 216
3 216 129 203
3 216 106 105
3 203 106 216
3 98 65 225
3 225 129 98
3 225 65 196
3 203 129 225
3 225 196 53
3 53 232 225
3 225 232 203
3 133 158 113
3 158 42 113
3 113 0 202
3 113 42 0
3 155 91 160
3 44 155 160
3 160 0 44
3 102 91 150
3 246 202 102
3 102 150 246
3 102 160 91
3 202 0 102
3 0 160 102
3 118 56 67
3 20 10 67
3 67 10 95
3 134 56 166
3 134 104 255
3 134 166 104
3 255 20 134
3 20 67 134
3 134 67 56
3 122 130 204
3 178 15 122
3 122 15 71
3 122 111 178
3 122 204 111
3 71 72 122
3 72 130 122
3 152 197 206
3 206 147 152
3 153 147 206
3 197 10 206
3 20 153 206
3 206 10 20
3 8 85 133
3 133 113 8
3 8 9 85
3 202 9 8
3 8 113 202
3 118 67 157
3 157 67 95
3 157 32 118
3 157 95 199
3 199 32 157