ply
format ascii 1.0
comment https://github.com/mikedh/trimesh
element vertex 256
property float x
property float y
property float z
element face 508
property list uchar int vertex_indices
end_header
-0.53478414 1.57741451 3.51820374
1.00797760 -3.03351593 -1.28590405
0.44148868 2.88457680 2.80594587
-0.61783713 -3.63976908 1.52078009
-0.76232100 -3.76960301 -0.38828745
0.48497745 -3.58812881 1.90038633
0.08860257 3.40750480 2.49628282
0.90609229 2.16937637 -2.62268829
-0.88870227 1.29936016 3.12051201
-1.01337790 1.53724444 2.75042105
-1.18782258 2.57550931 -1.13298023
-0.68084025 -0.92532486 -3.55450344
1.29957449 1.12272334 -2.03614283
-0.21840212 -3.97519445 1.51522493
0.63658983 -1.19719160 -3.53725553
0.11513767 -2.33570433 3.40430689
-1.30508423 0.62152231 2.19529986
1.39209199 -1.60901523 -1.15118039
0.65678412 -3.85474896 -0.75824833
-0.42260912 -4.16654253 -0.24017772
-1.27766311 2.51604199 0.28113016
-1.09399223 -0.24435364 -2.90811706
-0.06839478 0.74752587 -3.99198818
-0.16358060 -4.03561020 -1.41898131
-0.36258572 -3.72637415 1.85173750
1.18831289 -0.14754765 -2.65822530
-0.56444317 -3.14921594 2.37935519
0.72965199 -1.14564109 3.43097496
1.12999034 2.67914104 1.30103767
1.36281574 -0.11520011 -2.02950573
-0.52218306 -2.33201909 -3.14376950
-0.54144603 -2.84539580 -2.72307038
-1.50696766 0.50902456 -1.07674134
-1.10514069 0.97220266 -2.74180603
0.32631919 -3.35526800 -2.42537880
1.11418986 1.03347671 -2.69841027
-0.21241288 3.70749068 -2.03066635
-0.51987475 3.36881685 -2.17307854
-1.43094957 -0.50900477 -1.62380350
0.24220330 1.38400698 -3.79344654
0.19668344 -3.10299683 2.78612590
-0.97861570 -3.32326031 0.64550388
-0.51147413 0.87382239 3.74904823
-1.19577873 -0.98998505 -2.46993995
-0.12341830 1.05155039 3.92313981
0.45783696 -1.98045170 -3.40980887
-1.03420234 -3.25598812 -0.25393215
0.70828873 -3.21902966 -2.01251340
-1.19192922 -2.75289512 -0.61464244
1.10938704 -0.88662577 2.75563145
1.34252477 1.49606955 1.58919954
0.82689655 -3.67952085 0.21940643
0.44339705 -4.12992525 0.45980027
0.18643557 4.29177427 0.30328271
-0.91454899 -3.45616007 -0.65869242
1.15727150 1.91612267 2.08555770
-1.51536930 1.16678154 -0.15008526
-0.60306603 3.64949560 -1.53905582
0.58791900 -2.71503997 -2.77543688
1.05765426 0.30346942 -2.99231887
0.83742303 -3.48590565 -1.07743013
-0.47943640 2.48970675 -3.08227658
0.95466805 1.13813436 -3.04440141
-0.95993322 -2.52825809 2.17800355
-1.32557976 0.18621014 -2.18188739
0.49875331 3.97221875 -0.99134529
0.61422855 1.81277812 -3.32769775
-1.44000816 1.65147972 -0.54410595
-0.17900167 1.49025631 -3.78122401
1.56782794 0.36952591 0.12972628
-0.34555715 -1.80217206 -3.58060098
0.34447774 -0.99109650 3.84804773
0.17117043 -0.48493287 4.00762987
0.47464496 2.29831696 -3.21488118
-0.25946945 4.10185242 1.12675321
-0.35085589 4.19935083 -0.42869562
0.71015465 0.74692172 -3.55304503
-0.99741209 -2.84861588 -1.65703714
-0.69811660 -3.59520912 -1.37515569
0.38175464 1.91388857 -3.50402975
1.22444832 -1.59503067 2.06799221
1.40495157 1.91249609 -0.37683547
-0.03328016 -2.57887506 -3.25933242
-1.57015145 -0.18965860 0.22411521
0.73684531 3.35896158 -1.72189009
-1.13214695 0.88284236 2.69644713
1.40368581 0.70085889 -1.71506393
1.28721762 2.08102632 1.29100704
-0.67027301 -3.92061734 0.09154063
-0.16732599 -3.58437753 2.23900485
-0.97921741 2.84304500 1.73465598
-0.44830024 2.74193048 2.92115259
-0.00638823 -3.96187258 1.64549458
0.79902887 1.82674956 3.04879093
1.46673846 -1.54566932 0.28214866
-1.33425152 1.82376456 -1.31379116
-0.95960468 -2.04552937 2.58376932
1.05755031 -1.87406170 -2.43916011
0.80715555 3.48469305 -1.21979105
-0.86787194 -2.57661152 -2.37619090
0.71647215 -2.01351929 -3.08218384
1.10436845 -2.13139606 2.09160852
-0.60582316 2.11601496 3.17728066
0.06022377 4.15272999 -1.15158725
-1.43609285 0.97417068 1.38792753
1.22514474 2.64732289 -0.58657777
1.34484279 2.14376712 0.64591914
-1.02945030 -1.09440744 2.89336967
1.03402829 -0.47084740 -3.02675486
0.26042727 -4.17409468 -0.85965151
-1.41551447 0.51531780 1.70931590
-0.60709858 -2.33436298 3.03852654
0.44400677 -1.06243169 -3.76283932
-0.71320921 0.95359588 3.50445366
-0.95761877 1.71462238 -2.79156423
1.07471740 1.61728406 -2.54975820
-0.29024974 0.00877507 -3.98733473
-0.42695305 -0.53239989 -3.87371540
-1.52755797 0.84285200 -0.57892489
1.43867886 -1.43306088 0.95864475
1.46306396 -1.56291091 -0.32243124
0.67406535 -1.73773658 3.28526545
-0.08165204 -1.92688549 3.62775588
0.88391787 -1.71903944 2.94624066
-0.43639174 -3.93146682 1.28643203
-0.42490730 3.79521036 1.62416220
0.16160379 2.04610682 3.55241179
0.01292525 4.31242418 -0.39393637
-1.00314701 2.27857924 -2.28508234
0.96658957 3.41947794 -0.10665356
-0.24612500 -1.07631695 3.87921453
0.94669110 -0.54402226 3.20126510
-0.63977790 -3.14432263 -2.25352931
-0.95132226 -0.14236781 3.23054338
-1.49024546 1.32334304 0.41718274
-1.45908654 -1.38471925 -0.79881209
1.40926051 0.65829742 1.69993210
0.04853273 3.80348349 1.94095230
-0.22462453 4.02278852 -1.39312828
1.16015685 -2.50167823 1.42563760
0.48199490 -3.07957911 2.56965041
1.18049157 1.06174076 2.49304962
1.27552307 -1.82037985 -1.65963900
0.85548550 -1.53516424 -3.08787704
1.28930306 -1.22016430 -2.03005743
1.06103766 -3.20119381 0.01393978
0.89703906 0.70920008 3.26697659
-0.91827774 3.49573135 0.38108963
0.88853681 2.68191648 2.21748662
0.27654749 0.44500613 3.97255731
-0.56560969 3.09907150 2.43242002
-0.07614971 -3.05974793 -2.86662769
-0.56516778 4.02596951 -0.36464074
-1.07475317 3.12614822 0.48104998
0.92212814 1.31923044 3.04690313
-0.11135700 2.44630027 3.33689117
-0.47702023 3.00356126 -2.65432191
-1.46633208 1.15670836 -1.00341213
-0.73878831 -0.52121270 3.54939866
0.69400549 0.17956150 -3.63785195
-0.40076411 2.25237155 3.30852890
-0.44226810 -0.52273554 3.86274743
-0.66945672 -3.76647902 1.02628493
-0.25258416 3.66667676 2.06211114
-1.12173593 1.65979862 -2.38542938
-0.47382152 -1.22002375 -3.69605923
-1.55420792 0.67750192 0.12717059
-0.01618473 0.29649931 4.04699659
0.47346953 -3.72371030 -1.68162417
-1.15000486 -0.08292749 2.76964140
0.41519195 1.09368110 -3.77664208
-0.90709019 1.19376731 -3.12222433
1.47433805 -0.60209727 -1.30981326
1.46669638 -0.25437719 1.45531273
-1.05817020 -1.81080949 -2.47945952
-1.15849888 -1.37371433 2.42687726
-0.00479287 -4.21510315 0.94363087
-0.61647314 3.57035875 1.66421723
-0.33101445 -3.25640011 2.53840184
1.10974681 -1.29819691 -2.60814452
-0.03209419 -4.33194447 0.11542173
0.57882261 -0.62192363 3.72792816
0.95395172 2.90387535 1.73958015
0.37583506 2.17074227 3.37526178
0.23554733 -0.67148519 -3.96153069
0.22904024 3.43477964 -2.40314770
0.72691339 -3.59768748 1.26780021
-1.19818294 -2.18119240 1.66140890
1.34215224 -0.19214934 2.11301446
-1.36475611 -1.38053119 -1.55413508
0.14325021 -3.76900983 -1.96735275
1.43055844 1.09937823 -1.34381342
0.31341136 -2.39316654 3.28407979
-0.81928009 0.74091756 -3.39405084
1.53277194 -0.27442917 -0.89133108
-0.16845962 2.53635502 -3.26076317
0.30777481 4.24481106 -0.19196974
-0.82635468 3.53645754 -0.98003834
1.51506805 0.59438229 -0.95256418
-1.36861587 0.79515505 -1.86270022
-0.07345591 3.09597707 2.83425379
-1.39725757 -1.69905889 0.98229486
-0.75297922 1.71537650 3.17985249
1.01860213 3.19047213 0.80416703
-0.45558822 -1.79735947 3.49983835
-1.28925192 -0.65955329 2.24482656
-0.90249324 3.54142594 -0.24783571
0.58125186 1.33674181 3.55748725
-1.18984079 2.43601441 1.36104989
-1.56063545 -0.52929431 -0.20560846
-0.74565077 0.19360723 -3.56911898
-0.12518261 -2.05379963 -3.55877542
0.99078846 2.75601363 -1.81364119
-0.25199118 0.37764150 3.98885226
-1.16759765 -2.15110755 -1.83074582
-0.11352544 -4.21446705 -0.90283704
1.12353992 3.02286315 -0.25724292
0.59729493 -0.37098819 -3.73844123
0.53761232 3.38652110 -2.11766839
-1.43761182 -1.73888314 0.30578980
-0.35455188 4.21344280 0.25324669
-1.21533644 -2.74688435 0.18110053
1.52966738 0.02386272 0.95983160
-1.48462176 -0.78298724 1.13324511
0.20578244 -2.43596172 -3.31314754
0.61429018 3.98713994 -0.14216000
0.97894847 -2.98994255 1.50568283
1.26467371 -2.51635385 0.53690720
1.18431795 -2.62277246 -1.05597353
-1.51559901 -0.43990353 -1.01491213
-1.07302809 -2.97069311 -1.03677106
1.50574017 0.75722027 0.94766688
0.56198138 3.16838241 2.35963988
1.36883593 -1.45304120 1.47257411
0.88887107 -2.54165363 -2.35696054
-0.27900216 -4.14709330 0.93265522
-1.36837745 -2.08964300 -0.44204023
-0.29586324 0.72019517 -3.92782497
-0.82814687 2.19343114 -2.77297187
0.30904368 -4.08225107 1.10645127
-0.89100373 2.85623431 -2.01100707
0.26704845 -3.63609838 2.09667802
0.10563000 -4.08652115 -1.32317078
-0.03868316 -1.04930401 -3.93562984
-0.99667460 -1.02983379 -2.98934031
1.48619902 0.05234974 -1.33703208
-1.08999121 2.04285192 2.21676350
-1.54183650 -0.06344984 0.81621468
0.29259983 -1.65027571 -3.67475343
0.84898406 -3.60492778 -0.53703266
0.86280805 -2.47640491 2.47763968
1.52683413 1.04558456 -0.15296838
-0.63974798 1.46035588 -3.44580436
0.30882040 0.33570990 -3.96566987
1.32161891 -2.33852458 -0.25257158
-1.35427761 1.79950225 1.19835055
3 135 229 189
3 110 247 223
3 223 247 83
3 30 31 99
3 209 229 135
3 209 223 83
3 38 189 229
3 64 43 38
3 38 43 189
3 94 194 69
3 149 181 146
3 80 233 188
3 146 181 131
3 146 131 141
3 141 131 188
3 110 223 205
3 237 68 22
3 172 144 29
3 198 86 191
3 191 251 198
3 69 194 198
3 198 251 69
3 51 226 186
3 23 78 132
3 99 31 132
3 19 78 23
3 165 30 11
3 23 190 242
3 159 76 59
3 59 108 159
3 248 184 112
3 243 184 248
3 211 243 248
3 248 224 211
3 211 224 82
3 82 30 211
3 34 224 58
3 234 47 58
3 58 47 34
3 21 43 64
3 174 30 99
3 135 189 236
3 46 48 230
3 227 94 119
3 167 149 44
3 44 213 167
3 49 80 188
3 188 131 49
3 136 141 188
3 182 55 28
3 148 55 182
3 250 226 101
3 180 109 52
3 186 239 52
3 52 51 186
3 72 149 167
3 181 149 72
3 72 71 181
3 121 140 250
3 107 158 133
3 96 107 175
3 175 107 205
3 68 237 252
3 252 61 68
3 68 61 195
3 61 156 195
3 245 198 194
3 86 198 245
3 245 194 172
3 172 29 245
3 245 29 86
3 59 76 62
3 191 86 12
3 86 29 12
3 81 251 191
3 191 105 81
3 212 105 191
3 191 12 212
3 203 182 28
3 17 144 172
3 60 47 1
3 1 47 234
3 168 190 34
3 34 47 168
3 109 242 168
3 168 242 190
3 168 47 60
3 227 226 145
3 226 51 145
3 145 1 228
3 109 168 18
3 18 168 60
3 18 52 109
3 51 52 18
3 180 19 215
3 215 19 23
3 23 242 215
3 215 109 180
3 215 242 109
3 78 19 4
3 4 41 46
3 70 243 211
3 70 165 243
3 211 30 70
3 30 165 70
3 116 237 22
3 22 184 116
3 116 184 243
3 25 29 144
3 25 108 59
3 25 12 29
3 217 108 14
3 217 159 108
3 217 14 112
3 112 184 217
3 253 184 22
3 253 217 184
3 159 217 253
3 112 14 45
3 45 248 112
3 224 248 45
3 45 58 224
3 151 224 34
3 151 82 224
3 34 190 151
3 151 190 23
3 31 30 151
3 30 82 151
3 23 132 151
3 151 132 31
3 210 252 237
3 237 116 210
3 43 21 244
3 244 174 43
3 244 210 11
3 21 210 244
3 11 30 244
3 30 174 244
3 214 236 189
3 48 236 214
3 214 230 48
3 189 43 214
3 43 174 214
3 214 174 99
3 201 205 223
3 201 175 205
3 221 236 48
3 46 41 221
3 221 48 46
3 78 230 77
3 99 132 77
3 77 132 78
3 77 214 99
3 230 214 77
3 222 94 69
3 222 119 94
3 69 251 231
3 231 222 69
3 136 222 231
3 141 136 50
3 50 55 141
3 136 231 50
3 93 55 148
3 148 2 93
3 93 2 183
3 16 85 246
3 110 205 16
3 220 75 152
3 233 80 139
3 80 101 139
3 227 119 139
3 139 119 233
3 139 226 227
3 139 101 226
3 180 52 176
3 176 52 239
3 63 41 3
3 3 26 63
3 89 13 92
3 92 241 89
3 13 176 92
3 239 241 92
3 92 176 239
3 5 239 186
3 5 241 239
3 140 241 5
3 186 226 5
3 5 226 250
3 250 140 5
3 40 178 89
3 40 15 178
3 89 241 40
3 40 241 140
3 181 71 27
3 71 121 27
3 27 131 181
3 140 121 192
3 192 40 140
3 15 40 192
3 71 15 192
3 192 121 71
3 33 21 64
3 37 156 240
3 61 252 238
3 128 240 238
3 238 156 61
3 238 240 156
3 127 220 53
3 75 220 127
3 53 196 127
3 196 103 127
3 127 138 75
3 103 138 127
3 106 81 105
3 106 203 28
3 106 50 231
3 251 81 106
3 106 231 251
3 84 7 218
3 84 212 7
3 7 212 115
3 115 212 12
3 115 62 7
3 228 17 254
3 254 94 227
3 227 145 254
3 254 145 228
3 249 18 60
3 51 18 249
3 249 145 51
3 60 1 249
3 1 145 249
3 54 230 78
3 78 4 54
3 46 230 54
3 54 4 46
3 243 165 117
3 117 116 243
3 117 165 11
3 11 210 117
3 117 210 116
3 179 25 144
3 108 25 179
3 144 97 179
3 35 25 59
3 12 25 35
3 35 115 12
3 59 62 35
3 62 115 35
3 142 17 228
3 234 97 142
3 144 17 142
3 142 97 144
3 142 1 234
3 228 1 142
3 234 58 100
3 58 45 100
3 100 97 234
3 100 45 14
3 193 210 21
3 193 33 171
3 21 33 193
3 171 252 193
3 252 210 193
3 187 41 63
3 175 201 187
3 187 221 41
3 201 221 187
3 63 96 187
3 96 175 187
3 236 221 219
3 219 221 201
3 219 209 135
3 135 236 219
3 223 209 219
3 219 201 223
3 173 136 188
3 173 222 136
3 188 233 173
3 233 119 173
3 119 222 173
3 148 182 232
3 232 2 148
3 6 2 232
3 182 203 232
3 126 155 44
3 126 44 149
3 183 2 126
3 207 93 183
3 207 126 149
3 183 126 207
3 207 149 146
3 141 55 154
3 55 93 154
3 146 141 154
3 154 207 146
3 93 207 154
3 246 255 104
3 104 16 246
3 110 16 104
3 104 247 110
3 133 85 169
3 85 16 169
3 169 16 205
3 169 107 133
3 205 107 169
3 208 255 246
3 246 90 208
3 235 176 13
3 235 19 180
3 180 176 235
3 124 235 13
3 178 26 24
3 26 3 24
3 89 178 24
3 3 124 24
3 24 13 89
3 24 124 13
3 111 107 96
3 111 96 63
3 63 26 111
3 111 26 178
3 123 27 121
3 123 121 250
3 123 49 131
3 131 27 123
3 250 101 123
3 80 49 123
3 123 101 80
3 255 208 20
3 199 33 64
3 164 33 199
3 37 240 57
3 57 240 197
3 57 197 152
3 152 75 57
3 75 138 57
3 114 252 171
3 114 238 252
3 171 33 114
3 114 33 164
3 114 164 128
3 128 238 114
3 36 195 156
3 36 185 195
3 36 156 37
3 37 57 36
3 36 57 138
3 103 185 36
3 36 138 103
3 66 62 76
3 7 62 66
3 76 159 170
3 159 253 170
3 170 66 76
3 79 66 170
3 87 106 28
3 50 106 87
3 28 55 87
3 55 50 87
3 105 212 98
3 212 84 98
3 94 254 120
3 120 254 17
3 194 94 120
3 172 194 120
3 120 17 172
3 143 179 97
3 97 100 143
3 143 100 14
3 14 108 143
3 108 179 143
3 200 126 2
3 155 126 200
3 200 2 6
3 6 163 200
3 53 220 74
3 246 85 9
3 9 202 246
3 177 90 150
3 150 90 246
3 247 104 166
3 83 247 166
3 166 209 83
3 166 118 209
3 88 4 19
3 19 235 88
3 41 4 88
3 204 161 158
3 158 107 204
3 107 111 204
3 128 164 95
3 164 199 95
3 153 208 90
3 153 20 208
3 229 209 32
3 209 118 32
3 32 38 229
3 64 38 32
3 32 199 64
3 73 66 79
3 73 185 218
3 218 7 73
3 7 66 73
3 195 185 73
3 73 79 195
3 79 170 39
3 68 195 39
3 195 79 39
3 22 68 39
3 39 253 22
3 39 170 253
3 65 103 196
3 218 185 65
3 65 185 103
3 65 84 218
3 65 98 84
3 163 74 125
3 177 150 125
3 125 150 163
3 125 220 177
3 125 74 220
3 53 74 137
3 137 232 53
3 6 232 137
3 137 163 6
3 137 74 163
3 213 44 42
3 44 0 42
3 42 161 213
3 158 161 42
3 155 200 91
3 91 200 163
3 163 150 91
3 118 166 56
3 162 124 3
3 162 3 41
3 41 88 162
3 235 124 162
3 162 88 235
3 161 204 130
3 130 72 167
3 167 213 130
3 213 161 130
3 197 240 10
3 10 240 128
3 128 95 10
3 147 90 177
3 147 153 90
3 147 220 152
3 177 220 147
3 105 98 216
3 98 129 216
3 216 129 203
3 216 106 105
3 203 106 216
3 98 65 225
3 225 129 98
3 225 65 196
3 203 129 225
3 225 196 53
3 53 232 225
3 225 232 203
3 133 158 113
3 158 42 113
3 113 0 202
3 113 42 0
3 155 91 160
3 44 155 160
3 160 0 44
3 102 91 150
3 246 202 102
3 102 150 246
3 102 160 91
3 202 0 102
3 0 160 102
3 118 56 67
3 20 10 67
3 67 10 95
3 134 56 166
3 134 104 255
3 134 166 104
3 255 20 134
3 20 67 134
3 134 67 56
3 122 130 204
3 178 15 122
3 122 15 71
3 122 111 178
3 122 204 111
3 71 72 122
3 72 130 122
3 152 197 206
3 206 147 152
3 153 147 206
3 197 10 206
3 20 153 206
3 206 10 20
3 8 85 133
3 133 113 8
3 8 9 85
3 202 9 8
3 8 113 202
3 118 67 157
3 157 67 95
3 157 32 118
3 157 95 199
3 199 32 157