ply
format ascii 1.0
comment https://github.com/mikedh/trimesh
element vertex 256
property float x
property float y
property float z
element face 508
property list uchar int vertex_indices
end_header
-1.35118020 0.67359853 2.44873810
2.54674625 -1.29539311 -0.89501417
1.11546087 1.23179209 1.95299268
-1.56102109 -1.55427957 1.05849242
-1.92607260 -1.60972202 -0.27025560
1.22533917 -1.53222775 1.32270575
0.22386235 1.45509636 1.73746121
2.28932357 0.92638218 -1.82544196
-2.24538612 0.55486178 2.17193699
-2.56039047 0.65644479 1.91434634
-3.00114083 1.09981191 -0.78857625
-1.72020411 -0.39513865 -2.47400331
3.28349185 0.47943315 -1.41719484
-0.55181259 -1.69751525 1.05462599
1.60840142 -0.51123309 -2.46199846
0.29090565 -0.99740869 2.36946368
-3.29741263 0.26540679 1.52797127
3.51724553 -0.68709290 -0.80124384
1.65942407 -1.64608169 -0.52775556
-1.06775987 -1.77922606 -0.16716835
-3.22813082 1.07441771 0.19567205
-2.76406956 -0.10434559 -2.02410579
-0.17280556 0.31921372 -2.77850127
-0.41330108 -1.72331429 -0.98763853
-0.91610545 -1.59126222 1.28884518
3.00237942 -0.06300683 -1.85017645
-1.42611647 -1.34480011 1.65607750
1.84353137 -0.48921961 2.38802528
2.85502219 1.14406538 0.90554744
3.44327664 -0.04919355 -1.41257536
-1.31934249 -0.99583507 -2.18812466
-1.36801207 -1.21506071 -1.89530981
-3.80748940 0.21736722 -0.74943286
-2.79223728 0.41515675 -1.90835023
0.82447481 -1.43278992 -1.68811071
2.81510115 0.44132242 -1.87814593
-0.53668022 1.58319843 -1.41338325
-1.31351042 1.43857563 -1.51250494
-3.61542273 -0.21735875 -1.13019872
0.61194843 0.59100831 -2.64031243
0.49693838 -1.32506335 1.93919778
-2.47256064 -1.41912174 0.44928324
-1.29228544 0.37314573 2.60941029
-3.02124238 -0.42275032 -1.71912611
-0.31182745 0.44904038 2.73058152
1.15676630 -0.84570628 -2.37329316
-2.61300516 -1.39039469 -0.17674170
1.78955519 -1.37461245 -1.40074837
-3.01151633 -1.17556047 -0.42780310
2.80296612 -0.37861311 1.91797304
3.39200950 0.63886201 1.10611367
2.08922863 -1.57125461 0.15271112
1.12028253 -1.76358938 0.32002991
0.47104624 1.83270335 0.21109064
-2.31069040 -1.47587347 -0.45846272
2.92395043 0.81823605 1.45158863
-3.82871699 0.49824718 -0.10446224
-1.52370048 1.55843294 -1.07121277
1.48543024 -1.15939522 -1.93175793
2.67225862 0.12958963 -2.08271194
2.11582470 -1.48857570 -0.74991226
-1.21133924 1.06317186 -2.14532423
2.41205454 0.48601404 -2.11896253
-2.42535758 -1.07963431 1.51593280
-3.34919667 0.07951675 -1.51863599
1.26014507 1.69624448 -0.68999553
1.55190361 0.77410513 -2.31614208
-3.63831019 0.70522636 -0.37870830
-0.45226383 0.63637960 -2.63180518
3.96125841 0.15779753 0.09029201
-0.87308127 -0.76957607 -2.49216771
0.87035400 -0.42322493 2.67831588
0.43247747 -0.20707941 2.78938818
1.19923317 0.98144335 -2.23761988
-0.65557295 1.75160158 0.78424215
-0.88646895 1.79323614 -0.29838049
1.79426968 0.31895572 -2.47298837
-2.52005124 -1.21643579 -1.15333009
-1.76385438 -1.53525126 -0.95713502
0.96453744 0.81728202 -2.43887281
3.09367871 -0.68112105 1.43936276
3.54973650 0.81668735 -0.26228479
-0.08408532 -1.10124910 -2.26855874
-3.96712899 -0.08098933 0.15598853
1.86170602 1.43436718 -1.19846892
-2.86047101 0.37699750 1.87677956
3.54653859 0.29928565 -1.19371772
3.25227118 0.88865429 0.89856595
-1.69350517 -1.67420924 0.06371405
-0.42276418 -1.53062594 1.55839074
-2.47408080 1.21405685 1.20735419
-1.13267088 1.17087829 2.03317904
-0.01614045 -1.69182646 1.14529622
2.01881838 0.78007132 2.12201762
3.70584679 -0.66004246 0.19638094
-3.37110662 0.77879667 -0.91442412
-2.42452765 -0.87349617 1.79835355
2.67199588 -0.80027491 -1.69770265
2.03935122 1.48805785 -0.84899825
-2.19275641 -1.10028267 -1.65387499
1.81023133 -0.85982698 -2.14525962
2.79028630 -0.91016358 1.45580018
-1.53066671 0.90359539 2.21144891
0.15216078 1.77332759 -0.80152714
-3.62841773 0.41599715 0.96602452
3.09543848 1.13047826 -0.40826952
3.39786625 0.91544640 0.44957227
-2.60099888 -0.46734151 2.01384139
2.61256552 -0.20106454 -2.10668015
0.65799290 -1.78245103 -0.59833413
-3.57642460 0.22005460 1.18971705
-1.53388917 -0.99683595 2.11487341
1.12182307 -0.45368698 -2.61900926
-1.80198717 0.40721112 2.43916774
-2.41950989 0.73219001 -1.94298291
2.71537018 0.69062388 -1.77468109
-0.73334211 0.00374719 -2.77526236
-1.07873523 -0.22734910 -2.69618106
-3.85951257 0.35992053 -0.40294296
3.63495159 -0.61195564 0.66723537
3.69656277 -0.66740513 -0.22441840
1.70308673 -0.74206036 2.28660846
-0.20630121 -0.82283205 2.52498841
2.23329806 -0.73407614 2.05064082
-1.10258293 -1.67884231 0.89538169
-1.07356656 1.62065709 1.13044846
0.40830654 0.87374282 2.47254753
0.03265680 1.84152138 -0.27418736
-2.53454113 0.97301471 -1.59046161
2.44217563 1.46020925 -0.07423295
-0.62185693 -0.45961633 2.70000863
2.39190030 -0.23231219 2.22814250
-1.61645639 -1.34271061 -1.56850004
-2.40360117 -0.06079489 2.24852085
-3.76523900 0.56510317 0.29036728
-3.68651342 -0.59131247 -0.55598873
3.56062341 0.28111073 1.18318570
0.12262231 1.62418997 1.35094047
-0.56753409 1.71783912 -0.96964431
2.93124080 -1.06828403 0.99227142
1.21780348 -1.31506336 1.78852665
2.98261809 0.45339194 1.73521090
3.22272372 -0.77735126 -1.15514088
2.16146111 -0.65555650 -2.14922237
3.25754023 -0.52104306 -1.41295934
2.68080688 -1.36699605 0.00970236
2.26644969 0.30284753 2.27387905
-2.32011127 1.49277151 0.26524577
2.24496818 1.14525068 1.54341364
0.69872206 0.19002962 2.76497698
-1.42906380 1.32338715 1.69301164
-0.19239910 -1.30659485 -1.99522841
-1.42794728 1.71919751 -0.25379702
-2.71546054 1.33494961 0.33482012
2.32983971 0.56334698 2.12070370
-0.28135347 1.04463613 2.32254100
-1.20523453 1.28260159 -1.84745955
-3.70481968 0.49394569 -0.69839430
-1.86661506 -0.22257188 2.47045040
1.75346720 0.07667760 -2.53201556
-1.01256657 0.96182334 2.30280018
-1.11743021 -0.22322215 2.68854713
-1.69144261 -1.60838807 0.71431428
-0.63817662 1.56576979 1.43526936
-2.83416677 0.70877880 -1.66030526
-1.19715273 -0.52098304 -2.57252884
-3.92684603 0.28931159 0.08851320
-0.04089219 0.12661320 2.81678796
1.19626331 -1.59012473 -1.17044306
-2.90559077 -0.03541227 1.92772412
1.04901981 0.46703133 -2.62861633
-2.29184508 0.50977087 -2.17312884
3.72504783 -0.25711176 -0.91165543
3.70574021 -0.10862591 1.01292586
-2.67356205 -0.77326447 -1.72575200
-2.92705154 -0.58661306 1.68915355
-0.01210963 -1.79996264 0.65678543
-1.55757487 1.52463949 1.15832746
-0.83633775 -1.39057064 1.76677692
2.80387521 -0.55436510 -1.81531918
-0.08108885 -1.84985697 0.08033577
1.46244740 -0.26557815 2.59471035
2.41024494 1.24003303 1.21078157
0.94958115 0.92696542 2.34924769
0.59513152 -0.28674227 -2.75730205
0.57869077 1.46674347 -1.67263746
1.83661199 -1.53630948 0.88241357
-3.02731705 -0.93142796 1.15637290
3.39106822 -0.08205295 1.47069907
-3.44817901 -0.58952403 -1.08170819
0.36193457 -1.60946882 -1.36931574
3.61443448 0.46946415 -0.93532020
0.79186195 -1.02194667 2.28578329
-2.06998491 0.31639177 -2.36232519
3.87268639 -0.11718865 -0.62038374
-0.42562842 1.08309197 -2.26955462
0.77762073 1.81264877 -0.13361466
-2.08785939 1.51016271 -0.68212575
3.82795572 0.25381726 -0.66300315
-3.45793104 0.33955264 -1.29647553
-0.18559295 1.32206571 1.97269571
-3.53029704 -0.72554398 0.68369627
-1.90246975 0.73251200 2.21323895
2.57358980 1.36241758 0.55971587
-1.15108454 -0.76752096 2.43595529
-3.25741100 -0.28164703 1.56244278
-2.28023028 1.51228428 -0.17249846
1.46858513 0.57082480 2.47608018
-3.00623965 1.04024386 0.94731712
-3.94308591 -0.22602294 -0.14310747
-1.88395381 0.08267550 -2.48417616
-0.31628513 -0.87702781 -2.47697663
2.50331616 1.17689216 -1.26232946
-0.63667840 0.16126311 2.77631855
-2.95004058 -0.91858089 -1.27423465
-0.28683221 -1.79969120 -0.62839210
2.83872461 1.29084408 -0.17904606
1.50911927 -0.15842196 -2.60202765
1.35832584 1.44613576 -1.47393823
-3.63225555 -0.74254996 0.21283564
-0.89580727 1.79925358 0.17626461
-3.07065678 -1.17299366 0.12604949
3.86484218 0.01019003 0.66806144
-3.75103021 -0.33435667 0.78876060
0.51992786 -1.04022133 -2.30601501
1.55205941 1.70261621 -0.09894612
2.47340131 -1.27678609 1.04798448
3.19531178 -1.07455099 0.37369782
2.99228597 -1.11999452 -0.73497808
-3.82929730 -0.18785067 -0.70639855
-2.71110177 -1.26856613 -0.72161281
3.80438805 0.32335347 0.65959454
1.41989660 1.35298467 1.64235520
3.45848703 -0.62048775 1.02494013
2.24581265 -1.08535457 -1.64049029
-0.70492405 -1.77092063 0.64914614
-3.45732856 -0.89233392 -0.30766857
-0.74752510 0.30754274 -2.73384237
-2.09238768 0.93665421 -1.93004215
0.78082663 -1.74323118 0.77011150
-2.25120115 1.21968901 -1.39969993
0.67472196 -1.55271208 1.45932865
0.26688370 -1.74505484 -0.92095256
-0.09773650 -0.44808108 -2.73927474
-2.51818800 -0.43976676 -2.08063889
3.75501561 0.02235475 -0.93060029
-2.75396085 0.87235284 1.54291034
-3.89558864 -0.02709479 0.56810129
0.73927975 -0.70471221 -2.55769968
2.14503455 -1.53940129 -0.37378514
2.17996216 -1.05749166 1.72448528
3.85768390 0.44649276 -0.10646895
-1.61638093 0.62361133 -2.39834666
0.78026247 0.14335719 -2.76018310
3.33918929 -0.99861306 -0.17579472
-3.42170405 0.76843601 0.83407527
3 135 229 189
3 110 247 223
3 223 247 83
3 30 31 99
3 209 229 135
3 209 223 83
3 38 189 229
3 64 43 38
3 38 43 189
3 94 194 69
3 149 181 146
3 80 233 188
3 146 181 131
3 146 131 141
3 141 131 188
3 110 223 205
3 237 68 22
3 172 144 29
3 198 86 191
3 191 251 198
3 69 194 198
3 198 251 69
3 51 226 186
3 23 78 132
3 99 31 132
3 19 78 23
3 165 30 11
3 23 190 242
3 159 76 59
3 59 108 159
3 248 184 112
3 243 184 248
3 211 243 248
3 248 224 211
3 211 224 82
3 82 30 211
3 34 224 58
3 234 47 58
3 58 47 34
3 21 43 64
3 174 30 99
3 135 189 236
3 46 48 230
3 227 94 119
3 167 149 44
3 44 213 167
3 49 80 188
3 188 131 49
3 136 141 188
3 182 55 28
3 148 55 182
3 250 226 101
3 180 109 52
3 186 239 52
3 52 51 186
3 72 149 167
3 181 149 72
3 72 71 181
3 121 140 250
3 107 158 133
3 96 107 175
3 175 107 205
3 68 237 252
3 252 61 68
3 68 61 195
3 61 156 195
3 245 198 194
3 86 198 245
3 245 194 172
3 172 29 245
3 245 29 86
3 59 76 62
3 191 86 12
3 86 29 12
3 81 251 191
3 191 105 81
3 212 105 191
3 191 12 212
3 203 182 28
3 17 144 172
3 60 47 1
3 1 47 234
3 168 190 34
3 34 47 168
3 109 242 168
3 168 242 190
3 168 47 60
3 227 226 145
3 226 51 145
3 145 1 228
3 109 168 18
3 18 168 60
3 18 52 109
3 51 52 18
3 180 19 215
3 215 19 23
3 23 242 215
3 215 109 180
3 215 242 109
3 78 19 4
3 4 41 46
3 70 243 211
3 70 165 243
3 211 30 70
3 30 165 70
3 116 237 22
3 22 184 116
3 116 184 243
3 25 29 144
3 25 108 59
3 25 12 29
3 217 108 14
3 217 159 108
3 217 14 112
3 112 184 217
3 253 184 22
3 253 217 184
3 159 217 253
3 112 14 45
3 45 248 112
3 224 248 45
3 45 58 224
3 151 224 34
3 151 82 224
3 34 190 151
3 151 190 23
3 31 30 151
3 30 82 151
3 23 132 151
3 151 132 31
3 210 252 237
3 237 116 210
3 43 21 244
3 244 174 43
3 244 210 11
3 21 210 244
3 11 30 244
3 30 174 244
3 214 236 189
3 48 236 214
3 214 230 48
3 189 43 214
3 43 174 214
3 214 174 99
3 201 205 223
3 201 175 205
3 221 236 48
3 46 41 221
3 221 48 46
3 78 230 77
3 99 132 77
3 77 132 78
3 77 214 99
3 230 214 77
3 222 94 69
3 222 119 94
3 69 251 231
3 231 222 69
3 136 222 231
3 141 136 50
3 50 55 141
3 136 231 50
3 93 55 148
3 148 2 93
3 93 2 183
3 16 85 246
3 110 205 16
3 220 75 152
3 233 80 139
3 80 101 139
3 227 119 139
3 139 119 233
3 139 226 227
3 139 101 226
3 180 52 176
3 176 52 239
3 63 41 3
3 3 26 63
3 89 13 92
3 92 241 89
3 13 176 92
3 239 241 92
3 92 176 239
3 5 239 186
3 5 241 239
3 140 241 5
3 186 226 5
3 5 226 250
3 250 140 5
3 40 178 89
3 40 15 178
3 89 241 40
3 40 241 140
3 181 71 27
3 71 121 27
3 27 131 181
3 140 121 192
3 192 40 140
3 15 40 192
3 71 15 192
3 192 121 71
3 33 21 64
3 37 156 240
3 61 252 238
3 128 240 238
3 238 156 61
3 238 240 156
3 127 220 53
3 75 220 127
3 53 196 127
3 196 103 127
3 127 138 75
3 103 138 127
3 106 81 105
3 106 203 28
3 106 50 231
3 251 81 106
3 106 231 251
3 84 7 218
3 84 212 7
3 7 212 115
3 115 212 12
3 115 62 7
3 228 17 254
3 254 94 227
3 227 145 254
3 254 145 228
3 249 18 60
3 51 18 249
3 249 145 51
3 60 1 249
3 1 145 249
3 54 230 78
3 78 4 54
3 46 230 54
3 54 4 46
3 243 165 117
3 117 116 243
3 117 165 11
3 11 210 117
3 117 210 116
3 179 25 144
3 108 25 179
3 144 97 179
3 35 25 59
3 12 25 35
3 35 115 12
3 59 62 35
3 62 115 35
3 142 17 228
3 234 97 142
3 144 17 142
3 142 97 144
3 142 1 234
3 228 1 142
3 234 58 100
3 58 45 100
3 100 97 234
3 100 45 14
3 193 210 21
3 193 33 171
3 21 33 193
3 171 252 193
3 252 210 193
3 187 41 63
3 175 201 187
3 187 221 41
3 201 221 187
3 63 96 187
3 96 175 187
3 236 221 219
3 219 221 201
3 219 209 135
3 135 236 219
3 223 209 219
3 219 201 223
3 173 136 188
3 173 222 136
3 188 233 173
3 233 119 173
3 119 222 173
3 148 182 232
3 232 2 148
3 6 2 232
3 182 203 232
3 126 155 44
3 126 44 149
3 183 2 126
3 207 93 183
3 207 126 149
3 183 126 207
3 207 149 146
3 141 55 154
3 55 93 154
3 146 141 154
3 154 207 146
3 93 207 154
3 246 255 104
3 104 16 246
3 110 16 104
3 104 247 110
3 133 85 169
3 85 16 169
3 169 16 205
3 169 107 133
3 205 107 169
3 208 255 246
3 246 90 208
3 235 176 13
3 235 19 180
3 180 176 235
3 124 235 13
3 178 26 24
3 26 3 24
3 89 178 24
3 3 124 24
3 24 13 89
3 24 124 13
3 111 107 96
3 111 96 63
3 63 26 111
3 111 26 178
3 123 27 121
3 123 121 250
3 123 49 131
3 131 27 123
3 250 101 123
3 80 49 123
3 123 101 80
3 255 208 20
3 199 33 64
3 164 33 199
3 37 240 57
3 57 240 197
3 57 197 152
3 152 75 57
3 75 138 57
3 114 252 171
3 114 238 252
3 171 33 114
3 114 33 164
3 114 164 128
3 128 238 114
3 36 195 156
3 36 185 195
3 36 156 37
3 37 57 36
3 36 57 138
3 103 185 36
3 36 138 103
3 66 62 76
3 7 62 66
3 76 159 170
3 159 253 170
3 170 66 76
3 79 66 170
3 87 106 28
3 50 106 87
3 28 55 87
3 55 50 87
3 105 212 98
3 212 84 98
3 94 254 120
3 120 254 17
3 194 94 120
3 172 194 120
3 120 17 172
3 143 179 97
3 97 100 143
3 143 100 14
3 14 108 143
3 108 179 143
3 200 126 2
3 155 126 200
3 200 2 6
3 6 163 200
3 53 220 74
3 246 85 9
3 9 202 246
3 177 90 150
3 150 90 246
3 247 104 166
3 83 247 166
3 166 209 83
3 166 118 209
3 88 4 19
3 19 235 88
3 41 4 88
3 204 161 158
3 158 107 204
3 107 111 204
3 128 164 95
3 164 199 95
3 153 208 90
3 153 20 208
3 229 209 32
3 209 118 32
3 32 38 229
3 64 38 32
3 32 199 64
3 73 66 79
3 73 185 218
3 218 7 73
3 7 66 73
3 195 185 73
3 73 79 195
3 79 170 39
3 68 195 39
3 195 79 39
3 22 68 39
3 39 253 22
3 39 170 253
3 65 103 196
3 218 185 65
3 65 185 103
3 65 84 218
3 65 98 84
3 163 74 125
3 177 150 125
3 125 150 163
3 125 220 177
3 125 74 220
3 53 74 137
3 137 232 53
3 6 232 137
3 137 163 6
3 137 74 163
3 213 44 42
3 44 0 42
3 42 161 213
3 158 161 42
3 155 200 91
3 91 200 163
3 163 150 91
3 118 166 56
3 162 124 3
3 162 3 41
3 41 88 162
3 235 124 162
3 162 88 235
3 161 204 130
3 130 72 167
3 167 213 130
3 213 161 130
3 197 240 10
3 10 240 128
3 128 95 10
3 147 90 177
3 147 153 90
3 147 220 152
3 177 220 147
3 105 98 216
3 98 129 216
3 216 129 203
3 216 106 105
3 203 106 216
3 98 65 225
3 225 129 98
3 225 65 196
3 203 129 225
3 225 196 53
3 53 232 225
3 225 232 203
3 133 158 113
3 158 42 113
3 113 0 202
3 113 42 0
3 155 91 160
3 44 155 160
3 160 0 44
3 102 91 150
3 246 202 102
3 102 150 246
3 102 160 91
3 202 0 102
3 0 160 102
3 118 56 67
3 20 10 67
3 67 10 95
3 134 56 166
3 134 104 255
3 134 166 104
3 255 20 134
3 20 67 134
3 134 67 56
3 122 130 204
3 178 15 122
3 122 15 71
3 122 111 178
3 122 204 111
3 71 72 122
3 72 130 122
3 152 197 206
3 206 147 152
3 153 147 206
3 197 10 206
3 20 153 206
3 206 10 20
3 8 85 133
3 133 113 8
3 8 9 85
3 202 9 8
3 8 113 202
3 118 67 157
3 157 67 95
3 157 32 118
3 157 95 199
3 199 32 157