ply
format ascii 1.0
comment https://github.com/mikedh/trimesh
element vertex 256
property float x
property float y
property float z
element face 508
property list uchar int vertex_indices
end_header
-0.75689936 1.58577538 1.91250014
1.42662728 -3.04959464 -0.69901907
0.62485492 2.89986610 1.52531576
-0.87444729 -3.65906119 0.82669801
-1.07894051 -3.78958321 -0.21107355
0.68640620 -3.60714722 1.03305244
0.12540242 3.42556596 1.35698247
1.28242517 2.18087482 -1.42569673
-1.25781250 1.30624723 1.69631433
-1.43427050 1.54539239 1.49513233
-1.68116844 2.58916068 -0.61588949
-0.96361780 -0.93022943 -1.93223262
1.83933485 1.12867427 -1.10684979
-0.30911243 -3.99626446 0.82367820
0.90098864 -1.20353711 -1.92285657
0.16295850 -2.34808445 1.85058570
-1.84713292 0.62481660 1.19336784
1.97027814 -1.61754370 -0.62578309
0.92957032 -3.87518072 -0.41218477
-0.59813398 -4.18862677 -0.13056092
-1.80832291 2.52937794 0.15282272
-1.54836679 -0.24564880 -1.58085608
-0.09680161 0.75148809 -2.17004991
-0.23152155 -4.05700016 -0.77136004
-0.51318073 -3.74612546 1.00660682
1.68186224 -0.14832970 -1.44501472
-0.79887688 -3.16590810 1.29342055
1.03270280 -1.15171337 1.86508238
1.59931624 2.69334149 0.70724571
1.92884254 -0.11581071 -1.10324192
-0.73906457 -2.34437966 -1.70895720
-0.76632816 -2.86047769 -1.48026443
-2.13286591 0.51172262 -0.58531797
-1.56414557 0.97735572 -1.49044931
0.46185139 -3.37305236 -1.31843901
1.57695329 1.03895450 -1.46685922
-0.30063564 3.72714186 -1.10387290
-0.73579758 3.38667274 -1.18128836
-2.02527475 -0.51170266 -0.88270164
0.34279910 1.39134276 -2.06212234
0.27837318 -3.11944389 1.51454163
-1.38507020 -3.34087491 0.35089675
-0.72390789 0.87845397 2.03798747
-1.69242883 -0.99523240 -1.34266245
-0.17467839 1.05712402 2.13262391
0.64799321 -1.99094892 -1.85357654
-1.46374404 -3.27324605 -0.13803785
1.00246668 -3.23609185 -1.09400487
-1.68698049 -2.76748657 -0.33412042
1.57015562 -0.89132524 1.49796486
1.90012383 1.50399923 0.86389089
1.17033660 -3.69902372 0.11926961
0.62755591 -4.15181541 0.24994802
0.26386902 4.31452227 0.16486487
-1.29439425 -3.47447896 -0.35806602
1.63792825 1.92627895 1.13371181
-2.14475703 1.17296600 -0.08158653
-0.85354114 3.66883922 -0.83663273
0.83210301 -2.72943068 -1.50873101
1.49693632 0.30507794 -1.62662840
1.18523514 -3.50438213 -0.58569241
-0.67856371 2.50290322 -1.67552948
1.35117626 1.14416695 -1.65494049
-1.35862827 -2.54165888 1.18396556
-1.87614107 0.18719713 -1.18607688
0.70590359 3.99327302 -0.53889656
0.86933988 1.82238650 -1.80894077
-2.03809571 1.66023326 -0.29577670
-0.25334755 1.49815524 -2.05547810
2.21900368 0.37148455 0.07051937
-0.48907956 -1.81172431 -1.94641936
0.48755184 -0.99634969 2.09180379
0.24226370 -0.48750320 2.17855287
0.67178220 2.31049895 -1.74761355
-0.36723652 4.12359381 0.61250448
-0.49657902 4.22160912 -0.23303950
1.00510764 0.75088072 -1.93143988
-1.41167343 -2.86371469 -0.90076751
-0.98806971 -3.61426520 -0.74753636
0.54031116 1.92403293 -1.90479505
1.73300600 -1.60348487 1.12416327
1.98847878 1.92263305 -0.20484824
-0.04710261 -2.59254408 -1.77177727
-2.22229218 -0.19066386 0.12182932
1.04288387 3.37676549 -0.93602169
-1.60236847 0.88752180 1.46579218
1.98668742 0.70457369 -0.93231094
1.82184577 2.09205651 0.70179307
-0.94866168 -3.94139814 0.04976160
-0.23682255 -3.60337615 1.21712589
-1.38592184 2.85811424 0.94296122
-0.63449556 2.75646377 1.58794236
-0.00904150 -3.98287201 0.89449298
1.13089454 1.83643210 1.65732670
2.07592797 -1.55386198 0.15337637
-1.88841450 1.83343124 -0.71417856
-1.35816324 -2.05637145 1.40454030
1.49678922 -1.88399494 -1.32593048
1.14239657 3.50316310 -0.66307998
-1.22833061 -2.59026861 -1.29170048
1.01404893 -2.02419162 -1.67547905
1.56305265 -2.14269328 1.13700104
-0.85744345 2.12723064 1.72717381
0.08523688 4.17474079 -0.62600434
-2.03255415 0.97933418 0.75447917
1.73399174 2.66135454 -0.31886443
1.90340459 2.15512991 0.35112250
-1.45701826 -1.10020828 1.57283950
1.46349764 -0.47334307 -1.64534771
0.36859211 -4.19621944 -0.46730766
-2.00342894 0.51804918 0.92918628
-0.85924864 -2.34673595 1.65174687
0.62841886 -1.06806302 -2.04548430
-1.00943077 0.95865029 1.90502548
-1.35535252 1.72371054 -1.51749790
1.52108645 1.62585628 -1.38605177
-0.41080099 0.00882158 -2.16752028
-0.60428208 -0.53522182 -2.10575652
-2.16200805 0.84731942 -0.31470430
2.03621435 -1.44065666 0.52112049
2.07072735 -1.57119501 -0.17527403
0.95402914 -1.74694717 1.78587449
-0.11556508 -1.93709874 1.97205269
1.25104105 -1.72815096 1.60158026
-0.61764103 -3.95230508 0.69930613
-0.60138673 3.81532645 0.88289666
0.22872370 2.05695200 1.93109560
0.01829357 4.33528185 -0.21414432
-1.41979027 2.29065657 -1.24217367
1.36804926 3.43760252 -0.05797701
-0.34834963 -1.08202183 2.10874605
1.33988619 -0.54690582 1.74021173
-0.90550083 -3.16098881 -1.22502136
-1.34644079 -0.14312242 1.75612760
-2.10919833 1.33035719 0.22678107
-2.06509805 -1.39205885 -0.43423527
1.99457741 0.66178662 0.92408526
0.06869013 3.82364345 1.05510414
-0.31791922 4.04411077 -0.75730628
1.64201200 -2.51493812 0.77497840
0.68218482 -3.09590220 1.39686537
1.67079246 1.06736839 1.35522497
1.80529392 -1.83002853 -0.90218186
1.21079957 -1.54330122 -1.67857385
1.82479739 -1.22663164 -1.10354185
1.50172496 -3.21816134 0.00757768
1.26961184 0.71295911 1.77593267
-1.29967177 3.51426005 0.20716080
1.25757825 2.69613171 1.20542848
0.39140767 0.44736484 2.15948725
-0.80052793 3.11549783 1.32226670
-0.10777745 -3.07596564 -1.55830240
-0.79990244 4.04730844 -0.19821917
-1.52113700 3.14271808 0.26149938
1.30512130 1.32622290 1.65630043
-0.15760760 2.45926666 1.81393826
-0.67514402 3.01948118 -1.44289279
-2.07535291 1.16283941 -0.54545611
-1.04563379 -0.52397531 1.92945766
0.98225105 0.18051323 -1.97754097
-0.56721598 2.26430988 1.79852045
-0.62595809 -0.52550620 2.09979439
-0.94750631 -3.78644276 0.55788982
-0.35749152 3.68611145 1.12096620
-1.58763349 1.66859627 -1.29672253
-0.67061675 -1.22649038 -2.00918245
-2.19972658 0.68109298 0.06913010
-0.02290684 0.29807088 2.19995236
0.67011857 -3.74344730 -0.91413307
-1.62764359 -0.08336703 1.50558054
0.58763623 1.09947813 -2.05298758
-1.28383756 1.20009482 -1.69724524
2.08668399 -0.60528862 -0.71201617
2.07586837 -0.25572547 0.79110986
-1.49766660 -1.82040751 -1.34783745
-1.63966537 -1.38099551 1.31925356
-0.00678353 -4.23744488 0.51295894
-0.87251675 3.58928299 0.90467060
-0.46849674 -3.27366042 1.37987852
1.57066488 -1.30507791 -1.41779065
-0.04542407 -4.35490513 0.06274340
0.81922865 -0.62522006 2.02650642
1.35016239 2.91926694 0.94563800
0.53193301 2.18224788 1.83479667
0.33337867 -0.67504430 -2.15349317
0.32416895 3.45298529 -1.30635417
1.02882683 -3.61675668 0.68917781
-1.69583166 -2.19275355 0.90314400
1.89959669 -0.19316781 1.14863741
-1.93158877 -1.38784862 -0.84482980
0.20274723 -3.78898716 -1.06945550
2.02472115 1.10520542 -0.73049867
0.44358242 -2.40585136 1.78523004
-1.15955675 0.74484468 -1.84501028
2.16938782 -0.27588373 -0.48452872
-0.23842701 2.54979873 -1.77255511
0.43560481 4.26731014 -0.10435500
-1.16956973 3.55520201 -0.53275013
2.14433074 0.59753275 -0.51781511
-1.93705165 0.79936969 -1.01256621
-0.10396481 3.11238694 1.54070401
-1.97758925 -1.70806456 0.53397673
-1.06571877 1.72446871 1.72857189
1.44166446 3.20738292 0.43714622
-0.64481050 -1.80688620 1.90251660
-1.82472503 -0.66304916 1.22029054
-1.27733135 3.56019664 -0.13472381
0.82266682 1.34382713 1.93385470
-1.68402469 2.44892621 0.73986840
-2.20882392 -0.53209978 -0.11176901
-1.05534661 0.19463341 -1.94017768
-0.17717548 -2.06468558 -1.93455482
1.40229881 2.77062178 -0.98589772
-0.35665226 0.37964314 2.16834521
-1.65254331 -2.16250920 -0.99519575
-0.16067666 -4.23680544 -0.49078336
1.59018672 3.03888535 -0.13983758
0.84537309 -0.37295458 -2.03222156
0.76090217 3.40447092 -1.15116715
-2.03470421 -1.74809980 0.16622773
-0.50181013 4.23577547 0.13766523
-1.72010970 -2.76144385 0.09844648
2.16499352 0.02398920 0.52176565
-2.10123897 -0.78713739 0.61603349
0.29125133 -2.44887328 -1.80103123
0.86942714 4.00827360 -0.07727836
1.38554120 -3.00579047 0.81849110
1.78993845 -2.52969170 0.29186344
1.67620814 -2.63667417 -0.57402855
-2.14508224 -0.44223520 -0.55170757
-1.51869547 -2.98643899 -0.56359011
2.13112855 0.76123387 0.51515293
0.79539263 3.18517613 1.28270328
1.93736303 -1.46074283 0.80049318
1.25805140 -2.55512524 -1.28124678
-0.39488187 -4.16907454 0.50699258
-1.93671405 -2.10071898 -0.24029364
-0.41874596 0.72401249 -2.13517070
-1.17210627 2.20505714 -1.50739098
0.43740070 -4.10388851 0.60146832
-1.26106989 2.87137341 -1.09318602
0.37796336 -3.65537119 1.13975692
0.14950196 -4.10818148 -0.71927738
-0.05474969 -1.05486572 -2.13941336
-1.41062963 -1.03529227 -1.62500918
2.10347128 0.05262721 -0.72681236
-1.54270399 2.05367970 1.20503545
-2.18221712 -0.06378615 0.44369537
0.41412711 -1.65902269 -1.99760067
1.20159793 -3.62403512 -0.29193163
1.22116351 -2.48953080 1.34684813
2.16098356 1.05112648 -0.08315381
-0.90545851 1.46809638 -1.87314367
0.43708467 0.33748931 -2.15574312
1.87053514 -2.35091972 -0.13729823
-1.91675806 1.80904031 0.65142488
3 135 229 189
3 110 247 223
3 223 247 83
3 30 31 99
3 209 229 135
3 209 223 83
3 38 189 229
3 64 43 38
3 38 43 189
3 94 194 69
3 149 181 146
3 80 233 188
3 146 181 131
3 146 131 141
3 141 131 188
3 110 223 205
3 237 68 22
3 172 144 29
3 198 86 191
3 191 251 198
3 69 194 198
3 198 251 69
3 51 226 186
3 23 78 132
3 99 31 132
3 19 78 23
3 165 30 11
3 23 190 242
3 159 76 59
3 59 108 159
3 248 184 112
3 243 184 248
3 211 243 248
3 248 224 211
3 211 224 82
3 82 30 211
3 34 224 58
3 234 47 58
3 58 47 34
3 21 43 64
3 174 30 99
3 135 189 236
3 46 48 230
3 227 94 119
3 167 149 44
3 44 213 167
3 49 80 188
3 188 131 49
3 136 141 188
3 182 55 28
3 148 55 182
3 250 226 101
3 180 109 52
3 186 239 52
3 52 51 186
3 72 149 167
3 181 149 72
3 72 71 181
3 121 140 250
3 107 158 133
3 96 107 175
3 175 107 205
3 68 237 252
3 252 61 68
3 68 61 195
3 61 156 195
3 245 198 194
3 86 198 245
3 245 194 172
3 172 29 245
3 245 29 86
3 59 76 62
3 191 86 12
3 86 29 12
3 81 251 191
3 191 105 81
3 212 105 191
3 191 12 212
3 203 182 28
3 17 144 172
3 60 47 1
3 1 47 234
3 168 190 34
3 34 47 168
3 109 242 168
3 168 242 190
3 168 47 60
3 227 226 145
3 226 51 145
3 145 1 228
3 109 168 18
3 18 168 60
3 18 52 109
3 51 52 18
3 180 19 215
3 215 19 23
3 23 242 215
3 215 109 180
3 215 242 109
3 78 19 4
3 4 41 46
3 70 243 211
3 70 165 243
3 211 30 70
3 30 165 70
3 116 237 22
3 22 184 116
3 116 184 243
3 25 29 144
3 25 108 59
3 25 12 29
3 217 108 14
3 217 159 108
3 217 14 112
3 112 184 217
3 253 184 22
3 253 217 184
3 159 217 253
3 112 14 45
3 45 248 112
3 224 248 45
3 45 58 224
3 151 224 34
3 151 82 224
3 34 190 151
3 151 190 23
3 31 30 151
3 30 82 151
3 23 132 151
3 151 132 31
3 210 252 237
3 237 116 210
3 43 21 244
3 244 174 43
3 244 210 11
3 21 210 244
3 11 30 244
3 30 174 244
3 214 236 189
3 48 236 214
3 214 230 48
3 189 43 214
3 43 174 214
3 214 174 99
3 201 205 223
3 201 175 205
3 221 236 48
3 46 41 221
3 221 48 46
3 78 230 77
3 99 132 77
3 77 132 78
3 77 214 99
3 230 214 77
3 222 94 69
3 222 119 94
3 69 251 231
3 231 222 69
3 136 222 231
3 141 136 50
3 50 55 141
3 136 231 50
3 93 55 148
3 148 2 93
3 93 2 183
3 16 85 246
3 110 205 16
3 220 75 152
3 233 80 139
3 80 101 139
3 227 119 139
3 139 119 233
3 139 226 227
3 139 101 226
3 180 52 176
3 176 52 239
3 63 41 3
3 3 26 63
3 89 13 92
3 92 241 89
3 13 176 92
3 239 241 92
3 92 176 239
3 5 239 186
3 5 241 239
3 140 241 5
3 186 226 5
3 5 226 250
3 250 140 5
3 40 178 89
3 40 15 178
3 89 241 40
3 40 241 140
3 181 71 27
3 71 121 27
3 27 131 181
3 140 121 192
3 192 40 140
3 15 40 192
3 71 15 192
3 192 121 71
3 33 21 64
3 37 156 240
3 61 252 238
3 128 240 238
3 238 156 61
3 238 240 156
3 127 220 53
3 75 220 127
3 53 196 127
3 196 103 127
3 127 138 75
3 103 138 127
3 106 81 105
3 106 203 28
3 106 50 231
3 251 81 106
3 106 231 251
3 84 7 218
3 84 212 7
3 7 212 115
3 115 212 12
3 115 62 7
3 228 17 254
3 254 94 227
3 227 145 254
3 254 145 228
3 249 18 60
3 51 18 249
3 249 145 51
3 60 1 249
3 1 145 249
3 54 230 78
3 78 4 54
3 46 230 54
3 54 4 46
3 243 165 117
3 117 116 243
3 117 165 11
3 11 210 117
3 117 210 116
3 179 25 144
3 108 25 179
3 144 97 179
3 35 25 59
3 12 25 35
3 35 115 12
3 59 62 35
3 62 115 35
3 142 17 228
3 234 97 142
3 144 17 142
3 142 97 144
3 142 1 234
3 228 1 142
3 234 58 100
3 58 45 100
3 100 97 234
3 100 45 14
3 193 210 21
3 193 33 171
3 21 33 193
3 171 252 193
3 252 210 193
3 187 41 63
3 175 201 187
3 187 221 41
3 201 221 187
3 63 96 187
3 96 175 187
3 236 221 219
3 219 221 201
3 219 209 135
3 135 236 219
3 223 209 219
3 219 201 223
3 173 136 188
3 173 222 136
3 188 233 173
3 233 119 173
3 119 222 173
3 148 182 232
3 232 2 148
3 6 2 232
3 182 203 232
3 126 155 44
3 126 44 149
3 183 2 126
3 207 93 183
3 207 126 149
3 183 126 207
3 207 149 146
3 141 55 154
3 55 93 154
3 146 141 154
3 154 207 146
3 93 207 154
3 246 255 104
3 104 16 246
3 110 16 104
3 104 247 110
3 133 85 169
3 85 16 169
3 169 16 205
3 169 107 133
3 205 107 169
3 208 255 246
3 246 90 208
3 235 176 13
3 235 19 180
3 180 176 235
3 124 235 13
3 178 26 24
3 26 3 24
3 89 178 24
3 3 124 24
3 24 13 89
3 24 124 13
3 111 107 96
3 111 96 63
3 63 26 111
3 111 26 178
3 123 27 121
3 123 121 250
3 123 49 131
3 131 27 123
3 250 101 123
3 80 49 123
3 123 101 80
3 255 208 20
3 199 33 64
3 164 33 199
3 37 240 57
3 57 240 197
3 57 197 152
3 152 75 57
3 75 138 57
3 114 252 171
3 114 238 252
3 171 33 114
3 114 33 164
3 114 164 128
3 128 238 114
3 36 195 156
3 36 185 195
3 36 156 37
3 37 57 36
3 36 57 138
3 103 185 36
3 36 138 103
3 66 62 76
3 7 62 66
3 76 159 170
3 159 253 170
3 170 66 76
3 79 66 170
3 87 106 28
3 50 106 87
3 28 55 87
3 55 50 87
3 105 212 98
3 212 84 98
3 94 254 120
3 120 254 17
3 194 94 120
3 172 194 120
3 120 17 172
3 143 179 97
3 97 100 143
3 143 100 14
3 14 108 143
3 108 179 143
3 200 126 2
3 155 126 200
3 200 2 6
3 6 163 200
3 53 220 74
3 246 85 9
3 9 202 246
3 177 90 150
3 150 90 246
3 247 104 166
3 83 247 166
3 166 209 83
3 166 118 209
3 88 4 19
3 19 235 88
3 41 4 88
3 204 161 158
3 158 107 204
3 107 111 204
3 128 164 95
3 164 199 95
3 153 208 90
3 153 20 208
3 229 209 32
3 209 118 32
3 32 38 229
3 64 38 32
3 32 199 64
3 73 66 79
3 73 185 218
3 218 7 73
3 7 66 73
3 195 185 73
3 73 79 195
3 79 170 39
3 68 195 39
3 195 79 39
3 22 68 39
3 39 253 22
3 39 170 253
3 65 103 196
3 218 185 65
3 65 185 103
3 65 84 218
3 65 98 84
3 163 74 125
3 177 150 125
3 125 150 163
3 125 220 177
3 125 74 220
3 53 74 137
3 137 232 53
3 6 232 137
3 137 163 6
3 137 74 163
3 213 44 42
3 44 0 42
3 42 161 213
3 158 161 42
3 155 200 91
3 91 200 163
3 163 150 91
3 118 166 56
3 162 124 3
3 162 3 41
3 41 88 162
3 235 124 162
3 162 88 235
3 161 204 130
3 130 72 167
3 167 213 130
3 213 161 130
3 197 240 10
3 10 240 128
3 128 95 10
3 147 90 177
3 147 153 90
3 147 220 152
3 177 220 147
3 105 98 216
3 98 129 216
3 216 129 203
3 216 106 105
3 203 106 216
3 98 65 225
3 225 129 98
3 225 65 196
3 203 129 225
3 225 196 53
3 53 232 225
3 225 232 203
3 133 158 113
3 158 42 113
3 113 0 202
3 113 42 0
3 155 91 160
3 44 155 160
3 160 0 44
3 102 91 150
3 246 202 102
3 102 150 246
3 102 160 91
3 202 0 102
3 0 160 102
3 118 56 67
3 20 10 67
3 67 10 95
3 134 56 166
3 134 104 255
3 134 166 104
3 255 20 134
3 20 67 134
3 134 67 56
3 122 130 204
3 178 15 122
3 122 15 71
3 122 111 178
3 122 204 111
3 71 72 122
3 72 130 122
3 152 197 206
3 206 147 152
3 153 147 206
3 197 10 206
3 20 153 206
3 206 10 20
3 8 85 133
3 133 113 8
3 8 9 85
3 202 9 8
3 8 113 202
3 118 67 157
3 157 67 95
3 157 32 118
3 157 95 199
3 199 32 157