ply
format ascii 1.0
comment https://github.com/mikedh/trimesh
element vertex 256
property float x
property float y
property float z
element face 508
property list uchar int vertex_indices
end_header
-0.97480571 0.76457685 2.81453538
1.83734393 -1.47035289 -1.02871311
0.80474657 1.39816177 2.24473453
-1.12619495 -1.76420534 1.21661210
-1.38956046 -1.82713616 -0.31062689
0.88401800 -1.73917508 1.52029407
0.16150495 1.65162623 1.99700654
1.65162706 1.05150223 -2.09812999
-1.61992848 0.62980318 2.49638510
-1.84718752 0.74510628 2.20031500
-2.16516566 1.24835598 -0.90637529
-1.24103713 -0.44850731 -2.84357476
2.36886716 0.54418689 -1.62889826
-0.39810386 -1.92678690 1.21216798
1.16037738 -0.58028179 -2.82977653
0.20987318 -1.13212180 2.72341871
-2.37891030 0.30125344 1.75622261
2.53750825 -0.77989376 -0.92093521
1.19718754 -1.86840665 -0.60659271
-0.77033281 -2.01953387 -0.19214030
-2.32892728 1.21953189 0.22490191
-1.99413145 -0.11843883 -2.32647061
-0.12467016 0.36232769 -3.19355917
-0.29817507 -1.95607054 -1.13517392
-0.66092205 -1.80618310 1.48137546
2.16605926 -0.07151672 -2.12655926
-1.02886832 -1.52643299 1.90346551
1.33001125 -0.55529511 2.74475312
2.05974889 1.29858649 1.04081988
2.48414350 -0.05583779 -1.62358856
-0.95183647 -1.13033557 -2.51499104
-0.98694903 -1.37917066 -2.17843485
-2.74690413 0.24672550 -0.86138457
-2.01445293 0.47122911 -2.19342327
0.59481537 -1.62630701 -1.94028401
2.03094792 0.50092882 -2.15870690
-0.38718668 1.79703021 -1.62451720
-0.94762892 1.63287401 -1.73844576
-2.60833812 -0.24671590 -1.29902995
0.44148871 0.67083174 -3.03472757
0.35851499 -1.50403047 2.22887897
-1.78382289 -1.61079276 0.51639801
-0.93231624 0.42354393 2.99920893
-2.17966795 -0.47984830 -1.97593248
-0.22496715 0.50968915 3.13848114
0.83454621 -0.95993000 -2.72782040
-1.88514638 -1.57818568 -0.20314373
1.29107022 -1.56027186 -1.60999489
-2.17265105 -1.33433533 -0.49170914
2.02219319 -0.42974976 2.20448351
2.44715714 0.72514874 1.27134705
1.50726891 -1.78347313 0.17552342
0.80822510 -2.00178528 0.36783659
0.33983517 2.08023381 0.24262378
-1.66704190 -1.67520952 -0.52694875
2.10947704 0.92874956 1.66842973
-2.76221871 0.56554198 -0.12006702
-1.09927011 1.76891983 -1.23123252
1.07166004 -1.31598675 -2.22032762
1.92789447 0.14709240 -2.39383149
1.52645659 -1.68962729 -0.86193562
-0.87391776 1.20676720 -2.46579695
1.74017096 0.55165660 -2.43549705
-1.74976838 -1.22545314 1.74238575
-2.41626978 0.09025653 -1.74549282
0.90912867 1.92534447 -0.79306841
1.11961710 0.87865818 -2.66213202
-2.62485003 0.80047643 -0.43528047
-0.32628465 0.72233099 -3.02494931
2.85784030 0.17911015 0.10378000
-0.62988240 -0.87351739 -2.86445260
0.62791479 -0.48038700 3.07840800
0.31200984 -0.23504819 3.20607257
0.86518389 1.11400008 -2.57187963
-0.47296152 1.98817837 0.90139371
-0.63954085 2.03543615 -0.34295315
1.29447150 0.36203486 -2.84240818
-1.81808496 -1.38073134 -1.32561672
-1.27252853 -1.74260712 -1.10011375
0.69586319 0.92766666 -2.80319619
2.23192716 -0.77311540 1.65437758
2.56094885 0.92699170 -0.30146542
-0.06066315 -1.24998724 -2.60744023
-2.86207557 -0.09192801 0.17929040
1.34312332 1.62809730 -1.37749851
-2.06367993 0.42791596 2.15713644
2.55864167 0.33970809 -1.37203765
2.34634328 1.00867867 1.03279555
-1.22177517 -1.90033317 0.07323178
-0.30500218 -1.73735702 1.79118621
-1.78491962 1.37803125 1.38771117
-0.81716269 1.32902074 2.33689904
-0.01164449 -1.92032969 1.31638277
1.45647156 0.88543016 2.43900871
2.67357421 -0.74918985 0.22571671
-2.43207669 0.88398337 -1.05102253
-1.74916959 -0.99147326 2.06699514
1.92770505 -0.90836251 -1.95130885
1.47128499 1.68903959 -0.97582322
-1.58195889 -1.24889028 -1.90093410
1.30598700 -0.97595793 -2.46572280
2.01304531 -1.03309309 1.67327034
-1.10429585 1.02563775 2.54179955
0.10977603 2.01283884 -0.92126077
-2.61771321 0.47218302 1.11033106
2.23319674 1.28316414 -0.46925762
2.45138240 1.03908944 0.51673025
-1.87648427 -0.53046209 2.31467295
1.88482904 -0.22822094 -2.42138004
0.47470737 -2.02319455 -0.68771446
-2.58020306 0.24977586 1.36743927
-1.10662067 -1.13147175 2.43079734
0.80933654 -0.51496339 -3.01024199
-1.30003929 0.46221033 2.80353522
-1.74554968 0.83108187 -2.23322940
1.95899725 0.78390169 -2.03978634
-0.52906787 0.00425330 -3.18983650
-0.77825093 -0.25805557 -3.09894180
-2.78443599 0.40853253 -0.46313536
2.62242699 -0.69460827 0.76690829
2.66687632 -0.75754690 -0.25794244
1.22868788 -0.84228534 2.62818646
-0.14883551 -0.93396628 2.90217614
1.61120749 -0.83322275 2.35696936
-0.79545581 -1.90559196 1.02913558
-0.77452201 1.83954811 1.29931700
0.29457176 0.99175322 2.84190154
0.02356017 2.09024310 -0.31514600
-1.82853854 1.10443318 -1.82804787
1.76190162 1.65742970 -0.08532201
-0.44863719 -0.52169353 3.10334110
1.72563064 -0.26368898 2.56098676
-1.16618860 -1.52406120 -1.80280566
-1.73407233 -0.06900604 2.58440924
-2.71642256 0.64142776 0.33374289
-2.65962625 -0.67117697 -0.63904339
2.56880307 0.31907842 1.35993230
0.08846557 1.84355819 1.55274653
-0.40944609 1.94985580 -1.11449158
2.11473656 -1.21256983 1.14049888
0.87858135 -1.49267983 2.05570030
2.15180278 0.51462847 1.99442005
2.32502627 -0.88234276 -1.32769811
1.55938089 -0.74409801 -2.47027731
2.35014462 -0.59141678 -1.62402999
1.93406177 -1.55162680 0.01115172
1.63512468 0.34375107 2.61355567
-1.67383873 1.69438994 0.30486870
1.61962688 1.29993176 1.77397180
0.50409138 0.21569562 3.17801452
-1.03099465 1.50212789 1.94591689
-0.13880587 -1.48306763 -2.29327965
-1.03018904 1.95139766 -0.29170972
-1.95906246 1.51525199 0.38483620
1.68085718 0.63943434 2.43749857
-0.20298178 1.18572795 2.66948676
-0.86951357 1.45583379 -2.12343669
-2.67283320 0.56065953 -0.80272180
-1.34666502 -0.25263312 2.83949089
1.26503468 0.08703391 -2.91025281
-0.73051369 1.09173024 2.64679694
-0.80616730 -0.25337124 3.09016752
-1.22028720 -1.82562196 0.82101989
-0.46041098 1.77724755 1.64967263
-2.04470277 0.80450863 -1.90832484
-0.86368293 -0.59134865 -2.95681834
-2.83301353 0.32838690 0.10173547
-0.02950157 0.14371398 3.23756528
0.86304128 -1.80489182 -1.34528613
-2.09623146 -0.04019516 2.21569133
0.75681281 0.53011006 -3.02128410
-1.65344608 0.57862210 -2.49775505
2.68742681 -0.29183808 -1.04784036
2.67349744 -0.12329727 1.16423869
-1.92883492 -0.87770402 -1.98354816
-2.11171436 -0.66584283 1.94148266
-0.00873646 -2.04307127 0.75489730
-1.12370861 1.73056197 1.33136070
-0.60337389 -1.57838547 2.03070164
2.02284908 -0.62923938 -2.08649516
-0.05850136 -2.09970450 0.09233648
1.05507922 -0.30144796 2.98231316
1.73886538 1.40751576 1.39165044
0.68507302 1.05216432 2.70018291
0.42935619 -0.32547057 -3.16919327
0.41749504 1.66484642 -1.92249930
1.32501924 -1.74380827 1.01423025
-2.18405056 -1.05722952 1.32911408
2.44647813 -0.09313527 1.69039500
-2.48768044 -0.66914701 -1.24329579
0.26111680 -1.82684875 -1.57386672
2.60762501 0.53287143 -1.07504010
0.57128692 -1.15997398 2.62723804
-1.49338555 0.35912463 -2.71521378
2.79394031 -0.13301651 -0.71305788
-0.30706859 1.22937775 -2.60858488
0.56101257 2.05747080 -0.15357429
-1.50628114 1.71412992 -0.78402299
2.76166940 0.28809860 -0.76204383
-2.49471617 0.38541368 -1.49014556
-0.13389559 1.50062799 2.26738071
-2.54692435 -0.82353818 0.78582811
-1.37253225 0.83144736 2.54385686
1.85671020 1.54642999 0.64332730
-0.83044720 -0.87118471 2.79984307
-2.35005140 -0.31968716 1.79584360
-1.64506662 1.71653807 -0.19826661
1.05950725 0.64792216 2.84596181
-2.16884446 1.18074238 1.08882916
-2.84472990 -0.25655031 -0.16448514
-1.35917389 0.09384191 -2.85526705
-0.22818314 -0.99548191 -2.84699225
1.80601144 1.33584690 -1.45089877
-0.45933011 0.18304379 3.19105053
-2.12829971 -1.04264724 -1.46458220
-0.20693442 -2.04276299 -0.72226250
2.04799104 1.46518946 -0.20579232
1.08875048 -0.17981893 -2.99072361
0.97996092 1.64145541 -1.69411802
-2.62048197 -0.84284103 0.24462943
-0.64627796 2.04226637 0.20259537
-2.21531796 -1.33142185 0.14487900
2.78828096 0.01156632 0.76785773
-2.70617175 -0.37951592 0.90658718
0.37510070 -1.18071687 -2.65049195
1.11972952 1.93257689 -0.11372688
1.78442943 -1.44923282 1.20453441
2.30524993 -1.21968317 0.42952153
2.15877748 -1.27126443 -0.84477055
-2.76263738 -0.21322235 -0.81192178
-1.95591784 -1.43990254 -0.82940871
2.74466658 0.36702660 0.75812602
1.02438092 1.53572297 1.88769341
2.49511719 -0.70429277 1.17804778
1.62023616 -1.23194599 -1.88554990
-0.50856578 -2.01010656 0.74611682
-2.49428153 -1.01285529 -0.35362870
-0.53930020 0.34908044 -3.14222908
-1.50954795 1.06316161 -2.21835566
0.56332546 -1.97867751 0.88515228
-1.62412357 1.38442397 -1.60878980
0.48677653 -1.76242614 1.67732596
0.19254260 -1.98074734 -1.05852628
-0.07051176 -0.50860029 -3.14847279
-1.81674075 -0.49916303 -2.39144874
2.70904684 0.02537405 -1.06961513
-1.98683834 0.99017549 1.77339327
-2.81046295 -0.03075430 0.65296537
0.53335160 -0.79989278 -2.93977380
1.54753006 -1.74731767 -0.42962191
1.57272840 -1.20031977 1.98209226
2.78311682 0.50679749 -0.12237350
-1.16613412 0.70783824 -2.75661635
0.56291848 0.16271944 -3.17250466
2.40904999 -1.13348889 -0.20205528
-2.46858025 0.87222332 0.95867103
3 135 229 189
3 110 247 223
3 223 247 83
3 30 31 99
3 209 229 135
3 209 223 83
3 38 189 229
3 64 43 38
3 38 43 189
3 94 194 69
3 149 181 146
3 80 233 188
3 146 181 131
3 146 131 141
3 141 131 188
3 110 223 205
3 237 68 22
3 172 144 29
3 198 86 191
3 191 251 198
3 69 194 198
3 198 251 69
3 51 226 186
3 23 78 132
3 99 31 132
3 19 78 23
3 165 30 11
3 23 190 242
3 159 76 59
3 59 108 159
3 248 184 112
3 243 184 248
3 211 243 248
3 248 224 211
3 211 224 82
3 82 30 211
3 34 224 58
3 234 47 58
3 58 47 34
3 21 43 64
3 174 30 99
3 135 189 236
3 46 48 230
3 227 94 119
3 167 149 44
3 44 213 167
3 49 80 188
3 188 131 49
3 136 141 188
3 182 55 28
3 148 55 182
3 250 226 101
3 180 109 52
3 186 239 52
3 52 51 186
3 72 149 167
3 181 149 72
3 72 71 181
3 121 140 250
3 107 158 133
3 96 107 175
3 175 107 205
3 68 237 252
3 252 61 68
3 68 61 195
3 61 156 195
3 245 198 194
3 86 198 245
3 245 194 172
3 172 29 245
3 245 29 86
3 59 76 62
3 191 86 12
3 86 29 12
3 81 251 191
3 191 105 81
3 212 105 191
3 191 12 212
3 203 182 28
3 17 144 172
3 60 47 1
3 1 47 234
3 168 190 34
3 34 47 168
3 109 242 168
3 168 242 190
3 168 47 60
3 227 226 145
3 226 51 145
3 145 1 228
3 109 168 18
3 18 168 60
3 18 52 109
3 51 52 18
3 180 19 215
3 215 19 23
3 23 242 215
3 215 109 180
3 215 242 109
3 78 19 4
3 4 41 46
3 70 243 211
3 70 165 243
3 211 30 70
3 30 165 70
3 116 237 22
3 22 184 116
3 116 184 243
3 25 29 144
3 25 108 59
3 25 12 29
3 217 108 14
3 217 159 108
3 217 14 112
3 112 184 217
3 253 184 22
3 253 217 184
3 159 217 253
3 112 14 45
3 45 248 112
3 224 248 45
3 45 58 224
3 151 224 34
3 151 82 224
3 34 190 151
3 151 190 23
3 31 30 151
3 30 82 151
3 23 132 151
3 151 132 31
3 210 252 237
3 237 116 210
3 43 21 244
3 244 174 43
3 244 210 11
3 21 210 244
3 11 30 244
3 30 174 244
3 214 236 189
3 48 236 214
3 214 230 48
3 189 43 214
3 43 174 214
3 214 174 99
3 201 205 223
3 201 175 205
3 221 236 48
3 46 41 221
3 221 48 46
3 78 230 77
3 99 132 77
3 77 132 78
3 77 214 99
3 230 214 77
3 222 94 69
3 222 119 94
3 69 251 231
3 231 222 69
3 136 222 231
3 141 136 50
3 50 55 141
3 136 231 50
3 93 55 148
3 148 2 93
3 93 2 183
3 16 85 246
3 110 205 16
3 220 75 152
3 233 80 139
3 80 101 139
3 227 119 139
3 139 119 233
3 139 226 227
3 139 101 226
3 180 52 176
3 176 52 239
3 63 41 3
3 3 26 63
3 89 13 92
3 92 241 89
3 13 176 92
3 239 241 92
3 92 176 239
3 5 239 186
3 5 241 239
3 140 241 5
3 186 226 5
3 5 226 250
3 250 140 5
3 40 178 89
3 40 15 178
3 89 241 40
3 40 241 140
3 181 71 27
3 71 121 27
3 27 131 181
3 140 121 192
3 192 40 140
3 15 40 192
3 71 15 192
3 192 121 71
3 33 21 64
3 37 156 240
3 61 252 238
3 128 240 238
3 238 156 61
3 238 240 156
3 127 220 53
3 75 220 127
3 53 196 127
3 196 103 127
3 127 138 75
3 103 138 127
3 106 81 105
3 106 203 28
3 106 50 231
3 251 81 106
3 106 231 251
3 84 7 218
3 84 212 7
3 7 212 115
3 115 212 12
3 115 62 7
3 228 17 254
3 254 94 227
3 227 145 254
3 254 145 228
3 249 18 60
3 51 18 249
3 249 145 51
3 60 1 249
3 1 145 249
3 54 230 78
3 78 4 54
3 46 230 54
3 54 4 46
3 243 165 117
3 117 116 243
3 117 165 11
3 11 210 117
3 117 210 116
3 179 25 144
3 108 25 179
3 144 97 179
3 35 25 59
3 12 25 35
3 35 115 12
3 59 62 35
3 62 115 35
3 142 17 228
3 234 97 142
3 144 17 142
3 142 97 144
3 142 1 234
3 228 1 142
3 234 58 100
3 58 45 100
3 100 97 234
3 100 45 14
3 193 210 21
3 193 33 171
3 21 33 193
3 171 252 193
3 252 210 193
3 187 41 63
3 175 201 187
3 187 221 41
3 201 221 187
3 63 96 187
3 96 175 187
3 236 221 219
3 219 221 201
3 219 209 135
3 135 236 219
3 223 209 219
3 219 201 223
3 173 136 188
3 173 222 136
3 188 233 173
3 233 119 173
3 119 222 173
3 148 182 232
3 232 2 148
3 6 2 232
3 182 203 232
3 126 155 44
3 126 44 149
3 183 2 126
3 207 93 183
3 207 126 149
3 183 126 207
3 207 149 146
3 141 55 154
3 55 93 154
3 146 141 154
3 154 207 146
3 93 207 154
3 246 255 104
3 104 16 246
3 110 16 104
3 104 247 110
3 133 85 169
3 85 16 169
3 169 16 205
3 169 107 133
3 205 107 169
3 208 255 246
3 246 90 208
3 235 176 13
3 235 19 180
3 180 176 235
3 124 235 13
3 178 26 24
3 26 3 24
3 89 178 24
3 3 124 24
3 24 13 89
3 24 124 13
3 111 107 96
3 111 96 63
3 63 26 111
3 111 26 178
3 123 27 121
3 123 121 250
3 123 49 131
3 131 27 123
3 250 101 123
3 80 49 123
3 123 101 80
3 255 208 20
3 199 33 64
3 164 33 199
3 37 240 57
3 57 240 197
3 57 197 152
3 152 75 57
3 75 138 57
3 114 252 171
3 114 238 252
3 171 33 114
3 114 33 164
3 114 164 128
3 128 238 114
3 36 195 156
3 36 185 195
3 36 156 37
3 37 57 36
3 36 57 138
3 103 185 36
3 36 138 103
3 66 62 76
3 7 62 66
3 76 159 170
3 159 253 170
3 170 66 76
3 79 66 170
3 87 106 28
3 50 106 87
3 28 55 87
3 55 50 87
3 105 212 98
3 212 84 98
3 94 254 120
3 120 254 17
3 194 94 120
3 172 194 120
3 120 17 172
3 143 179 97
3 97 100 143
3 143 100 14
3 14 108 143
3 108 179 143
3 200 126 2
3 155 126 200
3 200 2 6
3 6 163 200
3 53 220 74
3 246 85 9
3 9 202 246
3 177 90 150
3 150 90 246
3 247 104 166
3 83 247 166
3 166 209 83
3 166 118 209
3 88 4 19
3 19 235 88
3 41 4 88
3 204 161 158
3 158 107 204
3 107 111 204
3 128 164 95
3 164 199 95
3 153 208 90
3 153 20 208
3 229 209 32
3 209 118 32
3 32 38 229
3 64 38 32
3 32 199 64
3 73 66 79
3 73 185 218
3 218 7 73
3 7 66 73
3 195 185 73
3 73 79 195
3 79 170 39
3 68 195 39
3 195 79 39
3 22 68 39
3 39 253 22
3 39 170 253
3 65 103 196
3 218 185 65
3 65 185 103
3 65 84 218
3 65 98 84
3 163 74 125
3 177 150 125
3 125 150 163
3 125 220 177
3 125 74 220
3 53 74 137
3 137 232 53
3 6 232 137
3 137 163 6
3 137 74 163
3 213 44 42
3 44 0 42
3 42 161 213
3 158 161 42
3 155 200 91
3 91 200 163
3 163 150 91
3 118 166 56
3 162 124 3
3 162 3 41
3 41 88 162
3 235 124 162
3 162 88 235
3 161 204 130
3 130 72 167
3 167 213 130
3 213 161 130
3 197 240 10
3 10 240 128
3 128 95 10
3 147 90 177
3 147 153 90
3 147 220 152
3 177 220 147
3 105 98 216
3 98 129 216
3 216 129 203
3 216 106 105
3 203 106 216
3 98 65 225
3 225 129 98
3 225 65 196
3 203 129 225
3 225 196 53
3 53 232 225
3 225 232 203
3 133 158 113
3 158 42 113
3 113 0 202
3 113 42 0
3 155 91 160
3 44 155 160
3 160 0 44
3 102 91 150
3 246 202 102
3 102 150 246
3 102 160 91
3 202 0 102
3 0 160 102
3 118 56 67
3 20 10 67
3 67 10 95
3 134 56 166
3 134 104 255
3 134 166 104
3 255 20 134
3 20 67 134
3 134 67 56
3 122 130 204
3 178 15 122
3 122 15 71
3 122 111 178
3 122 204 111
3 71 72 122
3 72 130 122
3 152 197 206
3 206 147 152
3 153 147 206
3 197 10 206
3 20 153 206
3 206 10 20
3 8 85 133
3 133 113 8
3 8 9 85
3 202 9 8
3 8 113 202
3 118 67 157
3 157 67 95
3 157 32 118
3 157 95 199
3 199 32 157