ply
format ascii 1.0
comment https://github.com/mikedh/trimesh
element vertex 256
property float x
property float y
property float z
element face 508
property list uchar int vertex_indices
end_header
-0.39565656 1.16933680 3.38932014
0.74574572 -2.24874425 -1.23879707
0.32663253 2.13833570 2.70315456
-0.45710281 -2.69815946 1.46506882
-0.56399828 -2.79440546 -0.37406316
0.35880741 -2.65987873 1.83076870
0.06555203 2.52598214 2.40483546
0.67036647 1.60815799 -2.52661037
-0.65750057 0.96321523 3.00619721
-0.74974108 1.13955879 2.64966369
-0.87880284 1.90922427 -1.09147537
-0.50371522 -0.68594301 -3.42428994
0.96148175 0.83227444 -1.96155202
-0.16158338 -2.94681025 1.45971715
0.47097683 -0.88747770 -3.40767384
0.08518385 -1.73145676 3.27959585
-0.96555805 0.46073428 2.11487865
1.02993023 -1.19276249 -1.10900879
0.48591745 -2.85752416 -0.73047119
-0.31266460 -3.08865666 -0.23137921
-0.94527078 1.86514103 0.27083141
-0.80938303 -0.18113926 -2.80158281
-0.05060143 0.55414069 -3.84574819
-0.12102404 -2.99159646 -1.36699927
-0.26825669 -2.76235986 1.78390217
0.87916553 -0.10937703 -2.56084561
-0.41759962 -2.33451271 2.29219151
0.53982830 -0.84926331 3.30528688
0.83601600 1.98604631 1.25337625
1.00827038 -0.08539780 -1.95515811
-0.38633373 -1.72872508 -3.02860284
-0.40058532 -2.10929108 -2.62331510
-1.11492026 0.37733975 -1.03729665
-0.81763113 0.72069353 -2.64136457
0.24142514 -2.48725915 -2.33652902
0.82432616 0.76611596 -2.59955835
-0.15715230 2.74836159 -1.95627630
-0.38462597 2.49730277 -2.09347153
-1.05867875 -0.37732506 -1.56431806
0.17919254 1.02596390 -3.65447998
0.14551497 -2.30025053 2.68406081
-0.72402245 -2.46353173 0.62185693
-0.37841085 0.64776427 3.61170793
-0.88468909 -0.73387563 -2.37945771
-0.09131023 0.77951396 3.77942204
0.33872768 -1.46810818 -3.28489614
-0.76514786 -2.41366291 -0.24462976
0.52402282 -2.38626552 -1.93878829
-0.88184106 -2.04072022 -0.59212607
0.82077283 -0.65725535 2.65468335
0.99325824 1.10903585 1.53098178
0.61177403 -2.72762752 0.21136883
0.32804441 -3.06151199 0.44295624
0.13793315 3.18149090 0.29217243
-0.67662311 -2.56205034 -0.63456231
0.85619974 1.42042112 2.00915670
-1.12113619 0.86493480 -0.14458713
-0.44617447 2.70536995 -1.48267508
0.43496805 -2.01265812 -2.67376328
0.78249860 0.22496179 -2.88270020
0.61956197 -2.58410072 -1.03796029
-0.35470790 1.84561884 -2.96936226
0.70630491 0.84369862 -2.93287468
-0.71020037 -1.87419689 2.09821606
-0.98072159 0.13803752 -2.10195756
0.36899939 2.94460440 -0.95502895
0.45443299 1.34381175 -3.20579290
-1.06538069 1.22424138 -0.52417350
-0.13243322 1.10472643 -3.64270496
1.15994728 0.27392945 0.12497396
-0.25565821 -1.33594954 -3.44943166
0.25485963 -0.73469949 3.70708084
0.12663932 -0.35948056 3.86081696
0.35116300 1.70374167 -3.09710932
-0.19196680 3.04070187 1.08547652
-0.25957844 3.11297750 -0.41299108
0.52540332 0.55369282 -3.42288518
-0.73792881 -2.11167789 -1.59633434
-0.51649702 -2.66512728 -1.32477915
0.28243870 1.41876495 -3.37566543
0.90590012 -1.18239570 1.99223471
1.03944433 1.41773272 -0.36303070
-0.02462211 -1.91171920 -3.13993216
-1.16166639 -0.14059386 0.21590512
0.54515022 2.48999715 -1.65881145
-0.83761156 0.65445077 2.59766722
1.03850782 0.51954645 -1.65223539
0.95233959 1.54266405 1.24371314
-0.49589714 -2.90635228 0.08818718
-0.12379505 -2.65709805 2.15698242
-0.72446764 2.10754848 1.67110968
-0.33167201 2.03259230 2.81414104
-0.00472629 -2.93693471 1.58521461
0.59115630 1.35416889 2.93710351
1.08515692 -1.14580417 0.27181262
-0.98713738 1.35195613 -1.26566255
-0.70995730 -1.51635015 2.48911715
0.78242171 -1.38924134 -2.34980536
0.59716880 2.58320165 -1.17510593
-0.64208943 -1.91004133 -2.28914309
0.53007728 -1.49262118 -2.96927309
0.81705981 -1.58000326 2.01498580
-0.44821432 1.56860113 3.06088614
0.04455617 3.07841730 -1.10940075
-1.06248391 0.72215241 1.33708310
0.90641540 1.96245956 -0.56508946
0.99497318 1.58917391 0.62225699
-0.76163214 -0.81128389 2.78737593
0.76501912 -0.34903902 -2.91587448
0.19267541 -3.09425521 -0.82815957
-1.04725921 0.38200492 1.64669788
-0.44915795 -1.73046255 2.92721510
0.32849553 -0.78758031 -3.62499404
-0.52766317 0.70690030 3.37607360
-0.70848805 1.27104902 -2.68929982
0.79512268 1.19889212 -2.45635176
-0.21473940 0.00650495 -3.84126520
-0.31587842 -0.39466786 -3.73180819
-1.13015378 0.62480593 -0.55771691
1.06439722 -1.06232750 0.92352641
1.08243835 -1.15858531 -0.31061950
0.49870288 -1.28818357 3.16491508
-0.06040973 -1.42839956 3.49485898
0.65396088 -1.27432334 2.83831000
-0.32286158 -2.91439486 1.23930573
-0.31436491 2.81338811 1.56466377
0.11956152 1.51677835 3.42227507
0.00956266 3.19679856 -0.37950516
-0.74217176 1.68910992 -2.20137215
0.71512502 2.53485799 -0.10274649
-0.18209398 -0.79787338 3.73710585
0.70040327 -0.40328354 3.08399200
-0.47333553 -2.33088541 -2.17097497
-0.70382959 -0.10553721 3.11219788
-1.10254836 0.98099375 0.40189993
-1.07949567 -1.02649200 -0.76954889
1.04263222 0.48799562 1.63765788
0.03590662 2.81952095 1.86984873
-0.16618700 2.98209190 -1.34209323
0.85833454 -1.85449326 1.37341166
0.35660079 -2.28289104 2.47551560
0.87337905 0.78706807 2.40172076
0.94368744 -1.34944701 -1.59884083
0.63292539 -1.13801670 -2.97475767
0.95388252 -0.90450740 -1.95568955
0.78500175 -2.37304378 0.01342912
0.66366851 0.52572978 3.14729619
-0.67938185 2.59138441 0.36712903
0.65737820 1.98810375 2.13625264
0.20460185 0.32988292 3.82702923
-0.41846266 2.29734063 2.34331226
-0.05633887 -2.26819015 -2.76161337
-0.41813570 2.98444986 -0.35128272
-0.79514915 2.31741261 0.46342751
0.68223053 0.97794509 2.93528485
-0.08238675 1.81344151 3.21464968
-0.35292032 2.22653890 -2.55708528
-1.08485627 0.85746753 -0.96665370
-0.54658771 -0.38637480 3.41937208
0.51345545 0.13310887 -3.50458503
-0.29650274 1.66968226 3.18732619
-0.32720920 -0.38750365 3.72124195
-0.49529317 -2.79208970 0.98868871
-0.18687275 2.71810627 1.98656893
-0.82990903 1.23040819 -2.29804325
-0.35055378 -0.90440321 -3.56066012
-1.14987063 0.50223196 0.12251191
-0.01197417 0.21979485 3.89874125
0.35029334 -2.76038527 -1.62002063
-0.85082364 -0.06147412 2.66817999
0.30717707 0.81074548 -3.63829112
-0.67110479 0.88493931 -3.00784683
1.09077942 -0.44633451 -1.26183045
1.08512580 -0.18856971 1.40199971
-0.78288031 -1.34235251 -2.38862872
-0.85710782 -1.01833391 2.33797240
-0.00354598 -3.12465453 0.90906250
-0.45609364 2.64670563 1.60325134
-0.24489889 -2.41396832 2.44541168
0.82103896 -0.96235293 -2.51259947
-0.02374468 -3.21126890 0.11119344
0.42823815 -0.46103176 3.59136152
0.70577502 2.15264177 1.67585349
0.27805912 1.60917044 3.25161457
0.17426816 -0.49777174 -3.81640649
0.16945393 2.54620099 -2.31511235
0.53780210 -2.66696453 1.22135639
-0.88646787 -1.61691713 1.60054588
0.99298263 -0.14244024 2.03560758
-1.00970590 -1.02338731 -1.49720192
0.10598274 -2.79396582 -1.89528203
1.05838931 0.81496876 -1.29458499
0.23187535 -1.77405357 3.16377282
-0.60613906 0.54924190 -3.26971531
1.13401139 -0.20343424 -0.85867864
-0.12463377 1.88019919 -3.14131045
0.22770518 3.14667702 -0.18493724
-0.61137313 2.62157464 -0.94413626
1.12091327 0.44061542 -0.91766852
-1.01256156 0.58944821 -1.79446328
-0.05434588 2.29504681 2.73042560
-1.03375196 -1.25951183 0.94631004
-0.55708677 1.27160800 3.06336379
0.75360614 2.36509585 0.77470767
-0.33706397 -1.33238196 3.37162733
-0.95384467 -0.48892665 2.16259098
-0.66770375 2.62525773 -0.23875666
0.43003541 0.99092627 3.42716455
-0.88029593 1.80581677 1.31119001
-1.15462601 -0.39236569 -0.19807632
-0.55166489 0.14352097 -3.43837023
-0.09261554 -1.52248096 -3.42840552
0.73302841 2.04303217 -1.74720144
-0.18643405 0.27994552 3.84272718
-0.86383957 -1.59461522 -1.76367939
-0.08399106 -3.12418318 -0.86976308
0.83124369 2.24084735 -0.24781926
0.44190475 -0.27501342 -3.60148954
0.39774898 2.51042700 -2.04009104
-1.06360781 -1.28903341 0.29458770
-0.26231292 3.12342358 0.24396941
-0.89915878 -2.03626442 0.17446622
1.13171446 0.01768943 0.92466974
-1.09838772 -0.58042818 1.09173059
0.15224680 -1.80577767 -3.19177580
0.45447859 2.95566559 -0.13695221
0.72426867 -2.21644330 1.45052457
0.93566060 -1.86537230 0.51723850
0.87620997 -1.94426036 -1.01728964
-1.12130606 -0.32610035 -0.97773254
-0.79387283 -2.20217395 -0.99879068
1.11401212 0.56132716 0.91295063
0.41577828 2.34872079 2.27319837
1.01272440 -1.07713890 1.41862881
0.65762550 -1.88412690 -2.27061725
-0.20641793 -3.07423878 0.89848894
-1.01238513 -1.54905176 -0.42584682
-0.21889250 0.53388041 -3.78393555
-0.61269909 1.62598979 -2.67138839
0.22864395 -3.02617121 1.06591821
-0.65920335 2.11732554 -1.93733716
0.19757406 -2.69543862 2.01986957
0.07814967 -3.02933693 -1.27469862
-0.02861949 -0.77784866 -3.79145432
-0.73738325 -0.76341540 -2.87983060
1.09955466 0.03880684 -1.28805208
-0.80642289 1.51436543 2.13555598
-1.14071774 -0.04703534 0.78631401
0.21647808 -1.22334874 -3.54013491
0.62811536 -2.67233181 -0.51735932
0.63834292 -1.83575809 2.38687539
1.12961829 0.77509147 -0.14736463
-0.47331339 1.08256137 -3.31957293
0.22847876 0.24886164 -3.82039404
0.97779119 -1.73354757 -0.24331903
-1.00195348 1.33397043 1.15445089
3 135 229 189
3 110 247 223
3 223 247 83
3 30 31 99
3 209 229 135
3 209 223 83
3 38 189 229
3 64 43 38
3 38 43 189
3 94 194 69
3 149 181 146
3 80 233 188
3 146 181 131
3 146 131 141
3 141 131 188
3 110 223 205
3 237 68 22
3 172 144 29
3 198 86 191
3 191 251 198
3 69 194 198
3 198 251 69
3 51 226 186
3 23 78 132
3 99 31 132
3 19 78 23
3 165 30 11
3 23 190 242
3 159 76 59
3 59 108 159
3 248 184 112
3 243 184 248
3 211 243 248
3 248 224 211
3 211 224 82
3 82 30 211
3 34 224 58
3 234 47 58
3 58 47 34
3 21 43 64
3 174 30 99
3 135 189 236
3 46 48 230
3 227 94 119
3 167 149 44
3 44 213 167
3 49 80 188
3 188 131 49
3 136 141 188
3 182 55 28
3 148 55 182
3 250 226 101
3 180 109 52
3 186 239 52
3 52 51 186
3 72 149 167
3 181 149 72
3 72 71 181
3 121 140 250
3 107 158 133
3 96 107 175
3 175 107 205
3 68 237 252
3 252 61 68
3 68 61 195
3 61 156 195
3 245 198 194
3 86 198 245
3 245 194 172
3 172 29 245
3 245 29 86
3 59 76 62
3 191 86 12
3 86 29 12
3 81 251 191
3 191 105 81
3 212 105 191
3 191 12 212
3 203 182 28
3 17 144 172
3 60 47 1
3 1 47 234
3 168 190 34
3 34 47 168
3 109 242 168
3 168 242 190
3 168 47 60
3 227 226 145
3 226 51 145
3 145 1 228
3 109 168 18
3 18 168 60
3 18 52 109
3 51 52 18
3 180 19 215
3 215 19 23
3 23 242 215
3 215 109 180
3 215 242 109
3 78 19 4
3 4 41 46
3 70 243 211
3 70 165 243
3 211 30 70
3 30 165 70
3 116 237 22
3 22 184 116
3 116 184 243
3 25 29 144
3 25 108 59
3 25 12 29
3 217 108 14
3 217 159 108
3 217 14 112
3 112 184 217
3 253 184 22
3 253 217 184
3 159 217 253
3 112 14 45
3 45 248 112
3 224 248 45
3 45 58 224
3 151 224 34
3 151 82 224
3 34 190 151
3 151 190 23
3 31 30 151
3 30 82 151
3 23 132 151
3 151 132 31
3 210 252 237
3 237 116 210
3 43 21 244
3 244 174 43
3 244 210 11
3 21 210 244
3 11 30 244
3 30 174 244
3 214 236 189
3 48 236 214
3 214 230 48
3 189 43 214
3 43 174 214
3 214 174 99
3 201 205 223
3 201 175 205
3 221 236 48
3 46 41 221
3 221 48 46
3 78 230 77
3 99 132 77
3 77 132 78
3 77 214 99
3 230 214 77
3 222 94 69
3 222 119 94
3 69 251 231
3 231 222 69
3 136 222 231
3 141 136 50
3 50 55 141
3 136 231 50
3 93 55 148
3 148 2 93
3 93 2 183
3 16 85 246
3 110 205 16
3 220 75 152
3 233 80 139
3 80 101 139
3 227 119 139
3 139 119 233
3 139 226 227
3 139 101 226
3 180 52 176
3 176 52 239
3 63 41 3
3 3 26 63
3 89 13 92
3 92 241 89
3 13 176 92
3 239 241 92
3 92 176 239
3 5 239 186
3 5 241 239
3 140 241 5
3 186 226 5
3 5 226 250
3 250 140 5
3 40 178 89
3 40 15 178
3 89 241 40
3 40 241 140
3 181 71 27
3 71 121 27
3 27 131 181
3 140 121 192
3 192 40 140
3 15 40 192
3 71 15 192
3 192 121 71
3 33 21 64
3 37 156 240
3 61 252 238
3 128 240 238
3 238 156 61
3 238 240 156
3 127 220 53
3 75 220 127
3 53 196 127
3 196 103 127
3 127 138 75
3 103 138 127
3 106 81 105
3 106 203 28
3 106 50 231
3 251 81 106
3 106 231 251
3 84 7 218
3 84 212 7
3 7 212 115
3 115 212 12
3 115 62 7
3 228 17 254
3 254 94 227
3 227 145 254
3 254 145 228
3 249 18 60
3 51 18 249
3 249 145 51
3 60 1 249
3 1 145 249
3 54 230 78
3 78 4 54
3 46 230 54
3 54 4 46
3 243 165 117
3 117 116 243
3 117 165 11
3 11 210 117
3 117 210 116
3 179 25 144
3 108 25 179
3 144 97 179
3 35 25 59
3 12 25 35
3 35 115 12
3 59 62 35
3 62 115 35
3 142 17 228
3 234 97 142
3 144 17 142
3 142 97 144
3 142 1 234
3 228 1 142
3 234 58 100
3 58 45 100
3 100 97 234
3 100 45 14
3 193 210 21
3 193 33 171
3 21 33 193
3 171 252 193
3 252 210 193
3 187 41 63
3 175 201 187
3 187 221 41
3 201 221 187
3 63 96 187
3 96 175 187
3 236 221 219
3 219 221 201
3 219 209 135
3 135 236 219
3 223 209 219
3 219 201 223
3 173 136 188
3 173 222 136
3 188 233 173
3 233 119 173
3 119 222 173
3 148 182 232
3 232 2 148
3 6 2 232
3 182 203 232
3 126 155 44
3 126 44 149
3 183 2 126
3 207 93 183
3 207 126 149
3 183 126 207
3 207 149 146
3 141 55 154
3 55 93 154
3 146 141 154
3 154 207 146
3 93 207 154
3 246 255 104
3 104 16 246
3 110 16 104
3 104 247 110
3 133 85 169
3 85 16 169
3 169 16 205
3 169 107 133
3 205 107 169
3 208 255 246
3 246 90 208
3 235 176 13
3 235 19 180
3 180 176 235
3 124 235 13
3 178 26 24
3 26 3 24
3 89 178 24
3 3 124 24
3 24 13 89
3 24 124 13
3 111 107 96
3 111 96 63
3 63 26 111
3 111 26 178
3 123 27 121
3 123 121 250
3 123 49 131
3 131 27 123
3 250 101 123
3 80 49 123
3 123 101 80
3 255 208 20
3 199 33 64
3 164 33 199
3 37 240 57
3 57 240 197
3 57 197 152
3 152 75 57
3 75 138 57
3 114 252 171
3 114 238 252
3 171 33 114
3 114 33 164
3 114 164 128
3 128 238 114
3 36 195 156
3 36 185 195
3 36 156 37
3 37 57 36
3 36 57 138
3 103 185 36
3 36 138 103
3 66 62 76
3 7 62 66
3 76 159 170
3 159 253 170
3 170 66 76
3 79 66 170
3 87 106 28
3 50 106 87
3 28 55 87
3 55 50 87
3 105 212 98
3 212 84 98
3 94 254 120
3 120 254 17
3 194 94 120
3 172 194 120
3 120 17 172
3 143 179 97
3 97 100 143
3 143 100 14
3 14 108 143
3 108 179 143
3 200 126 2
3 155 126 200
3 200 2 6
3 6 163 200
3 53 220 74
3 246 85 9
3 9 202 246
3 177 90 150
3 150 90 246
3 247 104 166
3 83 247 166
3 166 209 83
3 166 118 209
3 88 4 19
3 19 235 88
3 41 4 88
3 204 161 158
3 158 107 204
3 107 111 204
3 128 164 95
3 164 199 95
3 153 208 90
3 153 20 208
3 229 209 32
3 209 118 32
3 32 38 229
3 64 38 32
3 32 199 64
3 73 66 79
3 73 185 218
3 218 7 73
3 7 66 73
3 195 185 73
3 73 79 195
3 79 170 39
3 68 195 39
3 195 79 39
3 22 68 39
3 39 253 22
3 39 170 253
3 65 103 196
3 218 185 65
3 65 185 103
3 65 84 218
3 65 98 84
3 163 74 125
3 177 150 125
3 125 150 163
3 125 220 177
3 125 74 220
3 53 74 137
3 137 232 53
3 6 232 137
3 137 163 6
3 137 74 163
3 213 44 42
3 44 0 42
3 42 161 213
3 158 161 42
3 155 200 91
3 91 200 163
3 163 150 91
3 118 166 56
3 162 124 3
3 162 3 41
3 41 88 162
3 235 124 162
3 162 88 235
3 161 204 130
3 130 72 167
3 167 213 130
3 213 161 130
3 197 240 10
3 10 240 128
3 128 95 10
3 147 90 177
3 147 153 90
3 147 220 152
3 177 220 147
3 105 98 216
3 98 129 216
3 216 129 203
3 216 106 105
3 203 106 216
3 98 65 225
3 225 129 98
3 225 65 196
3 203 129 225
3 225 196 53
3 53 232 225
3 225 232 203
3 133 158 113
3 158 42 113
3 113 0 202
3 113 42 0
3 155 91 160
3 44 155 160
3 160 0 44
3 102 91 150
3 246 202 102
3 102 150 246
3 102 160 91
3 202 0 102
3 0 160 102
3 118 56 67
3 20 10 67
3 67 10 95
3 134 56 166
3 134 104 255
3 134 166 104
3 255 20 134
3 20 67 134
3 134 67 56
3 122 130 204
3 178 15 122
3 122 15 71
3 122 111 178
3 122 204 111
3 71 72 122
3 72 130 122
3 152 197 206
3 206 147 152
3 153 147 206
3 197 10 206
3 20 153 206
3 206 10 20
3 8 85 133
3 133 113 8
3 8 9 85
3 202 9 8
3 8 113 202
3 118 67 157
3 157 67 95
3 157 32 118
3 157 95 199
3 199 32 157