ply
format ascii 1.0
comment https://github.com/mikedh/trimesh
element vertex 256
property float x
property float y
property float z
element face 508
property list uchar int vertex_indices
end_header
-1.41325462 1.63035536 3.78519535
2.66374588 -3.13532615 -1.38348949
1.16670609 2.98138833 3.01888514
-1.63273573 -3.76192617 1.63618994
-2.01455808 -3.89611745 -0.41775402
1.28163230 -3.70855260 2.04460382
0.23414677 3.52186680 2.68572211
2.39449716 2.24218440 -2.82172036
-2.34854126 1.34296894 3.35732341
-2.67801714 1.58883703 2.95914650
-3.13901567 2.66194797 -1.21896052
-1.79923177 -0.95638043 -3.82424974
3.43433833 1.16040397 -2.19066286
-0.57716334 -4.10860920 1.63021314
1.68229282 -1.23737144 -3.80569267
0.30427012 -2.41409469 3.66265512
-3.44889855 0.64238167 2.36189818
3.67883086 -1.66301668 -1.23854184
1.73565948 -3.98412108 -0.81579077
-1.11681378 -4.30637932 -0.25840446
-3.37643409 2.60048485 0.30246472
-2.89105344 -0.25255457 -3.12880993
-0.18074439 0.77261418 -4.29493427
-0.43228850 -4.17105246 -1.52666581
-0.95819217 -3.85143805 1.99226320
3.14031124 -0.15249962 -2.85995436
-1.49163353 -3.25490928 2.55992126
1.92822480 -1.18409073 3.69134688
2.98618436 2.76905775 1.39977157
3.60146379 -0.11906643 -2.18352199
-1.37995422 -2.41028595 -3.38234591
-1.43085980 -2.94089246 -2.92972016
-3.98240876 0.52610832 -1.15845370
-2.92051506 1.00483155 -2.94987798
0.86235189 -3.46787691 -2.60943747
2.94442916 1.06816196 -2.90318871
-0.56133580 3.83192062 -2.18477082
-1.37385416 3.48188019 -2.33799052
-3.78151846 -0.52608788 -1.74703157
0.64006186 1.43045676 -4.08132601
0.51976818 -3.20713902 2.99756122
-2.58615208 -3.43479490 0.69449025
-1.35165417 0.90314943 4.03355789
-3.16004086 -1.02321076 -2.65738010
-0.32615307 1.08684230 4.22086143
1.20990908 -2.04691911 -3.66857457
-2.73304892 -3.36526489 -0.27320272
1.87176883 -3.32706594 -2.16524029
-3.14986801 -2.84528708 -0.66128683
2.93173695 -0.91638249 2.96475244
3.54784131 1.54628026 1.70980155
2.18520951 -3.80301189 0.23605686
1.17174923 -4.26853275 0.49469388
0.49268651 4.43581390 0.32629839
-2.41684532 -3.57215500 -0.70867968
3.05827928 1.98043120 2.24382782
-4.00461149 1.20594084 -0.16147500
-1.59370065 3.77197909 -1.65585256
1.55367219 -2.80616140 -2.98606086
2.79502439 0.31365439 -3.21940160
2.21302748 -3.60289884 -1.15919483
-1.26698923 2.57326579 -3.31618619
2.52286649 1.17633212 -3.27543664
-2.53678060 -2.61311078 2.34328914
-3.50306177 0.19245969 -2.34746790
1.31803727 4.10553360 -1.06657708
1.62319946 1.87361813 -3.58023190
-3.80545735 1.70690632 -0.58539736
-0.47304124 1.54027188 -4.06817579
4.14324188 0.38192785 0.13957101
-0.91319138 -1.86265624 -3.85232782
0.91033882 -1.02435946 4.14007092
0.45234588 -0.50120807 4.31176329
1.25432694 2.37545252 -3.45885420
-0.68569052 4.23951769 1.21226096
-0.92719412 4.34028864 -0.46122873
1.87669992 0.77198976 -3.82268071
-2.63582468 -2.94422054 -1.78278744
-1.84488738 -3.71587086 -1.47951436
1.00884914 1.97812212 -3.76994562
3.23580503 -1.64856267 2.22492933
3.71281433 1.97668278 -0.40543297
-0.08794826 -2.66542649 -3.50667858
-4.14938259 -0.19602388 0.24112301
1.94723439 3.47169447 -1.85256195
-2.99188352 0.91247213 2.90107679
3.70946956 0.72438097 -1.84521770
3.40168333 2.15086913 1.38897979
-1.77130616 -4.05220032 0.09848751
-0.44218633 -3.70467567 2.40891957
-2.58774233 2.93846273 1.86629653
-1.18470681 2.83395457 3.14283490
-0.01688196 -4.09484005 1.77036893
2.11156464 1.88805854 3.28015947
3.87609649 -1.59754467 0.30356053
-3.52597809 1.88497341 -1.41349292
-2.53591251 -2.11418080 2.77984786
2.79474974 -1.93695855 -2.62426448
2.13304067 3.60164547 -1.31235921
-2.29349375 -2.66308737 -2.55651665
1.89339495 -2.08109665 -3.31608629
2.91847444 -2.20292950 2.25033784
-1.60098684 2.18703198 3.41839981
0.15915118 4.29210281 -1.23897970
-3.79511046 1.00686562 1.49325538
3.23764563 2.73617172 -0.63109237
3.55396700 2.21571589 0.69493705
-2.72049093 -1.13113773 3.11294341
2.73258901 -0.48664987 -3.25645089
0.68822163 -4.31418514 -0.92488927
-3.74072886 0.53261280 1.83903348
-1.60435748 -2.41270852 3.26911592
1.17336059 -1.09808886 -4.04839611
-1.88477206 0.98560023 3.77040148
-2.53066444 1.77216816 -3.00341201
2.84011650 1.67156291 -2.74325562
-0.76703250 0.00906957 -4.28992796
-1.12829328 -0.55026817 -4.16768599
-4.03682184 0.87113965 -0.62285870
3.80194449 -1.48115695 1.03139496
3.86638594 -1.61536503 -0.34690008
1.78132808 -1.79605806 3.53457952
-0.21577887 -1.99155521 3.90306115
2.33589768 -1.77673340 3.16982675
-1.15323663 -4.06341362 1.38405752
-1.12288713 3.92258430 1.74741757
0.42706448 2.11477780 3.82199931
0.03415709 4.45715666 -0.42383164
-2.65098023 2.35505223 -2.45849395
2.55437112 3.53424168 -0.11474735
-0.65042561 -1.11243999 4.17360258
2.50178623 -0.56228065 3.44420457
-1.69071782 -3.24985170 -2.42454648
-2.51402473 -0.14714593 3.47570491
-3.93821740 1.36775672 0.44884214
-3.85587502 -1.43119287 -0.85943282
3.72420144 0.68039101 1.82893753
0.12825568 3.93113518 2.08824849
-0.59360707 4.15780067 -1.49885082
3.06590438 -2.58563900 1.53382719
1.27375042 -3.18293548 2.76465774
3.11964226 1.09737468 2.68224359
3.37077832 -1.88147497 -1.78558660
2.26076055 -1.58668709 -3.32221174
3.40719461 -1.26111519 -2.18411565
2.80396557 -3.30863142 0.01499765
2.37057257 0.73300207 3.51490283
-2.42669916 3.61305428 0.41000998
2.34810400 2.77192640 2.38576841
0.73082197 0.45994136 4.27402925
-1.49471629 3.20308185 2.61701298
-0.20123808 -3.16243839 -3.08417201
-1.49354839 4.16108799 -0.39231279
-2.84021115 3.23106742 0.51755619
2.43687463 1.36350620 3.27812839
-0.29427910 2.52840233 3.59012318
-1.26060402 3.10436606 -2.85575461
-3.87502241 1.19552958 -1.07955956
-1.95236897 -0.53870553 3.81875753
1.83402300 0.18558790 -3.91392326
-1.05908477 2.32796502 3.55960846
-1.16876590 -0.54027945 4.15588570
-1.76914895 -3.89288878 1.10416830
-0.66749501 3.78973699 2.21860170
-2.96437073 1.71550441 -2.56645632
-1.25215089 -1.26096988 -3.97654796
-4.10724878 0.70024008 0.13682139
-0.04277081 0.30645037 4.35411739
1.25122070 -3.84868455 -1.80924022
-3.03907609 -0.08571068 2.97982550
1.09721267 1.13038707 -4.06324625
-2.39713430 1.23383236 -3.35916567
3.89617968 -0.62230474 -1.40921319
3.87598515 -0.26291454 1.56575441
-2.79638791 -1.87158358 -2.66762233
-3.06152272 -1.41981864 2.61104941
-0.01266595 -4.35656929 1.01524174
-1.62913120 3.69018626 1.79051232
-0.87475985 -3.36569071 2.73103762
2.93268776 -1.34176672 -2.80607295
-0.08481415 -4.47733212 0.12418092
1.52963352 -0.64279652 4.01083517
2.52097368 3.00133467 1.87159443
0.99320573 2.24359608 3.63140559
0.62247241 -0.69402140 -4.26216555
0.60527629 3.55005693 -2.58551931
1.92098761 -3.71843219 1.36401176
-3.16639447 -2.25439692 1.78749096
3.54685688 -0.19859821 2.27336812
-3.60659146 -1.42686427 -1.67207623
0.37856215 -3.89550447 -2.11665249
3.78048468 1.13627529 -1.44579351
0.82824081 -2.47348547 3.53330398
-2.16508174 0.76578403 -3.65162039
4.05060101 -0.28363949 -0.95897293
-0.44518214 2.62147975 -3.50821805
0.81334531 4.38727474 -0.20653805
-2.18377757 3.65514731 -1.05441213
4.00381565 0.61433083 -1.02485287
-3.61679149 0.82184190 -2.00405788
-0.19411926 3.19988346 3.04934144
-3.69248199 -1.75608242 1.05683982
-1.98987091 1.77294755 3.42116690
2.69182277 3.29754996 0.86519414
-1.20396638 -1.85768211 3.76543593
-3.40705943 -0.68168908 2.41518331
-2.38498616 3.66028237 -0.26664361
1.53605318 1.38160527 3.82746005
-3.14434886 2.51777148 1.46433794
-4.12423468 -0.54705834 -0.22121179
-1.97050428 0.20010503 -3.83997440
-0.33081552 -2.12272882 -3.82884574
2.61832070 2.84851050 -1.95127594
-0.66592795 0.39031583 4.29156065
-3.08556795 -2.22330260 -1.96967852
-0.30000955 -4.35591221 -0.97135204
2.96913791 3.12431574 -0.27676472
1.57844961 -0.38343921 -4.02214622
1.42072856 3.50017881 -2.27837515
-3.79912472 -1.79724312 0.32899576
-0.93696141 4.35485315 0.27246523
-3.21172547 -2.83907461 0.19484401
4.04239655 0.02466360 1.03267181
-3.92335582 -0.80926567 1.21924555
0.54381377 -2.51771712 -3.56457758
1.62336230 4.12095547 -0.15294833
2.58703160 -3.09029031 1.61994696
3.34210730 -2.60080719 0.57765234
3.12975407 -2.71079731 -1.13610995
-4.00521851 -0.45466748 -1.09193242
-2.83565211 -3.07039499 -1.11545014
3.97916484 0.78263396 1.01958394
1.48512781 3.27471900 2.53870964
3.61737299 -1.50180781 1.58432567
2.34898734 -2.62695599 -2.53582692
-0.73730886 -4.28627682 1.00343311
-3.61616135 -2.15977526 -0.47558603
-0.78186703 0.74436617 -4.22590208
-2.18851376 2.26704669 -2.98340869
0.81669849 -4.21925879 1.19041824
-2.35462332 2.95209455 -2.16361952
0.70571929 -3.75813222 2.25579190
0.27914456 -4.22367239 -1.42358434
-0.10222660 -1.08452046 -4.23429918
-2.63387585 -1.06439674 -3.21619701
3.92752433 0.05410669 -1.43849754
-2.88048005 2.11141372 2.38499045
-4.07455540 -0.06557932 0.87815607
0.77324289 -1.70566177 -3.95362520
2.24357939 -3.72591543 -0.57778728
2.28011155 -2.55951738 2.66566420
4.03490925 1.08067620 -0.16457693
-1.69063878 1.50936806 -3.70730162
0.81610841 0.34697694 -4.26661873
3.49259448 -2.41700959 -0.27173889
-3.57890010 1.85989678 1.28929174
3 135 229 189
3 110 247 223
3 223 247 83
3 30 31 99
3 209 229 135
3 209 223 83
3 38 189 229
3 64 43 38
3 38 43 189
3 94 194 69
3 149 181 146
3 80 233 188
3 146 181 131
3 146 131 141
3 141 131 188
3 110 223 205
3 237 68 22
3 172 144 29
3 198 86 191
3 191 251 198
3 69 194 198
3 198 251 69
3 51 226 186
3 23 78 132
3 99 31 132
3 19 78 23
3 165 30 11
3 23 190 242
3 159 76 59
3 59 108 159
3 248 184 112
3 243 184 248
3 211 243 248
3 248 224 211
3 211 224 82
3 82 30 211
3 34 224 58
3 234 47 58
3 58 47 34
3 21 43 64
3 174 30 99
3 135 189 236
3 46 48 230
3 227 94 119
3 167 149 44
3 44 213 167
3 49 80 188
3 188 131 49
3 136 141 188
3 182 55 28
3 148 55 182
3 250 226 101
3 180 109 52
3 186 239 52
3 52 51 186
3 72 149 167
3 181 149 72
3 72 71 181
3 121 140 250
3 107 158 133
3 96 107 175
3 175 107 205
3 68 237 252
3 252 61 68
3 68 61 195
3 61 156 195
3 245 198 194
3 86 198 245
3 245 194 172
3 172 29 245
3 245 29 86
3 59 76 62
3 191 86 12
3 86 29 12
3 81 251 191
3 191 105 81
3 212 105 191
3 191 12 212
3 203 182 28
3 17 144 172
3 60 47 1
3 1 47 234
3 168 190 34
3 34 47 168
3 109 242 168
3 168 242 190
3 168 47 60
3 227 226 145
3 226 51 145
3 145 1 228
3 109 168 18
3 18 168 60
3 18 52 109
3 51 52 18
3 180 19 215
3 215 19 23
3 23 242 215
3 215 109 180
3 215 242 109
3 78 19 4
3 4 41 46
3 70 243 211
3 70 165 243
3 211 30 70
3 30 165 70
3 116 237 22
3 22 184 116
3 116 184 243
3 25 29 144
3 25 108 59
3 25 12 29
3 217 108 14
3 217 159 108
3 217 14 112
3 112 184 217
3 253 184 22
3 253 217 184
3 159 217 253
3 112 14 45
3 45 248 112
3 224 248 45
3 45 58 224
3 151 224 34
3 151 82 224
3 34 190 151
3 151 190 23
3 31 30 151
3 30 82 151
3 23 132 151
3 151 132 31
3 210 252 237
3 237 116 210
3 43 21 244
3 244 174 43
3 244 210 11
3 21 210 244
3 11 30 244
3 30 174 244
3 214 236 189
3 48 236 214
3 214 230 48
3 189 43 214
3 43 174 214
3 214 174 99
3 201 205 223
3 201 175 205
3 221 236 48
3 46 41 221
3 221 48 46
3 78 230 77
3 99 132 77
3 77 132 78
3 77 214 99
3 230 214 77
3 222 94 69
3 222 119 94
3 69 251 231
3 231 222 69
3 136 222 231
3 141 136 50
3 50 55 141
3 136 231 50
3 93 55 148
3 148 2 93
3 93 2 183
3 16 85 246
3 110 205 16
3 220 75 152
3 233 80 139
3 80 101 139
3 227 119 139
3 139 119 233
3 139 226 227
3 139 101 226
3 180 52 176
3 176 52 239
3 63 41 3
3 3 26 63
3 89 13 92
3 92 241 89
3 13 176 92
3 239 241 92
3 92 176 239
3 5 239 186
3 5 241 239
3 140 241 5
3 186 226 5
3 5 226 250
3 250 140 5
3 40 178 89
3 40 15 178
3 89 241 40
3 40 241 140
3 181 71 27
3 71 121 27
3 27 131 181
3 140 121 192
3 192 40 140
3 15 40 192
3 71 15 192
3 192 121 71
3 33 21 64
3 37 156 240
3 61 252 238
3 128 240 238
3 238 156 61
3 238 240 156
3 127 220 53
3 75 220 127
3 53 196 127
3 196 103 127
3 127 138 75
3 103 138 127
3 106 81 105
3 106 203 28
3 106 50 231
3 251 81 106
3 106 231 251
3 84 7 218
3 84 212 7
3 7 212 115
3 115 212 12
3 115 62 7
3 228 17 254
3 254 94 227
3 227 145 254
3 254 145 228
3 249 18 60
3 51 18 249
3 249 145 51
3 60 1 249
3 1 145 249
3 54 230 78
3 78 4 54
3 46 230 54
3 54 4 46
3 243 165 117
3 117 116 243
3 117 165 11
3 11 210 117
3 117 210 116
3 179 25 144
3 108 25 179
3 144 97 179
3 35 25 59
3 12 25 35
3 35 115 12
3 59 62 35
3 62 115 35
3 142 17 228
3 234 97 142
3 144 17 142
3 142 97 144
3 142 1 234
3 228 1 142
3 234 58 100
3 58 45 100
3 100 97 234
3 100 45 14
3 193 210 21
3 193 33 171
3 21 33 193
3 171 252 193
3 252 210 193
3 187 41 63
3 175 201 187
3 187 221 41
3 201 221 187
3 63 96 187
3 96 175 187
3 236 221 219
3 219 221 201
3 219 209 135
3 135 236 219
3 223 209 219
3 219 201 223
3 173 136 188
3 173 222 136
3 188 233 173
3 233 119 173
3 119 222 173
3 148 182 232
3 232 2 148
3 6 2 232
3 182 203 232
3 126 155 44
3 126 44 149
3 183 2 126
3 207 93 183
3 207 126 149
3 183 126 207
3 207 149 146
3 141 55 154
3 55 93 154
3 146 141 154
3 154 207 146
3 93 207 154
3 246 255 104
3 104 16 246
3 110 16 104
3 104 247 110
3 133 85 169
3 85 16 169
3 169 16 205
3 169 107 133
3 205 107 169
3 208 255 246
3 246 90 208
3 235 176 13
3 235 19 180
3 180 176 235
3 124 235 13
3 178 26 24
3 26 3 24
3 89 178 24
3 3 124 24
3 24 13 89
3 24 124 13
3 111 107 96
3 111 96 63
3 63 26 111
3 111 26 178
3 123 27 121
3 123 121 250
3 123 49 131
3 131 27 123
3 250 101 123
3 80 49 123
3 123 101 80
3 255 208 20
3 199 33 64
3 164 33 199
3 37 240 57
3 57 240 197
3 57 197 152
3 152 75 57
3 75 138 57
3 114 252 171
3 114 238 252
3 171 33 114
3 114 33 164
3 114 164 128
3 128 238 114
3 36 195 156
3 36 185 195
3 36 156 37
3 37 57 36
3 36 57 138
3 103 185 36
3 36 138 103
3 66 62 76
3 7 62 66
3 76 159 170
3 159 253 170
3 170 66 76
3 79 66 170
3 87 106 28
3 50 106 87
3 28 55 87
3 55 50 87
3 105 212 98
3 212 84 98
3 94 254 120
3 120 254 17
3 194 94 120
3 172 194 120
3 120 17 172
3 143 179 97
3 97 100 143
3 143 100 14
3 14 108 143
3 108 179 143
3 200 126 2
3 155 126 200
3 200 2 6
3 6 163 200
3 53 220 74
3 246 85 9
3 9 202 246
3 177 90 150
3 150 90 246
3 247 104 166
3 83 247 166
3 166 209 83
3 166 118 209
3 88 4 19
3 19 235 88
3 41 4 88
3 204 161 158
3 158 107 204
3 107 111 204
3 128 164 95
3 164 199 95
3 153 208 90
3 153 20 208
3 229 209 32
3 209 118 32
3 32 38 229
3 64 38 32
3 32 199 64
3 73 66 79
3 73 185 218
3 218 7 73
3 7 66 73
3 195 185 73
3 73 79 195
3 79 170 39
3 68 195 39
3 195 79 39
3 22 68 39
3 39 253 22
3 39 170 253
3 65 103 196
3 218 185 65
3 65 185 103
3 65 84 218
3 65 98 84
3 163 74 125
3 177 150 125
3 125 150 163
3 125 220 177
3 125 74 220
3 53 74 137
3 137 232 53
3 6 232 137
3 137 163 6
3 137 74 163
3 213 44 42
3 44 0 42
3 42 161 213
3 158 161 42
3 155 200 91
3 91 200 163
3 163 150 91
3 118 166 56
3 162 124 3
3 162 3 41
3 41 88 162
3 235 124 162
3 162 88 235
3 161 204 130
3 130 72 167
3 167 213 130
3 213 161 130
3 197 240 10
3 10 240 128
3 128 95 10
3 147 90 177
3 147 153 90
3 147 220 152
3 177 220 147
3 105 98 216
3 98 129 216
3 216 129 203
3 216 106 105
3 203 106 216
3 98 65 225
3 225 129 98
3 225 65 196
3 203 129 225
3 225 196 53
3 53 232 225
3 225 232 203
3 133 158 113
3 158 42 113
3 113 0 202
3 113 42 0
3 155 91 160
3 44 155 160
3 160 0 44
3 102 91 150
3 246 202 102
3 102 150 246
3 102 160 91
3 202 0 102
3 0 160 102
3 118 56 67
3 20 10 67
3 67 10 95
3 134 56 166
3 134 104 255
3 134 166 104
3 255 20 134
3 20 67 134
3 134 67 56
3 122 130 204
3 178 15 122
3 122 15 71
3 122 111 178
3 122 204 111
3 71 72 122
3 72 130 122
3 152 197 206
3 206 147 152
3 153 147 206
3 197 10 206
3 20 153 206
3 206 10 20
3 8 85 133
3 133 113 8
3 8 9 85
3 202 9 8
3 8 113 202
3 118 67 157
3 157 67 95
3 157 32 118
3 157 95 199
3 199 32 157