ply
format ascii 1.0
comment https://github.com/mikedh/trimesh
element vertex 256
property float x
property float y
property float z
element face 508
property list uchar int vertex_indices
end_header
-0.70103574 0.47944728 3.22379780
1.32133389 -0.92202204 -1.17829859
0.57873696 0.87675273 2.57114220
-0.80990797 -1.10628963 1.39352000
-0.99930841 -1.14575195 -0.35579523
0.63574541 -1.09059381 1.74136055
0.11614698 1.03569412 2.28739190
1.18777478 0.65937114 -2.40321970
-1.16497862 0.39493403 2.85938525
-1.32841289 0.46723777 2.52026367
-1.55708838 0.78281325 -1.03817153
-0.89249718 -0.28124788 -3.25705981
1.70358109 0.34124616 -1.86575675
-0.28629813 -1.20824051 1.38842976
0.83449042 -0.36388040 -3.24125504
0.15093121 -0.70992565 3.11943197
-1.71080375 0.18890861 2.01159549
1.82486010 -0.48905215 -1.05484867
0.86096257 -1.17163169 -0.69479752
-0.55398816 -1.26639986 -0.22007947
-1.67485809 0.76473838 0.25760496
-1.43408823 -0.07427007 -2.66476345
-0.08965708 0.22720677 -3.65793538
-0.21443389 -1.22660351 -1.30023980
-0.47530496 -1.13261282 1.69678271
1.55773091 -0.04484637 -2.43578291
-0.73991507 -0.95718849 2.18024898
0.95648336 -0.34821188 3.14386845
1.48127735 0.81431150 1.19216573
1.78648257 -0.03501450 -1.85967505
-0.68451732 -0.70880556 -2.88069654
-0.70976865 -0.86484390 -2.49520159
-1.97544801 0.15471548 -0.98663878
-1.44870245 0.29549614 -2.51236963
0.42776406 -1.01981699 -2.22242117
1.46056497 0.31412008 -2.47260523
-0.27844697 1.12687325 -1.86073864
-0.68149143 1.02393508 -1.99123371
-1.87579763 -0.15470946 -1.48792231
0.31749853 0.42066205 -3.47600818
0.25782761 -0.94314039 2.55298090
-1.28284395 -1.01008844 0.59148765
-0.67047924 0.26559395 3.43532491
-1.56751776 -0.30090103 -2.26325345
-0.16178611 0.31961352 3.59484863
0.60016751 -0.60194844 -3.12447357
-1.35571110 -0.98964131 -0.23268291
0.92847878 -0.97840798 -1.84410477
-1.56247151 -0.83672875 -0.56320870
1.45426905 -0.26948547 2.52503824
1.75988364 0.45472288 1.45621407
1.08395898 -1.11837196 0.20104632
0.58123857 -1.25527012 0.42132384
0.24439393 1.30446339 0.27790377
-1.19886041 -1.05048263 -0.60357255
1.51703954 0.58239591 1.91103661
-1.98646152 0.35463744 -0.13752601
-0.79054481 1.10924602 -1.41026640
0.77068895 -0.82522285 -2.54318619
1.38645363 0.09223802 -2.74191928
1.09775782 -1.05952358 -0.98726994
-0.62848175 0.75673395 -2.82434916
1.25145149 0.34593025 -2.78964353
-1.25835347 -0.76845139 1.99574661
-1.73767090 0.05659764 -1.99930549
0.65380383 1.20733607 -0.90838873
0.80517751 0.55098486 -3.04923344
-1.88767231 0.50195903 -0.49857473
-0.23464902 0.45295596 -3.46480823
2.05522823 0.11231556 0.11887068
-0.45298263 -0.54776120 -3.28097367
0.45156765 -0.30123883 3.52604008
0.22438322 -0.14739293 3.67226839
0.62220073 0.69856197 -2.94585752
-0.34013233 1.24673760 1.03246570
-0.45992860 1.27637184 -0.39282206
0.93092477 0.22702314 -3.25572348
-1.30748367 -0.86582255 -1.51837504
-0.91514438 -1.09274590 -1.26008165
0.50043303 0.58171690 -3.21080995
1.60510004 -0.48480159 1.89494109
1.84171748 0.58129364 -0.34530157
-0.04362616 -0.78383619 -2.98658895
-2.05827403 -0.05764578 0.20536108
0.96591294 1.02093959 -1.57780099
-1.48410428 0.26833555 2.47080636
1.84005821 0.21302256 -1.57154608
1.68738282 0.63251752 1.18297458
-0.87864488 -1.19165206 0.08388043
-0.21934365 -1.08945370 2.05164313
-1.28363276 0.86412936 1.58949864
-0.58766609 0.83339614 2.67670846
-0.00837418 -1.20419145 1.50779831
1.04742789 0.55523145 2.79366589
1.92271245 -0.46979848 0.25853825
-1.74903846 0.55432415 -1.20385206
-1.25792289 -0.62172842 2.36755753
1.38631749 -0.56961173 -2.23504925
1.05808091 1.05915511 -1.11771798
-1.13767254 -0.78314823 -2.17734957
0.93920624 -0.61199915 -2.82426429
1.44769025 -0.64782721 1.91658115
-0.79415911 0.64315218 2.91140318
0.07894590 1.26220155 -1.05522156
-1.88253975 0.29609433 1.27178466
1.60601306 0.80464059 -0.53749251
1.76292229 0.65158731 0.59186816
-1.34948182 -0.33263969 2.65125036
1.35548306 -0.14311172 -2.77347350
0.34138787 -1.26869535 -0.78771520
-1.85556412 0.15662828 1.56627893
-0.79583108 -0.70951802 2.78426027
0.58203787 -0.32292083 -3.44796205
-0.93492889 0.28984070 3.21119809
-1.25531960 0.52115095 -2.55796409
1.40882134 0.49156541 -2.33639240
-0.38048145 0.00266714 -3.65367150
-0.55968255 -0.16182029 -3.54955983
-2.00243926 0.25618067 -0.53048003
1.88592982 -0.43557170 0.87842464
1.91789567 -0.47503898 -0.29544994
0.88361621 -0.52817637 3.01035190
-0.10703570 -0.58566725 3.32418251
1.15870690 -0.52249342 2.69969702
-0.57205552 -1.19494975 1.17878246
-0.55700082 1.15353525 1.48825109
0.21184255 0.62190396 3.25514340
0.01694340 1.31073987 -0.36097148
-1.31500149 0.69256276 -2.09386492
1.26707923 1.03933322 -0.09772871
-0.32263938 -0.32714114 3.55459881
1.24099481 -0.16535287 2.93338060
-0.83866954 -0.95570123 -2.06495214
-1.24706566 -0.04327198 2.96020913
-1.95352709 0.40222350 0.38227254
-1.91268170 -0.42087853 -0.73196685
1.84736598 0.20008621 1.55768049
0.06362040 1.15604985 1.77853191
-0.29445493 1.22270656 -1.27655017
1.52082193 -0.76037264 1.30633914
0.63183558 -0.93602276 2.35462022
1.54747820 0.32271081 2.28442931
1.67205262 -0.55329537 -1.52075911
1.12143552 -0.46660551 -2.82948112
1.69011664 -0.37086287 -1.86018062
1.39088881 -0.97298688 0.01277329
1.17590702 0.21555783 2.99359345
-1.20374835 1.06251013 0.34919974
1.16476166 0.81515515 2.03192544
0.36251950 0.13525739 3.64013076
-0.74144429 0.94194734 2.22887325
-0.09982283 -0.92999512 -2.62674594
-0.74086493 1.22367334 -0.33412731
-1.40886819 0.95017713 0.44079536
1.20879579 0.40097350 2.79193592
-0.14597523 0.74354076 3.05765748
-0.62531441 0.91291744 -2.43220615
-1.92217958 0.35157576 -0.91944581
-0.96845996 -0.15842000 3.25238228
0.90975517 0.05457682 -3.33343363
-0.52535212 0.68459707 3.03166866
-0.57975870 -0.15888286 3.53950977
-0.87757480 -1.14480245 0.94040465
-0.33110654 1.11446810 1.88955200
-1.47045684 0.50448751 -2.18581486
-0.62112129 -0.37082013 -3.38677001
-2.03737402 0.20592333 0.11652886
-0.02121618 0.09011949 3.70834064
0.62065989 -1.13180315 -1.54090452
-1.50751388 -0.02520540 2.53787565
0.54426521 0.33241892 -3.46060991
-1.18908286 0.36283964 -2.86095428
1.93267453 -0.18300447 -1.20020711
1.92265725 -0.07731667 1.33353102
-1.38713002 -0.55038655 -2.27197647
-1.51864851 -0.41753361 2.22379422
-0.00628286 -1.28115952 0.86466712
-0.80811989 1.08519268 1.52495420
-0.43391892 -0.98976660 2.32598639
1.45474064 -0.39458048 -2.38989282
-0.04207150 -1.31667280 0.10576315
0.75876474 -0.18903059 3.41597223
1.25051260 0.88261843 1.59401083
0.49267322 0.65978628 3.09281731
0.30877337 -0.20409457 -3.63002658
0.30024338 1.04398417 -2.20205045
0.95289338 -1.09349918 1.16170967
-1.57066941 -0.66296250 1.52238095
1.75939524 -0.05840283 1.93619585
-1.78902614 -0.41960558 -1.42408383
0.18778329 -1.14557171 -1.80272317
1.87528491 0.33415055 -1.23136199
0.41084346 -0.72739100 3.00926542
-1.07397473 0.22519819 -3.11003399
2.00927424 -0.08341137 -0.81674379
-0.22082971 0.77091247 -2.98790002
0.40345463 1.29018915 -0.17590557
-1.08324862 1.07488859 -0.89802802
1.98606658 0.18065953 -0.87285286
-1.79408586 0.24168341 -1.70682800
-0.09629159 0.94100678 2.59708118
-1.83163166 -0.51642048 0.90009564
-0.98706251 0.52138013 2.91375995
1.33526123 0.96972805 0.73687369
-0.59721971 -0.54629844 3.20696902
-1.69004965 -0.20046793 2.05697775
-1.18305683 1.07639873 -0.22709662
0.76194918 0.40629601 3.25979400
-1.55973387 0.74041444 1.24715614
-2.04579973 -0.16087636 -0.18840298
-0.97745579 0.05884595 -3.27045226
-0.16409889 -0.62424213 -3.26097417
1.29880095 0.83767664 -1.66187429
-0.33032924 0.11478225 3.65506196
-1.53057599 -0.65381837 -1.67754757
-0.14881778 -1.28096628 -0.82728696
1.47282159 0.91878414 -0.23571664
0.78297961 -0.11276001 -3.42560554
0.70474315 1.02931619 -1.94046021
-1.88453102 -0.52852482 0.28020108
-0.46477360 1.28065491 0.23205481
-1.59315550 -0.83490175 0.16594590
2.00520444 0.00725296 0.87951213
-1.94615519 -0.23798506 1.03841436
0.26975527 -0.74039847 -3.03590083
0.80525833 1.21187127 -0.13026394
1.28328013 -0.90877813 1.37968612
1.65783048 -0.76483321 0.49197838
1.55249417 -0.79717863 -0.96760887
-1.98676252 -0.13370648 -0.92998356
-1.40660679 -0.90292740 -0.95001328
1.97383881 0.23015332 0.86836541
0.73668802 0.96301401 2.16218352
1.79437435 -0.44164461 1.34934795
1.16519988 -0.77252293 -2.15972829
-0.36573726 -1.26048827 0.85460991
-1.79377329 -0.63513660 -0.40504995
-0.38784006 0.21889973 -3.59914160
-1.08559799 0.66668248 -2.54092741
0.40511796 -1.24077988 1.01386249
-1.16799557 0.86813813 -1.84272444
0.35006744 -1.10517395 1.92122638
0.13846785 -1.24207783 -1.21244693
-0.05070884 -0.31893072 -3.60629320
-1.30651689 -0.31301284 -2.73918986
1.94822288 0.01591144 -1.22514820
-1.42884338 0.62091464 2.03126287
-2.02115655 -0.01928526 0.74791324
0.38356212 -0.50159305 -3.36724710
1.11291301 -1.09569979 -0.49209335
1.13103449 -0.75269091 2.27030897
2.00149035 0.31780019 -0.14016786
-0.83863038 0.44386789 -3.15745664
0.40482527 0.10203736 -3.63381958
1.73247874 -0.71078289 -0.23143619
-1.77529013 0.54694974 1.09807169
3 135 229 189
3 110 247 223
3 223 247 83
3 30 31 99
3 209 229 135
3 209 223 83
3 38 189 229
3 64 43 38
3 38 43 189
3 94 194 69
3 149 181 146
3 80 233 188
3 146 181 131
3 146 131 141
3 141 131 188
3 110 223 205
3 237 68 22
3 172 144 29
3 198 86 191
3 191 251 198
3 69 194 198
3 198 251 69
3 51 226 186
3 23 78 132
3 99 31 132
3 19 78 23
3 165 30 11
3 23 190 242
3 159 76 59
3 59 108 159
3 248 184 112
3 243 184 248
3 211 243 248
3 248 224 211
3 211 224 82
3 82 30 211
3 34 224 58
3 234 47 58
3 58 47 34
3 21 43 64
3 174 30 99
3 135 189 236
3 46 48 230
3 227 94 119
3 167 149 44
3 44 213 167
3 49 80 188
3 188 131 49
3 136 141 188
3 182 55 28
3 148 55 182
3 250 226 101
3 180 109 52
3 186 239 52
3 52 51 186
3 72 149 167
3 181 149 72
3 72 71 181
3 121 140 250
3 107 158 133
3 96 107 175
3 175 107 205
3 68 237 252
3 252 61 68
3 68 61 195
3 61 156 195
3 245 198 194
3 86 198 245
3 245 194 172
3 172 29 245
3 245 29 86
3 59 76 62
3 191 86 12
3 86 29 12
3 81 251 191
3 191 105 81
3 212 105 191
3 191 12 212
3 203 182 28
3 17 144 172
3 60 47 1
3 1 47 234
3 168 190 34
3 34 47 168
3 109 242 168
3 168 242 190
3 168 47 60
3 227 226 145
3 226 51 145
3 145 1 228
3 109 168 18
3 18 168 60
3 18 52 109
3 51 52 18
3 180 19 215
3 215 19 23
3 23 242 215
3 215 109 180
3 215 242 109
3 78 19 4
3 4 41 46
3 70 243 211
3 70 165 243
3 211 30 70
3 30 165 70
3 116 237 22
3 22 184 116
3 116 184 243
3 25 29 144
3 25 108 59
3 25 12 29
3 217 108 14
3 217 159 108
3 217 14 112
3 112 184 217
3 253 184 22
3 253 217 184
3 159 217 253
3 112 14 45
3 45 248 112
3 224 248 45
3 45 58 224
3 151 224 34
3 151 82 224
3 34 190 151
3 151 190 23
3 31 30 151
3 30 82 151
3 23 132 151
3 151 132 31
3 210 252 237
3 237 116 210
3 43 21 244
3 244 174 43
3 244 210 11
3 21 210 244
3 11 30 244
3 30 174 244
3 214 236 189
3 48 236 214
3 214 230 48
3 189 43 214
3 43 174 214
3 214 174 99
3 201 205 223
3 201 175 205
3 221 236 48
3 46 41 221
3 221 48 46
3 78 230 77
3 99 132 77
3 77 132 78
3 77 214 99
3 230 214 77
3 222 94 69
3 222 119 94
3 69 251 231
3 231 222 69
3 136 222 231
3 141 136 50
3 50 55 141
3 136 231 50
3 93 55 148
3 148 2 93
3 93 2 183
3 16 85 246
3 110 205 16
3 220 75 152
3 233 80 139
3 80 101 139
3 227 119 139
3 139 119 233
3 139 226 227
3 139 101 226
3 180 52 176
3 176 52 239
3 63 41 3
3 3 26 63
3 89 13 92
3 92 241 89
3 13 176 92
3 239 241 92
3 92 176 239
3 5 239 186
3 5 241 239
3 140 241 5
3 186 226 5
3 5 226 250
3 250 140 5
3 40 178 89
3 40 15 178
3 89 241 40
3 40 241 140
3 181 71 27
3 71 121 27
3 27 131 181
3 140 121 192
3 192 40 140
3 15 40 192
3 71 15 192
3 192 121 71
3 33 21 64
3 37 156 240
3 61 252 238
3 128 240 238
3 238 156 61
3 238 240 156
3 127 220 53
3 75 220 127
3 53 196 127
3 196 103 127
3 127 138 75
3 103 138 127
3 106 81 105
3 106 203 28
3 106 50 231
3 251 81 106
3 106 231 251
3 84 7 218
3 84 212 7
3 7 212 115
3 115 212 12
3 115 62 7
3 228 17 254
3 254 94 227
3 227 145 254
3 254 145 228
3 249 18 60
3 51 18 249
3 249 145 51
3 60 1 249
3 1 145 249
3 54 230 78
3 78 4 54
3 46 230 54
3 54 4 46
3 243 165 117
3 117 116 243
3 117 165 11
3 11 210 117
3 117 210 116
3 179 25 144
3 108 25 179
3 144 97 179
3 35 25 59
3 12 25 35
3 35 115 12
3 59 62 35
3 62 115 35
3 142 17 228
3 234 97 142
3 144 17 142
3 142 97 144
3 142 1 234
3 228 1 142
3 234 58 100
3 58 45 100
3 100 97 234
3 100 45 14
3 193 210 21
3 193 33 171
3 21 33 193
3 171 252 193
3 252 210 193
3 187 41 63
3 175 201 187
3 187 221 41
3 201 221 187
3 63 96 187
3 96 175 187
3 236 221 219
3 219 221 201
3 219 209 135
3 135 236 219
3 223 209 219
3 219 201 223
3 173 136 188
3 173 222 136
3 188 233 173
3 233 119 173
3 119 222 173
3 148 182 232
3 232 2 148
3 6 2 232
3 182 203 232
3 126 155 44
3 126 44 149
3 183 2 126
3 207 93 183
3 207 126 149
3 183 126 207
3 207 149 146
3 141 55 154
3 55 93 154
3 146 141 154
3 154 207 146
3 93 207 154
3 246 255 104
3 104 16 246
3 110 16 104
3 104 247 110
3 133 85 169
3 85 16 169
3 169 16 205
3 169 107 133
3 205 107 169
3 208 255 246
3 246 90 208
3 235 176 13
3 235 19 180
3 180 176 235
3 124 235 13
3 178 26 24
3 26 3 24
3 89 178 24
3 3 124 24
3 24 13 89
3 24 124 13
3 111 107 96
3 111 96 63
3 63 26 111
3 111 26 178
3 123 27 121
3 123 121 250
3 123 49 131
3 131 27 123
3 250 101 123
3 80 49 123
3 123 101 80
3 255 208 20
3 199 33 64
3 164 33 199
3 37 240 57
3 57 240 197
3 57 197 152
3 152 75 57
3 75 138 57
3 114 252 171
3 114 238 252
3 171 33 114
3 114 33 164
3 114 164 128
3 128 238 114
3 36 195 156
3 36 185 195
3 36 156 37
3 37 57 36
3 36 57 138
3 103 185 36
3 36 138 103
3 66 62 76
3 7 62 66
3 76 159 170
3 159 253 170
3 170 66 76
3 79 66 170
3 87 106 28
3 50 106 87
3 28 55 87
3 55 50 87
3 105 212 98
3 212 84 98
3 94 254 120
3 120 254 17
3 194 94 120
3 172 194 120
3 120 17 172
3 143 179 97
3 97 100 143
3 143 100 14
3 14 108 143
3 108 179 143
3 200 126 2
3 155 126 200
3 200 2 6
3 6 163 200
3 53 220 74
3 246 85 9
3 9 202 246
3 177 90 150
3 150 90 246
3 247 104 166
3 83 247 166
3 166 209 83
3 166 118 209
3 88 4 19
3 19 235 88
3 41 4 88
3 204 161 158
3 158 107 204
3 107 111 204
3 128 164 95
3 164 199 95
3 153 208 90
3 153 20 208
3 229 209 32
3 209 118 32
3 32 38 229
3 64 38 32
3 32 199 64
3 73 66 79
3 73 185 218
3 218 7 73
3 7 66 73
3 195 185 73
3 73 79 195
3 79 170 39
3 68 195 39
3 195 79 39
3 22 68 39
3 39 253 22
3 39 170 253
3 65 103 196
3 218 185 65
3 65 185 103
3 65 84 218
3 65 98 84
3 163 74 125
3 177 150 125
3 125 150 163
3 125 220 177
3 125 74 220
3 53 74 137
3 137 232 53
3 6 232 137
3 137 163 6
3 137 74 163
3 213 44 42
3 44 0 42
3 42 161 213
3 158 161 42
3 155 200 91
3 91 200 163
3 163 150 91
3 118 166 56
3 162 124 3
3 162 3 41
3 41 88 162
3 235 124 162
3 162 88 235
3 161 204 130
3 130 72 167
3 167 213 130
3 213 161 130
3 197 240 10
3 10 240 128
3 128 95 10
3 147 90 177
3 147 153 90
3 147 220 152
3 177 220 147
3 105 98 216
3 98 129 216
3 216 129 203
3 216 106 105
3 203 106 216
3 98 65 225
3 225 129 98
3 225 65 196
3 203 129 225
3 225 196 53
3 53 232 225
3 225 232 203
3 133 158 113
3 158 42 113
3 113 0 202
3 113 42 0
3 155 91 160
3 44 155 160
3 160 0 44
3 102 91 150
3 246 202 102
3 102 150 246
3 102 160 91
3 202 0 102
3 0 160 102
3 118 56 67
3 20 10 67
3 67 10 95
3 134 56 166
3 134 104 255
3 134 166 104
3 255 20 134
3 20 67 134
3 134 67 56
3 122 130 204
3 178 15 122
3 122 15 71
3 122 111 178
3 122 204 111
3 71 72 122
3 72 130 122
3 152 197 206
3 206 147 152
3 153 147 206
3 197 10 206
3 20 153 206
3 206 10 20
3 8 85 133
3 133 113 8
3 8 9 85
3 202 9 8
3 8 113 202
3 118 67 157
3 157 67 95
3 157 32 118
3 157 95 199
3 199 32 157