ply
format ascii 1.0
comment https://github.com/mikedh/trimesh
element vertex 256
property float x
property float y
property float z
element face 508
property list uchar int vertex_indices
end_header
-0.57745326 1.44667876 3.11580300
1.08840168 -2.78209877 -1.13882649
0.47671399 2.64550376 2.48501086
-0.66713285 -3.33810592 1.34683824
-0.82314473 -3.45717907 -0.34387639
0.52367264 -3.29074550 1.68302619
0.09567194 3.12509155 2.21076608
0.97838718 1.98957896 -2.32271361
-0.95960963 1.19166946 2.76359797
-1.09423292 1.40983796 2.43583655
-1.28259611 2.36205173 -1.00339365
-0.73516279 -0.84863418 -3.14795065
1.40326428 1.02967238 -1.80325532
-0.23582789 -3.64573145 1.34191835
0.68738174 -1.09796858 -3.13267565
0.12432422 -2.14212179 3.01493335
-1.40921366 0.57001066 1.94420850
1.50316358 -1.47566044 -1.01951206
0.70918733 -3.53526831 -0.67152238
-0.45632806 -3.82122064 -0.21270697
-1.37960482 2.30751300 0.24897540
-1.18127918 -0.22410166 -2.57549596
-0.07385183 0.68557113 -3.53539729
-0.17663230 -3.70113969 -1.25668275
-0.39151555 -3.41753340 1.63994169
1.28312540 -0.13531893 -2.35418606
-0.60947871 -2.88820982 2.10721231
0.78786910 -1.05069065 3.03855109
1.22014952 2.45709443 1.15222907
1.47155154 -0.10565235 -1.79737735
-0.56384677 -2.13874197 -2.78419542
-0.58464670 -2.60957026 -2.41161418
-1.62720501 0.46683675 -0.95358711
-1.19331717 0.89162672 -2.42820716
0.35235542 -3.07718420 -2.14797187
1.20308840 0.94782239 -2.38977480
-0.22936079 3.40021467 -1.79840541
-0.56135434 3.08961010 -1.92452896
-1.54512155 -0.46681857 -1.43807805
0.26152810 1.26930082 -3.35956454
0.21237633 -2.84582114 2.46745801
-1.05669701 -3.04782939 0.57167321
-0.55228341 0.80140018 3.32024407
-1.29118693 -0.90793538 -2.18743610
-0.13326554 0.96439821 3.47442389
0.49436665 -1.81631243 -3.01980615
-1.11671877 -2.98613262 -0.22488821
0.76480132 -2.95223737 -1.78232861
-1.28703034 -2.52473593 -0.54434162
1.19790232 -0.81314242 2.44045138
1.44964147 1.37207568 1.40743196
0.89287263 -3.37456298 0.19431143
0.47877461 -3.78763795 0.40720981
0.20131080 3.93607306 0.26859421
-0.98751861 -3.16971445 -0.58335328
1.24960732 1.75731492 1.84701836
-1.63627696 1.07007897 -0.13291898
-0.65118319 3.34702635 -1.36302364
0.63482761 -2.49001813 -2.45799136
1.14204192 0.27831796 -2.65006709
0.90423900 -3.19699454 -0.95419717
-0.51768947 2.28336048 -2.72973561
1.03083861 1.04380608 -2.69619250
-1.03652394 -2.31871676 1.92889059
-1.43134463 0.17077710 -1.93233025
0.53854764 3.64300227 -0.87795842
0.66323632 1.66253555 -2.94708633
-1.55490291 1.51460552 -0.48187286
-0.19328378 1.36674416 -3.34873986
1.69292104 0.33889970 0.11488860
-0.37312832 -1.65280855 -3.17106342
0.37196279 -0.90895468 3.40792060
0.18482770 -0.44474176 3.54925013
0.51251572 2.10783315 -2.84717345
-0.28017190 3.76189184 0.99787885
-0.37884980 3.85130978 -0.37966281
0.76681614 0.68501705 -3.14665937
-1.07699311 -2.61252332 -1.46751058
-0.75381762 -3.29723907 -1.21786976
0.41221389 1.75526595 -3.10325003
1.32214403 -1.46283484 1.83146203
1.51704919 1.75398886 -0.33373424
-0.03593550 -2.36513853 -2.88654041
-1.69543004 -0.17393973 0.19848163
0.79563642 3.08057189 -1.52494586
-1.22247815 0.80967265 2.38803625
1.51568246 0.64277190 -1.51890039
1.38992155 1.90855134 1.14334583
-0.72375250 -3.59567738 0.08107051
-0.18067652 -3.28730536 1.98291457
-1.05734682 2.60741425 1.53625166
-0.48406902 2.51467991 2.58704066
-0.00689794 -3.63351345 1.45728827
0.86278147 1.67534900 2.70008016
1.58376598 -1.41756463 0.24987741
-1.44070828 1.67261147 -1.16352391
-1.03616917 -1.87599635 2.28824615
1.14192963 -1.71873999 -2.16017675
0.87155652 3.19588256 -1.08027530
-0.93711734 -2.36306262 -2.10440993
0.77363771 -1.84663928 -2.72965360
1.19248331 -1.95474648 1.85237706
-0.65416032 1.94064009 2.81387353
0.06502888 3.80855274 -1.01987243
-1.55067515 0.89343166 1.22918081
1.32289612 2.42791343 -0.51948690
1.45214450 1.96609223 0.57204103
-1.11158764 -1.00370324 2.56243539
1.11653090 -0.43182370 -2.68056440
0.28120610 -3.82814693 -0.76132733
-1.52845490 0.47260842 1.51380980
-0.65553755 -2.14089155 2.69098949
0.47943297 -0.97437763 -3.33245802
-0.77011442 0.87456208 3.10362554
-1.03402483 1.57251489 -2.47227407
1.16046643 1.48324394 -2.25812507
-0.31340808 0.00804779 -3.53127623
-0.46101856 -0.48827472 -3.43065214
-1.64943802 0.77299666 -0.51270932
1.55346751 -1.31428909 0.84899807
1.57979822 -1.43337727 -0.28555259
0.72784740 -1.59371340 2.90950727
-0.08816686 -1.76718569 3.21282482
0.95444351 -1.57656586 2.60925937
-0.47121036 -3.60562778 1.13929415
-0.45880961 3.48066425 1.43839586
0.17449777 1.87652600 3.14609838
0.01395652 3.95501161 -0.34887919
-1.08318567 2.08973122 -2.02372193
1.04371142 3.13607240 -0.09445488
-0.26576272 -0.98711205 3.43552232
1.02222526 -0.49893385 2.83511472
-0.69082421 -2.88372207 -1.99577785
-1.02722597 -0.13056840 2.86104441
-1.60914850 1.21366465 0.36946672
-1.57550347 -1.26995409 -0.70744652
1.52170193 0.60373789 1.50549936
0.05240504 3.48825169 1.71895242
-0.24254677 3.68938088 -1.23378670
1.25272298 -2.29433966 1.26257777
0.52045208 -2.82434440 2.27574229
1.27468014 0.97374398 2.20790267
1.37729383 -1.66950727 -1.46981478
0.92374259 -1.40793025 -2.73469567
1.39217341 -1.11903739 -1.79786599
1.14569521 -2.93587971 0.01234540
0.96861160 0.65042174 2.89331031
-0.99154490 3.20600605 0.33750182
0.95943099 2.45964003 1.96385753
0.29861253 0.40812415 3.51818895
-0.61073834 2.84222126 2.15420771
-0.08222551 -2.80615664 -2.53875208
-0.61026114 3.69229817 -0.32293430
-1.16050506 2.86705375 0.42602906
0.99570245 1.20989299 2.69840813
-0.12024190 2.24355149 2.95522833
-0.51508051 2.75462675 -2.35072923
-1.58332705 1.06084073 -0.88864505
-0.79773444 -0.47801474 3.14342976
0.74937844 0.16467948 -3.22176600
-0.43274009 2.06569552 2.93010998
-0.47755560 -0.47941130 3.42093873
-0.72287101 -3.45431423 0.90890181
-0.27273723 3.36278343 1.82625341
-1.21123648 1.52223492 -2.11259174
-0.51162660 -1.11890852 -3.27331591
-1.67821431 0.62135077 0.11262523
-0.01747607 0.27192554 3.58411407
0.51124650 -3.41509008 -1.48928547
-1.24176097 -0.07605448 2.45285869
0.44831911 1.00303710 -3.34468198
-0.97946471 1.09482825 -2.76511455
1.59197187 -0.55219561 -1.16000104
1.58372045 -0.23329446 1.28885877
-1.14259899 -1.66073012 -2.19586706
-1.25093257 -1.25986123 2.14929867
-0.00517529 -3.86575651 0.83570141
-0.66566002 3.27444839 1.47386944
-0.35742527 -2.98651052 2.24806762
1.19829082 -1.19060266 -2.30983329
-0.03465490 -3.97291374 0.10222016
0.62500548 -0.57037878 3.30153966
1.03006518 2.66320300 1.54061258
0.40582204 1.99083161 2.98921013
0.25434107 -0.61583263 -3.50842357
0.24731480 3.15010595 -2.12828350
0.78491199 -3.29951191 1.12279332
-1.29378307 -2.00041556 1.47138238
1.44923925 -0.17622405 1.87133467
-1.47364664 -1.26611316 -1.37637818
0.15467981 -3.45663524 -1.74233329
1.54469919 1.00826204 -1.19011235
0.33841768 -2.19482160 2.90845728
-0.88464844 0.67951047 -3.00585008
1.65506816 -0.25168455 -0.78938353
-0.18190061 2.32614255 -2.88780761
0.33233139 3.89300227 -0.17001286
-0.89228749 3.24335670 -0.86794472
1.63595164 0.54512006 -0.84361297
-1.47781444 0.72925282 -1.64965057
-0.07931677 2.83938336 2.51008105
-1.50874138 -1.55824137 0.86994314
-0.81305760 1.57320654 2.81615114
1.09987390 2.92604661 0.71218896
-0.49193847 -1.64839482 3.09953809
-1.39211822 -0.60488969 1.98807049
-0.97450095 3.24791336 -0.21948905
0.62762851 1.22595298 3.15059328
-1.28477526 2.23411822 1.20537734
-1.68515480 -0.48542652 -0.18209162
-0.80514443 0.17756110 -3.16089463
-0.13517062 -1.88358116 -3.15173411
1.06984103 2.52759600 -1.60620284
-0.27209696 0.34634265 3.53262019
-1.26075745 -1.97282422 -1.62135100
-0.12258335 -3.86517334 -0.79957342
1.21318436 2.77232909 -0.22782031
0.64495158 -0.34024078 -3.31085038
0.58050710 3.10584712 -1.87545621
-1.55231535 -1.59476483 0.27081454
-0.38284072 3.86423373 0.22428116
-1.31230521 -2.51922321 0.16038685
1.65171576 0.02188499 0.85004914
-1.60307610 -0.71809345 1.00362825
0.22220132 -2.23406982 -2.93420053
0.66330290 3.65668678 -0.12590021
1.05705643 -2.74213696 1.33346760
1.36557889 -2.30779910 0.47549748
1.27881181 -2.40539765 -0.93519473
-1.63652492 -0.40344444 -0.89882982
-1.15864229 -2.72448277 -0.91818857
1.62587953 0.69446206 0.83927578
0.60682052 2.90578771 2.08975196
1.47805202 -1.33261347 1.30414581
0.95979190 -2.33100200 -2.08737898
-0.30126306 -3.80338311 0.82598114
-1.47755694 -1.91645396 -0.39148110
-0.31946945 0.66050559 -3.47857308
-0.89422268 2.01164007 -2.45580816
0.33370152 -3.74391508 0.97989893
-0.96209478 2.61951017 -1.78099453
0.28835559 -3.33473945 1.85686672
0.11405796 -3.74783158 -1.17183077
-0.04176960 -0.96233791 -3.48548508
-1.07619679 -0.94448137 -2.64742923
1.60477924 0.04801100 -1.18410671
-1.17695892 1.87354088 1.96321714
-1.66485584 -0.05819113 0.72285873
0.31594566 -1.51350117 -3.25444698
0.91672248 -3.30615211 -0.47560859
0.93164939 -2.27116108 2.19425535
1.64865649 0.95892674 -0.13547234
-0.69079190 1.33932197 -3.05168438
0.33346042 0.30788636 -3.51208925
1.42706776 -2.14470840 -0.22368325
-1.46233201 1.65035999 1.06128705
3 135 229 189
3 110 247 223
3 223 247 83
3 30 31 99
3 209 229 135
3 209 223 83
3 38 189 229
3 64 43 38
3 38 43 189
3 94 194 69
3 149 181 146
3 80 233 188
3 146 181 131
3 146 131 141
3 141 131 188
3 110 223 205
3 237 68 22
3 172 144 29
3 198 86 191
3 191 251 198
3 69 194 198
3 198 251 69
3 51 226 186
3 23 78 132
3 99 31 132
3 19 78 23
3 165 30 11
3 23 190 242
3 159 76 59
3 59 108 159
3 248 184 112
3 243 184 248
3 211 243 248
3 248 224 211
3 211 224 82
3 82 30 211
3 34 224 58
3 234 47 58
3 58 47 34
3 21 43 64
3 174 30 99
3 135 189 236
3 46 48 230
3 227 94 119
3 167 149 44
3 44 213 167
3 49 80 188
3 188 131 49
3 136 141 188
3 182 55 28
3 148 55 182
3 250 226 101
3 180 109 52
3 186 239 52
3 52 51 186
3 72 149 167
3 181 149 72
3 72 71 181
3 121 140 250
3 107 158 133
3 96 107 175
3 175 107 205
3 68 237 252
3 252 61 68
3 68 61 195
3 61 156 195
3 245 198 194
3 86 198 245
3 245 194 172
3 172 29 245
3 245 29 86
3 59 76 62
3 191 86 12
3 86 29 12
3 81 251 191
3 191 105 81
3 212 105 191
3 191 12 212
3 203 182 28
3 17 144 172
3 60 47 1
3 1 47 234
3 168 190 34
3 34 47 168
3 109 242 168
3 168 242 190
3 168 47 60
3 227 226 145
3 226 51 145
3 145 1 228
3 109 168 18
3 18 168 60
3 18 52 109
3 51 52 18
3 180 19 215
3 215 19 23
3 23 242 215
3 215 109 180
3 215 242 109
3 78 19 4
3 4 41 46
3 70 243 211
3 70 165 243
3 211 30 70
3 30 165 70
3 116 237 22
3 22 184 116
3 116 184 243
3 25 29 144
3 25 108 59
3 25 12 29
3 217 108 14
3 217 159 108
3 217 14 112
3 112 184 217
3 253 184 22
3 253 217 184
3 159 217 253
3 112 14 45
3 45 248 112
3 224 248 45
3 45 58 224
3 151 224 34
3 151 82 224
3 34 190 151
3 151 190 23
3 31 30 151
3 30 82 151
3 23 132 151
3 151 132 31
3 210 252 237
3 237 116 210
3 43 21 244
3 244 174 43
3 244 210 11
3 21 210 244
3 11 30 244
3 30 174 244
3 214 236 189
3 48 236 214
3 214 230 48
3 189 43 214
3 43 174 214
3 214 174 99
3 201 205 223
3 201 175 205
3 221 236 48
3 46 41 221
3 221 48 46
3 78 230 77
3 99 132 77
3 77 132 78
3 77 214 99
3 230 214 77
3 222 94 69
3 222 119 94
3 69 251 231
3 231 222 69
3 136 222 231
3 141 136 50
3 50 55 141
3 136 231 50
3 93 55 148
3 148 2 93
3 93 2 183
3 16 85 246
3 110 205 16
3 220 75 152
3 233 80 139
3 80 101 139
3 227 119 139
3 139 119 233
3 139 226 227
3 139 101 226
3 180 52 176
3 176 52 239
3 63 41 3
3 3 26 63
3 89 13 92
3 92 241 89
3 13 176 92
3 239 241 92
3 92 176 239
3 5 239 186
3 5 241 239
3 140 241 5
3 186 226 5
3 5 226 250
3 250 140 5
3 40 178 89
3 40 15 178
3 89 241 40
3 40 241 140
3 181 71 27
3 71 121 27
3 27 131 181
3 140 121 192
3 192 40 140
3 15 40 192
3 71 15 192
3 192 121 71
3 33 21 64
3 37 156 240
3 61 252 238
3 128 240 238
3 238 156 61
3 238 240 156
3 127 220 53
3 75 220 127
3 53 196 127
3 196 103 127
3 127 138 75
3 103 138 127
3 106 81 105
3 106 203 28
3 106 50 231
3 251 81 106
3 106 231 251
3 84 7 218
3 84 212 7
3 7 212 115
3 115 212 12
3 115 62 7
3 228 17 254
3 254 94 227
3 227 145 254
3 254 145 228
3 249 18 60
3 51 18 249
3 249 145 51
3 60 1 249
3 1 145 249
3 54 230 78
3 78 4 54
3 46 230 54
3 54 4 46
3 243 165 117
3 117 116 243
3 117 165 11
3 11 210 117
3 117 210 116
3 179 25 144
3 108 25 179
3 144 97 179
3 35 25 59
3 12 25 35
3 35 115 12
3 59 62 35
3 62 115 35
3 142 17 228
3 234 97 142
3 144 17 142
3 142 97 144
3 142 1 234
3 228 1 142
3 234 58 100
3 58 45 100
3 100 97 234
3 100 45 14
3 193 210 21
3 193 33 171
3 21 33 193
3 171 252 193
3 252 210 193
3 187 41 63
3 175 201 187
3 187 221 41
3 201 221 187
3 63 96 187
3 96 175 187
3 236 221 219
3 219 221 201
3 219 209 135
3 135 236 219
3 223 209 219
3 219 201 223
3 173 136 188
3 173 222 136
3 188 233 173
3 233 119 173
3 119 222 173
3 148 182 232
3 232 2 148
3 6 2 232
3 182 203 232
3 126 155 44
3 126 44 149
3 183 2 126
3 207 93 183
3 207 126 149
3 183 126 207
3 207 149 146
3 141 55 154
3 55 93 154
3 146 141 154
3 154 207 146
3 93 207 154
3 246 255 104
3 104 16 246
3 110 16 104
3 104 247 110
3 133 85 169
3 85 16 169
3 169 16 205
3 169 107 133
3 205 107 169
3 208 255 246
3 246 90 208
3 235 176 13
3 235 19 180
3 180 176 235
3 124 235 13
3 178 26 24
3 26 3 24
3 89 178 24
3 3 124 24
3 24 13 89
3 24 124 13
3 111 107 96
3 111 96 63
3 63 26 111
3 111 26 178
3 123 27 121
3 123 121 250
3 123 49 131
3 131 27 123
3 250 101 123
3 80 49 123
3 123 101 80
3 255 208 20
3 199 33 64
3 164 33 199
3 37 240 57
3 57 240 197
3 57 197 152
3 152 75 57
3 75 138 57
3 114 252 171
3 114 238 252
3 171 33 114
3 114 33 164
3 114 164 128
3 128 238 114
3 36 195 156
3 36 185 195
3 36 156 37
3 37 57 36
3 36 57 138
3 103 185 36
3 36 138 103
3 66 62 76
3 7 62 66
3 76 159 170
3 159 253 170
3 170 66 76
3 79 66 170
3 87 106 28
3 50 106 87
3 28 55 87
3 55 50 87
3 105 212 98
3 212 84 98
3 94 254 120
3 120 254 17
3 194 94 120
3 172 194 120
3 120 17 172
3 143 179 97
3 97 100 143
3 143 100 14
3 14 108 143
3 108 179 143
3 200 126 2
3 155 126 200
3 200 2 6
3 6 163 200
3 53 220 74
3 246 85 9
3 9 202 246
3 177 90 150
3 150 90 246
3 247 104 166
3 83 247 166
3 166 209 83
3 166 118 209
3 88 4 19
3 19 235 88
3 41 4 88
3 204 161 158
3 158 107 204
3 107 111 204
3 128 164 95
3 164 199 95
3 153 208 90
3 153 20 208
3 229 209 32
3 209 118 32
3 32 38 229
3 64 38 32
3 32 199 64
3 73 66 79
3 73 185 218
3 218 7 73
3 7 66 73
3 195 185 73
3 73 79 195
3 79 170 39
3 68 195 39
3 195 79 39
3 22 68 39
3 39 253 22
3 39 170 253
3 65 103 196
3 218 185 65
3 65 185 103
3 65 84 218
3 65 98 84
3 163 74 125
3 177 150 125
3 125 150 163
3 125 220 177
3 125 74 220
3 53 74 137
3 137 232 53
3 6 232 137
3 137 163 6
3 137 74 163
3 213 44 42
3 44 0 42
3 42 161 213
3 158 161 42
3 155 200 91
3 91 200 163
3 163 150 91
3 118 166 56
3 162 124 3
3 162 3 41
3 41 88 162
3 235 124 162
3 162 88 235
3 161 204 130
3 130 72 167
3 167 213 130
3 213 161 130
3 197 240 10
3 10 240 128
3 128 95 10
3 147 90 177
3 147 153 90
3 147 220 152
3 177 220 147
3 105 98 216
3 98 129 216
3 216 129 203
3 216 106 105
3 203 106 216
3 98 65 225
3 225 129 98
3 225 65 196
3 203 129 225
3 225 196 53
3 53 232 225
3 225 232 203
3 133 158 113
3 158 42 113
3 113 0 202
3 113 42 0
3 155 91 160
3 44 155 160
3 160 0 44
3 102 91 150
3 246 202 102
3 102 150 246
3 102 160 91
3 202 0 102
3 0 160 102
3 118 56 67
3 20 10 67
3 67 10 95
3 134 56 166
3 134 104 255
3 134 166 104
3 255 20 134
3 20 67 134
3 134 67 56
3 122 130 204
3 178 15 122
3 122 15 71
3 122 111 178
3 122 204 111
3 71 72 122
3 72 130 122
3 152 197 206
3 206 147 152
3 153 147 206
3 197 10 206
3 20 153 206
3 206 10 20
3 8 85 133
3 133 113 8
3 8 9 85
3 202 9 8
3 8 113 202
3 118 67 157
3 157 67 95
3 157 32 118
3 157 95 199
3 199 32 157