ply
format ascii 1.0
comment https://github.com/mikedh/trimesh
element vertex 256
property float x
property float y
property float z
element face 508
property list uchar int vertex_indices
end_header
-0.68237519 0.76111573 2.30662107
1.28616190 -1.46369684 -0.84307039
0.56333184 1.39183247 1.83964717
-0.78834939 -1.75621903 0.99706089
-0.97270828 -1.81886506 -0.25457081
0.61882275 -1.73130214 1.24594009
0.11305532 1.64414966 1.63662446
1.15615785 1.04674232 -1.71949911
-1.13396859 0.62695217 2.04588461
-1.29305255 0.74173331 1.80324376
-1.51564085 1.24270487 -0.74280977
-0.86874020 -0.44647700 -2.33042002
1.65823424 0.54172343 -1.33494544
-0.27867728 -1.91806471 0.99341881
0.81227750 -0.57765496 -2.31911182
0.14691365 -1.12699687 2.23194766
-1.66526461 0.29988971 1.43929267
1.77628505 -0.77636337 -0.75474221
0.83804500 -1.85994875 -0.49712631
-0.53924185 -2.01039171 -0.15746644
-1.63027585 1.21401131 0.18431586
-1.39591491 -0.11790267 -1.90663314
-0.08727054 0.36068749 -2.61724591
-0.20872597 -1.94721568 -0.93031913
-0.46265304 -1.79800677 1.21404469
1.51626647 -0.07119298 -1.74279809
-0.72021961 -1.51952314 1.55996394
0.93102318 -0.55278140 2.24943185
1.44184780 1.29270792 0.85299236
1.73892903 -0.05558502 -1.33059394
-0.66629642 -1.12521875 -2.06113291
-0.69087565 -1.37292743 -1.78531194
-1.92286444 0.24560863 -0.70593816
-1.41014016 0.46909595 -1.79759562
0.41637757 -1.61894500 -1.59013808
1.42168689 0.49866119 -1.76914430
-0.27103510 1.78889537 -1.33135498
-0.66335112 1.62548232 -1.42472386
-1.82586658 -0.24559906 -1.06460559
0.30904716 0.66779500 -2.48707700
0.25096461 -1.49722195 1.82665288
-1.24869645 -1.60350096 0.42320827
-0.65263206 0.42162663 2.45796847
-1.52579272 -0.47767609 -1.61935341
-0.15747960 0.50738192 2.57210732
0.58419192 -0.95558459 -2.23555470
-1.31962407 -1.57104158 -0.16648418
0.90376401 -1.55320883 -1.31945348
-1.52088082 -1.32829499 -0.40297475
1.41555846 -0.42780435 1.80665994
1.71303809 0.72186607 1.04191840
1.05510557 -1.77539957 0.14384826
0.56576687 -1.99272346 0.30145639
0.23788851 2.07081699 0.19883962
-1.16694856 -1.66762614 -0.43185499
1.47665811 0.92454529 1.36734307
-1.93358481 0.56298190 -0.09839959
-0.76950169 1.76091218 -1.00904298
0.75017434 -1.31002951 -1.81964481
1.34954834 0.14642654 -1.96183801
1.06853712 -1.68197870 -0.70638978
-0.61175245 1.20130444 -2.02081656
1.21813965 0.54915935 -1.99598455
-1.22485793 -1.21990573 1.42795289
-1.69141662 0.08984795 -1.43049920
0.63640052 1.91662884 -0.64995039
0.78374487 0.87468064 -2.18172073
-1.83742523 0.79685283 -0.35672927
-0.22840300 0.71906114 -2.47906375
2.00052094 0.17829935 0.08505175
-0.44092488 -0.86956316 -2.34753036
0.43954757 -0.47821236 2.52287507
0.21841046 -0.23398417 2.62750101
0.60563868 1.10895717 -2.10775542
-0.33107850 1.97917819 0.73872721
-0.44768596 2.02622199 -0.28106344
0.90614492 0.36039600 -2.32946396
-1.27268028 -1.37448108 -1.08639443
-0.89078456 -1.73471856 -0.90158594
0.48711222 0.92346728 -2.29732823
1.56237459 -0.76961565 1.35582674
1.79269361 0.92279536 -0.24706262
-0.04246490 -1.24432886 -2.13689876
-2.00348592 -0.09151186 0.14693546
0.94020176 1.62072718 -1.12891364
-1.44459963 0.42597884 1.76785719
1.79107857 0.33817029 -1.12443817
1.64246714 1.00411260 0.84641606
-0.85525668 -1.89173067 0.06001629
-0.21350504 -1.72949231 1.46794665
-1.24946427 1.37179315 1.13728321
-0.57202327 1.32300448 1.91517973
-0.00815128 -1.91163671 1.07882679
1.01954687 0.88142198 1.99886250
1.87153256 -0.74579841 0.18498363
-1.70248163 0.87998170 -0.86135387
-1.22443879 -0.98698503 1.69398284
1.34941566 -0.90425050 -1.59917343
1.02991641 1.68139362 -0.79972506
-1.10738945 -1.24323666 -1.55788934
0.91420591 -0.97153991 -2.02075577
1.40915477 -1.02841651 1.37131011
-0.77301973 1.02099490 2.08310342
0.07684448 2.00372696 -0.75500900
-1.83242929 0.47004551 0.90995950
1.56326330 1.27735543 -0.38457486
1.71599579 1.03438568 0.42348054
-1.31356061 -0.52806079 1.89696455
1.31940198 -0.22718783 -1.98441505
0.33230063 -2.01403570 -0.56360871
-1.80617166 0.24864517 1.12066960
-0.77464718 -1.12634969 1.99213278
0.56654489 -0.51263219 -2.46701026
-0.91004246 0.46011800 2.29760623
-1.22190475 0.82731968 -1.83021832
1.37132061 0.78035307 -1.67168427
-0.37035361 0.00423404 -2.61419487
-0.54478461 -0.25688741 -2.53970313
-1.94913721 0.40668318 -0.37955743
1.83572912 -0.69146389 0.62851113
1.86684406 -0.75411761 -0.21139386
0.86009562 -0.83847243 2.15390086
-0.10418657 -0.92973840 2.37844610
1.12786376 -0.82945091 1.93162811
-0.55682820 -1.89696562 0.84341657
-0.54217428 1.83122075 1.06484079
0.20620362 0.98726374 2.32904887
0.01649239 2.08078098 -0.25827438
-1.27999806 1.09943354 -1.49815631
1.23335135 1.64992678 -0.06992470
-0.31405118 -0.51933193 2.54330850
1.20796132 -0.26249531 2.09882832
-0.81634539 -1.51716208 -1.47746933
-1.21387053 -0.06869366 2.11802387
-1.90152705 0.63852412 0.27351528
-1.86176896 -0.66813868 -0.52372086
1.79819179 0.31763402 1.11451745
0.06192692 1.83521271 1.27253616
-0.28661698 1.94102919 -0.91336918
1.48033988 -1.20708072 0.93468314
0.61501706 -1.48592281 1.68472624
1.50628662 0.51229882 1.63450480
1.62754500 -0.87834853 -1.08810019
1.09158456 -0.74072963 -2.02448821
1.64512825 -0.58873951 -1.33095574
1.35386539 -1.54460287 0.00913926
1.14460611 0.34219497 2.14191031
-1.17170632 1.68671966 0.24985175
1.13375735 1.29404724 1.45383883
0.35286975 0.21471919 2.60450649
-0.72170812 1.49532807 1.59475458
-0.09716570 -1.47635400 -1.87943172
-0.72114420 1.94256401 -0.23906745
-1.37136614 1.50839269 0.31538823
1.17661941 0.63653976 1.99762487
-0.14208959 1.18036032 2.18774819
-0.60866946 1.44924355 -1.74023890
-1.87101400 0.55812150 -0.65786171
-0.94268095 -0.25148949 2.32707310
0.88553882 0.08663993 -2.38506532
-0.51136798 1.08678818 2.16915298
-0.56432641 -0.25222427 2.53251243
-0.85421503 -1.81735766 0.67285770
-0.32229298 1.76920223 1.35197079
-1.43131542 0.80086678 -1.56394637
-0.60458797 -0.58867168 -2.42322755
-1.98314202 0.32690036 0.08337618
-0.02065144 0.14306341 2.65331054
0.60413879 -1.79672146 -1.10251427
-1.46738613 -0.04001321 1.81584513
0.52977765 0.52771032 -2.47605968
-1.15743124 0.57600278 -2.04700732
1.88122964 -0.29051697 -0.85874587
1.87147892 -0.12273912 0.95413893
-1.35020661 -0.87373078 -1.62559485
-1.47822428 -0.66282868 1.59112048
-0.00611562 -2.03382254 0.61866766
-0.78660893 1.72272801 1.09110177
-0.42236865 -1.57124043 1.66423881
1.41601753 -0.62639087 -1.70996380
-0.04095162 -2.09019947 0.07567333
0.73856753 -0.30008337 2.44412160
1.21722567 1.40114427 1.14051163
0.47955897 1.04740131 2.21290493
0.30055428 -0.32399723 -2.59727716
0.29225132 1.65730989 -1.57556283
0.92752874 -1.73591435 0.83120108
-1.52886045 -1.05244362 1.08926070
1.71256280 -0.09271367 1.38534439
-1.74140489 -0.66611791 -1.01892924
0.18278477 -1.81857884 -1.28984499
1.82536745 0.53045923 -0.88103718
0.39990738 -1.15472293 2.15312362
-1.04538703 0.35749891 -2.22522330
1.95579028 -0.13241437 -0.58437860
-0.21495155 1.22381258 -2.13783669
0.39271528 2.04815698 -0.12586010
-1.05441415 1.70637035 -0.64253730
1.93320036 0.28679445 -0.62452453
-1.74632990 0.38366899 -1.22123218
-0.09372845 1.49383485 1.85820663
-1.78287625 -0.81981021 0.64401668
-0.96078831 0.82768357 2.08478975
1.29971850 1.53942955 0.52723169
-0.58132261 -0.86724102 2.29458022
-1.64506292 -0.31823999 1.47176361
-1.15156555 1.70876765 -0.16248719
0.74166721 0.64498913 2.33237648
-1.51821601 1.17539740 0.89233780
-1.99134350 -0.25538895 -0.13480197
-0.95143735 0.09341711 -2.34000230
-0.15973082 -0.99097550 -2.33322096
1.26422870 1.32979977 -1.18906796
-0.32153636 0.18221518 2.61518979
-1.48983419 -1.03792739 -1.20028210
-0.14485647 -2.03351569 -0.59192222
1.43361723 1.45855677 -0.16865480
0.76213783 -0.17900491 -2.45101428
0.68598390 1.63402486 -1.38839555
-1.83436751 -0.83902568 0.20048334
-0.45240200 2.03302145 0.16603477
-1.55074811 -1.32539475 0.11873397
1.95182872 0.01151396 0.62928927
-1.89435136 -0.37779790 0.74298346
0.26257479 -1.17537200 -2.17218113
0.78382355 1.92382848 -0.09320360
1.24912107 -1.44267237 0.98716277
1.61370146 -1.21416187 0.35200959
1.51116896 -1.26550972 -0.69232231
-1.93387783 -0.21225715 -0.66540146
-1.36916494 -1.43338442 -0.67973268
1.92129815 0.36536515 0.62131375
0.71707845 1.52877104 1.54703808
1.74661064 -0.70110458 0.96545589
1.13418388 -1.22636914 -1.54528141
-0.35600188 -2.00100732 0.61147177
-1.74602568 -1.00827026 -0.28981248
-0.37751633 0.34750021 -2.57517886
-1.05670094 1.05834889 -1.81802869
0.39433432 -1.96972036 0.72541672
-1.13690519 1.37815702 -1.31846583
0.34074914 -1.75444794 1.37463379
0.13478203 -1.97178078 -0.86750340
-0.04935904 -0.50629795 -2.58029580
-1.27173936 -0.49690342 -1.95988512
1.89636397 0.02525919 -0.87659121
-1.39080966 0.98569316 1.45336473
-1.96735644 -0.03061508 0.53513050
0.37335226 -0.79627186 -2.40925884
1.08328879 -1.73940790 -0.35209185
1.10092795 -1.19488609 1.62440169
1.94821370 0.50450331 -0.10028984
-0.81630725 0.70463395 -2.25915432
0.39404941 0.16198285 -2.59999084
1.68636262 -1.12835777 -0.16559215
-1.72803450 0.86827493 0.78566819
3 135 229 189
3 110 247 223
3 223 247 83
3 30 31 99
3 209 229 135
3 209 223 83
3 38 189 229
3 64 43 38
3 38 43 189
3 94 194 69
3 149 181 146
3 80 233 188
3 146 181 131
3 146 131 141
3 141 131 188
3 110 223 205
3 237 68 22
3 172 144 29
3 198 86 191
3 191 251 198
3 69 194 198
3 198 251 69
3 51 226 186
3 23 78 132
3 99 31 132
3 19 78 23
3 165 30 11
3 23 190 242
3 159 76 59
3 59 108 159
3 248 184 112
3 243 184 248
3 211 243 248
3 248 224 211
3 211 224 82
3 82 30 211
3 34 224 58
3 234 47 58
3 58 47 34
3 21 43 64
3 174 30 99
3 135 189 236
3 46 48 230
3 227 94 119
3 167 149 44
3 44 213 167
3 49 80 188
3 188 131 49
3 136 141 188
3 182 55 28
3 148 55 182
3 250 226 101
3 180 109 52
3 186 239 52
3 52 51 186
3 72 149 167
3 181 149 72
3 72 71 181
3 121 140 250
3 107 158 133
3 96 107 175
3 175 107 205
3 68 237 252
3 252 61 68
3 68 61 195
3 61 156 195
3 245 198 194
3 86 198 245
3 245 194 172
3 172 29 245
3 245 29 86
3 59 76 62
3 191 86 12
3 86 29 12
3 81 251 191
3 191 105 81
3 212 105 191
3 191 12 212
3 203 182 28
3 17 144 172
3 60 47 1
3 1 47 234
3 168 190 34
3 34 47 168
3 109 242 168
3 168 242 190
3 168 47 60
3 227 226 145
3 226 51 145
3 145 1 228
3 109 168 18
3 18 168 60
3 18 52 109
3 51 52 18
3 180 19 215
3 215 19 23
3 23 242 215
3 215 109 180
3 215 242 109
3 78 19 4
3 4 41 46
3 70 243 211
3 70 165 243
3 211 30 70
3 30 165 70
3 116 237 22
3 22 184 116
3 116 184 243
3 25 29 144
3 25 108 59
3 25 12 29
3 217 108 14
3 217 159 108
3 217 14 112
3 112 184 217
3 253 184 22
3 253 217 184
3 159 217 253
3 112 14 45
3 45 248 112
3 224 248 45
3 45 58 224
3 151 224 34
3 151 82 224
3 34 190 151
3 151 190 23
3 31 30 151
3 30 82 151
3 23 132 151
3 151 132 31
3 210 252 237
3 237 116 210
3 43 21 244
3 244 174 43
3 244 210 11
3 21 210 244
3 11 30 244
3 30 174 244
3 214 236 189
3 48 236 214
3 214 230 48
3 189 43 214
3 43 174 214
3 214 174 99
3 201 205 223
3 201 175 205
3 221 236 48
3 46 41 221
3 221 48 46
3 78 230 77
3 99 132 77
3 77 132 78
3 77 214 99
3 230 214 77
3 222 94 69
3 222 119 94
3 69 251 231
3 231 222 69
3 136 222 231
3 141 136 50
3 50 55 141
3 136 231 50
3 93 55 148
3 148 2 93
3 93 2 183
3 16 85 246
3 110 205 16
3 220 75 152
3 233 80 139
3 80 101 139
3 227 119 139
3 139 119 233
3 139 226 227
3 139 101 226
3 180 52 176
3 176 52 239
3 63 41 3
3 3 26 63
3 89 13 92
3 92 241 89
3 13 176 92
3 239 241 92
3 92 176 239
3 5 239 186
3 5 241 239
3 140 241 5
3 186 226 5
3 5 226 250
3 250 140 5
3 40 178 89
3 40 15 178
3 89 241 40
3 40 241 140
3 181 71 27
3 71 121 27
3 27 131 181
3 140 121 192
3 192 40 140
3 15 40 192
3 71 15 192
3 192 121 71
3 33 21 64
3 37 156 240
3 61 252 238
3 128 240 238
3 238 156 61
3 238 240 156
3 127 220 53
3 75 220 127
3 53 196 127
3 196 103 127
3 127 138 75
3 103 138 127
3 106 81 105
3 106 203 28
3 106 50 231
3 251 81 106
3 106 231 251
3 84 7 218
3 84 212 7
3 7 212 115
3 115 212 12
3 115 62 7
3 228 17 254
3 254 94 227
3 227 145 254
3 254 145 228
3 249 18 60
3 51 18 249
3 249 145 51
3 60 1 249
3 1 145 249
3 54 230 78
3 78 4 54
3 46 230 54
3 54 4 46
3 243 165 117
3 117 116 243
3 117 165 11
3 11 210 117
3 117 210 116
3 179 25 144
3 108 25 179
3 144 97 179
3 35 25 59
3 12 25 35
3 35 115 12
3 59 62 35
3 62 115 35
3 142 17 228
3 234 97 142
3 144 17 142
3 142 97 144
3 142 1 234
3 228 1 142
3 234 58 100
3 58 45 100
3 100 97 234
3 100 45 14
3 193 210 21
3 193 33 171
3 21 33 193
3 171 252 193
3 252 210 193
3 187 41 63
3 175 201 187
3 187 221 41
3 201 221 187
3 63 96 187
3 96 175 187
3 236 221 219
3 219 221 201
3 219 209 135
3 135 236 219
3 223 209 219
3 219 201 223
3 173 136 188
3 173 222 136
3 188 233 173
3 233 119 173
3 119 222 173
3 148 182 232
3 232 2 148
3 6 2 232
3 182 203 232
3 126 155 44
3 126 44 149
3 183 2 126
3 207 93 183
3 207 126 149
3 183 126 207
3 207 149 146
3 141 55 154
3 55 93 154
3 146 141 154
3 154 207 146
3 93 207 154
3 246 255 104
3 104 16 246
3 110 16 104
3 104 247 110
3 133 85 169
3 85 16 169
3 169 16 205
3 169 107 133
3 205 107 169
3 208 255 246
3 246 90 208
3 235 176 13
3 235 19 180
3 180 176 235
3 124 235 13
3 178 26 24
3 26 3 24
3 89 178 24
3 3 124 24
3 24 13 89
3 24 124 13
3 111 107 96
3 111 96 63
3 63 26 111
3 111 26 178
3 123 27 121
3 123 121 250
3 123 49 131
3 131 27 123
3 250 101 123
3 80 49 123
3 123 101 80
3 255 208 20
3 199 33 64
3 164 33 199
3 37 240 57
3 57 240 197
3 57 197 152
3 152 75 57
3 75 138 57
3 114 252 171
3 114 238 252
3 171 33 114
3 114 33 164
3 114 164 128
3 128 238 114
3 36 195 156
3 36 185 195
3 36 156 37
3 37 57 36
3 36 57 138
3 103 185 36
3 36 138 103
3 66 62 76
3 7 62 66
3 76 159 170
3 159 253 170
3 170 66 76
3 79 66 170
3 87 106 28
3 50 106 87
3 28 55 87
3 55 50 87
3 105 212 98
3 212 84 98
3 94 254 120
3 120 254 17
3 194 94 120
3 172 194 120
3 120 17 172
3 143 179 97
3 97 100 143
3 143 100 14
3 14 108 143
3 108 179 143
3 200 126 2
3 155 126 200
3 200 2 6
3 6 163 200
3 53 220 74
3 246 85 9
3 9 202 246
3 177 90 150
3 150 90 246
3 247 104 166
3 83 247 166
3 166 209 83
3 166 118 209
3 88 4 19
3 19 235 88
3 41 4 88
3 204 161 158
3 158 107 204
3 107 111 204
3 128 164 95
3 164 199 95
3 153 208 90
3 153 20 208
3 229 209 32
3 209 118 32
3 32 38 229
3 64 38 32
3 32 199 64
3 73 66 79
3 73 185 218
3 218 7 73
3 7 66 73
3 195 185 73
3 73 79 195
3 79 170 39
3 68 195 39
3 195 79 39
3 22 68 39
3 39 253 22
3 39 170 253
3 65 103 196
3 218 185 65
3 65 185 103
3 65 84 218
3 65 98 84
3 163 74 125
3 177 150 125
3 125 150 163
3 125 220 177
3 125 74 220
3 53 74 137
3 137 232 53
3 6 232 137
3 137 163 6
3 137 74 163
3 213 44 42
3 44 0 42
3 42 161 213
3 158 161 42
3 155 200 91
3 91 200 163
3 163 150 91
3 118 166 56
3 162 124 3
3 162 3 41
3 41 88 162
3 235 124 162
3 162 88 235
3 161 204 130
3 130 72 167
3 167 213 130
3 213 161 130
3 197 240 10
3 10 240 128
3 128 95 10
3 147 90 177
3 147 153 90
3 147 220 152
3 177 220 147
3 105 98 216
3 98 129 216
3 216 129 203
3 216 106 105
3 203 106 216
3 98 65 225
3 225 129 98
3 225 65 196
3 203 129 225
3 225 196 53
3 53 232 225
3 225 232 203
3 133 158 113
3 158 42 113
3 113 0 202
3 113 42 0
3 155 91 160
3 44 155 160
3 160 0 44
3 102 91 150
3 246 202 102
3 102 150 246
3 102 160 91
3 202 0 102
3 0 160 102
3 118 56 67
3 20 10 67
3 67 10 95
3 134 56 166
3 134 104 255
3 134 166 104
3 255 20 134
3 20 67 134
3 134 67 56
3 122 130 204
3 178 15 122
3 122 15 71
3 122 111 178
3 122 204 111
3 71 72 122
3 72 130 122
3 152 197 206
3 206 147 152
3 153 147 206
3 197 10 206
3 20 153 206
3 206 10 20
3 8 85 133
3 133 113 8
3 8 9 85
3 202 9 8
3 8 113 202
3 118 67 157
3 157 67 95
3 157 32 118
3 157 95 199
3 199 32 157