ply
format ascii 1.0
comment https://github.com/mikedh/trimesh
element vertex 256
property float x
property float y
property float z
element face 508
property list uchar int vertex_indices
end_header
-0.45899338 1.40825152 3.00375342
0.86512488 -2.70819974 -1.09787238
0.37891996 2.57523298 2.39564562
-0.53027594 -3.24943781 1.29840362
-0.65428323 -3.36534834 -0.33151001
0.41624540 -3.20333552 1.62250173
0.07604562 3.04208183 2.13126302
0.77767891 1.93673110 -2.23918486
-0.76275349 1.16001594 2.66421437
-0.86975980 1.37238932 2.34823990
-1.01948190 2.29930997 -0.96730989
-0.58435011 -0.82609242 -3.03474522
1.11539602 1.00232172 -1.73840725
-0.18744969 -3.54889202 1.29366076
0.54637092 -1.06880391 -3.02001929
0.09882011 -2.08522177 2.90651131
-1.12012482 0.55486983 1.87429154
1.19480169 -1.43646336 -0.98284870
0.56370324 -3.44136310 -0.64737326
-0.36271605 -3.71971989 -0.20505767
-1.09658992 2.24621987 0.24002182
-0.93894929 -0.21814899 -2.48287678
-0.05870172 0.66736072 -3.40825868
-0.14039761 -3.60282850 -1.21149039
-0.31119931 -3.32675552 1.58096671
1.01990259 -0.13172455 -2.26952553
-0.48444906 -2.81149197 2.03143334
0.62624413 -1.02278173 2.92927980
0.96984565 2.39182806 1.11079299
1.16967452 -0.10284597 -1.73274064
-0.44817814 -2.08193183 -2.68407106
-0.46471113 -2.54025388 -2.32488847
-1.29339695 0.45443645 -0.91929454
-0.94851774 0.86794299 -2.34088469
0.28007254 -2.99544692 -2.07072711
0.95628452 0.92264599 -2.30383444
-0.18230927 3.30989695 -1.73373163
-0.44619700 3.00754261 -1.85531962
-1.22815228 -0.45441875 -1.38636231
0.20787773 1.23558521 -3.23874879
0.16880904 -2.77022934 2.37872386
-0.83992416 -2.96687174 0.55111492
-0.43898693 0.78011310 3.20084262
-1.02631032 -0.88381845 -2.10877228
-0.10592719 0.93878144 3.34947777
0.39295131 -1.76806676 -2.91120863
-0.88763297 -2.90681386 -0.21680085
0.60790849 -2.87381887 -1.71823311
-1.02300644 -2.45767283 -0.52476621
0.95216233 -0.79154342 2.35268855
1.15225923 1.33563006 1.35681832
0.70970702 -3.28492641 0.18732366
0.38055786 -3.68702912 0.39256585
0.16001351 3.83152151 0.25893509
-0.78493714 -3.08551908 -0.56237495
0.99326044 1.71063650 1.78059649
-1.30060792 1.04165518 -0.12813899
-0.51759821 3.25812125 -1.31400692
0.50459784 -2.42387724 -2.36959791
0.90776122 0.27092516 -2.55476618
0.71874166 -3.11207485 -0.91988260
-0.41148964 2.22270894 -2.63156986
0.81937039 1.01608002 -2.59923291
-0.82388937 -2.25712609 1.85952437
-1.13771582 0.16624084 -1.86284041
0.42806891 3.54623532 -0.84638554
0.52717876 1.61837459 -2.84110427
-1.23592710 1.47437394 -0.46454391
-0.15363318 1.33044016 -3.22831345
1.34563196 0.32989770 0.11075702
-0.29658407 -1.60890603 -3.05702662
0.29565760 -0.88481063 3.28536606
0.14691179 -0.43292835 3.42161322
0.40737724 2.05184388 -2.74478436
-0.22269689 3.66196704 0.96199346
-0.30113181 3.74900985 -0.36600950
0.60951000 0.66682136 -3.03350019
-0.85605669 -2.54312849 -1.41473651
-0.59917802 -3.20965672 -1.17407322
0.32765156 1.70864189 -2.99165201
1.05091679 -1.42397845 1.76559949
1.20583880 1.70739877 -0.32173261
-0.02856362 -2.30231476 -2.78273559
-1.34762621 -0.16931948 0.19134390
0.63241804 2.99874449 -1.47010624
-0.97169662 0.78816581 2.30215836
1.20475245 0.62569833 -1.46427822
1.10479033 1.85785556 1.10222924
-0.57528049 -3.50016761 0.07815507
-0.14361219 -3.19998670 1.91160572
-0.84044063 2.53815508 1.48100543
-0.38476616 2.44788408 2.49400640
-0.00548288 -3.53699875 1.40488172
0.68578881 1.63084781 2.60298061
1.25886917 -1.37991071 0.24089140
-1.14515853 1.62818289 -1.12168169
-0.82360744 -1.82616544 2.20595694
0.90767199 -1.67308617 -2.08249307
0.69276375 3.11099219 -1.04142678
-0.74487525 -2.30029416 -2.02873182
0.61493218 -1.79758811 -2.63149071
0.94785500 -1.90282381 1.78576255
-0.51996458 1.88909209 2.71268177
0.05168873 3.70738840 -0.98319614
-1.23256671 0.86969995 1.18497741
1.05151463 2.36342216 -0.50080532
1.15424871 1.91386819 0.55146945
-0.88355440 -0.97704250 2.47028589
0.88748360 -0.42035341 -2.58416677
0.22351894 -3.72646213 -0.73394871
-1.21490467 0.46005481 1.45937073
-0.52105927 -2.08402443 2.59421706
0.38108116 -0.94849586 -3.21261716
-0.61213166 0.85133159 2.99201393
-0.82190299 1.53074515 -2.38336706
0.92240614 1.44384539 -2.17691898
-0.24911493 0.00783402 -3.40428567
-0.36644432 -0.47530496 -3.30728030
-1.31106913 0.75246400 -0.49427143
1.23478615 -1.27937841 0.81846666
1.25571537 -1.39530337 -0.27528363
0.57853538 -1.55138052 2.80487657
-0.07008013 -1.72024500 3.09728622
0.75864714 -1.53468847 2.51542592
-0.37454537 -3.50985360 1.09832323
-0.36468852 3.38820958 1.38666868
0.13870096 1.82668102 3.03295946
0.01109345 3.84995699 -0.33633292
-0.86097884 2.03422284 -1.95094550
0.82960242 3.05277085 -0.09105812
-0.21124363 -0.96089196 3.31197524
0.81252402 -0.48568100 2.73315907
-0.54910719 -2.80712342 -1.92400634
-0.81649882 -0.12710020 2.75815630
-1.27904463 1.18142688 0.35618007
-1.25230169 -1.23622108 -0.68200558
1.20953703 0.58770114 1.45135903
0.04165457 3.39559555 1.65713596
-0.19279025 3.59138203 -1.18941772
0.99573696 -2.23339653 1.21717334
0.41368553 -2.74932313 2.19390273
1.01318979 0.94787896 2.12850285
1.09475315 -1.62516105 -1.41695774
0.73424423 -1.37053216 -2.63635135
1.10658026 -1.08931315 -1.73321176
0.91066509 -2.85789561 0.01190143
0.76990873 0.63314497 2.78926206
-0.78813744 3.12084675 0.32536468
0.76261145 2.39430594 1.89323401
0.23735458 0.39728341 3.39166903
-0.48545030 2.76672506 2.07673883
-0.06535761 -2.73161840 -2.44745421
-0.48507097 3.59422183 -0.31132105
-0.92243677 2.79089808 0.41070831
0.79144216 1.17775524 2.60136890
-0.09557524 2.18395734 2.84895325
-0.40941590 2.68145728 -2.26619291
-1.25852025 1.03266227 -0.85668790
-0.63408566 -0.46531752 3.03038669
0.59564954 0.16030520 -3.10590601
-0.34396696 2.01082563 2.82473826
-0.37958893 -0.46667701 3.29791617
-0.57457983 -3.36255932 0.87621617
-0.21678740 3.27345991 1.76057827
-0.96276110 1.48180079 -2.03661942
-0.40667051 -1.08918762 -3.15560198
-1.33394217 0.60484618 0.10857504
-0.01389100 0.26470253 3.45522332
0.40636840 -3.32437706 -1.43572819
-0.98702371 -0.07403429 2.36464977
0.35635006 0.97639406 -3.22440171
-0.77853543 1.06574690 -2.66567636
1.26539171 -0.53752798 -1.11828542
1.25883293 -0.22709760 1.24250925
-0.90820402 -1.61661708 -2.11689997
-0.99431390 -1.22639632 2.07200646
-0.00411362 -3.76307273 0.80564821
-0.52910525 3.18747115 1.42086661
-0.28410235 -2.90718174 2.16722345
0.95247114 -1.15897739 -2.22676778
-0.02754573 -3.86738372 0.09854416
0.49679065 -0.55522811 3.18281078
0.81875563 2.59246182 1.48520958
0.32257092 1.93795037 2.88171315
0.20216505 -0.59947467 -3.38225460
0.19658016 3.06643152 -2.05174685
0.62389362 -3.21186900 1.08241582
-1.02837384 -1.94727981 1.41846895
1.15193951 -0.17154312 1.80403841
-1.17133999 -1.23248219 -1.32688129
0.12294849 -3.36481881 -1.67967606
1.22781658 0.98148024 -1.14731383
0.26899400 -2.13652182 2.80386424
-0.70316994 0.66146106 -2.89775467
1.31554425 -0.24499920 -0.76099592
-0.14458516 2.26435471 -2.78395724
0.26415628 3.78959489 -0.16389892
-0.70924193 3.15720534 -0.83673197
1.30034935 0.53064036 -0.81327522
-1.17465270 0.70988214 -1.59032643
-0.06304558 2.76396251 2.41981435
-1.19923520 -1.51685071 0.83865851
-0.64626539 1.53141844 2.71487761
0.87424362 2.84832382 0.68657750
-0.39102128 -1.60460949 2.98807335
-1.10653639 -0.58882236 1.91657615
-0.77458996 3.16164088 -0.21159586
0.49887559 1.19338870 3.03729272
-1.02121401 2.17477465 1.16202998
-1.33945882 -0.47253242 -0.17554329
-0.63997555 0.17284466 -3.04722357
-0.10744146 -1.83354878 -3.03839254
0.85037178 2.46045709 -1.54844105
-0.21627845 0.33714297 3.40558124
-1.00212324 -1.92042136 -1.56304443
-0.09743637 -3.76250505 -0.77081943
0.96430939 2.69868922 -0.21962751
0.51264501 -0.33120316 -3.19178677
0.46142071 3.02334833 -1.80801165
-1.23387039 -1.55240417 0.26107562
-0.30430403 3.76159048 0.21621563
-1.04309630 -2.45230651 0.15461907
1.31287956 0.02130367 0.81947994
-1.27421796 -0.69901919 0.96753603
0.17661850 -2.17472768 -2.82868171
0.52723163 3.55955648 -0.12137262
0.84020978 -2.66929913 1.28551388
1.08544135 -2.24649858 0.45839781
1.01647389 -2.34150457 -0.90156353
-1.30080509 -0.39272800 -0.86650634
-0.92095619 -2.65211415 -0.88516897
1.29234338 0.67601550 0.80909401
0.48233619 2.82860303 2.01460099
1.17484152 -1.29721606 1.25724661
0.76289833 -2.26908493 -2.01231337
-0.23946138 -3.70235610 0.79627746
-1.17444801 -1.86554837 -0.37740278
-0.25393286 0.64296097 -3.35347772
-0.71078014 1.95820618 -2.36749315
0.26524535 -3.64446759 0.94466007
-0.76472878 2.54992986 -1.71694696
0.22920178 -3.24616075 1.79009068
0.09065989 -3.64828014 -1.12968981
-0.03320090 -0.93677592 -3.36014128
-0.85542375 -0.91939372 -2.55222321
1.27557170 0.04673572 -1.14152420
-0.93551528 1.82377505 1.89261651
-1.32332408 -0.05664543 0.69686347
0.25113195 -1.47329903 -3.13741159
0.72866422 -3.21833301 -0.45850492
0.74052906 -2.21083355 2.11534619
1.31044793 0.93345535 -0.13060053
-0.54908156 1.30374634 -2.94194055
0.26505369 0.29970816 -3.38578868
1.13431633 -2.08773971 -0.21563923
-1.16234648 1.60652244 1.02312148
3 135 229 189
3 110 247 223
3 223 247 83
3 30 31 99
3 209 229 135
3 209 223 83
3 38 189 229
3 64 43 38
3 38 43 189
3 94 194 69
3 149 181 146
3 80 233 188
3 146 181 131
3 146 131 141
3 141 131 188
3 110 223 205
3 237 68 22
3 172 144 29
3 198 86 191
3 191 251 198
3 69 194 198
3 198 251 69
3 51 226 186
3 23 78 132
3 99 31 132
3 19 78 23
3 165 30 11
3 23 190 242
3 159 76 59
3 59 108 159
3 248 184 112
3 243 184 248
3 211 243 248
3 248 224 211
3 211 224 82
3 82 30 211
3 34 224 58
3 234 47 58
3 58 47 34
3 21 43 64
3 174 30 99
3 135 189 236
3 46 48 230
3 227 94 119
3 167 149 44
3 44 213 167
3 49 80 188
3 188 131 49
3 136 141 188
3 182 55 28
3 148 55 182
3 250 226 101
3 180 109 52
3 186 239 52
3 52 51 186
3 72 149 167
3 181 149 72
3 72 71 181
3 121 140 250
3 107 158 133
3 96 107 175
3 175 107 205
3 68 237 252
3 252 61 68
3 68 61 195
3 61 156 195
3 245 198 194
3 86 198 245
3 245 194 172
3 172 29 245
3 245 29 86
3 59 76 62
3 191 86 12
3 86 29 12
3 81 251 191
3 191 105 81
3 212 105 191
3 191 12 212
3 203 182 28
3 17 144 172
3 60 47 1
3 1 47 234
3 168 190 34
3 34 47 168
3 109 242 168
3 168 242 190
3 168 47 60
3 227 226 145
3 226 51 145
3 145 1 228
3 109 168 18
3 18 168 60
3 18 52 109
3 51 52 18
3 180 19 215
3 215 19 23
3 23 242 215
3 215 109 180
3 215 242 109
3 78 19 4
3 4 41 46
3 70 243 211
3 70 165 243
3 211 30 70
3 30 165 70
3 116 237 22
3 22 184 116
3 116 184 243
3 25 29 144
3 25 108 59
3 25 12 29
3 217 108 14
3 217 159 108
3 217 14 112
3 112 184 217
3 253 184 22
3 253 217 184
3 159 217 253
3 112 14 45
3 45 248 112
3 224 248 45
3 45 58 224
3 151 224 34
3 151 82 224
3 34 190 151
3 151 190 23
3 31 30 151
3 30 82 151
3 23 132 151
3 151 132 31
3 210 252 237
3 237 116 210
3 43 21 244
3 244 174 43
3 244 210 11
3 21 210 244
3 11 30 244
3 30 174 244
3 214 236 189
3 48 236 214
3 214 230 48
3 189 43 214
3 43 174 214
3 214 174 99
3 201 205 223
3 201 175 205
3 221 236 48
3 46 41 221
3 221 48 46
3 78 230 77
3 99 132 77
3 77 132 78
3 77 214 99
3 230 214 77
3 222 94 69
3 222 119 94
3 69 251 231
3 231 222 69
3 136 222 231
3 141 136 50
3 50 55 141
3 136 231 50
3 93 55 148
3 148 2 93
3 93 2 183
3 16 85 246
3 110 205 16
3 220 75 152
3 233 80 139
3 80 101 139
3 227 119 139
3 139 119 233
3 139 226 227
3 139 101 226
3 180 52 176
3 176 52 239
3 63 41 3
3 3 26 63
3 89 13 92
3 92 241 89
3 13 176 92
3 239 241 92
3 92 176 239
3 5 239 186
3 5 241 239
3 140 241 5
3 186 226 5
3 5 226 250
3 250 140 5
3 40 178 89
3 40 15 178
3 89 241 40
3 40 241 140
3 181 71 27
3 71 121 27
3 27 131 181
3 140 121 192
3 192 40 140
3 15 40 192
3 71 15 192
3 192 121 71
3 33 21 64
3 37 156 240
3 61 252 238
3 128 240 238
3 238 156 61
3 238 240 156
3 127 220 53
3 75 220 127
3 53 196 127
3 196 103 127
3 127 138 75
3 103 138 127
3 106 81 105
3 106 203 28
3 106 50 231
3 251 81 106
3 106 231 251
3 84 7 218
3 84 212 7
3 7 212 115
3 115 212 12
3 115 62 7
3 228 17 254
3 254 94 227
3 227 145 254
3 254 145 228
3 249 18 60
3 51 18 249
3 249 145 51
3 60 1 249
3 1 145 249
3 54 230 78
3 78 4 54
3 46 230 54
3 54 4 46
3 243 165 117
3 117 116 243
3 117 165 11
3 11 210 117
3 117 210 116
3 179 25 144
3 108 25 179
3 144 97 179
3 35 25 59
3 12 25 35
3 35 115 12
3 59 62 35
3 62 115 35
3 142 17 228
3 234 97 142
3 144 17 142
3 142 97 144
3 142 1 234
3 228 1 142
3 234 58 100
3 58 45 100
3 100 97 234
3 100 45 14
3 193 210 21
3 193 33 171
3 21 33 193
3 171 252 193
3 252 210 193
3 187 41 63
3 175 201 187
3 187 221 41
3 201 221 187
3 63 96 187
3 96 175 187
3 236 221 219
3 219 221 201
3 219 209 135
3 135 236 219
3 223 209 219
3 219 201 223
3 173 136 188
3 173 222 136
3 188 233 173
3 233 119 173
3 119 222 173
3 148 182 232
3 232 2 148
3 6 2 232
3 182 203 232
3 126 155 44
3 126 44 149
3 183 2 126
3 207 93 183
3 207 126 149
3 183 126 207
3 207 149 146
3 141 55 154
3 55 93 154
3 146 141 154
3 154 207 146
3 93 207 154
3 246 255 104
3 104 16 246
3 110 16 104
3 104 247 110
3 133 85 169
3 85 16 169
3 169 16 205
3 169 107 133
3 205 107 169
3 208 255 246
3 246 90 208
3 235 176 13
3 235 19 180
3 180 176 235
3 124 235 13
3 178 26 24
3 26 3 24
3 89 178 24
3 3 124 24
3 24 13 89
3 24 124 13
3 111 107 96
3 111 96 63
3 63 26 111
3 111 26 178
3 123 27 121
3 123 121 250
3 123 49 131
3 131 27 123
3 250 101 123
3 80 49 123
3 123 101 80
3 255 208 20
3 199 33 64
3 164 33 199
3 37 240 57
3 57 240 197
3 57 197 152
3 152 75 57
3 75 138 57
3 114 252 171
3 114 238 252
3 171 33 114
3 114 33 164
3 114 164 128
3 128 238 114
3 36 195 156
3 36 185 195
3 36 156 37
3 37 57 36
3 36 57 138
3 103 185 36
3 36 138 103
3 66 62 76
3 7 62 66
3 76 159 170
3 159 253 170
3 170 66 76
3 79 66 170
3 87 106 28
3 50 106 87
3 28 55 87
3 55 50 87
3 105 212 98
3 212 84 98
3 94 254 120
3 120 254 17
3 194 94 120
3 172 194 120
3 120 17 172
3 143 179 97
3 97 100 143
3 143 100 14
3 14 108 143
3 108 179 143
3 200 126 2
3 155 126 200
3 200 2 6
3 6 163 200
3 53 220 74
3 246 85 9
3 9 202 246
3 177 90 150
3 150 90 246
3 247 104 166
3 83 247 166
3 166 209 83
3 166 118 209
3 88 4 19
3 19 235 88
3 41 4 88
3 204 161 158
3 158 107 204
3 107 111 204
3 128 164 95
3 164 199 95
3 153 208 90
3 153 20 208
3 229 209 32
3 209 118 32
3 32 38 229
3 64 38 32
3 32 199 64
3 73 66 79
3 73 185 218
3 218 7 73
3 7 66 73
3 195 185 73
3 73 79 195
3 79 170 39
3 68 195 39
3 195 79 39
3 22 68 39
3 39 253 22
3 39 170 253
3 65 103 196
3 218 185 65
3 65 185 103
3 65 84 218
3 65 98 84
3 163 74 125
3 177 150 125
3 125 150 163
3 125 220 177
3 125 74 220
3 53 74 137
3 137 232 53
3 6 232 137
3 137 163 6
3 137 74 163
3 213 44 42
3 44 0 42
3 42 161 213
3 158 161 42
3 155 200 91
3 91 200 163
3 163 150 91
3 118 166 56
3 162 124 3
3 162 3 41
3 41 88 162
3 235 124 162
3 162 88 235
3 161 204 130
3 130 72 167
3 167 213 130
3 213 161 130
3 197 240 10
3 10 240 128
3 128 95 10
3 147 90 177
3 147 153 90
3 147 220 152
3 177 220 147
3 105 98 216
3 98 129 216
3 216 129 203
3 216 106 105
3 203 106 216
3 98 65 225
3 225 129 98
3 225 65 196
3 203 129 225
3 225 196 53
3 53 232 225
3 225 232 203
3 133 158 113
3 158 42 113
3 113 0 202
3 113 42 0
3 155 91 160
3 44 155 160
3 160 0 44
3 102 91 150
3 246 202 102
3 102 150 246
3 102 160 91
3 202 0 102
3 0 160 102
3 118 56 67
3 20 10 67
3 67 10 95
3 134 56 166
3 134 104 255
3 134 166 104
3 255 20 134
3 20 67 134
3 134 67 56
3 122 130 204
3 178 15 122
3 122 15 71
3 122 111 178
3 122 204 111
3 71 72 122
3 72 130 122
3 152 197 206
3 206 147 152
3 153 147 206
3 197 10 206
3 20 153 206
3 206 10 20
3 8 85 133
3 133 113 8
3 8 9 85
3 202 9 8
3 8 113 202
3 118 67 157
3 157 67 95
3 157 32 118
3 157 95 199
3 199 32 157