ply
format ascii 1.0
comment https://github.com/mikedh/trimesh
element vertex 256
property float x
property float y
property float z
element face 508
property list uchar int vertex_indices
end_header
-1.05827713 0.74371397 1.50553703
1.99467361 -1.43023169 -0.55027401
0.87365609 1.36001039 1.20074213
-1.22262967 -1.71606576 0.65078402
-1.50854695 -1.77727950 -0.16615897
0.95971543 -1.69171858 0.81322801
0.17533444 1.60655868 1.06822872
1.79305398 1.02281010 -1.12232113
-1.75864112 0.61261785 1.33535373
-2.00536013 0.72477472 1.17698145
-2.35056639 1.21429229 -0.48483369
-1.34730566 -0.43626899 -1.52107060
2.57171059 0.52933776 -0.87132204
-0.43219304 -1.87421107 0.64840680
1.25973916 -0.56444776 -1.51368976
0.22784439 -1.10122979 1.45679748
-2.58261371 0.29303321 0.93942976
2.75479221 -0.75861299 -0.49262202
1.29970133 -1.81742382 -0.32447553
-0.83629555 -1.96442723 -0.10277871
-2.52835059 1.18625486 0.12030340
-2.16488647 -0.11520702 -1.24446392
-0.13534552 0.35244095 -1.70828247
-0.32370746 -1.90269554 -0.60722148
-0.71751606 -1.75689816 0.79240984
2.35153651 -0.06956526 -1.13752842
-1.11696911 -1.48478150 1.01819217
1.44389856 -0.54014289 1.46820939
2.23612285 1.26315224 0.55675012
2.69685793 -0.05431415 -0.86848181
-1.03334105 -1.09949243 -1.34530628
-1.07146037 -1.34153748 -1.16527736
-2.98211837 0.23999316 -0.46076748
-2.18694806 0.45837077 -1.17329490
0.64574873 -1.58193028 -1.03788686
2.20485568 0.48726004 -1.15472460
-0.42034101 1.74799502 -0.86897850
-1.02877331 1.58831823 -0.92992067
-2.83168697 -0.23998381 -0.69487059
0.47929290 0.65252692 -1.62332106
0.38921422 -1.46299028 1.19226062
-1.93656957 -1.56683934 0.27622902
-1.01214945 0.41198677 1.60432172
-2.36631060 -0.46675476 -1.05695581
-0.24423084 0.49578139 1.67882049
0.90600747 -0.93373656 -1.45915186
-2.04656935 -1.53512204 -0.10866462
1.40162313 -1.51769710 -0.86121035
-2.35869288 -1.29792559 -0.26302257
2.19535136 -0.41802326 1.17921114
2.65670443 0.70536172 0.68006259
1.63633454 -1.73480785 0.09389009
0.87743253 -1.94716287 0.19676130
0.36893487 2.02347112 0.12978308
-1.80978882 -1.62949848 -0.28187275
2.29010916 0.90340698 0.89246804
-2.99874425 0.55011016 -0.06422564
-1.19339931 1.72065163 -0.65860468
1.16342509 -1.28007770 -1.18768644
2.09297776 0.14307873 -1.28049624
1.65716529 -1.64352274 -0.46106225
-0.94875032 1.17383838 -1.31899166
1.88917983 0.53660369 -1.30278385
-1.89959908 -1.19201446 0.93202817
-2.62317228 0.08779372 -0.93369019
0.98697627 1.87280810 -0.42422417
1.21548867 0.85468239 -1.42401421
-2.84961295 0.77863401 -0.23283803
-0.35422403 0.70262092 -1.61809063
3.10255384 0.17422281 0.05551347
-0.68381846 -0.84968191 -1.53223860
0.68168241 -0.46727878 1.64668643
0.33872688 -0.22863449 1.71497607
0.93926859 1.08360267 -1.37573695
-0.51346070 1.93392730 0.48216897
-0.69430405 1.97989559 -0.18345076
1.40531564 0.35215610 -1.52044666
-1.97376549 -1.34305561 -0.70909220
-1.38149369 -1.69505692 -0.58846730
0.75544918 0.90235364 -1.49947155
2.42304444 -0.75201958 0.88495129
2.78023982 0.90169710 -0.16125835
-0.06585766 -1.21587908 -1.39475882
-3.10715199 -0.08941958 0.09590512
1.45813346 1.58367169 -0.73684454
-2.24039054 0.41623950 1.15388453
2.77773523 0.33043855 -0.73392344
2.54725790 0.98115510 0.55245775
-1.32639444 -1.84847915 0.03917277
-0.33111918 -1.68995011 0.95813227
-1.93776023 1.34042919 0.74230742
-0.88713539 1.29275596 1.25004232
-0.01264159 -1.86793005 0.70415282
1.58118761 0.86126965 1.30466223
2.90250921 -0.72874689 0.12073924
-2.64033270 0.85986227 -0.56220770
-1.89894891 -0.96441913 1.10566652
2.09277225 -0.88357621 -1.04378426
1.59726942 1.64295113 -0.52198243
-1.71742022 -1.21481204 -1.01683807
1.41781723 -0.94932717 -1.31895196
2.18542004 -1.00490332 0.89505732
-1.19885540 0.99765140 1.35964656
0.11917602 1.95791483 -0.49279615
-2.84186506 0.45929864 0.59393269
2.42442274 1.24815071 -0.25101292
2.66129136 1.01073599 0.27640674
-2.03716540 -0.51598752 1.23815322
2.04622483 -0.22199352 -1.29523242
0.51535600 -1.96798790 -0.36786872
-2.80114269 0.24296027 0.73146367
-1.20137930 -1.10059750 1.30026972
0.87863910 -0.50091165 -1.61022341
-1.41136014 0.44959810 1.49965298
-1.89501905 0.80840427 -1.19458783
2.12674379 0.76251149 -1.09111226
-0.57437134 0.00413724 -1.70629120
-0.84489167 -0.25101408 -1.65767026
-3.02286410 0.39738497 -0.24773802
2.84698248 -0.67565459 0.41023070
2.89523792 -0.73687589 -0.13797727
1.33389902 -0.81930208 1.40585625
-0.16158013 -0.90848136 1.55241740
1.74917340 -0.81048679 1.26077819
-0.86356980 -1.85359442 0.55049998
-0.84084344 1.78935277 0.69502407
0.31979561 0.96469146 1.52017558
0.02557760 2.03320694 -0.16857630
-1.98511422 1.07429671 -0.97785014
1.91277122 1.61220372 -0.04564002
-0.48705348 -0.50745821 1.66002357
1.87339449 -0.25649378 1.36991012
-1.26604795 -1.48247445 -0.96434772
-1.88255894 -0.06712309 1.38243914
-2.94902682 0.62392521 0.17852406
-2.88736701 -0.65286273 -0.34183386
2.78876686 0.31037179 0.72744811
0.09604078 1.79325342 0.83058733
-0.44450650 1.89665055 -0.59615821
2.29581904 -1.17948270 0.61006987
0.95381331 -1.45194948 1.09962475
2.33605909 0.50058591 1.06684506
2.52411556 -0.85826641 -0.71020555
1.69290888 -0.72379398 -1.32138824
2.55138469 -0.57527888 -0.86871791
2.09967327 -1.50928783 0.00596522
1.77513862 0.33437121 1.39802992
-1.81716764 1.64815545 0.16307883
1.75831366 1.26446080 0.94892401
0.54725611 0.20980997 1.69996750
-1.11927748 1.46113968 1.04090011
-0.15069164 -1.44259942 -1.22670949
-1.11840296 1.89815032 -0.15603989
-2.12681460 1.47390568 0.20585464
1.82478702 0.62198621 1.30385447
-0.22036289 1.15337324 1.42794836
-0.94396901 1.41610873 -1.13585806
-2.90170503 0.54536092 -0.42938787
-1.46197832 -0.24573958 1.51888621
1.37335813 0.08465904 -1.55673778
-0.79306674 1.06194043 1.41581130
-0.87519848 -0.24645755 1.65297687
-1.32477891 -1.77580655 0.43917581
-0.49983546 1.72875214 0.88243455
-2.21978831 0.78255618 -1.02079153
-0.93763906 -0.57521260 -1.58164632
-3.07560134 0.31942630 0.05441983
-0.03202775 0.13979249 1.73182213
0.93694252 -1.75564218 -0.71961367
-2.27572942 -0.03909837 1.18520641
0.82161784 0.51564503 -1.61612999
-1.79502869 0.56283331 -1.33608651
2.91754794 -0.28387475 -0.56050545
2.90242577 -0.11993288 0.62276870
-2.09399891 -0.85375428 -1.06102955
-2.29253793 -0.64767408 1.03852808
-0.00948455 -1.98732233 0.40380585
-1.21993053 1.68334055 0.71216470
-0.65504009 -1.53531635 1.08625257
2.19606328 -0.61206943 -1.11609745
-0.06351076 -2.04241014 0.04939216
1.14542437 -0.29322243 1.59528387
1.88776243 1.36910915 0.74441463
0.74373502 1.02345407 1.44436824
0.46612146 -0.31658953 -1.69524884
0.45324466 1.61941814 -1.02837360
1.43847919 -1.69622529 0.54252690
-2.37106824 -1.02838111 0.71096301
2.65596724 -0.09059391 0.90421754
-2.70069766 -0.65088814 -0.66505754
0.28347594 -1.77699983 -0.84188485
2.83091307 0.51833111 -0.57505506
0.62020552 -1.12832201 1.40534890
-1.62126255 0.34932527 -1.45240855
3.03318214 -0.12938692 -0.38142529
-0.33336252 1.19583201 -1.39537108
0.60905147 2.00132895 -0.08214918
-1.63526237 1.66735685 -0.41938561
2.99814820 0.28023732 -0.40762863
-2.70833564 0.37489697 -0.79710114
-0.14536092 1.45968068 1.21285582
-2.76501441 -0.80106646 0.42035121
-1.49006057 0.80875981 1.36074710
2.01569819 1.50423288 0.34412539
-0.90155745 -0.84741288 1.49767792
-2.55128360 -0.31096393 0.96062356
-1.78593183 1.66969931 -0.10605577
1.15023160 0.63024247 1.52234757
-2.35456014 1.14852381 0.58243102
-3.08832073 -0.24954987 -0.08798556
-1.47555840 0.09128127 -1.52732503
-0.24772219 -0.96831840 -1.52289879
1.96065807 1.29939592 -0.77610743
-0.49866202 0.17804912 1.70694065
-2.31054354 -1.01419675 -0.78342694
-0.22465397 -1.98702252 -0.38634902
2.22335815 1.42520916 -0.11008139
1.18197894 -0.17491224 -1.59978282
1.06387377 1.59666538 -0.90620905
-2.84487104 -0.81984264 0.13085595
-0.70161802 1.98653948 0.10837129
-2.40501308 -1.29509163 0.07749794
3.02703834 0.01125071 0.41073856
-2.93789816 -0.36916015 0.48494706
0.40722013 -1.14849889 -1.41778779
1.21561062 1.87984312 -0.06083421
1.93722808 -1.40968788 0.64432347
2.50264597 -1.18640196 0.22975749
2.34363103 -1.23657572 -0.45188040
-2.99919868 -0.20740421 -0.43430910
-2.12340093 -1.40061224 -0.44366312
2.97968912 0.35701162 0.40553296
1.11209750 1.49381804 1.00975537
2.70877123 -0.68507487 0.63015532
1.75897515 -1.19833004 -1.00860882
-0.55211365 -1.95525730 0.39910904
-2.70786381 -0.98521775 -0.18916129
-0.58547986 0.33955514 -1.68082535
-1.63880885 1.03415143 -1.18663156
0.61156243 -1.92468572 0.47348118
-1.76319551 1.34664750 -0.86056572
0.52845865 -1.71433520 0.89722669
0.20902979 -1.92669904 -0.56622154
-0.07654960 -0.49472225 -1.68416524
-1.97230613 -0.48554248 -1.27922165
2.94101954 0.02468167 -0.57215315
-2.15696907 0.96315682 0.94861460
-3.05111980 -0.02991511 0.34928092
0.57902187 -0.77806628 -1.57252896
1.68004334 -1.69963896 -0.22981118
1.70739937 -1.16756690 1.06025076
3.02143168 0.49296859 -0.06545942
-1.26598883 0.68852359 -1.47455525
0.61112052 0.15827936 -1.69702017
2.61533427 -1.10255957 -0.10808238
-2.67996192 0.84842318 0.51280749
3 135 229 189
3 110 247 223
3 223 247 83
3 30 31 99
3 209 229 135
3 209 223 83
3 38 189 229
3 64 43 38
3 38 43 189
3 94 194 69
3 149 181 146
3 80 233 188
3 146 181 131
3 146 131 141
3 141 131 188
3 110 223 205
3 237 68 22
3 172 144 29
3 198 86 191
3 191 251 198
3 69 194 198
3 198 251 69
3 51 226 186
3 23 78 132
3 99 31 132
3 19 78 23
3 165 30 11
3 23 190 242
3 159 76 59
3 59 108 159
3 248 184 112
3 243 184 248
3 211 243 248
3 248 224 211
3 211 224 82
3 82 30 211
3 34 224 58
3 234 47 58
3 58 47 34
3 21 43 64
3 174 30 99
3 135 189 236
3 46 48 230
3 227 94 119
3 167 149 44
3 44 213 167
3 49 80 188
3 188 131 49
3 136 141 188
3 182 55 28
3 148 55 182
3 250 226 101
3 180 109 52
3 186 239 52
3 52 51 186
3 72 149 167
3 181 149 72
3 72 71 181
3 121 140 250
3 107 158 133
3 96 107 175
3 175 107 205
3 68 237 252
3 252 61 68
3 68 61 195
3 61 156 195
3 245 198 194
3 86 198 245
3 245 194 172
3 172 29 245
3 245 29 86
3 59 76 62
3 191 86 12
3 86 29 12
3 81 251 191
3 191 105 81
3 212 105 191
3 191 12 212
3 203 182 28
3 17 144 172
3 60 47 1
3 1 47 234
3 168 190 34
3 34 47 168
3 109 242 168
3 168 242 190
3 168 47 60
3 227 226 145
3 226 51 145
3 145 1 228
3 109 168 18
3 18 168 60
3 18 52 109
3 51 52 18
3 180 19 215
3 215 19 23
3 23 242 215
3 215 109 180
3 215 242 109
3 78 19 4
3 4 41 46
3 70 243 211
3 70 165 243
3 211 30 70
3 30 165 70
3 116 237 22
3 22 184 116
3 116 184 243
3 25 29 144
3 25 108 59
3 25 12 29
3 217 108 14
3 217 159 108
3 217 14 112
3 112 184 217
3 253 184 22
3 253 217 184
3 159 217 253
3 112 14 45
3 45 248 112
3 224 248 45
3 45 58 224
3 151 224 34
3 151 82 224
3 34 190 151
3 151 190 23
3 31 30 151
3 30 82 151
3 23 132 151
3 151 132 31
3 210 252 237
3 237 116 210
3 43 21 244
3 244 174 43
3 244 210 11
3 21 210 244
3 11 30 244
3 30 174 244
3 214 236 189
3 48 236 214
3 214 230 48
3 189 43 214
3 43 174 214
3 214 174 99
3 201 205 223
3 201 175 205
3 221 236 48
3 46 41 221
3 221 48 46
3 78 230 77
3 99 132 77
3 77 132 78
3 77 214 99
3 230 214 77
3 222 94 69
3 222 119 94
3 69 251 231
3 231 222 69
3 136 222 231
3 141 136 50
3 50 55 141
3 136 231 50
3 93 55 148
3 148 2 93
3 93 2 183
3 16 85 246
3 110 205 16
3 220 75 152
3 233 80 139
3 80 101 139
3 227 119 139
3 139 119 233
3 139 226 227
3 139 101 226
3 180 52 176
3 176 52 239
3 63 41 3
3 3 26 63
3 89 13 92
3 92 241 89
3 13 176 92
3 239 241 92
3 92 176 239
3 5 239 186
3 5 241 239
3 140 241 5
3 186 226 5
3 5 226 250
3 250 140 5
3 40 178 89
3 40 15 178
3 89 241 40
3 40 241 140
3 181 71 27
3 71 121 27
3 27 131 181
3 140 121 192
3 192 40 140
3 15 40 192
3 71 15 192
3 192 121 71
3 33 21 64
3 37 156 240
3 61 252 238
3 128 240 238
3 238 156 61
3 238 240 156
3 127 220 53
3 75 220 127
3 53 196 127
3 196 103 127
3 127 138 75
3 103 138 127
3 106 81 105
3 106 203 28
3 106 50 231
3 251 81 106
3 106 231 251
3 84 7 218
3 84 212 7
3 7 212 115
3 115 212 12
3 115 62 7
3 228 17 254
3 254 94 227
3 227 145 254
3 254 145 228
3 249 18 60
3 51 18 249
3 249 145 51
3 60 1 249
3 1 145 249
3 54 230 78
3 78 4 54
3 46 230 54
3 54 4 46
3 243 165 117
3 117 116 243
3 117 165 11
3 11 210 117
3 117 210 116
3 179 25 144
3 108 25 179
3 144 97 179
3 35 25 59
3 12 25 35
3 35 115 12
3 59 62 35
3 62 115 35
3 142 17 228
3 234 97 142
3 144 17 142
3 142 97 144
3 142 1 234
3 228 1 142
3 234 58 100
3 58 45 100
3 100 97 234
3 100 45 14
3 193 210 21
3 193 33 171
3 21 33 193
3 171 252 193
3 252 210 193
3 187 41 63
3 175 201 187
3 187 221 41
3 201 221 187
3 63 96 187
3 96 175 187
3 236 221 219
3 219 221 201
3 219 209 135
3 135 236 219
3 223 209 219
3 219 201 223
3 173 136 188
3 173 222 136
3 188 233 173
3 233 119 173
3 119 222 173
3 148 182 232
3 232 2 148
3 6 2 232
3 182 203 232
3 126 155 44
3 126 44 149
3 183 2 126
3 207 93 183
3 207 126 149
3 183 126 207
3 207 149 146
3 141 55 154
3 55 93 154
3 146 141 154
3 154 207 146
3 93 207 154
3 246 255 104
3 104 16 246
3 110 16 104
3 104 247 110
3 133 85 169
3 85 16 169
3 169 16 205
3 169 107 133
3 205 107 169
3 208 255 246
3 246 90 208
3 235 176 13
3 235 19 180
3 180 176 235
3 124 235 13
3 178 26 24
3 26 3 24
3 89 178 24
3 3 124 24
3 24 13 89
3 24 124 13
3 111 107 96
3 111 96 63
3 63 26 111
3 111 26 178
3 123 27 121
3 123 121 250
3 123 49 131
3 131 27 123
3 250 101 123
3 80 49 123
3 123 101 80
3 255 208 20
3 199 33 64
3 164 33 199
3 37 240 57
3 57 240 197
3 57 197 152
3 152 75 57
3 75 138 57
3 114 252 171
3 114 238 252
3 171 33 114
3 114 33 164
3 114 164 128
3 128 238 114
3 36 195 156
3 36 185 195
3 36 156 37
3 37 57 36
3 36 57 138
3 103 185 36
3 36 138 103
3 66 62 76
3 7 62 66
3 76 159 170
3 159 253 170
3 170 66 76
3 79 66 170
3 87 106 28
3 50 106 87
3 28 55 87
3 55 50 87
3 105 212 98
3 212 84 98
3 94 254 120
3 120 254 17
3 194 94 120
3 172 194 120
3 120 17 172
3 143 179 97
3 97 100 143
3 143 100 14
3 14 108 143
3 108 179 143
3 200 126 2
3 155 126 200
3 200 2 6
3 6 163 200
3 53 220 74
3 246 85 9
3 9 202 246
3 177 90 150
3 150 90 246
3 247 104 166
3 83 247 166
3 166 209 83
3 166 118 209
3 88 4 19
3 19 235 88
3 41 4 88
3 204 161 158
3 158 107 204
3 107 111 204
3 128 164 95
3 164 199 95
3 153 208 90
3 153 20 208
3 229 209 32
3 209 118 32
3 32 38 229
3 64 38 32
3 32 199 64
3 73 66 79
3 73 185 218
3 218 7 73
3 7 66 73
3 195 185 73
3 73 79 195
3 79 170 39
3 68 195 39
3 195 79 39
3 22 68 39
3 39 253 22
3 39 170 253
3 65 103 196
3 218 185 65
3 65 185 103
3 65 84 218
3 65 98 84
3 163 74 125
3 177 150 125
3 125 150 163
3 125 220 177
3 125 74 220
3 53 74 137
3 137 232 53
3 6 232 137
3 137 163 6
3 137 74 163
3 213 44 42
3 44 0 42
3 42 161 213
3 158 161 42
3 155 200 91
3 91 200 163
3 163 150 91
3 118 166 56
3 162 124 3
3 162 3 41
3 41 88 162
3 235 124 162
3 162 88 235
3 161 204 130
3 130 72 167
3 167 213 130
3 213 161 130
3 197 240 10
3 10 240 128
3 128 95 10
3 147 90 177
3 147 153 90
3 147 220 152
3 177 220 147
3 105 98 216
3 98 129 216
3 216 129 203
3 216 106 105
3 203 106 216
3 98 65 225
3 225 129 98
3 225 65 196
3 203 129 225
3 225 196 53
3 53 232 225
3 225 232 203
3 133 158 113
3 158 42 113
3 113 0 202
3 113 42 0
3 155 91 160
3 44 155 160
3 160 0 44
3 102 91 150
3 246 202 102
3 102 150 246
3 102 160 91
3 202 0 102
3 0 160 102
3 118 56 67
3 20 10 67
3 67 10 95
3 134 56 166
3 134 104 255
3 134 166 104
3 255 20 134
3 20 67 134
3 134 67 56
3 122 130 204
3 178 15 122
3 122 15 71
3 122 111 178
3 122 204 111
3 71 72 122
3 72 130 122
3 152 197 206
3 206 147 152
3 153 147 206
3 197 10 206
3 20 153 206
3 206 10 20
3 8 85 133
3 133 113 8
3 8 9 85
3 202 9 8
3 8 113 202
3 118 67 157
3 157 67 95
3 157 32 118
3 157 95 199
3 199 32 157