ply
format ascii 1.0
comment https://github.com/mikedh/trimesh
element vertex 256
property float x
property float y
property float z
element face 508
property list uchar int vertex_indices
end_header
-0.57054353 1.43594968 4.18316221
1.07537818 -2.76146579 -1.52894640
0.47100973 2.62588382 3.33628392
-0.65915006 -3.31334925 1.80821538
-0.81329519 -3.43153954 -0.46167576
0.51740646 -3.26634026 2.25956893
0.09452716 3.10191488 2.96809292
0.96667999 1.97482359 -3.11838984
-0.94812715 1.18283165 3.71030474
-1.08113956 1.39938211 3.27026463
-1.26724887 2.34453392 -1.34711933
-0.72636598 -0.84234041 -4.22632265
1.38647318 1.02203596 -2.42098427
-0.23300602 -3.61869335 1.80161023
0.67915672 -1.08982575 -4.20581484
0.12283658 -2.12623501 4.04773855
-1.39235127 0.56578326 2.61022282
1.48517704 -1.46471643 -1.36875927
0.70070130 -3.50904965 -0.90156120
-0.45086774 -3.79288101 -0.28557253
-1.36309671 2.29039979 0.33426520
-1.16714418 -0.22243965 -3.45776606
-0.07296813 0.68048668 -4.74649429
-0.17451875 -3.67369080 -1.68717599
-0.38683078 -3.39218760 2.20172524
1.26777184 -0.13431537 -3.16064358
-0.60218579 -2.86678982 2.82906556
0.77844167 -1.04289830 4.07944679
1.20554936 2.43887186 1.54694045
1.45394325 -0.10486880 -2.41309261
-0.55709988 -2.12288046 -3.73795819
-0.57765090 -2.59021664 -3.23774457
-1.60773420 0.46337453 -1.28025091
-1.17903817 0.88501412 -3.26002145
0.34813920 -3.05436277 -2.88378787
1.18869245 0.94079304 -3.20842361
-0.22661629 3.37499762 -2.41447282
-0.55463725 3.06669641 -2.58380151
-1.52663291 -0.46335649 -1.93071067
0.25839871 1.25988734 -4.51042747
0.20983507 -2.82471561 3.31271815
-1.04405284 -3.02522564 0.76750743
-0.54567492 0.79545677 4.45763731
-1.27573681 -0.90120178 -2.93677115
-0.13167092 0.95724589 4.66463327
0.48845115 -1.80284202 -4.05428028
-1.10335636 -2.96398640 -0.30192664
0.75564986 -2.93034244 -2.39288878
-1.27162993 -2.50601149 -0.73081303
1.18356848 -0.80711192 3.27645993
1.43229544 1.36189985 1.88956630
0.88218868 -3.34953618 0.26087537
0.47304568 -3.75954747 0.54670489
0.19890197 3.90688181 0.36060467
-0.97570217 -3.14620662 -0.78318864
1.23465478 1.74428213 2.47973871
-1.61669755 1.06214297 -0.17845213
-0.64339125 3.32220364 -1.82994521
0.62723136 -2.47155118 -3.30000854
1.12837648 0.27625385 -3.55788255
0.89341903 -3.17328453 -1.28106999
-0.51149487 2.26642632 -3.66484261
1.01850379 1.03606486 -3.61980891
-1.02412105 -2.30152035 2.58965731
-1.41421735 0.16951054 -2.59427547
0.53210348 3.61598444 -1.17871463
0.65530020 1.65020561 -3.95664954
-1.53629720 1.50337267 -0.64694476
-0.19097099 1.35660791 -4.49589443
1.67266393 0.33638629 0.15424520
-0.36866355 -1.64055073 -4.25735283
0.36751196 -0.90221351 4.57534838
0.18261608 -0.44144338 4.76509237
0.50638306 2.09220076 -3.82251024
-0.27681941 3.73399234 1.33971536
-0.37431657 3.82274723 -0.50972128
0.75764060 0.67993671 -4.22458887
-1.06410611 -2.59314799 -1.97022569
-0.74479759 -3.27278566 -1.63506711
0.40728143 1.74224830 -4.16630936
1.30632353 -1.45198596 2.45885348
1.49889648 1.74098063 -0.44805929
-0.03550550 -2.34759784 -3.87536287
-1.67514288 -0.17264974 0.26647413
0.78611600 3.05772519 -2.04733610
-1.20785022 0.80366784 3.20608950
1.49754608 0.63800484 -2.03921986
1.37329006 1.89439678 1.53501403
-0.71509218 -3.56901073 0.10884227
-0.17851458 -3.26292562 2.66218805
-1.04469478 2.58807683 2.06251478
-0.47827676 2.49603033 3.47326541
-0.00681540 -3.60656619 1.95650148
0.85245758 1.66292405 3.62502813
1.56481493 -1.40705144 0.33547622
-1.42346907 1.66020679 -1.56210434
-1.02377057 -1.86208332 3.07211494
1.12826562 -1.70599318 -2.90017366
0.86112767 3.17218065 -1.45033777
-0.92590398 -2.34553742 -2.82530332
0.76438051 -1.83294392 -3.66473222
1.17821431 -1.94024944 2.48693323
-0.64633274 1.92624760 3.77780294
0.06425076 3.78030705 -1.36924326
-1.53212011 0.88680565 1.65025294
1.30706656 2.40990710 -0.69744402
1.43476844 1.95151103 0.76800120
-1.09828663 -0.99625945 3.44023156
1.10317075 -0.42862114 -3.59882689
0.27784124 -3.79975605 -1.02213001
-1.51016569 0.46910340 2.03238535
-0.64769351 -2.12501407 3.61282349
0.47369617 -0.96715134 -4.47403526
-0.76089936 0.86807603 4.16681337
-1.02165186 1.56085265 -3.31918406
1.14658058 1.47224367 -3.03167534
-0.30965790 0.00798811 -4.74096155
-0.45550212 -0.48465350 -4.60586739
-1.62970126 0.76726383 -0.68834466
1.53487909 -1.30454195 1.13983357
1.56089473 -1.42274690 -0.38337240
0.71913809 -1.58189380 3.90619731
-0.08711187 -1.75407958 4.31342030
0.94302285 -1.56487346 3.50309539
-0.46557197 -3.57888722 1.52957428
-0.45331961 3.45485044 1.93113720
0.17240976 1.86260903 4.22383595
0.01378952 3.92567992 -0.46839234
-1.07022440 2.07423282 -2.71697450
1.03122258 3.11281443 -0.12681164
-0.26258266 -0.97979128 4.61240578
1.00999355 -0.49523360 3.80632043
-0.68255794 -2.86233544 -2.67945790
-1.01493430 -0.12960006 3.84113264
-1.58989370 1.20466375 0.49603239
-1.55665135 -1.26053572 -0.94979167
1.50349355 0.59926033 2.02122808
0.05177797 3.46238160 2.30780220
-0.23964450 3.66201901 -1.65643656
1.23773313 -2.27732420 1.69509041
0.51422447 -2.80339813 3.05532765
1.25942755 0.96652234 2.96424866
1.36081350 -1.65712559 -1.97331917
0.91268927 -1.39748847 -3.67150164
1.37551498 -1.11073828 -2.41374874
1.13198602 -2.91410613 0.01657447
0.95702136 0.64559799 3.88445187
-0.97968024 3.18222904 0.45311752
0.94795060 2.44139838 2.63660288
0.29503939 0.40509737 4.72339106
-0.60343033 2.82114244 2.89215994
-0.08124162 -2.78534532 -3.40843487
-0.60295886 3.66491485 -0.43355969
-1.14661872 2.84579086 0.57197088
0.98378807 1.20091999 3.62278342
-0.11880311 2.22691250 3.96758080
-0.50891715 2.73419762 -3.15600228
-1.56438124 1.05297315 -1.19306207
-0.78818887 -0.47446960 4.22025299
0.74041158 0.16345817 -4.32542467
-0.42756203 2.05037570 3.93385768
-0.47184128 -0.47585583 4.59282637
-0.71422130 -3.42869568 1.22025812
-0.26947373 3.33784389 2.45186067
-1.19674301 1.51094556 -2.83628798
-0.50550455 -1.11061025 -4.39463329
-1.65813315 0.61674261 0.15120649
-0.01726696 0.26990885 4.81189966
0.50512904 -3.38976264 -1.99945974
-1.22690225 -0.07549043 3.29311776
0.44295460 0.99559826 -4.49044704
-0.96774465 1.08670855 -3.71234083
1.57292271 -0.54810035 -1.55737472
1.56476998 -0.23156427 1.73037434
-1.12892687 -1.64841354 -2.94809031
-1.23596418 -1.25051761 2.88556933
-0.00511336 -3.83708668 1.12198198
-0.65769488 3.25016379 1.97876275
-0.35314840 -2.96436143 3.01817274
1.18395233 -1.18177271 -3.10109711
-0.03424023 -3.94344926 0.13723703
0.61752677 -0.56614864 4.43252563
1.01773965 2.64345169 2.06836987
0.40096605 1.97606695 4.01320362
0.25129768 -0.61126542 -4.71027994
0.24435547 3.12674356 -2.85735488
0.77551991 -3.27504158 1.50742102
-1.27830184 -1.98557985 1.97542369
1.43189800 -0.17491710 2.51238513
-1.45601332 -1.25672317 -1.84787452
0.15282893 -3.43099976 -2.33919263
1.52621567 1.00078440 -1.59780097
0.33436823 -2.17854404 3.90478778
-0.87406296 0.67447102 -4.03554392
1.63526392 -0.24981797 -1.05979717
-0.17972402 2.30889106 -3.87706423
0.32835478 3.86413050 -0.22825301
-0.88161057 3.21930289 -1.16527069
1.61637616 0.54107726 -1.13260365
-1.46013117 0.72384441 -2.21476007
-0.07836769 2.81832552 3.36994243
-1.49068809 -1.54668486 1.16795361
-0.80332869 1.56153905 3.78086090
1.08671308 2.90434599 0.95615870
-0.48605204 -1.63616979 4.16132545
-1.37546039 -0.60040361 2.66911030
-0.96284026 3.22382569 -0.29467791
0.62011844 1.21686089 4.22987080
-1.26940191 2.21754932 1.61829519
-1.66499054 -0.48182642 -0.24446949
-0.79551023 0.17624424 -4.24370050
-0.13355319 -1.86961186 -4.23140192
1.05703950 2.50885057 -2.15642881
-0.26884109 0.34377408 4.74276590
-1.24567151 -1.95819306 -2.17676616
-0.12111655 -3.83650780 -1.07347786
1.19866765 2.75176835 -0.30586317
0.63723427 -0.33771744 -4.44502592
0.57356083 3.08281302 -2.51791835
-1.53374064 -1.58293760 0.36358565
-0.37825972 3.83557510 0.30111161
-1.29660237 -2.50053978 0.21532947
1.63195169 0.02172268 1.14124465
-1.58389401 -0.71276784 1.34743428
0.21954250 -2.21750116 -3.93934941
0.65536594 3.62956762 -0.16902897
1.04440784 -2.72180033 1.79026461
1.34923863 -2.29068375 0.63838542
1.26350975 -2.38755846 -1.25555801
-1.61694264 -0.40045235 -1.20673573
-1.14477825 -2.70427728 -1.23272610
1.60642457 0.68931168 1.12678075
0.59955943 2.88423729 2.80562401
1.46036589 -1.32273042 1.75089824
0.94830722 -2.31371450 -2.80243826
-0.29765821 -3.77517605 1.10893178
-1.45987678 -1.90224087 -0.52558810
-0.31564674 0.65560704 -4.67020416
-0.88352263 1.99672115 -3.29707766
0.32970852 -3.71614885 1.31557620
-0.95058256 2.60008311 -2.39109778
0.28490520 -3.31000781 2.49296093
0.11269316 -3.72003627 -1.57325685
-0.04126979 -0.95520091 -4.67948389
-1.06331933 -0.93747675 -3.55434084
1.58557677 0.04765493 -1.58973801
-1.16287565 1.85964596 2.63574314
-1.64493454 -0.05775956 0.97048348
0.31216511 -1.50227654 -4.36930084
0.90575314 -3.28163266 -0.63853455
0.92050147 -2.25431728 2.94592619
1.62892902 0.95181501 -0.18188018
-0.68252605 1.32938910 -4.09707880
0.32947028 0.30560297 -4.71520185
1.40999174 -2.12880254 -0.30030891
-1.44483411 1.63812041 1.42484498
3 135 229 189
3 110 247 223
3 223 247 83
3 30 31 99
3 209 229 135
3 209 223 83
3 38 189 229
3 64 43 38
3 38 43 189
3 94 194 69
3 149 181 146
3 80 233 188
3 146 181 131
3 146 131 141
3 141 131 188
3 110 223 205
3 237 68 22
3 172 144 29
3 198 86 191
3 191 251 198
3 69 194 198
3 198 251 69
3 51 226 186
3 23 78 132
3 99 31 132
3 19 78 23
3 165 30 11
3 23 190 242
3 159 76 59
3 59 108 159
3 248 184 112
3 243 184 248
3 211 243 248
3 248 224 211
3 211 224 82
3 82 30 211
3 34 224 58
3 234 47 58
3 58 47 34
3 21 43 64
3 174 30 99
3 135 189 236
3 46 48 230
3 227 94 119
3 167 149 44
3 44 213 167
3 49 80 188
3 188 131 49
3 136 141 188
3 182 55 28
3 148 55 182
3 250 226 101
3 180 109 52
3 186 239 52
3 52 51 186
3 72 149 167
3 181 149 72
3 72 71 181
3 121 140 250
3 107 158 133
3 96 107 175
3 175 107 205
3 68 237 252
3 252 61 68
3 68 61 195
3 61 156 195
3 245 198 194
3 86 198 245
3 245 194 172
3 172 29 245
3 245 29 86
3 59 76 62
3 191 86 12
3 86 29 12
3 81 251 191
3 191 105 81
3 212 105 191
3 191 12 212
3 203 182 28
3 17 144 172
3 60 47 1
3 1 47 234
3 168 190 34
3 34 47 168
3 109 242 168
3 168 242 190
3 168 47 60
3 227 226 145
3 226 51 145
3 145 1 228
3 109 168 18
3 18 168 60
3 18 52 109
3 51 52 18
3 180 19 215
3 215 19 23
3 23 242 215
3 215 109 180
3 215 242 109
3 78 19 4
3 4 41 46
3 70 243 211
3 70 165 243
3 211 30 70
3 30 165 70
3 116 237 22
3 22 184 116
3 116 184 243
3 25 29 144
3 25 108 59
3 25 12 29
3 217 108 14
3 217 159 108
3 217 14 112
3 112 184 217
3 253 184 22
3 253 217 184
3 159 217 253
3 112 14 45
3 45 248 112
3 224 248 45
3 45 58 224
3 151 224 34
3 151 82 224
3 34 190 151
3 151 190 23
3 31 30 151
3 30 82 151
3 23 132 151
3 151 132 31
3 210 252 237
3 237 116 210
3 43 21 244
3 244 174 43
3 244 210 11
3 21 210 244
3 11 30 244
3 30 174 244
3 214 236 189
3 48 236 214
3 214 230 48
3 189 43 214
3 43 174 214
3 214 174 99
3 201 205 223
3 201 175 205
3 221 236 48
3 46 41 221
3 221 48 46
3 78 230 77
3 99 132 77
3 77 132 78
3 77 214 99
3 230 214 77
3 222 94 69
3 222 119 94
3 69 251 231
3 231 222 69
3 136 222 231
3 141 136 50
3 50 55 141
3 136 231 50
3 93 55 148
3 148 2 93
3 93 2 183
3 16 85 246
3 110 205 16
3 220 75 152
3 233 80 139
3 80 101 139
3 227 119 139
3 139 119 233
3 139 226 227
3 139 101 226
3 180 52 176
3 176 52 239
3 63 41 3
3 3 26 63
3 89 13 92
3 92 241 89
3 13 176 92
3 239 241 92
3 92 176 239
3 5 239 186
3 5 241 239
3 140 241 5
3 186 226 5
3 5 226 250
3 250 140 5
3 40 178 89
3 40 15 178
3 89 241 40
3 40 241 140
3 181 71 27
3 71 121 27
3 27 131 181
3 140 121 192
3 192 40 140
3 15 40 192
3 71 15 192
3 192 121 71
3 33 21 64
3 37 156 240
3 61 252 238
3 128 240 238
3 238 156 61
3 238 240 156
3 127 220 53
3 75 220 127
3 53 196 127
3 196 103 127
3 127 138 75
3 103 138 127
3 106 81 105
3 106 203 28
3 106 50 231
3 251 81 106
3 106 231 251
3 84 7 218
3 84 212 7
3 7 212 115
3 115 212 12
3 115 62 7
3 228 17 254
3 254 94 227
3 227 145 254
3 254 145 228
3 249 18 60
3 51 18 249
3 249 145 51
3 60 1 249
3 1 145 249
3 54 230 78
3 78 4 54
3 46 230 54
3 54 4 46
3 243 165 117
3 117 116 243
3 117 165 11
3 11 210 117
3 117 210 116
3 179 25 144
3 108 25 179
3 144 97 179
3 35 25 59
3 12 25 35
3 35 115 12
3 59 62 35
3 62 115 35
3 142 17 228
3 234 97 142
3 144 17 142
3 142 97 144
3 142 1 234
3 228 1 142
3 234 58 100
3 58 45 100
3 100 97 234
3 100 45 14
3 193 210 21
3 193 33 171
3 21 33 193
3 171 252 193
3 252 210 193
3 187 41 63
3 175 201 187
3 187 221 41
3 201 221 187
3 63 96 187
3 96 175 187
3 236 221 219
3 219 221 201
3 219 209 135
3 135 236 219
3 223 209 219
3 219 201 223
3 173 136 188
3 173 222 136
3 188 233 173
3 233 119 173
3 119 222 173
3 148 182 232
3 232 2 148
3 6 2 232
3 182 203 232
3 126 155 44
3 126 44 149
3 183 2 126
3 207 93 183
3 207 126 149
3 183 126 207
3 207 149 146
3 141 55 154
3 55 93 154
3 146 141 154
3 154 207 146
3 93 207 154
3 246 255 104
3 104 16 246
3 110 16 104
3 104 247 110
3 133 85 169
3 85 16 169
3 169 16 205
3 169 107 133
3 205 107 169
3 208 255 246
3 246 90 208
3 235 176 13
3 235 19 180
3 180 176 235
3 124 235 13
3 178 26 24
3 26 3 24
3 89 178 24
3 3 124 24
3 24 13 89
3 24 124 13
3 111 107 96
3 111 96 63
3 63 26 111
3 111 26 178
3 123 27 121
3 123 121 250
3 123 49 131
3 131 27 123
3 250 101 123
3 80 49 123
3 123 101 80
3 255 208 20
3 199 33 64
3 164 33 199
3 37 240 57
3 57 240 197
3 57 197 152
3 152 75 57
3 75 138 57
3 114 252 171
3 114 238 252
3 171 33 114
3 114 33 164
3 114 164 128
3 128 238 114
3 36 195 156
3 36 185 195
3 36 156 37
3 37 57 36
3 36 57 138
3 103 185 36
3 36 138 103
3 66 62 76
3 7 62 66
3 76 159 170
3 159 253 170
3 170 66 76
3 79 66 170
3 87 106 28
3 50 106 87
3 28 55 87
3 55 50 87
3 105 212 98
3 212 84 98
3 94 254 120
3 120 254 17
3 194 94 120
3 172 194 120
3 120 17 172
3 143 179 97
3 97 100 143
3 143 100 14
3 14 108 143
3 108 179 143
3 200 126 2
3 155 126 200
3 200 2 6
3 6 163 200
3 53 220 74
3 246 85 9
3 9 202 246
3 177 90 150
3 150 90 246
3 247 104 166
3 83 247 166
3 166 209 83
3 166 118 209
3 88 4 19
3 19 235 88
3 41 4 88
3 204 161 158
3 158 107 204
3 107 111 204
3 128 164 95
3 164 199 95
3 153 208 90
3 153 20 208
3 229 209 32
3 209 118 32
3 32 38 229
3 64 38 32
3 32 199 64
3 73 66 79
3 73 185 218
3 218 7 73
3 7 66 73
3 195 185 73
3 73 79 195
3 79 170 39
3 68 195 39
3 195 79 39
3 22 68 39
3 39 253 22
3 39 170 253
3 65 103 196
3 218 185 65
3 65 185 103
3 65 84 218
3 65 98 84
3 163 74 125
3 177 150 125
3 125 150 163
3 125 220 177
3 125 74 220
3 53 74 137
3 137 232 53
3 6 232 137
3 137 163 6
3 137 74 163
3 213 44 42
3 44 0 42
3 42 161 213
3 158 161 42
3 155 200 91
3 91 200 163
3 163 150 91
3 118 166 56
3 162 124 3
3 162 3 41
3 41 88 162
3 235 124 162
3 162 88 235
3 161 204 130
3 130 72 167
3 167 213 130
3 213 161 130
3 197 240 10
3 10 240 128
3 128 95 10
3 147 90 177
3 147 153 90
3 147 220 152
3 177 220 147
3 105 98 216
3 98 129 216
3 216 129 203
3 216 106 105
3 203 106 216
3 98 65 225
3 225 129 98
3 225 65 196
3 203 129 225
3 225 196 53
3 53 232 225
3 225 232 203
3 133 158 113
3 158 42 113
3 113 0 202
3 113 42 0
3 155 91 160
3 44 155 160
3 160 0 44
3 102 91 150
3 246 202 102
3 102 150 246
3 102 160 91
3 202 0 102
3 0 160 102
3 118 56 67
3 20 10 67
3 67 10 95
3 134 56 166
3 134 104 255
3 134 166 104
3 255 20 134
3 20 67 134
3 134 67 56
3 122 130 204
3 178 15 122
3 122 15 71
3 122 111 178
3 122 204 111
3 71 72 122
3 72 130 122
3 152 197 206
3 206 147 152
3 153 147 206
3 197 10 206
3 20 153 206
3 206 10 20
3 8 85 133
3 133 113 8
3 8 9 85
3 202 9 8
3 8 113 202
3 118 67 157
3 157 67 95
3 157 32 118
3 157 95 199
3 199 32 157