ply
format ascii 1.0
comment https://github.com/mikedh/trimesh
element vertex 256
property float x
property float y
property float z
element face 508
property list uchar int vertex_indices
end_header
-1.29351652 0.93536055 4.20709085
2.43806005 -1.79878604 -1.53769243
1.06785691 1.71046948 3.35536838
-1.49440217 -2.15827632 1.81855869
-1.84387457 -2.23526406 -0.46431667
1.17304599 -2.12765527 2.27249432
0.21430868 2.02055049 2.98507118
2.19162321 1.28637660 -3.13622761
-2.14956093 0.77048248 3.73152876
-2.45112205 0.91154087 3.28897119
-2.87306237 1.52720153 -1.35482514
-1.64679170 -0.54869050 -4.25049829
3.14336371 0.66574204 -2.43483281
-0.52826315 -2.35717392 1.81191587
1.53976047 -0.70989949 -4.22987318
0.27849081 -1.38500416 4.07089233
-3.15669060 0.36854449 2.62515378
3.36714172 -0.95409888 -1.37658894
1.58860564 -2.28575325 -0.90671831
-1.02219164 -2.47063756 -0.28720608
-3.09036541 1.49193907 0.33617729
-2.64610887 -0.14489454 -3.47754526
-0.16543083 0.44326094 -4.77364540
-0.39566284 -2.39299846 -1.69682705
-0.87700927 -2.20963073 2.21431971
2.87424827 -0.08749143 -3.17872310
-1.36525476 -1.86739278 2.84524846
1.76485586 -0.67933154 4.10278225
2.73317981 1.58865201 1.55578923
3.29632950 -0.06831029 -2.42689610
-1.26303756 -1.38281894 -3.75934029
-1.30963004 -1.68723631 -3.25626516
-3.64499903 0.30183664 -1.28757429
-2.67307425 0.57648766 -3.27866960
0.78928912 -1.98957562 -2.90028381
2.69496226 0.61282140 -3.22677660
-0.51377660 2.19843340 -2.42828417
-1.25745440 1.99760962 -2.59858155
-3.46112919 -0.30182490 -1.94175482
0.58583260 0.82067561 -4.53622818
0.47573078 -1.83998621 3.33166766
-2.36704016 -1.97059596 0.77189773
-1.23713517 0.51815104 4.48313618
-2.89230633 -0.58703214 -2.95357013
-0.29851973 0.62353855 4.69131613
1.10739946 -1.17434978 -4.07747173
-2.50149131 -1.93070543 -0.30365372
1.71318316 -1.90879023 -2.40657663
-2.88299513 -1.63238609 -0.73499346
2.68334532 -0.52574307 3.29520202
3.24725032 0.88712537 1.90037513
2.00006747 -2.18184805 0.26236764
1.07247269 -2.44892454 0.54983217
0.45094362 2.54489636 0.36266744
-2.21207809 -2.04940152 -0.78766865
2.79916644 1.13620460 2.49392343
-3.66532063 0.69186723 -0.17947292
-1.45867431 2.16404390 -1.84041297
1.42203724 -1.60993910 -3.31888556
2.55821586 0.17994848 -3.57823443
2.02552867 -2.06703973 -1.28839803
-1.15964341 1.47632313 -3.68580627
2.30911660 0.67488033 -3.64051509
-2.32185173 -1.49918294 2.60447097
-3.20626450 0.11041716 -2.60911536
1.20636654 2.35540915 -1.18545711
1.48567379 1.07492423 -3.97928262
-3.48303986 0.97927904 -0.65064543
-0.43296278 0.88367826 -4.52161217
3.79220557 0.21911803 0.15512753
-0.83582121 -1.06863523 -4.28170586
0.83321035 -0.58769119 4.60152054
0.41402084 -0.28755099 4.79234982
1.14805412 1.36283457 -3.84437609
-0.62759537 2.43227816 1.34737885
-0.84863752 2.49009204 -0.51263702
1.71769643 0.44290268 -4.24875450
-2.41250420 -1.68914568 -1.98149586
-1.68857920 -2.13185358 -1.64442015
0.92337435 1.13487983 -4.19014168
2.96165133 -0.94580638 2.47291851
3.39824605 1.13405406 -0.45062229
-0.08049684 -1.52919722 -3.89753103
-3.79782581 -0.11246199 0.26799843
1.78225482 1.99176586 -2.05904746
-2.73839593 0.52349967 3.22442913
3.39518452 0.41558877 -2.05088449
3.11347556 1.23398757 1.54379463
-1.62123215 -2.32481098 0.10946488
-0.40472206 -2.12543082 2.67741656
-2.36849570 1.68584239 2.07431293
-1.08433247 1.62588441 3.49313331
-0.01545163 -2.34927440 1.96769321
1.93266213 1.08320892 3.64576411
3.54769397 -0.91653657 0.33739522
-3.22723961 1.08143890 -1.57104003
-2.32105708 -1.21293890 3.08968806
2.55796456 -1.11126363 -2.91676331
1.95231879 2.06632090 -1.45863402
-2.09917736 -1.52785516 -2.84146452
1.73297691 -1.19395792 -3.68569541
2.67120647 -1.26385546 2.50115919
-1.46534324 1.25473475 3.79941273
0.14566709 2.46244717 -1.37707555
-3.47356939 0.57765466 1.65969276
2.96333599 1.56978488 -0.70143354
3.25285697 1.27119112 0.77239436
-2.48999715 -0.64895153 3.45991039
2.50107026 -0.27919871 -3.61941314
0.62991202 -2.47511601 -1.02797687
-3.42379522 0.30556837 2.04401112
-1.46842813 -1.38420880 3.63348961
1.07394755 -0.62999088 -4.49962807
-1.72508466 0.56545436 4.19064856
-2.31625366 1.01672077 -3.33817077
2.59948754 0.95900202 -3.04901743
-0.70204562 0.00520336 -4.76808071
-1.03269863 -0.31569752 -4.63221407
-3.69480205 0.49978653 -0.69228214
3.47982454 -0.84976310 1.14635360
3.53880620 -0.92676038 -0.38556537
1.63040495 -1.03042686 3.92854166
-0.19749700 -1.14258659 4.33809423
2.13798857 -1.01933992 3.52313399
-1.05552852 -2.33124447 1.53832388
-1.02775049 2.25044847 1.94218373
0.39088142 1.21328139 4.24799728
0.03126312 2.55714107 -0.47107166
-2.42637563 1.35113060 -2.73251629
2.33795190 2.02765012 -0.12753703
-0.59531826 -0.63822436 4.63878965
2.28982234 -0.32258928 3.82809353
-1.54747164 -1.86449122 -2.69478488
-2.30102396 -0.08441994 3.86310482
-3.60455179 0.78470361 0.49886984
-3.52918601 -0.82109797 -0.95522469
3.40866828 0.39035106 2.03278995
0.11738922 2.25535417 2.32100344
-0.54331368 2.38539577 -1.66591179
2.80614567 -1.48342180 1.70478678
1.16583180 -1.82610023 3.07280493
2.85533047 0.62958115 2.98120499
3.08518910 -1.07943189 -1.98460710
2.06921744 -0.91030741 -3.69250345
3.11851978 -0.72352171 -2.42755580
2.56639934 -1.89821410 0.01666928
2.16972566 0.42053485 3.90667200
-2.22109699 2.07286620 0.45570946
2.14916062 1.59029782 2.65168476
0.66890305 0.26387560 4.75041008
-1.36807632 1.83765864 2.90870380
-0.18418817 -1.81434083 -3.42793202
-1.36700737 2.38728189 -0.43603978
-2.59957409 1.85371423 0.57524270
2.23041010 0.78226495 3.64350677
-0.26934630 1.45058429 3.99027610
-1.15379930 1.78102374 -3.17405534
-3.54671097 0.68589419 -1.19988668
-1.78695440 -0.30906385 4.24439383
1.67863536 0.10647471 -4.35016680
-0.96935374 1.33559024 3.95636034
-1.06974220 -0.30996683 4.61909866
-1.61925769 -2.23341155 1.22723830
-0.61094147 2.17423177 2.46588588
-2.71321440 0.98421192 -2.85251212
-1.14606237 -0.72343832 -4.41977167
-3.75926185 0.40173879 0.15207142
-0.03914705 0.17581540 4.83942461
1.14521098 -2.20805097 -2.01089716
-2.78159022 -0.04917357 3.31195521
1.00425136 0.64852083 -4.51613331
-2.19403696 0.70786905 -3.73357630
3.56607556 -0.35702604 -1.56628323
3.54759216 -0.15083821 1.74027240
-2.55946374 -1.07375693 -2.96495390
-2.80213523 -0.81457233 2.90207553
-0.01159283 -2.49943256 1.12839997
-1.49110293 2.11711812 1.99008179
-0.80064577 -1.93094981 3.03543758
2.68421555 -0.76979274 -3.11883616
-0.07762826 -2.56871605 0.13802205
1.40003526 -0.36878249 4.45788050
2.30738401 1.72191298 2.08020139
0.90905631 1.28718650 4.03615999
0.56973338 -0.39817104 -4.73722410
0.55399424 2.03672361 -2.87369967
1.75823176 -2.13332319 1.51604378
-2.89812160 -1.29338312 1.98672366
3.24634933 -0.11393892 2.52675653
-3.30102277 -0.81861454 -1.85844481
0.34648845 -2.23491240 -2.35257316
3.46018291 0.65189910 -1.60694075
0.75806803 -1.41907763 3.92712402
-1.98164511 0.43934238 -4.05862808
3.70741343 -0.16272844 -1.06585956
-0.40746406 1.50398421 -3.89924192
0.74443460 2.51704860 -0.22955866
-1.99875689 2.09701562 -1.17193627
3.66459203 0.35245129 -1.13908243
-3.31035876 0.47150365 -2.22742915
-0.17767249 1.83582366 3.38921928
-3.37963629 -1.00749218 1.17463458
-1.82127893 1.01716793 3.80248833
2.46375799 1.89185643 0.96162814
-1.10196030 -1.06578147 4.18512917
-3.11839604 -0.39109576 2.68437815
-2.18291807 2.09996176 -0.29636356
1.40591097 0.79264873 4.25406647
-2.87794375 1.44448519 1.62755227
-3.77480865 -0.31385601 -0.24586792
-1.80355322 0.11480340 -4.26797581
-0.30278718 -1.21784294 -4.25560665
2.39648342 1.63423538 -2.16876411
-0.60950720 0.22393034 4.76989555
-2.82414317 -1.27554369 -2.18921781
-0.27459124 -2.49905562 -1.07961845
2.71757770 1.79246926 -0.30761278
1.44471538 -0.21998513 -4.47045231
1.30035722 2.00810766 -2.53232145
-3.47724366 -1.03110671 0.36566544
-0.85757732 2.49844813 0.30283403
-2.93961191 -1.62882185 0.21656120
3.69990420 0.01414989 1.14777291
-3.59094930 -0.46428847 1.35514188
0.49773914 -1.44445395 -3.96188354
1.48582292 2.36425710 -0.16999586
2.36784530 -1.77294827 1.80050528
3.05894709 -1.49212408 0.64203709
2.86458540 -1.55522716 -1.26274002
-3.66587615 -0.26084989 -1.21363854
-2.59540153 -1.76153398 -1.23977768
3.64203000 0.44900942 1.13322628
1.35930026 1.87875783 2.82167268
3.31089091 -0.86161083 1.76091373
2.14996910 -1.50712609 -2.81846881
-0.67484033 -2.45910478 1.11527514
-3.30978179 -1.23909712 -0.52859461
-0.71562332 0.42705461 -4.69691896
-2.00309181 1.30064034 -3.31593776
0.74750370 -2.42065525 1.32310164
-2.15512776 1.69366312 -2.40477538
0.64592719 -2.15609980 2.50722122
0.25549403 -2.42318726 -1.58225632
-0.09356544 -0.62220651 -4.70625162
-2.41072059 -0.61066121 -3.57467246
3.59476447 0.03104186 -1.59883165
-2.63643122 1.21135128 2.65082002
-3.72933841 -0.03762389 0.97603488
0.70772988 -0.97856510 -4.39429426
2.05349207 -2.13761640 -0.64218712
2.08692908 -1.46843541 2.96277761
3.69305134 0.62000096 -0.18292058
-1.54739940 0.86594820 -4.12051535
0.74696362 0.19906613 -4.74217367
3.19668412 -1.38667655 -0.30202675
-3.27567768 1.06705213 1.43299544
3 135 229 189
3 110 247 223
3 223 247 83
3 30 31 99
3 209 229 135
3 209 223 83
3 38 189 229
3 64 43 38
3 38 43 189
3 94 194 69
3 149 181 146
3 80 233 188
3 146 181 131
3 146 131 141
3 141 131 188
3 110 223 205
3 237 68 22
3 172 144 29
3 198 86 191
3 191 251 198
3 69 194 198
3 198 251 69
3 51 226 186
3 23 78 132
3 99 31 132
3 19 78 23
3 165 30 11
3 23 190 242
3 159 76 59
3 59 108 159
3 248 184 112
3 243 184 248
3 211 243 248
3 248 224 211
3 211 224 82
3 82 30 211
3 34 224 58
3 234 47 58
3 58 47 34
3 21 43 64
3 174 30 99
3 135 189 236
3 46 48 230
3 227 94 119
3 167 149 44
3 44 213 167
3 49 80 188
3 188 131 49
3 136 141 188
3 182 55 28
3 148 55 182
3 250 226 101
3 180 109 52
3 186 239 52
3 52 51 186
3 72 149 167
3 181 149 72
3 72 71 181
3 121 140 250
3 107 158 133
3 96 107 175
3 175 107 205
3 68 237 252
3 252 61 68
3 68 61 195
3 61 156 195
3 245 198 194
3 86 198 245
3 245 194 172
3 172 29 245
3 245 29 86
3 59 76 62
3 191 86 12
3 86 29 12
3 81 251 191
3 191 105 81
3 212 105 191
3 191 12 212
3 203 182 28
3 17 144 172
3 60 47 1
3 1 47 234
3 168 190 34
3 34 47 168
3 109 242 168
3 168 242 190
3 168 47 60
3 227 226 145
3 226 51 145
3 145 1 228
3 109 168 18
3 18 168 60
3 18 52 109
3 51 52 18
3 180 19 215
3 215 19 23
3 23 242 215
3 215 109 180
3 215 242 109
3 78 19 4
3 4 41 46
3 70 243 211
3 70 165 243
3 211 30 70
3 30 165 70
3 116 237 22
3 22 184 116
3 116 184 243
3 25 29 144
3 25 108 59
3 25 12 29
3 217 108 14
3 217 159 108
3 217 14 112
3 112 184 217
3 253 184 22
3 253 217 184
3 159 217 253
3 112 14 45
3 45 248 112
3 224 248 45
3 45 58 224
3 151 224 34
3 151 82 224
3 34 190 151
3 151 190 23
3 31 30 151
3 30 82 151
3 23 132 151
3 151 132 31
3 210 252 237
3 237 116 210
3 43 21 244
3 244 174 43
3 244 210 11
3 21 210 244
3 11 30 244
3 30 174 244
3 214 236 189
3 48 236 214
3 214 230 48
3 189 43 214
3 43 174 214
3 214 174 99
3 201 205 223
3 201 175 205
3 221 236 48
3 46 41 221
3 221 48 46
3 78 230 77
3 99 132 77
3 77 132 78
3 77 214 99
3 230 214 77
3 222 94 69
3 222 119 94
3 69 251 231
3 231 222 69
3 136 222 231
3 141 136 50
3 50 55 141
3 136 231 50
3 93 55 148
3 148 2 93
3 93 2 183
3 16 85 246
3 110 205 16
3 220 75 152
3 233 80 139
3 80 101 139
3 227 119 139
3 139 119 233
3 139 226 227
3 139 101 226
3 180 52 176
3 176 52 239
3 63 41 3
3 3 26 63
3 89 13 92
3 92 241 89
3 13 176 92
3 239 241 92
3 92 176 239
3 5 239 186
3 5 241 239
3 140 241 5
3 186 226 5
3 5 226 250
3 250 140 5
3 40 178 89
3 40 15 178
3 89 241 40
3 40 241 140
3 181 71 27
3 71 121 27
3 27 131 181
3 140 121 192
3 192 40 140
3 15 40 192
3 71 15 192
3 192 121 71
3 33 21 64
3 37 156 240
3 61 252 238
3 128 240 238
3 238 156 61
3 238 240 156
3 127 220 53
3 75 220 127
3 53 196 127
3 196 103 127
3 127 138 75
3 103 138 127
3 106 81 105
3 106 203 28
3 106 50 231
3 251 81 106
3 106 231 251
3 84 7 218
3 84 212 7
3 7 212 115
3 115 212 12
3 115 62 7
3 228 17 254
3 254 94 227
3 227 145 254
3 254 145 228
3 249 18 60
3 51 18 249
3 249 145 51
3 60 1 249
3 1 145 249
3 54 230 78
3 78 4 54
3 46 230 54
3 54 4 46
3 243 165 117
3 117 116 243
3 117 165 11
3 11 210 117
3 117 210 116
3 179 25 144
3 108 25 179
3 144 97 179
3 35 25 59
3 12 25 35
3 35 115 12
3 59 62 35
3 62 115 35
3 142 17 228
3 234 97 142
3 144 17 142
3 142 97 144
3 142 1 234
3 228 1 142
3 234 58 100
3 58 45 100
3 100 97 234
3 100 45 14
3 193 210 21
3 193 33 171
3 21 33 193
3 171 252 193
3 252 210 193
3 187 41 63
3 175 201 187
3 187 221 41
3 201 221 187
3 63 96 187
3 96 175 187
3 236 221 219
3 219 221 201
3 219 209 135
3 135 236 219
3 223 209 219
3 219 201 223
3 173 136 188
3 173 222 136
3 188 233 173
3 233 119 173
3 119 222 173
3 148 182 232
3 232 2 148
3 6 2 232
3 182 203 232
3 126 155 44
3 126 44 149
3 183 2 126
3 207 93 183
3 207 126 149
3 183 126 207
3 207 149 146
3 141 55 154
3 55 93 154
3 146 141 154
3 154 207 146
3 93 207 154
3 246 255 104
3 104 16 246
3 110 16 104
3 104 247 110
3 133 85 169
3 85 16 169
3 169 16 205
3 169 107 133
3 205 107 169
3 208 255 246
3 246 90 208
3 235 176 13
3 235 19 180
3 180 176 235
3 124 235 13
3 178 26 24
3 26 3 24
3 89 178 24
3 3 124 24
3 24 13 89
3 24 124 13
3 111 107 96
3 111 96 63
3 63 26 111
3 111 26 178
3 123 27 121
3 123 121 250
3 123 49 131
3 131 27 123
3 250 101 123
3 80 49 123
3 123 101 80
3 255 208 20
3 199 33 64
3 164 33 199
3 37 240 57
3 57 240 197
3 57 197 152
3 152 75 57
3 75 138 57
3 114 252 171
3 114 238 252
3 171 33 114
3 114 33 164
3 114 164 128
3 128 238 114
3 36 195 156
3 36 185 195
3 36 156 37
3 37 57 36
3 36 57 138
3 103 185 36
3 36 138 103
3 66 62 76
3 7 62 66
3 76 159 170
3 159 253 170
3 170 66 76
3 79 66 170
3 87 106 28
3 50 106 87
3 28 55 87
3 55 50 87
3 105 212 98
3 212 84 98
3 94 254 120
3 120 254 17
3 194 94 120
3 172 194 120
3 120 17 172
3 143 179 97
3 97 100 143
3 143 100 14
3 14 108 143
3 108 179 143
3 200 126 2
3 155 126 200
3 200 2 6
3 6 163 200
3 53 220 74
3 246 85 9
3 9 202 246
3 177 90 150
3 150 90 246
3 247 104 166
3 83 247 166
3 166 209 83
3 166 118 209
3 88 4 19
3 19 235 88
3 41 4 88
3 204 161 158
3 158 107 204
3 107 111 204
3 128 164 95
3 164 199 95
3 153 208 90
3 153 20 208
3 229 209 32
3 209 118 32
3 32 38 229
3 64 38 32
3 32 199 64
3 73 66 79
3 73 185 218
3 218 7 73
3 7 66 73
3 195 185 73
3 73 79 195
3 79 170 39
3 68 195 39
3 195 79 39
3 22 68 39
3 39 253 22
3 39 170 253
3 65 103 196
3 218 185 65
3 65 185 103
3 65 84 218
3 65 98 84
3 163 74 125
3 177 150 125
3 125 150 163
3 125 220 177
3 125 74 220
3 53 74 137
3 137 232 53
3 6 232 137
3 137 163 6
3 137 74 163
3 213 44 42
3 44 0 42
3 42 161 213
3 158 161 42
3 155 200 91
3 91 200 163
3 163 150 91
3 118 166 56
3 162 124 3
3 162 3 41
3 41 88 162
3 235 124 162
3 162 88 235
3 161 204 130
3 130 72 167
3 167 213 130
3 213 161 130
3 197 240 10
3 10 240 128
3 128 95 10
3 147 90 177
3 147 153 90
3 147 220 152
3 177 220 147
3 105 98 216
3 98 129 216
3 216 129 203
3 216 106 105
3 203 106 216
3 98 65 225
3 225 129 98
3 225 65 196
3 203 129 225
3 225 196 53
3 53 232 225
3 225 232 203
3 133 158 113
3 158 42 113
3 113 0 202
3 113 42 0
3 155 91 160
3 44 155 160
3 160 0 44
3 102 91 150
3 246 202 102
3 102 150 246
3 102 160 91
3 202 0 102
3 0 160 102
3 118 56 67
3 20 10 67
3 67 10 95
3 134 56 166
3 134 104 255
3 134 166 104
3 255 20 134
3 20 67 134
3 134 67 56
3 122 130 204
3 178 15 122
3 122 15 71
3 122 111 178
3 122 204 111
3 71 72 122
3 72 130 122
3 152 197 206
3 206 147 152
3 153 147 206
3 197 10 206
3 20 153 206
3 206 10 20
3 8 85 133
3 133 113 8
3 8 9 85
3 202 9 8
3 8 113 202
3 118 67 157
3 157 67 95
3 157 32 118
3 157 95 199
3 199 32 157