ply
format ascii 1.0
comment https://github.com/mikedh/trimesh
element vertex 256
property float x
property float y
property float z
element face 508
property list uchar int vertex_indices
end_header
-0.83462960 0.86796236 1.79925144
1.57313561 -1.66917300 -0.65762669
0.68902481 1.58722019 1.43499422
-0.96424919 -2.00275993 0.77774513
-1.18974304 -2.07420015 -0.19857484
0.75689709 -1.97434521 0.97188026
0.13828069 1.87495804 1.27662885
1.41412473 1.19368565 -1.34127414
-1.38698435 0.71496469 1.59586716
-1.58156383 0.84585905 1.40659821
-1.85381699 1.41715777 -0.57941961
-1.06257713 -0.50915414 -1.81781554
2.02822638 0.61777145 -1.04130781
-0.34085691 -2.18732572 0.77490413
0.99351621 -0.65874708 -1.80899477
0.17969364 -1.28520656 1.74100327
-2.03682542 0.34198871 1.12270260
2.17261720 -0.88535047 -0.58872741
1.02503312 -2.12105131 -0.38777727
-0.65955973 -2.29261374 -0.12282976
-1.99402976 1.38443625 0.14377333
-1.70737731 -0.13445404 -1.48724580
-0.10674271 0.41132140 -2.04155040
-0.25529778 -2.22056890 -0.72568399
-0.56588215 -2.05041385 0.94700068
1.85458219 -0.08118717 -1.35944819
-0.88091803 -1.73283625 1.21683073
1.13875699 -0.63038176 1.75464165
1.76355898 1.47418034 0.66536617
2.12692618 -0.06338813 -1.03791344
-0.81496328 -1.28317881 -1.60776138
-0.84502673 -1.56566119 -1.39261067
-2.35190201 0.28008756 -0.55065840
-1.72477651 0.53494835 -1.40219247
0.50928152 -1.84621501 -1.24036777
1.73889959 0.56866401 -1.37999928
-0.33150962 2.04002333 -1.03850710
-0.81136078 1.85367012 -1.11133838
-2.23326159 -0.28007665 -0.83043253
0.37800306 0.76154113 -1.94001400
0.30696091 -1.70740438 1.42485809
-1.52731085 -1.82860303 0.33011842
-0.79825008 0.48081526 1.91730809
-1.86623394 -0.54473305 -1.26315677
-0.19261710 0.57860899 2.00634074
0.71453929 -1.08973110 -1.74381709
-1.61406410 -1.79158688 -0.12986393
1.10541558 -1.77125072 -1.02922344
-1.86022604 -1.51476312 -0.31433550
1.73140383 -0.48786023 1.40926290
2.09525824 0.82320279 0.81273562
1.29052508 -2.02463317 0.11220707
0.69200313 -2.27246523 0.23514736
0.29096720 2.36152172 0.15510240
-1.42732298 -1.90173018 -0.33686319
1.80613625 1.05433440 1.06657910
-2.36501431 0.64201421 -0.07675539
-0.94119608 2.00811195 -0.78709155
0.91755641 -1.49393356 -1.41939163
1.65066516 0.16698214 -1.53030765
1.30695367 -1.91809750 -0.55101067
-0.74824923 1.36994541 -1.57631302
1.48993611 0.62625122 -1.55694330
-1.49815345 -1.39115798 1.11385703
-2.06881261 0.10246096 -1.11584342
0.77839684 2.18568826 -0.50698584
0.95861733 0.99746972 -1.70182443
-2.24739933 0.90871632 -0.27826229
-0.27936524 0.82000411 -1.93376315
2.44688559 0.20332929 0.06634357
-0.53930593 -0.99163383 -1.83116221
0.53762126 -0.54534459 1.96793771
0.26714313 -0.26683125 2.04954982
0.74077129 1.26463437 -1.64412868
-0.40495011 2.25701833 0.57623506
-0.54757553 2.31066632 -0.21924007
1.10832775 0.41098899 -1.81706977
-1.55664611 -1.56743288 -0.84742862
-1.08954012 -1.97824121 -0.70327103
0.59579873 1.05310512 -1.79200268
1.91097808 -0.87765551 1.05759597
2.19268680 1.05233884 -0.19271816
-0.05193985 -1.41900969 -1.66686153
-2.45051193 -0.10435844 0.11461520
1.14998353 1.84824741 -0.88059521
-1.76692474 0.48577845 1.37899530
2.19071150 0.38564318 -0.87710422
2.00894141 1.14507151 0.66023648
-1.04608512 -2.15729499 0.04681497
-0.26114318 -1.97228122 1.14505374
-1.52824998 1.56436765 0.88712382
-0.69965547 1.50872993 1.49391246
-0.00997002 -2.17999530 0.84152561
1.24703240 1.00515747 1.55918813
2.28911686 -0.85049480 0.14429420
-2.08234644 1.00351501 -0.67188853
-1.49764073 -1.12553954 1.32137048
1.65050292 -1.03119063 -1.24741554
1.25971568 1.91743028 -0.62381572
-1.35447478 -1.41776431 -1.21521246
1.11818743 -1.10792625 -1.57626569
1.72357130 -1.17278731 1.06967366
-0.94549918 1.16432381 1.62489927
0.09399034 2.28501344 -0.58893549
-2.24128866 0.53603125 0.70980275
1.91206515 1.45667267 -0.29998291
2.09887600 1.17959440 0.33033079
-1.60664773 -0.60219079 1.47970390
1.61379254 -0.25908083 -1.54791856
0.40644494 -2.29676938 -0.43963605
-2.20917225 0.28355038 0.87416458
-0.94748974 -1.28446853 1.55393875
0.69295472 -0.58459634 -1.92436111
-1.11309493 0.52471012 1.79221940
-1.49454129 0.94346017 -1.42763937
1.67729533 0.88990033 -1.30397677
-0.45298845 0.00482843 -2.03917074
-0.66633922 -0.29294968 -1.98106432
-2.38403678 0.46377400 -0.29606912
2.24532461 -0.78853267 0.49026239
2.28338218 -0.85998189 -0.16489519
1.05200374 -0.95617855 1.68012404
-0.12743311 -1.06025660 1.85527778
1.37951744 -0.94589055 1.50674272
-0.68107003 -2.16326475 0.65789676
-0.66314650 2.08829045 0.83061600
0.25221264 1.12585735 1.81674588
0.02017224 2.37288427 -0.20146377
-1.56559658 1.25377381 -1.16861844
1.50854194 1.88154614 -0.05454391
-0.38412359 -0.59223658 1.98387671
1.47748661 -0.29934484 1.63716519
-0.99849182 -1.73014379 -1.15248179
-1.48471439 -0.07833699 1.65213859
-2.32580376 0.72816116 0.21335223
-2.27717471 -0.76193303 -0.40852204
2.19941187 0.36222398 0.86936563
0.07574431 2.09284282 0.99262619
-0.35056815 2.21351409 -0.71246243
1.81063950 -1.37653267 0.72908813
0.75224221 -1.69451904 1.31414998
1.84237552 0.58421618 1.27497542
1.99068975 -1.00165248 -0.84875923
1.33514345 -0.84471440 -1.57917726
2.01219606 -0.67138773 -1.03819561
1.65594554 -1.76143670 0.00712897
1.39999545 0.39023286 1.67077088
-1.43314230 1.92350411 0.19489379
1.38672614 1.47570765 1.13404918
0.43160352 0.24486183 2.03161335
-0.88273865 1.70524454 1.24396873
-0.11884572 -1.68360698 -1.46602762
-0.88204890 2.21526432 -0.18648162
-1.67735112 1.72014332 0.24601471
1.43915164 0.72589821 1.55822277
-0.17379321 1.34606123 1.70652604
-0.74447834 1.65269065 -1.35745192
-2.28848243 0.63647151 -0.51315695
-1.15301585 -0.28679401 1.81520486
1.08312392 0.09880258 -1.86044097
-0.62546659 1.23935318 1.69202125
-0.69024122 -0.28763190 1.97545516
-1.04481101 -2.07248139 0.52485442
-0.39420435 2.01756573 1.05458820
-1.75067651 0.91329372 -1.21993721
-0.73948616 -0.67131037 -1.89020884
-2.42562890 0.37279117 0.06503657
-0.02525927 0.16314688 2.06968236
0.73893678 -2.04894805 -0.86000270
-1.79479539 -0.04563032 1.41642773
0.64798391 0.60179114 -1.93141997
-1.41568208 0.65686297 -1.59674287
2.30097747 -0.33130023 -0.66985416
2.28905106 -0.13996944 0.74426436
-1.65147042 -0.99638653 -1.26802528
-1.80805182 -0.75587761 1.24113405
-0.00748017 -2.31933379 0.48258412
-0.96212041 1.96456730 0.85110056
-0.51660931 -1.79181361 1.29816902
1.73196530 -0.71432465 -1.33383632
-0.05008892 -2.38362503 0.05902805
0.90335983 -0.34220955 1.90650702
1.48881817 1.59783912 0.88964212
0.58656019 1.19443715 1.72614920
0.36761519 -0.36948049 -2.02597404
0.35745966 1.88996577 -1.22899842
1.13448286 -1.97960484 0.64836818
-1.86998618 -1.20018733 0.84966439
2.09467697 -0.10572896 1.08062088
-2.12995458 -0.75962859 -0.79480326
0.22356847 -2.07387400 -1.00612772
2.23265123 0.60492593 -0.68724221
0.48913640 -1.31682479 1.67951763
-1.27863824 0.40768519 -1.73575819
2.39217424 -0.15100291 -0.45583737
-0.26291242 1.39561343 -1.66759336
0.48033953 2.33568048 -0.09817562
-1.28967941 1.94591343 -0.50120336
2.36454415 0.32705510 -0.48715270
-2.13597846 0.43752906 -0.95260715
-0.11464153 1.70354187 1.44947135
-2.18067908 -0.93489647 0.50235730
-1.17516339 0.94387507 1.62621462
1.58971715 1.75553715 0.41126063
-0.71102971 -0.98898572 1.78985918
-2.01211619 -0.36291504 1.14803112
-1.40850770 1.94864726 -0.12674615
0.90715110 0.73553377 1.81934154
-1.85696673 1.34040165 0.69605714
-2.43566036 -0.29124084 -0.10515062
-1.16372609 0.10653115 -1.82529008
-0.19537063 -1.13009024 -1.82000029
1.54630876 1.51647913 -0.92751783
-0.39327890 0.20779485 2.03994679
-1.82225227 -1.18363333 -0.93626529
-0.17717746 -2.31898403 -0.46172166
1.75349188 1.66331136 -0.13155711
0.93218923 -0.20413391 -1.91188359
0.83904350 1.86341178 -1.08300090
-2.24365926 -0.95680946 0.15638456
-0.55334383 2.31842017 0.12951338
-1.89675748 -1.51145577 0.09261698
2.38732886 0.01313031 0.49086934
-2.31702685 -0.43083379 0.57955509
0.32116157 -1.34037256 -1.69438326
0.95871353 2.19389868 -0.07270233
1.52783024 -1.64519703 0.77002418
1.97375727 -1.38460791 0.27458075
1.84834731 -1.44316399 -0.54003751
-2.36537266 -0.24205413 -0.51903820
-1.67465878 -1.63460517 -0.53021717
2.34998631 0.41665569 0.48464817
0.87707597 1.74338245 1.20674801
2.13632178 -0.79952675 0.75309205
1.38724780 -1.39852881 -1.20537782
-0.43543452 -2.28191185 0.47697103
-2.13560629 -1.14981294 -0.22606465
-0.46174935 0.39628285 -2.00873661
-1.29247642 1.20692170 -1.41813087
0.48231983 -2.24623275 0.56585240
-1.39057624 1.57162488 -1.02845311
0.41677853 -2.00074029 1.07226622
0.16485517 -2.24858260 -0.67668539
-0.06037224 -0.57737291 -2.01272821
-1.55549514 -0.56665951 -1.52878439
2.31948853 0.02880511 -0.68377417
-1.70113301 1.12406635 1.13367927
-2.40632129 -0.03491287 0.41742197
0.45665616 -0.90805376 -1.87931287
1.32499683 -1.98358870 -0.27464491
1.34657168 -1.36262608 1.26709461
2.38290715 0.57532626 -0.07822985
-0.99844515 0.80355161 -1.76222551
0.48197135 0.18472226 -2.02809095
2.06263089 -1.28675842 -0.12916812
-2.11360073 0.99016476 0.61285079
3 135 229 189
3 110 247 223
3 223 247 83
3 30 31 99
3 209 229 135
3 209 223 83
3 38 189 229
3 64 43 38
3 38 43 189
3 94 194 69
3 149 181 146
3 80 233 188
3 146 181 131
3 146 131 141
3 141 131 188
3 110 223 205
3 237 68 22
3 172 144 29
3 198 86 191
3 191 251 198
3 69 194 198
3 198 251 69
3 51 226 186
3 23 78 132
3 99 31 132
3 19 78 23
3 165 30 11
3 23 190 242
3 159 76 59
3 59 108 159
3 248 184 112
3 243 184 248
3 211 243 248
3 248 224 211
3 211 224 82
3 82 30 211
3 34 224 58
3 234 47 58
3 58 47 34
3 21 43 64
3 174 30 99
3 135 189 236
3 46 48 230
3 227 94 119
3 167 149 44
3 44 213 167
3 49 80 188
3 188 131 49
3 136 141 188
3 182 55 28
3 148 55 182
3 250 226 101
3 180 109 52
3 186 239 52
3 52 51 186
3 72 149 167
3 181 149 72
3 72 71 181
3 121 140 250
3 107 158 133
3 96 107 175
3 175 107 205
3 68 237 252
3 252 61 68
3 68 61 195
3 61 156 195
3 245 198 194
3 86 198 245
3 245 194 172
3 172 29 245
3 245 29 86
3 59 76 62
3 191 86 12
3 86 29 12
3 81 251 191
3 191 105 81
3 212 105 191
3 191 12 212
3 203 182 28
3 17 144 172
3 60 47 1
3 1 47 234
3 168 190 34
3 34 47 168
3 109 242 168
3 168 242 190
3 168 47 60
3 227 226 145
3 226 51 145
3 145 1 228
3 109 168 18
3 18 168 60
3 18 52 109
3 51 52 18
3 180 19 215
3 215 19 23
3 23 242 215
3 215 109 180
3 215 242 109
3 78 19 4
3 4 41 46
3 70 243 211
3 70 165 243
3 211 30 70
3 30 165 70
3 116 237 22
3 22 184 116
3 116 184 243
3 25 29 144
3 25 108 59
3 25 12 29
3 217 108 14
3 217 159 108
3 217 14 112
3 112 184 217
3 253 184 22
3 253 217 184
3 159 217 253
3 112 14 45
3 45 248 112
3 224 248 45
3 45 58 224
3 151 224 34
3 151 82 224
3 34 190 151
3 151 190 23
3 31 30 151
3 30 82 151
3 23 132 151
3 151 132 31
3 210 252 237
3 237 116 210
3 43 21 244
3 244 174 43
3 244 210 11
3 21 210 244
3 11 30 244
3 30 174 244
3 214 236 189
3 48 236 214
3 214 230 48
3 189 43 214
3 43 174 214
3 214 174 99
3 201 205 223
3 201 175 205
3 221 236 48
3 46 41 221
3 221 48 46
3 78 230 77
3 99 132 77
3 77 132 78
3 77 214 99
3 230 214 77
3 222 94 69
3 222 119 94
3 69 251 231
3 231 222 69
3 136 222 231
3 141 136 50
3 50 55 141
3 136 231 50
3 93 55 148
3 148 2 93
3 93 2 183
3 16 85 246
3 110 205 16
3 220 75 152
3 233 80 139
3 80 101 139
3 227 119 139
3 139 119 233
3 139 226 227
3 139 101 226
3 180 52 176
3 176 52 239
3 63 41 3
3 3 26 63
3 89 13 92
3 92 241 89
3 13 176 92
3 239 241 92
3 92 176 239
3 5 239 186
3 5 241 239
3 140 241 5
3 186 226 5
3 5 226 250
3 250 140 5
3 40 178 89
3 40 15 178
3 89 241 40
3 40 241 140
3 181 71 27
3 71 121 27
3 27 131 181
3 140 121 192
3 192 40 140
3 15 40 192
3 71 15 192
3 192 121 71
3 33 21 64
3 37 156 240
3 61 252 238
3 128 240 238
3 238 156 61
3 238 240 156
3 127 220 53
3 75 220 127
3 53 196 127
3 196 103 127
3 127 138 75
3 103 138 127
3 106 81 105
3 106 203 28
3 106 50 231
3 251 81 106
3 106 231 251
3 84 7 218
3 84 212 7
3 7 212 115
3 115 212 12
3 115 62 7
3 228 17 254
3 254 94 227
3 227 145 254
3 254 145 228
3 249 18 60
3 51 18 249
3 249 145 51
3 60 1 249
3 1 145 249
3 54 230 78
3 78 4 54
3 46 230 54
3 54 4 46
3 243 165 117
3 117 116 243
3 117 165 11
3 11 210 117
3 117 210 116
3 179 25 144
3 108 25 179
3 144 97 179
3 35 25 59
3 12 25 35
3 35 115 12
3 59 62 35
3 62 115 35
3 142 17 228
3 234 97 142
3 144 17 142
3 142 97 144
3 142 1 234
3 228 1 142
3 234 58 100
3 58 45 100
3 100 97 234
3 100 45 14
3 193 210 21
3 193 33 171
3 21 33 193
3 171 252 193
3 252 210 193
3 187 41 63
3 175 201 187
3 187 221 41
3 201 221 187
3 63 96 187
3 96 175 187
3 236 221 219
3 219 221 201
3 219 209 135
3 135 236 219
3 223 209 219
3 219 201 223
3 173 136 188
3 173 222 136
3 188 233 173
3 233 119 173
3 119 222 173
3 148 182 232
3 232 2 148
3 6 2 232
3 182 203 232
3 126 155 44
3 126 44 149
3 183 2 126
3 207 93 183
3 207 126 149
3 183 126 207
3 207 149 146
3 141 55 154
3 55 93 154
3 146 141 154
3 154 207 146
3 93 207 154
3 246 255 104
3 104 16 246
3 110 16 104
3 104 247 110
3 133 85 169
3 85 16 169
3 169 16 205
3 169 107 133
3 205 107 169
3 208 255 246
3 246 90 208
3 235 176 13
3 235 19 180
3 180 176 235
3 124 235 13
3 178 26 24
3 26 3 24
3 89 178 24
3 3 124 24
3 24 13 89
3 24 124 13
3 111 107 96
3 111 96 63
3 63 26 111
3 111 26 178
3 123 27 121
3 123 121 250
3 123 49 131
3 131 27 123
3 250 101 123
3 80 49 123
3 123 101 80
3 255 208 20
3 199 33 64
3 164 33 199
3 37 240 57
3 57 240 197
3 57 197 152
3 152 75 57
3 75 138 57
3 114 252 171
3 114 238 252
3 171 33 114
3 114 33 164
3 114 164 128
3 128 238 114
3 36 195 156
3 36 185 195
3 36 156 37
3 37 57 36
3 36 57 138
3 103 185 36
3 36 138 103
3 66 62 76
3 7 62 66
3 76 159 170
3 159 253 170
3 170 66 76
3 79 66 170
3 87 106 28
3 50 106 87
3 28 55 87
3 55 50 87
3 105 212 98
3 212 84 98
3 94 254 120
3 120 254 17
3 194 94 120
3 172 194 120
3 120 17 172
3 143 179 97
3 97 100 143
3 143 100 14
3 14 108 143
3 108 179 143
3 200 126 2
3 155 126 200
3 200 2 6
3 6 163 200
3 53 220 74
3 246 85 9
3 9 202 246
3 177 90 150
3 150 90 246
3 247 104 166
3 83 247 166
3 166 209 83
3 166 118 209
3 88 4 19
3 19 235 88
3 41 4 88
3 204 161 158
3 158 107 204
3 107 111 204
3 128 164 95
3 164 199 95
3 153 208 90
3 153 20 208
3 229 209 32
3 209 118 32
3 32 38 229
3 64 38 32
3 32 199 64
3 73 66 79
3 73 185 218
3 218 7 73
3 7 66 73
3 195 185 73
3 73 79 195
3 79 170 39
3 68 195 39
3 195 79 39
3 22 68 39
3 39 253 22
3 39 170 253
3 65 103 196
3 218 185 65
3 65 185 103
3 65 84 218
3 65 98 84
3 163 74 125
3 177 150 125
3 125 150 163
3 125 220 177
3 125 74 220
3 53 74 137
3 137 232 53
3 6 232 137
3 137 163 6
3 137 74 163
3 213 44 42
3 44 0 42
3 42 161 213
3 158 161 42
3 155 200 91
3 91 200 163
3 163 150 91
3 118 166 56
3 162 124 3
3 162 3 41
3 41 88 162
3 235 124 162
3 162 88 235
3 161 204 130
3 130 72 167
3 167 213 130
3 213 161 130
3 197 240 10
3 10 240 128
3 128 95 10
3 147 90 177
3 147 153 90
3 147 220 152
3 177 220 147
3 105 98 216
3 98 129 216
3 216 129 203
3 216 106 105
3 203 106 216
3 98 65 225
3 225 129 98
3 225 65 196
3 203 129 225
3 225 196 53
3 53 232 225
3 225 232 203
3 133 158 113
3 158 42 113
3 113 0 202
3 113 42 0
3 155 91 160
3 44 155 160
3 160 0 44
3 102 91 150
3 246 202 102
3 102 150 246
3 102 160 91
3 202 0 102
3 0 160 102
3 118 56 67
3 20 10 67
3 67 10 95
3 134 56 166
3 134 104 255
3 134 166 104
3 255 20 134
3 20 67 134
3 134 67 56
3 122 130 204
3 178 15 122
3 122 15 71
3 122 111 178
3 122 204 111
3 71 72 122
3 72 130 122
3 152 197 206
3 206 147 152
3 153 147 206
3 197 10 206
3 20 153 206
3 206 10 20
3 8 85 133
3 133 113 8
3 8 9 85
3 202 9 8
3 8 113 202
3 118 67 157
3 157 67 95
3 157 32 118
3 157 95 199
3 199 32 157