ply
format ascii 1.0
comment https://github.com/mikedh/trimesh
element vertex 256
property float x
property float y
property float z
element face 508
property list uchar int vertex_indices
end_header
-0.47207740 1.16858053 3.43857169
0.88978606 -2.24728990 -1.25679839
0.38972142 2.13695288 2.74243522
-0.54539192 -2.69641447 1.48635828
-0.67293417 -2.79259801 -0.37949881
0.42811087 -2.65815830 1.85737228
0.07821336 2.52434850 2.43978095
0.79984736 1.60711789 -2.56332541
-0.78449643 0.96259224 3.04988146
-0.89455312 1.13882172 2.68816710
-1.04854310 1.90798938 -1.10733593
-0.60100752 -0.68549937 -3.47404957
1.14719141 0.83173615 -1.99005604
-0.19279312 -2.94490457 1.48092878
0.56194574 -0.88690370 -3.45719194
0.10163707 -1.73033690 3.32725286
-1.15205503 0.46043628 2.14561081
1.22886062 -1.19199097 -1.12512410
0.57977211 -2.85567594 -0.74108589
-0.37305558 -3.08665895 -0.23474146
-1.12784922 1.86393476 0.27476698
-0.96571487 -0.18102211 -2.84229374
-0.06037507 0.55378228 -3.90163207
-0.14439976 -2.98966146 -1.38686359
-0.32007033 -2.76057339 1.80982471
1.04897583 -0.10930628 -2.59805822
-0.49825874 -2.33300281 2.32550025
0.64409578 -0.84871405 3.35331726
0.99749196 1.98476183 1.27158952
1.20301723 -0.08534257 -1.98356926
-0.46095389 -1.72760689 -3.07261252
-0.47795814 -2.10792685 -2.66143537
-1.33026648 0.37709570 -1.05236995
-0.97555608 0.72022736 -2.67974710
0.28805625 -2.48565030 -2.37048197
0.98354429 0.76562047 -2.63733363
-0.18750615 2.74658394 -1.98470366
-0.45891625 2.49568748 -2.12389255
-1.26316190 -0.37708101 -1.58704972
0.21380347 1.02530038 -3.70758462
0.17362109 -2.29876280 2.72306395
-0.86386698 -2.46193838 0.63089335
-0.45150065 0.64734530 3.66419101
-1.05556631 -0.73340094 -2.41403437
-0.10894675 0.77900982 3.83434224
0.40415275 -1.46715868 -3.33263016
-0.91293573 -2.41210175 -0.24818456
0.62523746 -2.38472223 -1.96696162
-1.05216813 -2.03940034 -0.60073048
0.97930461 -0.65683031 2.69325972
1.18510544 1.10831857 1.55322897
0.72993785 -2.72586346 0.21444030
0.39140600 -3.05953193 0.44939300
0.16457485 3.17943311 0.29641810
-0.80731249 -2.56039333 -0.64378333
1.02157426 1.41950250 2.03835249
-1.33768296 0.86437535 -0.14668818
-0.53235281 2.70362020 -1.50422037
0.51898187 -2.01135635 -2.71261668
0.93363774 0.22481629 -2.92458963
0.73923004 -2.58242941 -1.05304325
-0.42321953 1.84442508 -3.01251125
0.84272730 0.84315294 -2.97549343
-0.84737509 -1.87298465 2.12870598
-1.17014742 0.13794824 -2.13250184
0.44027141 2.94269991 -0.96890682
0.54220647 1.34294271 -3.25237751
-1.27115834 1.22344959 -0.53179049
-0.15801263 1.10401201 -3.69563842
1.38399041 0.27375227 0.12679000
-0.30503845 -1.33508551 -3.49955654
0.30408561 -0.73422432 3.76094985
0.15109964 -0.35924807 3.91691995
0.41898990 1.70263970 -3.14211464
-0.22904506 3.03873515 1.10124993
-0.30971587 3.11096406 -0.41899240
0.62688464 0.55333471 -3.47262430
-0.88045937 -2.11031222 -1.61953127
-0.61625814 -2.66340375 -1.34402990
0.33699155 1.41784739 -3.42471838
1.08087420 -1.18163097 2.02118468
1.24021232 1.41681576 -0.36830604
-0.02937785 -1.91048276 -3.18555975
-1.38604152 -0.14050293 0.21904251
0.65044570 2.48838663 -1.68291628
-0.99939567 0.65402746 2.63541484
1.23909497 0.51921046 -1.67624462
1.13628340 1.54166627 1.26178598
-0.59167939 -2.90447259 0.08946867
-0.14770599 -2.65537953 2.18832636
-0.86439812 2.10618520 1.69539320
-0.39573428 2.03127766 2.85503435
-0.00563917 -2.93503523 1.60824990
0.70533782 1.35329306 2.97978354
1.29475439 -1.14506304 0.27576244
-1.17780232 1.35108173 -1.28405440
-0.84708512 -1.51536942 2.52528739
0.93354601 -1.38834286 -2.38395119
0.71251160 2.58153105 -1.19218183
-0.76610857 -1.90880597 -2.32240748
0.63246137 -1.49165583 -3.01242065
0.97487444 -1.57898128 2.04426646
-0.53478664 1.56758654 3.10536504
0.05316216 3.07642627 -1.12552190
-1.26770210 0.72168535 1.35651278
1.08148897 1.96119022 -0.57330102
1.18715167 1.58814609 0.63129920
-0.90874094 -0.81075919 2.82788038
0.91278213 -0.34881327 -2.95824623
0.22989056 -3.09225392 -0.84019387
-1.24953663 0.38175786 1.67062664
-0.53591257 -1.72934330 2.96975136
0.39194423 -0.78707093 -3.67767000
-0.62958103 0.70644307 3.42513251
-0.84533209 1.27022696 -2.72837901
0.94870013 1.19811666 -2.49204612
-0.25621617 0.00650075 -3.89708424
-0.37689015 -0.39441261 -3.78603649
-1.34844232 0.62440181 -0.56582129
1.26998496 -1.06164050 0.93694651
1.29151070 -1.15783608 -0.31513321
0.59502703 -1.28735042 3.21090555
-0.07207783 -1.42747569 3.54564404
0.78027308 -1.27349913 2.87955451
-0.38522211 -2.91251016 1.25731456
-0.37508431 2.81156850 1.58740044
0.14265476 1.51579738 3.47200537
0.01140968 3.19473100 -0.38501987
-0.88552183 1.68801749 -2.23336101
0.85325098 2.53321838 -0.10423953
-0.21726532 -0.79735732 3.79141116
0.83568573 -0.40302271 3.12880659
-0.56475997 -2.32937789 -2.20252204
-0.83977383 -0.10546895 3.15742230
-1.31550491 0.98035926 0.40774009
-1.28799963 -1.02582800 -0.78073150
1.24401605 0.48768002 1.66145527
0.04284197 2.81769753 1.89702010
-0.19828592 2.98016310 -1.36159575
1.02412128 -1.85329378 1.39336920
0.42547801 -2.28141451 2.51148820
1.04207170 0.78655905 2.43662119
1.12596011 -1.34857416 -1.62207413
0.75517452 -1.13728070 -3.01798511
1.13812435 -0.90392244 -1.98410845
0.93662441 -2.37150908 0.01362427
0.79185569 0.52538973 3.19303083
-0.81060404 2.58970857 0.37246391
0.78435040 1.98681796 2.16729522
0.24412058 0.32966956 3.88264108
-0.49928850 2.29585481 2.37736392
-0.06722069 -2.26672316 -2.80174351
-0.49889839 2.98251963 -0.35638735
-0.94873172 2.31591392 0.47016174
0.81400293 0.97731256 2.97793865
-0.09829970 1.81226873 3.26136279
-0.42108667 2.22509885 -2.59424305
-1.29439557 0.85691297 -0.98070055
-0.65216082 -0.38612491 3.46906042
0.61262906 0.13302279 -3.55551147
-0.35377204 1.66860235 3.23364258
-0.39040947 -0.38725305 3.77531672
-0.59095877 -2.79028392 1.00305569
-0.22296712 2.71634817 2.01543665
-0.99020547 1.22961235 -2.33143687
-0.41826302 -0.90381825 -3.61240149
-1.37196743 0.50190711 0.12429217
-0.01428697 0.21965270 3.95539546
0.41795230 -2.75859976 -1.64356172
-1.01515973 -0.06143436 2.70695233
0.36650813 0.81022108 -3.69116044
-0.80072826 0.88436699 -3.05155492
1.30146289 -0.44604585 -1.28016651
1.29471719 -0.18844776 1.42237270
-0.93409318 -1.34148431 -2.42333865
-1.02265775 -1.01767528 2.37194633
-0.00423088 -3.12263370 0.92227244
-0.54418784 2.64499402 1.62654877
-0.29220095 -2.41240716 2.48094678
0.97962219 -0.96173054 -2.54911089
-0.02833095 -3.20919180 0.11280923
0.51095212 -0.46073359 3.64354897
0.84209502 2.15124965 1.70020592
0.33176610 1.60812974 3.29886508
0.20792796 -0.49744979 -3.87186408
0.20218386 2.54455423 -2.34875417
0.64167827 -2.66523957 1.23910439
-1.05768859 -1.61587143 1.62380409
1.18477666 -0.14234811 2.06518793
-1.20473003 -1.02272546 -1.51895833
0.12645325 -2.79215884 -1.92282307
1.26281667 0.81444162 -1.31339705
0.27666193 -1.77290618 3.20974684
-0.72321445 0.54888672 -3.31722879
1.35304499 -0.20330268 -0.87115639
-0.14870670 1.87898314 -3.18695807
0.27168632 3.14464188 -0.18762463
-0.72945952 2.61987925 -0.95785588
1.33741701 0.44033042 -0.93100351
-1.20813727 0.58906692 -1.82053924
-0.06484275 2.29356241 2.77010250
-1.23342049 -1.25869727 0.96006125
-0.66468775 1.27078557 3.10787868
0.89916474 2.36356616 0.78596526
-0.40216768 -1.33152032 3.42062187
-1.13807917 -0.48861042 2.19401646
-0.79667032 2.62355995 -0.24222611
0.51309651 0.99028540 3.47696590
-1.05032456 1.80464876 1.33024335
-1.37764132 -0.39211193 -0.20095465
-0.65821862 0.14342815 -3.48833442
-0.11050417 -1.52149630 -3.47822499
0.87461239 2.04171062 -1.77259076
-0.22244367 0.27976444 3.89856720
-1.03068972 -1.59358394 -1.78930807
-0.10021388 -3.12216258 -0.88240194
0.99179786 2.23939824 -0.25142041
0.52725840 -0.27483556 -3.65382409
0.47457394 2.50880337 -2.06973624
-1.26904297 -1.28819978 0.29886845
-0.31297851 3.12140346 0.24751462
-1.07283080 -2.03494740 0.17700145
1.35030437 0.01767799 0.93810642
-1.31054068 -0.58005279 1.10759485
0.18165319 -1.80460978 -3.23815680
0.54226089 2.95375395 -0.13894232
0.86416072 -2.21500993 1.47160268
1.11638284 -1.86416590 0.52475464
1.04544938 -1.94300282 -1.03207231
-1.33788574 -0.32588944 -0.99194032
-0.94720888 -2.20074964 -1.01330447
1.32918286 0.56096411 0.92621708
0.49608561 2.34720182 2.30623102
1.20833147 -1.07644224 1.43924344
0.78464544 -1.88290834 -2.30361247
-0.24628744 -3.07225060 0.91154522
-1.20792675 -1.54804981 -0.43203494
-0.26117146 0.53353512 -3.83892131
-0.73104155 1.62493813 -2.71020746
0.27280641 -3.02421403 1.08140743
-0.78652805 2.11595607 -1.96548927
0.23573539 -2.69369531 2.04922104
0.09324423 -3.02737761 -1.29322171
-0.03414733 -0.77734560 -3.84654951
-0.87980837 -0.76292163 -2.92167854
1.31193304 0.03878174 -1.30676925
-0.96218300 1.51338601 2.16658854
-1.36104667 -0.04700492 0.79774022
0.25829068 -1.22255754 -3.59157777
0.74943548 -2.67060328 -0.52487725
0.76163852 -1.83457077 2.42156005
1.34780347 0.77459013 -0.14950603
-0.56473362 1.08186114 -3.36781096
0.27260929 0.24870069 -3.87590957
1.16665101 -1.73242640 -0.24685480
-1.19548011 1.33310771 1.17122674
3 135 229 189
3 110 247 223
3 223 247 83
3 30 31 99
3 209 229 135
3 209 223 83
3 38 189 229
3 64 43 38
3 38 43 189
3 94 194 69
3 149 181 146
3 80 233 188
3 146 181 131
3 146 131 141
3 141 131 188
3 110 223 205
3 237 68 22
3 172 144 29
3 198 86 191
3 191 251 198
3 69 194 198
3 198 251 69
3 51 226 186
3 23 78 132
3 99 31 132
3 19 78 23
3 165 30 11
3 23 190 242
3 159 76 59
3 59 108 159
3 248 184 112
3 243 184 248
3 211 243 248
3 248 224 211
3 211 224 82
3 82 30 211
3 34 224 58
3 234 47 58
3 58 47 34
3 21 43 64
3 174 30 99
3 135 189 236
3 46 48 230
3 227 94 119
3 167 149 44
3 44 213 167
3 49 80 188
3 188 131 49
3 136 141 188
3 182 55 28
3 148 55 182
3 250 226 101
3 180 109 52
3 186 239 52
3 52 51 186
3 72 149 167
3 181 149 72
3 72 71 181
3 121 140 250
3 107 158 133
3 96 107 175
3 175 107 205
3 68 237 252
3 252 61 68
3 68 61 195
3 61 156 195
3 245 198 194
3 86 198 245
3 245 194 172
3 172 29 245
3 245 29 86
3 59 76 62
3 191 86 12
3 86 29 12
3 81 251 191
3 191 105 81
3 212 105 191
3 191 12 212
3 203 182 28
3 17 144 172
3 60 47 1
3 1 47 234
3 168 190 34
3 34 47 168
3 109 242 168
3 168 242 190
3 168 47 60
3 227 226 145
3 226 51 145
3 145 1 228
3 109 168 18
3 18 168 60
3 18 52 109
3 51 52 18
3 180 19 215
3 215 19 23
3 23 242 215
3 215 109 180
3 215 242 109
3 78 19 4
3 4 41 46
3 70 243 211
3 70 165 243
3 211 30 70
3 30 165 70
3 116 237 22
3 22 184 116
3 116 184 243
3 25 29 144
3 25 108 59
3 25 12 29
3 217 108 14
3 217 159 108
3 217 14 112
3 112 184 217
3 253 184 22
3 253 217 184
3 159 217 253
3 112 14 45
3 45 248 112
3 224 248 45
3 45 58 224
3 151 224 34
3 151 82 224
3 34 190 151
3 151 190 23
3 31 30 151
3 30 82 151
3 23 132 151
3 151 132 31
3 210 252 237
3 237 116 210
3 43 21 244
3 244 174 43
3 244 210 11
3 21 210 244
3 11 30 244
3 30 174 244
3 214 236 189
3 48 236 214
3 214 230 48
3 189 43 214
3 43 174 214
3 214 174 99
3 201 205 223
3 201 175 205
3 221 236 48
3 46 41 221
3 221 48 46
3 78 230 77
3 99 132 77
3 77 132 78
3 77 214 99
3 230 214 77
3 222 94 69
3 222 119 94
3 69 251 231
3 231 222 69
3 136 222 231
3 141 136 50
3 50 55 141
3 136 231 50
3 93 55 148
3 148 2 93
3 93 2 183
3 16 85 246
3 110 205 16
3 220 75 152
3 233 80 139
3 80 101 139
3 227 119 139
3 139 119 233
3 139 226 227
3 139 101 226
3 180 52 176
3 176 52 239
3 63 41 3
3 3 26 63
3 89 13 92
3 92 241 89
3 13 176 92
3 239 241 92
3 92 176 239
3 5 239 186
3 5 241 239
3 140 241 5
3 186 226 5
3 5 226 250
3 250 140 5
3 40 178 89
3 40 15 178
3 89 241 40
3 40 241 140
3 181 71 27
3 71 121 27
3 27 131 181
3 140 121 192
3 192 40 140
3 15 40 192
3 71 15 192
3 192 121 71
3 33 21 64
3 37 156 240
3 61 252 238
3 128 240 238
3 238 156 61
3 238 240 156
3 127 220 53
3 75 220 127
3 53 196 127
3 196 103 127
3 127 138 75
3 103 138 127
3 106 81 105
3 106 203 28
3 106 50 231
3 251 81 106
3 106 231 251
3 84 7 218
3 84 212 7
3 7 212 115
3 115 212 12
3 115 62 7
3 228 17 254
3 254 94 227
3 227 145 254
3 254 145 228
3 249 18 60
3 51 18 249
3 249 145 51
3 60 1 249
3 1 145 249
3 54 230 78
3 78 4 54
3 46 230 54
3 54 4 46
3 243 165 117
3 117 116 243
3 117 165 11
3 11 210 117
3 117 210 116
3 179 25 144
3 108 25 179
3 144 97 179
3 35 25 59
3 12 25 35
3 35 115 12
3 59 62 35
3 62 115 35
3 142 17 228
3 234 97 142
3 144 17 142
3 142 97 144
3 142 1 234
3 228 1 142
3 234 58 100
3 58 45 100
3 100 97 234
3 100 45 14
3 193 210 21
3 193 33 171
3 21 33 193
3 171 252 193
3 252 210 193
3 187 41 63
3 175 201 187
3 187 221 41
3 201 221 187
3 63 96 187
3 96 175 187
3 236 221 219
3 219 221 201
3 219 209 135
3 135 236 219
3 223 209 219
3 219 201 223
3 173 136 188
3 173 222 136
3 188 233 173
3 233 119 173
3 119 222 173
3 148 182 232
3 232 2 148
3 6 2 232
3 182 203 232
3 126 155 44
3 126 44 149
3 183 2 126
3 207 93 183
3 207 126 149
3 183 126 207
3 207 149 146
3 141 55 154
3 55 93 154
3 146 141 154
3 154 207 146
3 93 207 154
3 246 255 104
3 104 16 246
3 110 16 104
3 104 247 110
3 133 85 169
3 85 16 169
3 169 16 205
3 169 107 133
3 205 107 169
3 208 255 246
3 246 90 208
3 235 176 13
3 235 19 180
3 180 176 235
3 124 235 13
3 178 26 24
3 26 3 24
3 89 178 24
3 3 124 24
3 24 13 89
3 24 124 13
3 111 107 96
3 111 96 63
3 63 26 111
3 111 26 178
3 123 27 121
3 123 121 250
3 123 49 131
3 131 27 123
3 250 101 123
3 80 49 123
3 123 101 80
3 255 208 20
3 199 33 64
3 164 33 199
3 37 240 57
3 57 240 197
3 57 197 152
3 152 75 57
3 75 138 57
3 114 252 171
3 114 238 252
3 171 33 114
3 114 33 164
3 114 164 128
3 128 238 114
3 36 195 156
3 36 185 195
3 36 156 37
3 37 57 36
3 36 57 138
3 103 185 36
3 36 138 103
3 66 62 76
3 7 62 66
3 76 159 170
3 159 253 170
3 170 66 76
3 79 66 170
3 87 106 28
3 50 106 87
3 28 55 87
3 55 50 87
3 105 212 98
3 212 84 98
3 94 254 120
3 120 254 17
3 194 94 120
3 172 194 120
3 120 17 172
3 143 179 97
3 97 100 143
3 143 100 14
3 14 108 143
3 108 179 143
3 200 126 2
3 155 126 200
3 200 2 6
3 6 163 200
3 53 220 74
3 246 85 9
3 9 202 246
3 177 90 150
3 150 90 246
3 247 104 166
3 83 247 166
3 166 209 83
3 166 118 209
3 88 4 19
3 19 235 88
3 41 4 88
3 204 161 158
3 158 107 204
3 107 111 204
3 128 164 95
3 164 199 95
3 153 208 90
3 153 20 208
3 229 209 32
3 209 118 32
3 32 38 229
3 64 38 32
3 32 199 64
3 73 66 79
3 73 185 218
3 218 7 73
3 7 66 73
3 195 185 73
3 73 79 195
3 79 170 39
3 68 195 39
3 195 79 39
3 22 68 39
3 39 253 22
3 39 170 253
3 65 103 196
3 218 185 65
3 65 185 103
3 65 84 218
3 65 98 84
3 163 74 125
3 177 150 125
3 125 150 163
3 125 220 177
3 125 74 220
3 53 74 137
3 137 232 53
3 6 232 137
3 137 163 6
3 137 74 163
3 213 44 42
3 44 0 42
3 42 161 213
3 158 161 42
3 155 200 91
3 91 200 163
3 163 150 91
3 118 166 56
3 162 124 3
3 162 3 41
3 41 88 162
3 235 124 162
3 162 88 235
3 161 204 130
3 130 72 167
3 167 213 130
3 213 161 130
3 197 240 10
3 10 240 128
3 128 95 10
3 147 90 177
3 147 153 90
3 147 220 152
3 177 220 147
3 105 98 216
3 98 129 216
3 216 129 203
3 216 106 105
3 203 106 216
3 98 65 225
3 225 129 98
3 225 65 196
3 203 129 225
3 225 196 53
3 53 232 225
3 225 232 203
3 133 158 113
3 158 42 113
3 113 0 202
3 113 42 0
3 155 91 160
3 44 155 160
3 160 0 44
3 102 91 150
3 246 202 102
3 102 150 246
3 102 160 91
3 202 0 102
3 0 160 102
3 118 56 67
3 20 10 67
3 67 10 95
3 134 56 166
3 134 104 255
3 134 166 104
3 255 20 134
3 20 67 134
3 134 67 56
3 122 130 204
3 178 15 122
3 122 15 71
3 122 111 178
3 122 204 111
3 71 72 122
3 72 130 122
3 152 197 206
3 206 147 152
3 153 147 206
3 197 10 206
3 20 153 206
3 206 10 20
3 8 85 133
3 133 113 8
3 8 9 85
3 202 9 8
3 8 113 202
3 118 67 157
3 157 67 95
3 157 32 118
3 157 95 199
3 199 32 157