ply
format ascii 1.0
comment https://github.com/mikedh/trimesh
element vertex 256
property float x
property float y
property float z
element face 508
property list uchar int vertex_indices
end_header
-0.73120499 0.63933486 4.15386295
1.37819779 -1.22950089 -1.51823747
0.60364306 1.16913497 3.31291604
-0.84476256 -1.47521865 1.79555035
-1.04231393 -1.52784097 -0.45844212
0.66310483 -1.45428848 2.24374270
0.12114540 1.38108063 2.94730401
1.23889089 0.87926030 -3.09654808
-1.21511376 0.52663785 3.68431735
-1.38558149 0.62305373 3.24735928
-1.62409806 1.04386830 -1.33768392
-0.93090606 -0.37503931 -4.19672108
1.77689517 0.45504603 -2.40402722
-0.29861903 -1.61116838 1.78899145
0.87040293 -0.48522839 -4.17635679
0.15742658 -0.94667393 4.01938772
-1.78442860 0.25190645 2.59194040
1.90339351 -0.65214282 -1.35917234
0.89801437 -1.56235123 -0.89524651
-0.57782924 -1.68872285 -0.28357235
-1.74693608 1.01976573 0.33192396
-1.49580467 -0.09903789 -3.43354726
-0.09351550 0.30297640 -4.71324921
-0.22366212 -1.63565516 -1.67535877
-0.49575984 -1.51032019 2.18630409
1.62476838 -0.05980188 -3.13850594
-0.77175754 -1.27639472 2.80925035
0.99764585 -0.46433470 4.05087376
1.54502451 1.08587074 1.53610539
1.86336434 -0.04669125 -2.39619112
-0.71397567 -0.94518036 -3.71177697
-0.74031377 -1.15325475 -3.21506691
-2.06046200 0.20631050 -1.27128386
-1.51104784 0.39403915 -3.23718786
0.44617298 -1.35990882 -2.86358929
1.52342081 0.41887385 -3.18595147
-0.29043001 1.50266659 -2.39756155
-0.71081960 1.36540020 -2.56570435
-1.95652306 -0.20630246 -1.91718769
0.33116215 0.56094575 -4.47883558
0.26892331 -1.25766182 3.28951526
-1.33805144 -1.34693587 0.76213169
-0.69933349 0.35416508 4.42641544
-1.63497627 -0.40124646 -2.91620159
-0.16874862 0.42619923 4.63196182
0.62599587 -0.80268812 -4.02588367
-1.41405451 -1.31967008 -0.29981190
0.96843606 -1.30469060 -2.37612867
-1.62971282 -1.11576366 -0.72569430
1.51685381 -0.35935435 3.25351119
1.83562076 0.60636532 1.87633157
1.13060737 -1.49133027 0.25904816
0.60625237 -1.67388153 0.54287571
0.25491148 1.73948002 0.35807896
-1.25045371 -1.40080082 -0.77770311
1.58232570 0.77661520 2.46237040
-2.07194948 0.47290304 -0.17720222
-0.82456613 1.47916079 -1.81712806
0.80385578 -1.10042071 -3.27689481
1.44612002 0.12299785 -3.53296256
1.14500022 -1.41285694 -1.27209711
-0.65552860 1.00909197 -3.63917351
1.30530810 0.46129218 -3.59445524
-1.31250715 -1.02471709 2.57151914
-1.81245208 0.07547200 -2.57610464
0.68194044 1.60996234 -1.17045867
0.83982855 0.73472905 -3.92893672
-1.96890879 0.66935390 -0.64241344
-0.24474721 0.60400915 -4.46440458
2.14367557 0.14977090 0.15316485
-0.47247687 -0.73043036 -4.22753382
0.47100097 -0.40169692 4.54330206
0.23403962 -0.19654599 4.73171711
0.64897734 0.93152064 -3.79573703
-0.35477000 1.66250360 1.33033180
-0.47972175 1.70202029 -0.50615114
0.97098738 0.30273154 -4.19499922
-1.36375153 -1.15455985 -1.95642591
-0.95452785 -1.45715833 -1.62361491
0.52196932 0.77570969 -4.13712788
1.67417598 -0.64647478 2.44163132
1.92097628 0.77514529 -0.44492102
-0.04550363 -1.04523242 -3.84821939
-2.14685249 -0.07686968 0.26460770
1.00748122 1.36140585 -2.03299642
-1.54797316 0.35782093 3.18363357
1.91924560 0.28406200 -2.02493668
1.75999987 0.84345150 1.52426255
-0.91645765 -1.58904803 0.10807993
-0.22878316 -1.45276821 2.64354181
-1.33887422 1.15230203 2.04806876
-0.61295646 1.11131966 3.44893813
-0.00873457 -1.60576904 1.94279790
1.09250426 0.74039179 3.59963775
2.00545692 -0.62646836 0.33312649
-1.82430887 0.73918194 -1.55116320
-1.31205797 -0.82906437 3.05059743
1.44597805 -0.75956762 -2.87986040
1.10361576 1.41236544 -1.44017947
-1.18663263 -1.04431498 -2.80551434
0.97962523 -0.81609052 -3.63906407
1.50999200 -0.86386669 2.46951437
-0.82833600 0.85763258 3.75134254
0.08234336 1.68312454 -1.35965288
-1.96355546 0.39483678 1.63869441
1.67512822 1.07297468 -0.69255900
1.83879006 0.86888075 0.76262200
-1.40755713 -0.44356945 3.41613555
1.41381657 -0.19083707 -3.57362032
0.35607958 -1.69178391 -1.01497090
-1.93541884 0.20886117 2.01815009
-0.83007985 -0.94613034 3.58751869
0.60708600 -0.43060949 -4.44269848
-0.97516382 0.38649771 4.13762808
-1.30934262 0.69494599 -3.29593611
1.46945035 0.65549421 -3.01044106
-0.39685559 0.00355658 -4.70775509
-0.58376861 -0.21578464 -4.57360697
-2.08861470 0.34161261 -0.68352336
1.96709132 -0.58082753 1.13185000
2.00043273 -0.63345653 -0.38068718
0.92164284 -0.70431429 3.87883782
-0.11164202 -0.78097737 4.28320837
1.20857215 -0.69673622 3.47855926
-0.59667408 -1.59344530 1.51886094
-0.58097154 1.53821981 1.91761124
0.22095926 0.82929850 4.19425154
0.01767256 1.74784958 -0.46511167
-1.37159288 0.92352080 -2.69794440
1.32160830 1.38593340 -0.12592342
-0.33652425 -0.43623722 4.58010006
1.29440129 -0.22049525 3.77966046
-0.87476194 -1.27441144 -2.66069055
-1.30073345 -0.05770246 3.81422877
-2.03759766 0.53635830 0.49255812
-1.99499452 -0.56123441 -0.94313920
1.92686784 0.26681158 2.00707102
0.06635832 1.54157305 2.29163814
-0.30712688 1.63045859 -1.64483464
1.58627093 -1.01394415 1.68321776
0.65902680 -1.24817061 3.03392768
1.61407435 0.43032944 2.94348669
1.74400985 -0.73781008 -1.95949781
1.16969681 -0.62221062 -3.64578581
1.76285124 -0.49453938 -2.39684248
1.45074618 -1.29746163 0.01645838
1.22651255 0.28744274 3.85724473
-1.25555205 1.41683936 0.44994381
1.21488750 1.08699560 2.61813569
0.37812060 0.18036346 4.69030762
-0.77335250 1.25607097 2.87190294
-0.10411874 -1.24013281 -3.38456178
-0.77274829 1.63174784 -0.43052298
-1.46949923 1.26704526 0.56796473
1.26081657 0.53469145 3.59740901
-0.15225732 0.99149907 3.93979120
-0.65222502 1.21736014 -3.13389730
-2.00490117 0.46882036 -1.18470573
-1.01013792 -0.21125041 4.19069386
0.94890678 0.07277727 -4.29512835
-0.54796076 0.91289866 3.90630436
-0.60470879 -0.21186760 4.56065750
-0.91534144 -1.52657485 1.21171129
-0.34535581 1.48612452 2.43468738
-1.53373837 0.67272562 -2.81642222
-0.64785141 -0.49448243 -4.36385250
-2.12505293 0.27459529 0.15014741
-0.02212922 0.12017282 4.77819633
0.64737016 -1.50924051 -1.98545527
-1.57239020 -0.03361097 3.27005219
0.56768781 0.44327503 -4.45899534
-1.24025536 0.48384055 -3.68633914
2.01584768 -0.24403337 -1.54646659
2.00539923 -0.10310049 1.71825457
-1.44682550 -0.73393118 -2.92744136
-1.58400393 -0.55677402 2.86535835
-0.00655325 -1.70840478 1.11412346
-0.84289759 1.44708622 1.96490324
-0.45259273 -1.31983709 2.99703312
1.51734579 -0.52616644 -3.07937670
-0.04388206 -1.75576115 0.13627580
0.79141843 -0.25206912 4.40147972
1.30432868 1.17695677 2.05388260
0.51387554 0.87981391 3.98509455
0.32206151 -0.27215669 -4.67728853
0.31316441 1.39213526 -2.83734155
0.99390137 -1.45816267 1.49686277
-1.63826358 -0.88404936 1.96158755
1.83511138 -0.07787920 2.49478793
-1.86601746 -0.55953699 -1.83493185
0.19586459 -1.52760065 -2.32280850
1.95598829 0.44558412 -1.58660972
0.42852420 -0.96996373 3.87743807
-1.12019348 0.30029801 -4.00727797
2.09574389 -0.11122767 -1.05237424
-0.23033318 1.02799881 -3.84990883
0.42081740 1.72044563 -0.22665429
-1.12986648 1.43334591 -1.15710890
2.07153749 0.24090645 -1.12467074
-1.87129486 0.32228076 -2.19924760
-0.10043553 1.25481677 3.34633875
-1.91045642 -0.68863803 1.15977311
-1.02954102 0.69525164 3.75437927
1.39272451 1.29311609 0.94946164
-0.62292123 -0.72847980 4.13217926
-1.76278138 -0.26732060 2.65041542
-1.23396993 1.43535960 -0.29261395
0.79473990 0.54178888 4.20024395
-1.62685740 0.98733020 1.60696042
-2.13384128 -0.21452592 -0.24275720
-1.01952088 0.07847008 -4.21397734
-0.17116094 -0.83241642 -4.20176458
1.35469520 1.11702764 -2.14132476
-0.34454504 0.15306020 4.70954704
-1.59644473 -0.87185585 -2.16151977
-0.15522219 -1.70814705 -1.06595910
1.53620481 1.22518325 -0.30372086
0.81667536 -0.15036358 -4.41389227
0.73507196 1.37257576 -2.50028253
-1.96563232 -0.70477897 0.36103904
-0.48477527 1.70773172 0.29900259
-1.66171741 -1.11332750 0.21382126
2.09149885 0.00967169 1.13325119
-2.02990842 -0.31734908 1.33799660
0.28136426 -0.98730886 -3.91175771
0.83991283 1.61600995 -0.16784507
1.33850646 -1.21184039 1.77772534
1.72917569 -1.01989222 0.63391405
1.61930609 -1.06302428 -1.24676383
-2.07226348 -0.17829534 -1.19828367
-1.46714056 -1.20403850 -1.22409201
2.05878353 0.30690560 1.11888862
0.76839155 1.28416300 2.78597283
1.87159574 -0.58892566 1.73863471
1.21534455 -1.03014636 -2.78280950
-0.38147688 -1.68083990 1.10116470
-1.87096882 -0.84694397 -0.52190679
-0.40453085 0.29189911 -4.63749313
-1.13231695 0.88900983 -3.27398443
0.42255232 -1.65455902 1.30636168
-1.21826053 1.15764761 -2.37435007
0.36513269 -1.47373092 2.47549987
0.14442684 -1.65628982 -1.56223762
-0.05289111 -0.42528874 -4.64670801
-1.36274326 -0.41739735 -3.52944565
2.03206515 0.02121764 -1.57860327
-1.49033403 0.82797921 2.61728191
-2.10813761 -0.02571657 0.96368605
0.40006882 -0.66886592 -4.33869743
1.16080749 -1.46109724 -0.63406217
1.17970884 -1.00370061 2.92529249
2.08762503 0.42378122 -0.18060626
-0.87472105 0.59189034 -4.06838226
0.42224702 0.13606510 -4.68217564
1.80703640 -0.94781703 -0.29820549
-1.85169017 0.72934830 1.41486514
3 135 229 189
3 110 247 223
3 223 247 83
3 30 31 99
3 209 229 135
3 209 223 83
3 38 189 229
3 64 43 38
3 38 43 189
3 94 194 69
3 149 181 146
3 80 233 188
3 146 181 131
3 146 131 141
3 141 131 188
3 110 223 205
3 237 68 22
3 172 144 29
3 198 86 191
3 191 251 198
3 69 194 198
3 198 251 69
3 51 226 186
3 23 78 132
3 99 31 132
3 19 78 23
3 165 30 11
3 23 190 242
3 159 76 59
3 59 108 159
3 248 184 112
3 243 184 248
3 211 243 248
3 248 224 211
3 211 224 82
3 82 30 211
3 34 224 58
3 234 47 58
3 58 47 34
3 21 43 64
3 174 30 99
3 135 189 236
3 46 48 230
3 227 94 119
3 167 149 44
3 44 213 167
3 49 80 188
3 188 131 49
3 136 141 188
3 182 55 28
3 148 55 182
3 250 226 101
3 180 109 52
3 186 239 52
3 52 51 186
3 72 149 167
3 181 149 72
3 72 71 181
3 121 140 250
3 107 158 133
3 96 107 175
3 175 107 205
3 68 237 252
3 252 61 68
3 68 61 195
3 61 156 195
3 245 198 194
3 86 198 245
3 245 194 172
3 172 29 245
3 245 29 86
3 59 76 62
3 191 86 12
3 86 29 12
3 81 251 191
3 191 105 81
3 212 105 191
3 191 12 212
3 203 182 28
3 17 144 172
3 60 47 1
3 1 47 234
3 168 190 34
3 34 47 168
3 109 242 168
3 168 242 190
3 168 47 60
3 227 226 145
3 226 51 145
3 145 1 228
3 109 168 18
3 18 168 60
3 18 52 109
3 51 52 18
3 180 19 215
3 215 19 23
3 23 242 215
3 215 109 180
3 215 242 109
3 78 19 4
3 4 41 46
3 70 243 211
3 70 165 243
3 211 30 70
3 30 165 70
3 116 237 22
3 22 184 116
3 116 184 243
3 25 29 144
3 25 108 59
3 25 12 29
3 217 108 14
3 217 159 108
3 217 14 112
3 112 184 217
3 253 184 22
3 253 217 184
3 159 217 253
3 112 14 45
3 45 248 112
3 224 248 45
3 45 58 224
3 151 224 34
3 151 82 224
3 34 190 151
3 151 190 23
3 31 30 151
3 30 82 151
3 23 132 151
3 151 132 31
3 210 252 237
3 237 116 210
3 43 21 244
3 244 174 43
3 244 210 11
3 21 210 244
3 11 30 244
3 30 174 244
3 214 236 189
3 48 236 214
3 214 230 48
3 189 43 214
3 43 174 214
3 214 174 99
3 201 205 223
3 201 175 205
3 221 236 48
3 46 41 221
3 221 48 46
3 78 230 77
3 99 132 77
3 77 132 78
3 77 214 99
3 230 214 77
3 222 94 69
3 222 119 94
3 69 251 231
3 231 222 69
3 136 222 231
3 141 136 50
3 50 55 141
3 136 231 50
3 93 55 148
3 148 2 93
3 93 2 183
3 16 85 246
3 110 205 16
3 220 75 152
3 233 80 139
3 80 101 139
3 227 119 139
3 139 119 233
3 139 226 227
3 139 101 226
3 180 52 176
3 176 52 239
3 63 41 3
3 3 26 63
3 89 13 92
3 92 241 89
3 13 176 92
3 239 241 92
3 92 176 239
3 5 239 186
3 5 241 239
3 140 241 5
3 186 226 5
3 5 226 250
3 250 140 5
3 40 178 89
3 40 15 178
3 89 241 40
3 40 241 140
3 181 71 27
3 71 121 27
3 27 131 181
3 140 121 192
3 192 40 140
3 15 40 192
3 71 15 192
3 192 121 71
3 33 21 64
3 37 156 240
3 61 252 238
3 128 240 238
3 238 156 61
3 238 240 156
3 127 220 53
3 75 220 127
3 53 196 127
3 196 103 127
3 127 138 75
3 103 138 127
3 106 81 105
3 106 203 28
3 106 50 231
3 251 81 106
3 106 231 251
3 84 7 218
3 84 212 7
3 7 212 115
3 115 212 12
3 115 62 7
3 228 17 254
3 254 94 227
3 227 145 254
3 254 145 228
3 249 18 60
3 51 18 249
3 249 145 51
3 60 1 249
3 1 145 249
3 54 230 78
3 78 4 54
3 46 230 54
3 54 4 46
3 243 165 117
3 117 116 243
3 117 165 11
3 11 210 117
3 117 210 116
3 179 25 144
3 108 25 179
3 144 97 179
3 35 25 59
3 12 25 35
3 35 115 12
3 59 62 35
3 62 115 35
3 142 17 228
3 234 97 142
3 144 17 142
3 142 97 144
3 142 1 234
3 228 1 142
3 234 58 100
3 58 45 100
3 100 97 234
3 100 45 14
3 193 210 21
3 193 33 171
3 21 33 193
3 171 252 193
3 252 210 193
3 187 41 63
3 175 201 187
3 187 221 41
3 201 221 187
3 63 96 187
3 96 175 187
3 236 221 219
3 219 221 201
3 219 209 135
3 135 236 219
3 223 209 219
3 219 201 223
3 173 136 188
3 173 222 136
3 188 233 173
3 233 119 173
3 119 222 173
3 148 182 232
3 232 2 148
3 6 2 232
3 182 203 232
3 126 155 44
3 126 44 149
3 183 2 126
3 207 93 183
3 207 126 149
3 183 126 207
3 207 149 146
3 141 55 154
3 55 93 154
3 146 141 154
3 154 207 146
3 93 207 154
3 246 255 104
3 104 16 246
3 110 16 104
3 104 247 110
3 133 85 169
3 85 16 169
3 169 16 205
3 169 107 133
3 205 107 169
3 208 255 246
3 246 90 208
3 235 176 13
3 235 19 180
3 180 176 235
3 124 235 13
3 178 26 24
3 26 3 24
3 89 178 24
3 3 124 24
3 24 13 89
3 24 124 13
3 111 107 96
3 111 96 63
3 63 26 111
3 111 26 178
3 123 27 121
3 123 121 250
3 123 49 131
3 131 27 123
3 250 101 123
3 80 49 123
3 123 101 80
3 255 208 20
3 199 33 64
3 164 33 199
3 37 240 57
3 57 240 197
3 57 197 152
3 152 75 57
3 75 138 57
3 114 252 171
3 114 238 252
3 171 33 114
3 114 33 164
3 114 164 128
3 128 238 114
3 36 195 156
3 36 185 195
3 36 156 37
3 37 57 36
3 36 57 138
3 103 185 36
3 36 138 103
3 66 62 76
3 7 62 66
3 76 159 170
3 159 253 170
3 170 66 76
3 79 66 170
3 87 106 28
3 50 106 87
3 28 55 87
3 55 50 87
3 105 212 98
3 212 84 98
3 94 254 120
3 120 254 17
3 194 94 120
3 172 194 120
3 120 17 172
3 143 179 97
3 97 100 143
3 143 100 14
3 14 108 143
3 108 179 143
3 200 126 2
3 155 126 200
3 200 2 6
3 6 163 200
3 53 220 74
3 246 85 9
3 9 202 246
3 177 90 150
3 150 90 246
3 247 104 166
3 83 247 166
3 166 209 83
3 166 118 209
3 88 4 19
3 19 235 88
3 41 4 88
3 204 161 158
3 158 107 204
3 107 111 204
3 128 164 95
3 164 199 95
3 153 208 90
3 153 20 208
3 229 209 32
3 209 118 32
3 32 38 229
3 64 38 32
3 32 199 64
3 73 66 79
3 73 185 218
3 218 7 73
3 7 66 73
3 195 185 73
3 73 79 195
3 79 170 39
3 68 195 39
3 195 79 39
3 22 68 39
3 39 253 22
3 39 170 253
3 65 103 196
3 218 185 65
3 65 185 103
3 65 84 218
3 65 98 84
3 163 74 125
3 177 150 125
3 125 150 163
3 125 220 177
3 125 74 220
3 53 74 137
3 137 232 53
3 6 232 137
3 137 163 6
3 137 74 163
3 213 44 42
3 44 0 42
3 42 161 213
3 158 161 42
3 155 200 91
3 91 200 163
3 163 150 91
3 118 166 56
3 162 124 3
3 162 3 41
3 41 88 162
3 235 124 162
3 162 88 235
3 161 204 130
3 130 72 167
3 167 213 130
3 213 161 130
3 197 240 10
3 10 240 128
3 128 95 10
3 147 90 177
3 147 153 90
3 147 220 152
3 177 220 147
3 105 98 216
3 98 129 216
3 216 129 203
3 216 106 105
3 203 106 216
3 98 65 225
3 225 129 98
3 225 65 196
3 203 129 225
3 225 196 53
3 53 232 225
3 225 232 203
3 133 158 113
3 158 42 113
3 113 0 202
3 113 42 0
3 155 91 160
3 44 155 160
3 160 0 44
3 102 91 150
3 246 202 102
3 102 150 246
3 102 160 91
3 202 0 102
3 0 160 102
3 118 56 67
3 20 10 67
3 67 10 95
3 134 56 166
3 134 104 255
3 134 166 104
3 255 20 134
3 20 67 134
3 134 67 56
3 122 130 204
3 178 15 122
3 122 15 71
3 122 111 178
3 122 204 111
3 71 72 122
3 72 130 122
3 152 197 206
3 206 147 152
3 153 147 206
3 197 10 206
3 20 153 206
3 206 10 20
3 8 85 133
3 133 113 8
3 8 9 85
3 202 9 8
3 8 113 202
3 118 67 157
3 157 67 95
3 157 32 118
3 157 95 199
3 199 32 157