ply
format ascii 1.0
comment https://github.com/mikedh/trimesh
element vertex 256
property float x
property float y
property float z
element face 508
property list uchar int vertex_indices
end_header
-0.74850070 1.01729703 3.90621090
1.41079724 -1.95635748 -1.42772067
0.61792147 1.86030447 3.11540103
-0.86474437 -2.34733868 1.68850017
-1.06696856 -2.43107033 -0.43110994
0.67878973 -2.31403518 2.10997152
0.12401094 2.19754815 2.77158666
1.26819527 1.39906156 -2.91193295
-1.24385571 0.83797574 3.46465945
-1.41835570 0.99139071 3.05375266
-1.66251397 1.66098249 -1.25793159
-0.95292544 -0.59675515 -3.94651389
1.81892538 0.72406024 -2.26069999
-0.30568248 -2.56365919 1.68233228
0.89099115 -0.77208579 -3.92736363
0.16115031 -1.50632882 3.77975297
-1.82663703 0.40082854 2.43740964
1.94841576 -1.03767669 -1.27813888
0.91925573 -2.48598218 -0.84187222
-0.59149700 -2.68706250 -0.26666585
-1.78825760 1.62263107 0.31213474
-1.53118598 -0.15758713 -3.22884035
-0.09572749 0.48209006 -4.43224669
-0.22895256 -2.60262227 -1.57547438
-0.50748640 -2.40319157 2.05595732
1.66320014 -0.09515557 -2.95138931
-0.79001248 -2.03097415 2.64176369
1.02124393 -0.73884016 3.80936193
1.58157003 1.72781599 1.44452322
1.90743995 -0.07429419 -2.25333095
-0.73086387 -1.50395226 -3.49048209
-0.75782496 -1.83503616 -3.02338552
-2.10919952 0.32827717 -1.19549036
-1.54678965 0.62698728 -3.04418778
0.45672664 -2.16385984 -2.69286299
1.55945528 0.66650379 -2.99600601
-0.29729977 2.39101338 -2.25461960
-0.72763312 2.17259765 -2.41273785
-2.00280213 -0.32826439 -1.80288553
0.33899537 0.89256579 -4.21180916
0.27528432 -2.00116658 3.09339547
-1.36970139 -2.14321780 0.71669364
-0.71587533 0.56354046 4.16251421
-1.67364955 -0.63845539 -2.74233866
-0.17274015 0.67815977 4.35580540
0.64080304 -1.27722144 -3.78586173
-1.44750226 -2.09983277 -0.28193721
0.99134320 -2.07599783 -2.23446465
-1.66826165 -1.77538109 -0.68242866
1.55273306 -0.57179755 3.05953789
1.87904000 0.96483648 1.76446521
1.15735054 -2.37297511 0.24360378
0.62059247 -2.66344714 0.51050961
0.26094109 2.76782608 0.33673039
-1.28003156 -2.22892666 -0.73133665
1.61975360 1.23573470 2.31556463
-2.12095881 0.75247395 -0.16663748
-0.84407020 2.35361147 -1.70879149
0.82286996 -1.75096774 -3.08152747
1.48032618 0.19571175 -3.32232833
1.17208374 -2.24810982 -1.19625509
-0.67103428 1.60564721 -3.42220712
1.33618343 0.73399895 -3.38015485
-1.34355283 -1.63050950 2.41820598
-1.85532331 0.12008956 -2.42251825
0.69807088 2.56174016 -1.10067630
0.85969365 1.16908634 -3.69469476
-2.01548076 1.06506264 -0.60411298
-0.25053638 0.96108741 -4.19823837
2.19438148 0.23831250 0.14403321
-0.48365271 -1.16224635 -3.97548962
0.48214191 -0.63917220 4.27243185
0.23957552 -0.31274009 4.44961357
0.66432804 1.48221719 -3.56943631
-0.36316165 2.64534283 1.25101781
-0.49106896 2.70822096 -0.47597456
0.99395484 0.48170042 -3.94489455
-1.39600933 -1.83711278 -1.83978450
-0.97710598 -2.31860137 -1.52681553
0.53431582 1.23429394 -3.89047360
1.71377635 -1.02865791 2.29606199
1.96641445 1.23339581 -0.41839498
-0.04657996 -1.66315305 -3.61878967
-2.19763350 -0.12231352 0.24883188
1.03131199 2.16624212 -1.91178966
-1.58458853 0.56935757 2.99382639
1.96464288 0.45199385 -1.90421069
1.80163038 1.34208333 1.43338645
-0.93813527 -2.52846169 0.10163623
-0.23419474 -2.31161594 2.48593473
-1.37054360 1.83352005 1.92596352
-0.62745512 1.76830983 3.24331355
-0.00894118 -2.55506778 1.82696891
1.11834598 1.17809677 3.38502860
2.05289340 -0.99682403 0.31326559
-1.86746061 1.17617166 -1.45868337
-1.34309292 -1.31919086 2.86872172
1.48018074 -1.20860898 -2.70816422
1.12972045 2.24732804 -1.35431635
-1.21470094 -1.66169333 -2.63825059
1.00279701 -1.29854715 -3.42210412
1.54570889 -1.37456763 2.32228279
-0.84792918 1.36464798 3.52768874
0.08429109 2.67815447 -1.27859080
-2.01000071 0.62825650 1.54099596
1.71475124 1.70729601 -0.65126884
1.88228428 1.38254583 0.71715474
-1.44085109 -0.70579892 3.21246672
1.44725859 -0.30365616 -3.36056209
0.36450219 -2.69193292 -0.95445865
-1.98119867 0.33233577 1.89782870
-0.84971434 -1.50546384 3.37363195
0.62144589 -0.68517727 -4.17782640
-0.99823010 0.61498749 3.89094424
-1.34031343 1.10578430 -3.09943342
1.50420833 1.04300940 -2.83095956
-0.40624270 0.00565916 -4.42708015
-0.59757692 -0.34335223 -4.30093002
-2.13801813 0.54356724 -0.64277196
2.01362038 -0.92420125 1.06436944
2.04775047 -1.00794339 -0.35799074
0.94344312 -1.12069094 3.64758277
-0.11428276 -1.24267578 4.02784491
1.23715937 -1.10863292 3.27116847
-0.61078763 -2.53545856 1.42830694
-0.59471369 2.44758487 1.80328393
0.22618577 1.31956339 3.94419169
0.01809059 2.78114367 -0.43738186
-1.40403616 1.46948802 -2.53709388
1.35286927 2.20526981 -0.11841591
-0.34448430 -0.69413203 4.30703592
1.32501876 -0.35084769 3.55431843
-0.89545333 -2.02781844 -2.50206089
-1.33150065 -0.09181502 3.58682561
-2.08579445 0.85344267 0.46319196
-2.04218364 -0.89302510 -0.88690954
1.97244537 0.42454532 1.88741004
0.06792794 2.45292044 2.15501142
-0.31439158 2.59435344 -1.54677010
1.62379217 -1.61336780 1.58286488
0.67461526 -1.98606431 2.85304594
1.65225327 0.68473166 2.76799703
1.78526223 -1.17398882 -1.84267318
1.19736445 -0.99004918 -3.42842531
1.80454922 -0.78690130 -2.25394344
1.48506165 -2.06449533 0.01547714
1.25552404 0.45737317 3.62727690
-1.28525043 2.25444674 0.42311829
1.24362409 1.72960591 2.46204329
0.38706458 0.28699076 4.41067314
-0.79164517 1.99863517 2.70068097
-0.10658154 -1.97327483 -3.18277526
-0.79102665 2.59640479 -0.40485534
-1.50425839 2.01609731 0.53410286
1.29063964 0.85079038 3.38293266
-0.15585877 1.57765377 3.70490217
-0.66765255 1.93703926 -2.94705534
-2.05232453 0.74597764 -1.11407399
-1.03403139 -0.33613747 3.94084597
0.97135192 0.11580175 -4.03905439
-0.56092209 1.45258629 3.67341185
-0.61901242 -0.33711955 4.28875256
-0.93699270 -2.42905569 1.13946939
-0.35352477 2.36469173 2.28953218
-1.57001698 1.07042766 -2.64850783
-0.66317552 -0.78681064 -4.10368109
-2.17531824 0.43693060 0.14119567
-0.02265266 0.19121662 4.49332190
0.66268283 -2.40147352 -1.86708307
-1.60958314 -0.05348111 3.07509279
0.58111572 0.70533049 -4.19315147
-1.26959205 0.76987749 -3.46656060
2.06352997 -0.38830107 -1.45426679
2.05283451 -0.16405144 1.61581278
-1.48104835 -1.16781676 -2.75290823
-1.62147152 -0.88592786 2.69452667
-0.00670826 -2.71837974 1.04769969
-0.86283523 2.30257487 1.84775639
-0.46329826 -2.10009861 2.81835103
1.55323660 -0.83722562 -2.89578509
-0.04492003 -2.79373240 0.12815107
0.81013840 -0.40108737 4.13906479
1.33518088 1.87275040 1.93143082
0.52603060 1.39994240 3.74750447
0.32967946 -0.43305030 -4.39843035
0.32057193 2.21513796 -2.66818023
1.01741087 -2.32019973 1.40762031
-1.67701459 -1.40668190 1.84463835
1.87851858 -0.12391983 2.34604955
-1.91015565 -0.89032418 -1.72553372
0.20049752 -2.43068790 -2.18432331
2.00225472 0.70900464 -1.49201655
0.43866041 -1.54338706 3.64626646
-1.14669025 0.47782823 -3.76836538
2.14531589 -0.17698327 -0.98963201
-0.23578142 1.63573134 -3.62037826
0.43077132 2.73753905 -0.21314123
-1.15659213 2.28071165 -1.08812249
2.12053704 0.38332558 -1.05761826
-1.91555798 0.51280677 -2.06812930
-0.10281120 1.99663949 3.14683104
-1.95564580 -1.09574723 1.09062779
-1.05389345 1.10627067 3.53054428
1.42566764 2.05758071 0.89285505
-0.63765562 -1.15914261 3.88581991
-1.80447769 -0.42535529 2.49239850
-1.26315796 2.28391576 -0.27516842
0.81353843 0.86208373 3.94982672
-1.66533864 1.57102025 1.51115394
-2.18431449 -0.34134939 -0.22828409
-1.04363632 0.12486004 -3.96274114
-0.17520952 -1.32452452 -3.95125699
1.38673878 1.77739239 -2.01365972
-0.35269481 0.24354635 4.42876530
-1.63420653 -1.38727975 -2.03265071
-0.15889378 -2.71796966 -1.00240695
1.57254183 1.94948733 -0.28561312
0.83599281 -0.23925555 -4.15073729
0.75245911 2.18401551 -2.35121655
-2.01212692 -1.12143040 0.33951399
-0.49624199 2.71730900 0.28117615
-1.70102322 -1.77150464 0.20107330
2.14097071 0.01538941 1.06568718
-2.07792330 -0.50495958 1.25822568
0.28801960 -1.57098627 -3.67853999
0.85977989 2.57136321 -0.15783820
1.37016714 -1.92825639 1.67173791
1.77007711 -1.62283230 0.59612030
1.65760875 -1.69146311 -1.17243218
-2.12128019 -0.28370002 -1.12684238
-1.50184381 -1.91584218 -1.15111196
2.10748148 0.48834211 1.05218089
0.78656685 2.04333472 2.61987400
1.91586590 -0.93708688 1.63497782
1.24409199 -1.63914835 -2.61689925
-0.39050022 -2.67451930 1.03551364
-1.91522419 -1.34764040 -0.49079087
-0.41409951 0.46446407 -4.36100769
-1.15910053 1.41457486 -3.07879043
0.43254727 -2.63270164 1.22847676
-1.24707699 1.84202600 -2.23279214
0.37376943 -2.34497142 2.32791138
0.14784308 -2.63545561 -1.46909750
-0.05414218 -0.67671102 -4.36967278
-1.39497721 -0.66415441 -3.31902122
2.08013105 0.03376109 -1.48448741
-1.52558601 1.31746411 2.46124029
-2.15800285 -0.04091970 0.90623140
0.40953192 -1.06428611 -4.08002567
1.18826485 -2.32486892 -0.59625959
1.20761335 -1.59706855 2.75088763
2.13700533 0.67431229 -0.16983858
-0.89541149 0.94180423 -3.82582664
0.43223473 0.21650408 -4.40302610
1.84977961 -1.50814772 -0.28042656
-1.89548957 1.16052461 1.33051133
3 135 229 189
3 110 247 223
3 223 247 83
3 30 31 99
3 209 229 135
3 209 223 83
3 38 189 229
3 64 43 38
3 38 43 189
3 94 194 69
3 149 181 146
3 80 233 188
3 146 181 131
3 146 131 141
3 141 131 188
3 110 223 205
3 237 68 22
3 172 144 29
3 198 86 191
3 191 251 198
3 69 194 198
3 198 251 69
3 51 226 186
3 23 78 132
3 99 31 132
3 19 78 23
3 165 30 11
3 23 190 242
3 159 76 59
3 59 108 159
3 248 184 112
3 243 184 248
3 211 243 248
3 248 224 211
3 211 224 82
3 82 30 211
3 34 224 58
3 234 47 58
3 58 47 34
3 21 43 64
3 174 30 99
3 135 189 236
3 46 48 230
3 227 94 119
3 167 149 44
3 44 213 167
3 49 80 188
3 188 131 49
3 136 141 188
3 182 55 28
3 148 55 182
3 250 226 101
3 180 109 52
3 186 239 52
3 52 51 186
3 72 149 167
3 181 149 72
3 72 71 181
3 121 140 250
3 107 158 133
3 96 107 175
3 175 107 205
3 68 237 252
3 252 61 68
3 68 61 195
3 61 156 195
3 245 198 194
3 86 198 245
3 245 194 172
3 172 29 245
3 245 29 86
3 59 76 62
3 191 86 12
3 86 29 12
3 81 251 191
3 191 105 81
3 212 105 191
3 191 12 212
3 203 182 28
3 17 144 172
3 60 47 1
3 1 47 234
3 168 190 34
3 34 47 168
3 109 242 168
3 168 242 190
3 168 47 60
3 227 226 145
3 226 51 145
3 145 1 228
3 109 168 18
3 18 168 60
3 18 52 109
3 51 52 18
3 180 19 215
3 215 19 23
3 23 242 215
3 215 109 180
3 215 242 109
3 78 19 4
3 4 41 46
3 70 243 211
3 70 165 243
3 211 30 70
3 30 165 70
3 116 237 22
3 22 184 116
3 116 184 243
3 25 29 144
3 25 108 59
3 25 12 29
3 217 108 14
3 217 159 108
3 217 14 112
3 112 184 217
3 253 184 22
3 253 217 184
3 159 217 253
3 112 14 45
3 45 248 112
3 224 248 45
3 45 58 224
3 151 224 34
3 151 82 224
3 34 190 151
3 151 190 23
3 31 30 151
3 30 82 151
3 23 132 151
3 151 132 31
3 210 252 237
3 237 116 210
3 43 21 244
3 244 174 43
3 244 210 11
3 21 210 244
3 11 30 244
3 30 174 244
3 214 236 189
3 48 236 214
3 214 230 48
3 189 43 214
3 43 174 214
3 214 174 99
3 201 205 223
3 201 175 205
3 221 236 48
3 46 41 221
3 221 48 46
3 78 230 77
3 99 132 77
3 77 132 78
3 77 214 99
3 230 214 77
3 222 94 69
3 222 119 94
3 69 251 231
3 231 222 69
3 136 222 231
3 141 136 50
3 50 55 141
3 136 231 50
3 93 55 148
3 148 2 93
3 93 2 183
3 16 85 246
3 110 205 16
3 220 75 152
3 233 80 139
3 80 101 139
3 227 119 139
3 139 119 233
3 139 226 227
3 139 101 226
3 180 52 176
3 176 52 239
3 63 41 3
3 3 26 63
3 89 13 92
3 92 241 89
3 13 176 92
3 239 241 92
3 92 176 239
3 5 239 186
3 5 241 239
3 140 241 5
3 186 226 5
3 5 226 250
3 250 140 5
3 40 178 89
3 40 15 178
3 89 241 40
3 40 241 140
3 181 71 27
3 71 121 27
3 27 131 181
3 140 121 192
3 192 40 140
3 15 40 192
3 71 15 192
3 192 121 71
3 33 21 64
3 37 156 240
3 61 252 238
3 128 240 238
3 238 156 61
3 238 240 156
3 127 220 53
3 75 220 127
3 53 196 127
3 196 103 127
3 127 138 75
3 103 138 127
3 106 81 105
3 106 203 28
3 106 50 231
3 251 81 106
3 106 231 251
3 84 7 218
3 84 212 7
3 7 212 115
3 115 212 12
3 115 62 7
3 228 17 254
3 254 94 227
3 227 145 254
3 254 145 228
3 249 18 60
3 51 18 249
3 249 145 51
3 60 1 249
3 1 145 249
3 54 230 78
3 78 4 54
3 46 230 54
3 54 4 46
3 243 165 117
3 117 116 243
3 117 165 11
3 11 210 117
3 117 210 116
3 179 25 144
3 108 25 179
3 144 97 179
3 35 25 59
3 12 25 35
3 35 115 12
3 59 62 35
3 62 115 35
3 142 17 228
3 234 97 142
3 144 17 142
3 142 97 144
3 142 1 234
3 228 1 142
3 234 58 100
3 58 45 100
3 100 97 234
3 100 45 14
3 193 210 21
3 193 33 171
3 21 33 193
3 171 252 193
3 252 210 193
3 187 41 63
3 175 201 187
3 187 221 41
3 201 221 187
3 63 96 187
3 96 175 187
3 236 221 219
3 219 221 201
3 219 209 135
3 135 236 219
3 223 209 219
3 219 201 223
3 173 136 188
3 173 222 136
3 188 233 173
3 233 119 173
3 119 222 173
3 148 182 232
3 232 2 148
3 6 2 232
3 182 203 232
3 126 155 44
3 126 44 149
3 183 2 126
3 207 93 183
3 207 126 149
3 183 126 207
3 207 149 146
3 141 55 154
3 55 93 154
3 146 141 154
3 154 207 146
3 93 207 154
3 246 255 104
3 104 16 246
3 110 16 104
3 104 247 110
3 133 85 169
3 85 16 169
3 169 16 205
3 169 107 133
3 205 107 169
3 208 255 246
3 246 90 208
3 235 176 13
3 235 19 180
3 180 176 235
3 124 235 13
3 178 26 24
3 26 3 24
3 89 178 24
3 3 124 24
3 24 13 89
3 24 124 13
3 111 107 96
3 111 96 63
3 63 26 111
3 111 26 178
3 123 27 121
3 123 121 250
3 123 49 131
3 131 27 123
3 250 101 123
3 80 49 123
3 123 101 80
3 255 208 20
3 199 33 64
3 164 33 199
3 37 240 57
3 57 240 197
3 57 197 152
3 152 75 57
3 75 138 57
3 114 252 171
3 114 238 252
3 171 33 114
3 114 33 164
3 114 164 128
3 128 238 114
3 36 195 156
3 36 185 195
3 36 156 37
3 37 57 36
3 36 57 138
3 103 185 36
3 36 138 103
3 66 62 76
3 7 62 66
3 76 159 170
3 159 253 170
3 170 66 76
3 79 66 170
3 87 106 28
3 50 106 87
3 28 55 87
3 55 50 87
3 105 212 98
3 212 84 98
3 94 254 120
3 120 254 17
3 194 94 120
3 172 194 120
3 120 17 172
3 143 179 97
3 97 100 143
3 143 100 14
3 14 108 143
3 108 179 143
3 200 126 2
3 155 126 200
3 200 2 6
3 6 163 200
3 53 220 74
3 246 85 9
3 9 202 246
3 177 90 150
3 150 90 246
3 247 104 166
3 83 247 166
3 166 209 83
3 166 118 209
3 88 4 19
3 19 235 88
3 41 4 88
3 204 161 158
3 158 107 204
3 107 111 204
3 128 164 95
3 164 199 95
3 153 208 90
3 153 20 208
3 229 209 32
3 209 118 32
3 32 38 229
3 64 38 32
3 32 199 64
3 73 66 79
3 73 185 218
3 218 7 73
3 7 66 73
3 195 185 73
3 73 79 195
3 79 170 39
3 68 195 39
3 195 79 39
3 22 68 39
3 39 253 22
3 39 170 253
3 65 103 196
3 218 185 65
3 65 185 103
3 65 84 218
3 65 98 84
3 163 74 125
3 177 150 125
3 125 150 163
3 125 220 177
3 125 74 220
3 53 74 137
3 137 232 53
3 6 232 137
3 137 163 6
3 137 74 163
3 213 44 42
3 44 0 42
3 42 161 213
3 158 161 42
3 155 200 91
3 91 200 163
3 163 150 91
3 118 166 56
3 162 124 3
3 162 3 41
3 41 88 162
3 235 124 162
3 162 88 235
3 161 204 130
3 130 72 167
3 167 213 130
3 213 161 130
3 197 240 10
3 10 240 128
3 128 95 10
3 147 90 177
3 147 153 90
3 147 220 152
3 177 220 147
3 105 98 216
3 98 129 216
3 216 129 203
3 216 106 105
3 203 106 216
3 98 65 225
3 225 129 98
3 225 65 196
3 203 129 225
3 225 196 53
3 53 232 225
3 225 232 203
3 133 158 113
3 158 42 113
3 113 0 202
3 113 42 0
3 155 91 160
3 44 155 160
3 160 0 44
3 102 91 150
3 246 202 102
3 102 150 246
3 102 160 91
3 202 0 102
3 0 160 102
3 118 56 67
3 20 10 67
3 67 10 95
3 134 56 166
3 134 104 255
3 134 166 104
3 255 20 134
3 20 67 134
3 134 67 56
3 122 130 204
3 178 15 122
3 122 15 71
3 122 111 178
3 122 204 111
3 71 72 122
3 72 130 122
3 152 197 206
3 206 147 152
3 153 147 206
3 197 10 206
3 20 153 206
3 206 10 20
3 8 85 133
3 133 113 8
3 8 9 85
3 202 9 8
3 8 113 202
3 118 67 157
3 157 67 95
3 157 32 118
3 157 95 199
3 199 32 157