ply
format ascii 1.0
comment https://github.com/mikedh/trimesh
element vertex 256
property float x
property float y
property float z
element face 508
property list uchar int vertex_indices
end_header
-1.12938011 0.51576573 1.08434272
2.12869048 -0.99186581 -0.39632741
0.93235481 0.94316733 0.86481827
-1.30477500 -1.19009185 0.46871838
-1.60990226 -1.23254347 -0.11967375
1.02419627 -1.17320704 0.58571649
0.18711470 1.11414862 0.76937723
1.91352463 0.70931894 -0.80833662
-1.87679970 0.42485055 0.96177047
-2.14009500 0.50263137 0.84770495
-2.50849485 0.84211189 -0.34919491
-1.43782771 -0.30255258 -1.09553063
2.74449730 0.36709580 -0.62755787
-0.46123099 -1.29976559 0.46700624
1.34437776 -0.39144459 -1.09021461
0.24315268 -0.76370299 1.04923868
-2.75613308 0.20321855 0.67661154
2.93987966 -0.52609819 -0.35480434
1.38702488 -1.26038361 -0.23369910
-0.89248407 -1.36233044 -0.07402498
-2.69822407 0.82266784 0.08664689
-2.31033969 -0.07989608 -0.89630836
-0.14443904 0.24441783 -1.23036742
-0.34545654 -1.31951964 -0.43734306
-0.76572412 -1.21840906 0.57072246
2.50953031 -0.04824352 -0.81928945
-1.19201541 -1.02969623 0.73333913
1.54091048 -0.37458917 1.05745804
2.38636208 0.87599617 0.40099174
2.87805295 -0.03766687 -0.62551230
-1.10276866 -0.76249808 -0.96893865
-1.14344907 -0.93035638 -0.83927524
-3.18247914 0.16643529 -0.33186156
-2.33388352 0.31788018 -0.84504980
0.68913490 -1.09706879 -0.74752402
2.35299420 0.33791491 -0.83167481
-0.44858265 1.21223474 -0.62587005
-1.09789395 1.10149884 -0.66976279
-3.02194095 -0.16642880 -0.50047112
0.51149535 0.45252746 -1.16917503
0.41536453 -1.01458395 0.85870963
-2.06668258 -1.08660328 0.19895022
-1.08015311 0.28571287 1.15549099
-2.52529693 -0.32369447 -0.76125813
-0.26064008 0.34382445 1.20914769
0.96687979 -0.64754641 -1.05093443
-2.18407297 -1.06460738 -0.07826422
1.49579453 -1.05252302 -0.62027514
-2.51716733 -0.90011150 -0.18943845
2.34285140 -0.28989917 0.84931093
2.83520150 0.48916844 0.48980588
1.74627566 -1.20308936 0.06762307
0.93638492 -1.35035765 0.14171466
0.39372265 1.40327740 0.09347451
-1.93138385 -1.13005733 -0.20301504
2.44397569 0.62651283 0.64278805
-3.20022225 0.38150147 -0.04625765
-1.27358067 1.19327211 -0.47435114
1.24159265 -0.88773400 -0.85541511
2.23359966 0.09922511 -0.92226017
1.76850605 -1.13978326 -0.33207387
-1.01249444 0.81405705 -0.94998592
2.01610899 0.37213472 -0.93831247
-2.02722812 -0.82666212 0.67128068
-2.79941654 0.06088495 -0.67247778
1.05328870 1.29879260 -0.30554172
1.29715431 0.59272236 -1.02562702
-3.04107118 0.53998274 -0.16769844
-0.37802345 0.48726767 -1.16540790
3.31100655 0.12082354 0.03998283
-0.72976249 -0.58925450 -1.10357416
0.72748291 -0.32405788 1.18600368
0.36148506 -0.15855804 1.23518836
1.00237560 0.75147855 -0.99085593
-0.54795879 1.34117877 0.34727570
-0.74095255 1.37305784 -0.13212793
1.49973512 0.24422029 -1.09508109
-2.10637760 -0.93140924 -0.51071405
-1.47431266 -1.17552209 -0.42383561
0.80620587 0.62578231 -1.07997417
2.58584261 -0.52152562 0.63737422
2.96703720 0.62532699 -0.11614415
-0.07028247 -0.84321231 -1.00455618
-3.31591344 -0.06201249 0.06907436
1.55610168 1.09827650 -0.53070235
-2.39091659 0.28866214 0.83106977
2.96436405 0.22915916 -0.52859843
2.71840167 0.68043119 0.39790022
-1.41551137 -1.28192055 0.02821366
-0.35336623 -1.17198050 0.69008183
-2.06795335 0.92958778 0.53463691
-0.94673973 0.89652646 0.90032607
-0.01349095 -1.29540968 0.50715655
1.68742359 0.59729058 0.93966538
3.09752131 -0.50538605 0.08696081
-2.81772995 0.59631461 -0.40492249
-2.02653456 -0.66882479 0.79634142
2.23338032 -0.61276019 -0.75177151
1.70458591 1.13938677 -0.37595078
-1.83280933 -0.84247226 -0.73236388
1.51307666 -0.65835845 -0.94995731
2.33225274 -0.69690055 0.64465296
-1.27940345 0.69187135 0.97926706
0.12718315 1.35781419 -0.35492977
-3.03280258 0.31852368 0.42777202
2.58731341 0.86559266 -0.18078867
2.84009671 0.70094550 0.19907822
-2.17403746 -0.35783738 0.89176309
2.18370533 -0.15395252 -0.93287361
0.54998147 -1.36479986 -0.26495248
-2.98934436 0.16849297 0.52682686
-1.28209698 -0.76326448 0.93650174
0.93767262 -0.34738231 -1.15974164
-1.50618589 0.31179634 1.08010471
-2.02234054 0.56062847 -0.86038572
2.26963449 0.52880180 -0.78585887
-0.61296189 0.00286918 -1.22893322
-0.90165776 -0.17407829 -1.19391465
-3.22596264 0.27558652 -0.17842996
3.03826404 -0.46856654 0.29546311
3.08976150 -0.51102352 -0.09937627
1.42352021 -0.56818604 1.01254892
-0.17243628 -0.63003188 1.11810768
1.86669588 -0.56207269 0.90805846
-0.92159081 -1.28546798 0.39649016
-0.89733756 1.24091637 0.50058168
0.34128186 0.66901362 1.09488595
0.02729610 1.41002929 -0.12141480
-2.11848903 0.74502486 -0.70428336
2.04128551 1.11806345 -0.03287161
-0.51977736 -0.35192230 1.19560945
1.99926305 -0.17787845 0.98665929
-1.35111046 -1.02809620 -0.69455838
-2.00904322 -0.04654987 0.99568313
-3.14716434 0.43269220 0.12857954
-3.08136177 -0.45276034 -0.24620122
2.97613692 0.21524288 0.52393466
0.10249351 1.24362135 0.59821934
-0.47437173 1.31532741 -0.42937490
2.45006919 -0.81797135 0.43939459
1.01789761 -1.00692713 0.79198986
2.49301291 0.34715638 0.76838076
2.69370437 -0.59520787 -0.51151597
1.80665112 -0.50195122 -0.95171201
2.72280574 -0.39895597 -0.62568235
2.24074483 -1.04669130 0.00429637
1.89440560 0.23188648 1.00691223
-1.93925846 1.14299595 0.11745532
1.87645018 0.87690371 0.68344969
0.58402485 0.14550324 1.22437859
-1.19447887 1.01330054 0.74969417
-0.16081624 -1.00044286 -0.88352096
-1.19354558 1.31636739 -0.11238562
-2.26970983 1.02215374 0.14826402
1.94738984 0.43134752 0.93908352
-0.23516850 0.79986447 1.02846050
-1.00739181 0.98207158 -0.81808639
-3.09666300 0.37820786 -0.30926082
-1.56020486 -0.17042042 1.09395719
1.46563065 0.05871105 -1.12121928
-0.84635091 0.73645574 1.01971900
-0.93400085 -0.17091833 1.19053423
-1.41378748 -1.23152208 0.31631047
-0.53341812 1.19888985 0.63556153
-2.36893010 0.54270279 -0.73521125
-1.00063670 -0.39891002 -1.13915932
-3.28224301 0.22152217 0.03919514
-0.03417962 0.09694611 1.24732149
0.99989331 -1.21753800 -0.51829201
-2.42862988 -0.02711472 0.85362887
0.87682021 0.35759988 -1.16399574
-1.91563213 0.39032498 -0.96229821
3.11357045 -0.19686717 -0.40369648
3.09743237 -0.08317346 0.44854075
-2.23468924 -0.59207869 -0.76419222
-2.44656777 -0.44916207 0.74798584
-0.01012180 -1.37820828 0.29083571
-1.30189443 1.16739678 0.51292700
-0.69905055 -1.06474209 0.78235877
2.34361100 -0.42447022 -0.80385405
-0.06777789 -1.41641176 0.03557404
1.22238255 -0.20334978 1.14898169
2.01459622 0.94947737 0.53615457
0.79370469 0.70976549 1.04028666
0.49743900 -0.21955487 -1.22098005
0.48369703 1.12306666 -0.74067217
1.53512692 -1.17633247 0.39074767
-2.53037429 -0.71318239 0.51206148
2.83441472 -0.06282689 0.65125048
-2.88215065 -0.45139098 -0.47899869
0.30252197 -1.23234963 -0.60635620
3.02111483 0.35946268 -0.41417563
0.66187555 -0.78249139 1.01218355
-1.73019099 0.24225710 -1.04607761
3.23697376 -0.08972985 -0.27471641
-0.35576031 0.82930964 -1.00499713
0.64997208 1.38792193 -0.05916684
-1.74513137 1.15631211 -0.30205682
3.19958591 0.19434461 -0.29358903
-2.89030194 0.25999111 -0.57410133
-0.15512735 1.01228869 0.87354302
-2.95078874 -0.55553967 0.30275229
-1.59017396 0.56087506 0.98005974
2.15112782 1.04318559 0.24785165
-0.96213078 -0.58768094 1.07868230
-2.72269773 -0.21565351 0.69187611
-1.90592396 1.15793669 -0.07638524
1.22751272 0.43707320 1.09645021
-2.51275682 0.79650134 0.41948804
-3.29581714 -0.17306286 -0.06337041
-1.57469738 0.06330357 -1.10003519
-0.26436603 -0.67152888 -1.09684718
2.09238958 0.90113121 -0.55898088
-0.53216583 0.12347708 1.22940087
-2.46578312 -0.70334560 -0.56425267
-0.23974790 -1.37800038 -0.27826267
2.37273979 0.98838270 -0.07928463
1.26139307 -0.12130166 -1.15222192
1.13535273 1.10728753 -0.65268481
-3.03601050 -0.56856096 0.09424722
-0.74875796 1.37766540 0.07805295
-2.56659985 -0.89814615 0.05581685
3.23041725 0.00780237 0.29582891
-3.13528800 -0.25601259 0.34927654
0.43458021 -0.79648411 -1.02114248
1.29728448 1.30367136 -0.04381502
2.06738544 -0.97761869 0.46406525
2.67079234 -0.82276988 0.16547972
2.50109363 -0.85756540 -0.32546073
-3.20070720 -0.14383484 -0.31280524
-2.26606679 -0.97132474 -0.31954238
3.17988682 0.24758759 0.29207963
1.18681645 1.03596294 0.72726268
2.89076662 -0.47509950 0.45386088
1.87715614 -0.83104205 -0.72643691
-0.58920878 -1.35597110 0.28745291
-2.88979840 -0.68324864 -0.13624085
-0.62481672 0.23548153 -1.21059179
-1.74891627 0.71718413 -0.85465533
0.65265173 -1.33476973 0.34101844
-1.88166010 0.93390018 -0.61981082
0.56396443 -1.18889165 0.64621544
0.22307397 -1.33616602 -0.40781340
-0.08169277 -0.34308991 -1.21299720
-2.10482025 -0.33672377 -0.92134207
3.13861895 0.01711674 -0.41208556
-2.30189037 0.66794932 0.68322682
-3.25611663 -0.02074613 0.25156486
0.61792487 -0.53958905 -1.13259268
1.79292107 -1.17869985 -0.16551839
1.82211518 -0.80970776 0.76363128
3.22443414 0.34187376 -0.04714626
-1.35104740 0.47749117 -1.06202853
0.65218019 0.10976675 -1.22225583
2.79105186 -0.76462519 -0.07784488
-2.86002159 0.58838153 0.36934265
3 135 229 189
3 110 247 223
3 223 247 83
3 30 31 99
3 209 229 135
3 209 223 83
3 38 189 229
3 64 43 38
3 38 43 189
3 94 194 69
3 149 181 146
3 80 233 188
3 146 181 131
3 146 131 141
3 141 131 188
3 110 223 205
3 237 68 22
3 172 144 29
3 198 86 191
3 191 251 198
3 69 194 198
3 198 251 69
3 51 226 186
3 23 78 132
3 99 31 132
3 19 78 23
3 165 30 11
3 23 190 242
3 159 76 59
3 59 108 159
3 248 184 112
3 243 184 248
3 211 243 248
3 248 224 211
3 211 224 82
3 82 30 211
3 34 224 58
3 234 47 58
3 58 47 34
3 21 43 64
3 174 30 99
3 135 189 236
3 46 48 230
3 227 94 119
3 167 149 44
3 44 213 167
3 49 80 188
3 188 131 49
3 136 141 188
3 182 55 28
3 148 55 182
3 250 226 101
3 180 109 52
3 186 239 52
3 52 51 186
3 72 149 167
3 181 149 72
3 72 71 181
3 121 140 250
3 107 158 133
3 96 107 175
3 175 107 205
3 68 237 252
3 252 61 68
3 68 61 195
3 61 156 195
3 245 198 194
3 86 198 245
3 245 194 172
3 172 29 245
3 245 29 86
3 59 76 62
3 191 86 12
3 86 29 12
3 81 251 191
3 191 105 81
3 212 105 191
3 191 12 212
3 203 182 28
3 17 144 172
3 60 47 1
3 1 47 234
3 168 190 34
3 34 47 168
3 109 242 168
3 168 242 190
3 168 47 60
3 227 226 145
3 226 51 145
3 145 1 228
3 109 168 18
3 18 168 60
3 18 52 109
3 51 52 18
3 180 19 215
3 215 19 23
3 23 242 215
3 215 109 180
3 215 242 109
3 78 19 4
3 4 41 46
3 70 243 211
3 70 165 243
3 211 30 70
3 30 165 70
3 116 237 22
3 22 184 116
3 116 184 243
3 25 29 144
3 25 108 59
3 25 12 29
3 217 108 14
3 217 159 108
3 217 14 112
3 112 184 217
3 253 184 22
3 253 217 184
3 159 217 253
3 112 14 45
3 45 248 112
3 224 248 45
3 45 58 224
3 151 224 34
3 151 82 224
3 34 190 151
3 151 190 23
3 31 30 151
3 30 82 151
3 23 132 151
3 151 132 31
3 210 252 237
3 237 116 210
3 43 21 244
3 244 174 43
3 244 210 11
3 21 210 244
3 11 30 244
3 30 174 244
3 214 236 189
3 48 236 214
3 214 230 48
3 189 43 214
3 43 174 214
3 214 174 99
3 201 205 223
3 201 175 205
3 221 236 48
3 46 41 221
3 221 48 46
3 78 230 77
3 99 132 77
3 77 132 78
3 77 214 99
3 230 214 77
3 222 94 69
3 222 119 94
3 69 251 231
3 231 222 69
3 136 222 231
3 141 136 50
3 50 55 141
3 136 231 50
3 93 55 148
3 148 2 93
3 93 2 183
3 16 85 246
3 110 205 16
3 220 75 152
3 233 80 139
3 80 101 139
3 227 119 139
3 139 119 233
3 139 226 227
3 139 101 226
3 180 52 176
3 176 52 239
3 63 41 3
3 3 26 63
3 89 13 92
3 92 241 89
3 13 176 92
3 239 241 92
3 92 176 239
3 5 239 186
3 5 241 239
3 140 241 5
3 186 226 5
3 5 226 250
3 250 140 5
3 40 178 89
3 40 15 178
3 89 241 40
3 40 241 140
3 181 71 27
3 71 121 27
3 27 131 181
3 140 121 192
3 192 40 140
3 15 40 192
3 71 15 192
3 192 121 71
3 33 21 64
3 37 156 240
3 61 252 238
3 128 240 238
3 238 156 61
3 238 240 156
3 127 220 53
3 75 220 127
3 53 196 127
3 196 103 127
3 127 138 75
3 103 138 127
3 106 81 105
3 106 203 28
3 106 50 231
3 251 81 106
3 106 231 251
3 84 7 218
3 84 212 7
3 7 212 115
3 115 212 12
3 115 62 7
3 228 17 254
3 254 94 227
3 227 145 254
3 254 145 228
3 249 18 60
3 51 18 249
3 249 145 51
3 60 1 249
3 1 145 249
3 54 230 78
3 78 4 54
3 46 230 54
3 54 4 46
3 243 165 117
3 117 116 243
3 117 165 11
3 11 210 117
3 117 210 116
3 179 25 144
3 108 25 179
3 144 97 179
3 35 25 59
3 12 25 35
3 35 115 12
3 59 62 35
3 62 115 35
3 142 17 228
3 234 97 142
3 144 17 142
3 142 97 144
3 142 1 234
3 228 1 142
3 234 58 100
3 58 45 100
3 100 97 234
3 100 45 14
3 193 210 21
3 193 33 171
3 21 33 193
3 171 252 193
3 252 210 193
3 187 41 63
3 175 201 187
3 187 221 41
3 201 221 187
3 63 96 187
3 96 175 187
3 236 221 219
3 219 221 201
3 219 209 135
3 135 236 219
3 223 209 219
3 219 201 223
3 173 136 188
3 173 222 136
3 188 233 173
3 233 119 173
3 119 222 173
3 148 182 232
3 232 2 148
3 6 2 232
3 182 203 232
3 126 155 44
3 126 44 149
3 183 2 126
3 207 93 183
3 207 126 149
3 183 126 207
3 207 149 146
3 141 55 154
3 55 93 154
3 146 141 154
3 154 207 146
3 93 207 154
3 246 255 104
3 104 16 246
3 110 16 104
3 104 247 110
3 133 85 169
3 85 16 169
3 169 16 205
3 169 107 133
3 205 107 169
3 208 255 246
3 246 90 208
3 235 176 13
3 235 19 180
3 180 176 235
3 124 235 13
3 178 26 24
3 26 3 24
3 89 178 24
3 3 124 24
3 24 13 89
3 24 124 13
3 111 107 96
3 111 96 63
3 63 26 111
3 111 26 178
3 123 27 121
3 123 121 250
3 123 49 131
3 131 27 123
3 250 101 123
3 80 49 123
3 123 101 80
3 255 208 20
3 199 33 64
3 164 33 199
3 37 240 57
3 57 240 197
3 57 197 152
3 152 75 57
3 75 138 57
3 114 252 171
3 114 238 252
3 171 33 114
3 114 33 164
3 114 164 128
3 128 238 114
3 36 195 156
3 36 185 195
3 36 156 37
3 37 57 36
3 36 57 138
3 103 185 36
3 36 138 103
3 66 62 76
3 7 62 66
3 76 159 170
3 159 253 170
3 170 66 76
3 79 66 170
3 87 106 28
3 50 106 87
3 28 55 87
3 55 50 87
3 105 212 98
3 212 84 98
3 94 254 120
3 120 254 17
3 194 94 120
3 172 194 120
3 120 17 172
3 143 179 97
3 97 100 143
3 143 100 14
3 14 108 143
3 108 179 143
3 200 126 2
3 155 126 200
3 200 2 6
3 6 163 200
3 53 220 74
3 246 85 9
3 9 202 246
3 177 90 150
3 150 90 246
3 247 104 166
3 83 247 166
3 166 209 83
3 166 118 209
3 88 4 19
3 19 235 88
3 41 4 88
3 204 161 158
3 158 107 204
3 107 111 204
3 128 164 95
3 164 199 95
3 153 208 90
3 153 20 208
3 229 209 32
3 209 118 32
3 32 38 229
3 64 38 32
3 32 199 64
3 73 66 79
3 73 185 218
3 218 7 73
3 7 66 73
3 195 185 73
3 73 79 195
3 79 170 39
3 68 195 39
3 195 79 39
3 22 68 39
3 39 253 22
3 39 170 253
3 65 103 196
3 218 185 65
3 65 185 103
3 65 84 218
3 65 98 84
3 163 74 125
3 177 150 125
3 125 150 163
3 125 220 177
3 125 74 220
3 53 74 137
3 137 232 53
3 6 232 137
3 137 163 6
3 137 74 163
3 213 44 42
3 44 0 42
3 42 161 213
3 158 161 42
3 155 200 91
3 91 200 163
3 163 150 91
3 118 166 56
3 162 124 3
3 162 3 41
3 41 88 162
3 235 124 162
3 162 88 235
3 161 204 130
3 130 72 167
3 167 213 130
3 213 161 130
3 197 240 10
3 10 240 128
3 128 95 10
3 147 90 177
3 147 153 90
3 147 220 152
3 177 220 147
3 105 98 216
3 98 129 216
3 216 129 203
3 216 106 105
3 203 106 216
3 98 65 225
3 225 129 98
3 225 65 196
3 203 129 225
3 225 196 53
3 53 232 225
3 225 232 203
3 133 158 113
3 158 42 113
3 113 0 202
3 113 42 0
3 155 91 160
3 44 155 160
3 160 0 44
3 102 91 150
3 246 202 102
3 102 150 246
3 102 160 91
3 202 0 102
3 0 160 102
3 118 56 67
3 20 10 67
3 67 10 95
3 134 56 166
3 134 104 255
3 134 166 104
3 255 20 134
3 20 67 134
3 134 67 56
3 122 130 204
3 178 15 122
3 122 15 71
3 122 111 178
3 122 204 111
3 71 72 122
3 72 130 122
3 152 197 206
3 206 147 152
3 153 147 206
3 197 10 206
3 20 153 206
3 206 10 20
3 8 85 133
3 133 113 8
3 8 9 85
3 202 9 8
3 8 113 202
3 118 67 157
3 157 67 95
3 157 32 118
3 157 95 199
3 199 32 157