ply
format ascii 1.0
comment https://github.com/mikedh/trimesh
element vertex 256
property float x
property float y
property float z
element face 508
property list uchar int vertex_indices
end_header
-0.39421141 1.21930301 3.94987130
0.74302191 -2.34483409 -1.44367850
0.32543951 2.22970772 3.15022254
-0.45543322 -2.81345296 1.70737290
-0.56193823 -2.91381145 -0.43592855
0.35749689 -2.77353621 2.13355494
0.06531260 2.63391829 2.80256534
0.66791797 1.67687523 -2.94448018
-0.65509909 1.00437379 3.50338459
-0.74700266 1.18825257 3.08788514
-0.87559301 1.99080622 -1.27199173
-0.50187540 -0.71525365 -3.99062467
0.95796990 0.86783785 -2.28596830
-0.16099320 -3.07272863 1.70113611
0.46925661 -0.92539996 -3.97126055
0.08487272 -1.80544269 3.82200003
-0.96203136 0.48042163 2.46465325
1.02616835 -1.24372971 -1.29242492
0.48414263 -2.97962737 -0.85128194
-0.31152260 -3.22063613 -0.26964644
-0.94181818 1.94483924 0.31562355
-0.80642676 -0.18887942 -3.26492953
-0.05041661 0.57781935 -4.48178673
-0.12058200 -3.11942840 -1.59308386
-0.26727688 -2.88039684 2.07893729
0.87595439 -0.11405075 -2.98437738
-0.41607434 -2.43426752 2.67129135
0.53785658 -0.88555270 3.85193992
0.83296245 2.07091093 1.46066904
1.00458765 -0.08904689 -2.27851677
-0.38492265 -1.80259418 -3.52949572
-0.39912218 -2.19942188 -3.05717850
-1.11084807 0.39346361 -1.20885253
-0.81464475 0.75148904 -3.07821321
0.24054334 -2.59354067 -2.72296166
0.82131535 0.79885238 -3.02949286
-0.15657829 2.86580014 -2.27981997
-0.38322112 2.60401344 -2.43970537
-1.05481195 -0.39344832 -1.82303679
0.17853804 1.06980383 -4.25888538
0.14498347 -2.39854121 3.12797093
-0.72137797 -2.56879950 0.72470427
-0.37702870 0.67544347 4.20903921
-0.88145775 -0.76523441 -2.77299023
-0.09097672 0.81282294 4.40449142
0.33749050 -1.53084099 -3.82817698
-0.76235318 -2.51679969 -0.28508848
0.52210879 -2.48823166 -2.25943971
-0.87862015 -2.12792110 -0.69005626
0.81777495 -0.68534017 3.09373498
0.98963034 1.15642536 1.78418696
0.60953957 -2.84418011 0.24632658
0.32684624 -3.19233179 0.51621568
0.13742934 3.31743717 0.34049410
-0.67415178 -2.67152762 -0.73951095
0.85307252 1.48111629 2.34144616
-1.11704123 0.90189379 -0.16850002
-0.44454482 2.82097149 -1.72789097
0.43337932 -2.09865975 -3.11597037
0.77964056 0.23457450 -3.35946274
0.61729902 -2.69452024 -1.20962596
-0.35341233 1.92448282 -3.46045780
0.70372516 0.87975019 -3.41793561
-0.70760632 -1.95428205 2.44523478
-0.97713953 0.14393592 -2.44959521
0.36765164 3.07042861 -1.11297882
0.45277318 1.40123343 -3.73599100
-1.06148934 1.27655375 -0.61086524
-0.13194951 1.15193188 -4.24516296
1.15571058 0.28563455 0.14564310
-0.25472444 -1.39303529 -4.01992464
0.25392875 -0.76609349 4.32018566
0.12617677 -0.37484133 4.49934769
0.34988037 1.77654314 -3.60933256
-0.19126564 3.17063212 1.26500070
-0.25863034 3.24599624 -0.48129463
0.52348429 0.57735234 -3.98898745
-0.73523355 -2.20191073 -1.86034811
-0.51461053 -2.77900934 -1.54388106
0.28140709 1.47938943 -3.93395829
0.90259129 -1.23291993 2.32172537
1.03564775 1.47831297 -0.42307144
-0.02453218 -1.99340773 -3.65923762
-1.15742338 -0.14660148 0.25161311
0.54315907 2.59639573 -1.93315816
-0.83455217 0.68241572 3.02728891
1.03471470 0.54174691 -1.92549443
0.94886118 1.60858274 1.44940770
-0.49408588 -3.03054190 0.10277224
-0.12334289 -2.77063680 2.51372051
-0.72182155 2.19760466 1.94749033
-0.33046058 2.11944556 3.27956486
-0.00470903 -3.06243134 1.84738934
0.58899713 1.41203308 3.42286372
1.08119345 -1.19476485 0.31676704
-0.98353183 1.40972567 -1.47498727
-0.70736420 -1.58114445 2.90078592
0.77956396 -1.44860423 -2.73843384
0.59498763 2.69358301 -1.36945379
-0.63974416 -1.99165821 -2.66773868
0.52814114 -1.55640149 -3.46035361
0.81407553 -1.64751744 2.34823942
-0.44657722 1.63562810 3.56711841
0.04439342 3.20995927 -1.29288185
-1.05860329 0.75301027 1.55821991
0.90310472 2.04631615 -0.65854824
0.99133903 1.65707994 0.72517049
-0.75885028 -0.84595037 3.24837303
0.76222491 -0.36395359 -3.39812374
0.19197166 -3.22647381 -0.96512681
-1.04343402 0.39832816 1.91904116
-0.44751740 -1.80440593 3.41133976
0.32729569 -0.82123393 -4.22452259
-0.52573591 0.73710644 3.93443394
-0.70590025 1.32536149 -3.13407636
0.79221851 1.25012124 -2.86260176
-0.21395506 0.00678291 -4.47656250
-0.31472468 -0.41153216 -4.34900236
-1.12602592 0.65150410 -0.64995635
1.06050956 -1.10772121 1.07626605
1.07848477 -1.20809221 -0.36199206
0.49688137 -1.34322810 3.68835235
-0.06018908 -1.48943567 4.07286501
0.65157235 -1.32877564 3.30773115
-0.32168233 -3.03892827 1.44427145
-0.31321669 2.93360543 1.82343948
0.11912482 1.58159089 3.98827672
0.00952773 3.33339906 -0.44227055
-0.73946100 1.76128638 -2.56545138
0.71251303 2.64317346 -0.11973947
-0.18142888 -0.83196682 4.35517645
0.69784504 -0.42051601 3.59404564
-0.47160667 -2.43048501 -2.53002691
-0.70125884 -0.11004686 3.62691641
-1.09852135 1.02291203 0.46836916
-1.07555282 -1.07035434 -0.89682269
1.03882396 0.50884789 1.90850604
0.03577548 2.94000030 2.17909837
-0.16558000 3.10951781 -1.56405866
0.85519946 -1.93373644 1.60055685
0.35529831 -2.38044000 2.88493490
0.87018901 0.82069981 2.79893541
0.94024062 -1.40710938 -1.86326909
0.63061363 -1.18664467 -3.46674538
0.95039845 -0.94315737 -2.27913618
0.78213453 -2.47444487 0.01565013
0.66124445 0.54819441 3.66781974
-0.67690039 2.70211530 0.42784756
0.65497708 2.07305622 2.48956203
0.20385455 0.34397894 4.45997190
-0.41693425 2.39550710 2.73086691
-0.05613309 -2.36511087 -3.21834970
-0.41660848 3.11197662 -0.40938050
-0.79224485 2.41643667 0.54007262
0.67973864 1.01973307 3.42074442
-0.08208583 1.89093065 3.74631238
-0.35163128 2.32167983 -2.97999501
-1.08089375 0.89410752 -1.12652612
-0.54459131 -0.40288475 3.98489356
0.51158005 0.13879667 -4.08419943
-0.29541975 1.74102843 3.71447015
-0.32601407 -0.40406185 4.33668900
-0.49348414 -2.91139674 1.15220547
-0.18619020 2.83425188 2.31512260
-0.82687777 1.28298402 -2.67811084
-0.34927338 -0.94304872 -4.14954901
-1.14567065 0.52369255 0.14277384
-0.01193043 0.22918677 4.54354429
0.34901389 -2.87833762 -1.88795173
-0.84771603 -0.06410093 3.10946369
0.30605510 0.84538895 -4.24001884
-0.66865361 0.92275316 -3.50530720
1.08679533 -0.46540657 -1.47052133
1.08116233 -0.19662738 1.63387299
-0.78002089 -1.39971173 -2.78367805
-0.85397726 -1.06184781 2.72464395
-0.00353303 -3.25817227 1.05941010
-0.45442775 2.75980043 1.86840904
-0.24400440 -2.51711822 2.84985209
0.81804013 -1.00347471 -2.92815185
-0.02365795 -3.34848762 0.12958345
0.42667401 -0.48073184 4.18532801
0.70319718 2.24462509 1.95301878
0.27704352 1.67793095 3.78939104
0.17363165 -0.51904172 -4.44759226
0.16883500 2.65500116 -2.69800305
0.53583783 -2.78092504 1.42335355
-0.88323003 -1.68600869 1.86525619
0.98935574 -0.14852677 2.37227178
-1.00601804 -1.06711709 -1.74482036
0.10559564 -2.91335297 -2.20873809
1.05452359 0.84979266 -1.50869310
0.23102842 -1.84985960 3.68702149
-0.60392517 0.57271123 -3.81048536
1.12986946 -0.21212707 -1.00069332
-0.12417854 1.96054089 -3.66084409
0.22687349 3.28113580 -0.21552356
-0.60914010 2.73359561 -1.10028458
1.11681914 0.45944306 -1.06943941
-1.00886321 0.61463553 -2.09124517
-0.05414738 2.39311504 3.18200374
-1.02997613 -1.31333125 1.10281789
-0.55505204 1.32594430 3.57000589
0.75085360 2.46615744 0.90283465
-0.33583286 -1.38931525 3.92925239
-0.95036077 -0.50981867 2.52025652
-0.66526496 2.73743606 -0.27824402
0.42846471 1.03326893 3.99397469
-0.87708068 1.88297999 1.52804446
-1.15040874 -0.40913165 -0.23083566
-0.54964995 0.14965367 -4.00703335
-0.09227726 -1.58753717 -3.99542093
0.73035103 2.13033175 -2.03616667
-0.18575309 0.29190770 4.47826624
-0.86068439 -1.66275382 -2.05536985
-0.08368428 -3.25768089 -1.01361108
0.82820755 2.33659983 -0.28880545
0.44029069 -0.28676486 -4.19713116
0.39629620 2.61769843 -2.37749648
-1.05972302 -1.34411430 0.34330881
-0.26135480 3.25688887 0.28431892
-0.89587462 -2.12327480 0.20332074
1.12758088 0.01844530 1.07759857
-1.09437585 -0.60523009 1.27228916
0.15169072 -1.88293934 -3.71965575
0.45281863 3.08196235 -0.15960239
0.72162330 -2.31115294 1.69042325
0.93224311 -1.94508040 0.60278326
0.87300956 -2.02733946 -1.18553674
-1.11721051 -0.34003475 -1.13943732
-0.79097319 -2.29627371 -1.16397822
1.10994315 0.58531290 1.06394124
0.41425967 2.44908261 2.64915705
1.00902534 -1.12316549 1.65325224
0.65522349 -1.96463645 -2.64614892
-0.20566399 -3.20560217 1.04708779
-1.00868738 -1.61524332 -0.49627656
-0.21809299 0.55669338 -4.40975142
-0.61046124 1.69546902 -3.11320281
0.22780883 -3.15548086 1.24220777
-0.65679562 2.20779967 -2.25774837
0.19685243 -2.81061578 2.35393095
0.07786423 -3.15878177 -1.48551786
-0.02851496 -0.81108648 -4.41851377
-0.73468995 -0.79603648 -3.35611868
1.09553862 0.04046507 -1.50107980
-0.80347747 1.57907486 2.48875022
-1.13655126 -0.04904518 0.91636056
0.21568739 -1.27562296 -4.12562895
0.62582117 -2.78652143 -0.60292411
0.63601142 -1.91420078 2.78163481
1.12549245 0.80821139 -0.17173690
-0.47158462 1.12881958 -3.86858869
0.22764423 0.25949562 -4.45223951
0.97421980 -1.80762279 -0.28356096
-0.99829382 1.39097154 1.34538269
3 135 229 189
3 110 247 223
3 223 247 83
3 30 31 99
3 209 229 135
3 209 223 83
3 38 189 229
3 64 43 38
3 38 43 189
3 94 194 69
3 149 181 146
3 80 233 188
3 146 181 131
3 146 131 141
3 141 131 188
3 110 223 205
3 237 68 22
3 172 144 29
3 198 86 191
3 191 251 198
3 69 194 198
3 198 251 69
3 51 226 186
3 23 78 132
3 99 31 132
3 19 78 23
3 165 30 11
3 23 190 242
3 159 76 59
3 59 108 159
3 248 184 112
3 243 184 248
3 211 243 248
3 248 224 211
3 211 224 82
3 82 30 211
3 34 224 58
3 234 47 58
3 58 47 34
3 21 43 64
3 174 30 99
3 135 189 236
3 46 48 230
3 227 94 119
3 167 149 44
3 44 213 167
3 49 80 188
3 188 131 49
3 136 141 188
3 182 55 28
3 148 55 182
3 250 226 101
3 180 109 52
3 186 239 52
3 52 51 186
3 72 149 167
3 181 149 72
3 72 71 181
3 121 140 250
3 107 158 133
3 96 107 175
3 175 107 205
3 68 237 252
3 252 61 68
3 68 61 195
3 61 156 195
3 245 198 194
3 86 198 245
3 245 194 172
3 172 29 245
3 245 29 86
3 59 76 62
3 191 86 12
3 86 29 12
3 81 251 191
3 191 105 81
3 212 105 191
3 191 12 212
3 203 182 28
3 17 144 172
3 60 47 1
3 1 47 234
3 168 190 34
3 34 47 168
3 109 242 168
3 168 242 190
3 168 47 60
3 227 226 145
3 226 51 145
3 145 1 228
3 109 168 18
3 18 168 60
3 18 52 109
3 51 52 18
3 180 19 215
3 215 19 23
3 23 242 215
3 215 109 180
3 215 242 109
3 78 19 4
3 4 41 46
3 70 243 211
3 70 165 243
3 211 30 70
3 30 165 70
3 116 237 22
3 22 184 116
3 116 184 243
3 25 29 144
3 25 108 59
3 25 12 29
3 217 108 14
3 217 159 108
3 217 14 112
3 112 184 217
3 253 184 22
3 253 217 184
3 159 217 253
3 112 14 45
3 45 248 112
3 224 248 45
3 45 58 224
3 151 224 34
3 151 82 224
3 34 190 151
3 151 190 23
3 31 30 151
3 30 82 151
3 23 132 151
3 151 132 31
3 210 252 237
3 237 116 210
3 43 21 244
3 244 174 43
3 244 210 11
3 21 210 244
3 11 30 244
3 30 174 244
3 214 236 189
3 48 236 214
3 214 230 48
3 189 43 214
3 43 174 214
3 214 174 99
3 201 205 223
3 201 175 205
3 221 236 48
3 46 41 221
3 221 48 46
3 78 230 77
3 99 132 77
3 77 132 78
3 77 214 99
3 230 214 77
3 222 94 69
3 222 119 94
3 69 251 231
3 231 222 69
3 136 222 231
3 141 136 50
3 50 55 141
3 136 231 50
3 93 55 148
3 148 2 93
3 93 2 183
3 16 85 246
3 110 205 16
3 220 75 152
3 233 80 139
3 80 101 139
3 227 119 139
3 139 119 233
3 139 226 227
3 139 101 226
3 180 52 176
3 176 52 239
3 63 41 3
3 3 26 63
3 89 13 92
3 92 241 89
3 13 176 92
3 239 241 92
3 92 176 239
3 5 239 186
3 5 241 239
3 140 241 5
3 186 226 5
3 5 226 250
3 250 140 5
3 40 178 89
3 40 15 178
3 89 241 40
3 40 241 140
3 181 71 27
3 71 121 27
3 27 131 181
3 140 121 192
3 192 40 140
3 15 40 192
3 71 15 192
3 192 121 71
3 33 21 64
3 37 156 240
3 61 252 238
3 128 240 238
3 238 156 61
3 238 240 156
3 127 220 53
3 75 220 127
3 53 196 127
3 196 103 127
3 127 138 75
3 103 138 127
3 106 81 105
3 106 203 28
3 106 50 231
3 251 81 106
3 106 231 251
3 84 7 218
3 84 212 7
3 7 212 115
3 115 212 12
3 115 62 7
3 228 17 254
3 254 94 227
3 227 145 254
3 254 145 228
3 249 18 60
3 51 18 249
3 249 145 51
3 60 1 249
3 1 145 249
3 54 230 78
3 78 4 54
3 46 230 54
3 54 4 46
3 243 165 117
3 117 116 243
3 117 165 11
3 11 210 117
3 117 210 116
3 179 25 144
3 108 25 179
3 144 97 179
3 35 25 59
3 12 25 35
3 35 115 12
3 59 62 35
3 62 115 35
3 142 17 228
3 234 97 142
3 144 17 142
3 142 97 144
3 142 1 234
3 228 1 142
3 234 58 100
3 58 45 100
3 100 97 234
3 100 45 14
3 193 210 21
3 193 33 171
3 21 33 193
3 171 252 193
3 252 210 193
3 187 41 63
3 175 201 187
3 187 221 41
3 201 221 187
3 63 96 187
3 96 175 187
3 236 221 219
3 219 221 201
3 219 209 135
3 135 236 219
3 223 209 219
3 219 201 223
3 173 136 188
3 173 222 136
3 188 233 173
3 233 119 173
3 119 222 173
3 148 182 232
3 232 2 148
3 6 2 232
3 182 203 232
3 126 155 44
3 126 44 149
3 183 2 126
3 207 93 183
3 207 126 149
3 183 126 207
3 207 149 146
3 141 55 154
3 55 93 154
3 146 141 154
3 154 207 146
3 93 207 154
3 246 255 104
3 104 16 246
3 110 16 104
3 104 247 110
3 133 85 169
3 85 16 169
3 169 16 205
3 169 107 133
3 205 107 169
3 208 255 246
3 246 90 208
3 235 176 13
3 235 19 180
3 180 176 235
3 124 235 13
3 178 26 24
3 26 3 24
3 89 178 24
3 3 124 24
3 24 13 89
3 24 124 13
3 111 107 96
3 111 96 63
3 63 26 111
3 111 26 178
3 123 27 121
3 123 121 250
3 123 49 131
3 131 27 123
3 250 101 123
3 80 49 123
3 123 101 80
3 255 208 20
3 199 33 64
3 164 33 199
3 37 240 57
3 57 240 197
3 57 197 152
3 152 75 57
3 75 138 57
3 114 252 171
3 114 238 252
3 171 33 114
3 114 33 164
3 114 164 128
3 128 238 114
3 36 195 156
3 36 185 195
3 36 156 37
3 37 57 36
3 36 57 138
3 103 185 36
3 36 138 103
3 66 62 76
3 7 62 66
3 76 159 170
3 159 253 170
3 170 66 76
3 79 66 170
3 87 106 28
3 50 106 87
3 28 55 87
3 55 50 87
3 105 212 98
3 212 84 98
3 94 254 120
3 120 254 17
3 194 94 120
3 172 194 120
3 120 17 172
3 143 179 97
3 97 100 143
3 143 100 14
3 14 108 143
3 108 179 143
3 200 126 2
3 155 126 200
3 200 2 6
3 6 163 200
3 53 220 74
3 246 85 9
3 9 202 246
3 177 90 150
3 150 90 246
3 247 104 166
3 83 247 166
3 166 209 83
3 166 118 209
3 88 4 19
3 19 235 88
3 41 4 88
3 204 161 158
3 158 107 204
3 107 111 204
3 128 164 95
3 164 199 95
3 153 208 90
3 153 20 208
3 229 209 32
3 209 118 32
3 32 38 229
3 64 38 32
3 32 199 64
3 73 66 79
3 73 185 218
3 218 7 73
3 7 66 73
3 195 185 73
3 73 79 195
3 79 170 39
3 68 195 39
3 195 79 39
3 22 68 39
3 39 253 22
3 39 170 253
3 65 103 196
3 218 185 65
3 65 185 103
3 65 84 218
3 65 98 84
3 163 74 125
3 177 150 125
3 125 150 163
3 125 220 177
3 125 74 220
3 53 74 137
3 137 232 53
3 6 232 137
3 137 163 6
3 137 74 163
3 213 44 42
3 44 0 42
3 42 161 213
3 158 161 42
3 155 200 91
3 91 200 163
3 163 150 91
3 118 166 56
3 162 124 3
3 162 3 41
3 41 88 162
3 235 124 162
3 162 88 235
3 161 204 130
3 130 72 167
3 167 213 130
3 213 161 130
3 197 240 10
3 10 240 128
3 128 95 10
3 147 90 177
3 147 153 90
3 147 220 152
3 177 220 147
3 105 98 216
3 98 129 216
3 216 129 203
3 216 106 105
3 203 106 216
3 98 65 225
3 225 129 98
3 225 65 196
3 203 129 225
3 225 196 53
3 53 232 225
3 225 232 203
3 133 158 113
3 158 42 113
3 113 0 202
3 113 42 0
3 155 91 160
3 44 155 160
3 160 0 44
3 102 91 150
3 246 202 102
3 102 150 246
3 102 160 91
3 202 0 102
3 0 160 102
3 118 56 67
3 20 10 67
3 67 10 95
3 134 56 166
3 134 104 255
3 134 166 104
3 255 20 134
3 20 67 134
3 134 67 56
3 122 130 204
3 178 15 122
3 122 15 71
3 122 111 178
3 122 204 111
3 71 72 122
3 72 130 122
3 152 197 206
3 206 147 152
3 153 147 206
3 197 10 206
3 20 153 206
3 206 10 20
3 8 85 133
3 133 113 8
3 8 9 85
3 202 9 8
3 8 113 202
3 118 67 157
3 157 67 95
3 157 32 118
3 157 95 199
3 199 32 157