ply
format ascii 1.0
comment https://github.com/mikedh/trimesh
element vertex 256
property float x
property float y
property float z
element face 508
property list uchar int vertex_indices
end_header
-1.37470686 1.24845803 2.46002769
2.59108996 -2.40090179 -0.89914054
1.13488317 2.28302264 1.96199679
-1.58820152 -2.88072610 1.06337249
-1.95960927 -2.98348403 -0.27150157
1.24667478 -2.83985496 1.32880390
0.22776023 2.69689846 1.74547160
2.32918525 1.71697128 -1.83385801
-2.28448272 1.02838957 2.18195057
-2.60497189 1.21666515 1.92317224
-3.05339646 2.03840876 -0.79221189
-1.75015616 -0.73235619 -2.48540950
3.34066391 0.88858891 -1.42372870
-0.56142074 -3.14620137 1.05948818
1.63640690 -0.94752735 -2.47334933
0.29597092 -1.84861290 2.38038802
-3.35482717 0.49190909 1.53501594
3.57848763 -1.27346873 -0.80493790
1.68831789 -3.05087376 -0.53018874
-1.08635175 -3.29764533 -0.16793907
-3.28433895 1.99134266 0.19657418
-2.81219745 -0.19339575 -2.03343773
-0.17581445 0.59163570 -2.79131126
-0.42049748 -3.19401765 -0.99219191
-0.93205667 -2.94927049 1.29478729
3.05465674 -0.11677784 -1.85870647
-1.45094788 -2.49247360 1.66371262
1.87563086 -0.90672731 2.39903498
2.90473366 2.12042880 0.90972239
3.50323081 -0.09117610 -1.41908789
-1.34231484 -1.84569633 -2.19821286
-1.39183187 -2.25201273 -1.90404797
-3.87378526 0.40287182 -0.75288802
-2.84085560 0.76945800 -1.91714859
0.83883053 -2.65555525 -1.69589365
2.86411738 0.81795388 -1.88680494
-0.54602492 2.93432498 -1.41989958
-1.33638120 2.66627860 -1.51947820
-3.67837453 -0.40285614 -1.13540936
0.62260365 1.09538412 -2.65248537
0.50559103 -2.45589304 1.94813824
-2.51561260 -2.63022256 0.45135462
-1.31478667 0.69159412 2.62144065
-3.07384801 -0.78353208 -1.72705197
-0.31725696 0.83225846 2.74317074
1.17690778 -1.56744528 -2.38423514
-2.65850282 -2.57697940 -0.17755656
1.82071483 -2.54772830 -1.40720642
-3.06395268 -2.17880225 -0.42977545
2.85177135 -0.70172745 1.92681563
3.45107102 1.18407691 1.11121333
2.12560606 -2.91218781 0.15341519
1.13978887 -3.26866412 0.32150540
0.47924808 3.39676094 0.21206386
-2.35092402 -2.73540711 -0.46057642
2.97486210 1.51653159 1.45828104
-3.89538240 0.92345911 -0.10494386
-1.55023110 2.88842416 -1.07615149
1.51129448 -2.14884138 -1.94066417
2.71878767 0.24018344 -2.09231424
2.15266538 -2.75894952 -0.75336969
-1.23243093 1.97049952 -2.15521502
2.45405316 0.90078604 -2.12873173
-2.46758771 -2.00101113 1.52292180
-3.40751266 0.14737760 -1.52563763
1.28208673 3.14384604 -0.69317669
1.57892537 1.43473852 -2.32682061
-3.70166039 1.30707765 -0.38045430
-0.46013862 1.17947590 -2.64393902
4.03023148 0.29246441 0.09070829
-0.88828331 -1.42634439 -2.50365782
0.88550860 -0.78441173 2.69066405
0.44000775 -0.38380423 2.80224848
1.22011411 1.81902242 -2.24793601
-0.66698772 3.24644589 0.78785783
-0.90190411 3.32361197 -0.29975614
1.82551134 0.59115756 -2.48438978
-2.56393027 -2.25456119 -1.15864742
-1.79456651 -2.84545875 -0.96154785
0.98133188 1.51476336 -2.45011687
3.14754581 -1.26240051 1.44599879
3.61154437 1.51366115 -0.26349404
-0.08554940 -2.04107237 -2.27901769
-4.03620434 -0.15010691 0.15670770
1.89412189 2.65847874 -1.20399439
-2.91027737 0.69873309 1.88543224
3.60829067 0.55470073 -1.19922125
3.30889964 1.64704585 0.90270871
-1.72299230 -3.10300565 0.06400780
-0.43012533 -2.83688593 1.56557560
-2.51715946 2.25015211 1.21292067
-1.15239286 2.17012405 2.04255271
-0.01642149 -3.13565755 1.15057647
2.05396986 1.44579637 2.13180113
3.77037263 -1.22333300 0.19728635
-3.42980409 1.44343388 -0.91864002
-2.46674323 -1.61895144 1.80664468
2.71852064 -1.48324203 -1.70552981
2.07486033 2.75798965 -0.85291249
-2.23093677 -2.03928113 -1.66150010
1.84175098 -1.59361684 -2.15515018
2.83887053 -1.68691146 1.46251202
-1.55731857 1.67473781 2.22164464
0.15481019 3.28671312 -0.80522251
-3.69159555 0.77101564 0.97047830
3.14933610 2.09524608 -0.41015181
3.45702958 1.69670272 0.45164499
-2.64628720 -0.86617810 2.02312613
2.65805531 -0.37265617 -2.11639261
0.66944981 -3.30362272 -0.60109270
-3.63869715 0.40785265 1.19520211
-1.56059730 -1.84755135 2.12462378
1.14135611 -0.84087056 -2.63108397
-1.83336329 0.75473154 2.45041323
-2.46163845 1.35705245 -1.95194089
2.76265001 1.28001308 -1.78286314
-0.74611104 0.00694510 -2.78805757
-1.09751809 -0.42137238 -2.70861149
-3.92671418 0.66708237 -0.40480068
3.69824314 -1.13420808 0.67031157
3.76092720 -1.23697913 -0.22545305
1.73274088 -1.37534630 2.29715061
-0.20989332 -1.52504981 2.53662968
2.27218413 -1.36054826 2.06009507
-1.12178111 -3.11159253 0.89950973
-1.09225941 3.00375128 1.13566029
0.41541594 1.61940861 2.48394704
0.03322542 3.41310477 -0.27545148
-2.57867241 1.80340075 -1.59779429
2.48469853 2.70637488 -0.07457519
-0.63268471 -0.85186011 2.71245670
2.43354797 -0.43057105 2.23841524
-1.64460206 -2.48860073 -1.57573152
-2.44545269 -0.11267821 2.25888753
-3.83079934 1.04737103 0.29170600
-3.75070286 -1.09594774 -0.55855203
3.62262082 0.52101505 1.18864071
0.12475740 3.01029921 1.35716891
-0.57741594 3.18387008 -0.97411472
2.98227930 -1.97997439 0.99684620
1.23900783 -2.43735909 1.79677248
3.03455138 0.84032369 1.74321091
3.27883744 -1.44075501 -1.16046655
2.19909620 -1.21501875 -2.15913105
3.31426048 -0.96570939 -1.41947365
2.72748494 -2.53361177 0.00974709
2.30591321 0.56130242 2.28436255
-2.36050892 2.76672626 0.26646867
2.28405738 2.12262559 1.55052948
0.71088821 0.35220388 2.77772474
-1.45394659 2.45278645 1.70081711
-0.19574913 -2.42166328 -2.00442719
-1.45281065 3.18638754 -0.25496712
-2.76274204 2.47421646 0.33636379
2.37040663 1.04411614 2.13048100
-0.28625238 1.93614507 2.33324885
-1.22622001 2.37719393 -1.85597718
-3.76932788 0.91548669 -0.70161414
-1.89911652 -0.41251820 2.48184013
1.78399849 0.14211546 -2.54368901
-1.03019738 1.78265846 2.31341720
-1.13688684 -0.41372344 2.70094252
-1.72089386 -2.98101163 0.71760756
-0.64928854 2.90202236 1.44188654
-2.88351512 1.31366169 -1.66795993
-1.21799743 -0.96559811 -2.58438945
-3.99521995 0.53621465 0.08892129
-0.04160420 0.23466690 2.82977462
1.21709263 -2.94716191 -1.17583930
-2.95618272 -0.06563366 1.93661177
1.06728530 0.86560321 -2.64073515
-2.33175039 0.94481725 -2.18314791
3.78990817 -0.47653499 -0.91585857
3.77026439 -0.20132896 1.01759589
-2.72011399 -1.43318057 -1.73370850
-2.97801709 -1.08723783 1.69694126
-0.01232048 -3.33607912 0.65981346
-1.58469522 2.82579064 1.16366780
-0.85090005 -2.57730556 1.77492249
2.85269618 -1.02746892 -1.82368851
-0.08250076 -3.42855406 0.08070614
1.48791146 -0.49222672 2.60667300
2.45221186 2.29829669 1.21636379
0.96611518 1.71805227 2.36007881
0.60549390 -0.53145266 -2.77001452
0.58876687 2.71848536 -1.68034899
1.86859095 -2.84742022 0.88648188
-3.08002853 -1.72632313 1.16170418
3.45011353 -0.15207821 1.47747958
-3.50821853 -1.09263313 -1.08669531
0.36823654 -2.98301482 -1.37562883
3.67736888 0.87011224 -0.93963242
0.80564982 -1.89409196 2.29632163
-2.10602736 0.58640546 -2.37321639
3.94011736 -0.21719928 -0.62324393
-0.43303943 2.00741982 -2.28001809
0.79116064 3.35959172 -0.13423069
-2.12421322 2.79895926 -0.68527061
3.89460802 0.47042891 -0.66605985
-3.51814055 0.62933218 -1.30245280
-0.18882449 2.45033717 1.98179054
-3.59176636 -1.34473455 0.68684840
-1.93559551 1.35764921 2.22344303
2.61840105 2.52512622 0.56229639
-1.17112720 -1.42253542 2.44718599
-3.31412888 -0.52200902 1.56964636
-2.31993365 2.80289149 -0.17329375
1.49415612 1.05797565 2.48749590
-3.05858421 1.92800426 0.95168459
-4.01174259 -0.41891447 -0.14376725
-1.91675711 0.15323207 -2.49562907
-0.32179227 -1.62549710 -2.48839664
2.54690385 2.18127036 -1.26814938
-0.64776421 0.29888755 2.78911853
-3.00140667 -1.70251226 -1.28010929
-0.29182655 -3.33557582 -0.63128924
2.88815236 2.39247060 -0.17987154
1.53539598 -0.29362175 -2.61402416
1.38197696 2.68029070 -1.48073363
-3.69550037 -1.37625372 0.21381690
-0.91140497 3.33476496 0.17707726
-3.12412310 -2.17404485 0.12663063
3.93213654 0.01888635 0.67114145
-3.81634307 -0.61970186 0.79239714
0.52898079 -1.92796254 -2.31664681
1.57908380 3.15565562 -0.09940231
2.51646805 -2.36641526 1.05281603
3.25094843 -1.99158967 0.37542072
3.04438734 -2.07581544 -0.73836666
-3.89597273 -0.34816536 -0.70965534
-2.75830746 -2.35118032 -0.72493976
3.87062979 0.59930843 0.66263556
1.44461977 2.50764298 1.64992714
3.51870608 -1.15002179 1.02966559
2.28491664 -2.01161313 -1.64805365
-0.71719819 -3.28225207 0.65213895
-3.51752758 -1.65386569 -0.30908707
-0.76054096 0.57000458 -2.74644661
-2.12882018 1.73600960 -1.93894041
0.79442233 -3.23093200 0.77366203
-2.29039884 2.26059079 -1.40615320
0.68647015 -2.87782097 1.46605670
0.27153066 -3.23431182 -0.92519855
-0.09943828 -0.83048052 -2.75190377
-2.56203461 -0.81507063 -2.09023142
3.82039762 0.04143264 -0.93489075
-2.80191255 1.61683238 1.55002379
-3.96341848 -0.05021791 0.57072043
0.75215209 -1.30612457 -2.56949162
2.18238401 -2.85315061 -0.37550846
2.21791959 -1.95997155 1.73243594
3.92485356 0.82753670 -0.10695982
-1.64452517 1.15581107 -2.40940404
0.79384840 0.26570046 -2.77290869
3.39733100 -1.85084510 -0.17660521
-3.48128271 1.42423129 0.83792067
3 135 229 189
3 110 247 223
3 223 247 83
3 30 31 99
3 209 229 135
3 209 223 83
3 38 189 229
3 64 43 38
3 38 43 189
3 94 194 69
3 149 181 146
3 80 233 188
3 146 181 131
3 146 131 141
3 141 131 188
3 110 223 205
3 237 68 22
3 172 144 29
3 198 86 191
3 191 251 198
3 69 194 198
3 198 251 69
3 51 226 186
3 23 78 132
3 99 31 132
3 19 78 23
3 165 30 11
3 23 190 242
3 159 76 59
3 59 108 159
3 248 184 112
3 243 184 248
3 211 243 248
3 248 224 211
3 211 224 82
3 82 30 211
3 34 224 58
3 234 47 58
3 58 47 34
3 21 43 64
3 174 30 99
3 135 189 236
3 46 48 230
3 227 94 119
3 167 149 44
3 44 213 167
3 49 80 188
3 188 131 49
3 136 141 188
3 182 55 28
3 148 55 182
3 250 226 101
3 180 109 52
3 186 239 52
3 52 51 186
3 72 149 167
3 181 149 72
3 72 71 181
3 121 140 250
3 107 158 133
3 96 107 175
3 175 107 205
3 68 237 252
3 252 61 68
3 68 61 195
3 61 156 195
3 245 198 194
3 86 198 245
3 245 194 172
3 172 29 245
3 245 29 86
3 59 76 62
3 191 86 12
3 86 29 12
3 81 251 191
3 191 105 81
3 212 105 191
3 191 12 212
3 203 182 28
3 17 144 172
3 60 47 1
3 1 47 234
3 168 190 34
3 34 47 168
3 109 242 168
3 168 242 190
3 168 47 60
3 227 226 145
3 226 51 145
3 145 1 228
3 109 168 18
3 18 168 60
3 18 52 109
3 51 52 18
3 180 19 215
3 215 19 23
3 23 242 215
3 215 109 180
3 215 242 109
3 78 19 4
3 4 41 46
3 70 243 211
3 70 165 243
3 211 30 70
3 30 165 70
3 116 237 22
3 22 184 116
3 116 184 243
3 25 29 144
3 25 108 59
3 25 12 29
3 217 108 14
3 217 159 108
3 217 14 112
3 112 184 217
3 253 184 22
3 253 217 184
3 159 217 253
3 112 14 45
3 45 248 112
3 224 248 45
3 45 58 224
3 151 224 34
3 151 82 224
3 34 190 151
3 151 190 23
3 31 30 151
3 30 82 151
3 23 132 151
3 151 132 31
3 210 252 237
3 237 116 210
3 43 21 244
3 244 174 43
3 244 210 11
3 21 210 244
3 11 30 244
3 30 174 244
3 214 236 189
3 48 236 214
3 214 230 48
3 189 43 214
3 43 174 214
3 214 174 99
3 201 205 223
3 201 175 205
3 221 236 48
3 46 41 221
3 221 48 46
3 78 230 77
3 99 132 77
3 77 132 78
3 77 214 99
3 230 214 77
3 222 94 69
3 222 119 94
3 69 251 231
3 231 222 69
3 136 222 231
3 141 136 50
3 50 55 141
3 136 231 50
3 93 55 148
3 148 2 93
3 93 2 183
3 16 85 246
3 110 205 16
3 220 75 152
3 233 80 139
3 80 101 139
3 227 119 139
3 139 119 233
3 139 226 227
3 139 101 226
3 180 52 176
3 176 52 239
3 63 41 3
3 3 26 63
3 89 13 92
3 92 241 89
3 13 176 92
3 239 241 92
3 92 176 239
3 5 239 186
3 5 241 239
3 140 241 5
3 186 226 5
3 5 226 250
3 250 140 5
3 40 178 89
3 40 15 178
3 89 241 40
3 40 241 140
3 181 71 27
3 71 121 27
3 27 131 181
3 140 121 192
3 192 40 140
3 15 40 192
3 71 15 192
3 192 121 71
3 33 21 64
3 37 156 240
3 61 252 238
3 128 240 238
3 238 156 61
3 238 240 156
3 127 220 53
3 75 220 127
3 53 196 127
3 196 103 127
3 127 138 75
3 103 138 127
3 106 81 105
3 106 203 28
3 106 50 231
3 251 81 106
3 106 231 251
3 84 7 218
3 84 212 7
3 7 212 115
3 115 212 12
3 115 62 7
3 228 17 254
3 254 94 227
3 227 145 254
3 254 145 228
3 249 18 60
3 51 18 249
3 249 145 51
3 60 1 249
3 1 145 249
3 54 230 78
3 78 4 54
3 46 230 54
3 54 4 46
3 243 165 117
3 117 116 243
3 117 165 11
3 11 210 117
3 117 210 116
3 179 25 144
3 108 25 179
3 144 97 179
3 35 25 59
3 12 25 35
3 35 115 12
3 59 62 35
3 62 115 35
3 142 17 228
3 234 97 142
3 144 17 142
3 142 97 144
3 142 1 234
3 228 1 142
3 234 58 100
3 58 45 100
3 100 97 234
3 100 45 14
3 193 210 21
3 193 33 171
3 21 33 193
3 171 252 193
3 252 210 193
3 187 41 63
3 175 201 187
3 187 221 41
3 201 221 187
3 63 96 187
3 96 175 187
3 236 221 219
3 219 221 201
3 219 209 135
3 135 236 219
3 223 209 219
3 219 201 223
3 173 136 188
3 173 222 136
3 188 233 173
3 233 119 173
3 119 222 173
3 148 182 232
3 232 2 148
3 6 2 232
3 182 203 232
3 126 155 44
3 126 44 149
3 183 2 126
3 207 93 183
3 207 126 149
3 183 126 207
3 207 149 146
3 141 55 154
3 55 93 154
3 146 141 154
3 154 207 146
3 93 207 154
3 246 255 104
3 104 16 246
3 110 16 104
3 104 247 110
3 133 85 169
3 85 16 169
3 169 16 205
3 169 107 133
3 205 107 169
3 208 255 246
3 246 90 208
3 235 176 13
3 235 19 180
3 180 176 235
3 124 235 13
3 178 26 24
3 26 3 24
3 89 178 24
3 3 124 24
3 24 13 89
3 24 124 13
3 111 107 96
3 111 96 63
3 63 26 111
3 111 26 178
3 123 27 121
3 123 121 250
3 123 49 131
3 131 27 123
3 250 101 123
3 80 49 123
3 123 101 80
3 255 208 20
3 199 33 64
3 164 33 199
3 37 240 57
3 57 240 197
3 57 197 152
3 152 75 57
3 75 138 57
3 114 252 171
3 114 238 252
3 171 33 114
3 114 33 164
3 114 164 128
3 128 238 114
3 36 195 156
3 36 185 195
3 36 156 37
3 37 57 36
3 36 57 138
3 103 185 36
3 36 138 103
3 66 62 76
3 7 62 66
3 76 159 170
3 159 253 170
3 170 66 76
3 79 66 170
3 87 106 28
3 50 106 87
3 28 55 87
3 55 50 87
3 105 212 98
3 212 84 98
3 94 254 120
3 120 254 17
3 194 94 120
3 172 194 120
3 120 17 172
3 143 179 97
3 97 100 143
3 143 100 14
3 14 108 143
3 108 179 143
3 200 126 2
3 155 126 200
3 200 2 6
3 6 163 200
3 53 220 74
3 246 85 9
3 9 202 246
3 177 90 150
3 150 90 246
3 247 104 166
3 83 247 166
3 166 209 83
3 166 118 209
3 88 4 19
3 19 235 88
3 41 4 88
3 204 161 158
3 158 107 204
3 107 111 204
3 128 164 95
3 164 199 95
3 153 208 90
3 153 20 208
3 229 209 32
3 209 118 32
3 32 38 229
3 64 38 32
3 32 199 64
3 73 66 79
3 73 185 218
3 218 7 73
3 7 66 73
3 195 185 73
3 73 79 195
3 79 170 39
3 68 195 39
3 195 79 39
3 22 68 39
3 39 253 22
3 39 170 253
3 65 103 196
3 218 185 65
3 65 185 103
3 65 84 218
3 65 98 84
3 163 74 125
3 177 150 125
3 125 150 163
3 125 220 177
3 125 74 220
3 53 74 137
3 137 232 53
3 6 232 137
3 137 163 6
3 137 74 163
3 213 44 42
3 44 0 42
3 42 161 213
3 158 161 42
3 155 200 91
3 91 200 163
3 163 150 91
3 118 166 56
3 162 124 3
3 162 3 41
3 41 88 162
3 235 124 162
3 162 88 235
3 161 204 130
3 130 72 167
3 167 213 130
3 213 161 130
3 197 240 10
3 10 240 128
3 128 95 10
3 147 90 177
3 147 153 90
3 147 220 152
3 177 220 147
3 105 98 216
3 98 129 216
3 216 129 203
3 216 106 105
3 203 106 216
3 98 65 225
3 225 129 98
3 225 65 196
3 203 129 225
3 225 196 53
3 53 232 225
3 225 232 203
3 133 158 113
3 158 42 113
3 113 0 202
3 113 42 0
3 155 91 160
3 44 155 160
3 160 0 44
3 102 91 150
3 246 202 102
3 102 150 246
3 102 160 91
3 202 0 102
3 0 160 102
3 118 56 67
3 20 10 67
3 67 10 95
3 134 56 166
3 134 104 255
3 134 166 104
3 255 20 134
3 20 67 134
3 134 67 56
3 122 130 204
3 178 15 122
3 122 15 71
3 122 111 178
3 122 204 111
3 71 72 122
3 72 130 122
3 152 197 206
3 206 147 152
3 153 147 206
3 197 10 206
3 20 153 206
3 206 10 20
3 8 85 133
3 133 113 8
3 8 9 85
3 202 9 8
3 8 113 202
3 118 67 157
3 157 67 95
3 157 32 118
3 157 95 199
3 199 32 157