ply
format ascii 1.0
comment https://github.com/mikedh/trimesh
element vertex 256
property float x
property float y
property float z
element face 508
property list uchar int vertex_indices
end_header
-1.29271984 1.76216114 4.20871210
2.43655825 -3.38880086 -1.53828478
1.06719911 3.22241807 3.35666108
-1.49348176 -4.06605816 1.81925941
-1.84273887 -4.21109819 -0.46449554
1.17232347 -4.00836992 2.27336979
0.21417668 3.80659127 2.98622131
2.19027352 2.42345357 -3.13743615
-2.14823699 1.45154107 3.73296642
-2.44961214 1.71728623 3.29023838
-2.87129283 2.87715268 -1.35534716
-1.64577746 -1.03369880 -4.25213575
3.14142776 1.25421655 -2.43577099
-0.52793777 -4.44076872 1.81261396
1.53881204 -1.33740652 -4.23150301
0.27831930 -2.60926175 4.07246113
-3.15474629 0.69431490 2.62616539
3.36506796 -1.79746294 -1.37711930
1.58762717 -4.30621672 -0.90706766
-1.02156210 -4.65452766 -0.28731674
-3.08846211 2.81072044 0.33630681
-2.64447904 -0.27297232 -3.47888494
-0.16532893 0.83507603 -4.77548456
-0.39541915 -4.50826025 -1.69748080
-0.87646908 -4.16280651 2.21517301
2.87247801 -0.16482842 -3.17994785
-1.36441386 -3.51805186 2.84634471
1.76376879 -1.27981842 4.10436296
2.73149633 2.99292159 1.55638874
3.29429913 -0.12869233 -2.42783117
-1.26225960 -2.60514498 -3.76078868
-1.30882347 -3.17864823 -3.25751972
-3.64275408 0.56864148 -1.28807032
-2.67142797 1.08606696 -3.27993274
0.78880292 -3.74823666 -2.90140128
2.69330239 1.15451741 -3.22801971
-0.51346016 4.14171171 -2.42921972
-1.25667989 3.76337218 -2.59958267
-3.45899749 -0.56861931 -1.94250286
0.58547175 1.54610181 -4.53797579
0.47543776 -3.46641946 3.33295131
-2.36558223 -3.71248007 0.77219516
-1.23637319 0.97616434 4.48486328
-2.89052486 -1.10593200 -2.95470810
-0.29833585 1.17470789 4.69312382
1.10671747 -2.21240187 -4.07904291
-2.49995065 -3.63732910 -0.30377072
1.71212792 -3.59604192 -2.40750384
-2.88121963 -3.07531381 -0.73527664
2.68169260 -0.99046725 3.29647160
3.24525023 1.67128897 1.90110731
1.99883568 -4.11046600 0.26246873
1.07181215 -4.61362123 0.55004400
0.45066586 4.79442644 0.36280715
-2.21071553 -3.86094499 -0.78797215
2.79744220 2.14053869 2.49488449
-3.66306305 1.30343485 -0.17954206
-1.45777583 4.07692385 -1.84112203
1.42116129 -3.03302503 -3.32016420
2.55664015 0.33901173 -3.57961297
2.02428102 -3.89417434 -1.28889441
-1.15892923 2.78130102 -3.68722653
2.30769420 1.27143252 -3.64191771
-2.32042170 -2.82436728 2.60547423
-3.20428967 0.20801905 -2.61012053
1.20562351 4.43744469 -1.18591392
1.48475873 2.02509046 -3.98081565
-3.48089457 1.84490085 -0.65089613
-0.43269610 1.66479492 -4.52335453
3.78986979 0.41280475 0.15518729
-0.83530641 -2.01324224 -4.28335571
0.83269715 -1.10717356 4.60329342
0.41376582 -0.54172814 4.79419661
1.14734697 2.56749558 -3.84585714
-0.62720883 4.58226109 1.34789801
-0.84811485 4.69117832 -0.51283455
1.71663845 0.83440113 -4.25039148
-2.41101837 -3.18224549 -1.98225927
-1.68753922 -4.01627970 -1.64505374
0.92280561 2.13804293 -4.19175577
2.95982718 -1.78184044 2.47387147
3.39615297 2.13648725 -0.45079592
-0.08044726 -2.88091254 -3.89903259
-3.79548645 -0.21187139 0.26810169
1.78115714 3.75236297 -2.05984068
-2.73670936 0.98624080 3.22567153
3.39309335 0.78294343 -2.05167484
3.11155796 2.32475567 1.54438949
-1.62023365 -4.37979937 0.10950705
-0.40447280 -4.00417948 2.67844796
-2.36703682 3.17602229 2.07511210
-1.08366454 3.06306505 3.49447918
-0.01544212 -4.42588663 1.96845126
1.93147182 2.04069829 3.64716864
3.54550886 -1.72669792 0.33752522
-3.22525167 2.03736377 -1.57164526
-2.31962752 -2.28510141 3.09087849
2.55638909 -2.09355164 -2.91788721
1.95111632 3.89281988 -1.45919609
-2.09788442 -2.87838411 -2.84255934
1.73190951 -2.24934244 -3.68711543
2.66956139 -2.38102508 2.50212288
-1.46444070 2.36384225 3.80087662
0.14557737 4.63909721 -1.37760615
-3.47143006 1.08826542 1.66033220
2.96151066 2.95737696 -0.70170379
3.25085354 2.39484501 0.77269197
-2.48846364 -1.22258437 3.46124339
2.49952984 -0.52599299 -3.62080765
0.62952405 -4.66296434 -1.02837288
-3.42168641 0.57567179 2.04479861
-1.46752369 -2.60776329 3.63488960
1.07328606 -1.18686366 -4.50136137
-1.72402215 1.06528091 4.19226313
-2.31482697 1.91543877 -3.33945680
2.59788656 1.80670011 -3.05019212
-0.70161319 0.00980280 -4.76991796
-1.03206253 -0.59475452 -4.63399887
-3.69252634 0.94156677 -0.69254887
3.47768116 -1.60090077 1.14679527
3.53662658 -1.74595892 -0.38571393
1.62940073 -1.94125998 3.93005538
-0.19737536 -2.15256214 4.33976555
2.13667178 -1.92037308 3.52449131
-1.05487847 -4.39191961 1.53891647
-1.02711749 4.23970509 1.94293213
0.39064068 2.28574657 4.24963379
0.03124387 4.81749487 -0.47125316
-2.42488122 2.54544616 -2.73356915
2.33651209 3.81996679 -0.12758617
-0.59495157 -1.20237505 4.64057732
2.28841186 -0.60773814 3.82956839
-1.54651856 -3.51258540 -2.69582319
-2.29960656 -0.15904191 3.86459327
-3.60233164 1.47833276 0.49906203
-3.52701211 -1.54689741 -0.95559275
3.40656900 0.73539710 2.03357315
0.11731692 4.24894714 2.32189775
-0.54297906 4.49393702 -1.66655362
2.80441713 -2.79467440 1.70544350
1.16511381 -3.44025922 3.07398868
2.85357165 1.18609166 2.98235345
3.08328867 -2.03358245 -1.98537171
2.06794286 -1.71496248 -3.69392610
3.11659908 -1.36306989 -2.42849112
2.56481862 -3.57611728 0.01667571
2.16838932 0.79226148 3.90817714
-2.21972895 3.90515089 0.45588502
2.14783692 2.99602222 2.65270662
0.66849107 0.49712521 4.75224018
-1.36723375 3.46203446 2.90982437
-0.18407473 -3.41810513 -3.42925262
-1.36616540 4.49749041 -0.43620777
-2.59797287 3.49228239 0.57546437
2.22903633 1.47373855 3.64491057
-0.26918039 2.73281074 3.99181366
-1.15308869 3.35533810 -3.17527843
-3.54452634 1.29218197 -1.20034897
-1.78585386 -0.58225709 4.24602938
1.67760146 0.20059171 -4.35184288
-0.96875674 2.51616907 3.95788455
-1.06908321 -0.58395821 4.62087822
-1.61826038 -4.20760870 1.22771108
-0.61056519 4.09611750 2.46683598
-2.71154308 1.85419405 -2.85361123
-1.14535642 -1.36291277 -4.42147446
-3.75694633 0.75685090 0.15213001
-0.03912294 0.33122528 4.84128904
1.14450562 -4.15983057 -2.01167202
-2.77987695 -0.09263995 3.31323123
1.00363278 1.22177291 -4.51787329
-2.19268560 1.33358121 -3.73501468
3.56387925 -0.67261481 -1.56688666
3.54540706 -0.28416979 1.74094296
-2.55788732 -2.02289128 -2.96609640
-2.80040932 -1.53460360 2.90319371
-0.01158569 -4.70877552 1.12883472
-1.49018455 3.98851871 1.99084854
-0.80015266 -3.63778925 3.03660703
2.68256235 -1.45024157 -3.12003779
-0.07758044 -4.83930111 0.13807523
1.39917290 -0.69476324 4.45959806
2.30596280 3.24397683 2.08100271
0.90849638 2.42497921 4.03771496
0.56938249 -0.75012946 -4.73904943
0.55365300 3.83706045 -2.87480688
1.75714886 -4.01904821 1.51662791
-2.89633656 -2.43665338 1.98748910
3.24434972 -0.21465385 2.52772999
-3.29898953 -1.54221880 -1.85916090
0.34627503 -4.21043587 -2.35347962
3.45805192 1.22813725 -1.60755992
0.75760114 -2.67345381 3.92863703
-1.98042464 0.82769370 -4.06019163
3.70513010 -0.30657026 -1.06627011
-0.40721309 2.83341265 -3.90074420
0.74397606 4.74196291 -0.22964711
-1.99752581 3.95064688 -1.17238784
3.66233492 0.66399628 -1.13952124
-3.30831981 0.88828355 -2.22828722
-0.17756306 3.45857763 3.39052510
-3.37755466 -1.89805257 1.17508709
-1.82015717 1.91628122 3.80395341
2.46224046 3.56413984 0.96199864
-1.10128164 -2.00786614 4.18674183
-3.11647534 -0.73680007 2.68541241
-2.18157339 3.95619726 -0.29647774
1.40504503 1.49330091 4.25570536
-2.87617135 2.72132015 1.62817931
-3.77248359 -0.59128517 -0.24596265
-1.80244231 0.21628247 -4.26961994
-0.30260068 -2.29434037 -4.25724649
2.39500737 3.07879782 -2.16959953
-0.60913175 0.42187083 4.77173328
-2.82240367 -2.40304494 -2.19006109
-0.27442211 -4.70806503 -1.08003438
2.71590376 3.37690043 -0.30773130
1.44382548 -0.41443828 -4.47217464
1.29955626 3.78314996 -2.53329730
-3.47510195 -1.94254088 0.36580631
-0.85704911 4.70692062 0.30295074
-2.93780136 -3.06859899 0.21664464
3.69762516 0.02665752 1.14821506
-3.58873773 -0.87469059 1.35566401
0.49743256 -2.72126126 -3.96340990
1.48490775 4.45411348 -0.17006136
2.36638689 -3.34012413 1.80119896
3.05706286 -2.81106901 0.64228451
2.86282110 -2.92995119 -1.26322651
-3.66361833 -0.49142498 -1.21410620
-2.59380293 -3.31862044 -1.24025536
3.63978672 0.84590584 1.13366282
1.35846305 3.53946304 2.82275987
3.30885172 -1.62322116 1.76159227
2.14864492 -2.83933163 -2.81955481
-0.67442471 -4.63280010 1.11570489
-3.30774331 -2.33438182 -0.52879822
-0.71518254 0.80454433 -4.69872856
-2.00185800 2.45032549 -3.31721520
0.74704325 -4.56036377 1.32361138
-2.15380025 3.19075608 -2.40570188
0.64552933 -4.06195784 2.50818729
0.25533667 -4.56513405 -1.58286595
-0.09350781 -1.17219830 -4.70806503
-2.40923572 -1.15044773 -3.57604980
3.59255052 0.05848093 -1.59944773
-2.63480759 2.28211045 2.65184140
-3.72704148 -0.07088108 0.97641093
0.70729399 -1.84355569 -4.39598703
2.05222726 -4.02713633 -0.64243454
2.08564353 -2.76644111 2.96391916
3.69077659 1.16804326 -0.18299106
-1.54644632 1.63139260 -4.12210274
0.74650353 0.37502822 -4.74400091
3.19471526 -2.61241245 -0.30214310
-3.27366018 2.01025987 1.43354750
3 135 229 189
3 110 247 223
3 223 247 83
3 30 31 99
3 209 229 135
3 209 223 83
3 38 189 229
3 64 43 38
3 38 43 189
3 94 194 69
3 149 181 146
3 80 233 188
3 146 181 131
3 146 131 141
3 141 131 188
3 110 223 205
3 237 68 22
3 172 144 29
3 198 86 191
3 191 251 198
3 69 194 198
3 198 251 69
3 51 226 186
3 23 78 132
3 99 31 132
3 19 78 23
3 165 30 11
3 23 190 242
3 159 76 59
3 59 108 159
3 248 184 112
3 243 184 248
3 211 243 248
3 248 224 211
3 211 224 82
3 82 30 211
3 34 224 58
3 234 47 58
3 58 47 34
3 21 43 64
3 174 30 99
3 135 189 236
3 46 48 230
3 227 94 119
3 167 149 44
3 44 213 167
3 49 80 188
3 188 131 49
3 136 141 188
3 182 55 28
3 148 55 182
3 250 226 101
3 180 109 52
3 186 239 52
3 52 51 186
3 72 149 167
3 181 149 72
3 72 71 181
3 121 140 250
3 107 158 133
3 96 107 175
3 175 107 205
3 68 237 252
3 252 61 68
3 68 61 195
3 61 156 195
3 245 198 194
3 86 198 245
3 245 194 172
3 172 29 245
3 245 29 86
3 59 76 62
3 191 86 12
3 86 29 12
3 81 251 191
3 191 105 81
3 212 105 191
3 191 12 212
3 203 182 28
3 17 144 172
3 60 47 1
3 1 47 234
3 168 190 34
3 34 47 168
3 109 242 168
3 168 242 190
3 168 47 60
3 227 226 145
3 226 51 145
3 145 1 228
3 109 168 18
3 18 168 60
3 18 52 109
3 51 52 18
3 180 19 215
3 215 19 23
3 23 242 215
3 215 109 180
3 215 242 109
3 78 19 4
3 4 41 46
3 70 243 211
3 70 165 243
3 211 30 70
3 30 165 70
3 116 237 22
3 22 184 116
3 116 184 243
3 25 29 144
3 25 108 59
3 25 12 29
3 217 108 14
3 217 159 108
3 217 14 112
3 112 184 217
3 253 184 22
3 253 217 184
3 159 217 253
3 112 14 45
3 45 248 112
3 224 248 45
3 45 58 224
3 151 224 34
3 151 82 224
3 34 190 151
3 151 190 23
3 31 30 151
3 30 82 151
3 23 132 151
3 151 132 31
3 210 252 237
3 237 116 210
3 43 21 244
3 244 174 43
3 244 210 11
3 21 210 244
3 11 30 244
3 30 174 244
3 214 236 189
3 48 236 214
3 214 230 48
3 189 43 214
3 43 174 214
3 214 174 99
3 201 205 223
3 201 175 205
3 221 236 48
3 46 41 221
3 221 48 46
3 78 230 77
3 99 132 77
3 77 132 78
3 77 214 99
3 230 214 77
3 222 94 69
3 222 119 94
3 69 251 231
3 231 222 69
3 136 222 231
3 141 136 50
3 50 55 141
3 136 231 50
3 93 55 148
3 148 2 93
3 93 2 183
3 16 85 246
3 110 205 16
3 220 75 152
3 233 80 139
3 80 101 139
3 227 119 139
3 139 119 233
3 139 226 227
3 139 101 226
3 180 52 176
3 176 52 239
3 63 41 3
3 3 26 63
3 89 13 92
3 92 241 89
3 13 176 92
3 239 241 92
3 92 176 239
3 5 239 186
3 5 241 239
3 140 241 5
3 186 226 5
3 5 226 250
3 250 140 5
3 40 178 89
3 40 15 178
3 89 241 40
3 40 241 140
3 181 71 27
3 71 121 27
3 27 131 181
3 140 121 192
3 192 40 140
3 15 40 192
3 71 15 192
3 192 121 71
3 33 21 64
3 37 156 240
3 61 252 238
3 128 240 238
3 238 156 61
3 238 240 156
3 127 220 53
3 75 220 127
3 53 196 127
3 196 103 127
3 127 138 75
3 103 138 127
3 106 81 105
3 106 203 28
3 106 50 231
3 251 81 106
3 106 231 251
3 84 7 218
3 84 212 7
3 7 212 115
3 115 212 12
3 115 62 7
3 228 17 254
3 254 94 227
3 227 145 254
3 254 145 228
3 249 18 60
3 51 18 249
3 249 145 51
3 60 1 249
3 1 145 249
3 54 230 78
3 78 4 54
3 46 230 54
3 54 4 46
3 243 165 117
3 117 116 243
3 117 165 11
3 11 210 117
3 117 210 116
3 179 25 144
3 108 25 179
3 144 97 179
3 35 25 59
3 12 25 35
3 35 115 12
3 59 62 35
3 62 115 35
3 142 17 228
3 234 97 142
3 144 17 142
3 142 97 144
3 142 1 234
3 228 1 142
3 234 58 100
3 58 45 100
3 100 97 234
3 100 45 14
3 193 210 21
3 193 33 171
3 21 33 193
3 171 252 193
3 252 210 193
3 187 41 63
3 175 201 187
3 187 221 41
3 201 221 187
3 63 96 187
3 96 175 187
3 236 221 219
3 219 221 201
3 219 209 135
3 135 236 219
3 223 209 219
3 219 201 223
3 173 136 188
3 173 222 136
3 188 233 173
3 233 119 173
3 119 222 173
3 148 182 232
3 232 2 148
3 6 2 232
3 182 203 232
3 126 155 44
3 126 44 149
3 183 2 126
3 207 93 183
3 207 126 149
3 183 126 207
3 207 149 146
3 141 55 154
3 55 93 154
3 146 141 154
3 154 207 146
3 93 207 154
3 246 255 104
3 104 16 246
3 110 16 104
3 104 247 110
3 133 85 169
3 85 16 169
3 169 16 205
3 169 107 133
3 205 107 169
3 208 255 246
3 246 90 208
3 235 176 13
3 235 19 180
3 180 176 235
3 124 235 13
3 178 26 24
3 26 3 24
3 89 178 24
3 3 124 24
3 24 13 89
3 24 124 13
3 111 107 96
3 111 96 63
3 63 26 111
3 111 26 178
3 123 27 121
3 123 121 250
3 123 49 131
3 131 27 123
3 250 101 123
3 80 49 123
3 123 101 80
3 255 208 20
3 199 33 64
3 164 33 199
3 37 240 57
3 57 240 197
3 57 197 152
3 152 75 57
3 75 138 57
3 114 252 171
3 114 238 252
3 171 33 114
3 114 33 164
3 114 164 128
3 128 238 114
3 36 195 156
3 36 185 195
3 36 156 37
3 37 57 36
3 36 57 138
3 103 185 36
3 36 138 103
3 66 62 76
3 7 62 66
3 76 159 170
3 159 253 170
3 170 66 76
3 79 66 170
3 87 106 28
3 50 106 87
3 28 55 87
3 55 50 87
3 105 212 98
3 212 84 98
3 94 254 120
3 120 254 17
3 194 94 120
3 172 194 120
3 120 17 172
3 143 179 97
3 97 100 143
3 143 100 14
3 14 108 143
3 108 179 143
3 200 126 2
3 155 126 200
3 200 2 6
3 6 163 200
3 53 220 74
3 246 85 9
3 9 202 246
3 177 90 150
3 150 90 246
3 247 104 166
3 83 247 166
3 166 209 83
3 166 118 209
3 88 4 19
3 19 235 88
3 41 4 88
3 204 161 158
3 158 107 204
3 107 111 204
3 128 164 95
3 164 199 95
3 153 208 90
3 153 20 208
3 229 209 32
3 209 118 32
3 32 38 229
3 64 38 32
3 32 199 64
3 73 66 79
3 73 185 218
3 218 7 73
3 7 66 73
3 195 185 73
3 73 79 195
3 79 170 39
3 68 195 39
3 195 79 39
3 22 68 39
3 39 253 22
3 39 170 253
3 65 103 196
3 218 185 65
3 65 185 103
3 65 84 218
3 65 98 84
3 163 74 125
3 177 150 125
3 125 150 163
3 125 220 177
3 125 74 220
3 53 74 137
3 137 232 53
3 6 232 137
3 137 163 6
3 137 74 163
3 213 44 42
3 44 0 42
3 42 161 213
3 158 161 42
3 155 200 91
3 91 200 163
3 163 150 91
3 118 166 56
3 162 124 3
3 162 3 41
3 41 88 162
3 235 124 162
3 162 88 235
3 161 204 130
3 130 72 167
3 167 213 130
3 213 161 130
3 197 240 10
3 10 240 128
3 128 95 10
3 147 90 177
3 147 153 90
3 147 220 152
3 177 220 147
3 105 98 216
3 98 129 216
3 216 129 203
3 216 106 105
3 203 106 216
3 98 65 225
3 225 129 98
3 225 65 196
3 203 129 225
3 225 196 53
3 53 232 225
3 225 232 203
3 133 158 113
3 158 42 113
3 113 0 202
3 113 42 0
3 155 91 160
3 44 155 160
3 160 0 44
3 102 91 150
3 246 202 102
3 102 150 246
3 102 160 91
3 202 0 102
3 0 160 102
3 118 56 67
3 20 10 67
3 67 10 95
3 134 56 166
3 134 104 255
3 134 166 104
3 255 20 134
3 20 67 134
3 134 67 56
3 122 130 204
3 178 15 122
3 122 15 71
3 122 111 178
3 122 204 111
3 71 72 122
3 72 130 122
3 152 197 206
3 206 147 152
3 153 147 206
3 197 10 206
3 20 153 206
3 206 10 20
3 8 85 133
3 133 113 8
3 8 9 85
3 202 9 8
3 8 113 202
3 118 67 157
3 157 67 95
3 157 32 118
3 157 95 199
3 199 32 157