ply
format ascii 1.0
comment https://github.com/mikedh/trimesh
element vertex 256
property float x
property float y
property float z
element face 508
property list uchar int vertex_indices
end_header
-0.89691091 0.36947820 4.15013885
1.69052541 -0.71054125 -1.51687646
0.74044085 0.67565519 3.30994630
-1.03620291 -0.85254407 1.79394066
-1.27852345 -0.88295507 -0.45803115
0.81337792 -0.84044832 2.24173117
0.14859942 0.79814076 2.94466186
1.51964879 0.50813359 -3.09377217
-1.49048316 0.30434945 3.68101454
-1.69958246 0.36006916 3.24444795
-1.99215174 0.60326225 -1.33648467
-1.14186835 -0.21673909 -4.19295883
2.17957592 0.26297578 -2.40187216
-0.36629218 -0.93111086 1.78738773
1.06765389 -0.28041849 -4.17261267
0.19310264 -0.54709262 4.01578426
-2.18881655 0.14557932 2.58961678
2.33474112 -0.37688005 -1.35795391
1.10152268 -0.90289885 -0.89444393
-0.70877707 -0.97593039 -0.28331813
-2.14282727 0.58933318 0.33162642
-1.83478439 -0.05723502 -3.43046927
-0.11470801 0.17509319 -4.70902395
-0.27434850 -0.94526201 -1.67385685
-0.60810912 -0.87282962 2.18434429
1.99297392 -0.03456013 -3.13569236
-0.94665349 -0.73764169 2.80673194
1.22373271 -0.26834381 4.04724216
1.89515841 0.62753588 1.53472829
2.28564072 -0.02698335 -2.39404297
-0.87577713 -0.54622948 -3.70844960
-0.90808392 -0.66647780 -3.21218467
-2.52740455 0.11922896 -1.27014422
-1.85348189 0.22771928 -3.23428583
0.54728484 -0.78590530 -2.86102223
1.86865890 0.24207152 -3.18309522
-0.35624737 0.86840653 -2.39541221
-0.87190580 0.78907883 -2.56340432
-2.39991093 -0.11922432 -1.91546893
0.40621024 0.32417634 -4.47482061
0.32986680 -0.72681576 3.28656650
-1.64128113 -0.77840811 0.76144844
-0.85781670 0.20467564 4.42244720
-2.00549507 -0.23188446 -2.91358733
-0.20699048 0.24630493 4.62780952
0.76785928 -0.46388173 -4.02227449
-1.73450804 -0.76265097 -0.29954311
1.18790340 -0.75399417 -2.37399864
-1.99903893 -0.64481133 -0.72504377
1.86060381 -0.20767458 3.25059462
2.25160980 0.35042477 1.87464952
1.38682604 -0.86185509 0.25881591
0.74364144 -0.96735340 0.54238904
0.31267962 1.00526345 0.35775796
-1.53383195 -0.80953729 -0.77700591
1.94091296 0.44881392 2.46016288
-2.54149532 0.27329555 -0.17704338
-1.01142955 0.85482228 -1.81549907
0.98602581 -0.63594449 -3.27395725
1.77384031 0.07108173 -3.52979541
1.40448046 -0.81650460 -1.27095675
-0.80408472 0.58316469 -3.63591099
1.60111737 0.26658550 -3.59123278
-1.60994792 -0.59219456 2.56921387
-2.22319055 0.04361605 -2.57379532
0.83648199 0.93041384 -1.16940939
1.03015077 0.42460749 -3.92541456
-2.41510367 0.38682652 -0.64183754
-0.30021191 0.34906313 -4.46040249
2.62947607 0.08655415 0.15302753
-0.57954973 -0.42212325 -4.22374392
0.57773936 -0.23214479 4.53922939
0.28707775 -0.11358595 4.72747517
0.79604876 0.53833538 -3.79233408
-0.43516812 0.96077794 1.32913923
-0.58843642 0.98361510 -0.50569737
1.19103289 0.17495167 -4.19123840
-1.67280543 -0.66723204 -1.95467210
-1.17084324 -0.84210682 -1.62215936
0.64025819 0.44829062 -4.13341904
2.05357814 -0.37360445 2.43944240
2.35630846 0.44796446 -0.44452217
-0.05581567 -0.60405058 -3.84476948
-2.63337302 -0.04442378 0.26437050
1.23579705 0.78677046 -2.03117371
-1.89877534 0.20678841 3.18077970
2.35418582 0.16416237 -2.02312160
2.15885162 0.48743930 1.52289605
-1.12414563 -0.91832721 0.10798304
-0.28063008 -0.83956969 2.64117193
-1.64229035 0.66592717 2.04623270
-0.75186485 0.64224309 3.44584632
-0.01071400 -0.92799044 1.94105625
1.34008789 0.42788005 3.59641099
2.45993423 -0.36204252 0.33282787
-2.23773432 0.42718086 -1.54977262
-1.60939693 -0.47912484 3.04786253
1.77366602 -0.43896198 -2.87727880
1.35371757 0.81622052 -1.43888831
-1.45554769 -0.60352039 -2.80299926
1.20162821 -0.47162715 -3.63580179
1.85218692 -0.49923748 2.46730065
-1.01605380 0.49563470 3.74797964
0.10100404 0.97269499 -1.35843396
-2.40853691 0.22818024 1.63722527
2.05474639 0.62008309 -0.69193816
2.25549722 0.50213516 0.76193833
-1.72653818 -0.25634336 3.41307306
1.73421621 -0.11028671 -3.57041669
0.43677446 -0.97769934 -1.01406097
-2.37402415 0.12070303 2.01634097
-1.01819289 -0.54677844 3.58430266
0.74466407 -0.24885367 -4.43871593
-1.19615579 0.22336100 4.13391924
-1.60606623 0.40161645 -3.29298139
1.80245769 0.37881684 -3.00774240
-0.48679113 0.00205539 -4.70353460
-0.71606249 -0.12470417 -4.56950712
-2.56193733 0.19742145 -0.68291062
2.41287422 -0.33566621 1.13083529
2.45377159 -0.36608103 -0.38034591
1.13050592 -0.40703049 3.87536049
-0.13694237 -0.45133489 4.27936888
1.48245919 -0.40265104 3.47544074
-0.73189253 -0.92086846 1.51749933
-0.71263146 0.88895309 1.91589224
0.27103311 0.47926015 4.19049168
0.02167753 1.01010025 -0.46469471
-1.68242371 0.53371221 -2.69552588
1.62111163 0.80094522 -0.12581055
-0.41278750 -0.25210598 4.57599401
1.58773899 -0.12742649 3.77627230
-1.07300079 -0.73649555 -2.65830541
-1.59550607 -0.03334685 3.81080961
-2.49935889 0.30996698 0.49211657
-2.44710088 -0.32434317 -0.94229370
2.36353517 0.15419316 2.00527167
0.08139646 0.89089096 2.28958368
-0.37672809 0.94225883 -1.64336014
1.94575214 -0.58596873 1.68170881
0.80837572 -0.72133064 3.03120780
1.97985649 0.24869181 2.94084787
2.13923812 -0.42638806 -1.95774114
1.43477380 -0.35958192 -3.64251757
2.16234922 -0.28579941 -2.39469385
1.77951467 -0.74981648 0.01644363
1.50446522 0.16611612 3.85378671
-1.54008567 0.81880605 0.44954047
1.49020576 0.62818599 2.61578870
0.46381044 0.10423391 4.68610287
-0.94860995 0.72589636 2.86932826
-0.12771417 -0.71668553 -3.38152766
-0.94786876 0.94300389 -0.43013704
-1.80251765 0.73223853 0.56745559
1.54654324 0.30900368 3.59418416
-0.18676192 0.57299757 3.93625927
-0.80003244 0.70352495 -3.13108778
-2.45925260 0.27093610 -1.18364370
-1.23905563 -0.12208379 4.18693686
1.16394830 0.04205874 -4.29127836
-0.67213982 0.52757359 3.90280247
-0.74174809 -0.12244047 4.55656910
-1.12277639 -0.88222337 1.21062493
-0.42362046 0.85884666 2.43250489
-1.88131464 0.38877508 -2.81389737
-0.79466772 -0.28576648 -4.35994053
-2.60663319 0.15869145 0.15001281
-0.02714416 0.06944911 4.77391291
0.79407740 -0.87220562 -1.98367536
-1.92872584 -0.01942413 3.26712084
0.69633740 0.25617322 -4.45499802
-1.52132249 0.27961645 -3.68303442
2.47267985 -0.14102940 -1.54508030
2.45986342 -0.05958283 1.71671414
-1.77470565 -0.42414638 -2.92481709
-1.94297135 -0.32176545 2.86278963
-0.00803835 -0.98730469 1.11312461
-1.03391528 0.83628607 1.96314180
-0.55515945 -0.76274747 2.99434638
1.86120713 -0.30407700 -3.07661605
-0.05382663 -1.01467240 0.13615364
0.97076988 -0.14567333 4.39753389
1.59991610 0.68017548 2.05204129
0.63033020 0.50845349 3.98152208
0.39504722 -0.15728214 -4.67309570
0.38413385 0.80452931 -2.83479810
1.21913970 -0.84268725 1.49552083
-2.00952744 -0.51090127 1.95982909
2.25098491 -0.04500719 2.49255157
-2.28889489 -0.32336220 -1.83328688
0.24025150 -0.88281620 -2.32072616
2.39925504 0.25750765 -1.58518744
0.52563649 -0.56055200 3.87396193
-1.37405217 0.17354532 -4.00368595
2.57068205 -0.06427962 -1.05143082
-0.28253135 0.59409112 -3.84645748
0.51618320 0.99426323 -0.22645110
-1.38591731 0.82834536 -1.15607154
2.54099011 0.13922232 -1.12366247
-2.29536819 0.18624938 -2.19727612
-0.12319626 0.72517151 3.34333897
-2.34340477 -0.39797103 1.15873337
-1.26285589 0.40179309 3.75101352
1.70834422 0.74730510 0.94861048
-0.76408786 -0.42099598 4.12847471
-2.16226339 -0.15448734 2.64803934
-1.51361263 0.82950908 -0.29235163
0.97484410 0.31310537 4.19647884
-1.99553633 0.57058829 1.60551989
-2.61741304 -0.12397674 -0.24253958
-1.25056505 0.04534867 -4.21019936
-0.20994948 -0.48106202 -4.19799805
1.66169667 0.64554185 -2.13940525
-0.42262596 0.08845507 4.70532465
-1.95823157 -0.50385445 -2.15958190
-0.19039871 -0.98715580 -1.06500351
1.88434017 0.70804602 -0.30344859
1.00175059 -0.08689666 -4.40993547
0.90165418 0.79322571 -2.49804115
-2.41108465 -0.40729904 0.36071539
-0.59463519 0.98691577 0.29873455
-2.03829646 -0.64340341 0.21362959
2.56547499 0.00558937 1.13223529
-2.48992705 -0.18339930 1.33679724
0.34512714 -0.57057595 -3.90825105
1.03025413 0.93390882 -0.16769460
1.64183927 -0.70033503 1.77613163
2.12104201 -0.58940625 0.63334578
1.98627388 -0.61433268 -1.24564612
-2.54188037 -0.10303872 -1.19720936
-1.79962444 -0.69582623 -1.22299457
2.52534580 0.17736390 1.11788559
0.94252473 0.74213105 2.78347540
2.29573727 -0.34034622 1.73707604
1.49076629 -0.59533215 -2.78031492
-0.46792731 -0.97137475 1.10017753
-2.29496837 -0.48945764 -0.52143896
-0.49620578 0.16869150 -4.63333607
-1.38892305 0.51376796 -3.27104950
0.51831126 -0.95618671 1.30519056
-1.49434316 0.66901648 -2.37222171
0.44787920 -0.85168427 2.47328067
0.17715691 -0.95718694 -1.56083715
-0.06487731 -0.24577874 -4.64254236
-1.67156863 -0.24121822 -3.52628183
2.49257231 0.01226189 -1.57718813
-1.82807410 0.47849774 2.61493564
-2.58588457 -0.01486187 0.96282214
0.49073255 -0.38654450 -4.33480787
1.42387009 -0.84438318 -0.63349378
1.44705486 -0.58004892 2.92267013
2.56072354 0.24490753 -0.18044436
-1.07295060 0.34205955 -4.06473541
0.51793683 0.07863342 -4.67797852
2.21654773 -0.54775321 -0.29793817
-2.27132082 0.42149788 1.41359675
3 135 229 189
3 110 247 223
3 223 247 83
3 30 31 99
3 209 229 135
3 209 223 83
3 38 189 229
3 64 43 38
3 38 43 189
3 94 194 69
3 149 181 146
3 80 233 188
3 146 181 131
3 146 131 141
3 141 131 188
3 110 223 205
3 237 68 22
3 172 144 29
3 198 86 191
3 191 251 198
3 69 194 198
3 198 251 69
3 51 226 186
3 23 78 132
3 99 31 132
3 19 78 23
3 165 30 11
3 23 190 242
3 159 76 59
3 59 108 159
3 248 184 112
3 243 184 248
3 211 243 248
3 248 224 211
3 211 224 82
3 82 30 211
3 34 224 58
3 234 47 58
3 58 47 34
3 21 43 64
3 174 30 99
3 135 189 236
3 46 48 230
3 227 94 119
3 167 149 44
3 44 213 167
3 49 80 188
3 188 131 49
3 136 141 188
3 182 55 28
3 148 55 182
3 250 226 101
3 180 109 52
3 186 239 52
3 52 51 186
3 72 149 167
3 181 149 72
3 72 71 181
3 121 140 250
3 107 158 133
3 96 107 175
3 175 107 205
3 68 237 252
3 252 61 68
3 68 61 195
3 61 156 195
3 245 198 194
3 86 198 245
3 245 194 172
3 172 29 245
3 245 29 86
3 59 76 62
3 191 86 12
3 86 29 12
3 81 251 191
3 191 105 81
3 212 105 191
3 191 12 212
3 203 182 28
3 17 144 172
3 60 47 1
3 1 47 234
3 168 190 34
3 34 47 168
3 109 242 168
3 168 242 190
3 168 47 60
3 227 226 145
3 226 51 145
3 145 1 228
3 109 168 18
3 18 168 60
3 18 52 109
3 51 52 18
3 180 19 215
3 215 19 23
3 23 242 215
3 215 109 180
3 215 242 109
3 78 19 4
3 4 41 46
3 70 243 211
3 70 165 243
3 211 30 70
3 30 165 70
3 116 237 22
3 22 184 116
3 116 184 243
3 25 29 144
3 25 108 59
3 25 12 29
3 217 108 14
3 217 159 108
3 217 14 112
3 112 184 217
3 253 184 22
3 253 217 184
3 159 217 253
3 112 14 45
3 45 248 112
3 224 248 45
3 45 58 224
3 151 224 34
3 151 82 224
3 34 190 151
3 151 190 23
3 31 30 151
3 30 82 151
3 23 132 151
3 151 132 31
3 210 252 237
3 237 116 210
3 43 21 244
3 244 174 43
3 244 210 11
3 21 210 244
3 11 30 244
3 30 174 244
3 214 236 189
3 48 236 214
3 214 230 48
3 189 43 214
3 43 174 214
3 214 174 99
3 201 205 223
3 201 175 205
3 221 236 48
3 46 41 221
3 221 48 46
3 78 230 77
3 99 132 77
3 77 132 78
3 77 214 99
3 230 214 77
3 222 94 69
3 222 119 94
3 69 251 231
3 231 222 69
3 136 222 231
3 141 136 50
3 50 55 141
3 136 231 50
3 93 55 148
3 148 2 93
3 93 2 183
3 16 85 246
3 110 205 16
3 220 75 152
3 233 80 139
3 80 101 139
3 227 119 139
3 139 119 233
3 139 226 227
3 139 101 226
3 180 52 176
3 176 52 239
3 63 41 3
3 3 26 63
3 89 13 92
3 92 241 89
3 13 176 92
3 239 241 92
3 92 176 239
3 5 239 186
3 5 241 239
3 140 241 5
3 186 226 5
3 5 226 250
3 250 140 5
3 40 178 89
3 40 15 178
3 89 241 40
3 40 241 140
3 181 71 27
3 71 121 27
3 27 131 181
3 140 121 192
3 192 40 140
3 15 40 192
3 71 15 192
3 192 121 71
3 33 21 64
3 37 156 240
3 61 252 238
3 128 240 238
3 238 156 61
3 238 240 156
3 127 220 53
3 75 220 127
3 53 196 127
3 196 103 127
3 127 138 75
3 103 138 127
3 106 81 105
3 106 203 28
3 106 50 231
3 251 81 106
3 106 231 251
3 84 7 218
3 84 212 7
3 7 212 115
3 115 212 12
3 115 62 7
3 228 17 254
3 254 94 227
3 227 145 254
3 254 145 228
3 249 18 60
3 51 18 249
3 249 145 51
3 60 1 249
3 1 145 249
3 54 230 78
3 78 4 54
3 46 230 54
3 54 4 46
3 243 165 117
3 117 116 243
3 117 165 11
3 11 210 117
3 117 210 116
3 179 25 144
3 108 25 179
3 144 97 179
3 35 25 59
3 12 25 35
3 35 115 12
3 59 62 35
3 62 115 35
3 142 17 228
3 234 97 142
3 144 17 142
3 142 97 144
3 142 1 234
3 228 1 142
3 234 58 100
3 58 45 100
3 100 97 234
3 100 45 14
3 193 210 21
3 193 33 171
3 21 33 193
3 171 252 193
3 252 210 193
3 187 41 63
3 175 201 187
3 187 221 41
3 201 221 187
3 63 96 187
3 96 175 187
3 236 221 219
3 219 221 201
3 219 209 135
3 135 236 219
3 223 209 219
3 219 201 223
3 173 136 188
3 173 222 136
3 188 233 173
3 233 119 173
3 119 222 173
3 148 182 232
3 232 2 148
3 6 2 232
3 182 203 232
3 126 155 44
3 126 44 149
3 183 2 126
3 207 93 183
3 207 126 149
3 183 126 207
3 207 149 146
3 141 55 154
3 55 93 154
3 146 141 154
3 154 207 146
3 93 207 154
3 246 255 104
3 104 16 246
3 110 16 104
3 104 247 110
3 133 85 169
3 85 16 169
3 169 16 205
3 169 107 133
3 205 107 169
3 208 255 246
3 246 90 208
3 235 176 13
3 235 19 180
3 180 176 235
3 124 235 13
3 178 26 24
3 26 3 24
3 89 178 24
3 3 124 24
3 24 13 89
3 24 124 13
3 111 107 96
3 111 96 63
3 63 26 111
3 111 26 178
3 123 27 121
3 123 121 250
3 123 49 131
3 131 27 123
3 250 101 123
3 80 49 123
3 123 101 80
3 255 208 20
3 199 33 64
3 164 33 199
3 37 240 57
3 57 240 197
3 57 197 152
3 152 75 57
3 75 138 57
3 114 252 171
3 114 238 252
3 171 33 114
3 114 33 164
3 114 164 128
3 128 238 114
3 36 195 156
3 36 185 195
3 36 156 37
3 37 57 36
3 36 57 138
3 103 185 36
3 36 138 103
3 66 62 76
3 7 62 66
3 76 159 170
3 159 253 170
3 170 66 76
3 79 66 170
3 87 106 28
3 50 106 87
3 28 55 87
3 55 50 87
3 105 212 98
3 212 84 98
3 94 254 120
3 120 254 17
3 194 94 120
3 172 194 120
3 120 17 172
3 143 179 97
3 97 100 143
3 143 100 14
3 14 108 143
3 108 179 143
3 200 126 2
3 155 126 200
3 200 2 6
3 6 163 200
3 53 220 74
3 246 85 9
3 9 202 246
3 177 90 150
3 150 90 246
3 247 104 166
3 83 247 166
3 166 209 83
3 166 118 209
3 88 4 19
3 19 235 88
3 41 4 88
3 204 161 158
3 158 107 204
3 107 111 204
3 128 164 95
3 164 199 95
3 153 208 90
3 153 20 208
3 229 209 32
3 209 118 32
3 32 38 229
3 64 38 32
3 32 199 64
3 73 66 79
3 73 185 218
3 218 7 73
3 7 66 73
3 195 185 73
3 73 79 195
3 79 170 39
3 68 195 39
3 195 79 39
3 22 68 39
3 39 253 22
3 39 170 253
3 65 103 196
3 218 185 65
3 65 185 103
3 65 84 218
3 65 98 84
3 163 74 125
3 177 150 125
3 125 150 163
3 125 220 177
3 125 74 220
3 53 74 137
3 137 232 53
3 6 232 137
3 137 163 6
3 137 74 163
3 213 44 42
3 44 0 42
3 42 161 213
3 158 161 42
3 155 200 91
3 91 200 163
3 163 150 91
3 118 166 56
3 162 124 3
3 162 3 41
3 41 88 162
3 235 124 162
3 162 88 235
3 161 204 130
3 130 72 167
3 167 213 130
3 213 161 130
3 197 240 10
3 10 240 128
3 128 95 10
3 147 90 177
3 147 153 90
3 147 220 152
3 177 220 147
3 105 98 216
3 98 129 216
3 216 129 203
3 216 106 105
3 203 106 216
3 98 65 225
3 225 129 98
3 225 65 196
3 203 129 225
3 225 196 53
3 53 232 225
3 225 232 203
3 133 158 113
3 158 42 113
3 113 0 202
3 113 42 0
3 155 91 160
3 44 155 160
3 160 0 44
3 102 91 150
3 246 202 102
3 102 150 246
3 102 160 91
3 202 0 102
3 0 160 102
3 118 56 67
3 20 10 67
3 67 10 95
3 134 56 166
3 134 104 255
3 134 166 104
3 255 20 134
3 20 67 134
3 134 67 56
3 122 130 204
3 178 15 122
3 122 15 71
3 122 111 178
3 122 204 111
3 71 72 122
3 72 130 122
3 152 197 206
3 206 147 152
3 153 147 206
3 197 10 206
3 20 153 206
3 206 10 20
3 8 85 133
3 133 113 8
3 8 9 85
3 202 9 8
3 8 113 202
3 118 67 157
3 157 67 95
3 157 32 118
3 157 95 199
3 199 32 157