ply
format ascii 1.0
comment https://github.com/mikedh/trimesh
element vertex 256
property float x
property float y
property float z
element face 508
property list uchar int vertex_indices
end_header
-1.01927149 1.25685918 1.97406387
1.92115450 -2.41705799 -0.72152060
0.84145510 2.29838562 1.57441592
-1.17756641 -2.90011096 0.85330957
-1.45294535 -3.00356054 -0.21786804
0.92434257 -2.85896492 1.06630659
0.16887201 2.71504641 1.40066397
1.72696614 1.72852516 -1.47159016
-1.69382155 1.03530979 1.75091910
-1.93144715 1.22485232 1.54326093
-2.26392984 2.05212569 -0.63571513
-1.29764712 -0.73728436 -1.99443150
2.47692323 0.89456844 -1.14247954
-0.41626340 -3.16737270 0.85019255
1.21330798 -0.95390350 -1.98475373
0.21944657 -1.86105263 1.91015637
-2.48742461 0.49521923 1.23178256
2.65325689 -1.28203821 -0.64592719
1.25179732 -3.07140374 -0.42545310
-0.80547160 -3.31983590 -0.13476370
-2.43516135 2.00474286 0.15774211
-2.08509374 -0.19469716 -1.63174415
-0.13035700 0.59561694 -2.23990417
-0.31177634 -3.21551108 -0.79619026
-0.69107008 -2.96911669 1.03900969
2.26486421 -0.11756366 -1.49153006
-1.07580018 -2.50924611 1.33505607
1.39067984 -0.91282886 1.92511976
2.15370440 2.13469768 0.73001212
2.59745789 -0.09178965 -1.13875544
-0.99525452 -1.85811639 -1.76396883
-1.03196871 -2.26716685 -1.52791452
-2.87220430 0.40558282 -0.60415947
-2.10634232 0.77463585 -1.53842711
0.62194788 -2.67342520 -1.36087978
2.12358975 0.82345808 -1.51407778
-0.40484822 2.95407057 -1.13940680
-0.99085504 2.68422055 -1.21931422
-2.72731757 -0.40556702 -0.91111600
0.46162724 1.10275519 -2.12850261
0.37486869 -2.47241926 1.56329501
-1.86519206 -2.64792180 0.36219218
-0.97484392 0.69624799 2.10359049
-2.27909374 -0.78880465 -1.38588309
-0.23522905 0.83785892 2.20127344
0.87261409 -1.57799292 -1.91324353
-1.97113740 -2.59432030 -0.14248131
1.34996247 -2.56487250 -1.12922108
-2.27175689 -2.19346380 -0.34487584
2.11443567 -0.70644951 1.54618454
2.55878425 1.19204485 0.89169967
1.57602310 -2.93178463 0.12310892
0.84509236 -3.29065967 0.25799391
0.35533679 3.41961861 0.17017190
-1.74308419 -2.75381422 -0.36959225
2.20570087 1.52673662 1.17020631
-2.88821745 0.92967331 -0.08421282
-1.14941335 2.90786099 -0.86356407
1.12054384 -2.16330123 -1.55729735
2.01583552 0.24179970 -1.67898989
1.59608603 -2.77751493 -0.60454595
-0.91378158 1.98375940 -1.72946513
1.81954896 0.90684766 -1.70821333
-1.82958412 -2.01447654 1.22207761
-2.52648807 0.14836933 -1.22425687
0.95059860 3.16500163 -0.55624372
1.17068851 1.44439328 -1.86717093
-2.74458289 1.31587327 -0.30529779
-0.34116814 1.18741286 -2.12164450
2.98820090 0.29443246 0.07278940
-0.65861452 -1.43594253 -2.00907493
0.65655720 -0.78969020 2.15913939
0.32624218 -0.38638693 2.24868083
0.90464932 1.83126307 -1.80386961
-0.49453568 3.26829195 0.63222116
-0.66871357 3.34597731 -0.24054109
1.35351884 0.59513557 -1.99361324
-1.90101695 -2.26973248 -0.92976344
-1.33057499 -2.86460638 -0.77159971
0.72760504 1.52495646 -1.96611083
2.33373666 -1.27089548 1.16035032
2.67776656 1.52384698 -0.21144235
-0.06343030 -2.05480719 -1.82881117
-2.99262953 -0.15111700 0.12575102
1.40438998 2.67636824 -0.96615237
-2.15781474 0.70343500 1.51297629
2.67535424 0.55843341 -0.96232224
2.45337176 1.65812910 0.72438395
-1.27750659 -3.12388659 0.05136343
-0.31891489 -2.85597610 1.25630534
-1.86633885 2.26529384 0.97331530
-0.85443759 2.18472743 1.63905847
-0.01217565 -3.15675807 0.92328686
1.52290869 1.45552552 1.71067631
2.79552937 -1.23156512 0.15831359
-2.54301596 1.45314705 -0.73716807
-1.82895803 -1.62984574 1.44975269
2.01563740 -1.49322307 -1.36861241
1.53839779 2.77654886 -0.68442464
-1.65412009 -2.05300379 -1.33328056
1.36555970 -1.60434067 -1.72941303
2.10487056 -1.69826305 1.17360139
-1.15466833 1.68600750 1.78277183
0.11478347 3.30883026 -0.64615554
-2.73712039 0.77620393 0.77876604
2.33506393 2.10934544 -0.32912874
2.56320238 1.70812011 0.36242518
-1.96208024 -0.87200677 1.62346947
1.97080564 -0.37516385 -1.69831181
0.49636120 -3.32585359 -0.48235038
-2.69789910 0.41059718 0.95909697
-1.15709925 -1.85998392 1.70491695
0.84625447 -0.84652901 -2.11132884
-1.35934067 0.75981027 1.96634853
-1.82517302 1.36618435 -1.56634641
2.04835701 1.28862655 -1.43066907
-0.55320138 0.00699184 -2.23729324
-0.81375092 -0.42420790 -2.17354131
-2.91144824 0.67157131 -0.32483470
2.74204922 -1.14184046 0.53789550
2.78852606 -1.24530303 -0.18091613
1.28473449 -1.38460124 1.84336209
-0.15562466 -1.53531218 2.03553343
1.68470287 -1.36970365 1.65313542
-0.83174062 -3.13253117 0.72181690
-0.80985188 3.02396417 0.91131729
0.30800867 1.63030601 1.99325800
0.02463487 3.43607211 -0.22103766
-1.91194749 1.81553626 -1.28215945
1.84227097 2.72458649 -0.05984331
-0.46910182 -0.85759246 2.17662692
1.80434537 -0.43346846 1.79622948
-1.21938431 -2.50534725 -1.26445508
-1.81317210 -0.11343645 1.81265759
-2.84033251 1.05441904 0.23408119
-2.78094530 -1.10332263 -0.44821340
2.68597937 0.52452105 0.95383173
0.09250093 3.03055620 1.08906817
-0.42812300 3.20529509 -0.78168410
2.21120048 -1.99329805 0.79992515
0.91865790 -2.45376062 1.44183064
2.24995732 0.84597844 1.39884996
2.43108249 -1.45045018 -0.93122327
1.63051212 -1.22319484 -1.73260748
2.45734668 -0.97220784 -1.13906503
2.02228403 -2.55066109 0.00782161
1.70971107 0.56507951 1.83310032
-1.75019097 2.78534412 0.21382935
1.69350624 2.13690901 1.24423146
0.52708554 0.35457394 2.22900152
-1.07802355 2.46929169 1.36483073
-0.14513750 -2.43795919 -1.60846448
-1.07718122 3.20782948 -0.20459989
-2.04842520 2.49086595 0.26991710
1.75752962 1.05114222 1.70961714
-0.21224082 1.94917381 1.87232935
-0.90917647 2.39319062 -1.48933983
-2.79475474 0.92164719 -0.56301445
-1.40809321 -0.41529414 1.99156725
1.32273936 0.14307179 -2.04119825
-0.76383615 1.79465437 1.85641527
-0.84294069 -0.41650748 2.16738725
-1.27595067 -3.00107169 0.57584840
-0.48141265 2.92155075 1.15705037
-2.13797188 1.32250166 -1.33846426
-0.90307987 -0.97209585 -2.07385850
-2.96224165 0.53982294 0.07135541
-0.03084728 0.23624602 2.27076936
0.90240896 -2.96699405 -0.94355917
-2.19185114 -0.06607533 1.55404556
0.79133487 0.87142801 -2.11907363
-1.72886813 0.95117515 -1.75187981
2.81001377 -0.47974169 -0.73493612
2.79544902 -0.20268376 0.81657583
-2.01681900 -1.44282472 -1.39122462
-2.20804024 -1.09455407 1.36172056
-0.00913498 -3.35852814 0.52947122
-1.17496669 2.84480596 0.93379211
-0.63089681 -2.59464860 1.42429709
2.11512136 -1.03438306 -1.46342969
-0.06116990 -3.45162535 0.06476312
1.10320663 -0.49553901 2.09174013
1.81818378 2.31376243 0.97607827
0.71632266 1.72961342 1.89385903
0.44894132 -0.53502887 -2.22281456
0.43653911 2.73677874 -1.34840596
1.38546014 -2.86658096 0.71136260
-2.28367615 -1.73793995 0.93221641
2.55807424 -0.15310159 1.18561220
-2.60115623 -1.09998572 -0.87202507
0.27302769 -3.00308824 -1.10388148
2.72657204 0.87596738 -0.75401354
0.59734619 -1.90683770 1.84269691
-1.56150651 0.59035152 -1.90440154
2.92138600 -0.21866086 -0.50012577
-0.32107553 2.02092814 -1.82961392
0.58660322 3.38219929 -0.10771421
-1.57499027 2.81779408 -0.54989946
2.88764334 0.47359452 -0.53448367
-2.60851264 0.63356709 -1.04516089
-0.14000325 2.46682620 1.59029961
-2.66310239 -1.35378361 0.55116552
-1.43514037 1.36678517 1.78421497
1.94140422 2.54211831 0.45121804
-0.86832809 -1.43210793 1.96375895
-2.45724916 -0.52552176 1.25957191
-1.72010648 2.82175279 -0.13906059
1.10783672 1.06509495 1.99610579
-2.26777625 1.94097829 0.76368493
-2.97449231 -0.42173341 -0.11536688
-1.42117274 0.15426321 -2.00263238
-0.23859173 -1.63643539 -1.99682856
1.88839269 2.19594860 -1.01763391
-0.48028249 0.30089885 2.23814464
-2.22538233 -1.71396887 -1.02723134
-0.21637374 -3.35802150 -0.50658178
2.14141011 2.40857005 -0.14433898
1.13841391 -0.29559758 -2.09763908
1.02466190 2.69832706 -1.18822348
-2.74001551 -1.38551486 0.17157863
-0.67575800 3.35720515 0.14209670
-2.31636977 -2.18867445 0.10161550
2.91546869 0.01901344 0.53856140
-2.82961392 -0.62387198 0.63586372
0.39221093 -1.94093633 -1.85900676
1.17080605 3.17689085 -0.07976597
1.86582625 -2.38233948 0.84483850
2.41040421 -2.00499153 0.30125859
2.25725007 -2.08978415 -0.59250665
-2.88865519 -0.35050824 -0.56946713
-2.04513717 -2.36700177 -0.58173215
2.86986470 0.60334128 0.53173578
1.07110810 2.52451754 1.32399368
2.60893202 -1.15776050 0.82626122
1.69414330 -2.02514982 -1.32249033
-0.53176403 -3.30433893 0.52331275
-2.60805821 -1.66499496 -0.24802874
-0.56390041 0.57384026 -2.20390224
-1.57840610 1.74769163 -1.55591416
0.58902162 -3.25267363 0.62082970
-1.69820809 2.27580285 -1.12837589
0.50898087 -2.89718628 1.17644584
0.20132545 -3.25607634 -0.74243104
-0.07372816 -0.83606899 -2.20828152
-1.89961147 -0.82055545 -1.67731857
2.83262038 0.04171145 -0.75020856
-2.07746816 1.62771237 1.24382579
-2.93866253 -0.05055584 0.45797801
0.55768049 -1.31491387 -2.06190372
1.61812079 -2.87234998 -0.30132896
1.64446855 -1.97316062 1.39020336
2.91006875 0.83310539 -0.08583054
-1.21932733 1.16358876 -1.93344045
0.58859605 0.26748842 -2.22513700
2.51893902 -1.86329985 -0.14171790
-2.58118463 1.43381524 0.67239439
3 135 229 189
3 110 247 223
3 223 247 83
3 30 31 99
3 209 229 135
3 209 223 83
3 38 189 229
3 64 43 38
3 38 43 189
3 94 194 69
3 149 181 146
3 80 233 188
3 146 181 131
3 146 131 141
3 141 131 188
3 110 223 205
3 237 68 22
3 172 144 29
3 198 86 191
3 191 251 198
3 69 194 198
3 198 251 69
3 51 226 186
3 23 78 132
3 99 31 132
3 19 78 23
3 165 30 11
3 23 190 242
3 159 76 59
3 59 108 159
3 248 184 112
3 243 184 248
3 211 243 248
3 248 224 211
3 211 224 82
3 82 30 211
3 34 224 58
3 234 47 58
3 58 47 34
3 21 43 64
3 174 30 99
3 135 189 236
3 46 48 230
3 227 94 119
3 167 149 44
3 44 213 167
3 49 80 188
3 188 131 49
3 136 141 188
3 182 55 28
3 148 55 182
3 250 226 101
3 180 109 52
3 186 239 52
3 52 51 186
3 72 149 167
3 181 149 72
3 72 71 181
3 121 140 250
3 107 158 133
3 96 107 175
3 175 107 205
3 68 237 252
3 252 61 68
3 68 61 195
3 61 156 195
3 245 198 194
3 86 198 245
3 245 194 172
3 172 29 245
3 245 29 86
3 59 76 62
3 191 86 12
3 86 29 12
3 81 251 191
3 191 105 81
3 212 105 191
3 191 12 212
3 203 182 28
3 17 144 172
3 60 47 1
3 1 47 234
3 168 190 34
3 34 47 168
3 109 242 168
3 168 242 190
3 168 47 60
3 227 226 145
3 226 51 145
3 145 1 228
3 109 168 18
3 18 168 60
3 18 52 109
3 51 52 18
3 180 19 215
3 215 19 23
3 23 242 215
3 215 109 180
3 215 242 109
3 78 19 4
3 4 41 46
3 70 243 211
3 70 165 243
3 211 30 70
3 30 165 70
3 116 237 22
3 22 184 116
3 116 184 243
3 25 29 144
3 25 108 59
3 25 12 29
3 217 108 14
3 217 159 108
3 217 14 112
3 112 184 217
3 253 184 22
3 253 217 184
3 159 217 253
3 112 14 45
3 45 248 112
3 224 248 45
3 45 58 224
3 151 224 34
3 151 82 224
3 34 190 151
3 151 190 23
3 31 30 151
3 30 82 151
3 23 132 151
3 151 132 31
3 210 252 237
3 237 116 210
3 43 21 244
3 244 174 43
3 244 210 11
3 21 210 244
3 11 30 244
3 30 174 244
3 214 236 189
3 48 236 214
3 214 230 48
3 189 43 214
3 43 174 214
3 214 174 99
3 201 205 223
3 201 175 205
3 221 236 48
3 46 41 221
3 221 48 46
3 78 230 77
3 99 132 77
3 77 132 78
3 77 214 99
3 230 214 77
3 222 94 69
3 222 119 94
3 69 251 231
3 231 222 69
3 136 222 231
3 141 136 50
3 50 55 141
3 136 231 50
3 93 55 148
3 148 2 93
3 93 2 183
3 16 85 246
3 110 205 16
3 220 75 152
3 233 80 139
3 80 101 139
3 227 119 139
3 139 119 233
3 139 226 227
3 139 101 226
3 180 52 176
3 176 52 239
3 63 41 3
3 3 26 63
3 89 13 92
3 92 241 89
3 13 176 92
3 239 241 92
3 92 176 239
3 5 239 186
3 5 241 239
3 140 241 5
3 186 226 5
3 5 226 250
3 250 140 5
3 40 178 89
3 40 15 178
3 89 241 40
3 40 241 140
3 181 71 27
3 71 121 27
3 27 131 181
3 140 121 192
3 192 40 140
3 15 40 192
3 71 15 192
3 192 121 71
3 33 21 64
3 37 156 240
3 61 252 238
3 128 240 238
3 238 156 61
3 238 240 156
3 127 220 53
3 75 220 127
3 53 196 127
3 196 103 127
3 127 138 75
3 103 138 127
3 106 81 105
3 106 203 28
3 106 50 231
3 251 81 106
3 106 231 251
3 84 7 218
3 84 212 7
3 7 212 115
3 115 212 12
3 115 62 7
3 228 17 254
3 254 94 227
3 227 145 254
3 254 145 228
3 249 18 60
3 51 18 249
3 249 145 51
3 60 1 249
3 1 145 249
3 54 230 78
3 78 4 54
3 46 230 54
3 54 4 46
3 243 165 117
3 117 116 243
3 117 165 11
3 11 210 117
3 117 210 116
3 179 25 144
3 108 25 179
3 144 97 179
3 35 25 59
3 12 25 35
3 35 115 12
3 59 62 35
3 62 115 35
3 142 17 228
3 234 97 142
3 144 17 142
3 142 97 144
3 142 1 234
3 228 1 142
3 234 58 100
3 58 45 100
3 100 97 234
3 100 45 14
3 193 210 21
3 193 33 171
3 21 33 193
3 171 252 193
3 252 210 193
3 187 41 63
3 175 201 187
3 187 221 41
3 201 221 187
3 63 96 187
3 96 175 187
3 236 221 219
3 219 221 201
3 219 209 135
3 135 236 219
3 223 209 219
3 219 201 223
3 173 136 188
3 173 222 136
3 188 233 173
3 233 119 173
3 119 222 173
3 148 182 232
3 232 2 148
3 6 2 232
3 182 203 232
3 126 155 44
3 126 44 149
3 183 2 126
3 207 93 183
3 207 126 149
3 183 126 207
3 207 149 146
3 141 55 154
3 55 93 154
3 146 141 154
3 154 207 146
3 93 207 154
3 246 255 104
3 104 16 246
3 110 16 104
3 104 247 110
3 133 85 169
3 85 16 169
3 169 16 205
3 169 107 133
3 205 107 169
3 208 255 246
3 246 90 208
3 235 176 13
3 235 19 180
3 180 176 235
3 124 235 13
3 178 26 24
3 26 3 24
3 89 178 24
3 3 124 24
3 24 13 89
3 24 124 13
3 111 107 96
3 111 96 63
3 63 26 111
3 111 26 178
3 123 27 121
3 123 121 250
3 123 49 131
3 131 27 123
3 250 101 123
3 80 49 123
3 123 101 80
3 255 208 20
3 199 33 64
3 164 33 199
3 37 240 57
3 57 240 197
3 57 197 152
3 152 75 57
3 75 138 57
3 114 252 171
3 114 238 252
3 171 33 114
3 114 33 164
3 114 164 128
3 128 238 114
3 36 195 156
3 36 185 195
3 36 156 37
3 37 57 36
3 36 57 138
3 103 185 36
3 36 138 103
3 66 62 76
3 7 62 66
3 76 159 170
3 159 253 170
3 170 66 76
3 79 66 170
3 87 106 28
3 50 106 87
3 28 55 87
3 55 50 87
3 105 212 98
3 212 84 98
3 94 254 120
3 120 254 17
3 194 94 120
3 172 194 120
3 120 17 172
3 143 179 97
3 97 100 143
3 143 100 14
3 14 108 143
3 108 179 143
3 200 126 2
3 155 126 200
3 200 2 6
3 6 163 200
3 53 220 74
3 246 85 9
3 9 202 246
3 177 90 150
3 150 90 246
3 247 104 166
3 83 247 166
3 166 209 83
3 166 118 209
3 88 4 19
3 19 235 88
3 41 4 88
3 204 161 158
3 158 107 204
3 107 111 204
3 128 164 95
3 164 199 95
3 153 208 90
3 153 20 208
3 229 209 32
3 209 118 32
3 32 38 229
3 64 38 32
3 32 199 64
3 73 66 79
3 73 185 218
3 218 7 73
3 7 66 73
3 195 185 73
3 73 79 195
3 79 170 39
3 68 195 39
3 195 79 39
3 22 68 39
3 39 253 22
3 39 170 253
3 65 103 196
3 218 185 65
3 65 185 103
3 65 84 218
3 65 98 84
3 163 74 125
3 177 150 125
3 125 150 163
3 125 220 177
3 125 74 220
3 53 74 137
3 137 232 53
3 6 232 137
3 137 163 6
3 137 74 163
3 213 44 42
3 44 0 42
3 42 161 213
3 158 161 42
3 155 200 91
3 91 200 163
3 163 150 91
3 118 166 56
3 162 124 3
3 162 3 41
3 41 88 162
3 235 124 162
3 162 88 235
3 161 204 130
3 130 72 167
3 167 213 130
3 213 161 130
3 197 240 10
3 10 240 128
3 128 95 10
3 147 90 177
3 147 153 90
3 147 220 152
3 177 220 147
3 105 98 216
3 98 129 216
3 216 129 203
3 216 106 105
3 203 106 216
3 98 65 225
3 225 129 98
3 225 65 196
3 203 129 225
3 225 196 53
3 53 232 225
3 225 232 203
3 133 158 113
3 158 42 113
3 113 0 202
3 113 42 0
3 155 91 160
3 44 155 160
3 160 0 44
3 102 91 150
3 246 202 102
3 102 150 246
3 102 160 91
3 202 0 102
3 0 160 102
3 118 56 67
3 20 10 67
3 67 10 95
3 134 56 166
3 134 104 255
3 134 166 104
3 255 20 134
3 20 67 134
3 134 67 56
3 122 130 204
3 178 15 122
3 122 15 71
3 122 111 178
3 122 204 111
3 71 72 122
3 72 130 122
3 152 197 206
3 206 147 152
3 153 147 206
3 197 10 206
3 20 153 206
3 206 10 20
3 8 85 133
3 133 113 8
3 8 9 85
3 202 9 8
3 8 113 202
3 118 67 157
3 157 67 95
3 157 32 118
3 157 95 199
3 199 32 157