ply
format ascii 1.0
comment https://github.com/mikedh/trimesh
element vertex 256
property float x
property float y
property float z
element face 508
property list uchar int vertex_indices
end_header
-1.53252506 1.19093120 3.90700960
2.88855076 -2.29027224 -1.42801261
1.26516938 2.17782497 3.11603808
-1.77052927 -2.74798703 1.68884552
-2.18457508 -2.84601021 -0.43119809
1.38979471 -2.70899916 2.11040282
0.25390741 2.57262993 2.77215338
2.59657884 1.63785613 -2.91252828
-2.54674459 0.98100311 3.46536803
-2.90402627 1.16060328 3.05437708
-3.40393043 1.94448233 -1.25818884
-1.95107651 -0.69861048 -3.94732070
3.72417665 0.84764421 -2.26116228
-0.62587261 -3.00122976 1.68267632
1.82426858 -0.90386695 -3.92816663
0.32994875 -1.76343203 3.78052568
-3.73996568 0.46924275 2.43790817
3.98930287 -1.21478939 -1.27840030
1.88213909 -2.91029453 -0.84204435
-1.21106637 -3.14569545 -0.26672038
-3.66138554 1.89958501 0.31219858
-3.13504171 -0.18448441 -3.22950053
-0.19599818 0.56437409 -4.43315315
-0.46877116 -3.04684281 -1.57579660
-1.03905797 -2.81337309 2.05637789
3.40533543 -0.11139692 -2.95199275
-1.61751866 -2.37762475 2.64230394
2.09095573 -0.86494684 3.81014109
3.23820114 2.02272296 1.44481862
3.90540648 -0.08697486 -2.25379157
-1.49641442 -1.76064968 -3.49119568
-1.55161607 -2.14824367 -3.02400374
-4.31850100 0.38430816 -1.19573474
-3.16698956 0.73400271 -3.04481030
0.93512940 -2.53319192 -2.69341373
3.19292212 0.78026396 -2.99661851
-0.60870928 2.79911613 -2.25508070
-1.48979950 2.54342103 -2.41323113
-4.10065699 -0.38429320 -1.80325425
0.69407940 1.04491067 -4.21267033
0.56363362 -2.34272981 3.09402800
-2.80440831 -2.50902629 0.71684021
-1.46572602 0.65972662 4.16336536
-3.42673016 -0.74742824 -2.74289942
-0.35367849 0.79390943 4.35669613
1.31201839 -1.49522007 -3.78663588
-2.96370244 -2.45823646 -0.28199485
2.02973533 -2.43033338 -2.23492146
-3.41569853 -2.07840657 -0.68256819
3.17915845 -0.66939306 3.06016350
3.84725881 1.12951660 1.76482606
2.36962867 -2.77799916 0.24365360
1.27063811 -3.11804962 0.51061398
0.53426641 3.24024415 0.33679926
-2.62081313 -2.60936427 -0.73148620
3.31638026 1.44665229 2.31603813
-4.34257746 0.88090771 -0.16667156
-1.72819972 2.75533056 -1.70914090
1.68479311 -2.04982638 -3.08215761
3.03090835 0.22911620 -3.32300782
2.39979410 -2.63182163 -1.19649971
-1.37391579 1.87970221 -3.42290688
2.73578191 0.85927933 -3.38084602
-2.75087023 -1.90880799 2.41870046
-3.79869986 0.14058669 -2.42301345
1.42927194 2.99898291 -1.10090137
1.76018810 1.36862826 -3.69545031
-4.12661600 1.24684966 -0.60423648
-0.51296318 1.12512767 -4.19909668
4.49290752 0.27898815 0.14406265
-0.99025947 -1.36062086 -3.97630262
0.98716617 -0.74826735 4.27330542
0.49052125 -0.36611918 4.45052338
1.36018491 1.73520494 -3.57016611
-0.74355882 3.09685516 1.25127363
-1.00544393 3.17046547 -0.47607189
2.03508258 0.56391799 -3.94570136
-2.85827303 -2.15067482 -1.84016061
-2.00058532 -2.71434474 -1.52712774
1.09399021 1.44496560 -3.89126921
3.50888824 -1.20423126 2.29653144
4.02615452 1.44391429 -0.41848055
-0.09537059 -1.94702327 -3.61952972
-4.49956608 -0.14319023 0.24888277
2.11156964 2.53598046 -1.91218066
-3.24438119 0.66653663 2.99443865
4.02252722 0.52914101 -1.90460002
3.68876576 1.57115269 1.43367958
-1.92079425 -2.96002436 0.10165702
-0.47950429 -2.70616722 2.48644304
-2.80613279 2.14646888 1.92635727
-1.28468919 2.07012844 3.24397683
-0.01830670 -2.99117184 1.82734251
2.28976846 1.37917662 3.38572073
4.20321655 -1.16696393 0.31332964
-3.82355046 1.37692297 -1.45898163
-2.74992895 -1.54435289 2.86930823
3.03061056 -1.41489673 -2.70871782
2.31305695 2.63090634 -1.35459328
-2.48705125 -1.94531441 -2.63878989
2.05318642 -1.52018571 -3.42280388
3.16477680 -1.60918152 2.32275772
-1.73610091 1.59756875 3.52841020
0.17258261 3.13526702 -1.27885222
-4.11539555 0.73548853 1.54131103
3.51088428 1.99870062 -0.65140206
3.85390139 1.61852145 0.71730137
-2.95008469 -0.82626605 3.21312356
2.96320367 -0.35548481 -3.36124921
0.74630356 -3.15139747 -0.95465380
-4.05642462 0.38905948 1.89821684
-1.73975599 -1.76241934 3.37432194
1.27238536 -0.80212468 -4.17868042
-2.04383588 0.71995479 3.89173985
-2.74423790 1.29452169 -3.10006714
3.07980609 1.22103226 -2.83153844
-0.83176559 0.00662508 -4.42798567
-1.22351468 -0.40195626 -4.30180979
-4.37750626 0.63634431 -0.64290339
4.12280655 -1.08194578 1.06458712
4.19268656 -1.17998123 -0.35806394
1.93166184 -1.31197262 3.64832854
-0.23398936 -1.45477808 4.02866840
2.53303409 -1.29785645 3.27183747
-1.25056314 -2.96821570 1.42859900
-1.21765232 2.86534357 1.80365264
0.46310627 1.54478896 3.94499826
0.03703975 3.25583458 -0.43747130
-2.87470746 1.72030318 -2.53761268
2.76994538 2.58166957 -0.11844013
-0.70531774 -0.81260782 4.30791664
2.71292257 -0.41073105 3.55504513
-1.83340466 -2.37393045 -2.50257254
-2.72619390 -0.10748619 3.58755922
-4.27058029 0.99910992 0.46328667
-4.18128872 -1.04544842 -0.88709086
4.03850269 0.49700755 1.88779604
0.13907972 2.87158966 2.15545201
-0.64370412 3.03716278 -1.54708648
3.32464910 -1.88874054 1.58318853
1.38124764 -2.32504964 2.85362935
3.38292193 0.80160302 2.76856303
3.65525246 -1.37436748 -1.84305000
2.45155549 -1.15903270 -3.42912626
3.69474196 -0.92121112 -2.25440431
3.04060411 -2.41686726 0.01548030
2.57063508 0.53543854 3.62801862
-2.63149858 2.63924003 0.42320481
2.54627037 2.02481842 2.46254683
0.79249913 0.33597493 4.41157484
-1.62086165 2.33976626 2.70123315
-0.21822141 -2.31007719 -3.18342614
-1.61959517 3.03956437 -0.40493813
-3.07990837 2.36020875 0.53421205
2.64253259 0.99600500 3.38362432
-0.31911457 1.84693074 3.70565963
-1.36699176 2.26765680 -2.94765782
-4.20205212 0.87330258 -1.11430180
-2.11713767 -0.39351007 3.94165182
1.98880398 0.13556702 -4.03988028
-1.14846539 1.70051658 3.67416286
-1.26740301 -0.39465976 4.28962946
-1.91845489 -2.84365177 1.13970244
-0.72382772 2.76830196 2.29000020
-3.21454644 1.25313044 -2.64904952
-1.35782516 -0.92110503 -4.10452032
-4.45387697 0.51150680 0.14122455
-0.04638042 0.22385384 4.49424028
1.35681653 -2.81136179 -1.86746478
-3.29555655 -0.06260937 3.07572174
1.18981111 0.82571769 -4.19400883
-2.59943867 0.90128171 -3.46726942
4.22499466 -0.45457706 -1.45456409
4.20309591 -0.19205207 1.61614311
-3.03238678 -1.36714196 -2.75347114
-3.31989765 -1.03713977 2.69507766
-0.01373489 -3.18235826 1.04791403
-1.76662040 2.69558311 1.84813416
-0.94858450 -2.45854759 2.81892729
3.18018961 -0.98012489 -2.89637733
-0.09197196 -3.27057195 0.12817729
1.65872574 -0.46954575 4.13991117
2.73372912 2.19239521 1.93182576
1.07702649 1.63888729 3.74827075
0.67500544 -0.50696421 -4.39932966
0.65635812 2.59322214 -2.66872573
2.08310771 -2.71621585 1.40790808
-3.43361998 -1.64677703 1.84501553
3.84619117 -0.14507072 2.34652925
-3.91096687 -1.04228640 -1.72588658
0.41051060 -2.84556246 -2.18477011
4.09953594 0.83001894 -1.49232173
0.89813954 -1.80681539 3.64701200
-2.34780216 0.55938488 -3.76913619
4.39244843 -0.20719111 -0.98983437
-0.48275295 1.91492116 -3.62111878
0.88198692 3.20478749 -0.21318482
-2.36807585 2.66998792 -1.08834493
4.34171438 0.44875234 -1.05783451
-3.92202783 0.60033363 -2.06855202
-0.21050180 2.33742976 3.14747453
-4.00410604 -1.28277147 1.09085083
-2.15780449 1.29509103 3.53126621
2.91899705 2.40877271 0.89303762
-1.30557418 -1.35698736 3.88661456
-3.69459558 -0.49795574 2.49290800
-2.58626509 2.67373896 -0.27522469
1.66568720 1.00922596 3.95063448
-3.40971375 1.83916509 1.51146293
-4.47229624 -0.39961159 -0.22833078
-2.13680339 0.14617141 -3.96355152
-0.35873446 -1.55059695 -3.95206475
2.83929181 2.08076119 -2.01407146
-0.72212845 0.28511533 4.42967081
-3.34597206 -1.62406337 -2.03306627
-0.32532862 -3.18187809 -1.00261188
3.21971607 2.28222966 -0.28567150
1.71166158 -0.28009215 -4.15158606
1.54062974 2.55678749 -2.35169721
-4.11974859 -1.31283832 0.33958343
-1.01603556 3.18110466 0.28123364
-3.48277664 -2.07386851 0.20111443
4.38355112 0.01801610 1.06590509
-4.25446463 -0.59114707 1.25848305
0.58970851 -1.83912539 -3.67929220
1.76036477 3.01024842 -0.15787047
2.80536199 -2.25737500 1.67207968
3.62416172 -1.89982057 0.59624219
3.39388728 -1.98016536 -1.17267191
-4.34323597 -0.33212250 -1.12707269
-3.07496476 -2.24284196 -1.15134740
4.31498337 0.57169330 1.05239606
1.61046410 2.39209509 2.62040973
3.92265844 -1.09703064 1.63531208
2.54722810 -1.91892147 -2.61743450
-0.79953349 -3.13101149 1.03572536
-3.92134452 -1.57765841 -0.49089125
-0.84785211 0.54373974 -4.36189938
-2.37321162 1.65601730 -3.07942009
0.88562310 -3.08205628 1.22872806
-2.55333996 2.15642667 -2.23324871
0.76527786 -2.74521565 2.32838726
0.30270275 -3.08528018 -1.46939790
-0.11085393 -0.79221338 -4.37056637
-2.85615969 -0.77751356 -3.31970000
4.25898457 0.03952349 -1.48479092
-3.12357593 1.54233146 2.46174359
-4.41842413 -0.04790395 0.90641671
0.83850014 -1.24594057 -4.08086014
2.43292451 -2.72168231 -0.59638155
2.47253966 -1.86965942 2.75145006
4.37543201 0.78940523 -0.16987331
-1.83331895 1.10255325 -3.82660913
0.88498324 0.25345743 -4.40392637
3.78734922 -1.76556134 -0.28048393
-3.88093853 1.35860515 1.33078337
3 135 229 189
3 110 247 223
3 223 247 83
3 30 31 99
3 209 229 135
3 209 223 83
3 38 189 229
3 64 43 38
3 38 43 189
3 94 194 69
3 149 181 146
3 80 233 188
3 146 181 131
3 146 131 141
3 141 131 188
3 110 223 205
3 237 68 22
3 172 144 29
3 198 86 191
3 191 251 198
3 69 194 198
3 198 251 69
3 51 226 186
3 23 78 132
3 99 31 132
3 19 78 23
3 165 30 11
3 23 190 242
3 159 76 59
3 59 108 159
3 248 184 112
3 243 184 248
3 211 243 248
3 248 224 211
3 211 224 82
3 82 30 211
3 34 224 58
3 234 47 58
3 58 47 34
3 21 43 64
3 174 30 99
3 135 189 236
3 46 48 230
3 227 94 119
3 167 149 44
3 44 213 167
3 49 80 188
3 188 131 49
3 136 141 188
3 182 55 28
3 148 55 182
3 250 226 101
3 180 109 52
3 186 239 52
3 52 51 186
3 72 149 167
3 181 149 72
3 72 71 181
3 121 140 250
3 107 158 133
3 96 107 175
3 175 107 205
3 68 237 252
3 252 61 68
3 68 61 195
3 61 156 195
3 245 198 194
3 86 198 245
3 245 194 172
3 172 29 245
3 245 29 86
3 59 76 62
3 191 86 12
3 86 29 12
3 81 251 191
3 191 105 81
3 212 105 191
3 191 12 212
3 203 182 28
3 17 144 172
3 60 47 1
3 1 47 234
3 168 190 34
3 34 47 168
3 109 242 168
3 168 242 190
3 168 47 60
3 227 226 145
3 226 51 145
3 145 1 228
3 109 168 18
3 18 168 60
3 18 52 109
3 51 52 18
3 180 19 215
3 215 19 23
3 23 242 215
3 215 109 180
3 215 242 109
3 78 19 4
3 4 41 46
3 70 243 211
3 70 165 243
3 211 30 70
3 30 165 70
3 116 237 22
3 22 184 116
3 116 184 243
3 25 29 144
3 25 108 59
3 25 12 29
3 217 108 14
3 217 159 108
3 217 14 112
3 112 184 217
3 253 184 22
3 253 217 184
3 159 217 253
3 112 14 45
3 45 248 112
3 224 248 45
3 45 58 224
3 151 224 34
3 151 82 224
3 34 190 151
3 151 190 23
3 31 30 151
3 30 82 151
3 23 132 151
3 151 132 31
3 210 252 237
3 237 116 210
3 43 21 244
3 244 174 43
3 244 210 11
3 21 210 244
3 11 30 244
3 30 174 244
3 214 236 189
3 48 236 214
3 214 230 48
3 189 43 214
3 43 174 214
3 214 174 99
3 201 205 223
3 201 175 205
3 221 236 48
3 46 41 221
3 221 48 46
3 78 230 77
3 99 132 77
3 77 132 78
3 77 214 99
3 230 214 77
3 222 94 69
3 222 119 94
3 69 251 231
3 231 222 69
3 136 222 231
3 141 136 50
3 50 55 141
3 136 231 50
3 93 55 148
3 148 2 93
3 93 2 183
3 16 85 246
3 110 205 16
3 220 75 152
3 233 80 139
3 80 101 139
3 227 119 139
3 139 119 233
3 139 226 227
3 139 101 226
3 180 52 176
3 176 52 239
3 63 41 3
3 3 26 63
3 89 13 92
3 92 241 89
3 13 176 92
3 239 241 92
3 92 176 239
3 5 239 186
3 5 241 239
3 140 241 5
3 186 226 5
3 5 226 250
3 250 140 5
3 40 178 89
3 40 15 178
3 89 241 40
3 40 241 140
3 181 71 27
3 71 121 27
3 27 131 181
3 140 121 192
3 192 40 140
3 15 40 192
3 71 15 192
3 192 121 71
3 33 21 64
3 37 156 240
3 61 252 238
3 128 240 238
3 238 156 61
3 238 240 156
3 127 220 53
3 75 220 127
3 53 196 127
3 196 103 127
3 127 138 75
3 103 138 127
3 106 81 105
3 106 203 28
3 106 50 231
3 251 81 106
3 106 231 251
3 84 7 218
3 84 212 7
3 7 212 115
3 115 212 12
3 115 62 7
3 228 17 254
3 254 94 227
3 227 145 254
3 254 145 228
3 249 18 60
3 51 18 249
3 249 145 51
3 60 1 249
3 1 145 249
3 54 230 78
3 78 4 54
3 46 230 54
3 54 4 46
3 243 165 117
3 117 116 243
3 117 165 11
3 11 210 117
3 117 210 116
3 179 25 144
3 108 25 179
3 144 97 179
3 35 25 59
3 12 25 35
3 35 115 12
3 59 62 35
3 62 115 35
3 142 17 228
3 234 97 142
3 144 17 142
3 142 97 144
3 142 1 234
3 228 1 142
3 234 58 100
3 58 45 100
3 100 97 234
3 100 45 14
3 193 210 21
3 193 33 171
3 21 33 193
3 171 252 193
3 252 210 193
3 187 41 63
3 175 201 187
3 187 221 41
3 201 221 187
3 63 96 187
3 96 175 187
3 236 221 219
3 219 221 201
3 219 209 135
3 135 236 219
3 223 209 219
3 219 201 223
3 173 136 188
3 173 222 136
3 188 233 173
3 233 119 173
3 119 222 173
3 148 182 232
3 232 2 148
3 6 2 232
3 182 203 232
3 126 155 44
3 126 44 149
3 183 2 126
3 207 93 183
3 207 126 149
3 183 126 207
3 207 149 146
3 141 55 154
3 55 93 154
3 146 141 154
3 154 207 146
3 93 207 154
3 246 255 104
3 104 16 246
3 110 16 104
3 104 247 110
3 133 85 169
3 85 16 169
3 169 16 205
3 169 107 133
3 205 107 169
3 208 255 246
3 246 90 208
3 235 176 13
3 235 19 180
3 180 176 235
3 124 235 13
3 178 26 24
3 26 3 24
3 89 178 24
3 3 124 24
3 24 13 89
3 24 124 13
3 111 107 96
3 111 96 63
3 63 26 111
3 111 26 178
3 123 27 121
3 123 121 250
3 123 49 131
3 131 27 123
3 250 101 123
3 80 49 123
3 123 101 80
3 255 208 20
3 199 33 64
3 164 33 199
3 37 240 57
3 57 240 197
3 57 197 152
3 152 75 57
3 75 138 57
3 114 252 171
3 114 238 252
3 171 33 114
3 114 33 164
3 114 164 128
3 128 238 114
3 36 195 156
3 36 185 195
3 36 156 37
3 37 57 36
3 36 57 138
3 103 185 36
3 36 138 103
3 66 62 76
3 7 62 66
3 76 159 170
3 159 253 170
3 170 66 76
3 79 66 170
3 87 106 28
3 50 106 87
3 28 55 87
3 55 50 87
3 105 212 98
3 212 84 98
3 94 254 120
3 120 254 17
3 194 94 120
3 172 194 120
3 120 17 172
3 143 179 97
3 97 100 143
3 143 100 14
3 14 108 143
3 108 179 143
3 200 126 2
3 155 126 200
3 200 2 6
3 6 163 200
3 53 220 74
3 246 85 9
3 9 202 246
3 177 90 150
3 150 90 246
3 247 104 166
3 83 247 166
3 166 209 83
3 166 118 209
3 88 4 19
3 19 235 88
3 41 4 88
3 204 161 158
3 158 107 204
3 107 111 204
3 128 164 95
3 164 199 95
3 153 208 90
3 153 20 208
3 229 209 32
3 209 118 32
3 32 38 229
3 64 38 32
3 32 199 64
3 73 66 79
3 73 185 218
3 218 7 73
3 7 66 73
3 195 185 73
3 73 79 195
3 79 170 39
3 68 195 39
3 195 79 39
3 22 68 39
3 39 253 22
3 39 170 253
3 65 103 196
3 218 185 65
3 65 185 103
3 65 84 218
3 65 98 84
3 163 74 125
3 177 150 125
3 125 150 163
3 125 220 177
3 125 74 220
3 53 74 137
3 137 232 53
3 6 232 137
3 137 163 6
3 137 74 163
3 213 44 42
3 44 0 42
3 42 161 213
3 158 161 42
3 155 200 91
3 91 200 163
3 163 150 91
3 118 166 56
3 162 124 3
3 162 3 41
3 41 88 162
3 235 124 162
3 162 88 235
3 161 204 130
3 130 72 167
3 167 213 130
3 213 161 130
3 197 240 10
3 10 240 128
3 128 95 10
3 147 90 177
3 147 153 90
3 147 220 152
3 177 220 147
3 105 98 216
3 98 129 216
3 216 129 203
3 216 106 105
3 203 106 216
3 98 65 225
3 225 129 98
3 225 65 196
3 203 129 225
3 225 196 53
3 53 232 225
3 225 232 203
3 133 158 113
3 158 42 113
3 113 0 202
3 113 42 0
3 155 91 160
3 44 155 160
3 160 0 44
3 102 91 150
3 246 202 102
3 102 150 246
3 102 160 91
3 202 0 102
3 0 160 102
3 118 56 67
3 20 10 67
3 67 10 95
3 134 56 166
3 134 104 255
3 134 166 104
3 255 20 134
3 20 67 134
3 134 67 56
3 122 130 204
3 178 15 122
3 122 15 71
3 122 111 178
3 122 204 111
3 71 72 122
3 72 130 122
3 152 197 206
3 206 147 152
3 153 147 206
3 197 10 206
3 20 153 206
3 206 10 20
3 8 85 133
3 133 113 8
3 8 9 85
3 202 9 8
3 8 113 202
3 118 67 157
3 157 67 95
3 157 32 118
3 157 95 199
3 199 32 157