ply
format ascii 1.0
comment https://github.com/mikedh/trimesh
element vertex 256
property float x
property float y
property float z
element face 508
property list uchar int vertex_indices
end_header
-1.64515245 1.28310919 2.96063733
3.10083413 -2.46753907 -1.08211339
1.35814834 2.34638834 2.36125827
-1.90064788 -2.96068096 1.27976620
-2.34512258 -3.06629109 -0.32675150
1.49193263 -2.91867542 1.59921229
0.27256742 2.77175117 2.10067081
2.78740501 1.76462603 -2.20704365
-2.73390818 1.05693269 2.62597203
-3.11744714 1.25043380 2.31453300
-3.65408993 2.09498501 -0.95342505
-2.09446383 -0.75268281 -2.99118423
3.99787140 0.91325182 -1.71345401
-0.67186880 -3.23352456 1.27509141
1.95833659 -0.97382611 -2.97666979
0.35419714 -1.89992142 2.86479092
-4.01482105 0.50556207 1.84738779
4.28248215 -1.30881405 -0.96874082
2.02046013 -3.13555098 -0.63808084
-1.30006933 -3.38917208 -0.20211425
-3.93046570 2.04661274 0.23657654
-3.36544013 -0.19876347 -2.44723725
-0.21040235 0.60805660 -3.35933614
-0.50322181 -3.28266811 -1.19410050
-1.11541986 -3.03112769 1.55827332
3.65559816 -0.12001902 -2.23694873
-1.73639238 -2.56165266 2.00227404
2.24462295 -0.93189365 2.88723278
3.47618079 2.17928147 1.09484863
4.19242001 -0.09370670 -1.70786881
-1.60638785 -1.89692378 -2.64554381
-1.66564643 -2.31451750 -2.29151702
-4.63587379 0.41405356 -0.90609890
-3.39973593 0.79081440 -2.30728364
1.00385332 -2.72926044 -2.04100370
3.42757416 0.84065628 -2.27076507
-0.65344417 3.01576734 -1.70884562
-1.59928691 2.74028134 -1.82868826
-4.40201950 -0.41403744 -1.36646247
0.74508822 1.12578654 -3.19225955
0.60505581 -2.52405667 2.34457970
-3.01050830 -2.70322466 0.54320419
-1.57344413 0.71078938 3.15489745
-3.67856503 -0.80527908 -2.07850289
-0.37967080 0.85535794 3.30139899
1.40844047 -1.61094987 -2.86942101
-3.18150902 -2.64850378 -0.21368888
2.17890334 -2.61844087 -1.69356954
-3.66672301 -2.23927498 -0.51723367
3.41279912 -0.72120398 2.31891799
4.12999916 1.21694112 1.33734250
2.54377580 -2.99301600 0.18463480
1.36401904 -3.35938621 0.38693094
0.57353038 3.49103856 0.25521833
-2.81342030 -2.81132865 -0.55430257
3.56010556 1.55862308 1.75503767
-4.66171932 0.94908988 -0.12629968
-1.85520744 2.96859264 -1.29514563
1.80861080 -2.20848274 -2.33558440
3.25365376 0.24684978 -2.51809502
2.57615829 -2.83552456 -0.90667856
-1.47488666 2.02519083 -2.59379601
2.93683815 0.92578751 -2.56192350
-2.95303535 -2.05654955 1.83283269
-4.07787132 0.15146807 -1.83610106
1.53431118 3.23110390 -0.83423644
1.88954675 1.47455990 -2.80032277
-4.42988634 1.34335566 -0.45787582
-0.55066150 1.21221244 -3.18197393
4.82309771 0.30058181 0.10916720
-1.06303489 -1.46593273 -3.01314592
1.05971432 -0.80618316 3.23820758
0.52657032 -0.39445674 3.37249923
1.46014678 1.86950958 -2.70538568
-0.79820400 3.33655143 0.94818491
-1.07933533 3.41585922 -0.36075577
2.18464351 0.60756516 -2.98995709
-3.06833124 -2.31713676 -1.39442921
-2.14761090 -2.92443490 -1.15722048
1.17438900 1.55680573 -2.94870973
3.76676130 -1.29743862 1.74025595
4.32204199 1.55567300 -0.31711441
-0.10237950 -2.09772277 -2.74279213
-4.83024549 -0.15427314 0.18859734
2.26675177 2.73226500 -1.44900429
-3.48281503 0.71812648 2.26911306
4.31814814 0.57009649 -1.44325984
3.95985818 1.69275975 1.08640778
-2.06195593 -3.18913007 0.07703323
-0.51474375 -2.91562414 1.88416636
-3.01235938 2.31260538 1.45974696
-1.37910271 2.23035622 2.45820713
-0.01965208 -3.22268820 1.38471591
2.45804667 1.48592472 2.56561732
4.51211691 -1.25728679 0.23743363
-4.10454845 1.48349667 -1.10558093
-2.95202494 -1.66388571 2.17429233
3.25333428 -1.52440965 -2.05260086
2.48304677 2.83453822 -1.02647805
-2.66982794 -2.09588170 -1.99961126
2.20407796 -1.63784790 -2.59371805
3.39736056 -1.73373199 1.76012957
-1.86368930 1.72122037 2.67374372
0.18526594 3.37793636 -0.96908325
-4.41784191 0.79241526 1.16796815
3.76890373 2.15339994 -0.49361670
4.13712978 1.74379480 0.54355365
-3.16689038 -0.89021897 2.43482733
3.18097353 -0.38299927 -2.54707336
0.80115044 -3.39531517 -0.72341359
-4.35453653 0.41917264 1.43842280
-1.86761296 -1.89883041 2.55697942
1.36589468 -0.86420906 -3.16650295
-2.19404006 0.77567917 2.94906640
-2.94591546 1.39471757 -2.34915590
3.30614519 1.31554008 -2.14567137
-0.89289314 0.00713786 -3.35542035
-1.31343246 -0.43306765 -3.25980735
-4.69921494 0.68559730 -0.48717663
4.42579699 -1.16568828 0.80671835
4.50081301 -1.27131164 -0.27133220
2.07362223 -1.41351914 2.76461506
-0.25118557 -1.56737781 3.05282760
2.71919012 -1.39831042 2.47931933
-1.34246862 -3.19795537 1.08255780
-1.30713916 3.08712077 1.36676431
0.49714056 1.66435552 2.98942423
0.03976185 3.50783587 -0.33150518
-3.08597374 1.85345435 -1.92294157
2.97351241 2.78149056 -0.08975106
-0.75715250 -0.87550360 3.26443505
2.91229892 -0.44252160 2.69392729
-1.96814406 -2.55767226 -1.89638901
-2.92654562 -0.11580560 2.71856546
-4.58443117 1.07644093 0.35106742
-4.48857737 -1.12636602 -0.67221600
4.33529758 0.53547585 1.43052614
0.14930087 3.09385037 1.63334942
-0.69101077 3.27223873 -1.17234468
3.56898212 -2.03492880 1.19970191
1.48275733 -2.50500822 2.16241121
3.63153744 0.86364698 2.09794998
3.92388201 -1.48074341 -1.39661872
2.63172364 -1.24874175 -2.59850907
3.96627355 -0.99251276 -1.70833313
3.26406217 -2.60393262 0.01173060
2.75955462 0.57688141 2.74922490
-2.82489109 2.84351707 0.32069439
2.73339915 2.18153930 1.86605835
0.85074097 0.36197934 3.34298491
-1.73998094 2.52086377 2.04692912
-0.23425880 -2.48887682 -2.41232324
-1.73862147 3.27482629 -0.30685231
-3.30625510 2.54288864 0.40481299
2.83673596 1.07309568 2.56402874
-0.34256673 1.98988295 2.80805922
-1.46745384 2.44317341 -2.23366380
-4.51086617 0.94089609 -0.84439093
-2.27272892 -0.42396769 2.98688841
2.13496399 0.14605990 -3.06132364
-1.23286772 1.83213639 2.78419185
-1.36054611 -0.42520639 3.25057769
-2.05944467 -3.06375003 0.86363894
-0.77702284 2.98256826 1.73530686
-3.45078778 1.35012257 -2.00738573
-1.45761359 -0.99239844 -3.11030626
-4.78119802 0.55109733 0.10701654
-0.04978898 0.24118011 3.40562677
1.45653081 -3.02896094 -1.41511965
-3.53775144 -0.06745533 2.33070755
1.27725196 0.88962811 -3.17811847
-2.79047489 0.97104079 -2.62741303
4.53549528 -0.48976126 -1.10223353
4.51198721 -0.20691688 1.22467422
-3.25524116 -1.47295868 -2.08651376
-3.56388140 -1.11741424 2.04226470
-0.01474428 -3.42867231 0.79408389
-1.89645171 2.90422082 1.40047133
-1.01829731 -2.64883900 2.13611484
3.41390586 -1.05598652 -2.19480467
-0.09873111 -3.52371383 0.09712964
1.78062773 -0.50588852 3.13712454
2.93463469 2.36208630 1.46389079
1.15617871 1.76573706 2.84034896
0.72461253 -0.54620314 -3.33370566
0.70459479 2.79393721 -2.02229595
2.23619819 -2.92645073 1.06687868
-3.68596125 -1.77423739 1.39810812
4.12885284 -0.15629917 1.77814305
-4.19838905 -1.12295926 -1.30783510
0.44067958 -3.06580877 -1.65556586
4.40081644 0.89426231 -1.13084531
0.96414500 -1.94666266 2.76361752
-2.52034545 0.60268122 -2.85616016
4.71525526 -0.22322768 -0.75007254
-0.51823109 2.06313586 -2.74399614
0.94680536 3.45283771 -0.16154629
-2.54210877 2.87664461 -0.82472146
4.66079283 0.48348573 -0.80160141
-4.21026278 0.64679939 -1.56749880
-0.22597186 2.51834679 2.38508010
-4.29837322 -1.38205791 0.82662034
-2.31638455 1.39533103 2.67590809
3.13351822 2.59521127 0.67672229
-1.40152264 -1.46201801 2.94518232
-3.96611619 -0.53649747 1.88906550
-2.77633333 2.88068604 -0.20855860
1.78810084 1.08733988 2.99369526
-3.66029835 1.98151624 1.14535010
-4.80097151 -0.43054149 -0.17302354
-2.29383993 0.15748505 -3.00348353
-0.38509834 -1.67061293 -2.99477911
3.04795527 2.24181175 -1.52621460
-0.77519864 0.30718321 3.35669732
-3.59187222 -1.74976563 -1.54060841
-0.34923747 -3.42815518 -0.75975507
3.45633745 2.45887399 -0.21647497
1.83745396 -0.30177125 -3.14597154
1.65385270 2.75468254 -1.78205931
-4.42251492 -1.41445184 0.25732809
-1.09070539 3.42732167 0.21311206
-3.73873067 -2.23438573 0.15239964
4.70570421 0.01941055 0.80771708
-4.56713104 -0.63690180 0.95364797
0.63304698 -1.98147345 -2.78807855
1.88973629 3.24324131 -0.11963043
3.01153183 -2.43209553 1.26706159
3.89050627 -2.04686642 0.45181793
3.64330864 -2.13343000 -0.88862240
-4.66242599 -0.35782874 -0.85406846
-3.30094814 -2.41643763 -0.87246317
4.63209724 0.61594230 0.79748023
1.72881925 2.57724309 1.98568320
4.21093988 -1.18194079 1.23920000
2.73442745 -2.06744576 -1.98342848
-0.85829228 -3.37335134 0.78484762
-4.20952940 -1.69976890 -0.37198552
-0.91016191 0.58582509 -3.30534172
-2.54762220 1.78419280 -2.33351016
0.95070875 -3.32060695 0.93110037
-2.74098825 2.32333374 -1.69230187
0.82151920 -2.95769525 1.76439559
0.32494879 -3.32408071 -1.11347413
-0.11900074 -0.85353059 -3.31190944
-3.06606269 -0.83769304 -2.51558828
4.57198334 0.04258261 -1.12513864
-3.35313177 1.66170776 1.86544979
-4.74314022 -0.05161172 0.68686068
0.90012264 -1.34237623 -3.09237695
2.61172342 -2.93234015 -0.45192349
2.65425014 -2.01437092 2.08498240
4.69698858 0.85050511 -0.12872589
-1.96805203 1.18789065 -2.89971185
0.95002186 0.27307498 -3.33718896
4.06568670 -1.90221560 -0.21254393
-4.16615391 1.46376109 1.00843549
3 135 229 189
3 110 247 223
3 223 247 83
3 30 31 99
3 209 229 135
3 209 223 83
3 38 189 229
3 64 43 38
3 38 43 189
3 94 194 69
3 149 181 146
3 80 233 188
3 146 181 131
3 146 131 141
3 141 131 188
3 110 223 205
3 237 68 22
3 172 144 29
3 198 86 191
3 191 251 198
3 69 194 198
3 198 251 69
3 51 226 186
3 23 78 132
3 99 31 132
3 19 78 23
3 165 30 11
3 23 190 242
3 159 76 59
3 59 108 159
3 248 184 112
3 243 184 248
3 211 243 248
3 248 224 211
3 211 224 82
3 82 30 211
3 34 224 58
3 234 47 58
3 58 47 34
3 21 43 64
3 174 30 99
3 135 189 236
3 46 48 230
3 227 94 119
3 167 149 44
3 44 213 167
3 49 80 188
3 188 131 49
3 136 141 188
3 182 55 28
3 148 55 182
3 250 226 101
3 180 109 52
3 186 239 52
3 52 51 186
3 72 149 167
3 181 149 72
3 72 71 181
3 121 140 250
3 107 158 133
3 96 107 175
3 175 107 205
3 68 237 252
3 252 61 68
3 68 61 195
3 61 156 195
3 245 198 194
3 86 198 245
3 245 194 172
3 172 29 245
3 245 29 86
3 59 76 62
3 191 86 12
3 86 29 12
3 81 251 191
3 191 105 81
3 212 105 191
3 191 12 212
3 203 182 28
3 17 144 172
3 60 47 1
3 1 47 234
3 168 190 34
3 34 47 168
3 109 242 168
3 168 242 190
3 168 47 60
3 227 226 145
3 226 51 145
3 145 1 228
3 109 168 18
3 18 168 60
3 18 52 109
3 51 52 18
3 180 19 215
3 215 19 23
3 23 242 215
3 215 109 180
3 215 242 109
3 78 19 4
3 4 41 46
3 70 243 211
3 70 165 243
3 211 30 70
3 30 165 70
3 116 237 22
3 22 184 116
3 116 184 243
3 25 29 144
3 25 108 59
3 25 12 29
3 217 108 14
3 217 159 108
3 217 14 112
3 112 184 217
3 253 184 22
3 253 217 184
3 159 217 253
3 112 14 45
3 45 248 112
3 224 248 45
3 45 58 224
3 151 224 34
3 151 82 224
3 34 190 151
3 151 190 23
3 31 30 151
3 30 82 151
3 23 132 151
3 151 132 31
3 210 252 237
3 237 116 210
3 43 21 244
3 244 174 43
3 244 210 11
3 21 210 244
3 11 30 244
3 30 174 244
3 214 236 189
3 48 236 214
3 214 230 48
3 189 43 214
3 43 174 214
3 214 174 99
3 201 205 223
3 201 175 205
3 221 236 48
3 46 41 221
3 221 48 46
3 78 230 77
3 99 132 77
3 77 132 78
3 77 214 99
3 230 214 77
3 222 94 69
3 222 119 94
3 69 251 231
3 231 222 69
3 136 222 231
3 141 136 50
3 50 55 141
3 136 231 50
3 93 55 148
3 148 2 93
3 93 2 183
3 16 85 246
3 110 205 16
3 220 75 152
3 233 80 139
3 80 101 139
3 227 119 139
3 139 119 233
3 139 226 227
3 139 101 226
3 180 52 176
3 176 52 239
3 63 41 3
3 3 26 63
3 89 13 92
3 92 241 89
3 13 176 92
3 239 241 92
3 92 176 239
3 5 239 186
3 5 241 239
3 140 241 5
3 186 226 5
3 5 226 250
3 250 140 5
3 40 178 89
3 40 15 178
3 89 241 40
3 40 241 140
3 181 71 27
3 71 121 27
3 27 131 181
3 140 121 192
3 192 40 140
3 15 40 192
3 71 15 192
3 192 121 71
3 33 21 64
3 37 156 240
3 61 252 238
3 128 240 238
3 238 156 61
3 238 240 156
3 127 220 53
3 75 220 127
3 53 196 127
3 196 103 127
3 127 138 75
3 103 138 127
3 106 81 105
3 106 203 28
3 106 50 231
3 251 81 106
3 106 231 251
3 84 7 218
3 84 212 7
3 7 212 115
3 115 212 12
3 115 62 7
3 228 17 254
3 254 94 227
3 227 145 254
3 254 145 228
3 249 18 60
3 51 18 249
3 249 145 51
3 60 1 249
3 1 145 249
3 54 230 78
3 78 4 54
3 46 230 54
3 54 4 46
3 243 165 117
3 117 116 243
3 117 165 11
3 11 210 117
3 117 210 116
3 179 25 144
3 108 25 179
3 144 97 179
3 35 25 59
3 12 25 35
3 35 115 12
3 59 62 35
3 62 115 35
3 142 17 228
3 234 97 142
3 144 17 142
3 142 97 144
3 142 1 234
3 228 1 142
3 234 58 100
3 58 45 100
3 100 97 234
3 100 45 14
3 193 210 21
3 193 33 171
3 21 33 193
3 171 252 193
3 252 210 193
3 187 41 63
3 175 201 187
3 187 221 41
3 201 221 187
3 63 96 187
3 96 175 187
3 236 221 219
3 219 221 201
3 219 209 135
3 135 236 219
3 223 209 219
3 219 201 223
3 173 136 188
3 173 222 136
3 188 233 173
3 233 119 173
3 119 222 173
3 148 182 232
3 232 2 148
3 6 2 232
3 182 203 232
3 126 155 44
3 126 44 149
3 183 2 126
3 207 93 183
3 207 126 149
3 183 126 207
3 207 149 146
3 141 55 154
3 55 93 154
3 146 141 154
3 154 207 146
3 93 207 154
3 246 255 104
3 104 16 246
3 110 16 104
3 104 247 110
3 133 85 169
3 85 16 169
3 169 16 205
3 169 107 133
3 205 107 169
3 208 255 246
3 246 90 208
3 235 176 13
3 235 19 180
3 180 176 235
3 124 235 13
3 178 26 24
3 26 3 24
3 89 178 24
3 3 124 24
3 24 13 89
3 24 124 13
3 111 107 96
3 111 96 63
3 63 26 111
3 111 26 178
3 123 27 121
3 123 121 250
3 123 49 131
3 131 27 123
3 250 101 123
3 80 49 123
3 123 101 80
3 255 208 20
3 199 33 64
3 164 33 199
3 37 240 57
3 57 240 197
3 57 197 152
3 152 75 57
3 75 138 57
3 114 252 171
3 114 238 252
3 171 33 114
3 114 33 164
3 114 164 128
3 128 238 114
3 36 195 156
3 36 185 195
3 36 156 37
3 37 57 36
3 36 57 138
3 103 185 36
3 36 138 103
3 66 62 76
3 7 62 66
3 76 159 170
3 159 253 170
3 170 66 76
3 79 66 170
3 87 106 28
3 50 106 87
3 28 55 87
3 55 50 87
3 105 212 98
3 212 84 98
3 94 254 120
3 120 254 17
3 194 94 120
3 172 194 120
3 120 17 172
3 143 179 97
3 97 100 143
3 143 100 14
3 14 108 143
3 108 179 143
3 200 126 2
3 155 126 200
3 200 2 6
3 6 163 200
3 53 220 74
3 246 85 9
3 9 202 246
3 177 90 150
3 150 90 246
3 247 104 166
3 83 247 166
3 166 209 83
3 166 118 209
3 88 4 19
3 19 235 88
3 41 4 88
3 204 161 158
3 158 107 204
3 107 111 204
3 128 164 95
3 164 199 95
3 153 208 90
3 153 20 208
3 229 209 32
3 209 118 32
3 32 38 229
3 64 38 32
3 32 199 64
3 73 66 79
3 73 185 218
3 218 7 73
3 7 66 73
3 195 185 73
3 73 79 195
3 79 170 39
3 68 195 39
3 195 79 39
3 22 68 39
3 39 253 22
3 39 170 253
3 65 103 196
3 218 185 65
3 65 185 103
3 65 84 218
3 65 98 84
3 163 74 125
3 177 150 125
3 125 150 163
3 125 220 177
3 125 74 220
3 53 74 137
3 137 232 53
3 6 232 137
3 137 163 6
3 137 74 163
3 213 44 42
3 44 0 42
3 42 161 213
3 158 161 42
3 155 200 91
3 91 200 163
3 163 150 91
3 118 166 56
3 162 124 3
3 162 3 41
3 41 88 162
3 235 124 162
3 162 88 235
3 161 204 130
3 130 72 167
3 167 213 130
3 213 161 130
3 197 240 10
3 10 240 128
3 128 95 10
3 147 90 177
3 147 153 90
3 147 220 152
3 177 220 147
3 105 98 216
3 98 129 216
3 216 129 203
3 216 106 105
3 203 106 216
3 98 65 225
3 225 129 98
3 225 65 196
3 203 129 225
3 225 196 53
3 53 232 225
3 225 232 203
3 133 158 113
3 158 42 113
3 113 0 202
3 113 42 0
3 155 91 160
3 44 155 160
3 160 0 44
3 102 91 150
3 246 202 102
3 102 150 246
3 102 160 91
3 202 0 102
3 0 160 102
3 118 56 67
3 20 10 67
3 67 10 95
3 134 56 166
3 134 104 255
3 134 166 104
3 255 20 134
3 20 67 134
3 134 67 56
3 122 130 204
3 178 15 122
3 122 15 71
3 122 111 178
3 122 204 111
3 71 72 122
3 72 130 122
3 152 197 206
3 206 147 152
3 153 147 206
3 197 10 206
3 20 153 206
3 206 10 20
3 8 85 133
3 133 113 8
3 8 9 85
3 202 9 8
3 8 113 202
3 118 67 157
3 157 67 95
3 157 32 118
3 157 95 199
3 199 32 157