ply
format ascii 1.0
comment https://github.com/mikedh/trimesh
element vertex 256
property float x
property float y
property float z
element face 508
property list uchar int vertex_indices
end_header
-0.67290592 0.77914196 2.76010847
1.26831388 -1.49836302 -1.00882006
0.55551451 1.42479658 2.20132637
-0.77740955 -1.79781330 1.19308555
-0.95921010 -1.86194301 -0.30462006
0.61023539 -1.77230632 1.49089491
0.11148646 1.68308961 1.95838881
1.14011395 1.07153332 -2.05755663
-1.11823261 0.64180088 2.44811058
-1.27510893 0.75930053 2.15776587
-1.49460852 1.27213705 -0.88884795
-0.85668480 -0.45705134 -2.78858614
1.63522315 0.55455357 -1.59739888
-0.27481011 -1.96349204 1.18872738
0.80100554 -0.59133613 -2.77505493
0.14487493 -1.15368867 2.67075396
-1.64215589 0.30699229 1.72226107
1.75163567 -0.79475069 -0.90312636
0.82641554 -1.90399969 -0.59486252
-0.53175884 -2.05800581 -0.18842472
-1.60765266 1.24276400 0.22055280
-1.37654388 -0.12069508 -2.28148174
-0.08605950 0.36923003 -3.13180256
-0.20582950 -1.99333346 -1.11322212
-0.45623285 -1.84059072 1.45272887
1.49522531 -0.07287911 -2.08543634
-0.71022516 -1.55551147 1.86665666
0.91810340 -0.56587344 2.69167542
1.42183948 1.32332444 1.02069271
1.71479809 -0.05690149 -1.59219193
-0.65705031 -1.15186846 -2.46635652
-0.68128842 -1.40544379 -2.13630867
-1.89618099 0.25142562 -0.84472728
-1.39057171 0.48020598 -2.15100741
0.41059956 -1.65728796 -1.90276313
1.40195823 0.51047146 -2.11696219
-0.26727399 1.83126342 -1.59310257
-0.65414584 1.66398025 -1.70482802
-1.80052924 -0.25141582 -1.27390957
0.30475855 0.68361104 -2.97604251
0.24748200 -1.53268218 2.18577719
-1.23136842 -1.64147818 0.50641203
-0.64357555 0.43161243 2.94121099
-1.50461936 -0.48898935 -1.93772233
-0.15529427 0.51939869 3.07778978
0.57608515 -0.97821659 -2.67507029
-1.30131185 -1.60825002 -0.19921537
0.89122254 -1.58999491 -1.57886112
-1.49977565 -1.35975432 -0.48220056
1.39591491 -0.43793646 2.16185355
1.68926644 0.73896277 1.24676204
1.04046392 -1.81744814 0.17212917
0.55791575 -2.03991914 0.36072344
0.23458736 2.11986232 0.23793197
-1.15075481 -1.70712221 -0.51675868
1.45616663 0.94644219 1.63616598
-1.90675259 0.57631552 -0.11774518
-0.75882334 1.80261755 -1.20742321
0.73976421 -1.34105623 -2.17739129
1.33082068 0.14989451 -2.34754014
1.05370915 -1.72181463 -0.84526771
-0.60326320 1.22975600 -2.41811395
1.20123565 0.56216562 -2.38839984
-1.20786071 -1.24879789 1.70869184
-1.66794503 0.09197591 -1.71173882
0.62756920 1.96202219 -0.77773219
0.77286893 0.89539653 -2.61065221
-1.81192744 0.81572545 -0.42686310
-0.22523348 0.73609138 -2.96645355
1.97275996 0.18252219 0.10177312
-0.43480623 -0.89015788 -2.80906034
0.43344802 -0.48953834 3.01887822
0.21537960 -0.23952585 3.14407396
0.59723425 1.13522172 -2.52214527
-0.32648414 2.02605295 0.88396275
-0.44147345 2.07421112 -0.33632118
0.89357042 0.36893162 -2.78744221
-1.25501943 -1.40703416 -1.29998219
-0.87842321 -1.77580357 -1.07883990
0.48035261 0.94533867 -2.74898863
1.54069364 -0.78784323 1.62238550
1.76781654 0.94465083 -0.29563573
-0.04187562 -1.27379942 -2.55701804
-1.97568369 -0.09367923 0.17582332
0.92715466 1.65911245 -1.35086071
-1.42455304 0.43606773 2.11542225
1.76622391 0.34617952 -1.34550548
1.61967480 1.02789402 1.01282346
-0.84338832 -1.93653440 0.07181564
-0.21054225 -1.77045345 1.75654852
-1.23212552 1.40428257 1.36087584
-0.56408536 1.35433853 2.29170871
-0.00803816 -1.95691192 1.29092681
1.00539875 0.90229756 2.39184380
1.84556150 -0.76346189 0.22135185
-1.67885649 0.90082318 -1.03069806
-1.20744741 -1.01036072 2.02702379
1.33069003 -0.92566675 -1.91357481
1.01562428 1.72121561 -0.95695293
-1.09202230 -1.27268147 -1.86417413
0.90151954 -0.99454987 -2.41804099
1.38960016 -1.05277348 1.64091301
-0.76229262 1.04517615 2.49264669
0.07577812 2.05118322 -0.90344560
-1.80700088 0.48117808 1.08885980
1.54157007 1.30760837 -0.46018320
1.69218314 1.05888402 0.50673783
-1.29533243 -0.54056734 2.26991224
1.30109274 -0.23256853 -2.37455583
0.32768932 -2.06173611 -0.67441553
-1.78110766 0.25453407 1.34099591
-0.76389748 -1.15302622 2.38379097
0.55868298 -0.52477336 -2.95203042
-0.89741385 0.47101542 2.74932098
-1.20494854 0.84691393 -2.19004369
1.35229087 0.79883498 -2.00034142
-0.36521423 0.00433432 -3.12815189
-0.53722465 -0.26297152 -3.03901505
-1.92208922 0.41631505 -0.45417932
1.81025481 -0.70784050 0.75207794
1.84093797 -0.77197814 -0.25295439
0.84816015 -0.85833079 2.57736301
-0.10274078 -0.95175827 2.84605432
1.11221254 -0.84909558 2.31139088
-0.54910117 -1.94189334 1.00923431
-0.53465056 1.87459135 1.27419102
0.20334215 1.01064599 2.78694534
0.01626353 2.13006210 -0.30905175
-1.26223564 1.12547255 -1.79269743
1.21623635 1.68900359 -0.08367207
-0.30969313 -0.53163177 3.04332924
1.19119847 -0.26871225 2.51146293
-0.80501705 -1.55309451 -1.76794338
-1.19702578 -0.07032060 2.53443241
-1.87513971 0.65364689 0.32728904
-1.83593333 -0.68396282 -0.62668568
1.77323842 0.32515684 1.33363426
0.06106756 1.87867785 1.52271986
-0.28263962 1.98700047 -1.09293985
1.45979738 -1.23566914 1.11844409
0.60648251 -1.52111530 2.01594734
1.48538399 0.52443206 1.95585239
1.60495973 -0.89915133 -1.30202329
1.07643664 -0.75827301 -2.42250752
1.62229896 -0.60268319 -1.59262478
1.33507800 -1.58118510 0.01093607
1.12872255 0.35029951 2.56301522
-1.15544665 1.72666788 0.29897320
1.11802435 1.32469535 1.73966706
0.34797302 0.21980460 3.11655879
-0.71169299 1.53074336 1.90828717
-0.09581734 -1.51131999 -2.24893260
-0.71113694 1.98857164 -0.28606868
-1.35233581 1.54411745 0.37739432
1.16029155 0.65161550 2.39036274
-0.14011782 1.20831597 2.61786461
-0.60022300 1.48356736 -2.08237410
-1.84505010 0.57134002 -0.78719890
-0.92959946 -0.25744578 2.78458142
0.87325031 0.08869191 -2.85397482
-0.50427181 1.11252761 2.59561372
-0.55649525 -0.25819793 3.03041053
-0.84236115 -1.86039996 0.80514318
-0.31782055 1.81110394 1.61777151
-1.41145313 0.81983447 -1.87142205
-0.59619814 -0.60261381 -2.89963984
-1.95562220 0.33464265 0.09976813
-0.02036486 0.14645173 3.17495799
0.59575522 -1.83927488 -1.31927121
-1.44702327 -0.04096088 2.17284465
0.52242601 0.54020858 -2.96285892
-1.14136970 0.58964479 -2.44945383
1.85512388 -0.29739758 -1.02757740
1.84550846 -0.12564607 1.14172494
-1.33146989 -0.89442420 -1.94519067
-1.45771110 -0.67852706 1.90393865
-0.00603076 -2.08199167 0.74029922
-0.77569324 1.76352906 1.30561507
-0.41650745 -1.60845363 1.99143219
1.39636755 -0.64122635 -2.04614687
-0.04038334 -2.13970375 0.09055089
0.72831851 -0.30719054 2.92464161
1.20033443 1.43432891 1.36473894
0.47290418 1.07220793 2.64796734
0.29638350 -0.33167076 -3.10790801
0.28819579 1.69656157 -1.88532233
0.91465747 -1.77702773 0.99461722
-1.50764465 -1.07736957 1.30341196
1.68879771 -0.09490950 1.65770638
-1.71723962 -0.68189418 -1.21925318
0.18024828 -1.86164999 -1.54343164
1.80003703 0.54302263 -1.05425119
0.39435792 -1.18207133 2.57643294
-1.03088033 0.36596593 -2.66270757
1.92864990 -0.13555047 -0.69926888
-0.21196868 1.25279737 -2.55814052
0.38726559 2.09666538 -0.15060449
-1.03978217 1.74678397 -0.76886171
1.90637350 0.29358688 -0.74730760
-1.72209620 0.39275581 -1.46132934
-0.09242779 1.52921486 2.22353458
-1.75813544 -0.83922654 0.77063191
-0.94745553 0.84728640 2.49466443
1.28168237 1.57588935 0.63088673
-0.57325560 -0.88778073 2.74570012
-1.62223458 -0.32577717 1.76111591
-1.13558543 1.74923801 -0.19443257
0.73137516 0.66026503 2.79092717
-1.49714780 1.20323551 1.06777358
-1.96370983 -0.26143757 -0.16130435
-0.93823433 0.09562960 -2.80005240
-0.15751424 -1.01444578 -2.79193759
1.24668515 1.36129463 -1.42284155
-0.31707442 0.18653077 3.12934256
-1.46915996 -1.06250966 -1.43626046
-0.14284632 -2.08167744 -0.70829552
1.41372299 1.49310124 -0.20181274
0.75156176 -0.18324447 -2.93288946
0.67646456 1.67272496 -1.66135740
-1.80891216 -0.85889715 0.23989883
-0.44612408 2.08117151 0.19867761
-1.52922845 -1.35678530 0.14207736
1.92474341 0.01178666 0.75300902
-1.86806357 -0.38674566 0.88905579
0.25893107 -1.20320952 -2.59923720
0.77294648 1.96939242 -0.11152766
1.23178720 -1.47684050 1.18124127
1.59130824 -1.24291801 0.42121553
1.49019861 -1.29548204 -0.82843453
-1.90704155 -0.21728423 -0.79622096
-1.35016525 -1.46733260 -0.81336975
1.89463639 0.37401843 0.74346554
0.70712757 1.56497848 1.85118949
1.72237313 -0.71770948 1.15526688
1.11844492 -1.25541449 -1.84908748
-0.35106167 -2.04839897 0.73168856
-1.72179615 -1.03215015 -0.34679031
-0.37227756 0.35573038 -3.08146524
-1.04203713 1.08341479 -2.17545748
0.38886216 -2.01637101 0.86803538
-1.12112844 1.41079724 -1.57767940
0.33602062 -1.79600024 1.64489007
0.13291167 -2.01848030 -1.03805673
-0.04867409 -0.51828909 -3.08758831
-1.25409150 -0.50867206 -2.34520340
1.87004828 0.02585742 -1.04893112
-1.37150955 1.00903833 1.73909974
-1.94005561 -0.03134017 0.64033842
0.36817127 -0.81513071 -2.88292503
1.06825614 -1.78060389 -0.42131394
1.08565056 -1.22318578 1.94376290
1.92117846 0.51645195 -0.12000706
-0.80497944 0.72132248 -2.70330930
0.38858122 0.16581924 -3.11115551
1.66296113 -1.15508175 -0.19814797
-1.70405471 0.88883913 0.94013244
3 135 229 189
3 110 247 223
3 223 247 83
3 30 31 99
3 209 229 135
3 209 223 83
3 38 189 229
3 64 43 38
3 38 43 189
3 94 194 69
3 149 181 146
3 80 233 188
3 146 181 131
3 146 131 141
3 141 131 188
3 110 223 205
3 237 68 22
3 172 144 29
3 198 86 191
3 191 251 198
3 69 194 198
3 198 251 69
3 51 226 186
3 23 78 132
3 99 31 132
3 19 78 23
3 165 30 11
3 23 190 242
3 159 76 59
3 59 108 159
3 248 184 112
3 243 184 248
3 211 243 248
3 248 224 211
3 211 224 82
3 82 30 211
3 34 224 58
3 234 47 58
3 58 47 34
3 21 43 64
3 174 30 99
3 135 189 236
3 46 48 230
3 227 94 119
3 167 149 44
3 44 213 167
3 49 80 188
3 188 131 49
3 136 141 188
3 182 55 28
3 148 55 182
3 250 226 101
3 180 109 52
3 186 239 52
3 52 51 186
3 72 149 167
3 181 149 72
3 72 71 181
3 121 140 250
3 107 158 133
3 96 107 175
3 175 107 205
3 68 237 252
3 252 61 68
3 68 61 195
3 61 156 195
3 245 198 194
3 86 198 245
3 245 194 172
3 172 29 245
3 245 29 86
3 59 76 62
3 191 86 12
3 86 29 12
3 81 251 191
3 191 105 81
3 212 105 191
3 191 12 212
3 203 182 28
3 17 144 172
3 60 47 1
3 1 47 234
3 168 190 34
3 34 47 168
3 109 242 168
3 168 242 190
3 168 47 60
3 227 226 145
3 226 51 145
3 145 1 228
3 109 168 18
3 18 168 60
3 18 52 109
3 51 52 18
3 180 19 215
3 215 19 23
3 23 242 215
3 215 109 180
3 215 242 109
3 78 19 4
3 4 41 46
3 70 243 211
3 70 165 243
3 211 30 70
3 30 165 70
3 116 237 22
3 22 184 116
3 116 184 243
3 25 29 144
3 25 108 59
3 25 12 29
3 217 108 14
3 217 159 108
3 217 14 112
3 112 184 217
3 253 184 22
3 253 217 184
3 159 217 253
3 112 14 45
3 45 248 112
3 224 248 45
3 45 58 224
3 151 224 34
3 151 82 224
3 34 190 151
3 151 190 23
3 31 30 151
3 30 82 151
3 23 132 151
3 151 132 31
3 210 252 237
3 237 116 210
3 43 21 244
3 244 174 43
3 244 210 11
3 21 210 244
3 11 30 244
3 30 174 244
3 214 236 189
3 48 236 214
3 214 230 48
3 189 43 214
3 43 174 214
3 214 174 99
3 201 205 223
3 201 175 205
3 221 236 48
3 46 41 221
3 221 48 46
3 78 230 77
3 99 132 77
3 77 132 78
3 77 214 99
3 230 214 77
3 222 94 69
3 222 119 94
3 69 251 231
3 231 222 69
3 136 222 231
3 141 136 50
3 50 55 141
3 136 231 50
3 93 55 148
3 148 2 93
3 93 2 183
3 16 85 246
3 110 205 16
3 220 75 152
3 233 80 139
3 80 101 139
3 227 119 139
3 139 119 233
3 139 226 227
3 139 101 226
3 180 52 176
3 176 52 239
3 63 41 3
3 3 26 63
3 89 13 92
3 92 241 89
3 13 176 92
3 239 241 92
3 92 176 239
3 5 239 186
3 5 241 239
3 140 241 5
3 186 226 5
3 5 226 250
3 250 140 5
3 40 178 89
3 40 15 178
3 89 241 40
3 40 241 140
3 181 71 27
3 71 121 27
3 27 131 181
3 140 121 192
3 192 40 140
3 15 40 192
3 71 15 192
3 192 121 71
3 33 21 64
3 37 156 240
3 61 252 238
3 128 240 238
3 238 156 61
3 238 240 156
3 127 220 53
3 75 220 127
3 53 196 127
3 196 103 127
3 127 138 75
3 103 138 127
3 106 81 105
3 106 203 28
3 106 50 231
3 251 81 106
3 106 231 251
3 84 7 218
3 84 212 7
3 7 212 115
3 115 212 12
3 115 62 7
3 228 17 254
3 254 94 227
3 227 145 254
3 254 145 228
3 249 18 60
3 51 18 249
3 249 145 51
3 60 1 249
3 1 145 249
3 54 230 78
3 78 4 54
3 46 230 54
3 54 4 46
3 243 165 117
3 117 116 243
3 117 165 11
3 11 210 117
3 117 210 116
3 179 25 144
3 108 25 179
3 144 97 179
3 35 25 59
3 12 25 35
3 35 115 12
3 59 62 35
3 62 115 35
3 142 17 228
3 234 97 142
3 144 17 142
3 142 97 144
3 142 1 234
3 228 1 142
3 234 58 100
3 58 45 100
3 100 97 234
3 100 45 14
3 193 210 21
3 193 33 171
3 21 33 193
3 171 252 193
3 252 210 193
3 187 41 63
3 175 201 187
3 187 221 41
3 201 221 187
3 63 96 187
3 96 175 187
3 236 221 219
3 219 221 201
3 219 209 135
3 135 236 219
3 223 209 219
3 219 201 223
3 173 136 188
3 173 222 136
3 188 233 173
3 233 119 173
3 119 222 173
3 148 182 232
3 232 2 148
3 6 2 232
3 182 203 232
3 126 155 44
3 126 44 149
3 183 2 126
3 207 93 183
3 207 126 149
3 183 126 207
3 207 149 146
3 141 55 154
3 55 93 154
3 146 141 154
3 154 207 146
3 93 207 154
3 246 255 104
3 104 16 246
3 110 16 104
3 104 247 110
3 133 85 169
3 85 16 169
3 169 16 205
3 169 107 133
3 205 107 169
3 208 255 246
3 246 90 208
3 235 176 13
3 235 19 180
3 180 176 235
3 124 235 13
3 178 26 24
3 26 3 24
3 89 178 24
3 3 124 24
3 24 13 89
3 24 124 13
3 111 107 96
3 111 96 63
3 63 26 111
3 111 26 178
3 123 27 121
3 123 121 250
3 123 49 131
3 131 27 123
3 250 101 123
3 80 49 123
3 123 101 80
3 255 208 20
3 199 33 64
3 164 33 199
3 37 240 57
3 57 240 197
3 57 197 152
3 152 75 57
3 75 138 57
3 114 252 171
3 114 238 252
3 171 33 114
3 114 33 164
3 114 164 128
3 128 238 114
3 36 195 156
3 36 185 195
3 36 156 37
3 37 57 36
3 36 57 138
3 103 185 36
3 36 138 103
3 66 62 76
3 7 62 66
3 76 159 170
3 159 253 170
3 170 66 76
3 79 66 170
3 87 106 28
3 50 106 87
3 28 55 87
3 55 50 87
3 105 212 98
3 212 84 98
3 94 254 120
3 120 254 17
3 194 94 120
3 172 194 120
3 120 17 172
3 143 179 97
3 97 100 143
3 143 100 14
3 14 108 143
3 108 179 143
3 200 126 2
3 155 126 200
3 200 2 6
3 6 163 200
3 53 220 74
3 246 85 9
3 9 202 246
3 177 90 150
3 150 90 246
3 247 104 166
3 83 247 166
3 166 209 83
3 166 118 209
3 88 4 19
3 19 235 88
3 41 4 88
3 204 161 158
3 158 107 204
3 107 111 204
3 128 164 95
3 164 199 95
3 153 208 90
3 153 20 208
3 229 209 32
3 209 118 32
3 32 38 229
3 64 38 32
3 32 199 64
3 73 66 79
3 73 185 218
3 218 7 73
3 7 66 73
3 195 185 73
3 73 79 195
3 79 170 39
3 68 195 39
3 195 79 39
3 22 68 39
3 39 253 22
3 39 170 253
3 65 103 196
3 218 185 65
3 65 185 103
3 65 84 218
3 65 98 84
3 163 74 125
3 177 150 125
3 125 150 163
3 125 220 177
3 125 74 220
3 53 74 137
3 137 232 53
3 6 232 137
3 137 163 6
3 137 74 163
3 213 44 42
3 44 0 42
3 42 161 213
3 158 161 42
3 155 200 91
3 91 200 163
3 163 150 91
3 118 166 56
3 162 124 3
3 162 3 41
3 41 88 162
3 235 124 162
3 162 88 235
3 161 204 130
3 130 72 167
3 167 213 130
3 213 161 130
3 197 240 10
3 10 240 128
3 128 95 10
3 147 90 177
3 147 153 90
3 147 220 152
3 177 220 147
3 105 98 216
3 98 129 216
3 216 129 203
3 216 106 105
3 203 106 216
3 98 65 225
3 225 129 98
3 225 65 196
3 203 129 225
3 225 196 53
3 53 232 225
3 225 232 203
3 133 158 113
3 158 42 113
3 113 0 202
3 113 42 0
3 155 91 160
3 44 155 160
3 160 0 44
3 102 91 150
3 246 202 102
3 102 150 246
3 102 160 91
3 202 0 102
3 0 160 102
3 118 56 67
3 20 10 67
3 67 10 95
3 134 56 166
3 134 104 255
3 134 166 104
3 255 20 134
3 20 67 134
3 134 67 56
3 122 130 204
3 178 15 122
3 122 15 71
3 122 111 178
3 122 204 111
3 71 72 122
3 72 130 122
3 152 197 206
3 206 147 152
3 153 147 206
3 197 10 206
3 20 153 206
3 206 10 20
3 8 85 133
3 133 113 8
3 8 9 85
3 202 9 8
3 8 113 202
3 118 67 157
3 157 67 95
3 157 32 118
3 157 95 199
3 199 32 157