ply
format ascii 1.0
comment https://github.com/mikedh/trimesh
element vertex 256
property float x
property float y
property float z
element face 508
property list uchar int vertex_indices
end_header
-1.60204470 1.10157061 3.28085971
3.01958346 -2.11842346 -1.19915473
1.32256103 2.01441336 2.61665201
-1.85084546 -2.54179382 1.41818571
-2.28367352 -2.63246202 -0.36209291
1.45283973 -2.50573158 1.77218294
0.26542535 2.37959456 2.32787919
2.71436691 1.51496089 -2.44575715
-2.66227198 0.90739429 2.90999699
-3.03576088 1.07351828 2.56487274
-3.55834246 1.79857957 -1.05654740
-2.03958273 -0.64619076 -3.31471062
3.89311552 0.78404188 -1.89878106
-0.65426391 -2.77603483 1.41300523
1.90702248 -0.83604598 -3.29862618
0.34491616 -1.63111424 3.17464662
-3.90962100 0.43403348 2.04720116
4.17026901 -1.12363863 -1.07351971
1.96751821 -2.69192290 -0.70709562
-1.26600373 -2.90966058 -0.22397493
-3.82747626 1.75705111 0.26216465
-3.27725601 -0.17064175 -2.71193051
-0.20488921 0.52202672 -3.72268176
-0.49003592 -2.81822538 -1.32325435
-1.08619261 -2.60227370 1.72681606
3.55981088 -0.10303833 -2.47889686
-1.69089389 -2.19922137 2.21883988
2.18580747 -0.80004621 3.19951558
3.38509488 1.87094951 1.21326745
4.08256674 -0.08044877 -1.89259183
-1.56429589 -1.62854075 -2.93168545
-1.62200165 -1.98705196 -2.53936720
-4.51440048 0.35547188 -1.00410247
-3.31065321 0.67892736 -2.55683923
0.97754949 -2.34311581 -2.26175857
3.33776188 0.72171748 -2.51637077
-0.63632208 2.58908653 -1.89367425
-1.55738103 2.35257721 -2.02647901
-4.28667402 -0.35545805 -1.51425886
0.72556478 0.96650654 -3.53753424
0.58920157 -2.16694474 2.59816909
-2.93162417 -2.32076335 0.60195708
-1.53221548 0.61022455 3.49613094
-3.58217621 -0.69134551 -2.30331349
-0.36972234 0.73433906 3.65847826
1.37153530 -1.38302732 -3.17977738
-3.09814429 -2.27378464 -0.23680146
2.12180972 -2.24797511 -1.87674582
-3.57064414 -1.92245495 -0.57317764
3.32337403 -0.61916566 2.56973195
4.02178097 1.04476416 1.48198938
2.47712159 -2.56955409 0.20460489
1.32827783 -2.88408923 0.42878136
0.55850220 2.99711490 0.28282273
-2.73970056 -2.41357255 -0.61425591
3.46682072 1.33810389 1.94486237
-4.53956890 0.81480944 -0.13996024
-1.80659568 2.54858637 -1.43522847
1.76122010 -1.89601922 -2.58820105
3.16839886 0.21192464 -2.79045200
2.50865555 -2.43434501 -1.00474489
-1.43624043 1.73866022 -2.87434077
2.85988450 0.79480398 -2.83902073
-2.87565732 -1.76558208 2.03107166
-3.97101951 0.13003787 -2.03469372
1.49410772 2.77395654 -0.92446744
1.84003520 1.26593423 -3.10320544
-4.31381083 1.15329325 -0.50739962
-0.53623259 1.04070461 -3.52613616
4.69671869 0.25805449 0.12097472
-1.03518033 -1.25852764 -3.33904767
1.03194678 -0.69212168 3.58845186
0.51277268 -0.33864769 3.73726845
1.42188668 1.60500515 -2.99799991
-0.77728873 2.86448503 1.05074060
-1.05105364 2.93257213 -0.39977509
2.12739968 0.52160484 -3.31335068
-2.98793221 -1.98930049 -1.54525065
-2.09133744 -2.51067615 -1.28238535
1.14361656 1.33654368 -3.26764202
3.66806126 -1.11387265 1.92848194
4.20879221 1.33557129 -0.35141349
-0.09969687 -1.80092990 -3.03945231
-4.70367908 -0.13244607 0.20899601
2.20735645 2.34569502 -1.60572839
-3.39155531 0.61652356 2.51454020
4.20500040 0.48943734 -1.59936273
3.85609841 1.45326245 1.20391357
-2.00792670 -2.73792124 0.08536514
-0.50125599 -2.50311184 2.08795762
-2.93342686 1.98541021 1.61763310
-1.34296632 1.91479802 2.72408676
-0.01913714 -2.76673150 1.53448677
2.39363885 1.27569115 2.84311438
4.39388609 -1.07940173 0.26311445
-3.99699736 1.27360654 -1.22516060
-2.87467337 -1.42847359 2.40946364
3.16808748 -1.30873108 -2.27461004
2.41798377 2.43349814 -1.13750184
-2.59987092 -1.79934931 -2.21588898
2.14632487 -1.40611970 -2.87425447
3.30833983 -1.48843777 1.95050502
-1.81485534 1.47769642 2.96293569
0.18041144 2.90001464 -1.07389927
-4.30208158 0.68030173 1.29429555
3.67014766 1.84872973 -0.54700625
4.02872515 1.49707699 0.60234433
-3.08390880 -0.76426780 2.69817805
3.09762287 -0.32881126 -2.82256460
0.78015798 -2.91493464 -0.80165792
-4.24043560 0.35986671 1.59400249
-1.81867611 -1.63017762 2.83354235
1.33010435 -0.74193788 -3.50899172
-2.13654995 0.66593349 3.26803708
-2.86872411 1.19738829 -2.60324049
3.21951461 1.12941301 -2.37774706
-0.86949682 0.00612797 -3.71834230
-1.27901673 -0.37179577 -3.61238790
-4.57608223 0.58859670 -0.53986961
4.30982876 -1.00076282 0.89397293
4.38287878 -1.09144223 -0.30067948
2.01928735 -1.21352983 3.06363583
-0.24460377 -1.34561992 3.38302135
2.64793944 -1.20047283 2.74748230
-1.30729210 -2.74549794 1.19964719
-1.27288842 2.65034461 1.51459348
0.48411405 1.42887688 3.31276011
0.03871997 3.01153564 -0.36736074
-3.00511241 1.59122145 -2.13092685
2.89559793 2.38795590 -0.09945853
-0.73731297 -0.75163442 3.61751604
2.83598828 -0.37991217 2.98530221
-1.91657305 -2.19580436 -2.10150242
-2.84986162 -0.09942104 3.01260543
-4.46430588 0.92414248 0.38903886
-4.37096357 -0.96700394 -0.74492288
4.22170019 0.45971498 1.58525181
0.14538877 2.65612221 1.81001234
-0.67290431 2.80927157 -1.29914546
3.47546458 -1.74702036 1.32946169
1.44390488 -2.15059137 2.39629745
3.53638077 0.74145538 2.32486415
3.82106495 -1.27124286 -1.54767692
2.56276488 -1.07206559 -2.87956357
3.86234593 -0.85208875 -1.89310634
3.17853427 -2.23551965 0.01299938
2.68724632 0.49526232 3.04658079
-2.75087070 2.44120669 0.35538065
2.66177630 1.87288785 2.06789112
0.82844913 0.31076530 3.70456171
-1.69438851 2.16420364 2.26832485
-0.22812054 -2.13674235 -2.67323995
-1.69306457 2.81149292 -0.34004146
-3.21962166 2.18311238 0.44859752
2.76240540 0.92127049 2.84135389
-0.33359048 1.70834768 3.11177874
-1.42900229 2.09750509 -2.47525692
-4.39266872 0.80777502 -0.93572021
-2.21317697 -0.36398333 3.30995011
2.07902169 0.12539485 -3.39243603
-1.20056295 1.57291961 3.08532977
-1.32489598 -0.36504677 3.60215998
-2.00548124 -2.63028049 0.95705003
-0.75666261 2.56058455 1.92299747
-3.36036730 1.15910268 -2.22450423
-1.41942000 -0.85199058 -3.44671679
-4.65591717 0.47312626 0.11859145
-0.04848436 0.20705715 3.77397919
1.41836548 -2.60041332 -1.56817889
-3.44505239 -0.05791153 2.58279657
1.24378431 0.76376057 -3.52186346
-2.71735644 0.83365470 -2.91159391
4.41665220 -0.42046821 -1.22145104
4.39376020 -0.17764159 1.35713482
-3.16994452 -1.26455951 -2.31219101
-3.47049737 -0.95931876 2.26315594
-0.01435794 -2.94357228 0.87997192
-1.84675932 2.49332190 1.55194628
-0.99161500 -2.27407241 2.36715698
3.32445192 -0.90658200 -2.43219447
-0.09614407 -3.02516723 0.10763518
1.73397017 -0.43431374 3.47643566
2.85773873 2.02789044 1.62222517
1.12588346 1.51591468 3.14756083
0.70562559 -0.46892452 -3.69427896
0.68613237 2.39864182 -2.24102736
2.17760348 -2.51240659 1.18227220
-3.58937860 -1.52321243 1.54932749
4.02066517 -0.13418545 1.97046697
-4.08837938 -0.96407926 -1.44929051
0.42913252 -2.63204789 -1.83463180
4.28550243 0.76773912 -1.25315738
0.93888164 -1.67124236 3.06253028
-2.45430517 0.51741189 -3.16508222
4.59170198 -0.19164468 -0.83120036
-0.50465196 1.77123654 -3.04078650
0.92199636 2.96431875 -0.17901914
-2.47549820 2.46964741 -0.91392332
4.53866673 0.41508055 -0.88830256
-4.09994173 0.55528808 -1.73703933
-0.22005075 2.16204262 2.64305019
-4.18574333 -1.18651974 0.91602755
-2.25568843 1.19791496 2.96533418
3.05141091 2.22803211 0.74991655
-1.36479878 -1.25516689 3.26373315
-3.86219263 -0.46059200 2.09338665
-2.70358539 2.47311711 -0.23111628
1.74124742 0.93349940 3.31749320
-3.56438804 1.70116472 1.26923108
-4.67517233 -0.36962703 -0.19173776
-2.23373485 0.13520354 -3.32834005
-0.37500766 -1.43424904 -3.31869435
2.96809006 1.92463279 -1.69128990
-0.75488621 0.26372191 3.71975756
-3.49775481 -1.50220299 -1.70724058
-0.34008643 -2.94312835 -0.84193009
3.36577153 2.11098433 -0.23988888
1.78930736 -0.25907564 -3.48623967
1.61051702 2.36494088 -1.97480679
-4.30663204 -1.21433043 0.28516069
-1.06212580 2.94241285 0.23616225
-3.64076519 -1.91825736 0.16888319
4.58240128 0.01666428 0.89507973
-4.44745874 -0.54679078 1.05679452
0.61645937 -1.70112801 -3.08963704
1.84021986 2.78437662 -0.13256964
2.93262124 -2.08799458 1.40410686
3.78856373 -1.75726891 0.50068653
3.54784346 -1.83158517 -0.98473579
-4.54025698 -0.30720195 -0.94644445
-3.21445394 -2.07455182 -0.96682876
4.51072311 0.52879673 0.88373566
1.68351924 2.21260619 2.20045447
4.10060120 -1.01471579 1.37323177
2.66277766 -1.77493668 -2.19795609
-0.83580256 -2.89607835 0.86973667
-4.09922743 -1.45928001 -0.41221943
-0.88631302 0.50294060 -3.66284728
-2.48086715 1.53175926 -2.58590245
0.92579746 -2.85079646 1.03180814
-2.66916656 1.99462080 -1.87534106
0.79999304 -2.53923059 1.95523250
0.31643420 -2.85377860 -1.23390746
-0.11588258 -0.73277026 -3.67012548
-2.98572302 -0.71917343 -2.78767419
4.45218420 0.03655788 -1.24683356
-3.26527023 1.42660379 2.06721663
-4.61885643 -0.04430952 0.76115149
0.87653685 -1.15245247 -3.42684817
2.54328871 -2.51746297 -0.50080353
2.58470106 -1.72937095 2.31049395
4.57391405 0.73017281 -0.14264886
-1.91648340 1.01982391 -3.21334457
0.92512858 0.23443943 -3.69813895
3.95915389 -1.63308382 -0.23553267
-4.05698872 1.25666320 1.11750782
3 135 229 189
3 110 247 223
3 223 247 83
3 30 31 99
3 209 229 135
3 209 223 83
3 38 189 229
3 64 43 38
3 38 43 189
3 94 194 69
3 149 181 146
3 80 233 188
3 146 181 131
3 146 131 141
3 141 131 188
3 110 223 205
3 237 68 22
3 172 144 29
3 198 86 191
3 191 251 198
3 69 194 198
3 198 251 69
3 51 226 186
3 23 78 132
3 99 31 132
3 19 78 23
3 165 30 11
3 23 190 242
3 159 76 59
3 59 108 159
3 248 184 112
3 243 184 248
3 211 243 248
3 248 224 211
3 211 224 82
3 82 30 211
3 34 224 58
3 234 47 58
3 58 47 34
3 21 43 64
3 174 30 99
3 135 189 236
3 46 48 230
3 227 94 119
3 167 149 44
3 44 213 167
3 49 80 188
3 188 131 49
3 136 141 188
3 182 55 28
3 148 55 182
3 250 226 101
3 180 109 52
3 186 239 52
3 52 51 186
3 72 149 167
3 181 149 72
3 72 71 181
3 121 140 250
3 107 158 133
3 96 107 175
3 175 107 205
3 68 237 252
3 252 61 68
3 68 61 195
3 61 156 195
3 245 198 194
3 86 198 245
3 245 194 172
3 172 29 245
3 245 29 86
3 59 76 62
3 191 86 12
3 86 29 12
3 81 251 191
3 191 105 81
3 212 105 191
3 191 12 212
3 203 182 28
3 17 144 172
3 60 47 1
3 1 47 234
3 168 190 34
3 34 47 168
3 109 242 168
3 168 242 190
3 168 47 60
3 227 226 145
3 226 51 145
3 145 1 228
3 109 168 18
3 18 168 60
3 18 52 109
3 51 52 18
3 180 19 215
3 215 19 23
3 23 242 215
3 215 109 180
3 215 242 109
3 78 19 4
3 4 41 46
3 70 243 211
3 70 165 243
3 211 30 70
3 30 165 70
3 116 237 22
3 22 184 116
3 116 184 243
3 25 29 144
3 25 108 59
3 25 12 29
3 217 108 14
3 217 159 108
3 217 14 112
3 112 184 217
3 253 184 22
3 253 217 184
3 159 217 253
3 112 14 45
3 45 248 112
3 224 248 45
3 45 58 224
3 151 224 34
3 151 82 224
3 34 190 151
3 151 190 23
3 31 30 151
3 30 82 151
3 23 132 151
3 151 132 31
3 210 252 237
3 237 116 210
3 43 21 244
3 244 174 43
3 244 210 11
3 21 210 244
3 11 30 244
3 30 174 244
3 214 236 189
3 48 236 214
3 214 230 48
3 189 43 214
3 43 174 214
3 214 174 99
3 201 205 223
3 201 175 205
3 221 236 48
3 46 41 221
3 221 48 46
3 78 230 77
3 99 132 77
3 77 132 78
3 77 214 99
3 230 214 77
3 222 94 69
3 222 119 94
3 69 251 231
3 231 222 69
3 136 222 231
3 141 136 50
3 50 55 141
3 136 231 50
3 93 55 148
3 148 2 93
3 93 2 183
3 16 85 246
3 110 205 16
3 220 75 152
3 233 80 139
3 80 101 139
3 227 119 139
3 139 119 233
3 139 226 227
3 139 101 226
3 180 52 176
3 176 52 239
3 63 41 3
3 3 26 63
3 89 13 92
3 92 241 89
3 13 176 92
3 239 241 92
3 92 176 239
3 5 239 186
3 5 241 239
3 140 241 5
3 186 226 5
3 5 226 250
3 250 140 5
3 40 178 89
3 40 15 178
3 89 241 40
3 40 241 140
3 181 71 27
3 71 121 27
3 27 131 181
3 140 121 192
3 192 40 140
3 15 40 192
3 71 15 192
3 192 121 71
3 33 21 64
3 37 156 240
3 61 252 238
3 128 240 238
3 238 156 61
3 238 240 156
3 127 220 53
3 75 220 127
3 53 196 127
3 196 103 127
3 127 138 75
3 103 138 127
3 106 81 105
3 106 203 28
3 106 50 231
3 251 81 106
3 106 231 251
3 84 7 218
3 84 212 7
3 7 212 115
3 115 212 12
3 115 62 7
3 228 17 254
3 254 94 227
3 227 145 254
3 254 145 228
3 249 18 60
3 51 18 249
3 249 145 51
3 60 1 249
3 1 145 249
3 54 230 78
3 78 4 54
3 46 230 54
3 54 4 46
3 243 165 117
3 117 116 243
3 117 165 11
3 11 210 117
3 117 210 116
3 179 25 144
3 108 25 179
3 144 97 179
3 35 25 59
3 12 25 35
3 35 115 12
3 59 62 35
3 62 115 35
3 142 17 228
3 234 97 142
3 144 17 142
3 142 97 144
3 142 1 234
3 228 1 142
3 234 58 100
3 58 45 100
3 100 97 234
3 100 45 14
3 193 210 21
3 193 33 171
3 21 33 193
3 171 252 193
3 252 210 193
3 187 41 63
3 175 201 187
3 187 221 41
3 201 221 187
3 63 96 187
3 96 175 187
3 236 221 219
3 219 221 201
3 219 209 135
3 135 236 219
3 223 209 219
3 219 201 223
3 173 136 188
3 173 222 136
3 188 233 173
3 233 119 173
3 119 222 173
3 148 182 232
3 232 2 148
3 6 2 232
3 182 203 232
3 126 155 44
3 126 44 149
3 183 2 126
3 207 93 183
3 207 126 149
3 183 126 207
3 207 149 146
3 141 55 154
3 55 93 154
3 146 141 154
3 154 207 146
3 93 207 154
3 246 255 104
3 104 16 246
3 110 16 104
3 104 247 110
3 133 85 169
3 85 16 169
3 169 16 205
3 169 107 133
3 205 107 169
3 208 255 246
3 246 90 208
3 235 176 13
3 235 19 180
3 180 176 235
3 124 235 13
3 178 26 24
3 26 3 24
3 89 178 24
3 3 124 24
3 24 13 89
3 24 124 13
3 111 107 96
3 111 96 63
3 63 26 111
3 111 26 178
3 123 27 121
3 123 121 250
3 123 49 131
3 131 27 123
3 250 101 123
3 80 49 123
3 123 101 80
3 255 208 20
3 199 33 64
3 164 33 199
3 37 240 57
3 57 240 197
3 57 197 152
3 152 75 57
3 75 138 57
3 114 252 171
3 114 238 252
3 171 33 114
3 114 33 164
3 114 164 128
3 128 238 114
3 36 195 156
3 36 185 195
3 36 156 37
3 37 57 36
3 36 57 138
3 103 185 36
3 36 138 103
3 66 62 76
3 7 62 66
3 76 159 170
3 159 253 170
3 170 66 76
3 79 66 170
3 87 106 28
3 50 106 87
3 28 55 87
3 55 50 87
3 105 212 98
3 212 84 98
3 94 254 120
3 120 254 17
3 194 94 120
3 172 194 120
3 120 17 172
3 143 179 97
3 97 100 143
3 143 100 14
3 14 108 143
3 108 179 143
3 200 126 2
3 155 126 200
3 200 2 6
3 6 163 200
3 53 220 74
3 246 85 9
3 9 202 246
3 177 90 150
3 150 90 246
3 247 104 166
3 83 247 166
3 166 209 83
3 166 118 209
3 88 4 19
3 19 235 88
3 41 4 88
3 204 161 158
3 158 107 204
3 107 111 204
3 128 164 95
3 164 199 95
3 153 208 90
3 153 20 208
3 229 209 32
3 209 118 32
3 32 38 229
3 64 38 32
3 32 199 64
3 73 66 79
3 73 185 218
3 218 7 73
3 7 66 73
3 195 185 73
3 73 79 195
3 79 170 39
3 68 195 39
3 195 79 39
3 22 68 39
3 39 253 22
3 39 170 253
3 65 103 196
3 218 185 65
3 65 185 103
3 65 84 218
3 65 98 84
3 163 74 125
3 177 150 125
3 125 150 163
3 125 220 177
3 125 74 220
3 53 74 137
3 137 232 53
3 6 232 137
3 137 163 6
3 137 74 163
3 213 44 42
3 44 0 42
3 42 161 213
3 158 161 42
3 155 200 91
3 91 200 163
3 163 150 91
3 118 166 56
3 162 124 3
3 162 3 41
3 41 88 162
3 235 124 162
3 162 88 235
3 161 204 130
3 130 72 167
3 167 213 130
3 213 161 130
3 197 240 10
3 10 240 128
3 128 95 10
3 147 90 177
3 147 153 90
3 147 220 152
3 177 220 147
3 105 98 216
3 98 129 216
3 216 129 203
3 216 106 105
3 203 106 216
3 98 65 225
3 225 129 98
3 225 65 196
3 203 129 225
3 225 196 53
3 53 232 225
3 225 232 203
3 133 158 113
3 158 42 113
3 113 0 202
3 113 42 0
3 155 91 160
3 44 155 160
3 160 0 44
3 102 91 150
3 246 202 102
3 102 150 246
3 102 160 91
3 202 0 102
3 0 160 102
3 118 56 67
3 20 10 67
3 67 10 95
3 134 56 166
3 134 104 255
3 134 166 104
3 255 20 134
3 20 67 134
3 134 67 56
3 122 130 204
3 178 15 122
3 122 15 71
3 122 111 178
3 122 204 111
3 71 72 122
3 72 130 122
3 152 197 206
3 206 147 152
3 153 147 206
3 197 10 206
3 20 153 206
3 206 10 20
3 8 85 133
3 133 113 8
3 8 9 85
3 202 9 8
3 8 113 202
3 118 67 157
3 157 67 95
3 157 32 118
3 157 95 199
3 199 32 157