ply
format ascii 1.0
comment https://github.com/mikedh/trimesh
element vertex 256
property float x
property float y
property float z
element face 508
property list uchar int vertex_indices
end_header
-0.64444607 1.18503904 1.90240252
1.21467185 -2.27894115 -0.69532841
0.53201962 2.16705012 1.51726234
-0.74452978 -2.73439121 0.82233322
-0.91864127 -2.83192945 -0.20995913
0.58442611 -2.69559622 1.02759814
0.10677125 2.55990171 1.34981787
1.09189403 1.62975276 -1.41816938
-1.07093811 0.97614956 1.68735814
-1.22117949 1.15486109 1.48723841
-1.43139553 1.93486190 -0.61263776
-0.82045221 -0.69515407 -1.92203081
1.56606305 0.84345049 -1.10100591
-0.26318729 -2.98638105 0.81932938
0.76712787 -0.89939499 -1.91270435
0.13874760 -1.75470734 1.84081495
-1.57270265 0.46692115 1.18706715
1.67755198 -1.20877922 -0.62247908
0.79146314 -2.89589572 -0.41000852
-0.50926864 -3.13013196 -0.12987158
-1.53965855 1.89018667 0.15201585
-1.31832445 -0.18357165 -1.57250953
-0.08241970 0.56158185 -2.15859246
-0.19712415 -3.03176832 -0.76728743
-0.43693694 -2.79945374 1.00129223
1.43198633 -0.11084577 -1.43738532
-0.68018693 -2.36586142 1.28659153
0.87927318 -0.86066747 1.85523522
1.36170423 2.01271558 0.70351160
1.64227247 -0.08654455 -1.09741700
-0.62926102 -1.75193882 -1.69993424
-0.65247405 -2.13761520 -1.47244895
-1.81598401 0.38240677 -0.58222759
-1.33175898 0.73037118 -1.48258007
0.39323366 -2.52065873 -1.31147790
1.34266388 0.77640355 -1.45911455
-0.25596991 2.78526735 -1.09804463
-0.62647945 2.53083730 -1.17505133
-1.72437775 -0.38239190 -0.87804115
0.29186910 1.03974092 -2.05123496
0.23701501 -2.33113885 1.50654519
-1.17928898 -2.49661279 0.34904408
-0.61635619 0.65646261 2.02722716
-1.44098306 -0.74373031 -1.33557355
-0.14872625 0.78998154 2.12136412
0.55172026 -1.48782241 -1.84379005
-1.24627411 -2.44607425 -0.13730903
0.85352921 -2.41830897 -1.08822882
-1.43634415 -2.06812358 -0.33235633
1.33687615 -0.66608119 1.49005592
1.61782062 1.12392831 0.85932970
0.99645859 -2.76425481 0.11863989
0.53431928 -3.10262299 0.24862835
0.22466573 3.22421288 0.16399442
-1.10208488 -2.59645414 -0.35617551
1.39457965 1.43949497 1.12772608
-1.82610846 0.87654936 -0.08115578
-0.72672969 2.74169827 -0.83221549
0.70847666 -2.03968477 -1.50076520
1.27453506 0.22798264 -1.61804008
1.00914359 -2.61880064 -0.58260006
-0.57774884 1.87040234 -1.66668296
1.15043068 0.85502803 -1.64620280
-1.15677547 -1.89936411 1.17771447
-1.59740102 0.13989112 -1.17981458
0.60102683 2.98414540 -0.53605127
0.74018121 1.36185694 -1.79938996
-1.73529387 1.24068081 -0.29421505
-0.21570745 1.11956108 -2.04462576
1.88932407 0.27760783 0.07014704
-0.41641653 -1.35388911 -1.93614256
0.41511577 -0.74456525 2.08075953
0.20627034 -0.36430779 2.16705060
0.57197487 1.72661996 -1.73838651
-0.31267583 3.08153319 0.60927063
-0.42280179 3.15477943 -0.23180909
0.85577780 0.56112796 -1.92124224
-1.20193970 -2.14003420 -0.89601165
-0.84127122 -2.70091558 -0.74358958
0.46003661 1.43781662 -1.89473820
1.47553158 -1.19827318 1.11822784
1.69304860 1.43677044 -0.20376669
-0.04010453 -1.93739033 -1.76242268
-1.89212418 -0.14248179 0.12118609
0.88794160 2.52343369 -0.93107969
-1.36430299 0.66323894 1.45805311
1.69152331 0.52652311 -0.92738855
1.55117238 1.56337941 0.69808775
-0.80771810 -2.94537950 0.04949887
-0.20163758 -2.69277835 1.21069968
-1.18001413 2.13584924 0.93798256
-0.54022795 2.05988646 1.57955837
-0.00769820 -2.97637272 0.88977027
0.96287638 1.37235308 1.64857638
1.76750541 -1.16119039 0.15256658
-1.60785091 1.37011051 -0.71040785
-1.15637958 -1.53671217 1.39712465
1.27440977 -1.40789652 -1.31892991
0.97266954 2.61788964 -0.65957904
-1.04583633 -1.93568993 -1.28488052
0.86339074 -1.51266456 -1.66663289
1.33082843 -1.60122001 1.13099802
-0.73005223 1.58966470 1.71805465
0.07257316 3.11975503 -0.62269914
-1.73057556 0.73184967 0.75049567
1.47637093 1.98881197 -0.31718090
1.62061393 1.61051381 0.34926865
-1.24054766 -0.82217807 1.56453526
1.24606442 -0.35372603 -1.63666070
0.31383002 -3.13580561 -0.46484038
-1.70577753 0.38713461 0.92428041
-0.73158920 -1.75369966 1.64302599
0.53505403 -0.79815614 -2.03468466
-0.85945868 0.71639276 1.89496732
-1.15398645 1.28811705 -1.50948584
1.29509711 1.21499121 -1.37873375
-0.34976786 0.00659230 -2.15607619
-0.51450330 -0.39996758 -2.09463859
-1.84079635 0.63319600 -0.31304273
1.73369193 -1.07659280 0.51836914
1.76307738 -1.17414320 -0.17434862
0.81228805 -1.30548167 1.77644539
-0.09839547 -1.44758058 1.96164072
1.06517255 -1.29143536 1.59312427
-0.52587748 -2.95353031 0.69561392
-0.51203811 2.85116720 0.87823516
0.19474199 1.53714609 1.92089987
0.01557568 3.23972631 -0.21301368
-1.20885062 1.71179187 -1.23561525
1.16479683 2.56889677 -0.05767091
-0.29659498 -0.80858743 2.09761214
1.14081800 -0.40869895 1.73102379
-0.77096969 -2.36218524 -1.21855354
-1.14639878 -0.10695440 1.74685562
-1.79583263 0.99416679 0.22558370
-1.75828445 -1.04027593 -0.43194261
1.69824111 0.49454859 0.91920632
0.05848477 2.85738254 1.04953349
-0.27068564 3.02213621 -0.75330788
1.39805675 -1.87939596 0.77088672
0.58083194 -2.31354642 1.38949013
1.42256117 0.79763705 1.34806967
1.53707957 -1.36756778 -0.89741856
1.03090990 -1.15329838 -1.66971135
1.55368543 -0.91665339 -1.09771538
1.27861214 -2.40490985 0.00753768
1.08098435 0.53278941 1.76655614
-1.10657823 2.62618232 0.20606704
1.07073867 2.01480055 1.19906414
0.33325586 0.33431268 2.14808559
-0.68159270 2.32819009 1.31528533
-0.09176484 -2.29864812 -1.55007493
-0.68106014 3.02452588 -0.19717261
-1.29514015 2.34853148 0.26011872
1.11121821 0.99107718 1.64755559
-0.13419168 1.83779299 1.80436110
-0.57483721 2.25643754 -1.43527460
-1.76701558 0.86898190 -0.54257619
-0.89028299 -0.39156315 1.91927052
0.83631706 0.13489629 -1.96709991
-0.48294413 1.69210327 1.78902471
-0.53295887 -0.39270717 2.08870792
-0.80673438 -2.82958269 0.55494428
-0.30437866 2.75460577 1.11504769
-1.35175717 1.24693048 -1.28987610
-0.57098258 -0.91654778 -1.99857450
-1.87291110 0.50897604 0.06876510
-0.01950355 0.22274631 2.18833709
0.57055837 -2.79745245 -0.90930665
-1.38582301 -0.06229961 1.49763143
0.50033051 0.82163239 -2.04214811
-1.09309661 0.89682257 -1.68828404
1.77666342 -0.45232803 -0.70825684
1.76745462 -0.19110188 0.78693300
-1.27515674 -1.36037803 -1.34072113
-1.39605868 -1.03200841 1.31228817
-0.00577569 -3.16661334 0.51025063
-0.74288607 2.68224645 0.89989412
-0.39889172 -2.44638371 1.37259305
1.33730960 -0.97527570 -1.41030502
-0.03867537 -3.25439072 0.06241213
0.69751501 -0.46722266 2.01580691
1.14956748 2.18154812 0.94064528
0.45290318 1.63077891 1.82510924
0.28384826 -0.50445598 -2.14212322
0.27600685 2.58039212 -1.29945695
0.87597299 -2.70277739 0.68553913
-1.44388032 -1.63862956 0.89837563
1.61737168 -0.14435297 1.14257276
-1.64461076 -1.03712964 -0.84036928
0.17262487 -2.83148408 -1.06380904
1.72390628 0.82591236 -0.72664177
0.37767896 -1.79787612 1.77580440
-0.98728031 0.55661732 -1.83526909
1.84707963 -0.20616603 -0.48197052
-0.20300367 1.90544701 -1.76319635
0.37088659 3.18893170 -0.10380402
-0.99580562 2.65677810 -0.52993733
1.82574546 0.44653210 -0.51508117
-1.64926195 0.59736347 -1.00722015
-0.08851865 2.32586527 1.53256941
-1.68377686 -1.27642488 0.53115743
-0.90738386 1.28868353 1.71944535
1.22747493 2.39685512 0.43483818
-0.54901034 -1.35027361 1.89247167
-1.55362380 -0.49549210 1.21384764
-1.08755696 2.66051054 -0.13401249
0.70044237 1.00423276 1.92364430
-1.43382752 1.83006573 0.73596209
-1.88065672 -0.39763451 -0.11117890
-0.89855272 0.14544821 -1.92993391
-0.15085234 -1.54292524 -1.92434084
1.19395792 2.07046652 -0.98069239
-0.30366409 0.28370470 2.15689683
-1.40702331 -1.61602819 -0.98994130
-0.13680477 -3.16613555 -0.48819214
1.35393107 2.27093816 -0.13909927
0.71977520 -0.27870637 -2.02149177
0.64785415 2.54413772 -1.14508927
-1.73240614 -1.30634296 0.16535008
-0.42725569 3.16536593 0.13693838
-1.46455133 -2.06360793 0.09792671
1.84333837 0.01792697 0.51901084
-1.78905571 -0.58822232 0.61278099
0.24797983 -1.83002615 -1.79152226
0.74025548 2.99535513 -0.07687034
1.17969000 -2.24620652 0.81416965
1.52400553 -1.89042115 0.29032245
1.42717218 -1.97036839 -0.57099783
-1.82638526 -0.33047932 -0.54879463
-1.29306138 -2.23174524 -0.56061447
1.81450474 0.56886482 0.51243305
0.67722034 2.38025999 1.27593088
1.64952707 -1.09160304 0.79626673
1.07114148 -1.90942752 -1.27448213
-0.33621389 -3.11552048 0.50431573
-1.64897466 -1.56985283 -0.23902494
-0.35653245 0.54104954 -2.12389755
-0.99796528 1.64782405 -1.49943233
0.37241566 -3.06680751 0.59829271
-1.07371151 2.14575744 -1.08741426
0.32180896 -2.73163366 1.13373923
0.12729031 -3.07001567 -0.71547973
-0.04661547 -0.78829384 -2.12811780
-1.20105100 -0.77366680 -1.61642945
1.79095650 0.03932795 -0.72297496
-1.31350291 1.53470075 1.19867313
-1.85800290 -0.04766695 0.44135275
0.35259986 -1.23977625 -1.98705375
1.02307534 -2.70821667 -0.29039031
1.03973401 -1.86040914 1.33973706
1.83992422 0.78549957 -0.08271477
-0.77093363 1.09709823 -1.86325383
0.37214658 0.25220343 -2.14436126
1.59262788 -1.75682616 -0.13657333
-1.63198340 1.35188341 0.64798552
3 135 229 189
3 110 247 223
3 223 247 83
3 30 31 99
3 209 229 135
3 209 223 83
3 38 189 229
3 64 43 38
3 38 43 189
3 94 194 69
3 149 181 146
3 80 233 188
3 146 181 131
3 146 131 141
3 141 131 188
3 110 223 205
3 237 68 22
3 172 144 29
3 198 86 191
3 191 251 198
3 69 194 198
3 198 251 69
3 51 226 186
3 23 78 132
3 99 31 132
3 19 78 23
3 165 30 11
3 23 190 242
3 159 76 59
3 59 108 159
3 248 184 112
3 243 184 248
3 211 243 248
3 248 224 211
3 211 224 82
3 82 30 211
3 34 224 58
3 234 47 58
3 58 47 34
3 21 43 64
3 174 30 99
3 135 189 236
3 46 48 230
3 227 94 119
3 167 149 44
3 44 213 167
3 49 80 188
3 188 131 49
3 136 141 188
3 182 55 28
3 148 55 182
3 250 226 101
3 180 109 52
3 186 239 52
3 52 51 186
3 72 149 167
3 181 149 72
3 72 71 181
3 121 140 250
3 107 158 133
3 96 107 175
3 175 107 205
3 68 237 252
3 252 61 68
3 68 61 195
3 61 156 195
3 245 198 194
3 86 198 245
3 245 194 172
3 172 29 245
3 245 29 86
3 59 76 62
3 191 86 12
3 86 29 12
3 81 251 191
3 191 105 81
3 212 105 191
3 191 12 212
3 203 182 28
3 17 144 172
3 60 47 1
3 1 47 234
3 168 190 34
3 34 47 168
3 109 242 168
3 168 242 190
3 168 47 60
3 227 226 145
3 226 51 145
3 145 1 228
3 109 168 18
3 18 168 60
3 18 52 109
3 51 52 18
3 180 19 215
3 215 19 23
3 23 242 215
3 215 109 180
3 215 242 109
3 78 19 4
3 4 41 46
3 70 243 211
3 70 165 243
3 211 30 70
3 30 165 70
3 116 237 22
3 22 184 116
3 116 184 243
3 25 29 144
3 25 108 59
3 25 12 29
3 217 108 14
3 217 159 108
3 217 14 112
3 112 184 217
3 253 184 22
3 253 217 184
3 159 217 253
3 112 14 45
3 45 248 112
3 224 248 45
3 45 58 224
3 151 224 34
3 151 82 224
3 34 190 151
3 151 190 23
3 31 30 151
3 30 82 151
3 23 132 151
3 151 132 31
3 210 252 237
3 237 116 210
3 43 21 244
3 244 174 43
3 244 210 11
3 21 210 244
3 11 30 244
3 30 174 244
3 214 236 189
3 48 236 214
3 214 230 48
3 189 43 214
3 43 174 214
3 214 174 99
3 201 205 223
3 201 175 205
3 221 236 48
3 46 41 221
3 221 48 46
3 78 230 77
3 99 132 77
3 77 132 78
3 77 214 99
3 230 214 77
3 222 94 69
3 222 119 94
3 69 251 231
3 231 222 69
3 136 222 231
3 141 136 50
3 50 55 141
3 136 231 50
3 93 55 148
3 148 2 93
3 93 2 183
3 16 85 246
3 110 205 16
3 220 75 152
3 233 80 139
3 80 101 139
3 227 119 139
3 139 119 233
3 139 226 227
3 139 101 226
3 180 52 176
3 176 52 239
3 63 41 3
3 3 26 63
3 89 13 92
3 92 241 89
3 13 176 92
3 239 241 92
3 92 176 239
3 5 239 186
3 5 241 239
3 140 241 5
3 186 226 5
3 5 226 250
3 250 140 5
3 40 178 89
3 40 15 178
3 89 241 40
3 40 241 140
3 181 71 27
3 71 121 27
3 27 131 181
3 140 121 192
3 192 40 140
3 15 40 192
3 71 15 192
3 192 121 71
3 33 21 64
3 37 156 240
3 61 252 238
3 128 240 238
3 238 156 61
3 238 240 156
3 127 220 53
3 75 220 127
3 53 196 127
3 196 103 127
3 127 138 75
3 103 138 127
3 106 81 105
3 106 203 28
3 106 50 231
3 251 81 106
3 106 231 251
3 84 7 218
3 84 212 7
3 7 212 115
3 115 212 12
3 115 62 7
3 228 17 254
3 254 94 227
3 227 145 254
3 254 145 228
3 249 18 60
3 51 18 249
3 249 145 51
3 60 1 249
3 1 145 249
3 54 230 78
3 78 4 54
3 46 230 54
3 54 4 46
3 243 165 117
3 117 116 243
3 117 165 11
3 11 210 117
3 117 210 116
3 179 25 144
3 108 25 179
3 144 97 179
3 35 25 59
3 12 25 35
3 35 115 12
3 59 62 35
3 62 115 35
3 142 17 228
3 234 97 142
3 144 17 142
3 142 97 144
3 142 1 234
3 228 1 142
3 234 58 100
3 58 45 100
3 100 97 234
3 100 45 14
3 193 210 21
3 193 33 171
3 21 33 193
3 171 252 193
3 252 210 193
3 187 41 63
3 175 201 187
3 187 221 41
3 201 221 187
3 63 96 187
3 96 175 187
3 236 221 219
3 219 221 201
3 219 209 135
3 135 236 219
3 223 209 219
3 219 201 223
3 173 136 188
3 173 222 136
3 188 233 173
3 233 119 173
3 119 222 173
3 148 182 232
3 232 2 148
3 6 2 232
3 182 203 232
3 126 155 44
3 126 44 149
3 183 2 126
3 207 93 183
3 207 126 149
3 183 126 207
3 207 149 146
3 141 55 154
3 55 93 154
3 146 141 154
3 154 207 146
3 93 207 154
3 246 255 104
3 104 16 246
3 110 16 104
3 104 247 110
3 133 85 169
3 85 16 169
3 169 16 205
3 169 107 133
3 205 107 169
3 208 255 246
3 246 90 208
3 235 176 13
3 235 19 180
3 180 176 235
3 124 235 13
3 178 26 24
3 26 3 24
3 89 178 24
3 3 124 24
3 24 13 89
3 24 124 13
3 111 107 96
3 111 96 63
3 63 26 111
3 111 26 178
3 123 27 121
3 123 121 250
3 123 49 131
3 131 27 123
3 250 101 123
3 80 49 123
3 123 101 80
3 255 208 20
3 199 33 64
3 164 33 199
3 37 240 57
3 57 240 197
3 57 197 152
3 152 75 57
3 75 138 57
3 114 252 171
3 114 238 252
3 171 33 114
3 114 33 164
3 114 164 128
3 128 238 114
3 36 195 156
3 36 185 195
3 36 156 37
3 37 57 36
3 36 57 138
3 103 185 36
3 36 138 103
3 66 62 76
3 7 62 66
3 76 159 170
3 159 253 170
3 170 66 76
3 79 66 170
3 87 106 28
3 50 106 87
3 28 55 87
3 55 50 87
3 105 212 98
3 212 84 98
3 94 254 120
3 120 254 17
3 194 94 120
3 172 194 120
3 120 17 172
3 143 179 97
3 97 100 143
3 143 100 14
3 14 108 143
3 108 179 143
3 200 126 2
3 155 126 200
3 200 2 6
3 6 163 200
3 53 220 74
3 246 85 9
3 9 202 246
3 177 90 150
3 150 90 246
3 247 104 166
3 83 247 166
3 166 209 83
3 166 118 209
3 88 4 19
3 19 235 88
3 41 4 88
3 204 161 158
3 158 107 204
3 107 111 204
3 128 164 95
3 164 199 95
3 153 208 90
3 153 20 208
3 229 209 32
3 209 118 32
3 32 38 229
3 64 38 32
3 32 199 64
3 73 66 79
3 73 185 218
3 218 7 73
3 7 66 73
3 195 185 73
3 73 79 195
3 79 170 39
3 68 195 39
3 195 79 39
3 22 68 39
3 39 253 22
3 39 170 253
3 65 103 196
3 218 185 65
3 65 185 103
3 65 84 218
3 65 98 84
3 163 74 125
3 177 150 125
3 125 150 163
3 125 220 177
3 125 74 220
3 53 74 137
3 137 232 53
3 6 232 137
3 137 163 6
3 137 74 163
3 213 44 42
3 44 0 42
3 42 161 213
3 158 161 42
3 155 200 91
3 91 200 163
3 163 150 91
3 118 166 56
3 162 124 3
3 162 3 41
3 41 88 162
3 235 124 162
3 162 88 235
3 161 204 130
3 130 72 167
3 167 213 130
3 213 161 130
3 197 240 10
3 10 240 128
3 128 95 10
3 147 90 177
3 147 153 90
3 147 220 152
3 177 220 147
3 105 98 216
3 98 129 216
3 216 129 203
3 216 106 105
3 203 106 216
3 98 65 225
3 225 129 98
3 225 65 196
3 203 129 225
3 225 196 53
3 53 232 225
3 225 232 203
3 133 158 113
3 158 42 113
3 113 0 202
3 113 42 0
3 155 91 160
3 44 155 160
3 160 0 44
3 102 91 150
3 246 202 102
3 102 150 246
3 102 160 91
3 202 0 102
3 0 160 102
3 118 56 67
3 20 10 67
3 67 10 95
3 134 56 166
3 134 104 255
3 134 166 104
3 255 20 134
3 20 67 134
3 134 67 56
3 122 130 204
3 178 15 122
3 122 15 71
3 122 111 178
3 122 204 111
3 71 72 122
3 72 130 122
3 152 197 206
3 206 147 152
3 153 147 206
3 197 10 206
3 20 153 206
3 206 10 20
3 8 85 133
3 133 113 8
3 8 9 85
3 202 9 8
3 8 113 202
3 118 67 157
3 157 67 95
3 157 32 118
3 157 95 199
3 199 32 157