ply
format ascii 1.0
comment https://github.com/mikedh/trimesh
element vertex 256
property float x
property float y
property float z
element face 508
property list uchar int vertex_indices
end_header
-1.14753079 0.43386102 4.31346846
2.16290140 -0.83435541 -1.57657337
0.94733894 0.79339033 3.44020963
-1.32574451 -1.00110269 1.86454153
-1.63577557 -1.03681290 -0.47605702
1.04065645 -0.98689926 2.32995486
0.19012189 0.93721944 3.06054950
1.94427752 0.59667760 -3.21552801
-1.90696228 0.35738337 3.82588148
-2.17448926 0.42281240 3.37213373
-2.54880977 0.70838273 -1.38908231
-1.46093547 -0.25450659 -4.35797310
2.78860497 0.30880019 -2.49639821
-0.46864358 -1.09336007 1.85773063
1.36598372 -0.32928234 -4.33682680
0.24706046 -0.64242536 4.17382622
-2.80042768 0.17094702 2.69153166
2.98712754 -0.44255266 -1.41139638
1.40931618 -1.06023204 -0.92964494
-0.90682751 -1.14598954 -0.29446816
-2.74158812 0.69202644 0.34467760
-2.34747005 -0.06720841 -3.56547594
-0.14676036 0.20560375 -4.89434814
-0.35100847 -1.10997701 -1.73973179
-0.77803034 -1.02492309 2.27030945
2.54986167 -0.04058234 -3.25909805
-1.21117258 -0.86617821 2.91719151
1.56567490 -0.31510359 4.20652246
2.42471409 0.73688608 1.59512782
2.92430711 -0.03168529 -2.48826098
-1.12049162 -0.64141178 -3.85439610
-1.16182578 -0.78261381 -3.33860064
-3.23362589 0.14000501 -1.32013094
-2.37139225 0.26740012 -3.36157155
0.70021021 -0.92285192 -2.97361827
2.39081001 0.28425330 -3.30836654
-0.45579198 1.01972926 -2.48968387
-1.11553848 0.92657846 -2.66428733
-3.07050753 -0.13999955 -1.99085259
0.51971573 0.38066512 -4.65092802
0.42203999 -0.85346586 3.41590977
-2.09989691 -0.91404837 0.79141539
-1.09751260 0.24034107 4.59649372
-2.56588173 -0.27229109 -3.02825212
-0.26482892 0.28922439 4.80993748
0.98241884 -0.54471469 -4.18057156
-2.21917391 -0.89554542 -0.31133169
1.51983392 -0.88538015 -2.46742773
-2.55762148 -0.75717187 -0.75357795
2.38050413 -0.24386257 3.37852216
2.88076687 0.41148743 1.94842660
1.77434063 -1.01203620 0.26900166
0.95143390 -1.13591802 0.56373483
0.40005028 1.18043387 0.37183759
-1.96242380 -0.95060182 -0.80758512
2.48325348 0.52702123 2.55698299
-3.25165391 0.32091820 -0.18401094
-1.29404891 1.00377798 -1.88694835
1.26154661 -0.74675995 -3.40280437
2.26949668 0.08346795 -3.66871095
1.79692829 -0.95878321 -1.32097542
-1.02876651 0.68478304 -3.77900290
2.04851055 0.31303892 -3.73256636
-2.05980849 -0.69538641 2.67032552
-2.84440684 0.05121629 -2.67508745
1.07021642 1.09254158 -1.21543181
1.31800127 0.49859676 -4.07989979
-3.08994532 0.45423234 -0.66709715
-0.38409877 0.40988854 -4.63594246
3.36421871 0.10163650 0.15904996
-0.74149072 -0.49567962 -4.38997030
0.73917454 -0.27259681 4.71787119
0.36729461 -0.13337868 4.91352606
1.01848519 0.63214213 -3.94158220
-0.55676520 1.12819672 1.38144767
-0.75286061 1.15501332 -0.52559918
1.52383792 0.20543759 -4.35618544
-2.14022994 -0.78349942 -2.03159857
-1.49800682 -0.98884672 -1.68599975
0.81916267 0.52640676 -4.29609060
2.62740040 -0.43870625 2.53544712
3.01472139 0.52602375 -0.46201640
-0.07141200 -0.70930839 -3.99608111
-3.36920452 -0.05216477 0.27477485
1.58111024 0.92386788 -2.11111093
-2.42934179 0.24282198 3.30595970
3.01200533 0.19276820 -2.10274172
2.76208997 0.57237726 1.58282995
-1.43826056 -1.07834876 0.11223272
-0.35904530 -0.98586756 2.74511576
-2.10118818 0.78196722 2.12676239
-0.96195507 0.75415611 3.58145833
-0.01370777 -1.08969593 2.01744676
1.71454263 0.50243956 3.73794818
3.14730263 -0.42512965 0.34592634
-2.86301446 0.50161856 -1.61076415
-2.05910349 -0.56261396 3.16781163
2.26927352 -0.51545256 -2.99051452
1.73198080 0.95844972 -1.49551606
-1.86226499 -0.70868587 -2.91331172
1.53739381 -0.55380976 -3.77888918
2.36973524 -0.58623129 2.56440163
-1.29996514 0.58200073 3.89548206
0.12922716 1.14219034 -1.41189539
-3.08154368 0.26794142 1.70165861
2.62889504 0.72813469 -0.71916950
2.88574076 0.58963388 0.79192454
-2.20897698 -0.30101204 3.54739523
2.21880054 -0.12950453 -3.71093082
0.55882043 -1.14806676 -1.05396950
-3.03738713 0.14173594 2.09569430
-1.30270195 -0.64205647 3.72536349
0.95274222 -0.29221725 -4.61340237
-1.53039229 0.26228240 4.29660988
-2.05484223 0.47159946 -3.42257714
2.30611038 0.44482696 -3.12611246
-0.62281299 0.00241354 -4.88864326
-0.91614860 -0.14643428 -4.74934101
-3.27780795 0.23182279 -0.70978671
3.08709288 -0.39415717 1.17533946
3.13941789 -0.42987189 -0.39531448
1.44639814 -0.47795689 4.02787590
-0.17520756 -0.52998149 4.44778395
1.89669609 -0.47281432 3.61221743
-0.93640202 -1.08133292 1.57722080
-0.91175896 1.04385614 1.99129248
0.34676671 0.56277281 4.35540915
0.02773478 1.18611360 -0.48298284
-2.15253592 0.62671334 -2.80160880
2.07409167 0.94051260 -0.13076183
-0.52813089 -0.29603630 4.75608301
2.03139377 -0.14963098 3.92488790
-1.37282467 -0.86483234 -2.76292324
-2.04133129 -0.03915765 3.96078467
-3.19774342 0.36397976 0.51148391
-3.13088346 -0.38086104 -0.97937781
3.02396727 0.18106185 2.08418965
0.10414071 1.04613161 2.37969065
-0.48199552 1.10645056 -1.70803487
2.48944497 -0.68807578 1.74789274
1.03425646 -0.84702492 3.15050149
2.53307891 0.29202721 3.05658555
2.73699570 -0.50068760 -2.03478837
1.83568633 -0.42224026 -3.78586936
2.76656485 -0.33560091 -2.48893738
2.27675653 -0.88047445 0.01709077
1.92485118 0.19506240 4.00545311
-1.97042489 0.96148574 0.46723220
1.90660727 0.73764950 2.71873355
0.59341091 0.12239701 4.87052536
-1.21367574 0.85238624 2.98225117
-0.16340077 -0.84157038 -3.51460814
-1.21272743 1.10732543 -0.44706514
-2.30618715 0.85983354 0.58978790
1.97868693 0.36284861 3.73563385
-0.23894797 0.67284429 4.09117126
-1.02358198 0.82611650 -3.25431228
-3.14643049 0.31814763 -1.23022616
-1.58527946 -0.14335729 4.35171461
1.48918521 0.04938761 -4.46016216
-0.85995287 0.61950499 4.05639791
-0.94901145 -0.14377613 4.73589373
-1.43650889 -1.03595376 1.25826931
-0.54199082 1.00850356 2.52823639
-2.40700197 0.45652044 -2.92463875
-1.01671815 -0.33556226 -4.53152704
-3.33499312 0.18634397 0.15591659
-0.03472893 0.08155085 4.96179104
1.01596284 -1.02419043 -2.06174326
-2.46766114 -0.02280885 3.39569879
0.89091188 0.30081224 -4.63032484
-1.94641888 0.32834053 -3.82798076
3.16360974 -0.16560425 -1.60588717
3.14721227 -0.06996534 1.78427577
-2.27060366 -0.49805531 -3.03992367
-2.48588729 -0.37783417 2.97545528
-0.01028447 -1.15934587 1.15693188
-1.32281768 0.98201168 2.04040146
-0.71028519 -0.89565873 3.11218929
2.38127589 -0.35706344 -3.19769669
-0.06886716 -1.19148254 0.14151198
1.24202788 -0.17105740 4.57059956
2.04697347 0.79869831 2.13279986
0.80646056 0.59705323 4.13821554
0.50543350 -0.18468909 -4.85700607
0.49147066 0.94472122 -2.94636202
1.55979848 -0.98952836 1.55437732
-2.57104087 -0.59992748 2.03695846
2.87996769 -0.05284984 2.59064627
-2.92847061 -0.37970912 -1.90543616
0.30738389 -1.03664982 -2.41205883
3.06966805 0.30237922 -1.64757276
0.67251277 -0.65823007 4.02642250
-1.75799739 0.20378616 -4.16125154
3.28899622 -0.07548055 -1.09281003
-0.36147782 0.69761348 -3.99783540
0.66041797 1.16751695 -0.23536313
-1.77317798 0.97268730 -1.20156896
3.25100756 0.16348228 -1.16788447
-2.93675280 0.21870396 -2.28375030
-0.15762044 0.85153508 3.47491646
-2.99821186 -0.46731880 1.20433545
-1.61573017 0.47180688 3.89863515
2.18569922 0.87752551 0.98594320
-0.97759348 -0.49435595 4.29095173
-2.76645517 -0.18140727 2.75225329
-1.93655467 0.97405380 -0.30385718
1.24724042 0.36766505 4.36163187
-2.55314016 0.67001522 1.66870534
-3.34878516 -0.14558010 -0.25208476
-1.60000491 0.05325083 -4.37589264
-0.26861474 -0.56488866 -4.36321115
2.12601709 0.75802964 -2.22360182
-0.54071844 0.10386866 4.89050388
-2.50541139 -0.59165281 -2.24457264
-0.24360096 -1.15917099 -1.10691690
2.41087294 0.83142543 -0.31539086
1.28166533 -0.10203870 -4.58348894
1.15359938 0.93144792 -2.59635186
-3.08480334 -0.47827226 0.37491140
-0.76079148 1.15888917 0.31049129
-2.60784841 -0.75551862 0.22203702
3.28233433 0.00656334 1.17679465
-3.18567634 -0.21535724 1.38940704
0.44156447 -0.67000073 -4.06206083
1.31813347 1.09664559 -0.17429425
2.10061121 -0.82237071 1.84603155
2.71371531 -0.69211227 0.65827119
2.54128957 -0.72138220 -1.29466879
-3.25214672 -0.12099356 -1.24432576
-2.30248547 -0.81707627 -1.27112579
3.23099184 0.20827016 1.16188014
1.20589018 0.87144983 2.89301944
2.93722510 -0.39965269 1.80543900
1.90732455 -0.69907081 -2.88973451
-0.59867811 -1.14064002 1.14347517
-2.93624115 -0.57474726 -0.54196024
-0.63485837 0.19808656 -4.81568193
-1.77702355 0.60329372 -3.39978218
0.66314071 -1.12280548 1.35655653
-1.91190088 0.78559482 -2.46558070
0.57302809 -1.00009310 2.57061696
0.22665907 -1.12397993 -1.62226403
-0.08300568 -0.28860649 -4.82525063
-2.13864756 -0.28325132 -3.66505909
3.18906093 0.01439857 -1.63925862
-2.33888459 0.56187755 2.71784687
-3.30844665 -0.01745160 1.00071418
0.62785578 -0.45390117 -4.50540495
1.82173574 -0.99151975 -0.65842503
1.85139894 -0.68112439 3.03769231
3.27625489 0.28758350 -0.18754578
-1.37276042 0.40166456 -4.22470379
0.66266155 0.09233556 -4.86208105
2.83590770 -0.64320105 -0.30966356
-2.90598583 0.49494532 1.46922910
3 135 229 189
3 110 247 223
3 223 247 83
3 30 31 99
3 209 229 135
3 209 223 83
3 38 189 229
3 64 43 38
3 38 43 189
3 94 194 69
3 149 181 146
3 80 233 188
3 146 181 131
3 146 131 141
3 141 131 188
3 110 223 205
3 237 68 22
3 172 144 29
3 198 86 191
3 191 251 198
3 69 194 198
3 198 251 69
3 51 226 186
3 23 78 132
3 99 31 132
3 19 78 23
3 165 30 11
3 23 190 242
3 159 76 59
3 59 108 159
3 248 184 112
3 243 184 248
3 211 243 248
3 248 224 211
3 211 224 82
3 82 30 211
3 34 224 58
3 234 47 58
3 58 47 34
3 21 43 64
3 174 30 99
3 135 189 236
3 46 48 230
3 227 94 119
3 167 149 44
3 44 213 167
3 49 80 188
3 188 131 49
3 136 141 188
3 182 55 28
3 148 55 182
3 250 226 101
3 180 109 52
3 186 239 52
3 52 51 186
3 72 149 167
3 181 149 72
3 72 71 181
3 121 140 250
3 107 158 133
3 96 107 175
3 175 107 205
3 68 237 252
3 252 61 68
3 68 61 195
3 61 156 195
3 245 198 194
3 86 198 245
3 245 194 172
3 172 29 245
3 245 29 86
3 59 76 62
3 191 86 12
3 86 29 12
3 81 251 191
3 191 105 81
3 212 105 191
3 191 12 212
3 203 182 28
3 17 144 172
3 60 47 1
3 1 47 234
3 168 190 34
3 34 47 168
3 109 242 168
3 168 242 190
3 168 47 60
3 227 226 145
3 226 51 145
3 145 1 228
3 109 168 18
3 18 168 60
3 18 52 109
3 51 52 18
3 180 19 215
3 215 19 23
3 23 242 215
3 215 109 180
3 215 242 109
3 78 19 4
3 4 41 46
3 70 243 211
3 70 165 243
3 211 30 70
3 30 165 70
3 116 237 22
3 22 184 116
3 116 184 243
3 25 29 144
3 25 108 59
3 25 12 29
3 217 108 14
3 217 159 108
3 217 14 112
3 112 184 217
3 253 184 22
3 253 217 184
3 159 217 253
3 112 14 45
3 45 248 112
3 224 248 45
3 45 58 224
3 151 224 34
3 151 82 224
3 34 190 151
3 151 190 23
3 31 30 151
3 30 82 151
3 23 132 151
3 151 132 31
3 210 252 237
3 237 116 210
3 43 21 244
3 244 174 43
3 244 210 11
3 21 210 244
3 11 30 244
3 30 174 244
3 214 236 189
3 48 236 214
3 214 230 48
3 189 43 214
3 43 174 214
3 214 174 99
3 201 205 223
3 201 175 205
3 221 236 48
3 46 41 221
3 221 48 46
3 78 230 77
3 99 132 77
3 77 132 78
3 77 214 99
3 230 214 77
3 222 94 69
3 222 119 94
3 69 251 231
3 231 222 69
3 136 222 231
3 141 136 50
3 50 55 141
3 136 231 50
3 93 55 148
3 148 2 93
3 93 2 183
3 16 85 246
3 110 205 16
3 220 75 152
3 233 80 139
3 80 101 139
3 227 119 139
3 139 119 233
3 139 226 227
3 139 101 226
3 180 52 176
3 176 52 239
3 63 41 3
3 3 26 63
3 89 13 92
3 92 241 89
3 13 176 92
3 239 241 92
3 92 176 239
3 5 239 186
3 5 241 239
3 140 241 5
3 186 226 5
3 5 226 250
3 250 140 5
3 40 178 89
3 40 15 178
3 89 241 40
3 40 241 140
3 181 71 27
3 71 121 27
3 27 131 181
3 140 121 192
3 192 40 140
3 15 40 192
3 71 15 192
3 192 121 71
3 33 21 64
3 37 156 240
3 61 252 238
3 128 240 238
3 238 156 61
3 238 240 156
3 127 220 53
3 75 220 127
3 53 196 127
3 196 103 127
3 127 138 75
3 103 138 127
3 106 81 105
3 106 203 28
3 106 50 231
3 251 81 106
3 106 231 251
3 84 7 218
3 84 212 7
3 7 212 115
3 115 212 12
3 115 62 7
3 228 17 254
3 254 94 227
3 227 145 254
3 254 145 228
3 249 18 60
3 51 18 249
3 249 145 51
3 60 1 249
3 1 145 249
3 54 230 78
3 78 4 54
3 46 230 54
3 54 4 46
3 243 165 117
3 117 116 243
3 117 165 11
3 11 210 117
3 117 210 116
3 179 25 144
3 108 25 179
3 144 97 179
3 35 25 59
3 12 25 35
3 35 115 12
3 59 62 35
3 62 115 35
3 142 17 228
3 234 97 142
3 144 17 142
3 142 97 144
3 142 1 234
3 228 1 142
3 234 58 100
3 58 45 100
3 100 97 234
3 100 45 14
3 193 210 21
3 193 33 171
3 21 33 193
3 171 252 193
3 252 210 193
3 187 41 63
3 175 201 187
3 187 221 41
3 201 221 187
3 63 96 187
3 96 175 187
3 236 221 219
3 219 221 201
3 219 209 135
3 135 236 219
3 223 209 219
3 219 201 223
3 173 136 188
3 173 222 136
3 188 233 173
3 233 119 173
3 119 222 173
3 148 182 232
3 232 2 148
3 6 2 232
3 182 203 232
3 126 155 44
3 126 44 149
3 183 2 126
3 207 93 183
3 207 126 149
3 183 126 207
3 207 149 146
3 141 55 154
3 55 93 154
3 146 141 154
3 154 207 146
3 93 207 154
3 246 255 104
3 104 16 246
3 110 16 104
3 104 247 110
3 133 85 169
3 85 16 169
3 169 16 205
3 169 107 133
3 205 107 169
3 208 255 246
3 246 90 208
3 235 176 13
3 235 19 180
3 180 176 235
3 124 235 13
3 178 26 24
3 26 3 24
3 89 178 24
3 3 124 24
3 24 13 89
3 24 124 13
3 111 107 96
3 111 96 63
3 63 26 111
3 111 26 178
3 123 27 121
3 123 121 250
3 123 49 131
3 131 27 123
3 250 101 123
3 80 49 123
3 123 101 80
3 255 208 20
3 199 33 64
3 164 33 199
3 37 240 57
3 57 240 197
3 57 197 152
3 152 75 57
3 75 138 57
3 114 252 171
3 114 238 252
3 171 33 114
3 114 33 164
3 114 164 128
3 128 238 114
3 36 195 156
3 36 185 195
3 36 156 37
3 37 57 36
3 36 57 138
3 103 185 36
3 36 138 103
3 66 62 76
3 7 62 66
3 76 159 170
3 159 253 170
3 170 66 76
3 79 66 170
3 87 106 28
3 50 106 87
3 28 55 87
3 55 50 87
3 105 212 98
3 212 84 98
3 94 254 120
3 120 254 17
3 194 94 120
3 172 194 120
3 120 17 172
3 143 179 97
3 97 100 143
3 143 100 14
3 14 108 143
3 108 179 143
3 200 126 2
3 155 126 200
3 200 2 6
3 6 163 200
3 53 220 74
3 246 85 9
3 9 202 246
3 177 90 150
3 150 90 246
3 247 104 166
3 83 247 166
3 166 209 83
3 166 118 209
3 88 4 19
3 19 235 88
3 41 4 88
3 204 161 158
3 158 107 204
3 107 111 204
3 128 164 95
3 164 199 95
3 153 208 90
3 153 20 208
3 229 209 32
3 209 118 32
3 32 38 229
3 64 38 32
3 32 199 64
3 73 66 79
3 73 185 218
3 218 7 73
3 7 66 73
3 195 185 73
3 73 79 195
3 79 170 39
3 68 195 39
3 195 79 39
3 22 68 39
3 39 253 22
3 39 170 253
3 65 103 196
3 218 185 65
3 65 185 103
3 65 84 218
3 65 98 84
3 163 74 125
3 177 150 125
3 125 150 163
3 125 220 177
3 125 74 220
3 53 74 137
3 137 232 53
3 6 232 137
3 137 163 6
3 137 74 163
3 213 44 42
3 44 0 42
3 42 161 213
3 158 161 42
3 155 200 91
3 91 200 163
3 163 150 91
3 118 166 56
3 162 124 3
3 162 3 41
3 41 88 162
3 235 124 162
3 162 88 235
3 161 204 130
3 130 72 167
3 167 213 130
3 213 161 130
3 197 240 10
3 10 240 128
3 128 95 10
3 147 90 177
3 147 153 90
3 147 220 152
3 177 220 147
3 105 98 216
3 98 129 216
3 216 129 203
3 216 106 105
3 203 106 216
3 98 65 225
3 225 129 98
3 225 65 196
3 203 129 225
3 225 196 53
3 53 232 225
3 225 232 203
3 133 158 113
3 158 42 113
3 113 0 202
3 113 42 0
3 155 91 160
3 44 155 160
3 160 0 44
3 102 91 150
3 246 202 102
3 102 150 246
3 102 160 91
3 202 0 102
3 0 160 102
3 118 56 67
3 20 10 67
3 67 10 95
3 134 56 166
3 134 104 255
3 134 166 104
3 255 20 134
3 20 67 134
3 134 67 56
3 122 130 204
3 178 15 122
3 122 15 71
3 122 111 178
3 122 204 111
3 71 72 122
3 72 130 122
3 152 197 206
3 206 147 152
3 153 147 206
3 197 10 206
3 20 153 206
3 206 10 20
3 8 85 133
3 133 113 8
3 8 9 85
3 202 9 8
3 8 113 202
3 118 67 157
3 157 67 95
3 157 32 118
3 157 95 199
3 199 32 157