ply
format ascii 1.0
comment https://github.com/mikedh/trimesh
element vertex 256
property float x
property float y
property float z
element face 508
property list uchar int vertex_indices
end_header
-1.47637439 1.17596698 3.26984572
2.78271627 -2.26149464 -1.19512916
1.21881437 2.15046024 2.60786772
-1.70565832 -2.71345806 1.41342473
-2.10453391 -2.81024981 -0.36087734
1.33887362 -2.67496014 1.76623368
0.24460442 2.54030442 2.32006454
2.50144196 1.61727631 -2.43754673
-2.45343351 0.96867669 2.90022802
-2.79762459 1.14602005 2.55626249
-3.27921295 1.92004955 -1.05300057
-1.87959039 -0.68983233 -3.30358291
3.58772540 0.83699346 -1.89240682
-0.60294104 -2.96351886 1.40826178
1.75742865 -0.89250970 -3.28755260
0.31785968 -1.74127424 3.16398931
-3.60293603 0.46334663 2.04032874
3.84313774 -1.19952548 -1.06991589
1.81317890 -2.87372637 -0.70472187
-1.16669369 -3.10616946 -0.22322303
-3.52723479 1.87571645 0.26128453
-3.02017593 -0.18216632 -2.70282626
-0.18881695 0.55728269 -3.71018457
-0.45159569 -3.00855875 -1.31881213
-1.00098765 -2.77802253 1.72101915
3.28056622 -0.10999720 -2.47057509
-1.55825400 -2.34774947 2.21139121
2.01434469 -0.85407865 3.18877459
3.11955571 1.99730718 1.20919442
3.76231503 -0.08588201 -1.88623834
-1.44158673 -1.73852694 -2.92184377
-1.49476588 -2.12125087 -2.53084254
-4.16027403 0.37947926 -1.00073171
-3.05095339 0.72477984 -2.54825568
0.90086693 -2.50136185 -2.25416589
3.07593560 0.77045983 -2.50792336
-0.58640659 2.76394486 -1.88731706
-1.43521428 2.51146245 -2.01967597
-3.95041156 -0.37946451 -1.50917554
0.66864878 1.03178120 -3.52565861
0.54298246 -2.31329298 2.58944702
-2.70165682 -2.47749996 0.59993631
-1.41202283 0.65143710 3.48439431
-3.30117702 -0.73803669 -2.29558110
-0.34071997 0.78393382 3.64619660
1.26394701 -1.47643244 -3.16910291
-2.85511446 -2.42734838 -0.23600650
1.95536721 -2.39979577 -1.87044549
-3.29054976 -2.05229115 -0.57125348
3.06267643 -0.66098201 2.56110525
3.70629787 1.11532414 1.47701430
2.28280711 -2.74309325 0.20391802
1.22408283 -3.07887077 0.42734194
0.51469123 3.19952989 0.28187329
-2.52478838 -2.57657719 -0.61219382
3.19487047 1.42847490 1.93833339
-4.18346834 0.86983895 -0.13949040
-1.66487968 2.72070932 -1.43041039
1.62306345 -2.02407002 -2.57951236
2.91985798 0.22623733 -2.78108430
2.31186748 -2.59875250 -1.00137186
-1.32357645 1.85608351 -2.86469150
2.63554478 0.84848237 -2.82949018
-2.65008020 -1.88482356 2.02425337
-3.65951800 0.13882019 -2.02786303
1.37690449 2.96130037 -0.92136395
1.69569600 1.35143125 -3.09278798
-3.97541952 1.23118281 -0.50569624
-0.49416855 1.11099029 -3.51429868
4.32829046 0.27548262 0.12056860
-0.95397705 -1.34352446 -3.32783818
0.95099705 -0.73886526 3.57640529
0.47254887 -0.36151883 3.72472215
1.31034875 1.71340191 -2.98793554
-0.71631539 3.05794263 1.04721320
-0.96860516 3.13062811 -0.39843303
1.96051860 0.55683231 -3.30222750
-2.75354791 -2.12365127 -1.54006314
-1.92728519 -2.68023872 -1.27808034
1.05390716 1.42680943 -3.25667238
3.38032508 -1.18909991 1.92200804
3.87863898 1.42577124 -0.35023379
-0.09187628 -1.92255867 -3.02924871
-4.33470535 -0.14139102 0.20829441
2.03420329 2.50411558 -1.60033798
-3.12550926 0.65816152 2.50609875
3.87514472 0.52249229 -1.59399366
3.55361199 1.55141091 1.19987190
-1.85041761 -2.92283130 0.08507856
-0.46193561 -2.67216372 2.08094835
-2.70331812 2.11949825 1.61220264
-1.23761904 2.04411697 2.71494174
-0.01763595 -2.95358729 1.52933538
2.20587301 1.36184704 2.83356977
4.04921389 -1.15230083 0.26223114
-3.68345809 1.35962164 -1.22104764
-2.64917326 -1.52494788 2.40137506
2.91957116 -1.39711833 -2.26697421
2.22830820 2.59784865 -1.13368320
-2.39592743 -1.92087126 -2.20845032
1.97795916 -1.50108433 -2.86460543
3.04882145 -1.58896184 1.94395709
-1.67249143 1.57749510 2.95298910
0.16625930 3.09587193 -1.07029414
-3.96461058 0.72624701 1.28995061
3.38224792 1.97358668 -0.54516995
3.71269703 1.59818447 0.60032225
-2.84199548 -0.81588387 2.68912029
2.85463405 -0.35101807 -2.81308913
0.71895951 -3.11179972 -0.79896677
-3.90779996 0.38417089 1.58865142
-1.67601252 -1.74027431 2.82402992
1.22576606 -0.79204589 -3.49721193
-1.96895123 0.71090841 3.25706625
-2.64369082 1.27825594 -2.59450126
2.96696401 1.20568979 -2.36976480
-0.80129027 0.00654184 -3.70585966
-1.17868602 -0.39690563 -3.60026097
-4.21711731 0.62834859 -0.53805727
3.97174978 -1.06835091 0.89097184
4.03906965 -1.16515458 -0.29967007
1.86088705 -1.29548752 3.05335093
-0.22541615 -1.43649864 3.37166429
2.44022536 -1.28154874 2.73825884
-1.20474327 -2.93091965 1.19561994
-1.17303836 2.82933998 1.50950897
0.44613838 1.52537847 3.30163908
0.03568264 3.21492457 -0.36612749
-2.76938033 1.69868731 -2.12377310
2.66845655 2.54923058 -0.09912465
-0.67947543 -0.80239731 3.60537195
2.61352301 -0.40557018 2.97528052
-1.76622999 -2.34410167 -2.09444737
-2.62630796 -0.10613561 3.00249195
-4.11410904 0.98655599 0.38773286
-4.02808905 -1.03231215 -0.74242210
3.89053464 0.49076259 1.57993007
0.13398394 2.83550787 1.80393600
-0.62011921 2.99900031 -1.29478419
3.20283628 -1.86500823 1.32499862
1.33063960 -2.29583502 2.38825297
3.25897408 0.79153079 2.31705952
3.52132654 -1.35709834 -1.54248130
2.36173224 -1.14446926 -2.86989665
3.55936933 -0.90963602 -1.88675106
2.92919850 -2.38649917 0.01295574
2.47644877 0.52871066 3.03635335
-2.53508234 2.60607767 0.35418764
2.45297670 1.99937642 2.06094909
0.76346254 0.33175334 3.69212556
-1.56147444 2.31036663 2.26071000
-0.21022592 -2.28105068 -2.66426587
-1.56025434 3.00137162 -0.33889991
-2.96706271 2.33055234 0.44709158
2.54571199 0.98349005 2.83181524
-0.30742243 1.82372379 3.10133243
-1.31690609 2.23916340 -2.46694732
-4.04809141 0.86232942 -0.93257892
-2.03956723 -0.38856554 3.29883838
1.91593564 0.13386360 -3.38104749
-1.10638642 1.67914939 3.07497215
-1.22096622 -0.38970080 3.59006739
-1.84816396 -2.80792093 0.95383716
-0.69730717 2.73351789 1.91654193
-3.09676766 1.23738468 -2.21703649
-1.30807543 -0.90953118 -3.43514585
-4.29068995 0.50507963 0.11819333
-0.04468107 0.22104108 3.76130962
1.30710363 -2.77603650 -1.56291449
-3.17480969 -0.06182268 2.57412601
1.14621723 0.81534243 -3.51004028
-2.50419688 0.88995695 -2.90181947
4.07019377 -0.44886523 -1.21735060
4.04909754 -0.18963891 1.35257888
-2.92128229 -1.34996367 -2.30442882
-3.19825888 -1.02410793 2.25555825
-0.01323165 -3.14237142 0.87701786
-1.70189261 2.66171265 1.54673636
-0.91382903 -2.42765570 2.35921025
3.06366968 -0.96780950 -2.42402959
-0.08860218 -3.22947669 0.10727385
1.59795117 -0.46364585 3.46476507
2.63356733 2.16484737 1.61677933
1.03756499 1.61829448 3.13699436
0.65027374 -0.50059414 -3.68187714
0.63230962 2.56063795 -2.23350406
2.00678420 -2.68208623 1.17830336
-3.30781460 -1.62608504 1.54412627
3.70526934 -0.14324787 1.96385193
-3.76767182 -1.02918994 -1.44442511
0.39546978 -2.80980754 -1.82847285
3.94933176 0.81958961 -1.24895048
0.86523229 -1.78411245 3.05224919
-2.26178026 0.55235612 -3.15445685
4.23151207 -0.20458773 -0.82840997
-0.46506521 1.89085996 -3.03057861
0.84967154 3.16451883 -0.17841816
-2.28131104 2.63643909 -0.91085523
4.18263674 0.44311368 -0.88532048
-3.77832747 0.59279037 -1.73120797
-0.20278916 2.30805969 2.63417745
-3.85739851 -1.26665330 0.91295242
-2.07874393 1.27881801 2.95537949
2.81204700 2.37850595 0.74739903
-1.25773895 -1.33993661 3.25277662
-3.55922794 -0.49169886 2.08635902
-2.49150610 2.64014292 -0.23034042
1.60465765 0.99654484 3.30635619
-3.28478432 1.81605577 1.26497018
-4.30843449 -0.39459041 -0.19109409
-2.05851245 0.14433473 -3.31716681
-0.34559068 -1.53111339 -3.30755329
2.73526216 2.05461597 -1.68561220
-0.69567013 0.28153282 3.70727015
-3.22337794 -1.60365677 -1.70150924
-0.31340879 -3.14189744 -0.83910370
3.10174799 2.25355315 -0.23908356
1.64894748 -0.27657276 -3.47453618
1.48418212 2.52466106 -1.96817720
-3.96880412 -1.29634225 0.28420341
-0.97880870 3.14113355 0.23536943
-3.35517001 -2.04781008 0.16831625
4.22294092 0.01778973 0.89207488
-4.09858370 -0.58371919 1.05324674
0.56810200 -1.81601644 -3.07926488
1.69586623 2.97242427 -0.13212460
2.70257545 -2.22901058 1.39939320
3.49137497 -1.87594903 0.49900571
3.26953745 -1.95528436 -0.98142999
-4.18410254 -0.32794935 -0.94326723
-2.96230030 -2.21466017 -0.96358305
4.15688562 0.56450987 0.88076890
1.55145776 2.36203814 2.19306755
3.77893496 -1.08324635 1.36862183
2.45389962 -1.89480996 -2.19057727
-0.77023911 -3.09166980 0.86681694
-3.77766919 -1.55783486 -0.41083559
-0.81678736 0.53690755 -3.65055108
-2.28625870 1.63520920 -2.57722139
0.85317451 -3.04332972 1.02834427
-2.45978737 2.12933064 -1.86904550
0.73723865 -2.71072173 1.94866872
0.29161194 -3.04651332 -1.22976518
-0.10679232 -0.78225911 -3.65780473
-2.75151205 -0.76774400 -2.77831602
4.10293818 0.03902688 -1.24264789
-3.00913048 1.52295184 2.06027699
-4.25653601 -0.04730203 0.75859624
0.80777806 -1.23028517 -3.41534424
2.34378386 -2.68748379 -0.49912229
2.38194752 -1.84616685 2.30273747
4.21511936 0.77948624 -0.14216998
-1.76614738 1.08869946 -3.20255709
0.85255808 0.25027269 -3.68572426
3.64858341 -1.74337685 -0.23474197
-3.73874378 1.34153414 1.11375630
3 135 229 189
3 110 247 223
3 223 247 83
3 30 31 99
3 209 229 135
3 209 223 83
3 38 189 229
3 64 43 38
3 38 43 189
3 94 194 69
3 149 181 146
3 80 233 188
3 146 181 131
3 146 131 141
3 141 131 188
3 110 223 205
3 237 68 22
3 172 144 29
3 198 86 191
3 191 251 198
3 69 194 198
3 198 251 69
3 51 226 186
3 23 78 132
3 99 31 132
3 19 78 23
3 165 30 11
3 23 190 242
3 159 76 59
3 59 108 159
3 248 184 112
3 243 184 248
3 211 243 248
3 248 224 211
3 211 224 82
3 82 30 211
3 34 224 58
3 234 47 58
3 58 47 34
3 21 43 64
3 174 30 99
3 135 189 236
3 46 48 230
3 227 94 119
3 167 149 44
3 44 213 167
3 49 80 188
3 188 131 49
3 136 141 188
3 182 55 28
3 148 55 182
3 250 226 101
3 180 109 52
3 186 239 52
3 52 51 186
3 72 149 167
3 181 149 72
3 72 71 181
3 121 140 250
3 107 158 133
3 96 107 175
3 175 107 205
3 68 237 252
3 252 61 68
3 68 61 195
3 61 156 195
3 245 198 194
3 86 198 245
3 245 194 172
3 172 29 245
3 245 29 86
3 59 76 62
3 191 86 12
3 86 29 12
3 81 251 191
3 191 105 81
3 212 105 191
3 191 12 212
3 203 182 28
3 17 144 172
3 60 47 1
3 1 47 234
3 168 190 34
3 34 47 168
3 109 242 168
3 168 242 190
3 168 47 60
3 227 226 145
3 226 51 145
3 145 1 228
3 109 168 18
3 18 168 60
3 18 52 109
3 51 52 18
3 180 19 215
3 215 19 23
3 23 242 215
3 215 109 180
3 215 242 109
3 78 19 4
3 4 41 46
3 70 243 211
3 70 165 243
3 211 30 70
3 30 165 70
3 116 237 22
3 22 184 116
3 116 184 243
3 25 29 144
3 25 108 59
3 25 12 29
3 217 108 14
3 217 159 108
3 217 14 112
3 112 184 217
3 253 184 22
3 253 217 184
3 159 217 253
3 112 14 45
3 45 248 112
3 224 248 45
3 45 58 224
3 151 224 34
3 151 82 224
3 34 190 151
3 151 190 23
3 31 30 151
3 30 82 151
3 23 132 151
3 151 132 31
3 210 252 237
3 237 116 210
3 43 21 244
3 244 174 43
3 244 210 11
3 21 210 244
3 11 30 244
3 30 174 244
3 214 236 189
3 48 236 214
3 214 230 48
3 189 43 214
3 43 174 214
3 214 174 99
3 201 205 223
3 201 175 205
3 221 236 48
3 46 41 221
3 221 48 46
3 78 230 77
3 99 132 77
3 77 132 78
3 77 214 99
3 230 214 77
3 222 94 69
3 222 119 94
3 69 251 231
3 231 222 69
3 136 222 231
3 141 136 50
3 50 55 141
3 136 231 50
3 93 55 148
3 148 2 93
3 93 2 183
3 16 85 246
3 110 205 16
3 220 75 152
3 233 80 139
3 80 101 139
3 227 119 139
3 139 119 233
3 139 226 227
3 139 101 226
3 180 52 176
3 176 52 239
3 63 41 3
3 3 26 63
3 89 13 92
3 92 241 89
3 13 176 92
3 239 241 92
3 92 176 239
3 5 239 186
3 5 241 239
3 140 241 5
3 186 226 5
3 5 226 250
3 250 140 5
3 40 178 89
3 40 15 178
3 89 241 40
3 40 241 140
3 181 71 27
3 71 121 27
3 27 131 181
3 140 121 192
3 192 40 140
3 15 40 192
3 71 15 192
3 192 121 71
3 33 21 64
3 37 156 240
3 61 252 238
3 128 240 238
3 238 156 61
3 238 240 156
3 127 220 53
3 75 220 127
3 53 196 127
3 196 103 127
3 127 138 75
3 103 138 127
3 106 81 105
3 106 203 28
3 106 50 231
3 251 81 106
3 106 231 251
3 84 7 218
3 84 212 7
3 7 212 115
3 115 212 12
3 115 62 7
3 228 17 254
3 254 94 227
3 227 145 254
3 254 145 228
3 249 18 60
3 51 18 249
3 249 145 51
3 60 1 249
3 1 145 249
3 54 230 78
3 78 4 54
3 46 230 54
3 54 4 46
3 243 165 117
3 117 116 243
3 117 165 11
3 11 210 117
3 117 210 116
3 179 25 144
3 108 25 179
3 144 97 179
3 35 25 59
3 12 25 35
3 35 115 12
3 59 62 35
3 62 115 35
3 142 17 228
3 234 97 142
3 144 17 142
3 142 97 144
3 142 1 234
3 228 1 142
3 234 58 100
3 58 45 100
3 100 97 234
3 100 45 14
3 193 210 21
3 193 33 171
3 21 33 193
3 171 252 193
3 252 210 193
3 187 41 63
3 175 201 187
3 187 221 41
3 201 221 187
3 63 96 187
3 96 175 187
3 236 221 219
3 219 221 201
3 219 209 135
3 135 236 219
3 223 209 219
3 219 201 223
3 173 136 188
3 173 222 136
3 188 233 173
3 233 119 173
3 119 222 173
3 148 182 232
3 232 2 148
3 6 2 232
3 182 203 232
3 126 155 44
3 126 44 149
3 183 2 126
3 207 93 183
3 207 126 149
3 183 126 207
3 207 149 146
3 141 55 154
3 55 93 154
3 146 141 154
3 154 207 146
3 93 207 154
3 246 255 104
3 104 16 246
3 110 16 104
3 104 247 110
3 133 85 169
3 85 16 169
3 169 16 205
3 169 107 133
3 205 107 169
3 208 255 246
3 246 90 208
3 235 176 13
3 235 19 180
3 180 176 235
3 124 235 13
3 178 26 24
3 26 3 24
3 89 178 24
3 3 124 24
3 24 13 89
3 24 124 13
3 111 107 96
3 111 96 63
3 63 26 111
3 111 26 178
3 123 27 121
3 123 121 250
3 123 49 131
3 131 27 123
3 250 101 123
3 80 49 123
3 123 101 80
3 255 208 20
3 199 33 64
3 164 33 199
3 37 240 57
3 57 240 197
3 57 197 152
3 152 75 57
3 75 138 57
3 114 252 171
3 114 238 252
3 171 33 114
3 114 33 164
3 114 164 128
3 128 238 114
3 36 195 156
3 36 185 195
3 36 156 37
3 37 57 36
3 36 57 138
3 103 185 36
3 36 138 103
3 66 62 76
3 7 62 66
3 76 159 170
3 159 253 170
3 170 66 76
3 79 66 170
3 87 106 28
3 50 106 87
3 28 55 87
3 55 50 87
3 105 212 98
3 212 84 98
3 94 254 120
3 120 254 17
3 194 94 120
3 172 194 120
3 120 17 172
3 143 179 97
3 97 100 143
3 143 100 14
3 14 108 143
3 108 179 143
3 200 126 2
3 155 126 200
3 200 2 6
3 6 163 200
3 53 220 74
3 246 85 9
3 9 202 246
3 177 90 150
3 150 90 246
3 247 104 166
3 83 247 166
3 166 209 83
3 166 118 209
3 88 4 19
3 19 235 88
3 41 4 88
3 204 161 158
3 158 107 204
3 107 111 204
3 128 164 95
3 164 199 95
3 153 208 90
3 153 20 208
3 229 209 32
3 209 118 32
3 32 38 229
3 64 38 32
3 32 199 64
3 73 66 79
3 73 185 218
3 218 7 73
3 7 66 73
3 195 185 73
3 73 79 195
3 79 170 39
3 68 195 39
3 195 79 39
3 22 68 39
3 39 253 22
3 39 170 253
3 65 103 196
3 218 185 65
3 65 185 103
3 65 84 218
3 65 98 84
3 163 74 125
3 177 150 125
3 125 150 163
3 125 220 177
3 125 74 220
3 53 74 137
3 137 232 53
3 6 232 137
3 137 163 6
3 137 74 163
3 213 44 42
3 44 0 42
3 42 161 213
3 158 161 42
3 155 200 91
3 91 200 163
3 163 150 91
3 118 166 56
3 162 124 3
3 162 3 41
3 41 88 162
3 235 124 162
3 162 88 235
3 161 204 130
3 130 72 167
3 167 213 130
3 213 161 130
3 197 240 10
3 10 240 128
3 128 95 10
3 147 90 177
3 147 153 90
3 147 220 152
3 177 220 147
3 105 98 216
3 98 129 216
3 216 129 203
3 216 106 105
3 203 106 216
3 98 65 225
3 225 129 98
3 225 65 196
3 203 129 225
3 225 196 53
3 53 232 225
3 225 232 203
3 133 158 113
3 158 42 113
3 113 0 202
3 113 42 0
3 155 91 160
3 44 155 160
3 160 0 44
3 102 91 150
3 246 202 102
3 102 150 246
3 102 160 91
3 202 0 102
3 0 160 102
3 118 56 67
3 20 10 67
3 67 10 95
3 134 56 166
3 134 104 255
3 134 166 104
3 255 20 134
3 20 67 134
3 134 67 56
3 122 130 204
3 178 15 122
3 122 15 71
3 122 111 178
3 122 204 111
3 71 72 122
3 72 130 122
3 152 197 206
3 206 147 152
3 153 147 206
3 197 10 206
3 20 153 206
3 206 10 20
3 8 85 133
3 133 113 8
3 8 9 85
3 202 9 8
3 8 113 202
3 118 67 157
3 157 67 95
3 157 32 118
3 157 95 199
3 199 32 157