ply
format ascii 1.0
comment https://github.com/mikedh/trimesh
element vertex 256
property float x
property float y
property float z
element face 508
property list uchar int vertex_indices
end_header
-0.74170679 1.49590850 1.31978583
1.39799190 -2.87677217 -0.48238191
0.61231279 2.73552895 1.05259609
-0.85689527 -3.45169997 0.57049108
-1.05728400 -3.57482529 -0.14565849
0.67262858 -3.40272784 0.71289301
0.12288532 3.23143697 0.93643194
1.25668430 2.05728340 -0.98385054
-1.23256552 1.23222136 1.17059946
-1.40548170 1.45781410 1.03176701
-1.64742386 2.44243121 -0.42501551
-0.94427603 -0.87751275 -1.33340287
1.80241549 1.06471157 -0.76381940
-0.30290788 -3.76979375 0.56840718
0.88290387 -1.13533187 -1.32693267
0.15968759 -2.21501708 1.27705956
-1.81005716 0.58940786 0.82352406
1.93073058 -1.52587640 -0.43184292
0.91091192 -3.65557170 -0.28444213
-0.58612818 -3.95125484 -0.09009801
-1.77202606 2.38603640 0.10546052
-1.51728785 -0.23172773 -1.09092355
-0.09485860 0.70890075 -1.49751675
-0.22687443 -3.82708764 -0.53230327
-0.50288010 -3.53383017 0.69464332
1.64810371 -0.13992378 -0.99718159
-0.78284174 -2.98649406 0.89256889
1.01197433 -1.08644509 1.28706360
1.56721461 2.54070807 0.48805898
1.89012659 -0.10924765 -0.76132965
-0.72423005 -2.21152234 -1.17932403
-0.75094634 -2.69837260 -1.02150691
-2.09005499 0.48272297 -0.40391856
-1.53274989 0.92196834 -1.02853525
0.45258105 -3.18189931 -0.90983373
1.54530060 0.98007631 -1.01225615
-0.29460126 3.51592231 -0.76176506
-0.72102863 3.19474792 -0.81518823
-1.98462331 -0.48270416 -0.60913831
0.33591840 1.31249452 -1.42303777
0.27278566 -2.94266295 1.04516101
-1.35726893 -3.15154529 0.24214824
-0.70937753 0.82867146 1.40638256
-1.65845823 -0.93883193 -0.92654997
-0.17117223 0.99721617 1.47168970
0.63498664 -1.87812054 -1.27912354
-1.43436360 -3.08774924 -0.09525771
0.98234504 -3.05270052 -0.75495529
-1.65311933 -2.61065125 -0.23057118
1.53863943 -0.84081328 1.03372157
1.86198449 1.41876674 0.59615731
1.14684558 -3.48939776 0.08230606
0.61495954 -3.91652918 0.17248514
0.25857261 4.07001543 0.11377061
-1.26841307 -3.27757812 -0.24709566
1.60505152 1.81711543 0.78235644
-2.10170722 1.10649323 -0.05630156
-0.83640879 3.46092391 -0.57734686
0.81540096 -2.57475209 -1.04115117
1.46688974 0.28778899 -1.12251031
1.16144502 -3.30578661 -0.40417698
-0.66494352 2.36106205 -1.15625608
1.32405531 1.07932627 -1.14204800
-1.33135772 -2.39762139 0.81703573
-1.83848310 0.17658855 -0.81849271
0.69173467 3.76697183 -0.37188393
0.85189044 1.71911073 -1.24832118
-1.99718690 1.56614673 -0.20411077
-0.24826233 1.41325378 -1.41845274
2.17446351 0.35043228 0.04866429
-0.47926271 -1.70905280 -1.34319293
0.47776565 -0.93988591 1.44352031
0.23740096 -0.45987609 1.50338447
0.65829813 2.17956161 -1.20600021
-0.35986531 3.88990712 0.42267957
-0.48661163 3.98236799 -0.16081683
0.98493302 0.70832783 -1.33285582
-1.38333821 -2.70142603 -0.62160528
-0.96823710 -3.40944242 -0.51586294
0.52946597 1.81499684 -1.31446862
1.69822097 -1.51261437 0.77576709
1.94856584 1.81367624 -0.14136250
-0.04615717 -2.44562292 -1.22267520
-2.17768621 -0.17985882 0.08407246
1.02195096 3.18540215 -0.64593363
-1.57020557 0.83722538 1.01151979
1.94681036 0.66464508 -0.64337289
1.78527749 1.97349834 0.48429620
-0.92962009 -3.71803665 0.03433968
-0.23206902 -3.39917064 0.83991909
-1.35810351 2.69614315 0.65072250
-0.62175989 2.60025334 1.09581363
-0.00886002 -3.75716019 0.61727530
1.10819507 1.73236036 1.14369464
2.03425980 -1.46580362 0.10584259
-1.85051012 1.72952962 -0.49284321
-1.33090210 -1.93983555 0.96925080
1.46674562 -1.77722788 -0.91500348
1.11946619 3.30463672 -0.45758089
-1.20367539 -2.44347644 -0.89138186
0.99369490 -1.90947950 -1.15622139
1.53167892 -2.02126551 0.78462631
-0.84023279 2.00667906 1.19189501
0.08352600 3.93815565 -0.43199560
-1.99175656 0.92383468 0.52065402
1.69918692 2.51053405 -0.22004326
1.86519933 2.03299737 0.24230403
-1.42777288 -1.03785872 1.08539140
1.43412220 -0.44651842 -1.13542819
0.36119372 -3.95841694 -0.32248154
-1.96321595 0.48869103 0.64121664
-0.84200174 -2.21374512 1.13984418
0.61580515 -1.00753522 -1.41155612
-0.98916942 0.90432298 1.31462765
-1.32814777 1.62602687 -1.04720104
1.49055505 1.53371799 -0.95649219
-0.40255535 0.00832165 -1.49577117
-0.59215289 -0.50489044 -1.45314896
-2.11861205 0.79930133 -0.21717241
1.99534321 -1.35901368 0.35961697
2.02916360 -1.48215437 -0.12095381
0.93487978 -1.64794660 1.23240340
-0.11324545 -1.82732213 1.36088216
1.22592998 -1.63021553 1.10522497
-0.60524368 -3.72832537 0.48257998
-0.58931559 3.59910941 0.60927290
0.22413275 1.94038332 1.33261824
0.01792638 4.08959866 -0.14777757
-1.39129210 2.16084361 -0.85720420
1.34058964 3.24279141 -0.04000901
-0.34135753 -1.02070296 1.45521188
1.31299186 -0.51591235 1.20089233
-0.88732553 -2.98185372 -0.84536773
-1.31941497 -0.13501158 1.21187556
-2.06686234 1.25496507 0.15649800
-2.02364731 -1.31316996 -0.29965883
1.95454204 0.62428278 0.63769650
0.06731138 3.60695529 0.72811055
-0.31153792 3.81492853 -0.52260500
1.60905349 -2.37241507 0.53480023
0.66849196 -2.92045546 0.96395445
1.63725615 1.00687993 0.93521911
1.76905787 -1.72631967 -0.62258130
1.18649638 -1.45584130 -1.15835702
1.78816986 -1.15711772 -0.76153660
1.47158217 -3.03578615 0.00522924
1.24412811 0.67255527 1.22554278
-1.27358460 3.31510472 0.14295836
1.23233604 2.54334021 0.83184701
0.38355130 0.42201242 1.49022770
-0.78445965 2.93894076 0.91247511
-0.10561413 -2.90164876 -1.07535970
-0.78384674 3.81794524 -0.13678789
-1.49060464 2.96461821 0.18045655
1.27892482 1.25106502 1.14298654
-0.15444408 2.31989837 1.25176990
-0.66159248 2.84836531 -0.99571729
-2.03369617 1.09694064 -0.37641054
-1.02464581 -0.49428132 1.33148789
0.96253526 0.17028344 -1.36466944
-0.55583078 2.13599014 1.24113023
-0.61339378 -0.49572545 1.44903457
-0.92848790 -3.57186270 0.38499087
-0.35031593 3.47721720 0.77356088
-1.55576634 1.57403588 -0.89484751
-0.65715605 -1.15698433 -1.38650477
-2.15557361 0.64249498 0.04770558
-0.02244705 0.28117901 1.51815212
0.65666789 -3.53130388 -0.63082862
-1.59497333 -0.07864257 1.03897715
0.57584113 1.03716993 -1.41673386
-1.25806832 1.13208461 -1.17124176
2.04480004 -0.57098657 -0.49135098
2.03420138 -0.24123335 0.54593229
-1.46760523 -1.71724391 -0.93012112
-1.60675383 -1.30273366 0.91039580
-0.00664737 -3.99730611 0.35398477
-0.85500354 3.38587618 0.62429875
-0.45909300 -3.08814001 0.95223212
1.53913832 -1.23111832 -0.97839469
-0.04451231 -4.10810995 0.04329822
0.80278498 -0.58978844 1.39845979
1.32306182 2.75383043 0.65256971
0.52125597 2.05857849 1.26616383
0.32668707 -0.63678914 -1.48609126
0.31766218 3.25730252 -0.90149415
1.00817609 -3.41179276 0.47559062
-1.66179287 -2.06848884 0.62324530
1.86146772 -0.18222086 0.79265630
-1.89281774 -1.30919826 -0.58300358
0.19867766 -3.57426286 -0.73801416
1.98408079 1.04257274 -0.50410545
0.43467879 -2.26951027 1.23195875
-1.13628209 0.70263386 -1.27321219
2.12584352 -0.26024926 -0.33436555
-0.23364128 2.40530014 -1.22321200
0.42686132 4.02547932 -0.07201372
-1.14609396 3.35372639 -0.36764234
2.10128951 0.56367022 -0.35733593
-1.89817095 0.75406891 -0.69875580
-0.10187801 2.93600607 1.06321526
-1.93789494 -1.61126757 0.36848882
-1.04432762 1.62674201 1.19285989
1.41272724 3.02561831 0.30166763
-0.63186783 -1.70448887 1.31289625
-1.78809893 -0.62547380 0.84210306
-1.25169265 3.35843825 -0.09297075
0.80615419 1.26767159 1.33452225
-1.65022278 2.31014419 0.51057142
-2.16448808 -0.50194532 -0.07713001
-1.03416359 0.18360342 -1.33888566
-0.17361920 -1.94767845 -1.33500540
1.37415171 2.61360884 -0.68035227
-0.34949350 0.35812852 1.49634039
-1.61937332 -2.03995848 -0.68676871
-0.15745154 -3.99670315 -0.33868176
1.55826831 2.86666989 -0.09649968
0.82840472 -0.35181901 -1.40240359
0.74562925 3.21153736 -0.79440212
-1.99386334 -1.64903390 0.11471110
-0.49173775 3.99573159 0.09500058
-1.68558347 -2.60495114 0.06793635
2.12153769 0.02262972 0.36006215
-2.05906272 -0.74252981 0.42511490
0.28540531 -2.31009412 -1.24286294
0.85197592 3.78112197 -0.05332856
1.35773051 -2.83545041 0.56482762
1.75401068 -2.38633227 0.20141029
1.64256310 -2.48725224 -0.39612797
-2.10202599 -0.41717345 -0.38072458
-1.48821199 -2.81719565 -0.38892454
2.08835244 0.71809423 0.35549882
0.77942741 3.00467014 0.88517302
1.89847612 -1.37796164 0.55240756
1.23279965 -2.41032481 -0.88416797
-0.38695577 -3.93281031 0.34986746
-1.89784026 -1.98166990 -0.16582280
-0.41034085 0.68298221 -1.47344720
-1.14857960 2.08009529 -1.04022646
0.42862114 -3.87131858 0.41506368
-1.23575759 2.70865083 -0.75439024
0.37037683 -3.44821906 0.78652799
0.14650114 -3.87536836 -0.49636182
-0.05365074 -0.99508578 -1.47637498
-1.38231540 -0.97662163 -1.12139285
2.06125021 0.04964479 -0.50156158
-1.51173866 1.93729651 0.83157569
-2.13841534 -0.06017135 0.30618709
0.40581471 -1.56500494 -1.37851238
1.17747939 -3.41865897 -0.20145737
1.19665217 -2.34844756 0.92943835
2.11760831 0.99155849 -0.05738311
-0.88728410 1.38489842 -1.29262650
0.42831147 0.31836358 -1.48764396
1.83298957 -2.21769166 -0.09474732
-1.87828469 1.70652092 0.44953793
3 135 229 189
3 110 247 223
3 223 247 83
3 30 31 99
3 209 229 135
3 209 223 83
3 38 189 229
3 64 43 38
3 38 43 189
3 94 194 69
3 149 181 146
3 80 233 188
3 146 181 131
3 146 131 141
3 141 131 188
3 110 223 205
3 237 68 22
3 172 144 29
3 198 86 191
3 191 251 198
3 69 194 198
3 198 251 69
3 51 226 186
3 23 78 132
3 99 31 132
3 19 78 23
3 165 30 11
3 23 190 242
3 159 76 59
3 59 108 159
3 248 184 112
3 243 184 248
3 211 243 248
3 248 224 211
3 211 224 82
3 82 30 211
3 34 224 58
3 234 47 58
3 58 47 34
3 21 43 64
3 174 30 99
3 135 189 236
3 46 48 230
3 227 94 119
3 167 149 44
3 44 213 167
3 49 80 188
3 188 131 49
3 136 141 188
3 182 55 28
3 148 55 182
3 250 226 101
3 180 109 52
3 186 239 52
3 52 51 186
3 72 149 167
3 181 149 72
3 72 71 181
3 121 140 250
3 107 158 133
3 96 107 175
3 175 107 205
3 68 237 252
3 252 61 68
3 68 61 195
3 61 156 195
3 245 198 194
3 86 198 245
3 245 194 172
3 172 29 245
3 245 29 86
3 59 76 62
3 191 86 12
3 86 29 12
3 81 251 191
3 191 105 81
3 212 105 191
3 191 12 212
3 203 182 28
3 17 144 172
3 60 47 1
3 1 47 234
3 168 190 34
3 34 47 168
3 109 242 168
3 168 242 190
3 168 47 60
3 227 226 145
3 226 51 145
3 145 1 228
3 109 168 18
3 18 168 60
3 18 52 109
3 51 52 18
3 180 19 215
3 215 19 23
3 23 242 215
3 215 109 180
3 215 242 109
3 78 19 4
3 4 41 46
3 70 243 211
3 70 165 243
3 211 30 70
3 30 165 70
3 116 237 22
3 22 184 116
3 116 184 243
3 25 29 144
3 25 108 59
3 25 12 29
3 217 108 14
3 217 159 108
3 217 14 112
3 112 184 217
3 253 184 22
3 253 217 184
3 159 217 253
3 112 14 45
3 45 248 112
3 224 248 45
3 45 58 224
3 151 224 34
3 151 82 224
3 34 190 151
3 151 190 23
3 31 30 151
3 30 82 151
3 23 132 151
3 151 132 31
3 210 252 237
3 237 116 210
3 43 21 244
3 244 174 43
3 244 210 11
3 21 210 244
3 11 30 244
3 30 174 244
3 214 236 189
3 48 236 214
3 214 230 48
3 189 43 214
3 43 174 214
3 214 174 99
3 201 205 223
3 201 175 205
3 221 236 48
3 46 41 221
3 221 48 46
3 78 230 77
3 99 132 77
3 77 132 78
3 77 214 99
3 230 214 77
3 222 94 69
3 222 119 94
3 69 251 231
3 231 222 69
3 136 222 231
3 141 136 50
3 50 55 141
3 136 231 50
3 93 55 148
3 148 2 93
3 93 2 183
3 16 85 246
3 110 205 16
3 220 75 152
3 233 80 139
3 80 101 139
3 227 119 139
3 139 119 233
3 139 226 227
3 139 101 226
3 180 52 176
3 176 52 239
3 63 41 3
3 3 26 63
3 89 13 92
3 92 241 89
3 13 176 92
3 239 241 92
3 92 176 239
3 5 239 186
3 5 241 239
3 140 241 5
3 186 226 5
3 5 226 250
3 250 140 5
3 40 178 89
3 40 15 178
3 89 241 40
3 40 241 140
3 181 71 27
3 71 121 27
3 27 131 181
3 140 121 192
3 192 40 140
3 15 40 192
3 71 15 192
3 192 121 71
3 33 21 64
3 37 156 240
3 61 252 238
3 128 240 238
3 238 156 61
3 238 240 156
3 127 220 53
3 75 220 127
3 53 196 127
3 196 103 127
3 127 138 75
3 103 138 127
3 106 81 105
3 106 203 28
3 106 50 231
3 251 81 106
3 106 231 251
3 84 7 218
3 84 212 7
3 7 212 115
3 115 212 12
3 115 62 7
3 228 17 254
3 254 94 227
3 227 145 254
3 254 145 228
3 249 18 60
3 51 18 249
3 249 145 51
3 60 1 249
3 1 145 249
3 54 230 78
3 78 4 54
3 46 230 54
3 54 4 46
3 243 165 117
3 117 116 243
3 117 165 11
3 11 210 117
3 117 210 116
3 179 25 144
3 108 25 179
3 144 97 179
3 35 25 59
3 12 25 35
3 35 115 12
3 59 62 35
3 62 115 35
3 142 17 228
3 234 97 142
3 144 17 142
3 142 97 144
3 142 1 234
3 228 1 142
3 234 58 100
3 58 45 100
3 100 97 234
3 100 45 14
3 193 210 21
3 193 33 171
3 21 33 193
3 171 252 193
3 252 210 193
3 187 41 63
3 175 201 187
3 187 221 41
3 201 221 187
3 63 96 187
3 96 175 187
3 236 221 219
3 219 221 201
3 219 209 135
3 135 236 219
3 223 209 219
3 219 201 223
3 173 136 188
3 173 222 136
3 188 233 173
3 233 119 173
3 119 222 173
3 148 182 232
3 232 2 148
3 6 2 232
3 182 203 232
3 126 155 44
3 126 44 149
3 183 2 126
3 207 93 183
3 207 126 149
3 183 126 207
3 207 149 146
3 141 55 154
3 55 93 154
3 146 141 154
3 154 207 146
3 93 207 154
3 246 255 104
3 104 16 246
3 110 16 104
3 104 247 110
3 133 85 169
3 85 16 169
3 169 16 205
3 169 107 133
3 205 107 169
3 208 255 246
3 246 90 208
3 235 176 13
3 235 19 180
3 180 176 235
3 124 235 13
3 178 26 24
3 26 3 24
3 89 178 24
3 3 124 24
3 24 13 89
3 24 124 13
3 111 107 96
3 111 96 63
3 63 26 111
3 111 26 178
3 123 27 121
3 123 121 250
3 123 49 131
3 131 27 123
3 250 101 123
3 80 49 123
3 123 101 80
3 255 208 20
3 199 33 64
3 164 33 199
3 37 240 57
3 57 240 197
3 57 197 152
3 152 75 57
3 75 138 57
3 114 252 171
3 114 238 252
3 171 33 114
3 114 33 164
3 114 164 128
3 128 238 114
3 36 195 156
3 36 185 195
3 36 156 37
3 37 57 36
3 36 57 138
3 103 185 36
3 36 138 103
3 66 62 76
3 7 62 66
3 76 159 170
3 159 253 170
3 170 66 76
3 79 66 170
3 87 106 28
3 50 106 87
3 28 55 87
3 55 50 87
3 105 212 98
3 212 84 98
3 94 254 120
3 120 254 17
3 194 94 120
3 172 194 120
3 120 17 172
3 143 179 97
3 97 100 143
3 143 100 14
3 14 108 143
3 108 179 143
3 200 126 2
3 155 126 200
3 200 2 6
3 6 163 200
3 53 220 74
3 246 85 9
3 9 202 246
3 177 90 150
3 150 90 246
3 247 104 166
3 83 247 166
3 166 209 83
3 166 118 209
3 88 4 19
3 19 235 88
3 41 4 88
3 204 161 158
3 158 107 204
3 107 111 204
3 128 164 95
3 164 199 95
3 153 208 90
3 153 20 208
3 229 209 32
3 209 118 32
3 32 38 229
3 64 38 32
3 32 199 64
3 73 66 79
3 73 185 218
3 218 7 73
3 7 66 73
3 195 185 73
3 73 79 195
3 79 170 39
3 68 195 39
3 195 79 39
3 22 68 39
3 39 253 22
3 39 170 253
3 65 103 196
3 218 185 65
3 65 185 103
3 65 84 218
3 65 98 84
3 163 74 125
3 177 150 125
3 125 150 163
3 125 220 177
3 125 74 220
3 53 74 137
3 137 232 53
3 6 232 137
3 137 163 6
3 137 74 163
3 213 44 42
3 44 0 42
3 42 161 213
3 158 161 42
3 155 200 91
3 91 200 163
3 163 150 91
3 118 166 56
3 162 124 3
3 162 3 41
3 41 88 162
3 235 124 162
3 162 88 235
3 161 204 130
3 130 72 167
3 167 213 130
3 213 161 130
3 197 240 10
3 10 240 128
3 128 95 10
3 147 90 177
3 147 153 90
3 147 220 152
3 177 220 147
3 105 98 216
3 98 129 216
3 216 129 203
3 216 106 105
3 203 106 216
3 98 65 225
3 225 129 98
3 225 65 196
3 203 129 225
3 225 196 53
3 53 232 225
3 225 232 203
3 133 158 113
3 158 42 113
3 113 0 202
3 113 42 0
3 155 91 160
3 44 155 160
3 160 0 44
3 102 91 150
3 246 202 102
3 102 150 246
3 102 160 91
3 202 0 102
3 0 160 102
3 118 56 67
3 20 10 67
3 67 10 95
3 134 56 166
3 134 104 255
3 134 166 104
3 255 20 134
3 20 67 134
3 134 67 56
3 122 130 204
3 178 15 122
3 122 15 71
3 122 111 178
3 122 204 111
3 71 72 122
3 72 130 122
3 152 197 206
3 206 147 152
3 153 147 206
3 197 10 206
3 20 153 206
3 206 10 20
3 8 85 133
3 133 113 8
3 8 9 85
3 202 9 8
3 8 113 202
3 118 67 157
3 157 67 95
3 157 32 118
3 157 95 199
3 199 32 157