ply
format ascii 1.0
comment https://github.com/mikedh/trimesh
element vertex 256
property float x
property float y
property float z
element face 508
property list uchar int vertex_indices
end_header
-0.66707385 0.75544018 3.09737277
1.25732148 -1.45278227 -1.13209021
0.55069989 1.38145375 2.47031164
-0.77067178 -1.74312317 1.33887148
-0.95089668 -1.80530190 -0.34184232
0.60494655 -1.71839213 1.67307103
0.11052021 1.63188934 2.19768906
1.13023269 1.03893685 -2.30897474
-1.10854089 0.62227702 2.74725103
-1.26405764 0.73620230 2.42142844
-1.48165476 1.23343813 -0.99745846
-0.84925991 -0.44314769 -3.12933040
1.62105072 0.53768384 -1.79258895
-0.27242833 -1.90376186 1.33398080
0.79406327 -0.57334745 -3.11414552
0.14361931 -1.11859298 2.99709988
-1.62792337 0.29765347 1.93270838
1.73645425 -0.77057409 -1.01348162
0.81925303 -1.84607923 -0.66755027
-0.52715009 -1.99540055 -0.21144879
-1.59371912 1.20495856 0.24750268
-1.36461341 -0.11702349 -2.56026173
-0.08531363 0.35799789 -3.51448536
-0.20404559 -1.93269551 -1.24924946
-0.45227870 -1.78459930 1.63024139
1.48226631 -0.07066210 -2.34026098
-0.70406967 -1.50819218 2.09474802
0.91014630 -0.54865938 3.02057791
1.40951645 1.28306842 1.14541364
1.69993603 -0.05517053 -1.78674579
-0.65135568 -1.11682820 -2.76772666
-0.67538375 -1.36268961 -2.39734936
-1.87974691 0.24377716 -0.94794655
-1.37851977 0.46559793 -2.41384411
0.40704089 -1.60687268 -2.13526630
1.38980746 0.49494272 -2.37563920
-0.26495755 1.77555573 -1.78776765
-0.64847642 1.61336136 -1.91314518
-1.78492415 -0.24376766 -1.42957175
0.30211723 0.66281533 -3.33969235
0.24533710 -1.48605740 2.45286274
-1.22069621 -1.59154379 0.56829172
-0.63799775 0.41848260 3.30060458
-1.49157894 -0.47411412 -2.17449737
-0.15394834 0.50359839 3.45387244
0.57109225 -0.94845885 -3.00194359
-1.29003334 -1.55932653 -0.22355798
0.88349837 -1.54162669 -1.77178609
-1.48677719 -1.31839001 -0.54112184
1.38381660 -0.42461428 2.42601585
1.67462564 0.71648324 1.39910686
1.03144634 -1.76216066 0.19316205
0.55308032 -1.97786391 0.40480113
0.23255421 2.05537534 0.26700544
-1.14078128 -1.65519094 -0.57990271
1.44354618 0.91765106 1.83609307
-1.89022684 0.55878377 -0.13213275
-0.75224668 1.74778128 -1.35496116
0.73335272 -1.30026078 -2.44345212
1.31928658 0.14533466 -2.63439178
1.04457664 -1.66943634 -0.94855303
-0.59803480 1.19234645 -2.71358919
1.19082463 0.54506433 -2.68024445
-1.19739223 -1.21080899 1.91748106
-1.65348899 0.08917797 -1.92090034
0.62213010 1.90233672 -0.87276518
0.76617050 0.86815822 -2.92965412
-1.79622352 0.79091078 -0.47902253
-0.22328138 0.71369916 -3.32893181
1.95566213 0.17696980 0.11420903
-0.43103778 -0.86307889 -3.15230632
0.42969134 -0.47464639 3.38776231
0.21351291 -0.23223938 3.52825618
0.59205806 1.10068786 -2.83033228
-0.32365453 1.96441972 0.99197632
-0.43764722 2.01111269 -0.37741709
0.88582587 0.35770857 -3.12804651
-1.24414229 -1.36423171 -1.45883024
-0.87080997 -1.72178304 -1.21066606
0.47618943 0.91658109 -3.08489418
1.52734053 -0.76387674 1.82062876
1.75249493 0.91591418 -0.33176017
-0.04151268 -1.23504996 -2.86946630
-1.95856047 -0.09082947 0.19730760
0.91911906 1.60864162 -1.51592565
-1.41220653 0.42280239 2.37391090
1.75091612 0.33564860 -1.50991607
1.60563719 0.99662507 1.13658285
-0.83607870 -1.87762427 0.08059096
-0.20871750 -1.71659565 1.97118556
-1.22144675 1.36156380 1.52716458
-0.55919641 1.31313896 2.57173800
-0.00796849 -1.89738190 1.44866824
0.99668497 0.87484932 2.68410897
1.82956612 -0.74023706 0.24839938
-1.66430593 0.87341976 -1.15664160
-1.19698250 -0.97962523 2.27471089
1.31915689 -0.89750761 -2.14739919
1.00682199 1.66885567 -1.07388532
-1.08255780 -1.23396599 -2.09196210
0.89370614 -0.96429527 -2.71350741
1.37755656 -1.02074766 1.84142017
-0.75568587 1.01338148 2.79722929
0.07512135 1.98878539 -1.01383984
-1.79133964 0.46654046 1.22191012
1.52820933 1.26783037 -0.51641411
1.67751706 1.02667236 0.56865734
-1.28410578 -0.52412313 2.54727840
1.28981626 -0.22549371 -2.66470861
0.32484925 -1.99901736 -0.75682402
-1.76567090 0.24679105 1.50485551
-0.75727683 -1.11795068 2.67507219
0.55384088 -0.50880957 -3.31274629
-0.88963604 0.45668694 3.08526731
-1.19450533 0.82115048 -2.45765042
1.34057069 0.77453411 -2.24476790
-0.36204895 0.00420247 -3.51038861
-0.53256857 -0.25497183 -3.41035962
-1.90543056 0.40365058 -0.50967664
1.79456544 -0.68630773 0.84397620
1.82498264 -0.74849427 -0.28386351
0.84080917 -0.83222008 2.89229727
-0.10185033 -0.92280543 3.19382071
1.10257304 -0.82326579 2.59382534
-0.54434210 -1.88282025 1.13255513
-0.53001678 1.81756556 1.42988753
0.20157979 0.97990179 3.12748909
0.01612257 2.06526470 -0.34681556
-1.25129580 1.09123516 -2.01175141
1.20569527 1.63762343 -0.09389617
-0.30700904 -0.51545930 3.41520095
1.18087447 -0.26053792 2.81834483
-0.79803997 -1.50584877 -1.98397267
-1.18665123 -0.06818142 2.84412098
-1.85888803 0.63376272 0.36728129
-1.82002139 -0.66315645 -0.70326191
1.75786984 0.31526545 1.49659419
0.06053829 1.82152772 1.70878470
-0.28018999 1.92655516 -1.22648883
1.44714534 -1.19807971 1.25510955
0.60122615 -1.47484243 2.26228094
1.47251022 0.50847864 2.19484282
1.59104967 -0.87179881 -1.46112072
1.06710732 -0.73520607 -2.71851969
1.60823846 -0.58434939 -1.78723156
1.32350683 -1.53308487 0.01227237
1.11893988 0.33964327 2.87619615
-1.14543247 1.67414200 0.33550546
1.10833454 1.28439760 1.95224118
0.34495714 0.21311806 3.49737859
-0.70552480 1.48417759 2.14146543
-0.09498689 -1.46534503 -2.52373505
-0.70497358 1.92807853 -0.32102412
-1.34061527 1.49714482 0.42350906
1.15023530 0.63179314 2.68244696
-0.13890342 1.17155862 2.93774796
-0.59502089 1.43843663 -2.33682442
-1.82905912 0.55395967 -0.88338864
-0.92154264 -0.24961418 3.12483621
0.86568189 0.08599386 -3.20270920
-0.49990129 1.07868409 2.91277814
-0.55167216 -0.25034347 3.40070367
-0.83506048 -1.80380583 0.90352559
-0.31506601 1.75600946 1.81545103
-1.39922011 0.79489481 -2.10009551
-0.59103090 -0.58428204 -3.25395393
-1.93867290 0.32446271 0.11195904
-0.02018836 0.14199661 3.56291366
0.59059185 -1.78332353 -1.48047614
-1.43448198 -0.03971483 2.43834996
0.51789814 0.52377522 -3.32489800
-1.13147748 0.57170755 -2.74875855
1.83904564 -0.28835064 -1.15313959
1.82951355 -0.12182387 1.28123510
-1.31993020 -0.86721545 -2.18287826
-1.44507718 -0.65788603 2.13658547
-0.00597849 -2.01865673 0.83075821
-0.76897031 1.70988190 1.46515131
-0.41289762 -1.55952382 2.23477006
1.38426530 -0.62171996 -2.29617047
-0.04003334 -2.07461309 0.10161553
0.72200620 -0.29784569 3.28201079
1.18993115 1.39069605 1.53149974
0.46880555 1.03959095 2.97152877
0.29381478 -0.32158121 -3.48767090
0.28569800 1.64495158 -2.11569452
0.90673018 -1.72296989 1.11615193
-1.49457788 -1.04459560 1.46267903
1.67416096 -0.09202231 1.86026561
-1.70235634 -0.66115069 -1.36823678
0.17868608 -1.80501795 -1.73202729
1.78443623 0.52650368 -1.18307269
0.39094004 -1.14611232 2.89125371
-1.02194571 0.35483310 -2.98807025
1.91193438 -0.13142698 -0.78471422
-0.21013156 1.21468675 -2.87072611
0.38390917 2.03288412 -0.16900723
-1.03077042 1.69364619 -0.86281079
1.88985109 0.28465584 -0.83862293
-1.70717096 0.38080803 -1.63989282
-0.09162672 1.48269558 2.49523377
-1.74289775 -0.81369698 0.86479735
-0.93924397 0.82151163 2.79949355
1.27057409 1.52795017 0.70797634
-0.56828725 -0.86077410 3.08120394
-1.60817468 -0.31586692 1.97631085
-1.12574327 1.69602561 -0.21819076
0.72503638 0.64017951 3.13195729
-1.48417211 1.16663265 1.19824743
-1.94669044 -0.25348455 -0.18101454
-0.93010271 0.09272051 -3.14219761
-0.15614907 -0.98358595 -3.13309145
1.23588014 1.31988358 -1.59670198
-0.31432635 0.18085644 3.51172447
-1.45642674 -1.03018773 -1.61176062
-0.14160827 -2.01835203 -0.79484391
1.40147030 1.44768047 -0.22647274
0.74504799 -0.17767009 -3.29126644
0.67060167 1.62184012 -1.86436272
-1.79323447 -0.83276916 0.26921266
-0.44225752 2.01786137 0.22295451
-1.51597476 -1.31551135 0.15943815
1.90806174 0.01142811 0.84502101
-1.85187316 -0.37498072 0.99769169
0.25668693 -1.16660738 -2.91684437
0.76624739 1.90948272 -0.12515549
1.22111130 -1.43191445 1.32558012
1.57751644 -1.20510805 0.47268489
1.47728312 -1.25607288 -0.92966294
-1.89051330 -0.21067436 -0.89351314
-1.33846343 -1.42269576 -0.91275740
1.87821567 0.36264065 0.83431143
0.70099896 1.51737118 2.07739091
1.70744538 -0.69587648 1.29643178
1.10875142 -1.21722424 -2.07503200
-0.34801903 -1.98608601 0.82109535
-1.70687342 -1.00075173 -0.38916546
-0.36905104 0.34490892 -3.45799708
-1.03300595 1.05045688 -2.44128180
0.38549194 -1.95503235 0.97410274
-1.11141169 1.36788023 -1.77045989
0.33310834 -1.74136531 1.84588325
0.13175973 -1.95707750 -1.16489935
-0.04825224 -0.50252253 -3.46486831
-1.24322236 -0.49319807 -2.63176942
1.85384071 0.02507083 -1.17710257
-1.35962272 0.97834295 1.95160460
-1.92324114 -0.03038679 0.71858293
0.36498034 -0.79033411 -3.23519659
1.05899763 -1.72643733 -0.47279534
1.07624125 -1.18597591 2.18127608
1.90452766 0.50074124 -0.13467102
-0.79800272 0.69937956 -3.03363347
0.38521340 0.16077496 -3.49131513
1.64854836 -1.11994374 -0.22236015
-1.68928576 0.86180031 1.05500948
3 135 229 189
3 110 247 223
3 223 247 83
3 30 31 99
3 209 229 135
3 209 223 83
3 38 189 229
3 64 43 38
3 38 43 189
3 94 194 69
3 149 181 146
3 80 233 188
3 146 181 131
3 146 131 141
3 141 131 188
3 110 223 205
3 237 68 22
3 172 144 29
3 198 86 191
3 191 251 198
3 69 194 198
3 198 251 69
3 51 226 186
3 23 78 132
3 99 31 132
3 19 78 23
3 165 30 11
3 23 190 242
3 159 76 59
3 59 108 159
3 248 184 112
3 243 184 248
3 211 243 248
3 248 224 211
3 211 224 82
3 82 30 211
3 34 224 58
3 234 47 58
3 58 47 34
3 21 43 64
3 174 30 99
3 135 189 236
3 46 48 230
3 227 94 119
3 167 149 44
3 44 213 167
3 49 80 188
3 188 131 49
3 136 141 188
3 182 55 28
3 148 55 182
3 250 226 101
3 180 109 52
3 186 239 52
3 52 51 186
3 72 149 167
3 181 149 72
3 72 71 181
3 121 140 250
3 107 158 133
3 96 107 175
3 175 107 205
3 68 237 252
3 252 61 68
3 68 61 195
3 61 156 195
3 245 198 194
3 86 198 245
3 245 194 172
3 172 29 245
3 245 29 86
3 59 76 62
3 191 86 12
3 86 29 12
3 81 251 191
3 191 105 81
3 212 105 191
3 191 12 212
3 203 182 28
3 17 144 172
3 60 47 1
3 1 47 234
3 168 190 34
3 34 47 168
3 109 242 168
3 168 242 190
3 168 47 60
3 227 226 145
3 226 51 145
3 145 1 228
3 109 168 18
3 18 168 60
3 18 52 109
3 51 52 18
3 180 19 215
3 215 19 23
3 23 242 215
3 215 109 180
3 215 242 109
3 78 19 4
3 4 41 46
3 70 243 211
3 70 165 243
3 211 30 70
3 30 165 70
3 116 237 22
3 22 184 116
3 116 184 243
3 25 29 144
3 25 108 59
3 25 12 29
3 217 108 14
3 217 159 108
3 217 14 112
3 112 184 217
3 253 184 22
3 253 217 184
3 159 217 253
3 112 14 45
3 45 248 112
3 224 248 45
3 45 58 224
3 151 224 34
3 151 82 224
3 34 190 151
3 151 190 23
3 31 30 151
3 30 82 151
3 23 132 151
3 151 132 31
3 210 252 237
3 237 116 210
3 43 21 244
3 244 174 43
3 244 210 11
3 21 210 244
3 11 30 244
3 30 174 244
3 214 236 189
3 48 236 214
3 214 230 48
3 189 43 214
3 43 174 214
3 214 174 99
3 201 205 223
3 201 175 205
3 221 236 48
3 46 41 221
3 221 48 46
3 78 230 77
3 99 132 77
3 77 132 78
3 77 214 99
3 230 214 77
3 222 94 69
3 222 119 94
3 69 251 231
3 231 222 69
3 136 222 231
3 141 136 50
3 50 55 141
3 136 231 50
3 93 55 148
3 148 2 93
3 93 2 183
3 16 85 246
3 110 205 16
3 220 75 152
3 233 80 139
3 80 101 139
3 227 119 139
3 139 119 233
3 139 226 227
3 139 101 226
3 180 52 176
3 176 52 239
3 63 41 3
3 3 26 63
3 89 13 92
3 92 241 89
3 13 176 92
3 239 241 92
3 92 176 239
3 5 239 186
3 5 241 239
3 140 241 5
3 186 226 5
3 5 226 250
3 250 140 5
3 40 178 89
3 40 15 178
3 89 241 40
3 40 241 140
3 181 71 27
3 71 121 27
3 27 131 181
3 140 121 192
3 192 40 140
3 15 40 192
3 71 15 192
3 192 121 71
3 33 21 64
3 37 156 240
3 61 252 238
3 128 240 238
3 238 156 61
3 238 240 156
3 127 220 53
3 75 220 127
3 53 196 127
3 196 103 127
3 127 138 75
3 103 138 127
3 106 81 105
3 106 203 28
3 106 50 231
3 251 81 106
3 106 231 251
3 84 7 218
3 84 212 7
3 7 212 115
3 115 212 12
3 115 62 7
3 228 17 254
3 254 94 227
3 227 145 254
3 254 145 228
3 249 18 60
3 51 18 249
3 249 145 51
3 60 1 249
3 1 145 249
3 54 230 78
3 78 4 54
3 46 230 54
3 54 4 46
3 243 165 117
3 117 116 243
3 117 165 11
3 11 210 117
3 117 210 116
3 179 25 144
3 108 25 179
3 144 97 179
3 35 25 59
3 12 25 35
3 35 115 12
3 59 62 35
3 62 115 35
3 142 17 228
3 234 97 142
3 144 17 142
3 142 97 144
3 142 1 234
3 228 1 142
3 234 58 100
3 58 45 100
3 100 97 234
3 100 45 14
3 193 210 21
3 193 33 171
3 21 33 193
3 171 252 193
3 252 210 193
3 187 41 63
3 175 201 187
3 187 221 41
3 201 221 187
3 63 96 187
3 96 175 187
3 236 221 219
3 219 221 201
3 219 209 135
3 135 236 219
3 223 209 219
3 219 201 223
3 173 136 188
3 173 222 136
3 188 233 173
3 233 119 173
3 119 222 173
3 148 182 232
3 232 2 148
3 6 2 232
3 182 203 232
3 126 155 44
3 126 44 149
3 183 2 126
3 207 93 183
3 207 126 149
3 183 126 207
3 207 149 146
3 141 55 154
3 55 93 154
3 146 141 154
3 154 207 146
3 93 207 154
3 246 255 104
3 104 16 246
3 110 16 104
3 104 247 110
3 133 85 169
3 85 16 169
3 169 16 205
3 169 107 133
3 205 107 169
3 208 255 246
3 246 90 208
3 235 176 13
3 235 19 180
3 180 176 235
3 124 235 13
3 178 26 24
3 26 3 24
3 89 178 24
3 3 124 24
3 24 13 89
3 24 124 13
3 111 107 96
3 111 96 63
3 63 26 111
3 111 26 178
3 123 27 121
3 123 121 250
3 123 49 131
3 131 27 123
3 250 101 123
3 80 49 123
3 123 101 80
3 255 208 20
3 199 33 64
3 164 33 199
3 37 240 57
3 57 240 197
3 57 197 152
3 152 75 57
3 75 138 57
3 114 252 171
3 114 238 252
3 171 33 114
3 114 33 164
3 114 164 128
3 128 238 114
3 36 195 156
3 36 185 195
3 36 156 37
3 37 57 36
3 36 57 138
3 103 185 36
3 36 138 103
3 66 62 76
3 7 62 66
3 76 159 170
3 159 253 170
3 170 66 76
3 79 66 170
3 87 106 28
3 50 106 87
3 28 55 87
3 55 50 87
3 105 212 98
3 212 84 98
3 94 254 120
3 120 254 17
3 194 94 120
3 172 194 120
3 120 17 172
3 143 179 97
3 97 100 143
3 143 100 14
3 14 108 143
3 108 179 143
3 200 126 2
3 155 126 200
3 200 2 6
3 6 163 200
3 53 220 74
3 246 85 9
3 9 202 246
3 177 90 150
3 150 90 246
3 247 104 166
3 83 247 166
3 166 209 83
3 166 118 209
3 88 4 19
3 19 235 88
3 41 4 88
3 204 161 158
3 158 107 204
3 107 111 204
3 128 164 95
3 164 199 95
3 153 208 90
3 153 20 208
3 229 209 32
3 209 118 32
3 32 38 229
3 64 38 32
3 32 199 64
3 73 66 79
3 73 185 218
3 218 7 73
3 7 66 73
3 195 185 73
3 73 79 195
3 79 170 39
3 68 195 39
3 195 79 39
3 22 68 39
3 39 253 22
3 39 170 253
3 65 103 196
3 218 185 65
3 65 185 103
3 65 84 218
3 65 98 84
3 163 74 125
3 177 150 125
3 125 150 163
3 125 220 177
3 125 74 220
3 53 74 137
3 137 232 53
3 6 232 137
3 137 163 6
3 137 74 163
3 213 44 42
3 44 0 42
3 42 161 213
3 158 161 42
3 155 200 91
3 91 200 163
3 163 150 91
3 118 166 56
3 162 124 3
3 162 3 41
3 41 88 162
3 235 124 162
3 162 88 235
3 161 204 130
3 130 72 167
3 167 213 130
3 213 161 130
3 197 240 10
3 10 240 128
3 128 95 10
3 147 90 177
3 147 153 90
3 147 220 152
3 177 220 147
3 105 98 216
3 98 129 216
3 216 129 203
3 216 106 105
3 203 106 216
3 98 65 225
3 225 129 98
3 225 65 196
3 203 129 225
3 225 196 53
3 53 232 225
3 225 232 203
3 133 158 113
3 158 42 113
3 113 0 202
3 113 42 0
3 155 91 160
3 44 155 160
3 160 0 44
3 102 91 150
3 246 202 102
3 102 150 246
3 102 160 91
3 202 0 102
3 0 160 102
3 118 56 67
3 20 10 67
3 67 10 95
3 134 56 166
3 134 104 255
3 134 166 104
3 255 20 134
3 20 67 134
3 134 67 56
3 122 130 204
3 178 15 122
3 122 15 71
3 122 111 178
3 122 204 111
3 71 72 122
3 72 130 122
3 152 197 206
3 206 147 152
3 153 147 206
3 197 10 206
3 20 153 206
3 206 10 20
3 8 85 133
3 133 113 8
3 8 9 85
3 202 9 8
3 8 113 202
3 118 67 157
3 157 67 95
3 157 32 118
3 157 95 199
3 199 32 157