ply
format ascii 1.0
comment https://github.com/mikedh/trimesh
element vertex 256
property float x
property float y
property float z
element face 508
property list uchar int vertex_indices
end_header
-0.96896487 0.88427371 4.33030891
1.82633507 -1.70054114 -1.58272851
0.79992473 1.61704826 3.45364070
-1.11944699 -2.04039717 1.87182093
-1.38123453 -2.11317992 -0.47791561
0.87872118 -2.01144838 2.33905125
0.16053726 1.91019344 3.07249832
1.64173090 1.21611822 -3.22808194
-1.61022222 0.72840077 3.84081817
-1.83611965 0.86175495 3.38529897
-2.15219259 1.44378996 -1.39450538
-1.23360109 -0.51872253 -4.37498713
2.35467362 0.62938100 -2.50614452
-0.39571851 -2.22843122 1.86498344
1.15342462 -0.67112672 -4.35375786
0.20861569 -1.30935895 4.19012117
-2.36465669 0.34841558 2.70203972
2.52230430 -0.90198857 -1.41690660
1.19001424 -2.16091156 -0.93327439
-0.76571721 -2.33569813 -0.29561782
-2.31497288 1.41045344 0.34602326
-1.98218310 -0.13698079 -3.57939577
-0.12392317 0.41905123 -4.91345644
-0.29638848 -2.26229930 -1.74652398
-0.65696198 -2.08894658 2.27917290
2.15308094 -0.08271289 -3.27182198
-1.02270353 -1.76540089 2.92858052
1.32204211 -0.64222831 4.22294521
2.04740739 1.50188410 1.60135531
2.46925926 -0.06457937 -2.49797535
-0.94613326 -1.30729318 -3.86944413
-0.98103547 -1.59508407 -3.35163498
-2.73044538 0.28535116 -1.32528484
-2.00238276 0.54500145 -3.37469554
0.59125137 -1.88091040 -2.98522758
2.01877904 0.57935077 -3.32128263
-0.38486674 2.07836080 -2.49940395
-0.94195098 1.88850558 -2.67468905
-2.59270954 -0.28534004 -1.99862504
0.43884343 0.77585250 -4.66908550
0.35636687 -1.73949111 3.42924595
-1.77313459 -1.86296725 0.79450518
-0.92673004 0.48985106 4.61443853
-2.16660810 -0.55497003 -3.04007459
-0.22361921 0.58948261 4.82871580
0.82954586 -1.11020994 -4.19689322
-1.87385106 -1.82525551 -0.31254715
1.28333449 -1.80453730 -2.47706079
-2.15963316 -1.54322958 -0.75652003
2.01007676 -0.49702841 3.39171243
2.43249440 0.83867300 1.95603347
1.49823773 -2.06268120 0.27005187
0.80338246 -2.31517076 0.56593573
0.33779895 2.40590096 0.37328926
-1.65705347 -1.93746877 -0.81073797
2.09683752 1.07414818 2.56696582
-2.74566817 0.65407932 -0.18472934
-1.09268355 2.04584956 -1.89431524
1.06523895 -1.52200854 -3.41608930
1.91634297 0.17012018 -3.68303418
1.51731050 -1.95414364 -1.32613266
-0.86868143 1.39569032 -3.79375648
1.72974432 0.63802016 -3.74713874
-1.73928428 -1.41730154 2.68075085
-2.40179229 0.10438647 -2.68553138
0.90368140 2.22676325 -1.22017694
1.11290872 1.01621485 -4.09582806
-2.60912275 0.92579347 -0.66970158
-0.32432964 0.83541417 -4.65404177
2.84071684 0.20715040 0.15967092
-0.62610829 -1.01026928 -4.40710926
0.62415248 -0.55559307 4.73629045
0.31014034 -0.27184573 4.93270874
0.85999990 1.28840029 -3.95697045
-0.47012764 2.29943371 1.38684106
-0.63570893 2.35408998 -0.52765119
1.28671539 0.41871256 -4.37319231
-1.80719137 -1.59688914 -2.03953004
-1.26490378 -2.01541758 -1.69258201
0.69169378 1.07289577 -4.31286287
2.21855402 -0.89414901 2.54534578
2.54560423 1.07211506 -0.46382019
-0.06029967 -1.44567668 -4.01168203
-2.84492683 -0.10631962 0.27584758
1.33507562 1.88298094 -2.11935306
-2.05131483 0.49490753 3.31886649
2.54331088 0.39289045 -2.11095119
2.33228445 1.16659045 1.58900952
-1.21445465 -2.19783616 0.11267089
-0.30317470 -2.00934553 2.75583291
-1.77422488 1.59376621 2.13506556
-0.81226647 1.53708303 3.59544063
-0.01157472 -2.22096324 2.02532315
1.44774485 1.02404702 3.75254154
2.65755486 -0.86647785 0.34727690
-2.41750431 1.02237368 -1.61705279
-1.73868895 -1.14669144 3.18017912
1.91615474 -1.05056942 -3.00218987
1.46246946 1.95346391 -1.50135469
-1.57248020 -1.44440782 -2.92468572
1.29816186 -1.12874711 -3.79364252
2.00098372 -1.19482708 2.57441330
-1.09767914 1.18620455 3.91069031
0.10911828 2.32795477 -1.41740751
-2.60202861 0.54610473 1.70830202
2.21981597 1.48404741 -0.72197723
2.43669438 1.20176208 0.79501629
-1.86524093 -0.61350757 3.56124449
1.87353563 -0.26394963 -3.72541881
0.47186306 -2.33993173 -1.05808437
-2.56474304 0.28887904 2.10387635
-1.09999013 -1.30860710 3.73990774
0.80448717 -0.59558249 -4.63141346
-1.29224980 0.53457081 4.31338453
-1.73509073 0.96119028 -3.43593931
1.94725943 0.90662390 -3.13831735
-0.52589786 0.00491916 -4.90772915
-0.77358788 -0.29845497 -4.76788282
-2.76775241 0.47248954 -0.71255779
2.60671425 -0.80335128 1.17992818
2.65089703 -0.87614322 -0.39685786
1.22132587 -0.97414768 4.04360104
-0.14794374 -1.08018160 4.46514845
1.60155356 -0.96366638 3.62631989
-0.79068965 -2.20391822 1.58337843
-0.76988125 2.12753510 1.99906671
0.29280677 1.14701521 4.37241316
0.02341901 2.41747713 -0.48486847
-1.81758249 1.27733552 -2.81254649
1.75134480 1.91690540 -0.13127235
-0.44594908 -0.60336626 4.77465105
1.71529114 -0.30497032 3.94021130
-1.15920103 -1.76265776 -2.77371001
-1.72368217 -0.07980915 3.97624779
-2.70014668 0.74184525 0.51348078
-2.64369035 -0.77625179 -0.98320138
2.55341148 0.36903113 2.09232640
0.08793551 2.13217282 2.38898110
-0.40699279 2.25511169 -1.71470320
2.10206556 -1.40240133 1.75471663
0.87331712 -1.72636354 3.16280150
2.13890958 0.59519511 3.06851888
2.31109524 -1.02047622 -2.04273248
1.55003750 -0.86058885 -3.80064988
2.33606315 -0.68400490 -2.49865437
1.92247331 -1.79453874 0.01715750
1.62532747 0.39756638 4.02109098
-1.66380954 1.95965183 0.46905631
1.60992241 1.50344002 2.72934771
0.50107098 0.24946342 4.88954067
-1.02481723 1.73729062 2.99389410
-0.13797417 -1.71524644 -3.52832961
-1.02401650 2.25689507 -0.44881055
-1.94732416 1.75246942 0.59209049
1.67078590 0.73953974 3.75021815
-0.20176558 1.37135732 4.10714388
-0.86430365 1.68374908 -3.26701760
-2.65681839 0.64843249 -1.23502910
-1.33859611 -0.29218361 4.36870432
1.25745499 0.10065934 -4.47757483
-0.72613668 1.26264393 4.07223463
-0.80133694 -0.29303727 4.75438309
-1.21297550 -2.11142874 1.26318169
-0.45765233 2.05548120 2.53810692
-2.03245139 0.93045694 -2.93605685
-0.85850793 -0.68392611 -4.54921818
-2.81603885 0.37979689 0.15652531
-0.02932480 0.16621284 4.98116207
0.85787016 -2.08745337 -2.06979251
-2.08367133 -0.04648784 3.40895605
0.75227821 0.61310041 -4.64840221
-1.64353895 0.66920716 -3.84292555
2.67132425 -0.33752623 -1.61215663
2.65747833 -0.14259984 1.79124177
-1.91727793 -1.01511133 -3.05179191
-2.09906149 -0.77008259 2.98707175
-0.00868412 -2.36292028 1.16144860
-1.11697567 2.00148678 2.04836750
-0.59975863 -1.82548654 3.12433982
2.01072860 -0.72774869 -3.21018100
-0.05815083 -2.42841959 0.14206445
1.04875743 -0.34864059 4.58844328
1.72844648 1.62786674 2.14112639
0.68096823 1.21688378 4.15437126
0.42678359 -0.37642401 -4.87596846
0.41499352 1.92548323 -2.95786500
1.31708014 -2.01680684 1.56044579
-2.17096424 -1.22274196 2.04491091
2.43181944 -0.10771589 2.60076046
-2.47277498 -0.77390403 -1.91287518
0.25955227 -2.11284757 -2.42147565
2.59200096 0.61629409 -1.65400505
0.56786388 -1.34157145 4.04214191
-1.48443758 0.41534668 -4.17749739
2.77719975 -0.15384066 -1.09707654
-0.30522871 1.42184067 -4.01344347
0.55765116 2.37957430 -0.23628201
-1.49725592 1.98248231 -1.20626009
2.74512219 0.33320135 -1.17244399
-2.47976828 0.44575140 -2.29266620
-0.13309333 1.73555589 3.48848295
-2.53166366 -0.95246565 1.20903742
-1.36430836 0.96161300 3.91385603
1.84558535 1.78852832 0.98979241
-0.82547140 -1.00757134 4.30770397
-2.33597040 -0.36973518 2.76299858
-1.63520980 1.98526752 -0.30504349
1.05315888 0.74935639 4.37866020
-2.15584922 1.36559129 1.67522013
-2.82768488 -0.29671404 -0.25306892
-1.35103011 0.10853316 -4.39297676
-0.22681592 -1.15132761 -4.38024521
1.79519022 1.54497778 -2.23228288
-0.45657793 0.21169987 4.90959692
-2.11554742 -1.20587695 -2.25333571
-0.20569453 -2.36256385 -1.11123836
2.03571987 1.69456935 -0.31662217
1.08222699 -0.20797013 -4.60138369
0.97408921 1.89843035 -2.60648847
-2.60478091 -0.97479045 0.37637508
-0.64240563 2.36198950 0.31170347
-2.20204449 -1.53986001 0.22290386
2.77157450 0.01337707 1.18138897
-2.68995714 -0.43893030 1.39483142
0.37285319 -1.36556172 -4.07791948
1.11302042 2.23512769 -0.17497471
1.77373755 -1.67611468 1.85323870
2.29143763 -1.41062832 0.66084117
2.14584255 -1.47028482 -1.29972327
-2.74608421 -0.24660298 -1.24918377
-1.94419849 -1.66532373 -1.27608836
2.72822118 0.42448574 1.16641629
1.01824307 1.77614522 2.90431428
2.48016715 -0.81455195 1.81248760
1.61052811 -1.42481089 -2.90101647
-0.50551856 -2.32479501 1.14793944
-2.47933626 -1.17142093 -0.54407614
-0.53606880 0.40373003 -4.83448267
-1.50050318 1.22960293 -3.41305518
0.55995017 -2.28844547 1.36185277
-1.61439228 1.60115981 -2.47520661
0.48385990 -2.03833938 2.58065295
0.19138893 -2.29083943 -1.62859762
-0.07008927 -0.58822328 -4.84408903
-1.80585527 -0.57730854 -3.67936802
2.69281507 0.02934644 -1.64565837
-1.97493374 1.14519060 2.72845769
-2.79362345 -0.03556898 1.00462103
0.53015590 -0.92511851 -4.52299452
1.53825772 -2.02086568 -0.66099560
1.56330502 -1.38823342 3.04955173
2.76644111 0.58613819 -0.18827797
-1.15914690 0.81865245 -4.24119711
0.55954564 0.18819368 -4.88106298
2.39461565 -1.31094003 -0.31087252
-2.45378900 1.00877261 1.47496510
3 135 229 189
3 110 247 223
3 223 247 83
3 30 31 99
3 209 229 135
3 209 223 83
3 38 189 229
3 64 43 38
3 38 43 189
3 94 194 69
3 149 181 146
3 80 233 188
3 146 181 131
3 146 131 141
3 141 131 188
3 110 223 205
3 237 68 22
3 172 144 29
3 198 86 191
3 191 251 198
3 69 194 198
3 198 251 69
3 51 226 186
3 23 78 132
3 99 31 132
3 19 78 23
3 165 30 11
3 23 190 242
3 159 76 59
3 59 108 159
3 248 184 112
3 243 184 248
3 211 243 248
3 248 224 211
3 211 224 82
3 82 30 211
3 34 224 58
3 234 47 58
3 58 47 34
3 21 43 64
3 174 30 99
3 135 189 236
3 46 48 230
3 227 94 119
3 167 149 44
3 44 213 167
3 49 80 188
3 188 131 49
3 136 141 188
3 182 55 28
3 148 55 182
3 250 226 101
3 180 109 52
3 186 239 52
3 52 51 186
3 72 149 167
3 181 149 72
3 72 71 181
3 121 140 250
3 107 158 133
3 96 107 175
3 175 107 205
3 68 237 252
3 252 61 68
3 68 61 195
3 61 156 195
3 245 198 194
3 86 198 245
3 245 194 172
3 172 29 245
3 245 29 86
3 59 76 62
3 191 86 12
3 86 29 12
3 81 251 191
3 191 105 81
3 212 105 191
3 191 12 212
3 203 182 28
3 17 144 172
3 60 47 1
3 1 47 234
3 168 190 34
3 34 47 168
3 109 242 168
3 168 242 190
3 168 47 60
3 227 226 145
3 226 51 145
3 145 1 228
3 109 168 18
3 18 168 60
3 18 52 109
3 51 52 18
3 180 19 215
3 215 19 23
3 23 242 215
3 215 109 180
3 215 242 109
3 78 19 4
3 4 41 46
3 70 243 211
3 70 165 243
3 211 30 70
3 30 165 70
3 116 237 22
3 22 184 116
3 116 184 243
3 25 29 144
3 25 108 59
3 25 12 29
3 217 108 14
3 217 159 108
3 217 14 112
3 112 184 217
3 253 184 22
3 253 217 184
3 159 217 253
3 112 14 45
3 45 248 112
3 224 248 45
3 45 58 224
3 151 224 34
3 151 82 224
3 34 190 151
3 151 190 23
3 31 30 151
3 30 82 151
3 23 132 151
3 151 132 31
3 210 252 237
3 237 116 210
3 43 21 244
3 244 174 43
3 244 210 11
3 21 210 244
3 11 30 244
3 30 174 244
3 214 236 189
3 48 236 214
3 214 230 48
3 189 43 214
3 43 174 214
3 214 174 99
3 201 205 223
3 201 175 205
3 221 236 48
3 46 41 221
3 221 48 46
3 78 230 77
3 99 132 77
3 77 132 78
3 77 214 99
3 230 214 77
3 222 94 69
3 222 119 94
3 69 251 231
3 231 222 69
3 136 222 231
3 141 136 50
3 50 55 141
3 136 231 50
3 93 55 148
3 148 2 93
3 93 2 183
3 16 85 246
3 110 205 16
3 220 75 152
3 233 80 139
3 80 101 139
3 227 119 139
3 139 119 233
3 139 226 227
3 139 101 226
3 180 52 176
3 176 52 239
3 63 41 3
3 3 26 63
3 89 13 92
3 92 241 89
3 13 176 92
3 239 241 92
3 92 176 239
3 5 239 186
3 5 241 239
3 140 241 5
3 186 226 5
3 5 226 250
3 250 140 5
3 40 178 89
3 40 15 178
3 89 241 40
3 40 241 140
3 181 71 27
3 71 121 27
3 27 131 181
3 140 121 192
3 192 40 140
3 15 40 192
3 71 15 192
3 192 121 71
3 33 21 64
3 37 156 240
3 61 252 238
3 128 240 238
3 238 156 61
3 238 240 156
3 127 220 53
3 75 220 127
3 53 196 127
3 196 103 127
3 127 138 75
3 103 138 127
3 106 81 105
3 106 203 28
3 106 50 231
3 251 81 106
3 106 231 251
3 84 7 218
3 84 212 7
3 7 212 115
3 115 212 12
3 115 62 7
3 228 17 254
3 254 94 227
3 227 145 254
3 254 145 228
3 249 18 60
3 51 18 249
3 249 145 51
3 60 1 249
3 1 145 249
3 54 230 78
3 78 4 54
3 46 230 54
3 54 4 46
3 243 165 117
3 117 116 243
3 117 165 11
3 11 210 117
3 117 210 116
3 179 25 144
3 108 25 179
3 144 97 179
3 35 25 59
3 12 25 35
3 35 115 12
3 59 62 35
3 62 115 35
3 142 17 228
3 234 97 142
3 144 17 142
3 142 97 144
3 142 1 234
3 228 1 142
3 234 58 100
3 58 45 100
3 100 97 234
3 100 45 14
3 193 210 21
3 193 33 171
3 21 33 193
3 171 252 193
3 252 210 193
3 187 41 63
3 175 201 187
3 187 221 41
3 201 221 187
3 63 96 187
3 96 175 187
3 236 221 219
3 219 221 201
3 219 209 135
3 135 236 219
3 223 209 219
3 219 201 223
3 173 136 188
3 173 222 136
3 188 233 173
3 233 119 173
3 119 222 173
3 148 182 232
3 232 2 148
3 6 2 232
3 182 203 232
3 126 155 44
3 126 44 149
3 183 2 126
3 207 93 183
3 207 126 149
3 183 126 207
3 207 149 146
3 141 55 154
3 55 93 154
3 146 141 154
3 154 207 146
3 93 207 154
3 246 255 104
3 104 16 246
3 110 16 104
3 104 247 110
3 133 85 169
3 85 16 169
3 169 16 205
3 169 107 133
3 205 107 169
3 208 255 246
3 246 90 208
3 235 176 13
3 235 19 180
3 180 176 235
3 124 235 13
3 178 26 24
3 26 3 24
3 89 178 24
3 3 124 24
3 24 13 89
3 24 124 13
3 111 107 96
3 111 96 63
3 63 26 111
3 111 26 178
3 123 27 121
3 123 121 250
3 123 49 131
3 131 27 123
3 250 101 123
3 80 49 123
3 123 101 80
3 255 208 20
3 199 33 64
3 164 33 199
3 37 240 57
3 57 240 197
3 57 197 152
3 152 75 57
3 75 138 57
3 114 252 171
3 114 238 252
3 171 33 114
3 114 33 164
3 114 164 128
3 128 238 114
3 36 195 156
3 36 185 195
3 36 156 37
3 37 57 36
3 36 57 138
3 103 185 36
3 36 138 103
3 66 62 76
3 7 62 66
3 76 159 170
3 159 253 170
3 170 66 76
3 79 66 170
3 87 106 28
3 50 106 87
3 28 55 87
3 55 50 87
3 105 212 98
3 212 84 98
3 94 254 120
3 120 254 17
3 194 94 120
3 172 194 120
3 120 17 172
3 143 179 97
3 97 100 143
3 143 100 14
3 14 108 143
3 108 179 143
3 200 126 2
3 155 126 200
3 200 2 6
3 6 163 200
3 53 220 74
3 246 85 9
3 9 202 246
3 177 90 150
3 150 90 246
3 247 104 166
3 83 247 166
3 166 209 83
3 166 118 209
3 88 4 19
3 19 235 88
3 41 4 88
3 204 161 158
3 158 107 204
3 107 111 204
3 128 164 95
3 164 199 95
3 153 208 90
3 153 20 208
3 229 209 32
3 209 118 32
3 32 38 229
3 64 38 32
3 32 199 64
3 73 66 79
3 73 185 218
3 218 7 73
3 7 66 73
3 195 185 73
3 73 79 195
3 79 170 39
3 68 195 39
3 195 79 39
3 22 68 39
3 39 253 22
3 39 170 253
3 65 103 196
3 218 185 65
3 65 185 103
3 65 84 218
3 65 98 84
3 163 74 125
3 177 150 125
3 125 150 163
3 125 220 177
3 125 74 220
3 53 74 137
3 137 232 53
3 6 232 137
3 137 163 6
3 137 74 163
3 213 44 42
3 44 0 42
3 42 161 213
3 158 161 42
3 155 200 91
3 91 200 163
3 163 150 91
3 118 166 56
3 162 124 3
3 162 3 41
3 41 88 162
3 235 124 162
3 162 88 235
3 161 204 130
3 130 72 167
3 167 213 130
3 213 161 130
3 197 240 10
3 10 240 128
3 128 95 10
3 147 90 177
3 147 153 90
3 147 220 152
3 177 220 147
3 105 98 216
3 98 129 216
3 216 129 203
3 216 106 105
3 203 106 216
3 98 65 225
3 225 129 98
3 225 65 196
3 203 129 225
3 225 196 53
3 53 232 225
3 225 232 203
3 133 158 113
3 158 42 113
3 113 0 202
3 113 42 0
3 155 91 160
3 44 155 160
3 160 0 44
3 102 91 150
3 246 202 102
3 102 150 246
3 102 160 91
3 202 0 102
3 0 160 102
3 118 56 67
3 20 10 67
3 67 10 95
3 134 56 166
3 134 104 255
3 134 166 104
3 255 20 134
3 20 67 134
3 134 67 56
3 122 130 204
3 178 15 122
3 122 15 71
3 122 111 178
3 122 204 111
3 71 72 122
3 72 130 122
3 152 197 206
3 206 147 152
3 153 147 206
3 197 10 206
3 20 153 206
3 206 10 20
3 8 85 133
3 133 113 8
3 8 9 85
3 202 9 8
3 8 113 202
3 118 67 157
3 157 67 95
3 157 32 118
3 157 95 199
3 199 32 157