ply
format ascii 1.0
comment https://github.com/mikedh/trimesh
element vertex 256
property float x
property float y
property float z
element face 508
property list uchar int vertex_indices
end_header
2.37240338 3.22933769 0.23592445
-3.34706831 1.54565883 -2.59574127
-1.30685830 -3.41909885 -1.67148781
-4.37553644 0.71660829 -0.20656300
-3.55207729 0.88655138 2.77518153
-0.25514954 -0.46503016 -4.92674589
2.82056642 0.08198455 3.84822249
-4.06581450 0.17641659 -2.02642250
2.10523415 0.00257378 -4.38342047
-2.00893164 -2.32226419 3.25286436
2.52294016 -2.52098560 -2.45819521
0.04937869 -3.81370664 -0.30646256
-3.48264289 0.42689455 3.05397439
-2.11099148 -0.77355945 -4.26205111
-0.88562441 3.21797895 2.49362874
1.00242782 0.95833963 4.68098450
3.01152992 2.04444909 2.52254343
0.36959961 -1.64333308 4.46967745
1.43377101 -3.02340078 -2.58525133
1.34531617 -2.46981835 -3.48504329
0.82380897 1.19144881 -4.63340521
0.71346444 -3.53196812 1.72218585
2.90905046 1.39441764 3.30327916
3.38882494 -1.04595864 2.92946148
-0.97674304 -2.82584143 3.16539860
2.11564016 1.17937136 4.09748268
-3.81932616 -1.95586836 -0.31286690
1.76007724 3.35803604 1.33451843
0.58863628 -1.20612180 -4.67233133
-0.11981810 2.27714539 -3.98996329
-1.79707944 2.66430950 -2.94534683
-4.38043356 0.36258131 0.79529113
3.65697098 0.58667934 2.73821998
2.98641062 -2.35292482 2.06087208
-1.57833898 -2.39687037 -3.44901419
-3.49883151 -2.28249979 -0.81783473
2.17047000 0.71834129 -4.24046278
-0.70670408 -1.82433474 -4.29629469
3.44809389 2.16427827 -1.41540098
-0.69988883 -3.77288485 -0.10308037
-4.39658451 -0.22430189 0.77014673
4.34494734 -0.85209876 -0.13691069
0.32724413 0.61309069 -4.89327812
-4.16040659 1.21863043 -0.82093567
0.13952447 -3.52302623 -1.91992736
0.43265522 1.04469776 4.75791216
0.00866175 3.75512075 -0.91624284
-0.18478182 -3.39172888 2.28181100
2.23561335 -2.71108532 2.46080804
2.22529316 2.30970955 3.08496070
1.43899786 -3.61370301 -0.18485512
0.54812479 3.30557895 -2.41933894
-0.39691120 3.07771492 2.91245723
1.18002474 -1.47106826 4.39607525
-1.89377427 -1.23939276 -4.20224524
-2.42439175 3.19104338 0.42321193
3.24985576 2.20559716 1.82998776
-2.73817444 -2.79426718 1.47467017
1.76361084 -0.90392494 4.41349220
-2.80763316 -0.41513094 -3.82248926
-2.66739535 -1.84683132 3.17893076
2.82367373 -1.54507506 3.28085709
2.97548699 2.84216189 -0.17227104
-2.87599277 0.26044270 -3.78309512
2.09039354 3.35292339 -0.49898019
2.60225415 2.55752802 -2.28760815
-0.34269047 2.75533223 -3.42463136
-0.41999975 1.50826919 4.54409790
-3.23649335 -1.28078258 -2.98788643
1.34758067 1.00448895 -4.55488539
3.64804292 -2.19165397 0.20769858
0.71917123 -3.33840275 -2.28501725
2.32886815 0.15616848 4.23405504
3.65941262 -1.34933472 2.23186183
-2.77030349 -1.31670368 -3.49877691
-0.39924031 3.72945905 0.98231637
-1.89707887 1.74260378 3.88536644
-2.99316502 2.75087857 0.88191074
2.97723579 2.15590811 -2.41324735
0.11039263 3.62976694 -1.54738569
-1.59364319 -1.54621232 4.18485260
4.36973858 0.01557740 -0.98768741
1.68031013 -0.41102853 4.57280302
1.83529866 -2.41249490 3.26626635
1.69349790 3.53388453 0.05585851
-1.21187031 -0.00149287 4.78396130
-2.07922554 0.18450683 4.39176989
4.06965637 0.25926054 2.00454593
-4.32485342 -0.83948946 0.51726913
4.40339899 -0.43887031 -0.52615511
-2.56822610 -0.28712958 4.04625320
-3.29920125 0.68899506 -3.22044396
-1.47460413 -0.69663626 -4.60358477
-3.14636898 2.43526888 -1.53945076
0.87085712 -2.35460043 3.79196692
2.13732243 -2.40536809 -3.04074550
-2.01423717 3.04748249 -1.98673296
4.27656937 0.67167020 -1.09945500
-1.60853374 -1.03261673 4.43722105
3.37633252 -2.44936943 -0.62883192
3.45553160 -0.31856677 3.11225080
2.03846884 1.32903636 -4.06927347
-3.40345407 1.89768481 2.05277419
-1.97366786 -3.39919162 -0.55875397
-0.70486152 -3.52858400 1.73738492
3.54159093 -2.10256720 1.27628255
-2.23377156 1.30655336 -3.95234609
3.95054388 -1.08291304 -1.82331860
1.40622592 2.72388363 -3.11452866
2.57369804 2.10847235 -2.99375343
-1.08051085 -3.02033448 -2.79863977
-0.36785415 -2.93609834 -3.15345693
-1.69257510 -0.54495269 4.54546404
-3.95083666 -1.63451493 -0.88956672
3.35167027 1.38601398 2.73861051
0.23005022 -2.82889700 -3.33126283
-3.69538522 1.24633598 2.26057887
-1.17837214 2.71358013 -3.24260449
0.49515751 2.83798218 -3.28193712
3.65971255 0.33640102 -2.80527663
1.36052120 0.37571889 -4.70847130
-2.36524940 -2.27342892 -3.00217009
4.17592859 -0.98946822 1.17591691
1.12558830 -1.38247871 -4.46133375
-3.44562364 -2.37927461 0.61401129
-3.30865335 -2.32805562 1.38920736
-0.76670760 2.20242596 -3.97360849
1.11079776 2.77846289 3.17864919
-3.51131153 1.01405549 -2.76432633
2.93044829 0.60070997 3.66410780
-3.02546954 -2.80641937 -0.07587243
0.34956390 -0.46106398 -4.91899300
-2.35418344 3.15865636 -0.96655375
-1.10292625 -2.43412590 3.63158441
-1.18134093 0.63092625 4.72259092
-3.58735228 -2.00000954 -1.39258635
-4.16273642 -1.14577997 -0.97501290
-1.34638810 -1.17718422 -4.48437643
-2.81269169 2.85434723 -1.04306483
-1.67840648 3.49041343 0.77187592
-0.61266178 -3.72504067 0.87358111
-1.71201491 2.38576579 3.38179755
0.51703966 2.33719873 -3.89009404
-1.98098207 2.67831111 2.77438545
-3.48924971 -1.54218149 2.35597491
3.32280040 2.37672305 1.19273591
-3.10223269 -0.20017491 3.56122041
0.34290791 -3.77160454 0.69574541
3.91613603 1.82477236 -0.12372889
2.64548707 -0.75751644 -3.87819362
-0.54383332 -0.09460238 4.93265629
-3.86826944 1.02683008 -2.07943606
2.21991086 1.74145699 3.66659331
-0.09578661 1.47429156 -4.58453989
0.78555310 0.21229641 4.88539028
-4.16261578 0.44800004 1.68387067
-1.56190944 -3.57836556 -0.10507756
-2.31306148 -2.74280906 2.30814910
-0.40370256 -2.59983301 3.61593008
-2.71180296 1.09707606 -3.68060708
-3.20196462 -0.70478433 -3.33524537
-2.77682281 -2.35041595 2.40396357
-3.91895556 -0.94228089 -2.02852821
2.87583899 0.72584391 -3.68017030
4.03215647 -1.62890983 0.11368579
2.21587038 -0.37606809 4.28599882
-4.42781305 -0.40110475 -0.26742947
-0.53482920 -3.55225563 -1.73016977
3.94846773 -0.58316028 2.17986584
3.58333755 2.23532510 -0.54190511
-1.34742224 0.26222742 -4.72773695
-2.68578029 -3.02004838 -0.54727775
-0.00173744 -2.20656180 4.05851936
0.70403051 -2.20667124 -3.98103499
4.14671898 -0.64868671 -1.62023354
2.49969292 -1.12798202 3.84558201
0.23115893 3.73328757 1.02819753
-3.39121127 -1.18590963 2.83529496
-0.38232553 2.27363610 3.97502351
1.05517602 -0.64228922 -4.75808716
-1.53705418 -3.50754857 -0.97289699
1.74651003 0.70880461 4.48001480
-1.52092409 1.58874846 -4.19166327
1.51232255 -3.52158546 -0.93445814
-0.79002237 3.29699445 -2.35404873
-1.68953407 0.93604714 4.43625689
-1.55188847 -2.64472032 3.14302516
3.05352211 -2.49526644 -1.60764575
-4.22605610 1.05714333 0.78566611
0.18598492 2.09846401 4.14939356
4.44394827 0.17136675 -0.32797706
0.95201850 3.69850802 -0.65858263
3.77153587 1.31965840 2.01990414
-2.41962647 1.49911702 3.69239068
1.20067167 1.97709358 4.03843307
2.27289510 -1.91740847 -3.47477674
-1.97761285 2.15535426 -3.46382999
-0.49409881 -0.69138587 4.85777855
0.47232643 -1.76202953 -4.38008261
-2.94920564 0.51797462 3.66725922
3.81850553 -1.87551188 0.79795682
1.62395597 -0.50102210 -4.58333778
2.38145542 -3.22888923 0.16478160
-4.34326363 -0.04502177 -1.11952722
2.24881005 3.11199713 -1.42393005
-3.80910349 0.12567270 2.57811403
1.91669595 -0.89744353 -4.33409071
3.08032250 -2.75743318 -0.21237119
-3.66515470 -1.85619485 1.47588491
-1.30102336 3.46282125 1.51773477
3.79760742 -0.26111794 -2.58318853
-0.90668595 3.59844518 -1.33124626
-0.91670609 -3.67369986 -0.91316497
1.10202169 3.11140180 2.61024189
2.69394207 1.89528000 3.10031343
-4.23105955 -1.18255770 -0.29006338
-4.12396765 -0.38845760 -1.81908500
3.09280133 -0.92332923 -3.37291217
-3.58052206 -0.52470386 2.88382697
-3.74356818 1.59821033 -1.72420561
-0.52329814 -2.27313375 -3.95372581
3.77040935 -1.95193136 -0.77418286
3.25214481 0.21351743 -3.38925982
-1.94240594 -1.72615480 -3.87227750
0.69651735 -0.80125237 4.79897690
-1.76523376 -3.42955518 0.96109802
-2.19222379 -1.80462503 3.63721585
-4.06537151 1.56732881 -0.06754216
-3.55773759 2.23273182 -0.72855777
-1.36757410 1.67868662 4.19814205
-3.16473460 -2.47584128 -1.37058926
1.95885324 2.70621705 2.74681091
-2.10198832 -3.09382796 1.73717976
-2.82572341 -2.91759944 0.61446923
2.85476875 1.61432481 -3.18973994
-2.86582685 1.53303790 3.24430943
-3.72562885 1.89769566 -1.16871262
2.10473204 -1.42019129 -3.97447371
-1.03647506 -0.47258130 4.79668140
2.25257254 -1.82693851 3.57216239
-2.19578862 -3.00909090 -1.84080708
-0.76088214 3.75155306 0.40496823
-0.64341122 0.07815713 -4.91816664
4.37442446 0.73780531 -0.00187972
-0.95993233 -2.62195897 -3.45336390
-3.69981170 2.02261472 0.87692690
3.60677004 0.84969807 -2.70537639
-0.80291069 0.91869348 -4.74088240
-2.26345038 -3.29017830 0.12899554
0.61537510 -2.97987962 3.03485799
-0.00942915 3.42757249 2.19840956
-3.85050488 -1.40817249 -1.70805991
-3.91812277 -1.21527493 1.76897728
0.75946593 3.50799274 1.77914429
-2.47692323 2.60607767 2.36397123
3.61082053 -1.26611400 -2.40586448
3 249 48 83
3 64 0 62
3 220 34 37
3 64 62 204
3 204 191 64
3 51 191 204
3 213 27 253
3 21 48 249
3 104 24 232
3 40 205 155
3 7 151 128
3 128 151 1
3 115 111 220
3 220 111 244
3 244 34 220
3 113 26 215
3 117 184 66
3 66 51 118
3 184 51 66
3 117 196 30
3 30 184 117
3 30 196 1
3 64 191 84
3 84 0 64
3 84 27 0
3 46 191 79
3 79 191 51
3 79 51 184
3 168 87 100
3 100 23 168
3 168 23 73
3 168 73 122
3 122 87 168
3 25 152 194
3 32 87 192
3 100 87 32
3 32 129 100
3 145 62 0
3 0 27 145
3 220 37 198
3 99 70 207
3 78 246 234
3 246 163 234
3 118 51 108
3 51 204 108
3 126 196 117
3 117 66 126
3 126 66 29
3 148 145 192
3 107 174 41
3 122 164 41
3 81 174 210
3 210 174 107
3 210 97 81
3 38 204 62
3 38 148 97
3 38 246 78
3 38 97 246
3 73 33 105
3 207 70 105
3 112 86 90
3 146 177 90
3 231 213 127
3 27 213 231
3 134 45 67
3 67 229 134
3 185 86 134
3 134 229 185
3 249 83 94
3 112 90 98
3 150 45 134
3 175 23 100
3 11 183 50
3 47 24 104
3 47 21 249
3 104 21 47
3 186 232 24
3 186 133 9
3 24 133 186
3 31 40 155
3 215 26 88
3 136 113 215
3 251 113 136
3 7 128 91
3 212 167 11
3 225 232 233
3 104 232 225
3 225 140 104
3 44 183 11
3 11 167 44
3 44 167 111
3 121 34 110
3 34 244 110
3 111 167 110
3 110 244 111
3 218 177 146
3 121 110 240
3 233 124 130
3 56 16 192
3 192 145 56
3 56 231 16
3 56 145 27
3 27 231 56
3 129 32 22
3 22 214 152
3 152 25 22
3 22 25 129
3 107 41 221
3 221 41 164
3 164 70 221
3 70 99 221
3 20 69 120
3 120 42 20
3 120 69 36
3 20 42 153
3 153 126 29
3 101 69 20
3 36 69 101
3 101 163 36
3 101 234 163
3 62 145 169
3 145 148 169
3 169 38 62
3 148 38 169
3 192 87 243
3 243 148 192
3 97 148 243
3 89 174 81
3 89 41 174
3 222 163 246
3 255 210 107
3 107 221 255
3 65 38 78
3 204 38 65
3 65 108 204
3 122 73 200
3 73 105 200
3 200 164 122
3 200 70 164
3 200 105 70
3 80 98 226
3 226 98 90
3 9 133 226
3 226 133 80
3 178 141 229
3 229 67 178
3 49 127 194
3 49 231 127
3 194 152 49
3 152 214 49
3 49 214 16
3 16 231 49
3 254 77 102
3 102 77 245
3 86 185 199
3 146 90 199
3 199 90 86
3 85 150 134
3 85 86 112
3 134 86 85
3 23 175 61
3 73 23 61
3 61 33 73
3 48 33 61
3 11 50 147
3 147 50 21
3 147 140 11
3 147 21 104
3 104 140 147
3 202 183 207
3 202 50 183
3 202 33 48
3 48 21 202
3 21 50 202
3 207 105 202
3 202 105 33
3 158 133 24
3 158 47 249
3 24 47 158
3 249 94 158
3 26 124 208
3 208 88 26
3 232 186 157
3 9 161 157
3 157 186 9
3 57 157 161
3 233 232 57
3 232 157 57
3 3 31 188
3 188 31 155
3 166 88 40
3 3 203 166
3 215 88 166
3 166 31 3
3 40 31 166
3 166 136 215
3 203 136 166
3 216 136 203
3 216 203 7
3 106 170 63
3 92 170 242
3 180 212 156
3 140 225 156
3 2 110 167
3 2 212 180
3 167 212 2
3 180 240 2
3 2 240 110
3 230 240 171
3 121 240 230
3 93 30 1
3 129 25 72
3 58 82 224
3 114 32 192
3 114 22 32
3 192 16 114
3 16 214 114
3 214 22 114
3 237 206 149
3 123 206 237
3 123 237 19
3 19 18 115
3 95 18 19
3 8 120 36
3 149 206 8
3 8 222 149
3 36 163 8
3 163 222 8
3 42 120 131
3 242 170 247
3 247 42 242
3 247 153 42
3 142 101 20
3 108 101 142
3 20 153 142
3 142 153 29
3 118 108 142
3 142 66 118
3 29 66 142
3 234 101 109
3 109 101 108
3 108 65 109
3 78 234 109
3 109 65 78
3 81 97 190
3 97 243 190
3 190 89 81
3 41 89 190
3 122 41 190
3 190 87 122
3 190 243 87
3 119 222 246
3 210 222 119
3 246 97 119
3 97 210 119
3 149 222 217
3 217 222 210
3 210 255 217
3 217 237 149
3 10 18 95
3 183 18 10
3 60 177 144
3 144 161 60
3 60 90 177
3 60 226 90
3 60 161 9
3 9 226 60
3 189 178 67
3 189 45 194
3 189 67 45
3 194 127 189
3 127 178 189
3 176 84 191
3 176 191 46
3 253 27 176
3 27 84 176
3 46 241 176
3 241 75 176
3 209 139 254
3 209 241 139
3 209 75 241
3 141 14 143
3 143 209 254
3 14 209 143
3 253 176 250
3 250 176 75
3 250 213 253
3 75 209 250
3 250 209 14
3 141 178 52
3 52 14 141
3 52 250 14
3 52 178 127
3 127 213 52
3 213 250 52
3 254 139 55
3 55 77 254
3 139 132 55
3 138 77 55
3 55 132 138
3 146 199 12
3 12 218 146
3 205 218 12
3 193 199 185
3 80 133 172
3 172 17 80
3 133 158 172
3 94 17 172
3 172 158 94
3 197 98 80
3 80 17 197
3 224 150 197
3 197 17 224
3 239 61 175
3 175 58 239
3 239 83 48
3 48 61 239
3 239 94 83
3 125 161 144
3 144 208 125
3 125 57 161
3 125 208 124
3 125 124 233
3 233 57 125
3 252 208 144
3 88 208 252
3 144 177 252
3 177 218 252
3 40 88 252
3 205 40 252
3 252 218 205
3 251 136 162
3 136 216 162
3 106 63 159
3 159 63 91
3 1 196 159
3 196 106 159
3 159 128 1
3 159 91 128
3 170 92 13
3 59 63 13
3 13 63 170
3 13 74 59
3 180 156 103
3 103 240 180
3 171 240 103
3 140 156 39
3 39 156 212
3 11 140 39
3 39 212 11
3 135 113 251
3 121 230 135
3 171 130 35
3 35 230 171
3 35 124 26
3 35 130 124
3 35 135 230
3 26 113 35
3 113 135 35
3 139 241 211
3 211 132 139
3 211 241 46
3 46 79 211
3 211 79 184
3 184 30 96
3 96 211 184
3 132 211 96
3 138 132 96
3 30 93 96
3 96 93 138
3 181 72 25
3 82 72 181
3 100 129 6
3 129 72 6
3 6 175 100
3 53 17 94
3 94 239 53
3 53 239 58
3 224 17 53
3 53 58 224
3 183 44 71
3 71 18 183
3 115 18 71
3 111 115 71
3 71 44 111
3 173 198 123
3 123 19 173
3 173 19 115
3 173 115 220
3 220 198 173
3 242 42 5
3 42 131 5
3 5 92 242
3 123 198 28
3 28 5 131
3 28 198 37
3 37 5 28
3 179 131 120
3 179 28 131
3 179 206 123
3 123 28 179
3 182 170 106
3 182 247 170
3 182 106 196
3 196 126 182
3 126 153 182
3 153 247 182
3 237 217 195
3 95 19 195
3 195 19 237
3 195 217 255
3 195 10 95
3 255 10 195
3 187 255 221
3 187 10 255
3 187 221 99
3 187 99 207
3 207 183 187
3 183 10 187
3 229 141 76
3 141 193 76
3 76 185 229
3 76 193 185
3 4 12 199
3 155 205 4
3 205 12 4
3 150 85 238
3 238 197 150
3 238 85 112
3 112 98 238
3 98 197 238
3 59 74 160
3 7 91 160
3 160 216 7
3 160 162 216
3 160 63 59
3 91 63 160
3 137 5 37
3 92 5 137
3 248 156 225
3 248 103 156
3 248 225 233
3 171 103 248
3 233 130 248
3 248 130 171
3 227 188 245
3 3 188 227
3 1 151 219
3 219 93 1
3 219 236 93
3 82 181 154
3 224 82 154
3 45 150 154
3 154 150 224
3 175 6 165
3 165 6 72
3 165 58 175
3 165 72 82
3 82 58 165
3 120 8 201
3 201 179 120
3 201 8 206
3 206 179 201
3 155 4 116
3 116 188 155
3 116 102 245
3 245 188 116
3 199 193 235
3 235 4 199
3 254 102 235
3 102 116 235
3 235 116 4
3 235 193 141
3 235 143 254
3 141 143 235
3 68 160 74
3 162 160 68
3 251 162 68
3 68 74 121
3 121 135 68
3 68 135 251
3 223 34 121
3 121 74 223
3 223 37 34
3 223 137 37
3 228 227 245
3 236 227 228
3 245 77 228
3 228 77 138
3 138 93 228
3 93 236 228
3 43 227 236
3 236 219 43
3 3 227 43
3 43 219 151
3 43 203 3
3 43 151 7
3 7 203 43
3 45 154 15
3 15 154 181
3 194 45 15
3 15 25 194
3 15 181 25
3 137 223 54
3 54 13 92
3 92 137 54
3 74 13 54
3 54 223 74