ply
format ascii 1.0
comment https://github.com/mikedh/trimesh
element vertex 256
property float x
property float y
property float z
element face 508
property list uchar int vertex_indices
end_header
1.23420155 3.56490612 0.15812829
-1.74125397 1.70627201 -1.73979485
-0.67987031 -3.77438569 -1.12031424
-2.27629685 0.79107279 -0.13844879
-1.84790635 0.97867507 1.86006463
-0.13273712 -0.51335257 -3.30215001
1.46735060 0.09050377 2.57927012
-2.11516929 0.19474848 -1.35820913
1.09521139 0.00284123 -2.93798637
-1.04511166 -2.56357646 2.18023133
1.31251574 -2.78294730 -1.64760458
0.02568841 -4.20999813 -0.20540643
-1.81178439 0.47125420 2.04692554
-1.09820664 -0.85394186 -2.85663843
-0.46073070 3.55236697 1.67135394
0.52149564 1.05792308 3.13742852
1.56669605 2.25689268 1.69073403
0.19227777 -1.81409585 2.99580002
0.74589443 -3.33756971 -1.73276401
0.69987738 -2.72646308 -2.33584929
0.42857227 1.31525517 -3.10553837
0.37116748 -3.89898348 1.15429461
1.51338291 1.53931499 2.21402192
1.76297712 -1.15464675 1.96347070
-0.50813359 -3.11948156 2.12160754
1.10062492 1.30192268 2.74633646
-1.98693812 -2.15910745 -0.20969895
0.91564959 3.70697761 0.89446056
0.30622777 -1.33145297 -3.13162875
-0.06233328 2.51376915 -2.67427182
-0.93489933 2.94116449 -1.97411788
-2.27884436 0.40025803 0.53304362
1.90247548 0.64764261 1.83529115
1.55362821 -2.59742284 1.38129890
-0.82110339 -2.64593506 -2.31170082
-1.82020628 -2.51968002 -0.54815352
1.12914932 0.79298586 -2.84216905
-0.36765051 -2.01390576 -2.87959027
1.79381096 2.38917375 -0.94867212
-0.36410502 -4.16493464 -0.06908958
-2.28724670 -0.24760966 0.51619065
2.26038337 -0.94064242 -0.09176435
0.17024307 0.67679846 -3.27971816
-2.16437912 1.34526122 -0.55023187
0.07258518 -3.88911247 -1.28683078
0.22508135 1.15325487 3.18898940
0.00450612 4.14532423 -0.61411148
-0.09612953 -3.74417186 1.52938318
1.16303897 -2.99280071 1.64935577
1.15767014 2.54971719 2.06769419
0.74861360 -3.98921180 -0.12389909
0.28515238 3.64906955 -1.62156117
-0.20648615 3.39752769 1.95207357
0.61388737 -1.62393057 2.94646811
-0.98520315 -1.36818099 -2.81655359
-1.26124763 3.52263260 0.28365767
1.69068098 2.43478608 1.22654879
-1.42448771 -3.08462644 0.98839724
0.91748786 -0.99785399 2.95814204
-1.46062231 -0.45826823 -2.56202221
-1.38766599 -2.03874016 2.13067746
1.46896708 -1.70562756 2.19899344
1.54794538 3.13749790 -0.11546461
-1.49618518 0.28750592 -2.53561831
1.08749092 3.70133376 -0.33444133
1.35377753 2.82328701 -1.53326881
-0.17827876 3.04164553 -2.29535818
-0.21849757 1.66499722 3.04568028
-1.68372941 -1.41387188 -2.00263000
0.70105541 1.10886788 -3.05291080
1.89783084 -2.41939402 0.13920993
0.37413630 -3.68530416 -1.53153217
1.21155322 0.17239633 2.83787417
1.90374577 -1.48954737 1.49590480
-1.44120216 -1.45352554 -2.34505415
-0.20769782 4.11699629 0.65839726
-0.98692226 1.92368197 2.60416579
-1.55714214 3.03672886 0.59110039
1.54885519 2.37993383 -1.61747837
0.05742985 4.00694466 -1.03713477
-0.82906514 -1.70688307 2.80489635
2.27328038 0.01719608 -0.66199720
0.87415212 -0.45373952 3.06491995
0.95478219 -2.66318321 2.18921399
0.88101286 3.90109897 0.03743915
-0.63045442 -0.00164800 3.20644855
-1.08168089 0.20367940 2.94358253
2.11716795 0.28620094 1.34354639
-2.24992990 -0.92672282 0.34669948
2.29079175 -0.48447439 -0.35265532
-1.33607495 -0.31696591 2.71200013
-1.71635199 0.76059020 -2.15850163
-0.76713717 -0.76902544 -3.08555126
-1.63684368 2.68832350 -1.03181636
0.45304829 -2.59927273 2.54156470
1.11190486 -2.65531588 -2.03805876
-1.04787183 3.36415386 -1.33160722
2.22481084 0.74146515 -0.73690945
-0.83681172 -1.13991845 2.97404599
1.75647831 -2.70388937 -0.42147440
1.79768026 -0.35166982 2.08598518
1.06047797 1.46713984 -2.72742963
-1.77058780 2.09487796 1.37587130
-1.02676630 -3.75240993 -0.37450469
-0.36669195 -3.89524770 1.16448176
1.84245098 -2.32104993 0.85542798
-1.16208076 1.44232047 -2.64905882
2.05520177 -1.19544113 -1.22207880
0.73156458 3.00692916 -2.08751202
1.33892167 2.32756877 -2.00656247
-0.56211698 -3.33418489 -1.87578750
-0.19136971 -3.24119544 -2.11360359
-0.88053280 -0.60158008 3.04659605
-2.05535412 -1.80436134 -0.59623182
1.74364817 1.53003812 1.83555281
0.11967962 -3.12285447 -2.23277807
-1.92245996 1.37584579 1.51515234
-0.61302763 2.99555492 -2.17335486
0.25759709 3.13288379 -2.19971728
1.90390182 0.37135726 -1.88023579
0.70778751 0.41476077 -3.15585136
-1.23047984 -2.50966644 -2.01220369
2.17245436 -1.09228623 0.78815800
0.58556771 -1.52613544 -2.99020767
-1.79252577 -2.62651086 0.41154090
-1.72126937 -2.56996965 0.93111581
-0.39886630 2.43128538 -2.66331005
0.57787323 3.06717968 2.13048863
-1.82669878 1.11942852 -1.85278893
1.52451479 0.66313124 2.45586705
-1.57394791 -3.09804130 -0.05085348
0.18185455 -0.50897425 -3.29695368
-1.22472310 3.48688006 -0.64783233
-0.57377821 -2.68706179 2.43406844
-0.61457211 0.69648737 3.16531515
-1.86625755 -2.20783544 -0.93338060
-2.16559124 -1.26484072 -0.65350211
-0.70043498 -1.29950833 -3.00565219
-1.46325397 3.15094948 -0.69911391
-0.87316179 3.85311079 0.51734960
-0.31872663 -4.11211872 0.58551747
-0.89064598 2.63367653 2.26664877
0.26898089 2.58006263 -2.60733438
-1.03057146 2.95662093 1.85953093
-1.81522155 -1.70243335 1.57909155
1.72862911 2.62369418 0.79943091
-1.61388266 -0.22097558 2.38690710
0.17839187 -4.16352129 0.46632317
2.03730154 2.01438904 -0.08292925
1.37626863 -0.83623183 -2.59935832
-0.28291982 -0.10443275 3.30611157
-2.01239991 1.13353050 -1.39374137
1.15486991 1.92241597 2.45753312
-0.04983132 1.62748885 -3.07278657
0.40867034 0.23435664 3.27443147
-2.16552830 0.49455282 1.12861383
-0.81255627 -3.95020247 -0.07042821
-1.20333004 -3.02782106 1.54703629
-0.21001923 -2.86998796 2.42357612
-1.41076839 1.21107590 -2.46692586
-1.66576636 -0.77802020 -2.23544717
-1.44459379 -2.59465337 1.61125588
-2.03876853 -1.04019558 -1.35962045
1.49610531 0.80126810 -2.46663308
2.09765935 -1.79817379 0.07619787
1.15276802 -0.41514626 2.87268949
-2.30349255 -0.44278452 -0.17924453
-0.27823558 -3.92137909 -1.15964580
2.05412173 -0.64375788 1.46105456
1.86416912 2.46760321 -0.36321175
-0.70097297 0.28947610 -3.16876411
-1.39723051 -3.33386874 -0.36681274
-0.00090387 -2.43585086 2.72022128
0.36625963 -2.43597174 -2.66828752
2.15725827 -0.71609330 -1.08596110
1.30042183 -1.24519336 2.57750034
0.12025641 4.12122250 0.68914914
-1.76421869 -1.30914044 1.90035558
-0.19889821 2.50989509 2.66425848
0.54893696 -0.70903105 -3.18910646
-0.79962569 -3.87202668 -0.65208393
0.90859145 0.78245825 3.00272870
-0.79123431 1.75383925 -2.80946088
0.78675950 -3.88752222 -0.62632030
-0.41099539 3.63959336 -1.57780051
-0.87895072 1.03331411 2.97340012
-0.80734295 -2.91953969 2.10661173
1.58854175 -2.75455570 -1.07752407
-2.19853234 1.16699362 0.52659249
0.09675542 2.31652045 2.78113008
2.31188679 0.18917389 -0.21982653
0.49527109 4.08282900 -0.44141483
1.96207595 1.45678735 1.35384011
-1.25876856 1.65489399 2.47482395
0.62462854 2.18253827 2.70675850
1.18243420 -2.11665106 -2.32896805
-1.02881873 2.37932229 -2.32163095
-0.25704631 -0.76322943 3.25592470
0.24571961 -1.94512630 -2.93574905
-1.53427303 0.57179862 2.45797944
1.98651111 -2.07040095 0.53483033
0.84483486 -0.55308449 -3.07198095
1.23891079 -3.56441092 0.11044482
-2.25950742 -0.04970009 -0.75036281
1.16990423 3.43537235 -0.95438874
-1.98161983 0.13873166 1.72798014
0.99712777 -0.99069905 -2.90492296
1.60248423 -3.04396486 -0.14234173
-1.90673304 -2.04907656 0.98921144
-0.67683482 3.82265139 1.01726127
1.97563922 -0.28825134 -1.73138130
-0.47168759 3.97236848 -0.89226747
-0.47690040 -4.05544329 -0.61204857
0.57330757 3.43471527 1.74951386
1.40147650 2.09222317 2.07798409
-2.20113516 -1.30544019 -0.19441490
-2.14542246 -0.42882317 -1.21924126
1.60897613 -1.01927459 -2.26069355
-1.86270440 -0.57922709 1.93288422
-1.94752622 1.76428437 -1.15564835
-0.27223676 -2.50934052 -2.64998364
1.96148992 -2.15476131 -0.51889586
1.69187176 0.23570454 -2.27165055
-1.01050293 -1.90552378 -2.59539294
0.36235106 -0.88451248 3.21651292
-0.91833216 -3.78592849 0.64417565
-1.14046633 -1.99214792 2.43784285
-2.11493897 1.73019373 -0.04527012
-1.85085118 2.46474051 -0.48831561
-0.71145660 1.85312307 2.81380343
-1.64639819 -2.73311186 -0.91863704
1.01905930 2.98742652 1.84104919
-1.09352279 -3.41531515 1.16434431
-1.47003341 -3.22077441 0.41184783
1.48514378 1.78207326 -2.13792229
-1.49089658 1.69233954 2.17449737
-1.93819368 2.09488988 -0.78332931
1.09495020 -1.56776690 -2.66388988
-0.53920811 -0.52168840 3.21497440
1.17186165 -2.01678014 2.39424086
-1.14232075 -3.32177281 -1.23380041
-0.39583570 4.14138603 0.27142984
-0.33472350 0.08627862 -3.29639983
2.27571821 0.81447244 -0.00125988
-0.49938810 -2.89441323 -2.31461620
-1.92476273 2.23278975 0.58775997
1.87635934 0.93799227 -1.81327772
-0.41770032 1.01415718 -3.17757487
-1.17752075 -3.63206887 0.08645922
0.32013819 -3.28952622 2.03411269
-0.00490535 3.78374004 1.47348344
-2.00315809 -1.55449915 -1.14482665
-2.03833532 -1.34155715 1.18565655
0.39509895 3.87251687 1.19247091
-1.28857625 2.87688160 1.58445096
1.87846649 -1.39767897 -1.61252987
3 249 48 83
3 64 0 62
3 220 34 37
3 64 62 204
3 204 191 64
3 51 191 204
3 213 27 253
3 21 48 249
3 104 24 232
3 40 205 155
3 7 151 128
3 128 151 1
3 115 111 220
3 220 111 244
3 244 34 220
3 113 26 215
3 117 184 66
3 66 51 118
3 184 51 66
3 117 196 30
3 30 184 117
3 30 196 1
3 64 191 84
3 84 0 64
3 84 27 0
3 46 191 79
3 79 191 51
3 79 51 184
3 168 87 100
3 100 23 168
3 168 23 73
3 168 73 122
3 122 87 168
3 25 152 194
3 32 87 192
3 100 87 32
3 32 129 100
3 145 62 0
3 0 27 145
3 220 37 198
3 99 70 207
3 78 246 234
3 246 163 234
3 118 51 108
3 51 204 108
3 126 196 117
3 117 66 126
3 126 66 29
3 148 145 192
3 107 174 41
3 122 164 41
3 81 174 210
3 210 174 107
3 210 97 81
3 38 204 62
3 38 148 97
3 38 246 78
3 38 97 246
3 73 33 105
3 207 70 105
3 112 86 90
3 146 177 90
3 231 213 127
3 27 213 231
3 134 45 67
3 67 229 134
3 185 86 134
3 134 229 185
3 249 83 94
3 112 90 98
3 150 45 134
3 175 23 100
3 11 183 50
3 47 24 104
3 47 21 249
3 104 21 47
3 186 232 24
3 186 133 9
3 24 133 186
3 31 40 155
3 215 26 88
3 136 113 215
3 251 113 136
3 7 128 91
3 212 167 11
3 225 232 233
3 104 232 225
3 225 140 104
3 44 183 11
3 11 167 44
3 44 167 111
3 121 34 110
3 34 244 110
3 111 167 110
3 110 244 111
3 218 177 146
3 121 110 240
3 233 124 130
3 56 16 192
3 192 145 56
3 56 231 16
3 56 145 27
3 27 231 56
3 129 32 22
3 22 214 152
3 152 25 22
3 22 25 129
3 107 41 221
3 221 41 164
3 164 70 221
3 70 99 221
3 20 69 120
3 120 42 20
3 120 69 36
3 20 42 153
3 153 126 29
3 101 69 20
3 36 69 101
3 101 163 36
3 101 234 163
3 62 145 169
3 145 148 169
3 169 38 62
3 148 38 169
3 192 87 243
3 243 148 192
3 97 148 243
3 89 174 81
3 89 41 174
3 222 163 246
3 255 210 107
3 107 221 255
3 65 38 78
3 204 38 65
3 65 108 204
3 122 73 200
3 73 105 200
3 200 164 122
3 200 70 164
3 200 105 70
3 80 98 226
3 226 98 90
3 9 133 226
3 226 133 80
3 178 141 229
3 229 67 178
3 49 127 194
3 49 231 127
3 194 152 49
3 152 214 49
3 49 214 16
3 16 231 49
3 254 77 102
3 102 77 245
3 86 185 199
3 146 90 199
3 199 90 86
3 85 150 134
3 85 86 112
3 134 86 85
3 23 175 61
3 73 23 61
3 61 33 73
3 48 33 61
3 11 50 147
3 147 50 21
3 147 140 11
3 147 21 104
3 104 140 147
3 202 183 207
3 202 50 183
3 202 33 48
3 48 21 202
3 21 50 202
3 207 105 202
3 202 105 33
3 158 133 24
3 158 47 249
3 24 47 158
3 249 94 158
3 26 124 208
3 208 88 26
3 232 186 157
3 9 161 157
3 157 186 9
3 57 157 161
3 233 232 57
3 232 157 57
3 3 31 188
3 188 31 155
3 166 88 40
3 3 203 166
3 215 88 166
3 166 31 3
3 40 31 166
3 166 136 215
3 203 136 166
3 216 136 203
3 216 203 7
3 106 170 63
3 92 170 242
3 180 212 156
3 140 225 156
3 2 110 167
3 2 212 180
3 167 212 2
3 180 240 2
3 2 240 110
3 230 240 171
3 121 240 230
3 93 30 1
3 129 25 72
3 58 82 224
3 114 32 192
3 114 22 32
3 192 16 114
3 16 214 114
3 214 22 114
3 237 206 149
3 123 206 237
3 123 237 19
3 19 18 115
3 95 18 19
3 8 120 36
3 149 206 8
3 8 222 149
3 36 163 8
3 163 222 8
3 42 120 131
3 242 170 247
3 247 42 242
3 247 153 42
3 142 101 20
3 108 101 142
3 20 153 142
3 142 153 29
3 118 108 142
3 142 66 118
3 29 66 142
3 234 101 109
3 109 101 108
3 108 65 109
3 78 234 109
3 109 65 78
3 81 97 190
3 97 243 190
3 190 89 81
3 41 89 190
3 122 41 190
3 190 87 122
3 190 243 87
3 119 222 246
3 210 222 119
3 246 97 119
3 97 210 119
3 149 222 217
3 217 222 210
3 210 255 217
3 217 237 149
3 10 18 95
3 183 18 10
3 60 177 144
3 144 161 60
3 60 90 177
3 60 226 90
3 60 161 9
3 9 226 60
3 189 178 67
3 189 45 194
3 189 67 45
3 194 127 189
3 127 178 189
3 176 84 191
3 176 191 46
3 253 27 176
3 27 84 176
3 46 241 176
3 241 75 176
3 209 139 254
3 209 241 139
3 209 75 241
3 141 14 143
3 143 209 254
3 14 209 143
3 253 176 250
3 250 176 75
3 250 213 253
3 75 209 250
3 250 209 14
3 141 178 52
3 52 14 141
3 52 250 14
3 52 178 127
3 127 213 52
3 213 250 52
3 254 139 55
3 55 77 254
3 139 132 55
3 138 77 55
3 55 132 138
3 146 199 12
3 12 218 146
3 205 218 12
3 193 199 185
3 80 133 172
3 172 17 80
3 133 158 172
3 94 17 172
3 172 158 94
3 197 98 80
3 80 17 197
3 224 150 197
3 197 17 224
3 239 61 175
3 175 58 239
3 239 83 48
3 48 61 239
3 239 94 83
3 125 161 144
3 144 208 125
3 125 57 161
3 125 208 124
3 125 124 233
3 233 57 125
3 252 208 144
3 88 208 252
3 144 177 252
3 177 218 252
3 40 88 252
3 205 40 252
3 252 218 205
3 251 136 162
3 136 216 162
3 106 63 159
3 159 63 91
3 1 196 159
3 196 106 159
3 159 128 1
3 159 91 128
3 170 92 13
3 59 63 13
3 13 63 170
3 13 74 59
3 180 156 103
3 103 240 180
3 171 240 103
3 140 156 39
3 39 156 212
3 11 140 39
3 39 212 11
3 135 113 251
3 121 230 135
3 171 130 35
3 35 230 171
3 35 124 26
3 35 130 124
3 35 135 230
3 26 113 35
3 113 135 35
3 139 241 211
3 211 132 139
3 211 241 46
3 46 79 211
3 211 79 184
3 184 30 96
3 96 211 184
3 132 211 96
3 138 132 96
3 30 93 96
3 96 93 138
3 181 72 25
3 82 72 181
3 100 129 6
3 129 72 6
3 6 175 100
3 53 17 94
3 94 239 53
3 53 239 58
3 224 17 53
3 53 58 224
3 183 44 71
3 71 18 183
3 115 18 71
3 111 115 71
3 71 44 111
3 173 198 123
3 123 19 173
3 173 19 115
3 173 115 220
3 220 198 173
3 242 42 5
3 42 131 5
3 5 92 242
3 123 198 28
3 28 5 131
3 28 198 37
3 37 5 28
3 179 131 120
3 179 28 131
3 179 206 123
3 123 28 179
3 182 170 106
3 182 247 170
3 182 106 196
3 196 126 182
3 126 153 182
3 153 247 182
3 237 217 195
3 95 19 195
3 195 19 237
3 195 217 255
3 195 10 95
3 255 10 195
3 187 255 221
3 187 10 255
3 187 221 99
3 187 99 207
3 207 183 187
3 183 10 187
3 229 141 76
3 141 193 76
3 76 185 229
3 76 193 185
3 4 12 199
3 155 205 4
3 205 12 4
3 150 85 238
3 238 197 150
3 238 85 112
3 112 98 238
3 98 197 238
3 59 74 160
3 7 91 160
3 160 216 7
3 160 162 216
3 160 63 59
3 91 63 160
3 137 5 37
3 92 5 137
3 248 156 225
3 248 103 156
3 248 225 233
3 171 103 248
3 233 130 248
3 248 130 171
3 227 188 245
3 3 188 227
3 1 151 219
3 219 93 1
3 219 236 93
3 82 181 154
3 224 82 154
3 45 150 154
3 154 150 224
3 175 6 165
3 165 6 72
3 165 58 175
3 165 72 82
3 82 58 165
3 120 8 201
3 201 179 120
3 201 8 206
3 206 179 201
3 155 4 116
3 116 188 155
3 116 102 245
3 245 188 116
3 199 193 235
3 235 4 199
3 254 102 235
3 102 116 235
3 235 116 4
3 235 193 141
3 235 143 254
3 141 143 235
3 68 160 74
3 162 160 68
3 251 162 68
3 68 74 121
3 121 135 68
3 68 135 251
3 223 34 121
3 121 74 223
3 223 37 34
3 223 137 37
3 228 227 245
3 236 227 228
3 245 77 228
3 228 77 138
3 138 93 228
3 93 236 228
3 43 227 236
3 236 219 43
3 3 227 43
3 43 219 151
3 43 203 3
3 43 151 7
3 7 203 43
3 45 154 15
3 15 154 181
3 194 45 15
3 15 25 194
3 15 181 25
3 137 223 54
3 54 13 92
3 92 137 54
3 74 13 54
3 54 223 74