ply
format ascii 1.0
comment https://github.com/mikedh/trimesh
element vertex 256
property float x
property float y
property float z
element face 508
property list uchar int vertex_indices
end_header
2.38242841 1.84975874 0.16950165
-3.36121178 0.88535058 -1.86492932
-1.31238067 -1.95845366 -1.20089269
-4.39402628 0.41047192 -0.14840670
-3.56708717 0.50781500 1.99384952
-0.25622773 -0.26636845 -3.53965640
2.83248520 0.04696060 2.76478362
-4.08299541 0.10105111 -1.45589817
2.11413002 0.00147426 -3.14930058
-2.01742053 -1.33018875 2.33704424
2.53360128 -1.44401598 -1.76610827
0.04958735 -2.18448424 -0.22018026
-3.49735928 0.24452442 2.19415021
-2.11991191 -0.44309345 -3.06210160
-0.88936675 1.84325254 1.79156578
1.00666368 0.54893523 3.36308765
3.02425551 1.17105675 1.81233978
0.37116143 -0.94129825 3.21127248
1.43982971 -1.73179853 -1.85739279
1.35100114 -1.41470742 -2.50385475
0.82729012 0.68245971 -3.32890391
0.71647930 -2.02310491 1.23731709
2.92134309 0.79871994 2.37326527
3.40314484 -0.59912318 2.10469294
-0.98087049 -1.61863685 2.27420378
2.12458014 0.67554176 2.94386625
-3.83546543 -1.12031794 -0.22478151
1.76751471 1.92347693 0.95879453
0.59112364 -0.69086438 -3.35687065
-0.12032441 1.30434477 -2.86661839
-1.80467331 1.52611172 -2.11610603
-4.39894390 0.20768592 0.57138270
3.67242408 0.33604887 1.96729422
2.99903035 -1.34775102 1.48064864
-1.58500850 -1.37292302 -2.47796941
-3.51361656 -1.30741179 -0.58757937
2.17964172 0.41146460 -3.04659152
-0.70969039 -1.04497564 -3.08670449
3.46266460 1.23969471 -1.01690519
-0.70284635 -2.16110158 -0.07405885
-4.41516304 -0.12847972 0.55331755
4.36330748 -0.48808062 -0.09836449
0.32862696 0.35117725 -3.51561141
-4.17798710 0.69802928 -0.58980721
0.14011405 -2.01798296 -1.37938583
0.43448350 0.59840095 3.41835690
0.00869835 2.15092635 -0.65828139
-0.18556264 -1.94277620 1.63938379
2.24506021 -1.55290473 1.76798546
2.23469663 1.32299757 2.21641254
1.44507861 -2.06992269 -0.13281052
0.55044097 1.89342952 -1.73819172
-0.39858842 1.76290953 2.09247613
1.18501115 -0.84262526 3.15839243
-1.90177679 -0.70992190 -3.01913381
-2.43463635 1.82782388 0.30405971
3.26358867 1.26336205 1.31476808
-2.74974513 -1.60055125 1.05948758
1.77106321 -0.51776659 3.17090583
-2.81949735 -0.23778625 -2.74629545
-2.67866683 -1.05786169 2.28392601
2.83560562 -0.88501620 2.35715580
2.98806047 1.62798524 -0.12376939
-2.88814569 0.14918110 -2.71799231
2.09922695 1.92054844 -0.35849598
2.61325049 1.46494734 -1.64354885
-0.34413856 1.57824934 -2.46045160
-0.42177454 0.86393392 3.26474047
-3.25016975 -0.73362994 -2.14666891
1.35327518 0.57536948 -3.27249074
3.66345835 -1.25537539 0.14922257
0.72221017 -1.91223097 -1.64168739
2.33870912 0.08945302 3.04198766
3.67487621 -0.77289647 1.60349751
-2.78200984 -0.75420547 -2.51372194
-0.40092736 2.13622737 0.70575237
-1.90509522 0.99816030 2.79147005
-3.00581336 1.57569826 0.63361520
2.98981667 1.23490036 -1.73381531
0.11085911 2.07912397 -1.11173058
-1.60037732 -0.88566762 3.00663805
4.38820362 0.00892270 -0.70961124
1.68741059 -0.23543641 3.28536391
1.84305406 -1.38187277 2.34667301
1.70065415 2.02420259 0.04013195
-1.21699131 -0.00085511 3.43707180
-2.08801150 0.10568518 3.15529943
4.08685350 0.14850397 1.44018066
-4.34312916 -0.48085803 0.37163579
4.42200613 -0.25138411 -0.37801999
-2.57907844 -0.16446730 2.90706038
-3.31314254 0.39465511 -2.31375146
-1.48083532 -0.39903200 -3.30747914
-3.15966439 1.39491761 -1.10602963
0.87453711 -1.34871089 2.72436619
2.14635396 -1.37779057 -2.18464589
-2.02274871 1.74559247 -1.42738283
4.29464054 0.38473150 -0.78991151
-1.61533082 -0.59148097 3.18795371
3.39059973 -1.40299428 -0.45178887
3.47013354 -0.18247446 2.23601937
2.04708266 0.76126963 -2.92359948
-3.41783595 1.08699048 1.47483063
-1.98200786 -1.94705081 -0.40144086
-0.70784003 -2.02116656 1.24823689
3.55655646 -1.20434666 0.91695452
-2.24321079 0.74839139 -2.83959198
3.96723747 -0.62029064 -1.30997658
1.41216826 1.56023562 -2.23765588
2.58457351 1.20772910 -2.15088415
-1.08507669 -1.73004210 -2.01070333
-0.36940858 -1.68179178 -2.26562405
-1.69972742 -0.31214792 3.26572180
-3.96753144 -0.93624717 -0.63911569
3.36583328 0.79390633 1.96757472
0.23102233 -1.62038708 -2.39337015
-3.71100068 0.71389896 1.62412941
-1.18335164 1.55433381 -2.32967305
0.49724987 1.62559104 -2.35793161
3.67517734 0.19268988 -2.01547146
1.36627030 0.21521111 -3.38283539
-2.37524414 -1.30221593 -2.15693116
4.19357491 -0.56676561 0.84484613
1.13034463 -0.79188126 -3.20527792
-3.46018386 -1.36284411 0.44114089
-3.32263470 -1.33350599 0.99808615
-0.76994741 1.26154554 -2.85486817
1.11549163 1.59149849 2.28372383
-3.52614927 0.58084917 -1.98605049
2.94283152 0.34408557 2.63250494
-3.03825426 -1.60751188 -0.05451110
0.35104105 -0.26409662 -3.53408647
-2.36413145 1.80927265 -0.69442761
-1.10758686 -1.39426291 2.60913849
-1.18633294 0.36139342 3.39298010
-3.60251117 -1.14560187 -1.00051391
-4.18032694 -0.65630066 -0.70050514
-1.35207748 -0.67428899 -3.22183323
-2.82457709 1.63496494 -0.74939752
-1.68549883 1.99930251 0.55455989
-0.61525065 -2.13369656 0.62763071
-1.71924937 1.36656237 2.42967701
0.51922446 1.33874321 -2.79486656
-1.98935306 1.53413177 1.99327743
-3.50399423 -0.88335878 1.69266748
3.33684134 1.36138260 0.85692984
-3.11534166 -0.11465983 2.55858493
0.34435692 -2.16036820 0.49986339
3.93268442 1.04522634 -0.08889393
2.65666580 -0.43390405 -2.78631663
-0.54613137 -0.05418808 3.54390311
-3.88461542 0.58816642 -1.49398601
2.22929144 0.99750340 2.63429093
-0.09619137 0.84447157 -3.29379606
0.78887260 0.12160300 3.50994444
-4.18020535 0.25661361 1.20978916
-1.56850958 -2.04968143 -0.07549375
-2.32283568 -1.57107615 1.65830660
-0.40540847 -1.48917961 2.59789133
-2.72326231 0.62840319 -2.64435911
-3.21549511 -0.40369919 -2.39623141
-2.78855681 -1.34631407 1.72714520
-3.93551588 -0.53973681 -1.45741093
2.88799143 0.41576207 -2.64404535
4.04919529 -0.93303657 0.08167838
2.22523403 -0.21541113 3.07930732
-4.44652319 -0.22975208 -0.19213666
-0.53708923 -2.03472567 -1.24305320
3.96515274 -0.33403313 1.56614065
3.59847975 1.28039014 -0.38933569
-1.35311604 0.15020339 -3.39667702
-2.69712949 -1.72987819 -0.39319569
-0.00174478 -1.26391459 2.91587281
0.70700550 -1.26397729 -2.86020374
4.16424131 -0.37156656 -1.16406858
2.51025581 -0.64610606 2.76288652
0.23213573 2.13842034 0.73871607
-3.40554142 -0.67928690 2.03703833
-0.38394111 1.30233467 2.85588479
1.05963492 -0.36790210 -3.41848254
-1.54354918 -2.00911760 -0.69898498
1.75389028 0.40600199 3.21869946
-1.52735102 0.91003227 -3.01153088
1.51871312 -2.01715779 -0.67136824
-0.79336077 1.88851249 -1.69128358
-1.69667351 0.53616613 3.18726134
-1.55844617 -1.51489103 2.25812936
3.06642532 -1.42928410 -1.15502489
-4.24391413 0.60552979 0.56446761
0.18677083 1.20199645 2.98116231
4.46272659 0.09815857 -0.23563752
0.95604146 2.11849880 -0.47316352
3.78747296 0.75589794 1.45121479
-2.42985106 0.85869151 2.65282512
1.20574534 1.13247561 2.90144181
2.28249979 -1.09828806 -2.49647880
-1.98596954 1.23458302 -2.48861408
-0.49618673 -0.39602455 3.49010658
0.47432235 -1.00928736 -3.14690232
-2.96166801 0.29669493 2.63476920
3.83464146 -1.07428980 0.57329792
1.63081825 -0.28698453 -3.29293275
2.39151859 -1.84950185 0.11838855
-4.36161661 -0.02578839 -0.80433255
2.25831270 1.78254628 -1.02303302
-3.82519937 0.07198510 1.85226488
1.92479527 -0.51405400 -3.11385918
3.09333897 -1.57945275 -0.15257964
-3.68064237 -1.06322503 1.06036031
-1.30652106 1.98349774 1.09042764
3.81365490 -0.14956787 -1.85591066
-0.91051733 2.06118298 -0.95644361
-0.92057979 -2.10428858 -0.65607005
1.10667849 1.78220534 1.87534738
2.70532584 1.08561301 2.22744274
-4.24893856 -0.67736691 -0.20839816
-4.14139414 -0.22250782 -1.30693495
3.10587049 -0.52888131 -2.42329359
-3.59565210 -0.30054942 2.07190657
-3.75938725 0.91545200 -1.23876810
-0.52550942 -1.30204690 -2.84058332
3.78634191 -1.11806273 -0.55621731
3.26588726 0.12230240 -2.43503857
-1.95061386 -0.98873836 -2.78206611
0.69946063 -0.45895591 3.44786000
-1.77269316 -1.96444297 0.69050789
-2.20148754 -1.03368592 2.61318421
-4.08255053 0.89776307 -0.04852616
-3.57277155 1.27890480 -0.52343762
-1.37335300 0.96154869 3.01618576
-3.17810774 -1.41815734 -0.98470986
1.96713078 1.55011618 1.97346640
-2.11087060 -1.77213895 1.24808955
-2.83766389 -1.67119575 0.44146994
2.86683202 0.92468232 -2.29169202
-2.87793684 0.87812132 2.33089781
-3.74137211 1.08699667 -0.83967018
2.11362600 -0.81348300 -2.85548973
-1.04085481 -0.27069372 3.44621086
2.26209116 -1.04646707 2.56644607
-2.20506716 -1.72360182 -1.32254136
-0.76409739 2.14888287 0.29095238
-0.64613008 0.04476826 -3.53349280
4.39290953 0.42261353 -0.00135050
-0.96398866 -1.50185335 -2.48109460
-3.71544600 1.15855014 0.63003457
3.62201118 0.48670551 -1.94369733
-0.80630350 0.52622598 -3.40612149
-2.27301502 -1.88460815 0.09267779
0.61797547 -1.70686972 2.18041587
-0.00946899 1.96330738 1.57946348
-3.86677599 -0.80659866 -1.22716820
-3.93467951 -0.69610727 1.27093458
0.76267523 2.00937200 1.27823925
-2.48738980 1.49275661 1.69841242
3.62607861 -0.72522777 -1.72851086
3 249 48 83
3 64 0 62
3 220 34 37
3 64 62 204
3 204 191 64
3 51 191 204
3 213 27 253
3 21 48 249
3 104 24 232
3 40 205 155
3 7 151 128
3 128 151 1
3 115 111 220
3 220 111 244
3 244 34 220
3 113 26 215
3 117 184 66
3 66 51 118
3 184 51 66
3 117 196 30
3 30 184 117
3 30 196 1
3 64 191 84
3 84 0 64
3 84 27 0
3 46 191 79
3 79 191 51
3 79 51 184
3 168 87 100
3 100 23 168
3 168 23 73
3 168 73 122
3 122 87 168
3 25 152 194
3 32 87 192
3 100 87 32
3 32 129 100
3 145 62 0
3 0 27 145
3 220 37 198
3 99 70 207
3 78 246 234
3 246 163 234
3 118 51 108
3 51 204 108
3 126 196 117
3 117 66 126
3 126 66 29
3 148 145 192
3 107 174 41
3 122 164 41
3 81 174 210
3 210 174 107
3 210 97 81
3 38 204 62
3 38 148 97
3 38 246 78
3 38 97 246
3 73 33 105
3 207 70 105
3 112 86 90
3 146 177 90
3 231 213 127
3 27 213 231
3 134 45 67
3 67 229 134
3 185 86 134
3 134 229 185
3 249 83 94
3 112 90 98
3 150 45 134
3 175 23 100
3 11 183 50
3 47 24 104
3 47 21 249
3 104 21 47
3 186 232 24
3 186 133 9
3 24 133 186
3 31 40 155
3 215 26 88
3 136 113 215
3 251 113 136
3 7 128 91
3 212 167 11
3 225 232 233
3 104 232 225
3 225 140 104
3 44 183 11
3 11 167 44
3 44 167 111
3 121 34 110
3 34 244 110
3 111 167 110
3 110 244 111
3 218 177 146
3 121 110 240
3 233 124 130
3 56 16 192
3 192 145 56
3 56 231 16
3 56 145 27
3 27 231 56
3 129 32 22
3 22 214 152
3 152 25 22
3 22 25 129
3 107 41 221
3 221 41 164
3 164 70 221
3 70 99 221
3 20 69 120
3 120 42 20
3 120 69 36
3 20 42 153
3 153 126 29
3 101 69 20
3 36 69 101
3 101 163 36
3 101 234 163
3 62 145 169
3 145 148 169
3 169 38 62
3 148 38 169
3 192 87 243
3 243 148 192
3 97 148 243
3 89 174 81
3 89 41 174
3 222 163 246
3 255 210 107
3 107 221 255
3 65 38 78
3 204 38 65
3 65 108 204
3 122 73 200
3 73 105 200
3 200 164 122
3 200 70 164
3 200 105 70
3 80 98 226
3 226 98 90
3 9 133 226
3 226 133 80
3 178 141 229
3 229 67 178
3 49 127 194
3 49 231 127
3 194 152 49
3 152 214 49
3 49 214 16
3 16 231 49
3 254 77 102
3 102 77 245
3 86 185 199
3 146 90 199
3 199 90 86
3 85 150 134
3 85 86 112
3 134 86 85
3 23 175 61
3 73 23 61
3 61 33 73
3 48 33 61
3 11 50 147
3 147 50 21
3 147 140 11
3 147 21 104
3 104 140 147
3 202 183 207
3 202 50 183
3 202 33 48
3 48 21 202
3 21 50 202
3 207 105 202
3 202 105 33
3 158 133 24
3 158 47 249
3 24 47 158
3 249 94 158
3 26 124 208
3 208 88 26
3 232 186 157
3 9 161 157
3 157 186 9
3 57 157 161
3 233 232 57
3 232 157 57
3 3 31 188
3 188 31 155
3 166 88 40
3 3 203 166
3 215 88 166
3 166 31 3
3 40 31 166
3 166 136 215
3 203 136 166
3 216 136 203
3 216 203 7
3 106 170 63
3 92 170 242
3 180 212 156
3 140 225 156
3 2 110 167
3 2 212 180
3 167 212 2
3 180 240 2
3 2 240 110
3 230 240 171
3 121 240 230
3 93 30 1
3 129 25 72
3 58 82 224
3 114 32 192
3 114 22 32
3 192 16 114
3 16 214 114
3 214 22 114
3 237 206 149
3 123 206 237
3 123 237 19
3 19 18 115
3 95 18 19
3 8 120 36
3 149 206 8
3 8 222 149
3 36 163 8
3 163 222 8
3 42 120 131
3 242 170 247
3 247 42 242
3 247 153 42
3 142 101 20
3 108 101 142
3 20 153 142
3 142 153 29
3 118 108 142
3 142 66 118
3 29 66 142
3 234 101 109
3 109 101 108
3 108 65 109
3 78 234 109
3 109 65 78
3 81 97 190
3 97 243 190
3 190 89 81
3 41 89 190
3 122 41 190
3 190 87 122
3 190 243 87
3 119 222 246
3 210 222 119
3 246 97 119
3 97 210 119
3 149 222 217
3 217 222 210
3 210 255 217
3 217 237 149
3 10 18 95
3 183 18 10
3 60 177 144
3 144 161 60
3 60 90 177
3 60 226 90
3 60 161 9
3 9 226 60
3 189 178 67
3 189 45 194
3 189 67 45
3 194 127 189
3 127 178 189
3 176 84 191
3 176 191 46
3 253 27 176
3 27 84 176
3 46 241 176
3 241 75 176
3 209 139 254
3 209 241 139
3 209 75 241
3 141 14 143
3 143 209 254
3 14 209 143
3 253 176 250
3 250 176 75
3 250 213 253
3 75 209 250
3 250 209 14
3 141 178 52
3 52 14 141
3 52 250 14
3 52 178 127
3 127 213 52
3 213 250 52
3 254 139 55
3 55 77 254
3 139 132 55
3 138 77 55
3 55 132 138
3 146 199 12
3 12 218 146
3 205 218 12
3 193 199 185
3 80 133 172
3 172 17 80
3 133 158 172
3 94 17 172
3 172 158 94
3 197 98 80
3 80 17 197
3 224 150 197
3 197 17 224
3 239 61 175
3 175 58 239
3 239 83 48
3 48 61 239
3 239 94 83
3 125 161 144
3 144 208 125
3 125 57 161
3 125 208 124
3 125 124 233
3 233 57 125
3 252 208 144
3 88 208 252
3 144 177 252
3 177 218 252
3 40 88 252
3 205 40 252
3 252 218 205
3 251 136 162
3 136 216 162
3 106 63 159
3 159 63 91
3 1 196 159
3 196 106 159
3 159 128 1
3 159 91 128
3 170 92 13
3 59 63 13
3 13 63 170
3 13 74 59
3 180 156 103
3 103 240 180
3 171 240 103
3 140 156 39
3 39 156 212
3 11 140 39
3 39 212 11
3 135 113 251
3 121 230 135
3 171 130 35
3 35 230 171
3 35 124 26
3 35 130 124
3 35 135 230
3 26 113 35
3 113 135 35
3 139 241 211
3 211 132 139
3 211 241 46
3 46 79 211
3 211 79 184
3 184 30 96
3 96 211 184
3 132 211 96
3 138 132 96
3 30 93 96
3 96 93 138
3 181 72 25
3 82 72 181
3 100 129 6
3 129 72 6
3 6 175 100
3 53 17 94
3 94 239 53
3 53 239 58
3 224 17 53
3 53 58 224
3 183 44 71
3 71 18 183
3 115 18 71
3 111 115 71
3 71 44 111
3 173 198 123
3 123 19 173
3 173 19 115
3 173 115 220
3 220 198 173
3 242 42 5
3 42 131 5
3 5 92 242
3 123 198 28
3 28 5 131
3 28 198 37
3 37 5 28
3 179 131 120
3 179 28 131
3 179 206 123
3 123 28 179
3 182 170 106
3 182 247 170
3 182 106 196
3 196 126 182
3 126 153 182
3 153 247 182
3 237 217 195
3 95 19 195
3 195 19 237
3 195 217 255
3 195 10 95
3 255 10 195
3 187 255 221
3 187 10 255
3 187 221 99
3 187 99 207
3 207 183 187
3 183 10 187
3 229 141 76
3 141 193 76
3 76 185 229
3 76 193 185
3 4 12 199
3 155 205 4
3 205 12 4
3 150 85 238
3 238 197 150
3 238 85 112
3 112 98 238
3 98 197 238
3 59 74 160
3 7 91 160
3 160 216 7
3 160 162 216
3 160 63 59
3 91 63 160
3 137 5 37
3 92 5 137
3 248 156 225
3 248 103 156
3 248 225 233
3 171 103 248
3 233 130 248
3 248 130 171
3 227 188 245
3 3 188 227
3 1 151 219
3 219 93 1
3 219 236 93
3 82 181 154
3 224 82 154
3 45 150 154
3 154 150 224
3 175 6 165
3 165 6 72
3 165 58 175
3 165 72 82
3 82 58 165
3 120 8 201
3 201 179 120
3 201 8 206
3 206 179 201
3 155 4 116
3 116 188 155
3 116 102 245
3 245 188 116
3 199 193 235
3 235 4 199
3 254 102 235
3 102 116 235
3 235 116 4
3 235 193 141
3 235 143 254
3 141 143 235
3 68 160 74
3 162 160 68
3 251 162 68
3 68 74 121
3 121 135 68
3 68 135 251
3 223 34 121
3 121 74 223
3 223 37 34
3 223 137 37
3 228 227 245
3 236 227 228
3 245 77 228
3 228 77 138
3 138 93 228
3 93 236 228
3 43 227 236
3 236 219 43
3 3 227 43
3 43 219 151
3 43 203 3
3 43 151 7
3 7 203 43
3 45 154 15
3 15 154 181
3 194 45 15
3 15 25 194
3 15 181 25
3 137 223 54
3 54 13 92
3 92 137 54
3 74 13 54
3 54 223 74