ply
format ascii 1.0
comment https://github.com/mikedh/trimesh
element vertex 256
property float x
property float y
property float z
element face 508
property list uchar int vertex_indices
end_header
2.30955839 2.67184401 0.21223353
-3.25840425 1.27882552 -2.33508372
-1.27223957 -2.82884598 -1.50364137
-4.25962877 0.59289730 -0.18582048
-3.45798278 0.73350239 2.49650502
-0.24839063 -0.38475013 -4.43201447
2.74584937 0.06783123 3.46179390
-3.95811129 0.14596108 -1.82293451
2.04946637 0.00212946 -3.94324851
-1.95571494 -1.92136240 2.92622018
2.45610738 -2.08577776 -2.21134949
0.04807065 -3.15533113 -0.27568838
-3.39038754 0.35319799 2.74730206
-2.05507135 -0.64001673 -3.83406687
-0.86216420 2.66244626 2.24322486
0.97587347 0.79289758 4.21093225
2.93175435 1.69150758 2.26923609
0.35980892 -1.35963786 4.02084398
1.39579046 -2.50145888 -2.32564712
1.30967879 -2.04344344 -3.13508415
0.80198622 0.98576415 -4.16813040
0.69456476 -2.92223001 1.54924846
2.83198953 1.15369368 2.97157240
3.29905486 -0.86539054 2.63529253
-0.95086914 -2.33800507 2.84753728
2.05959678 0.97577167 3.68602371
-3.71815228 -1.61821890 -0.28144962
1.71345282 2.77832460 1.20050955
0.57304329 -0.99790412 -4.20314789
-0.11664411 1.88403249 -3.58930159
-1.74947476 2.20435905 -2.64958286
-4.26439619 0.29998744 0.71543002
3.56009769 0.48539850 2.46325493
2.90730071 -1.94672978 1.85392463
-1.53652871 -1.98308897 -3.10267305
-3.40614748 -1.88846266 -0.73570991
2.11297417 0.59433109 -3.81464648
-0.68798351 -1.50939250 -3.86487198
3.35675406 1.79065013 -1.27327013
-0.68134880 -3.12155628 -0.09272930
-4.28011894 -0.18557975 0.69281060
4.22984982 -0.70499748 -0.12316248
0.31857544 0.50725037 -4.40190792
-4.05019760 1.00825334 -0.73849940
0.13582847 -2.91483188 -1.72713315
0.42119420 0.86434734 4.28013515
0.00843230 3.10685897 -0.82423609
-0.17988695 -2.80620098 2.05267739
2.17639184 -2.24305964 2.21370006
2.16634512 1.91097510 2.77517700
1.40087879 -2.98985481 -0.16629244
0.53360492 2.73492336 -2.17639518
-0.38639703 2.54639649 2.61999583
1.14876592 -1.21711183 3.95463252
-1.84360814 -1.02543128 -3.78026652
-2.36016965 2.64016056 0.38071406
3.16376710 1.82483590 1.64622509
-2.66564035 -2.31188154 1.32658756
1.71689272 -0.74787670 3.97030091
-2.73325896 -0.34346521 -3.43864465
-2.59673595 -1.52800536 2.85971069
2.74887443 -1.27834249 2.95140171
2.89666629 2.35150790 -0.15497202
-2.79980755 0.21548142 -3.40320635
2.03501916 2.77409458 -0.44887388
2.53332043 2.11601162 -2.05789256
-0.33361259 2.27966809 -3.08073878
-0.40887398 1.24789059 4.08779144
-3.15075874 -1.05967593 -2.68785048
1.31188333 0.83107996 -4.09749556
3.55140615 -1.81329989 0.18684202
0.70012033 -2.76208067 -2.05556178
2.26717639 0.12920848 3.80888200
3.56247473 -1.11639357 2.00774407
-2.69691801 -1.08939576 -3.14743876
-0.38866442 3.08562756 0.88367468
-1.84682524 1.44177103 3.49520802
-2.91387606 2.27598310 0.79335153
2.89836884 1.78372502 -2.17091537
0.10746833 3.00314546 -1.39200115
-1.55142748 -1.27928340 3.76462054
4.25398397 0.01288821 -0.88850641
1.63579869 -0.34007102 4.11361408
1.78668153 -1.99601614 2.93827629
1.64863718 2.92381573 0.05024934
-1.17976785 -0.00123515 4.30356789
-2.02414680 0.15265468 3.95075989
3.96185112 0.21450335 1.80325460
-4.21028805 -0.69456500 0.46532628
4.28675270 -0.36310634 -0.47331995
-2.50019360 -0.23756124 3.63993907
-3.21180534 0.57005101 -2.89705515
-1.43554187 -0.57637310 -4.14130449
-3.06302166 2.01485848 -1.38486302
0.84778816 -1.94811630 3.41118717
2.08070469 -1.99011970 -2.73540163
-1.96087992 2.52138329 -1.78723037
4.16328287 0.55571705 -0.98905057
-1.56592369 -0.85435188 3.99164653
3.28689337 -2.02652478 -0.56568623
3.36399460 -0.26357129 2.79972649
1.98446977 1.09959948 -3.66064763
-3.31329656 1.57007980 1.84663987
-1.92138529 -2.81237531 -0.50264531
-0.68618977 -2.91943026 1.56292117
3.44777393 -1.73959243 1.14812148
-2.17459893 1.08099771 -3.55546165
3.84589386 -0.89596534 -1.64022565
1.36897504 2.25364852 -2.80177569
2.50552082 1.74447823 -2.69312859
-1.05188811 -2.49892187 -2.51760769
-0.35810968 -2.42922759 -2.83679485
-1.64773881 -0.45087531 4.08902025
-3.84617877 -1.35234189 -0.80023873
3.26288438 1.14674079 2.46360612
0.22395618 -2.34053302 -2.99674606
-3.59749460 1.03117597 2.03357744
-1.14715707 2.24512386 -2.91699052
0.48204076 2.34804964 -2.95237327
3.56276679 0.27832675 -2.52357793
1.32448101 0.31085703 -4.23565865
-2.30259395 -1.88095760 -2.70070004
4.06530809 -0.81865227 1.05783439
1.09577143 -1.14381576 -4.01333809
-3.35434914 -1.96853077 0.55235386
-3.22100711 -1.92615390 1.24970675
-0.74639750 1.82221222 -3.57458901
1.08137274 2.29880548 2.85945749
-3.41829705 0.83899498 -2.48673987
2.85282087 0.49700698 3.29616737
-2.94532490 -2.32193565 -0.06825352
0.34030396 -0.38146865 -4.42504025
-2.29182124 2.61336470 -0.86949492
-1.07370973 -2.01391268 3.26691008
-1.15004730 0.52200693 4.24836063
-3.49232316 -1.65473986 -1.25274646
-4.05246544 -0.94797933 -0.87710464
-1.31072235 -0.97396213 -4.03406715
-2.73818350 2.36158967 -0.93832290
-1.63394547 2.88784909 0.69436610
-0.59643233 -3.08197165 0.78585833
-1.66666365 1.97390139 3.04220605
0.50334322 1.93371856 -3.49946094
-1.92850578 2.21594357 2.49578881
-3.39681959 -1.27594852 2.11939406
3.23477936 1.96641970 1.07296443
-3.02005458 -0.16561791 3.20361185
0.33382428 -3.12049699 0.62588042
3.81239748 1.50975454 -0.11130436
2.57540798 -0.62674332 -3.48875546
-0.52942717 -0.07827079 4.43733168
-3.76579881 0.84956425 -1.87062442
2.16110539 1.44082224 3.29840350
-0.09324922 1.21977866 -4.12417221
0.76474380 0.17564681 4.39481211
-4.05234766 0.37065998 1.51478076
-1.52053452 -2.96061778 -0.09452594
-2.25178838 -2.26930690 2.07637072
-0.39300847 -2.15101337 3.25282764
-2.63996744 0.90768337 -3.31101012
-3.11714458 -0.58311456 -3.00032854
-2.70326471 -1.94465411 2.16256380
-3.81514239 -0.77961111 -1.82482874
2.79965806 0.60053849 -3.31061721
3.92534471 -1.34770453 0.10226975
2.15717196 -0.31114593 3.85560989
-4.31052017 -0.33186042 -0.24057490
-0.52066153 -2.93901539 -1.55643058
3.84387279 -0.48248693 1.96096945
3.48841500 1.84943175 -0.48748839
-1.31172907 0.21695803 -4.25298977
-2.61463380 -2.49868512 -0.49232152
-0.00169142 -1.82563400 3.65097332
0.68538070 -1.82572460 -3.58126974
4.03687191 -0.53670126 -1.45753384
2.43347597 -0.93325388 3.45941854
0.22503553 3.08879495 0.92494863
-3.30137801 -0.98118126 2.55058193
-0.37219772 1.88112903 3.57586193
1.02722442 -0.53140825 -4.28029203
-1.49633753 -2.90202618 -0.87520117
1.70024502 0.58644080 4.03014326
-1.48063481 1.31447637 -3.77074695
1.47226107 -2.91364002 -0.84062225
-0.76909465 2.72782111 -2.11766124
-1.64477825 0.77445352 3.99077964
-1.51077890 -2.18815160 2.82741070
2.97263432 -2.06449842 -1.44621015
-4.11410809 0.87464434 0.70677155
0.18105817 1.73619771 3.73272228
4.32622766 0.14178301 -0.29504246
0.92679954 3.06001949 -0.59244949
3.67162776 1.09184039 1.81707048
-2.35553050 1.24031842 3.32161045
1.16886592 1.63577986 3.63290405
2.21268606 -1.58639848 -3.12584853
-1.92522585 1.78326666 -3.11600113
-0.48101014 -0.57202911 4.36997318
0.45981452 -1.45784318 -3.94024587
-2.87108135 0.42855456 3.29900265
3.71735334 -1.55173469 0.71782804
1.58093739 -0.41452861 -4.12309074
2.31837058 -2.67147279 0.14823465
-4.22821045 -0.03724948 -1.00710714
2.18923903 2.57476044 -1.28094268
-3.70820022 0.10397731 2.31922650
1.86592269 -0.74251419 -3.89887238
2.99872470 -2.28140640 -0.19104542
-3.56806469 -1.53575242 1.32768035
-1.26655924 2.86502028 1.36532772
3.69700885 -0.21604007 -2.32379127
-0.88266784 2.97723103 -1.19756591
-0.89242250 -3.03949428 -0.82146728
1.07282913 2.57426786 2.34812808
2.62257957 1.56809020 2.78898787
-4.11897850 -0.97840798 -0.26093596
-4.01472378 -0.32139659 -1.63641727
3.01087308 -0.76393116 -3.03421307
-3.48567390 -0.43412209 2.59424043
-3.64440084 1.32230484 -1.55106533
-0.50943595 -1.88071334 -3.55670285
3.67053127 -1.61496150 -0.69644141
3.16599536 0.17665705 -3.04891920
-1.89095151 -1.42816174 -3.48343325
0.67806661 -0.66292894 4.31707621
-1.71847272 -2.83749700 0.86458701
-2.13415170 -1.49308527 3.27197599
-3.95767975 1.29675448 -0.06075975
-3.46349311 1.84728634 -0.65539783
-1.33134699 1.38888812 3.77657533
-3.08090067 -2.04842663 -1.23295820
1.90696323 2.23903179 2.47098327
-2.04630661 -2.55972791 1.56273663
-2.75086999 -2.41392255 0.55276585
2.77914572 1.33563733 -2.86943460
-2.78991103 1.26838326 2.91852427
-3.62693691 1.57008874 -1.05135357
2.04897761 -1.17501795 -3.57536721
-1.00901878 -0.39099768 4.31501102
2.19290185 -1.51154661 3.21345496
-2.13762212 -2.48961926 -1.65595794
-0.74072635 3.10390735 0.36430237
-0.62636727 0.06466454 -4.42429686
4.25854588 0.61043501 -0.00169096
-0.93450373 -2.16931963 -3.10658598
-3.60180378 1.67344260 0.78886813
3.51122665 0.70301127 -2.43370938
-0.78164154 0.76009572 -4.26481485
-2.20349169 -2.72218156 0.11604214
0.59907377 -2.46545100 2.73010540
-0.00917937 2.83585668 1.97765100
-3.74850488 -1.16507387 -1.53654099
-3.81433177 -1.00547707 1.59134114
0.73934770 2.90239382 1.60048723
-2.41130948 2.15617990 2.12658739
3.51516986 -1.04753959 -2.16427374
3 249 48 83
3 64 0 62
3 220 34 37
3 64 62 204
3 204 191 64
3 51 191 204
3 213 27 253
3 21 48 249
3 104 24 232
3 40 205 155
3 7 151 128
3 128 151 1
3 115 111 220
3 220 111 244
3 244 34 220
3 113 26 215
3 117 184 66
3 66 51 118
3 184 51 66
3 117 196 30
3 30 184 117
3 30 196 1
3 64 191 84
3 84 0 64
3 84 27 0
3 46 191 79
3 79 191 51
3 79 51 184
3 168 87 100
3 100 23 168
3 168 23 73
3 168 73 122
3 122 87 168
3 25 152 194
3 32 87 192
3 100 87 32
3 32 129 100
3 145 62 0
3 0 27 145
3 220 37 198
3 99 70 207
3 78 246 234
3 246 163 234
3 118 51 108
3 51 204 108
3 126 196 117
3 117 66 126
3 126 66 29
3 148 145 192
3 107 174 41
3 122 164 41
3 81 174 210
3 210 174 107
3 210 97 81
3 38 204 62
3 38 148 97
3 38 246 78
3 38 97 246
3 73 33 105
3 207 70 105
3 112 86 90
3 146 177 90
3 231 213 127
3 27 213 231
3 134 45 67
3 67 229 134
3 185 86 134
3 134 229 185
3 249 83 94
3 112 90 98
3 150 45 134
3 175 23 100
3 11 183 50
3 47 24 104
3 47 21 249
3 104 21 47
3 186 232 24
3 186 133 9
3 24 133 186
3 31 40 155
3 215 26 88
3 136 113 215
3 251 113 136
3 7 128 91
3 212 167 11
3 225 232 233
3 104 232 225
3 225 140 104
3 44 183 11
3 11 167 44
3 44 167 111
3 121 34 110
3 34 244 110
3 111 167 110
3 110 244 111
3 218 177 146
3 121 110 240
3 233 124 130
3 56 16 192
3 192 145 56
3 56 231 16
3 56 145 27
3 27 231 56
3 129 32 22
3 22 214 152
3 152 25 22
3 22 25 129
3 107 41 221
3 221 41 164
3 164 70 221
3 70 99 221
3 20 69 120
3 120 42 20
3 120 69 36
3 20 42 153
3 153 126 29
3 101 69 20
3 36 69 101
3 101 163 36
3 101 234 163
3 62 145 169
3 145 148 169
3 169 38 62
3 148 38 169
3 192 87 243
3 243 148 192
3 97 148 243
3 89 174 81
3 89 41 174
3 222 163 246
3 255 210 107
3 107 221 255
3 65 38 78
3 204 38 65
3 65 108 204
3 122 73 200
3 73 105 200
3 200 164 122
3 200 70 164
3 200 105 70
3 80 98 226
3 226 98 90
3 9 133 226
3 226 133 80
3 178 141 229
3 229 67 178
3 49 127 194
3 49 231 127
3 194 152 49
3 152 214 49
3 49 214 16
3 16 231 49
3 254 77 102
3 102 77 245
3 86 185 199
3 146 90 199
3 199 90 86
3 85 150 134
3 85 86 112
3 134 86 85
3 23 175 61
3 73 23 61
3 61 33 73
3 48 33 61
3 11 50 147
3 147 50 21
3 147 140 11
3 147 21 104
3 104 140 147
3 202 183 207
3 202 50 183
3 202 33 48
3 48 21 202
3 21 50 202
3 207 105 202
3 202 105 33
3 158 133 24
3 158 47 249
3 24 47 158
3 249 94 158
3 26 124 208
3 208 88 26
3 232 186 157
3 9 161 157
3 157 186 9
3 57 157 161
3 233 232 57
3 232 157 57
3 3 31 188
3 188 31 155
3 166 88 40
3 3 203 166
3 215 88 166
3 166 31 3
3 40 31 166
3 166 136 215
3 203 136 166
3 216 136 203
3 216 203 7
3 106 170 63
3 92 170 242
3 180 212 156
3 140 225 156
3 2 110 167
3 2 212 180
3 167 212 2
3 180 240 2
3 2 240 110
3 230 240 171
3 121 240 230
3 93 30 1
3 129 25 72
3 58 82 224
3 114 32 192
3 114 22 32
3 192 16 114
3 16 214 114
3 214 22 114
3 237 206 149
3 123 206 237
3 123 237 19
3 19 18 115
3 95 18 19
3 8 120 36
3 149 206 8
3 8 222 149
3 36 163 8
3 163 222 8
3 42 120 131
3 242 170 247
3 247 42 242
3 247 153 42
3 142 101 20
3 108 101 142
3 20 153 142
3 142 153 29
3 118 108 142
3 142 66 118
3 29 66 142
3 234 101 109
3 109 101 108
3 108 65 109
3 78 234 109
3 109 65 78
3 81 97 190
3 97 243 190
3 190 89 81
3 41 89 190
3 122 41 190
3 190 87 122
3 190 243 87
3 119 222 246
3 210 222 119
3 246 97 119
3 97 210 119
3 149 222 217
3 217 222 210
3 210 255 217
3 217 237 149
3 10 18 95
3 183 18 10
3 60 177 144
3 144 161 60
3 60 90 177
3 60 226 90
3 60 161 9
3 9 226 60
3 189 178 67
3 189 45 194
3 189 67 45
3 194 127 189
3 127 178 189
3 176 84 191
3 176 191 46
3 253 27 176
3 27 84 176
3 46 241 176
3 241 75 176
3 209 139 254
3 209 241 139
3 209 75 241
3 141 14 143
3 143 209 254
3 14 209 143
3 253 176 250
3 250 176 75
3 250 213 253
3 75 209 250
3 250 209 14
3 141 178 52
3 52 14 141
3 52 250 14
3 52 178 127
3 127 213 52
3 213 250 52
3 254 139 55
3 55 77 254
3 139 132 55
3 138 77 55
3 55 132 138
3 146 199 12
3 12 218 146
3 205 218 12
3 193 199 185
3 80 133 172
3 172 17 80
3 133 158 172
3 94 17 172
3 172 158 94
3 197 98 80
3 80 17 197
3 224 150 197
3 197 17 224
3 239 61 175
3 175 58 239
3 239 83 48
3 48 61 239
3 239 94 83
3 125 161 144
3 144 208 125
3 125 57 161
3 125 208 124
3 125 124 233
3 233 57 125
3 252 208 144
3 88 208 252
3 144 177 252
3 177 218 252
3 40 88 252
3 205 40 252
3 252 218 205
3 251 136 162
3 136 216 162
3 106 63 159
3 159 63 91
3 1 196 159
3 196 106 159
3 159 128 1
3 159 91 128
3 170 92 13
3 59 63 13
3 13 63 170
3 13 74 59
3 180 156 103
3 103 240 180
3 171 240 103
3 140 156 39
3 39 156 212
3 11 140 39
3 39 212 11
3 135 113 251
3 121 230 135
3 171 130 35
3 35 230 171
3 35 124 26
3 35 130 124
3 35 135 230
3 26 113 35
3 113 135 35
3 139 241 211
3 211 132 139
3 211 241 46
3 46 79 211
3 211 79 184
3 184 30 96
3 96 211 184
3 132 211 96
3 138 132 96
3 30 93 96
3 96 93 138
3 181 72 25
3 82 72 181
3 100 129 6
3 129 72 6
3 6 175 100
3 53 17 94
3 94 239 53
3 53 239 58
3 224 17 53
3 53 58 224
3 183 44 71
3 71 18 183
3 115 18 71
3 111 115 71
3 71 44 111
3 173 198 123
3 123 19 173
3 173 19 115
3 173 115 220
3 220 198 173
3 242 42 5
3 42 131 5
3 5 92 242
3 123 198 28
3 28 5 131
3 28 198 37
3 37 5 28
3 179 131 120
3 179 28 131
3 179 206 123
3 123 28 179
3 182 170 106
3 182 247 170
3 182 106 196
3 196 126 182
3 126 153 182
3 153 247 182
3 237 217 195
3 95 19 195
3 195 19 237
3 195 217 255
3 195 10 95
3 255 10 195
3 187 255 221
3 187 10 255
3 187 221 99
3 187 99 207
3 207 183 187
3 183 10 187
3 229 141 76
3 141 193 76
3 76 185 229
3 76 193 185
3 4 12 199
3 155 205 4
3 205 12 4
3 150 85 238
3 238 197 150
3 238 85 112
3 112 98 238
3 98 197 238
3 59 74 160
3 7 91 160
3 160 216 7
3 160 162 216
3 160 63 59
3 91 63 160
3 137 5 37
3 92 5 137
3 248 156 225
3 248 103 156
3 248 225 233
3 171 103 248
3 233 130 248
3 248 130 171
3 227 188 245
3 3 188 227
3 1 151 219
3 219 93 1
3 219 236 93
3 82 181 154
3 224 82 154
3 45 150 154
3 154 150 224
3 175 6 165
3 165 6 72
3 165 58 175
3 165 72 82
3 82 58 165
3 120 8 201
3 201 179 120
3 201 8 206
3 206 179 201
3 155 4 116
3 116 188 155
3 116 102 245
3 245 188 116
3 199 193 235
3 235 4 199
3 254 102 235
3 102 116 235
3 235 116 4
3 235 193 141
3 235 143 254
3 141 143 235
3 68 160 74
3 162 160 68
3 251 162 68
3 68 74 121
3 121 135 68
3 68 135 251
3 223 34 121
3 121 74 223
3 223 37 34
3 223 137 37
3 228 227 245
3 236 227 228
3 245 77 228
3 228 77 138
3 138 93 228
3 93 236 228
3 43 227 236
3 236 219 43
3 3 227 43
3 43 219 151
3 43 203 3
3 43 151 7
3 7 203 43
3 45 154 15
3 15 154 181
3 194 45 15
3 15 25 194
3 15 181 25
3 137 223 54
3 54 13 92
3 92 137 54
3 74 13 54
3 54 223 74