ply
format ascii 1.0
comment https://github.com/mikedh/trimesh
element vertex 256
property float x
property float y
property float z
element face 508
property list uchar int vertex_indices
end_header
0.96428007 2.87164617 0.22526963
-1.36043954 1.37445688 -2.47851253
-0.53118175 -3.04038882 -1.59600008
-1.77846766 0.63723451 -0.19723420
-1.44376683 0.78835422 2.64984870
-0.10370734 -0.41352198 -4.70424414
1.14643908 0.07290369 3.67442918
-1.65257907 0.15687615 -1.93490529
0.85568726 0.00228870 -4.18545628
-0.81654441 -2.06504321 3.10595846
1.02546680 -2.24175358 -2.34717822
0.02007032 -3.39128876 -0.29262209
-1.41554475 0.37961039 2.91605067
-0.85802740 -0.68787760 -4.06956816
-0.35996827 2.86154556 2.38101149
0.40744385 0.85219097 4.46958208
1.22405756 1.81799960 2.40862036
0.15022637 -1.46131241 4.26781797
0.58276635 -2.68851948 -2.46849608
0.54681325 -2.19625354 -3.32765174
0.33484295 1.05948019 -4.42415142
0.28999266 -3.14075637 1.64440846
1.18240404 1.23996770 3.15409660
1.37741172 -0.93010497 2.79716110
-0.39700413 -2.51284242 3.02244282
0.85991687 1.04874051 3.91243196
-1.55239213 -1.73923039 -0.29873720
0.71539581 2.98608947 1.27424884
0.23925537 -1.07252800 -4.46131945
-0.04870091 2.02492166 -3.80976868
-0.73043561 2.36920238 -2.81232905
-1.78045821 0.32242069 0.75937414
1.48640156 0.52169693 2.61455655
1.21384776 -2.09230757 1.96779895
-0.64152700 -2.13138580 -3.29324961
-1.42212474 -2.02968311 -0.78089970
0.88220286 0.63877559 -4.04895496
-0.28724486 -1.62226582 -4.10226536
1.40150213 1.92455614 -1.35147870
-0.28447476 -3.35498834 -0.09842505
-1.78702283 -0.19945753 0.73536533
1.76603448 -0.75771767 -0.13072753
0.13301069 0.54518288 -4.67228794
-1.69102669 1.08365119 -0.78386056
0.05671071 -3.13280487 -1.83321953
0.17585577 0.92898381 4.54303551
0.00352063 3.33919191 -0.87486351
-0.07510588 -3.01605058 2.17875981
0.90868080 -2.41079712 2.34967303
0.90448612 2.05387902 2.94563770
0.58489084 -3.21343827 -0.17650670
0.22278918 2.93944263 -2.31007671
-0.16132736 2.73681760 2.78092480
0.47962940 -1.30812824 4.19753933
-0.76973790 -1.10211372 -4.01246357
-0.98541117 2.83759356 0.40409881
1.32092679 1.96129835 1.74734187
-1.11295033 -2.48476553 1.40807116
0.71683204 -0.80380344 4.21416998
-1.14118230 -0.36914974 -3.64985800
-1.08418167 -1.64227057 3.03536391
1.14770210 -1.37393773 3.13268685
1.20940769 2.52735519 -0.16449094
-1.16896749 0.23159525 -3.61224294
0.84965521 2.98154330 -0.47644526
1.05770457 2.27424812 -2.18429518
-0.13928896 2.45014310 -3.26996827
-0.17071186 1.34120870 4.33887720
-1.31549561 -1.13891912 -2.85294747
0.54773366 0.89322865 -4.34917784
1.48277283 -1.94889963 0.19831850
0.29231220 -2.96863079 -2.18182135
0.94658488 0.13887078 4.04283667
1.48739409 -1.19987822 2.13106656
-1.12600935 -1.17086148 -3.34076500
-0.16227405 3.31637263 0.93795300
-0.77108109 1.54958761 3.70989561
-1.21659315 2.44618273 0.84208190
1.21011853 1.91711318 -2.30426025
0.04486986 3.22772264 -1.47750258
-0.64774752 -1.37494910 3.99585629
1.77611101 0.01385200 -0.94308144
0.68297392 -0.36550176 4.36628628
0.74597007 -2.14527965 3.11875510
0.68833417 3.14246058 0.05333582
-0.49257323 -0.00132751 4.56790781
-0.84511584 0.16407029 4.19342899
1.65414059 0.23054405 1.91401660
-1.75786722 -0.74650502 0.49390820
1.78979254 -0.39025968 -0.50239289
-1.04387355 -0.25532621 3.86351633
-1.34098363 0.61267984 -3.07500219
-0.59936327 -0.61947465 -4.39567757
-1.27886379 2.16553092 -1.46992600
0.35396603 -2.09379768 3.62071395
0.86872977 -2.13894200 -2.90341926
-0.81870091 2.70993400 -1.89700806
1.73824179 0.59727395 -1.04980147
-0.65379989 -0.91824090 4.23682690
1.37233412 -2.17806959 -0.60043257
1.40452516 -0.28328133 2.97169518
0.82855004 1.18182826 -3.88549709
-1.38335800 1.68749142 1.96006680
-0.80221123 -3.02268672 -0.53351951
-0.28649595 -3.13774705 1.65892112
1.43950462 -1.86968029 1.21864307
-0.90793222 1.16183543 -3.77385020
1.60572648 -0.96296620 -1.74097395
0.57157046 2.42217803 -2.97387028
1.04609776 1.87493145 -2.85854959
-0.43918124 -2.68579292 -2.67224765
-0.14951691 -2.61088705 -3.01104045
-0.68795913 -0.48459205 4.34018183
-1.60584545 -1.45347095 -0.84939212
1.36231005 1.23249483 2.61492920
0.09350553 -2.51555967 -3.18081641
-1.50201547 1.10828793 2.15848660
-0.47895768 2.41301560 -3.09616208
0.20126025 2.52363849 -3.13371825
1.48751605 0.29914019 -2.67858458
0.55299342 0.33410311 -4.49582720
-0.96137232 -2.02161694 -2.86658621
1.69733572 -0.87987161 1.12281013
0.45750329 -1.22935104 -4.25985098
-1.40049803 -2.11573863 0.58628130
-1.34482551 -2.07019305 1.32646799
-0.31163371 1.95847845 -3.79415226
0.45149159 2.47071171 3.03509498
-1.42719734 0.90173560 -2.63948393
1.19110143 0.53417349 3.49862933
-1.22972345 -2.49557161 -0.07244588
0.14208272 -0.40999511 -4.69684124
-0.95687449 2.80879378 -0.92290223
-0.44829217 -2.16451454 3.46757483
-0.48016438 0.56104290 4.50930929
-1.45810461 -1.77848232 -1.32969439
-1.69197357 -1.01886988 -0.93097937
-0.54724896 -1.04679561 -4.28185320
-1.14323843 2.53819108 -0.99595791
-0.68220013 3.10380435 0.73701644
-0.24902070 -3.31244349 0.83412844
-0.69586056 2.12151098 3.22906876
0.21015441 2.07832336 -3.71440959
-0.80518413 2.38165307 2.64908862
-1.41823018 -1.37136471 2.24957442
1.35057569 2.11346984 1.13886952
-1.26092434 -0.17800292 3.40038848
0.13937734 -3.35384989 0.66432416
1.59174109 1.62265491 -0.11814105
1.07527685 -0.67361158 -3.70304680
-0.22104488 -0.08412393 4.70988750
-1.57228541 0.91309524 -1.98552454
0.90229839 1.54856777 3.50100255
-0.03893314 1.31099451 -4.37749290
0.31929362 0.18878180 4.66475630
-1.69192445 0.39837816 1.60782373
-0.63484913 -3.18201470 -0.10033204
-0.94016016 -2.43900704 2.20390844
-0.16408776 -2.31186748 3.45262742
-1.10223150 0.97556055 -3.51438355
-1.30146110 -0.62672025 -3.18461895
-1.12865925 -2.09007668 2.29539585
-1.59288716 -0.83791095 -1.93691587
1.16890514 0.64544719 -3.51396656
1.63889849 -1.44848669 0.10855151
0.90065616 -0.33441362 4.09243441
-1.79971576 -0.35667714 -0.25535181
-0.21738510 -3.15879679 -1.65203190
1.60488260 -0.51856762 2.08141875
1.45647287 1.98773348 -0.51743162
-0.54766929 0.23318230 -4.51422262
-1.09165430 -2.68553829 -0.52256155
-0.00070619 -1.96215618 3.87522840
0.28615817 -1.96225345 -3.80124354
1.68546307 -0.57683617 -1.54706049
1.01601779 -1.00304317 3.67190790
0.09395618 3.31977725 0.98176211
-1.37838173 -1.05455470 2.70724726
-0.15539891 2.02180099 3.79550338
0.42888376 -0.57114726 -4.54320240
-0.62474650 -3.11904168 -0.92895901
0.70988131 0.63029522 4.27768850
-0.61819035 1.41277373 -4.00235891
0.61469418 -3.13152385 -0.89225608
-0.32111016 2.93180919 -2.24773526
-0.68672305 0.83236766 4.23590660
-0.63077599 -2.35178304 3.00107980
1.24112558 -2.21888304 -1.53504121
-1.71771038 0.94005084 0.75018388
0.07559488 1.86603165 3.96199894
1.80627406 0.15238565 -0.31316495
0.38695464 3.28884983 -0.62883973
1.53296733 1.17348897 1.92868114
-0.98347425 1.33307016 3.52563500
0.48802149 1.75810456 3.85604930
0.92383426 -1.70503032 -3.31784868
-0.80381471 1.91662049 -3.30739641
-0.20082995 -0.61480582 4.63839149
0.19198041 -1.56686163 -4.18226910
-1.19872546 0.46060216 3.50163841
1.55205858 -1.66777444 0.76191944
0.66006833 -0.44552732 -4.37634516
0.96795934 -2.87124729 0.15733974
-1.76535010 -0.04003502 -1.06896710
0.91404468 2.76730275 -1.35962260
-1.54823697 0.11175280 2.46168113
0.77905458 -0.79803991 -4.13835430
1.25201881 -2.45201135 -0.20278008
-1.48972797 -1.65059698 1.40923095
-0.52881014 3.07926846 1.44919086
1.54356432 -0.23219571 -2.46652651
-0.36852890 3.19987035 -1.27112448
-0.37260166 -3.26678967 -0.87192458
0.44792446 2.76677322 2.49235821
1.09497178 1.68535292 2.96029711
-1.71974397 -1.05157399 -0.27696353
-1.67621577 -0.34543085 -1.73693156
1.25709093 -0.82105845 -3.22058487
-1.45532846 -0.46658602 2.75358748
-1.52159965 1.42118764 -1.64633703
-0.21269822 -2.02135444 -3.77516770
1.53250945 -1.73572946 -0.73921919
1.32185721 0.18986757 -3.23619413
-0.78950459 -1.53496063 -3.69739771
0.28310439 -0.71250319 4.58224535
-0.71749175 -3.04968691 0.91769290
-0.89104486 -1.60473919 3.47295189
-1.65239894 1.39372659 -0.06449182
-1.44606757 1.98542762 -0.69565463
-0.55586010 1.49275005 4.00854540
-1.28632867 -2.20160937 -1.30869067
0.79618973 2.40646791 2.62275934
-0.85436797 -2.75114584 1.65872526
-1.14853525 -2.59443712 0.58671856
1.16034091 1.43551719 -3.04568481
-1.16483557 1.36323380 3.09778976
-1.51430809 1.68750107 -1.11593127
0.85548317 -1.26288652 -3.79497838
-0.42128259 -0.42023674 4.58005381
0.91557395 -1.62458110 3.41083622
-0.89249372 -2.67579460 -1.75767255
-0.30926591 3.33601952 0.38667905
-0.26151904 0.06950020 -4.69605255
1.77801573 0.65608370 -0.00179482
-0.39017126 -2.33154273 -3.29740310
-1.50381458 1.79858375 0.83732313
1.46599710 0.75558287 -2.58319616
-0.32634869 0.81693614 -4.52677441
-0.91999543 -2.92574811 0.12316984
0.25012353 -2.64981890 2.89779758
-0.00383254 3.04792404 2.09912515
-1.56506491 -1.25219893 -1.63092053
-1.59254861 -1.08066738 1.68908668
0.30869031 3.11943674 1.69879448
-1.00676286 2.31742048 2.25720954
1.46764350 -1.12587523 -2.29721069
3 249 48 83
3 64 0 62
3 220 34 37
3 64 62 204
3 204 191 64
3 51 191 204
3 213 27 253
3 21 48 249
3 104 24 232
3 40 205 155
3 7 151 128
3 128 151 1
3 115 111 220
3 220 111 244
3 244 34 220
3 113 26 215
3 117 184 66
3 66 51 118
3 184 51 66
3 117 196 30
3 30 184 117
3 30 196 1
3 64 191 84
3 84 0 64
3 84 27 0
3 46 191 79
3 79 191 51
3 79 51 184
3 168 87 100
3 100 23 168
3 168 23 73
3 168 73 122
3 122 87 168
3 25 152 194
3 32 87 192
3 100 87 32
3 32 129 100
3 145 62 0
3 0 27 145
3 220 37 198
3 99 70 207
3 78 246 234
3 246 163 234
3 118 51 108
3 51 204 108
3 126 196 117
3 117 66 126
3 126 66 29
3 148 145 192
3 107 174 41
3 122 164 41
3 81 174 210
3 210 174 107
3 210 97 81
3 38 204 62
3 38 148 97
3 38 246 78
3 38 97 246
3 73 33 105
3 207 70 105
3 112 86 90
3 146 177 90
3 231 213 127
3 27 213 231
3 134 45 67
3 67 229 134
3 185 86 134
3 134 229 185
3 249 83 94
3 112 90 98
3 150 45 134
3 175 23 100
3 11 183 50
3 47 24 104
3 47 21 249
3 104 21 47
3 186 232 24
3 186 133 9
3 24 133 186
3 31 40 155
3 215 26 88
3 136 113 215
3 251 113 136
3 7 128 91
3 212 167 11
3 225 232 233
3 104 232 225
3 225 140 104
3 44 183 11
3 11 167 44
3 44 167 111
3 121 34 110
3 34 244 110
3 111 167 110
3 110 244 111
3 218 177 146
3 121 110 240
3 233 124 130
3 56 16 192
3 192 145 56
3 56 231 16
3 56 145 27
3 27 231 56
3 129 32 22
3 22 214 152
3 152 25 22
3 22 25 129
3 107 41 221
3 221 41 164
3 164 70 221
3 70 99 221
3 20 69 120
3 120 42 20
3 120 69 36
3 20 42 153
3 153 126 29
3 101 69 20
3 36 69 101
3 101 163 36
3 101 234 163
3 62 145 169
3 145 148 169
3 169 38 62
3 148 38 169
3 192 87 243
3 243 148 192
3 97 148 243
3 89 174 81
3 89 41 174
3 222 163 246
3 255 210 107
3 107 221 255
3 65 38 78
3 204 38 65
3 65 108 204
3 122 73 200
3 73 105 200
3 200 164 122
3 200 70 164
3 200 105 70
3 80 98 226
3 226 98 90
3 9 133 226
3 226 133 80
3 178 141 229
3 229 67 178
3 49 127 194
3 49 231 127
3 194 152 49
3 152 214 49
3 49 214 16
3 16 231 49
3 254 77 102
3 102 77 245
3 86 185 199
3 146 90 199
3 199 90 86
3 85 150 134
3 85 86 112
3 134 86 85
3 23 175 61
3 73 23 61
3 61 33 73
3 48 33 61
3 11 50 147
3 147 50 21
3 147 140 11
3 147 21 104
3 104 140 147
3 202 183 207
3 202 50 183
3 202 33 48
3 48 21 202
3 21 50 202
3 207 105 202
3 202 105 33
3 158 133 24
3 158 47 249
3 24 47 158
3 249 94 158
3 26 124 208
3 208 88 26
3 232 186 157
3 9 161 157
3 157 186 9
3 57 157 161
3 233 232 57
3 232 157 57
3 3 31 188
3 188 31 155
3 166 88 40
3 3 203 166
3 215 88 166
3 166 31 3
3 40 31 166
3 166 136 215
3 203 136 166
3 216 136 203
3 216 203 7
3 106 170 63
3 92 170 242
3 180 212 156
3 140 225 156
3 2 110 167
3 2 212 180
3 167 212 2
3 180 240 2
3 2 240 110
3 230 240 171
3 121 240 230
3 93 30 1
3 129 25 72
3 58 82 224
3 114 32 192
3 114 22 32
3 192 16 114
3 16 214 114
3 214 22 114
3 237 206 149
3 123 206 237
3 123 237 19
3 19 18 115
3 95 18 19
3 8 120 36
3 149 206 8
3 8 222 149
3 36 163 8
3 163 222 8
3 42 120 131
3 242 170 247
3 247 42 242
3 247 153 42
3 142 101 20
3 108 101 142
3 20 153 142
3 142 153 29
3 118 108 142
3 142 66 118
3 29 66 142
3 234 101 109
3 109 101 108
3 108 65 109
3 78 234 109
3 109 65 78
3 81 97 190
3 97 243 190
3 190 89 81
3 41 89 190
3 122 41 190
3 190 87 122
3 190 243 87
3 119 222 246
3 210 222 119
3 246 97 119
3 97 210 119
3 149 222 217
3 217 222 210
3 210 255 217
3 217 237 149
3 10 18 95
3 183 18 10
3 60 177 144
3 144 161 60
3 60 90 177
3 60 226 90
3 60 161 9
3 9 226 60
3 189 178 67
3 189 45 194
3 189 67 45
3 194 127 189
3 127 178 189
3 176 84 191
3 176 191 46
3 253 27 176
3 27 84 176
3 46 241 176
3 241 75 176
3 209 139 254
3 209 241 139
3 209 75 241
3 141 14 143
3 143 209 254
3 14 209 143
3 253 176 250
3 250 176 75
3 250 213 253
3 75 209 250
3 250 209 14
3 141 178 52
3 52 14 141
3 52 250 14
3 52 178 127
3 127 213 52
3 213 250 52
3 254 139 55
3 55 77 254
3 139 132 55
3 138 77 55
3 55 132 138
3 146 199 12
3 12 218 146
3 205 218 12
3 193 199 185
3 80 133 172
3 172 17 80
3 133 158 172
3 94 17 172
3 172 158 94
3 197 98 80
3 80 17 197
3 224 150 197
3 197 17 224
3 239 61 175
3 175 58 239
3 239 83 48
3 48 61 239
3 239 94 83
3 125 161 144
3 144 208 125
3 125 57 161
3 125 208 124
3 125 124 233
3 233 57 125
3 252 208 144
3 88 208 252
3 144 177 252
3 177 218 252
3 40 88 252
3 205 40 252
3 252 218 205
3 251 136 162
3 136 216 162
3 106 63 159
3 159 63 91
3 1 196 159
3 196 106 159
3 159 128 1
3 159 91 128
3 170 92 13
3 59 63 13
3 13 63 170
3 13 74 59
3 180 156 103
3 103 240 180
3 171 240 103
3 140 156 39
3 39 156 212
3 11 140 39
3 39 212 11
3 135 113 251
3 121 230 135
3 171 130 35
3 35 230 171
3 35 124 26
3 35 130 124
3 35 135 230
3 26 113 35
3 113 135 35
3 139 241 211
3 211 132 139
3 211 241 46
3 46 79 211
3 211 79 184
3 184 30 96
3 96 211 184
3 132 211 96
3 138 132 96
3 30 93 96
3 96 93 138
3 181 72 25
3 82 72 181
3 100 129 6
3 129 72 6
3 6 175 100
3 53 17 94
3 94 239 53
3 53 239 58
3 224 17 53
3 53 58 224
3 183 44 71
3 71 18 183
3 115 18 71
3 111 115 71
3 71 44 111
3 173 198 123
3 123 19 173
3 173 19 115
3 173 115 220
3 220 198 173
3 242 42 5
3 42 131 5
3 5 92 242
3 123 198 28
3 28 5 131
3 28 198 37
3 37 5 28
3 179 131 120
3 179 28 131
3 179 206 123
3 123 28 179
3 182 170 106
3 182 247 170
3 182 106 196
3 196 126 182
3 126 153 182
3 153 247 182
3 237 217 195
3 95 19 195
3 195 19 237
3 195 217 255
3 195 10 95
3 255 10 195
3 187 255 221
3 187 10 255
3 187 221 99
3 187 99 207
3 207 183 187
3 183 10 187
3 229 141 76
3 141 193 76
3 76 185 229
3 76 193 185
3 4 12 199
3 155 205 4
3 205 12 4
3 150 85 238
3 238 197 150
3 238 85 112
3 112 98 238
3 98 197 238
3 59 74 160
3 7 91 160
3 160 216 7
3 160 162 216
3 160 63 59
3 91 63 160
3 137 5 37
3 92 5 137
3 248 156 225
3 248 103 156
3 248 225 233
3 171 103 248
3 233 130 248
3 248 130 171
3 227 188 245
3 3 188 227
3 1 151 219
3 219 93 1
3 219 236 93
3 82 181 154
3 224 82 154
3 45 150 154
3 154 150 224
3 175 6 165
3 165 6 72
3 165 58 175
3 165 72 82
3 82 58 165
3 120 8 201
3 201 179 120
3 201 8 206
3 206 179 201
3 155 4 116
3 116 188 155
3 116 102 245
3 245 188 116
3 199 193 235
3 235 4 199
3 254 102 235
3 102 116 235
3 235 116 4
3 235 193 141
3 235 143 254
3 141 143 235
3 68 160 74
3 162 160 68
3 251 162 68
3 68 74 121
3 121 135 68
3 68 135 251
3 223 34 121
3 121 74 223
3 223 37 34
3 223 137 37
3 228 227 245
3 236 227 228
3 245 77 228
3 228 77 138
3 138 93 228
3 93 236 228
3 43 227 236
3 236 219 43
3 3 227 43
3 43 219 151
3 43 203 3
3 43 151 7
3 7 203 43
3 45 154 15
3 15 154 181
3 194 45 15
3 15 25 194
3 15 181 25
3 137 223 54
3 54 13 92
3 92 137 54
3 74 13 54
3 54 223 74