ply
format ascii 1.0
comment https://github.com/mikedh/trimesh
element vertex 256
property float x
property float y
property float z
element face 508
property list uchar int vertex_indices
end_header
1.01300776 1.69573009 0.13333258
-1.42918622 0.81162781 -1.46698177
-0.55802387 -1.79537392 -0.94464046
-1.86833858 0.37629208 -0.11673896
-1.51672435 0.46552947 1.56839228
-0.10894795 -0.24418804 -2.78434753
1.20437181 0.04305021 2.17482090
-1.73608840 0.09263662 -1.14523160
0.89892745 0.00135150 -2.47728753
-0.85780662 -1.21942449 1.83835447
1.07728648 -1.32377338 -1.38924766
0.02108453 -2.00258327 -0.17319714
-1.48707616 0.22416297 1.72595191
-0.90138590 -0.40619722 -2.40869570
-0.37815848 1.68976557 1.40927291
0.42803311 0.50322562 2.64545584
1.28591251 1.07354331 1.42561400
0.15781772 -0.86291671 2.52603579
0.61221516 -1.58759236 -1.46105337
0.57444525 -1.29690528 -1.96957028
0.35176349 0.62563157 -2.61856627
0.30464679 -1.85464180 0.97329241
1.24215412 0.73221081 1.86684644
1.44701612 -0.54923445 1.65558350
-0.41706583 -1.48385358 1.78892326
0.90337080 0.61928964 2.31569004
-1.63083875 -1.02702951 -0.17681655
0.75154674 1.76330972 0.75420237
0.25134560 -0.63333642 -2.64056540
-0.05116190 1.19573247 -2.25492549
-0.76734650 1.39903295 -1.66456115
-1.87042964 0.19039200 0.44945833
1.56151354 0.30806622 1.54750359
1.27518678 -1.23552430 1.16470075
-0.67394513 -1.25860035 -1.94920838
-1.49398863 -1.19854414 -0.46219885
0.92678297 0.37720209 -2.39649510
-0.30176014 -0.95796096 -2.42804861
1.47232389 1.13646579 -0.79991311
-0.29885006 -1.98114753 -0.05825581
-1.87732601 -0.11778127 0.43524799
1.85527706 -0.44743836 -0.07737500
0.13973208 0.32193485 -2.76543355
-1.77647889 0.63990468 -0.46395135
0.05957646 -1.84994638 -1.08504581
0.18474224 0.54857236 2.68893147
0.00369854 1.97181952 -0.51781416
-0.07890118 -1.78100204 1.28956425
0.95459890 -1.42359495 1.39072430
0.95019233 1.21283197 1.74346387
0.61444700 -1.89756095 -0.10447077
0.23404732 1.73576438 -1.36728799
-0.16947967 1.61611271 1.64597356
0.50386637 -0.77246016 2.48443937
-0.80863488 -0.65080696 -2.37489653
-1.03520668 1.67562175 0.23917799
1.38767684 1.15816236 1.03421664
-1.16919076 -1.46727395 0.83340901
0.75305557 -0.47465235 2.49428272
-1.19884932 -0.21798588 -2.16027761
-1.13896835 -0.96977395 1.79657102
1.20569861 -0.81132126 1.85417449
1.27052236 1.49242353 -0.09735888
-1.22803867 0.13675885 -2.13801408
0.89259064 1.76062512 -0.28199840
1.11115324 1.34296179 -1.29284048
-0.14632761 1.44682908 -1.93542862
-0.17933841 0.79199445 2.56809449
-1.38197124 -0.67254084 -1.68860233
0.57541215 0.52745867 -2.57419109
1.55770135 -1.15084088 0.11738075
0.30708355 -1.75300026 -1.29137623
0.99441844 0.08200430 2.39287376
1.56255627 -0.70853770 1.26133549
-1.18290973 -0.69140309 -1.97733176
-0.17047419 1.95834458 0.55515552
-0.81004590 0.91504389 2.19581270
-1.27807081 1.44449043 0.49841136
1.27126908 1.13207066 -1.36384547
0.04713726 1.90599608 -0.87450415
-0.68047994 -0.81191844 2.36506724
1.86586273 0.00817971 -0.55819100
0.71748650 -0.21583171 2.58431721
0.78366601 -1.26680470 1.84592867
0.72311759 1.85564804 0.03156840
-0.51746428 -0.00078391 2.70365310
-0.88782185 0.09688482 2.48200631
1.73772883 0.13613810 1.13286805
-1.84669709 -0.44081718 0.29233435
1.88023567 -0.23045146 -0.29735628
-1.09662330 -0.15077218 2.28673792
-1.40874720 0.36179233 -1.82003212
-0.62965071 -0.36580476 -2.60171318
-1.34348834 1.27876329 -0.87001973
0.37185290 -1.23640430 2.14302802
0.91262907 -1.26306248 -1.71847570
-0.86007208 1.60023761 -1.12280107
1.82607985 0.35269505 -0.62135643
-0.68683815 -0.54222858 2.50769281
1.44168198 -1.28616750 -0.35538402
1.47549975 -0.16727988 1.75888681
0.87041897 0.69787902 -2.29974771
-1.45326281 0.99647719 1.16012418
-0.84274912 -1.78492069 -0.31577951
-0.30097336 -1.85286474 0.98188210
1.51224673 -1.10406113 0.72129035
-0.95381254 0.68607312 -2.23366618
1.68686819 -0.56863928 -1.03044748
0.60045350 1.43031549 -1.76017416
1.09895992 1.10716200 -1.69191813
-0.46137428 -1.58598220 -1.58164978
-0.15707241 -1.54174960 -1.78217435
-0.72272354 -0.28615549 2.56886649
-1.68699312 -0.85828626 -0.50273812
1.43115127 0.72779804 1.54772413
0.09823062 -1.48545802 -1.88266134
-1.57791638 0.65445292 1.27756488
-0.50316072 1.42490506 -1.83255613
0.21143049 1.49022865 -1.85478497
1.56268430 0.17664468 -1.58540058
0.58093774 0.19729055 -2.66098976
-1.00995302 -1.19378090 -1.69667482
1.78310668 -0.51957124 0.66456884
0.48062217 -0.72594166 -2.52132034
-1.47126901 -1.24936068 0.34700814
-1.41278327 -1.22246552 0.78510976
-0.32738140 1.15649724 -2.24568272
0.47430667 1.45897496 1.79641187
-1.49931753 0.53248209 -1.56225753
1.25129104 0.31543371 2.07076836
-1.29186475 -1.47365499 -0.04287926
0.14926255 -0.24210539 -2.77996612
-1.00522804 1.65861523 -0.54624730
-0.47094560 -1.27816308 2.05238795
-0.50442839 0.33130035 2.66896963
-1.53178668 -1.05020809 -0.78701943
-1.77747357 -0.60165077 -0.55102801
-0.57490295 -0.61814123 -2.53434300
-1.20100939 1.49882209 -0.58948749
-0.71667361 1.83282137 0.43622524
-0.26160440 -1.95602441 0.49370387
-0.73102427 1.25276923 1.91122091
0.22077408 1.22726655 -2.19848442
-0.84587228 1.40638530 1.56794238
-1.48989725 -0.80980188 1.33147800
1.41882396 1.24802089 0.67407405
-1.32464230 -0.10511215 2.01262188
0.14642045 -1.98047519 0.39320013
1.67217612 0.95819074 -0.06992532
1.12961352 -0.39777303 -2.19175911
-0.23221488 -0.04967586 2.78768802
-1.65173733 0.53919005 -1.17519212
0.94789398 0.91444170 2.07217312
-0.04090054 0.77415276 -2.59095001
0.33542839 0.11147717 2.76097584
-1.77742207 0.23524550 0.95163858
-0.66692978 -1.87900519 -0.05938452
-0.98766899 -1.44025326 1.30444920
-0.17237955 -1.36517620 2.04354095
-1.15793025 0.57607633 -2.08009315
-1.36722755 -0.37008333 -1.88491201
-1.18569350 -1.23420703 1.35859871
-1.67338014 -0.49479312 -1.14642167
1.22797310 0.38114172 -2.07984614
1.72171652 -0.85534298 0.06424946
0.94616878 -0.19747393 2.42223001
-1.89066041 -0.21062072 -0.15113762
-0.22837016 -1.86529481 -0.97780454
1.68598163 -0.30621833 1.23195004
1.53007245 1.17377257 -0.30625737
-0.57534450 0.13769601 -2.67187786
-1.14681864 -1.58583188 -0.30929372
-0.00074188 -1.15866888 2.29366994
0.30061853 -1.15872633 -2.24987984
1.77063417 -0.34062636 -0.91567409
1.06736004 -0.59230506 2.17332864
0.09870404 1.96035504 0.58108526
-1.44803512 -0.62272298 1.60236537
-0.16325164 1.19388974 2.24648237
0.45055643 -0.33726704 -2.68903017
-0.65631664 -1.84181905 -0.54983217
0.74575359 0.37219438 2.53187776
-0.64942920 0.83425421 -2.36891603
0.64575636 -1.84918988 -0.52810848
-0.33733675 1.73125684 -1.33038938
-0.72142506 0.49151975 2.50714827
-0.66265082 -1.38874662 1.77627885
1.30384314 -1.31026816 -0.90856010
-1.80451107 0.55510753 0.44401878
0.07941490 1.10190666 2.34502769
1.89754999 0.08998495 -0.18535605
0.40650851 1.94209218 -0.37219763
1.61043239 0.69295460 1.14154768
-1.03317189 0.78718865 2.08675265
0.51268256 1.03817487 2.28231812
0.97051817 -1.00683403 -1.96376812
-0.84443367 1.13177979 -1.95758164
-0.21097843 -0.36304775 2.74537110
0.20168170 -0.92524433 -2.47540116
-1.25930035 0.27198926 2.07254958
1.63048828 -0.98483413 0.45096484
0.69342345 -0.26308745 -2.59027100
1.01687300 -1.69549453 0.09312623
-1.85455811 -0.02364100 -0.63270020
0.96023387 1.63411438 -0.80473334
-1.62647355 0.06599092 1.45701969
0.81842238 -0.47124895 -2.44940901
1.31528676 -1.44793236 -0.12002146
-1.56500804 -0.97469074 0.83409554
-0.55553234 1.81833267 0.85774696
1.62156487 -0.13711342 -1.45988750
-0.38715169 1.88954902 -0.75235313
-0.39143023 -1.92906535 -0.51607466
0.47055933 1.63380182 1.47517681
1.15030372 0.99521440 1.75214040
-1.80664730 -0.62096286 -0.16392916
-1.76091957 -0.20397967 -1.02805495
1.32061517 -0.48484156 -1.90619946
-1.52887022 -0.27552280 1.62979329
-1.59849024 0.83922267 -0.97443384
-0.22344644 -1.19362593 -2.23444605
1.60995138 -1.02496207 -0.43752903
1.38865423 0.11211833 -1.91543829
-0.82940042 -0.90640652 -2.18841553
0.29741043 -0.42073885 2.71213913
-0.75374854 -1.80086458 0.54316401
-0.93607175 -0.94761133 2.05557060
-1.73589921 0.82300669 -0.03817141
-1.51914132 1.17241085 -0.41174403
-0.58394927 0.88148087 2.37257743
-1.35133040 -1.30006790 -0.77458775
0.83642340 1.42103863 1.55235863
-0.89754146 -1.62457371 0.98176622
-1.20657384 -1.53203595 0.34726697
1.21897602 0.84768438 -1.80267978
-1.22369790 0.80500048 1.83351970
-1.59083033 0.99648285 -0.66049731
0.89871311 -0.74574459 -2.24617147
-0.44257116 -0.24815316 2.71084189
0.96184045 -0.95932817 2.01880550
-0.93759388 -1.58007812 -1.04033113
-0.32489398 1.96994627 0.22886758
-0.27473432 0.04104042 -2.77949929
1.86786366 0.38742268 -0.00106232
-0.40988770 -1.37679458 -1.95166671
-1.57980645 1.06207812 0.49559474
1.54007804 0.44617775 -1.52894187
-0.34283999 0.48240733 -2.67930698
-0.96648532 -1.72767758 0.07290176
0.26276296 -1.56473935 1.71514833
-0.00402621 1.79982352 1.24242997
-1.64415193 -0.73943347 -0.96530914
-1.67302454 -0.63814270 0.99973649
0.32428926 1.84205234 1.00548244
-1.05763733 1.36845541 1.33599699
1.54180753 -0.66483837 -1.35967290
3 249 48 83
3 64 0 62
3 220 34 37
3 64 62 204
3 204 191 64
3 51 191 204
3 213 27 253
3 21 48 249
3 104 24 232
3 40 205 155
3 7 151 128
3 128 151 1
3 115 111 220
3 220 111 244
3 244 34 220
3 113 26 215
3 117 184 66
3 66 51 118
3 184 51 66
3 117 196 30
3 30 184 117
3 30 196 1
3 64 191 84
3 84 0 64
3 84 27 0
3 46 191 79
3 79 191 51
3 79 51 184
3 168 87 100
3 100 23 168
3 168 23 73
3 168 73 122
3 122 87 168
3 25 152 194
3 32 87 192
3 100 87 32
3 32 129 100
3 145 62 0
3 0 27 145
3 220 37 198
3 99 70 207
3 78 246 234
3 246 163 234
3 118 51 108
3 51 204 108
3 126 196 117
3 117 66 126
3 126 66 29
3 148 145 192
3 107 174 41
3 122 164 41
3 81 174 210
3 210 174 107
3 210 97 81
3 38 204 62
3 38 148 97
3 38 246 78
3 38 97 246
3 73 33 105
3 207 70 105
3 112 86 90
3 146 177 90
3 231 213 127
3 27 213 231
3 134 45 67
3 67 229 134
3 185 86 134
3 134 229 185
3 249 83 94
3 112 90 98
3 150 45 134
3 175 23 100
3 11 183 50
3 47 24 104
3 47 21 249
3 104 21 47
3 186 232 24
3 186 133 9
3 24 133 186
3 31 40 155
3 215 26 88
3 136 113 215
3 251 113 136
3 7 128 91
3 212 167 11
3 225 232 233
3 104 232 225
3 225 140 104
3 44 183 11
3 11 167 44
3 44 167 111
3 121 34 110
3 34 244 110
3 111 167 110
3 110 244 111
3 218 177 146
3 121 110 240
3 233 124 130
3 56 16 192
3 192 145 56
3 56 231 16
3 56 145 27
3 27 231 56
3 129 32 22
3 22 214 152
3 152 25 22
3 22 25 129
3 107 41 221
3 221 41 164
3 164 70 221
3 70 99 221
3 20 69 120
3 120 42 20
3 120 69 36
3 20 42 153
3 153 126 29
3 101 69 20
3 36 69 101
3 101 163 36
3 101 234 163
3 62 145 169
3 145 148 169
3 169 38 62
3 148 38 169
3 192 87 243
3 243 148 192
3 97 148 243
3 89 174 81
3 89 41 174
3 222 163 246
3 255 210 107
3 107 221 255
3 65 38 78
3 204 38 65
3 65 108 204
3 122 73 200
3 73 105 200
3 200 164 122
3 200 70 164
3 200 105 70
3 80 98 226
3 226 98 90
3 9 133 226
3 226 133 80
3 178 141 229
3 229 67 178
3 49 127 194
3 49 231 127
3 194 152 49
3 152 214 49
3 49 214 16
3 16 231 49
3 254 77 102
3 102 77 245
3 86 185 199
3 146 90 199
3 199 90 86
3 85 150 134
3 85 86 112
3 134 86 85
3 23 175 61
3 73 23 61
3 61 33 73
3 48 33 61
3 11 50 147
3 147 50 21
3 147 140 11
3 147 21 104
3 104 140 147
3 202 183 207
3 202 50 183
3 202 33 48
3 48 21 202
3 21 50 202
3 207 105 202
3 202 105 33
3 158 133 24
3 158 47 249
3 24 47 158
3 249 94 158
3 26 124 208
3 208 88 26
3 232 186 157
3 9 161 157
3 157 186 9
3 57 157 161
3 233 232 57
3 232 157 57
3 3 31 188
3 188 31 155
3 166 88 40
3 3 203 166
3 215 88 166
3 166 31 3
3 40 31 166
3 166 136 215
3 203 136 166
3 216 136 203
3 216 203 7
3 106 170 63
3 92 170 242
3 180 212 156
3 140 225 156
3 2 110 167
3 2 212 180
3 167 212 2
3 180 240 2
3 2 240 110
3 230 240 171
3 121 240 230
3 93 30 1
3 129 25 72
3 58 82 224
3 114 32 192
3 114 22 32
3 192 16 114
3 16 214 114
3 214 22 114
3 237 206 149
3 123 206 237
3 123 237 19
3 19 18 115
3 95 18 19
3 8 120 36
3 149 206 8
3 8 222 149
3 36 163 8
3 163 222 8
3 42 120 131
3 242 170 247
3 247 42 242
3 247 153 42
3 142 101 20
3 108 101 142
3 20 153 142
3 142 153 29
3 118 108 142
3 142 66 118
3 29 66 142
3 234 101 109
3 109 101 108
3 108 65 109
3 78 234 109
3 109 65 78
3 81 97 190
3 97 243 190
3 190 89 81
3 41 89 190
3 122 41 190
3 190 87 122
3 190 243 87
3 119 222 246
3 210 222 119
3 246 97 119
3 97 210 119
3 149 222 217
3 217 222 210
3 210 255 217
3 217 237 149
3 10 18 95
3 183 18 10
3 60 177 144
3 144 161 60
3 60 90 177
3 60 226 90
3 60 161 9
3 9 226 60
3 189 178 67
3 189 45 194
3 189 67 45
3 194 127 189
3 127 178 189
3 176 84 191
3 176 191 46
3 253 27 176
3 27 84 176
3 46 241 176
3 241 75 176
3 209 139 254
3 209 241 139
3 209 75 241
3 141 14 143
3 143 209 254
3 14 209 143
3 253 176 250
3 250 176 75
3 250 213 253
3 75 209 250
3 250 209 14
3 141 178 52
3 52 14 141
3 52 250 14
3 52 178 127
3 127 213 52
3 213 250 52
3 254 139 55
3 55 77 254
3 139 132 55
3 138 77 55
3 55 132 138
3 146 199 12
3 12 218 146
3 205 218 12
3 193 199 185
3 80 133 172
3 172 17 80
3 133 158 172
3 94 17 172
3 172 158 94
3 197 98 80
3 80 17 197
3 224 150 197
3 197 17 224
3 239 61 175
3 175 58 239
3 239 83 48
3 48 61 239
3 239 94 83
3 125 161 144
3 144 208 125
3 125 57 161
3 125 208 124
3 125 124 233
3 233 57 125
3 252 208 144
3 88 208 252
3 144 177 252
3 177 218 252
3 40 88 252
3 205 40 252
3 252 218 205
3 251 136 162
3 136 216 162
3 106 63 159
3 159 63 91
3 1 196 159
3 196 106 159
3 159 128 1
3 159 91 128
3 170 92 13
3 59 63 13
3 13 63 170
3 13 74 59
3 180 156 103
3 103 240 180
3 171 240 103
3 140 156 39
3 39 156 212
3 11 140 39
3 39 212 11
3 135 113 251
3 121 230 135
3 171 130 35
3 35 230 171
3 35 124 26
3 35 130 124
3 35 135 230
3 26 113 35
3 113 135 35
3 139 241 211
3 211 132 139
3 211 241 46
3 46 79 211
3 211 79 184
3 184 30 96
3 96 211 184
3 132 211 96
3 138 132 96
3 30 93 96
3 96 93 138
3 181 72 25
3 82 72 181
3 100 129 6
3 129 72 6
3 6 175 100
3 53 17 94
3 94 239 53
3 53 239 58
3 224 17 53
3 53 58 224
3 183 44 71
3 71 18 183
3 115 18 71
3 111 115 71
3 71 44 111
3 173 198 123
3 123 19 173
3 173 19 115
3 173 115 220
3 220 198 173
3 242 42 5
3 42 131 5
3 5 92 242
3 123 198 28
3 28 5 131
3 28 198 37
3 37 5 28
3 179 131 120
3 179 28 131
3 179 206 123
3 123 28 179
3 182 170 106
3 182 247 170
3 182 106 196
3 196 126 182
3 126 153 182
3 153 247 182
3 237 217 195
3 95 19 195
3 195 19 237
3 195 217 255
3 195 10 95
3 255 10 195
3 187 255 221
3 187 10 255
3 187 221 99
3 187 99 207
3 207 183 187
3 183 10 187
3 229 141 76
3 141 193 76
3 76 185 229
3 76 193 185
3 4 12 199
3 155 205 4
3 205 12 4
3 150 85 238
3 238 197 150
3 238 85 112
3 112 98 238
3 98 197 238
3 59 74 160
3 7 91 160
3 160 216 7
3 160 162 216
3 160 63 59
3 91 63 160
3 137 5 37
3 92 5 137
3 248 156 225
3 248 103 156
3 248 225 233
3 171 103 248
3 233 130 248
3 248 130 171
3 227 188 245
3 3 188 227
3 1 151 219
3 219 93 1
3 219 236 93
3 82 181 154
3 224 82 154
3 45 150 154
3 154 150 224
3 175 6 165
3 165 6 72
3 165 58 175
3 165 72 82
3 82 58 165
3 120 8 201
3 201 179 120
3 201 8 206
3 206 179 201
3 155 4 116
3 116 188 155
3 116 102 245
3 245 188 116
3 199 193 235
3 235 4 199
3 254 102 235
3 102 116 235
3 235 116 4
3 235 193 141
3 235 143 254
3 141 143 235
3 68 160 74
3 162 160 68
3 251 162 68
3 68 74 121
3 121 135 68
3 68 135 251
3 223 34 121
3 121 74 223
3 223 37 34
3 223 137 37
3 228 227 245
3 236 227 228
3 245 77 228
3 228 77 138
3 138 93 228
3 93 236 228
3 43 227 236
3 236 219 43
3 3 227 43
3 43 219 151
3 43 203 3
3 43 151 7
3 7 203 43
3 45 154 15
3 15 154 181
3 194 45 15
3 15 25 194
3 15 181 25
3 137 223 54
3 54 13 92
3 92 137 54
3 74 13 54
3 54 223 74