ply
format ascii 1.0
comment https://github.com/mikedh/trimesh
element vertex 256
property float x
property float y
property float z
element face 508
property list uchar int vertex_indices
end_header
2.44583344 2.47997093 0.13873421
-3.45066619 1.18698919 -1.52641284
-1.34730792 -2.62569809 -0.98291016
-4.51096725 0.55031955 -0.12146834
-3.66202044 0.68082738 1.63193178
-0.26304689 -0.35712007 -2.89714837
2.90786791 0.06296007 2.26292825
-4.19165897 0.13547918 -1.19162774
2.17039490 0.00197654 -2.57764864
-2.07111168 -1.78338361 1.91283083
2.60102963 -1.93599176 -1.44552946
0.05090706 -2.92873740 -0.18021378
-3.59043717 0.32783380 1.79587448
-2.17633057 -0.59405524 -2.50627804
-0.91303611 2.47124791 1.46636605
1.03345478 0.73595726 2.75262976
3.10474229 1.57003534 1.48336923
0.38103941 -1.26199818 2.62837172
1.47814894 -2.32182169 -1.52024424
1.38695621 -1.89669776 -2.04936242
0.84930736 0.91497344 -2.72465110
0.73554748 -2.71237588 1.01272285
2.99909091 1.07084346 1.94247699
3.49371529 -0.80324423 1.72265530
-1.00697505 -2.17010593 1.86139691
2.18112302 0.90569860 2.40950441
-3.93754148 -1.50200975 -0.18397984
1.81455481 2.57880473 0.78475696
0.60685563 -0.92624164 -2.74754119
-0.12352668 1.74873447 -2.34627819
-1.85270238 2.04605746 -1.73199666
-4.51601601 0.27844444 0.46766701
3.77016091 0.45054060 1.61019671
3.07884550 -1.80692935 1.21188569
-1.62719142 -1.84067750 -2.02817559
-3.60712671 -1.75284648 -0.48092368
2.23765016 0.55165040 -2.49358320
-0.72857785 -1.40099847 -2.52641487
3.55481887 1.66205812 -0.83231956
-0.72155172 -2.89738798 -0.06061590
-4.53266716 -0.17225271 0.45288098
4.47943163 -0.65436953 -0.08050966
0.33737296 0.47082320 -2.87746811
-4.28917885 0.93584764 -0.48274717
0.14384301 -2.70550919 -1.12900376
0.44604671 0.80227596 2.79786682
0.00892985 2.88374615 -0.53879207
-0.19050115 -2.60467935 1.34180772
2.30480957 -2.08197880 1.44706595
2.29417014 1.77374232 1.81409597
1.48353755 -2.77514458 -0.10870314
0.56509024 2.53852034 -1.42268026
-0.40919632 2.36353207 1.71265602
1.21654868 -1.12970734 2.58509016
-1.95239007 -0.95179200 -2.47110963
-2.49943113 2.45056295 0.24886768
3.35044479 1.69378901 1.07611525
-2.82292604 -2.14585853 0.86717248
1.81819785 -0.69416946 2.59533238
-2.89453459 -0.31879994 -2.24779582
-2.74995613 -1.41827476 1.86935449
2.91107154 -1.18654084 1.92929173
3.06758380 2.18263912 -0.10130313
-2.96500993 0.20000705 -2.22463036
2.15509510 2.57487869 -0.29342285
2.68279862 1.96405435 -1.34521675
-0.35329738 2.11595821 -2.01383758
-0.43299952 1.15827584 2.67213440
-3.33666873 -0.98357737 -1.75701189
1.38929081 0.77139765 -2.67847800
3.76095653 -1.68308139 0.12213613
0.74143088 -2.56372738 -1.34369302
2.40095091 0.11992963 2.48981500
3.77267838 -1.03622198 1.31243527
-2.85604954 -1.01116300 -2.05743837
-0.41159752 2.86403942 0.57764626
-1.95579696 1.33823311 2.28477049
-3.08580899 2.11253810 0.51860327
3.06938672 1.65563035 -1.41909826
0.11380948 2.78748059 -0.90993249
-1.64296925 -1.18741429 2.46088195
4.50499010 0.01196267 -0.58080471
1.73231888 -0.31564951 2.68901420
1.89210451 -1.85267627 1.92071176
1.74591482 2.71384764 0.03284732
-1.24937987 -0.00114645 2.81318474
-2.14358115 0.14169209 2.58255863
4.19561958 0.19909921 1.17876327
-4.45871592 -0.64468616 0.30417755
4.53969193 -0.33703059 -0.30940291
-2.64771724 -0.22050126 2.37937927
-3.40131760 0.52911395 -1.89376616
-1.52024591 -0.53498203 -2.70711517
-3.24375486 1.87016547 -0.90526640
0.89781177 -1.80821621 2.22984743
2.20347643 -1.84720325 -1.78809536
-2.07658148 2.34031510 -1.16828847
4.40893698 0.51580936 -0.64652908
-1.65832078 -0.79299831 2.60928583
3.48083615 -1.88099396 -0.36978149
3.56248665 -0.24464345 1.83014369
2.10156322 1.02063394 -2.39291620
-3.50879741 1.45732772 1.20712364
-2.03475642 -2.61041021 -0.32857251
-0.72667831 -2.70977712 1.02166057
3.65120959 -1.61466706 0.75051165
-2.30291080 1.00336802 -2.32415748
4.07282066 -0.83162338 -1.07219350
1.44975126 2.09180737 -1.83148313
2.65335870 1.61920202 -1.76046193
-1.11395466 -2.31946683 -1.64572632
-0.37923989 -2.25477767 -1.85437477
-1.74496341 -0.41849661 2.67293763
-4.07312202 -1.25522625 -0.52310532
3.45541048 1.06438994 1.61042631
0.23717070 -2.17245221 -1.95893264
-3.80976415 0.95712411 1.32932222
-1.21484494 2.08389473 -1.90679753
0.51048350 2.17942929 -1.92992687
3.77298737 0.25833926 -1.64962900
1.40263188 0.28853345 -2.76879311
-2.43845820 -1.74588048 -1.76541126
4.30518150 -0.75986242 0.69149214
1.16042733 -1.06167495 -2.62346530
-3.55227208 -1.82716465 0.36106631
-3.41106224 -1.78783107 0.81691653
-0.79043859 1.69135368 -2.33666086
1.14517903 2.13372135 1.86918890
-3.61999321 0.77874428 -1.62554848
3.02115107 0.46131542 2.15466046
-3.11911345 -2.15519071 -0.04461641
0.36038354 -0.35407424 -2.89258957
-2.42704988 2.42569113 -0.56837714
-1.13706386 -1.86928773 2.13553524
-1.21790564 0.48452002 2.77709627
-3.69838738 -1.53590798 -0.81890357
-4.29158068 -0.87990206 -0.57335150
-1.38806129 -0.90401900 -2.63701558
-2.89974976 2.19199681 -0.61336911
-1.73035622 2.68046403 0.45389780
-0.63162476 -2.86064625 0.51370502
-1.76500487 1.83214962 1.98864925
0.53304297 1.79485250 -2.28755045
-2.04229712 2.05680990 1.63146353
-3.59724855 -1.18431878 1.38541949
3.42564702 1.82520521 0.70138246
-3.19825244 -0.15372439 2.09415817
0.35352153 -2.89640474 0.40912965
4.03734779 1.40133452 -0.07275816
2.72736955 -0.58173501 -2.28055263
-0.56066591 -0.07264993 2.90062404
-3.98799944 0.78855449 -1.22280204
2.28862119 1.33735240 2.15612221
-0.09875138 1.13218272 -2.69591594
0.80986744 0.16303310 2.87282968
-4.29145622 0.34404176 0.99019182
-1.61025345 -2.74800706 -0.06179034
-2.38465500 -2.10634112 1.35729563
-0.41619790 -1.99654257 2.12632966
-2.79573822 0.84249991 -2.16436291
-3.30107141 -0.54123938 -1.96127450
-2.86277056 -1.80500269 1.41363895
-4.04025459 -0.72362489 -1.19286597
2.96485162 0.55741203 -2.16410589
4.15695906 -1.25092185 0.06685237
2.28445578 -0.28880161 2.52036047
-4.56486177 -0.30802852 -0.15726058
-0.55138314 -2.72795582 -1.01741779
4.07068014 -0.44783810 1.28185940
3.69424844 1.71661854 -0.31866461
-1.38912749 0.20137763 -2.78012228
-2.76891017 -2.31924701 -0.32182395
-0.00179122 -1.69452977 2.38659215
0.72582155 -1.69461381 -2.34102798
4.27506733 -0.49815917 -0.95277029
2.57706308 -0.86623412 2.26137543
0.23831372 2.86697936 0.60462648
-3.49617553 -0.91071969 1.66728115
-0.39415920 1.74603951 2.33749294
1.08783567 -0.49324623 -2.79796958
-1.58462882 -2.69362307 -0.57210726
1.80056775 0.54432672 2.63445044
-1.56799948 1.22007990 -2.46488667
1.55913174 -2.70440269 -0.54950345
-0.81447500 2.53192806 -1.38428676
-1.74182820 0.71883768 2.60871911
-1.59992218 -2.03101397 1.84824038
3.14803433 -1.91624057 -0.94536811
-4.35686064 0.81183350 0.46200708
0.19174150 1.61151612 2.44003057
4.58149624 0.13160115 -0.19286530
0.98148525 2.84027052 -0.38727626
3.88827181 1.01343203 1.18779457
-2.49451828 1.15124738 2.17129207
1.23783469 1.51830959 2.37478065
2.34324551 -1.47247446 -2.04332519
-2.03882360 1.65520501 -2.03688812
-0.50939208 -0.53095001 2.85659266
0.48694581 -1.35315108 -2.57568598
-3.04048896 0.39777878 2.15651369
3.93669534 -1.44029999 0.46923456
1.67422032 -0.38476005 -2.69520926
2.45516586 -2.47962642 0.09689900
-4.47769547 -0.03457448 -0.65833247
2.31841469 2.38985920 -0.83733505
-3.92700219 0.09651039 1.51604712
1.97602117 -0.68919206 -2.54864049
3.17566419 -2.11757183 -0.12488382
-3.77859783 -1.42546546 0.86788678
-1.34129250 2.65927482 0.89249641
3.91515040 -0.20052560 -1.51903117
-0.93474954 2.76342702 -0.78283280
-0.94507980 -2.82121897 -0.53698212
1.13613129 2.38940191 1.53493989
2.77732444 1.45548093 1.82312393
-4.36201859 -0.90814555 -0.17057034
-4.25161219 -0.29831615 -1.06970394
3.18852925 -0.70907098 -1.98342431
-3.69134569 -0.40294650 1.69582021
-3.85943842 1.22734618 -1.01391053
-0.53949517 -1.74565375 -2.32496881
3.88711047 -1.49898636 -0.45525441
3.35280466 0.16397078 -1.99303746
-2.00252700 -1.32560110 -2.27707362
0.71807587 -0.61532199 2.82201457
-1.81987107 -2.63372803 0.56516892
-2.26007724 -1.38586235 2.13884687
-4.19120216 1.20363057 -0.03971783
-3.66785622 1.71462715 -0.42842478
-1.40990293 1.28914797 2.46869659
-3.26268888 -1.90132308 -0.80596823
2.01948333 2.07824016 1.61524856
-2.16704869 -2.37590599 1.02154005
-2.91318464 -2.24057150 0.36133561
2.94312906 1.23972130 -1.87571084
-2.95452929 1.17729688 1.90780008
-3.84094381 1.45733607 -0.68725568
2.16987729 -1.09063637 -2.33716965
-1.06855583 -0.36291897 2.82066488
2.32229376 -1.40299797 2.10059237
-2.26375222 -2.31083226 -1.08247745
-0.78443283 2.88100648 0.23813955
-0.66332597 0.06002079 -2.89210367
4.50982094 0.56659782 -0.00110536
-0.98964399 -2.01353431 -2.03073359
-3.81432772 1.55326772 0.51567250
3.71840620 0.65252590 -1.59088314
-0.82776225 0.70551097 -2.78785229
-2.33350849 -2.52669358 0.07585519
0.63442206 -2.28839946 1.78463328
-0.00972100 2.63220549 1.29276395
-3.96968508 -1.08140647 -1.00441623
-4.03939581 -0.93327081 1.04023826
0.78297281 2.69396424 1.04621696
-2.55358839 2.00133824 1.39012158
3.72258186 -0.97231263 -1.41475666
3 249 48 83
3 64 0 62
3 220 34 37
3 64 62 204
3 204 191 64
3 51 191 204
3 213 27 253
3 21 48 249
3 104 24 232
3 40 205 155
3 7 151 128
3 128 151 1
3 115 111 220
3 220 111 244
3 244 34 220
3 113 26 215
3 117 184 66
3 66 51 118
3 184 51 66
3 117 196 30
3 30 184 117
3 30 196 1
3 64 191 84
3 84 0 64
3 84 27 0
3 46 191 79
3 79 191 51
3 79 51 184
3 168 87 100
3 100 23 168
3 168 23 73
3 168 73 122
3 122 87 168
3 25 152 194
3 32 87 192
3 100 87 32
3 32 129 100
3 145 62 0
3 0 27 145
3 220 37 198
3 99 70 207
3 78 246 234
3 246 163 234
3 118 51 108
3 51 204 108
3 126 196 117
3 117 66 126
3 126 66 29
3 148 145 192
3 107 174 41
3 122 164 41
3 81 174 210
3 210 174 107
3 210 97 81
3 38 204 62
3 38 148 97
3 38 246 78
3 38 97 246
3 73 33 105
3 207 70 105
3 112 86 90
3 146 177 90
3 231 213 127
3 27 213 231
3 134 45 67
3 67 229 134
3 185 86 134
3 134 229 185
3 249 83 94
3 112 90 98
3 150 45 134
3 175 23 100
3 11 183 50
3 47 24 104
3 47 21 249
3 104 21 47
3 186 232 24
3 186 133 9
3 24 133 186
3 31 40 155
3 215 26 88
3 136 113 215
3 251 113 136
3 7 128 91
3 212 167 11
3 225 232 233
3 104 232 225
3 225 140 104
3 44 183 11
3 11 167 44
3 44 167 111
3 121 34 110
3 34 244 110
3 111 167 110
3 110 244 111
3 218 177 146
3 121 110 240
3 233 124 130
3 56 16 192
3 192 145 56
3 56 231 16
3 56 145 27
3 27 231 56
3 129 32 22
3 22 214 152
3 152 25 22
3 22 25 129
3 107 41 221
3 221 41 164
3 164 70 221
3 70 99 221
3 20 69 120
3 120 42 20
3 120 69 36
3 20 42 153
3 153 126 29
3 101 69 20
3 36 69 101
3 101 163 36
3 101 234 163
3 62 145 169
3 145 148 169
3 169 38 62
3 148 38 169
3 192 87 243
3 243 148 192
3 97 148 243
3 89 174 81
3 89 41 174
3 222 163 246
3 255 210 107
3 107 221 255
3 65 38 78
3 204 38 65
3 65 108 204
3 122 73 200
3 73 105 200
3 200 164 122
3 200 70 164
3 200 105 70
3 80 98 226
3 226 98 90
3 9 133 226
3 226 133 80
3 178 141 229
3 229 67 178
3 49 127 194
3 49 231 127
3 194 152 49
3 152 214 49
3 49 214 16
3 16 231 49
3 254 77 102
3 102 77 245
3 86 185 199
3 146 90 199
3 199 90 86
3 85 150 134
3 85 86 112
3 134 86 85
3 23 175 61
3 73 23 61
3 61 33 73
3 48 33 61
3 11 50 147
3 147 50 21
3 147 140 11
3 147 21 104
3 104 140 147
3 202 183 207
3 202 50 183
3 202 33 48
3 48 21 202
3 21 50 202
3 207 105 202
3 202 105 33
3 158 133 24
3 158 47 249
3 24 47 158
3 249 94 158
3 26 124 208
3 208 88 26
3 232 186 157
3 9 161 157
3 157 186 9
3 57 157 161
3 233 232 57
3 232 157 57
3 3 31 188
3 188 31 155
3 166 88 40
3 3 203 166
3 215 88 166
3 166 31 3
3 40 31 166
3 166 136 215
3 203 136 166
3 216 136 203
3 216 203 7
3 106 170 63
3 92 170 242
3 180 212 156
3 140 225 156
3 2 110 167
3 2 212 180
3 167 212 2
3 180 240 2
3 2 240 110
3 230 240 171
3 121 240 230
3 93 30 1
3 129 25 72
3 58 82 224
3 114 32 192
3 114 22 32
3 192 16 114
3 16 214 114
3 214 22 114
3 237 206 149
3 123 206 237
3 123 237 19
3 19 18 115
3 95 18 19
3 8 120 36
3 149 206 8
3 8 222 149
3 36 163 8
3 163 222 8
3 42 120 131
3 242 170 247
3 247 42 242
3 247 153 42
3 142 101 20
3 108 101 142
3 20 153 142
3 142 153 29
3 118 108 142
3 142 66 118
3 29 66 142
3 234 101 109
3 109 101 108
3 108 65 109
3 78 234 109
3 109 65 78
3 81 97 190
3 97 243 190
3 190 89 81
3 41 89 190
3 122 41 190
3 190 87 122
3 190 243 87
3 119 222 246
3 210 222 119
3 246 97 119
3 97 210 119
3 149 222 217
3 217 222 210
3 210 255 217
3 217 237 149
3 10 18 95
3 183 18 10
3 60 177 144
3 144 161 60
3 60 90 177
3 60 226 90
3 60 161 9
3 9 226 60
3 189 178 67
3 189 45 194
3 189 67 45
3 194 127 189
3 127 178 189
3 176 84 191
3 176 191 46
3 253 27 176
3 27 84 176
3 46 241 176
3 241 75 176
3 209 139 254
3 209 241 139
3 209 75 241
3 141 14 143
3 143 209 254
3 14 209 143
3 253 176 250
3 250 176 75
3 250 213 253
3 75 209 250
3 250 209 14
3 141 178 52
3 52 14 141
3 52 250 14
3 52 178 127
3 127 213 52
3 213 250 52
3 254 139 55
3 55 77 254
3 139 132 55
3 138 77 55
3 55 132 138
3 146 199 12
3 12 218 146
3 205 218 12
3 193 199 185
3 80 133 172
3 172 17 80
3 133 158 172
3 94 17 172
3 172 158 94
3 197 98 80
3 80 17 197
3 224 150 197
3 197 17 224
3 239 61 175
3 175 58 239
3 239 83 48
3 48 61 239
3 239 94 83
3 125 161 144
3 144 208 125
3 125 57 161
3 125 208 124
3 125 124 233
3 233 57 125
3 252 208 144
3 88 208 252
3 144 177 252
3 177 218 252
3 40 88 252
3 205 40 252
3 252 218 205
3 251 136 162
3 136 216 162
3 106 63 159
3 159 63 91
3 1 196 159
3 196 106 159
3 159 128 1
3 159 91 128
3 170 92 13
3 59 63 13
3 13 63 170
3 13 74 59
3 180 156 103
3 103 240 180
3 171 240 103
3 140 156 39
3 39 156 212
3 11 140 39
3 39 212 11
3 135 113 251
3 121 230 135
3 171 130 35
3 35 230 171
3 35 124 26
3 35 130 124
3 35 135 230
3 26 113 35
3 113 135 35
3 139 241 211
3 211 132 139
3 211 241 46
3 46 79 211
3 211 79 184
3 184 30 96
3 96 211 184
3 132 211 96
3 138 132 96
3 30 93 96
3 96 93 138
3 181 72 25
3 82 72 181
3 100 129 6
3 129 72 6
3 6 175 100
3 53 17 94
3 94 239 53
3 53 239 58
3 224 17 53
3 53 58 224
3 183 44 71
3 71 18 183
3 115 18 71
3 111 115 71
3 71 44 111
3 173 198 123
3 123 19 173
3 173 19 115
3 173 115 220
3 220 198 173
3 242 42 5
3 42 131 5
3 5 92 242
3 123 198 28
3 28 5 131
3 28 198 37
3 37 5 28
3 179 131 120
3 179 28 131
3 179 206 123
3 123 28 179
3 182 170 106
3 182 247 170
3 182 106 196
3 196 126 182
3 126 153 182
3 153 247 182
3 237 217 195
3 95 19 195
3 195 19 237
3 195 217 255
3 195 10 95
3 255 10 195
3 187 255 221
3 187 10 255
3 187 221 99
3 187 99 207
3 207 183 187
3 183 10 187
3 229 141 76
3 141 193 76
3 76 185 229
3 76 193 185
3 4 12 199
3 155 205 4
3 205 12 4
3 150 85 238
3 238 197 150
3 238 85 112
3 112 98 238
3 98 197 238
3 59 74 160
3 7 91 160
3 160 216 7
3 160 162 216
3 160 63 59
3 91 63 160
3 137 5 37
3 92 5 137
3 248 156 225
3 248 103 156
3 248 225 233
3 171 103 248
3 233 130 248
3 248 130 171
3 227 188 245
3 3 188 227
3 1 151 219
3 219 93 1
3 219 236 93
3 82 181 154
3 224 82 154
3 45 150 154
3 154 150 224
3 175 6 165
3 165 6 72
3 165 58 175
3 165 72 82
3 82 58 165
3 120 8 201
3 201 179 120
3 201 8 206
3 206 179 201
3 155 4 116
3 116 188 155
3 116 102 245
3 245 188 116
3 199 193 235
3 235 4 199
3 254 102 235
3 102 116 235
3 235 116 4
3 235 193 141
3 235 143 254
3 141 143 235
3 68 160 74
3 162 160 68
3 251 162 68
3 68 74 121
3 121 135 68
3 68 135 251
3 223 34 121
3 121 74 223
3 223 37 34
3 223 137 37
3 228 227 245
3 236 227 228
3 245 77 228
3 228 77 138
3 138 93 228
3 93 236 228
3 43 227 236
3 236 219 43
3 3 227 43
3 43 219 151
3 43 203 3
3 43 151 7
3 7 203 43
3 45 154 15
3 15 154 181
3 194 45 15
3 15 25 194
3 15 181 25
3 137 223 54
3 54 13 92
3 92 137 54
3 74 13 54
3 54 223 74