ply
format ascii 1.0
comment https://github.com/mikedh/trimesh
element vertex 256
property float x
property float y
property float z
element face 508
property list uchar int vertex_indices
end_header
2.09284997 2.57100201 0.18642396
-2.95266461 1.23055947 -2.05111575
-1.15286398 -2.72207832 -1.32078457
-3.85994291 0.57051986 -0.16322297
-3.13351631 0.70581824 2.19290686
-0.22508386 -0.37022871 -3.89304042
2.48820353 0.06527111 3.04080772
-3.58671737 0.14045215 -1.60124874
1.85716271 0.00204909 -3.46371293
-1.77220809 -1.84884548 2.57036448
2.22564816 -2.00705528 -1.94242895
0.04356013 -3.03624105 -0.24216211
-3.07226372 0.33986744 2.41320467
-1.86224174 -0.61586094 -3.36780858
-0.78126639 2.56195879 1.97042799
0.88430619 0.76297170 3.69884372
2.65666461 1.62766588 1.99327600
0.32604766 -1.30832171 3.53187203
1.26482189 -2.40704751 -2.04282689
1.18679023 -1.96631885 -2.75382876
0.72673500 0.94855899 -3.66124725
0.62939298 -2.81193781 1.36084545
2.56626081 1.11015046 2.61020160
2.98950100 -0.83272856 2.31481647
-0.86164802 -2.24976277 2.50125051
1.86634254 0.93894362 3.23776913
-3.36927390 -1.55714333 -0.24722272
1.55267763 2.67346382 1.05451643
0.51927400 -0.96024078 -3.69200611
-0.10569927 1.81292450 -3.15280914
-1.58531964 2.12116098 -2.32736897
-3.86426306 0.28866518 0.62842709
3.22604990 0.46707836 2.16370034
2.63450551 -1.87325537 1.62847018
-1.39235461 -1.90824234 -2.72535920
-3.08654499 -1.81718743 -0.64624071
1.91471159 0.57189959 -3.35074997
-0.62342924 -1.45242429 -3.39486766
3.04178596 1.72306657 -1.11842859
-0.61741710 -3.00374103 -0.08145256
-3.87851095 -0.17857552 0.60855836
3.83295822 -0.67838913 -0.10818478
0.28868315 0.48810548 -3.86659503
-3.67016292 0.97019935 -0.64869106
0.12308353 -2.80481887 -1.51709771
0.38167307 0.83172470 3.75963092
0.00764109 2.98959851 -0.72400135
-0.16300796 -2.70028806 1.80305278
1.97217870 -2.15840101 1.94449353
1.96307468 1.83885014 2.43768978
1.26943278 -2.87701035 -0.14606974
0.48353621 2.63170052 -1.91172528
-0.35014096 2.45028925 2.30137992
1.04097593 -1.17117500 3.47371268
-1.67062032 -0.98672897 -3.32055116
-2.13871241 2.54051447 0.33441570
2.86690736 1.75596201 1.44602883
-2.41552019 -2.22462535 1.16526222
1.55579484 -0.71964997 3.48747540
-2.47679424 -0.33050197 -3.02047372
-2.35308146 -1.47033465 2.51194334
2.49094462 -1.23009467 2.59248400
2.62486911 2.26275635 -0.13612598
-2.53709865 0.20734861 -2.98934484
1.84407103 2.66939354 -0.39428666
2.29561615 2.03614807 -1.80763364
-0.30230936 2.19362760 -2.70609236
-0.37050888 1.20079207 3.59067798
-2.85511947 -1.01968110 -2.36098289
1.18878782 0.79971296 -3.59920216
3.21817398 -1.74486148 0.16412030
0.63442731 -2.65783286 -1.80558634
2.05444479 0.12433183 3.34568667
3.22820401 -1.07425809 1.76358366
-2.44386339 -1.04827929 -2.76468086
-0.35219562 2.96916819 0.77621162
-1.67353559 1.38735497 3.07015824
-2.64046383 2.19008183 0.69687265
2.62641168 1.71640289 -1.90691185
0.09738445 2.88979936 -1.22272086
-1.40585530 -1.23100007 3.30680776
3.85482812 0.01240178 -0.78045577
1.48230994 -0.32723591 3.61336040
1.61903524 -1.92068160 2.58095455
1.49394369 2.81346369 0.04413855
-1.06906891 -0.00118853 3.78021431
-1.83421886 0.14689310 3.47031069
3.59010625 0.20640746 1.58396208
-3.81523228 -0.66835040 0.40873829
3.88452196 -0.34940180 -0.41575986
-2.26559782 -0.22859509 3.19728851
-2.91043806 0.54853588 -2.54474640
-1.30084336 -0.55461937 -3.63768339
-2.77561498 1.93881273 -1.21645081
0.76823926 -1.87458956 2.99635530
1.88546991 -1.91500759 -2.40275145
-1.77688849 2.42621994 -1.56988657
3.77263761 0.53474295 -0.86877286
-1.41899133 -0.82210654 3.50622535
2.97848058 -1.95003867 -0.49689353
3.04834723 -0.25362346 2.45925379
1.79826486 1.05809784 -3.21547890
-3.00240636 1.51082110 1.62207127
-1.74109960 -2.70622945 -0.44151899
-0.62180382 -2.80924368 1.37285542
3.12426567 -1.67393589 1.00849926
-1.97055399 1.04019821 -3.12308455
3.48502946 -0.86214942 -1.44075906
1.24052262 2.16859031 -2.46105385
2.27042484 1.67863727 -2.36561918
-0.95318824 -2.40460634 -2.21144319
-0.32450786 -2.33754253 -2.49181437
-1.49312961 -0.43385816 3.59175754
-3.48528767 -1.30130124 -0.70292228
2.95672441 1.10345995 2.16400886
0.20294213 -2.25219560 -2.63231397
-3.25993752 0.99225682 1.78627551
-1.03951812 2.16038728 -2.56225753
0.43681034 2.25942850 -2.59333730
3.22846842 0.26782200 -2.21668744
1.20020342 0.29912451 -3.72056317
-2.08653903 -1.80996561 -2.37226987
3.68385601 -0.78775430 0.92919195
0.99295396 -1.10064530 -3.52527905
-3.03960681 -1.89423347 0.48518249
-2.91877651 -1.85345614 1.09773076
-0.67636216 1.75343740 -3.13988590
0.97990632 2.21204281 2.51172090
-3.09755445 0.80732924 -2.18432927
2.58513737 0.47824872 2.89532280
-2.66896176 -2.23430014 -0.05995325
0.30837286 -0.36707106 -3.88691449
-2.07677698 2.51472974 -0.76375622
-0.97296238 -1.93790269 2.86962342
-1.04213703 0.50230509 3.73172045
-3.16463470 -1.59228587 -1.10040081
-3.67221808 -0.91220021 -0.77044058
-1.18773580 -0.93720239 -3.54348707
-2.48125672 2.27245760 -0.82421416
-1.48063064 2.77885461 0.60992473
-0.54046845 -2.96565056 0.69029063
-1.51027870 1.89940143 2.67224550
0.45611399 1.86073518 -3.07389379
-1.74755204 2.13230824 2.19227767
-3.07809234 -1.22779107 1.86165607
2.93125653 1.89220214 0.94248199
-2.73667955 -0.15936708 2.81402302
0.30250117 -3.00272179 0.54976755
3.45467615 1.45277262 -0.09776872
2.33375454 -0.60308850 -3.06449032
-0.47975042 -0.07531666 3.89771104
-3.41244984 0.81749958 -1.64313912
1.95832646 1.38644195 2.89728713
-0.08449955 1.17374122 -3.62263441
0.69298708 0.16901748 3.86036229
-3.67211151 0.35667035 1.33056927
-1.37786102 -2.84887671 -0.08303071
-2.04050064 -2.18365765 1.82386470
-0.35613206 -2.06982875 2.85725355
-2.39225626 0.87342519 -2.90836048
-2.82465935 -0.56110638 -2.63546085
-2.44961452 -1.87125814 1.89957595
-3.45716357 -0.75018668 -1.60291255
2.53696299 0.57787269 -2.90801525
3.55702519 -1.29683876 0.08983281
1.95476222 -0.29940251 3.38673210
-3.90605927 -0.31933519 -0.21131876
-0.47180730 -2.82808948 -1.36715424
3.48319793 -0.46427667 1.72249734
3.16109324 1.77962971 -0.42820528
-1.18864810 0.20876950 -3.73578668
-2.36929989 -2.40437841 -0.43245065
-0.00153271 -1.75673008 3.20698094
0.62107068 -1.75681722 -3.14575410
3.65808797 -0.51644486 -1.28028417
2.20514035 -0.89803058 3.03872108
0.20392020 2.97221637 0.81246626
-2.99160600 -0.94414908 2.24040747
-0.33727399 1.81013060 3.14100385
0.93083882 -0.51135159 -3.75976896
-1.35593450 -2.79249668 -0.76876861
1.54070914 0.56430703 3.54004049
-1.34170520 1.26486480 -3.31218910
1.33411717 -2.80367208 -0.73839480
-0.69692969 2.62486625 -1.86013401
-1.49044693 0.74522370 3.50546360
-1.36902082 -2.10556531 2.48357129
2.69370866 -1.98657918 -1.27033758
-3.72807670 0.84163308 0.62082160
0.16406929 1.67066932 3.27878857
3.92029309 0.13643178 -0.25916255
0.83983690 2.94452691 -0.52040213
3.32711482 1.05063164 1.59609783
-2.13450861 1.19350564 2.91767168
1.05918992 1.57404149 3.19110918
2.00506735 -1.52652383 -2.74571633
-1.74457979 1.71596181 -2.73706651
-0.43587643 -0.55043930 3.83854389
0.41666961 -1.40282059 -3.46107554
-2.60168457 0.41237986 2.89781332
3.36855006 -1.49316835 0.63053346
1.43259621 -0.39888328 -3.62168479
2.10083532 -2.57064486 0.13020794
-3.83147287 -0.03584359 -0.88463360
1.98382032 2.47758269 -1.12516820
-3.36025572 0.10005295 2.03718686
1.69084108 -0.71448988 -3.42473340
2.71735120 -2.19530034 -0.16781253
-3.23326921 -1.47778928 1.16622210
-1.14771664 2.75688744 1.19929123
3.35011435 -0.20788619 -2.04119682
-0.79984611 2.86486292 -1.05193079
-0.80868554 -2.92477608 -0.72156924
0.97216433 2.47710872 2.06257391
2.37650013 1.50890660 2.44982100
-3.73249030 -0.94148040 -0.22920373
-3.63801789 -0.30926630 -1.43741369
2.72835946 -0.73509848 -2.66522455
-3.15860939 -0.41773725 2.27875686
-3.30244279 1.27239776 -1.36244142
-0.46163502 -1.80973065 -3.12417483
3.32612133 -1.55400884 -0.61174768
2.86892653 0.16998957 -2.67814231
-1.71352148 -1.37425935 -3.05981565
0.61444288 -0.63790834 3.79207945
-1.55722654 -2.73040295 0.75944519
-1.93390203 -1.43673253 2.87407327
-3.58632636 1.24781168 -0.05337080
-3.13850975 1.77756512 -0.57569540
-1.20642531 1.33646810 3.31730866
-2.79181647 -1.97111404 -1.08301902
1.72803080 2.15452504 2.17048860
-1.85429931 -2.46311736 1.37269342
-2.49275279 -2.32281494 0.48554438
2.51837540 1.28522718 -2.52048469
-2.52813053 1.22051144 2.56360459
-3.28661752 1.51082981 -0.92349917
1.85671985 -1.13066983 -3.14056945
-0.91434145 -0.37624046 3.79026556
1.98713946 -1.45449710 2.82266903
-1.93704665 -2.39565492 -1.45457816
-0.67122322 2.98675823 0.31999981
-0.56759453 0.06222394 -3.88626146
3.85896182 0.58739567 -0.00148532
-0.84681821 -2.08744407 -2.72879648
-3.26384258 1.61028278 0.69293445
3.18176436 0.67647785 -2.13774776
-0.70829928 0.73140782 -3.74617386
-1.99673557 -2.61943960 0.10193034
0.54286206 -2.37239885 2.39809918
-0.00831806 2.72882462 1.73715031
-3.39677858 -1.12110114 -1.34968328
-3.45642877 -0.96752793 1.39781928
0.66997391 2.79285026 1.40585303
-2.18505359 2.07480049 1.86797452
3.18533754 -1.00800288 -1.90107787
3 249 48 83
3 64 0 62
3 220 34 37
3 64 62 204
3 204 191 64
3 51 191 204
3 213 27 253
3 21 48 249
3 104 24 232
3 40 205 155
3 7 151 128
3 128 151 1
3 115 111 220
3 220 111 244
3 244 34 220
3 113 26 215
3 117 184 66
3 66 51 118
3 184 51 66
3 117 196 30
3 30 184 117
3 30 196 1
3 64 191 84
3 84 0 64
3 84 27 0
3 46 191 79
3 79 191 51
3 79 51 184
3 168 87 100
3 100 23 168
3 168 23 73
3 168 73 122
3 122 87 168
3 25 152 194
3 32 87 192
3 100 87 32
3 32 129 100
3 145 62 0
3 0 27 145
3 220 37 198
3 99 70 207
3 78 246 234
3 246 163 234
3 118 51 108
3 51 204 108
3 126 196 117
3 117 66 126
3 126 66 29
3 148 145 192
3 107 174 41
3 122 164 41
3 81 174 210
3 210 174 107
3 210 97 81
3 38 204 62
3 38 148 97
3 38 246 78
3 38 97 246
3 73 33 105
3 207 70 105
3 112 86 90
3 146 177 90
3 231 213 127
3 27 213 231
3 134 45 67
3 67 229 134
3 185 86 134
3 134 229 185
3 249 83 94
3 112 90 98
3 150 45 134
3 175 23 100
3 11 183 50
3 47 24 104
3 47 21 249
3 104 21 47
3 186 232 24
3 186 133 9
3 24 133 186
3 31 40 155
3 215 26 88
3 136 113 215
3 251 113 136
3 7 128 91
3 212 167 11
3 225 232 233
3 104 232 225
3 225 140 104
3 44 183 11
3 11 167 44
3 44 167 111
3 121 34 110
3 34 244 110
3 111 167 110
3 110 244 111
3 218 177 146
3 121 110 240
3 233 124 130
3 56 16 192
3 192 145 56
3 56 231 16
3 56 145 27
3 27 231 56
3 129 32 22
3 22 214 152
3 152 25 22
3 22 25 129
3 107 41 221
3 221 41 164
3 164 70 221
3 70 99 221
3 20 69 120
3 120 42 20
3 120 69 36
3 20 42 153
3 153 126 29
3 101 69 20
3 36 69 101
3 101 163 36
3 101 234 163
3 62 145 169
3 145 148 169
3 169 38 62
3 148 38 169
3 192 87 243
3 243 148 192
3 97 148 243
3 89 174 81
3 89 41 174
3 222 163 246
3 255 210 107
3 107 221 255
3 65 38 78
3 204 38 65
3 65 108 204
3 122 73 200
3 73 105 200
3 200 164 122
3 200 70 164
3 200 105 70
3 80 98 226
3 226 98 90
3 9 133 226
3 226 133 80
3 178 141 229
3 229 67 178
3 49 127 194
3 49 231 127
3 194 152 49
3 152 214 49
3 49 214 16
3 16 231 49
3 254 77 102
3 102 77 245
3 86 185 199
3 146 90 199
3 199 90 86
3 85 150 134
3 85 86 112
3 134 86 85
3 23 175 61
3 73 23 61
3 61 33 73
3 48 33 61
3 11 50 147
3 147 50 21
3 147 140 11
3 147 21 104
3 104 140 147
3 202 183 207
3 202 50 183
3 202 33 48
3 48 21 202
3 21 50 202
3 207 105 202
3 202 105 33
3 158 133 24
3 158 47 249
3 24 47 158
3 249 94 158
3 26 124 208
3 208 88 26
3 232 186 157
3 9 161 157
3 157 186 9
3 57 157 161
3 233 232 57
3 232 157 57
3 3 31 188
3 188 31 155
3 166 88 40
3 3 203 166
3 215 88 166
3 166 31 3
3 40 31 166
3 166 136 215
3 203 136 166
3 216 136 203
3 216 203 7
3 106 170 63
3 92 170 242
3 180 212 156
3 140 225 156
3 2 110 167
3 2 212 180
3 167 212 2
3 180 240 2
3 2 240 110
3 230 240 171
3 121 240 230
3 93 30 1
3 129 25 72
3 58 82 224
3 114 32 192
3 114 22 32
3 192 16 114
3 16 214 114
3 214 22 114
3 237 206 149
3 123 206 237
3 123 237 19
3 19 18 115
3 95 18 19
3 8 120 36
3 149 206 8
3 8 222 149
3 36 163 8
3 163 222 8
3 42 120 131
3 242 170 247
3 247 42 242
3 247 153 42
3 142 101 20
3 108 101 142
3 20 153 142
3 142 153 29
3 118 108 142
3 142 66 118
3 29 66 142
3 234 101 109
3 109 101 108
3 108 65 109
3 78 234 109
3 109 65 78
3 81 97 190
3 97 243 190
3 190 89 81
3 41 89 190
3 122 41 190
3 190 87 122
3 190 243 87
3 119 222 246
3 210 222 119
3 246 97 119
3 97 210 119
3 149 222 217
3 217 222 210
3 210 255 217
3 217 237 149
3 10 18 95
3 183 18 10
3 60 177 144
3 144 161 60
3 60 90 177
3 60 226 90
3 60 161 9
3 9 226 60
3 189 178 67
3 189 45 194
3 189 67 45
3 194 127 189
3 127 178 189
3 176 84 191
3 176 191 46
3 253 27 176
3 27 84 176
3 46 241 176
3 241 75 176
3 209 139 254
3 209 241 139
3 209 75 241
3 141 14 143
3 143 209 254
3 14 209 143
3 253 176 250
3 250 176 75
3 250 213 253
3 75 209 250
3 250 209 14
3 141 178 52
3 52 14 141
3 52 250 14
3 52 178 127
3 127 213 52
3 213 250 52
3 254 139 55
3 55 77 254
3 139 132 55
3 138 77 55
3 55 132 138
3 146 199 12
3 12 218 146
3 205 218 12
3 193 199 185
3 80 133 172
3 172 17 80
3 133 158 172
3 94 17 172
3 172 158 94
3 197 98 80
3 80 17 197
3 224 150 197
3 197 17 224
3 239 61 175
3 175 58 239
3 239 83 48
3 48 61 239
3 239 94 83
3 125 161 144
3 144 208 125
3 125 57 161
3 125 208 124
3 125 124 233
3 233 57 125
3 252 208 144
3 88 208 252
3 144 177 252
3 177 218 252
3 40 88 252
3 205 40 252
3 252 218 205
3 251 136 162
3 136 216 162
3 106 63 159
3 159 63 91
3 1 196 159
3 196 106 159
3 159 128 1
3 159 91 128
3 170 92 13
3 59 63 13
3 13 63 170
3 13 74 59
3 180 156 103
3 103 240 180
3 171 240 103
3 140 156 39
3 39 156 212
3 11 140 39
3 39 212 11
3 135 113 251
3 121 230 135
3 171 130 35
3 35 230 171
3 35 124 26
3 35 130 124
3 35 135 230
3 26 113 35
3 113 135 35
3 139 241 211
3 211 132 139
3 211 241 46
3 46 79 211
3 211 79 184
3 184 30 96
3 96 211 184
3 132 211 96
3 138 132 96
3 30 93 96
3 96 93 138
3 181 72 25
3 82 72 181
3 100 129 6
3 129 72 6
3 6 175 100
3 53 17 94
3 94 239 53
3 53 239 58
3 224 17 53
3 53 58 224
3 183 44 71
3 71 18 183
3 115 18 71
3 111 115 71
3 71 44 111
3 173 198 123
3 123 19 173
3 173 19 115
3 173 115 220
3 220 198 173
3 242 42 5
3 42 131 5
3 5 92 242
3 123 198 28
3 28 5 131
3 28 198 37
3 37 5 28
3 179 131 120
3 179 28 131
3 179 206 123
3 123 28 179
3 182 170 106
3 182 247 170
3 182 106 196
3 196 126 182
3 126 153 182
3 153 247 182
3 237 217 195
3 95 19 195
3 195 19 237
3 195 217 255
3 195 10 95
3 255 10 195
3 187 255 221
3 187 10 255
3 187 221 99
3 187 99 207
3 207 183 187
3 183 10 187
3 229 141 76
3 141 193 76
3 76 185 229
3 76 193 185
3 4 12 199
3 155 205 4
3 205 12 4
3 150 85 238
3 238 197 150
3 238 85 112
3 112 98 238
3 98 197 238
3 59 74 160
3 7 91 160
3 160 216 7
3 160 162 216
3 160 63 59
3 91 63 160
3 137 5 37
3 92 5 137
3 248 156 225
3 248 103 156
3 248 225 233
3 171 103 248
3 233 130 248
3 248 130 171
3 227 188 245
3 3 188 227
3 1 151 219
3 219 93 1
3 219 236 93
3 82 181 154
3 224 82 154
3 45 150 154
3 154 150 224
3 175 6 165
3 165 6 72
3 165 58 175
3 165 72 82
3 82 58 165
3 120 8 201
3 201 179 120
3 201 8 206
3 206 179 201
3 155 4 116
3 116 188 155
3 116 102 245
3 245 188 116
3 199 193 235
3 235 4 199
3 254 102 235
3 102 116 235
3 235 116 4
3 235 193 141
3 235 143 254
3 141 143 235
3 68 160 74
3 162 160 68
3 251 162 68
3 68 74 121
3 121 135 68
3 68 135 251
3 223 34 121
3 121 74 223
3 223 37 34
3 223 137 37
3 228 227 245
3 236 227 228
3 245 77 228
3 228 77 138
3 138 93 228
3 93 236 228
3 43 227 236
3 236 219 43
3 3 227 43
3 43 219 151
3 43 203 3
3 43 151 7
3 7 203 43
3 45 154 15
3 15 154 181
3 194 45 15
3 15 25 194
3 15 181 25
3 137 223 54
3 54 13 92
3 92 137 54
3 74 13 54
3 54 223 74