ply
format ascii 1.0
comment https://github.com/mikedh/trimesh
element vertex 256
property float x
property float y
property float z
element face 508
property list uchar int vertex_indices
end_header
0.77684706 1.00279939 0.23305462
-1.09600258 0.47997019 -2.56416631
-0.42793274 -1.06172550 -1.65115559
-1.43277609 0.22252685 -0.20405033
-1.16313314 0.27529892 2.74142385
-0.08354910 -0.14440483 -4.86681604
0.92359871 0.02545849 3.80141211
-1.33135724 0.05478227 -2.00177288
0.68936211 0.00079923 -4.33009958
-0.65782768 -0.72112781 3.21329594
0.82614058 -0.78283632 -2.42829323
0.01616913 -1.18426228 -0.30273467
-1.14039671 0.13256265 3.01682544
-0.69124740 -0.24021177 -4.21020651
-0.28999907 0.99927217 2.46329594
0.32824650 0.29759118 4.62404442
0.98613000 0.63485843 2.49185896
0.12102596 -0.51030076 4.41530752
0.46949050 -0.93885022 -2.55380392
0.44052583 -0.76694745 -3.44265056
0.26975748 0.36997807 -4.57704353
0.23362502 -1.09677458 1.70123696
0.95257294 0.43300557 3.26309752
1.10967588 -0.32479930 2.89382696
-0.31983599 -0.87750256 3.12689400
0.69276959 0.36622769 4.04763985
-1.25064421 -0.60735166 -0.30906114
0.57633996 1.04276383 1.31828511
0.19274984 -0.37453446 -4.61549616
-0.03923462 0.70711714 -3.94142890
-0.58845639 0.82734239 -2.90951920
-1.43437970 0.11259161 0.78561705
1.19748068 0.18218030 2.70491195
0.97790474 -0.73064876 2.03580332
-0.51682949 -0.74429512 -3.40705967
-1.14569771 -0.70877987 -0.80788648
0.71072370 0.22306500 -4.18888092
-0.23141132 -0.56650680 -4.24403381
1.12908363 0.67206872 -1.39818382
-0.22917967 -1.17158592 -0.10182648
-1.43966830 -0.06965199 0.76077855
1.42275965 -0.26460043 -0.13524529
0.10715659 0.19038175 -4.83375549
-1.36233151 0.37841871 -0.81094968
0.04568750 -1.09399784 -1.89657295
0.14167361 0.32440779 4.70003605
0.00283630 1.16606963 -0.90509754
-0.06050709 -1.05322635 2.25405478
0.73205495 -0.84186757 2.43087435
0.72867566 0.71722925 3.04743481
0.47120205 -1.12215555 -0.18260652
0.17948429 1.02647436 -2.38990951
-0.12996918 0.95571625 2.87702966
0.38640091 -0.45680770 4.34260035
-0.62011927 -0.38486600 -4.15112829
-0.79387075 0.99090797 0.41806391
1.06417024 0.68489939 1.80772758
-0.89661944 -0.86769789 1.45673203
0.57749707 -0.28069389 4.35980606
-0.91936374 -0.12890974 -3.77599192
-0.87344265 -0.57349265 3.14026189
0.92461622 -0.47978887 3.24094820
0.97432774 0.88257051 -0.17017551
-0.94174820 0.08087472 -3.73707676
0.68450254 1.04117620 -0.49291050
0.85211211 0.79418373 -2.25978136
-0.11221451 0.85560745 -3.38297367
-0.13752957 0.46835965 4.48882294
-1.05979466 -0.39771870 -2.95154119
0.44126734 0.31192183 -4.49947929
1.19455719 -0.68056965 0.20517211
0.23549370 -1.03666711 -2.25722194
0.76259142 0.04849467 4.18255138
1.19828022 -0.41900605 2.20471311
-0.90714008 -0.40887320 -3.45621729
-0.13073185 1.15810108 0.97036731
-0.62120134 0.54112709 3.83810425
-0.98011649 0.85422444 0.87118304
0.97490042 0.66946959 -2.38389230
0.03614824 1.12714386 -1.52856302
-0.52184087 -0.48014206 4.13394737
1.43087745 0.00483722 -0.97567302
0.55022013 -0.12763582 4.51717854
0.60097134 -0.74914694 3.22653508
0.55453849 1.09736967 0.05517903
-0.39682877 -0.00046358 4.72576809
-0.68084550 0.05729452 4.33834791
1.33261514 0.08050763 1.98016238
-1.41617990 -0.26068488 0.51097697
1.44189966 -0.13628146 -0.51975489
-0.84096950 -0.08916174 3.99703407
-1.08032846 0.21395217 -3.18126988
-0.48286137 -0.21632499 -4.54758596
-1.03028333 0.75621885 -1.52072465
0.28516349 -0.73116910 3.74584079
0.69986945 -0.74693388 -3.00375748
-0.65956503 0.94632828 -1.96256602
1.40036917 0.20857233 -1.08608103
-0.52671683 -0.32065627 4.38324594
1.10558522 -0.76059747 -0.62118268
1.13151908 -0.09892386 3.07439280
0.66749972 0.41270286 -4.01977444
-1.11446619 0.58928406 2.02780390
-0.64628053 -1.05554378 -0.55195719
-0.23080797 -1.09572375 1.71625113
1.15969932 -0.65290570 1.26075768
-0.73145193 0.40572125 -3.90426898
1.29361165 -0.33627468 -1.80113947
0.46047083 0.84584183 -3.07664299
0.84276134 0.65473944 -2.95733714
-0.35381490 -0.93789810 -2.76459670
-0.12045439 -0.91174036 -3.11509776
-0.55423629 -0.16922301 4.49017239
-1.29370749 -0.50756246 -0.87874585
1.09750950 0.43039599 2.70529747
0.07533029 -0.87845141 -3.29074097
-1.21005952 0.38702208 2.23308086
-0.38585976 0.84264231 -3.20316100
0.16214007 0.88127255 -3.24201512
1.19837844 0.10446189 -2.77115273
0.44550472 0.11667119 -4.65119648
-0.77450448 -0.70596308 -2.96565127
1.36741424 -0.30725747 1.16161287
0.36857560 -0.42929816 -4.40706539
-1.12827468 -0.73883110 0.60654235
-1.08342361 -0.72292620 1.37230873
-0.25105956 0.68391466 -3.92527294
0.36373240 0.86279017 3.13998365
-1.14978433 0.31489250 -2.73070073
0.95957977 0.18653719 3.61953688
-0.99069464 -0.87147146 -0.07494950
0.11446523 -0.14317322 -4.85915756
-0.77088100 0.98085082 -0.95479643
-0.36115488 -0.75586390 3.58740926
-0.38683191 0.19592020 4.66514444
-1.17468393 -0.62105876 -1.37564671
-1.36309433 -0.35579664 -0.96315271
-0.44087684 -0.36554852 -4.42982769
-0.92102015 0.88635445 -1.03037679
-0.54959679 1.08387065 0.76248670
-0.20061703 -1.15672898 0.86295474
-0.56060189 0.74084681 3.34066081
0.16930541 0.72576535 -3.84277439
-0.64867556 0.83169031 2.74063730
-1.14256012 -0.47889036 2.32731652
1.08805609 0.73803878 1.17822731
-1.01583087 -0.06215989 3.51790118
0.11228571 -1.17118835 0.68728226
1.28234470 0.56664270 -0.12222383
0.86626875 -0.23522998 -3.83101869
-0.17807904 -0.02937668 4.87265491
-1.26667070 0.31885937 -2.05414152
0.72691315 0.54077095 3.62199235
-0.03136547 0.45780864 -4.52877283
0.25723055 0.06592395 4.82596397
-1.36305475 0.13911651 1.66338778
-0.51144964 -1.11118233 -0.10379938
-0.75741547 -0.85171872 2.28007245
-0.13219301 -0.80732065 3.57194519
-0.88798404 0.34067270 -3.63583565
-1.04848814 -0.21885519 -3.29467487
-0.90927488 -0.72986972 2.37472129
-1.28326797 -0.29260448 -2.00385284
0.94169790 0.22539477 -3.63540411
1.32033575 -0.50582188 0.11230289
0.72559017 -0.11677963 4.23386335
-1.44989407 -0.12455421 -0.26417643
-0.17513064 -1.10307443 -1.70912373
1.29293180 -0.18108752 2.15334964
1.17336941 0.69413072 -0.53531331
-0.44121546 0.08142892 -4.67022800
-0.87946284 -0.93780917 -0.54062057
-0.00056893 -0.68519896 4.00915098
0.23053585 -0.68523294 -3.93260908
1.35784936 -0.20143531 -1.60052478
0.81852823 -0.35026985 3.79880381
0.07569334 1.15928996 1.01569045
-1.11045730 -0.36825803 2.80080605
-0.12519307 0.70602739 3.92667079
0.34551901 -0.19944872 -4.70020866
-0.50331074 -1.08919168 -0.96106249
0.57189739 0.22010359 4.42551899
-0.49802893 0.49335068 -4.14067507
0.49521232 -1.09355044 -0.92309123
-0.25869402 1.02380872 -2.32541370
-0.55324048 0.29066873 4.38229370
-0.50816822 -0.82125944 3.10479283
0.99988049 -0.77484977 -1.58809006
-1.38382852 0.32827246 0.77610916
0.06090105 0.65163159 4.09891987
1.45517755 0.05321416 -0.32398751
0.31173992 1.14848983 -0.65057153
1.23499513 0.40979072 1.99533355
-0.79231036 0.46551764 3.64747596
0.39316177 0.61394268 3.98930883
0.74426299 -0.59540880 -3.43250895
-0.64757234 0.66929758 -3.42169547
-0.16179341 -0.21469459 4.79868793
0.15466401 -0.54715931 -4.32680273
-0.96572191 0.16084556 3.62265015
1.25037551 -0.58239871 0.78825033
0.53176683 -0.15558133 -4.52758551
0.77981120 -1.00266016 0.16277717
-1.42220831 -0.01398051 -1.10590911
0.73637623 0.96636188 -1.40660918
-1.24729669 0.03902487 2.54675341
0.62762499 -0.27868125 -4.28137016
1.00865626 -0.85625988 -0.20978788
-1.20016050 -0.57640028 1.45793200
-0.42602208 1.07530260 1.49927282
1.24353230 -0.08108440 -2.55176616
-0.29689568 1.11741757 -1.31505275
-0.30017680 -1.14078629 -0.90205705
0.36085868 0.96617699 2.57849050
0.88213545 0.58853728 3.06260061
-1.38546681 -0.36721712 -0.28653502
-1.35039949 -0.12062692 -1.79695737
1.01274252 -0.28671947 -3.33188367
-1.17244744 -0.16293518 2.84874773
-1.22583711 0.49628890 -1.70323205
-0.17135477 -0.70587140 -3.90563202
1.23462629 -0.60612911 -0.76476556
1.06491971 0.06630311 -3.34803224
-0.63604379 -0.53601921 -3.82517457
0.22807567 -0.24881120 4.74060154
-0.57802850 -1.06497252 0.94940704
-0.71784705 -0.56038636 3.59297204
-1.33121216 0.48669928 -0.06672057
-1.16498661 0.69332552 -0.71969545
-0.44781420 0.52127898 4.14707518
-1.03629720 -0.76881772 -1.35391712
0.64142948 0.84035581 2.71339822
-0.68829924 -0.96071982 1.71604848
-0.92528743 -0.90599597 0.60699475
0.93479836 0.50129288 -3.15093946
-0.93841934 0.47605100 3.20484519
-1.21996284 0.58928740 -1.15449619
0.68919772 -0.44100901 -3.92612743
-0.33939531 -0.14674968 4.73833370
0.73760831 -0.56731534 3.52870989
-0.71901429 -0.93440664 -1.81841516
-0.24915202 1.16496181 0.40004212
-0.21068598 0.02426997 -4.85834122
1.43241191 0.22910912 -0.00185685
-0.31433129 -0.81419140 -3.41135669
-1.21150899 0.62807828 0.86625981
1.18104231 0.26385495 -2.67246771
-0.26291433 0.28527993 -4.68321323
-0.74117029 -1.02169216 0.12742642
0.20150550 -0.92533571 2.99794149
-0.00308759 1.06435680 2.17166781
-1.26085365 -0.43727681 -1.68728280
-1.28299522 -0.37737677 1.74745917
0.24868828 1.08932960 1.75750244
-0.81107229 0.80925977 2.33521557
1.18236864 -0.39316368 -2.37659907
3 249 48 83
3 64 0 62
3 220 34 37
3 64 62 204
3 204 191 64
3 51 191 204
3 213 27 253
3 21 48 249
3 104 24 232
3 40 205 155
3 7 151 128
3 128 151 1
3 115 111 220
3 220 111 244
3 244 34 220
3 113 26 215
3 117 184 66
3 66 51 118
3 184 51 66
3 117 196 30
3 30 184 117
3 30 196 1
3 64 191 84
3 84 0 64
3 84 27 0
3 46 191 79
3 79 191 51
3 79 51 184
3 168 87 100
3 100 23 168
3 168 23 73
3 168 73 122
3 122 87 168
3 25 152 194
3 32 87 192
3 100 87 32
3 32 129 100
3 145 62 0
3 0 27 145
3 220 37 198
3 99 70 207
3 78 246 234
3 246 163 234
3 118 51 108
3 51 204 108
3 126 196 117
3 117 66 126
3 126 66 29
3 148 145 192
3 107 174 41
3 122 164 41
3 81 174 210
3 210 174 107
3 210 97 81
3 38 204 62
3 38 148 97
3 38 246 78
3 38 97 246
3 73 33 105
3 207 70 105
3 112 86 90
3 146 177 90
3 231 213 127
3 27 213 231
3 134 45 67
3 67 229 134
3 185 86 134
3 134 229 185
3 249 83 94
3 112 90 98
3 150 45 134
3 175 23 100
3 11 183 50
3 47 24 104
3 47 21 249
3 104 21 47
3 186 232 24
3 186 133 9
3 24 133 186
3 31 40 155
3 215 26 88
3 136 113 215
3 251 113 136
3 7 128 91
3 212 167 11
3 225 232 233
3 104 232 225
3 225 140 104
3 44 183 11
3 11 167 44
3 44 167 111
3 121 34 110
3 34 244 110
3 111 167 110
3 110 244 111
3 218 177 146
3 121 110 240
3 233 124 130
3 56 16 192
3 192 145 56
3 56 231 16
3 56 145 27
3 27 231 56
3 129 32 22
3 22 214 152
3 152 25 22
3 22 25 129
3 107 41 221
3 221 41 164
3 164 70 221
3 70 99 221
3 20 69 120
3 120 42 20
3 120 69 36
3 20 42 153
3 153 126 29
3 101 69 20
3 36 69 101
3 101 163 36
3 101 234 163
3 62 145 169
3 145 148 169
3 169 38 62
3 148 38 169
3 192 87 243
3 243 148 192
3 97 148 243
3 89 174 81
3 89 41 174
3 222 163 246
3 255 210 107
3 107 221 255
3 65 38 78
3 204 38 65
3 65 108 204
3 122 73 200
3 73 105 200
3 200 164 122
3 200 70 164
3 200 105 70
3 80 98 226
3 226 98 90
3 9 133 226
3 226 133 80
3 178 141 229
3 229 67 178
3 49 127 194
3 49 231 127
3 194 152 49
3 152 214 49
3 49 214 16
3 16 231 49
3 254 77 102
3 102 77 245
3 86 185 199
3 146 90 199
3 199 90 86
3 85 150 134
3 85 86 112
3 134 86 85
3 23 175 61
3 73 23 61
3 61 33 73
3 48 33 61
3 11 50 147
3 147 50 21
3 147 140 11
3 147 21 104
3 104 140 147
3 202 183 207
3 202 50 183
3 202 33 48
3 48 21 202
3 21 50 202
3 207 105 202
3 202 105 33
3 158 133 24
3 158 47 249
3 24 47 158
3 249 94 158
3 26 124 208
3 208 88 26
3 232 186 157
3 9 161 157
3 157 186 9
3 57 157 161
3 233 232 57
3 232 157 57
3 3 31 188
3 188 31 155
3 166 88 40
3 3 203 166
3 215 88 166
3 166 31 3
3 40 31 166
3 166 136 215
3 203 136 166
3 216 136 203
3 216 203 7
3 106 170 63
3 92 170 242
3 180 212 156
3 140 225 156
3 2 110 167
3 2 212 180
3 167 212 2
3 180 240 2
3 2 240 110
3 230 240 171
3 121 240 230
3 93 30 1
3 129 25 72
3 58 82 224
3 114 32 192
3 114 22 32
3 192 16 114
3 16 214 114
3 214 22 114
3 237 206 149
3 123 206 237
3 123 237 19
3 19 18 115
3 95 18 19
3 8 120 36
3 149 206 8
3 8 222 149
3 36 163 8
3 163 222 8
3 42 120 131
3 242 170 247
3 247 42 242
3 247 153 42
3 142 101 20
3 108 101 142
3 20 153 142
3 142 153 29
3 118 108 142
3 142 66 118
3 29 66 142
3 234 101 109
3 109 101 108
3 108 65 109
3 78 234 109
3 109 65 78
3 81 97 190
3 97 243 190
3 190 89 81
3 41 89 190
3 122 41 190
3 190 87 122
3 190 243 87
3 119 222 246
3 210 222 119
3 246 97 119
3 97 210 119
3 149 222 217
3 217 222 210
3 210 255 217
3 217 237 149
3 10 18 95
3 183 18 10
3 60 177 144
3 144 161 60
3 60 90 177
3 60 226 90
3 60 161 9
3 9 226 60
3 189 178 67
3 189 45 194
3 189 67 45
3 194 127 189
3 127 178 189
3 176 84 191
3 176 191 46
3 253 27 176
3 27 84 176
3 46 241 176
3 241 75 176
3 209 139 254
3 209 241 139
3 209 75 241
3 141 14 143
3 143 209 254
3 14 209 143
3 253 176 250
3 250 176 75
3 250 213 253
3 75 209 250
3 250 209 14
3 141 178 52
3 52 14 141
3 52 250 14
3 52 178 127
3 127 213 52
3 213 250 52
3 254 139 55
3 55 77 254
3 139 132 55
3 138 77 55
3 55 132 138
3 146 199 12
3 12 218 146
3 205 218 12
3 193 199 185
3 80 133 172
3 172 17 80
3 133 158 172
3 94 17 172
3 172 158 94
3 197 98 80
3 80 17 197
3 224 150 197
3 197 17 224
3 239 61 175
3 175 58 239
3 239 83 48
3 48 61 239
3 239 94 83
3 125 161 144
3 144 208 125
3 125 57 161
3 125 208 124
3 125 124 233
3 233 57 125
3 252 208 144
3 88 208 252
3 144 177 252
3 177 218 252
3 40 88 252
3 205 40 252
3 252 218 205
3 251 136 162
3 136 216 162
3 106 63 159
3 159 63 91
3 1 196 159
3 196 106 159
3 159 128 1
3 159 91 128
3 170 92 13
3 59 63 13
3 13 63 170
3 13 74 59
3 180 156 103
3 103 240 180
3 171 240 103
3 140 156 39
3 39 156 212
3 11 140 39
3 39 212 11
3 135 113 251
3 121 230 135
3 171 130 35
3 35 230 171
3 35 124 26
3 35 130 124
3 35 135 230
3 26 113 35
3 113 135 35
3 139 241 211
3 211 132 139
3 211 241 46
3 46 79 211
3 211 79 184
3 184 30 96
3 96 211 184
3 132 211 96
3 138 132 96
3 30 93 96
3 96 93 138
3 181 72 25
3 82 72 181
3 100 129 6
3 129 72 6
3 6 175 100
3 53 17 94
3 94 239 53
3 53 239 58
3 224 17 53
3 53 58 224
3 183 44 71
3 71 18 183
3 115 18 71
3 111 115 71
3 71 44 111
3 173 198 123
3 123 19 173
3 173 19 115
3 173 115 220
3 220 198 173
3 242 42 5
3 42 131 5
3 5 92 242
3 123 198 28
3 28 5 131
3 28 198 37
3 37 5 28
3 179 131 120
3 179 28 131
3 179 206 123
3 123 28 179
3 182 170 106
3 182 247 170
3 182 106 196
3 196 126 182
3 126 153 182
3 153 247 182
3 237 217 195
3 95 19 195
3 195 19 237
3 195 217 255
3 195 10 95
3 255 10 195
3 187 255 221
3 187 10 255
3 187 221 99
3 187 99 207
3 207 183 187
3 183 10 187
3 229 141 76
3 141 193 76
3 76 185 229
3 76 193 185
3 4 12 199
3 155 205 4
3 205 12 4
3 150 85 238
3 238 197 150
3 238 85 112
3 112 98 238
3 98 197 238
3 59 74 160
3 7 91 160
3 160 216 7
3 160 162 216
3 160 63 59
3 91 63 160
3 137 5 37
3 92 5 137
3 248 156 225
3 248 103 156
3 248 225 233
3 171 103 248
3 233 130 248
3 248 130 171
3 227 188 245
3 3 188 227
3 1 151 219
3 219 93 1
3 219 236 93
3 82 181 154
3 224 82 154
3 45 150 154
3 154 150 224
3 175 6 165
3 165 6 72
3 165 58 175
3 165 72 82
3 82 58 165
3 120 8 201
3 201 179 120
3 201 8 206
3 206 179 201
3 155 4 116
3 116 188 155
3 116 102 245
3 245 188 116
3 199 193 235
3 235 4 199
3 254 102 235
3 102 116 235
3 235 116 4
3 235 193 141
3 235 143 254
3 141 143 235
3 68 160 74
3 162 160 68
3 251 162 68
3 68 74 121
3 121 135 68
3 68 135 251
3 223 34 121
3 121 74 223
3 223 37 34
3 223 137 37
3 228 227 245
3 236 227 228
3 245 77 228
3 228 77 138
3 138 93 228
3 93 236 228
3 43 227 236
3 236 219 43
3 3 227 43
3 43 219 151
3 43 203 3
3 43 151 7
3 7 203 43
3 45 154 15
3 15 154 181
3 194 45 15
3 15 25 194
3 15 181 25
3 137 223 54
3 54 13 92
3 92 137 54
3 74 13 54
3 54 223 74