ply
format ascii 1.0
comment https://github.com/mikedh/trimesh
element vertex 256
property float x
property float y
property float z
element face 508
property list uchar int vertex_indices
end_header
2.31980133 3.24467182 0.21510978
-3.27285576 1.55299830 -2.36672950
-1.27788210 -3.43533397 -1.52401924
-4.27852058 0.72001100 -0.18833877
-3.47331905 0.89076108 2.53033853
-0.24949227 -0.46723831 -4.49207878
2.75802755 0.08237385 3.50870943
-3.97566581 0.17725429 -1.84763944
2.05855608 0.00258600 -3.99668884
-1.96438873 -2.33329129 2.96587729
2.46700048 -2.53295612 -2.24131846
0.04828385 -3.83181572 -0.27942458
-3.40542436 0.42892161 2.78453445
-2.06418586 -0.77723259 -3.88602734
-0.86598796 3.23325920 2.27362585
0.98020154 0.96289021 4.26800013
2.94475698 2.05415678 2.29998970
0.36140472 -1.65113628 4.07533598
1.40198088 -3.03775716 -2.35716510
1.31548738 -2.48154593 -3.17757177
0.80554312 1.19710624 -4.22461843
0.69764525 -3.54873919 1.57024431
2.84454966 1.40103889 3.01184416
3.31368637 -1.05092525 2.67100668
-0.95508635 -2.83925962 2.88612819
2.06873131 1.18497145 3.73597813
-3.73464274 -1.96515560 -0.28526393
1.72105205 3.37398124 1.21677923
0.57558477 -1.21184897 -4.26011038
-0.11716145 2.28795815 -3.63794494
-1.75723386 2.67696071 -2.68549085
-4.28330898 0.36430299 0.72512579
3.57588696 0.58946514 2.49663782
2.92019486 -2.36409736 1.87904966
-1.54334342 -2.40825176 -3.14472151
-3.42125416 -2.29333806 -0.74568045
2.12234545 0.72175223 -3.86634374
-0.69103473 -1.83299744 -3.91724992
3.37164140 2.17455506 -1.29052591
-0.68437064 -3.79079986 -0.09398600
-4.29910183 -0.22536696 0.70219976
4.24860954 -0.85614485 -0.12483162
0.31998834 0.61600190 -4.46156406
-4.06816053 1.22441697 -0.74850780
0.13643087 -3.53975487 -1.75053978
0.42306224 1.04965842 4.33814096
0.00846970 3.77295136 -0.83540642
-0.18068476 -3.40783429 2.08049607
2.18604445 -2.72395849 2.24370074
2.17595315 2.32067704 2.81278706
1.40709186 -3.63086247 -0.16854610
0.53597152 3.32127500 -2.20589042
-0.38811073 3.09232903 2.65550280
1.15386081 -1.47805345 4.00822687
-1.85178471 -1.24527776 -3.83149791
-2.37063718 3.20619583 0.38587365
3.17779875 2.21607018 1.66853535
-2.67746258 -2.80753541 1.34456599
1.72450733 -0.90821713 4.02410746
-2.74538112 -0.41710216 -3.48524642
-2.60825276 -1.85560083 2.89846659
2.76106596 -1.55241168 2.99140024
2.90951347 2.85565758 -0.15707226
-2.81222510 0.26167938 -3.44932771
2.04404449 3.36884427 -0.45495719
2.54455590 2.56967211 -2.08578181
-0.33509219 2.76841545 -3.12248993
-0.41068736 1.51543105 4.14319038
-3.16473269 -1.28686428 -2.72427726
1.31770158 1.00925863 -4.15302610
3.56715703 -2.20206070 0.18937418
0.70322543 -3.35425472 -2.08341932
2.27723145 0.15691003 3.86050129
3.57827473 -1.35574186 2.03495359
-2.70887923 -1.32295585 -3.19009376
-0.39038819 3.74716806 0.89565051
-1.85501599 1.75087833 3.54257607
-2.92679954 2.76394081 0.80410331
2.91122341 2.16614532 -2.20033622
0.10794496 3.64700246 -1.41086602
-1.55830824 -1.55355430 3.81563997
4.27285099 0.01565136 -0.90054774
1.64305365 -0.41298026 4.16936302
1.79460561 -2.42395043 2.97809672
1.65594900 3.55066466 0.05093034
-1.18500018 -0.00149996 4.36189127
-2.03312397 0.18538295 4.00430202
3.97942233 0.26049161 1.82769287
-4.22896099 -0.84347564 0.47163254
4.30576515 -0.44095424 -0.47973454
-2.51128221 -0.28849298 3.68926859
-3.22604990 0.69226664 -2.93631697
-1.44190860 -0.69994414 -4.19742870
-3.07660627 2.44683242 -1.40363121
0.85154814 -2.36578107 3.45741677
2.08993292 -2.41678977 -2.77247286
-1.96957660 3.06195307 -1.81145144
4.18174744 0.67485958 -1.00245452
-1.57286870 -1.03751993 4.04574251
3.30147099 -2.46099997 -0.57335258
3.37891412 -0.32007945 2.83766937
1.99327111 1.33534718 -3.71025801
-3.32799149 1.90669584 1.87166619
-1.92990685 -3.41533232 -0.50945735
-0.68923306 -3.54533911 1.58410239
3.46306515 -2.11255097 1.16368127
-2.18424344 1.31275737 -3.60364652
3.86295080 -1.08805513 -1.66245461
1.37504661 2.73681784 -2.83974624
2.51663303 2.11848426 -2.72962666
-1.05655324 -3.03467631 -2.55172706
-0.35969791 -2.95004010 -2.87524009
-1.65504670 -0.54754037 4.14443588
-3.86323714 -1.64227617 -0.81108379
3.27735567 1.39259529 2.49699378
0.22494945 -2.84232974 -3.03735900
-3.61344981 1.25225401 2.06113720
-1.15224481 2.72646523 -2.95652270
0.48417866 2.85145783 -2.99238491
3.57856798 0.33799836 -2.55777836
1.33035517 0.37750295 -4.29306173
-2.31280613 -2.28422403 -2.73730063
4.08333826 -0.99416655 1.07217050
1.10063124 -1.38904321 -4.06772804
-3.36922598 -2.39057231 0.55983955
-3.23529267 -2.33911014 1.26664317
-0.74970782 2.21288395 -3.62303305
1.08616865 2.79165602 2.89820981
-3.43345737 1.01887059 -2.52044106
2.86547327 0.60356236 3.34083819
-2.95838761 -2.81974530 -0.06917851
0.34181324 -0.46325329 -4.48501015
-2.30198574 3.17365479 -0.88127857
-1.07847178 -2.44568396 3.31118441
-1.15514779 0.63392216 4.30593586
-3.50781202 -2.00950646 -1.26972413
-4.07043839 -1.15122056 -0.88899142
-1.31653547 -1.18277395 -4.08873796
-2.75032759 2.86790085 -0.95103937
-1.64119220 3.50698709 0.70377636
-0.59907758 -3.74272847 0.79650855
-1.67405546 2.39709425 3.08343506
0.50557560 2.34829664 -3.54688668
-1.93705893 2.69102883 2.52961254
-3.41188478 -1.54950440 2.14811683
3.24912596 2.38800859 1.08750558
-3.03344870 -0.20112543 3.24702835
0.33530480 -3.78951359 0.63436258
3.82930589 1.83343709 -0.11281279
2.58683014 -0.76111346 -3.53603625
-0.53177518 -0.09505159 4.49746799
-3.78250051 1.03170586 -1.89597571
2.17069006 1.74972606 3.34310460
-0.09366279 1.48129213 -4.18006420
0.76813549 0.21330447 4.45437193
-4.07032061 0.45012730 1.53530955
-1.52727818 -3.59535718 -0.09580699
-2.26177526 -2.75583315 2.10451031
-0.39475149 -2.61217809 3.29691100
-2.65167594 1.10228539 -3.35588193
-3.13096929 -0.70813090 -3.04099011
-2.71525407 -2.36157680 2.19187164
-3.83206296 -0.94675517 -1.84955943
2.81207490 0.72929049 -3.35548377
3.94275403 -1.63664448 0.10365575
2.16673923 -0.37785381 3.90786242
-4.32963753 -0.40300936 -0.24383526
-0.52297074 -3.56912303 -1.57752395
3.86092067 -0.58592933 1.98754513
3.50388646 2.24593925 -0.49409500
-1.31754661 0.26347259 -4.31062746
-2.62623000 -3.03438854 -0.49899364
-0.00169892 -2.21703935 3.70045233
0.68842047 -2.21714926 -3.62980437
4.05477619 -0.65176690 -1.47728682
2.44426870 -1.13333809 3.50630188
0.22603358 3.75101471 0.93748385
-3.31602001 -1.19154084 2.58514833
-0.37384844 2.28443217 3.62432313
1.03178024 -0.64533907 -4.33830023
-1.50297391 -3.52420378 -0.88706219
1.70778573 0.71217030 4.08476114
-1.48720157 1.59629250 -3.82184958
1.47879076 -3.53830743 -0.85201466
-0.77250570 3.31264997 -2.14636040
-1.65207303 0.94049186 4.04486370
-1.51747930 -2.65727854 2.86572862
2.98581815 -2.50711489 -1.46580958
-4.13235474 1.06216300 0.71634996
0.18186119 2.10842824 3.78330946
4.34541512 0.17218047 -0.29904097
0.93090999 3.71606994 -0.60047853
3.68791175 1.32592463 1.84169602
-2.36597753 1.50623548 3.36662602
1.17404985 1.98648155 3.68213820
2.22249961 -1.92651296 -3.16821098
-1.93376446 2.16558862 -3.15823030
-0.48314345 -0.69466883 4.42919636
0.46185383 -1.77039635 -3.99364543
-2.88381481 0.52043414 3.34371185
3.73384023 -1.88441753 0.72755629
1.58794892 -0.50340110 -4.17896843
2.32865286 -3.24422121 0.15024358
-4.24696302 -0.04523555 -1.02075589
2.19894838 3.12677407 -1.29830253
-3.72464633 0.12626944 2.35065722
1.87419820 -0.90170491 -3.95171118
3.01202440 -2.77052665 -0.19363452
-3.58388948 -1.86500883 1.34567344
-1.27217662 3.47926402 1.38383114
3.71340537 -0.26235780 -2.35528421
-0.88658255 3.61553192 -1.21379578
-0.89638048 -3.69114399 -0.83260006
1.07758713 3.12617588 2.37995076
2.63421082 1.90427959 2.82678533
-4.13724661 -1.18817294 -0.26447228
-4.03252935 -0.39030215 -1.65859449
3.02422643 -0.92771357 -3.07533383
-3.50113320 -0.52719533 2.62939858
-3.66056418 1.60579932 -1.57208586
-0.51169538 -2.28392744 -3.60490441
3.68681026 -1.96119988 -0.70587981
3.18003678 0.21453129 -3.09023905
-1.89933813 -1.73435128 -3.53064203
0.68107390 -0.80505705 4.37558270
-1.72609437 -3.44583988 0.87630415
-2.14361691 -1.81319404 3.31631899
-3.97523260 1.57477105 -0.06158319
-3.47885394 2.24333382 -0.66428006
-1.33725166 1.68665767 3.82775664
-3.09456491 -2.48759747 -1.24966764
1.91542077 2.71906710 2.50447083
-2.05538201 -3.10851860 1.58391547
-2.76307034 -2.93145347 0.56025708
2.79147148 1.62199032 -2.90832210
-2.80228448 1.54031730 2.95807695
-3.64302278 1.90670669 -1.06560183
2.05806494 -1.42693496 -3.62382174
-1.01349390 -0.47482529 4.37348938
2.20262766 -1.83561349 3.25700474
-2.14710259 -3.02337933 -1.67840004
-0.74401158 3.76936698 0.36923951
-0.62914526 0.07852825 -4.48425674
4.27743292 0.74130869 -0.00171388
-0.93864834 -2.63440895 -3.14868760
-3.61777806 2.03221893 0.79955918
3.52679920 0.85373276 -2.46669173
-0.78510821 0.92305577 -4.32261324
-2.21326447 -3.30580139 0.11761478
0.60173070 -2.99402928 2.76710463
-0.00922008 3.44384789 2.00445294
-3.76513004 -1.41485906 -1.55736470
-3.83124852 -1.22104549 1.61290753
0.74262679 3.52465010 1.62217748
-2.42200375 2.61845231 2.15540743
3.53075981 -1.27212596 -2.19360471
3 249 48 83
3 64 0 62
3 220 34 37
3 64 62 204
3 204 191 64
3 51 191 204
3 213 27 253
3 21 48 249
3 104 24 232
3 40 205 155
3 7 151 128
3 128 151 1
3 115 111 220
3 220 111 244
3 244 34 220
3 113 26 215
3 117 184 66
3 66 51 118
3 184 51 66
3 117 196 30
3 30 184 117
3 30 196 1
3 64 191 84
3 84 0 64
3 84 27 0
3 46 191 79
3 79 191 51
3 79 51 184
3 168 87 100
3 100 23 168
3 168 23 73
3 168 73 122
3 122 87 168
3 25 152 194
3 32 87 192
3 100 87 32
3 32 129 100
3 145 62 0
3 0 27 145
3 220 37 198
3 99 70 207
3 78 246 234
3 246 163 234
3 118 51 108
3 51 204 108
3 126 196 117
3 117 66 126
3 126 66 29
3 148 145 192
3 107 174 41
3 122 164 41
3 81 174 210
3 210 174 107
3 210 97 81
3 38 204 62
3 38 148 97
3 38 246 78
3 38 97 246
3 73 33 105
3 207 70 105
3 112 86 90
3 146 177 90
3 231 213 127
3 27 213 231
3 134 45 67
3 67 229 134
3 185 86 134
3 134 229 185
3 249 83 94
3 112 90 98
3 150 45 134
3 175 23 100
3 11 183 50
3 47 24 104
3 47 21 249
3 104 21 47
3 186 232 24
3 186 133 9
3 24 133 186
3 31 40 155
3 215 26 88
3 136 113 215
3 251 113 136
3 7 128 91
3 212 167 11
3 225 232 233
3 104 232 225
3 225 140 104
3 44 183 11
3 11 167 44
3 44 167 111
3 121 34 110
3 34 244 110
3 111 167 110
3 110 244 111
3 218 177 146
3 121 110 240
3 233 124 130
3 56 16 192
3 192 145 56
3 56 231 16
3 56 145 27
3 27 231 56
3 129 32 22
3 22 214 152
3 152 25 22
3 22 25 129
3 107 41 221
3 221 41 164
3 164 70 221
3 70 99 221
3 20 69 120
3 120 42 20
3 120 69 36
3 20 42 153
3 153 126 29
3 101 69 20
3 36 69 101
3 101 163 36
3 101 234 163
3 62 145 169
3 145 148 169
3 169 38 62
3 148 38 169
3 192 87 243
3 243 148 192
3 97 148 243
3 89 174 81
3 89 41 174
3 222 163 246
3 255 210 107
3 107 221 255
3 65 38 78
3 204 38 65
3 65 108 204
3 122 73 200
3 73 105 200
3 200 164 122
3 200 70 164
3 200 105 70
3 80 98 226
3 226 98 90
3 9 133 226
3 226 133 80
3 178 141 229
3 229 67 178
3 49 127 194
3 49 231 127
3 194 152 49
3 152 214 49
3 49 214 16
3 16 231 49
3 254 77 102
3 102 77 245
3 86 185 199
3 146 90 199
3 199 90 86
3 85 150 134
3 85 86 112
3 134 86 85
3 23 175 61
3 73 23 61
3 61 33 73
3 48 33 61
3 11 50 147
3 147 50 21
3 147 140 11
3 147 21 104
3 104 140 147
3 202 183 207
3 202 50 183
3 202 33 48
3 48 21 202
3 21 50 202
3 207 105 202
3 202 105 33
3 158 133 24
3 158 47 249
3 24 47 158
3 249 94 158
3 26 124 208
3 208 88 26
3 232 186 157
3 9 161 157
3 157 186 9
3 57 157 161
3 233 232 57
3 232 157 57
3 3 31 188
3 188 31 155
3 166 88 40
3 3 203 166
3 215 88 166
3 166 31 3
3 40 31 166
3 166 136 215
3 203 136 166
3 216 136 203
3 216 203 7
3 106 170 63
3 92 170 242
3 180 212 156
3 140 225 156
3 2 110 167
3 2 212 180
3 167 212 2
3 180 240 2
3 2 240 110
3 230 240 171
3 121 240 230
3 93 30 1
3 129 25 72
3 58 82 224
3 114 32 192
3 114 22 32
3 192 16 114
3 16 214 114
3 214 22 114
3 237 206 149
3 123 206 237
3 123 237 19
3 19 18 115
3 95 18 19
3 8 120 36
3 149 206 8
3 8 222 149
3 36 163 8
3 163 222 8
3 42 120 131
3 242 170 247
3 247 42 242
3 247 153 42
3 142 101 20
3 108 101 142
3 20 153 142
3 142 153 29
3 118 108 142
3 142 66 118
3 29 66 142
3 234 101 109
3 109 101 108
3 108 65 109
3 78 234 109
3 109 65 78
3 81 97 190
3 97 243 190
3 190 89 81
3 41 89 190
3 122 41 190
3 190 87 122
3 190 243 87
3 119 222 246
3 210 222 119
3 246 97 119
3 97 210 119
3 149 222 217
3 217 222 210
3 210 255 217
3 217 237 149
3 10 18 95
3 183 18 10
3 60 177 144
3 144 161 60
3 60 90 177
3 60 226 90
3 60 161 9
3 9 226 60
3 189 178 67
3 189 45 194
3 189 67 45
3 194 127 189
3 127 178 189
3 176 84 191
3 176 191 46
3 253 27 176
3 27 84 176
3 46 241 176
3 241 75 176
3 209 139 254
3 209 241 139
3 209 75 241
3 141 14 143
3 143 209 254
3 14 209 143
3 253 176 250
3 250 176 75
3 250 213 253
3 75 209 250
3 250 209 14
3 141 178 52
3 52 14 141
3 52 250 14
3 52 178 127
3 127 213 52
3 213 250 52
3 254 139 55
3 55 77 254
3 139 132 55
3 138 77 55
3 55 132 138
3 146 199 12
3 12 218 146
3 205 218 12
3 193 199 185
3 80 133 172
3 172 17 80
3 133 158 172
3 94 17 172
3 172 158 94
3 197 98 80
3 80 17 197
3 224 150 197
3 197 17 224
3 239 61 175
3 175 58 239
3 239 83 48
3 48 61 239
3 239 94 83
3 125 161 144
3 144 208 125
3 125 57 161
3 125 208 124
3 125 124 233
3 233 57 125
3 252 208 144
3 88 208 252
3 144 177 252
3 177 218 252
3 40 88 252
3 205 40 252
3 252 218 205
3 251 136 162
3 136 216 162
3 106 63 159
3 159 63 91
3 1 196 159
3 196 106 159
3 159 128 1
3 159 91 128
3 170 92 13
3 59 63 13
3 13 63 170
3 13 74 59
3 180 156 103
3 103 240 180
3 171 240 103
3 140 156 39
3 39 156 212
3 11 140 39
3 39 212 11
3 135 113 251
3 121 230 135
3 171 130 35
3 35 230 171
3 35 124 26
3 35 130 124
3 35 135 230
3 26 113 35
3 113 135 35
3 139 241 211
3 211 132 139
3 211 241 46
3 46 79 211
3 211 79 184
3 184 30 96
3 96 211 184
3 132 211 96
3 138 132 96
3 30 93 96
3 96 93 138
3 181 72 25
3 82 72 181
3 100 129 6
3 129 72 6
3 6 175 100
3 53 17 94
3 94 239 53
3 53 239 58
3 224 17 53
3 53 58 224
3 183 44 71
3 71 18 183
3 115 18 71
3 111 115 71
3 71 44 111
3 173 198 123
3 123 19 173
3 173 19 115
3 173 115 220
3 220 198 173
3 242 42 5
3 42 131 5
3 5 92 242
3 123 198 28
3 28 5 131
3 28 198 37
3 37 5 28
3 179 131 120
3 179 28 131
3 179 206 123
3 123 28 179
3 182 170 106
3 182 247 170
3 182 106 196
3 196 126 182
3 126 153 182
3 153 247 182
3 237 217 195
3 95 19 195
3 195 19 237
3 195 217 255
3 195 10 95
3 255 10 195
3 187 255 221
3 187 10 255
3 187 221 99
3 187 99 207
3 207 183 187
3 183 10 187
3 229 141 76
3 141 193 76
3 76 185 229
3 76 193 185
3 4 12 199
3 155 205 4
3 205 12 4
3 150 85 238
3 238 197 150
3 238 85 112
3 112 98 238
3 98 197 238
3 59 74 160
3 7 91 160
3 160 216 7
3 160 162 216
3 160 63 59
3 91 63 160
3 137 5 37
3 92 5 137
3 248 156 225
3 248 103 156
3 248 225 233
3 171 103 248
3 233 130 248
3 248 130 171
3 227 188 245
3 3 188 227
3 1 151 219
3 219 93 1
3 219 236 93
3 82 181 154
3 224 82 154
3 45 150 154
3 154 150 224
3 175 6 165
3 165 6 72
3 165 58 175
3 165 72 82
3 82 58 165
3 120 8 201
3 201 179 120
3 201 8 206
3 206 179 201
3 155 4 116
3 116 188 155
3 116 102 245
3 245 188 116
3 199 193 235
3 235 4 199
3 254 102 235
3 102 116 235
3 235 116 4
3 235 193 141
3 235 143 254
3 141 143 235
3 68 160 74
3 162 160 68
3 251 162 68
3 68 74 121
3 121 135 68
3 68 135 251
3 223 34 121
3 121 74 223
3 223 37 34
3 223 137 37
3 228 227 245
3 236 227 228
3 245 77 228
3 228 77 138
3 138 93 228
3 93 236 228
3 43 227 236
3 236 219 43
3 3 227 43
3 43 219 151
3 43 203 3
3 43 151 7
3 7 203 43
3 45 154 15
3 15 154 181
3 194 45 15
3 15 25 194
3 15 181 25
3 137 223 54
3 54 13 92
3 92 137 54
3 74 13 54
3 54 223 74