ply
format ascii 1.0
comment https://github.com/mikedh/trimesh
element vertex 256
property float x
property float y
property float z
element face 508
property list uchar int vertex_indices
end_header
1.56859720 4.13500977 0.19750395
-2.21303105 1.97914112 -2.17302275
-0.86407501 -4.37798977 -1.39928472
-2.89303875 0.91758209 -0.17292404
-2.34857988 1.13518596 2.32324100
-0.16870102 -0.59544855 -4.12442112
1.86491585 0.10497724 3.22153640
-2.68825531 0.22589289 -1.69641805
1.39194894 0.00329560 -3.66957688
-1.32827520 -2.97354674 2.72313261
1.66812992 -3.22799969 -2.05787611
0.03264845 -4.88326645 -0.25655487
-2.30267096 0.54661775 2.55663204
-1.39575577 -0.99050528 -3.56797242
-0.58556151 4.12046576 2.08753920
0.66279012 1.22710741 3.91868234
1.99117804 2.61781764 2.11174512
0.24437369 -2.10420823 3.74178672
0.94798779 -3.87131786 -2.16424108
0.88950276 -3.16248226 -2.91750097
0.54469001 1.52559233 -3.87885141
0.47173193 -4.52251339 1.44172645
1.92342019 1.78548408 2.76533747
2.24063993 -1.33929920 2.45239615
-0.64580780 -3.61835265 2.64991069
1.39882934 1.51012766 3.43020415
-2.52528095 -2.50439453 -0.26191628
1.16373646 4.29980183 1.11719096
0.38919741 -1.54438043 -3.91143823
-0.07922192 2.91577411 -3.34019446
-1.18820179 3.41151905 -2.46569467
-2.89627671 0.46426776 0.66577727
2.41793394 0.75121439 2.29229856
1.97456968 -3.01280594 1.72525740
-1.04357386 -3.06907630 -2.88733935
-2.31337452 -2.92263031 -0.68464971
1.43508196 0.91980112 -3.54990005
-0.46726209 -2.33597207 -3.59663963
2.27982759 2.77125311 -1.18490183
-0.46275595 -4.83099556 -0.08629365
-2.90695548 -0.28720769 0.64472771
2.87281370 -1.09107113 -0.11461467
0.21636888 0.78503287 -4.09640360
-2.75079823 1.56039703 -0.68724561
0.09225148 -4.51106405 -1.60726559
0.28606510 1.33768475 3.98308229
0.00572702 4.80824947 -0.76703197
-0.12217495 -4.34294415 1.91021621
1.47815382 -3.47141314 2.06006336
1.47133029 2.95747113 2.58257246
0.95144367 -4.62717152 -0.15475132
0.36241183 4.23263311 -2.02534747
-0.26243171 3.94086432 2.43816113
0.78021455 -1.88363147 3.68017077
-1.25213492 -1.58698213 -3.51790619
-1.60297120 4.08597612 0.35429150
2.14875555 2.82415986 1.53197277
-1.81043971 -3.57792354 1.23451889
1.16607285 -1.15743196 3.69475150
-1.85636461 -0.53155500 -3.19999361
-1.76364148 -2.36477780 2.66123939
1.86697042 -1.97839355 2.74656677
1.96734715 3.63925028 -0.14421655
-1.90156293 0.33348420 -3.16701484
1.38213670 4.29325533 -0.41772085
1.72057116 3.27479029 -1.91506934
-0.22658177 3.52806902 -2.86692739
-0.27769750 1.93126547 3.80408788
-2.13992071 -1.63997984 -2.50130677
0.89100003 1.28619933 -3.81311870
2.41203094 -2.80630636 0.17387471
0.47550514 -4.27466249 -1.91290033
1.53981245 0.19996615 3.54453564
2.41954851 -1.72775757 1.86840129
-1.83168280 -1.68597507 -2.92899823
-0.26397166 4.77539110 0.82234532
-1.25431991 2.23131943 3.25263143
-1.97903562 3.52236629 0.73829085
1.96850336 2.76053572 -2.02024817
0.07298994 4.64773989 -1.29539263
-1.05369282 -1.97984982 3.50334597
2.88920522 0.01994610 -0.82684171
1.11099577 -0.52630210 3.82811832
1.21347177 -3.08908272 2.73435211
1.11971521 4.52496719 0.04676190
-0.80127037 -0.00191155 4.00488901
-1.37475252 0.23625204 3.67656660
2.69079542 0.33197054 1.67810404
-2.85952783 -1.07492542 0.43303141
2.91146088 -0.56195211 -0.44047031
-1.69807220 -0.36765549 3.38731766
-2.18138194 0.88222468 -2.69599199
-0.97498602 -0.89200890 -3.85388708
-2.08033156 3.11824346 -1.28874993
0.57579762 -3.01495171 3.17444181
1.41316533 -3.07995701 -2.54555750
-1.33178318 3.90215325 -1.66319180
2.82760310 0.86004108 -0.92040789
-1.06353819 -1.32221556 3.71461582
2.23238015 -3.13629842 -0.52642614
2.28474522 -0.40790927 2.60541821
1.34780478 1.70176649 -3.40658903
-2.25031257 2.42989326 1.71847820
-1.30495942 -4.35249949 -0.46776041
-0.46604380 -4.51818037 1.45445037
2.34164643 -2.69223499 1.06843889
-1.47693610 1.67297804 -3.30870318
2.61204004 -1.38661754 -1.52638972
0.92977536 3.48780084 -2.60732508
1.70169032 2.69979644 -2.50621819
-0.71441746 -3.86739159 -2.34287906
-0.24321960 -3.75953126 -2.63991380
-1.11910510 -0.69778550 3.80523157
-2.61223340 -2.09291697 -0.74470001
2.21607375 1.77472353 2.29262543
0.15210573 -3.62226510 -2.78876400
-2.44333291 1.59587264 1.89244175
-0.77912194 3.47460747 -2.71454382
0.32739067 3.63389826 -2.74747086
2.41974688 0.43074515 -2.34843493
0.89955610 0.48108980 -3.94169259
-1.56386721 -2.91101527 -2.51326418
2.76106095 -1.26696599 0.98441792
0.74422199 -1.77019680 -3.73480201
-2.27819443 -3.04654551 0.51401907
-2.18763161 -2.98096204 1.16297376
-0.50693548 2.82009935 -3.32650304
0.73444271 3.55768657 2.66100359
-2.32162619 1.29844880 -2.31415343
1.93756831 0.76917994 3.06740475
-2.00039482 -3.59348369 -0.06351654
0.23112638 -0.59037006 -4.11793089
-1.55655062 4.04450607 -0.80914968
-0.72923821 -3.11677980 3.04017782
-0.78108484 0.80787045 3.95351315
-2.37190318 -2.56091499 -1.16580260
-2.75233841 -1.46711552 -0.81623125
-0.89021152 -1.50732720 -3.75409222
-1.85970926 3.65485311 -0.87320083
-1.10973704 4.46930456 0.64617527
-0.40508270 -4.76973343 0.73131770
-1.13195837 3.05485725 2.83106899
0.34185880 2.99266934 -3.25658894
-1.30979538 3.42944741 2.32257438
-2.30703926 -1.97468853 1.97230256
2.19698548 3.04327846 0.99849790
-2.05114937 -0.25631425 2.98127270
0.22672553 -4.82935619 0.58244270
2.58928990 2.33653235 -0.10357954
1.74915600 -0.96996301 -3.24662662
-0.35957438 -0.12113376 4.12936926
-2.55764127 1.31480598 -1.74079812
1.46777153 2.22985101 3.06948566
-0.06333266 1.88775885 -3.83794379
0.51939589 0.27183524 4.08980083
-2.75225854 0.57364231 1.40965092
-1.03271103 -4.58192348 -0.08796559
-1.52936137 -3.51203394 1.93226504
-0.26692203 -3.32895994 3.02707291
-1.79300320 1.40475261 -3.08121729
-2.11709070 -0.90244210 -2.79209781
-1.83599341 -3.00959349 2.01247621
-2.59115434 -1.20654488 -1.69818079
1.90146136 0.92940784 -3.08085155
2.66600108 -2.08573985 0.09517197
1.46510005 -0.48153692 3.58802056
-2.92760301 -0.51359516 -0.22387837
-0.35362098 -4.54849052 -1.44841027
2.61066723 -0.74670839 1.82487297
2.36924887 2.86222506 -0.45365542
-0.89089525 0.33576947 -3.95782089
-1.77579737 -3.86702514 -0.45815310
-0.00114877 -2.82539511 3.39758611
0.46549433 -2.82553530 -3.33272028
2.74174786 -0.83061182 -1.35637712
1.65275919 -1.44432616 3.21932578
0.15283880 4.78029346 0.86075473
-2.24221778 -1.51849973 2.37356472
-0.25278786 2.91128063 3.32768774
0.69766647 -0.82242018 -3.98322868
-1.01627696 -4.49124575 -0.81445992
1.15476608 0.90758985 3.75044060
-1.00561213 2.03431535 -3.50904727
0.99992484 -4.50921917 -0.78228086
-0.52235085 4.22164154 -1.97069001
-1.11709440 1.19856286 3.71380901
-1.02608526 -3.38643599 2.63118076
2.01894283 -3.19506741 -1.34583938
-2.79420471 1.35362065 0.65771973
0.12297042 2.68698120 3.47366166
2.93827128 0.21942681 -0.27456573
0.62946028 4.73575974 -0.55133194
2.49368262 1.68975842 1.69096100
-1.59982049 1.91954660 3.09108186
0.79386598 2.53157234 3.38077092
1.50280404 -2.45514846 -2.90890646
-1.30756772 2.75982642 -2.89974236
-0.32669067 -0.88528597 4.06668568
0.31229511 -2.25619316 -3.66678262
-1.94997036 0.66324133 3.07004309
2.52473831 -2.40150189 0.66800886
1.07373512 -0.64153445 -3.83693767
1.57458234 -4.13443565 0.13794678
-2.87170029 -0.05764819 -0.93721133
1.48687923 3.98476124 -1.19204187
-2.51852155 0.16091779 2.15826607
1.26729047 -1.14913285 -3.62828040
2.03666282 -3.53075933 -0.17778637
-2.42334485 -2.37676740 1.23553586
-0.86021703 4.43397427 1.27057040
2.51092076 -0.33434883 -2.16251397
-0.59948707 4.60763407 -1.11445177
-0.60611224 -4.70399427 -0.76445532
0.72864008 3.98399878 2.18516183
1.78119385 2.42681408 2.59542489
-2.79751253 -1.51420772 -0.24282633
-2.72670531 -0.49740109 -1.52284551
2.04491353 -1.18227828 -2.82363081
-2.36738706 -0.67185777 2.41419339
-2.47519064 2.04643083 -1.44341731
-0.34599683 -2.91063714 -3.30985832
2.49293780 -2.49935341 -0.64810652
2.15026903 0.27339870 -2.83731604
-1.28428948 -2.21025729 -3.24167395
0.46052676 -1.02596474 4.01745939
-1.16714597 -4.39137888 0.80458242
-1.44946527 -2.31073475 3.04489231
-2.68796229 2.00688839 -0.05654287
-2.35232234 2.85890460 -0.60991150
-0.90421933 2.14947677 3.51447105
-2.09247470 -3.17019439 -1.14738762
1.29516423 3.46517944 2.29949045
-1.38980293 -3.96149635 1.45427859
-1.86832559 -3.73584437 0.51440245
1.88752997 2.06706452 -2.67028832
-1.89484143 1.96298051 2.71597099
-2.46332955 2.42990708 -0.97838682
1.39161706 -1.81848598 -3.32722735
-0.68530166 -0.60511738 4.01553774
1.48936689 -2.33930588 2.99043274
-1.45182228 -3.85299468 -1.54103017
-0.50308377 4.80368137 0.33901882
-0.42541379 0.10007640 -4.11723900
2.89230347 0.94472384 -0.00157360
-0.63469279 -3.35729122 -2.89098072
-2.44625974 2.58985996 0.73411864
2.38474202 1.08799708 -2.26480341
-0.53087240 1.17634237 -3.96882558
-1.49655926 -4.21291351 0.10798851
0.40687671 -3.81559110 2.54062891
-0.00623441 4.38884020 1.84039688
-2.54589581 -1.80309641 -1.42990100
-2.59060359 -1.55610049 1.48089778
0.50214744 4.49181461 1.48940921
-1.63770425 3.33695602 1.97899652
2.38741994 -1.62119746 -2.01406741
3 249 48 83
3 64 0 62
3 220 34 37
3 64 62 204
3 204 191 64
3 51 191 204
3 213 27 253
3 21 48 249
3 104 24 232
3 40 205 155
3 7 151 128
3 128 151 1
3 115 111 220
3 220 111 244
3 244 34 220
3 113 26 215
3 117 184 66
3 66 51 118
3 184 51 66
3 117 196 30
3 30 184 117
3 30 196 1
3 64 191 84
3 84 0 64
3 84 27 0
3 46 191 79
3 79 191 51
3 79 51 184
3 168 87 100
3 100 23 168
3 168 23 73
3 168 73 122
3 122 87 168
3 25 152 194
3 32 87 192
3 100 87 32
3 32 129 100
3 145 62 0
3 0 27 145
3 220 37 198
3 99 70 207
3 78 246 234
3 246 163 234
3 118 51 108
3 51 204 108
3 126 196 117
3 117 66 126
3 126 66 29
3 148 145 192
3 107 174 41
3 122 164 41
3 81 174 210
3 210 174 107
3 210 97 81
3 38 204 62
3 38 148 97
3 38 246 78
3 38 97 246
3 73 33 105
3 207 70 105
3 112 86 90
3 146 177 90
3 231 213 127
3 27 213 231
3 134 45 67
3 67 229 134
3 185 86 134
3 134 229 185
3 249 83 94
3 112 90 98
3 150 45 134
3 175 23 100
3 11 183 50
3 47 24 104
3 47 21 249
3 104 21 47
3 186 232 24
3 186 133 9
3 24 133 186
3 31 40 155
3 215 26 88
3 136 113 215
3 251 113 136
3 7 128 91
3 212 167 11
3 225 232 233
3 104 232 225
3 225 140 104
3 44 183 11
3 11 167 44
3 44 167 111
3 121 34 110
3 34 244 110
3 111 167 110
3 110 244 111
3 218 177 146
3 121 110 240
3 233 124 130
3 56 16 192
3 192 145 56
3 56 231 16
3 56 145 27
3 27 231 56
3 129 32 22
3 22 214 152
3 152 25 22
3 22 25 129
3 107 41 221
3 221 41 164
3 164 70 221
3 70 99 221
3 20 69 120
3 120 42 20
3 120 69 36
3 20 42 153
3 153 126 29
3 101 69 20
3 36 69 101
3 101 163 36
3 101 234 163
3 62 145 169
3 145 148 169
3 169 38 62
3 148 38 169
3 192 87 243
3 243 148 192
3 97 148 243
3 89 174 81
3 89 41 174
3 222 163 246
3 255 210 107
3 107 221 255
3 65 38 78
3 204 38 65
3 65 108 204
3 122 73 200
3 73 105 200
3 200 164 122
3 200 70 164
3 200 105 70
3 80 98 226
3 226 98 90
3 9 133 226
3 226 133 80
3 178 141 229
3 229 67 178
3 49 127 194
3 49 231 127
3 194 152 49
3 152 214 49
3 49 214 16
3 16 231 49
3 254 77 102
3 102 77 245
3 86 185 199
3 146 90 199
3 199 90 86
3 85 150 134
3 85 86 112
3 134 86 85
3 23 175 61
3 73 23 61
3 61 33 73
3 48 33 61
3 11 50 147
3 147 50 21
3 147 140 11
3 147 21 104
3 104 140 147
3 202 183 207
3 202 50 183
3 202 33 48
3 48 21 202
3 21 50 202
3 207 105 202
3 202 105 33
3 158 133 24
3 158 47 249
3 24 47 158
3 249 94 158
3 26 124 208
3 208 88 26
3 232 186 157
3 9 161 157
3 157 186 9
3 57 157 161
3 233 232 57
3 232 157 57
3 3 31 188
3 188 31 155
3 166 88 40
3 3 203 166
3 215 88 166
3 166 31 3
3 40 31 166
3 166 136 215
3 203 136 166
3 216 136 203
3 216 203 7
3 106 170 63
3 92 170 242
3 180 212 156
3 140 225 156
3 2 110 167
3 2 212 180
3 167 212 2
3 180 240 2
3 2 240 110
3 230 240 171
3 121 240 230
3 93 30 1
3 129 25 72
3 58 82 224
3 114 32 192
3 114 22 32
3 192 16 114
3 16 214 114
3 214 22 114
3 237 206 149
3 123 206 237
3 123 237 19
3 19 18 115
3 95 18 19
3 8 120 36
3 149 206 8
3 8 222 149
3 36 163 8
3 163 222 8
3 42 120 131
3 242 170 247
3 247 42 242
3 247 153 42
3 142 101 20
3 108 101 142
3 20 153 142
3 142 153 29
3 118 108 142
3 142 66 118
3 29 66 142
3 234 101 109
3 109 101 108
3 108 65 109
3 78 234 109
3 109 65 78
3 81 97 190
3 97 243 190
3 190 89 81
3 41 89 190
3 122 41 190
3 190 87 122
3 190 243 87
3 119 222 246
3 210 222 119
3 246 97 119
3 97 210 119
3 149 222 217
3 217 222 210
3 210 255 217
3 217 237 149
3 10 18 95
3 183 18 10
3 60 177 144
3 144 161 60
3 60 90 177
3 60 226 90
3 60 161 9
3 9 226 60
3 189 178 67
3 189 45 194
3 189 67 45
3 194 127 189
3 127 178 189
3 176 84 191
3 176 191 46
3 253 27 176
3 27 84 176
3 46 241 176
3 241 75 176
3 209 139 254
3 209 241 139
3 209 75 241
3 141 14 143
3 143 209 254
3 14 209 143
3 253 176 250
3 250 176 75
3 250 213 253
3 75 209 250
3 250 209 14
3 141 178 52
3 52 14 141
3 52 250 14
3 52 178 127
3 127 213 52
3 213 250 52
3 254 139 55
3 55 77 254
3 139 132 55
3 138 77 55
3 55 132 138
3 146 199 12
3 12 218 146
3 205 218 12
3 193 199 185
3 80 133 172
3 172 17 80
3 133 158 172
3 94 17 172
3 172 158 94
3 197 98 80
3 80 17 197
3 224 150 197
3 197 17 224
3 239 61 175
3 175 58 239
3 239 83 48
3 48 61 239
3 239 94 83
3 125 161 144
3 144 208 125
3 125 57 161
3 125 208 124
3 125 124 233
3 233 57 125
3 252 208 144
3 88 208 252
3 144 177 252
3 177 218 252
3 40 88 252
3 205 40 252
3 252 218 205
3 251 136 162
3 136 216 162
3 106 63 159
3 159 63 91
3 1 196 159
3 196 106 159
3 159 128 1
3 159 91 128
3 170 92 13
3 59 63 13
3 13 63 170
3 13 74 59
3 180 156 103
3 103 240 180
3 171 240 103
3 140 156 39
3 39 156 212
3 11 140 39
3 39 212 11
3 135 113 251
3 121 230 135
3 171 130 35
3 35 230 171
3 35 124 26
3 35 130 124
3 35 135 230
3 26 113 35
3 113 135 35
3 139 241 211
3 211 132 139
3 211 241 46
3 46 79 211
3 211 79 184
3 184 30 96
3 96 211 184
3 132 211 96
3 138 132 96
3 30 93 96
3 96 93 138
3 181 72 25
3 82 72 181
3 100 129 6
3 129 72 6
3 6 175 100
3 53 17 94
3 94 239 53
3 53 239 58
3 224 17 53
3 53 58 224
3 183 44 71
3 71 18 183
3 115 18 71
3 111 115 71
3 71 44 111
3 173 198 123
3 123 19 173
3 173 19 115
3 173 115 220
3 220 198 173
3 242 42 5
3 42 131 5
3 5 92 242
3 123 198 28
3 28 5 131
3 28 198 37
3 37 5 28
3 179 131 120
3 179 28 131
3 179 206 123
3 123 28 179
3 182 170 106
3 182 247 170
3 182 106 196
3 196 126 182
3 126 153 182
3 153 247 182
3 237 217 195
3 95 19 195
3 195 19 237
3 195 217 255
3 195 10 95
3 255 10 195
3 187 255 221
3 187 10 255
3 187 221 99
3 187 99 207
3 207 183 187
3 183 10 187
3 229 141 76
3 141 193 76
3 76 185 229
3 76 193 185
3 4 12 199
3 155 205 4
3 205 12 4
3 150 85 238
3 238 197 150
3 238 85 112
3 112 98 238
3 98 197 238
3 59 74 160
3 7 91 160
3 160 216 7
3 160 162 216
3 160 63 59
3 91 63 160
3 137 5 37
3 92 5 137
3 248 156 225
3 248 103 156
3 248 225 233
3 171 103 248
3 233 130 248
3 248 130 171
3 227 188 245
3 3 188 227
3 1 151 219
3 219 93 1
3 219 236 93
3 82 181 154
3 224 82 154
3 45 150 154
3 154 150 224
3 175 6 165
3 165 6 72
3 165 58 175
3 165 72 82
3 82 58 165
3 120 8 201
3 201 179 120
3 201 8 206
3 206 179 201
3 155 4 116
3 116 188 155
3 116 102 245
3 245 188 116
3 199 193 235
3 235 4 199
3 254 102 235
3 102 116 235
3 235 116 4
3 235 193 141
3 235 143 254
3 141 143 235
3 68 160 74
3 162 160 68
3 251 162 68
3 68 74 121
3 121 135 68
3 68 135 251
3 223 34 121
3 121 74 223
3 223 37 34
3 223 137 37
3 228 227 245
3 236 227 228
3 245 77 228
3 228 77 138
3 138 93 228
3 93 236 228
3 43 227 236
3 236 219 43
3 3 227 43
3 43 219 151
3 43 203 3
3 43 151 7
3 7 203 43
3 45 154 15
3 15 154 181
3 194 45 15
3 15 25 194
3 15 181 25
3 137 223 54
3 54 13 92
3 92 137 54
3 74 13 54
3 54 223 74