ply
format ascii 1.0
comment https://github.com/mikedh/trimesh
element vertex 256
property float x
property float y
property float z
element face 508
property list uchar int vertex_indices
end_header
0.73823977 3.80687857 0.23676534
-1.04153407 1.82208753 -2.60499310
-0.40666559 -4.03057718 -1.67744541
-1.36157084 0.84476793 -0.20729923
-1.10532844 1.04510391 2.78507280
-0.07939693 -0.54819709 -4.94430590
0.87769824 0.09664683 3.86193848
-1.26519215 0.20796728 -2.03364515
0.65510261 0.00303408 -4.39904404
-0.62513536 -2.73758245 3.26445818
0.78508353 -2.97184348 -2.46695662
0.01536556 -4.49575758 -0.30755484
-1.08372200 0.50324118 3.06485939
-0.65689421 -0.91190434 -4.27724171
-0.27558684 3.79348850 2.50251651
0.31193349 1.12973094 4.69766855
0.93712193 2.41008234 2.53153443
0.11501128 -1.93722999 4.48560810
0.44615805 -3.56411171 -2.59446573
0.41863286 -2.91152525 -3.49746466
0.25635123 1.40452981 -4.64991951
0.22201446 -4.16363192 1.72832406
0.90523255 1.64379799 3.31505275
1.05452788 -1.23301983 2.93990254
-0.30394098 -3.33122039 3.17668056
0.65834069 1.39029241 4.11208677
-1.18849039 -2.30565977 -0.31398201
0.54769737 3.95859361 1.33927488
0.18317068 -1.42182696 -4.68898439
-0.03728476 2.68439436 -4.00418425
-0.55921161 3.14080000 -2.95584464
-1.36309469 0.42742607 0.79812568
1.13796902 0.69160223 2.74797964
0.92930537 -2.77372646 2.06821752
-0.49114442 -2.82553148 -3.46130705
-1.08875954 -2.69070673 -0.82074970
0.67540258 0.84681082 -4.25557661
-0.21991079 -2.15060234 -4.31160784
1.07297111 2.55134201 -1.42044580
-0.21779004 -4.44763470 -0.10344777
-1.36812055 -0.26441649 0.77289170
1.35205209 -1.00448978 -0.13739868
0.10183118 0.72273701 -4.91071892
-1.29462719 1.43657267 -0.82386166
0.04341695 -4.15309095 -1.92677033
0.13463280 1.23153353 4.77487040
0.00269535 4.42669392 -0.91950852
-0.05750004 -3.99831223 2.28994393
0.69567376 -3.19594097 2.46957874
0.69246238 2.72278261 3.09595633
0.44778451 -4.25998497 -0.18551399
0.17056438 3.89675498 -2.42796183
-0.12351005 3.62813926 2.92283773
0.36719778 -1.73415697 4.41174364
-0.58930093 -1.46104813 -4.21722269
-0.75441748 3.76173592 0.42472035
1.01128376 2.60005021 1.83651030
-0.85205978 -3.29399943 1.47992623
0.54879695 -1.06558466 4.42922306
-0.87367374 -0.48937377 -3.83611345
-0.83003479 -2.17712212 3.19026113
0.87866521 -1.82139921 3.29255056
0.92590618 3.35045958 -0.17288505
-0.89494574 0.30702075 -3.79657888
0.65048456 3.95256662 -0.50075865
0.80976433 3.01492119 -2.29576182
-0.10663775 3.24810123 -3.43683743
-0.13069470 1.77801108 4.56029415
-1.00712562 -1.50984025 -2.99853587
0.41933751 1.18413377 -4.57112026
1.13519084 -2.58361363 0.20843887
0.22379027 -3.93544912 -2.29316139
0.72469258 0.18409795 4.24914598
1.13872886 -1.59065235 2.23981667
-0.86205757 -1.55218554 -3.51124716
-0.12423481 4.39644289 0.98581755
-0.59032923 2.05425453 3.89921474
-0.93140721 3.24285102 0.88505405
0.92645037 2.54147506 -2.42184877
0.03435176 4.27892160 -1.55290091
-0.49590674 -1.82273996 4.19976854
1.35976660 0.01836329 -0.99120772
0.52287561 -0.48453769 4.58910131
0.57110459 -2.84395027 3.27790809
0.52697933 4.16589117 0.05605760
-0.37710741 -0.00175986 4.80101204
-0.64700925 0.21750440 4.40742302
1.26638770 0.30562720 2.01169062
-1.34579945 -0.98962533 0.51911277
1.37024093 -0.51735872 -0.52803046
-0.79917550 -0.33848038 4.06067514
-1.02663887 0.81221622 -3.23192215
-0.45886442 -0.82122403 -4.61999273
-0.97908086 2.87079692 -1.54493761
0.27099159 -2.77570176 3.80548215
0.66508776 -2.83554888 -3.05158329
-0.62678635 3.59250021 -1.99381411
1.33077443 0.79179305 -1.10337377
-0.50054038 -1.21729183 4.45303583
1.05064046 -2.88741922 -0.63107318
1.07528555 -0.37553987 3.12334347
0.63432670 1.56672382 -4.08377743
-1.05908012 2.23707056 2.06009078
-0.61416203 -4.00710964 -0.56074548
-0.21933742 -4.15964270 1.74357736
1.10206521 -2.47859430 1.28083146
-0.69510067 1.54021990 -3.96643305
1.22932243 -1.27658331 -1.82981730
0.43758664 3.21102834 -3.12562943
0.80087829 2.48555565 -3.00442386
-0.33623123 -3.56049705 -2.80861473
-0.11446812 -3.46119571 -3.16469646
-0.52669221 -0.64241308 4.56166506
-1.22941351 -1.92683470 -0.89273733
1.04296613 1.63389146 2.74837136
0.07158657 -3.33482242 -3.34313631
-1.14992273 1.46923316 2.26863599
-0.36668354 3.19888210 -3.25416183
0.15408213 3.34553242 -3.29363465
1.13882220 0.39656362 -2.81527519
0.42336431 0.44291317 -4.72525311
-0.73601365 -2.68001342 -3.01287055
1.29945731 -1.16642666 1.18010819
0.35025835 -1.62972379 -4.47723484
-1.07220244 -2.80478859 0.61619973
-1.02958024 -2.74440956 1.39415872
-0.23858255 2.59631205 -3.98777127
0.34565586 3.27536845 3.18997860
-1.09264302 1.19541121 -2.77417898
0.91189116 0.70814210 3.67716742
-0.94145966 -3.30832481 -0.07614285
0.10877661 -0.54352158 -4.93652534
-0.73257017 3.72355652 -0.96999872
-0.34320644 -2.86944962 3.64452815
-0.36760736 0.74376237 4.73942327
-1.11630523 -2.35769510 -1.39754987
-1.29535210 -1.35069346 -0.97848803
-0.41896641 -1.38771415 -4.50036001
-0.87524784 3.36482430 -1.04678249
-0.52228320 4.11464548 0.77462703
-0.19064687 -4.39123392 0.87669474
-0.53274143 2.81244087 3.39385080
0.16089137 2.75518775 -3.90395904
-0.61643809 3.15730548 2.78427386
-1.08577788 -1.81798828 2.36437225
1.03398252 2.80178070 1.19698703
-0.96534663 -0.23597458 3.57391334
0.10670540 -4.44612551 0.69822520
1.21861553 2.15111828 -0.12416989
0.82321739 -0.89299220 -3.89201641
-0.16922897 -0.11152126 4.95023727
-1.20372045 1.21047032 -2.08684754
0.69078743 2.05290246 3.67966199
-0.02980669 1.73795676 -4.60088015
0.24444687 0.25026390 4.90280294
-1.29531455 0.52812123 1.68987238
-0.48603192 -4.21832752 -0.10545208
-0.71977389 -3.23333836 2.31637573
-0.12562336 -3.06479216 3.62881804
-0.84385353 1.29327929 -3.69372559
-0.99638104 -0.83082932 -3.34713292
-0.86408627 -2.77076888 2.41253185
-1.21949291 -1.11080027 -2.03575826
0.89489794 0.85565519 -3.69328713
1.25471854 -1.92022717 0.11409099
0.68953019 -0.44332483 4.30127525
-1.37783813 -0.47283912 -0.26838264
-0.16642709 -4.18754768 -1.73633647
1.22867644 -0.68745375 2.18763542
1.11505592 2.63509488 -0.54383659
-0.41928819 0.30912468 -4.74458742
-0.83575583 -3.56015944 -0.54922837
-0.00054065 -2.60118747 4.07298470
0.21907882 -2.60131645 -3.99522424
1.29036772 -0.76469910 -1.62600839
0.77784950 -1.32971251 3.85928845
0.07193158 4.40095615 1.03186226
-1.05527043 -1.39800000 2.84540057
-0.11897130 2.68025756 3.98919129
0.32834759 -0.75715750 -4.77504587
-0.47829747 -4.13484526 -0.97636461
0.54347557 0.83556861 4.49598265
-0.47327816 1.87288332 -4.20660305
0.47060153 -4.15139294 -0.93778872
-0.24583760 3.88663554 -2.36243916
-0.52574587 1.10345161 4.45206881
-0.48291358 -3.11770725 3.15422750
0.95018899 -2.94152474 -1.61337578
-1.31505585 1.24620485 0.78846639
0.05787442 2.47375751 4.16418314
1.38285899 0.20201433 -0.32914606
0.29624724 4.35995626 -0.66092998
1.17361903 1.55566859 2.02710342
-0.75293458 1.76722205 3.70555115
0.37362266 2.33068085 4.05282688
0.70727503 -2.26032138 -3.48716140
-0.61538965 2.54082203 -3.47617579
-0.15375270 -0.81503463 4.87509298
0.14697760 -2.07715440 -4.39569426
-0.91772801 0.61061019 3.68033028
1.18823504 -2.21093202 0.80080086
0.50533944 -0.59062582 -4.59967375
0.74105662 -3.80634999 0.16536891
-1.35152817 -0.05307355 -1.12351751
0.69978029 3.66855264 -1.42900527
-1.18530929 0.14814824 2.58730292
0.59643370 -1.05794406 -4.34953833
0.95852870 -3.25057793 -0.21312812
-1.14051557 -2.18816042 1.48114526
-0.40484989 4.08211899 1.52314425
1.18173206 -0.30781677 -2.59239554
-0.28214076 4.24199820 -1.33599114
-0.28525880 -4.33071136 -0.91641968
0.34292492 3.66785097 2.61954546
0.83829558 2.23423553 3.11136365
-1.31661272 -1.39404857 -0.29109722
-1.28328812 -0.45793012 -1.82556868
0.96241182 -1.08845925 -3.38493395
-1.11417985 -0.61854291 2.89410567
-1.16491616 1.88403738 -1.73035097
-0.16283889 -2.67966533 -3.96781778
1.17326856 -2.30101848 -0.77694219
1.01199603 0.25170329 -3.40133977
-0.60443407 -2.03486371 -3.88607907
0.21674091 -0.94454992 4.81608152
-0.54930198 -4.04290342 0.96452355
-0.68217188 -2.12736773 3.65017962
-1.26505435 1.84763288 -0.06778289
-1.10708976 2.63203788 -0.73115450
-0.42555901 1.97890615 4.21310472
-0.98479587 -2.91862535 -1.37547433
0.60955209 3.19020200 2.75660110
-0.65409255 -3.64713407 1.74337149
-0.87930304 -3.43938875 0.61665934
0.88834125 1.90303385 -3.20110893
-0.89178234 1.80720937 3.25587273
-1.15933383 2.23708320 -1.17287815
0.65494633 -1.67418110 -3.98863935
-0.32252824 -0.55709869 4.81377792
0.70095104 -2.15367174 3.58489418
-0.68328112 -3.54724264 -1.84736812
-0.23676981 4.42248821 0.40641162
-0.20021544 0.09213489 -4.93569613
1.36122477 0.86975586 -0.00188641
-0.29870984 -3.09087515 -3.46567249
-1.15130007 2.38434315 0.88005245
1.12234759 1.00165975 -2.71501875
-0.24984816 1.08299446 -4.75777960
-0.70433605 -3.87860012 0.12945530
0.19149120 -3.51280713 3.04567480
-0.00293414 4.04056644 2.20624518
-1.19819248 -1.66001272 -1.71414781
-1.21923375 -1.43261707 1.77528226
0.23632912 4.13536882 1.78548551
-0.77076405 3.07215381 2.37239695
1.12360799 -1.49254823 -2.41443944
3 249 48 83
3 64 0 62
3 220 34 37
3 64 62 204
3 204 191 64
3 51 191 204
3 213 27 253
3 21 48 249
3 104 24 232
3 40 205 155
3 7 151 128
3 128 151 1
3 115 111 220
3 220 111 244
3 244 34 220
3 113 26 215
3 117 184 66
3 66 51 118
3 184 51 66
3 117 196 30
3 30 184 117
3 30 196 1
3 64 191 84
3 84 0 64
3 84 27 0
3 46 191 79
3 79 191 51
3 79 51 184
3 168 87 100
3 100 23 168
3 168 23 73
3 168 73 122
3 122 87 168
3 25 152 194
3 32 87 192
3 100 87 32
3 32 129 100
3 145 62 0
3 0 27 145
3 220 37 198
3 99 70 207
3 78 246 234
3 246 163 234
3 118 51 108
3 51 204 108
3 126 196 117
3 117 66 126
3 126 66 29
3 148 145 192
3 107 174 41
3 122 164 41
3 81 174 210
3 210 174 107
3 210 97 81
3 38 204 62
3 38 148 97
3 38 246 78
3 38 97 246
3 73 33 105
3 207 70 105
3 112 86 90
3 146 177 90
3 231 213 127
3 27 213 231
3 134 45 67
3 67 229 134
3 185 86 134
3 134 229 185
3 249 83 94
3 112 90 98
3 150 45 134
3 175 23 100
3 11 183 50
3 47 24 104
3 47 21 249
3 104 21 47
3 186 232 24
3 186 133 9
3 24 133 186
3 31 40 155
3 215 26 88
3 136 113 215
3 251 113 136
3 7 128 91
3 212 167 11
3 225 232 233
3 104 232 225
3 225 140 104
3 44 183 11
3 11 167 44
3 44 167 111
3 121 34 110
3 34 244 110
3 111 167 110
3 110 244 111
3 218 177 146
3 121 110 240
3 233 124 130
3 56 16 192
3 192 145 56
3 56 231 16
3 56 145 27
3 27 231 56
3 129 32 22
3 22 214 152
3 152 25 22
3 22 25 129
3 107 41 221
3 221 41 164
3 164 70 221
3 70 99 221
3 20 69 120
3 120 42 20
3 120 69 36
3 20 42 153
3 153 126 29
3 101 69 20
3 36 69 101
3 101 163 36
3 101 234 163
3 62 145 169
3 145 148 169
3 169 38 62
3 148 38 169
3 192 87 243
3 243 148 192
3 97 148 243
3 89 174 81
3 89 41 174
3 222 163 246
3 255 210 107
3 107 221 255
3 65 38 78
3 204 38 65
3 65 108 204
3 122 73 200
3 73 105 200
3 200 164 122
3 200 70 164
3 200 105 70
3 80 98 226
3 226 98 90
3 9 133 226
3 226 133 80
3 178 141 229
3 229 67 178
3 49 127 194
3 49 231 127
3 194 152 49
3 152 214 49
3 49 214 16
3 16 231 49
3 254 77 102
3 102 77 245
3 86 185 199
3 146 90 199
3 199 90 86
3 85 150 134
3 85 86 112
3 134 86 85
3 23 175 61
3 73 23 61
3 61 33 73
3 48 33 61
3 11 50 147
3 147 50 21
3 147 140 11
3 147 21 104
3 104 140 147
3 202 183 207
3 202 50 183
3 202 33 48
3 48 21 202
3 21 50 202
3 207 105 202
3 202 105 33
3 158 133 24
3 158 47 249
3 24 47 158
3 249 94 158
3 26 124 208
3 208 88 26
3 232 186 157
3 9 161 157
3 157 186 9
3 57 157 161
3 233 232 57
3 232 157 57
3 3 31 188
3 188 31 155
3 166 88 40
3 3 203 166
3 215 88 166
3 166 31 3
3 40 31 166
3 166 136 215
3 203 136 166
3 216 136 203
3 216 203 7
3 106 170 63
3 92 170 242
3 180 212 156
3 140 225 156
3 2 110 167
3 2 212 180
3 167 212 2
3 180 240 2
3 2 240 110
3 230 240 171
3 121 240 230
3 93 30 1
3 129 25 72
3 58 82 224
3 114 32 192
3 114 22 32
3 192 16 114
3 16 214 114
3 214 22 114
3 237 206 149
3 123 206 237
3 123 237 19
3 19 18 115
3 95 18 19
3 8 120 36
3 149 206 8
3 8 222 149
3 36 163 8
3 163 222 8
3 42 120 131
3 242 170 247
3 247 42 242
3 247 153 42
3 142 101 20
3 108 101 142
3 20 153 142
3 142 153 29
3 118 108 142
3 142 66 118
3 29 66 142
3 234 101 109
3 109 101 108
3 108 65 109
3 78 234 109
3 109 65 78
3 81 97 190
3 97 243 190
3 190 89 81
3 41 89 190
3 122 41 190
3 190 87 122
3 190 243 87
3 119 222 246
3 210 222 119
3 246 97 119
3 97 210 119
3 149 222 217
3 217 222 210
3 210 255 217
3 217 237 149
3 10 18 95
3 183 18 10
3 60 177 144
3 144 161 60
3 60 90 177
3 60 226 90
3 60 161 9
3 9 226 60
3 189 178 67
3 189 45 194
3 189 67 45
3 194 127 189
3 127 178 189
3 176 84 191
3 176 191 46
3 253 27 176
3 27 84 176
3 46 241 176
3 241 75 176
3 209 139 254
3 209 241 139
3 209 75 241
3 141 14 143
3 143 209 254
3 14 209 143
3 253 176 250
3 250 176 75
3 250 213 253
3 75 209 250
3 250 209 14
3 141 178 52
3 52 14 141
3 52 250 14
3 52 178 127
3 127 213 52
3 213 250 52
3 254 139 55
3 55 77 254
3 139 132 55
3 138 77 55
3 55 132 138
3 146 199 12
3 12 218 146
3 205 218 12
3 193 199 185
3 80 133 172
3 172 17 80
3 133 158 172
3 94 17 172
3 172 158 94
3 197 98 80
3 80 17 197
3 224 150 197
3 197 17 224
3 239 61 175
3 175 58 239
3 239 83 48
3 48 61 239
3 239 94 83
3 125 161 144
3 144 208 125
3 125 57 161
3 125 208 124
3 125 124 233
3 233 57 125
3 252 208 144
3 88 208 252
3 144 177 252
3 177 218 252
3 40 88 252
3 205 40 252
3 252 218 205
3 251 136 162
3 136 216 162
3 106 63 159
3 159 63 91
3 1 196 159
3 196 106 159
3 159 128 1
3 159 91 128
3 170 92 13
3 59 63 13
3 13 63 170
3 13 74 59
3 180 156 103
3 103 240 180
3 171 240 103
3 140 156 39
3 39 156 212
3 11 140 39
3 39 212 11
3 135 113 251
3 121 230 135
3 171 130 35
3 35 230 171
3 35 124 26
3 35 130 124
3 35 135 230
3 26 113 35
3 113 135 35
3 139 241 211
3 211 132 139
3 211 241 46
3 46 79 211
3 211 79 184
3 184 30 96
3 96 211 184
3 132 211 96
3 138 132 96
3 30 93 96
3 96 93 138
3 181 72 25
3 82 72 181
3 100 129 6
3 129 72 6
3 6 175 100
3 53 17 94
3 94 239 53
3 53 239 58
3 224 17 53
3 53 58 224
3 183 44 71
3 71 18 183
3 115 18 71
3 111 115 71
3 71 44 111
3 173 198 123
3 123 19 173
3 173 19 115
3 173 115 220
3 220 198 173
3 242 42 5
3 42 131 5
3 5 92 242
3 123 198 28
3 28 5 131
3 28 198 37
3 37 5 28
3 179 131 120
3 179 28 131
3 179 206 123
3 123 28 179
3 182 170 106
3 182 247 170
3 182 106 196
3 196 126 182
3 126 153 182
3 153 247 182
3 237 217 195
3 95 19 195
3 195 19 237
3 195 217 255
3 195 10 95
3 255 10 195
3 187 255 221
3 187 10 255
3 187 221 99
3 187 99 207
3 207 183 187
3 183 10 187
3 229 141 76
3 141 193 76
3 76 185 229
3 76 193 185
3 4 12 199
3 155 205 4
3 205 12 4
3 150 85 238
3 238 197 150
3 238 85 112
3 112 98 238
3 98 197 238
3 59 74 160
3 7 91 160
3 160 216 7
3 160 162 216
3 160 63 59
3 91 63 160
3 137 5 37
3 92 5 137
3 248 156 225
3 248 103 156
3 248 225 233
3 171 103 248
3 233 130 248
3 248 130 171
3 227 188 245
3 3 188 227
3 1 151 219
3 219 93 1
3 219 236 93
3 82 181 154
3 224 82 154
3 45 150 154
3 154 150 224
3 175 6 165
3 165 6 72
3 165 58 175
3 165 72 82
3 82 58 165
3 120 8 201
3 201 179 120
3 201 8 206
3 206 179 201
3 155 4 116
3 116 188 155
3 116 102 245
3 245 188 116
3 199 193 235
3 235 4 199
3 254 102 235
3 102 116 235
3 235 116 4
3 235 193 141
3 235 143 254
3 141 143 235
3 68 160 74
3 162 160 68
3 251 162 68
3 68 74 121
3 121 135 68
3 68 135 251
3 223 34 121
3 121 74 223
3 223 37 34
3 223 137 37
3 228 227 245
3 236 227 228
3 245 77 228
3 228 77 138
3 138 93 228
3 93 236 228
3 43 227 236
3 236 219 43
3 3 227 43
3 43 219 151
3 43 203 3
3 43 151 7
3 7 203 43
3 45 154 15
3 15 154 181
3 194 45 15
3 15 25 194
3 15 181 25
3 137 223 54
3 54 13 92
3 92 137 54
3 74 13 54
3 54 223 74