ply
format ascii 1.0
comment https://github.com/mikedh/trimesh
element vertex 256
property float x
property float y
property float z
element face 508
property list uchar int vertex_indices
end_header
0.57232779 2.72464705 0.08928617
-0.80745971 1.30409861 -0.98236448
-0.31527159 -2.88475180 -0.63257855
-1.05557144 0.60461456 -0.07817426
-0.85691690 0.74799848 1.05027401
-0.06155327 -0.39235386 -1.86453867
0.68044436 0.06917176 1.45636904
-0.98085296 0.14884567 -0.76690447
0.50787485 0.00217154 -1.65891588
-0.48464245 -1.95933390 1.23105431
0.60864389 -2.12699842 -0.93030983
0.01191231 -3.21768928 -0.11598148
-0.84016627 0.36017817 1.15578389
-0.50926381 -0.65266526 -1.61298335
-0.21365148 2.71506357 0.94371974
0.24182957 0.80856746 1.77152979
0.72651315 1.72493637 0.95466256
0.08916365 -1.38650811 1.69156003
0.34588850 -2.55089450 -0.97839451
0.32454932 -2.08382750 -1.31892288
0.19873887 1.00524557 -1.75352323
0.17211893 -2.97998142 0.65176535
0.70179063 1.17649388 1.25013387
0.81753325 -0.88249302 1.10866165
-0.23563330 -2.38421035 1.19795263
0.51038522 0.99505562 1.55070198
-0.92138910 -1.65019941 -0.11840522
0.42460787 2.83323193 0.50505167
0.14200489 -1.01762545 -1.76825488
-0.02890538 1.92126620 -1.51001120
-0.43353441 2.24792337 -1.11467350
-1.05675280 0.30591601 0.30097982
0.88222188 0.49499133 1.03628588
0.72045332 -1.98520255 0.77994198
-0.38076463 -2.02228045 -1.30528760
-0.84407175 -1.92578399 -0.30951151
0.52361262 0.60607672 -1.60481322
-0.17048804 -1.53922224 -1.62594295
0.83183157 1.82603836 -0.53566188
-0.16884391 -3.18324709 -0.03901101
-1.06064916 -0.18924733 0.29146385
1.04819202 -0.71893018 -0.05181418
0.07894564 0.51727504 -1.85187280
-1.00367272 1.02817917 -0.31068507
0.03365942 -2.97243714 -0.72660106
0.10437543 0.88142926 1.80064321
0.00208959 3.16825914 -0.34675428
-0.04457748 -2.86165929 0.86355680
0.53932804 -2.28738880 0.93129861
0.53683841 1.94874132 1.16751075
0.34714943 -3.04894280 -0.06995886
0.13223174 2.78897309 -0.91560453
-0.09575240 2.59672022 1.10222638
0.28467375 -1.24116528 1.66370511
-0.45686147 -1.04569662 -1.59034967
-0.58486968 2.69233751 0.16016556
0.78400785 1.86089969 0.69256324
-0.66056788 -2.35757065 0.55809242
0.42546034 -0.76265681 1.67029667
-0.67732435 -0.35025305 -1.44663012
-0.64349282 -1.55820298 1.20307398
0.68119401 -1.30360603 1.24164808
0.71781808 2.39798021 -0.06519639
-0.69381565 0.21973993 -1.43172133
0.50429469 2.82891846 -0.18884024
0.62777793 2.15782976 -0.86575079
-0.08267198 2.32472062 -1.29605997
-0.10132238 1.27255237 1.71972466
-0.78078425 -1.08061802 -1.13077271
0.32509559 0.84750444 -1.72380733
0.88006806 -1.84913576 0.07860403
0.17349565 -2.81666708 -0.86477023
0.56182522 0.13176200 1.60238814
0.88281095 -1.13845658 0.84465343
-0.66831875 -1.11092520 -1.32412040
-0.09631428 3.14660811 0.37175995
-0.45765868 1.47026443 1.47042620
-0.72208279 2.32096291 0.33376122
0.71823996 1.81897640 -0.91329926
0.02663155 3.06249595 -0.58561176
-0.38445666 -1.30456567 1.58376741
1.05417264 0.01314291 -0.37379265
0.40536454 -0.34679177 1.73058820
0.44275457 -2.03546309 1.23612630
0.40854603 2.98159838 0.02113979
-0.29235628 -0.00125956 1.81050146
-0.50160044 0.15567155 1.66207588
0.98177969 0.21874252 0.75862521
-1.04334450 -0.70829153 0.19576173
1.06229305 -0.37028232 -0.19912465
-0.61956882 -0.24225610 1.53131425
-0.79591209 0.58131683 -1.21878469
-0.35573924 -0.58776385 -1.74223757
-0.75904226 2.05467772 -0.58260882
0.21008895 -1.98661649 1.43507886
0.51561594 -2.02944994 -1.15077734
-0.48592240 2.57121277 -0.75188380
1.03169620 0.56669956 -0.41609138
-0.38804892 -0.87123626 1.67927682
0.81451958 -2.06657457 -0.23798293
0.83362585 -0.26878020 1.17783868
0.49176815 1.12133062 -1.54002631
-0.82106251 1.60110891 0.77687728
-0.47613528 -2.86795568 -0.21146177
-0.17004353 -2.97712636 0.65751743
0.85438710 -1.77397156 0.48301217
-0.53888375 1.10236120 -1.49577475
0.95304453 -0.91367209 -0.69003928
0.33924341 2.29818702 -1.17870080
0.62088889 1.77895391 -1.13299310
-0.26066664 -2.54830766 -1.05915189
-0.08874256 -2.47723603 -1.19343328
-0.40832341 -0.45978585 1.72024167
-0.95311517 -1.37906802 -0.33665863
0.80856997 1.16940355 1.03643358
0.05549821 -2.38678837 -1.26072443
-0.89148909 1.05155480 0.85552144
-0.28427508 2.28949356 -1.22717142
0.11945372 2.39445376 -1.24205685
0.88288331 0.28382725 -1.06166363
0.32821742 0.31700042 -1.78193212
-0.57060194 -1.91813052 -1.13617849
1.00741732 -0.83483112 0.44502857
0.27154130 -1.16642070 -1.68840241
-0.83123565 -2.00743437 0.23237404
-0.79819238 -1.96422005 0.52574885
-0.18496351 1.85822415 -1.50382161
0.26797315 2.34423637 1.20296741
-0.84708244 0.85557586 -1.04616594
0.70695275 0.50682920 1.38669026
-0.72987604 -2.36782360 -0.02871410
0.08433016 -0.38900751 -1.86160469
-0.56793237 2.66501188 -0.36579457
-0.26607421 -2.05371332 1.37438178
-0.28499129 0.53232324 1.78727579
-0.86542678 -1.68744206 -0.52702761
-1.00423467 -0.96671402 -0.36899596
-0.32480791 -0.99321032 -1.69712305
-0.67854464 2.40826130 -0.39475036
-0.40490529 2.94492102 0.29211828
-0.14780091 -3.14287996 0.33060884
-0.41301313 2.01291108 1.27984929
0.12473265 1.97193420 -1.47221529
-0.47789982 2.25973654 1.04997277
-0.84176016 -1.30116475 0.89162433
0.80160528 2.00528169 0.45139375
-0.74839467 -0.16889098 1.34775233
0.08272444 -3.18216681 0.26330650
0.94474387 1.53959143 -0.04682549
0.63820755 -0.63912952 -1.46771169
-0.13119645 -0.07981764 1.86677551
-0.93319637 0.86635399 -0.78696752
0.53553993 1.46929681 1.38763094
-0.02310793 1.24388492 -1.73502994
0.18950988 0.17911808 1.84888768
-1.00420558 0.37798524 0.63726485
-0.37680110 -3.01912785 -0.03976685
-0.55801195 -2.31415462 0.87352449
-0.09739077 -2.19352317 1.36845732
-0.65420592 0.92562175 -1.39293456
-0.77245438 -0.59463853 -1.26223147
-0.66989154 -1.98308587 0.90978575
-0.94542408 -0.79501837 -0.76770133
0.69377857 0.61240685 -1.39276922
0.97273308 -1.37433887 0.04302466
0.53456521 -0.31729504 1.62204647
-1.06818283 -0.33841890 -0.10120932
-0.12902427 -2.99709845 -0.65478688
0.95254368 -0.49202222 0.82497543
0.86445832 1.88598168 -0.20508528
-0.32505739 0.22124572 -1.78922319
-0.64792806 -2.54806614 -0.20711857
-0.00041915 -1.86171365 1.53595626
0.16984305 -1.86180604 -1.50663221
1.00037050 -0.54730797 -0.61318123
0.60303563 -0.95169759 1.45536971
0.05576568 3.14983821 0.38912383
-0.81810898 -1.00057209 1.07302415
-0.09223370 1.91830540 1.50435710
0.25455478 -0.54191035 -1.80070937
-0.37080491 -2.95937848 -0.36819518
0.42133486 0.59803051 1.69547224
-0.36691365 1.34045410 -1.58634484
0.36483857 -2.97122145 -0.35364789
-0.19058807 2.78173041 -0.89089537
-0.40758976 0.78975886 1.67891204
-0.37438360 -2.23139548 1.18948531
0.73664355 -2.10529852 -0.60841739
-1.01951027 0.89192975 0.29733723
0.04486772 1.77050972 1.57034791
1.07207525 0.14458504 -0.12412370
0.22966865 3.12049413 -0.24924217
0.90985996 1.11341822 0.76443750
-0.58372009 1.26483047 1.39739406
0.28965470 1.66810739 1.52835464
0.54832208 -1.61775005 -1.31503749
-0.47708702 1.81850898 -1.31089473
-0.11919832 -0.58333397 1.83843791
0.11394586 -1.48665428 -1.65765262
-0.71147788 0.43702400 1.38788307
0.92119116 -1.58240128 0.30198866
0.39176944 -0.42272085 -1.73457515
0.57451159 -2.72426867 0.06236199
-1.04778576 -0.03798563 -0.42368776
0.54251164 2.62564492 -0.53888977
-0.91892290 0.10603219 0.97569335
0.46239117 -0.75718832 -1.64024687
0.74310899 -2.32649326 -0.08037238
-0.88419616 -1.56610310 0.55855215
-0.31386393 2.92164111 0.57439035
0.91614956 -0.22030963 -0.97761381
-0.21873245 3.03606939 -0.50381333
-0.22114974 -3.09956312 -0.34558946
0.26585600 2.62514257 0.98785228
0.64989704 1.59907997 1.17332101
-1.02071726 -0.99774402 -0.10977518
-0.99488199 -0.32774827 -0.68843704
0.74611944 -0.77902853 -1.27648664
-0.86377907 -0.44270155 1.09139121
-0.90311289 1.34843731 -0.65252972
-0.12624247 -1.91788149 -1.49629700
0.90958822 -1.64687765 -0.29299134
0.78456002 0.18014827 -1.28267348
-0.46859354 -1.45638609 -1.46547258
0.16803056 -0.67603022 1.81618428
-0.42585185 -2.89357400 0.36372983
-0.52886057 -1.52259278 1.37651300
-0.98074603 1.32238185 -0.02556149
-0.85828245 1.88379383 -0.27572441
-0.32991889 1.41633642 1.58879673
-0.76347286 -2.08890915 -0.51870275
0.47256139 2.28328133 1.03953707
-0.50709182 -2.61031508 0.65743983
-0.68168849 -2.46162820 0.23254734
0.68869549 1.36203325 -1.20716465
-0.69136322 1.29345012 1.22781658
-0.89878517 1.60111809 -0.44230208
0.50775373 -1.19823956 -1.50414896
-0.25004327 -0.39872488 1.81531549
0.54341936 -1.54141903 1.35189331
-0.52972054 -2.53882122 -0.69665784
-0.18355817 3.16524911 0.15326118
-0.15521902 0.06594250 -1.86129189
1.05530310 0.62249887 -0.00071138
-0.23157780 -2.21219134 -1.30693388
-0.89255697 1.70651448 0.33187506
0.87011123 0.71690470 -1.02385604
-0.19369729 0.77511728 -1.79419816
-0.54604357 -2.77597928 0.04881867
0.14845547 -2.51417518 1.14854920
-0.00227472 2.89190125 0.83199340
-0.92891073 -1.18809903 -0.64641935
-0.94522315 -1.02534807 0.66947365
0.18321651 2.95975304 0.67332137
-0.59754258 2.19879198 0.89465052
0.87108833 -1.06824183 -0.91050512
3 249 48 83
3 64 0 62
3 220 34 37
3 64 62 204
3 204 191 64
3 51 191 204
3 213 27 253
3 21 48 249
3 104 24 232
3 40 205 155
3 7 151 128
3 128 151 1
3 115 111 220
3 220 111 244
3 244 34 220
3 113 26 215
3 117 184 66
3 66 51 118
3 184 51 66
3 117 196 30
3 30 184 117
3 30 196 1
3 64 191 84
3 84 0 64
3 84 27 0
3 46 191 79
3 79 191 51
3 79 51 184
3 168 87 100
3 100 23 168
3 168 23 73
3 168 73 122
3 122 87 168
3 25 152 194
3 32 87 192
3 100 87 32
3 32 129 100
3 145 62 0
3 0 27 145
3 220 37 198
3 99 70 207
3 78 246 234
3 246 163 234
3 118 51 108
3 51 204 108
3 126 196 117
3 117 66 126
3 126 66 29
3 148 145 192
3 107 174 41
3 122 164 41
3 81 174 210
3 210 174 107
3 210 97 81
3 38 204 62
3 38 148 97
3 38 246 78
3 38 97 246
3 73 33 105
3 207 70 105
3 112 86 90
3 146 177 90
3 231 213 127
3 27 213 231
3 134 45 67
3 67 229 134
3 185 86 134
3 134 229 185
3 249 83 94
3 112 90 98
3 150 45 134
3 175 23 100
3 11 183 50
3 47 24 104
3 47 21 249
3 104 21 47
3 186 232 24
3 186 133 9
3 24 133 186
3 31 40 155
3 215 26 88
3 136 113 215
3 251 113 136
3 7 128 91
3 212 167 11
3 225 232 233
3 104 232 225
3 225 140 104
3 44 183 11
3 11 167 44
3 44 167 111
3 121 34 110
3 34 244 110
3 111 167 110
3 110 244 111
3 218 177 146
3 121 110 240
3 233 124 130
3 56 16 192
3 192 145 56
3 56 231 16
3 56 145 27
3 27 231 56
3 129 32 22
3 22 214 152
3 152 25 22
3 22 25 129
3 107 41 221
3 221 41 164
3 164 70 221
3 70 99 221
3 20 69 120
3 120 42 20
3 120 69 36
3 20 42 153
3 153 126 29
3 101 69 20
3 36 69 101
3 101 163 36
3 101 234 163
3 62 145 169
3 145 148 169
3 169 38 62
3 148 38 169
3 192 87 243
3 243 148 192
3 97 148 243
3 89 174 81
3 89 41 174
3 222 163 246
3 255 210 107
3 107 221 255
3 65 38 78
3 204 38 65
3 65 108 204
3 122 73 200
3 73 105 200
3 200 164 122
3 200 70 164
3 200 105 70
3 80 98 226
3 226 98 90
3 9 133 226
3 226 133 80
3 178 141 229
3 229 67 178
3 49 127 194
3 49 231 127
3 194 152 49
3 152 214 49
3 49 214 16
3 16 231 49
3 254 77 102
3 102 77 245
3 86 185 199
3 146 90 199
3 199 90 86
3 85 150 134
3 85 86 112
3 134 86 85
3 23 175 61
3 73 23 61
3 61 33 73
3 48 33 61
3 11 50 147
3 147 50 21
3 147 140 11
3 147 21 104
3 104 140 147
3 202 183 207
3 202 50 183
3 202 33 48
3 48 21 202
3 21 50 202
3 207 105 202
3 202 105 33
3 158 133 24
3 158 47 249
3 24 47 158
3 249 94 158
3 26 124 208
3 208 88 26
3 232 186 157
3 9 161 157
3 157 186 9
3 57 157 161
3 233 232 57
3 232 157 57
3 3 31 188
3 188 31 155
3 166 88 40
3 3 203 166
3 215 88 166
3 166 31 3
3 40 31 166
3 166 136 215
3 203 136 166
3 216 136 203
3 216 203 7
3 106 170 63
3 92 170 242
3 180 212 156
3 140 225 156
3 2 110 167
3 2 212 180
3 167 212 2
3 180 240 2
3 2 240 110
3 230 240 171
3 121 240 230
3 93 30 1
3 129 25 72
3 58 82 224
3 114 32 192
3 114 22 32
3 192 16 114
3 16 214 114
3 214 22 114
3 237 206 149
3 123 206 237
3 123 237 19
3 19 18 115
3 95 18 19
3 8 120 36
3 149 206 8
3 8 222 149
3 36 163 8
3 163 222 8
3 42 120 131
3 242 170 247
3 247 42 242
3 247 153 42
3 142 101 20
3 108 101 142
3 20 153 142
3 142 153 29
3 118 108 142
3 142 66 118
3 29 66 142
3 234 101 109
3 109 101 108
3 108 65 109
3 78 234 109
3 109 65 78
3 81 97 190
3 97 243 190
3 190 89 81
3 41 89 190
3 122 41 190
3 190 87 122
3 190 243 87
3 119 222 246
3 210 222 119
3 246 97 119
3 97 210 119
3 149 222 217
3 217 222 210
3 210 255 217
3 217 237 149
3 10 18 95
3 183 18 10
3 60 177 144
3 144 161 60
3 60 90 177
3 60 226 90
3 60 161 9
3 9 226 60
3 189 178 67
3 189 45 194
3 189 67 45
3 194 127 189
3 127 178 189
3 176 84 191
3 176 191 46
3 253 27 176
3 27 84 176
3 46 241 176
3 241 75 176
3 209 139 254
3 209 241 139
3 209 75 241
3 141 14 143
3 143 209 254
3 14 209 143
3 253 176 250
3 250 176 75
3 250 213 253
3 75 209 250
3 250 209 14
3 141 178 52
3 52 14 141
3 52 250 14
3 52 178 127
3 127 213 52
3 213 250 52
3 254 139 55
3 55 77 254
3 139 132 55
3 138 77 55
3 55 132 138
3 146 199 12
3 12 218 146
3 205 218 12
3 193 199 185
3 80 133 172
3 172 17 80
3 133 158 172
3 94 17 172
3 172 158 94
3 197 98 80
3 80 17 197
3 224 150 197
3 197 17 224
3 239 61 175
3 175 58 239
3 239 83 48
3 48 61 239
3 239 94 83
3 125 161 144
3 144 208 125
3 125 57 161
3 125 208 124
3 125 124 233
3 233 57 125
3 252 208 144
3 88 208 252
3 144 177 252
3 177 218 252
3 40 88 252
3 205 40 252
3 252 218 205
3 251 136 162
3 136 216 162
3 106 63 159
3 159 63 91
3 1 196 159
3 196 106 159
3 159 128 1
3 159 91 128
3 170 92 13
3 59 63 13
3 13 63 170
3 13 74 59
3 180 156 103
3 103 240 180
3 171 240 103
3 140 156 39
3 39 156 212
3 11 140 39
3 39 212 11
3 135 113 251
3 121 230 135
3 171 130 35
3 35 230 171
3 35 124 26
3 35 130 124
3 35 135 230
3 26 113 35
3 113 135 35
3 139 241 211
3 211 132 139
3 211 241 46
3 46 79 211
3 211 79 184
3 184 30 96
3 96 211 184
3 132 211 96
3 138 132 96
3 30 93 96
3 96 93 138
3 181 72 25
3 82 72 181
3 100 129 6
3 129 72 6
3 6 175 100
3 53 17 94
3 94 239 53
3 53 239 58
3 224 17 53
3 53 58 224
3 183 44 71
3 71 18 183
3 115 18 71
3 111 115 71
3 71 44 111
3 173 198 123
3 123 19 173
3 173 19 115
3 173 115 220
3 220 198 173
3 242 42 5
3 42 131 5
3 5 92 242
3 123 198 28
3 28 5 131
3 28 198 37
3 37 5 28
3 179 131 120
3 179 28 131
3 179 206 123
3 123 28 179
3 182 170 106
3 182 247 170
3 182 106 196
3 196 126 182
3 126 153 182
3 153 247 182
3 237 217 195
3 95 19 195
3 195 19 237
3 195 217 255
3 195 10 95
3 255 10 195
3 187 255 221
3 187 10 255
3 187 221 99
3 187 99 207
3 207 183 187
3 183 10 187
3 229 141 76
3 141 193 76
3 76 185 229
3 76 193 185
3 4 12 199
3 155 205 4
3 205 12 4
3 150 85 238
3 238 197 150
3 238 85 112
3 112 98 238
3 98 197 238
3 59 74 160
3 7 91 160
3 160 216 7
3 160 162 216
3 160 63 59
3 91 63 160
3 137 5 37
3 92 5 137
3 248 156 225
3 248 103 156
3 248 225 233
3 171 103 248
3 233 130 248
3 248 130 171
3 227 188 245
3 3 188 227
3 1 151 219
3 219 93 1
3 219 236 93
3 82 181 154
3 224 82 154
3 45 150 154
3 154 150 224
3 175 6 165
3 165 6 72
3 165 58 175
3 165 72 82
3 82 58 165
3 120 8 201
3 201 179 120
3 201 8 206
3 206 179 201
3 155 4 116
3 116 188 155
3 116 102 245
3 245 188 116
3 199 193 235
3 235 4 199
3 254 102 235
3 102 116 235
3 235 116 4
3 235 193 141
3 235 143 254
3 141 143 235
3 68 160 74
3 162 160 68
3 251 162 68
3 68 74 121
3 121 135 68
3 68 135 251
3 223 34 121
3 121 74 223
3 223 37 34
3 223 137 37
3 228 227 245
3 236 227 228
3 245 77 228
3 228 77 138
3 138 93 228
3 93 236 228
3 43 227 236
3 236 219 43
3 3 227 43
3 43 219 151
3 43 203 3
3 43 151 7
3 7 203 43
3 45 154 15
3 15 154 181
3 194 45 15
3 15 25 194
3 15 181 25
3 137 223 54
3 54 13 92
3 92 137 54
3 74 13 54
3 54 223 74