ply
format ascii 1.0
comment https://github.com/mikedh/trimesh
element vertex 256
property float x
property float y
property float z
element face 508
property list uchar int vertex_indices
end_header
0.55009341 3.07400179 0.05973536
-0.77609074 1.47131038 -0.65723383
-0.30302361 -3.25463510 -0.42321566
-1.01456356 0.68213838 -0.05230112
-0.82362658 0.84390694 0.70266753
-0.05916199 -0.44266152 -1.24743712
0.65400982 0.07804097 0.97435832
-0.94274783 0.16793069 -0.51308405
0.48814443 0.00244998 -1.10986876
-0.46581459 -2.21056008 0.82361537
0.58499867 -2.39972258 -0.62240756
0.01144953 -3.63026190 -0.07759539
-0.80752671 0.40636030 0.77325708
-0.48947942 -0.73635012 -1.07913840
-0.20535134 3.06318951 0.63137925
0.23243475 0.91224211 1.18521118
0.69828886 1.94610810 0.63870037
0.08569974 -1.56428635 1.13170874
0.33245108 -2.87797070 -0.65457779
0.31194091 -2.35101628 -0.88240242
0.19101807 1.13413835 -1.17316413
0.16543229 -3.36207509 0.43605226
0.67452675 1.32734418 0.83638030
0.78577292 -0.99564648 0.74173075
-0.22647919 -2.68991423 0.80146933
0.49055728 1.12264180 1.03747010
-0.88559407 -1.86178827 -0.07921695
0.40811229 3.19650960 0.33789602
0.13648815 -1.14810562 -1.18302011
-0.02778244 2.16761136 -1.01024663
-0.41669205 2.53615236 -0.74575293
-1.01569915 0.34514064 0.20136529
0.84794843 0.55845922 0.69330901
0.69246447 -2.23974562 0.52180660
-0.36597231 -2.28157759 -0.87327993
-0.81128043 -2.17270827 -0.20707329
0.50327080 0.68378800 -1.07367229
-0.16386476 -1.73658156 -1.08780885
0.79951578 2.06017327 -0.35837525
-0.16228449 -3.59140348 -0.02609964
-1.01944411 -0.21351264 0.19499882
1.00747085 -0.81111157 -0.03466537
0.07587869 0.58360016 -1.23896325
-0.96468103 1.16001248 -0.20785843
0.03235179 -3.35356355 -0.48611978
0.10032055 0.99444628 1.20468903
0.00200842 3.57449389 -0.23198992
-0.04284570 -3.22858191 0.57774764
0.51837569 -2.58067822 0.62306911
0.51598275 2.19860935 0.78110272
0.33366305 -3.43987870 -0.04680476
0.12709469 3.14657569 -0.61256927
-0.09203252 2.92967224 0.73742533
0.27361447 -1.40030777 1.11307287
-0.43911287 -1.17977607 -1.06399572
-0.56214809 3.03754950 0.10715598
0.75354993 2.09950471 0.46334738
-0.63490546 -2.65985894 0.37338203
0.40893164 -0.86044484 1.11748290
-0.65101099 -0.39516255 -0.96784270
-0.61849380 -1.75799608 0.80489564
0.65473032 -1.47075462 0.83070302
0.68993157 2.70544982 -0.04361850
-0.66686165 0.24791501 -0.95786822
0.48470333 3.19164276 -0.12634027
0.60338938 2.43450713 -0.57921547
-0.07946026 2.62279677 -0.86710632
-0.09738611 1.43571925 1.15055180
-0.75045156 -1.21917510 -0.75652379
0.31246597 0.95617157 -1.15328324
0.84587830 -2.08623219 0.05258865
0.16675553 -3.17782068 -0.57855946
0.53999889 0.14865655 1.07204986
0.84851468 -1.28442979 0.56510067
-0.64235526 -1.25336826 -0.88587970
-0.09257257 3.55006671 0.24871953
-0.43987909 1.65878201 0.98376304
-0.69403058 2.61855721 0.22329713
0.69033706 2.05220580 -0.61102694
0.02559694 3.45516968 -0.39179337
-0.36952090 -1.47183728 1.05959201
1.01321912 0.01482810 -0.25007945
0.38961655 -0.39125746 1.15781987
0.42555401 -2.29645038 0.82700872
0.39267442 3.36389947 0.01414320
-0.28099856 -0.00142106 1.21128452
-0.48211375 0.17563179 1.11198282
0.94363856 0.24678974 0.50754493
-1.00281167 -0.79910874 0.13097097
1.02102411 -0.41775998 -0.13322088
-0.59549922 -0.27331823 1.02449906
-0.76499176 0.65585339 -0.81540662
-0.34191912 -0.66312706 -1.16561365
-0.72955424 2.31812882 -0.38978428
0.20192721 -2.24134088 0.96011448
0.49558482 -2.28966641 -0.76990753
-0.46704480 2.90089417 -0.50303477
0.99161589 0.63936192 -0.27837870
-0.37297362 -0.98294634 1.12349093
0.78287631 -2.33155107 -0.15921834
0.80124038 -0.30324325 0.78801244
0.47266346 1.26510775 -1.03032780
-0.78916508 1.80640340 0.51975620
-0.45763794 -3.23568559 -0.14147481
-0.16343752 -3.35885382 0.43990061
0.82119507 -2.00143051 0.32315087
-0.51794869 1.24370623 -1.00072205
0.91601974 -1.03082335 -0.46165875
0.32606417 2.59286094 -0.78858918
0.59676802 2.00705171 -0.75800931
-0.25053999 -2.87505198 -0.70860714
-0.08529501 -2.79486775 -0.79844570
-0.39246047 -0.51873970 1.15089774
-0.91608763 -1.55589235 -0.22523560
0.77715784 1.31934464 0.69340783
0.05334216 -2.69282293 -0.84346569
-0.85685569 1.18638539 0.57237172
-0.27323130 2.58305287 -0.82101768
0.11481307 2.70147109 -0.83097655
0.84858418 0.32021964 -0.71028751
0.31546652 0.35764626 -1.19217062
-0.54843467 -2.16407371 -0.76014036
0.96828014 -0.94187331 0.29773861
0.26099220 -1.31597936 -1.12959623
-0.79894298 -2.26482797 0.15546580
-0.76718342 -2.21607280 0.35174310
-0.17777787 2.09648609 -1.00610566
0.25756270 2.64481473 0.80482435
-0.81417418 0.96527797 -0.69991904
0.67948836 0.57181495 0.92774099
-0.70152110 -2.67142630 -0.01921067
0.08105402 -0.43888614 -1.24547410
-0.54586881 3.00672030 -0.24472848
-0.25573751 -2.31704068 0.91950619
-0.27391967 0.60057777 1.19574571
-0.83180583 -1.90380621 -0.35259867
-0.96522123 -1.09066629 -0.24687031
-0.31218946 -1.12055993 -1.13543057
-0.65218389 2.71704912 -0.26410085
-0.38917515 3.32251930 0.19543664
-0.14205898 -3.54586077 0.22118808
-0.39696801 2.27100706 0.85626090
0.11988692 2.22477603 -0.98496002
-0.45933390 2.54948044 0.70246595
-0.80905867 -1.46800029 0.59652573
0.77046371 2.26239920 0.30199713
-0.71932030 -0.19054621 0.90169024
0.07951067 -3.59018469 0.17616063
0.90804154 1.73699820 -0.03132778
0.61341387 -0.72107881 -0.98194689
-0.12609962 -0.09005187 1.24893367
-0.89694262 0.97743803 -0.52650690
0.51473475 1.65769029 0.92837036
-0.02221021 1.40337598 -1.16079164
0.18214762 0.20208465 1.23696601
-0.96519321 0.42645058 0.42635095
-0.36216277 -3.40624094 -0.02660532
-0.53633374 -2.61087608 0.58441633
-0.09360724 -2.47477722 0.91554254
-0.62879068 1.04430509 -0.93191856
-0.74244535 -0.67088318 -0.84447402
-0.64386696 -2.23735762 0.60867631
-0.90869534 -0.89695579 -0.51361722
0.66682601 0.69092971 -0.93180799
0.93494344 -1.55055690 0.02878490
0.51379788 -0.35797867 1.08520198
-1.02668500 -0.38181102 -0.06771234
-0.12401181 -3.38138700 -0.43807375
0.91553837 -0.55510938 0.55193543
0.83087498 2.12780261 -0.13720873
-0.31242925 0.24961390 -1.19704866
-0.62275672 -2.87477946 -0.13856907
-0.00040286 -2.10042286 1.02760482
0.16324483 -2.10052705 -1.00798607
0.96150720 -0.61748391 -0.41023821
0.57960832 -1.07372439 0.97368973
0.05359924 3.55371094 0.26033652
-0.78632629 -1.12886572 0.71788812
-0.08865051 2.16427088 1.00646389
0.24466558 -0.61139417 -1.20473325
-0.35639954 -3.33883047 -0.24633457
0.40496644 0.67471004 1.13432622
-0.35265943 1.51232731 -1.06131637
0.35066497 -3.35219216 -0.23660196
-0.18318391 3.13840437 -0.59603804
-0.39175531 0.89102191 1.12324679
-0.35983917 -2.51750541 0.79580444
0.70802569 -2.37524033 -0.40705103
-0.97990334 1.00629318 0.19892828
0.04312466 1.99752486 1.05061400
1.03042626 0.16312377 -0.08304280
0.22074625 3.52060437 -0.16675113
0.87451285 1.25618088 0.51143360
-0.56104314 1.42700732 0.93490213
0.27840191 1.88199246 1.02251899
0.52702034 -1.82517827 -0.87980294
-0.45855266 2.05167842 -0.87703127
-0.11456759 -0.65812916 1.22997487
0.10951918 -1.67727327 -1.10902369
-0.68383765 0.49305928 0.92853898
0.88540381 -1.78529704 0.20204024
0.37654960 -0.47692218 -1.16048729
0.55219239 -3.07357478 0.04172220
-1.00708044 -0.04285616 -0.28346092
0.52143562 2.96230555 -0.36053479
-0.88322371 0.11962765 0.65277064
0.44442776 -0.85427517 -1.09737861
0.71423995 -2.62479663 -0.05377174
-0.84984607 -1.76690912 0.37368959
-0.30167064 3.29625440 0.38428584
0.88055813 -0.24855778 -0.65405548
-0.21023491 3.42535472 -0.33706751
-0.21255830 -3.49698949 -0.23121060
0.25552776 2.96173882 0.66090536
0.62464923 1.80411434 0.78498995
-0.98106343 -1.12567496 -0.07344317
-0.95623189 -0.36977223 -0.46058682
0.71713346 -0.87891573 -0.85401118
-0.83022213 -0.49946484 0.73017627
-0.86802793 1.52133417 -0.43656364
-0.12133809 -2.16379261 -1.00107145
0.87425166 -1.85804057 -0.19602075
0.75408071 0.20324692 -0.85815030
-0.45038918 -1.64312422 -0.98044890
0.16150275 -0.76271099 1.21508646
-0.40930796 -3.26458836 0.24334709
-0.50831491 -1.71781993 0.92093205
-0.94264507 1.49193799 -0.01710147
-0.82493907 2.12533426 -0.18446861
-0.31710187 1.59793937 1.06295681
-0.73381275 -2.35674953 -0.34702903
0.45420286 2.57604408 0.69548422
-0.48739180 -2.94501019 0.43984866
-0.65520561 -2.77725863 0.15558176
0.66194040 1.53667343 -0.80763251
-0.66450447 1.45929646 0.82144928
-0.86386830 1.80641377 -0.29591450
0.48802802 -1.35187805 -1.00632465
-0.24032934 -0.44984946 1.21450520
0.52230805 -1.73906004 0.90446067
-0.50914145 -2.86434913 -0.46608678
-0.17642713 3.57109785 0.10253673
-0.14918892 0.07439765 -1.24526489
1.01430571 0.70231581 -0.00047594
-0.22258125 -2.49583888 -0.87438130
-0.85788202 1.92532408 0.22203523
0.83630830 0.80882633 -0.68499309
-0.18617235 0.87450296 -1.20037699
-0.52483034 -3.13191581 0.03266128
0.14268813 -2.83654308 0.76841682
-0.00218635 3.26270127 0.55663067
-0.89282352 -1.34043729 -0.43247560
-0.90850222 -1.15681839 0.44789967
0.17609875 3.33925319 0.45047393
-0.57432866 2.48072147 0.59855032
0.83724749 -1.20521200 -0.60915756
3 249 48 83
3 64 0 62
3 220 34 37
3 64 62 204
3 204 191 64
3 51 191 204
3 213 27 253
3 21 48 249
3 104 24 232
3 40 205 155
3 7 151 128
3 128 151 1
3 115 111 220
3 220 111 244
3 244 34 220
3 113 26 215
3 117 184 66
3 66 51 118
3 184 51 66
3 117 196 30
3 30 184 117
3 30 196 1
3 64 191 84
3 84 0 64
3 84 27 0
3 46 191 79
3 79 191 51
3 79 51 184
3 168 87 100
3 100 23 168
3 168 23 73
3 168 73 122
3 122 87 168
3 25 152 194
3 32 87 192
3 100 87 32
3 32 129 100
3 145 62 0
3 0 27 145
3 220 37 198
3 99 70 207
3 78 246 234
3 246 163 234
3 118 51 108
3 51 204 108
3 126 196 117
3 117 66 126
3 126 66 29
3 148 145 192
3 107 174 41
3 122 164 41
3 81 174 210
3 210 174 107
3 210 97 81
3 38 204 62
3 38 148 97
3 38 246 78
3 38 97 246
3 73 33 105
3 207 70 105
3 112 86 90
3 146 177 90
3 231 213 127
3 27 213 231
3 134 45 67
3 67 229 134
3 185 86 134
3 134 229 185
3 249 83 94
3 112 90 98
3 150 45 134
3 175 23 100
3 11 183 50
3 47 24 104
3 47 21 249
3 104 21 47
3 186 232 24
3 186 133 9
3 24 133 186
3 31 40 155
3 215 26 88
3 136 113 215
3 251 113 136
3 7 128 91
3 212 167 11
3 225 232 233
3 104 232 225
3 225 140 104
3 44 183 11
3 11 167 44
3 44 167 111
3 121 34 110
3 34 244 110
3 111 167 110
3 110 244 111
3 218 177 146
3 121 110 240
3 233 124 130
3 56 16 192
3 192 145 56
3 56 231 16
3 56 145 27
3 27 231 56
3 129 32 22
3 22 214 152
3 152 25 22
3 22 25 129
3 107 41 221
3 221 41 164
3 164 70 221
3 70 99 221
3 20 69 120
3 120 42 20
3 120 69 36
3 20 42 153
3 153 126 29
3 101 69 20
3 36 69 101
3 101 163 36
3 101 234 163
3 62 145 169
3 145 148 169
3 169 38 62
3 148 38 169
3 192 87 243
3 243 148 192
3 97 148 243
3 89 174 81
3 89 41 174
3 222 163 246
3 255 210 107
3 107 221 255
3 65 38 78
3 204 38 65
3 65 108 204
3 122 73 200
3 73 105 200
3 200 164 122
3 200 70 164
3 200 105 70
3 80 98 226
3 226 98 90
3 9 133 226
3 226 133 80
3 178 141 229
3 229 67 178
3 49 127 194
3 49 231 127
3 194 152 49
3 152 214 49
3 49 214 16
3 16 231 49
3 254 77 102
3 102 77 245
3 86 185 199
3 146 90 199
3 199 90 86
3 85 150 134
3 85 86 112
3 134 86 85
3 23 175 61
3 73 23 61
3 61 33 73
3 48 33 61
3 11 50 147
3 147 50 21
3 147 140 11
3 147 21 104
3 104 140 147
3 202 183 207
3 202 50 183
3 202 33 48
3 48 21 202
3 21 50 202
3 207 105 202
3 202 105 33
3 158 133 24
3 158 47 249
3 24 47 158
3 249 94 158
3 26 124 208
3 208 88 26
3 232 186 157
3 9 161 157
3 157 186 9
3 57 157 161
3 233 232 57
3 232 157 57
3 3 31 188
3 188 31 155
3 166 88 40
3 3 203 166
3 215 88 166
3 166 31 3
3 40 31 166
3 166 136 215
3 203 136 166
3 216 136 203
3 216 203 7
3 106 170 63
3 92 170 242
3 180 212 156
3 140 225 156
3 2 110 167
3 2 212 180
3 167 212 2
3 180 240 2
3 2 240 110
3 230 240 171
3 121 240 230
3 93 30 1
3 129 25 72
3 58 82 224
3 114 32 192
3 114 22 32
3 192 16 114
3 16 214 114
3 214 22 114
3 237 206 149
3 123 206 237
3 123 237 19
3 19 18 115
3 95 18 19
3 8 120 36
3 149 206 8
3 8 222 149
3 36 163 8
3 163 222 8
3 42 120 131
3 242 170 247
3 247 42 242
3 247 153 42
3 142 101 20
3 108 101 142
3 20 153 142
3 142 153 29
3 118 108 142
3 142 66 118
3 29 66 142
3 234 101 109
3 109 101 108
3 108 65 109
3 78 234 109
3 109 65 78
3 81 97 190
3 97 243 190
3 190 89 81
3 41 89 190
3 122 41 190
3 190 87 122
3 190 243 87
3 119 222 246
3 210 222 119
3 246 97 119
3 97 210 119
3 149 222 217
3 217 222 210
3 210 255 217
3 217 237 149
3 10 18 95
3 183 18 10
3 60 177 144
3 144 161 60
3 60 90 177
3 60 226 90
3 60 161 9
3 9 226 60
3 189 178 67
3 189 45 194
3 189 67 45
3 194 127 189
3 127 178 189
3 176 84 191
3 176 191 46
3 253 27 176
3 27 84 176
3 46 241 176
3 241 75 176
3 209 139 254
3 209 241 139
3 209 75 241
3 141 14 143
3 143 209 254
3 14 209 143
3 253 176 250
3 250 176 75
3 250 213 253
3 75 209 250
3 250 209 14
3 141 178 52
3 52 14 141
3 52 250 14
3 52 178 127
3 127 213 52
3 213 250 52
3 254 139 55
3 55 77 254
3 139 132 55
3 138 77 55
3 55 132 138
3 146 199 12
3 12 218 146
3 205 218 12
3 193 199 185
3 80 133 172
3 172 17 80
3 133 158 172
3 94 17 172
3 172 158 94
3 197 98 80
3 80 17 197
3 224 150 197
3 197 17 224
3 239 61 175
3 175 58 239
3 239 83 48
3 48 61 239
3 239 94 83
3 125 161 144
3 144 208 125
3 125 57 161
3 125 208 124
3 125 124 233
3 233 57 125
3 252 208 144
3 88 208 252
3 144 177 252
3 177 218 252
3 40 88 252
3 205 40 252
3 252 218 205
3 251 136 162
3 136 216 162
3 106 63 159
3 159 63 91
3 1 196 159
3 196 106 159
3 159 128 1
3 159 91 128
3 170 92 13
3 59 63 13
3 13 63 170
3 13 74 59
3 180 156 103
3 103 240 180
3 171 240 103
3 140 156 39
3 39 156 212
3 11 140 39
3 39 212 11
3 135 113 251
3 121 230 135
3 171 130 35
3 35 230 171
3 35 124 26
3 35 130 124
3 35 135 230
3 26 113 35
3 113 135 35
3 139 241 211
3 211 132 139
3 211 241 46
3 46 79 211
3 211 79 184
3 184 30 96
3 96 211 184
3 132 211 96
3 138 132 96
3 30 93 96
3 96 93 138
3 181 72 25
3 82 72 181
3 100 129 6
3 129 72 6
3 6 175 100
3 53 17 94
3 94 239 53
3 53 239 58
3 224 17 53
3 53 58 224
3 183 44 71
3 71 18 183
3 115 18 71
3 111 115 71
3 71 44 111
3 173 198 123
3 123 19 173
3 173 19 115
3 173 115 220
3 220 198 173
3 242 42 5
3 42 131 5
3 5 92 242
3 123 198 28
3 28 5 131
3 28 198 37
3 37 5 28
3 179 131 120
3 179 28 131
3 179 206 123
3 123 28 179
3 182 170 106
3 182 247 170
3 182 106 196
3 196 126 182
3 126 153 182
3 153 247 182
3 237 217 195
3 95 19 195
3 195 19 237
3 195 217 255
3 195 10 95
3 255 10 195
3 187 255 221
3 187 10 255
3 187 221 99
3 187 99 207
3 207 183 187
3 183 10 187
3 229 141 76
3 141 193 76
3 76 185 229
3 76 193 185
3 4 12 199
3 155 205 4
3 205 12 4
3 150 85 238
3 238 197 150
3 238 85 112
3 112 98 238
3 98 197 238
3 59 74 160
3 7 91 160
3 160 216 7
3 160 162 216
3 160 63 59
3 91 63 160
3 137 5 37
3 92 5 137
3 248 156 225
3 248 103 156
3 248 225 233
3 171 103 248
3 233 130 248
3 248 130 171
3 227 188 245
3 3 188 227
3 1 151 219
3 219 93 1
3 219 236 93
3 82 181 154
3 224 82 154
3 45 150 154
3 154 150 224
3 175 6 165
3 165 6 72
3 165 58 175
3 165 72 82
3 82 58 165
3 120 8 201
3 201 179 120
3 201 8 206
3 206 179 201
3 155 4 116
3 116 188 155
3 116 102 245
3 245 188 116
3 199 193 235
3 235 4 199
3 254 102 235
3 102 116 235
3 235 116 4
3 235 193 141
3 235 143 254
3 141 143 235
3 68 160 74
3 162 160 68
3 251 162 68
3 68 74 121
3 121 135 68
3 68 135 251
3 223 34 121
3 121 74 223
3 223 37 34
3 223 137 37
3 228 227 245
3 236 227 228
3 245 77 228
3 228 77 138
3 138 93 228
3 93 236 228
3 43 227 236
3 236 219 43
3 3 227 43
3 43 219 151
3 43 203 3
3 43 151 7
3 7 203 43
3 45 154 15
3 15 154 181
3 194 45 15
3 15 25 194
3 15 181 25
3 137 223 54
3 54 13 92
3 92 137 54
3 74 13 54
3 54 223 74