ply
format ascii 1.0
comment https://github.com/mikedh/trimesh
element vertex 256
property float x
property float y
property float z
element face 508
property list uchar int vertex_indices
end_header
2.21487141 1.20725167 0.09497032
-3.12481689 0.57782722 -1.04490387
-1.22008049 -1.27819169 -0.67284983
-4.08499289 0.26789597 -0.08315099
-3.31621289 0.33142728 1.11713672
-0.23820715 -0.17384630 -1.98323905
2.63327551 0.03064900 1.54908454
-3.79583716 0.06595136 -0.81572717
1.96544266 0.00096218 -1.76452589
-1.87553489 -0.86815244 1.30942571
2.35541224 -0.94244218 -0.98953527
0.04609986 -1.42571139 -0.12336510
-3.25138903 0.15958974 1.22936344
-1.97081792 -0.28918651 -1.71566916
-0.82681733 1.20300531 1.00379884
0.93586475 0.35826451 1.88430905
2.81155872 0.76429433 1.01543844
0.34505755 -0.61434162 1.79924834
1.33856606 -1.13026440 -1.04068112
1.25598478 -0.92331380 -1.40288830
0.76910657 0.44540974 -1.86515617
0.66608912 -1.32038653 0.69325811
2.71588421 0.52128738 1.32972002
3.16380072 -0.39101988 1.17924130
-0.91188556 -1.05640912 1.27421677
1.97515774 0.44089472 1.64942288
-3.56571603 -0.73117942 -0.12594314
1.64320493 1.25536406 0.53720433
0.54954976 -0.45089510 -1.88082564
-0.11186196 0.85128522 -1.60614157
-1.67775011 0.99602222 -1.18563604
-4.08956480 0.13554695 0.32014081
3.41414142 0.21932349 1.10225797
2.78810763 -0.87961447 0.82959467
-1.47353435 -0.89604312 -1.38838494
-3.26650286 -0.85328698 -0.32921565
2.02634692 0.26854381 -1.70697904
-0.65977764 -0.68200707 -1.72945392
3.21913433 0.80909109 -0.56976324
-0.65341496 -1.41045058 -0.04149453
-4.10464334 -0.08385275 0.31001905
4.05643511 -0.31854755 -0.05511278
0.30551454 0.22919707 -1.96976686
-3.88414812 0.45557129 -0.33046392
0.13025980 -1.31704378 -0.77285802
0.40392613 0.39054853 1.91527593
0.00808659 1.40380967 -0.36882940
-0.17251197 -1.26795983 0.91853261
2.08716464 -1.01350880 0.99058706
2.07752967 0.86345899 1.24183691
1.34344578 -1.35094237 -0.07441258
0.51172829 1.23575354 -0.97389382
-0.37055558 1.15056908 1.17239642
1.10166895 -0.54994237 1.76962006
-1.76802421 -0.46333304 -1.69159472
-2.26340771 1.19293571 0.17036203
3.03405952 0.82453769 0.73665327
-2.55635476 -1.04460549 0.59362179
1.64650393 -0.33792219 1.77663124
-2.62120128 -0.15519205 -1.53872561
-2.49027538 -0.69041717 1.27966416
2.63617659 -0.57760894 1.32069409
2.77790928 1.06251037 -0.06934692
-2.68502164 0.09736358 -1.52286768
1.95158768 1.25345278 -0.20086220
2.42945981 0.95610309 -0.92086631
-0.31993520 1.03005004 -1.37856984
-0.39211100 0.56384951 1.82920599
-3.02158451 -0.47880620 -1.20276010
1.25809896 0.37551692 -1.83354843
3.40580630 -0.81932521 0.08360812
0.67141694 -1.24802434 -0.91982329
2.17422700 0.05838183 1.70439959
3.41642118 -0.50443363 0.89842582
-2.58635020 -0.49223489 -1.40841675
-0.37273002 1.39421642 0.39542696
-1.77110934 0.65145284 1.56403661
-2.79441357 1.02838504 0.35500914
2.77954197 0.80596209 -0.97144175
0.10306236 1.35694754 -0.62289304
-1.48782229 -0.57803410 1.68459332
4.07957983 0.00582343 -0.39758906
1.56873453 -0.15365840 1.84076107
1.71343148 -0.90188414 1.31482065
1.58104658 1.32110298 0.02248559
-1.13139987 -0.00055809 1.92576182
-1.94116104 0.06897581 1.76788700
3.79942393 0.09692165 0.80692083
-4.03767538 -0.31383371 0.20822433
4.11100531 -0.16406673 -0.21180134
-2.39769101 -0.10734017 1.62880087
-3.08012819 0.25757307 -1.29637504
-1.37668777 -0.26042965 -1.85315204
-2.93744421 0.91039789 -0.61969888
0.81303066 -0.88024098 1.52643895
1.99540031 -0.89921987 -1.22403824
-1.88048816 1.13926709 -0.79975027
3.99259734 0.25109637 -0.44258061
-1.50172412 -0.38603216 1.78618300
3.15213799 -0.91566920 -0.25313342
3.22607803 -0.11909261 1.25282240
1.90311086 0.49684533 -1.63806760
-3.17745852 0.70942819 0.82633489
-1.84261274 -1.27074957 -0.22492386
-0.65805745 -1.31912148 0.69937640
3.30642271 -0.78602111 0.51376170
-2.08544517 0.48844028 -1.59099889
3.68822050 -0.40483487 -0.73396862
1.31285000 1.01829338 -1.25373936
2.40279984 0.78822869 -1.20512187
-1.00876296 -1.12911808 -1.12657976
-0.34342796 -1.09762740 -1.26940966
-1.58018506 -0.20372444 1.82975590
-3.68849397 -0.61104506 -0.35809103
3.12911320 0.51814574 1.10241508
0.21477446 -1.05755138 -1.34098470
-3.45000505 0.46592870 0.90998572
-1.10012615 1.01444149 -1.30529571
0.46227813 1.06094778 -1.32112885
3.41670108 0.12575974 -1.12925136
1.27018011 0.14045829 -1.89537358
-2.20819259 -0.84989583 -1.20850992
3.89863944 -0.36990157 0.47336000
1.05084717 -0.51682413 -1.79588962
-3.21682811 -0.88946509 0.24716745
-3.08895278 -0.87031746 0.55921906
-0.71579683 0.82335222 -1.59955800
1.03703880 1.03869712 1.27955079
-3.27815413 0.37909326 -1.11276698
2.73586130 0.22456868 1.47496986
-2.82457280 -1.04914832 -0.03054210
0.32635224 -0.17236359 -1.98011827
-2.19786143 1.18082821 -0.38908181
-1.02969003 -0.90997058 1.46187770
-1.10289776 0.23586470 1.90105748
-3.34914565 -0.74768114 -0.56057930
-3.88632321 -0.42833698 -0.39248702
-1.25698555 -0.44007710 -1.80516541
-2.62592387 1.06706572 -0.41988099
-1.56695724 1.30485189 0.31071514
-0.57197988 -1.39256465 0.35165608
-1.59833407 0.89189178 1.36132717
0.48270726 0.87373549 -1.56593966
-1.84944129 1.00125659 1.11681616
-3.25755739 -0.57652724 0.94838703
3.10216045 0.88851118 0.48013040
-2.89623880 -0.07483315 1.43355310
0.32013819 -1.40997195 0.28006914
3.65609741 0.68217069 -0.04980650
2.46982193 -0.28318903 -1.56114924
-0.50772178 -0.03536604 1.98561835
-3.61140943 0.38386890 -0.83706748
2.07250476 0.65102410 1.47597051
-0.08942620 0.55114734 -1.84548557
0.73339099 0.07936463 1.96659172
-3.88621044 0.16747978 0.67783445
-1.45819592 -1.33773184 -0.04229849
-2.15947008 -1.02536845 0.92913491
-0.37689596 -0.97191834 1.45557618
-2.53173447 0.41012958 -1.48161161
-2.98934841 -0.26347572 -1.34258783
-2.59243679 -0.87867665 0.96770459
-3.65873003 -0.35226113 -0.81657481
2.68487811 0.27134860 -1.48143578
3.76441407 -0.60894966 0.04576370
2.06873274 -0.14058883 1.72530937
-4.13379812 -0.14994851 -0.10765252
-0.49931556 -1.32797086 -0.69647199
3.68628240 -0.21800791 0.87749511
3.34539747 0.83565116 -0.21814144
-1.25795102 0.09803078 -1.90312886
-2.50743961 -1.12901115 -0.22030416
-0.00162207 -0.82489830 1.63373840
0.65728158 -0.82493925 -1.60254753
3.87136912 -0.24250424 -0.65221763
2.33370876 -0.42168340 1.54802155
0.21580955 1.39564764 0.41389626
-3.16602874 -0.44333902 1.14133513
-0.35693842 0.84997332 1.60012758
0.98511046 -0.24011262 -1.91534626
-1.43499100 -1.31125772 -0.39163524
1.63053858 0.26497865 1.80340958
-1.41993201 0.59393579 -1.68733490
1.41190159 -1.31650519 -0.37616187
-0.73756343 1.23254442 -0.94761163
-1.57734597 0.34993070 1.78579509
-1.44884026 -0.98869902 1.26521039
2.85076284 -0.93282729 -0.64715046
-3.94543862 0.39520115 0.31626633
0.17363518 0.78448719 1.67031956
4.14886189 0.06406353 -0.13202567
0.88880277 1.38264573 -0.26510945
3.52109909 0.49333945 0.81310320
-2.25895882 0.56042808 1.48635507
1.12094486 0.73911422 1.62565279
2.12197089 -0.71680158 -1.39875555
-1.84629583 0.80575496 -1.39434898
-0.46128976 -0.25846684 1.95547676
0.44096312 -0.65871495 -1.76318228
-2.75337315 0.19363900 1.47623849
3.56494999 -0.70113903 0.32121387
1.51612234 -0.18730147 -1.84500182
2.22332239 -1.20708394 0.06633208
-4.05486298 -0.01683088 -0.45066059
2.09948492 1.16338515 -0.57319659
-3.55617213 0.04698133 1.03780806
1.78942394 -0.33549920 -1.74466848
2.87578344 -1.03083539 -0.08548906
-3.42178178 -0.69391757 0.59411073
-1.21463311 1.29453683 0.61095721
3.54543948 -0.09761600 -1.03985071
-0.84648037 1.34523833 -0.53588712
-0.85583514 -1.37337148 -0.36759040
1.02884543 1.16316259 1.05074096
2.51505947 0.70852917 1.24801707
-3.95010948 -0.44208592 -0.11676370
-3.85012889 -0.14522052 -0.73226440
2.88743377 -0.34517625 -1.35775042
-3.34276891 -0.19615464 1.16087139
-3.49498844 0.59747303 -0.69407111
-0.48855022 -0.84978551 -1.59155428
3.52004743 -0.72970760 -0.31164378
3.03619647 0.07982109 -1.36433113
-1.81342661 -0.64530361 -1.55876768
0.65026736 -0.29953921 1.93180633
-1.64801908 -1.28210068 0.38688561
-2.04665613 -0.67463881 1.46414471
-3.79542351 0.58592826 -0.02718879
-3.32149744 0.83468175 -0.29327759
-1.27676463 0.62755817 1.68994284
-2.95459056 -0.92556542 -0.55172443
1.82878184 1.01168883 1.10571623
-1.96241236 -1.15659285 0.69929379
-2.63809013 -1.09071183 0.24735180
2.66520691 0.60349721 -1.28401530
-2.67553067 0.57310897 1.30598199
-3.47824025 0.70943224 -0.47045997
1.96497405 -0.53092259 -1.59990621
-0.96765119 -0.17666921 1.93088222
2.10299754 -0.68298042 1.43795764
-2.04998422 -1.12491488 -0.74100852
-0.71035820 1.40247595 0.16301812
-0.60068756 0.02921816 -1.97978556
4.08395481 0.27582023 -0.00075667
-0.89619106 -0.98018992 -1.39013600
-3.45413756 0.75613183 0.35300294
3.36727405 0.31765008 -1.08903694
-0.74959594 0.34344324 -1.90842056
-2.11315322 -1.22999620 0.05192656
0.57451308 -1.11399460 1.22166824
-0.00880304 1.28135955 0.88495982
-3.59482431 -0.52642947 -0.68757176
-3.65795231 -0.45431688 0.71209371
0.70903605 1.31142366 0.71618640
-2.31245089 0.97425288 0.95160586
3.37105536 -0.47332248 -0.96846974
3 249 48 83
3 64 0 62
3 220 34 37
3 64 62 204
3 204 191 64
3 51 191 204
3 213 27 253
3 21 48 249
3 104 24 232
3 40 205 155
3 7 151 128
3 128 151 1
3 115 111 220
3 220 111 244
3 244 34 220
3 113 26 215
3 117 184 66
3 66 51 118
3 184 51 66
3 117 196 30
3 30 184 117
3 30 196 1
3 64 191 84
3 84 0 64
3 84 27 0
3 46 191 79
3 79 191 51
3 79 51 184
3 168 87 100
3 100 23 168
3 168 23 73
3 168 73 122
3 122 87 168
3 25 152 194
3 32 87 192
3 100 87 32
3 32 129 100
3 145 62 0
3 0 27 145
3 220 37 198
3 99 70 207
3 78 246 234
3 246 163 234
3 118 51 108
3 51 204 108
3 126 196 117
3 117 66 126
3 126 66 29
3 148 145 192
3 107 174 41
3 122 164 41
3 81 174 210
3 210 174 107
3 210 97 81
3 38 204 62
3 38 148 97
3 38 246 78
3 38 97 246
3 73 33 105
3 207 70 105
3 112 86 90
3 146 177 90
3 231 213 127
3 27 213 231
3 134 45 67
3 67 229 134
3 185 86 134
3 134 229 185
3 249 83 94
3 112 90 98
3 150 45 134
3 175 23 100
3 11 183 50
3 47 24 104
3 47 21 249
3 104 21 47
3 186 232 24
3 186 133 9
3 24 133 186
3 31 40 155
3 215 26 88
3 136 113 215
3 251 113 136
3 7 128 91
3 212 167 11
3 225 232 233
3 104 232 225
3 225 140 104
3 44 183 11
3 11 167 44
3 44 167 111
3 121 34 110
3 34 244 110
3 111 167 110
3 110 244 111
3 218 177 146
3 121 110 240
3 233 124 130
3 56 16 192
3 192 145 56
3 56 231 16
3 56 145 27
3 27 231 56
3 129 32 22
3 22 214 152
3 152 25 22
3 22 25 129
3 107 41 221
3 221 41 164
3 164 70 221
3 70 99 221
3 20 69 120
3 120 42 20
3 120 69 36
3 20 42 153
3 153 126 29
3 101 69 20
3 36 69 101
3 101 163 36
3 101 234 163
3 62 145 169
3 145 148 169
3 169 38 62
3 148 38 169
3 192 87 243
3 243 148 192
3 97 148 243
3 89 174 81
3 89 41 174
3 222 163 246
3 255 210 107
3 107 221 255
3 65 38 78
3 204 38 65
3 65 108 204
3 122 73 200
3 73 105 200
3 200 164 122
3 200 70 164
3 200 105 70
3 80 98 226
3 226 98 90
3 9 133 226
3 226 133 80
3 178 141 229
3 229 67 178
3 49 127 194
3 49 231 127
3 194 152 49
3 152 214 49
3 49 214 16
3 16 231 49
3 254 77 102
3 102 77 245
3 86 185 199
3 146 90 199
3 199 90 86
3 85 150 134
3 85 86 112
3 134 86 85
3 23 175 61
3 73 23 61
3 61 33 73
3 48 33 61
3 11 50 147
3 147 50 21
3 147 140 11
3 147 21 104
3 104 140 147
3 202 183 207
3 202 50 183
3 202 33 48
3 48 21 202
3 21 50 202
3 207 105 202
3 202 105 33
3 158 133 24
3 158 47 249
3 24 47 158
3 249 94 158
3 26 124 208
3 208 88 26
3 232 186 157
3 9 161 157
3 157 186 9
3 57 157 161
3 233 232 57
3 232 157 57
3 3 31 188
3 188 31 155
3 166 88 40
3 3 203 166
3 215 88 166
3 166 31 3
3 40 31 166
3 166 136 215
3 203 136 166
3 216 136 203
3 216 203 7
3 106 170 63
3 92 170 242
3 180 212 156
3 140 225 156
3 2 110 167
3 2 212 180
3 167 212 2
3 180 240 2
3 2 240 110
3 230 240 171
3 121 240 230
3 93 30 1
3 129 25 72
3 58 82 224
3 114 32 192
3 114 22 32
3 192 16 114
3 16 214 114
3 214 22 114
3 237 206 149
3 123 206 237
3 123 237 19
3 19 18 115
3 95 18 19
3 8 120 36
3 149 206 8
3 8 222 149
3 36 163 8
3 163 222 8
3 42 120 131
3 242 170 247
3 247 42 242
3 247 153 42
3 142 101 20
3 108 101 142
3 20 153 142
3 142 153 29
3 118 108 142
3 142 66 118
3 29 66 142
3 234 101 109
3 109 101 108
3 108 65 109
3 78 234 109
3 109 65 78
3 81 97 190
3 97 243 190
3 190 89 81
3 41 89 190
3 122 41 190
3 190 87 122
3 190 243 87
3 119 222 246
3 210 222 119
3 246 97 119
3 97 210 119
3 149 222 217
3 217 222 210
3 210 255 217
3 217 237 149
3 10 18 95
3 183 18 10
3 60 177 144
3 144 161 60
3 60 90 177
3 60 226 90
3 60 161 9
3 9 226 60
3 189 178 67
3 189 45 194
3 189 67 45
3 194 127 189
3 127 178 189
3 176 84 191
3 176 191 46
3 253 27 176
3 27 84 176
3 46 241 176
3 241 75 176
3 209 139 254
3 209 241 139
3 209 75 241
3 141 14 143
3 143 209 254
3 14 209 143
3 253 176 250
3 250 176 75
3 250 213 253
3 75 209 250
3 250 209 14
3 141 178 52
3 52 14 141
3 52 250 14
3 52 178 127
3 127 213 52
3 213 250 52
3 254 139 55
3 55 77 254
3 139 132 55
3 138 77 55
3 55 132 138
3 146 199 12
3 12 218 146
3 205 218 12
3 193 199 185
3 80 133 172
3 172 17 80
3 133 158 172
3 94 17 172
3 172 158 94
3 197 98 80
3 80 17 197
3 224 150 197
3 197 17 224
3 239 61 175
3 175 58 239
3 239 83 48
3 48 61 239
3 239 94 83
3 125 161 144
3 144 208 125
3 125 57 161
3 125 208 124
3 125 124 233
3 233 57 125
3 252 208 144
3 88 208 252
3 144 177 252
3 177 218 252
3 40 88 252
3 205 40 252
3 252 218 205
3 251 136 162
3 136 216 162
3 106 63 159
3 159 63 91
3 1 196 159
3 196 106 159
3 159 128 1
3 159 91 128
3 170 92 13
3 59 63 13
3 13 63 170
3 13 74 59
3 180 156 103
3 103 240 180
3 171 240 103
3 140 156 39
3 39 156 212
3 11 140 39
3 39 212 11
3 135 113 251
3 121 230 135
3 171 130 35
3 35 230 171
3 35 124 26
3 35 130 124
3 35 135 230
3 26 113 35
3 113 135 35
3 139 241 211
3 211 132 139
3 211 241 46
3 46 79 211
3 211 79 184
3 184 30 96
3 96 211 184
3 132 211 96
3 138 132 96
3 30 93 96
3 96 93 138
3 181 72 25
3 82 72 181
3 100 129 6
3 129 72 6
3 6 175 100
3 53 17 94
3 94 239 53
3 53 239 58
3 224 17 53
3 53 58 224
3 183 44 71
3 71 18 183
3 115 18 71
3 111 115 71
3 71 44 111
3 173 198 123
3 123 19 173
3 173 19 115
3 173 115 220
3 220 198 173
3 242 42 5
3 42 131 5
3 5 92 242
3 123 198 28
3 28 5 131
3 28 198 37
3 37 5 28
3 179 131 120
3 179 28 131
3 179 206 123
3 123 28 179
3 182 170 106
3 182 247 170
3 182 106 196
3 196 126 182
3 126 153 182
3 153 247 182
3 237 217 195
3 95 19 195
3 195 19 237
3 195 217 255
3 195 10 95
3 255 10 195
3 187 255 221
3 187 10 255
3 187 221 99
3 187 99 207
3 207 183 187
3 183 10 187
3 229 141 76
3 141 193 76
3 76 185 229
3 76 193 185
3 4 12 199
3 155 205 4
3 205 12 4
3 150 85 238
3 238 197 150
3 238 85 112
3 112 98 238
3 98 197 238
3 59 74 160
3 7 91 160
3 160 216 7
3 160 162 216
3 160 63 59
3 91 63 160
3 137 5 37
3 92 5 137
3 248 156 225
3 248 103 156
3 248 225 233
3 171 103 248
3 233 130 248
3 248 130 171
3 227 188 245
3 3 188 227
3 1 151 219
3 219 93 1
3 219 236 93
3 82 181 154
3 224 82 154
3 45 150 154
3 154 150 224
3 175 6 165
3 165 6 72
3 165 58 175
3 165 72 82
3 82 58 165
3 120 8 201
3 201 179 120
3 201 8 206
3 206 179 201
3 155 4 116
3 116 188 155
3 116 102 245
3 245 188 116
3 199 193 235
3 235 4 199
3 254 102 235
3 102 116 235
3 235 116 4
3 235 193 141
3 235 143 254
3 141 143 235
3 68 160 74
3 162 160 68
3 251 162 68
3 68 74 121
3 121 135 68
3 68 135 251
3 223 34 121
3 121 74 223
3 223 37 34
3 223 137 37
3 228 227 245
3 236 227 228
3 245 77 228
3 228 77 138
3 138 93 228
3 93 236 228
3 43 227 236
3 236 219 43
3 3 227 43
3 43 219 151
3 43 203 3
3 43 151 7
3 7 203 43
3 45 154 15
3 15 154 181
3 194 45 15
3 15 25 194
3 15 181 25
3 137 223 54
3 54 13 92
3 92 137 54
3 74 13 54
3 54 223 74