ply
format ascii 1.0
comment https://github.com/mikedh/trimesh
element vertex 256
property float x
property float y
property float z
element face 508
property list uchar int vertex_indices
end_header
2.47380829 2.74909401 0.17395028
-3.49013376 1.31579971 -1.91387510
-1.36271811 -2.91063523 -1.23241055
-4.56256247 0.61003953 -0.15230168
-3.70390582 0.75470990 2.04617882
-0.26605555 -0.39587426 -3.63255620
2.94112730 0.06979240 2.83734655
-4.23960209 0.15018120 -1.49410868
2.19521928 0.00219103 -3.23195505
-2.09480047 -1.97691405 2.39838076
2.63077950 -2.14608288 -1.81246042
0.05148932 -3.24656010 -0.22595897
-3.63150358 0.36340991 2.25173640
-2.20122290 -0.65852129 -3.14246774
-0.92347914 2.73942447 1.83858609
1.04527509 0.81582236 3.45135307
3.14025331 1.74041343 1.85990536
0.38539764 -1.39894855 3.29555345
1.49505556 -2.57378268 -1.90614069
1.40281987 -2.10252476 -2.56956935
0.85902148 1.01426518 -3.41627216
0.74396050 -3.00671935 1.26979089
3.03339362 1.18704998 2.43555236
3.53367543 -0.89041126 2.15993142
-1.01849258 -2.40560293 2.33389115
2.20607018 1.00398374 3.02112913
-3.98257804 -1.66500592 -0.23068099
1.83530927 2.85865331 0.98395842
0.61379665 -1.02675617 -3.44497299
-0.12493955 1.93850493 -2.94185376
-1.87389302 2.26809287 -2.17164397
-4.56766891 0.30866086 0.58637887
3.81328297 0.49943265 2.01892662
3.11406064 -2.00301480 1.51950884
-1.64580286 -2.04042530 -2.54300451
-3.64838409 -1.94306314 -0.60300058
2.26324368 0.61151481 -3.12655044
-0.73691112 -1.55303299 -3.16771603
3.59547782 1.84242249 -1.04359424
-0.72980458 -3.21180892 -0.07600255
-4.58451033 -0.19094536 0.56783956
4.53066587 -0.72538084 -0.10094611
0.34123173 0.52191633 -3.60787988
-4.33823729 1.03740454 -0.60528696
0.14548825 -2.99910736 -1.41558826
0.45114845 0.88933790 3.50807285
0.00903198 3.19668651 -0.67555821
-0.19268006 -2.88733578 1.68241000
2.33117151 -2.30791235 1.81438684
2.32041025 1.96622646 2.27458310
1.50050581 -3.07629943 -0.13629617
0.57155359 2.81399727 -1.78381121
-0.41387659 2.62001944 2.14739394
1.23046327 -1.25230169 3.24128556
-1.97472095 -1.05507922 -3.09837198
-2.52801895 2.71649456 0.31203985
3.38876629 1.87759674 1.34927464
-2.85521388 -2.37872410 1.08729422
1.83899379 -0.76949978 3.25412750
-2.92764139 -0.35339570 -2.81837296
-2.78140926 -1.57218397 2.34386849
2.94436765 -1.31530273 2.41902018
3.10266995 2.41949630 -0.12701777
-2.99892282 0.22171155 -2.78932691
2.17974448 2.85430098 -0.36790484
2.71348381 2.17719102 -1.68668437
-0.35733828 2.34557915 -2.52502704
-0.43795204 1.28397036 3.35042477
-3.37483263 -1.09031391 -2.20300889
1.40518117 0.85510868 -3.35837865
3.80397344 -1.86572719 0.15313897
0.74991113 -2.84193969 -1.68477404
2.42841244 0.13294424 3.12182593
3.81582904 -1.14867151 1.64558184
-2.88871622 -1.12089312 -2.57969546
-0.41630527 3.17484117 0.72427511
-1.97816682 1.48345649 2.86473298
-3.12110376 2.34178782 0.65024471
3.10449362 1.83529723 -1.77931988
0.11511120 3.08997440 -1.14090836
-1.66176116 -1.31627083 3.08554840
4.55651665 0.01326084 -0.72823524
1.75213265 -0.34990337 3.37158942
1.91374588 -2.05372620 2.40826225
1.76588404 3.00835085 0.04118523
-1.26366997 -0.00127086 3.52727914
-2.16809893 0.15706833 3.23811126
4.24360800 0.22070520 1.47797871
-4.50971317 -0.71464670 0.38138950
4.59161568 -0.37360471 -0.38794124
-2.67800117 -0.24442977 2.98335719
-3.44022083 0.58653271 -2.37447667
-1.53763402 -0.59303761 -3.39428496
-3.28085589 2.07311344 -1.13505781
0.90808070 -2.00444150 2.79586816
2.22867918 -2.04765916 -2.24198270
-2.10033274 2.59428310 -1.46484494
4.45936537 0.57178432 -0.81064302
-1.67728817 -0.87905347 3.27162290
3.52064896 -2.08511686 -0.46364626
3.60323334 -0.27119184 2.29470444
2.12560034 1.13139176 -3.00033045
-3.54892993 1.61547494 1.51353812
-2.05802941 -2.89368844 -0.41197684
-0.73498982 -3.00383854 1.28099728
3.69297099 -1.78988862 0.94102031
-2.32925105 1.11225224 -2.91411805
4.11940432 -0.92187005 -1.34435749
1.46633303 2.31880760 -2.29638386
2.68370700 1.79491568 -2.20733476
-1.12669575 -2.57117224 -2.06347489
-0.38357753 -2.49946308 -2.32508636
-1.76492178 -0.46391129 3.35143209
-4.11970949 -1.39144170 -0.65588951
3.49493265 1.17989612 2.01921439
0.23988339 -2.40820408 -2.45618510
-3.85333920 1.06098998 1.66675532
-1.22873998 2.31003618 -2.39081597
0.51632231 2.41593814 -2.41981649
3.81614184 0.28637388 -2.06836820
1.41867471 0.31984472 -3.47161937
-2.46634865 -1.93534112 -2.21354055
4.35442305 -0.84232169 0.86701941
1.17369998 -1.17688644 -3.28940153
-3.59290195 -2.02544618 0.45271879
-3.45007706 -1.98184407 1.02428126
-0.79947942 1.87489712 -2.92979527
1.15827715 2.36527014 2.34366083
-3.66139770 0.86325258 -2.03817511
3.05570626 0.51137674 2.70159602
-3.15478897 -2.38906908 -0.05594177
0.36450550 -0.39249790 -3.62683988
-2.45480967 2.68892384 -0.71265310
-1.15006924 -2.07214022 2.67761612
-1.23183572 0.53709948 3.48202991
-3.74068856 -1.70258272 -1.02677274
-4.34066677 -0.97538787 -0.71889019
-1.40393758 -1.00212193 -3.30639124
-2.93291616 2.42986965 -0.76906574
-1.75014758 2.97134447 0.56911451
-0.63884908 -3.17107964 0.64410311
-1.78519249 2.03097200 2.49344492
0.53913975 1.98962748 -2.86821890
-2.06565619 2.28001213 2.04559183
-3.63839293 -1.31283951 1.73709214
3.46482873 2.02327394 0.87942028
-3.23483324 -0.17040636 2.62573600
0.35756502 -3.21071887 0.51298249
4.08352566 1.55340552 -0.09122698
2.75856447 -0.64486414 -2.85944462
-0.56707865 -0.08053380 3.63691401
-4.03361320 0.87412739 -1.53319621
2.31479764 1.48248017 2.70342875
-0.09988087 1.25504565 -3.38024306
0.81913048 0.18072523 3.60206437
-4.34054041 0.38137674 1.24154055
-1.62867105 -3.04621720 -0.07747510
-2.41193008 -2.33491850 1.70182943
-0.42095825 -2.21320486 2.66607404
-2.82771516 0.93392694 -2.71376133
-3.33882809 -0.59997392 -2.45912147
-2.89551425 -2.00087929 1.77247477
-4.08646584 -0.80215174 -1.49566126
2.99876261 0.61790168 -2.71343923
4.20450544 -1.38667023 0.08382206
2.31058478 -0.32014197 3.16012478
-4.61707354 -0.34145537 -0.19717936
-0.55768973 -3.02398992 -1.27567756
4.11723948 -0.49643689 1.60724461
3.73650241 1.90290380 -0.39955395
-1.40501595 0.22323087 -3.48582411
-2.80058002 -2.57092857 -0.40351525
-0.00181170 -1.87841797 2.99240112
0.73412329 -1.87851107 -2.93527079
4.32396412 -0.55221874 -1.19462001
2.60653877 -0.96023673 2.83539939
0.24103948 3.17810035 0.75810397
-3.53616381 -1.00954986 2.09050131
-0.39866748 1.93551743 2.93083835
1.10027802 -0.54677266 -3.50820184
-1.60275328 -2.98593163 -0.71733010
1.82116210 0.60339636 3.30317521
-1.58593392 1.35248137 -3.09056973
1.57696462 -2.99788094 -0.68898857
-0.82379073 2.80668950 -1.73567188
-1.76175082 0.79684502 3.27091217
-1.61822164 -2.25141692 2.31739473
3.18404055 -2.12418842 -1.18533885
-4.40669298 0.89993262 0.57928222
0.19393457 1.78639567 3.05940413
4.63389826 0.14588234 -0.24182191
0.99271119 3.14849281 -0.48558187
3.93274474 1.12340832 1.48930252
-2.52304983 1.27617931 2.72244954
1.25199270 1.68307459 2.97759104
2.37004685 -1.63226545 -2.56199980
-2.06214309 1.83482563 -2.55392861
-0.51521838 -0.58856797 3.58170581
0.49251536 -1.49999332 -3.22949386
-3.07526541 0.44094521 2.70391965
3.98172212 -1.59659934 0.58834434
1.69336963 -0.42651373 -3.37935686
2.48324728 -2.74871230 0.12149569
-4.52891016 -0.03832646 -0.82544255
2.34493208 2.64920354 -1.04988289
-3.97191811 0.10698356 1.90087819
1.99862242 -0.76398224 -3.19558358
3.21198654 -2.34736776 -0.15658414
-3.82181644 -1.58015501 1.08818984
-1.35663378 2.94785571 1.11904633
3.95993090 -0.22228637 -1.90461969
-0.94544095 3.06331062 -0.98154587
-0.95588934 -3.12737393 -0.67328882
1.14912605 2.64869666 1.92456663
2.80909085 1.61342776 2.28590298
-4.41191006 -1.00669634 -0.21386765
-4.30024099 -0.33068901 -1.34123600
3.22499871 -0.78601843 -2.48689365
-3.73356628 -0.44667372 2.12628460
-3.90358162 1.36053622 -1.27128005
-0.54566580 -1.93508971 -2.91513538
3.93157005 -1.66165435 -0.57081544
3.39115310 0.18176466 -2.49894691
-2.02543139 -1.46945357 -2.85508251
0.72628903 -0.68209594 3.53835034
-1.84068620 -2.91953659 0.70863050
-2.28592730 -1.53625429 2.68176818
-4.23914003 1.33424699 -0.04979975
-3.70980811 1.90069628 -0.53717548
-1.42602909 1.42904460 3.09534669
-3.30000663 -2.10765219 -1.01055396
2.04258156 2.30376816 2.02526069
-2.19183469 -2.63373637 1.28084612
-2.94650483 -2.48371530 0.45305645
2.97679162 1.37425423 -2.35183835
-2.98832250 1.30505562 2.39207315
-3.88487554 1.61548424 -0.86170763
2.19469571 -1.20899081 -2.93043303
-1.08077765 -0.40230244 3.53665805
2.34885550 -1.55524945 2.63380361
-2.28964448 -2.56160069 -1.35725188
-0.79340500 3.19364953 0.29858854
-0.67091292 0.06653417 -3.62623072
4.56140280 0.62808424 -0.00138594
-1.00096321 -2.23204041 -2.54621196
-3.85795498 1.72182631 0.64657003
3.76093626 0.72333717 -1.99471045
-0.83722991 0.78207207 -3.49551630
-2.36019850 -2.80088687 0.09511015
0.64167839 -2.53673363 2.23764181
-0.00983218 2.91784883 1.62091708
-4.01508904 -1.19875932 -1.25937569
-4.08559752 -1.03454804 1.30429077
0.79192823 2.98630953 1.31178713
-2.58279562 2.21852088 1.74298787
3.76515985 -1.07782674 -1.77387631
3 249 48 83
3 64 0 62
3 220 34 37
3 64 62 204
3 204 191 64
3 51 191 204
3 213 27 253
3 21 48 249
3 104 24 232
3 40 205 155
3 7 151 128
3 128 151 1
3 115 111 220
3 220 111 244
3 244 34 220
3 113 26 215
3 117 184 66
3 66 51 118
3 184 51 66
3 117 196 30
3 30 184 117
3 30 196 1
3 64 191 84
3 84 0 64
3 84 27 0
3 46 191 79
3 79 191 51
3 79 51 184
3 168 87 100
3 100 23 168
3 168 23 73
3 168 73 122
3 122 87 168
3 25 152 194
3 32 87 192
3 100 87 32
3 32 129 100
3 145 62 0
3 0 27 145
3 220 37 198
3 99 70 207
3 78 246 234
3 246 163 234
3 118 51 108
3 51 204 108
3 126 196 117
3 117 66 126
3 126 66 29
3 148 145 192
3 107 174 41
3 122 164 41
3 81 174 210
3 210 174 107
3 210 97 81
3 38 204 62
3 38 148 97
3 38 246 78
3 38 97 246
3 73 33 105
3 207 70 105
3 112 86 90
3 146 177 90
3 231 213 127
3 27 213 231
3 134 45 67
3 67 229 134
3 185 86 134
3 134 229 185
3 249 83 94
3 112 90 98
3 150 45 134
3 175 23 100
3 11 183 50
3 47 24 104
3 47 21 249
3 104 21 47
3 186 232 24
3 186 133 9
3 24 133 186
3 31 40 155
3 215 26 88
3 136 113 215
3 251 113 136
3 7 128 91
3 212 167 11
3 225 232 233
3 104 232 225
3 225 140 104
3 44 183 11
3 11 167 44
3 44 167 111
3 121 34 110
3 34 244 110
3 111 167 110
3 110 244 111
3 218 177 146
3 121 110 240
3 233 124 130
3 56 16 192
3 192 145 56
3 56 231 16
3 56 145 27
3 27 231 56
3 129 32 22
3 22 214 152
3 152 25 22
3 22 25 129
3 107 41 221
3 221 41 164
3 164 70 221
3 70 99 221
3 20 69 120
3 120 42 20
3 120 69 36
3 20 42 153
3 153 126 29
3 101 69 20
3 36 69 101
3 101 163 36
3 101 234 163
3 62 145 169
3 145 148 169
3 169 38 62
3 148 38 169
3 192 87 243
3 243 148 192
3 97 148 243
3 89 174 81
3 89 41 174
3 222 163 246
3 255 210 107
3 107 221 255
3 65 38 78
3 204 38 65
3 65 108 204
3 122 73 200
3 73 105 200
3 200 164 122
3 200 70 164
3 200 105 70
3 80 98 226
3 226 98 90
3 9 133 226
3 226 133 80
3 178 141 229
3 229 67 178
3 49 127 194
3 49 231 127
3 194 152 49
3 152 214 49
3 49 214 16
3 16 231 49
3 254 77 102
3 102 77 245
3 86 185 199
3 146 90 199
3 199 90 86
3 85 150 134
3 85 86 112
3 134 86 85
3 23 175 61
3 73 23 61
3 61 33 73
3 48 33 61
3 11 50 147
3 147 50 21
3 147 140 11
3 147 21 104
3 104 140 147
3 202 183 207
3 202 50 183
3 202 33 48
3 48 21 202
3 21 50 202
3 207 105 202
3 202 105 33
3 158 133 24
3 158 47 249
3 24 47 158
3 249 94 158
3 26 124 208
3 208 88 26
3 232 186 157
3 9 161 157
3 157 186 9
3 57 157 161
3 233 232 57
3 232 157 57
3 3 31 188
3 188 31 155
3 166 88 40
3 3 203 166
3 215 88 166
3 166 31 3
3 40 31 166
3 166 136 215
3 203 136 166
3 216 136 203
3 216 203 7
3 106 170 63
3 92 170 242
3 180 212 156
3 140 225 156
3 2 110 167
3 2 212 180
3 167 212 2
3 180 240 2
3 2 240 110
3 230 240 171
3 121 240 230
3 93 30 1
3 129 25 72
3 58 82 224
3 114 32 192
3 114 22 32
3 192 16 114
3 16 214 114
3 214 22 114
3 237 206 149
3 123 206 237
3 123 237 19
3 19 18 115
3 95 18 19
3 8 120 36
3 149 206 8
3 8 222 149
3 36 163 8
3 163 222 8
3 42 120 131
3 242 170 247
3 247 42 242
3 247 153 42
3 142 101 20
3 108 101 142
3 20 153 142
3 142 153 29
3 118 108 142
3 142 66 118
3 29 66 142
3 234 101 109
3 109 101 108
3 108 65 109
3 78 234 109
3 109 65 78
3 81 97 190
3 97 243 190
3 190 89 81
3 41 89 190
3 122 41 190
3 190 87 122
3 190 243 87
3 119 222 246
3 210 222 119
3 246 97 119
3 97 210 119
3 149 222 217
3 217 222 210
3 210 255 217
3 217 237 149
3 10 18 95
3 183 18 10
3 60 177 144
3 144 161 60
3 60 90 177
3 60 226 90
3 60 161 9
3 9 226 60
3 189 178 67
3 189 45 194
3 189 67 45
3 194 127 189
3 127 178 189
3 176 84 191
3 176 191 46
3 253 27 176
3 27 84 176
3 46 241 176
3 241 75 176
3 209 139 254
3 209 241 139
3 209 75 241
3 141 14 143
3 143 209 254
3 14 209 143
3 253 176 250
3 250 176 75
3 250 213 253
3 75 209 250
3 250 209 14
3 141 178 52
3 52 14 141
3 52 250 14
3 52 178 127
3 127 213 52
3 213 250 52
3 254 139 55
3 55 77 254
3 139 132 55
3 138 77 55
3 55 132 138
3 146 199 12
3 12 218 146
3 205 218 12
3 193 199 185
3 80 133 172
3 172 17 80
3 133 158 172
3 94 17 172
3 172 158 94
3 197 98 80
3 80 17 197
3 224 150 197
3 197 17 224
3 239 61 175
3 175 58 239
3 239 83 48
3 48 61 239
3 239 94 83
3 125 161 144
3 144 208 125
3 125 57 161
3 125 208 124
3 125 124 233
3 233 57 125
3 252 208 144
3 88 208 252
3 144 177 252
3 177 218 252
3 40 88 252
3 205 40 252
3 252 218 205
3 251 136 162
3 136 216 162
3 106 63 159
3 159 63 91
3 1 196 159
3 196 106 159
3 159 128 1
3 159 91 128
3 170 92 13
3 59 63 13
3 13 63 170
3 13 74 59
3 180 156 103
3 103 240 180
3 171 240 103
3 140 156 39
3 39 156 212
3 11 140 39
3 39 212 11
3 135 113 251
3 121 230 135
3 171 130 35
3 35 230 171
3 35 124 26
3 35 130 124
3 35 135 230
3 26 113 35
3 113 135 35
3 139 241 211
3 211 132 139
3 211 241 46
3 46 79 211
3 211 79 184
3 184 30 96
3 96 211 184
3 132 211 96
3 138 132 96
3 30 93 96
3 96 93 138
3 181 72 25
3 82 72 181
3 100 129 6
3 129 72 6
3 6 175 100
3 53 17 94
3 94 239 53
3 53 239 58
3 224 17 53
3 53 58 224
3 183 44 71
3 71 18 183
3 115 18 71
3 111 115 71
3 71 44 111
3 173 198 123
3 123 19 173
3 173 19 115
3 173 115 220
3 220 198 173
3 242 42 5
3 42 131 5
3 5 92 242
3 123 198 28
3 28 5 131
3 28 198 37
3 37 5 28
3 179 131 120
3 179 28 131
3 179 206 123
3 123 28 179
3 182 170 106
3 182 247 170
3 182 106 196
3 196 126 182
3 126 153 182
3 153 247 182
3 237 217 195
3 95 19 195
3 195 19 237
3 195 217 255
3 195 10 95
3 255 10 195
3 187 255 221
3 187 10 255
3 187 221 99
3 187 99 207
3 207 183 187
3 183 10 187
3 229 141 76
3 141 193 76
3 76 185 229
3 76 193 185
3 4 12 199
3 155 205 4
3 205 12 4
3 150 85 238
3 238 197 150
3 238 85 112
3 112 98 238
3 98 197 238
3 59 74 160
3 7 91 160
3 160 216 7
3 160 162 216
3 160 63 59
3 91 63 160
3 137 5 37
3 92 5 137
3 248 156 225
3 248 103 156
3 248 225 233
3 171 103 248
3 233 130 248
3 248 130 171
3 227 188 245
3 3 188 227
3 1 151 219
3 219 93 1
3 219 236 93
3 82 181 154
3 224 82 154
3 45 150 154
3 154 150 224
3 175 6 165
3 165 6 72
3 165 58 175
3 165 72 82
3 82 58 165
3 120 8 201
3 201 179 120
3 201 8 206
3 206 179 201
3 155 4 116
3 116 188 155
3 116 102 245
3 245 188 116
3 199 193 235
3 235 4 199
3 254 102 235
3 102 116 235
3 235 116 4
3 235 193 141
3 235 143 254
3 141 143 235
3 68 160 74
3 162 160 68
3 251 162 68
3 68 74 121
3 121 135 68
3 68 135 251
3 223 34 121
3 121 74 223
3 223 37 34
3 223 137 37
3 228 227 245
3 236 227 228
3 245 77 228
3 228 77 138
3 138 93 228
3 93 236 228
3 43 227 236
3 236 219 43
3 3 227 43
3 43 219 151
3 43 203 3
3 43 151 7
3 7 203 43
3 45 154 15
3 15 154 181
3 194 45 15
3 15 25 194
3 15 181 25
3 137 223 54
3 54 13 92
3 92 137 54
3 74 13 54
3 54 223 74