ply
format ascii 1.0
comment https://github.com/mikedh/trimesh
element vertex 256
property float x
property float y
property float z
element face 508
property list uchar int vertex_indices
end_header
0.58985138 1.28204012 0.18569487
-0.83218265 0.61362326 -2.04309416
-0.32492462 -1.35737491 -1.31561911
-1.08789110 0.28449196 -0.16258462
-0.88315415 0.35195899 2.18433046
-0.06343792 -0.18461597 -3.87781525
0.70127833 0.03254769 3.02891541
-1.01088488 0.07003701 -1.59498632
0.52342504 0.00102179 -3.45016670
-0.49948132 -0.92193395 2.56031203
0.62727940 -1.00082588 -1.93483222
0.01227704 -1.51403332 -0.24121502
-0.86589062 0.16947621 2.40376687
-0.52485651 -0.30710143 -3.35463738
-0.22019309 1.27753067 1.96272182
0.24923395 0.38045877 3.68437791
0.74875766 0.81164187 1.98548043
0.09189367 -0.65239972 3.51805925
0.35647896 -1.20028365 -2.03483748
0.33448642 -0.98051250 -2.74305892
0.20482388 0.47300258 -3.64692831
0.17738891 -1.40218365 1.35552323
0.72327816 0.55358082 2.59999347
0.84256464 -0.41524330 2.30576324
-0.24284795 -1.12185299 2.49146819
0.52601230 0.46820787 3.22510648
-0.94960034 -0.77647555 -0.24625586
0.43760857 1.33313298 1.05039227
0.14635283 -0.47882777 -3.67756701
-0.02979041 0.90402180 -3.14047885
-0.44680846 1.05772519 -2.31826687
-1.08910871 0.14394401 0.62596935
0.90923387 0.23291044 2.15523839
0.74251229 -0.93410605 1.62210143
-0.39242294 -0.95155239 -2.71470046
-0.86991566 -0.90614754 -0.64371336
0.53964466 0.28517994 -3.33764553
-0.17570807 -0.72425699 -3.38159060
0.85730076 0.85921377 -1.11405456
-0.17401360 -1.49782717 -0.08113401
-1.09312427 -0.08904737 0.60617834
1.08028567 -0.33828136 -0.10776167
0.08136281 0.24339569 -3.85147309
-1.03440332 0.48379365 -0.64615405
0.03469002 -1.39863384 -1.51116455
0.10757121 0.41474277 3.74492717
0.00215357 1.49077487 -0.72116983
-0.04594236 -1.34650910 1.79600120
0.55584127 -1.07629502 1.93688869
0.55327541 0.91694975 2.42815614
0.35777852 -1.43463230 -0.14549847
0.13628045 1.31230772 -1.90424860
-0.09868416 1.22184610 2.29237938
0.29338995 -0.58401096 3.46012712
-0.47084972 -0.49203622 -3.30756474
-0.60277730 1.26683736 0.33310783
0.80801272 0.87561727 1.44037354
-0.68079323 -1.10931814 1.16070497
0.43848714 -0.35885626 3.47383618
-0.69806278 -0.16480610 -3.00866079
-0.66319537 -0.73318803 2.50211930
0.70205092 -0.61339146 2.58234501
0.73979634 1.12833214 -0.13559361
-0.71505898 0.10339519 -2.97765374
0.51973522 1.33110332 -0.39274463
0.64699930 1.01533306 -1.80056417
-0.08520325 1.09386098 -2.69550896
-0.10442468 0.59877962 3.57663512
-0.80469042 -0.50846791 -2.35174942
0.33504942 0.39877996 -3.58512592
0.90701413 -0.87008190 0.16347845
0.17880777 -1.32533872 -1.79852486
0.57902724 0.06199855 3.33260202
0.90984100 -0.53568298 1.75668645
-0.68878144 -0.52272850 -2.75386858
-0.09926325 1.48058724 0.77317595
-0.47167134 0.69180995 3.05815101
-0.74419165 1.09209287 0.69414723
0.74023110 0.85589093 -1.89945412
0.02744696 1.44100964 -1.21793902
-0.39622802 -0.61384296 3.29387498
1.08644950 0.00618419 -0.77740347
0.41777608 -0.16317745 3.59922886
0.45631090 -0.95775533 2.57086086
0.42105493 1.40294456 0.04396593
-0.30130771 -0.00059267 3.76543021
-0.51695848 0.07324882 3.45673871
1.01183999 0.10292587 1.57776737
-1.07528973 -0.33327550 0.40713975
1.09481847 -0.17423056 -0.41413385
-0.63853884 -0.11398982 3.18478441
-0.82028145 0.27352956 -2.53479409
-0.36663130 -0.27656311 -3.62345672
-0.78228271 0.96679646 -1.21169341
0.21652150 -0.93477136 2.98463678
0.53140318 -0.95492595 -2.39335442
-0.50080043 1.20984399 -1.56374681
1.06328487 0.26665163 -0.86537516
-0.39993027 -0.40994662 3.49251270
0.83945864 -0.97239435 -0.49495023
0.85914993 -0.12647031 2.44963598
0.50682515 0.52762461 -3.20290351
-0.84620190 0.75337678 1.61572754
-0.49071369 -1.34947169 -0.43979225
-0.17524995 -1.40084028 1.36748636
0.88054687 -0.83471459 1.00455511
-0.55538338 0.51869887 -3.11087036
0.98222500 -0.42991415 -1.43512428
0.34963042 1.08137596 -2.45142865
0.63989937 0.83705896 -2.35636735
-0.26864776 -1.19906628 -2.20279431
-0.09145969 -1.16562474 -2.48206902
-0.42082551 -0.21634506 3.57771039
-0.98229778 -0.64889890 -0.70017320
0.83332688 0.55024457 2.15554547
0.05719746 -1.12306595 -2.62201929
-0.91878486 0.49479270 1.77928948
-0.29297906 1.07728541 -2.55223680
0.12311117 1.12667274 -2.58319497
0.90991557 0.13355048 -2.20801806
0.33826682 0.14915960 -3.70601225
-0.58807272 -0.90254635 -2.36299205
1.03826249 -0.39281675 0.92555791
0.27985537 -0.54884106 -3.51149201
-0.85668653 -0.94456685 0.48328501
-0.82263154 -0.92423308 1.09343767
-0.19062676 0.87435836 -3.12760592
0.27617800 1.10304379 2.50189781
-0.87301856 0.40257785 -2.17578650
0.72859836 0.23848057 2.88399959
-0.75222349 -1.11414242 -0.05971878
0.08691218 -0.18304141 -3.87171316
-0.58532143 1.25397968 -0.76076925
-0.27422091 -0.96634269 2.85840058
-0.29371721 0.25047636 3.71712589
-0.89192456 -0.79399949 -1.09609723
-1.03498244 -0.45487216 -0.76742744
-0.33475292 -0.46733961 -3.52962875
-0.69932044 1.13316977 -0.82099068
-0.41730276 1.38568664 0.60753936
-0.15232629 -1.47883308 0.68759102
-0.42565882 0.94714391 2.66179466
0.12855174 0.92786282 -3.06187224
-0.49253222 1.06328380 2.18370390
-0.86753333 -0.61224276 1.85437536
0.82614893 0.94355392 0.93879604
-0.77130914 -0.07946901 2.80301762
0.08525731 -1.49731886 0.54761750
0.97367018 0.72443068 -0.09738635
0.65774828 -0.30073240 -3.05250549
-0.13521345 -0.03755694 3.88246727
-0.96176910 0.40764934 -1.63671291
0.55193716 0.69135469 2.88595605
-0.02381546 0.58529061 -3.60846663
0.19531232 0.08428122 3.84526467
-1.03495252 0.17785504 1.32536554
-0.38833806 -1.42060351 -0.08270598
-0.57509720 -1.08888936 1.81673169
-0.10037269 -1.03212810 2.84607911
-0.67423648 0.43553686 -2.89698625
-0.79610550 -0.27979785 -2.62515378
-0.69040239 -0.93311012 1.89214683
-0.97437125 -0.37408349 -1.59664369
0.71502084 0.28815848 -2.89664245
1.00251639 -0.64667368 0.08948147
0.55093259 -0.14929822 3.37348676
-1.10088861 -0.15923773 -0.21049231
-0.13297476 -1.41023779 -1.36180735
0.98170882 -0.23151337 1.71576083
0.89092642 0.88741922 -0.42653060
-0.33501002 0.10410372 -3.72117615
-0.66776645 -1.19895267 -0.43075937
-0.00043198 -0.87600023 3.19443870
0.17504333 -0.87604374 -3.13345146
1.03100002 -0.25752723 -1.27527714
0.62149948 -0.44780642 3.02683711
0.05747312 1.48210716 0.80928880
-0.84315795 -0.47080359 2.23164535
-0.09505772 0.90262860 3.12871981
0.26234877 -0.25498745 -3.74506474
-0.38215828 -1.39248931 -0.76576203
0.43423536 0.28139389 3.52619553
-0.37814787 0.63072973 -3.29923558
0.37600926 -1.39806187 -0.73550695
-0.19642352 1.30889976 -1.85285914
-0.42006940 0.37160870 3.49175406
-0.38584653 -1.04994833 2.47385812
0.75919819 -0.99061537 -1.26536942
-1.05072582 0.41968361 0.61839360
0.04624149 0.83308572 3.26596570
1.10490024 0.06803223 -0.25814900
0.23670067 1.46829975 -0.51836687
0.93771815 0.52390152 1.58985567
-0.60159254 0.59514624 2.90626097
0.29852340 0.78490192 3.17862892
0.56511068 -0.76120704 -2.73497820
-0.49169454 0.85567099 -2.72636199
-0.12284795 -0.27447870 3.82353163
0.11743467 -0.69952190 -3.44753957
-0.73326200 0.20563482 2.88648009
0.94939631 -0.74457419 0.62806749
0.40376469 -0.19890469 -3.60752082
0.59210205 -1.28186202 0.12969871
-1.07986701 -0.01787354 -0.88117391
0.55912238 1.23545611 -1.12076771
-0.94705862 0.04989179 2.02921963
0.47654876 -0.35628316 -3.41133952
0.76586163 -1.09469509 -0.16715622
-0.91126859 -0.73690534 1.16166103
-0.32347387 1.37473261 1.19460094
0.94420040 -0.10366326 -2.03321385
-0.22542962 1.42857504 -1.04781687
-0.22792093 -1.45845091 -0.71874726
0.27399600 1.23521984 2.05450749
0.66979569 0.75242209 2.44024014
-1.05196965 -0.46947286 -0.22830734
-1.02534342 -0.15421683 -1.43179214
0.76896423 -0.36655971 -2.65480113
-0.89022636 -0.20830630 2.26984477
-0.93076456 0.63448608 -1.35711300
-0.13010779 -0.90242916 -3.11195636
0.93743813 -0.77491254 -0.60935515
0.80858183 0.08476596 -2.66766834
-0.48294103 -0.68527973 -3.04784894
0.17317535 -0.31809548 3.77724910
-0.43889067 -1.36152601 0.75647509
-0.54505330 -0.71643221 2.86283302
-1.01077461 0.62222612 -0.05316207
-0.88456148 0.88638973 -0.57344389
-0.34002039 0.66643500 3.30433488
-0.78684902 -0.98290360 -1.07878339
0.48703033 1.07436228 2.16200018
-0.52261800 -1.22824299 1.36732495
-0.70256054 -1.15828073 0.48364544
0.70978206 0.64088351 -2.51062727
-0.71253145 0.60861272 2.55357862
-0.92630434 0.75338113 -0.91988748
0.52330023 -0.56381291 -3.12828684
-0.25769913 -0.18761376 3.77544236
0.56005782 -0.72529066 2.81162977
-0.54593962 -1.19460261 -1.44888937
-0.18917838 1.48935854 0.31874833
-0.15997155 0.03102821 -3.87106276
1.08761454 0.29290712 -0.00147951
-0.23866829 -1.04091203 -2.71812439
-0.91988540 0.80297375 0.69022447
0.89675242 0.33732831 -2.12938714
-0.19962794 0.36471933 -3.73152304
-0.56276244 -1.30619371 0.10153170
0.15300091 -1.18300581 2.38872051
-0.00234437 1.36073887 1.73035645
-0.95735228 -0.55904144 -1.34440482
-0.97416413 -0.48246154 1.39235246
0.18882626 1.39266562 1.40035498
-0.61583823 1.03460729 1.86066902
0.89775950 -0.50264454 -1.89364290
3 249 48 83
3 64 0 62
3 220 34 37
3 64 62 204
3 204 191 64
3 51 191 204
3 213 27 253
3 21 48 249
3 104 24 232
3 40 205 155
3 7 151 128
3 128 151 1
3 115 111 220
3 220 111 244
3 244 34 220
3 113 26 215
3 117 184 66
3 66 51 118
3 184 51 66
3 117 196 30
3 30 184 117
3 30 196 1
3 64 191 84
3 84 0 64
3 84 27 0
3 46 191 79
3 79 191 51
3 79 51 184
3 168 87 100
3 100 23 168
3 168 23 73
3 168 73 122
3 122 87 168
3 25 152 194
3 32 87 192
3 100 87 32
3 32 129 100
3 145 62 0
3 0 27 145
3 220 37 198
3 99 70 207
3 78 246 234
3 246 163 234
3 118 51 108
3 51 204 108
3 126 196 117
3 117 66 126
3 126 66 29
3 148 145 192
3 107 174 41
3 122 164 41
3 81 174 210
3 210 174 107
3 210 97 81
3 38 204 62
3 38 148 97
3 38 246 78
3 38 97 246
3 73 33 105
3 207 70 105
3 112 86 90
3 146 177 90
3 231 213 127
3 27 213 231
3 134 45 67
3 67 229 134
3 185 86 134
3 134 229 185
3 249 83 94
3 112 90 98
3 150 45 134
3 175 23 100
3 11 183 50
3 47 24 104
3 47 21 249
3 104 21 47
3 186 232 24
3 186 133 9
3 24 133 186
3 31 40 155
3 215 26 88
3 136 113 215
3 251 113 136
3 7 128 91
3 212 167 11
3 225 232 233
3 104 232 225
3 225 140 104
3 44 183 11
3 11 167 44
3 44 167 111
3 121 34 110
3 34 244 110
3 111 167 110
3 110 244 111
3 218 177 146
3 121 110 240
3 233 124 130
3 56 16 192
3 192 145 56
3 56 231 16
3 56 145 27
3 27 231 56
3 129 32 22
3 22 214 152
3 152 25 22
3 22 25 129
3 107 41 221
3 221 41 164
3 164 70 221
3 70 99 221
3 20 69 120
3 120 42 20
3 120 69 36
3 20 42 153
3 153 126 29
3 101 69 20
3 36 69 101
3 101 163 36
3 101 234 163
3 62 145 169
3 145 148 169
3 169 38 62
3 148 38 169
3 192 87 243
3 243 148 192
3 97 148 243
3 89 174 81
3 89 41 174
3 222 163 246
3 255 210 107
3 107 221 255
3 65 38 78
3 204 38 65
3 65 108 204
3 122 73 200
3 73 105 200
3 200 164 122
3 200 70 164
3 200 105 70
3 80 98 226
3 226 98 90
3 9 133 226
3 226 133 80
3 178 141 229
3 229 67 178
3 49 127 194
3 49 231 127
3 194 152 49
3 152 214 49
3 49 214 16
3 16 231 49
3 254 77 102
3 102 77 245
3 86 185 199
3 146 90 199
3 199 90 86
3 85 150 134
3 85 86 112
3 134 86 85
3 23 175 61
3 73 23 61
3 61 33 73
3 48 33 61
3 11 50 147
3 147 50 21
3 147 140 11
3 147 21 104
3 104 140 147
3 202 183 207
3 202 50 183
3 202 33 48
3 48 21 202
3 21 50 202
3 207 105 202
3 202 105 33
3 158 133 24
3 158 47 249
3 24 47 158
3 249 94 158
3 26 124 208
3 208 88 26
3 232 186 157
3 9 161 157
3 157 186 9
3 57 157 161
3 233 232 57
3 232 157 57
3 3 31 188
3 188 31 155
3 166 88 40
3 3 203 166
3 215 88 166
3 166 31 3
3 40 31 166
3 166 136 215
3 203 136 166
3 216 136 203
3 216 203 7
3 106 170 63
3 92 170 242
3 180 212 156
3 140 225 156
3 2 110 167
3 2 212 180
3 167 212 2
3 180 240 2
3 2 240 110
3 230 240 171
3 121 240 230
3 93 30 1
3 129 25 72
3 58 82 224
3 114 32 192
3 114 22 32
3 192 16 114
3 16 214 114
3 214 22 114
3 237 206 149
3 123 206 237
3 123 237 19
3 19 18 115
3 95 18 19
3 8 120 36
3 149 206 8
3 8 222 149
3 36 163 8
3 163 222 8
3 42 120 131
3 242 170 247
3 247 42 242
3 247 153 42
3 142 101 20
3 108 101 142
3 20 153 142
3 142 153 29
3 118 108 142
3 142 66 118
3 29 66 142
3 234 101 109
3 109 101 108
3 108 65 109
3 78 234 109
3 109 65 78
3 81 97 190
3 97 243 190
3 190 89 81
3 41 89 190
3 122 41 190
3 190 87 122
3 190 243 87
3 119 222 246
3 210 222 119
3 246 97 119
3 97 210 119
3 149 222 217
3 217 222 210
3 210 255 217
3 217 237 149
3 10 18 95
3 183 18 10
3 60 177 144
3 144 161 60
3 60 90 177
3 60 226 90
3 60 161 9
3 9 226 60
3 189 178 67
3 189 45 194
3 189 67 45
3 194 127 189
3 127 178 189
3 176 84 191
3 176 191 46
3 253 27 176
3 27 84 176
3 46 241 176
3 241 75 176
3 209 139 254
3 209 241 139
3 209 75 241
3 141 14 143
3 143 209 254
3 14 209 143
3 253 176 250
3 250 176 75
3 250 213 253
3 75 209 250
3 250 209 14
3 141 178 52
3 52 14 141
3 52 250 14
3 52 178 127
3 127 213 52
3 213 250 52
3 254 139 55
3 55 77 254
3 139 132 55
3 138 77 55
3 55 132 138
3 146 199 12
3 12 218 146
3 205 218 12
3 193 199 185
3 80 133 172
3 172 17 80
3 133 158 172
3 94 17 172
3 172 158 94
3 197 98 80
3 80 17 197
3 224 150 197
3 197 17 224
3 239 61 175
3 175 58 239
3 239 83 48
3 48 61 239
3 239 94 83
3 125 161 144
3 144 208 125
3 125 57 161
3 125 208 124
3 125 124 233
3 233 57 125
3 252 208 144
3 88 208 252
3 144 177 252
3 177 218 252
3 40 88 252
3 205 40 252
3 252 218 205
3 251 136 162
3 136 216 162
3 106 63 159
3 159 63 91
3 1 196 159
3 196 106 159
3 159 128 1
3 159 91 128
3 170 92 13
3 59 63 13
3 13 63 170
3 13 74 59
3 180 156 103
3 103 240 180
3 171 240 103
3 140 156 39
3 39 156 212
3 11 140 39
3 39 212 11
3 135 113 251
3 121 230 135
3 171 130 35
3 35 230 171
3 35 124 26
3 35 130 124
3 35 135 230
3 26 113 35
3 113 135 35
3 139 241 211
3 211 132 139
3 211 241 46
3 46 79 211
3 211 79 184
3 184 30 96
3 96 211 184
3 132 211 96
3 138 132 96
3 30 93 96
3 96 93 138
3 181 72 25
3 82 72 181
3 100 129 6
3 129 72 6
3 6 175 100
3 53 17 94
3 94 239 53
3 53 239 58
3 224 17 53
3 53 58 224
3 183 44 71
3 71 18 183
3 115 18 71
3 111 115 71
3 71 44 111
3 173 198 123
3 123 19 173
3 173 19 115
3 173 115 220
3 220 198 173
3 242 42 5
3 42 131 5
3 5 92 242
3 123 198 28
3 28 5 131
3 28 198 37
3 37 5 28
3 179 131 120
3 179 28 131
3 179 206 123
3 123 28 179
3 182 170 106
3 182 247 170
3 182 106 196
3 196 126 182
3 126 153 182
3 153 247 182
3 237 217 195
3 95 19 195
3 195 19 237
3 195 217 255
3 195 10 95
3 255 10 195
3 187 255 221
3 187 10 255
3 187 221 99
3 187 99 207
3 207 183 187
3 183 10 187
3 229 141 76
3 141 193 76
3 76 185 229
3 76 193 185
3 4 12 199
3 155 205 4
3 205 12 4
3 150 85 238
3 238 197 150
3 238 85 112
3 112 98 238
3 98 197 238
3 59 74 160
3 7 91 160
3 160 216 7
3 160 162 216
3 160 63 59
3 91 63 160
3 137 5 37
3 92 5 137
3 248 156 225
3 248 103 156
3 248 225 233
3 171 103 248
3 233 130 248
3 248 130 171
3 227 188 245
3 3 188 227
3 1 151 219
3 219 93 1
3 219 236 93
3 82 181 154
3 224 82 154
3 45 150 154
3 154 150 224
3 175 6 165
3 165 6 72
3 165 58 175
3 165 72 82
3 82 58 165
3 120 8 201
3 201 179 120
3 201 8 206
3 206 179 201
3 155 4 116
3 116 188 155
3 116 102 245
3 245 188 116
3 199 193 235
3 235 4 199
3 254 102 235
3 102 116 235
3 235 116 4
3 235 193 141
3 235 143 254
3 141 143 235
3 68 160 74
3 162 160 68
3 251 162 68
3 68 74 121
3 121 135 68
3 68 135 251
3 223 34 121
3 121 74 223
3 223 37 34
3 223 137 37
3 228 227 245
3 236 227 228
3 245 77 228
3 228 77 138
3 138 93 228
3 93 236 228
3 43 227 236
3 236 219 43
3 3 227 43
3 43 219 151
3 43 203 3
3 43 151 7
3 7 203 43
3 45 154 15
3 15 154 181
3 194 45 15
3 15 25 194
3 15 181 25
3 137 223 54
3 54 13 92
3 92 137 54
3 74 13 54
3 54 223 74