ply
format ascii 1.0
comment https://github.com/mikedh/trimesh
element vertex 256
property float x
property float y
property float z
element face 508
property list uchar int vertex_indices
end_header
2.16755366 2.21701002 0.15263410
-3.05805945 1.06112814 -1.67934549
-1.19401515 -2.34728503 -1.08138883
-3.99772286 0.49196705 -0.13363837
-3.24536657 0.60863662 1.79543650
-0.23311819 -0.31925324 -3.18741632
2.57701921 0.05628416 2.48965311
-3.71474433 0.12111380 -1.31101799
1.92345369 0.00176696 -2.83590555
-1.83546662 -1.59428453 2.10447884
2.30509210 -1.73071098 -1.59035838
0.04511500 -2.61819196 -0.19826956
-3.18192768 0.29307231 1.97580481
-1.92871404 -0.53106523 -2.75738406
-0.80915350 2.20921183 1.61328256
0.91587132 0.65792084 3.02841830
2.75149369 1.40355837 1.63198924
0.33768585 -1.12818360 2.89171052
1.30996943 -2.07562971 -1.67255890
1.22915244 -1.69558346 -2.25468993
0.75267565 0.81795526 -2.99763608
0.65185905 -2.42477226 1.11418843
2.65786314 0.95729780 2.13709545
3.09621048 -0.71807313 1.89524961
-0.89240438 -1.94000101 2.04789186
1.93296123 0.80966383 2.65091467
-3.48953938 -1.34274578 -0.20241293
1.60810006 2.30536413 0.86338240
0.53780937 -0.82802868 -3.02281976
-0.10947219 1.56330943 -2.58135390
-1.64190722 1.82910597 -1.90552688
-4.00219727 0.24891989 0.51452297
3.34120297 0.40276802 1.77152371
2.72854352 -1.61533356 1.33330548
-1.44205439 -1.64550328 -2.23138046
-3.19671845 -1.56698537 -0.52910787
1.98305678 0.49315679 -2.74341750
-0.64568239 -1.25244522 -2.77953863
3.15036201 1.48582363 -0.91571039
-0.63945568 -2.59016681 -0.06668906
-4.01695347 -0.15398809 0.49825552
3.96977472 -0.58498418 -0.08857599
0.29898763 0.42089999 -3.16576409
-3.80116868 0.83661604 -0.53111398
0.12747698 -2.41863346 -1.24211967
0.39529681 0.71720755 3.07818747
0.00791383 2.57797122 -0.59277409
-0.16882649 -2.32849503 1.47624457
2.04257512 -1.86121857 1.59204876
2.03314614 1.58566546 1.99585176
1.31474495 -2.48088503 -0.11959420
0.50079590 2.26935124 -1.56521976
-0.36263916 2.11291766 1.88424850
1.07813334 -1.00992012 2.84409261
-1.73025286 -0.85086983 -2.71869206
-2.21505308 2.19072008 0.27380195
2.96924090 1.51418996 1.18393219
-2.50174189 -1.91832471 0.95405525
1.61132860 -0.62056398 2.85536098
-2.56520295 -0.28499633 -2.47300458
-2.43707418 -1.26788950 2.05664682
2.57985830 -1.06072736 2.12258911
2.71856308 1.95120549 -0.11145278
-2.62765980 0.17879952 -2.44751787
1.90989470 2.30185413 -0.32282111
2.37755775 1.75579810 -1.47999513
-0.31310022 1.89159501 -2.21560574
-0.38373411 1.03545940 2.93985772
-2.95703244 -0.87928486 -1.93304837
1.23122132 0.68960333 -2.94683695
3.33304596 -1.50461769 0.13437305
0.65707302 -2.29188538 -1.47831881
2.12777781 0.10721303 2.73927188
3.34343386 -0.92634737 1.44392931
-2.53109646 -0.90394545 -2.26357508
-0.36476716 2.56035399 0.63552117
-1.73327208 1.19633508 2.51368356
-2.73471475 1.88853741 0.57056254
2.72016096 1.48007751 -1.56127894
0.10086057 2.49191332 -1.00109935
-1.45603704 -1.06150806 2.70743966
3.99242520 0.01069422 -0.63899601
1.53522074 -0.28217995 2.95842886
1.67682636 -1.65622985 2.11314964
1.54726970 2.42608786 0.03613832
-1.10722911 -0.00102489 3.09504008
-1.89969087 0.12666792 2.84130740
3.71825433 0.17798795 1.29686463
-3.95141602 -0.57632762 0.33465335
4.02317905 -0.30129394 -0.34040225
-2.34646773 -0.19712065 2.61777139
-3.01432562 0.47300994 -2.08350420
-1.34727669 -0.47825581 -2.97834325
-2.87468982 1.67186451 -0.99596584
0.79566139 -1.61648405 2.45325756
1.95277131 -1.65133715 -1.96724617
-1.84031415 2.09216237 -1.28534031
3.90730095 0.46111611 -0.71130538
-1.46964192 -0.70891362 2.87071228
3.08479691 -1.68154490 -0.40683022
3.15715742 -0.21870296 2.01350737
1.86245346 0.91241217 -2.63266468
-3.10957670 1.30280161 1.32806647
-1.80324781 -2.33361840 -0.36149246
-0.64399898 -2.42244911 1.12402165
3.23578572 -1.44345760 0.82570606
-2.04089236 0.89697701 -2.55701685
3.60942674 -0.74344313 -1.17961752
1.28480279 1.87000489 -2.01498103
2.35146737 1.44751167 -1.93684411
-0.98721212 -2.07352471 -1.81061304
-0.33609110 -2.01569486 -2.04016614
-1.54642665 -0.37412179 2.94074154
-3.60969424 -1.12212968 -0.57551569
3.06226397 0.95152849 1.77177632
0.21018611 -1.94209874 -2.15519977
-3.37630033 0.85563654 1.46250820
-1.07662344 1.86293125 -2.09784126
0.45240220 1.94833589 -2.12328792
3.34370804 0.23094654 -1.81490684
1.24304450 0.25793913 -3.04620099
-2.16101766 -1.56075799 -1.94228935
3.81535053 -0.67929125 0.76077336
1.02839732 -0.94910139 -2.88631248
-3.14810491 -1.63342333 0.39724186
-3.02296162 -1.59826040 0.89876407
-0.70050478 1.51201296 -2.57077289
1.01488388 1.90747464 2.05646467
-3.20812082 0.69617099 -1.78841352
2.67741346 0.41240036 2.37053776
-2.76422977 -1.92666733 -0.04908656
0.31938016 -0.31653038 -3.18240070
-2.15090728 2.16848564 -0.62532336
-1.00769210 -1.67107987 2.34949636
-1.07933593 0.43314448 3.05533600
-3.27759576 -1.37304974 -0.90095019
-3.80329728 -0.78660262 -0.63079607
-1.23013175 -0.80816233 -2.90122032
-2.56982470 1.95957100 -0.67482305
-1.53348136 2.39624405 0.49937421
-0.55976033 -2.55732083 0.56517357
-1.56418777 1.63787973 2.18789387
0.47239488 1.60453725 -2.51674223
-1.80993044 1.83871841 1.79492128
-3.18796420 -1.05874085 1.52422583
3.03588700 1.63167155 0.77165455
-2.83436465 -0.13742439 2.30397367
0.31329888 -2.58928776 0.45012069
3.57799006 1.25274563 -0.08004787
2.41705751 -0.52005136 -2.50904322
-0.49687499 -0.06494658 3.19124031
-3.53425646 0.70494097 -1.34531569
2.02822852 1.19554782 2.37214589
-0.08751573 1.01213300 -2.96602201
0.71772307 0.14574607 3.16066098
-3.80318689 0.30756170 1.08939993
-1.42704356 -2.45662522 -0.06798117
-2.11333585 -1.88299763 1.49328423
-0.36884409 -1.78484142 2.33936858
-2.47764730 0.75316638 -2.38121223
-2.92548513 -0.48384964 -2.15777636
-2.53705287 -1.61361122 1.55527258
-3.58056617 -0.64689612 -1.31238031
2.62751937 0.49830750 -2.38092971
3.68399239 -1.11828172 0.07355036
2.02453709 -0.25817886 2.77287769
-4.04548502 -0.27536705 -0.17301665
-0.48864838 -2.43869996 -1.11935377
3.60752988 -0.40035209 1.41029000
3.27392769 1.53459883 -0.35059190
-1.23107660 0.18002477 -3.05866504
-2.45387149 -2.07332826 -0.35406780
-0.00158742 -1.51485217 2.62570691
0.64323968 -1.51492739 -2.57557774
3.78866267 -0.44533741 -1.04822922
2.28385234 -0.77438396 2.48794460
0.21119909 2.56298256 0.66520452
-3.09839082 -0.81415254 1.83432746
-0.34931293 1.56090021 2.57168841
0.96406490 -0.44094542 -3.07830048
-1.40433431 -2.40800786 -0.62942719
1.59570444 0.48660964 2.89839840
-1.38959718 1.09071004 -2.71184587
1.38173819 -2.41764450 -0.60455871
-0.72180641 2.26345778 -1.52297962
-1.54364812 0.64261651 2.87008882
-1.41788769 -1.81565762 2.03341722
2.78986001 -1.71305418 -1.04008543
-3.86114955 0.72575164 0.50829595
0.16992570 1.44064081 2.68449926
4.06022692 0.11764698 -0.21218863
0.86981469 2.53910542 -0.42607781
3.44587564 0.90597391 1.30680072
-2.21069932 1.02917624 2.38883567
1.09699750 1.35731733 2.61271191
2.07663774 -1.31634223 -2.24804783
-1.80685222 1.47969711 -2.24096560
-0.45143494 -0.47465131 3.14279723
0.43154255 -1.20967126 -2.83374619
-2.69455123 0.35560074 2.37257671
3.48878980 -1.28757930 0.51624757
1.48373246 -0.34396246 -2.96524453
2.17582417 -2.21670198 0.10660740
-3.96823645 -0.03090842 -0.72429138
2.05463243 2.13645315 -0.92122835
-3.48019934 0.08627702 1.66794121
1.75119531 -0.61611432 -2.80399108
2.81434631 -1.89303732 -0.13739605
-3.34868002 -1.27431774 0.95484114
-1.18868411 2.37730145 0.98191643
3.46969604 -0.17926309 -1.67122424
-0.82839650 2.47041011 -0.86126548
-0.83755141 -2.52207422 -0.59078282
1.00686550 2.13604450 1.68872678
2.46132874 1.30115056 2.00578427
-3.86572075 -0.81185138 -0.18765993
-3.76787615 -0.26668453 -1.17687857
2.82574773 -0.63388544 -2.18214536
-3.27135539 -0.36022052 1.86572587
-3.42032290 1.09720588 -1.11549520
-0.47811300 -1.56055522 -2.55790949
3.44484639 -1.34004295 -0.50086671
2.97133231 0.14658432 -2.19272161
-1.77468526 -1.18504250 -2.50521564
0.63637531 -0.55007702 3.10475469
-1.61281145 -2.35446358 0.62179369
-2.00293231 -1.23891401 2.35313964
-3.71433949 1.07600498 -0.04369720
-3.25053811 1.53281856 -0.47134903
-1.24948835 1.15245461 2.71603727
-2.89146972 -1.69971836 -0.88671887
1.78971243 1.85787630 1.77708173
-1.92048812 -2.12397957 1.12388897
-2.58173108 -2.00299501 0.39753813
2.60826826 1.10826886 -2.06363988
-2.61837173 1.05246353 2.09894419
-3.40393257 1.30280900 -0.75611246
1.92299497 -0.97499198 -2.57133269
-0.94697869 -0.32443726 3.10326958
2.05806994 -1.25423265 2.31105256
-2.00618911 -2.06580567 -1.19093180
-0.69518238 2.57552218 0.26199898
-0.58785468 0.05365655 -3.18186593
3.99670672 0.50651926 -0.00121610
-0.87704521 -1.80003142 -2.23419452
-3.38034463 1.38856864 0.56733817
3.29533672 0.58333606 -1.75027514
-0.73358184 0.63070291 -3.06716967
-2.06800866 -2.25877833 0.08345518
0.56223935 -2.04575157 1.96343720
-0.00861497 2.35310245 1.42228711
-3.51802588 -0.96674073 -1.10504949
-3.57980514 -0.83431244 1.14446068
0.69388849 2.40831280 1.15103841
-2.26304865 1.78912854 1.52939904
3.29903746 -0.86921453 -1.55650234
3 249 48 83
3 64 0 62
3 220 34 37
3 64 62 204
3 204 191 64
3 51 191 204
3 213 27 253
3 21 48 249
3 104 24 232
3 40 205 155
3 7 151 128
3 128 151 1
3 115 111 220
3 220 111 244
3 244 34 220
3 113 26 215
3 117 184 66
3 66 51 118
3 184 51 66
3 117 196 30
3 30 184 117
3 30 196 1
3 64 191 84
3 84 0 64
3 84 27 0
3 46 191 79
3 79 191 51
3 79 51 184
3 168 87 100
3 100 23 168
3 168 23 73
3 168 73 122
3 122 87 168
3 25 152 194
3 32 87 192
3 100 87 32
3 32 129 100
3 145 62 0
3 0 27 145
3 220 37 198
3 99 70 207
3 78 246 234
3 246 163 234
3 118 51 108
3 51 204 108
3 126 196 117
3 117 66 126
3 126 66 29
3 148 145 192
3 107 174 41
3 122 164 41
3 81 174 210
3 210 174 107
3 210 97 81
3 38 204 62
3 38 148 97
3 38 246 78
3 38 97 246
3 73 33 105
3 207 70 105
3 112 86 90
3 146 177 90
3 231 213 127
3 27 213 231
3 134 45 67
3 67 229 134
3 185 86 134
3 134 229 185
3 249 83 94
3 112 90 98
3 150 45 134
3 175 23 100
3 11 183 50
3 47 24 104
3 47 21 249
3 104 21 47
3 186 232 24
3 186 133 9
3 24 133 186
3 31 40 155
3 215 26 88
3 136 113 215
3 251 113 136
3 7 128 91
3 212 167 11
3 225 232 233
3 104 232 225
3 225 140 104
3 44 183 11
3 11 167 44
3 44 167 111
3 121 34 110
3 34 244 110
3 111 167 110
3 110 244 111
3 218 177 146
3 121 110 240
3 233 124 130
3 56 16 192
3 192 145 56
3 56 231 16
3 56 145 27
3 27 231 56
3 129 32 22
3 22 214 152
3 152 25 22
3 22 25 129
3 107 41 221
3 221 41 164
3 164 70 221
3 70 99 221
3 20 69 120
3 120 42 20
3 120 69 36
3 20 42 153
3 153 126 29
3 101 69 20
3 36 69 101
3 101 163 36
3 101 234 163
3 62 145 169
3 145 148 169
3 169 38 62
3 148 38 169
3 192 87 243
3 243 148 192
3 97 148 243
3 89 174 81
3 89 41 174
3 222 163 246
3 255 210 107
3 107 221 255
3 65 38 78
3 204 38 65
3 65 108 204
3 122 73 200
3 73 105 200
3 200 164 122
3 200 70 164
3 200 105 70
3 80 98 226
3 226 98 90
3 9 133 226
3 226 133 80
3 178 141 229
3 229 67 178
3 49 127 194
3 49 231 127
3 194 152 49
3 152 214 49
3 49 214 16
3 16 231 49
3 254 77 102
3 102 77 245
3 86 185 199
3 146 90 199
3 199 90 86
3 85 150 134
3 85 86 112
3 134 86 85
3 23 175 61
3 73 23 61
3 61 33 73
3 48 33 61
3 11 50 147
3 147 50 21
3 147 140 11
3 147 21 104
3 104 140 147
3 202 183 207
3 202 50 183
3 202 33 48
3 48 21 202
3 21 50 202
3 207 105 202
3 202 105 33
3 158 133 24
3 158 47 249
3 24 47 158
3 249 94 158
3 26 124 208
3 208 88 26
3 232 186 157
3 9 161 157
3 157 186 9
3 57 157 161
3 233 232 57
3 232 157 57
3 3 31 188
3 188 31 155
3 166 88 40
3 3 203 166
3 215 88 166
3 166 31 3
3 40 31 166
3 166 136 215
3 203 136 166
3 216 136 203
3 216 203 7
3 106 170 63
3 92 170 242
3 180 212 156
3 140 225 156
3 2 110 167
3 2 212 180
3 167 212 2
3 180 240 2
3 2 240 110
3 230 240 171
3 121 240 230
3 93 30 1
3 129 25 72
3 58 82 224
3 114 32 192
3 114 22 32
3 192 16 114
3 16 214 114
3 214 22 114
3 237 206 149
3 123 206 237
3 123 237 19
3 19 18 115
3 95 18 19
3 8 120 36
3 149 206 8
3 8 222 149
3 36 163 8
3 163 222 8
3 42 120 131
3 242 170 247
3 247 42 242
3 247 153 42
3 142 101 20
3 108 101 142
3 20 153 142
3 142 153 29
3 118 108 142
3 142 66 118
3 29 66 142
3 234 101 109
3 109 101 108
3 108 65 109
3 78 234 109
3 109 65 78
3 81 97 190
3 97 243 190
3 190 89 81
3 41 89 190
3 122 41 190
3 190 87 122
3 190 243 87
3 119 222 246
3 210 222 119
3 246 97 119
3 97 210 119
3 149 222 217
3 217 222 210
3 210 255 217
3 217 237 149
3 10 18 95
3 183 18 10
3 60 177 144
3 144 161 60
3 60 90 177
3 60 226 90
3 60 161 9
3 9 226 60
3 189 178 67
3 189 45 194
3 189 67 45
3 194 127 189
3 127 178 189
3 176 84 191
3 176 191 46
3 253 27 176
3 27 84 176
3 46 241 176
3 241 75 176
3 209 139 254
3 209 241 139
3 209 75 241
3 141 14 143
3 143 209 254
3 14 209 143
3 253 176 250
3 250 176 75
3 250 213 253
3 75 209 250
3 250 209 14
3 141 178 52
3 52 14 141
3 52 250 14
3 52 178 127
3 127 213 52
3 213 250 52
3 254 139 55
3 55 77 254
3 139 132 55
3 138 77 55
3 55 132 138
3 146 199 12
3 12 218 146
3 205 218 12
3 193 199 185
3 80 133 172
3 172 17 80
3 133 158 172
3 94 17 172
3 172 158 94
3 197 98 80
3 80 17 197
3 224 150 197
3 197 17 224
3 239 61 175
3 175 58 239
3 239 83 48
3 48 61 239
3 239 94 83
3 125 161 144
3 144 208 125
3 125 57 161
3 125 208 124
3 125 124 233
3 233 57 125
3 252 208 144
3 88 208 252
3 144 177 252
3 177 218 252
3 40 88 252
3 205 40 252
3 252 218 205
3 251 136 162
3 136 216 162
3 106 63 159
3 159 63 91
3 1 196 159
3 196 106 159
3 159 128 1
3 159 91 128
3 170 92 13
3 59 63 13
3 13 63 170
3 13 74 59
3 180 156 103
3 103 240 180
3 171 240 103
3 140 156 39
3 39 156 212
3 11 140 39
3 39 212 11
3 135 113 251
3 121 230 135
3 171 130 35
3 35 230 171
3 35 124 26
3 35 130 124
3 35 135 230
3 26 113 35
3 113 135 35
3 139 241 211
3 211 132 139
3 211 241 46
3 46 79 211
3 211 79 184
3 184 30 96
3 96 211 184
3 132 211 96
3 138 132 96
3 30 93 96
3 96 93 138
3 181 72 25
3 82 72 181
3 100 129 6
3 129 72 6
3 6 175 100
3 53 17 94
3 94 239 53
3 53 239 58
3 224 17 53
3 53 58 224
3 183 44 71
3 71 18 183
3 115 18 71
3 111 115 71
3 71 44 111
3 173 198 123
3 123 19 173
3 173 19 115
3 173 115 220
3 220 198 173
3 242 42 5
3 42 131 5
3 5 92 242
3 123 198 28
3 28 5 131
3 28 198 37
3 37 5 28
3 179 131 120
3 179 28 131
3 179 206 123
3 123 28 179
3 182 170 106
3 182 247 170
3 182 106 196
3 196 126 182
3 126 153 182
3 153 247 182
3 237 217 195
3 95 19 195
3 195 19 237
3 195 217 255
3 195 10 95
3 255 10 195
3 187 255 221
3 187 10 255
3 187 221 99
3 187 99 207
3 207 183 187
3 183 10 187
3 229 141 76
3 141 193 76
3 76 185 229
3 76 193 185
3 4 12 199
3 155 205 4
3 205 12 4
3 150 85 238
3 238 197 150
3 238 85 112
3 112 98 238
3 98 197 238
3 59 74 160
3 7 91 160
3 160 216 7
3 160 162 216
3 160 63 59
3 91 63 160
3 137 5 37
3 92 5 137
3 248 156 225
3 248 103 156
3 248 225 233
3 171 103 248
3 233 130 248
3 248 130 171
3 227 188 245
3 3 188 227
3 1 151 219
3 219 93 1
3 219 236 93
3 82 181 154
3 224 82 154
3 45 150 154
3 154 150 224
3 175 6 165
3 165 6 72
3 165 58 175
3 165 72 82
3 82 58 165
3 120 8 201
3 201 179 120
3 201 8 206
3 206 179 201
3 155 4 116
3 116 188 155
3 116 102 245
3 245 188 116
3 199 193 235
3 235 4 199
3 254 102 235
3 102 116 235
3 235 116 4
3 235 193 141
3 235 143 254
3 141 143 235
3 68 160 74
3 162 160 68
3 251 162 68
3 68 74 121
3 121 135 68
3 68 135 251
3 223 34 121
3 121 74 223
3 223 37 34
3 223 137 37
3 228 227 245
3 236 227 228
3 245 77 228
3 228 77 138
3 138 93 228
3 93 236 228
3 43 227 236
3 236 219 43
3 3 227 43
3 43 219 151
3 43 203 3
3 43 151 7
3 7 203 43
3 45 154 15
3 15 154 181
3 194 45 15
3 15 25 194
3 15 181 25
3 137 223 54
3 54 13 92
3 92 137 54
3 74 13 54
3 54 223 74