ply
format ascii 1.0
comment https://github.com/mikedh/trimesh
element vertex 256
property float x
property float y
property float z
element face 508
property list uchar int vertex_indices
end_header
2.05064297 0.87115985 0.16828339
-2.89311767 0.41696352 -1.85152555
-1.12961388 -0.92235065 -1.19226146
-3.78209877 0.19331530 -0.14734004
-3.07032204 0.23915987 1.97951913
-0.22054456 -0.12544851 -3.51421595
2.43802333 0.02211650 2.74491239
-3.51438332 0.04759089 -1.44543421
1.81970894 0.00069431 -3.12666559
-1.73646760 -0.62646389 2.32024717
2.18076301 -0.68007177 -1.75341475
0.04268165 -1.02880168 -0.21859775
-3.01030493 0.11516089 2.17838025
-1.82468557 -0.20867868 -3.04009342
-0.76551044 0.86809570 1.77868927
0.86647218 0.25852579 3.33891606
2.60308719 0.55151927 1.79931402
0.31947219 -0.44331253 3.18819213
1.23931396 -0.81560546 -1.84404314
1.16285598 -0.66626865 -2.48585892
0.71207881 0.32141030 -3.30497813
0.61669993 -0.95279872 1.22842407
2.51450658 0.37616405 2.35620785
2.92921114 -0.28216225 2.08956599
-0.84427100 -0.76231098 2.25785828
1.82870364 0.31815222 2.92270780
-3.30132508 -0.52762336 -0.22316594
1.52136445 0.90587807 0.95190334
0.50880170 -0.32536855 -3.33274388
-0.10356762 0.61429244 -2.84601521
-1.55334818 0.71873546 -2.10089707
-3.78633165 0.09781148 0.56727600
3.16098952 0.15826511 1.95315468
2.58137488 -0.63473499 1.47000682
-1.36427474 -0.64658999 -2.46015954
-3.02429795 -0.61573690 -0.58335626
1.87609720 0.19378279 -3.02469468
-0.61085641 -0.49214029 -3.06451941
2.98044181 0.58384490 -1.00959647
-0.60496551 -1.01778948 -0.07352656
-3.80029225 -0.06050863 0.54934072
3.75565815 -0.22986579 -0.09765752
0.28286123 0.16538996 -3.49034381
-3.59614611 0.32874292 -0.58556813
0.12060128 -0.95038652 -1.36947179
0.37397581 0.28182212 3.39378810
0.00748699 1.01299727 -0.65355009
-0.15972054 -0.91496724 1.62760103
1.93240535 -0.73135388 1.75527847
1.92348492 0.62307709 2.20048261
1.24383187 -0.97484791 -0.13185596
0.47378463 0.89172697 -1.72569883
-0.34307960 0.83025742 2.07743692
1.01998234 -0.39684162 3.13569212
-1.63692868 -0.33434385 -2.99743438
-2.09558058 0.86082947 0.30187434
2.80908990 0.59499121 1.30531847
-2.36680603 -0.75379342 1.05187273
1.52441883 -0.24384664 3.14811563
-2.42684436 -0.11198749 -2.72655702
-2.30562639 -0.49820906 2.26751089
2.44070911 -0.41680601 2.34021401
2.57193279 0.76671368 -0.12287982
-2.48593235 0.07025813 -2.69845724
1.80688119 0.90449888 -0.35591936
2.24932003 0.68992960 -1.63173616
-0.29621261 0.74329013 -2.44276762
-0.36303675 0.40687713 3.24127579
-2.79753971 -0.34550935 -2.13124013
1.16481328 0.27097520 -3.24897051
3.15327239 -0.59122992 0.14815007
0.62163270 -0.90058172 -1.62988806
2.01301241 0.04212867 3.02012396
3.16310000 -0.36400226 1.59197259
-2.39457750 -0.35519958 -2.49565506
-0.34509283 1.00607479 0.70067990
-1.63978505 0.47009221 2.77140689
-2.58721328 0.74208868 0.62906122
2.57344437 0.58158696 -1.72135389
0.09542049 0.97918135 -1.10374022
-1.37750316 -0.41711280 2.98502851
3.77708697 0.00420222 -0.70451105
1.45241594 -0.11088081 3.26175094
1.58638394 -0.65080488 2.32980680
1.46381509 0.95331568 0.03984351
-1.04750884 -0.00040272 3.41236854
-1.79722774 0.04977335 3.13262129
3.51770401 0.06993923 1.42982972
-3.73828959 -0.22646424 0.36896473
3.80618215 -0.11839152 -0.37530303
-2.21990705 -0.07745729 2.88616633
-2.85174274 0.18586624 -2.29712176
-1.27460909 -0.18792756 -3.28370714
-2.71963859 0.65694845 -1.09808028
0.75274599 -0.63518703 2.70478559
1.84744525 -0.64888233 -2.16894412
-1.74105358 0.82210183 -1.41712379
3.69655395 0.18119262 -0.78423417
-1.39037418 -0.27856308 3.16504097
2.91841292 -0.66075230 -0.44854176
2.98687053 -0.08593792 2.21994829
1.76199889 0.35852650 -2.90258670
-2.94185615 0.51192755 1.46423054
-1.70598650 -0.91698039 -0.39855561
-0.60926378 -0.95188582 1.23926544
3.06125784 -0.56719744 0.91036409
-1.93081343 0.35246137 -2.81918287
3.41474628 -0.29213122 -1.30056143
1.21550477 0.73480642 -2.22157311
2.22463679 0.56879044 -2.13542509
-0.93396515 -0.81477827 -1.99625170
-0.31796345 -0.79205436 -2.24934053
-1.46301746 -0.14700876 3.24225020
-3.41499925 -0.44093367 -0.63452220
2.89709544 0.37389702 1.95343316
0.19884935 -0.76313525 -2.37616825
-3.19419384 0.33621690 1.61245632
-1.01855397 0.73202688 -2.31292892
0.42800111 0.76558614 -2.34098458
3.16335940 0.09074897 -2.00098562
1.17599869 0.10135552 -3.35852218
-2.04445934 -0.61328983 -2.14142871
3.60956287 -0.26692316 0.83877397
0.97292888 -0.37294331 -3.18224072
-2.97830653 -0.64184320 0.43797031
-2.85991287 -0.62802619 0.99091262
-0.66272187 0.59413576 -2.83434939
0.96014434 0.74952996 2.26730990
-3.03508544 0.27355593 -1.97177613
2.53300261 0.16205008 2.61358452
-2.61513638 -0.75707161 -0.05411931
0.30215386 -0.12437858 -3.50868607
-2.03489423 0.85209256 -0.68943655
-0.95334047 -0.65664011 2.59038568
-1.02112007 0.17020135 3.36859369
-3.10081291 -0.53953105 -0.99332291
-3.59815979 -0.30909047 -0.69547039
-1.16378248 -0.31756222 -3.19867682
-2.43121672 0.77000087 -0.74401140
-1.45077038 0.94158876 0.55057412
-0.52956873 -1.00488281 0.62311977
-1.47982061 0.64359432 2.41221428
0.44691548 0.63049263 -2.77477908
-1.71230876 0.72251260 1.97895122
-3.01601577 -0.41602543 1.68050182
2.87214112 0.64115489 0.85077083
-2.68148828 -0.05400003 2.54019570
0.29640058 -1.01744401 0.49627072
3.38500500 0.49225834 -0.08825502
2.28668928 -0.20435086 -2.76629066
-0.47007519 -0.02552034 3.51843190
-3.34363031 0.27700204 -1.48324835
1.91883254 0.46978283 2.61535740
-0.08279543 0.39771116 -3.27012253
0.67901146 0.05726998 3.48471761
-3.59805536 0.12085439 1.20109403
-1.35007346 -0.96531510 -0.07495115
-1.99934947 -0.73991185 1.64638782
-0.34894988 -0.70134199 2.57921958
-2.34401131 0.29595190 -2.62535334
-2.76769400 -0.19012561 -2.37900901
-2.40021253 -0.63405824 1.71473169
-3.38744211 -0.25419369 -1.44693613
2.48579955 0.19580673 -2.62504172
3.48529005 -0.43942162 0.08109134
1.91534019 -0.10144973 3.05717540
-3.82728505 -0.10820372 -0.19075572
-0.46229228 -0.95827156 -1.23411894
3.41295171 -0.15731579 1.55488431
3.09734273 0.60301077 -0.38653743
-1.16467631 0.07073958 -3.37226415
-2.32151771 -0.81470108 -0.39036968
-0.00150180 -0.59525150 2.89491558
0.60854542 -0.59528100 -2.83964658
3.58431458 -0.17499249 -1.15570211
2.16066885 -0.30428922 2.74302888
0.19980770 1.00710750 0.73340672
-2.93127370 -0.31991604 2.02239752
-0.33047214 0.61334574 2.83535862
0.91206640 -0.17326668 -3.39391279
-1.32858920 -0.94621122 -0.69396114
1.50963736 0.19121014 3.19556570
-1.31464684 0.42858753 -2.98988628
1.30721176 -0.94999790 -0.66654295
-0.68287456 0.88941127 -1.67912781
-1.46038878 0.25251204 3.16435361
-1.34141147 -0.71345103 2.24189949
2.63938427 -0.67313367 -1.14672339
-3.65289187 0.28517947 0.56041062
0.16076048 0.56609058 2.95973587
3.84123182 0.04622862 -0.23394392
0.82289976 0.99772525 -0.46976274
3.26001644 0.35599664 1.44078457
-2.09146142 0.40440819 2.63375854
1.03782904 0.53334916 2.88058829
1.96463084 -0.51724827 -2.47853589
-1.70939648 0.58143753 -2.47072768
-0.42708603 -0.18651119 3.46502233
0.40826654 -0.47533256 -3.12428474
-2.54921579 0.13973103 2.61583233
3.30061579 -0.50594604 0.56917745
1.40370476 -0.13515784 -3.26926541
2.05846739 -0.87103885 0.11753765
-3.75420284 -0.01214526 -0.79855156
1.94381225 0.83950555 -1.01568019
-3.29248881 0.03390200 1.83895206
1.65674162 -0.24209818 -3.09147882
2.66254973 -0.74385691 -0.15148300
-3.16806340 -0.50073498 1.05273914
-1.12457037 0.93414539 1.08259046
3.28255200 -0.07044028 -1.84257162
-0.78371549 0.97073185 -0.94956940
-0.79237664 -0.99103290 -0.65135467
0.95255852 0.83934498 1.86186874
2.32857275 0.51127881 2.21143365
-3.65721655 -0.31901178 -0.20690034
-3.56464934 -0.10479198 -1.29754162
2.67333627 -0.24908121 -2.40587664
-3.09490919 -0.14154634 2.05701518
-3.23584175 0.43114004 -1.22986472
-0.45232517 -0.61321020 -2.82016706
3.25904274 -0.52656132 -0.55221963
2.81106830 0.05759937 -2.41753721
-1.67896461 -0.46565485 -2.76207066
0.60205132 -0.21614924 3.42307925
-1.52582169 -0.92517138 0.68554503
-1.89490056 -0.48682332 2.59440255
-3.51400018 0.42280927 -0.04817739
-3.07521486 0.60231125 -0.51967555
-1.18209505 0.45284963 2.99450755
-2.73551345 -0.66789347 -0.97763246
1.69318128 0.73004061 1.95928252
-1.81690335 -0.83460414 1.23911917
-2.44248104 -0.78706402 0.43829694
2.46758699 0.43548712 -2.27522087
-2.47714520 0.41355881 2.31414485
-3.22033548 0.51193047 -0.83363521
1.81927502 -0.38311684 -2.83496642
-0.89590174 -0.12748554 3.42144203
1.94706440 -0.49284267 2.54800034
-1.89798188 -0.81174517 -1.31303585
-0.65768653 1.01203489 0.28886122
-0.55614775 0.02108400 -3.50809669
3.78113747 0.19903350 -0.00134079
-0.82974023 -0.70731080 -2.46326232
-3.19801998 0.54562914 0.62550628
3.11759710 0.22921817 -1.92972744
-0.69401485 0.24783066 -3.38164067
-1.95646703 -0.88757247 0.09201168
0.53191406 -0.80386502 2.16474462
-0.00815031 0.92463654 1.56811142
-3.32827520 -0.37987459 -1.21834815
-3.38672233 -0.32783774 1.26180005
0.65646237 0.94633102 1.26905215
-2.14098716 0.70302659 1.68620539
3.12109828 -0.34155229 -1.71608758
3 249 48 83
3 64 0 62
3 220 34 37
3 64 62 204
3 204 191 64
3 51 191 204
3 213 27 253
3 21 48 249
3 104 24 232
3 40 205 155
3 7 151 128
3 128 151 1
3 115 111 220
3 220 111 244
3 244 34 220
3 113 26 215
3 117 184 66
3 66 51 118
3 184 51 66
3 117 196 30
3 30 184 117
3 30 196 1
3 64 191 84
3 84 0 64
3 84 27 0
3 46 191 79
3 79 191 51
3 79 51 184
3 168 87 100
3 100 23 168
3 168 23 73
3 168 73 122
3 122 87 168
3 25 152 194
3 32 87 192
3 100 87 32
3 32 129 100
3 145 62 0
3 0 27 145
3 220 37 198
3 99 70 207
3 78 246 234
3 246 163 234
3 118 51 108
3 51 204 108
3 126 196 117
3 117 66 126
3 126 66 29
3 148 145 192
3 107 174 41
3 122 164 41
3 81 174 210
3 210 174 107
3 210 97 81
3 38 204 62
3 38 148 97
3 38 246 78
3 38 97 246
3 73 33 105
3 207 70 105
3 112 86 90
3 146 177 90
3 231 213 127
3 27 213 231
3 134 45 67
3 67 229 134
3 185 86 134
3 134 229 185
3 249 83 94
3 112 90 98
3 150 45 134
3 175 23 100
3 11 183 50
3 47 24 104
3 47 21 249
3 104 21 47
3 186 232 24
3 186 133 9
3 24 133 186
3 31 40 155
3 215 26 88
3 136 113 215
3 251 113 136
3 7 128 91
3 212 167 11
3 225 232 233
3 104 232 225
3 225 140 104
3 44 183 11
3 11 167 44
3 44 167 111
3 121 34 110
3 34 244 110
3 111 167 110
3 110 244 111
3 218 177 146
3 121 110 240
3 233 124 130
3 56 16 192
3 192 145 56
3 56 231 16
3 56 145 27
3 27 231 56
3 129 32 22
3 22 214 152
3 152 25 22
3 22 25 129
3 107 41 221
3 221 41 164
3 164 70 221
3 70 99 221
3 20 69 120
3 120 42 20
3 120 69 36
3 20 42 153
3 153 126 29
3 101 69 20
3 36 69 101
3 101 163 36
3 101 234 163
3 62 145 169
3 145 148 169
3 169 38 62
3 148 38 169
3 192 87 243
3 243 148 192
3 97 148 243
3 89 174 81
3 89 41 174
3 222 163 246
3 255 210 107
3 107 221 255
3 65 38 78
3 204 38 65
3 65 108 204
3 122 73 200
3 73 105 200
3 200 164 122
3 200 70 164
3 200 105 70
3 80 98 226
3 226 98 90
3 9 133 226
3 226 133 80
3 178 141 229
3 229 67 178
3 49 127 194
3 49 231 127
3 194 152 49
3 152 214 49
3 49 214 16
3 16 231 49
3 254 77 102
3 102 77 245
3 86 185 199
3 146 90 199
3 199 90 86
3 85 150 134
3 85 86 112
3 134 86 85
3 23 175 61
3 73 23 61
3 61 33 73
3 48 33 61
3 11 50 147
3 147 50 21
3 147 140 11
3 147 21 104
3 104 140 147
3 202 183 207
3 202 50 183
3 202 33 48
3 48 21 202
3 21 50 202
3 207 105 202
3 202 105 33
3 158 133 24
3 158 47 249
3 24 47 158
3 249 94 158
3 26 124 208
3 208 88 26
3 232 186 157
3 9 161 157
3 157 186 9
3 57 157 161
3 233 232 57
3 232 157 57
3 3 31 188
3 188 31 155
3 166 88 40
3 3 203 166
3 215 88 166
3 166 31 3
3 40 31 166
3 166 136 215
3 203 136 166
3 216 136 203
3 216 203 7
3 106 170 63
3 92 170 242
3 180 212 156
3 140 225 156
3 2 110 167
3 2 212 180
3 167 212 2
3 180 240 2
3 2 240 110
3 230 240 171
3 121 240 230
3 93 30 1
3 129 25 72
3 58 82 224
3 114 32 192
3 114 22 32
3 192 16 114
3 16 214 114
3 214 22 114
3 237 206 149
3 123 206 237
3 123 237 19
3 19 18 115
3 95 18 19
3 8 120 36
3 149 206 8
3 8 222 149
3 36 163 8
3 163 222 8
3 42 120 131
3 242 170 247
3 247 42 242
3 247 153 42
3 142 101 20
3 108 101 142
3 20 153 142
3 142 153 29
3 118 108 142
3 142 66 118
3 29 66 142
3 234 101 109
3 109 101 108
3 108 65 109
3 78 234 109
3 109 65 78
3 81 97 190
3 97 243 190
3 190 89 81
3 41 89 190
3 122 41 190
3 190 87 122
3 190 243 87
3 119 222 246
3 210 222 119
3 246 97 119
3 97 210 119
3 149 222 217
3 217 222 210
3 210 255 217
3 217 237 149
3 10 18 95
3 183 18 10
3 60 177 144
3 144 161 60
3 60 90 177
3 60 226 90
3 60 161 9
3 9 226 60
3 189 178 67
3 189 45 194
3 189 67 45
3 194 127 189
3 127 178 189
3 176 84 191
3 176 191 46
3 253 27 176
3 27 84 176
3 46 241 176
3 241 75 176
3 209 139 254
3 209 241 139
3 209 75 241
3 141 14 143
3 143 209 254
3 14 209 143
3 253 176 250
3 250 176 75
3 250 213 253
3 75 209 250
3 250 209 14
3 141 178 52
3 52 14 141
3 52 250 14
3 52 178 127
3 127 213 52
3 213 250 52
3 254 139 55
3 55 77 254
3 139 132 55
3 138 77 55
3 55 132 138
3 146 199 12
3 12 218 146
3 205 218 12
3 193 199 185
3 80 133 172
3 172 17 80
3 133 158 172
3 94 17 172
3 172 158 94
3 197 98 80
3 80 17 197
3 224 150 197
3 197 17 224
3 239 61 175
3 175 58 239
3 239 83 48
3 48 61 239
3 239 94 83
3 125 161 144
3 144 208 125
3 125 57 161
3 125 208 124
3 125 124 233
3 233 57 125
3 252 208 144
3 88 208 252
3 144 177 252
3 177 218 252
3 40 88 252
3 205 40 252
3 252 218 205
3 251 136 162
3 136 216 162
3 106 63 159
3 159 63 91
3 1 196 159
3 196 106 159
3 159 128 1
3 159 91 128
3 170 92 13
3 59 63 13
3 13 63 170
3 13 74 59
3 180 156 103
3 103 240 180
3 171 240 103
3 140 156 39
3 39 156 212
3 11 140 39
3 39 212 11
3 135 113 251
3 121 230 135
3 171 130 35
3 35 230 171
3 35 124 26
3 35 130 124
3 35 135 230
3 26 113 35
3 113 135 35
3 139 241 211
3 211 132 139
3 211 241 46
3 46 79 211
3 211 79 184
3 184 30 96
3 96 211 184
3 132 211 96
3 138 132 96
3 30 93 96
3 96 93 138
3 181 72 25
3 82 72 181
3 100 129 6
3 129 72 6
3 6 175 100
3 53 17 94
3 94 239 53
3 53 239 58
3 224 17 53
3 53 58 224
3 183 44 71
3 71 18 183
3 115 18 71
3 111 115 71
3 71 44 111
3 173 198 123
3 123 19 173
3 173 19 115
3 173 115 220
3 220 198 173
3 242 42 5
3 42 131 5
3 5 92 242
3 123 198 28
3 28 5 131
3 28 198 37
3 37 5 28
3 179 131 120
3 179 28 131
3 179 206 123
3 123 28 179
3 182 170 106
3 182 247 170
3 182 106 196
3 196 126 182
3 126 153 182
3 153 247 182
3 237 217 195
3 95 19 195
3 195 19 237
3 195 217 255
3 195 10 95
3 255 10 195
3 187 255 221
3 187 10 255
3 187 221 99
3 187 99 207
3 207 183 187
3 183 10 187
3 229 141 76
3 141 193 76
3 76 185 229
3 76 193 185
3 4 12 199
3 155 205 4
3 205 12 4
3 150 85 238
3 238 197 150
3 238 85 112
3 112 98 238
3 98 197 238
3 59 74 160
3 7 91 160
3 160 216 7
3 160 162 216
3 160 63 59
3 91 63 160
3 137 5 37
3 92 5 137
3 248 156 225
3 248 103 156
3 248 225 233
3 171 103 248
3 233 130 248
3 248 130 171
3 227 188 245
3 3 188 227
3 1 151 219
3 219 93 1
3 219 236 93
3 82 181 154
3 224 82 154
3 45 150 154
3 154 150 224
3 175 6 165
3 165 6 72
3 165 58 175
3 165 72 82
3 82 58 165
3 120 8 201
3 201 179 120
3 201 8 206
3 206 179 201
3 155 4 116
3 116 188 155
3 116 102 245
3 245 188 116
3 199 193 235
3 235 4 199
3 254 102 235
3 102 116 235
3 235 116 4
3 235 193 141
3 235 143 254
3 141 143 235
3 68 160 74
3 162 160 68
3 251 162 68
3 68 74 121
3 121 135 68
3 68 135 251
3 223 34 121
3 121 74 223
3 223 37 34
3 223 137 37
3 228 227 245
3 236 227 228
3 245 77 228
3 228 77 138
3 138 93 228
3 93 236 228
3 43 227 236
3 236 219 43
3 3 227 43
3 43 219 151
3 43 203 3
3 43 151 7
3 7 203 43
3 45 154 15
3 15 154 181
3 194 45 15
3 15 25 194
3 15 181 25
3 137 223 54
3 54 13 92
3 92 137 54
3 74 13 54
3 54 223 74