ply
format ascii 1.0
comment https://github.com/mikedh/trimesh
element vertex 256
property float x
property float y
property float z
element face 508
property list uchar int vertex_indices
end_header
2.52802968 2.19968438 0.14506039
-3.56663132 1.05283558 -1.59601617
-1.39258647 -2.32894158 -1.02773023
-4.66256571 0.48812240 -0.12700722
-3.78508878 0.60388023 1.70634675
-0.27188700 -0.31675833 -3.02925634
3.00559163 0.05584431 2.36611629
-4.33252668 0.12016732 -1.24596512
2.24333453 0.00175315 -2.69518757
-2.14071465 -1.58182549 2.00005460
2.68844151 -1.71718585 -1.51144457
0.05261787 -2.59773111 -0.18843141
-3.71109962 0.29078200 1.87776518
-2.24946976 -0.52691507 -2.62056255
-0.94372016 2.19194722 1.53323126
1.06818569 0.65277928 2.87814784
3.20908213 1.39258981 1.55100977
0.39384487 -1.11936712 2.74822354
1.52782452 -2.05940914 -1.58956635
1.43356717 -1.68233275 -2.14281201
0.87784970 0.81156307 -2.84889317
0.76026678 -2.40582299 1.05890238
3.09988022 0.94981670 2.03105259
3.61112714 -0.71246153 1.80120718
-1.04081607 -1.92484033 1.94627535
2.25442314 0.80333644 2.51937604
-4.06986904 -1.33225250 -0.19236918
1.87553596 2.28734803 0.82054132
0.62725002 -0.82155776 -2.87282729
-0.12767801 1.55109239 -2.45326686
-1.91496539 1.81481183 -1.81097448
-4.66778421 0.24697463 0.48899227
3.89686322 0.39962047 1.68362057
3.18231511 -1.60271001 1.26714683
-1.68187582 -1.63264394 -2.12065911
-3.72835016 -1.55473971 -0.50285345
2.31285000 0.48930284 -2.60728884
-0.75306290 -1.24265754 -2.64161754
3.67428422 1.47421229 -0.87027276
-0.74580061 -2.56992507 -0.06337994
-4.68499470 -0.15278471 0.47353202
4.62997007 -0.58041263 -0.08418084
0.34871092 0.41761073 -3.00867844
-4.43332386 0.83007807 -0.50476009
0.14867710 -2.39973235 -1.18048549
0.46103683 0.71160269 2.92544746
0.00922995 2.55782485 -0.56336063
-0.19690326 -2.31029820 1.40299320
2.38226652 -1.84667349 1.51305115
2.37126946 1.57327378 1.89681745
1.53339422 -2.46149755 -0.11365993
0.58408099 2.25161648 -1.48755348
-0.42294803 2.09640551 1.79075193
1.25743282 -1.00202775 2.70296860
-2.01800323 -0.84422040 -2.58379030
-2.58342862 2.17359996 0.26021588
3.46304202 1.50235677 1.12518537
-2.91779518 -1.90333343 0.90671498
1.87930131 -0.61571437 2.71367764
-2.99181008 -0.28276914 -2.35029387
-2.84237289 -1.25798118 1.95459580
3.00890279 -1.05243790 2.01726604
3.17067504 1.93595707 -0.10592248
-3.06465387 0.17740224 -2.32607198
2.22752070 2.28386569 -0.30680272
2.77295852 1.74207687 -1.40655768
-0.36517051 1.87681246 -2.10566711
-0.44755116 1.02736747 2.79398179
-3.44880295 -0.87241340 -1.83713031
1.43598020 0.68421423 -2.80061460
3.88734961 -1.49285936 0.12770545
0.76634789 -2.27397466 -1.40496457
2.48163867 0.10637518 2.60334897
3.89946532 -0.91910815 1.37228143
-2.95203161 -0.89688128 -2.15125608
-0.42542994 2.54034543 0.60398650
-2.02152467 1.18698597 2.38895440
-3.18951273 1.87377882 0.54225117
3.17253852 1.46851099 -1.48380816
0.11763424 2.47243929 -0.95142478
-1.69818401 -1.05321264 2.57309628
4.65638733 0.01061065 -0.60728896
1.79053628 -0.27997479 2.81163144
1.95569181 -1.64328671 2.00829482
1.80458903 2.40712857 0.03434514
-1.29136729 -0.00101688 2.94146395
-2.21561980 0.12567803 2.70032144
4.33662033 0.17659701 1.23251414
-4.60855818 -0.57182372 0.31804782
4.69225597 -0.29893938 -0.32351145
-2.73669815 -0.19558018 2.48787737
-3.51562428 0.46931347 -1.98012054
-1.57133615 -0.47451833 -2.83055758
-3.35276651 1.65879929 -0.94654590
0.92798418 -1.60385156 2.33152676
2.27752781 -1.63843215 -1.86963129
-2.14636827 2.07581258 -1.22156155
4.55710649 0.45751256 -0.67601037
-1.71405137 -0.70337361 2.72826743
3.59781528 -1.66840386 -0.38664326
3.68220973 -0.21699382 1.91359687
2.17218971 0.90528178 -2.50203156
-3.62671614 1.29262042 1.26216769
-2.10313773 -2.31538153 -0.34355518
-0.75109947 -2.40351796 1.06824756
3.77391434 -1.43217731 0.78473443
-2.38030410 0.88996732 -2.43013740
4.20969439 -0.73763329 -1.12108481
1.49847245 1.85539114 -1.91499746
2.74252915 1.43619967 -1.84073782
-1.15139091 -2.05732059 -1.72077024
-0.39198488 -1.99994254 -1.93893290
-1.80360579 -0.37119809 2.79482174
-4.21000624 -1.11336052 -0.54695857
3.57153511 0.94409245 1.68386054
0.24514119 -1.92692161 -2.04825854
-3.93779755 0.84894985 1.38993835
-1.25567186 1.84837282 -1.99374616
0.52763915 1.93311000 -2.01793003
3.89978480 0.22914174 -1.72485089
1.44976950 0.25592336 -2.89504814
-2.52040648 -1.54856086 -1.84591281
4.44986391 -0.67398274 0.72302371
1.19942534 -0.94168437 -2.74309349
-3.67165184 -1.62065840 0.37753066
-3.52569652 -1.58577025 0.85416734
-0.81700253 1.50019681 -2.44321084
1.18366456 1.89256811 1.95442259
-3.74164891 0.69073051 -1.69967234
3.12268186 0.40917751 2.25291133
-3.22393632 -1.91161084 -0.04665088
0.37249482 -0.31405675 -3.02448964
-2.50861478 2.15153933 -0.59429473
-1.17527676 -1.65802062 2.23291421
-1.25883532 0.42975953 2.90372992
-3.82267761 -1.36231959 -0.85624498
-4.43580627 -0.78045547 -0.59949595
-1.43470943 -0.80184668 -2.75726151
-2.99720049 1.94425726 -0.64133829
-1.78850770 2.37751794 0.47459522
-0.65285152 -2.53733563 0.53712964
-1.82432079 1.62507999 2.07933021
0.55095673 1.59199810 -2.39186120
-2.11093187 1.82434916 1.70585716
-3.71813989 -1.05046701 1.44859362
3.54077148 1.61892045 0.73336500
-3.30573487 -0.13635045 2.18965030
0.36540219 -2.56905293 0.42778566
4.17302942 1.24295557 -0.07607588
2.81902742 -0.51598728 -2.38454413
-0.57950801 -0.06443903 3.03289056
-4.12202263 0.69943202 -1.27856100
2.36553383 1.18620479 2.25443983
-0.10207008 1.00422335 -2.81884789
0.83708435 0.14460708 3.00382876
-4.43567753 0.30515814 1.03534389
-1.66436863 -2.43742704 -0.06460793
-2.46479511 -1.86828232 1.41918731
-0.43018490 -1.77089322 2.22328901
-2.88969374 0.74728054 -2.26305628
-3.41200924 -0.48006845 -2.05070734
-2.95897865 -1.60100126 1.47809982
-4.17603397 -0.64184076 -1.24725986
3.06449032 0.49441332 -2.26278758
4.29666042 -1.10954249 0.06990079
2.36122847 -0.25616124 2.63528705
-4.71827126 -0.27321512 -0.16443156
-0.56991327 -2.41964197 -1.06381130
4.20748186 -0.39722341 1.34031129
3.81839967 1.52260625 -0.33319551
-1.43581128 0.17861791 -2.90689373
-2.86196375 -2.05712557 -0.33649892
-0.00185141 -1.50301397 2.49541903
0.75021392 -1.50308847 -2.44777727
4.41873789 -0.44185719 -0.99621594
2.66366935 -0.76833230 2.36449265
0.24632265 2.54295325 0.63219702
-3.61367011 -0.80779010 1.74330807
-0.40740556 1.54870200 2.44408083
1.12439418 -0.43749949 -2.92555499
-1.63788283 -2.38918972 -0.59819496
1.86107874 0.48280689 2.75457954
-1.62069476 1.08218634 -2.57728386
1.61152887 -2.39875102 -0.57456046
-0.84184676 2.24576926 -1.44740927
-1.80036521 0.63759458 2.72767472
-1.65369022 -1.80146861 1.93251884
3.25382900 -1.69966698 -0.98847628
-4.50327969 0.72008002 0.48307428
0.19818528 1.42938244 2.55129409
4.73546505 0.11672758 -0.20165981
1.01446962 2.51926279 -0.40493578
4.01894331 0.89889389 1.24195719
-2.57835078 1.02113330 2.27030158
1.27943408 1.34671021 2.48306894
2.42199397 -1.30605531 -2.13649940
-2.10734153 1.46813357 -2.12976885
-0.52651101 -0.47094199 2.98685145
0.50331038 -1.20021784 -2.69313526
-3.14266968 0.35282180 2.25484920
4.06899452 -1.27751720 0.49063131
1.73048532 -0.34127447 -2.81810880
2.53767562 -2.19937897 0.10131753
-4.62817574 -0.03066687 -0.68835193
2.39632893 2.11975718 -0.87551695
-4.05897522 0.08560278 1.58517790
2.04242873 -0.61129951 -2.66485667
3.28238750 -1.87824368 -0.13057844
-3.90558386 -1.26435924 0.90746182
-1.38636875 2.35872340 0.93319362
4.04672527 -0.17786218 -1.58829796
-0.96616334 2.45110440 -0.81852943
-0.97684073 -2.50236464 -0.56146812
1.17431283 2.11935163 1.60493207
2.87066102 1.29098237 1.90625715
-4.50861120 -0.80550689 -0.17834823
-4.39449453 -0.26460043 -1.11848176
3.29568505 -0.62893170 -2.07386708
-3.81539941 -0.35740545 1.77314842
-3.98914099 1.08863139 -1.06014419
-0.55762577 -1.54835987 -2.43098593
4.01774311 -1.32957077 -0.47601369
3.46548104 0.14543879 -2.08391857
-2.06982517 -1.17578161 -2.38090658
0.74220794 -0.54577827 2.95069647
-1.88103080 -2.33606386 0.59094024
-2.33603072 -1.22923207 2.23637676
-4.33205462 1.06759620 -0.04152894
-3.79112029 1.52083993 -0.44796064
-1.45728505 1.14344835 2.58126736
-3.37233686 -1.68643534 -0.84271979
2.08735132 1.84335732 1.68890274
-2.23987579 -2.10738111 1.06812155
-3.01108694 -1.98734188 0.37781224
3.04203749 1.09960794 -1.96124196
-3.05382109 1.04423881 1.99479437
-3.97002506 1.29262781 -0.71859407
2.24279952 -0.96737260 -2.44374275
-1.10446644 -0.32190183 2.94928503
2.40033817 -1.24443102 2.19637799
-2.33982921 -2.04966187 -1.13183773
-0.81079501 2.55539489 0.24899855
-0.68561816 0.05323724 -3.02398157
4.66138077 0.50256091 -0.00115576
-1.02290261 -1.78596449 -2.12333369
-3.94251442 1.37771726 0.53918684
3.84336925 0.57877737 -1.66342628
-0.85558051 0.62577409 -2.91497636
-2.41192985 -2.24112654 0.07931413
0.65574282 -2.02976441 1.86601126
-0.01004769 2.33471346 1.35171306
-4.10309267 -0.95918584 -1.05021691
-4.17514658 -0.82779247 1.08767247
0.80928588 2.38949227 1.09392369
-2.63940597 1.77514684 1.45351017
3.84768534 -0.86242181 -1.47926855
3 249 48 83
3 64 0 62
3 220 34 37
3 64 62 204
3 204 191 64
3 51 191 204
3 213 27 253
3 21 48 249
3 104 24 232
3 40 205 155
3 7 151 128
3 128 151 1
3 115 111 220
3 220 111 244
3 244 34 220
3 113 26 215
3 117 184 66
3 66 51 118
3 184 51 66
3 117 196 30
3 30 184 117
3 30 196 1
3 64 191 84
3 84 0 64
3 84 27 0
3 46 191 79
3 79 191 51
3 79 51 184
3 168 87 100
3 100 23 168
3 168 23 73
3 168 73 122
3 122 87 168
3 25 152 194
3 32 87 192
3 100 87 32
3 32 129 100
3 145 62 0
3 0 27 145
3 220 37 198
3 99 70 207
3 78 246 234
3 246 163 234
3 118 51 108
3 51 204 108
3 126 196 117
3 117 66 126
3 126 66 29
3 148 145 192
3 107 174 41
3 122 164 41
3 81 174 210
3 210 174 107
3 210 97 81
3 38 204 62
3 38 148 97
3 38 246 78
3 38 97 246
3 73 33 105
3 207 70 105
3 112 86 90
3 146 177 90
3 231 213 127
3 27 213 231
3 134 45 67
3 67 229 134
3 185 86 134
3 134 229 185
3 249 83 94
3 112 90 98
3 150 45 134
3 175 23 100
3 11 183 50
3 47 24 104
3 47 21 249
3 104 21 47
3 186 232 24
3 186 133 9
3 24 133 186
3 31 40 155
3 215 26 88
3 136 113 215
3 251 113 136
3 7 128 91
3 212 167 11
3 225 232 233
3 104 232 225
3 225 140 104
3 44 183 11
3 11 167 44
3 44 167 111
3 121 34 110
3 34 244 110
3 111 167 110
3 110 244 111
3 218 177 146
3 121 110 240
3 233 124 130
3 56 16 192
3 192 145 56
3 56 231 16
3 56 145 27
3 27 231 56
3 129 32 22
3 22 214 152
3 152 25 22
3 22 25 129
3 107 41 221
3 221 41 164
3 164 70 221
3 70 99 221
3 20 69 120
3 120 42 20
3 120 69 36
3 20 42 153
3 153 126 29
3 101 69 20
3 36 69 101
3 101 163 36
3 101 234 163
3 62 145 169
3 145 148 169
3 169 38 62
3 148 38 169
3 192 87 243
3 243 148 192
3 97 148 243
3 89 174 81
3 89 41 174
3 222 163 246
3 255 210 107
3 107 221 255
3 65 38 78
3 204 38 65
3 65 108 204
3 122 73 200
3 73 105 200
3 200 164 122
3 200 70 164
3 200 105 70
3 80 98 226
3 226 98 90
3 9 133 226
3 226 133 80
3 178 141 229
3 229 67 178
3 49 127 194
3 49 231 127
3 194 152 49
3 152 214 49
3 49 214 16
3 16 231 49
3 254 77 102
3 102 77 245
3 86 185 199
3 146 90 199
3 199 90 86
3 85 150 134
3 85 86 112
3 134 86 85
3 23 175 61
3 73 23 61
3 61 33 73
3 48 33 61
3 11 50 147
3 147 50 21
3 147 140 11
3 147 21 104
3 104 140 147
3 202 183 207
3 202 50 183
3 202 33 48
3 48 21 202
3 21 50 202
3 207 105 202
3 202 105 33
3 158 133 24
3 158 47 249
3 24 47 158
3 249 94 158
3 26 124 208
3 208 88 26
3 232 186 157
3 9 161 157
3 157 186 9
3 57 157 161
3 233 232 57
3 232 157 57
3 3 31 188
3 188 31 155
3 166 88 40
3 3 203 166
3 215 88 166
3 166 31 3
3 40 31 166
3 166 136 215
3 203 136 166
3 216 136 203
3 216 203 7
3 106 170 63
3 92 170 242
3 180 212 156
3 140 225 156
3 2 110 167
3 2 212 180
3 167 212 2
3 180 240 2
3 2 240 110
3 230 240 171
3 121 240 230
3 93 30 1
3 129 25 72
3 58 82 224
3 114 32 192
3 114 22 32
3 192 16 114
3 16 214 114
3 214 22 114
3 237 206 149
3 123 206 237
3 123 237 19
3 19 18 115
3 95 18 19
3 8 120 36
3 149 206 8
3 8 222 149
3 36 163 8
3 163 222 8
3 42 120 131
3 242 170 247
3 247 42 242
3 247 153 42
3 142 101 20
3 108 101 142
3 20 153 142
3 142 153 29
3 118 108 142
3 142 66 118
3 29 66 142
3 234 101 109
3 109 101 108
3 108 65 109
3 78 234 109
3 109 65 78
3 81 97 190
3 97 243 190
3 190 89 81
3 41 89 190
3 122 41 190
3 190 87 122
3 190 243 87
3 119 222 246
3 210 222 119
3 246 97 119
3 97 210 119
3 149 222 217
3 217 222 210
3 210 255 217
3 217 237 149
3 10 18 95
3 183 18 10
3 60 177 144
3 144 161 60
3 60 90 177
3 60 226 90
3 60 161 9
3 9 226 60
3 189 178 67
3 189 45 194
3 189 67 45
3 194 127 189
3 127 178 189
3 176 84 191
3 176 191 46
3 253 27 176
3 27 84 176
3 46 241 176
3 241 75 176
3 209 139 254
3 209 241 139
3 209 75 241
3 141 14 143
3 143 209 254
3 14 209 143
3 253 176 250
3 250 176 75
3 250 213 253
3 75 209 250
3 250 209 14
3 141 178 52
3 52 14 141
3 52 250 14
3 52 178 127
3 127 213 52
3 213 250 52
3 254 139 55
3 55 77 254
3 139 132 55
3 138 77 55
3 55 132 138
3 146 199 12
3 12 218 146
3 205 218 12
3 193 199 185
3 80 133 172
3 172 17 80
3 133 158 172
3 94 17 172
3 172 158 94
3 197 98 80
3 80 17 197
3 224 150 197
3 197 17 224
3 239 61 175
3 175 58 239
3 239 83 48
3 48 61 239
3 239 94 83
3 125 161 144
3 144 208 125
3 125 57 161
3 125 208 124
3 125 124 233
3 233 57 125
3 252 208 144
3 88 208 252
3 144 177 252
3 177 218 252
3 40 88 252
3 205 40 252
3 252 218 205
3 251 136 162
3 136 216 162
3 106 63 159
3 159 63 91
3 1 196 159
3 196 106 159
3 159 128 1
3 159 91 128
3 170 92 13
3 59 63 13
3 13 63 170
3 13 74 59
3 180 156 103
3 103 240 180
3 171 240 103
3 140 156 39
3 39 156 212
3 11 140 39
3 39 212 11
3 135 113 251
3 121 230 135
3 171 130 35
3 35 230 171
3 35 124 26
3 35 130 124
3 35 135 230
3 26 113 35
3 113 135 35
3 139 241 211
3 211 132 139
3 211 241 46
3 46 79 211
3 211 79 184
3 184 30 96
3 96 211 184
3 132 211 96
3 138 132 96
3 30 93 96
3 96 93 138
3 181 72 25
3 82 72 181
3 100 129 6
3 129 72 6
3 6 175 100
3 53 17 94
3 94 239 53
3 53 239 58
3 224 17 53
3 53 58 224
3 183 44 71
3 71 18 183
3 115 18 71
3 111 115 71
3 71 44 111
3 173 198 123
3 123 19 173
3 173 19 115
3 173 115 220
3 220 198 173
3 242 42 5
3 42 131 5
3 5 92 242
3 123 198 28
3 28 5 131
3 28 198 37
3 37 5 28
3 179 131 120
3 179 28 131
3 179 206 123
3 123 28 179
3 182 170 106
3 182 247 170
3 182 106 196
3 196 126 182
3 126 153 182
3 153 247 182
3 237 217 195
3 95 19 195
3 195 19 237
3 195 217 255
3 195 10 95
3 255 10 195
3 187 255 221
3 187 10 255
3 187 221 99
3 187 99 207
3 207 183 187
3 183 10 187
3 229 141 76
3 141 193 76
3 76 185 229
3 76 193 185
3 4 12 199
3 155 205 4
3 205 12 4
3 150 85 238
3 238 197 150
3 238 85 112
3 112 98 238
3 98 197 238
3 59 74 160
3 7 91 160
3 160 216 7
3 160 162 216
3 160 63 59
3 91 63 160
3 137 5 37
3 92 5 137
3 248 156 225
3 248 103 156
3 248 225 233
3 171 103 248
3 233 130 248
3 248 130 171
3 227 188 245
3 3 188 227
3 1 151 219
3 219 93 1
3 219 236 93
3 82 181 154
3 224 82 154
3 45 150 154
3 154 150 224
3 175 6 165
3 165 6 72
3 165 58 175
3 165 72 82
3 82 58 165
3 120 8 201
3 201 179 120
3 201 8 206
3 206 179 201
3 155 4 116
3 116 188 155
3 116 102 245
3 245 188 116
3 199 193 235
3 235 4 199
3 254 102 235
3 102 116 235
3 235 116 4
3 235 193 141
3 235 143 254
3 141 143 235
3 68 160 74
3 162 160 68
3 251 162 68
3 68 74 121
3 121 135 68
3 68 135 251
3 223 34 121
3 121 74 223
3 223 37 34
3 223 137 37
3 228 227 245
3 236 227 228
3 245 77 228
3 228 77 138
3 138 93 228
3 93 236 228
3 43 227 236
3 236 219 43
3 3 227 43
3 43 219 151
3 43 203 3
3 43 151 7
3 7 203 43
3 45 154 15
3 15 154 181
3 194 45 15
3 15 25 194
3 15 181 25
3 137 223 54
3 54 13 92
3 92 137 54
3 74 13 54
3 54 223 74