ply
format ascii 1.0
comment https://github.com/mikedh/trimesh
element vertex 256
property float x
property float y
property float z
element face 508
property list uchar int vertex_indices
end_header
1.15645933 1.23988056 0.12142560
-1.63157260 0.59344441 -1.33597612
-0.63704532 -1.31273806 -0.86028135
-2.13291311 0.27513650 -0.10631384
-1.73150694 0.34038493 1.42833042
-0.12437601 -0.17854494 -2.53569746
1.37492228 0.03147737 1.98060322
-1.98193514 0.06773386 -1.04295921
1.02622414 0.00098819 -2.25605893
-0.97928023 -0.89161640 1.67418420
1.22984052 -0.96791399 -1.26518393
0.02407030 -1.46424484 -0.15773015
-1.69766033 0.16390304 1.57181954
-1.02903068 -0.29700249 -2.19359231
-0.43170932 1.23551953 1.28342080
0.48864666 0.36794752 2.40920925
1.46801007 0.78495127 1.29830265
0.18016621 -0.63094574 2.30045366
0.69891065 -1.16081262 -1.33057714
0.65579218 -0.94826865 -1.79368210
0.40157655 0.45744807 -2.38472104
0.34778768 -1.35607338 0.88637465
1.41805506 0.53537649 1.70013177
1.65192747 -0.40158817 1.50773513
-0.47612631 -1.08496118 1.62916732
1.03129673 0.45281100 2.10889220
-1.86178100 -0.75094140 -0.16102634
0.85797292 1.28929341 0.68684995
0.28693852 -0.46308166 -2.40475559
-0.05840692 0.87429333 -2.05355430
-0.87601012 1.02294219 -1.51591110
-2.13530040 0.13921045 0.40932041
1.78263879 0.22525124 1.40930712
1.45576537 -0.90338826 1.06068969
-0.76938218 -0.92026091 -1.77513862
-1.70555162 -0.87634915 -0.42092320
1.05802429 0.27580190 -2.18248129
-0.34449226 -0.70043999 -2.21121693
1.68081903 0.83095884 -0.72847861
-0.34117007 -1.44857156 -0.05305341
-2.14317322 -0.08611907 0.39637911
2.11800194 -0.32715708 -0.07046520
0.15951948 0.23539169 -2.51847243
-2.02804518 0.46788424 -0.42251918
0.06801305 -1.35264015 -0.98814821
0.21090351 0.40110406 2.44880223
0.00422228 1.44175112 -0.47157186
-0.09007434 -1.30222952 1.17440248
1.08977926 -1.04090142 1.26652861
1.08474863 0.88679618 1.58776760
0.70145851 -1.38745487 -0.09514123
0.26719067 1.26915288 -1.24518538
-0.19347961 1.18166614 1.49898350
0.57521868 -0.56480592 2.26257205
-0.92314529 -0.47585577 -2.16281152
-1.18180180 1.22517776 0.21781871
1.58418512 0.84682286 0.94185811
-1.33475935 -1.07283854 0.75898325
0.85969537 -0.34705538 2.27153635
-1.36861789 -0.15938650 -1.96735883
-1.30025709 -0.70907742 1.63613212
1.37643707 -0.59322029 1.68859148
1.45044053 1.09122729 -0.08866446
-1.40194070 0.09999507 -1.94708335
1.01898992 1.28733039 -0.25681514
1.26850319 0.98194414 -1.17738616
-0.16704899 1.05788970 -1.76258934
-0.20473443 0.57908899 2.33875632
-1.57767153 -0.49174711 -1.53780544
0.65689605 0.38566619 -2.34430861
1.77828670 -0.84146953 0.10689831
0.35056952 -1.28175533 -1.17605269
1.13523757 0.05995975 2.17918348
1.78382909 -0.51806718 1.14869463
-1.35042107 -0.50553876 -1.80075049
-0.19461496 1.43189859 0.50557858
-0.92475617 0.66905999 1.99972045
-1.45905793 1.05617964 0.45390183
1.45129299 0.82774520 -1.24205017
0.05381235 1.39362240 -0.79640847
-0.77684242 -0.59365696 2.15385985
2.13008666 0.00598083 -0.50834298
0.81908941 -0.15781140 2.35353017
0.89464056 -0.92625982 1.68108201
0.82551795 1.35680914 0.02874926
-0.59074217 -0.00057318 2.46220922
-1.01354587 0.07084005 2.26035619
1.98380780 0.09954119 1.03169966
-2.10820699 -0.32231584 0.26622808
2.14649487 -0.16850105 -0.27080151
-1.25191569 -0.11024131 2.08252573
-1.60823917 0.26453462 -1.65749812
-0.71881527 -0.26746839 -2.36937284
-1.53373909 0.93500364 -0.79232448
0.42451081 -0.90403169 1.95164943
1.04186606 -0.92352355 -1.56501091
-0.98186648 1.17005861 -1.02253175
2.08467031 0.25788286 -0.56586754
-0.78410101 -0.39646563 2.28374887
1.64583790 -0.94041747 -0.32364720
1.68444455 -0.12231138 1.60181320
0.99367857 0.51027381 -2.09437370
-1.65905869 0.72860223 1.05652177
-0.96209043 -1.30509472 -0.28757948
-0.34359407 -1.35477400 0.89419729
1.72639525 -0.80726528 0.65687710
-1.08888149 0.50164163 -2.03419352
1.92574477 -0.41577655 -0.93842566
0.68548340 1.04581523 -1.60298562
1.25458312 0.80953252 -1.54082513
-0.52670926 -1.15963542 -1.44040394
-0.17931536 -1.12729347 -1.62302113
-0.82506812 -0.20923062 2.33945942
-1.92588747 -0.62756002 -0.45784220
1.63381588 0.53214997 1.40950799
0.11214102 -1.08613431 -1.71453440
-1.80136442 0.47852159 1.16347480
-0.57441312 1.04185927 -1.66890371
0.24137107 1.08962250 -1.68914735
1.78397524 0.12915871 -1.44381976
0.66320401 0.14425452 -2.42335582
-1.15297210 -0.87286639 -1.54515696
2.03561163 -0.37989908 0.60522091
0.54868287 -0.53079259 -2.29615927
-1.67961478 -0.91350508 0.31601933
-1.61284673 -0.89383996 0.71499723
-0.37374175 0.84560537 -2.04513693
0.54147303 1.06677043 1.63598716
-1.71163523 0.38933921 -1.42274344
1.42848575 0.23063821 1.88584292
-1.47480512 -1.07750416 -0.03905002
0.17039955 -0.17702214 -2.53170729
-1.14757788 1.21274304 -0.49746588
-0.53763598 -0.93456483 1.86910391
-0.57586026 0.24223953 2.43062305
-1.74870229 -0.76788908 -0.71673638
-2.02918077 -0.43991384 -0.50181967
-0.65631467 -0.45197126 -2.30801892
-1.37108374 1.09590578 -0.53684461
-0.81816143 1.34011877 0.39726910
-0.29865006 -1.43020213 0.44961470
-0.83454430 0.91599733 1.74054348
0.25203779 0.89735037 -2.00215364
-0.96565586 1.02831805 1.42792070
-1.70088089 -0.59210932 1.21257317
1.61974299 0.91252542 0.61387730
-1.51222432 -0.07685570 1.83288896
0.16715498 -1.44807994 0.35808626
1.90897226 0.70060802 -0.06368079
1.28957760 -0.29084292 -1.99602878
-0.26509872 -0.03632189 2.53873944
-1.88563907 0.39424390 -1.07024419
1.08212483 0.66861969 1.88712227
-0.04669245 0.56604350 -2.35957098
0.38292825 0.08150966 2.51441288
-2.02912188 0.17200634 0.86665457
-0.76137340 -1.37388730 -0.05408132
-1.12753236 -1.05308151 1.18795812
-0.19679014 -0.99818689 1.86104691
-1.32190418 0.42121434 -1.89433491
-1.56084001 -0.27059680 -1.71658409
-1.35359895 -0.90242505 1.23727202
-1.91034675 -0.36178187 -1.04404294
1.40186572 0.27868247 -1.89411008
1.96552801 -0.62540799 0.05851180
1.08015537 -0.14438860 2.20591784
-2.15839601 -0.15400124 -0.13764061
-0.26070955 -1.36386263 -0.89048380
1.92473280 -0.22390012 1.12193346
1.74674523 0.85823673 -0.27890772
-0.65681881 0.10068030 -2.43327165
-1.30921912 -1.15952551 -0.28167289
-0.00084694 -0.84719324 2.08883882
0.34318897 -0.84723526 -2.04895926
2.02137280 -0.24905851 -0.83390176
1.21850836 -0.43308043 1.97924411
0.11268147 1.43336856 0.52919275
-1.65309072 -0.45532134 1.45926964
-0.18636963 0.87294596 2.04586506
0.51435947 -0.24660225 -2.44889235
-0.74925733 -1.34669769 -0.50073063
0.85135943 0.27214035 2.30577397
-0.74139458 0.60998839 -2.15736508
0.73720157 -1.35208702 -0.48094690
-0.38510683 1.26585698 -1.21158183
-0.82358569 0.35938847 2.28325272
-0.75648850 -1.01542103 1.61765218
1.48847973 -0.95803928 -0.82742310
-2.06004691 0.40588245 0.40436664
0.09066080 0.80568993 2.13561010
2.16626120 0.06579501 -0.16880323
0.46407402 1.42001510 -0.33895931
1.83848500 0.50667322 1.03960419
-1.17947888 0.57557505 1.90039968
0.58528328 0.75909066 2.07850075
1.10795283 -0.73617494 -1.78839803
-0.96401352 0.82753253 -1.78276408
-0.24085499 -0.26545253 2.50020146
0.23024176 -0.67651838 -2.25434089
-1.43762934 0.19887257 1.88746500
1.86138105 -0.72008908 0.41069239
0.79161876 -0.19236377 -2.35895228
1.16087186 -1.23970842 0.08480980
-2.11718130 -0.01728578 -0.57619828
1.09621215 1.19482851 -0.73286837
-1.85679781 0.04825111 1.32690370
0.93431878 -0.34456688 -2.23066974
1.50154388 -1.05869639 -0.10930321
-1.78662813 -0.71267247 0.75960845
-0.63420105 1.32952487 0.78114772
1.85119390 -0.10025432 -1.32951546
-0.44197604 1.38159668 -0.68516582
-0.44686049 -1.41049027 -0.46998775
0.53719503 1.19459999 1.34343934
1.31319761 0.72767895 1.59566927
-2.06248569 -0.45403439 -0.14928983
-2.01028252 -0.14914545 -0.93624669
1.50762689 -0.35450551 -1.73597050
-1.74537277 -0.20145620 1.48424804
-1.82485175 0.61362118 -0.88741416
-0.25508860 -0.87275308 -2.03490353
1.83793592 -0.74942976 -0.39845642
1.58530092 0.08197846 -1.74438429
-0.94685143 -0.66274452 -1.99298382
0.33952659 -0.30763501 2.46993756
-0.86048657 -1.31675267 0.49465790
-1.06862843 -0.69287258 1.87200224
-1.98171914 0.60176444 -0.03476260
-1.73426616 0.85724109 -0.37497410
-0.66664207 0.64451945 2.16069961
-1.54269171 -0.95058113 -0.70541489
0.95486891 1.03903222 1.41372859
-1.02464187 -1.18785262 0.89409173
-1.37743616 -1.12019098 0.31625503
1.39159465 0.61980820 -1.64169538
-1.39698517 0.58859867 1.66978121
-1.81610703 0.72860640 -0.60151303
1.02597940 -0.54527205 -2.04558206
-0.50524342 -0.18144414 2.46875596
1.09804618 -0.70143968 1.83852053
-1.07036614 -1.15531850 -0.94742656
-0.37090206 1.44038141 0.20842905
-0.31363931 0.03000786 -2.53128195
2.13237095 0.28327495 -0.00096745
-0.46793169 -1.00668204 -1.77737737
-1.80352211 0.77656817 0.45133674
1.75816774 0.32623535 -1.39240313
-0.39138940 0.35272565 -2.44003725
-1.10334885 -1.26323998 0.06639142
0.29997271 -1.14410305 1.56198072
-0.00459636 1.31599140 1.13147748
-1.87697947 -0.54065752 -0.87910432
-1.90994072 -0.46659595 0.91045719
0.37021172 1.34686816 0.91569000
-1.20740891 1.00058448 1.21668875
1.76014209 -0.48611522 -1.23825026
3 249 48 83
3 64 0 62
3 220 34 37
3 64 62 204
3 204 191 64
3 51 191 204
3 213 27 253
3 21 48 249
3 104 24 232
3 40 205 155
3 7 151 128
3 128 151 1
3 115 111 220
3 220 111 244
3 244 34 220
3 113 26 215
3 117 184 66
3 66 51 118
3 184 51 66
3 117 196 30
3 30 184 117
3 30 196 1
3 64 191 84
3 84 0 64
3 84 27 0
3 46 191 79
3 79 191 51
3 79 51 184
3 168 87 100
3 100 23 168
3 168 23 73
3 168 73 122
3 122 87 168
3 25 152 194
3 32 87 192
3 100 87 32
3 32 129 100
3 145 62 0
3 0 27 145
3 220 37 198
3 99 70 207
3 78 246 234
3 246 163 234
3 118 51 108
3 51 204 108
3 126 196 117
3 117 66 126
3 126 66 29
3 148 145 192
3 107 174 41
3 122 164 41
3 81 174 210
3 210 174 107
3 210 97 81
3 38 204 62
3 38 148 97
3 38 246 78
3 38 97 246
3 73 33 105
3 207 70 105
3 112 86 90
3 146 177 90
3 231 213 127
3 27 213 231
3 134 45 67
3 67 229 134
3 185 86 134
3 134 229 185
3 249 83 94
3 112 90 98
3 150 45 134
3 175 23 100
3 11 183 50
3 47 24 104
3 47 21 249
3 104 21 47
3 186 232 24
3 186 133 9
3 24 133 186
3 31 40 155
3 215 26 88
3 136 113 215
3 251 113 136
3 7 128 91
3 212 167 11
3 225 232 233
3 104 232 225
3 225 140 104
3 44 183 11
3 11 167 44
3 44 167 111
3 121 34 110
3 34 244 110
3 111 167 110
3 110 244 111
3 218 177 146
3 121 110 240
3 233 124 130
3 56 16 192
3 192 145 56
3 56 231 16
3 56 145 27
3 27 231 56
3 129 32 22
3 22 214 152
3 152 25 22
3 22 25 129
3 107 41 221
3 221 41 164
3 164 70 221
3 70 99 221
3 20 69 120
3 120 42 20
3 120 69 36
3 20 42 153
3 153 126 29
3 101 69 20
3 36 69 101
3 101 163 36
3 101 234 163
3 62 145 169
3 145 148 169
3 169 38 62
3 148 38 169
3 192 87 243
3 243 148 192
3 97 148 243
3 89 174 81
3 89 41 174
3 222 163 246
3 255 210 107
3 107 221 255
3 65 38 78
3 204 38 65
3 65 108 204
3 122 73 200
3 73 105 200
3 200 164 122
3 200 70 164
3 200 105 70
3 80 98 226
3 226 98 90
3 9 133 226
3 226 133 80
3 178 141 229
3 229 67 178
3 49 127 194
3 49 231 127
3 194 152 49
3 152 214 49
3 49 214 16
3 16 231 49
3 254 77 102
3 102 77 245
3 86 185 199
3 146 90 199
3 199 90 86
3 85 150 134
3 85 86 112
3 134 86 85
3 23 175 61
3 73 23 61
3 61 33 73
3 48 33 61
3 11 50 147
3 147 50 21
3 147 140 11
3 147 21 104
3 104 140 147
3 202 183 207
3 202 50 183
3 202 33 48
3 48 21 202
3 21 50 202
3 207 105 202
3 202 105 33
3 158 133 24
3 158 47 249
3 24 47 158
3 249 94 158
3 26 124 208
3 208 88 26
3 232 186 157
3 9 161 157
3 157 186 9
3 57 157 161
3 233 232 57
3 232 157 57
3 3 31 188
3 188 31 155
3 166 88 40
3 3 203 166
3 215 88 166
3 166 31 3
3 40 31 166
3 166 136 215
3 203 136 166
3 216 136 203
3 216 203 7
3 106 170 63
3 92 170 242
3 180 212 156
3 140 225 156
3 2 110 167
3 2 212 180
3 167 212 2
3 180 240 2
3 2 240 110
3 230 240 171
3 121 240 230
3 93 30 1
3 129 25 72
3 58 82 224
3 114 32 192
3 114 22 32
3 192 16 114
3 16 214 114
3 214 22 114
3 237 206 149
3 123 206 237
3 123 237 19
3 19 18 115
3 95 18 19
3 8 120 36
3 149 206 8
3 8 222 149
3 36 163 8
3 163 222 8
3 42 120 131
3 242 170 247
3 247 42 242
3 247 153 42
3 142 101 20
3 108 101 142
3 20 153 142
3 142 153 29
3 118 108 142
3 142 66 118
3 29 66 142
3 234 101 109
3 109 101 108
3 108 65 109
3 78 234 109
3 109 65 78
3 81 97 190
3 97 243 190
3 190 89 81
3 41 89 190
3 122 41 190
3 190 87 122
3 190 243 87
3 119 222 246
3 210 222 119
3 246 97 119
3 97 210 119
3 149 222 217
3 217 222 210
3 210 255 217
3 217 237 149
3 10 18 95
3 183 18 10
3 60 177 144
3 144 161 60
3 60 90 177
3 60 226 90
3 60 161 9
3 9 226 60
3 189 178 67
3 189 45 194
3 189 67 45
3 194 127 189
3 127 178 189
3 176 84 191
3 176 191 46
3 253 27 176
3 27 84 176
3 46 241 176
3 241 75 176
3 209 139 254
3 209 241 139
3 209 75 241
3 141 14 143
3 143 209 254
3 14 209 143
3 253 176 250
3 250 176 75
3 250 213 253
3 75 209 250
3 250 209 14
3 141 178 52
3 52 14 141
3 52 250 14
3 52 178 127
3 127 213 52
3 213 250 52
3 254 139 55
3 55 77 254
3 139 132 55
3 138 77 55
3 55 132 138
3 146 199 12
3 12 218 146
3 205 218 12
3 193 199 185
3 80 133 172
3 172 17 80
3 133 158 172
3 94 17 172
3 172 158 94
3 197 98 80
3 80 17 197
3 224 150 197
3 197 17 224
3 239 61 175
3 175 58 239
3 239 83 48
3 48 61 239
3 239 94 83
3 125 161 144
3 144 208 125
3 125 57 161
3 125 208 124
3 125 124 233
3 233 57 125
3 252 208 144
3 88 208 252
3 144 177 252
3 177 218 252
3 40 88 252
3 205 40 252
3 252 218 205
3 251 136 162
3 136 216 162
3 106 63 159
3 159 63 91
3 1 196 159
3 196 106 159
3 159 128 1
3 159 91 128
3 170 92 13
3 59 63 13
3 13 63 170
3 13 74 59
3 180 156 103
3 103 240 180
3 171 240 103
3 140 156 39
3 39 156 212
3 11 140 39
3 39 212 11
3 135 113 251
3 121 230 135
3 171 130 35
3 35 230 171
3 35 124 26
3 35 130 124
3 35 135 230
3 26 113 35
3 113 135 35
3 139 241 211
3 211 132 139
3 211 241 46
3 46 79 211
3 211 79 184
3 184 30 96
3 96 211 184
3 132 211 96
3 138 132 96
3 30 93 96
3 96 93 138
3 181 72 25
3 82 72 181
3 100 129 6
3 129 72 6
3 6 175 100
3 53 17 94
3 94 239 53
3 53 239 58
3 224 17 53
3 53 58 224
3 183 44 71
3 71 18 183
3 115 18 71
3 111 115 71
3 71 44 111
3 173 198 123
3 123 19 173
3 173 19 115
3 173 115 220
3 220 198 173
3 242 42 5
3 42 131 5
3 5 92 242
3 123 198 28
3 28 5 131
3 28 198 37
3 37 5 28
3 179 131 120
3 179 28 131
3 179 206 123
3 123 28 179
3 182 170 106
3 182 247 170
3 182 106 196
3 196 126 182
3 126 153 182
3 153 247 182
3 237 217 195
3 95 19 195
3 195 19 237
3 195 217 255
3 195 10 95
3 255 10 195
3 187 255 221
3 187 10 255
3 187 221 99
3 187 99 207
3 207 183 187
3 183 10 187
3 229 141 76
3 141 193 76
3 76 185 229
3 76 193 185
3 4 12 199
3 155 205 4
3 205 12 4
3 150 85 238
3 238 197 150
3 238 85 112
3 112 98 238
3 98 197 238
3 59 74 160
3 7 91 160
3 160 216 7
3 160 162 216
3 160 63 59
3 91 63 160
3 137 5 37
3 92 5 137
3 248 156 225
3 248 103 156
3 248 225 233
3 171 103 248
3 233 130 248
3 248 130 171
3 227 188 245
3 3 188 227
3 1 151 219
3 219 93 1
3 219 236 93
3 82 181 154
3 224 82 154
3 45 150 154
3 154 150 224
3 175 6 165
3 165 6 72
3 165 58 175
3 165 72 82
3 82 58 165
3 120 8 201
3 201 179 120
3 201 8 206
3 206 179 201
3 155 4 116
3 116 188 155
3 116 102 245
3 245 188 116
3 199 193 235
3 235 4 199
3 254 102 235
3 102 116 235
3 235 116 4
3 235 193 141
3 235 143 254
3 141 143 235
3 68 160 74
3 162 160 68
3 251 162 68
3 68 74 121
3 121 135 68
3 68 135 251
3 223 34 121
3 121 74 223
3 223 37 34
3 223 137 37
3 228 227 245
3 236 227 228
3 245 77 228
3 228 77 138
3 138 93 228
3 93 236 228
3 43 227 236
3 236 219 43
3 3 227 43
3 43 219 151
3 43 203 3
3 43 151 7
3 7 203 43
3 45 154 15
3 15 154 181
3 194 45 15
3 15 25 194
3 15 181 25
3 137 223 54
3 54 13 92
3 92 137 54
3 74 13 54
3 54 223 74