ply
format ascii 1.0
comment https://github.com/mikedh/trimesh
element vertex 256
property float x
property float y
property float z
element face 508
property list uchar int vertex_indices
end_header
1.98620033 1.17069924 0.05188669
-2.80219960 0.56033212 -0.57087946
-1.09411514 -1.23949146 -0.36760908
-3.66324401 0.25978479 -0.04542924
-2.97383547 0.32139254 0.61034364
-0.21361381 -0.16858269 -1.08353555
2.36140704 0.02972103 0.84633672
-3.40394163 0.06395453 -0.44566962
1.76252353 0.00093305 -0.96404237
-1.68189800 -0.84186703 0.71540004
2.11223125 -0.91390747 -0.54062903
0.04134035 -1.38254464 -0.06740008
-2.91570425 0.15475777 0.67165834
-1.76734376 -0.28043070 -0.93734968
-0.74145383 1.16658139 0.54842192
0.83924282 0.34741721 1.02948546
2.52128363 0.74115348 0.55478108
0.30943260 -0.59574097 0.98301286
1.20036781 -1.09604299 -0.56857240
1.12631249 -0.89535832 -0.76646298
0.68970126 0.43192390 -1.01902139
0.59731972 -1.28040874 0.37875906
2.43548679 0.50550419 0.72648776
2.83715892 -0.37918082 0.64427423
-0.81773931 -1.02442384 0.69616371
1.77123547 0.42754558 0.90115625
-3.19757891 -0.70904124 -0.06880859
1.47355461 1.21735489 0.29349965
0.49281231 -0.43724319 -1.02758229
-0.10031293 0.82551056 -0.87750965
-1.50453329 0.96586531 -0.64776796
-3.66734385 0.13144295 0.17490777
3.06165338 0.21268295 0.60221469
2.50025368 -0.85298210 0.45324606
-1.32140148 -0.86891329 -0.75853908
-2.92925763 -0.82745165 -0.17986579
1.81713974 0.26041302 -0.93260181
-0.59165990 -0.66135770 -0.94488090
2.88677955 0.78459394 -0.31128809
-0.58595413 -1.36774588 -0.02267039
-3.68086576 -0.08131390 0.16937780
3.63763428 -0.30890277 -0.03011067
0.27397212 0.22225758 -1.07617497
-3.48313498 0.44177780 -0.18054777
0.11681131 -1.27716720 -0.42224818
0.36222339 0.37872374 1.04640412
0.00725171 1.36130607 -0.20150861
-0.15470123 -1.22956932 0.50183702
1.87167835 -0.98282242 0.54120368
1.86303830 0.83731574 0.67847311
1.20474374 -1.31003940 -0.04065505
0.45889565 1.19833815 -0.53208339
-0.33229813 1.11573291 0.64053452
0.98792881 -0.53329152 0.96682554
-1.58548713 -0.44930452 -0.92419666
-2.02972555 1.15681684 0.09307668
2.72081256 0.79957283 0.40246785
-2.29242778 -1.01297748 0.32432312
1.47651303 -0.32769078 0.97065610
-2.35057926 -0.15049323 -0.84067720
-2.23317051 -0.66951311 0.69913989
2.36400843 -0.56012046 0.72155643
2.49110818 1.03034031 -0.03788744
-2.40781045 0.09441566 -0.83201325
1.75009894 1.21550155 -0.10974034
2.17863393 0.92715478 -0.50311196
-0.28690398 0.99886280 -0.75317663
-0.35162809 0.54677767 0.99938011
-2.70962548 -0.46430919 -0.65712363
1.12820840 0.36414725 -1.00175261
3.05417895 -0.79451823 0.04567900
0.60209751 -1.21023750 -0.50254214
1.94975221 0.05661418 0.93119252
3.06369781 -0.48916072 0.49085170
-2.31932640 -0.47733131 -0.76948339
-0.33424807 1.35200322 0.21604010
-1.58825386 0.63172859 0.85450578
-2.50590849 0.99724823 0.19395797
2.49257231 0.78155965 -0.53074372
0.09242184 1.31586277 -0.34031537
-1.33421433 -0.56053275 0.92037153
3.65838981 0.00564712 -0.21722135
1.40677285 -0.14900604 1.00569320
1.53653085 -0.87457746 0.71834755
1.41781378 1.28110349 0.01228492
-1.01459014 -0.00054119 1.05213296
-1.74074876 0.06688740 0.96587873
3.40715790 0.09398711 0.44085830
-3.62081170 -0.30433163 0.11376261
3.68657064 -0.15909922 -0.11571690
-2.15014505 -0.10409019 0.88988948
-2.76212502 0.24977443 -0.70826983
-1.23455369 -0.25254452 -1.01246297
-2.63417220 0.88283342 -0.33857027
0.72909051 -0.85358959 0.83396441
1.78938818 -0.87199384 -0.66874892
-1.68633997 1.10477304 -0.43694070
3.58038759 0.24349384 -0.24180232
-1.34668088 -0.37434411 0.97587466
2.82670021 -0.88794518 -0.13829854
2.89300632 -0.11548679 0.68447500
1.70662701 0.48180217 -0.89495236
-2.84940672 0.68794852 0.45146510
-1.65237486 -1.23227465 -0.12288634
-0.59011728 -1.27918196 0.38210177
2.96505594 -0.76222241 0.28069186
-1.87013638 0.47365159 -0.86923653
3.30743575 -0.39257753 -0.40100110
1.17730677 0.98746210 -0.68497598
2.15472627 0.76436323 -0.65841401
-0.90461469 -1.09493136 -0.61550277
-0.30797124 -1.06439412 -0.69353741
-1.41704118 -0.19755621 0.99968052
-3.30768085 -0.59254420 -0.19564174
2.80605245 0.50245768 0.60230052
0.19260040 -1.02553153 -0.73264217
-3.09381437 0.45182160 0.49716744
-0.98654526 0.98372680 -0.71314359
0.41455093 1.02882504 -0.72179395
3.06394887 0.12195206 -0.61696237
1.13904226 0.13620558 -1.03553057
-1.98021102 -0.82416326 -0.66026503
3.49613023 -0.35870191 0.25861853
0.94235402 -0.50117606 -0.98117781
-2.88471150 -0.86253440 0.13503905
-2.77003837 -0.84396654 0.30552733
-0.64189541 0.79842329 -0.87391275
0.92997122 1.00724804 0.69907796
-2.93970609 0.36761531 -0.60795623
2.45340133 0.21776932 0.80584449
-2.53295398 -1.01738286 -0.01668657
0.29265848 -0.16714488 -1.08183050
-1.97094655 1.14507580 -0.21257344
-0.92338115 -0.88241905 0.79869163
-0.98903078 0.22872333 1.03863585
-3.00336790 -0.72504330 -0.30627048
-3.48508549 -0.41536805 -0.21443386
-1.12720990 -0.42675272 -0.98624557
-2.35481429 1.03475773 -0.22940046
-1.40517902 1.26534438 0.16975810
-0.51292670 -1.35040140 0.19212604
-1.43331635 0.86488760 0.74375618
0.43287086 0.84728104 -0.85554546
-1.65849841 0.97094113 0.61016852
-2.92123556 -0.55907154 0.51814783
2.78188252 0.86160940 0.26231751
-2.59722090 -0.07256740 0.78321654
0.28708601 -1.36728168 0.15301476
3.27862906 0.66151631 -0.02721160
2.21482873 -0.27461481 -0.85292828
-0.45530280 -0.03429525 1.08483541
-3.23855472 0.37224635 -0.45732883
1.85853195 0.63131285 0.80639118
-0.08019353 0.53446007 -1.00827444
0.65767312 0.07696167 1.07444024
-3.48498440 0.16240893 0.37033242
-1.30764663 -1.29722881 -0.02310963
-1.93651867 -0.99432296 0.50762951
-0.33798391 -0.94249123 0.79524881
-2.27034926 0.39771193 -0.80947322
-2.68071747 -0.25549835 -0.73351800
-2.32478452 -0.85207260 0.52870190
-3.28098965 -0.34159559 -0.44613272
2.40768194 0.26313287 -0.80937713
3.37576270 -0.59051222 0.02500283
1.85514939 -0.13633217 0.94261658
-3.70701027 -0.14540847 -0.05881556
-0.44776446 -1.28776336 -0.38051495
3.30569744 -0.21140720 0.47941628
3.00000691 0.81034982 -0.11918079
-1.12807572 0.09506266 -1.03976762
-2.24856281 -1.09482765 -0.12036239
-0.00145460 -0.79992259 0.89258713
0.58942151 -0.79996228 -0.87554610
3.47167540 -0.23516186 -0.35633674
2.09276843 -0.40891594 0.84575599
0.19352862 1.35339117 0.22613072
-2.83915663 -0.42991588 0.62356430
-0.32008684 0.82423836 0.87422395
0.88340420 -0.23284264 -1.04644251
-1.28683746 -1.27155626 -0.21396852
1.46219611 0.25695577 0.98528630
-1.27333319 0.57595295 -0.92186934
1.26613188 -1.27664495 -0.20551468
-0.66141480 1.19522619 -0.51772422
-1.41449523 0.33933574 0.97566271
-1.29925680 -0.95876384 0.69124317
2.55643988 -0.90458375 -0.35356835
-3.53809762 0.38323548 0.17279097
0.15570848 0.76073498 0.91257310
3.72051883 0.06212386 -0.07213175
0.79703963 1.34078288 -0.14484160
3.15756822 0.47840244 0.44423598
-2.02573609 0.54345977 0.81206477
1.00521457 0.71673578 0.88816959
1.90289104 -0.69509876 -0.76420504
-1.65567768 0.78135884 -0.76179755
-0.41366458 -0.25064114 1.06836772
0.39543653 -0.63877076 -0.96330827
-2.46910524 0.18777612 0.80653763
3.19689202 -0.67991042 0.17549405
1.35959256 -0.18163048 -1.00801015
1.99377882 -1.17053664 0.03624029
-3.63622475 -0.01632129 -0.24621679
1.88272667 1.12816095 -0.31316388
-3.18902040 0.04555885 0.56700265
1.60467744 -0.32534114 -0.95319331
2.57887745 -0.99962443 -0.04670664
-3.06850505 -0.67290759 0.32459027
-1.08923006 1.25534165 0.33379427
3.17939591 -0.09466045 -0.56811869
-0.75908673 1.30450809 -0.29278001
-0.76747572 -1.33178937 -0.20083168
0.92262381 1.12794507 0.57406855
2.25539589 0.68707675 0.68184960
-3.54228616 -0.42870072 -0.06379343
-3.45262814 -0.14082362 -0.40007001
2.58932495 -0.33472523 -0.74180210
-2.99764967 -0.19021560 0.63423795
-3.13415360 0.57938308 -0.37920326
-0.43811056 -0.82405621 -0.86953998
3.15662527 -0.70761400 -0.17026545
2.72272873 0.07740432 -0.74539739
-1.62620211 -0.62576550 -0.85162711
0.58313149 -0.29046994 1.05543542
-1.47787178 -1.24328196 0.21137357
-1.83535218 -0.65421247 0.79993016
-3.40357065 0.56818789 -0.01485450
-2.97857428 0.80940980 -0.16023116
-1.14494693 0.60855734 0.92329419
-2.64954829 -0.89754176 -0.30143267
1.63997197 0.98105752 0.60410404
-1.75980604 -1.12157416 0.38205665
-2.36572456 -1.05768788 0.13513976
2.39004159 0.58522493 -0.70151716
-2.39929938 0.55575675 0.71351856
-3.11913466 0.68795246 -0.25703409
1.76210320 -0.51484764 -0.87410301
-0.86774749 -0.17132014 1.05493057
1.88587677 -0.66230160 0.78562301
-1.83833659 -1.09085536 -0.40484732
-0.63701832 1.36001277 0.08906436
-0.53867048 0.02833351 -1.08164871
3.66231275 0.26746911 -0.00041340
-0.80366516 -0.95051235 -0.75949579
-3.09752011 0.73323816 0.19286187
3.01962471 0.30803248 -0.59499139
-0.67220503 0.33304468 -1.04265869
-1.89498389 -1.19275522 0.02836989
0.51519829 -1.08026576 0.66745406
-0.00789418 1.24256325 0.48349461
-3.22368217 -0.51049054 -0.37565234
-3.28029251 -0.44056138 0.38904986
0.63583267 1.27171719 0.39128587
-2.07370543 0.94475508 0.51990640
3.02301574 -0.45899153 -0.52911997
3 249 48 83
3 64 0 62
3 220 34 37
3 64 62 204
3 204 191 64
3 51 191 204
3 213 27 253
3 21 48 249
3 104 24 232
3 40 205 155
3 7 151 128
3 128 151 1
3 115 111 220
3 220 111 244
3 244 34 220
3 113 26 215
3 117 184 66
3 66 51 118
3 184 51 66
3 117 196 30
3 30 184 117
3 30 196 1
3 64 191 84
3 84 0 64
3 84 27 0
3 46 191 79
3 79 191 51
3 79 51 184
3 168 87 100
3 100 23 168
3 168 23 73
3 168 73 122
3 122 87 168
3 25 152 194
3 32 87 192
3 100 87 32
3 32 129 100
3 145 62 0
3 0 27 145
3 220 37 198
3 99 70 207
3 78 246 234
3 246 163 234
3 118 51 108
3 51 204 108
3 126 196 117
3 117 66 126
3 126 66 29
3 148 145 192
3 107 174 41
3 122 164 41
3 81 174 210
3 210 174 107
3 210 97 81
3 38 204 62
3 38 148 97
3 38 246 78
3 38 97 246
3 73 33 105
3 207 70 105
3 112 86 90
3 146 177 90
3 231 213 127
3 27 213 231
3 134 45 67
3 67 229 134
3 185 86 134
3 134 229 185
3 249 83 94
3 112 90 98
3 150 45 134
3 175 23 100
3 11 183 50
3 47 24 104
3 47 21 249
3 104 21 47
3 186 232 24
3 186 133 9
3 24 133 186
3 31 40 155
3 215 26 88
3 136 113 215
3 251 113 136
3 7 128 91
3 212 167 11
3 225 232 233
3 104 232 225
3 225 140 104
3 44 183 11
3 11 167 44
3 44 167 111
3 121 34 110
3 34 244 110
3 111 167 110
3 110 244 111
3 218 177 146
3 121 110 240
3 233 124 130
3 56 16 192
3 192 145 56
3 56 231 16
3 56 145 27
3 27 231 56
3 129 32 22
3 22 214 152
3 152 25 22
3 22 25 129
3 107 41 221
3 221 41 164
3 164 70 221
3 70 99 221
3 20 69 120
3 120 42 20
3 120 69 36
3 20 42 153
3 153 126 29
3 101 69 20
3 36 69 101
3 101 163 36
3 101 234 163
3 62 145 169
3 145 148 169
3 169 38 62
3 148 38 169
3 192 87 243
3 243 148 192
3 97 148 243
3 89 174 81
3 89 41 174
3 222 163 246
3 255 210 107
3 107 221 255
3 65 38 78
3 204 38 65
3 65 108 204
3 122 73 200
3 73 105 200
3 200 164 122
3 200 70 164
3 200 105 70
3 80 98 226
3 226 98 90
3 9 133 226
3 226 133 80
3 178 141 229
3 229 67 178
3 49 127 194
3 49 231 127
3 194 152 49
3 152 214 49
3 49 214 16
3 16 231 49
3 254 77 102
3 102 77 245
3 86 185 199
3 146 90 199
3 199 90 86
3 85 150 134
3 85 86 112
3 134 86 85
3 23 175 61
3 73 23 61
3 61 33 73
3 48 33 61
3 11 50 147
3 147 50 21
3 147 140 11
3 147 21 104
3 104 140 147
3 202 183 207
3 202 50 183
3 202 33 48
3 48 21 202
3 21 50 202
3 207 105 202
3 202 105 33
3 158 133 24
3 158 47 249
3 24 47 158
3 249 94 158
3 26 124 208
3 208 88 26
3 232 186 157
3 9 161 157
3 157 186 9
3 57 157 161
3 233 232 57
3 232 157 57
3 3 31 188
3 188 31 155
3 166 88 40
3 3 203 166
3 215 88 166
3 166 31 3
3 40 31 166
3 166 136 215
3 203 136 166
3 216 136 203
3 216 203 7
3 106 170 63
3 92 170 242
3 180 212 156
3 140 225 156
3 2 110 167
3 2 212 180
3 167 212 2
3 180 240 2
3 2 240 110
3 230 240 171
3 121 240 230
3 93 30 1
3 129 25 72
3 58 82 224
3 114 32 192
3 114 22 32
3 192 16 114
3 16 214 114
3 214 22 114
3 237 206 149
3 123 206 237
3 123 237 19
3 19 18 115
3 95 18 19
3 8 120 36
3 149 206 8
3 8 222 149
3 36 163 8
3 163 222 8
3 42 120 131
3 242 170 247
3 247 42 242
3 247 153 42
3 142 101 20
3 108 101 142
3 20 153 142
3 142 153 29
3 118 108 142
3 142 66 118
3 29 66 142
3 234 101 109
3 109 101 108
3 108 65 109
3 78 234 109
3 109 65 78
3 81 97 190
3 97 243 190
3 190 89 81
3 41 89 190
3 122 41 190
3 190 87 122
3 190 243 87
3 119 222 246
3 210 222 119
3 246 97 119
3 97 210 119
3 149 222 217
3 217 222 210
3 210 255 217
3 217 237 149
3 10 18 95
3 183 18 10
3 60 177 144
3 144 161 60
3 60 90 177
3 60 226 90
3 60 161 9
3 9 226 60
3 189 178 67
3 189 45 194
3 189 67 45
3 194 127 189
3 127 178 189
3 176 84 191
3 176 191 46
3 253 27 176
3 27 84 176
3 46 241 176
3 241 75 176
3 209 139 254
3 209 241 139
3 209 75 241
3 141 14 143
3 143 209 254
3 14 209 143
3 253 176 250
3 250 176 75
3 250 213 253
3 75 209 250
3 250 209 14
3 141 178 52
3 52 14 141
3 52 250 14
3 52 178 127
3 127 213 52
3 213 250 52
3 254 139 55
3 55 77 254
3 139 132 55
3 138 77 55
3 55 132 138
3 146 199 12
3 12 218 146
3 205 218 12
3 193 199 185
3 80 133 172
3 172 17 80
3 133 158 172
3 94 17 172
3 172 158 94
3 197 98 80
3 80 17 197
3 224 150 197
3 197 17 224
3 239 61 175
3 175 58 239
3 239 83 48
3 48 61 239
3 239 94 83
3 125 161 144
3 144 208 125
3 125 57 161
3 125 208 124
3 125 124 233
3 233 57 125
3 252 208 144
3 88 208 252
3 144 177 252
3 177 218 252
3 40 88 252
3 205 40 252
3 252 218 205
3 251 136 162
3 136 216 162
3 106 63 159
3 159 63 91
3 1 196 159
3 196 106 159
3 159 128 1
3 159 91 128
3 170 92 13
3 59 63 13
3 13 63 170
3 13 74 59
3 180 156 103
3 103 240 180
3 171 240 103
3 140 156 39
3 39 156 212
3 11 140 39
3 39 212 11
3 135 113 251
3 121 230 135
3 171 130 35
3 35 230 171
3 35 124 26
3 35 130 124
3 35 135 230
3 26 113 35
3 113 135 35
3 139 241 211
3 211 132 139
3 211 241 46
3 46 79 211
3 211 79 184
3 184 30 96
3 96 211 184
3 132 211 96
3 138 132 96
3 30 93 96
3 96 93 138
3 181 72 25
3 82 72 181
3 100 129 6
3 129 72 6
3 6 175 100
3 53 17 94
3 94 239 53
3 53 239 58
3 224 17 53
3 53 58 224
3 183 44 71
3 71 18 183
3 115 18 71
3 111 115 71
3 71 44 111
3 173 198 123
3 123 19 173
3 173 19 115
3 173 115 220
3 220 198 173
3 242 42 5
3 42 131 5
3 5 92 242
3 123 198 28
3 28 5 131
3 28 198 37
3 37 5 28
3 179 131 120
3 179 28 131
3 179 206 123
3 123 28 179
3 182 170 106
3 182 247 170
3 182 106 196
3 196 126 182
3 126 153 182
3 153 247 182
3 237 217 195
3 95 19 195
3 195 19 237
3 195 217 255
3 195 10 95
3 255 10 195
3 187 255 221
3 187 10 255
3 187 221 99
3 187 99 207
3 207 183 187
3 183 10 187
3 229 141 76
3 141 193 76
3 76 185 229
3 76 193 185
3 4 12 199
3 155 205 4
3 205 12 4
3 150 85 238
3 238 197 150
3 238 85 112
3 112 98 238
3 98 197 238
3 59 74 160
3 7 91 160
3 160 216 7
3 160 162 216
3 160 63 59
3 91 63 160
3 137 5 37
3 92 5 137
3 248 156 225
3 248 103 156
3 248 225 233
3 171 103 248
3 233 130 248
3 248 130 171
3 227 188 245
3 3 188 227
3 1 151 219
3 219 93 1
3 219 236 93
3 82 181 154
3 224 82 154
3 45 150 154
3 154 150 224
3 175 6 165
3 165 6 72
3 165 58 175
3 165 72 82
3 82 58 165
3 120 8 201
3 201 179 120
3 201 8 206
3 206 179 201
3 155 4 116
3 116 188 155
3 116 102 245
3 245 188 116
3 199 193 235
3 235 4 199
3 254 102 235
3 102 116 235
3 235 116 4
3 235 193 141
3 235 143 254
3 141 143 235
3 68 160 74
3 162 160 68
3 251 162 68
3 68 74 121
3 121 135 68
3 68 135 251
3 223 34 121
3 121 74 223
3 223 37 34
3 223 137 37
3 228 227 245
3 236 227 228
3 245 77 228
3 228 77 138
3 138 93 228
3 93 236 228
3 43 227 236
3 236 219 43
3 3 227 43
3 43 219 151
3 43 203 3
3 43 151 7
3 7 203 43
3 45 154 15
3 15 154 181
3 194 45 15
3 15 25 194
3 15 181 25
3 137 223 54
3 54 13 92
3 92 137 54
3 74 13 54
3 54 223 74