ply
format ascii 1.0
comment https://github.com/mikedh/trimesh
element vertex 256
property float x
property float y
property float z
element face 508
property list uchar int vertex_indices
end_header
2.47796154 2.62198710 0.08305167
-3.49599338 1.25496256 -0.91376990
-1.36500585 -2.77605939 -0.58840811
-4.57022238 0.58183378 -0.07271565
-3.71012402 0.71981519 0.97693759
-0.26650223 -0.37757066 -1.73434532
2.94606519 0.06656549 1.35467660
-4.24671984 0.14323744 -0.71335459
2.19890475 0.00208972 -1.54308045
-2.09831738 -1.88550961 1.14509463
2.63519621 -2.04685688 -0.86534995
0.05157576 -3.09645247 -0.10788295
-3.63760018 0.34660730 1.07508004
-2.20491838 -0.62807399 -1.50035512
-0.92502952 2.61276484 0.87782353
1.04702997 0.77810210 1.64783084
3.14552546 1.65994394 0.88800228
0.38604465 -1.33426690 1.57344520
1.49756551 -2.45478153 -0.91007710
1.40517497 -2.00531268 -1.22682774
0.86046368 0.96736974 -1.63108170
0.74520946 -2.86770105 0.60625517
3.03848624 1.13216567 1.16284204
3.53960776 -0.84924227 1.03124821
-1.02020252 -2.29437757 1.11430430
2.20977378 0.95756370 1.44242263
-3.98926401 -1.58802283 -0.11013746
1.83839047 2.72648096 0.46978593
0.61482716 -0.97928315 -1.64478469
-0.12514931 1.84887636 -1.40457308
-1.87703896 2.16322565 -1.03684032
-4.57533741 0.29438967 0.27996358
3.81968474 0.47634095 0.96392620
3.11928868 -1.91040373 0.72548169
-1.64856589 -1.94608450 -1.21414459
-3.65450931 -1.85322380 -0.28789955
2.26704335 0.58324087 -1.49275553
-0.73814833 -1.48122716 -1.51240981
3.60151410 1.75723648 -0.49825874
-0.73102981 -3.06330800 -0.03628703
-4.59220695 -0.18211682 0.27111211
4.53827238 -0.69184220 -0.04819620
0.34180459 0.49778503 -1.72256386
-4.34552050 0.98943925 -0.28899115
0.14573251 -2.86044097 -0.67586541
0.45190588 0.84821856 1.67491150
0.00904715 3.04888487 -0.32254180
-0.19300354 -2.75383711 0.80325806
2.33508515 -2.20120406 0.86626977
2.32430577 1.87531614 1.08598816
1.50302494 -2.93406391 -0.06507391
0.57251316 2.68388939 -0.85167152
-0.41457143 2.49888062 1.02526224
1.23252904 -1.19440043 1.54753518
-1.97803617 -1.00629675 -1.47930193
-2.53226304 2.59089518 0.14898184
3.39445543 1.79078436 0.64420432
-2.86000729 -2.26874161 0.51912308
1.84208119 -0.73392129 1.55366647
-2.93255639 -0.33705613 -1.34561777
-2.78607893 -1.49949265 1.11906803
2.94931078 -1.25448847 1.15494883
3.10787892 2.30762863 -0.06064398
-3.00395775 0.21146052 -1.33174992
2.18340397 2.72232985 -0.17565428
2.71803927 2.07652664 -0.80529886
-0.35793820 2.23712921 -1.20556116
-0.43868729 1.22460485 1.59964311
-3.38049865 -1.03990221 -1.05181539
1.40754020 0.81557196 -1.60344064
3.81035972 -1.77946353 0.07311542
0.75117016 -2.71054006 -0.80438673
2.43248916 0.12679744 1.49049973
3.82223535 -1.09556162 0.78567463
-2.89356589 -1.06906760 -1.23166239
-0.41700417 3.02804947 0.34580144
-1.98148787 1.41486752 1.36775219
-3.12634349 2.23351312 0.31045601
3.10970545 1.75044060 -0.84952718
0.11530446 2.94710660 -0.54472083
-1.66455102 -1.25541186 1.47317922
4.56416655 0.01264771 -0.34769219
1.75507426 -0.33372527 1.60974813
1.91695881 -1.95877039 1.14981246
1.76884878 2.86925697 0.01966368
-1.26579142 -0.00121210 1.68408132
-2.17173886 0.14980613 1.54601967
4.25073242 0.21050070 0.70565343
-4.51728439 -0.68160433 0.18209247
4.59932470 -0.35633075 -0.18522057
-2.68249702 -0.23312832 1.42438865
-3.44599652 0.55941385 -1.13368177
-1.54021549 -0.56561798 -1.62058401
-3.28636408 1.97726107 -0.54192752
0.90960521 -1.91176426 1.33487296
2.23242092 -1.95298386 -1.07042313
-2.10385895 2.47433400 -0.69938272
4.46685171 0.54534733 -0.38703737
-1.68010414 -0.83840966 1.56201959
3.52655959 -1.98870969 -0.22136553
3.60928273 -0.25865304 1.09559488
2.12916875 1.07908082 -1.43249238
-3.55488801 1.54078209 0.72263104
-2.06148458 -2.75989628 -0.19669624
-0.73622376 -2.86495352 0.61160564
3.69917107 -1.70713151 0.44928536
-2.33316135 1.06082618 -1.39133072
4.12631989 -0.87924659 -0.64185655
1.46879482 2.21159530 -1.09639680
2.68821263 1.71192610 -1.05388069
-1.12858725 -2.45229197 -0.98519552
-0.38422149 -2.38389826 -1.11010051
-1.76788485 -0.44246194 1.60012400
-4.12662601 -1.32710719 -0.31315112
3.50080013 1.12534249 0.96406358
0.24028611 -2.29685855 -1.17269301
-3.85980844 1.01193416 0.79578382
-1.23080289 2.20322967 -1.14148295
0.51718915 2.30423498 -1.15532899
3.82254863 0.27313313 -0.98753184
1.42105651 0.30505639 -1.65750682
-2.47048926 -1.84585881 -1.05684364
4.36173344 -0.80337620 0.41395399
1.17567039 -1.12247205 -1.57050800
-3.59893394 -1.93179786 0.21614829
-3.45586920 -1.89021182 0.48903787
-0.80082160 1.78820968 -1.39881575
1.16022182 2.25590968 1.11896896
-3.66754460 0.82333928 -0.97311628
3.06083632 0.48773280 1.28986323
-3.16008544 -2.27860832 -0.02670911
0.36511746 -0.37435040 -1.73161614
-2.45893097 2.56459904 -0.34025258
-1.15200007 -1.97633302 1.27841413
-1.23390377 0.51226622 1.66247737
-3.74696851 -1.62386227 -0.49022740
-4.34795380 -0.93028998 -0.34323043
-1.40629458 -0.95578796 -1.57861960
-2.93784022 2.31752229 -0.36718652
-1.75308585 2.83396173 0.27172083
-0.63992167 -3.02446198 0.30752373
-1.78818965 1.93706822 1.19048250
0.54004490 1.89763522 -1.36941636
-2.06912422 2.17459393 0.97665733
-3.64450121 -1.25213921 0.82936579
3.47064567 1.92972612 0.41987470
-3.24026394 -0.16252747 1.25364423
0.35816529 -3.06226850 0.24492085
4.09038115 1.48158240 -0.04355586
2.76319575 -0.61504823 -1.36522722
-0.56803071 -0.07681026 1.73642600
-4.04038477 0.83371133 -0.73201668
2.31868386 1.41393638 1.29073822
-0.10004856 1.19701755 -1.61387968
0.82050568 0.17236924 1.71978712
-4.34782791 0.36374342 0.59276718
-1.63140535 -2.90537262 -0.03699009
-2.41597915 -2.22696137 0.81252974
-0.42166495 -2.11087513 1.27290344
-2.83246255 0.89074600 -1.29567146
-3.34443355 -0.57223362 -1.17409492
-2.90037537 -1.90836680 0.84625900
-4.09332657 -0.76506352 -0.71409583
3.00379729 0.58933240 -1.29551768
4.21156406 -1.32255626 0.04002042
2.31446385 -0.30533993 1.50878549
-4.62482500 -0.32566789 -0.09414228
-0.55862600 -2.88417315 -0.60906571
4.12415171 -0.47348371 0.76737070
3.74277544 1.81492126 -0.19076499
-1.40737474 0.21290958 -1.66428888
-2.80528188 -2.45205951 -0.19265629
-0.00181475 -1.79156756 1.42870653
0.73535573 -1.79165649 -1.40143001
4.33122349 -0.52668643 -0.57036525
2.61091471 -0.91583931 1.35374701
0.24144416 3.03115797 0.36195284
-3.54210043 -0.96287239 0.99809909
-0.39933679 1.84602702 1.39931381
1.10212529 -0.52149212 -1.67497301
-1.60544407 -2.84787440 -0.34248558
1.82421958 0.57549775 1.57708418
-1.58859646 1.28994811 -1.47557676
1.57961214 -2.85927129 -0.32895407
-0.82517380 2.67691970 -0.82868767
-1.76470852 0.76000214 1.56168032
-1.62093842 -2.14732051 1.10642827
3.18938613 -2.02597475 -0.56593400
-4.41409111 0.85832340 0.27657536
0.19426017 1.70380008 1.46069682
4.64167786 0.13913734 -0.11545663
0.99437779 3.00291944 -0.23183858
3.93934727 1.07146657 0.71105987
-2.52728581 1.21717393 1.29981959
1.25409460 1.60525608 1.42163563
2.37402582 -1.55679619 -1.22321367
-2.06560516 1.74999082 -1.21936011
-0.51608336 -0.56135499 1.71006715
0.49334222 -1.43063974 -1.54190540
-3.08042836 0.42055771 1.29097271
3.98840690 -1.52277923 0.28090200
1.69621253 -0.40679348 -1.61345673
2.48741627 -2.62162304 0.05800750
-4.53651333 -0.03655440 -0.39410332
2.34886885 2.52671528 -0.50126123
-3.97858644 0.10203709 0.90756458
2.00197768 -0.72865885 -1.52571499
3.21737909 -2.23883510 -0.07476030
-3.82823277 -1.50709522 0.51955068
-1.35891140 2.81155896 0.53428292
3.96657896 -0.21200876 -0.90935093
-0.94702822 2.92167568 -0.46863404
-0.95749414 -2.98277712 -0.32145831
1.15105522 2.52623200 0.91887450
2.81380677 1.53882945 1.09139264
-4.41931677 -0.96015084 -0.10211001
-4.30746031 -0.31539932 -0.64036626
3.23041296 -0.74967617 -1.18735468
-3.73983455 -0.42602134 1.01518369
-3.91013503 1.29763055 -0.60696614
-0.54658186 -1.84561920 -1.39181650
3.93817067 -1.58482623 -0.27253291
3.39684629 0.17336062 -1.19310951
-2.02883172 -1.40151215 -1.36314452
0.72750837 -0.65055865 1.68936729
-1.84377646 -2.78454924 0.33833203
-2.28976512 -1.46522415 1.28039658
-4.24625683 1.27255690 -0.02377663
-3.71603632 1.81281579 -0.25647166
-1.42842317 1.36297143 1.47785735
-3.30554700 -2.01020288 -0.48248380
2.04601097 2.19725132 0.96695036
-2.19551444 -2.51196313 0.61153340
-2.95145154 -2.36887860 0.21630949
2.98178935 1.31071436 -1.12287319
-2.99333930 1.24471521 1.14208305
-3.89139771 1.54079080 -0.41141790
2.19838023 -1.15309203 -1.39912021
-1.08259213 -0.38370162 1.68855929
2.35279894 -1.48334110 1.25749600
-2.29348826 -2.44316292 -0.64801300
-0.79473698 3.04598808 0.14255957
-0.67203927 0.06345790 -1.73132527
4.56906080 0.59904420 -0.00066171
-1.00264370 -2.12883997 -1.21567583
-3.86443186 1.64221609 0.30870155
3.76725030 0.68989301 -0.95236427
-0.83863550 0.74591225 -1.66891646
-2.36416078 -2.67138553 0.04540985
0.64275569 -2.41944551 1.06835055
-0.00984869 2.78293943 0.77389860
-4.02183008 -1.14333355 -0.60128248
-4.09245634 -0.98671484 0.62272698
0.79325777 2.84823489 0.62630606
-2.58713198 2.11594558 0.83218062
3.77148104 -1.02799249 -0.84692812
3 249 48 83
3 64 0 62
3 220 34 37
3 64 62 204
3 204 191 64
3 51 191 204
3 213 27 253
3 21 48 249
3 104 24 232
3 40 205 155
3 7 151 128
3 128 151 1
3 115 111 220
3 220 111 244
3 244 34 220
3 113 26 215
3 117 184 66
3 66 51 118
3 184 51 66
3 117 196 30
3 30 184 117
3 30 196 1
3 64 191 84
3 84 0 64
3 84 27 0
3 46 191 79
3 79 191 51
3 79 51 184
3 168 87 100
3 100 23 168
3 168 23 73
3 168 73 122
3 122 87 168
3 25 152 194
3 32 87 192
3 100 87 32
3 32 129 100
3 145 62 0
3 0 27 145
3 220 37 198
3 99 70 207
3 78 246 234
3 246 163 234
3 118 51 108
3 51 204 108
3 126 196 117
3 117 66 126
3 126 66 29
3 148 145 192
3 107 174 41
3 122 164 41
3 81 174 210
3 210 174 107
3 210 97 81
3 38 204 62
3 38 148 97
3 38 246 78
3 38 97 246
3 73 33 105
3 207 70 105
3 112 86 90
3 146 177 90
3 231 213 127
3 27 213 231
3 134 45 67
3 67 229 134
3 185 86 134
3 134 229 185
3 249 83 94
3 112 90 98
3 150 45 134
3 175 23 100
3 11 183 50
3 47 24 104
3 47 21 249
3 104 21 47
3 186 232 24
3 186 133 9
3 24 133 186
3 31 40 155
3 215 26 88
3 136 113 215
3 251 113 136
3 7 128 91
3 212 167 11
3 225 232 233
3 104 232 225
3 225 140 104
3 44 183 11
3 11 167 44
3 44 167 111
3 121 34 110
3 34 244 110
3 111 167 110
3 110 244 111
3 218 177 146
3 121 110 240
3 233 124 130
3 56 16 192
3 192 145 56
3 56 231 16
3 56 145 27
3 27 231 56
3 129 32 22
3 22 214 152
3 152 25 22
3 22 25 129
3 107 41 221
3 221 41 164
3 164 70 221
3 70 99 221
3 20 69 120
3 120 42 20
3 120 69 36
3 20 42 153
3 153 126 29
3 101 69 20
3 36 69 101
3 101 163 36
3 101 234 163
3 62 145 169
3 145 148 169
3 169 38 62
3 148 38 169
3 192 87 243
3 243 148 192
3 97 148 243
3 89 174 81
3 89 41 174
3 222 163 246
3 255 210 107
3 107 221 255
3 65 38 78
3 204 38 65
3 65 108 204
3 122 73 200
3 73 105 200
3 200 164 122
3 200 70 164
3 200 105 70
3 80 98 226
3 226 98 90
3 9 133 226
3 226 133 80
3 178 141 229
3 229 67 178
3 49 127 194
3 49 231 127
3 194 152 49
3 152 214 49
3 49 214 16
3 16 231 49
3 254 77 102
3 102 77 245
3 86 185 199
3 146 90 199
3 199 90 86
3 85 150 134
3 85 86 112
3 134 86 85
3 23 175 61
3 73 23 61
3 61 33 73
3 48 33 61
3 11 50 147
3 147 50 21
3 147 140 11
3 147 21 104
3 104 140 147
3 202 183 207
3 202 50 183
3 202 33 48
3 48 21 202
3 21 50 202
3 207 105 202
3 202 105 33
3 158 133 24
3 158 47 249
3 24 47 158
3 249 94 158
3 26 124 208
3 208 88 26
3 232 186 157
3 9 161 157
3 157 186 9
3 57 157 161
3 233 232 57
3 232 157 57
3 3 31 188
3 188 31 155
3 166 88 40
3 3 203 166
3 215 88 166
3 166 31 3
3 40 31 166
3 166 136 215
3 203 136 166
3 216 136 203
3 216 203 7
3 106 170 63
3 92 170 242
3 180 212 156
3 140 225 156
3 2 110 167
3 2 212 180
3 167 212 2
3 180 240 2
3 2 240 110
3 230 240 171
3 121 240 230
3 93 30 1
3 129 25 72
3 58 82 224
3 114 32 192
3 114 22 32
3 192 16 114
3 16 214 114
3 214 22 114
3 237 206 149
3 123 206 237
3 123 237 19
3 19 18 115
3 95 18 19
3 8 120 36
3 149 206 8
3 8 222 149
3 36 163 8
3 163 222 8
3 42 120 131
3 242 170 247
3 247 42 242
3 247 153 42
3 142 101 20
3 108 101 142
3 20 153 142
3 142 153 29
3 118 108 142
3 142 66 118
3 29 66 142
3 234 101 109
3 109 101 108
3 108 65 109
3 78 234 109
3 109 65 78
3 81 97 190
3 97 243 190
3 190 89 81
3 41 89 190
3 122 41 190
3 190 87 122
3 190 243 87
3 119 222 246
3 210 222 119
3 246 97 119
3 97 210 119
3 149 222 217
3 217 222 210
3 210 255 217
3 217 237 149
3 10 18 95
3 183 18 10
3 60 177 144
3 144 161 60
3 60 90 177
3 60 226 90
3 60 161 9
3 9 226 60
3 189 178 67
3 189 45 194
3 189 67 45
3 194 127 189
3 127 178 189
3 176 84 191
3 176 191 46
3 253 27 176
3 27 84 176
3 46 241 176
3 241 75 176
3 209 139 254
3 209 241 139
3 209 75 241
3 141 14 143
3 143 209 254
3 14 209 143
3 253 176 250
3 250 176 75
3 250 213 253
3 75 209 250
3 250 209 14
3 141 178 52
3 52 14 141
3 52 250 14
3 52 178 127
3 127 213 52
3 213 250 52
3 254 139 55
3 55 77 254
3 139 132 55
3 138 77 55
3 55 132 138
3 146 199 12
3 12 218 146
3 205 218 12
3 193 199 185
3 80 133 172
3 172 17 80
3 133 158 172
3 94 17 172
3 172 158 94
3 197 98 80
3 80 17 197
3 224 150 197
3 197 17 224
3 239 61 175
3 175 58 239
3 239 83 48
3 48 61 239
3 239 94 83
3 125 161 144
3 144 208 125
3 125 57 161
3 125 208 124
3 125 124 233
3 233 57 125
3 252 208 144
3 88 208 252
3 144 177 252
3 177 218 252
3 40 88 252
3 205 40 252
3 252 218 205
3 251 136 162
3 136 216 162
3 106 63 159
3 159 63 91
3 1 196 159
3 196 106 159
3 159 128 1
3 159 91 128
3 170 92 13
3 59 63 13
3 13 63 170
3 13 74 59
3 180 156 103
3 103 240 180
3 171 240 103
3 140 156 39
3 39 156 212
3 11 140 39
3 39 212 11
3 135 113 251
3 121 230 135
3 171 130 35
3 35 230 171
3 35 124 26
3 35 130 124
3 35 135 230
3 26 113 35
3 113 135 35
3 139 241 211
3 211 132 139
3 211 241 46
3 46 79 211
3 211 79 184
3 184 30 96
3 96 211 184
3 132 211 96
3 138 132 96
3 30 93 96
3 96 93 138
3 181 72 25
3 82 72 181
3 100 129 6
3 129 72 6
3 6 175 100
3 53 17 94
3 94 239 53
3 53 239 58
3 224 17 53
3 53 58 224
3 183 44 71
3 71 18 183
3 115 18 71
3 111 115 71
3 71 44 111
3 173 198 123
3 123 19 173
3 173 19 115
3 173 115 220
3 220 198 173
3 242 42 5
3 42 131 5
3 5 92 242
3 123 198 28
3 28 5 131
3 28 198 37
3 37 5 28
3 179 131 120
3 179 28 131
3 179 206 123
3 123 28 179
3 182 170 106
3 182 247 170
3 182 106 196
3 196 126 182
3 126 153 182
3 153 247 182
3 237 217 195
3 95 19 195
3 195 19 237
3 195 217 255
3 195 10 95
3 255 10 195
3 187 255 221
3 187 10 255
3 187 221 99
3 187 99 207
3 207 183 187
3 183 10 187
3 229 141 76
3 141 193 76
3 76 185 229
3 76 193 185
3 4 12 199
3 155 205 4
3 205 12 4
3 150 85 238
3 238 197 150
3 238 85 112
3 112 98 238
3 98 197 238
3 59 74 160
3 7 91 160
3 160 216 7
3 160 162 216
3 160 63 59
3 91 63 160
3 137 5 37
3 92 5 137
3 248 156 225
3 248 103 156
3 248 225 233
3 171 103 248
3 233 130 248
3 248 130 171
3 227 188 245
3 3 188 227
3 1 151 219
3 219 93 1
3 219 236 93
3 82 181 154
3 224 82 154
3 45 150 154
3 154 150 224
3 175 6 165
3 165 6 72
3 165 58 175
3 165 72 82
3 82 58 165
3 120 8 201
3 201 179 120
3 201 8 206
3 206 179 201
3 155 4 116
3 116 188 155
3 116 102 245
3 245 188 116
3 199 193 235
3 235 4 199
3 254 102 235
3 102 116 235
3 235 116 4
3 235 193 141
3 235 143 254
3 141 143 235
3 68 160 74
3 162 160 68
3 251 162 68
3 68 74 121
3 121 135 68
3 68 135 251
3 223 34 121
3 121 74 223
3 223 37 34
3 223 137 37
3 228 227 245
3 236 227 228
3 245 77 228
3 228 77 138
3 138 93 228
3 93 236 228
3 43 227 236
3 236 219 43
3 3 227 43
3 43 219 151
3 43 203 3
3 43 151 7
3 7 203 43
3 45 154 15
3 15 154 181
3 194 45 15
3 15 25 194
3 15 181 25
3 137 223 54
3 54 13 92
3 92 137 54
3 74 13 54
3 54 223 74