ply
format ascii 1.0
comment https://github.com/mikedh/trimesh
element vertex 256
property float x
property float y
property float z
element face 508
property list uchar int vertex_indices
end_header
0.62230933 4.14160728 0.11357772
-0.87797546 1.98229873 -1.24963045
-0.34280434 -4.38497496 -0.80468035
-1.14775479 0.91904610 -0.09944265
-0.93175173 1.13699710 1.33601570
-0.06692874 -0.59639853 -2.37181234
0.73986781 0.10514472 1.85259449
-1.06651115 0.22625329 -0.97555149
0.55222774 0.00330086 -2.11024714
-0.52696645 -2.97829080 1.56597972
0.66179693 -3.23314977 -1.18341351
0.01295261 -4.89105749 -0.14753586
-0.91353828 0.54748982 1.47023094
-0.55373800 -0.99208564 -2.05181789
-0.23230971 4.12703991 1.20047188
0.26294863 1.22906518 2.25349903
0.78995979 2.62199426 1.21439183
0.09695034 -2.10756540 2.15177250
0.37609506 -3.87749434 -1.24458039
0.35289231 -3.16752791 -1.67775428
0.21609479 1.52802634 -2.23059368
0.18715014 -4.52972889 0.82908720
0.76307821 1.78833282 1.59025025
0.88892871 -1.34143603 1.41028845
-0.25621122 -3.62412572 1.52387226
0.55495733 1.51253700 1.97259200
-1.00185430 -2.50839019 -0.15061902
0.46168900 4.30666208 0.64245802
0.15440623 -1.54684448 -2.24933314
-0.03142970 2.92042613 -1.92083073
-0.47139511 3.41696191 -1.41793597
-1.14903939 0.46500850 0.38286555
0.95926654 0.75241297 1.31822193
0.78337073 -3.01761270 0.99213600
-0.41401690 -3.07397294 -1.66040921
-0.91778475 -2.92729330 -0.39371842
0.56933987 0.92126864 -2.04142499
-0.18537681 -2.33969903 -2.06830335
0.90447569 2.77567458 -0.68139613
-0.18358910 -4.83870363 -0.04962450
-1.15327597 -0.28766590 0.37076065
1.13973093 -1.09281182 -0.06591094
0.08583999 0.78628534 -2.35570049
-1.09132373 1.56288660 -0.39521125
0.03659891 -4.51826143 -0.92428297
0.11349057 1.33981895 2.29053330
0.00227208 4.81592083 -0.44109362
-0.04847045 -4.34987307 1.09849942
0.58642775 -3.47695160 1.18467140
0.58372062 2.96218967 1.48514831
0.37746611 -4.63455391 -0.08899214
0.14377959 4.23938608 -1.16470754
-0.10411449 3.94715190 1.40210235
0.30953440 -1.88663673 2.11633921
-0.49675933 -1.58951414 -2.02302647
-0.63594657 4.09249496 0.20374084
0.85247552 2.82866573 0.88098472
-0.71825546 -3.58363199 0.70992923
0.46261591 -1.15927863 2.12472415
-0.73647529 -0.53240311 -1.84020603
-0.69968921 -2.36855078 1.53038692
0.74068290 -1.98154998 1.57945573
0.78050536 3.64505649 -0.08293397
-0.75440681 0.33401629 -1.82124102
0.54833490 4.30010509 -0.24021685
0.68260193 3.28001523 -1.10129035
-0.08989175 3.53369784 -1.64867103
-0.11017089 1.93434680 2.18759966
-0.84897035 -1.64259636 -1.43841517
0.35348630 1.28825140 -2.19279313
0.95692468 -2.81078386 0.09998935
0.18864709 -4.28148270 -1.10004294
0.61088955 0.20028520 2.03834009
0.95990711 -1.73051417 1.07445312
-0.72668326 -1.68866503 -1.68436587
-0.10472544 4.78301048 0.47290242
-0.49762616 2.23487949 1.87047613
-0.78514248 3.52798605 0.42456561
0.78096408 2.76494002 -1.16177499
0.02895729 4.65515566 -0.74493563
-0.41803139 -1.98300862 2.01465344
1.14623392 0.01997792 -0.47548816
0.44076517 -0.52714181 2.20141888
0.48142049 -3.09401107 1.57243168
0.44422448 4.53218699 0.02689116
-0.31788787 -0.00191460 2.30307364
-0.54540533 0.23662898 2.11426663
1.06751883 0.33250019 0.96501970
-1.13446009 -1.07664049 0.24902143
1.15506339 -0.56284869 -0.25329930
-0.67367595 -0.36824206 1.94792950
-0.86541939 0.88363224 -1.55037200
-0.38680604 -0.89343208 -2.21623755
-0.82532966 3.12321854 -0.74111563
0.22843610 -3.01976180 1.82551205
0.56064487 -3.08487105 -1.46386242
-0.52835816 3.90837908 -0.95644426
1.12179458 0.86141330 -0.52929485
-0.42193735 -1.32432508 2.13614750
0.88565183 -3.14130235 -0.30272949
0.90642667 -0.40856007 1.49828613
0.53471440 1.70448172 -1.95901191
-0.89276612 2.43377018 0.98823756
-0.51771635 -4.35944414 -0.26899287
-0.18489349 -4.52538919 0.83640420
0.92900103 -2.69653034 0.61442232
-0.58594465 1.67564726 -1.90272105
1.03627419 -1.38882983 -0.87777406
0.36886966 3.49336553 -1.49938273
0.67511135 2.70410395 -1.44123971
-0.28343073 -3.87356186 -1.34730887
-0.09649248 -3.76552939 -1.51812339
-0.44398242 -0.69889879 2.18825746
-1.03635097 -2.09625602 -0.42825130
0.87918258 1.77755511 1.31840980
0.06034488 -3.62804437 -1.60372198
-0.96934313 1.59841883 1.08827794
-0.30910093 3.48015118 -1.56104052
0.12988564 3.63969612 -1.57997572
0.95998579 0.43143240 -1.35050392
0.35688075 0.48185736 -2.26673150
-0.62043279 -2.91565967 -1.44529164
1.09539533 -1.26898742 0.56610477
0.29525506 -1.77302110 -2.14775586
-0.90382773 -3.05140615 0.29559463
-0.86789876 -2.98571825 0.66878611
-0.20111644 2.82459879 -1.91295719
0.29137534 3.56336284 1.53025138
-0.92105842 1.30052042 -1.33078992
0.76869118 0.77040714 1.76395869
-0.79361635 -3.59921694 -0.03652617
0.09169473 -0.59131193 -2.36808014
-0.61753011 4.05095863 -0.46531406
-0.28931057 -3.12175250 1.74830139
-0.30987966 0.80915940 2.27352905
-0.94100475 -2.56500101 -0.67041284
-1.09193480 -1.46945632 -0.46938643
-0.35317349 -1.50973213 -2.15884900
-0.73780221 3.66068435 -0.50214767
-0.44026580 4.47643566 0.37159312
-0.16070840 -4.77734375 0.42055556
-0.44908169 3.05973125 1.62805009
0.13562559 2.99744415 -1.87275207
-0.51963496 3.43491888 1.33563244
-0.91527134 -1.97783911 1.13420320
0.87160969 3.04813385 0.57420170
-0.81375223 -0.25672320 1.71442711
0.08994879 -4.83706141 0.33494270
1.02724862 2.34026027 -0.05956502
0.69394243 -0.97151059 -1.86702299
-0.14265388 -0.12132702 2.37465787
-1.01469266 1.31690383 -1.00107300
0.58230877 2.23340869 1.76515532
-0.02512596 1.89077067 -2.20706892
0.20605984 0.27226895 2.35190320
-1.09190309 0.57455754 0.81064165
-0.40970728 -4.58923388 -0.05058598
-0.60674328 -3.51763725 1.11117899
-0.10589594 -3.33427119 1.74076521
-0.71133792 1.40699387 -1.77190173
-0.83991307 -0.90388191 -1.60563922
-0.72839338 -3.01439524 1.15730560
-1.02798831 -1.20846987 -0.97656518
0.75436652 0.93089068 -1.77169144
1.05768216 -2.08906770 0.05473011
0.58124894 -0.48230520 2.06334686
-1.16146755 -0.51441461 -0.12874472
-0.14029200 -4.55574751 -0.83293074
1.03572965 -0.74789971 1.04942155
0.93995172 2.86679173 -0.26088157
-0.35344476 0.33630517 -2.27600622
-0.70451182 -3.87319493 -0.26346806
-0.00045575 -2.82990289 1.95383453
0.18467550 -2.83004332 -1.91653240
1.08773327 -0.83193702 -0.78000569
0.65569896 -1.44663060 1.85132325
0.06063571 4.78792048 0.49499038
-0.88955468 -1.52092242 1.36495531
-0.10028850 2.91592550 1.91363835
0.27678511 -0.82373232 -2.29061747
-0.40318742 -4.49841118 -0.46836779
0.45813018 0.90903789 2.15674901
-0.39895633 2.03756094 -2.01793194
0.39670002 -4.51641369 -0.44986272
-0.20723218 4.22837687 -1.13327587
-0.44318470 1.20047510 2.13568330
-0.40707862 -3.39183903 1.51310134
0.80097485 -3.20016503 -0.77394575
-1.10854435 1.35578024 0.37823194
0.04878604 2.69126821 1.99758291
1.16569996 0.21977690 -0.15789329
0.24972568 4.74331570 -0.31705198
0.98931831 1.69245446 0.97241336
-0.63469654 1.92260909 1.77757454
0.31495035 2.53561139 1.94416475
0.59620720 -2.45906544 -1.67281175
-0.51875114 2.76422954 -1.66754186
-0.12960795 -0.88669842 2.33861065
0.12389679 -2.25979280 -2.10864019
-0.77361143 0.66429955 1.76547587
1.00163901 -2.40533328 0.38414887
0.42598280 -0.64255798 -2.20649052
0.62468386 -4.14103222 0.07932843
-1.13928926 -0.05774016 -0.53895789
0.58988935 3.99111867 -0.68550217
-0.99917275 0.16117452 1.24114430
0.50277197 -1.15096629 -2.08649898
0.80800492 -3.53639245 -0.10223880
-0.96141326 -2.38055944 0.71051401
-0.34127378 4.44104862 0.73066121
0.99615723 -0.33488226 -1.24358726
-0.23783441 4.61498547 -0.64088273
-0.24046281 -4.71149921 -0.43961188
0.28907326 3.99035525 1.25661123
0.70665276 2.43068600 1.49253929
-1.10985672 -1.51662362 -0.13964105
-1.08176541 -0.49819469 -0.87573594
0.81127828 -1.18416452 -1.62377262
-0.93921316 -0.67292970 1.38831937
-0.98198205 2.04969573 -0.83005947
-0.13726728 -2.91528106 -1.90338528
0.98902285 -2.50334096 -0.37270370
0.85307592 0.27383488 -1.63164258
-0.50951600 -2.21378374 -1.86417484
0.18270472 -1.02760160 2.31030250
-0.46304163 -4.39838505 0.46268758
-0.57504618 -2.31442142 1.75101244
-1.06639493 2.01009035 -0.03251585
-0.93323654 2.86346602 -0.35073909
-0.35873079 2.15290618 2.02105093
-0.83014721 -3.17525244 -0.65982306
0.51383030 3.47070789 1.32235765
-0.55137628 -3.96781683 0.83630550
-0.74122053 -3.74180484 0.29581508
0.74883950 2.07036257 -1.53559065
-0.75174016 1.96611238 1.56186116
-0.97727638 2.43378401 -0.56263649
0.55209601 -1.82138729 -1.91337371
-0.27187961 -0.60608286 2.30919743
0.59087634 -2.34303832 1.71969473
-0.57598120 -3.85914207 -0.88619328
-0.19958836 4.81134558 0.19495803
-0.16877435 0.10023607 -2.36768222
1.14746308 0.94623113 -0.00090492
-0.25180158 -3.36264753 -1.66250336
-0.97050422 2.59399199 0.42216629
0.94609833 1.08973300 -1.30241036
-0.21061294 1.17821920 -2.28233480
-0.59372973 -4.21963501 0.06210047
0.16142014 -3.82167888 1.46102798
-0.00247338 4.39584255 1.05834877
-1.01003277 -1.80597317 -0.82228673
-1.02776980 -1.55858326 0.85161328
0.19921687 4.49898100 0.85650784
-0.64972615 3.34227991 1.13805270
0.94716078 -1.62378407 -1.15822065
3 249 48 83
3 64 0 62
3 220 34 37
3 64 62 204
3 204 191 64
3 51 191 204
3 213 27 253
3 21 48 249
3 104 24 232
3 40 205 155
3 7 151 128
3 128 151 1
3 115 111 220
3 220 111 244
3 244 34 220
3 113 26 215
3 117 184 66
3 66 51 118
3 184 51 66
3 117 196 30
3 30 184 117
3 30 196 1
3 64 191 84
3 84 0 64
3 84 27 0
3 46 191 79
3 79 191 51
3 79 51 184
3 168 87 100
3 100 23 168
3 168 23 73
3 168 73 122
3 122 87 168
3 25 152 194
3 32 87 192
3 100 87 32
3 32 129 100
3 145 62 0
3 0 27 145
3 220 37 198
3 99 70 207
3 78 246 234
3 246 163 234
3 118 51 108
3 51 204 108
3 126 196 117
3 117 66 126
3 126 66 29
3 148 145 192
3 107 174 41
3 122 164 41
3 81 174 210
3 210 174 107
3 210 97 81
3 38 204 62
3 38 148 97
3 38 246 78
3 38 97 246
3 73 33 105
3 207 70 105
3 112 86 90
3 146 177 90
3 231 213 127
3 27 213 231
3 134 45 67
3 67 229 134
3 185 86 134
3 134 229 185
3 249 83 94
3 112 90 98
3 150 45 134
3 175 23 100
3 11 183 50
3 47 24 104
3 47 21 249
3 104 21 47
3 186 232 24
3 186 133 9
3 24 133 186
3 31 40 155
3 215 26 88
3 136 113 215
3 251 113 136
3 7 128 91
3 212 167 11
3 225 232 233
3 104 232 225
3 225 140 104
3 44 183 11
3 11 167 44
3 44 167 111
3 121 34 110
3 34 244 110
3 111 167 110
3 110 244 111
3 218 177 146
3 121 110 240
3 233 124 130
3 56 16 192
3 192 145 56
3 56 231 16
3 56 145 27
3 27 231 56
3 129 32 22
3 22 214 152
3 152 25 22
3 22 25 129
3 107 41 221
3 221 41 164
3 164 70 221
3 70 99 221
3 20 69 120
3 120 42 20
3 120 69 36
3 20 42 153
3 153 126 29
3 101 69 20
3 36 69 101
3 101 163 36
3 101 234 163
3 62 145 169
3 145 148 169
3 169 38 62
3 148 38 169
3 192 87 243
3 243 148 192
3 97 148 243
3 89 174 81
3 89 41 174
3 222 163 246
3 255 210 107
3 107 221 255
3 65 38 78
3 204 38 65
3 65 108 204
3 122 73 200
3 73 105 200
3 200 164 122
3 200 70 164
3 200 105 70
3 80 98 226
3 226 98 90
3 9 133 226
3 226 133 80
3 178 141 229
3 229 67 178
3 49 127 194
3 49 231 127
3 194 152 49
3 152 214 49
3 49 214 16
3 16 231 49
3 254 77 102
3 102 77 245
3 86 185 199
3 146 90 199
3 199 90 86
3 85 150 134
3 85 86 112
3 134 86 85
3 23 175 61
3 73 23 61
3 61 33 73
3 48 33 61
3 11 50 147
3 147 50 21
3 147 140 11
3 147 21 104
3 104 140 147
3 202 183 207
3 202 50 183
3 202 33 48
3 48 21 202
3 21 50 202
3 207 105 202
3 202 105 33
3 158 133 24
3 158 47 249
3 24 47 158
3 249 94 158
3 26 124 208
3 208 88 26
3 232 186 157
3 9 161 157
3 157 186 9
3 57 157 161
3 233 232 57
3 232 157 57
3 3 31 188
3 188 31 155
3 166 88 40
3 3 203 166
3 215 88 166
3 166 31 3
3 40 31 166
3 166 136 215
3 203 136 166
3 216 136 203
3 216 203 7
3 106 170 63
3 92 170 242
3 180 212 156
3 140 225 156
3 2 110 167
3 2 212 180
3 167 212 2
3 180 240 2
3 2 240 110
3 230 240 171
3 121 240 230
3 93 30 1
3 129 25 72
3 58 82 224
3 114 32 192
3 114 22 32
3 192 16 114
3 16 214 114
3 214 22 114
3 237 206 149
3 123 206 237
3 123 237 19
3 19 18 115
3 95 18 19
3 8 120 36
3 149 206 8
3 8 222 149
3 36 163 8
3 163 222 8
3 42 120 131
3 242 170 247
3 247 42 242
3 247 153 42
3 142 101 20
3 108 101 142
3 20 153 142
3 142 153 29
3 118 108 142
3 142 66 118
3 29 66 142
3 234 101 109
3 109 101 108
3 108 65 109
3 78 234 109
3 109 65 78
3 81 97 190
3 97 243 190
3 190 89 81
3 41 89 190
3 122 41 190
3 190 87 122
3 190 243 87
3 119 222 246
3 210 222 119
3 246 97 119
3 97 210 119
3 149 222 217
3 217 222 210
3 210 255 217
3 217 237 149
3 10 18 95
3 183 18 10
3 60 177 144
3 144 161 60
3 60 90 177
3 60 226 90
3 60 161 9
3 9 226 60
3 189 178 67
3 189 45 194
3 189 67 45
3 194 127 189
3 127 178 189
3 176 84 191
3 176 191 46
3 253 27 176
3 27 84 176
3 46 241 176
3 241 75 176
3 209 139 254
3 209 241 139
3 209 75 241
3 141 14 143
3 143 209 254
3 14 209 143
3 253 176 250
3 250 176 75
3 250 213 253
3 75 209 250
3 250 209 14
3 141 178 52
3 52 14 141
3 52 250 14
3 52 178 127
3 127 213 52
3 213 250 52
3 254 139 55
3 55 77 254
3 139 132 55
3 138 77 55
3 55 132 138
3 146 199 12
3 12 218 146
3 205 218 12
3 193 199 185
3 80 133 172
3 172 17 80
3 133 158 172
3 94 17 172
3 172 158 94
3 197 98 80
3 80 17 197
3 224 150 197
3 197 17 224
3 239 61 175
3 175 58 239
3 239 83 48
3 48 61 239
3 239 94 83
3 125 161 144
3 144 208 125
3 125 57 161
3 125 208 124
3 125 124 233
3 233 57 125
3 252 208 144
3 88 208 252
3 144 177 252
3 177 218 252
3 40 88 252
3 205 40 252
3 252 218 205
3 251 136 162
3 136 216 162
3 106 63 159
3 159 63 91
3 1 196 159
3 196 106 159
3 159 128 1
3 159 91 128
3 170 92 13
3 59 63 13
3 13 63 170
3 13 74 59
3 180 156 103
3 103 240 180
3 171 240 103
3 140 156 39
3 39 156 212
3 11 140 39
3 39 212 11
3 135 113 251
3 121 230 135
3 171 130 35
3 35 230 171
3 35 124 26
3 35 130 124
3 35 135 230
3 26 113 35
3 113 135 35
3 139 241 211
3 211 132 139
3 211 241 46
3 46 79 211
3 211 79 184
3 184 30 96
3 96 211 184
3 132 211 96
3 138 132 96
3 30 93 96
3 96 93 138
3 181 72 25
3 82 72 181
3 100 129 6
3 129 72 6
3 6 175 100
3 53 17 94
3 94 239 53
3 53 239 58
3 224 17 53
3 53 58 224
3 183 44 71
3 71 18 183
3 115 18 71
3 111 115 71
3 71 44 111
3 173 198 123
3 123 19 173
3 173 19 115
3 173 115 220
3 220 198 173
3 242 42 5
3 42 131 5
3 5 92 242
3 123 198 28
3 28 5 131
3 28 198 37
3 37 5 28
3 179 131 120
3 179 28 131
3 179 206 123
3 123 28 179
3 182 170 106
3 182 247 170
3 182 106 196
3 196 126 182
3 126 153 182
3 153 247 182
3 237 217 195
3 95 19 195
3 195 19 237
3 195 217 255
3 195 10 95
3 255 10 195
3 187 255 221
3 187 10 255
3 187 221 99
3 187 99 207
3 207 183 187
3 183 10 187
3 229 141 76
3 141 193 76
3 76 185 229
3 76 193 185
3 4 12 199
3 155 205 4
3 205 12 4
3 150 85 238
3 238 197 150
3 238 85 112
3 112 98 238
3 98 197 238
3 59 74 160
3 7 91 160
3 160 216 7
3 160 162 216
3 160 63 59
3 91 63 160
3 137 5 37
3 92 5 137
3 248 156 225
3 248 103 156
3 248 225 233
3 171 103 248
3 233 130 248
3 248 130 171
3 227 188 245
3 3 188 227
3 1 151 219
3 219 93 1
3 219 236 93
3 82 181 154
3 224 82 154
3 45 150 154
3 154 150 224
3 175 6 165
3 165 6 72
3 165 58 175
3 165 72 82
3 82 58 165
3 120 8 201
3 201 179 120
3 201 8 206
3 206 179 201
3 155 4 116
3 116 188 155
3 116 102 245
3 245 188 116
3 199 193 235
3 235 4 199
3 254 102 235
3 102 116 235
3 235 116 4
3 235 193 141
3 235 143 254
3 141 143 235
3 68 160 74
3 162 160 68
3 251 162 68
3 68 74 121
3 121 135 68
3 68 135 251
3 223 34 121
3 121 74 223
3 223 37 34
3 223 137 37
3 228 227 245
3 236 227 228
3 245 77 228
3 228 77 138
3 138 93 228
3 93 236 228
3 43 227 236
3 236 219 43
3 3 227 43
3 43 219 151
3 43 203 3
3 43 151 7
3 7 203 43
3 45 154 15
3 15 154 181
3 194 45 15
3 15 25 194
3 15 181 25
3 137 223 54
3 54 13 92
3 92 137 54
3 74 13 54
3 54 223 74