ply
format ascii 1.0
comment https://github.com/mikedh/trimesh
element vertex 256
property float x
property float y
property float z
element face 508
property list uchar int vertex_indices
end_header
0.92739868 2.97023630 0.08426522
-1.30840600 1.42164505 -0.92712188
-0.51086539 -3.14477229 -0.59700596
-1.71044564 0.65911222 -0.07377818
-1.38854635 0.81542015 0.99121261
-0.09974078 -0.42771912 -1.75968766
1.10259056 0.07540664 1.37447107
-1.58937192 0.16226205 -0.72377813
0.82295930 0.00236728 -1.56562793
-0.78531355 -2.13594079 1.16182673
0.98624521 -2.31871796 -0.87799448
0.01930268 -3.50771928 -0.10945934
-1.36140358 0.39264327 1.09078920
-0.82520998 -0.71149397 -1.52227831
-0.34620038 2.95978880 0.89065033
0.39186010 0.88144863 1.67190909
1.17724037 1.88041556 0.90097779
0.14448059 -1.51148260 1.59643638
0.56047696 -2.78082252 -0.92337519
0.52589899 -2.27165580 -1.24475420
0.32203603 1.09585452 -1.65491509
0.27890116 -3.24858546 0.61511379
1.13717997 1.28253853 1.17983353
1.32472908 -0.96203756 1.04631686
-0.38181967 -2.59911394 1.13058662
0.82702714 1.08474612 1.46349931
-1.49301684 -1.79894209 -0.11174679
0.68803364 3.08860874 0.47665045
0.23010443 -1.10935032 -1.66881835
-0.04683822 2.09444189 -1.42509675
-0.70249826 2.45054245 -1.05199063
-1.71236002 0.33349010 0.28405443
1.42955041 0.53960794 0.97801107
1.16742098 -2.16414118 0.73608249
-0.61699015 -2.20456100 -1.23188567
-1.36773193 -2.09936666 -0.29210633
0.84846073 0.66070616 -1.51456773
-0.27625844 -1.67796183 -1.53450918
1.34789813 1.99063039 -0.50553930
-0.27359429 -3.47017264 -0.03681725
-1.71867359 -0.20630535 0.27507359
1.69848800 -0.78373182 -0.04890044
0.12792335 0.56390023 -1.74773395
-1.62634897 1.12085533 -0.29321390
0.05454166 -3.24036121 -0.68574119
0.16912971 0.96087790 1.69938529
0.00338597 3.45383382 -0.32725480
-0.07223326 -3.11959839 0.81499529
0.87392598 -2.49356508 0.87892771
0.86989176 2.12439322 1.10185659
0.56252021 -3.32376266 -0.06602477
0.21426804 3.04036045 -0.86411619
-0.15515698 2.83077860 1.04024339
0.46128473 -1.35303915 1.57014775
-0.74029732 -1.13995171 -1.50091755
-0.94772154 2.93501449 0.15115876
1.27040458 2.02863407 0.65361744
-1.07038271 -2.57007313 0.52670848
0.68941498 -0.83139980 1.57636869
-1.09753489 -0.38182351 -1.36527991
-1.04271436 -1.69865346 1.13541996
1.10380530 -1.42110813 1.17182493
1.16315079 2.61412501 -0.06153011
-1.12425733 0.23954643 -1.35120952
0.81715798 3.08390617 -0.17822094
1.01724994 2.35232830 -0.81706589
-0.13396150 2.53426194 -1.22317696
-0.16418256 1.38725543 1.62301719
-1.26518106 -1.17802083 -1.06718457
0.52678424 0.92389524 -1.62687016
1.42606032 -2.01580977 0.07418378
0.28113198 -3.07055068 -0.81614047
0.91038036 0.14363852 1.51227903
1.43050492 -1.24107277 0.79715490
-1.08294225 -1.21105981 -1.24965942
-0.15606746 3.43023109 0.35085431
-0.74158913 1.60278845 1.38773775
-1.17006135 2.53016567 0.31499240
1.16383445 1.98293197 -0.86194050
0.04315370 3.33853769 -0.55268031
-0.62297273 -1.42215419 1.49470544
1.70817912 0.01432757 -0.35277268
0.65685183 -0.37805024 1.63326979
0.71743852 -2.21893191 1.16661358
0.66200709 3.25034809 0.01995100
-0.47373351 -0.00137309 1.70868921
-0.81279224 0.16970319 1.56861019
1.59087372 0.23845914 0.71596444
-1.69063306 -0.77213418 0.18475321
1.72133732 -0.40365815 -0.18792702
-1.00394797 -0.26409215 1.44520187
-1.28969419 0.63371450 -1.15024722
-0.57643908 -0.64074260 -1.64426398
-1.22995043 2.23987842 -0.54984617
0.34042770 -2.16568255 1.35437822
0.83550298 -2.21237683 -1.08606422
-0.78738755 2.80297208 -0.70960212
1.67175829 0.61777973 -0.39269277
-0.62879366 -0.94976616 1.58484387
1.31984568 -2.25284767 -0.22460014
1.35080552 -0.29300702 1.11160374
0.79686004 1.22240305 -1.45342398
-1.33044791 1.74542677 0.73319012
-0.77152860 -3.12646222 -0.19957036
-0.27553818 -3.24547291 0.62054241
1.38444698 -1.93387055 0.45585030
-0.87320602 1.20172381 -1.41166091
1.54431129 -0.99602699 -0.65123540
0.54970926 2.50533676 -1.11241734
1.00608706 1.93930197 -1.06928003
-0.42238364 -2.77800226 -0.99959123
-0.14379825 -2.70052457 -1.12632132
-0.66164637 -0.50122917 1.62350512
-1.54442573 -1.50337183 -0.31772688
1.31020498 1.27480912 0.97815049
0.08992918 -2.60192442 -1.18982840
-1.44456697 1.14633799 0.80741179
-0.46063873 2.49585986 -1.15816224
0.19356254 2.61028051 -1.17221069
1.43062222 0.30941033 -1.00196171
0.53184277 0.34557360 -1.68172634
-0.92460215 -2.09102345 -1.07228625
1.63241673 -0.91007960 0.42000270
0.44000491 -1.27155745 -1.59345627
-1.34693241 -2.18837690 0.21930665
-1.29338920 -2.14126730 0.49618369
-0.29971448 2.02571750 -1.41925526
0.43422312 2.55553675 1.13531935
-1.37261057 0.93269420 -0.98733550
1.14554465 0.55251282 1.30871069
-1.18268955 -2.58125019 -0.02709938
0.13664840 -0.42407116 -1.75691855
-0.92027640 2.90522599 -0.34522435
-0.43114609 -2.23882723 1.29709435
-0.46179926 0.58030480 1.68676960
-1.40233564 -1.83954155 -0.49739060
-1.62725973 -1.05384994 -0.34824574
-0.52631801 -1.08273447 -1.60168648
-1.09951234 2.62533283 -0.37255183
-0.65610766 3.21036506 0.27569121
-0.23949626 -3.42616725 0.31201729
-0.66924554 2.19434714 1.20787787
0.20211652 2.14967680 -1.38942635
-0.77438778 2.46342063 0.99092823
-1.36398637 -1.41844678 0.84148449
1.29891944 2.18602991 0.42600992
-1.21269703 -0.18411416 1.27196240
0.13404649 -3.46899509 0.24849965
1.53086090 1.67836428 -0.04419230
1.03415012 -0.69673818 -1.38517594
-0.21259046 -0.08701210 1.76179874
-1.51214933 0.94444382 -0.74271291
0.86778766 1.60173357 1.30959857
-0.03744404 1.35600388 -1.63746178
0.30708140 0.19526310 1.74491680
-1.62721252 0.41205537 0.60142869
-0.61056769 -3.29126048 -0.03753059
-0.90420133 -2.52274370 0.82440245
-0.15781179 -2.39123917 1.29150307
-1.06007385 1.00905371 -1.31460381
-1.25168335 -0.64823693 -1.19125080
-1.08549082 -2.16183376 0.85862458
-1.53196311 -0.86667830 -0.72453022
1.12419736 0.66760683 -1.31444788
1.57621455 -1.49821651 0.04060519
0.86620826 -0.34589478 1.53083181
-1.73088109 -0.36892268 -0.09551789
-0.20907065 -3.26724529 -0.61796540
1.54349971 -0.53637123 0.77858353
1.40076637 2.05597687 -0.19355245
-0.52672225 0.24118797 -1.68860745
-1.04990125 -2.77773881 -0.19547139
-0.00067918 -2.02952123 1.44958282
0.27521330 -2.02962208 -1.42190778
1.62099826 -0.59664023 -0.57869941
0.97715765 -1.03748000 1.37352800
0.09036259 3.43375254 0.36724171
-1.32566202 -1.09075987 1.01268339
-0.14945528 2.09121418 1.41976058
0.41248000 -0.59075606 -1.69944775
-0.60085148 -3.22612548 -0.34748998
0.68273008 0.65193468 1.60012853
-0.59454608 1.46127748 -1.49713790
0.59118360 -3.23903608 -0.33376077
-0.30882847 3.03246474 -0.84079647
-0.66045755 0.86094469 1.58449960
-0.60665035 -2.43252492 1.12259543
1.19365561 -2.29506207 -0.57420343
-1.65201223 0.97232485 0.28061667
0.07270356 1.93009675 1.48204052
1.73718846 0.15761739 -0.11714369
0.37215456 3.40176344 -0.23522621
1.47433507 1.21377742 0.72144991
-0.94585878 1.37883747 1.31881261
0.46935585 1.81846428 1.44240868
0.88849986 -1.76356781 -1.24108732
-0.77307075 1.98242235 -1.23717749
-0.19314870 -0.63591349 1.73505461
0.18463764 -1.62065554 -1.56443572
-1.15287721 0.47641566 1.30983639
1.49269605 -1.72503281 0.28500652
0.63482237 -0.46082327 -1.63703251
0.93093729 -2.96982384 0.05885511
-1.69782984 -0.04140951 -0.39986196
0.87908471 2.86231041 -0.50858563
-1.48902071 0.11558952 0.92082596
0.74925768 -0.82543838 -1.54800880
1.20413220 -2.53619456 -0.07585270
-1.43274951 -1.70726562 0.52714235
-0.50858444 3.18498659 0.54208988
1.48452675 -0.24016750 -0.92263842
-0.35443357 3.30972886 -0.47548175
-0.35835055 -3.37894583 -0.32615548
0.43079245 2.86176276 0.93230110
1.05309176 1.74321496 1.10734010
-1.65396798 -1.08767688 -0.10360205
-1.61210465 -0.35729027 -0.64972329
1.20901024 -0.84924722 -1.20470428
-1.39966571 -0.48260498 1.03001761
-1.46340215 1.46998024 -0.61583513
-0.20456304 -2.09075189 -1.41215372
1.47389472 -1.79532087 -0.27651519
1.27129936 0.19638616 -1.21054316
-0.75930798 -1.58765924 -1.38306284
0.27227634 -0.73696500 1.71405244
-0.69004941 -3.15438962 0.34327573
-0.85696453 -1.65983343 1.29910576
-1.58919871 1.44157636 -0.02412406
-1.39075899 2.05359173 -0.26021925
-0.53459984 1.54399955 1.49945188
-1.23712981 -2.27719545 -0.48953387
0.76573741 2.48908734 0.98107946
-0.82169044 -2.84559894 0.62046915
-1.10460651 -2.68351007 0.21947022
1.11596060 1.48480177 -1.13928068
-1.12028337 1.41003668 1.15877116
-1.45638955 1.74543679 -0.41742954
0.82276303 -1.30624425 -1.41956425
-0.40516955 -0.43466440 1.71323252
0.88055551 -1.68035662 1.27587056
-0.85835803 -2.76766062 -0.65748173
-0.29743725 3.45055246 0.14464265
-0.25151658 0.07188629 -1.75662351
1.71001089 0.67860854 -0.00067138
-0.37524816 -2.41158986 -1.23343933
-1.44629729 1.86033320 0.31321231
1.40992630 0.78152376 -0.96628028
-0.31386667 0.84498340 -1.69330263
-0.88480783 -3.02619553 0.04607338
0.24055693 -2.74079323 1.08396137
-0.00368596 3.15256596 0.78520679
-1.50520492 -1.29518974 -0.61006844
-1.53163755 -1.11776912 0.63182628
0.29688364 3.22653389 0.63545763
-0.96825665 2.39698267 0.84434050
1.41150963 -1.16452909 -0.85930347
3 249 48 83
3 64 0 62
3 220 34 37
3 64 62 204
3 204 191 64
3 51 191 204
3 213 27 253
3 21 48 249
3 104 24 232
3 40 205 155
3 7 151 128
3 128 151 1
3 115 111 220
3 220 111 244
3 244 34 220
3 113 26 215
3 117 184 66
3 66 51 118
3 184 51 66
3 117 196 30
3 30 184 117
3 30 196 1
3 64 191 84
3 84 0 64
3 84 27 0
3 46 191 79
3 79 191 51
3 79 51 184
3 168 87 100
3 100 23 168
3 168 23 73
3 168 73 122
3 122 87 168
3 25 152 194
3 32 87 192
3 100 87 32
3 32 129 100
3 145 62 0
3 0 27 145
3 220 37 198
3 99 70 207
3 78 246 234
3 246 163 234
3 118 51 108
3 51 204 108
3 126 196 117
3 117 66 126
3 126 66 29
3 148 145 192
3 107 174 41
3 122 164 41
3 81 174 210
3 210 174 107
3 210 97 81
3 38 204 62
3 38 148 97
3 38 246 78
3 38 97 246
3 73 33 105
3 207 70 105
3 112 86 90
3 146 177 90
3 231 213 127
3 27 213 231
3 134 45 67
3 67 229 134
3 185 86 134
3 134 229 185
3 249 83 94
3 112 90 98
3 150 45 134
3 175 23 100
3 11 183 50
3 47 24 104
3 47 21 249
3 104 21 47
3 186 232 24
3 186 133 9
3 24 133 186
3 31 40 155
3 215 26 88
3 136 113 215
3 251 113 136
3 7 128 91
3 212 167 11
3 225 232 233
3 104 232 225
3 225 140 104
3 44 183 11
3 11 167 44
3 44 167 111
3 121 34 110
3 34 244 110
3 111 167 110
3 110 244 111
3 218 177 146
3 121 110 240
3 233 124 130
3 56 16 192
3 192 145 56
3 56 231 16
3 56 145 27
3 27 231 56
3 129 32 22
3 22 214 152
3 152 25 22
3 22 25 129
3 107 41 221
3 221 41 164
3 164 70 221
3 70 99 221
3 20 69 120
3 120 42 20
3 120 69 36
3 20 42 153
3 153 126 29
3 101 69 20
3 36 69 101
3 101 163 36
3 101 234 163
3 62 145 169
3 145 148 169
3 169 38 62
3 148 38 169
3 192 87 243
3 243 148 192
3 97 148 243
3 89 174 81
3 89 41 174
3 222 163 246
3 255 210 107
3 107 221 255
3 65 38 78
3 204 38 65
3 65 108 204
3 122 73 200
3 73 105 200
3 200 164 122
3 200 70 164
3 200 105 70
3 80 98 226
3 226 98 90
3 9 133 226
3 226 133 80
3 178 141 229
3 229 67 178
3 49 127 194
3 49 231 127
3 194 152 49
3 152 214 49
3 49 214 16
3 16 231 49
3 254 77 102
3 102 77 245
3 86 185 199
3 146 90 199
3 199 90 86
3 85 150 134
3 85 86 112
3 134 86 85
3 23 175 61
3 73 23 61
3 61 33 73
3 48 33 61
3 11 50 147
3 147 50 21
3 147 140 11
3 147 21 104
3 104 140 147
3 202 183 207
3 202 50 183
3 202 33 48
3 48 21 202
3 21 50 202
3 207 105 202
3 202 105 33
3 158 133 24
3 158 47 249
3 24 47 158
3 249 94 158
3 26 124 208
3 208 88 26
3 232 186 157
3 9 161 157
3 157 186 9
3 57 157 161
3 233 232 57
3 232 157 57
3 3 31 188
3 188 31 155
3 166 88 40
3 3 203 166
3 215 88 166
3 166 31 3
3 40 31 166
3 166 136 215
3 203 136 166
3 216 136 203
3 216 203 7
3 106 170 63
3 92 170 242
3 180 212 156
3 140 225 156
3 2 110 167
3 2 212 180
3 167 212 2
3 180 240 2
3 2 240 110
3 230 240 171
3 121 240 230
3 93 30 1
3 129 25 72
3 58 82 224
3 114 32 192
3 114 22 32
3 192 16 114
3 16 214 114
3 214 22 114
3 237 206 149
3 123 206 237
3 123 237 19
3 19 18 115
3 95 18 19
3 8 120 36
3 149 206 8
3 8 222 149
3 36 163 8
3 163 222 8
3 42 120 131
3 242 170 247
3 247 42 242
3 247 153 42
3 142 101 20
3 108 101 142
3 20 153 142
3 142 153 29
3 118 108 142
3 142 66 118
3 29 66 142
3 234 101 109
3 109 101 108
3 108 65 109
3 78 234 109
3 109 65 78
3 81 97 190
3 97 243 190
3 190 89 81
3 41 89 190
3 122 41 190
3 190 87 122
3 190 243 87
3 119 222 246
3 210 222 119
3 246 97 119
3 97 210 119
3 149 222 217
3 217 222 210
3 210 255 217
3 217 237 149
3 10 18 95
3 183 18 10
3 60 177 144
3 144 161 60
3 60 90 177
3 60 226 90
3 60 161 9
3 9 226 60
3 189 178 67
3 189 45 194
3 189 67 45
3 194 127 189
3 127 178 189
3 176 84 191
3 176 191 46
3 253 27 176
3 27 84 176
3 46 241 176
3 241 75 176
3 209 139 254
3 209 241 139
3 209 75 241
3 141 14 143
3 143 209 254
3 14 209 143
3 253 176 250
3 250 176 75
3 250 213 253
3 75 209 250
3 250 209 14
3 141 178 52
3 52 14 141
3 52 250 14
3 52 178 127
3 127 213 52
3 213 250 52
3 254 139 55
3 55 77 254
3 139 132 55
3 138 77 55
3 55 132 138
3 146 199 12
3 12 218 146
3 205 218 12
3 193 199 185
3 80 133 172
3 172 17 80
3 133 158 172
3 94 17 172
3 172 158 94
3 197 98 80
3 80 17 197
3 224 150 197
3 197 17 224
3 239 61 175
3 175 58 239
3 239 83 48
3 48 61 239
3 239 94 83
3 125 161 144
3 144 208 125
3 125 57 161
3 125 208 124
3 125 124 233
3 233 57 125
3 252 208 144
3 88 208 252
3 144 177 252
3 177 218 252
3 40 88 252
3 205 40 252
3 252 218 205
3 251 136 162
3 136 216 162
3 106 63 159
3 159 63 91
3 1 196 159
3 196 106 159
3 159 128 1
3 159 91 128
3 170 92 13
3 59 63 13
3 13 63 170
3 13 74 59
3 180 156 103
3 103 240 180
3 171 240 103
3 140 156 39
3 39 156 212
3 11 140 39
3 39 212 11
3 135 113 251
3 121 230 135
3 171 130 35
3 35 230 171
3 35 124 26
3 35 130 124
3 35 135 230
3 26 113 35
3 113 135 35
3 139 241 211
3 211 132 139
3 211 241 46
3 46 79 211
3 211 79 184
3 184 30 96
3 96 211 184
3 132 211 96
3 138 132 96
3 30 93 96
3 96 93 138
3 181 72 25
3 82 72 181
3 100 129 6
3 129 72 6
3 6 175 100
3 53 17 94
3 94 239 53
3 53 239 58
3 224 17 53
3 53 58 224
3 183 44 71
3 71 18 183
3 115 18 71
3 111 115 71
3 71 44 111
3 173 198 123
3 123 19 173
3 173 19 115
3 173 115 220
3 220 198 173
3 242 42 5
3 42 131 5
3 5 92 242
3 123 198 28
3 28 5 131
3 28 198 37
3 37 5 28
3 179 131 120
3 179 28 131
3 179 206 123
3 123 28 179
3 182 170 106
3 182 247 170
3 182 106 196
3 196 126 182
3 126 153 182
3 153 247 182
3 237 217 195
3 95 19 195
3 195 19 237
3 195 217 255
3 195 10 95
3 255 10 195
3 187 255 221
3 187 10 255
3 187 221 99
3 187 99 207
3 207 183 187
3 183 10 187
3 229 141 76
3 141 193 76
3 76 185 229
3 76 193 185
3 4 12 199
3 155 205 4
3 205 12 4
3 150 85 238
3 238 197 150
3 238 85 112
3 112 98 238
3 98 197 238
3 59 74 160
3 7 91 160
3 160 216 7
3 160 162 216
3 160 63 59
3 91 63 160
3 137 5 37
3 92 5 137
3 248 156 225
3 248 103 156
3 248 225 233
3 171 103 248
3 233 130 248
3 248 130 171
3 227 188 245
3 3 188 227
3 1 151 219
3 219 93 1
3 219 236 93
3 82 181 154
3 224 82 154
3 45 150 154
3 154 150 224
3 175 6 165
3 165 6 72
3 165 58 175
3 165 72 82
3 82 58 165
3 120 8 201
3 201 179 120
3 201 8 206
3 206 179 201
3 155 4 116
3 116 188 155
3 116 102 245
3 245 188 116
3 199 193 235
3 235 4 199
3 254 102 235
3 102 116 235
3 235 116 4
3 235 193 141
3 235 143 254
3 141 143 235
3 68 160 74
3 162 160 68
3 251 162 68
3 68 74 121
3 121 135 68
3 68 135 251
3 223 34 121
3 121 74 223
3 223 37 34
3 223 137 37
3 228 227 245
3 236 227 228
3 245 77 228
3 228 77 138
3 138 93 228
3 93 236 228
3 43 227 236
3 236 219 43
3 3 227 43
3 43 219 151
3 43 203 3
3 43 151 7
3 7 203 43
3 45 154 15
3 15 154 181
3 194 45 15
3 15 25 194
3 15 181 25
3 137 223 54
3 54 13 92
3 92 137 54
3 74 13 54
3 54 223 74