ply
format ascii 1.0
comment https://github.com/mikedh/trimesh
element vertex 256
property float x
property float y
property float z
element face 508
property list uchar int vertex_indices
end_header
2.49975944 4.10675287 0.08190800
-3.52674651 1.96561635 -0.90118670
-1.37701344 -4.34807205 -0.58030540
-4.61042547 0.91131163 -0.07171432
-3.74276090 1.12742853 0.96348459
-0.26884657 -0.59137946 -1.71046233
2.97198081 0.10425986 1.33602190
-4.28407717 0.22434920 -0.70353127
2.21824789 0.00327308 -1.52183127
-2.11677551 -2.95322633 1.12932599
2.65837741 -3.20594049 -0.85343361
0.05202946 -4.84989548 -0.10639735
-3.66959906 0.54288232 1.06027555
-2.22431445 -0.98373652 -1.47969437
-0.93316674 4.09230757 0.86573541
1.05624044 1.21872175 1.62513936
3.17319560 2.59992838 0.87577397
0.38944060 -2.08982873 1.55177796
1.51073921 -3.84486246 -0.89754480
1.41753590 -3.14087105 -1.20993364
0.86803293 1.51516688 -1.60862076
0.75176489 -4.49160814 0.59790665
3.06521487 1.77328265 1.14682901
3.57074475 -1.33014691 1.01704729
-1.02917683 -3.59362602 1.09895968
2.22921252 1.49980795 1.42255962
-4.02435637 -2.48728037 -0.10862080
1.85456228 4.27041864 0.46331668
0.62023562 -1.53382671 -1.62213504
-0.12625021 2.89584851 -1.38523126
-1.89355075 3.38820577 -1.02256238
-4.61558533 0.46109512 0.27610832
3.85328555 0.74608088 0.95065236
3.14672804 -2.99221730 0.71549141
-1.66306782 -3.04810309 -1.19742513
-3.68665695 -2.90265799 -0.28393501
2.28698587 0.91351551 -1.47219944
-0.74464160 -2.32000875 -1.49158311
3.63319564 2.75231528 -0.49139744
-0.73746049 -4.79798222 -0.03578733
-4.63260365 -0.28524500 0.26737872
4.57819414 -1.08361506 -0.04753251
0.34481135 0.77966821 -1.69884312
-4.38374710 1.54973376 -0.28501159
0.14701447 -4.48023701 -0.66655833
0.45588115 1.32854342 1.65184700
0.00912673 4.77539158 -0.31810021
-0.19470133 -4.31326580 0.79219675
2.35562611 -3.44769049 0.85434073
2.34475207 2.93726063 1.07103348
1.51624656 -4.59555101 -0.06417780
0.57754940 4.20370865 -0.83994353
-0.41821831 3.91393375 1.01114380
1.24337125 -1.87075937 1.52622473
-1.99543643 -1.57613730 -1.45893109
-2.55453873 4.05805397 0.14693026
3.42431545 2.80486059 0.63533324
-2.88516617 -3.55347323 0.51197445
1.85828555 -1.14952242 1.53227162
-2.95835328 -0.52792257 -1.32708776
-2.81058717 -2.34861779 1.10365784
2.97525501 -1.96487391 1.13904452
3.13521814 3.61438084 -0.05980888
-3.03038263 0.33120531 -1.31341100
2.20261073 4.26391697 -0.17323542
2.74194908 3.25241137 -0.79420942
-0.36108688 3.50395942 -1.18895996
-0.44254631 1.91806793 1.57761514
-3.41023588 -1.62877285 -1.03733122
1.41992199 1.27740991 -1.58136034
3.84387827 -2.78712916 0.07210857
0.75777799 -4.24545097 -0.79330987
2.45388722 0.19859965 1.46997476
3.85585833 -1.71595061 0.77485543
-2.91901970 -1.67445374 -1.21470165
-0.42067245 4.74275780 0.34103954
-1.99891841 2.21607137 1.34891748
-3.15384507 3.49829555 0.30618083
3.13706064 2.74167109 -0.83782870
0.11631876 4.61597919 -0.53721970
-1.67919362 -1.96632016 1.45289266
4.60431623 0.01980980 -0.34290427
1.77051306 -0.52270550 1.58758092
1.93382168 -3.06797290 1.13397896
1.78440881 4.49404526 0.01939290
-1.27692628 -0.00189848 1.66089058
-2.19084311 0.23463757 1.52473009
4.28812504 0.32970196 0.69593614
-4.55702162 -1.06757975 0.17958495
4.63978338 -0.55811191 -0.18266997
-2.70609426 -0.36514306 1.40477395
-3.47630978 0.87619585 -1.11807036
-1.55376434 -0.88591319 -1.59826767
-3.31527328 3.09693432 -0.53446490
0.91760677 -2.99434853 1.31649101
2.25205874 -3.05890965 -1.05568278
-2.12236595 3.87548733 -0.68975186
4.50614548 0.85416389 -0.38170764
-1.69488347 -1.31317997 1.54050970
3.55758190 -3.11486602 -0.21831720
3.64103246 -0.40512174 1.08050799
2.14789844 1.69013727 -1.41276610
-3.58615947 2.41328812 0.71267998
-2.07961893 -4.32275629 -0.19398761
-0.74270010 -4.48730469 0.60318345
3.73171163 -2.67383718 0.44309843
-2.35368562 1.66154552 -1.37217128
4.16261816 -1.37714183 -0.63301784
1.48171544 3.46396637 -1.08129871
2.71185994 2.68134689 -1.03936815
-1.13851511 -3.84096313 -0.97162884
-0.38760138 -3.73383975 -1.09481382
-1.78343642 -0.69301707 1.57808948
-4.16292667 -2.07861471 -0.30883884
3.53159547 1.76259577 0.95078784
0.24239984 -3.59751177 -1.15654433
-3.89376211 1.58496702 0.78482538
-1.24162996 3.45086312 -1.12576401
0.52173871 3.60906529 -1.13941944
3.85617447 0.42780158 -0.97393298
1.43355715 0.47780219 -1.63468206
-2.49222136 -2.89112234 -1.04229021
4.40010214 -1.25830793 0.40825361
1.18601239 -1.75809991 -1.54888117
-3.63059282 -3.02572632 0.21317180
-3.48626947 -2.96059132 0.48230353
-0.80786622 2.80082774 -1.37955320
1.17042792 3.53337455 1.10356009
-3.69980693 1.28957570 -0.95971590
3.08776164 0.76392365 1.27210104
-3.18788385 -3.56892681 -0.02634131
0.36832929 -0.58633566 -1.70777082
-2.48056149 4.01686716 -0.33556712
-1.16213393 -3.09548092 1.26080966
-1.24475813 0.80234975 1.63958418
-3.77992964 -2.54341459 -0.48347667
-4.38620138 -1.45708978 -0.33850396
-1.41866541 -1.49702668 -1.55688119
-2.96368337 3.62987709 -0.36213014
-1.76850724 4.43876314 0.26797906
-0.64555085 -4.73713875 0.30328897
-1.80391979 3.03398132 1.17408884
0.54479551 2.97221851 -1.35055876
-2.08732581 3.40601158 0.96320820
-3.67656088 -1.96119416 0.81794494
3.50117588 3.02248168 0.41409278
-3.26876760 -0.25456268 1.23638082
0.36131600 -4.79635429 0.24154815
4.12636328 2.32056522 -0.04295607
2.78750277 -0.96333462 -1.34642720
-0.57302749 -0.12030597 1.71251440
-4.07592678 1.30582106 -0.72193640
2.33908081 2.21461296 1.27296400
-0.10092866 1.87485850 -1.59165573
0.82772344 0.26997760 1.69610476
-4.38607454 0.56972224 0.58460444
-1.64575636 -4.55061197 -0.03648072
-2.43723202 -3.48803377 0.80134076
-0.42537424 -3.30621099 1.25537479
-2.85737896 1.39515305 -1.27782929
-3.37385345 -0.89627510 -1.15792692
-2.92588902 -2.98902702 0.83460552
-4.12933445 -1.19829977 -0.70426232
3.03022075 0.92305660 -1.27767766
4.24861193 -2.07148671 0.03946931
2.33482361 -0.47824627 1.48800862
-4.66550827 -0.51008540 -0.09284589
-0.56354004 -4.51740789 -0.60067850
4.16043043 -0.74160564 0.75680357
3.77569938 2.84266567 -0.18813805
-1.41975498 0.33347493 -1.64137065
-2.82995915 -3.84059906 -0.19000331
-0.00183071 -2.80608726 1.40903246
0.74182445 -2.80622649 -1.38213158
4.36932421 -0.82493567 -0.56251097
2.63388228 -1.43445611 1.33510506
0.24356808 4.74762678 0.35696855
-3.57325935 -1.50812280 0.98435473
-0.40284964 2.89138579 1.38004446
1.11182034 -0.81680000 -1.65190768
-1.61956680 -4.46055412 -0.33776936
1.84026670 0.90138769 1.55536675
-1.60257089 2.02041340 -1.45525718
1.59350753 -4.47840452 -0.32442418
-0.83243257 4.19279194 -0.81727618
-1.78023219 1.19037235 1.54017508
-1.63519740 -3.36329412 1.09119213
3.21744227 -3.17323327 -0.55814075
-4.45292091 1.34437048 0.27276674
0.19596902 2.66861939 1.44058216
4.68250942 0.21792732 -0.11386673
1.00312507 4.70339727 -0.22864603
3.97400045 1.67821121 0.70126814
-2.54951763 1.90642905 1.28192031
1.26512647 2.51427245 1.40205896
2.39490938 -2.43837070 -1.20636928
-2.08377576 2.74096656 -1.20256889
-0.52062321 -0.87923628 1.68651855
0.49768201 -2.24077511 -1.52067244
-3.10752583 0.65870899 1.27319527
4.02349186 -2.38509083 0.27703381
1.71113372 -0.63715041 -1.59123838
2.50929737 -4.10618210 0.05720870
-4.57641983 -0.05725424 -0.38867629
2.36953139 3.95753050 -0.49435854
-4.01358461 0.15981813 0.89506686
2.01958871 -1.14128006 -1.50470495
3.24568129 -3.50663137 -0.07373080
-3.86190867 -2.36052537 0.51239616
-1.37086535 4.40367413 0.52692556
4.00147200 -0.33206400 -0.89682865
-0.95535892 4.57614708 -0.46218067
-0.96591699 -4.67184877 -0.31703165
1.16118073 3.95677352 0.90622103
2.83855915 2.41022992 1.07636356
-4.45819235 -1.50386012 -0.10070390
-4.34535170 -0.49400201 -0.63154805
3.25883007 -1.17419899 -1.17100418
-3.77273273 -0.66726655 1.00120401
-3.94453144 2.03244615 -0.59860790
-0.55138999 -2.89074683 -1.37265038
3.97281361 -2.48227358 -0.26877999
3.42672729 0.27153039 -1.17667961
-2.04667878 -2.19515324 -1.34437323
0.73390806 -1.01895368 1.66610372
-1.85999560 -4.36136961 0.33367300
-2.30990744 -2.29494381 1.26276481
-4.28360987 1.99317396 -0.02344922
-3.74872518 2.83936787 -0.25293991
-1.44098854 2.13478780 1.45750642
-3.33462477 -3.14853024 -0.47583973
2.06400895 3.44149947 0.95363492
-2.21482778 -3.93442488 0.60311228
-2.97741461 -3.71031499 0.21333079
3.00801921 2.05293894 -1.10741055
-3.01967096 1.94956613 1.12635589
-3.92562914 2.41330194 -0.40575242
2.21771884 -1.80605912 -1.37985361
-1.09211540 -0.60098225 1.66530681
2.37349582 -2.32331991 1.24017954
-2.31366348 -3.82666469 -0.63908947
-0.80172807 4.77085495 0.14059643
-0.67795104 0.09939251 -1.70748389
4.60925341 0.93826795 -0.00065260
-1.01146376 -3.33434844 -1.19893527
-3.89842606 2.57216191 0.30445054
3.80038977 1.08056211 -0.93924969
-0.84601277 1.16830361 -1.64593446
-2.38495779 -4.18412399 0.04478453
0.64840984 -3.78951669 1.05363882
-0.00993533 4.35884809 0.76324153
-4.05720901 -1.79077470 -0.59300244
-4.12845659 -1.54546666 0.61415166
0.80023581 4.46111870 0.61768144
-2.60989022 3.31415224 0.82072103
3.80465770 -1.61011875 -0.83526546
3 249 48 83
3 64 0 62
3 220 34 37
3 64 62 204
3 204 191 64
3 51 191 204
3 213 27 253
3 21 48 249
3 104 24 232
3 40 205 155
3 7 151 128
3 128 151 1
3 115 111 220
3 220 111 244
3 244 34 220
3 113 26 215
3 117 184 66
3 66 51 118
3 184 51 66
3 117 196 30
3 30 184 117
3 30 196 1
3 64 191 84
3 84 0 64
3 84 27 0
3 46 191 79
3 79 191 51
3 79 51 184
3 168 87 100
3 100 23 168
3 168 23 73
3 168 73 122
3 122 87 168
3 25 152 194
3 32 87 192
3 100 87 32
3 32 129 100
3 145 62 0
3 0 27 145
3 220 37 198
3 99 70 207
3 78 246 234
3 246 163 234
3 118 51 108
3 51 204 108
3 126 196 117
3 117 66 126
3 126 66 29
3 148 145 192
3 107 174 41
3 122 164 41
3 81 174 210
3 210 174 107
3 210 97 81
3 38 204 62
3 38 148 97
3 38 246 78
3 38 97 246
3 73 33 105
3 207 70 105
3 112 86 90
3 146 177 90
3 231 213 127
3 27 213 231
3 134 45 67
3 67 229 134
3 185 86 134
3 134 229 185
3 249 83 94
3 112 90 98
3 150 45 134
3 175 23 100
3 11 183 50
3 47 24 104
3 47 21 249
3 104 21 47
3 186 232 24
3 186 133 9
3 24 133 186
3 31 40 155
3 215 26 88
3 136 113 215
3 251 113 136
3 7 128 91
3 212 167 11
3 225 232 233
3 104 232 225
3 225 140 104
3 44 183 11
3 11 167 44
3 44 167 111
3 121 34 110
3 34 244 110
3 111 167 110
3 110 244 111
3 218 177 146
3 121 110 240
3 233 124 130
3 56 16 192
3 192 145 56
3 56 231 16
3 56 145 27
3 27 231 56
3 129 32 22
3 22 214 152
3 152 25 22
3 22 25 129
3 107 41 221
3 221 41 164
3 164 70 221
3 70 99 221
3 20 69 120
3 120 42 20
3 120 69 36
3 20 42 153
3 153 126 29
3 101 69 20
3 36 69 101
3 101 163 36
3 101 234 163
3 62 145 169
3 145 148 169
3 169 38 62
3 148 38 169
3 192 87 243
3 243 148 192
3 97 148 243
3 89 174 81
3 89 41 174
3 222 163 246
3 255 210 107
3 107 221 255
3 65 38 78
3 204 38 65
3 65 108 204
3 122 73 200
3 73 105 200
3 200 164 122
3 200 70 164
3 200 105 70
3 80 98 226
3 226 98 90
3 9 133 226
3 226 133 80
3 178 141 229
3 229 67 178
3 49 127 194
3 49 231 127
3 194 152 49
3 152 214 49
3 49 214 16
3 16 231 49
3 254 77 102
3 102 77 245
3 86 185 199
3 146 90 199
3 199 90 86
3 85 150 134
3 85 86 112
3 134 86 85
3 23 175 61
3 73 23 61
3 61 33 73
3 48 33 61
3 11 50 147
3 147 50 21
3 147 140 11
3 147 21 104
3 104 140 147
3 202 183 207
3 202 50 183
3 202 33 48
3 48 21 202
3 21 50 202
3 207 105 202
3 202 105 33
3 158 133 24
3 158 47 249
3 24 47 158
3 249 94 158
3 26 124 208
3 208 88 26
3 232 186 157
3 9 161 157
3 157 186 9
3 57 157 161
3 233 232 57
3 232 157 57
3 3 31 188
3 188 31 155
3 166 88 40
3 3 203 166
3 215 88 166
3 166 31 3
3 40 31 166
3 166 136 215
3 203 136 166
3 216 136 203
3 216 203 7
3 106 170 63
3 92 170 242
3 180 212 156
3 140 225 156
3 2 110 167
3 2 212 180
3 167 212 2
3 180 240 2
3 2 240 110
3 230 240 171
3 121 240 230
3 93 30 1
3 129 25 72
3 58 82 224
3 114 32 192
3 114 22 32
3 192 16 114
3 16 214 114
3 214 22 114
3 237 206 149
3 123 206 237
3 123 237 19
3 19 18 115
3 95 18 19
3 8 120 36
3 149 206 8
3 8 222 149
3 36 163 8
3 163 222 8
3 42 120 131
3 242 170 247
3 247 42 242
3 247 153 42
3 142 101 20
3 108 101 142
3 20 153 142
3 142 153 29
3 118 108 142
3 142 66 118
3 29 66 142
3 234 101 109
3 109 101 108
3 108 65 109
3 78 234 109
3 109 65 78
3 81 97 190
3 97 243 190
3 190 89 81
3 41 89 190
3 122 41 190
3 190 87 122
3 190 243 87
3 119 222 246
3 210 222 119
3 246 97 119
3 97 210 119
3 149 222 217
3 217 222 210
3 210 255 217
3 217 237 149
3 10 18 95
3 183 18 10
3 60 177 144
3 144 161 60
3 60 90 177
3 60 226 90
3 60 161 9
3 9 226 60
3 189 178 67
3 189 45 194
3 189 67 45
3 194 127 189
3 127 178 189
3 176 84 191
3 176 191 46
3 253 27 176
3 27 84 176
3 46 241 176
3 241 75 176
3 209 139 254
3 209 241 139
3 209 75 241
3 141 14 143
3 143 209 254
3 14 209 143
3 253 176 250
3 250 176 75
3 250 213 253
3 75 209 250
3 250 209 14
3 141 178 52
3 52 14 141
3 52 250 14
3 52 178 127
3 127 213 52
3 213 250 52
3 254 139 55
3 55 77 254
3 139 132 55
3 138 77 55
3 55 132 138
3 146 199 12
3 12 218 146
3 205 218 12
3 193 199 185
3 80 133 172
3 172 17 80
3 133 158 172
3 94 17 172
3 172 158 94
3 197 98 80
3 80 17 197
3 224 150 197
3 197 17 224
3 239 61 175
3 175 58 239
3 239 83 48
3 48 61 239
3 239 94 83
3 125 161 144
3 144 208 125
3 125 57 161
3 125 208 124
3 125 124 233
3 233 57 125
3 252 208 144
3 88 208 252
3 144 177 252
3 177 218 252
3 40 88 252
3 205 40 252
3 252 218 205
3 251 136 162
3 136 216 162
3 106 63 159
3 159 63 91
3 1 196 159
3 196 106 159
3 159 128 1
3 159 91 128
3 170 92 13
3 59 63 13
3 13 63 170
3 13 74 59
3 180 156 103
3 103 240 180
3 171 240 103
3 140 156 39
3 39 156 212
3 11 140 39
3 39 212 11
3 135 113 251
3 121 230 135
3 171 130 35
3 35 230 171
3 35 124 26
3 35 130 124
3 35 135 230
3 26 113 35
3 113 135 35
3 139 241 211
3 211 132 139
3 211 241 46
3 46 79 211
3 211 79 184
3 184 30 96
3 96 211 184
3 132 211 96
3 138 132 96
3 30 93 96
3 96 93 138
3 181 72 25
3 82 72 181
3 100 129 6
3 129 72 6
3 6 175 100
3 53 17 94
3 94 239 53
3 53 239 58
3 224 17 53
3 53 58 224
3 183 44 71
3 71 18 183
3 115 18 71
3 111 115 71
3 71 44 111
3 173 198 123
3 123 19 173
3 173 19 115
3 173 115 220
3 220 198 173
3 242 42 5
3 42 131 5
3 5 92 242
3 123 198 28
3 28 5 131
3 28 198 37
3 37 5 28
3 179 131 120
3 179 28 131
3 179 206 123
3 123 28 179
3 182 170 106
3 182 247 170
3 182 106 196
3 196 126 182
3 126 153 182
3 153 247 182
3 237 217 195
3 95 19 195
3 195 19 237
3 195 217 255
3 195 10 95
3 255 10 195
3 187 255 221
3 187 10 255
3 187 221 99
3 187 99 207
3 207 183 187
3 183 10 187
3 229 141 76
3 141 193 76
3 76 185 229
3 76 193 185
3 4 12 199
3 155 205 4
3 205 12 4
3 150 85 238
3 238 197 150
3 238 85 112
3 112 98 238
3 98 197 238
3 59 74 160
3 7 91 160
3 160 216 7
3 160 162 216
3 160 63 59
3 91 63 160
3 137 5 37
3 92 5 137
3 248 156 225
3 248 103 156
3 248 225 233
3 171 103 248
3 233 130 248
3 248 130 171
3 227 188 245
3 3 188 227
3 1 151 219
3 219 93 1
3 219 236 93
3 82 181 154
3 224 82 154
3 45 150 154
3 154 150 224
3 175 6 165
3 165 6 72
3 165 58 175
3 165 72 82
3 82 58 165
3 120 8 201
3 201 179 120
3 201 8 206
3 206 179 201
3 155 4 116
3 116 188 155
3 116 102 245
3 245 188 116
3 199 193 235
3 235 4 199
3 254 102 235
3 102 116 235
3 235 116 4
3 235 193 141
3 235 143 254
3 141 143 235
3 68 160 74
3 162 160 68
3 251 162 68
3 68 74 121
3 121 135 68
3 68 135 251
3 223 34 121
3 121 74 223
3 223 37 34
3 223 137 37
3 228 227 245
3 236 227 228
3 245 77 228
3 228 77 138
3 138 93 228
3 93 236 228
3 43 227 236
3 236 219 43
3 3 227 43
3 43 219 151
3 43 203 3
3 43 151 7
3 7 203 43
3 45 154 15
3 15 154 181
3 194 45 15
3 15 25 194
3 15 181 25
3 137 223 54
3 54 13 92
3 92 137 54
3 74 13 54
3 54 223 74