ply
format ascii 1.0
comment https://github.com/mikedh/trimesh
element vertex 256
property float x
property float y
property float z
element face 508
property list uchar int vertex_indices
end_header
1.53162467 1.90991259 0.20449513
-2.16086888 0.91414201 -2.24994254
-0.84370834 -2.02214217 -1.44881606
-2.82484841 0.42382041 -0.17904514
-2.29322267 0.52432907 2.40547824
-0.16472466 -0.27503070 -4.27041578
1.82095897 0.04848775 3.33557129
-2.62489200 0.10433727 -1.75646722
1.35914016 0.00152220 -3.79947114
-1.29696715 -1.37344623 2.81952524
1.62881136 -1.49097514 -2.13071990
0.03187891 -2.25552344 -0.26563630
-2.24839592 0.25247630 2.64713097
-1.36285710 -0.45750275 -3.69427037
-0.57175952 1.90319467 2.16143322
0.64716786 0.56678647 4.05739450
1.94424510 1.20913923 2.18649602
0.23861369 -0.97190911 3.87423730
0.92564327 -1.78811622 -2.24084997
0.86853677 -1.46071339 -3.02077365
0.53185147 0.70465314 -4.01615334
0.46061298 -2.08889580 1.49276018
1.87808430 0.82469416 2.86322403
2.18782687 -0.61860657 2.53920531
-0.63058579 -1.67127466 2.74371147
1.36585820 0.69751024 3.55162525
-2.46575880 -1.15675044 -0.27118748
1.13630664 1.98602796 1.15673685
0.38002387 -0.71333116 -4.04989386
-0.07735462 1.34676182 -3.45842957
-1.16019535 1.57574058 -2.55297446
-2.82801008 0.21443982 0.68934423
2.36094213 0.34697711 2.37344050
1.92802811 -1.39157963 1.78632748
-1.01897633 -1.41757023 -2.98954439
-2.25884724 -1.34992862 -0.70888466
1.40125644 0.42484534 -3.67555809
-0.45624849 -1.07895803 -3.72395229
2.22609115 1.28000927 -1.22684455
-0.45184857 -2.23138022 -0.08934823
-2.83843708 -0.13265786 0.66754955
2.80509996 -0.50395292 -0.11867177
0.21126898 0.36259747 -4.24140692
-2.68596053 0.72072905 -0.71157247
0.09007706 -2.08360744 -1.66415894
0.27932242 0.61786085 4.12407398
0.00559203 2.22087407 -0.79418308
-0.11929523 -2.00595498 1.97783339
1.44331300 -1.60340488 2.13298464
1.43665040 1.36602116 2.67398930
0.92901772 -2.13723612 -0.16022915
0.35386962 1.95500350 -2.09703994
-0.25624606 1.82023895 2.52446628
0.76182455 -0.87002724 3.81044006
-1.22262156 -0.73300844 -3.64243174
-1.56518853 1.88726437 0.36683258
2.09810853 1.30444634 1.58620095
-1.76776683 -1.65260088 1.27821803
1.13858795 -0.53460425 3.82553697
-1.81260931 -0.24551901 -3.31326604
-1.72207165 -1.09226310 2.75544095
1.82296503 -0.91379672 2.84378862
1.92097592 1.68092692 -0.14932148
-1.85674226 0.15403244 -3.27911973
1.34955907 1.98300433 -0.43250719
1.68001652 1.51258719 -1.98285830
-0.22124113 1.62957370 -2.96840978
-0.27115205 0.89202887 3.93874359
-2.08948159 -0.75748748 -2.58984709
0.86999875 0.59408039 -3.94809413
2.35517836 -1.29620004 0.18002945
0.46429726 -1.97441638 -1.98061240
1.50351846 0.09236202 3.67000389
2.36251855 -0.79803091 1.93453825
-1.78850925 -0.77873212 -3.03267789
-0.25774974 2.20569706 0.85145438
-1.22475505 1.03062034 3.36776686
-1.93238878 1.62693965 0.76442462
1.92210484 1.27505898 -2.09176016
0.07126953 2.14673662 -1.34124649
-1.02885675 -0.91446936 3.62735605
2.82110524 0.00921287 -0.85610998
1.08480906 -0.24309275 3.96362472
1.18486965 -1.42681098 2.83114171
1.09332311 2.09002924 0.04841717
-0.78238404 -0.00088292 4.14665270
-1.34234893 0.10912205 3.80670857
2.62737203 0.15333329 1.73750496
-2.79212761 -0.49649546 0.44835970
2.84283638 -0.25955907 -0.45606193
-1.65804791 -0.16981575 3.50722075
-2.12996578 0.40748921 -2.79142380
-0.95200515 -0.41200843 -3.99030566
-2.03129721 1.44027996 -1.33436859
0.56222576 -1.39257073 3.28680968
1.37985635 -1.42259598 -2.63566422
-1.30039251 1.80235875 -1.72206485
2.76095510 0.39724287 -0.95298815
-1.03847015 -0.61071581 3.84610438
2.17976189 -1.44861937 -0.54506034
2.23089290 -0.18840849 2.69764376
1.31603646 0.78602600 -3.52717423
-2.19727159 1.12233913 1.77930832
-1.27420092 -2.01036859 -0.48431805
-0.45505893 -2.08689451 1.50593448
2.28645277 -1.24351180 1.10625911
-1.44212401 0.77272892 -3.42582345
2.55047297 -0.64046234 -1.58042026
0.90786016 1.61097419 -2.69961810
1.66158068 1.24700427 -2.59493256
-0.69757831 -1.78630280 -2.42581129
-0.23748681 -1.73648334 -2.73336053
-1.09272730 -0.32229891 3.93992782
-2.55066204 -0.96669376 -0.77106065
2.16383982 0.81972396 2.37377906
0.14852053 -1.67308176 -2.88747978
-2.38574243 0.73711485 1.95942974
-0.76075763 1.60488045 -2.81063223
0.31967393 1.67845488 -2.84472489
2.36271214 0.19895613 -2.43156409
0.87835312 0.22220972 -4.08121920
-1.52700615 -1.34456372 -2.60222793
2.69598150 -0.58519667 1.01926398
0.72668034 -0.81763309 -3.86700511
-2.22449636 -1.40716362 0.53221411
-2.13606811 -1.37687135 1.20414031
-0.49498677 1.30257082 -3.44425344
0.71713156 1.64325368 2.75519681
-2.26690435 0.59973824 -2.39606905
1.89189887 0.35527518 3.17598367
-1.95324457 -1.65978789 -0.06576488
0.22567862 -0.27268499 -4.26369619
-1.51986206 1.86810982 -0.83779162
-0.71204972 -1.43960404 3.14779305
-0.76267433 0.37314588 4.09345818
-2.31599641 -1.18285656 -1.20706916
-2.68746448 -0.67764348 -0.84512389
-0.86922884 -0.69621676 -3.88697815
-1.81587505 1.68813372 -0.90411007
-1.08358002 2.06431937 0.66904837
-0.39553472 -2.20308399 0.75720459
-1.10527766 1.41100264 2.93128204
0.33380103 1.38227880 -3.37186456
-1.27892292 1.58402145 2.40478802
-2.25266123 -0.91208547 2.04211736
2.14520144 1.40565455 1.03384233
-2.00280285 -0.11838854 3.08680272
0.22138150 -2.23062301 0.60305977
2.52825928 1.07921684 -0.10724601
1.70792758 -0.44801453 -3.36154962
-0.35109904 -0.05595026 4.27553892
-2.49735665 0.60729349 -1.80241835
1.43317544 1.02994204 3.17813826
-0.06183988 0.87193364 -3.97379780
0.50715345 0.12555751 4.23457003
-2.68738651 0.26495865 1.45954931
-1.00836957 -2.11633658 -0.09107937
-1.49331355 -1.62216723 2.00066280
-0.26063055 -1.53760743 3.13422418
-1.75074136 0.64883876 -3.19028497
-2.06718993 -0.41682741 -2.89093161
-1.79271817 -1.39009595 2.08371305
-2.53007960 -0.55728894 -1.75829232
1.85664308 0.42928258 -3.18990636
2.60316205 -0.96337873 0.09854083
1.43056703 -0.22241625 3.71502805
-2.85859799 -0.23722357 -0.23180313
-0.34528598 -2.10089445 -1.49968052
2.54913259 -0.34489584 1.88946915
2.31340456 1.32202816 -0.46971375
-0.86989647 0.15508798 -4.09791851
-1.73394108 -1.78613353 -0.47437066
-0.00112169 -1.30501688 3.51785254
0.45452243 -1.30508161 -3.45069075
2.67712355 -0.38364986 -1.40438974
1.61380291 -0.66711730 3.33328247
0.14923632 2.20796132 0.89122343
-2.18936753 -0.70137721 2.45758343
-0.24682954 1.34468627 3.44547987
0.68122214 -0.37986621 -4.12422562
-0.99232286 -2.07445359 -0.84328985
1.12754774 0.41920510 3.88319731
-0.98190933 0.93962634 -3.63325930
0.97635615 -2.08275533 -0.80997175
-0.51003879 1.94992661 -2.04044771
-1.09076405 0.55360210 3.84526896
-1.00189996 -1.56415498 2.72431850
1.97135532 -1.47576416 -1.39347887
-2.72834396 0.62522149 0.68100148
0.12007196 1.24108505 3.59662104
2.86901498 0.10135067 -0.28428471
0.61462361 2.18739200 -0.57084775
2.43490529 0.78047961 1.75081706
-1.56211197 0.88661599 3.20049882
0.77515423 1.16930354 3.50044227
1.46738219 -1.13400424 -3.01187491
-1.27674782 1.27473140 -3.00238657
-0.31899044 -0.40890321 4.21063662
0.30493417 -1.04210913 -3.79657793
-1.90400863 0.30634338 3.17871547
2.46522903 -1.10922551 0.69165480
1.04842675 -0.29631722 -3.97275615
1.53746879 -1.90964735 0.14282978
-2.80401301 -0.02662702 -0.97038639
1.45183277 1.84051442 -1.23423743
-2.45915890 0.07432603 2.23466349
1.23741984 -0.53077096 -3.75671291
1.98865771 -1.63081622 -0.18407959
-2.36622572 -1.09780097 1.27927089
-0.83994132 2.04800081 1.31554556
2.45173717 -0.15443179 -2.23906207
-0.58535689 2.12821221 -1.15390074
-0.59182590 -2.17271972 -0.79151523
0.71146572 1.84016228 2.26251149
1.73921025 1.12091696 2.68729663
-2.73157406 -0.69939476 -0.25142181
-2.66243553 -0.22974372 -1.57675064
1.99671400 -0.54608041 -2.92358065
-2.31158686 -0.31032324 2.49965024
-2.41684937 0.94522232 -1.49451089
-0.33784154 -1.34438920 -3.42701936
2.43417811 -1.15442193 -0.67104799
2.09958625 0.12627965 -2.93775034
-1.25401819 -1.02089190 -3.35642147
0.44967195 -0.47388107 4.15966797
-1.13963580 -2.02832627 0.83306271
-1.41530073 -1.06730115 3.15267420
-2.62460589 0.92695814 -0.05854435
-2.29687715 1.32049453 -0.63150096
-0.88290650 0.99281806 3.63887501
-2.04315424 -1.46427560 -1.18800247
1.26463664 1.60052562 2.38088703
-1.35704458 -1.82976866 1.50575674
-1.82428837 -1.72554266 0.53261107
1.84303999 0.95475286 -2.76481009
-1.85017920 0.90667766 2.81210995
-2.40526772 1.12234557 -1.01301944
1.35881603 -0.83993733 -3.44500327
-0.66914880 -0.27949661 4.15767860
1.45426190 -1.08049798 3.09628701
-1.41760218 -1.77965307 -1.59557891
-0.49122587 2.21876407 0.35101929
-0.41538659 0.04622411 -4.26297998
2.82413054 0.43635684 -0.00162930
-0.61973280 -1.55069339 -2.99331474
-2.38860011 1.19622588 0.76010472
2.32853246 0.50253308 -2.34497213
-0.51835948 0.54333872 -4.10931253
-1.46128476 -1.94589531 0.11181105
0.39728644 -1.76237679 2.63056111
-0.00608746 2.02715373 1.90554261
-2.48588777 -0.83282906 -1.48051608
-2.52954197 -0.71874458 1.53331816
0.49031159 2.07471633 1.54213071
-1.59910274 1.54130077 2.04904842
2.33114743 -0.74881208 -2.08536053
3 249 48 83
3 64 0 62
3 220 34 37
3 64 62 204
3 204 191 64
3 51 191 204
3 213 27 253
3 21 48 249
3 104 24 232
3 40 205 155
3 7 151 128
3 128 151 1
3 115 111 220
3 220 111 244
3 244 34 220
3 113 26 215
3 117 184 66
3 66 51 118
3 184 51 66
3 117 196 30
3 30 184 117
3 30 196 1
3 64 191 84
3 84 0 64
3 84 27 0
3 46 191 79
3 79 191 51
3 79 51 184
3 168 87 100
3 100 23 168
3 168 23 73
3 168 73 122
3 122 87 168
3 25 152 194
3 32 87 192
3 100 87 32
3 32 129 100
3 145 62 0
3 0 27 145
3 220 37 198
3 99 70 207
3 78 246 234
3 246 163 234
3 118 51 108
3 51 204 108
3 126 196 117
3 117 66 126
3 126 66 29
3 148 145 192
3 107 174 41
3 122 164 41
3 81 174 210
3 210 174 107
3 210 97 81
3 38 204 62
3 38 148 97
3 38 246 78
3 38 97 246
3 73 33 105
3 207 70 105
3 112 86 90
3 146 177 90
3 231 213 127
3 27 213 231
3 134 45 67
3 67 229 134
3 185 86 134
3 134 229 185
3 249 83 94
3 112 90 98
3 150 45 134
3 175 23 100
3 11 183 50
3 47 24 104
3 47 21 249
3 104 21 47
3 186 232 24
3 186 133 9
3 24 133 186
3 31 40 155
3 215 26 88
3 136 113 215
3 251 113 136
3 7 128 91
3 212 167 11
3 225 232 233
3 104 232 225
3 225 140 104
3 44 183 11
3 11 167 44
3 44 167 111
3 121 34 110
3 34 244 110
3 111 167 110
3 110 244 111
3 218 177 146
3 121 110 240
3 233 124 130
3 56 16 192
3 192 145 56
3 56 231 16
3 56 145 27
3 27 231 56
3 129 32 22
3 22 214 152
3 152 25 22
3 22 25 129
3 107 41 221
3 221 41 164
3 164 70 221
3 70 99 221
3 20 69 120
3 120 42 20
3 120 69 36
3 20 42 153
3 153 126 29
3 101 69 20
3 36 69 101
3 101 163 36
3 101 234 163
3 62 145 169
3 145 148 169
3 169 38 62
3 148 38 169
3 192 87 243
3 243 148 192
3 97 148 243
3 89 174 81
3 89 41 174
3 222 163 246
3 255 210 107
3 107 221 255
3 65 38 78
3 204 38 65
3 65 108 204
3 122 73 200
3 73 105 200
3 200 164 122
3 200 70 164
3 200 105 70
3 80 98 226
3 226 98 90
3 9 133 226
3 226 133 80
3 178 141 229
3 229 67 178
3 49 127 194
3 49 231 127
3 194 152 49
3 152 214 49
3 49 214 16
3 16 231 49
3 254 77 102
3 102 77 245
3 86 185 199
3 146 90 199
3 199 90 86
3 85 150 134
3 85 86 112
3 134 86 85
3 23 175 61
3 73 23 61
3 61 33 73
3 48 33 61
3 11 50 147
3 147 50 21
3 147 140 11
3 147 21 104
3 104 140 147
3 202 183 207
3 202 50 183
3 202 33 48
3 48 21 202
3 21 50 202
3 207 105 202
3 202 105 33
3 158 133 24
3 158 47 249
3 24 47 158
3 249 94 158
3 26 124 208
3 208 88 26
3 232 186 157
3 9 161 157
3 157 186 9
3 57 157 161
3 233 232 57
3 232 157 57
3 3 31 188
3 188 31 155
3 166 88 40
3 3 203 166
3 215 88 166
3 166 31 3
3 40 31 166
3 166 136 215
3 203 136 166
3 216 136 203
3 216 203 7
3 106 170 63
3 92 170 242
3 180 212 156
3 140 225 156
3 2 110 167
3 2 212 180
3 167 212 2
3 180 240 2
3 2 240 110
3 230 240 171
3 121 240 230
3 93 30 1
3 129 25 72
3 58 82 224
3 114 32 192
3 114 22 32
3 192 16 114
3 16 214 114
3 214 22 114
3 237 206 149
3 123 206 237
3 123 237 19
3 19 18 115
3 95 18 19
3 8 120 36
3 149 206 8
3 8 222 149
3 36 163 8
3 163 222 8
3 42 120 131
3 242 170 247
3 247 42 242
3 247 153 42
3 142 101 20
3 108 101 142
3 20 153 142
3 142 153 29
3 118 108 142
3 142 66 118
3 29 66 142
3 234 101 109
3 109 101 108
3 108 65 109
3 78 234 109
3 109 65 78
3 81 97 190
3 97 243 190
3 190 89 81
3 41 89 190
3 122 41 190
3 190 87 122
3 190 243 87
3 119 222 246
3 210 222 119
3 246 97 119
3 97 210 119
3 149 222 217
3 217 222 210
3 210 255 217
3 217 237 149
3 10 18 95
3 183 18 10
3 60 177 144
3 144 161 60
3 60 90 177
3 60 226 90
3 60 161 9
3 9 226 60
3 189 178 67
3 189 45 194
3 189 67 45
3 194 127 189
3 127 178 189
3 176 84 191
3 176 191 46
3 253 27 176
3 27 84 176
3 46 241 176
3 241 75 176
3 209 139 254
3 209 241 139
3 209 75 241
3 141 14 143
3 143 209 254
3 14 209 143
3 253 176 250
3 250 176 75
3 250 213 253
3 75 209 250
3 250 209 14
3 141 178 52
3 52 14 141
3 52 250 14
3 52 178 127
3 127 213 52
3 213 250 52
3 254 139 55
3 55 77 254
3 139 132 55
3 138 77 55
3 55 132 138
3 146 199 12
3 12 218 146
3 205 218 12
3 193 199 185
3 80 133 172
3 172 17 80
3 133 158 172
3 94 17 172
3 172 158 94
3 197 98 80
3 80 17 197
3 224 150 197
3 197 17 224
3 239 61 175
3 175 58 239
3 239 83 48
3 48 61 239
3 239 94 83
3 125 161 144
3 144 208 125
3 125 57 161
3 125 208 124
3 125 124 233
3 233 57 125
3 252 208 144
3 88 208 252
3 144 177 252
3 177 218 252
3 40 88 252
3 205 40 252
3 252 218 205
3 251 136 162
3 136 216 162
3 106 63 159
3 159 63 91
3 1 196 159
3 196 106 159
3 159 128 1
3 159 91 128
3 170 92 13
3 59 63 13
3 13 63 170
3 13 74 59
3 180 156 103
3 103 240 180
3 171 240 103
3 140 156 39
3 39 156 212
3 11 140 39
3 39 212 11
3 135 113 251
3 121 230 135
3 171 130 35
3 35 230 171
3 35 124 26
3 35 130 124
3 35 135 230
3 26 113 35
3 113 135 35
3 139 241 211
3 211 132 139
3 211 241 46
3 46 79 211
3 211 79 184
3 184 30 96
3 96 211 184
3 132 211 96
3 138 132 96
3 30 93 96
3 96 93 138
3 181 72 25
3 82 72 181
3 100 129 6
3 129 72 6
3 6 175 100
3 53 17 94
3 94 239 53
3 53 239 58
3 224 17 53
3 53 58 224
3 183 44 71
3 71 18 183
3 115 18 71
3 111 115 71
3 71 44 111
3 173 198 123
3 123 19 173
3 173 19 115
3 173 115 220
3 220 198 173
3 242 42 5
3 42 131 5
3 5 92 242
3 123 198 28
3 28 5 131
3 28 198 37
3 37 5 28
3 179 131 120
3 179 28 131
3 179 206 123
3 123 28 179
3 182 170 106
3 182 247 170
3 182 106 196
3 196 126 182
3 126 153 182
3 153 247 182
3 237 217 195
3 95 19 195
3 195 19 237
3 195 217 255
3 195 10 95
3 255 10 195
3 187 255 221
3 187 10 255
3 187 221 99
3 187 99 207
3 207 183 187
3 183 10 187
3 229 141 76
3 141 193 76
3 76 185 229
3 76 193 185
3 4 12 199
3 155 205 4
3 205 12 4
3 150 85 238
3 238 197 150
3 238 85 112
3 112 98 238
3 98 197 238
3 59 74 160
3 7 91 160
3 160 216 7
3 160 162 216
3 160 63 59
3 91 63 160
3 137 5 37
3 92 5 137
3 248 156 225
3 248 103 156
3 248 225 233
3 171 103 248
3 233 130 248
3 248 130 171
3 227 188 245
3 3 188 227
3 1 151 219
3 219 93 1
3 219 236 93
3 82 181 154
3 224 82 154
3 45 150 154
3 154 150 224
3 175 6 165
3 165 6 72
3 165 58 175
3 165 72 82
3 82 58 165
3 120 8 201
3 201 179 120
3 201 8 206
3 206 179 201
3 155 4 116
3 116 188 155
3 116 102 245
3 245 188 116
3 199 193 235
3 235 4 199
3 254 102 235
3 102 116 235
3 235 116 4
3 235 193 141
3 235 143 254
3 141 143 235
3 68 160 74
3 162 160 68
3 251 162 68
3 68 74 121
3 121 135 68
3 68 135 251
3 223 34 121
3 121 74 223
3 223 37 34
3 223 137 37
3 228 227 245
3 236 227 228
3 245 77 228
3 228 77 138
3 138 93 228
3 93 236 228
3 43 227 236
3 236 219 43
3 3 227 43
3 43 219 151
3 43 203 3
3 43 151 7
3 7 203 43
3 45 154 15
3 15 154 181
3 194 45 15
3 15 25 194
3 15 181 25
3 137 223 54
3 54 13 92
3 92 137 54
3 74 13 54
3 54 223 74