ply
format ascii 1.0
comment https://github.com/mikedh/trimesh
element vertex 256
property float x
property float y
property float z
element face 508
property list uchar int vertex_indices
end_header
2.34177947 1.37271452 0.10738631
-3.30386305 0.65702277 -1.18150997
-1.28998888 -1.45337749 -0.76081526
-4.31905556 0.30461311 -0.09402178
-3.50622559 0.37685189 1.26318622
-0.25185597 -0.19767325 -2.24251890
2.78415728 0.03484968 1.75160491
-4.01333189 0.07499050 -0.92237175
2.07805896 0.00109405 -1.99521232
-1.98299956 -0.98713928 1.48061430
2.49037313 -1.07161093 -1.11890280
0.04874130 -1.62111592 -0.13949332
-3.43768764 0.18146271 1.39008510
-2.08374214 -0.32882169 -1.93996823
-0.87419242 1.36788619 1.13503110
0.98948807 0.40736738 2.13065529
2.97265577 0.86904663 1.14819229
0.36482871 -0.69854176 2.03447413
1.41526341 -1.28517568 -1.17673516
1.32795036 -1.04986095 -1.58629572
0.81317490 0.50645649 -2.10899854
0.70425481 -1.50135553 0.78389162
2.87149930 0.59273374 1.50356174
3.34508061 -0.44461209 1.33341014
-0.96413493 -1.20119786 1.44080222
2.08833051 0.50132269 1.86506116
-3.77002501 -0.83139306 -0.14240840
1.73735750 1.42742109 0.60743600
0.58103794 -0.51269370 -2.12671661
-0.11827144 0.96796030 -1.81612146
-1.77388203 1.13253462 -1.34064078
-4.32388926 0.15412469 0.36199462
3.60976529 0.24938342 1.24636233
2.94786096 -1.00017226 0.93805224
-1.55796516 -1.01885259 -1.56989622
-3.45366740 -0.97023636 -0.37225586
2.14245272 0.30534977 -1.93014193
-0.69758171 -0.77548128 -1.95555508
3.40358472 0.91998315 -0.64425159
-0.69085443 -1.60376346 -0.04691935
-4.33983183 -0.09534539 0.35054958
4.28886127 -0.36220691 -0.06231798
0.32301995 0.26061025 -2.22728539
-4.10670280 0.51801080 -0.37366730
0.13772345 -1.49755454 -0.87389803
0.42707035 0.44407612 2.16567063
0.00854994 1.59621239 -0.41704851
-0.18239659 -1.44174325 1.03861749
2.20675516 -1.15241778 1.12009203
2.19656825 0.98180258 1.40418923
1.42042279 -1.53609920 -0.08414096
0.54104936 1.40512288 -1.10121644
-0.39178774 1.30826330 1.32567036
1.16479254 -0.62531608 2.00097227
-1.86932874 -0.52683634 -1.91274631
-2.39309692 1.35643661 0.19263442
3.20790553 0.93754679 0.83296007
-2.70282912 -1.18777645 0.67122924
1.74084544 -0.38423696 2.00890017
-2.77139115 -0.17646228 -1.73989189
-2.63296366 -0.78504401 1.44696176
2.78722453 -0.65677458 1.49335575
2.93707848 1.20813537 -0.07841303
-2.83886838 0.11070798 -1.72196066
2.06341004 1.42524791 -0.22712204
2.56866336 1.08714426 -1.04125631
-0.33826688 1.17122614 -1.55879796
-0.41457826 0.64112931 2.06834817
-3.19471550 -0.54443020 -1.36000359
1.33018565 0.42698434 -2.07325840
3.60095263 -0.93161994 0.09453868
0.70988786 -1.41907549 -1.04007697
2.29880619 0.06638350 1.92722523
3.61217570 -0.57357007 1.01588202
-2.73454332 -0.55969936 -1.59254694
-0.39408678 1.58530426 0.44712335
-1.87259066 0.74073941 1.76851177
-2.95452833 1.16933298 0.40142149
2.93880463 0.91642523 -1.09844375
0.10896764 1.54292750 -0.70432734
-1.57307184 -0.65725803 1.90482962
4.31333208 0.00662158 -0.44956812
1.65862012 -0.17471844 2.08141398
1.81160796 -1.02549422 1.48671448
1.67163765 1.50217009 0.02542525
-1.19622695 -0.00063458 2.17752743
-2.05238605 0.07842946 1.99901283
4.01712370 0.11020549 0.91241413
-4.26902676 -0.35684696 0.23544666
4.34655809 -0.18655331 -0.23949131
-2.53507447 -0.12205195 1.84174311
-3.25661373 0.29287538 -1.46585739
-1.45556939 -0.29612347 -2.09542489
-3.10575438 1.03517473 -0.70071560
0.85961580 -1.00088465 1.72599888
2.10973310 -1.02246475 -1.38406360
-1.98823655 1.29541218 -0.90430611
4.22136593 0.28551102 -0.50044167
-1.58777010 -0.43894076 2.01970077
3.33274961 -1.04116857 -0.28622696
3.41092634 -0.13541515 1.41661084
2.01215553 0.56494170 -1.85222137
-3.35952115 0.80666065 0.93436629
-1.94819093 -1.44491541 -0.25432941
-0.69576293 -1.49991703 0.79080975
3.49587464 -0.89375120 0.58092868
-2.20493722 0.55538470 -1.79899907
3.89954877 -0.46032053 -0.82992446
1.38807392 1.15785813 -1.41764760
2.54047585 0.89626139 -1.36267412
-1.06656313 -1.28387225 -1.27386379
-0.36310574 -1.24806547 -1.43536675
-1.67072678 -0.23164642 2.06896996
-3.89983773 -0.69479334 -0.40490627
3.30840564 0.58916152 1.24654007
0.22708064 -1.20249677 -1.51629913
-3.64768386 0.52978772 1.02895331
-1.16316128 1.15347826 -1.47594428
0.48876581 1.20635867 -1.49384737
3.61247182 0.14299606 -1.27688468
1.34295905 0.15970916 -2.14316630
-2.33471775 -0.96638048 -1.36650515
4.12202406 -0.42059937 0.53524500
1.11105871 -0.58765876 -2.03067636
-3.40114641 -1.01137292 0.27948102
-3.26594400 -0.98960102 0.63232893
-0.75681061 0.93619883 -1.80867720
1.09645915 1.18105841 1.44683361
-3.46598625 0.43105087 -1.25824523
2.89262104 0.25534752 1.66780090
-2.98641562 -1.19294202 -0.03453504
0.34505159 -0.19598733 -2.23899031
-2.32379484 1.34266961 -0.43994865
-1.08868933 -1.03468895 1.65299726
-1.16609180 0.26819173 2.14959335
-3.54104543 -0.85015643 -0.63386697
-4.10900211 -0.48704377 -0.44379902
-1.32900846 -0.50039297 -2.04116464
-2.77638435 1.21331513 -0.47477436
-1.65674102 1.48369157 0.35133666
-0.60475332 -1.58342612 0.39763007
-1.68991554 1.01413226 1.53930104
0.51036549 0.99348748 -1.77066374
-1.95541084 1.13848627 1.26282382
-3.44420934 -0.65554464 1.07237494
3.27990842 1.01028836 0.54290056
-3.06218791 -0.08508959 1.62096953
0.33848152 -1.60321927 0.31668416
3.86558509 0.77566731 -0.05631799
2.61133790 -0.32200220 -1.76524699
-0.53681326 -0.04021322 2.24520922
-3.81833625 0.43648103 -0.94650203
2.19125533 0.74025190 1.66893232
-0.09455016 0.62668628 -2.08675623
0.77541292 0.09024215 2.22369528
-4.10888290 0.19043414 0.76645154
-1.54174781 -1.52107799 -0.04782841
-2.28320360 -1.16590285 1.05060589
-0.39849141 -1.10512710 1.64587176
-2.67679811 0.46634093 -1.67531109
-3.16063237 -0.29958704 -1.51811182
-2.74097848 -0.99910587 1.09421802
-3.86836839 -0.40054116 -0.92333019
2.83871675 0.30853894 -1.67511225
3.98010802 -0.69241077 0.05174664
2.18726707 -0.15985759 1.95086873
-4.37065697 -0.17050008 -0.12172654
-0.52792543 -1.50997925 -0.78752565
3.89749932 -0.24788754 0.99221498
3.53708267 0.95018345 -0.24666029
-1.33002925 0.11146663 -2.15193558
-2.65111113 -1.28375065 -0.24910575
-0.00171501 -0.93795687 1.84732628
0.69494259 -0.93800336 -1.81205750
4.09319115 -0.27574128 -0.73748571
2.46742606 -0.47947830 1.75040305
0.22817504 1.58693171 0.46800724
-3.34743619 -0.50410193 1.29054821
-0.37739033 0.96646857 1.80932128
1.04155540 -0.27302185 -2.16575027
-1.51721323 -1.49097538 -0.44283593
1.72396541 0.30129597 2.03917933
-1.50129151 0.67533916 -1.90792954
1.49280095 -1.49694216 -0.42533961
-0.77982444 1.40147388 -1.07149816
-1.66772497 0.39789134 2.01926208
-1.53185606 -1.12420762 1.43061852
3.01410604 -1.06067836 -0.73175609
-4.17150497 0.44936642 0.35761359
0.18358415 0.89200711 1.88868976
4.38658381 0.07284392 -0.14928614
0.93972951 1.57214773 -0.29976869
3.72285128 0.56095535 0.91940469
-2.38839293 0.63723898 1.68067455
1.18517292 0.84041542 1.83818352
2.24355578 -0.81504464 -1.58162272
-1.95208514 0.91618973 -1.57664001
-0.48772082 -0.29389167 2.21112704
0.46622947 -0.74899679 -1.99369299
-2.91113639 0.22017868 1.66923547
3.76921487 -0.79723543 0.36320797
1.60299337 -0.21297255 -2.08620930
2.35071468 -1.37252390 0.07500405
-4.28719902 -0.01913768 -0.50957799
2.21978140 1.32283592 -0.64813375
-3.75993395 0.05342047 1.17348647
1.89195454 -0.38148189 -1.97275865
3.04056048 -1.17211926 -0.09666552
-3.61784339 -0.78902423 0.67178214
-1.28422928 1.47196293 0.69083107
3.74858642 -0.11099502 -1.17579627
-0.89498210 1.52961338 -0.60594666
-0.90487289 -1.56160235 -0.41564754
1.08779633 1.32258284 1.18811023
2.65916777 0.80563843 1.41117728
-4.17644310 -0.50267714 -0.13202886
-4.07073402 -0.16512407 -0.82799745
3.05287838 -0.39248526 -1.53525674
-3.53430343 -0.22303912 1.31263864
-3.69524479 0.67936116 -0.78481090
-0.51654321 -0.96625501 -1.79962707
3.72173953 -0.82971954 -0.35238671
3.21016479 0.09076118 -1.54269779
-1.91733265 -0.73374730 -1.76255405
0.68752646 -0.34059331 2.18436217
-1.74244750 -1.45782220 0.43746534
-2.16392589 -0.76710314 1.65556049
-4.01289415 0.66623414 -0.03074333
-3.51181293 0.94908118 -0.33161944
-1.34992087 0.71356970 1.91087854
-3.12388301 -1.05242109 -0.62385446
1.93356764 1.15034842 1.25027263
-2.07485485 -1.31511259 0.79071641
-2.78924775 -1.24020207 0.27968949
2.81791830 0.68621105 -1.45188177
-2.82883358 0.65165788 1.47672033
-3.67753696 0.80666524 -0.53196579
2.07756329 -0.60368949 -1.80907094
-1.02309585 -0.20088306 2.18331742
2.22349548 -0.77658802 1.62594998
-2.16744447 -1.27909291 -0.83788466
-0.75106037 1.59469593 0.18433039
-0.63510585 0.03322273 -2.23861408
4.31795788 0.31362346 -0.00085559
-0.94754118 -1.11453235 -1.57187617
-3.65205312 0.85976541 0.39915296
3.56021261 0.36118641 -1.23141277
-0.79254639 0.39051473 -2.15791893
-2.23423314 -1.39857650 0.05871522
0.60743159 -1.26667595 1.38138378
-0.00930743 1.45697951 1.00065553
-3.80080104 -0.59858060 -0.77746189
-3.86754632 -0.51658446 0.80518973
0.74966246 1.49116421 0.80981749
-2.44495010 1.10778153 1.07601464
3.56421065 -0.53819489 -1.09508324
3 249 48 83
3 64 0 62
3 220 34 37
3 64 62 204
3 204 191 64
3 51 191 204
3 213 27 253
3 21 48 249
3 104 24 232
3 40 205 155
3 7 151 128
3 128 151 1
3 115 111 220
3 220 111 244
3 244 34 220
3 113 26 215
3 117 184 66
3 66 51 118
3 184 51 66
3 117 196 30
3 30 184 117
3 30 196 1
3 64 191 84
3 84 0 64
3 84 27 0
3 46 191 79
3 79 191 51
3 79 51 184
3 168 87 100
3 100 23 168
3 168 23 73
3 168 73 122
3 122 87 168
3 25 152 194
3 32 87 192
3 100 87 32
3 32 129 100
3 145 62 0
3 0 27 145
3 220 37 198
3 99 70 207
3 78 246 234
3 246 163 234
3 118 51 108
3 51 204 108
3 126 196 117
3 117 66 126
3 126 66 29
3 148 145 192
3 107 174 41
3 122 164 41
3 81 174 210
3 210 174 107
3 210 97 81
3 38 204 62
3 38 148 97
3 38 246 78
3 38 97 246
3 73 33 105
3 207 70 105
3 112 86 90
3 146 177 90
3 231 213 127
3 27 213 231
3 134 45 67
3 67 229 134
3 185 86 134
3 134 229 185
3 249 83 94
3 112 90 98
3 150 45 134
3 175 23 100
3 11 183 50
3 47 24 104
3 47 21 249
3 104 21 47
3 186 232 24
3 186 133 9
3 24 133 186
3 31 40 155
3 215 26 88
3 136 113 215
3 251 113 136
3 7 128 91
3 212 167 11
3 225 232 233
3 104 232 225
3 225 140 104
3 44 183 11
3 11 167 44
3 44 167 111
3 121 34 110
3 34 244 110
3 111 167 110
3 110 244 111
3 218 177 146
3 121 110 240
3 233 124 130
3 56 16 192
3 192 145 56
3 56 231 16
3 56 145 27
3 27 231 56
3 129 32 22
3 22 214 152
3 152 25 22
3 22 25 129
3 107 41 221
3 221 41 164
3 164 70 221
3 70 99 221
3 20 69 120
3 120 42 20
3 120 69 36
3 20 42 153
3 153 126 29
3 101 69 20
3 36 69 101
3 101 163 36
3 101 234 163
3 62 145 169
3 145 148 169
3 169 38 62
3 148 38 169
3 192 87 243
3 243 148 192
3 97 148 243
3 89 174 81
3 89 41 174
3 222 163 246
3 255 210 107
3 107 221 255
3 65 38 78
3 204 38 65
3 65 108 204
3 122 73 200
3 73 105 200
3 200 164 122
3 200 70 164
3 200 105 70
3 80 98 226
3 226 98 90
3 9 133 226
3 226 133 80
3 178 141 229
3 229 67 178
3 49 127 194
3 49 231 127
3 194 152 49
3 152 214 49
3 49 214 16
3 16 231 49
3 254 77 102
3 102 77 245
3 86 185 199
3 146 90 199
3 199 90 86
3 85 150 134
3 85 86 112
3 134 86 85
3 23 175 61
3 73 23 61
3 61 33 73
3 48 33 61
3 11 50 147
3 147 50 21
3 147 140 11
3 147 21 104
3 104 140 147
3 202 183 207
3 202 50 183
3 202 33 48
3 48 21 202
3 21 50 202
3 207 105 202
3 202 105 33
3 158 133 24
3 158 47 249
3 24 47 158
3 249 94 158
3 26 124 208
3 208 88 26
3 232 186 157
3 9 161 157
3 157 186 9
3 57 157 161
3 233 232 57
3 232 157 57
3 3 31 188
3 188 31 155
3 166 88 40
3 3 203 166
3 215 88 166
3 166 31 3
3 40 31 166
3 166 136 215
3 203 136 166
3 216 136 203
3 216 203 7
3 106 170 63
3 92 170 242
3 180 212 156
3 140 225 156
3 2 110 167
3 2 212 180
3 167 212 2
3 180 240 2
3 2 240 110
3 230 240 171
3 121 240 230
3 93 30 1
3 129 25 72
3 58 82 224
3 114 32 192
3 114 22 32
3 192 16 114
3 16 214 114
3 214 22 114
3 237 206 149
3 123 206 237
3 123 237 19
3 19 18 115
3 95 18 19
3 8 120 36
3 149 206 8
3 8 222 149
3 36 163 8
3 163 222 8
3 42 120 131
3 242 170 247
3 247 42 242
3 247 153 42
3 142 101 20
3 108 101 142
3 20 153 142
3 142 153 29
3 118 108 142
3 142 66 118
3 29 66 142
3 234 101 109
3 109 101 108
3 108 65 109
3 78 234 109
3 109 65 78
3 81 97 190
3 97 243 190
3 190 89 81
3 41 89 190
3 122 41 190
3 190 87 122
3 190 243 87
3 119 222 246
3 210 222 119
3 246 97 119
3 97 210 119
3 149 222 217
3 217 222 210
3 210 255 217
3 217 237 149
3 10 18 95
3 183 18 10
3 60 177 144
3 144 161 60
3 60 90 177
3 60 226 90
3 60 161 9
3 9 226 60
3 189 178 67
3 189 45 194
3 189 67 45
3 194 127 189
3 127 178 189
3 176 84 191
3 176 191 46
3 253 27 176
3 27 84 176
3 46 241 176
3 241 75 176
3 209 139 254
3 209 241 139
3 209 75 241
3 141 14 143
3 143 209 254
3 14 209 143
3 253 176 250
3 250 176 75
3 250 213 253
3 75 209 250
3 250 209 14
3 141 178 52
3 52 14 141
3 52 250 14
3 52 178 127
3 127 213 52
3 213 250 52
3 254 139 55
3 55 77 254
3 139 132 55
3 138 77 55
3 55 132 138
3 146 199 12
3 12 218 146
3 205 218 12
3 193 199 185
3 80 133 172
3 172 17 80
3 133 158 172
3 94 17 172
3 172 158 94
3 197 98 80
3 80 17 197
3 224 150 197
3 197 17 224
3 239 61 175
3 175 58 239
3 239 83 48
3 48 61 239
3 239 94 83
3 125 161 144
3 144 208 125
3 125 57 161
3 125 208 124
3 125 124 233
3 233 57 125
3 252 208 144
3 88 208 252
3 144 177 252
3 177 218 252
3 40 88 252
3 205 40 252
3 252 218 205
3 251 136 162
3 136 216 162
3 106 63 159
3 159 63 91
3 1 196 159
3 196 106 159
3 159 128 1
3 159 91 128
3 170 92 13
3 59 63 13
3 13 63 170
3 13 74 59
3 180 156 103
3 103 240 180
3 171 240 103
3 140 156 39
3 39 156 212
3 11 140 39
3 39 212 11
3 135 113 251
3 121 230 135
3 171 130 35
3 35 230 171
3 35 124 26
3 35 130 124
3 35 135 230
3 26 113 35
3 113 135 35
3 139 241 211
3 211 132 139
3 211 241 46
3 46 79 211
3 211 79 184
3 184 30 96
3 96 211 184
3 132 211 96
3 138 132 96
3 30 93 96
3 96 93 138
3 181 72 25
3 82 72 181
3 100 129 6
3 129 72 6
3 6 175 100
3 53 17 94
3 94 239 53
3 53 239 58
3 224 17 53
3 53 58 224
3 183 44 71
3 71 18 183
3 115 18 71
3 111 115 71
3 71 44 111
3 173 198 123
3 123 19 173
3 173 19 115
3 173 115 220
3 220 198 173
3 242 42 5
3 42 131 5
3 5 92 242
3 123 198 28
3 28 5 131
3 28 198 37
3 37 5 28
3 179 131 120
3 179 28 131
3 179 206 123
3 123 28 179
3 182 170 106
3 182 247 170
3 182 106 196
3 196 126 182
3 126 153 182
3 153 247 182
3 237 217 195
3 95 19 195
3 195 19 237
3 195 217 255
3 195 10 95
3 255 10 195
3 187 255 221
3 187 10 255
3 187 221 99
3 187 99 207
3 207 183 187
3 183 10 187
3 229 141 76
3 141 193 76
3 76 185 229
3 76 193 185
3 4 12 199
3 155 205 4
3 205 12 4
3 150 85 238
3 238 197 150
3 238 85 112
3 112 98 238
3 98 197 238
3 59 74 160
3 7 91 160
3 160 216 7
3 160 162 216
3 160 63 59
3 91 63 160
3 137 5 37
3 92 5 137
3 248 156 225
3 248 103 156
3 248 225 233
3 171 103 248
3 233 130 248
3 248 130 171
3 227 188 245
3 3 188 227
3 1 151 219
3 219 93 1
3 219 236 93
3 82 181 154
3 224 82 154
3 45 150 154
3 154 150 224
3 175 6 165
3 165 6 72
3 165 58 175
3 165 72 82
3 82 58 165
3 120 8 201
3 201 179 120
3 201 8 206
3 206 179 201
3 155 4 116
3 116 188 155
3 116 102 245
3 245 188 116
3 199 193 235
3 235 4 199
3 254 102 235
3 102 116 235
3 235 116 4
3 235 193 141
3 235 143 254
3 141 143 235
3 68 160 74
3 162 160 68
3 251 162 68
3 68 74 121
3 121 135 68
3 68 135 251
3 223 34 121
3 121 74 223
3 223 37 34
3 223 137 37
3 228 227 245
3 236 227 228
3 245 77 228
3 228 77 138
3 138 93 228
3 93 236 228
3 43 227 236
3 236 219 43
3 3 227 43
3 43 219 151
3 43 203 3
3 43 151 7
3 7 203 43
3 45 154 15
3 15 154 181
3 194 45 15
3 15 25 194
3 15 181 25
3 137 223 54
3 54 13 92
3 92 137 54
3 74 13 54
3 54 223 74