ply
format ascii 1.0
comment https://github.com/mikedh/trimesh
element vertex 256
property float x
property float y
property float z
element face 508
property list uchar int vertex_indices
end_header
1.67983937 1.29728723 0.08268899
-2.36997509 0.62092096 -0.90977949
-0.92535359 -1.37351799 -0.58583856
-3.09820771 0.28787538 -0.07239812
-2.51513696 0.35614479 0.97267139
-0.18066500 -0.18681158 -1.72677159
1.99717236 0.03293478 1.34876084
-2.87890148 0.07086995 -0.71023941
1.49066353 0.00103394 -1.53634191
-1.42247415 -0.93289834 1.14009404
1.78643072 -1.01272857 -0.86157107
0.03496382 -1.53203952 -0.10741184
-2.46597219 0.17149177 1.07038534
-1.49474025 -0.31075373 -1.49380314
-0.62708843 1.29272425 0.87399018
0.70979398 0.38498354 1.64063501
2.13238883 0.82129461 0.88412446
0.26170424 -0.66015863 1.56657410
1.01521730 -1.21455836 -0.90610290
0.95258468 -0.99217361 -1.22147036
0.58331847 0.47862795 -1.62395883
0.50518632 -1.41885972 0.60360771
2.05982566 0.56016445 1.15776396
2.39954185 -0.42018175 1.02674484
-0.69160730 -1.13519502 1.10943830
1.49803174 0.47377619 1.43612373
-2.70436931 -0.78571010 -0.10965650
1.24626660 1.34898782 0.46773440
0.41679859 -0.48452240 -1.63760209
-0.08484019 0.91477323 -1.39843941
-1.27246690 1.07030451 -1.03231251
-3.10167527 0.14565592 0.27874100
2.58940935 0.23568042 0.95971680
2.11460257 -0.94521528 0.72231358
-1.11758232 -0.96286911 -1.20884252
-2.47743487 -0.91692424 -0.28664231
1.53685546 0.28857154 -1.48623681
-0.50039947 -0.73287046 -1.50580525
2.44150901 0.86943233 -0.49608290
-0.49557376 -1.51564062 -0.03612857
-3.11311150 -0.09010640 0.26992819
3.07654834 -0.34230450 -0.04798573
0.23171337 0.24629036 -1.71504152
-2.94587970 0.48954734 -0.28772914
0.09879378 -1.41526759 -0.67291397
0.30635232 0.41967523 1.66759729
0.00613317 1.50850439 -0.32113332
-0.13083938 -1.36252296 0.79975033
1.58298171 -1.08909523 0.86248684
1.57567441 0.92785490 1.08124566
1.01891840 -1.45169425 -0.06478974
0.38811341 1.32791483 -0.84795237
-0.28104287 1.23637748 1.02078509
0.83554596 -0.59095651 1.54077721
-1.34093416 -0.49788797 -1.47284198
-1.71665108 1.28190374 0.14833124
2.30114150 0.88603085 0.64139110
-1.93883276 -1.12251103 0.51685607
1.24876857 -0.36312407 1.54688179
-1.98801470 -0.16676611 -1.33974147
-1.88871574 -0.74190778 1.11418116
1.99937260 -0.62068647 1.14990520
2.10686779 1.14175129 -0.06037915
-2.03641844 0.10462485 -1.32593429
1.48015535 1.34693396 -0.17488721
1.84259105 1.02740836 -0.80178219
-0.24265054 1.10687006 -1.20029664
-0.29739130 0.60590082 1.59265769
-2.29167986 -0.51451504 -1.04722214
0.95418817 0.40352261 -1.59643853
2.58308768 -0.88042969 0.07279613
0.50922710 -1.34110081 -0.80087405
1.64901316 0.06273589 1.48399091
2.59113836 -0.54205376 0.78224367
-1.96158242 -0.52894527 -1.22628379
-0.28269204 1.49819565 0.34429136
-1.34327400 0.70003754 1.36177933
-2.11938524 1.10508096 0.30910027
2.10810614 0.86606991 -0.84581739
0.07816625 1.45814741 -0.54234207
-1.12841880 -0.62114334 1.46674597
3.09410238 0.00625774 -0.34617385
1.18978548 -0.16511810 1.60271847
1.29952896 -0.96914577 1.14479136
1.19912338 1.41962957 0.01957781
-0.85809499 -0.00059971 1.67672718
-1.47224736 0.07411996 1.53926837
2.88162160 0.10414996 0.70257187
-3.06232047 -0.33723912 0.18129729
3.11793637 -0.17630267 -0.18441172
-1.81849647 -0.11534549 1.41816843
-2.33608174 0.27678260 -1.12873113
-1.04413021 -0.27985221 -1.61350703
-2.22786498 0.97829443 -0.53956097
0.61663210 -0.94588846 1.32904375
1.51338446 -0.96628278 -1.06574869
-1.42623079 1.22423255 -0.69632858
3.02813148 0.26982290 -0.38534722
-1.13896239 -0.41482204 1.55519831
2.39069653 -0.98395890 -0.22039884
2.44677544 -0.12797442 1.09081054
1.44338870 0.53389955 -1.42623687
-2.40990067 0.76233661 0.71947533
-1.39750469 -1.36552083 -0.19583727
-0.49909478 -1.41750026 0.60893482
2.50771165 -0.84464175 0.44732335
-1.58167768 0.52486765 -1.38525498
2.79728103 -0.43502706 -0.63905364
0.99571335 1.09423661 -1.09160888
1.82237113 0.84701401 -1.04927850
-0.76508266 -1.21332669 -0.98089325
-0.26046830 -1.17948735 -1.10525286
-1.19847000 -0.21891801 1.59313643
-2.79748845 -0.65661615 -0.31178361
2.37323380 0.55678856 0.95985359
0.16289279 -1.13642251 -1.16757190
-2.61660981 0.50067717 0.79230869
-0.83437580 1.09009743 -1.13649821
0.35060862 1.14007211 -1.15028381
2.59135079 0.13513878 -0.98321939
0.96335095 0.15093352 -1.65026867
-1.67477381 -0.91328025 -1.05222845
2.95687056 -0.39748847 0.41214630
0.79700083 -0.55536836 -1.56364965
-2.43975973 -0.95580047 0.21520437
-2.34277463 -0.93522483 0.48690230
-0.54288644 0.88475698 -1.39270723
0.78652805 1.11616206 1.11408246
-2.48627186 0.40736565 -0.96886677
2.07497716 0.24131678 1.28423047
-2.14225912 -1.12739277 -0.02659247
0.24751744 -0.18521830 -1.72405434
-1.66693842 1.26889312 -0.33876672
-0.78095448 -0.97783530 1.27283144
-0.83647794 0.25345525 1.65521753
-2.54011416 -0.80344242 -0.48808661
-2.94752932 -0.46028191 -0.34173158
-0.95334369 -0.47289762 -1.57172596
-1.99159646 1.14664638 -0.36558303
-1.18843758 1.40216637 0.27053422
-0.43381044 -1.49642062 0.30618080
-1.21223485 0.95840818 1.18528378
0.36610281 0.93889779 -1.36343622
-1.40268373 1.07592928 0.97239232
-2.47065043 -0.61952406 0.82574397
2.35279179 0.95477551 0.41804114
-2.19661331 -0.08041412 1.24816966
0.24280450 -1.51512623 0.24385130
2.77291775 0.73304629 -0.04336565
1.87320304 -0.30430898 -1.35926533
-0.38507473 -0.03800360 1.72884321
-2.73902464 0.41249746 -0.72882003
1.57186317 0.69957685 1.28510165
-0.06782410 0.59225136 -1.60683203
0.55623049 0.08528356 1.71227705
-2.94744372 0.17997026 0.59017861
-1.10594893 -1.43749857 -0.03682856
-1.63782084 -1.10183930 0.80898154
-0.28585166 -1.04440308 1.26734471
-1.92015982 0.44071662 -1.29001343
-2.26723099 -0.28312546 -1.16896772
-1.96619868 -0.94420743 0.84256351
-2.77491426 -0.37853241 -0.71097744
2.03630948 0.29158551 -1.28986025
2.85506892 -0.65436447 0.03984565
1.56900239 -0.15107381 1.50219667
-3.13522339 -0.16113152 -0.09373116
-0.37869915 -1.42700958 -0.60640597
2.79581094 -0.23426673 0.76401967
2.53727150 0.89797318 -0.18993193
-0.95407593 0.10534181 -1.65702105
-1.90173376 -1.21321166 -0.19181499
-0.00123024 -0.88641840 1.42246747
0.49850634 -0.88646239 -1.39531016
2.93618774 -0.26058996 -0.56787449
1.76996994 -0.45313212 1.34783530
0.16367784 1.49973369 0.36037225
-2.40123177 -0.47640279 0.99374050
-0.27071512 0.91336346 1.39320314
0.74714369 -0.25801998 -1.66765857
-1.08834946 -1.40904999 -0.34098998
1.23666000 0.28474048 1.57019722
-1.07692826 0.63823092 -1.46913302
1.07083774 -1.41468883 -0.32751757
-0.55939502 1.32446635 -0.82506889
-1.19631672 0.37602818 1.55486059
-1.09885335 -1.06243515 1.10159659
2.16212249 -1.00239658 -0.56346262
-2.99236465 0.42467484 0.27536756
0.13169126 0.84299350 1.45431805
3.14664817 0.06884133 -0.11495245
0.67410046 1.48576200 -0.23082615
2.67053008 0.53013223 0.70795470
-1.71327686 0.60222423 1.29414344
0.85016555 0.79423660 1.41542745
1.60938013 -0.77025998 -1.21787202
-1.40029812 0.86584735 -1.21403527
-0.34985900 -0.27774304 1.70259941
0.33444253 -0.70784122 -1.53517199
-2.08825874 0.20808040 1.28533506
2.70378804 -0.75342929 0.27967530
1.14988256 -0.20127024 -1.60641086
1.68624890 -1.29710710 0.05775419
-3.07535601 -0.01808611 -0.39238229
1.59232605 1.25014925 -0.49907225
-2.69713068 0.05048515 0.90360129
1.35716438 -0.36052036 -1.51905227
2.18109918 -1.10771418 -0.07443383
-2.59520411 -0.74566931 0.51728183
-0.92122209 1.39108205 0.53194976
2.68899059 -0.10489611 -0.90537989
-0.64200163 1.44556487 -0.46658754
-0.64909661 -1.47579610 -0.32005453
0.78031391 1.24991012 0.91486186
1.90751290 0.76137054 1.08662665
-2.99590707 -0.47505623 -0.10166411
-2.92007828 -0.15605092 -0.63756984
2.18993521 -0.37091917 -1.18216956
-2.53527808 -0.21078366 1.01075041
-2.65072680 0.64203197 -0.60431558
-0.37053430 -0.91316164 -1.38573849
2.66973233 -0.78412849 -0.27134278
2.30276227 0.08577407 -1.18789923
-1.37536895 -0.69342971 -1.35719180
0.49318650 -0.32187852 1.68199003
-1.24991786 -1.37771845 0.33685455
-1.55225873 -0.72495270 1.27480519
-2.87858772 0.62962621 -0.02367280
-2.51914477 0.89693147 -0.25535169
-0.96834493 0.67436081 1.47140372
-2.24086928 -0.99459314 -0.48037684
1.38701487 1.08713961 0.96272779
-1.48836517 -1.24285030 0.60886294
-2.00082397 -1.17205596 0.21536489
2.02139020 0.64850545 -1.11796963
-2.02922010 0.61585087 1.13709569
-2.63802433 0.76234096 -0.40962127
1.49030805 -0.57051826 -1.39301038
-0.73390198 -0.18984503 1.68118548
1.59499013 -0.73391640 1.25200462
-1.55478287 -1.20880985 -0.64518315
-0.53876156 1.50707126 0.14193702
-0.45558336 0.03139722 -1.72376478
3.09742022 0.29639062 -0.00065882
-0.67970401 -1.05329156 -1.21036708
-2.61974406 0.81252337 0.30735347
2.55386353 0.34134009 -0.94820541
-0.56852090 0.36905688 -1.66162837
-1.60269260 -1.32172811 0.04521155
0.43573168 -1.19707513 1.06368518
-0.00667654 1.37692201 0.77051902
-2.72644591 -0.56569004 -0.59865671
-2.77432466 -0.48819938 0.62000757
0.53775883 1.40922832 0.62357098
-1.75384724 1.04691172 0.82854658
2.55673146 -0.50862241 -0.84322971
3 249 48 83
3 64 0 62
3 220 34 37
3 64 62 204
3 204 191 64
3 51 191 204
3 213 27 253
3 21 48 249
3 104 24 232
3 40 205 155
3 7 151 128
3 128 151 1
3 115 111 220
3 220 111 244
3 244 34 220
3 113 26 215
3 117 184 66
3 66 51 118
3 184 51 66
3 117 196 30
3 30 184 117
3 30 196 1
3 64 191 84
3 84 0 64
3 84 27 0
3 46 191 79
3 79 191 51
3 79 51 184
3 168 87 100
3 100 23 168
3 168 23 73
3 168 73 122
3 122 87 168
3 25 152 194
3 32 87 192
3 100 87 32
3 32 129 100
3 145 62 0
3 0 27 145
3 220 37 198
3 99 70 207
3 78 246 234
3 246 163 234
3 118 51 108
3 51 204 108
3 126 196 117
3 117 66 126
3 126 66 29
3 148 145 192
3 107 174 41
3 122 164 41
3 81 174 210
3 210 174 107
3 210 97 81
3 38 204 62
3 38 148 97
3 38 246 78
3 38 97 246
3 73 33 105
3 207 70 105
3 112 86 90
3 146 177 90
3 231 213 127
3 27 213 231
3 134 45 67
3 67 229 134
3 185 86 134
3 134 229 185
3 249 83 94
3 112 90 98
3 150 45 134
3 175 23 100
3 11 183 50
3 47 24 104
3 47 21 249
3 104 21 47
3 186 232 24
3 186 133 9
3 24 133 186
3 31 40 155
3 215 26 88
3 136 113 215
3 251 113 136
3 7 128 91
3 212 167 11
3 225 232 233
3 104 232 225
3 225 140 104
3 44 183 11
3 11 167 44
3 44 167 111
3 121 34 110
3 34 244 110
3 111 167 110
3 110 244 111
3 218 177 146
3 121 110 240
3 233 124 130
3 56 16 192
3 192 145 56
3 56 231 16
3 56 145 27
3 27 231 56
3 129 32 22
3 22 214 152
3 152 25 22
3 22 25 129
3 107 41 221
3 221 41 164
3 164 70 221
3 70 99 221
3 20 69 120
3 120 42 20
3 120 69 36
3 20 42 153
3 153 126 29
3 101 69 20
3 36 69 101
3 101 163 36
3 101 234 163
3 62 145 169
3 145 148 169
3 169 38 62
3 148 38 169
3 192 87 243
3 243 148 192
3 97 148 243
3 89 174 81
3 89 41 174
3 222 163 246
3 255 210 107
3 107 221 255
3 65 38 78
3 204 38 65
3 65 108 204
3 122 73 200
3 73 105 200
3 200 164 122
3 200 70 164
3 200 105 70
3 80 98 226
3 226 98 90
3 9 133 226
3 226 133 80
3 178 141 229
3 229 67 178
3 49 127 194
3 49 231 127
3 194 152 49
3 152 214 49
3 49 214 16
3 16 231 49
3 254 77 102
3 102 77 245
3 86 185 199
3 146 90 199
3 199 90 86
3 85 150 134
3 85 86 112
3 134 86 85
3 23 175 61
3 73 23 61
3 61 33 73
3 48 33 61
3 11 50 147
3 147 50 21
3 147 140 11
3 147 21 104
3 104 140 147
3 202 183 207
3 202 50 183
3 202 33 48
3 48 21 202
3 21 50 202
3 207 105 202
3 202 105 33
3 158 133 24
3 158 47 249
3 24 47 158
3 249 94 158
3 26 124 208
3 208 88 26
3 232 186 157
3 9 161 157
3 157 186 9
3 57 157 161
3 233 232 57
3 232 157 57
3 3 31 188
3 188 31 155
3 166 88 40
3 3 203 166
3 215 88 166
3 166 31 3
3 40 31 166
3 166 136 215
3 203 136 166
3 216 136 203
3 216 203 7
3 106 170 63
3 92 170 242
3 180 212 156
3 140 225 156
3 2 110 167
3 2 212 180
3 167 212 2
3 180 240 2
3 2 240 110
3 230 240 171
3 121 240 230
3 93 30 1
3 129 25 72
3 58 82 224
3 114 32 192
3 114 22 32
3 192 16 114
3 16 214 114
3 214 22 114
3 237 206 149
3 123 206 237
3 123 237 19
3 19 18 115
3 95 18 19
3 8 120 36
3 149 206 8
3 8 222 149
3 36 163 8
3 163 222 8
3 42 120 131
3 242 170 247
3 247 42 242
3 247 153 42
3 142 101 20
3 108 101 142
3 20 153 142
3 142 153 29
3 118 108 142
3 142 66 118
3 29 66 142
3 234 101 109
3 109 101 108
3 108 65 109
3 78 234 109
3 109 65 78
3 81 97 190
3 97 243 190
3 190 89 81
3 41 89 190
3 122 41 190
3 190 87 122
3 190 243 87
3 119 222 246
3 210 222 119
3 246 97 119
3 97 210 119
3 149 222 217
3 217 222 210
3 210 255 217
3 217 237 149
3 10 18 95
3 183 18 10
3 60 177 144
3 144 161 60
3 60 90 177
3 60 226 90
3 60 161 9
3 9 226 60
3 189 178 67
3 189 45 194
3 189 67 45
3 194 127 189
3 127 178 189
3 176 84 191
3 176 191 46
3 253 27 176
3 27 84 176
3 46 241 176
3 241 75 176
3 209 139 254
3 209 241 139
3 209 75 241
3 141 14 143
3 143 209 254
3 14 209 143
3 253 176 250
3 250 176 75
3 250 213 253
3 75 209 250
3 250 209 14
3 141 178 52
3 52 14 141
3 52 250 14
3 52 178 127
3 127 213 52
3 213 250 52
3 254 139 55
3 55 77 254
3 139 132 55
3 138 77 55
3 55 132 138
3 146 199 12
3 12 218 146
3 205 218 12
3 193 199 185
3 80 133 172
3 172 17 80
3 133 158 172
3 94 17 172
3 172 158 94
3 197 98 80
3 80 17 197
3 224 150 197
3 197 17 224
3 239 61 175
3 175 58 239
3 239 83 48
3 48 61 239
3 239 94 83
3 125 161 144
3 144 208 125
3 125 57 161
3 125 208 124
3 125 124 233
3 233 57 125
3 252 208 144
3 88 208 252
3 144 177 252
3 177 218 252
3 40 88 252
3 205 40 252
3 252 218 205
3 251 136 162
3 136 216 162
3 106 63 159
3 159 63 91
3 1 196 159
3 196 106 159
3 159 128 1
3 159 91 128
3 170 92 13
3 59 63 13
3 13 63 170
3 13 74 59
3 180 156 103
3 103 240 180
3 171 240 103
3 140 156 39
3 39 156 212
3 11 140 39
3 39 212 11
3 135 113 251
3 121 230 135
3 171 130 35
3 35 230 171
3 35 124 26
3 35 130 124
3 35 135 230
3 26 113 35
3 113 135 35
3 139 241 211
3 211 132 139
3 211 241 46
3 46 79 211
3 211 79 184
3 184 30 96
3 96 211 184
3 132 211 96
3 138 132 96
3 30 93 96
3 96 93 138
3 181 72 25
3 82 72 181
3 100 129 6
3 129 72 6
3 6 175 100
3 53 17 94
3 94 239 53
3 53 239 58
3 224 17 53
3 53 58 224
3 183 44 71
3 71 18 183
3 115 18 71
3 111 115 71
3 71 44 111
3 173 198 123
3 123 19 173
3 173 19 115
3 173 115 220
3 220 198 173
3 242 42 5
3 42 131 5
3 5 92 242
3 123 198 28
3 28 5 131
3 28 198 37
3 37 5 28
3 179 131 120
3 179 28 131
3 179 206 123
3 123 28 179
3 182 170 106
3 182 247 170
3 182 106 196
3 196 126 182
3 126 153 182
3 153 247 182
3 237 217 195
3 95 19 195
3 195 19 237
3 195 217 255
3 195 10 95
3 255 10 195
3 187 255 221
3 187 10 255
3 187 221 99
3 187 99 207
3 207 183 187
3 183 10 187
3 229 141 76
3 141 193 76
3 76 185 229
3 76 193 185
3 4 12 199
3 155 205 4
3 205 12 4
3 150 85 238
3 238 197 150
3 238 85 112
3 112 98 238
3 98 197 238
3 59 74 160
3 7 91 160
3 160 216 7
3 160 162 216
3 160 63 59
3 91 63 160
3 137 5 37
3 92 5 137
3 248 156 225
3 248 103 156
3 248 225 233
3 171 103 248
3 233 130 248
3 248 130 171
3 227 188 245
3 3 188 227
3 1 151 219
3 219 93 1
3 219 236 93
3 82 181 154
3 224 82 154
3 45 150 154
3 154 150 224
3 175 6 165
3 165 6 72
3 165 58 175
3 165 72 82
3 82 58 165
3 120 8 201
3 201 179 120
3 201 8 206
3 206 179 201
3 155 4 116
3 116 188 155
3 116 102 245
3 245 188 116
3 199 193 235
3 235 4 199
3 254 102 235
3 102 116 235
3 235 116 4
3 235 193 141
3 235 143 254
3 141 143 235
3 68 160 74
3 162 160 68
3 251 162 68
3 68 74 121
3 121 135 68
3 68 135 251
3 223 34 121
3 121 74 223
3 223 37 34
3 223 137 37
3 228 227 245
3 236 227 228
3 245 77 228
3 228 77 138
3 138 93 228
3 93 236 228
3 43 227 236
3 236 219 43
3 3 227 43
3 43 219 151
3 43 203 3
3 43 151 7
3 7 203 43
3 45 154 15
3 15 154 181
3 194 45 15
3 15 25 194
3 15 181 25
3 137 223 54
3 54 13 92
3 92 137 54
3 74 13 54
3 54 223 74