ply
format ascii 1.0
comment https://github.com/mikedh/trimesh
element vertex 256
property float x
property float y
property float z
element face 508
property list uchar int vertex_indices
end_header
2.37140274 1.13441336 0.12160647
-3.34565663 0.54296464 -1.33796620
-1.30630720 -1.20107329 -0.86156285
-4.37369108 0.25173274 -0.10647220
-3.55057931 0.31143096 1.43045807
-0.25504193 -0.16335747 -2.53947449
2.81937671 0.02879983 1.98355341
-4.06410027 0.06197226 -1.04451275
2.10434628 0.00090413 -2.25941944
-2.00808430 -0.81577337 1.67667806
2.52187610 -0.88558090 -1.26706851
0.04935787 -1.33969259 -0.15796509
-3.48117423 0.14996105 1.57416093
-2.11010122 -0.27173874 -2.19685984
-0.88525093 1.13042319 1.28533256
1.00200498 0.33664900 2.41279793
3.01025987 0.71818143 1.30023658
0.36944374 -0.57727599 2.30388021
1.43316638 -1.06207108 -1.33255911
1.34474885 -0.86760664 -1.79635394
0.82346153 0.41853642 -2.38827324
0.71316355 -1.24072242 0.88769495
2.90782356 0.48983607 1.70266426
3.38739562 -0.36742809 1.50998104
-0.97633117 -0.99267173 1.63159406
2.11474776 0.41429380 2.11203361
-3.81771564 -0.68706447 -0.16126619
1.75933492 1.17962301 0.68787307
0.58838803 -0.42369083 -2.40833759
-0.11976757 0.79992384 -2.05661321
-1.79632151 0.93592829 -1.51816916
-4.37858629 0.12736887 0.40993014
3.65542865 0.20609084 1.41140640
2.98515129 -0.82654387 1.06226969
-1.57767332 -0.84198129 -1.77778280
-3.49735594 -0.80180478 -0.42155018
2.16955471 0.25234151 -2.18573236
-0.70640606 -0.64085889 -2.21451068
3.44663978 0.76027542 -0.72956371
-0.69959366 -1.32535255 -0.05313243
-4.39473057 -0.07879358 0.39696956
4.34311485 -0.29932833 -0.07057016
0.32710612 0.21536870 -2.52222395
-4.15865231 0.42808488 -0.42314854
0.13946563 -1.23758137 -0.98962009
0.43247277 0.36698517 2.45245004
0.00865810 1.31911230 -0.47227430
-0.18470389 -1.19145870 1.17615187
2.23467040 -0.95235980 1.26841521
2.22435474 0.81136310 1.59013271
1.43839097 -1.26943469 -0.09528295
0.54789358 1.16119564 -1.24704015
-0.39674380 1.08115077 1.50121629
1.17952704 -0.51676214 2.26594234
-1.89297557 -0.43537834 -2.16603327
-2.42336941 1.12096119 0.21814317
3.24848533 0.77479005 0.94326109
-2.73701978 -0.98158026 0.76011384
1.76286709 -0.31753400 2.27491999
-2.80644917 -0.14582869 -1.97028935
-2.66627049 -0.64876157 1.63856924
2.82248282 -0.54275954 1.69110680
2.97423220 0.99840486 -0.08879653
-2.87477994 0.09148925 -1.94998372
2.08951211 1.17782700 -0.25719768
2.60115671 0.89841759 -1.17913997
-0.34254596 0.96790302 -1.76521480
-0.41982263 0.52983028 2.34224010
-3.23512840 -0.44991791 -1.54009604
1.34701240 0.35286051 -2.34780049
3.64650440 -0.76989210 0.10705754
0.71886790 -1.17272615 -1.17780447
2.32788610 0.05485943 2.18242955
3.65786934 -0.47399917 1.15040576
-2.76913524 -0.46253639 -1.80343282
-0.39907193 1.31009781 0.50633168
-1.89627874 0.61214811 2.00269914
-2.99190283 0.96633852 0.45457795
2.97598028 0.75733519 -1.24390030
0.11034607 1.27507758 -0.79759479
-1.59297109 -0.54315901 2.15706825
4.36789560 0.00547208 -0.50910020
1.67960155 -0.14438759 2.35703611
1.83452463 -0.84746993 1.68358612
1.69278371 1.24139571 0.02879208
-1.21135914 -0.00052442 2.46587682
-2.07834864 0.06481422 2.26372313
4.06794024 0.09107397 1.03323650
-4.32302952 -0.29489887 0.26662463
4.40154171 -0.15416794 -0.27120489
-2.56714296 -0.10086391 2.08562779
-3.29780984 0.24203266 -1.65996706
-1.47398221 -0.24471690 -2.37290239
-3.14504194 0.85547000 -0.79350471
0.87048990 -0.82713252 1.95455658
2.13642097 -0.84496635 -1.56734204
-2.01338768 1.07053065 -1.02405488
4.27476597 0.23594673 -0.56671041
-1.60785532 -0.36274132 2.28715062
3.37490869 -0.86042327 -0.32412931
3.45407438 -0.11190728 1.60419929
2.03760910 0.46686870 -2.09749341
-3.40201879 0.66662556 1.05809557
-1.97283542 -1.19408023 -0.28800786
-0.70456427 -1.23953366 0.89552921
3.54009724 -0.73859733 0.65785557
-2.23282957 0.45897076 -2.03722358
3.94887781 -0.38040960 -0.93982351
1.40563285 0.95685565 -1.60537338
2.57261252 0.74067175 -1.54312027
-1.08005512 -1.06099403 -1.44254947
-0.36769900 -1.03140318 -1.62543881
-1.69186127 -0.19143295 2.34294415
-3.94917035 -0.57417828 -0.45852420
3.35025668 0.48688400 1.41160762
0.22995320 -0.99374509 -1.71708834
-3.69382691 0.43781739 1.16520786
-1.17787528 0.95323616 -1.67138970
0.49494869 0.99693656 -1.69166350
3.65816927 0.11817215 -1.44597042
1.35994744 0.13198389 -2.42696571
-2.36425185 -0.79861826 -1.54745853
4.17416763 -0.34758395 0.60612243
1.12511361 -0.48564208 -2.29957962
-3.44417048 -0.83580011 0.31649005
-3.30725789 -0.81780773 0.71606225
-0.76638424 0.77367610 -2.04818320
1.11032927 0.97602844 1.63842404
-3.50983071 0.35622108 -1.42486274
2.92921257 0.21101956 1.88865209
-3.02419353 -0.98584908 -0.03910819
0.34941646 -0.16196422 -2.53547859
-2.35319066 1.10958409 -0.49820688
-1.10246110 -0.85506845 1.87188804
-1.18084276 0.22163405 2.43424368
-3.58583927 -0.70257056 -0.71780401
-4.16098070 -0.40249372 -0.50256711
-1.34582031 -0.41352549 -2.31145692
-2.81150556 1.00268543 -0.53764427
-1.67769861 1.22612500 0.39786085
-0.61240339 -1.30854571 0.45028445
-1.71129286 0.83808041 1.74313617
0.51682156 0.82101953 -2.00513601
-1.98014665 0.94084680 1.43004763
-3.48777819 -0.54174310 1.21437943
3.32139897 0.83490384 0.61479175
-3.10092449 -0.07031816 1.83561921
0.34276327 -1.32490277 0.35861963
3.91448450 0.64101261 -0.06377564
2.64437127 -0.26610312 -1.99900198
-0.54360396 -0.03323227 2.54252124
-3.86663795 0.36070856 -1.07183838
2.21897459 0.61174530 1.88993335
-0.09574621 0.51789445 -2.36308575
0.78522182 0.07457624 2.51815820
-4.16086006 0.15737507 0.86794549
-1.56125081 -1.25702119 -0.05416188
-2.31208587 -0.96350390 1.18972766
-0.40353230 -0.91327870 1.86381900
-2.71065950 0.38538483 -1.89715660
-3.20061421 -0.24757917 -1.71914101
-2.77565169 -0.82566261 1.23911500
-3.91730285 -0.33100781 -1.04559815
2.87462616 0.25497705 -1.89693153
4.03045607 -0.57220930 0.05859896
2.21493602 -0.13210656 2.20920372
-4.42594576 -0.14090152 -0.13784564
-0.53460366 -1.24784911 -0.89181024
3.94680262 -0.20485464 1.12360466
3.58182645 0.78523302 -0.27932319
-1.34685397 0.09211619 -2.43689609
-2.68464756 -1.06089342 -0.28209248
-0.00173671 -0.77512896 2.09195018
0.70373356 -0.77516741 -2.05201125
4.14496994 -0.22787300 -0.83514392
2.49863887 -0.39624158 1.98219240
0.23106144 1.31144273 0.52998102
-3.38978100 -0.41659063 1.46144331
-0.38216430 0.79869109 2.04891253
1.05473101 -0.22562568 -2.45254016
-1.53640592 -1.23214436 -0.50147647
1.74577343 0.24899143 2.30920863
-1.52028275 0.55810130 -2.16057873
1.51168478 -1.23707521 -0.48166332
-0.78968918 1.15818012 -1.21338654
-1.68882155 0.32881799 2.28665376
-1.55123389 -0.92904693 1.62006176
3.05223441 -0.87654614 -0.82865560
-4.22427416 0.37135708 0.40496898
0.18590648 0.73715597 2.13879108
4.44207382 0.06019833 -0.16905469
0.95161700 1.29922521 -0.33946422
3.76994514 0.46357435 1.04115283
-2.41860604 0.52661520 1.90323043
1.20016527 0.69452053 2.08159685
2.27193666 -0.67355412 -1.79106200
-1.97677886 0.75714058 -1.78541958
-0.49389043 -0.24287251 2.50392580
0.47212723 -0.61897206 -2.25769901
-2.94796205 0.18195599 1.89027655
3.81689525 -0.65883654 0.41130418
1.62327111 -0.17600083 -2.36246610
2.38045120 -1.13425577 0.08493613
-4.34143209 -0.01581541 -0.57705659
2.24786162 1.09319353 -0.73396003
-3.80749702 0.04414676 1.32888019
1.91588759 -0.31525719 -2.23399258
3.07902336 -0.96864104 -0.10946602
-3.66360903 -0.65205079 0.76073992
-1.30047476 1.21643233 0.78231132
3.79600596 -0.09172644 -1.33149588
-0.90630358 1.26407480 -0.68618643
-0.91631949 -1.29051054 -0.47068784
1.10155690 1.09298444 1.34544051
2.69280601 0.66578078 1.59804618
-4.22927523 -0.41541311 -0.14951220
-4.12222862 -0.13645878 -0.93764132
3.09149694 -0.32435042 -1.73855639
-3.57901216 -0.18431985 1.48645902
-3.74198937 0.56142509 -0.88873601
-0.52307743 -0.79851460 -2.03793478
3.76881933 -0.68568146 -0.39904997
3.25077319 0.07500517 -1.74698269
-1.94158673 -0.60636985 -1.99595249
0.69622362 -0.28146681 2.47361660
-1.76448929 -1.20474648 0.49539474
-2.19129920 -0.63393515 1.87479079
-4.06365728 0.55057687 -0.03481438
-3.55623722 0.78432208 -0.37553266
-1.36699736 0.58969510 2.16391826
-3.16339993 -0.86972243 -0.70646566
1.95802712 0.95064962 1.41583443
-2.10110164 -1.08681095 0.89542353
-2.82453156 -1.02490485 0.31672612
2.85356474 0.56708586 -1.64414084
-2.86461806 0.53853106 1.67226839
-3.72405767 0.66662937 -0.60240901
2.10384440 -0.49888992 -2.04862905
-1.03603792 -0.16601007 2.47243333
2.25162244 -0.64177352 1.84125912
-2.19486260 -1.05704427 -0.94883782
-0.76056129 1.31785905 0.20873952
-0.64313990 0.02745532 -2.53505254
4.37257957 0.25917891 -0.00096889
-0.95952749 -0.92105120 -1.78002489
-3.69825149 0.71051139 0.45200902
3.60524893 0.29848501 -1.39447713
-0.80257207 0.32272196 -2.44367194
-2.26249599 -1.15578568 0.06649031
0.61511552 -1.04678285 1.56430745
-0.00942517 1.20405006 1.13316286
-3.84888101 -0.49466789 -0.88041377
-3.91647053 -0.42690617 0.91181338
0.75914568 1.23230028 0.91705394
-2.47587848 0.91547239 1.21850109
3.60929775 -0.44476506 -1.24009478
3 249 48 83
3 64 0 62
3 220 34 37
3 64 62 204
3 204 191 64
3 51 191 204
3 213 27 253
3 21 48 249
3 104 24 232
3 40 205 155
3 7 151 128
3 128 151 1
3 115 111 220
3 220 111 244
3 244 34 220
3 113 26 215
3 117 184 66
3 66 51 118
3 184 51 66
3 117 196 30
3 30 184 117
3 30 196 1
3 64 191 84
3 84 0 64
3 84 27 0
3 46 191 79
3 79 191 51
3 79 51 184
3 168 87 100
3 100 23 168
3 168 23 73
3 168 73 122
3 122 87 168
3 25 152 194
3 32 87 192
3 100 87 32
3 32 129 100
3 145 62 0
3 0 27 145
3 220 37 198
3 99 70 207
3 78 246 234
3 246 163 234
3 118 51 108
3 51 204 108
3 126 196 117
3 117 66 126
3 126 66 29
3 148 145 192
3 107 174 41
3 122 164 41
3 81 174 210
3 210 174 107
3 210 97 81
3 38 204 62
3 38 148 97
3 38 246 78
3 38 97 246
3 73 33 105
3 207 70 105
3 112 86 90
3 146 177 90
3 231 213 127
3 27 213 231
3 134 45 67
3 67 229 134
3 185 86 134
3 134 229 185
3 249 83 94
3 112 90 98
3 150 45 134
3 175 23 100
3 11 183 50
3 47 24 104
3 47 21 249
3 104 21 47
3 186 232 24
3 186 133 9
3 24 133 186
3 31 40 155
3 215 26 88
3 136 113 215
3 251 113 136
3 7 128 91
3 212 167 11
3 225 232 233
3 104 232 225
3 225 140 104
3 44 183 11
3 11 167 44
3 44 167 111
3 121 34 110
3 34 244 110
3 111 167 110
3 110 244 111
3 218 177 146
3 121 110 240
3 233 124 130
3 56 16 192
3 192 145 56
3 56 231 16
3 56 145 27
3 27 231 56
3 129 32 22
3 22 214 152
3 152 25 22
3 22 25 129
3 107 41 221
3 221 41 164
3 164 70 221
3 70 99 221
3 20 69 120
3 120 42 20
3 120 69 36
3 20 42 153
3 153 126 29
3 101 69 20
3 36 69 101
3 101 163 36
3 101 234 163
3 62 145 169
3 145 148 169
3 169 38 62
3 148 38 169
3 192 87 243
3 243 148 192
3 97 148 243
3 89 174 81
3 89 41 174
3 222 163 246
3 255 210 107
3 107 221 255
3 65 38 78
3 204 38 65
3 65 108 204
3 122 73 200
3 73 105 200
3 200 164 122
3 200 70 164
3 200 105 70
3 80 98 226
3 226 98 90
3 9 133 226
3 226 133 80
3 178 141 229
3 229 67 178
3 49 127 194
3 49 231 127
3 194 152 49
3 152 214 49
3 49 214 16
3 16 231 49
3 254 77 102
3 102 77 245
3 86 185 199
3 146 90 199
3 199 90 86
3 85 150 134
3 85 86 112
3 134 86 85
3 23 175 61
3 73 23 61
3 61 33 73
3 48 33 61
3 11 50 147
3 147 50 21
3 147 140 11
3 147 21 104
3 104 140 147
3 202 183 207
3 202 50 183
3 202 33 48
3 48 21 202
3 21 50 202
3 207 105 202
3 202 105 33
3 158 133 24
3 158 47 249
3 24 47 158
3 249 94 158
3 26 124 208
3 208 88 26
3 232 186 157
3 9 161 157
3 157 186 9
3 57 157 161
3 233 232 57
3 232 157 57
3 3 31 188
3 188 31 155
3 166 88 40
3 3 203 166
3 215 88 166
3 166 31 3
3 40 31 166
3 166 136 215
3 203 136 166
3 216 136 203
3 216 203 7
3 106 170 63
3 92 170 242
3 180 212 156
3 140 225 156
3 2 110 167
3 2 212 180
3 167 212 2
3 180 240 2
3 2 240 110
3 230 240 171
3 121 240 230
3 93 30 1
3 129 25 72
3 58 82 224
3 114 32 192
3 114 22 32
3 192 16 114
3 16 214 114
3 214 22 114
3 237 206 149
3 123 206 237
3 123 237 19
3 19 18 115
3 95 18 19
3 8 120 36
3 149 206 8
3 8 222 149
3 36 163 8
3 163 222 8
3 42 120 131
3 242 170 247
3 247 42 242
3 247 153 42
3 142 101 20
3 108 101 142
3 20 153 142
3 142 153 29
3 118 108 142
3 142 66 118
3 29 66 142
3 234 101 109
3 109 101 108
3 108 65 109
3 78 234 109
3 109 65 78
3 81 97 190
3 97 243 190
3 190 89 81
3 41 89 190
3 122 41 190
3 190 87 122
3 190 243 87
3 119 222 246
3 210 222 119
3 246 97 119
3 97 210 119
3 149 222 217
3 217 222 210
3 210 255 217
3 217 237 149
3 10 18 95
3 183 18 10
3 60 177 144
3 144 161 60
3 60 90 177
3 60 226 90
3 60 161 9
3 9 226 60
3 189 178 67
3 189 45 194
3 189 67 45
3 194 127 189
3 127 178 189
3 176 84 191
3 176 191 46
3 253 27 176
3 27 84 176
3 46 241 176
3 241 75 176
3 209 139 254
3 209 241 139
3 209 75 241
3 141 14 143
3 143 209 254
3 14 209 143
3 253 176 250
3 250 176 75
3 250 213 253
3 75 209 250
3 250 209 14
3 141 178 52
3 52 14 141
3 52 250 14
3 52 178 127
3 127 213 52
3 213 250 52
3 254 139 55
3 55 77 254
3 139 132 55
3 138 77 55
3 55 132 138
3 146 199 12
3 12 218 146
3 205 218 12
3 193 199 185
3 80 133 172
3 172 17 80
3 133 158 172
3 94 17 172
3 172 158 94
3 197 98 80
3 80 17 197
3 224 150 197
3 197 17 224
3 239 61 175
3 175 58 239
3 239 83 48
3 48 61 239
3 239 94 83
3 125 161 144
3 144 208 125
3 125 57 161
3 125 208 124
3 125 124 233
3 233 57 125
3 252 208 144
3 88 208 252
3 144 177 252
3 177 218 252
3 40 88 252
3 205 40 252
3 252 218 205
3 251 136 162
3 136 216 162
3 106 63 159
3 159 63 91
3 1 196 159
3 196 106 159
3 159 128 1
3 159 91 128
3 170 92 13
3 59 63 13
3 13 63 170
3 13 74 59
3 180 156 103
3 103 240 180
3 171 240 103
3 140 156 39
3 39 156 212
3 11 140 39
3 39 212 11
3 135 113 251
3 121 230 135
3 171 130 35
3 35 230 171
3 35 124 26
3 35 130 124
3 35 135 230
3 26 113 35
3 113 135 35
3 139 241 211
3 211 132 139
3 211 241 46
3 46 79 211
3 211 79 184
3 184 30 96
3 96 211 184
3 132 211 96
3 138 132 96
3 30 93 96
3 96 93 138
3 181 72 25
3 82 72 181
3 100 129 6
3 129 72 6
3 6 175 100
3 53 17 94
3 94 239 53
3 53 239 58
3 224 17 53
3 53 58 224
3 183 44 71
3 71 18 183
3 115 18 71
3 111 115 71
3 71 44 111
3 173 198 123
3 123 19 173
3 173 19 115
3 173 115 220
3 220 198 173
3 242 42 5
3 42 131 5
3 5 92 242
3 123 198 28
3 28 5 131
3 28 198 37
3 37 5 28
3 179 131 120
3 179 28 131
3 179 206 123
3 123 28 179
3 182 170 106
3 182 247 170
3 182 106 196
3 196 126 182
3 126 153 182
3 153 247 182
3 237 217 195
3 95 19 195
3 195 19 237
3 195 217 255
3 195 10 95
3 255 10 195
3 187 255 221
3 187 10 255
3 187 221 99
3 187 99 207
3 207 183 187
3 183 10 187
3 229 141 76
3 141 193 76
3 76 185 229
3 76 193 185
3 4 12 199
3 155 205 4
3 205 12 4
3 150 85 238
3 238 197 150
3 238 85 112
3 112 98 238
3 98 197 238
3 59 74 160
3 7 91 160
3 160 216 7
3 160 162 216
3 160 63 59
3 91 63 160
3 137 5 37
3 92 5 137
3 248 156 225
3 248 103 156
3 248 225 233
3 171 103 248
3 233 130 248
3 248 130 171
3 227 188 245
3 3 188 227
3 1 151 219
3 219 93 1
3 219 236 93
3 82 181 154
3 224 82 154
3 45 150 154
3 154 150 224
3 175 6 165
3 165 6 72
3 165 58 175
3 165 72 82
3 82 58 165
3 120 8 201
3 201 179 120
3 201 8 206
3 206 179 201
3 155 4 116
3 116 188 155
3 116 102 245
3 245 188 116
3 199 193 235
3 235 4 199
3 254 102 235
3 102 116 235
3 235 116 4
3 235 193 141
3 235 143 254
3 141 143 235
3 68 160 74
3 162 160 68
3 251 162 68
3 68 74 121
3 121 135 68
3 68 135 251
3 223 34 121
3 121 74 223
3 223 37 34
3 223 137 37
3 228 227 245
3 236 227 228
3 245 77 228
3 228 77 138
3 138 93 228
3 93 236 228
3 43 227 236
3 236 219 43
3 3 227 43
3 43 219 151
3 43 203 3
3 43 151 7
3 7 203 43
3 45 154 15
3 15 154 181
3 194 45 15
3 15 25 194
3 15 181 25
3 137 223 54
3 54 13 92
3 92 137 54
3 74 13 54
3 54 223 74