ply
format ascii 1.0
comment https://github.com/mikedh/trimesh
element vertex 256
property float x
property float y
property float z
element face 508
property list uchar int vertex_indices
end_header
2.64849138 3.62149000 0.22511455
-3.73658276 1.73335493 -2.47680616
-1.45894372 -3.83429480 -1.59490144
-4.88473892 0.80362910 -0.19709842
-3.96544957 0.99420911 2.64802456
-0.28484252 -0.52150077 -4.70100546
3.14880919 0.09194029 3.67189980
-4.53897333 0.19783962 -1.93357337
2.35023022 0.00288633 -4.18257523
-2.24272060 -2.60426688 3.10382032
2.81654692 -2.82711983 -2.34556246
0.05512513 -4.27682161 -0.29242066
-3.88793492 0.47873420 2.91404343
-2.35665774 -0.86749607 -4.06676674
-0.98868877 3.60875201 2.37937236
1.11908519 1.07471502 4.46650505
3.36199617 2.29271531 2.40696239
0.41261172 -1.84289014 4.26488018
1.60062587 -3.39054537 -2.46679688
1.50187719 -2.76973891 -3.32536101
0.91967958 1.33613157 -4.42110586
0.79649377 -3.96087003 1.64327657
3.24759054 1.56374776 3.15192533
3.78319883 -1.17297387 2.79523540
-1.09041142 -3.16899562 3.02036214
2.36184740 1.32258749 3.90973878
-4.26379967 -2.19337797 -0.29853156
1.96490598 3.76581669 1.27337170
0.65713871 -1.35258639 -4.45824814
-0.13376191 2.55366898 -3.80714607
-2.00621414 2.98784828 -2.81039310
-4.89020586 0.40661111 0.75885141
4.08255005 0.65792233 2.61275673
3.33395362 -2.63865042 1.96644437
-1.76201785 -2.68793273 -3.29098272
-3.90600753 -2.55967379 -0.78036213
2.42305803 0.80557257 -4.04616785
-0.78894663 -2.04587150 -4.09944153
3.84936547 2.42709589 -1.35054839
-0.78133827 -4.23104239 -0.09835730
-4.90823650 -0.25153983 0.73485917
4.85058975 -0.95557278 -0.13063754
0.36532712 0.68754095 -4.66907167
-4.64457321 1.36661398 -0.78332096
0.15576161 -3.95084238 -1.83195758
0.48300540 1.17155993 4.53990793
0.00966976 4.21112108 -0.87426126
-0.20628577 -3.80360126 2.17725992
2.49578238 -3.04030418 2.34805536
2.48426127 2.59018755 2.94360995
1.60646105 -4.05253077 -0.17638519
0.61191273 3.70698953 -2.30848646
-0.44310167 3.45145488 2.77901053
1.31734991 -1.64970636 4.19465017
-2.11416197 -1.38989747 -4.00970125
-2.70652986 3.57854557 0.40382066
3.62805724 2.47343206 1.74613905
-3.05682921 -3.13358712 1.40710187
1.96885073 -1.01369238 4.21126938
-3.13437104 -0.46554208 -3.64734554
-2.97781301 -2.07110000 3.03327441
3.15227818 -1.73270011 3.13053036
3.32175899 3.18729782 -0.16437770
-3.21068597 0.29206938 -3.60975623
2.33366275 3.76008320 -0.47611728
2.90509105 2.86809945 -2.18279171
-0.38257101 3.08992410 -3.26771712
-0.46887717 1.69142485 4.33589077
-3.61313987 -1.43631351 -2.85098362
1.50440514 1.12646842 -4.34618378
4.07258320 -2.45779586 0.19818199
0.80286461 -3.74379921 -2.18031931
2.59988976 0.17513269 4.04005337
4.08527613 -1.51319027 2.12959957
-3.09269714 -1.47659671 -3.33846545
-0.44570184 4.18234348 0.93730730
-2.11785102 1.95421565 3.70734167
-3.34149432 3.08492947 0.84150219
3.32371116 2.41770935 -2.30267406
0.12323955 4.07054520 -1.47648549
-1.77910304 -1.73397553 3.99310565
4.87826586 0.01746903 -0.94243228
1.87585604 -0.46094149 4.36328030
2.04888129 -2.70545459 3.11660838
1.89057851 3.96301937 0.05329911
-1.35290146 -0.00167415 4.56476355
-2.32119489 0.20691229 4.19054222
4.54326200 0.29074368 1.91269910
-4.82815790 -0.94143224 0.49356821
4.91584349 -0.49216422 -0.50204706
-2.86710286 -0.32199696 3.86085677
-3.68314505 0.77266270 -3.07288551
-1.64621091 -0.78123182 -4.39265156
-3.51252699 2.73099399 -1.46891415
0.97220302 -2.64052987 3.61822152
2.38605285 -2.69746232 -2.90142059
-2.24864364 3.41755152 -1.89570224
4.77425432 0.75323403 -1.04907882
-1.79572654 -1.15801179 4.23391056
3.76925254 -2.74680686 -0.60001928
3.85766840 -0.35725170 2.96964955
2.27569532 1.49042702 -3.88282251
-3.79953051 2.12812901 1.95871747
-2.20335317 -3.81197000 -0.53315222
-0.78688967 -3.95707512 1.65777910
3.95374274 -2.35789084 1.21780419
-2.49372649 1.46521378 -3.77125239
4.41028786 -1.21441579 -1.73977542
1.56987524 3.05465651 -2.97182298
2.87321162 2.36451316 -2.85658193
-1.20625508 -3.38710666 -2.67040801
-0.41066310 -3.29264140 -3.00896764
-1.88954830 -0.61112869 4.33719397
-4.41061449 -1.83300102 -0.84880739
3.74172020 1.55432367 2.61312914
0.25682226 -3.17242217 -3.17862678
-4.12543535 1.39768386 2.15700078
-1.31550503 3.04310179 -3.09403062
0.55278134 3.18261051 -3.13156104
4.08561087 0.37725163 -2.67674088
1.51885164 0.42134404 -4.49273205
-2.64050484 -2.54950118 -2.86461282
4.66190195 -1.10962355 1.12203729
1.25657845 -1.55035901 -4.25691843
-3.84660769 -2.66820002 0.58587772
-3.69369721 -2.61076140 1.32555485
-0.85593307 2.46987605 -3.79154062
1.24006665 3.11586356 3.03300571
-3.91993999 1.13719666 -2.63766694
3.27147889 0.67365676 3.49622083
-3.37755799 -3.14721489 -0.07239601
0.39024433 -0.51705295 -4.69360828
-2.62815118 3.54222536 -0.92226690
-1.23127913 -2.72971225 3.46518779
-1.31881928 0.70754236 4.50620508
-4.00482988 -2.24287939 -1.32877910
-4.64717388 -1.28491700 -0.93033850
-1.50307381 -1.32013476 -4.27890539
-3.14001822 3.20096302 -0.99527228
-1.87373078 3.91426921 0.73650908
-0.68396014 -4.17738819 0.83355421
-1.91125035 2.67547965 3.22684574
0.57721007 2.62101483 -3.71185255
-2.21151853 3.00355005 2.64726496
-3.89531064 -1.72945523 2.24802589
3.70949078 2.66533875 1.13808560
-3.46325445 -0.22448301 3.39804792
0.38281375 -4.22960663 0.66386682
4.37187576 2.04636240 -0.11805972
2.95335507 -0.84950495 -3.70049763
-0.60712183 -0.10609036 4.70664549
-4.31843853 1.15152252 -1.98415768
2.47825241 1.95292962 3.49859262
-0.10693376 1.65332115 -4.37447929
0.87697172 0.23807648 4.66154528
-4.64703941 0.50240260 1.60671687
-1.74367642 -4.01290178 -0.10026298
-2.58224368 -3.07588029 2.20239139
-0.45068336 -2.91554189 3.45025063
-3.02738857 1.23029876 -3.51196432
-3.57459283 -0.79036933 -3.18242669
-3.09997511 -2.63583708 2.29381561
-4.37502337 -1.05670607 -1.93558252
3.21051431 0.81398624 -3.51154757
4.50139809 -1.82671535 0.10847679
2.47374201 -0.42173567 4.08961725
-4.94309902 -0.44981262 -0.25517604
-0.59706986 -3.98362136 -1.65089464
4.40796995 -0.65397590 2.07998610
4.00034809 2.50677013 -0.51707542
-1.50422823 0.29407081 -4.51111507
-2.99833751 -3.38678575 -0.52220184
-0.00193963 -2.47451401 3.87256074
0.78596193 -2.47463679 -3.79862690
4.62929249 -0.72745955 -1.54599559
2.79059434 -1.26495767 3.66938019
0.25806001 4.18663692 0.98108625
-3.78586292 -1.32991982 2.70538378
-0.42681861 2.54973340 3.79289079
1.17797196 -0.72028518 -4.54007483
-1.71592855 -3.93348527 -0.92831951
1.94975984 0.79487777 4.27474356
-1.69792140 1.78167701 -3.99960399
1.68831885 -3.94922686 -0.89164191
-0.88196111 3.69736266 -2.24618793
-1.88615334 1.04971540 4.23299074
-1.73248923 -2.96588016 2.99901390
3.40887523 -2.79827738 -1.53398454
-4.71786308 1.18551672 0.74966747
0.20762888 2.35328960 3.95927143
4.96111202 0.19217657 -0.31294939
1.06280947 4.14763403 -0.62840682
4.21044779 1.47991014 1.92735350
-2.70121002 1.68116128 3.52320790
1.34039962 2.21718049 3.85339475
2.53740287 -2.15024757 -3.31556487
-2.20775723 2.41708827 -3.30511975
-0.55159950 -0.77534384 4.63519859
0.52729332 -1.97600031 -4.17939043
-3.29241896 0.58087450 3.49922800
4.26288366 -2.10326338 0.76139498
1.81294358 -0.56186336 -4.37333250
2.65859699 -3.62098694 0.15723142
-4.84871006 -0.05048896 -1.06823134
2.51051497 3.48990035 -1.35868657
-4.25238705 0.14093368 2.45998669
2.13975120 -1.00642395 -4.13550568
3.43879461 -3.09228015 -0.20264049
-4.09168625 -2.08160067 1.40826082
-1.45242977 3.88332653 1.44819319
4.23955345 -0.29282659 -2.46482849
-1.01220143 4.03541994 -1.27024949
-1.02338755 -4.11981297 -0.87132436
1.23026919 3.48923278 2.49064255
3.00744915 2.12543201 2.95825911
-4.72344828 -1.32616079 -0.27677289
-4.60389376 -0.43562970 -1.73573589
3.45272565 -1.03545308 -3.21836782
-3.99720478 -0.58842093 2.75169206
-4.17922497 1.79228795 -1.64520371
-0.58419687 -2.54917002 -3.77256894
4.20919037 -2.18896270 -0.73871034
3.63061261 0.23944576 -3.23396635
-2.16845298 -1.93576920 -3.69485235
0.77757448 -0.89855188 4.57909107
-1.97066259 -3.84602070 0.91706115
-2.44734359 -2.02376842 3.47056103
-4.53847837 1.75765622 -0.06444743
-3.97176886 2.50386214 -0.69517577
-1.52672529 1.88253677 4.00578594
-3.53303003 -2.77649331 -1.30778980
2.18681455 3.03484464 2.62095404
-2.34660673 -3.46952462 1.65758348
-3.15456653 -3.27189612 0.58631468
3.18699193 1.81035924 -3.04358840
-3.19933701 1.71920121 3.09565735
-4.15919828 2.12814116 -1.11516309
2.34966993 -1.59265125 -3.79236603
-1.15709460 -0.52996886 4.57690096
2.51471519 -2.04879141 3.40848827
-2.45132303 -3.37449765 -1.75646257
-0.84942967 4.20712042 0.38641286
-0.71828812 0.08764808 -4.69281960
4.88349724 0.82740021 -0.00179359
-1.07164431 -2.94035482 -3.29513335
-4.13037682 2.26822972 0.83674669
4.02650738 0.95288056 -2.58141780
-0.89634925 1.03025436 -4.52365828
-2.52685905 -3.68971872 0.12308505
0.68698925 -3.34173942 2.89580297
-0.01052646 3.84379745 2.09768009
-4.29860687 -1.57917285 -1.62979782
-4.37409353 -1.36285102 1.68792391
0.84784865 3.93398356 1.69762516
-2.76517463 2.92254496 2.25565577
4.03102922 -1.41986370 -2.29562926
3 249 48 83
3 64 0 62
3 220 34 37
3 64 62 204
3 204 191 64
3 51 191 204
3 213 27 253
3 21 48 249
3 104 24 232
3 40 205 155
3 7 151 128
3 128 151 1
3 115 111 220
3 220 111 244
3 244 34 220
3 113 26 215
3 117 184 66
3 66 51 118
3 184 51 66
3 117 196 30
3 30 184 117
3 30 196 1
3 64 191 84
3 84 0 64
3 84 27 0
3 46 191 79
3 79 191 51
3 79 51 184
3 168 87 100
3 100 23 168
3 168 23 73
3 168 73 122
3 122 87 168
3 25 152 194
3 32 87 192
3 100 87 32
3 32 129 100
3 145 62 0
3 0 27 145
3 220 37 198
3 99 70 207
3 78 246 234
3 246 163 234
3 118 51 108
3 51 204 108
3 126 196 117
3 117 66 126
3 126 66 29
3 148 145 192
3 107 174 41
3 122 164 41
3 81 174 210
3 210 174 107
3 210 97 81
3 38 204 62
3 38 148 97
3 38 246 78
3 38 97 246
3 73 33 105
3 207 70 105
3 112 86 90
3 146 177 90
3 231 213 127
3 27 213 231
3 134 45 67
3 67 229 134
3 185 86 134
3 134 229 185
3 249 83 94
3 112 90 98
3 150 45 134
3 175 23 100
3 11 183 50
3 47 24 104
3 47 21 249
3 104 21 47
3 186 232 24
3 186 133 9
3 24 133 186
3 31 40 155
3 215 26 88
3 136 113 215
3 251 113 136
3 7 128 91
3 212 167 11
3 225 232 233
3 104 232 225
3 225 140 104
3 44 183 11
3 11 167 44
3 44 167 111
3 121 34 110
3 34 244 110
3 111 167 110
3 110 244 111
3 218 177 146
3 121 110 240
3 233 124 130
3 56 16 192
3 192 145 56
3 56 231 16
3 56 145 27
3 27 231 56
3 129 32 22
3 22 214 152
3 152 25 22
3 22 25 129
3 107 41 221
3 221 41 164
3 164 70 221
3 70 99 221
3 20 69 120
3 120 42 20
3 120 69 36
3 20 42 153
3 153 126 29
3 101 69 20
3 36 69 101
3 101 163 36
3 101 234 163
3 62 145 169
3 145 148 169
3 169 38 62
3 148 38 169
3 192 87 243
3 243 148 192
3 97 148 243
3 89 174 81
3 89 41 174
3 222 163 246
3 255 210 107
3 107 221 255
3 65 38 78
3 204 38 65
3 65 108 204
3 122 73 200
3 73 105 200
3 200 164 122
3 200 70 164
3 200 105 70
3 80 98 226
3 226 98 90
3 9 133 226
3 226 133 80
3 178 141 229
3 229 67 178
3 49 127 194
3 49 231 127
3 194 152 49
3 152 214 49
3 49 214 16
3 16 231 49
3 254 77 102
3 102 77 245
3 86 185 199
3 146 90 199
3 199 90 86
3 85 150 134
3 85 86 112
3 134 86 85
3 23 175 61
3 73 23 61
3 61 33 73
3 48 33 61
3 11 50 147
3 147 50 21
3 147 140 11
3 147 21 104
3 104 140 147
3 202 183 207
3 202 50 183
3 202 33 48
3 48 21 202
3 21 50 202
3 207 105 202
3 202 105 33
3 158 133 24
3 158 47 249
3 24 47 158
3 249 94 158
3 26 124 208
3 208 88 26
3 232 186 157
3 9 161 157
3 157 186 9
3 57 157 161
3 233 232 57
3 232 157 57
3 3 31 188
3 188 31 155
3 166 88 40
3 3 203 166
3 215 88 166
3 166 31 3
3 40 31 166
3 166 136 215
3 203 136 166
3 216 136 203
3 216 203 7
3 106 170 63
3 92 170 242
3 180 212 156
3 140 225 156
3 2 110 167
3 2 212 180
3 167 212 2
3 180 240 2
3 2 240 110
3 230 240 171
3 121 240 230
3 93 30 1
3 129 25 72
3 58 82 224
3 114 32 192
3 114 22 32
3 192 16 114
3 16 214 114
3 214 22 114
3 237 206 149
3 123 206 237
3 123 237 19
3 19 18 115
3 95 18 19
3 8 120 36
3 149 206 8
3 8 222 149
3 36 163 8
3 163 222 8
3 42 120 131
3 242 170 247
3 247 42 242
3 247 153 42
3 142 101 20
3 108 101 142
3 20 153 142
3 142 153 29
3 118 108 142
3 142 66 118
3 29 66 142
3 234 101 109
3 109 101 108
3 108 65 109
3 78 234 109
3 109 65 78
3 81 97 190
3 97 243 190
3 190 89 81
3 41 89 190
3 122 41 190
3 190 87 122
3 190 243 87
3 119 222 246
3 210 222 119
3 246 97 119
3 97 210 119
3 149 222 217
3 217 222 210
3 210 255 217
3 217 237 149
3 10 18 95
3 183 18 10
3 60 177 144
3 144 161 60
3 60 90 177
3 60 226 90
3 60 161 9
3 9 226 60
3 189 178 67
3 189 45 194
3 189 67 45
3 194 127 189
3 127 178 189
3 176 84 191
3 176 191 46
3 253 27 176
3 27 84 176
3 46 241 176
3 241 75 176
3 209 139 254
3 209 241 139
3 209 75 241
3 141 14 143
3 143 209 254
3 14 209 143
3 253 176 250
3 250 176 75
3 250 213 253
3 75 209 250
3 250 209 14
3 141 178 52
3 52 14 141
3 52 250 14
3 52 178 127
3 127 213 52
3 213 250 52
3 254 139 55
3 55 77 254
3 139 132 55
3 138 77 55
3 55 132 138
3 146 199 12
3 12 218 146
3 205 218 12
3 193 199 185
3 80 133 172
3 172 17 80
3 133 158 172
3 94 17 172
3 172 158 94
3 197 98 80
3 80 17 197
3 224 150 197
3 197 17 224
3 239 61 175
3 175 58 239
3 239 83 48
3 48 61 239
3 239 94 83
3 125 161 144
3 144 208 125
3 125 57 161
3 125 208 124
3 125 124 233
3 233 57 125
3 252 208 144
3 88 208 252
3 144 177 252
3 177 218 252
3 40 88 252
3 205 40 252
3 252 218 205
3 251 136 162
3 136 216 162
3 106 63 159
3 159 63 91
3 1 196 159
3 196 106 159
3 159 128 1
3 159 91 128
3 170 92 13
3 59 63 13
3 13 63 170
3 13 74 59
3 180 156 103
3 103 240 180
3 171 240 103
3 140 156 39
3 39 156 212
3 11 140 39
3 39 212 11
3 135 113 251
3 121 230 135
3 171 130 35
3 35 230 171
3 35 124 26
3 35 130 124
3 35 135 230
3 26 113 35
3 113 135 35
3 139 241 211
3 211 132 139
3 211 241 46
3 46 79 211
3 211 79 184
3 184 30 96
3 96 211 184
3 132 211 96
3 138 132 96
3 30 93 96
3 96 93 138
3 181 72 25
3 82 72 181
3 100 129 6
3 129 72 6
3 6 175 100
3 53 17 94
3 94 239 53
3 53 239 58
3 224 17 53
3 53 58 224
3 183 44 71
3 71 18 183
3 115 18 71
3 111 115 71
3 71 44 111
3 173 198 123
3 123 19 173
3 173 19 115
3 173 115 220
3 220 198 173
3 242 42 5
3 42 131 5
3 5 92 242
3 123 198 28
3 28 5 131
3 28 198 37
3 37 5 28
3 179 131 120
3 179 28 131
3 179 206 123
3 123 28 179
3 182 170 106
3 182 247 170
3 182 106 196
3 196 126 182
3 126 153 182
3 153 247 182
3 237 217 195
3 95 19 195
3 195 19 237
3 195 217 255
3 195 10 95
3 255 10 195
3 187 255 221
3 187 10 255
3 187 221 99
3 187 99 207
3 207 183 187
3 183 10 187
3 229 141 76
3 141 193 76
3 76 185 229
3 76 193 185
3 4 12 199
3 155 205 4
3 205 12 4
3 150 85 238
3 238 197 150
3 238 85 112
3 112 98 238
3 98 197 238
3 59 74 160
3 7 91 160
3 160 216 7
3 160 162 216
3 160 63 59
3 91 63 160
3 137 5 37
3 92 5 137
3 248 156 225
3 248 103 156
3 248 225 233
3 171 103 248
3 233 130 248
3 248 130 171
3 227 188 245
3 3 188 227
3 1 151 219
3 219 93 1
3 219 236 93
3 82 181 154
3 224 82 154
3 45 150 154
3 154 150 224
3 175 6 165
3 165 6 72
3 165 58 175
3 165 72 82
3 82 58 165
3 120 8 201
3 201 179 120
3 201 8 206
3 206 179 201
3 155 4 116
3 116 188 155
3 116 102 245
3 245 188 116
3 199 193 235
3 235 4 199
3 254 102 235
3 102 116 235
3 235 116 4
3 235 193 141
3 235 143 254
3 141 143 235
3 68 160 74
3 162 160 68
3 251 162 68
3 68 74 121
3 121 135 68
3 68 135 251
3 223 34 121
3 121 74 223
3 223 37 34
3 223 137 37
3 228 227 245
3 236 227 228
3 245 77 228
3 228 77 138
3 138 93 228
3 93 236 228
3 43 227 236
3 236 219 43
3 3 227 43
3 43 219 151
3 43 203 3
3 43 151 7
3 7 203 43
3 45 154 15
3 15 154 181
3 194 45 15
3 15 25 194
3 15 181 25
3 137 223 54
3 54 13 92
3 92 137 54
3 74 13 54
3 54 223 74