ply
format ascii 1.0
comment https://github.com/mikedh/trimesh
element vertex 256
property float x
property float y
property float z
element face 508
property list uchar int vertex_indices
end_header
0.76997173 3.59818292 0.18397205
-1.08630264 1.72219944 -2.02413869
-0.42414540 -3.80961800 -1.30341315
-1.42009568 0.79845715 -0.16107620
-1.15283906 0.98781061 2.16406488
-0.08280967 -0.51814449 -3.84183788
0.91542464 0.09134858 3.00081396
-1.31957436 0.19656637 -1.58018851
0.68326104 0.00286775 -3.41815710
-0.65200573 -2.58750629 2.53655815
0.81882900 -2.80892491 -1.91688144
0.01602603 -4.24929667 -0.23897710
-1.13030386 0.47565314 2.38146544
-0.68512964 -0.86191308 -3.32351398
-0.28743249 3.58552670 1.94451225
0.32534143 1.06779838 3.65019536
0.97740251 2.27795982 1.96705973
0.11995485 -1.83102965 3.48541951
0.46533540 -3.36872458 -2.01595879
0.43662706 -2.75191355 -2.71760941
0.26737007 1.32753253 -3.61309314
0.23155737 -3.93537879 1.34294713
0.94414246 1.55368388 2.57587147
1.09985495 -1.16542482 2.28437114
-0.31700537 -3.14860058 2.46835303
0.68663836 1.31407559 3.19518471
-1.23957562 -2.17926192 -0.24397117
0.57123917 3.74158072 1.04064703
0.19104396 -1.34388149 -3.64344740
-0.03888738 2.53723407 -3.11134219
-0.58324838 2.96861911 -2.29675841
-1.42168498 0.40399426 0.62016177
1.18688262 0.65368807 2.13524270
0.96925002 -2.62166882 1.60705197
-0.51225543 -2.67063379 -2.68951416
-1.13555801 -2.54320025 -0.63774115
0.70443362 0.80038804 -3.30667973
-0.22936328 -2.03270483 -3.35021710
1.11909091 2.41147566 -1.10371864
-0.22715136 -4.20381260 -0.08038127
-1.42692685 -0.24992098 0.60055441
1.41016781 -0.94942290 -0.10676189
0.10620823 0.68311608 -3.81574011
-1.35027444 1.35781872 -0.64015919
0.04528315 -3.92541575 -1.49714434
0.14041977 1.16401994 3.71018291
0.00281120 4.18401909 -0.71447903
-0.05997158 -3.77912211 1.77933836
0.72557610 -3.02073741 1.91891885
0.72222668 2.57351780 2.40562844
0.46703178 -4.02644968 -0.14414857
0.17789580 3.68313217 -1.88658154
-0.12881891 3.42924213 2.27111149
0.38298115 -1.63908923 3.42802501
-0.61463106 -1.38095236 -3.27687812
-0.78684479 3.55551481 0.33001736
1.05475199 2.45751381 1.42701018
-0.88868409 -3.11342001 1.14993632
0.57238603 -1.00716853 3.44160676
-0.91122711 -0.46254596 -2.98074722
-0.86571246 -2.05777097 2.47890544
0.91643310 -1.72154891 2.55838656
0.96570468 3.16678500 -0.13433561
-0.93341345 0.29018968 -2.95002794
0.67844450 3.73588419 -0.38910085
0.84457070 2.84964108 -1.78385901
-0.11122139 3.07003784 -2.67050076
-0.13631238 1.68053925 3.54345202
-1.05041528 -1.42706966 -2.32993054
0.43736202 1.11921871 -3.55186415
1.18398499 -2.44197822 0.16196173
0.23340952 -3.71970510 -1.78183854
0.75584227 0.17400557 3.30168295
1.18767512 -1.50345170 1.74038839
-0.89911163 -1.46709359 -2.72831893
-0.12957484 4.15542698 0.76600260
-0.61570352 1.94163883 3.02977848
-0.97144216 3.06507564 0.68770713
0.96627229 2.40214968 -1.88183153
0.03582831 4.04434776 -1.20663929
-0.51722240 -1.72281611 3.26331544
1.41821384 0.01735660 -0.77019095
0.54535055 -0.45797500 3.56583619
0.59565258 -2.68804288 2.54700899
0.54963064 3.93751407 0.04355803
-0.39331672 -0.00166338 3.73049545
-0.67481983 0.20558065 3.42466807
1.32082117 0.28887251 1.56312931
-1.40364635 -0.93537343 0.40336242
1.42913842 -0.48899674 -0.41029164
-0.83352667 -0.31992465 3.15523672
-1.07076728 0.76769000 -2.51127696
-0.47858793 -0.77620399 -3.58983922
-1.02116501 2.71341801 -1.20045161
0.28263971 -2.62353587 2.95694613
0.69367546 -2.68010211 -2.37114954
-0.65372765 3.39555669 -1.54923880
1.38797545 0.74838638 -0.85734648
-0.52205521 -1.15055907 3.46011019
1.09580052 -2.72912884 -0.49035820
1.12150478 -0.35495251 2.42690873
0.66159219 1.48083496 -3.17318773
-1.10460293 2.11443281 1.60073721
-0.64056075 -3.78743696 -0.43571198
-0.22876526 -3.93160820 1.35479915
1.14943564 -2.34271598 0.99523515
-0.72497833 1.45578396 -3.08200860
1.28216279 -1.20660007 -1.42180967
0.45639554 3.03499746 -2.42868519
0.83530265 2.34929562 -2.33450556
-0.35068354 -3.36530805 -2.18235755
-0.11938834 -3.27145052 -2.45904112
-0.54933119 -0.60719556 3.54451728
-1.28225780 -1.82120430 -0.69367719
1.08779621 1.54432034 2.13554692
0.07466360 -3.15200520 -2.59769273
-1.19935012 1.38868868 1.76278174
-0.38244480 3.02351713 -2.52855778
0.16070509 3.16212797 -2.55922890
1.18777251 0.37482372 -2.18753266
0.44156191 0.41863239 -3.67162895
-0.76764995 -2.53309321 -2.34106874
1.35531223 -1.10248232 0.91697085
0.36531359 -1.54038119 -3.47891331
-1.11828923 -2.65102816 0.47880122
-1.07383502 -2.59395909 1.08329308
-0.24883762 2.45398045 -3.09858894
0.36051327 3.09581041 2.47868586
-1.13960838 1.12987792 -2.15560007
0.95108724 0.66932124 2.85724258
-0.98192668 -3.12696004 -0.05916473
0.11345218 -0.51372534 -3.83579230
-0.76405847 3.51942849 -0.75371104
-0.35795856 -2.71214437 2.83188105
-0.38340834 0.70298880 3.68263960
-1.16428769 -2.22844458 -1.08592796
-1.35103059 -1.27664745 -0.76030743
-0.43697497 -1.31163859 -3.49688172
-0.91286892 3.18036222 -0.81337374
-0.54473269 3.88907790 0.60190278
-0.19884151 -4.15050364 0.68121171
-0.55564040 2.65826082 2.63709927
0.16780701 2.60414648 -3.03346491
-0.64293462 2.98421979 2.16344404
-1.13244820 -1.71832490 1.83717096
1.07842648 2.64818525 0.93008614
-1.00684047 -0.22303829 2.77701187
0.11129195 -4.20238590 0.54253685
1.27099562 2.03319240 -0.09648282
0.85860199 -0.84403771 -3.02418518
-0.17650299 -0.10540759 3.84644675
-1.25546026 1.14411151 -1.62152791
0.72047979 1.94036090 2.85918093
-0.03108788 1.64268076 -3.57498837
0.25495401 0.23654427 3.80958939
-1.35099137 0.49916926 1.31306922
-0.50692314 -3.98707581 -0.08193866
-0.75071216 -3.05608463 1.79987657
-0.13102306 -2.89677811 2.81967402
-0.88012511 1.22238088 -2.87010860
-1.03920877 -0.78528267 -2.60079813
-0.90122753 -2.61887336 1.87459207
-1.27191067 -1.04990542 -1.58183050
0.93336362 0.80874759 -2.86976814
1.30865049 -1.81495893 0.08865129
0.71916848 -0.41902146 3.34218860
-1.43706214 -0.44691774 -0.20853941
-0.17358068 -3.95798349 -1.34917295
1.28148890 -0.64976704 1.69984245
1.16298473 2.49063706 -0.42257339
-0.43731058 0.29217824 -3.68665218
-0.87167937 -3.36498904 -0.42676291
-0.00056389 -2.45858860 3.16480160
0.22849555 -2.45871067 -3.10438013
1.34583199 -0.72277778 -1.26344550
0.81128407 -1.25681674 2.99875474
0.07502344 4.15969276 0.80178046
-1.10062945 -1.32136071 2.21094084
-0.12408508 2.53332400 3.09969234
0.34246105 -0.71564960 -3.71031904
-0.49885628 -3.90817022 -0.75865746
0.56683594 0.78976214 3.49348044
-0.49362123 1.77021050 -3.26862621
0.49082956 -3.92381048 -0.72868311
-0.25640452 3.67356730 -1.83566880
-0.54834419 1.04295957 3.45935869
-0.50367081 -2.94679236 2.45090652
0.99103123 -2.78026819 -1.25362957
-1.37158132 1.17788696 0.61265630
0.06036205 2.33814430 3.23566484
1.44229889 0.19093975 -0.25575396
0.30898094 4.12094069 -0.51355761
1.22406507 1.47038579 1.57510543
-0.78529817 1.67034173 2.87929749
0.38968217 2.20291138 3.14913845
0.73767608 -2.13640904 -2.70960379
-0.64184111 2.40153241 -2.70106769
-0.16036150 -0.77035385 3.78805804
0.15329519 -1.96328318 -3.41555429
-0.95717502 0.57713616 2.85970020
1.23930931 -2.08972716 0.62224048
0.52706057 -0.55824733 -3.57405114
0.77290964 -3.59768319 0.12849541
-1.40962136 -0.05016402 -0.87299860
0.72985911 3.46744013 -1.11036956
-1.23625779 0.14002666 2.01039314
0.62207037 -0.99994683 -3.37968993
0.99972939 -3.07237887 -0.16560540
-1.18953872 -2.06820393 1.15088356
-0.42225167 3.85833430 1.18351769
1.23252678 -0.29094204 -2.01435018
-0.29426810 4.00944901 -1.03809547
-0.29752016 -4.09329891 -0.71207893
0.35766497 3.46677685 2.03544617
0.87432832 2.11175323 2.41760015
-1.37320507 -1.31762588 -0.22618917
-1.33844817 -0.43282607 -1.41850829
1.00377941 -1.02878916 -2.63017058
-1.16207087 -0.58463395 2.24878573
-1.21498811 1.78075314 -1.34452200
-0.16983823 -2.53276420 -3.08308458
1.22369945 -2.17487502 -0.60370177
1.05549490 0.23790474 -2.64291835
-0.63041461 -1.92331100 -3.01957178
0.22605714 -0.89276904 3.74220467
-0.57291281 -3.82126856 0.74945670
-0.71149391 -2.01074386 2.83627248
-1.31943047 1.74634433 -0.05266885
-1.15467620 2.48774791 -0.56812364
-0.44385093 1.87042117 3.27367830
-1.02712560 -2.75862432 -1.06877482
0.63575268 3.01531291 2.14194179
-0.68220758 -3.44719553 1.35463929
-0.91709834 -3.25083899 0.47915831
0.92652512 1.79870820 -2.48733425
-0.93011409 1.70813680 2.52988720
-1.20916581 2.11444473 -0.91135299
0.68309814 -1.58240128 -3.09926343
-0.33639160 -0.52655810 3.74041462
0.73108023 -2.03560591 2.78554440
-0.71265084 -3.35278034 -1.43544698
-0.24694695 4.18004417 0.31579107
-0.20882136 0.08708400 -3.83514810
1.41973472 0.82207519 -0.00146579
-0.31154940 -2.92143130 -2.69290638
-1.20078683 2.25363183 0.68382072
1.17058980 0.94674802 -2.10963130
-0.26058745 1.02362394 -3.69690299
-0.73461074 -3.66597271 0.10058971
0.19972213 -3.32023263 2.36655855
-0.00306026 3.81905961 1.71430266
-1.24969482 -1.56900966 -1.33193183
-1.27164042 -1.35407996 1.37943459
0.24648732 3.90866518 1.38736284
-0.80389404 2.90373611 1.84340632
1.17190433 -1.41072571 -1.87607419
3 249 48 83
3 64 0 62
3 220 34 37
3 64 62 204
3 204 191 64
3 51 191 204
3 213 27 253
3 21 48 249
3 104 24 232
3 40 205 155
3 7 151 128
3 128 151 1
3 115 111 220
3 220 111 244
3 244 34 220
3 113 26 215
3 117 184 66
3 66 51 118
3 184 51 66
3 117 196 30
3 30 184 117
3 30 196 1
3 64 191 84
3 84 0 64
3 84 27 0
3 46 191 79
3 79 191 51
3 79 51 184
3 168 87 100
3 100 23 168
3 168 23 73
3 168 73 122
3 122 87 168
3 25 152 194
3 32 87 192
3 100 87 32
3 32 129 100
3 145 62 0
3 0 27 145
3 220 37 198
3 99 70 207
3 78 246 234
3 246 163 234
3 118 51 108
3 51 204 108
3 126 196 117
3 117 66 126
3 126 66 29
3 148 145 192
3 107 174 41
3 122 164 41
3 81 174 210
3 210 174 107
3 210 97 81
3 38 204 62
3 38 148 97
3 38 246 78
3 38 97 246
3 73 33 105
3 207 70 105
3 112 86 90
3 146 177 90
3 231 213 127
3 27 213 231
3 134 45 67
3 67 229 134
3 185 86 134
3 134 229 185
3 249 83 94
3 112 90 98
3 150 45 134
3 175 23 100
3 11 183 50
3 47 24 104
3 47 21 249
3 104 21 47
3 186 232 24
3 186 133 9
3 24 133 186
3 31 40 155
3 215 26 88
3 136 113 215
3 251 113 136
3 7 128 91
3 212 167 11
3 225 232 233
3 104 232 225
3 225 140 104
3 44 183 11
3 11 167 44
3 44 167 111
3 121 34 110
3 34 244 110
3 111 167 110
3 110 244 111
3 218 177 146
3 121 110 240
3 233 124 130
3 56 16 192
3 192 145 56
3 56 231 16
3 56 145 27
3 27 231 56
3 129 32 22
3 22 214 152
3 152 25 22
3 22 25 129
3 107 41 221
3 221 41 164
3 164 70 221
3 70 99 221
3 20 69 120
3 120 42 20
3 120 69 36
3 20 42 153
3 153 126 29
3 101 69 20
3 36 69 101
3 101 163 36
3 101 234 163
3 62 145 169
3 145 148 169
3 169 38 62
3 148 38 169
3 192 87 243
3 243 148 192
3 97 148 243
3 89 174 81
3 89 41 174
3 222 163 246
3 255 210 107
3 107 221 255
3 65 38 78
3 204 38 65
3 65 108 204
3 122 73 200
3 73 105 200
3 200 164 122
3 200 70 164
3 200 105 70
3 80 98 226
3 226 98 90
3 9 133 226
3 226 133 80
3 178 141 229
3 229 67 178
3 49 127 194
3 49 231 127
3 194 152 49
3 152 214 49
3 49 214 16
3 16 231 49
3 254 77 102
3 102 77 245
3 86 185 199
3 146 90 199
3 199 90 86
3 85 150 134
3 85 86 112
3 134 86 85
3 23 175 61
3 73 23 61
3 61 33 73
3 48 33 61
3 11 50 147
3 147 50 21
3 147 140 11
3 147 21 104
3 104 140 147
3 202 183 207
3 202 50 183
3 202 33 48
3 48 21 202
3 21 50 202
3 207 105 202
3 202 105 33
3 158 133 24
3 158 47 249
3 24 47 158
3 249 94 158
3 26 124 208
3 208 88 26
3 232 186 157
3 9 161 157
3 157 186 9
3 57 157 161
3 233 232 57
3 232 157 57
3 3 31 188
3 188 31 155
3 166 88 40
3 3 203 166
3 215 88 166
3 166 31 3
3 40 31 166
3 166 136 215
3 203 136 166
3 216 136 203
3 216 203 7
3 106 170 63
3 92 170 242
3 180 212 156
3 140 225 156
3 2 110 167
3 2 212 180
3 167 212 2
3 180 240 2
3 2 240 110
3 230 240 171
3 121 240 230
3 93 30 1
3 129 25 72
3 58 82 224
3 114 32 192
3 114 22 32
3 192 16 114
3 16 214 114
3 214 22 114
3 237 206 149
3 123 206 237
3 123 237 19
3 19 18 115
3 95 18 19
3 8 120 36
3 149 206 8
3 8 222 149
3 36 163 8
3 163 222 8
3 42 120 131
3 242 170 247
3 247 42 242
3 247 153 42
3 142 101 20
3 108 101 142
3 20 153 142
3 142 153 29
3 118 108 142
3 142 66 118
3 29 66 142
3 234 101 109
3 109 101 108
3 108 65 109
3 78 234 109
3 109 65 78
3 81 97 190
3 97 243 190
3 190 89 81
3 41 89 190
3 122 41 190
3 190 87 122
3 190 243 87
3 119 222 246
3 210 222 119
3 246 97 119
3 97 210 119
3 149 222 217
3 217 222 210
3 210 255 217
3 217 237 149
3 10 18 95
3 183 18 10
3 60 177 144
3 144 161 60
3 60 90 177
3 60 226 90
3 60 161 9
3 9 226 60
3 189 178 67
3 189 45 194
3 189 67 45
3 194 127 189
3 127 178 189
3 176 84 191
3 176 191 46
3 253 27 176
3 27 84 176
3 46 241 176
3 241 75 176
3 209 139 254
3 209 241 139
3 209 75 241
3 141 14 143
3 143 209 254
3 14 209 143
3 253 176 250
3 250 176 75
3 250 213 253
3 75 209 250
3 250 209 14
3 141 178 52
3 52 14 141
3 52 250 14
3 52 178 127
3 127 213 52
3 213 250 52
3 254 139 55
3 55 77 254
3 139 132 55
3 138 77 55
3 55 132 138
3 146 199 12
3 12 218 146
3 205 218 12
3 193 199 185
3 80 133 172
3 172 17 80
3 133 158 172
3 94 17 172
3 172 158 94
3 197 98 80
3 80 17 197
3 224 150 197
3 197 17 224
3 239 61 175
3 175 58 239
3 239 83 48
3 48 61 239
3 239 94 83
3 125 161 144
3 144 208 125
3 125 57 161
3 125 208 124
3 125 124 233
3 233 57 125
3 252 208 144
3 88 208 252
3 144 177 252
3 177 218 252
3 40 88 252
3 205 40 252
3 252 218 205
3 251 136 162
3 136 216 162
3 106 63 159
3 159 63 91
3 1 196 159
3 196 106 159
3 159 128 1
3 159 91 128
3 170 92 13
3 59 63 13
3 13 63 170
3 13 74 59
3 180 156 103
3 103 240 180
3 171 240 103
3 140 156 39
3 39 156 212
3 11 140 39
3 39 212 11
3 135 113 251
3 121 230 135
3 171 130 35
3 35 230 171
3 35 124 26
3 35 130 124
3 35 135 230
3 26 113 35
3 113 135 35
3 139 241 211
3 211 132 139
3 211 241 46
3 46 79 211
3 211 79 184
3 184 30 96
3 96 211 184
3 132 211 96
3 138 132 96
3 30 93 96
3 96 93 138
3 181 72 25
3 82 72 181
3 100 129 6
3 129 72 6
3 6 175 100
3 53 17 94
3 94 239 53
3 53 239 58
3 224 17 53
3 53 58 224
3 183 44 71
3 71 18 183
3 115 18 71
3 111 115 71
3 71 44 111
3 173 198 123
3 123 19 173
3 173 19 115
3 173 115 220
3 220 198 173
3 242 42 5
3 42 131 5
3 5 92 242
3 123 198 28
3 28 5 131
3 28 198 37
3 37 5 28
3 179 131 120
3 179 28 131
3 179 206 123
3 123 28 179
3 182 170 106
3 182 247 170
3 182 106 196
3 196 126 182
3 126 153 182
3 153 247 182
3 237 217 195
3 95 19 195
3 195 19 237
3 195 217 255
3 195 10 95
3 255 10 195
3 187 255 221
3 187 10 255
3 187 221 99
3 187 99 207
3 207 183 187
3 183 10 187
3 229 141 76
3 141 193 76
3 76 185 229
3 76 193 185
3 4 12 199
3 155 205 4
3 205 12 4
3 150 85 238
3 238 197 150
3 238 85 112
3 112 98 238
3 98 197 238
3 59 74 160
3 7 91 160
3 160 216 7
3 160 162 216
3 160 63 59
3 91 63 160
3 137 5 37
3 92 5 137
3 248 156 225
3 248 103 156
3 248 225 233
3 171 103 248
3 233 130 248
3 248 130 171
3 227 188 245
3 3 188 227
3 1 151 219
3 219 93 1
3 219 236 93
3 82 181 154
3 224 82 154
3 45 150 154
3 154 150 224
3 175 6 165
3 165 6 72
3 165 58 175
3 165 72 82
3 82 58 165
3 120 8 201
3 201 179 120
3 201 8 206
3 206 179 201
3 155 4 116
3 116 188 155
3 116 102 245
3 245 188 116
3 199 193 235
3 235 4 199
3 254 102 235
3 102 116 235
3 235 116 4
3 235 193 141
3 235 143 254
3 141 143 235
3 68 160 74
3 162 160 68
3 251 162 68
3 68 74 121
3 121 135 68
3 68 135 251
3 223 34 121
3 121 74 223
3 223 37 34
3 223 137 37
3 228 227 245
3 236 227 228
3 245 77 228
3 228 77 138
3 138 93 228
3 93 236 228
3 43 227 236
3 236 219 43
3 3 227 43
3 43 219 151
3 43 203 3
3 43 151 7
3 7 203 43
3 45 154 15
3 15 154 181
3 194 45 15
3 15 25 194
3 15 181 25
3 137 223 54
3 54 13 92
3 92 137 54
3 74 13 54
3 54 223 74