ply
format ascii 1.0
comment https://github.com/mikedh/trimesh
element vertex 256
property float x
property float y
property float z
element face 508
property list uchar int vertex_indices
end_header
2.32434726 3.67495680 0.16630383
-3.27926898 1.75894570 -1.82974553
-1.28038621 -3.89090323 -1.17823660
-4.28690434 0.81549370 -0.14560685
-3.48012519 1.00888741 1.95623350
-0.24998116 -0.52920008 -3.47287726
2.76343203 0.09329768 2.71262312
-3.98345637 0.20076048 -1.42843115
2.06258988 0.00292894 -3.08988571
-1.96823800 -2.64271569 2.29295349
2.47183466 -2.86885858 -1.73278880
0.04837846 -4.33996344 -0.21602634
-3.41209745 0.48580211 2.15275526
-2.06823063 -0.88030362 -3.00433207
-0.86768490 3.66203070 1.75776613
0.98212230 1.09058177 3.29963946
2.95052743 2.32656431 1.77814817
0.36211291 -1.87009811 3.15068841
1.40472817 -3.44060254 -1.82235110
1.31806505 -2.81063056 -2.45661712
0.80712163 1.35585785 -3.26610065
0.69901228 -4.01934767 1.21397376
2.85012364 1.58683467 2.32849097
3.32017970 -1.19029140 2.06498575
-0.95695788 -3.21578193 2.23129845
2.07278514 1.34211385 2.88832712
-3.74196076 -2.22576046 -0.22054078
1.72442460 3.82141423 0.94070584
0.57671267 -1.37255573 -3.29353976
-0.11739103 2.59137082 -2.81253672
-1.76067722 3.03196001 -2.07618356
-4.29170227 0.41261423 0.56060296
3.58289409 0.66763574 1.93017924
2.92591715 -2.67760682 1.45271468
-1.54636765 -2.72761679 -2.43122005
-3.42795825 -2.59746408 -0.57649410
2.12650442 0.81746584 -2.98911452
-0.69238889 -2.07607627 -3.02847052
3.37824845 2.46292901 -0.99772024
-0.68571168 -4.29350853 -0.07266165
-4.30752611 -0.25525352 0.54287863
4.25693464 -0.96968061 -0.09650874
0.32061538 0.69769162 -3.44928575
-4.07613230 1.38679028 -0.57867992
0.13669823 -4.00917196 -1.35336232
0.42389125 1.18885648 3.35386610
0.00848629 4.27329302 -0.64586222
-0.18103883 -3.85975671 1.60845518
2.19032812 -3.08519030 1.73463058
2.18021703 2.62842846 2.17459774
1.40984917 -4.11236143 -0.13030490
0.53702182 3.76171851 -1.70539892
-0.38887125 3.50241137 2.05299950
1.15612185 -1.67406225 3.09880590
-1.85541344 -1.41041756 -2.96217465
-2.37528253 3.63137841 0.29832330
3.18402576 2.50994945 1.28996372
-2.68270922 -3.17985082 1.03949928
1.72788656 -1.02865839 3.11108351
-2.75076079 -0.47241524 -2.69448376
-2.61336374 -2.10167718 2.24083757
2.76647639 -1.75828135 2.31268549
2.91521478 3.23435450 -0.12143435
-2.81773567 0.29638141 -2.66671467
2.04804993 3.81559634 -0.35173258
2.54954219 2.91044354 -1.61254168
-0.33574882 3.13554287 -2.41403246
-0.41149211 1.71639669 3.20314789
-3.17093396 -1.45751894 -2.10616970
1.32028377 1.14309931 -3.21075201
3.57414699 -2.49408221 0.14640734
0.70460343 -3.79907179 -1.61071527
2.28169394 0.17771831 2.98459744
3.58528662 -1.53553069 1.57324588
-2.71418738 -1.49839675 -2.46629786
-0.39115319 4.24409056 0.69243765
-1.85865104 1.98306727 2.73880601
-2.93253469 3.13047457 0.62166142
2.91692805 2.45340395 -1.70110512
0.10815648 4.13064146 -1.09075665
-1.56136179 -1.75957561 2.94991469
4.28122377 0.01772694 -0.69622368
1.64627326 -0.46774673 3.22338200
1.79812229 -2.74539733 2.30240059
1.65919387 4.02152824 0.03937482
-1.18732226 -0.00169887 3.37222791
-2.03710794 0.20996709 3.09577131
3.98722029 0.29503614 1.41301024
-4.23724794 -0.95533133 0.36462450
4.31420231 -0.49943042 -0.37088823
-2.51620317 -0.32675084 2.85221553
-3.23237157 0.78407007 -2.27010012
-1.44473410 -0.79276574 -3.24507999
-3.08263516 2.77131367 -1.08516324
0.85321677 -2.67951393 2.67296839
2.09402823 -2.73728704 -2.14343023
-1.97343612 3.46800733 -1.40045381
4.18994188 0.76435459 -0.77500904
-1.57595074 -1.17510843 3.12780976
3.30794048 -2.78735995 -0.44326544
3.38553524 -0.36252609 2.19383454
1.99717700 1.51243126 -2.86844277
-3.33451271 2.15954804 1.44700646
-1.93368864 -3.86824918 -0.39386728
-0.69058365 -4.01549625 1.22468758
3.46985126 -2.39270210 0.89965522
-2.18852353 1.48684573 -2.78602004
3.87052035 -1.23234510 -1.28526258
1.37774098 3.09975481 -2.19544029
2.52156448 2.39942241 -2.11030555
-1.05862367 -3.43711329 -1.97276926
-0.36040276 -3.34125304 -2.22288084
-1.65828979 -0.62015122 3.20411062
-3.87080717 -1.86006308 -0.62705815
3.28377771 1.57727134 1.93045437
0.22539026 -3.21925902 -2.34821677
-3.62053037 1.41831899 1.59348857
-1.15450275 3.08802938 -2.28572130
0.48512745 3.22959781 -2.31344676
3.58558035 0.38282129 -1.97744751
1.33296204 0.42756468 -3.31901479
-2.31733823 -2.58714128 -2.11623836
4.09134007 -1.12600577 0.82890725
1.10278797 -1.57324815 -3.14480710
-3.37582803 -2.70759273 0.43281832
-3.24163222 -2.64930606 0.97925627
-0.75117689 2.50634074 -2.80100799
1.08829713 3.16186547 2.24063897
-3.44018555 1.15398598 -1.94858158
2.87108827 0.68360251 2.58284020
-2.96418476 -3.19367957 -0.05348270
0.34248304 -0.52468663 -3.46741247
-2.30649638 3.59452200 -0.68132651
-1.08058512 -2.77001309 2.55991435
-1.15741134 0.71798837 3.32896805
-3.51468563 -2.27599263 -0.98163813
-4.07841492 -1.30388713 -0.68728942
-1.31911528 -1.33962488 -3.16105008
-2.75571704 3.24822116 -0.73525935
-1.64440823 3.97205877 0.54409754
-0.60025150 -4.23906231 0.61578983
-1.67733586 2.71497989 2.38383865
0.50656635 2.65971088 -2.74213839
-1.94085467 3.04789376 1.95567226
-3.41857052 -1.75498855 1.66073358
3.25549269 2.70468926 0.84076297
-3.03939295 -0.22779723 2.51031446
0.33596185 -4.29205132 0.49043295
3.83680964 2.07657433 -0.08721685
2.59189916 -0.86204684 -2.73374987
-0.53281724 -0.10765665 3.47704363
-3.78991246 1.16852331 -1.46580040
2.17494369 1.98176217 2.58459234
-0.09384633 1.67773044 -3.23165536
0.76964074 0.24159138 3.44372582
-4.07829618 0.50981998 1.18696523
-1.53027093 -4.07214737 -0.07406948
-2.26620746 -3.12129188 1.62702096
-0.39552504 -2.95858622 2.54887938
-2.65687203 1.24846256 -2.59447050
-3.13710475 -0.80203813 -2.35102391
-2.72057462 -2.67475200 1.69456089
-3.83957219 -1.07230711 -1.42991543
2.81758523 0.82600373 -2.59416270
3.95047998 -1.85368454 0.08013744
2.17098522 -0.42796206 3.02121305
-4.33812189 -0.45645356 -0.18851180
-0.52399552 -4.04243469 -1.21960163
3.86848640 -0.66363108 1.53659379
3.51075244 2.54377961 -0.38199046
-1.32012844 0.29841241 -3.33259535
-2.63137627 -3.43678737 -0.38577765
-0.00170225 -2.51104712 2.86086202
0.68976945 -2.51117182 -2.80624318
4.06272173 -0.73819959 -1.14210725
2.44905853 -1.28363323 2.71076179
0.22647651 4.24844742 0.72477943
-3.32251787 -1.34955442 1.99860752
-0.37458104 2.58737707 2.80200553
1.03380203 -0.73091930 -3.35398936
-1.50591910 -3.99155831 -0.68579787
1.71113217 0.80661321 3.15797520
-1.49011588 1.80798125 -2.95471525
1.48168850 -4.00753212 -0.65870219
-0.77401942 3.75194979 -1.65937579
-1.65531039 1.06521308 3.12713027
-1.52045286 -3.00966763 2.21552753
2.99166918 -2.83959031 -1.13323414
-4.14045191 1.20301938 0.55381835
0.18221755 2.38803291 2.92491961
4.35393000 0.19501381 -0.23119198
0.93273413 4.20886850 -0.46423680
3.69513845 1.50175917 1.42383611
-2.37061381 1.70598149 2.60277677
1.17635047 2.24991441 2.84670305
2.22685480 -2.18199325 -2.44938016
-1.93755376 2.45277357 -2.44166374
-0.48409021 -0.78679079 3.42426229
0.46275884 -2.00517344 -3.08753276
-2.88946581 0.58945042 2.58506155
3.74115682 -2.13431549 0.56248206
1.59106064 -0.57015854 -3.23080802
2.33321595 -3.67444634 0.11615502
-4.25528526 -0.05123436 -0.78915799
2.20325732 3.54142427 -1.00373244
-3.73194504 0.14301439 1.81731999
1.87787080 -1.02128255 -3.05511284
3.01792669 -3.13793397 -0.14970106
-3.59091210 -2.11233282 1.04035544
-1.27466953 3.94065905 1.06985557
3.72068191 -0.29714984 -1.82089698
-0.88831985 4.09499788 -0.93839931
-0.89813697 -4.18063688 -0.64369261
1.07969880 3.54074693 1.83996701
2.63937283 2.15681148 2.18541980
-4.14535379 -1.34573984 -0.20446652
-4.04043150 -0.44206122 -1.28227830
3.03015256 -1.05074024 -2.37757564
-3.50799394 -0.59710819 2.03281784
-3.66773725 1.81874883 -1.21539748
-0.51269805 -2.58680534 -2.78699279
3.69403481 -2.22128010 -0.54572374
3.18626833 0.24298088 -2.38909912
-1.90305996 -1.96434844 -2.72957945
0.68240851 -0.91181791 3.38281274
-1.72947669 -3.90280247 0.67748076
-2.14781737 -2.05364680 2.56388402
-3.98302221 1.78360581 -0.04761066
-3.48567104 2.54082847 -0.51356244
-1.33987212 1.91033006 2.95928216
-3.10062885 -2.81748462 -0.96613228
1.91917419 3.07965016 1.93623495
-2.05940962 -3.52074790 1.22454309
-2.76848459 -3.32020164 0.43314114
2.79694152 1.83708692 -2.24845695
-2.80777574 1.74458313 2.28692293
-3.65016150 2.15956044 -0.82382894
2.06209803 -1.61616480 -2.80161786
-1.01547992 -0.53779322 3.38119459
2.20694375 -2.07903934 2.51802754
-2.15130997 -3.42431808 -1.29759026
-0.74546951 4.26923323 0.28546327
-0.63037813 0.08894210 -3.46682978
4.28581476 0.83961570 -0.00132502
-0.94048762 -2.98376536 -2.43428612
-3.62486720 2.30171728 0.61814827
3.53371024 0.96694869 -1.90702748
-0.78664666 1.04546487 -3.34186149
-2.21760130 -3.74419308 0.09092932
0.60290986 -3.39107585 2.13928008
-0.00923815 3.90054631 1.54966533
-3.77250791 -1.60248744 -1.20401633
-3.83875608 -1.38297188 1.24695718
0.74408197 3.99206376 1.25412393
-2.42674994 2.96569276 1.66637015
3.53767848 -1.44082618 -1.69590068
3 249 48 83
3 64 0 62
3 220 34 37
3 64 62 204
3 204 191 64
3 51 191 204
3 213 27 253
3 21 48 249
3 104 24 232
3 40 205 155
3 7 151 128
3 128 151 1
3 115 111 220
3 220 111 244
3 244 34 220
3 113 26 215
3 117 184 66
3 66 51 118
3 184 51 66
3 117 196 30
3 30 184 117
3 30 196 1
3 64 191 84
3 84 0 64
3 84 27 0
3 46 191 79
3 79 191 51
3 79 51 184
3 168 87 100
3 100 23 168
3 168 23 73
3 168 73 122
3 122 87 168
3 25 152 194
3 32 87 192
3 100 87 32
3 32 129 100
3 145 62 0
3 0 27 145
3 220 37 198
3 99 70 207
3 78 246 234
3 246 163 234
3 118 51 108
3 51 204 108
3 126 196 117
3 117 66 126
3 126 66 29
3 148 145 192
3 107 174 41
3 122 164 41
3 81 174 210
3 210 174 107
3 210 97 81
3 38 204 62
3 38 148 97
3 38 246 78
3 38 97 246
3 73 33 105
3 207 70 105
3 112 86 90
3 146 177 90
3 231 213 127
3 27 213 231
3 134 45 67
3 67 229 134
3 185 86 134
3 134 229 185
3 249 83 94
3 112 90 98
3 150 45 134
3 175 23 100
3 11 183 50
3 47 24 104
3 47 21 249
3 104 21 47
3 186 232 24
3 186 133 9
3 24 133 186
3 31 40 155
3 215 26 88
3 136 113 215
3 251 113 136
3 7 128 91
3 212 167 11
3 225 232 233
3 104 232 225
3 225 140 104
3 44 183 11
3 11 167 44
3 44 167 111
3 121 34 110
3 34 244 110
3 111 167 110
3 110 244 111
3 218 177 146
3 121 110 240
3 233 124 130
3 56 16 192
3 192 145 56
3 56 231 16
3 56 145 27
3 27 231 56
3 129 32 22
3 22 214 152
3 152 25 22
3 22 25 129
3 107 41 221
3 221 41 164
3 164 70 221
3 70 99 221
3 20 69 120
3 120 42 20
3 120 69 36
3 20 42 153
3 153 126 29
3 101 69 20
3 36 69 101
3 101 163 36
3 101 234 163
3 62 145 169
3 145 148 169
3 169 38 62
3 148 38 169
3 192 87 243
3 243 148 192
3 97 148 243
3 89 174 81
3 89 41 174
3 222 163 246
3 255 210 107
3 107 221 255
3 65 38 78
3 204 38 65
3 65 108 204
3 122 73 200
3 73 105 200
3 200 164 122
3 200 70 164
3 200 105 70
3 80 98 226
3 226 98 90
3 9 133 226
3 226 133 80
3 178 141 229
3 229 67 178
3 49 127 194
3 49 231 127
3 194 152 49
3 152 214 49
3 49 214 16
3 16 231 49
3 254 77 102
3 102 77 245
3 86 185 199
3 146 90 199
3 199 90 86
3 85 150 134
3 85 86 112
3 134 86 85
3 23 175 61
3 73 23 61
3 61 33 73
3 48 33 61
3 11 50 147
3 147 50 21
3 147 140 11
3 147 21 104
3 104 140 147
3 202 183 207
3 202 50 183
3 202 33 48
3 48 21 202
3 21 50 202
3 207 105 202
3 202 105 33
3 158 133 24
3 158 47 249
3 24 47 158
3 249 94 158
3 26 124 208
3 208 88 26
3 232 186 157
3 9 161 157
3 157 186 9
3 57 157 161
3 233 232 57
3 232 157 57
3 3 31 188
3 188 31 155
3 166 88 40
3 3 203 166
3 215 88 166
3 166 31 3
3 40 31 166
3 166 136 215
3 203 136 166
3 216 136 203
3 216 203 7
3 106 170 63
3 92 170 242
3 180 212 156
3 140 225 156
3 2 110 167
3 2 212 180
3 167 212 2
3 180 240 2
3 2 240 110
3 230 240 171
3 121 240 230
3 93 30 1
3 129 25 72
3 58 82 224
3 114 32 192
3 114 22 32
3 192 16 114
3 16 214 114
3 214 22 114
3 237 206 149
3 123 206 237
3 123 237 19
3 19 18 115
3 95 18 19
3 8 120 36
3 149 206 8
3 8 222 149
3 36 163 8
3 163 222 8
3 42 120 131
3 242 170 247
3 247 42 242
3 247 153 42
3 142 101 20
3 108 101 142
3 20 153 142
3 142 153 29
3 118 108 142
3 142 66 118
3 29 66 142
3 234 101 109
3 109 101 108
3 108 65 109
3 78 234 109
3 109 65 78
3 81 97 190
3 97 243 190
3 190 89 81
3 41 89 190
3 122 41 190
3 190 87 122
3 190 243 87
3 119 222 246
3 210 222 119
3 246 97 119
3 97 210 119
3 149 222 217
3 217 222 210
3 210 255 217
3 217 237 149
3 10 18 95
3 183 18 10
3 60 177 144
3 144 161 60
3 60 90 177
3 60 226 90
3 60 161 9
3 9 226 60
3 189 178 67
3 189 45 194
3 189 67 45
3 194 127 189
3 127 178 189
3 176 84 191
3 176 191 46
3 253 27 176
3 27 84 176
3 46 241 176
3 241 75 176
3 209 139 254
3 209 241 139
3 209 75 241
3 141 14 143
3 143 209 254
3 14 209 143
3 253 176 250
3 250 176 75
3 250 213 253
3 75 209 250
3 250 209 14
3 141 178 52
3 52 14 141
3 52 250 14
3 52 178 127
3 127 213 52
3 213 250 52
3 254 139 55
3 55 77 254
3 139 132 55
3 138 77 55
3 55 132 138
3 146 199 12
3 12 218 146
3 205 218 12
3 193 199 185
3 80 133 172
3 172 17 80
3 133 158 172
3 94 17 172
3 172 158 94
3 197 98 80
3 80 17 197
3 224 150 197
3 197 17 224
3 239 61 175
3 175 58 239
3 239 83 48
3 48 61 239
3 239 94 83
3 125 161 144
3 144 208 125
3 125 57 161
3 125 208 124
3 125 124 233
3 233 57 125
3 252 208 144
3 88 208 252
3 144 177 252
3 177 218 252
3 40 88 252
3 205 40 252
3 252 218 205
3 251 136 162
3 136 216 162
3 106 63 159
3 159 63 91
3 1 196 159
3 196 106 159
3 159 128 1
3 159 91 128
3 170 92 13
3 59 63 13
3 13 63 170
3 13 74 59
3 180 156 103
3 103 240 180
3 171 240 103
3 140 156 39
3 39 156 212
3 11 140 39
3 39 212 11
3 135 113 251
3 121 230 135
3 171 130 35
3 35 230 171
3 35 124 26
3 35 130 124
3 35 135 230
3 26 113 35
3 113 135 35
3 139 241 211
3 211 132 139
3 211 241 46
3 46 79 211
3 211 79 184
3 184 30 96
3 96 211 184
3 132 211 96
3 138 132 96
3 30 93 96
3 96 93 138
3 181 72 25
3 82 72 181
3 100 129 6
3 129 72 6
3 6 175 100
3 53 17 94
3 94 239 53
3 53 239 58
3 224 17 53
3 53 58 224
3 183 44 71
3 71 18 183
3 115 18 71
3 111 115 71
3 71 44 111
3 173 198 123
3 123 19 173
3 173 19 115
3 173 115 220
3 220 198 173
3 242 42 5
3 42 131 5
3 5 92 242
3 123 198 28
3 28 5 131
3 28 198 37
3 37 5 28
3 179 131 120
3 179 28 131
3 179 206 123
3 123 28 179
3 182 170 106
3 182 247 170
3 182 106 196
3 196 126 182
3 126 153 182
3 153 247 182
3 237 217 195
3 95 19 195
3 195 19 237
3 195 217 255
3 195 10 95
3 255 10 195
3 187 255 221
3 187 10 255
3 187 221 99
3 187 99 207
3 207 183 187
3 183 10 187
3 229 141 76
3 141 193 76
3 76 185 229
3 76 193 185
3 4 12 199
3 155 205 4
3 205 12 4
3 150 85 238
3 238 197 150
3 238 85 112
3 112 98 238
3 98 197 238
3 59 74 160
3 7 91 160
3 160 216 7
3 160 162 216
3 160 63 59
3 91 63 160
3 137 5 37
3 92 5 137
3 248 156 225
3 248 103 156
3 248 225 233
3 171 103 248
3 233 130 248
3 248 130 171
3 227 188 245
3 3 188 227
3 1 151 219
3 219 93 1
3 219 236 93
3 82 181 154
3 224 82 154
3 45 150 154
3 154 150 224
3 175 6 165
3 165 6 72
3 165 58 175
3 165 72 82
3 82 58 165
3 120 8 201
3 201 179 120
3 201 8 206
3 206 179 201
3 155 4 116
3 116 188 155
3 116 102 245
3 245 188 116
3 199 193 235
3 235 4 199
3 254 102 235
3 102 116 235
3 235 116 4
3 235 193 141
3 235 143 254
3 141 143 235
3 68 160 74
3 162 160 68
3 251 162 68
3 68 74 121
3 121 135 68
3 68 135 251
3 223 34 121
3 121 74 223
3 223 37 34
3 223 137 37
3 228 227 245
3 236 227 228
3 245 77 228
3 228 77 138
3 138 93 228
3 93 236 228
3 43 227 236
3 236 219 43
3 3 227 43
3 43 219 151
3 43 203 3
3 43 151 7
3 7 203 43
3 45 154 15
3 15 154 181
3 194 45 15
3 15 25 194
3 15 181 25
3 137 223 54
3 54 13 92
3 92 137 54
3 74 13 54
3 54 223 74