ply
format ascii 1.0
comment https://github.com/mikedh/trimesh
element vertex 256
property float x
property float y
property float z
element face 508
property list uchar int vertex_indices
end_header
1.09044325 3.10674667 0.21384533
-1.53843486 1.48698306 -2.35281730
-0.60067987 -3.28930402 -1.51506078
-2.01115656 0.68940467 -0.18723167
-1.63266456 0.85289639 2.51546454
-0.11727606 -0.44737685 -4.46567345
1.29643536 0.07887229 3.48808455
-1.86879706 0.16971953 -1.83677876
0.96764255 0.00247608 -3.97319555
-0.92337841 -2.23410726 2.94844317
1.15963554 -2.42528486 -2.22814369
0.02269625 -3.66893196 -0.27778208
-1.60074997 0.41068891 2.76816654
-0.97028887 -0.74419385 -3.86318445
-0.40706536 3.09581900 2.26026106
0.46075246 0.92195946 4.24291229
1.38420928 1.96683836 2.28646994
0.16988151 -1.58094943 4.05138016
0.65901357 -2.90862751 -2.34330916
0.61835653 -2.37605977 -3.15889359
0.37865272 1.14621937 -4.19978523
0.32793435 -3.39788866 1.56101418
1.33710587 1.34148324 2.99414015
1.55762780 -1.00625229 2.65530610
-0.44894683 -2.71856785 2.86916304
0.97242552 1.13460040 3.71401739
-1.75550199 -1.88162041 -0.28358707
0.80899584 3.23055935 1.20962679
0.27055874 -1.16033542 -4.23506880
-0.05507278 2.19070125 -3.61656046
-0.82600343 2.56316805 -2.66970491
-2.01340747 0.34881714 0.72086334
1.68087757 0.56440800 2.48196220
1.37266350 -2.26360369 1.86800420
-0.72546232 -2.30588126 -3.12623620
-1.60819089 -2.19585252 -0.74129725
0.99762738 0.69107187 -3.84361672
-0.32482705 -1.75507998 -3.89422369
1.58487010 2.08211851 -1.28293991
-0.32169449 -3.62965989 -0.09343354
-2.02083111 -0.21578702 0.69807214
1.99709666 -0.81975168 -0.12409783
0.15041336 0.58981675 -4.43533802
-1.91227508 1.17236912 -0.74410796
0.06413055 -3.38928628 -1.74024987
0.19886416 1.00503922 4.31264019
0.00398126 3.61257005 -0.83049577
-0.08493248 -3.26297331 2.06826639
1.02756965 -2.60816789 2.23051190
1.02282619 2.22202921 2.79625297
0.66141605 -3.47652102 -0.16755535
0.25193819 3.18009353 -2.19292355
-0.18243490 2.96087956 2.63989329
0.54238254 -1.41522408 3.98466611
-0.87044787 -1.19234324 -3.80897570
-1.11433911 3.06990623 0.38360539
1.49375260 2.12186885 1.65872741
-1.25856519 -2.68819213 1.33666229
0.81062001 -0.86961043 4.00045300
-1.29049087 -0.39937189 -3.46475935
-1.22603238 -1.77672255 2.88142872
1.29786360 -1.48642147 2.97381616
1.36764264 2.73426867 -0.15614896
-1.32191145 0.25055584 -3.42905188
0.96082133 3.22564077 -0.45228285
1.19609118 2.46043992 -2.07352114
-0.15751307 2.65073514 -3.10413551
-0.19304724 1.45101285 4.11883593
-1.48761070 -1.23216200 -2.70826340
0.61939734 0.96635693 -4.12861395
1.67677391 -2.10845518 0.18826100
0.33055738 -3.21167135 -2.07117271
1.07043290 0.15024006 3.83780861
1.68199992 -1.29811168 2.02299190
-1.27333272 -1.26671934 -3.17134190
-0.18350545 3.58788276 0.89038575
-0.87196678 1.67645168 3.52175236
-1.37576807 2.64645052 0.79937661
1.36844647 2.07406640 -2.18740225
0.05074049 3.49197483 -1.40257275
-0.73249662 -1.48751557 3.79321074
2.00849152 0.01498605 -0.89525414
0.77233201 -0.39542520 4.14485455
0.84357035 -2.32091260 2.96059108
0.77839357 3.39973235 0.05063096
-0.55701989 -0.00143620 4.33625126
-0.95568800 0.17750265 3.98076391
1.87056291 0.24941859 1.81694937
-1.98786080 -0.80762100 0.46886021
2.02396321 -0.42221007 -0.47691458
-1.18045056 -0.27622968 3.66758251
-1.51643348 0.66283965 -2.91905689
-0.67778200 -0.67019081 -4.17275572
-1.44618618 2.34282184 -1.39538038
0.40027779 -2.26521587 3.43709350
0.98239154 -2.31405640 -2.75617576
-0.92581701 2.93179488 -1.80080342
1.96566761 0.64617252 -0.99656194
-0.73934090 -0.99341685 4.02196121
1.55188584 -2.35638714 -0.56998235
1.58828866 -0.30647343 2.82098913
0.93695480 1.27858400 -3.68844843
-1.56435192 1.82564557 1.86066413
-0.90716988 -3.27015257 -0.50646263
-0.32398012 -3.39463305 1.57479072
1.62784457 -2.02275014 1.15684092
-1.02672315 1.25695443 -3.58246350
1.81581438 -1.04180384 -1.65268230
0.64635289 2.62048054 -2.82305360
1.18296576 2.02843118 -2.71358132
-0.49664229 -2.90567756 -2.53672743
-0.16907921 -2.82463908 -2.85833883
-0.77796942 -0.52426541 4.12007427
-1.81594896 -1.57246602 -0.80631614
1.54055011 1.33339858 2.48231602
0.10573949 -2.72150731 -3.01950479
-1.69853413 1.19902301 2.04902124
-0.54162294 2.61056805 -2.93914366
0.22759248 2.73024750 -2.97479510
1.68213773 0.32363066 -2.54274321
0.62534529 0.36145598 -4.26782608
-1.08715510 -2.18712568 -2.72121048
1.91940951 -0.95190632 1.06586814
0.51736152 -1.32999742 -4.04381752
-1.58373463 -2.28895330 0.55654871
-1.52077806 -2.23967886 1.25919759
-0.35240683 2.11881828 -3.60173607
0.51056325 2.67298770 2.88117361
-1.61392725 0.97556031 -2.50562525
1.34694123 0.57790601 3.32120013
-1.39061642 -2.69988298 -0.06877187
0.16067235 -0.44356123 -4.45864630
-1.08206880 3.03874850 -0.87609828
-0.50694525 -2.34172225 3.29172063
-0.54298753 0.60697526 4.28062439
-1.64887822 -1.92408586 -1.26226044
-1.91334581 -1.10228419 -0.88376576
-0.61884922 -1.13249636 -4.06470346
-1.29281592 2.74599147 -0.94544899
-0.77145702 3.35791159 0.69963944
-0.28160176 -3.58363199 0.79182649
-0.78690463 2.29519820 3.06531000
0.23765032 2.24847460 -3.52603745
-0.91053176 2.57663798 2.51474285
-1.60378683 -1.48363769 2.13548970
1.52728057 2.28649855 1.08111298
-1.42589962 -0.19257595 3.22794175
0.15761301 -3.62842798 0.63063365
1.79999924 1.75550103 -0.11214966
1.21596253 -0.72875988 -3.51525068
-0.24996567 -0.09101112 4.47103071
-1.77799809 0.98784989 -1.88483083
1.02035213 1.67534840 3.32345319
-0.04402703 1.41832507 -4.15549326
0.36106893 0.20423728 4.42818832
-1.91329026 0.43099320 1.52628469
-0.71791071 -3.44252491 -0.09524382
-1.06316757 -2.63868761 2.09213972
-0.18555646 -2.50113893 3.27753115
-1.24644387 1.05542922 -3.33615541
-1.47174001 -0.67802954 -3.02311444
-1.27632928 -2.26119041 2.17898726
-1.80129528 -0.90651035 -1.83868730
1.32184076 0.69828963 -3.33575964
1.85332656 -1.56707370 0.10304644
1.01849508 -0.36179191 3.88489127
-2.03518462 -0.38587815 -0.24240194
-0.24582705 -3.41740608 -1.56825089
1.81486011 -0.56102252 1.97586191
1.64703298 2.15046835 -0.49119061
-0.61932451 0.25227281 -4.28528881
-1.23448277 -2.90540218 -0.49606046
-0.00079859 -2.12279701 3.67870045
0.32359815 -2.12290239 -3.60846758
1.90598357 -0.62406147 -1.46860301
1.14895022 -1.08516192 3.48569107
0.10624909 3.59156585 0.93197316
-1.55872464 -1.14089060 2.56995225
-0.17573079 2.18732500 3.60301876
0.48499748 -0.61790687 -4.31279898
-0.70648628 -3.37439632 -0.88184786
0.80275989 0.68189722 4.06075001
-0.69907236 1.52843690 -3.79938388
0.69511873 -3.38790035 -0.84700632
-0.36312318 3.17183518 -2.13374376
-0.77657163 0.90051323 4.02108765
-0.71330464 -2.54432249 2.84888339
1.40351045 -2.40054202 -1.45719337
-1.94245005 1.01701236 0.71213913
0.08548547 2.01880288 3.76107049
2.04260111 0.16486140 -0.29728314
0.43758252 3.55810642 -0.59694880
1.73353577 1.26956189 1.83087015
-1.11214876 1.44220805 3.34683633
0.55187261 1.90203977 3.66049409
1.04470575 -1.84462035 -3.14958787
-0.90898317 2.07353330 -3.13966560
-0.22710589 -0.66513968 4.40316105
0.21709850 -1.69513988 -3.97017002
-1.35556281 0.49831143 3.32405686
1.75512481 -1.80431437 0.72327960
0.74642956 -0.48200244 -4.15440369
1.09460402 -3.10631514 0.14936042
-1.99632275 -0.04331267 -1.01475561
1.03363526 2.99386048 -1.29067075
-1.75080323 0.12090195 2.33683968
0.88098353 -0.86337507 -3.92848229
1.41582882 -2.65275645 -0.19249631
-1.68463910 -1.78573060 1.33776331
-0.59799790 3.33136678 1.37569666
1.74551928 -0.25120544 -2.34143925
-0.41674602 3.46184230 -1.20666087
-0.42135164 -3.53424025 -0.82770592
0.50652945 2.99328780 2.36596107
1.23823428 1.82333207 2.81016874
-1.94474959 -1.13766587 -0.26291764
-1.89552641 -0.37371111 -1.64884496
1.42156458 -0.88827813 -3.05725646
-1.64573884 -0.50478524 2.61394238
-1.72068071 1.53753960 -1.56284487
-0.24052696 -2.18684173 -3.58371425
1.73301804 -1.87783277 -0.70173049
1.49480462 0.20541196 -3.07207417
-0.89280075 -1.66062713 -3.50988817
0.32014486 -0.77083552 4.34986210
-0.81136602 -3.29936337 0.87115312
-1.00762618 -1.73611844 3.29682493
-1.86859345 1.50783038 -0.06122119
-1.63526630 2.14797354 -0.66037530
-0.62858707 1.61496091 3.80525637
-1.45462775 -2.38185406 -1.24232185
0.90036058 2.60348439 2.48974895
-0.96615064 -2.97638106 1.57460487
-1.29880571 -2.80684257 0.55696380
1.31215608 1.55304241 -2.89122629
-1.31723881 1.47484124 2.94068885
-1.71243525 1.82565606 -1.05933797
0.96741176 -1.36627853 -3.60252023
-0.47640181 -0.45464134 4.34778118
1.03536463 -1.75758481 3.23785949
-1.00926471 -2.89486074 -1.66853416
-0.34972924 3.60913801 0.36706904
-0.29573533 0.07519015 -4.45789719
2.01064539 0.70979697 -0.00170380
-0.44121999 -2.52242517 -3.13017893
-1.70056880 1.94583297 0.79485917
1.65780342 0.81744212 -2.45219207
-0.36904711 0.88381833 -4.29720402
-1.04036462 -3.16527772 0.11692342
0.28284889 -2.86675858 2.75083899
-0.00433398 3.29745626 1.99267030
-1.76983285 -1.35471582 -1.54821026
-1.80091250 -1.16914105 1.60342658
0.34907833 3.37482357 1.61264205
-1.13848448 2.50714660 2.14273763
1.65966511 -1.21805012 -2.18071032
3 249 48 83
3 64 0 62
3 220 34 37
3 64 62 204
3 204 191 64
3 51 191 204
3 213 27 253
3 21 48 249
3 104 24 232
3 40 205 155
3 7 151 128
3 128 151 1
3 115 111 220
3 220 111 244
3 244 34 220
3 113 26 215
3 117 184 66
3 66 51 118
3 184 51 66
3 117 196 30
3 30 184 117
3 30 196 1
3 64 191 84
3 84 0 64
3 84 27 0
3 46 191 79
3 79 191 51
3 79 51 184
3 168 87 100
3 100 23 168
3 168 23 73
3 168 73 122
3 122 87 168
3 25 152 194
3 32 87 192
3 100 87 32
3 32 129 100
3 145 62 0
3 0 27 145
3 220 37 198
3 99 70 207
3 78 246 234
3 246 163 234
3 118 51 108
3 51 204 108
3 126 196 117
3 117 66 126
3 126 66 29
3 148 145 192
3 107 174 41
3 122 164 41
3 81 174 210
3 210 174 107
3 210 97 81
3 38 204 62
3 38 148 97
3 38 246 78
3 38 97 246
3 73 33 105
3 207 70 105
3 112 86 90
3 146 177 90
3 231 213 127
3 27 213 231
3 134 45 67
3 67 229 134
3 185 86 134
3 134 229 185
3 249 83 94
3 112 90 98
3 150 45 134
3 175 23 100
3 11 183 50
3 47 24 104
3 47 21 249
3 104 21 47
3 186 232 24
3 186 133 9
3 24 133 186
3 31 40 155
3 215 26 88
3 136 113 215
3 251 113 136
3 7 128 91
3 212 167 11
3 225 232 233
3 104 232 225
3 225 140 104
3 44 183 11
3 11 167 44
3 44 167 111
3 121 34 110
3 34 244 110
3 111 167 110
3 110 244 111
3 218 177 146
3 121 110 240
3 233 124 130
3 56 16 192
3 192 145 56
3 56 231 16
3 56 145 27
3 27 231 56
3 129 32 22
3 22 214 152
3 152 25 22
3 22 25 129
3 107 41 221
3 221 41 164
3 164 70 221
3 70 99 221
3 20 69 120
3 120 42 20
3 120 69 36
3 20 42 153
3 153 126 29
3 101 69 20
3 36 69 101
3 101 163 36
3 101 234 163
3 62 145 169
3 145 148 169
3 169 38 62
3 148 38 169
3 192 87 243
3 243 148 192
3 97 148 243
3 89 174 81
3 89 41 174
3 222 163 246
3 255 210 107
3 107 221 255
3 65 38 78
3 204 38 65
3 65 108 204
3 122 73 200
3 73 105 200
3 200 164 122
3 200 70 164
3 200 105 70
3 80 98 226
3 226 98 90
3 9 133 226
3 226 133 80
3 178 141 229
3 229 67 178
3 49 127 194
3 49 231 127
3 194 152 49
3 152 214 49
3 49 214 16
3 16 231 49
3 254 77 102
3 102 77 245
3 86 185 199
3 146 90 199
3 199 90 86
3 85 150 134
3 85 86 112
3 134 86 85
3 23 175 61
3 73 23 61
3 61 33 73
3 48 33 61
3 11 50 147
3 147 50 21
3 147 140 11
3 147 21 104
3 104 140 147
3 202 183 207
3 202 50 183
3 202 33 48
3 48 21 202
3 21 50 202
3 207 105 202
3 202 105 33
3 158 133 24
3 158 47 249
3 24 47 158
3 249 94 158
3 26 124 208
3 208 88 26
3 232 186 157
3 9 161 157
3 157 186 9
3 57 157 161
3 233 232 57
3 232 157 57
3 3 31 188
3 188 31 155
3 166 88 40
3 3 203 166
3 215 88 166
3 166 31 3
3 40 31 166
3 166 136 215
3 203 136 166
3 216 136 203
3 216 203 7
3 106 170 63
3 92 170 242
3 180 212 156
3 140 225 156
3 2 110 167
3 2 212 180
3 167 212 2
3 180 240 2
3 2 240 110
3 230 240 171
3 121 240 230
3 93 30 1
3 129 25 72
3 58 82 224
3 114 32 192
3 114 22 32
3 192 16 114
3 16 214 114
3 214 22 114
3 237 206 149
3 123 206 237
3 123 237 19
3 19 18 115
3 95 18 19
3 8 120 36
3 149 206 8
3 8 222 149
3 36 163 8
3 163 222 8
3 42 120 131
3 242 170 247
3 247 42 242
3 247 153 42
3 142 101 20
3 108 101 142
3 20 153 142
3 142 153 29
3 118 108 142
3 142 66 118
3 29 66 142
3 234 101 109
3 109 101 108
3 108 65 109
3 78 234 109
3 109 65 78
3 81 97 190
3 97 243 190
3 190 89 81
3 41 89 190
3 122 41 190
3 190 87 122
3 190 243 87
3 119 222 246
3 210 222 119
3 246 97 119
3 97 210 119
3 149 222 217
3 217 222 210
3 210 255 217
3 217 237 149
3 10 18 95
3 183 18 10
3 60 177 144
3 144 161 60
3 60 90 177
3 60 226 90
3 60 161 9
3 9 226 60
3 189 178 67
3 189 45 194
3 189 67 45
3 194 127 189
3 127 178 189
3 176 84 191
3 176 191 46
3 253 27 176
3 27 84 176
3 46 241 176
3 241 75 176
3 209 139 254
3 209 241 139
3 209 75 241
3 141 14 143
3 143 209 254
3 14 209 143
3 253 176 250
3 250 176 75
3 250 213 253
3 75 209 250
3 250 209 14
3 141 178 52
3 52 14 141
3 52 250 14
3 52 178 127
3 127 213 52
3 213 250 52
3 254 139 55
3 55 77 254
3 139 132 55
3 138 77 55
3 55 132 138
3 146 199 12
3 12 218 146
3 205 218 12
3 193 199 185
3 80 133 172
3 172 17 80
3 133 158 172
3 94 17 172
3 172 158 94
3 197 98 80
3 80 17 197
3 224 150 197
3 197 17 224
3 239 61 175
3 175 58 239
3 239 83 48
3 48 61 239
3 239 94 83
3 125 161 144
3 144 208 125
3 125 57 161
3 125 208 124
3 125 124 233
3 233 57 125
3 252 208 144
3 88 208 252
3 144 177 252
3 177 218 252
3 40 88 252
3 205 40 252
3 252 218 205
3 251 136 162
3 136 216 162
3 106 63 159
3 159 63 91
3 1 196 159
3 196 106 159
3 159 128 1
3 159 91 128
3 170 92 13
3 59 63 13
3 13 63 170
3 13 74 59
3 180 156 103
3 103 240 180
3 171 240 103
3 140 156 39
3 39 156 212
3 11 140 39
3 39 212 11
3 135 113 251
3 121 230 135
3 171 130 35
3 35 230 171
3 35 124 26
3 35 130 124
3 35 135 230
3 26 113 35
3 113 135 35
3 139 241 211
3 211 132 139
3 211 241 46
3 46 79 211
3 211 79 184
3 184 30 96
3 96 211 184
3 132 211 96
3 138 132 96
3 30 93 96
3 96 93 138
3 181 72 25
3 82 72 181
3 100 129 6
3 129 72 6
3 6 175 100
3 53 17 94
3 94 239 53
3 53 239 58
3 224 17 53
3 53 58 224
3 183 44 71
3 71 18 183
3 115 18 71
3 111 115 71
3 71 44 111
3 173 198 123
3 123 19 173
3 173 19 115
3 173 115 220
3 220 198 173
3 242 42 5
3 42 131 5
3 5 92 242
3 123 198 28
3 28 5 131
3 28 198 37
3 37 5 28
3 179 131 120
3 179 28 131
3 179 206 123
3 123 28 179
3 182 170 106
3 182 247 170
3 182 106 196
3 196 126 182
3 126 153 182
3 153 247 182
3 237 217 195
3 95 19 195
3 195 19 237
3 195 217 255
3 195 10 95
3 255 10 195
3 187 255 221
3 187 10 255
3 187 221 99
3 187 99 207
3 207 183 187
3 183 10 187
3 229 141 76
3 141 193 76
3 76 185 229
3 76 193 185
3 4 12 199
3 155 205 4
3 205 12 4
3 150 85 238
3 238 197 150
3 238 85 112
3 112 98 238
3 98 197 238
3 59 74 160
3 7 91 160
3 160 216 7
3 160 162 216
3 160 63 59
3 91 63 160
3 137 5 37
3 92 5 137
3 248 156 225
3 248 103 156
3 248 225 233
3 171 103 248
3 233 130 248
3 248 130 171
3 227 188 245
3 3 188 227
3 1 151 219
3 219 93 1
3 219 236 93
3 82 181 154
3 224 82 154
3 45 150 154
3 154 150 224
3 175 6 165
3 165 6 72
3 165 58 175
3 165 72 82
3 82 58 165
3 120 8 201
3 201 179 120
3 201 8 206
3 206 179 201
3 155 4 116
3 116 188 155
3 116 102 245
3 245 188 116
3 199 193 235
3 235 4 199
3 254 102 235
3 102 116 235
3 235 116 4
3 235 193 141
3 235 143 254
3 141 143 235
3 68 160 74
3 162 160 68
3 251 162 68
3 68 74 121
3 121 135 68
3 68 135 251
3 223 34 121
3 121 74 223
3 223 37 34
3 223 137 37
3 228 227 245
3 236 227 228
3 245 77 228
3 228 77 138
3 138 93 228
3 93 236 228
3 43 227 236
3 236 219 43
3 3 227 43
3 43 219 151
3 43 203 3
3 43 151 7
3 7 203 43
3 45 154 15
3 15 154 181
3 194 45 15
3 15 25 194
3 15 181 25
3 137 223 54
3 54 13 92
3 92 137 54
3 74 13 54
3 54 223 74