ply
format ascii 1.0
comment https://github.com/mikedh/trimesh
element vertex 256
property float x
property float y
property float z
element face 508
property list uchar int vertex_indices
end_header
0.90323663 4.10259819 0.06592242
-1.27431726 1.96362793 -0.72530657
-0.49755546 -4.34367371 -0.46705005
-1.66588235 0.91038978 -0.05771819
-1.35236967 1.12628794 0.77544606
-0.09714217 -0.59078121 -1.37663984
1.07386410 0.10415439 1.07527709
-1.54796302 0.22412226 -0.56622654
0.80151820 0.00326977 -1.22482300
-0.76485330 -2.95023894 0.90892100
0.96054995 -3.20269752 -0.68687320
0.01879977 -4.84498930 -0.08563230
-1.32593417 0.54233313 0.85334682
-0.80371022 -0.98274136 -1.19090974
-0.33718061 4.08816814 0.69677413
0.38165075 1.21748888 1.30796885
1.14656901 2.59729838 0.70485348
0.14071634 -2.08771467 1.24892509
0.54587454 -3.84097314 -0.72237545
0.51219743 -3.13769364 -0.97379684
0.31364584 1.51363420 -1.29467416
0.27163476 -4.48706436 0.48121619
1.10755229 1.77148890 0.92300808
1.29021513 -1.32880127 0.81855524
-0.37187189 -3.58999085 0.88448119
0.80548006 1.49829078 1.14492571
-1.45411837 -2.48476410 -0.08742181
0.67010790 4.26609850 0.37289345
0.22410938 -1.53227508 -1.30555093
-0.04561792 2.89291930 -1.11488247
-0.68419564 3.38477826 -0.82299399
-1.66774678 0.46062869 0.22222163
1.39230537 0.74532610 0.76511824
1.13700545 -2.98919034 0.57585251
-0.60091531 -3.04501987 -0.96372956
-1.33209765 -2.89972162 -0.22852081
0.82635528 0.91259140 -1.18487751
-0.26906091 -2.31766200 -1.20047820
1.31278050 2.74953103 -0.39549384
-0.26646617 -4.79312897 -0.02880290
-1.67389596 -0.28495646 0.21519575
1.65423620 -1.08251894 -0.03825583
0.12459049 0.77887952 -1.36728835
-1.58397675 1.54816616 -0.22938727
0.05312065 -4.47570467 -0.53646946
0.16472328 1.32719946 1.32946420
0.00329776 4.77056074 -0.25601816
-0.07035132 -4.30890274 0.63758761
0.85115707 -3.44420290 0.68760324
0.84722793 2.93428946 0.86200511
0.54786450 -4.59090185 -0.05165254
0.20868558 4.19945621 -0.67601585
-0.15111458 3.90997458 0.81380385
0.44926658 -1.86886692 1.22835898
-0.72100991 -1.57454288 -1.17419875
-0.92303002 4.05394888 0.11825462
1.23730600 2.80202317 0.51133835
-1.04249537 -3.54987860 0.41205493
0.67145324 -1.14835966 1.23322570
-1.06894016 -0.52738851 -1.06808662
-1.01554787 -2.34624195 0.88826239
1.07504714 -1.96288621 0.91674280
1.13284659 3.61072469 -0.04813628
-1.09496641 0.33087024 -1.05707896
0.79586804 4.25960350 -0.13942592
0.99074692 3.24912143 -0.63920748
-0.13047132 3.50041485 -0.95691651
-0.15990500 1.91612756 1.26971984
-1.23221850 -1.62712514 -0.83488041
0.51305956 1.27611768 -1.27273405
1.38890636 -2.78430963 0.05803550
0.27380747 -4.24115610 -0.63848352
0.88666165 0.19839875 1.18308699
1.39323509 -1.71421480 0.62363070
-1.05472767 -1.67275989 -0.97763431
-0.15200134 4.73796034 0.27448055
-0.72226804 2.21382976 1.08565593
-1.13957703 3.49475670 0.24642503
1.13351238 2.73889780 -0.67431384
0.04202939 4.61130953 -0.43237320
-0.60674202 -1.96433103 1.16933882
1.66367483 0.01978976 -0.27598134
0.63973850 -0.52217674 1.27774060
0.69874668 -3.06486940 0.91266584
0.64475942 4.48949909 0.01560808
-0.46139103 -0.00189656 1.33674276
-0.79161602 0.23440021 1.22715604
1.54942572 0.32936844 0.56011373
-1.64658606 -1.06649983 0.14453624
1.67649031 -0.55754733 -0.14701918
-0.97779149 -0.36477366 1.13061118
-1.25609303 0.87530953 -0.89986205
-0.56142074 -0.88501704 -1.28634167
-1.19790578 3.09380150 -0.43015602
0.33155832 -2.99131942 1.05955803
0.81373513 -3.05581522 -0.84965044
-0.76687330 3.87156677 -0.55513638
1.62820292 0.85329980 -0.30721164
-0.61241126 -1.31185150 1.23985600
1.28545904 -3.11171508 -0.17570931
1.31561220 -0.40471193 0.86963052
0.77609897 1.68842757 -1.13704360
-1.29578495 2.41084695 0.57358974
-0.75142747 -4.31838322 -0.15612800
-0.26835939 -4.48276520 0.48546311
1.34837723 -2.67113233 0.35662109
-0.85045588 1.65986466 -1.10437143
1.50407636 -1.37574875 -0.50947487
0.53538740 3.46046209 -0.87026703
0.97987485 2.67863441 -0.83651984
-0.41137901 -3.83707762 -0.78200084
-0.14005178 -3.73006272 -0.88114440
-0.64440805 -0.69231600 1.27010155
-1.50418782 -2.07651186 -0.24856429
1.27606940 1.76081264 0.76522732
0.08758619 -3.59387255 -0.93082732
-1.40693080 1.58336365 0.63165492
-0.44863743 3.44737244 -0.90605420
0.18851954 3.60541439 -0.91704458
1.39334929 0.42736882 -0.78385526
0.51798636 0.47731885 -1.31564915
-0.90051293 -2.88819766 -0.83887160
1.58988643 -1.25703502 0.32857677
0.42854118 -1.75632143 -1.24659371
-1.31183994 -3.02266550 0.17156811
-1.25969172 -2.95759630 0.38817474
-0.29190582 2.79799461 -1.11031258
0.42291003 3.52980018 0.88818371
-1.33684909 1.28827119 -0.77241290
1.11569917 0.76315087 1.02383137
-1.15187621 -3.56531668 -0.02120041
0.13308822 -0.58574253 -1.37447357
-0.89629990 4.01280355 -0.27007613
-0.41991317 -3.09234953 1.01474369
-0.44976771 0.80153805 1.31959462
-1.36579978 -2.54084182 -0.38911891
-1.58486366 -1.45561588 -0.27243981
-0.51260555 -1.49551225 -1.25303233
-1.07086599 3.62620521 -0.29145497
-0.63901371 4.43427277 0.21567892
-0.23325652 -4.73234701 0.24409755
-0.65180928 3.03091216 0.94494772
0.19685064 2.96921182 -1.08697689
-0.75421220 3.40256619 0.77522361
-1.32844961 -1.95921028 0.65831065
1.26507783 3.01942420 0.33327633
-1.18110192 -0.25430518 0.99508244
0.13055409 -4.79150200 0.19440639
1.49097645 2.31821775 -0.03457254
1.00720680 -0.96236014 -1.08365166
-0.20705169 -0.12018427 1.37829149
-1.47275233 1.30450010 -0.58103967
0.84517866 2.21237278 1.02452588
-0.03646849 1.87296188 -1.28102005
0.29908082 0.26970449 1.36508429
-1.58481777 0.56914586 0.47051007
-0.59466022 -4.54600859 -0.02936096
-0.88064361 -3.48450541 0.64494705
-0.15370023 -3.30286646 1.01036954
-1.03245509 1.39374173 -1.02844167
-1.21907258 -0.89536846 -0.93194008
-1.05720985 -2.98600340 0.67171973
-1.49204993 -1.19708765 -0.56681490
1.09490788 0.92212284 -1.02831960
1.53514850 -2.06939125 0.03176628
0.84364045 -0.47776249 1.19760132
-1.68578529 -0.50956941 -0.07472561
-0.20362361 -4.51283789 -0.48344707
1.50328600 -0.74085546 0.60910195
1.36427128 2.83979011 -0.15142007
-0.51299924 0.33313760 -1.32103240
-1.02254748 -3.83671403 -0.15292130
-0.00066149 -2.80324864 1.13403857
0.26804301 -2.80338788 -1.11238778
1.57876539 -0.82410121 -0.45272848
0.95169914 -1.43300509 1.07453918
0.08800831 4.74282408 0.28730077
-1.29112375 -1.50659716 0.79224306
-0.14556143 2.88846087 1.11070800
0.40173340 -0.81597376 -1.32951295
-0.58519709 -4.45604181 -0.27184856
0.66494250 0.90047586 1.25181353
-0.57905602 2.01836967 -1.17124176
0.57578117 -4.47387457 -0.26110792
-0.30078238 4.18855047 -0.65777242
-0.64325029 1.18916810 1.23958671
-0.59084493 -3.35989189 0.87822956
1.16255653 -3.17002344 -0.44921118
-1.60897124 1.34301043 0.21953221
0.07080937 2.66591978 1.15943086
1.69192839 0.21770686 -0.09164392
0.36245859 4.69863939 -0.18402231
1.43592334 1.67651355 0.56440508
-0.92121571 1.90450048 1.03173423
0.45712742 2.51172900 1.12842596
0.86535126 -2.43590403 -0.97092819
-0.75292945 2.73819399 -0.96786940
-0.18811648 -0.87834680 1.35736907
0.17982715 -2.23850846 -1.22389030
-1.12284052 0.65804261 1.02471197
1.45380592 -2.38267803 0.22296648
0.61828291 -0.63650584 -1.28068423
0.90668297 -4.10202837 0.04604356
-1.65359521 -0.05719632 -0.31282026
0.85618138 3.95352721 -0.39787704
-1.45022631 0.15965645 0.72038108
0.72973680 -1.14012551 -1.21103919
1.17276013 -3.50308394 -0.05934113
-1.39542127 -2.35813737 0.41239432
-0.49533397 4.39921951 0.42408809
1.44584954 -0.33172807 -0.72179902
-0.34519929 4.57151794 -0.37197915
-0.34901422 -4.66712284 -0.25515816
0.41956875 3.95277095 0.72935838
1.02565491 2.40779185 0.86629498
-1.61087608 -1.50233877 -0.08105002
-1.57010353 -0.49350229 -0.50829190
1.17751122 -1.17301106 -0.94246501
-1.36319935 -0.66659153 0.80580395
-1.42527533 2.03039002 -0.48178053
-0.19923343 -2.88782263 -1.10475695
1.43549442 -2.47976255 -0.21632352
1.23817742 0.27125570 -0.94703293
-0.73952526 -2.19293261 -1.08199859
0.26518255 -1.01792288 1.34093845
-0.67207116 -4.35695744 0.26855168
-0.83463752 -2.29262233 1.01631725
-1.54779434 1.99115765 -0.01887275
-1.35452473 2.83649564 -0.20357488
-0.52067155 2.13262844 1.17305207
-1.20489812 -3.14534521 -0.38297245
0.74578720 3.43801808 0.76751870
-0.80028242 -3.93044472 0.48540580
-1.07582748 -3.70656157 0.17169607
1.08688581 2.05086207 -0.89128274
-1.09109592 1.94759405 0.90653056
-1.41844535 2.41086078 -0.32656372
0.80132705 -1.80423212 -1.11055434
-0.39461342 -0.60037428 1.34029710
0.85761386 -2.32096958 0.99813986
-0.83599472 -3.82279372 -0.51436150
-0.28968793 4.76602888 0.11315693
-0.24496366 0.09929197 -1.37424278
1.66545892 0.93731880 -0.00052523
-0.36547160 -3.33097553 -0.96494502
-1.40861607 2.56955981 0.24503244
1.37319267 1.07946897 -0.75594097
-0.30568931 1.16712177 -1.32470560
-0.86175537 -4.17989111 0.03604416
0.23428954 -3.78568339 0.84800529
-0.00358993 4.35443878 0.61428344
-1.46598899 -1.78896308 -0.47726908
-1.49173284 -1.54390335 0.49429071
0.28914875 4.45660591 0.49713159
-0.94303012 3.31079984 0.66054493
1.37473476 -1.60848999 -0.67225081
3 249 48 83
3 64 0 62
3 220 34 37
3 64 62 204
3 204 191 64
3 51 191 204
3 213 27 253
3 21 48 249
3 104 24 232
3 40 205 155
3 7 151 128
3 128 151 1
3 115 111 220
3 220 111 244
3 244 34 220
3 113 26 215
3 117 184 66
3 66 51 118
3 184 51 66
3 117 196 30
3 30 184 117
3 30 196 1
3 64 191 84
3 84 0 64
3 84 27 0
3 46 191 79
3 79 191 51
3 79 51 184
3 168 87 100
3 100 23 168
3 168 23 73
3 168 73 122
3 122 87 168
3 25 152 194
3 32 87 192
3 100 87 32
3 32 129 100
3 145 62 0
3 0 27 145
3 220 37 198
3 99 70 207
3 78 246 234
3 246 163 234
3 118 51 108
3 51 204 108
3 126 196 117
3 117 66 126
3 126 66 29
3 148 145 192
3 107 174 41
3 122 164 41
3 81 174 210
3 210 174 107
3 210 97 81
3 38 204 62
3 38 148 97
3 38 246 78
3 38 97 246
3 73 33 105
3 207 70 105
3 112 86 90
3 146 177 90
3 231 213 127
3 27 213 231
3 134 45 67
3 67 229 134
3 185 86 134
3 134 229 185
3 249 83 94
3 112 90 98
3 150 45 134
3 175 23 100
3 11 183 50
3 47 24 104
3 47 21 249
3 104 21 47
3 186 232 24
3 186 133 9
3 24 133 186
3 31 40 155
3 215 26 88
3 136 113 215
3 251 113 136
3 7 128 91
3 212 167 11
3 225 232 233
3 104 232 225
3 225 140 104
3 44 183 11
3 11 167 44
3 44 167 111
3 121 34 110
3 34 244 110
3 111 167 110
3 110 244 111
3 218 177 146
3 121 110 240
3 233 124 130
3 56 16 192
3 192 145 56
3 56 231 16
3 56 145 27
3 27 231 56
3 129 32 22
3 22 214 152
3 152 25 22
3 22 25 129
3 107 41 221
3 221 41 164
3 164 70 221
3 70 99 221
3 20 69 120
3 120 42 20
3 120 69 36
3 20 42 153
3 153 126 29
3 101 69 20
3 36 69 101
3 101 163 36
3 101 234 163
3 62 145 169
3 145 148 169
3 169 38 62
3 148 38 169
3 192 87 243
3 243 148 192
3 97 148 243
3 89 174 81
3 89 41 174
3 222 163 246
3 255 210 107
3 107 221 255
3 65 38 78
3 204 38 65
3 65 108 204
3 122 73 200
3 73 105 200
3 200 164 122
3 200 70 164
3 200 105 70
3 80 98 226
3 226 98 90
3 9 133 226
3 226 133 80
3 178 141 229
3 229 67 178
3 49 127 194
3 49 231 127
3 194 152 49
3 152 214 49
3 49 214 16
3 16 231 49
3 254 77 102
3 102 77 245
3 86 185 199
3 146 90 199
3 199 90 86
3 85 150 134
3 85 86 112
3 134 86 85
3 23 175 61
3 73 23 61
3 61 33 73
3 48 33 61
3 11 50 147
3 147 50 21
3 147 140 11
3 147 21 104
3 104 140 147
3 202 183 207
3 202 50 183
3 202 33 48
3 48 21 202
3 21 50 202
3 207 105 202
3 202 105 33
3 158 133 24
3 158 47 249
3 24 47 158
3 249 94 158
3 26 124 208
3 208 88 26
3 232 186 157
3 9 161 157
3 157 186 9
3 57 157 161
3 233 232 57
3 232 157 57
3 3 31 188
3 188 31 155
3 166 88 40
3 3 203 166
3 215 88 166
3 166 31 3
3 40 31 166
3 166 136 215
3 203 136 166
3 216 136 203
3 216 203 7
3 106 170 63
3 92 170 242
3 180 212 156
3 140 225 156
3 2 110 167
3 2 212 180
3 167 212 2
3 180 240 2
3 2 240 110
3 230 240 171
3 121 240 230
3 93 30 1
3 129 25 72
3 58 82 224
3 114 32 192
3 114 22 32
3 192 16 114
3 16 214 114
3 214 22 114
3 237 206 149
3 123 206 237
3 123 237 19
3 19 18 115
3 95 18 19
3 8 120 36
3 149 206 8
3 8 222 149
3 36 163 8
3 163 222 8
3 42 120 131
3 242 170 247
3 247 42 242
3 247 153 42
3 142 101 20
3 108 101 142
3 20 153 142
3 142 153 29
3 118 108 142
3 142 66 118
3 29 66 142
3 234 101 109
3 109 101 108
3 108 65 109
3 78 234 109
3 109 65 78
3 81 97 190
3 97 243 190
3 190 89 81
3 41 89 190
3 122 41 190
3 190 87 122
3 190 243 87
3 119 222 246
3 210 222 119
3 246 97 119
3 97 210 119
3 149 222 217
3 217 222 210
3 210 255 217
3 217 237 149
3 10 18 95
3 183 18 10
3 60 177 144
3 144 161 60
3 60 90 177
3 60 226 90
3 60 161 9
3 9 226 60
3 189 178 67
3 189 45 194
3 189 67 45
3 194 127 189
3 127 178 189
3 176 84 191
3 176 191 46
3 253 27 176
3 27 84 176
3 46 241 176
3 241 75 176
3 209 139 254
3 209 241 139
3 209 75 241
3 141 14 143
3 143 209 254
3 14 209 143
3 253 176 250
3 250 176 75
3 250 213 253
3 75 209 250
3 250 209 14
3 141 178 52
3 52 14 141
3 52 250 14
3 52 178 127
3 127 213 52
3 213 250 52
3 254 139 55
3 55 77 254
3 139 132 55
3 138 77 55
3 55 132 138
3 146 199 12
3 12 218 146
3 205 218 12
3 193 199 185
3 80 133 172
3 172 17 80
3 133 158 172
3 94 17 172
3 172 158 94
3 197 98 80
3 80 17 197
3 224 150 197
3 197 17 224
3 239 61 175
3 175 58 239
3 239 83 48
3 48 61 239
3 239 94 83
3 125 161 144
3 144 208 125
3 125 57 161
3 125 208 124
3 125 124 233
3 233 57 125
3 252 208 144
3 88 208 252
3 144 177 252
3 177 218 252
3 40 88 252
3 205 40 252
3 252 218 205
3 251 136 162
3 136 216 162
3 106 63 159
3 159 63 91
3 1 196 159
3 196 106 159
3 159 128 1
3 159 91 128
3 170 92 13
3 59 63 13
3 13 63 170
3 13 74 59
3 180 156 103
3 103 240 180
3 171 240 103
3 140 156 39
3 39 156 212
3 11 140 39
3 39 212 11
3 135 113 251
3 121 230 135
3 171 130 35
3 35 230 171
3 35 124 26
3 35 130 124
3 35 135 230
3 26 113 35
3 113 135 35
3 139 241 211
3 211 132 139
3 211 241 46
3 46 79 211
3 211 79 184
3 184 30 96
3 96 211 184
3 132 211 96
3 138 132 96
3 30 93 96
3 96 93 138
3 181 72 25
3 82 72 181
3 100 129 6
3 129 72 6
3 6 175 100
3 53 17 94
3 94 239 53
3 53 239 58
3 224 17 53
3 53 58 224
3 183 44 71
3 71 18 183
3 115 18 71
3 111 115 71
3 71 44 111
3 173 198 123
3 123 19 173
3 173 19 115
3 173 115 220
3 220 198 173
3 242 42 5
3 42 131 5
3 5 92 242
3 123 198 28
3 28 5 131
3 28 198 37
3 37 5 28
3 179 131 120
3 179 28 131
3 179 206 123
3 123 28 179
3 182 170 106
3 182 247 170
3 182 106 196
3 196 126 182
3 126 153 182
3 153 247 182
3 237 217 195
3 95 19 195
3 195 19 237
3 195 217 255
3 195 10 95
3 255 10 195
3 187 255 221
3 187 10 255
3 187 221 99
3 187 99 207
3 207 183 187
3 183 10 187
3 229 141 76
3 141 193 76
3 76 185 229
3 76 193 185
3 4 12 199
3 155 205 4
3 205 12 4
3 150 85 238
3 238 197 150
3 238 85 112
3 112 98 238
3 98 197 238
3 59 74 160
3 7 91 160
3 160 216 7
3 160 162 216
3 160 63 59
3 91 63 160
3 137 5 37
3 92 5 137
3 248 156 225
3 248 103 156
3 248 225 233
3 171 103 248
3 233 130 248
3 248 130 171
3 227 188 245
3 3 188 227
3 1 151 219
3 219 93 1
3 219 236 93
3 82 181 154
3 224 82 154
3 45 150 154
3 154 150 224
3 175 6 165
3 165 6 72
3 165 58 175
3 165 72 82
3 82 58 165
3 120 8 201
3 201 179 120
3 201 8 206
3 206 179 201
3 155 4 116
3 116 188 155
3 116 102 245
3 245 188 116
3 199 193 235
3 235 4 199
3 254 102 235
3 102 116 235
3 235 116 4
3 235 193 141
3 235 143 254
3 141 143 235
3 68 160 74
3 162 160 68
3 251 162 68
3 68 74 121
3 121 135 68
3 68 135 251
3 223 34 121
3 121 74 223
3 223 37 34
3 223 137 37
3 228 227 245
3 236 227 228
3 245 77 228
3 228 77 138
3 138 93 228
3 93 236 228
3 43 227 236
3 236 219 43
3 3 227 43
3 43 219 151
3 43 203 3
3 43 151 7
3 7 203 43
3 45 154 15
3 15 154 181
3 194 45 15
3 15 25 194
3 15 181 25
3 137 223 54
3 54 13 92
3 92 137 54
3 74 13 54
3 54 223 74