ply
format ascii 1.0
comment https://github.com/mikedh/trimesh
element vertex 256
property float x
property float y
property float z
element face 508
property list uchar int vertex_indices
end_header
1.61620700 4.11560774 0.10475834
-2.28020048 1.96985471 -1.15259588
-0.89030117 -4.35744762 -0.74219644
-2.98084760 0.91327667 -0.09172087
-2.41986346 1.12985945 1.23227334
-0.17382140 -0.59265459 -2.18763971
1.92151940 0.10448467 1.70873940
-2.76984859 0.22483295 -0.89979935
1.43419707 0.00328014 -1.94638515
-1.36859071 -2.95959425 1.44438040
1.71876061 -3.21285343 -1.09152079
0.03363939 -4.86035299 -0.13607961
-2.37256098 0.54405290 1.35606670
-1.43811941 -0.98585767 -1.89249301
-0.60333431 4.10113192 1.10725451
0.68290699 1.22134960 2.07851362
2.05161381 2.60553455 1.12009358
0.25179088 -2.09433508 1.98468614
0.97676086 -3.85315299 -1.14793801
0.91650075 -3.14764333 -1.54747570
0.56122237 1.51843393 -2.05738664
0.48604983 -4.50129318 0.76470810
1.98179936 1.77710629 1.46676636
2.30864716 -1.33301497 1.30077875
-0.66540921 -3.60137486 1.40554273
1.44128621 1.50304186 1.81941915
-2.60192776 -2.49264336 -0.13892336
1.19905794 4.27962637 0.59257078
0.40101025 -1.53713393 -2.07467127
-0.08162645 2.90209270 -1.77167702
-1.22426581 3.39551163 -1.30783248
-2.98418379 0.46208936 0.35313582
2.49132252 0.74768960 1.21586120
2.03450131 -2.99866939 0.91509610
-1.07524824 -3.05467558 -1.53147745
-2.38358974 -2.90891671 -0.36314595
1.47863936 0.91548526 -1.88290715
-0.48144430 -2.32501125 -1.90769839
2.34902453 2.75825000 -0.62848532
-0.47680140 -4.80832815 -0.04577113
-2.99518681 -0.28586006 0.34197089
2.96000862 -1.08595157 -0.06079292
0.22293606 0.78134936 -2.17277908
-2.83428979 1.55307543 -0.36452287
0.09505147 -4.48989725 -0.85251188
0.29474768 1.33140802 2.11267209
0.00590084 4.78568840 -0.40684244
-0.12588318 -4.32256651 1.01320028
1.52301836 -3.45512462 1.09268093
1.51598775 2.94359398 1.36982572
0.98032171 -4.60545969 -0.08208185
0.37341166 4.21277285 -1.07426727
-0.27039698 3.92237329 1.29322827
0.80389547 -1.87479317 1.95200419
-1.29013944 -1.57953572 -1.86593735
-1.65162432 4.06680393 0.18792023
2.21397424 2.81090856 0.81257570
-1.86538970 -3.56113529 0.65480286
1.20146525 -1.15200114 1.95973814
-1.91270864 -0.52906084 -1.69731295
-1.81717122 -2.35368180 1.41155148
1.92363632 -1.96911061 1.45681012
2.02705956 3.62217426 -0.07649410
-1.95927882 0.33191946 -1.67982066
1.42408705 4.27311087 -0.22156388
1.77279353 3.25942445 -1.01577449
-0.23345892 3.51151466 -1.52065074
-0.28612611 1.92220366 2.01773143
-2.20487094 -1.63228488 -1.32672143
0.91804349 1.28016424 -2.02252150
2.48524046 -2.79313874 0.09222511
0.48993757 -4.25460529 -1.01462400
1.58654857 0.19902788 1.88006186
2.49298596 -1.71965063 0.99102122
-1.88727760 -1.67806423 -1.55357385
-0.27198368 4.75298452 0.43618128
-1.29239070 2.22084975 1.72523248
-2.03910279 3.50583887 0.39159784
2.02825093 2.74758291 -1.07156253
0.07520531 4.62593222 -0.68709093
-1.08567429 -1.97056007 1.85821438
2.97689772 0.01985251 -0.43856621
1.14471638 -0.52383262 2.03047729
1.25030279 -3.07458806 1.45033145
1.15370059 4.50373554 0.02480304
-0.82559031 -0.00190258 2.12423849
-1.41647863 0.23514351 1.95009267
2.77246571 0.33041286 0.89008540
-2.94631958 -1.06988168 0.22968477
2.99982882 -0.55931532 -0.23363045
-1.74961174 -0.36593038 1.79667163
-2.24759078 0.87808514 -1.42998469
-1.00457859 -0.88782346 -2.04414535
-2.14347339 3.10361218 -0.68356758
0.59327406 -3.00080490 1.68375993
1.45605743 -3.06550550 -1.35019267
-1.37220514 3.88384366 -0.88217580
2.91342592 0.85600567 -0.48819476
-1.09581852 -1.31601155 1.97027433
2.30013680 -3.12158251 -0.27922237
2.35409141 -0.40599528 1.38194335
1.38871312 1.69378161 -1.80689347
-2.31861353 2.41849184 0.91150033
-1.34456718 -4.33207703 -0.24810544
-0.48018906 -4.49698019 0.77145696
2.41271949 -2.67960262 0.56671208
-1.52176368 1.66512823 -1.75497365
2.69131994 -1.38011134 -0.80961442
0.95799571 3.47143555 -1.38295472
1.75333965 2.68712854 -1.32932663
-0.73610127 -3.84924531 -1.24268961
-0.25060174 -3.74189091 -1.40024018
-1.15307200 -0.69451135 2.01833797
-2.69151950 -2.08309650 -0.39499736
2.28333545 1.76639628 1.21603453
0.15672241 -3.60526896 -1.47919202
-2.51749253 1.58838451 1.00377250
-0.80276966 3.45830417 -1.43982482
0.33732754 3.61684752 -1.45728970
2.49319029 0.42872402 -1.24563658
0.92685920 0.47883245 -2.09071851
-1.61133337 -2.89735627 -1.33306384
2.84486413 -1.26102114 0.52214640
0.76681042 -1.76189077 -1.98098123
-2.34734154 -3.03225064 0.27264154
-2.25403023 -2.96697497 0.61685449
-0.52232188 2.80686712 -1.76441491
0.75673437 3.54099345 1.41142642
-2.39209175 1.29235625 -1.22745323
1.99637687 0.76557082 1.62698627
-2.06111026 -3.57662249 -0.03368989
0.23814148 -0.58759993 -2.18419719
-1.60379469 4.02552843 -0.42918214
-0.75137186 -3.10215545 1.61254478
-0.80479217 0.80407977 2.09698820
-2.44389462 -2.54889894 -0.61835492
-2.83587670 -1.46023166 -0.43293831
-0.91723102 -1.50025463 -1.99121308
-1.91615474 3.63770390 -0.46315563
-1.14341950 4.44833422 0.34273869
-0.41737768 -4.74735308 0.38789919
-1.16631532 3.04052329 1.50163102
0.35223484 2.97862720 -1.72733176
-1.34955001 3.41335583 1.23191977
-2.37706208 -1.96542299 1.04613161
2.26366782 3.02899885 0.52961457
-2.11340547 -0.25511158 1.58130085
0.23360705 -4.80669641 0.30893421
2.66787958 2.32556891 -0.05493976
1.80224597 -0.96541184 -1.72204757
-0.37048808 -0.12056538 2.19026423
-2.63527036 1.30863678 -0.92333907
1.51232100 2.21938825 1.62809002
-0.06525492 1.87890112 -2.03568888
0.53516042 0.27055976 2.16927671
-2.83579445 0.57095069 0.74769485
-1.06405556 -4.56042433 -0.04665795
-1.57578015 -3.49555492 1.02489531
-0.27502358 -3.31333995 1.60559380
-1.84742403 1.39816129 -1.63431251
-2.18134809 -0.89820772 -1.48096037
-1.89171898 -2.99547195 1.06744015
-2.66980052 -1.20088363 -0.90073436
1.95917416 0.92504692 -1.63411856
2.74691892 -2.07595325 0.05048029
1.50956845 -0.47927749 1.90312672
-3.01646090 -0.51118529 -0.11874762
-0.36435401 -4.52714872 -0.76825321
2.68990564 -0.74320471 0.96793330
2.44115973 2.84879518 -0.24062398
-0.91793549 0.33419397 -2.09927297
-1.82969594 -3.84888029 -0.24300960
-0.00118364 -2.81213784 1.80211818
0.47962293 -2.81227732 -1.76771259
2.82496476 -0.82671446 -0.71943784
1.70292342 -1.43754911 1.70756686
0.15747772 4.75786352 0.45655409
-2.31027293 -1.51137471 1.25896573
-0.26046044 2.89762044 1.76504326
0.71884191 -0.81856126 -2.11274958
-1.04712284 -4.47017193 -0.43199876
1.18981528 0.90333128 1.98927629
-1.03613424 2.02476978 -1.86123848
1.03027427 -4.48806143 -0.41493061
-0.53820515 4.20183277 -1.04527628
-1.15100026 1.19293904 1.96984637
-1.05722868 -3.37054634 1.39560819
2.08022118 -3.18007565 -0.71384841
-2.87901378 1.34726918 0.34886202
0.12670279 2.67437339 1.84246945
3.02745318 0.21839723 -0.14563277
0.64856553 4.71353912 -0.29243270
2.56937027 1.68182981 0.89690489
-1.64837790 1.91053975 1.63954484
0.81796122 2.51969385 1.79319918
1.54841673 -2.44362831 -1.54291689
-1.34725475 2.74687672 -1.53805625
-0.33660632 -0.88113207 2.15701604
0.32177383 -2.24560690 -1.94490302
-2.00915527 0.66012931 1.62838566
2.60136867 -2.39023352 0.35431948
1.10632491 -0.63852423 -2.03515530
1.62237370 -4.11503601 0.07316854
-2.95886159 -0.05737769 -0.49710751
1.53200865 3.96606398 -0.63227254
-2.59496331 0.16016273 1.14476871
1.30575502 -1.14374089 -1.92448103
2.09847903 -3.51419234 -0.09429991
-2.49689770 -2.36561513 0.65534222
-0.88632613 4.41316938 0.67392492
2.58713174 -0.33278000 -1.14702201
-0.61768258 4.58601427 -0.59111786
-0.62450880 -4.68192244 -0.40547577
0.75075561 3.96530533 1.15903461
1.83525622 2.41542697 1.37664270
-2.88242221 -1.50710273 -0.12879784
-2.80946565 -0.49506721 -0.80773455
2.10698032 -1.17673075 -1.49768579
-2.43924165 -0.66870534 1.28051555
-2.55031705 2.03682852 -0.76560491
-0.35649845 -2.89698005 -1.75558639
2.56860280 -2.48762584 -0.34376305
2.21553349 0.27211586 -1.50494456
-1.32326996 -2.19988656 -1.71942055
0.47450459 -1.02115071 2.13090611
-1.20257092 -4.37077379 0.42675963
-1.49345911 -2.29989219 1.61504531
-2.76954675 1.99747169 -0.02999098
-2.42371964 2.84549022 -0.32350400
-0.93166399 2.13939095 1.86411524
-2.15598512 -3.15531921 -0.60858744
1.33447480 3.44892025 1.21967578
-1.43198586 -3.94290829 0.77136588
-1.92503262 -3.71831536 0.27284488
1.94481981 2.05736566 -1.41635108
-1.95235324 1.95376992 1.44058180
-2.53809595 2.41850567 -0.51894748
1.43385506 -1.80995333 -1.76479912
-0.70610178 -0.60227811 2.12988687
1.53457189 -2.32832956 1.58615947
-1.49588764 -3.83491588 -0.81737983
-0.51835328 4.78114176 0.17981942
-0.43832585 0.09960683 -2.18383026
2.98008990 0.94029105 -0.00083466
-0.65395683 -3.34153819 -1.53340900
-2.52050805 2.57770801 0.38938484
2.45712304 1.08289206 -1.20127749
-0.54698533 1.17082274 -2.10511017
-1.54198253 -4.19314575 0.05727833
0.41922614 -3.79768777 1.34757841
-0.00642364 4.36824703 0.97616738
-2.62316823 -1.79463601 -0.75843567
-2.66923308 -1.54879904 0.78548503
0.51738852 4.47073793 0.78999949
-1.68741143 3.32129836 1.04968214
2.45988250 -1.61359048 -1.06828415
3 249 48 83
3 64 0 62
3 220 34 37
3 64 62 204
3 204 191 64
3 51 191 204
3 213 27 253
3 21 48 249
3 104 24 232
3 40 205 155
3 7 151 128
3 128 151 1
3 115 111 220
3 220 111 244
3 244 34 220
3 113 26 215
3 117 184 66
3 66 51 118
3 184 51 66
3 117 196 30
3 30 184 117
3 30 196 1
3 64 191 84
3 84 0 64
3 84 27 0
3 46 191 79
3 79 191 51
3 79 51 184
3 168 87 100
3 100 23 168
3 168 23 73
3 168 73 122
3 122 87 168
3 25 152 194
3 32 87 192
3 100 87 32
3 32 129 100
3 145 62 0
3 0 27 145
3 220 37 198
3 99 70 207
3 78 246 234
3 246 163 234
3 118 51 108
3 51 204 108
3 126 196 117
3 117 66 126
3 126 66 29
3 148 145 192
3 107 174 41
3 122 164 41
3 81 174 210
3 210 174 107
3 210 97 81
3 38 204 62
3 38 148 97
3 38 246 78
3 38 97 246
3 73 33 105
3 207 70 105
3 112 86 90
3 146 177 90
3 231 213 127
3 27 213 231
3 134 45 67
3 67 229 134
3 185 86 134
3 134 229 185
3 249 83 94
3 112 90 98
3 150 45 134
3 175 23 100
3 11 183 50
3 47 24 104
3 47 21 249
3 104 21 47
3 186 232 24
3 186 133 9
3 24 133 186
3 31 40 155
3 215 26 88
3 136 113 215
3 251 113 136
3 7 128 91
3 212 167 11
3 225 232 233
3 104 232 225
3 225 140 104
3 44 183 11
3 11 167 44
3 44 167 111
3 121 34 110
3 34 244 110
3 111 167 110
3 110 244 111
3 218 177 146
3 121 110 240
3 233 124 130
3 56 16 192
3 192 145 56
3 56 231 16
3 56 145 27
3 27 231 56
3 129 32 22
3 22 214 152
3 152 25 22
3 22 25 129
3 107 41 221
3 221 41 164
3 164 70 221
3 70 99 221
3 20 69 120
3 120 42 20
3 120 69 36
3 20 42 153
3 153 126 29
3 101 69 20
3 36 69 101
3 101 163 36
3 101 234 163
3 62 145 169
3 145 148 169
3 169 38 62
3 148 38 169
3 192 87 243
3 243 148 192
3 97 148 243
3 89 174 81
3 89 41 174
3 222 163 246
3 255 210 107
3 107 221 255
3 65 38 78
3 204 38 65
3 65 108 204
3 122 73 200
3 73 105 200
3 200 164 122
3 200 70 164
3 200 105 70
3 80 98 226
3 226 98 90
3 9 133 226
3 226 133 80
3 178 141 229
3 229 67 178
3 49 127 194
3 49 231 127
3 194 152 49
3 152 214 49
3 49 214 16
3 16 231 49
3 254 77 102
3 102 77 245
3 86 185 199
3 146 90 199
3 199 90 86
3 85 150 134
3 85 86 112
3 134 86 85
3 23 175 61
3 73 23 61
3 61 33 73
3 48 33 61
3 11 50 147
3 147 50 21
3 147 140 11
3 147 21 104
3 104 140 147
3 202 183 207
3 202 50 183
3 202 33 48
3 48 21 202
3 21 50 202
3 207 105 202
3 202 105 33
3 158 133 24
3 158 47 249
3 24 47 158
3 249 94 158
3 26 124 208
3 208 88 26
3 232 186 157
3 9 161 157
3 157 186 9
3 57 157 161
3 233 232 57
3 232 157 57
3 3 31 188
3 188 31 155
3 166 88 40
3 3 203 166
3 215 88 166
3 166 31 3
3 40 31 166
3 166 136 215
3 203 136 166
3 216 136 203
3 216 203 7
3 106 170 63
3 92 170 242
3 180 212 156
3 140 225 156
3 2 110 167
3 2 212 180
3 167 212 2
3 180 240 2
3 2 240 110
3 230 240 171
3 121 240 230
3 93 30 1
3 129 25 72
3 58 82 224
3 114 32 192
3 114 22 32
3 192 16 114
3 16 214 114
3 214 22 114
3 237 206 149
3 123 206 237
3 123 237 19
3 19 18 115
3 95 18 19
3 8 120 36
3 149 206 8
3 8 222 149
3 36 163 8
3 163 222 8
3 42 120 131
3 242 170 247
3 247 42 242
3 247 153 42
3 142 101 20
3 108 101 142
3 20 153 142
3 142 153 29
3 118 108 142
3 142 66 118
3 29 66 142
3 234 101 109
3 109 101 108
3 108 65 109
3 78 234 109
3 109 65 78
3 81 97 190
3 97 243 190
3 190 89 81
3 41 89 190
3 122 41 190
3 190 87 122
3 190 243 87
3 119 222 246
3 210 222 119
3 246 97 119
3 97 210 119
3 149 222 217
3 217 222 210
3 210 255 217
3 217 237 149
3 10 18 95
3 183 18 10
3 60 177 144
3 144 161 60
3 60 90 177
3 60 226 90
3 60 161 9
3 9 226 60
3 189 178 67
3 189 45 194
3 189 67 45
3 194 127 189
3 127 178 189
3 176 84 191
3 176 191 46
3 253 27 176
3 27 84 176
3 46 241 176
3 241 75 176
3 209 139 254
3 209 241 139
3 209 75 241
3 141 14 143
3 143 209 254
3 14 209 143
3 253 176 250
3 250 176 75
3 250 213 253
3 75 209 250
3 250 209 14
3 141 178 52
3 52 14 141
3 52 250 14
3 52 178 127
3 127 213 52
3 213 250 52
3 254 139 55
3 55 77 254
3 139 132 55
3 138 77 55
3 55 132 138
3 146 199 12
3 12 218 146
3 205 218 12
3 193 199 185
3 80 133 172
3 172 17 80
3 133 158 172
3 94 17 172
3 172 158 94
3 197 98 80
3 80 17 197
3 224 150 197
3 197 17 224
3 239 61 175
3 175 58 239
3 239 83 48
3 48 61 239
3 239 94 83
3 125 161 144
3 144 208 125
3 125 57 161
3 125 208 124
3 125 124 233
3 233 57 125
3 252 208 144
3 88 208 252
3 144 177 252
3 177 218 252
3 40 88 252
3 205 40 252
3 252 218 205
3 251 136 162
3 136 216 162
3 106 63 159
3 159 63 91
3 1 196 159
3 196 106 159
3 159 128 1
3 159 91 128
3 170 92 13
3 59 63 13
3 13 63 170
3 13 74 59
3 180 156 103
3 103 240 180
3 171 240 103
3 140 156 39
3 39 156 212
3 11 140 39
3 39 212 11
3 135 113 251
3 121 230 135
3 171 130 35
3 35 230 171
3 35 124 26
3 35 130 124
3 35 135 230
3 26 113 35
3 113 135 35
3 139 241 211
3 211 132 139
3 211 241 46
3 46 79 211
3 211 79 184
3 184 30 96
3 96 211 184
3 132 211 96
3 138 132 96
3 30 93 96
3 96 93 138
3 181 72 25
3 82 72 181
3 100 129 6
3 129 72 6
3 6 175 100
3 53 17 94
3 94 239 53
3 53 239 58
3 224 17 53
3 53 58 224
3 183 44 71
3 71 18 183
3 115 18 71
3 111 115 71
3 71 44 111
3 173 198 123
3 123 19 173
3 173 19 115
3 173 115 220
3 220 198 173
3 242 42 5
3 42 131 5
3 5 92 242
3 123 198 28
3 28 5 131
3 28 198 37
3 37 5 28
3 179 131 120
3 179 28 131
3 179 206 123
3 123 28 179
3 182 170 106
3 182 247 170
3 182 106 196
3 196 126 182
3 126 153 182
3 153 247 182
3 237 217 195
3 95 19 195
3 195 19 237
3 195 217 255
3 195 10 95
3 255 10 195
3 187 255 221
3 187 10 255
3 187 221 99
3 187 99 207
3 207 183 187
3 183 10 187
3 229 141 76
3 141 193 76
3 76 185 229
3 76 193 185
3 4 12 199
3 155 205 4
3 205 12 4
3 150 85 238
3 238 197 150
3 238 85 112
3 112 98 238
3 98 197 238
3 59 74 160
3 7 91 160
3 160 216 7
3 160 162 216
3 160 63 59
3 91 63 160
3 137 5 37
3 92 5 137
3 248 156 225
3 248 103 156
3 248 225 233
3 171 103 248
3 233 130 248
3 248 130 171
3 227 188 245
3 3 188 227
3 1 151 219
3 219 93 1
3 219 236 93
3 82 181 154
3 224 82 154
3 45 150 154
3 154 150 224
3 175 6 165
3 165 6 72
3 165 58 175
3 165 72 82
3 82 58 165
3 120 8 201
3 201 179 120
3 201 8 206
3 206 179 201
3 155 4 116
3 116 188 155
3 116 102 245
3 245 188 116
3 199 193 235
3 235 4 199
3 254 102 235
3 102 116 235
3 235 116 4
3 235 193 141
3 235 143 254
3 141 143 235
3 68 160 74
3 162 160 68
3 251 162 68
3 68 74 121
3 121 135 68
3 68 135 251
3 223 34 121
3 121 74 223
3 223 37 34
3 223 137 37
3 228 227 245
3 236 227 228
3 245 77 228
3 228 77 138
3 138 93 228
3 93 236 228
3 43 227 236
3 236 219 43
3 3 227 43
3 43 219 151
3 43 203 3
3 43 151 7
3 7 203 43
3 45 154 15
3 15 154 181
3 194 45 15
3 15 25 194
3 15 181 25
3 137 223 54
3 54 13 92
3 92 137 54
3 74 13 54
3 54 223 74