ply
format ascii 1.0
comment https://github.com/mikedh/trimesh
element vertex 256
property float x
property float y
property float z
element face 508
property list uchar int vertex_indices
end_header
0.90824920 2.37629747 0.18565170
-1.28138924 1.13736808 -2.04261923
-0.50031668 -2.51593280 -1.31531334
-1.67512727 0.52731389 -0.16254684
-1.35987473 0.65236592 2.18382287
-0.09768127 -0.34219092 -3.87691379
1.07982361 0.06032807 3.02821136
-1.55655360 0.12981558 -1.59461570
0.80596632 0.00189391 -3.44936490
-0.76909792 -1.70883060 2.55971694
0.96588063 -1.85505903 -1.93438256
0.01890410 -2.80630374 -0.24115896
-1.33329248 0.31412897 2.40320826
-0.80817050 -0.56922120 -3.35385776
-0.33905181 2.36793923 1.96226561
0.38376874 0.70519108 3.68352151
1.15293193 1.50440121 1.98501897
0.14149725 -1.20924127 3.51724148
0.54890388 -2.22475958 -2.03436446
0.51503992 -1.81740773 -2.74242139
0.31538644 0.87672371 -3.64608073
0.27314222 -2.59898710 1.35520828
1.11369872 1.02607763 2.59938908
1.29737532 -0.76966524 2.30522752
-0.37393561 -2.07938623 2.49088907
0.80995017 0.86783653 3.22435689
-1.46218812 -1.43921936 -0.24619862
0.67382669 2.47099972 1.05014813
0.22535309 -0.88752079 -3.67671227
-0.04587108 1.67562997 -3.13974881
-0.68799263 1.96052349 -2.31772804
-1.67700219 0.26680428 0.62582386
1.40003216 0.43170607 2.15473747
1.14331532 -1.73139203 1.62172437
-0.60425019 -1.76372933 -2.71406960
-1.33949018 -1.67957008 -0.64356375
0.83094120 0.52858907 -3.33686972
-0.27055410 -1.34243083 -3.38080454
1.32006586 1.59257710 -1.11379564
-0.26794496 -2.77626491 -0.08111515
-1.68318534 -0.16505182 0.60603750
1.66341650 -0.62701410 -0.10773663
0.12528192 0.45114079 -3.85057783
-1.59276712 0.89672518 -0.64600390
0.05341545 -2.59240746 -1.51081324
0.16563742 0.76873744 3.74405694
0.00331606 2.76319337 -0.72100222
-0.07074174 -2.49579263 1.79558384
0.85588062 -1.99494326 1.93643856
0.85192966 1.69959235 2.42759180
0.55090493 -2.65913153 -0.14546466
0.20984370 2.43239927 -1.90380609
-0.15195321 2.26472640 2.29184675
0.45175985 -1.08248079 3.45932293
-0.72501117 -0.91200304 -3.30679607
-0.92815244 2.34811878 0.33303040
1.24417245 1.62298143 1.44003880
-1.04828084 -2.05615234 1.16043520
0.67517954 -0.66515023 3.47302890
-1.07487226 -0.30547276 -3.00796151
-1.02118373 -1.35898483 2.50153780
1.08101320 -1.13693845 2.58174467
1.13913333 2.09139562 -0.13556209
-1.10104299 0.19164591 -2.97696185
0.80028480 2.46723771 -0.39265335
0.99624515 1.88194859 -1.80014575
-0.13119538 2.02750230 -2.69488263
-0.16079241 1.10985506 3.57580400
-1.23905683 -0.94245970 -2.35120273
0.51590687 0.73914993 -3.58429289
1.39661419 -1.61272144 0.16344045
0.27532700 -2.45655274 -1.79810679
0.89158225 0.11491606 3.33182740
1.40096700 -0.99290353 1.75627816
-1.06058097 -0.96889210 -2.75322843
-0.15284488 2.74431038 0.77299625
-0.72627634 1.28228927 3.05744028
-1.14590120 2.02422500 0.69398588
1.13980281 1.58641803 -1.89901268
0.04226264 2.67095208 -1.21765590
-0.61010921 -1.13777530 3.29310942
1.67290759 0.01146258 -0.77722281
0.64328873 -0.30245402 3.59839225
0.70262444 -1.77522659 2.57026315
0.64833754 2.60039735 0.04395571
-0.46395156 -0.00109852 3.76455498
-0.79600918 0.13576876 3.45593524
1.55802441 0.19077602 1.57740068
-1.65572381 -0.61773556 0.40704513
1.68579412 -0.32294127 -0.41403762
-0.98321784 -0.21128337 3.18404412
-1.26306379 0.50699472 -2.53420496
-0.56453639 -0.51261753 -3.62261462
-1.20455360 1.79198456 -1.21141183
0.33339834 -1.73262513 2.98394299
0.81825101 -1.76998222 -2.39279819
-0.77112913 2.24248004 -1.56338334
1.63723874 0.49424633 -0.86517406
-0.61580992 -0.75984764 3.49170113
1.29259276 -1.80236042 -0.49483520
1.32291329 -0.23441631 2.44906664
0.78040600 0.97796708 -3.20215917
-1.30297601 1.39640522 1.61535203
-0.75559759 -2.50128412 -0.43969002
-0.26984867 -2.59649706 1.36716855
1.35586011 -1.54716706 1.00432169
-0.85517555 0.96142298 -3.11014724
1.51242340 -0.79685801 -1.43479073
0.53835857 2.00436091 -2.45085907
0.98531270 1.55151248 -2.35581970
-0.41366199 -2.22250319 -2.20228243
-0.14082901 -2.16051841 -2.48149204
-0.64798427 -0.40100166 3.57687879
-1.51253545 -1.20275247 -0.70001048
1.28315103 1.01989388 2.15504456
0.08807226 -2.08163452 -2.62140989
-1.41473866 0.91711223 1.77887595
-0.45112717 1.99677908 -2.55164361
0.18956575 2.08831978 -2.58259463
1.40108180 0.24753958 -2.20750499
0.52086097 0.27647153 -3.70515108
-0.90551043 -1.67289519 -2.36244273
1.59870958 -0.72809696 0.92534280
0.43091941 -1.01729238 -3.51067591
-1.31912017 -1.75078142 0.48317268
-1.26668251 -1.71309209 1.09318352
-0.29352579 1.62064791 -3.12687898
0.42525703 2.04452276 2.50131631
-1.34426808 0.74618942 -2.17528081
1.12189078 0.44203046 2.88332915
-1.15826857 -2.06509447 -0.05970490
0.13382679 -0.33927244 -3.87081313
-0.90127397 2.32428694 -0.76059246
-0.42224351 -1.79114354 2.85773635
-0.45226374 0.46426505 3.71626210
-1.37337935 -1.47170055 -1.09584248
-1.59365904 -0.84311843 -0.76724905
-0.51545030 -0.86622715 -3.52880836
-1.07680893 2.10036206 -0.82079989
-0.64255995 2.56840920 0.60739815
-0.23455100 -2.74105906 0.68743116
-0.65542656 1.75555801 2.66117597
0.19794309 1.71982002 -3.06116056
-0.75839776 1.97082651 2.18319631
-1.33582187 -1.13480926 1.85394430
1.27209854 1.74890387 0.93857783
-1.18765652 -0.14729805 2.80236602
0.13127862 -2.77532291 0.54749018
1.49925077 1.34275281 -0.09736372
1.01279640 -0.55741602 -3.05179596
-0.20820075 -0.06961285 3.88156509
-1.48092556 0.75558954 -1.63633251
0.84986907 1.28144538 2.88528538
-0.03667088 1.08485270 -3.60762811
0.30074060 0.15621762 3.84437084
-1.59361279 0.32965937 1.32505751
-0.59796029 -2.63312864 -0.08268676
-0.88553083 -2.01828718 1.81630945
-0.15455320 -1.91307867 2.84541774
-1.03818476 0.80727988 -2.89631295
-1.22583783 -0.51861322 -2.62454367
-1.06307685 -1.72954595 1.89170706
-1.50033021 -0.69337434 -1.59627271
1.10098422 0.53410983 -2.89596915
1.54366791 -1.19862795 0.08946068
0.84832227 -0.27672848 3.37270284
-1.69514072 -0.29515162 -0.21044339
-0.20475362 -2.61391568 -1.36149085
1.51162863 -0.42911658 1.71536207
1.37184250 1.64485657 -0.42643148
-0.51584619 0.19295919 -3.72031140
-1.02822220 -2.22229266 -0.43065926
-0.00066516 -1.62369120 3.19369626
0.26953053 -1.62377179 -3.13272309
1.58752692 -0.47733399 -1.27498078
0.95698071 -0.83002186 3.02613354
0.08849672 2.74712753 0.80910069
-1.29828894 -0.87264776 2.23112679
-0.14636923 1.67304766 3.12799263
0.40396285 -0.47262642 -3.74419427
-0.58844471 -2.58101821 -0.76558405
0.66863269 0.52157158 3.52537608
-0.58226949 1.16907537 -3.29846883
0.57897651 -2.59134722 -0.73533601
-0.30245161 2.42608261 -1.85242856
-0.64682001 0.68878722 3.49094248
-0.59412384 -1.94610882 2.47328329
1.16900826 -1.83613360 -1.26507533
-1.61790037 0.77789545 0.61824989
0.07120233 1.54414785 3.26520658
1.70131791 0.12609966 -0.25808901
0.36447009 2.72153497 -0.51824641
1.44389212 0.97106630 1.58948612
-0.92632806 1.10312033 2.90558553
0.45966429 1.45483780 3.17789030
0.87015361 -1.41091871 -2.73434234
-0.75710791 1.58601034 -2.72572827
-0.18916044 -0.50875401 3.82264304
0.18082511 -1.29658365 -3.44673824
-1.12907183 0.38114995 2.88580918
1.46187401 -1.38008928 0.62792152
0.62171417 -0.36867547 -3.60668230
0.91171473 -2.37596750 0.12966856
-1.66277194 -0.03312912 -0.88096911
0.86093283 2.28995299 -1.12050724
-1.45827448 0.09247584 2.02874804
0.73378652 -0.66038090 -3.41054654
1.17926848 -2.02904820 -0.16711737
-1.40316522 -1.36587489 1.16139114
-0.49808288 2.54810572 1.19432330
1.45387340 -0.19214277 -2.03274131
-0.34711501 2.64790416 -1.04757333
-0.35095111 -2.70328021 -0.71858019
0.42189717 2.28951478 2.05402994
1.03134692 1.39463568 2.43967295
-1.61981583 -0.87018120 -0.22825427
-1.57881689 -0.28584525 -1.43145931
1.18404591 -0.67942882 -2.65418410
-1.37076449 -0.38610160 2.26931715
-1.43318498 1.17603791 -1.35679758
-0.20033909 -1.67267799 -3.11123323
1.44346082 -1.43632233 -0.60921353
1.24504876 0.15711610 -2.66704822
-0.74362928 -1.27018535 -3.04714060
0.26665422 -0.58959895 3.77637100
-0.67580086 -2.52362680 0.75629926
-0.83926940 -1.32792735 2.86216760
-1.55638397 1.15331376 -0.05314972
-1.36204171 1.64294851 -0.57331061
-0.52356106 1.23525608 3.30356693
-1.21158481 -1.82183969 -1.07853270
0.74992603 1.99136090 2.16149759
-0.80472368 -2.27658319 1.36700714
-1.08179796 -2.14690614 0.48353305
1.09291756 1.18789566 -2.51004386
-1.09715104 1.12808096 2.55298495
-1.42631710 1.39641321 -0.91967368
0.80577409 -1.04504311 -3.12755990
-0.39680338 -0.34774742 3.77456474
0.86237323 -1.34434664 2.81097627
-0.84063411 -2.21422982 -1.44855261
-0.29129559 2.76056814 0.31867424
-0.24632309 0.05751166 -3.87016296
1.67470157 0.54291165 -0.00147917
-0.36749980 -1.92935991 -2.71749258
-1.41643333 1.48833454 0.69006401
1.38081324 0.62524754 -2.12889218
-0.30738574 0.67601758 -3.73065567
-0.86653775 -2.42106700 0.10150810
0.23558976 -2.19273472 2.38816524
-0.00360985 2.52216816 1.72995436
-1.47412455 -1.03619909 -1.34409237
-1.50001132 -0.89425611 1.39202893
0.29075339 2.58134508 1.40002942
-0.94826353 1.91767383 1.86023664
1.38236392 -0.93166584 -1.89320290
3 249 48 83
3 64 0 62
3 220 34 37
3 64 62 204
3 204 191 64
3 51 191 204
3 213 27 253
3 21 48 249
3 104 24 232
3 40 205 155
3 7 151 128
3 128 151 1
3 115 111 220
3 220 111 244
3 244 34 220
3 113 26 215
3 117 184 66
3 66 51 118
3 184 51 66
3 117 196 30
3 30 184 117
3 30 196 1
3 64 191 84
3 84 0 64
3 84 27 0
3 46 191 79
3 79 191 51
3 79 51 184
3 168 87 100
3 100 23 168
3 168 23 73
3 168 73 122
3 122 87 168
3 25 152 194
3 32 87 192
3 100 87 32
3 32 129 100
3 145 62 0
3 0 27 145
3 220 37 198
3 99 70 207
3 78 246 234
3 246 163 234
3 118 51 108
3 51 204 108
3 126 196 117
3 117 66 126
3 126 66 29
3 148 145 192
3 107 174 41
3 122 164 41
3 81 174 210
3 210 174 107
3 210 97 81
3 38 204 62
3 38 148 97
3 38 246 78
3 38 97 246
3 73 33 105
3 207 70 105
3 112 86 90
3 146 177 90
3 231 213 127
3 27 213 231
3 134 45 67
3 67 229 134
3 185 86 134
3 134 229 185
3 249 83 94
3 112 90 98
3 150 45 134
3 175 23 100
3 11 183 50
3 47 24 104
3 47 21 249
3 104 21 47
3 186 232 24
3 186 133 9
3 24 133 186
3 31 40 155
3 215 26 88
3 136 113 215
3 251 113 136
3 7 128 91
3 212 167 11
3 225 232 233
3 104 232 225
3 225 140 104
3 44 183 11
3 11 167 44
3 44 167 111
3 121 34 110
3 34 244 110
3 111 167 110
3 110 244 111
3 218 177 146
3 121 110 240
3 233 124 130
3 56 16 192
3 192 145 56
3 56 231 16
3 56 145 27
3 27 231 56
3 129 32 22
3 22 214 152
3 152 25 22
3 22 25 129
3 107 41 221
3 221 41 164
3 164 70 221
3 70 99 221
3 20 69 120
3 120 42 20
3 120 69 36
3 20 42 153
3 153 126 29
3 101 69 20
3 36 69 101
3 101 163 36
3 101 234 163
3 62 145 169
3 145 148 169
3 169 38 62
3 148 38 169
3 192 87 243
3 243 148 192
3 97 148 243
3 89 174 81
3 89 41 174
3 222 163 246
3 255 210 107
3 107 221 255
3 65 38 78
3 204 38 65
3 65 108 204
3 122 73 200
3 73 105 200
3 200 164 122
3 200 70 164
3 200 105 70
3 80 98 226
3 226 98 90
3 9 133 226
3 226 133 80
3 178 141 229
3 229 67 178
3 49 127 194
3 49 231 127
3 194 152 49
3 152 214 49
3 49 214 16
3 16 231 49
3 254 77 102
3 102 77 245
3 86 185 199
3 146 90 199
3 199 90 86
3 85 150 134
3 85 86 112
3 134 86 85
3 23 175 61
3 73 23 61
3 61 33 73
3 48 33 61
3 11 50 147
3 147 50 21
3 147 140 11
3 147 21 104
3 104 140 147
3 202 183 207
3 202 50 183
3 202 33 48
3 48 21 202
3 21 50 202
3 207 105 202
3 202 105 33
3 158 133 24
3 158 47 249
3 24 47 158
3 249 94 158
3 26 124 208
3 208 88 26
3 232 186 157
3 9 161 157
3 157 186 9
3 57 157 161
3 233 232 57
3 232 157 57
3 3 31 188
3 188 31 155
3 166 88 40
3 3 203 166
3 215 88 166
3 166 31 3
3 40 31 166
3 166 136 215
3 203 136 166
3 216 136 203
3 216 203 7
3 106 170 63
3 92 170 242
3 180 212 156
3 140 225 156
3 2 110 167
3 2 212 180
3 167 212 2
3 180 240 2
3 2 240 110
3 230 240 171
3 121 240 230
3 93 30 1
3 129 25 72
3 58 82 224
3 114 32 192
3 114 22 32
3 192 16 114
3 16 214 114
3 214 22 114
3 237 206 149
3 123 206 237
3 123 237 19
3 19 18 115
3 95 18 19
3 8 120 36
3 149 206 8
3 8 222 149
3 36 163 8
3 163 222 8
3 42 120 131
3 242 170 247
3 247 42 242
3 247 153 42
3 142 101 20
3 108 101 142
3 20 153 142
3 142 153 29
3 118 108 142
3 142 66 118
3 29 66 142
3 234 101 109
3 109 101 108
3 108 65 109
3 78 234 109
3 109 65 78
3 81 97 190
3 97 243 190
3 190 89 81
3 41 89 190
3 122 41 190
3 190 87 122
3 190 243 87
3 119 222 246
3 210 222 119
3 246 97 119
3 97 210 119
3 149 222 217
3 217 222 210
3 210 255 217
3 217 237 149
3 10 18 95
3 183 18 10
3 60 177 144
3 144 161 60
3 60 90 177
3 60 226 90
3 60 161 9
3 9 226 60
3 189 178 67
3 189 45 194
3 189 67 45
3 194 127 189
3 127 178 189
3 176 84 191
3 176 191 46
3 253 27 176
3 27 84 176
3 46 241 176
3 241 75 176
3 209 139 254
3 209 241 139
3 209 75 241
3 141 14 143
3 143 209 254
3 14 209 143
3 253 176 250
3 250 176 75
3 250 213 253
3 75 209 250
3 250 209 14
3 141 178 52
3 52 14 141
3 52 250 14
3 52 178 127
3 127 213 52
3 213 250 52
3 254 139 55
3 55 77 254
3 139 132 55
3 138 77 55
3 55 132 138
3 146 199 12
3 12 218 146
3 205 218 12
3 193 199 185
3 80 133 172
3 172 17 80
3 133 158 172
3 94 17 172
3 172 158 94
3 197 98 80
3 80 17 197
3 224 150 197
3 197 17 224
3 239 61 175
3 175 58 239
3 239 83 48
3 48 61 239
3 239 94 83
3 125 161 144
3 144 208 125
3 125 57 161
3 125 208 124
3 125 124 233
3 233 57 125
3 252 208 144
3 88 208 252
3 144 177 252
3 177 218 252
3 40 88 252
3 205 40 252
3 252 218 205
3 251 136 162
3 136 216 162
3 106 63 159
3 159 63 91
3 1 196 159
3 196 106 159
3 159 128 1
3 159 91 128
3 170 92 13
3 59 63 13
3 13 63 170
3 13 74 59
3 180 156 103
3 103 240 180
3 171 240 103
3 140 156 39
3 39 156 212
3 11 140 39
3 39 212 11
3 135 113 251
3 121 230 135
3 171 130 35
3 35 230 171
3 35 124 26
3 35 130 124
3 35 135 230
3 26 113 35
3 113 135 35
3 139 241 211
3 211 132 139
3 211 241 46
3 46 79 211
3 211 79 184
3 184 30 96
3 96 211 184
3 132 211 96
3 138 132 96
3 30 93 96
3 96 93 138
3 181 72 25
3 82 72 181
3 100 129 6
3 129 72 6
3 6 175 100
3 53 17 94
3 94 239 53
3 53 239 58
3 224 17 53
3 53 58 224
3 183 44 71
3 71 18 183
3 115 18 71
3 111 115 71
3 71 44 111
3 173 198 123
3 123 19 173
3 173 19 115
3 173 115 220
3 220 198 173
3 242 42 5
3 42 131 5
3 5 92 242
3 123 198 28
3 28 5 131
3 28 198 37
3 37 5 28
3 179 131 120
3 179 28 131
3 179 206 123
3 123 28 179
3 182 170 106
3 182 247 170
3 182 106 196
3 196 126 182
3 126 153 182
3 153 247 182
3 237 217 195
3 95 19 195
3 195 19 237
3 195 217 255
3 195 10 95
3 255 10 195
3 187 255 221
3 187 10 255
3 187 221 99
3 187 99 207
3 207 183 187
3 183 10 187
3 229 141 76
3 141 193 76
3 76 185 229
3 76 193 185
3 4 12 199
3 155 205 4
3 205 12 4
3 150 85 238
3 238 197 150
3 238 85 112
3 112 98 238
3 98 197 238
3 59 74 160
3 7 91 160
3 160 216 7
3 160 162 216
3 160 63 59
3 91 63 160
3 137 5 37
3 92 5 137
3 248 156 225
3 248 103 156
3 248 225 233
3 171 103 248
3 233 130 248
3 248 130 171
3 227 188 245
3 3 188 227
3 1 151 219
3 219 93 1
3 219 236 93
3 82 181 154
3 224 82 154
3 45 150 154
3 154 150 224
3 175 6 165
3 165 6 72
3 165 58 175
3 165 72 82
3 82 58 165
3 120 8 201
3 201 179 120
3 201 8 206
3 206 179 201
3 155 4 116
3 116 188 155
3 116 102 245
3 245 188 116
3 199 193 235
3 235 4 199
3 254 102 235
3 102 116 235
3 235 116 4
3 235 193 141
3 235 143 254
3 141 143 235
3 68 160 74
3 162 160 68
3 251 162 68
3 68 74 121
3 121 135 68
3 68 135 251
3 223 34 121
3 121 74 223
3 223 37 34
3 223 137 37
3 228 227 245
3 236 227 228
3 245 77 228
3 228 77 138
3 138 93 228
3 93 236 228
3 43 227 236
3 236 219 43
3 3 227 43
3 43 219 151
3 43 203 3
3 43 151 7
3 7 203 43
3 45 154 15
3 15 154 181
3 194 45 15
3 15 25 194
3 15 181 25
3 137 223 54
3 54 13 92
3 92 137 54
3 74 13 54
3 54 223 74