ply
format ascii 1.0
comment https://github.com/mikedh/trimesh
element vertex 256
property float x
property float y
property float z
element face 508
property list uchar int vertex_indices
end_header
1.35105383 4.16600561 0.15530768
-1.90611327 1.99397647 -1.70876133
-0.74423939 -4.41080666 -1.10033071
-2.49181318 0.92446017 -0.13597921
-2.02286339 1.14369512 1.82688582
-0.14530446 -0.59991193 -3.24324799
1.60627711 0.10576414 2.53326249
-2.31543040 0.22758615 -1.33398211
1.19890440 0.00332031 -2.88558006
-1.14406133 -2.99583602 2.14134145
1.43678272 -3.25219631 -1.61821544
0.02812055 -4.91987038 -0.20174250
-1.98332143 0.55071509 2.01041341
-1.20218313 -0.99792999 -2.80568314
-0.50435197 4.15135241 1.64154124
0.57087004 1.23630559 3.08146477
1.71502841 2.63744068 1.66057563
0.21048234 -2.11998105 2.94236255
0.81651461 -3.90033674 -1.70185578
0.76614070 -3.18618798 -2.29418349
0.46914884 1.53702796 -3.05014348
0.40630904 -4.55641365 1.13370490
1.65666759 1.79886782 2.17452931
1.92989314 -1.34933841 1.92844725
-0.55624288 -3.64547539 2.08376336
1.20483053 1.52144742 2.69734883
-2.17505836 -2.52316713 -0.20595846
1.00234187 4.33203268 0.87850565
0.33522096 -1.55595696 -3.07576847
-0.06823491 2.93763041 -2.62656951
-1.02341413 3.43709135 -1.93890464
-2.49460196 0.46774787 0.52353549
2.08259892 0.75684541 1.80255425
1.70072341 -3.03538942 1.35666001
-0.89884424 -3.09208155 -2.27046585
-1.99254060 -2.94453788 -0.53837585
1.23605537 0.92669582 -2.79147196
-0.40245911 -2.35348225 -2.82822561
1.96364629 2.79202604 -0.93175024
-0.39857790 -4.86720848 -0.06785721
-2.50379968 -0.28936055 0.50698310
2.47439289 -1.09924960 -0.09012751
0.18636143 0.79091740 -3.22121644
-2.36929941 1.57209361 -0.54041713
0.07945743 -4.54487848 -1.26387691
0.24639171 1.34771180 3.13210583
0.00493276 4.84429169 -0.60315728
-0.10523093 -4.37549829 1.50210285
1.27315366 -3.49743438 1.61993551
1.26727653 2.97963977 2.03081155
0.81949121 -4.66185617 -0.12168904
0.31215018 4.26436043 -1.59263659
-0.22603595 3.97040462 1.91725349
0.67200929 -1.89775097 2.89391065
-1.07848060 -1.59887803 -2.76631355
-1.38066065 4.11660433 0.27859792
1.85075212 2.84532952 1.20467031
-1.55935597 -3.60474324 0.97076672
1.00435424 -1.16610789 2.90537620
-1.59891188 -0.53553951 -2.51632237
-1.51904809 -2.38250399 2.09267163
1.60804665 -1.99322331 2.15976906
1.69450247 3.66652966 -0.11340502
-1.63784170 0.33598396 -2.49038935
1.19045293 4.32543707 -0.32847574
1.48195112 3.29933763 -1.50591910
-0.19515792 3.55451488 -2.25441480
-0.23918459 1.94574201 2.99135303
-1.84314239 -1.65227294 -1.96690822
0.76743031 1.29584050 -2.99845457
2.07751465 -2.82734227 0.13672677
0.40955898 -4.30670500 -1.50421345
1.32626116 0.20146507 2.78725362
2.08398962 -1.74070859 1.46922159
-1.57765305 -1.69861293 -2.30322433
-0.22736233 4.81118679 0.64665312
-1.08036256 2.24804521 2.55771399
-1.70456994 3.54876947 0.58055669
1.69549847 2.78122830 -1.58862674
0.06286722 4.68257904 -1.01863492
-0.90755975 -1.99469054 2.75486398
2.48851109 0.02009561 -0.65018886
0.95691556 -0.53024715 3.01024961
1.04517949 -3.11223793 2.15016413
0.96442580 4.55888605 0.03677133
-0.69014490 -0.00192587 3.14925361
-1.18409276 0.23802295 2.89107656
2.31761813 0.33445895 1.31958091
-2.46294975 -1.08298302 0.34051523
2.50768042 -0.56616443 -0.34636483
-1.46257246 -0.37041140 2.66362500
-1.87885368 0.88883775 -2.11999941
-0.83976853 -0.89869529 -3.03051281
-1.79181755 3.14161730 -1.01341140
0.49594221 -3.03755140 2.49622965
1.21717823 -3.10304403 -2.00170493
-1.14708281 3.93140340 -1.30785465
2.43545246 0.86648786 -0.72376484
-0.91603976 -1.33212674 2.92099643
1.92277896 -3.15980768 -0.41395637
1.96788180 -0.41096690 2.04877639
1.16088235 1.71452284 -2.67877913
-1.93822443 2.44810748 1.35132921
-1.12397909 -4.38512564 -0.36782447
-0.40140980 -4.55204821 1.14371037
2.01689148 -2.71241570 0.84016931
-1.27210486 1.68551850 -2.60180616
2.24978518 -1.39701140 -1.20027995
0.80082804 3.51394486 -2.05027604
1.46568871 2.72003365 -1.97077048
-0.61533737 -3.89638114 -1.84232819
-0.20948830 -3.78771210 -2.07590222
-0.96390027 -0.70301598 2.99225235
-2.24995184 -2.10860515 -0.58559656
1.90873408 1.78802669 1.80281126
0.13101071 -3.64941716 -2.19295096
-2.10447550 1.60783517 1.48812580
-0.67106819 3.50065279 -2.13458753
0.28198597 3.66113758 -2.16048002
2.08416033 0.43397397 -1.84669721
0.77479976 0.48469597 -3.09955907
-1.34697986 -2.93283582 -1.97631109
2.37813902 -1.27646303 0.77409923
0.64100838 -1.78346598 -2.93686986
-1.96223938 -3.06938195 0.40420005
-1.88423657 -3.00330710 0.91450703
-0.43663034 2.84123850 -2.61580324
0.63258535 3.58435464 2.09248614
-1.99964786 1.30818188 -1.81973994
1.66885352 0.77494562 2.41206074
-1.72296691 -3.62041998 -0.04994638
0.19907226 -0.59479541 -3.23814440
-1.34067798 4.07482290 -0.63627666
-0.62810266 -3.14014292 2.39065075
-0.67275888 0.81392616 3.10885406
-2.04295206 -2.58011150 -0.91673148
-2.37062597 -1.47811294 -0.64184529
-0.76675111 -1.51862597 -2.95203876
-1.60179257 3.68224931 -0.68664342
-0.95583141 4.50280619 0.50812137
-0.34890318 -4.80548716 0.57507330
-0.97497100 3.07775617 2.22621751
0.29444757 3.01510191 -2.56082606
-1.12814438 3.45515418 1.82636166
-1.98708391 -1.98949051 1.55092454
1.89229310 3.06609035 0.78517109
-1.76668262 -0.25823554 2.34433055
0.19528174 -4.86555672 0.45800513
2.23019028 2.35404682 -0.08145001
1.50657165 -0.97723377 -2.55299234
-0.30970624 -0.12204176 3.24713874
-2.20293093 1.32466161 -1.36888063
1.26421130 2.24656582 2.41369700
-0.05454927 1.90190923 -3.01797581
0.44736263 0.27387288 3.21602392
-2.37055731 0.57794225 1.10848224
-0.88948786 -4.61626911 -0.06917194
-1.31725943 -3.53835964 1.51944101
-0.22990353 -3.35391331 2.38034558
-1.54433775 1.41528249 -2.42292213
-1.82347870 -0.90920669 -2.19557238
-1.58136570 -3.03215313 1.58251512
-2.23179603 -1.21558905 -1.33536828
1.63775420 0.93637460 -2.42263460
2.29626250 -2.10137439 0.07483869
1.26191044 -0.48514646 2.82144809
-2.52158380 -0.51744503 -0.17604727
-0.30457851 -4.58258581 -1.13896072
2.24860287 -0.75230563 1.43499303
2.04066586 2.88368011 -0.35673296
-0.76734006 0.33828637 -3.11224151
-1.52951813 -3.89601183 -0.36026973
-0.00098945 -2.84657383 2.67169952
0.40093651 -2.84671521 -2.62069201
2.36150432 -0.83683801 -1.06659031
1.42354369 -1.45515263 2.53152418
0.13164210 4.81612587 0.67685646
-1.93125224 -1.52988219 1.86645806
-0.21772958 2.93310308 2.61673474
0.60090953 -0.82858491 -3.13222075
-0.87533301 -4.52491140 -0.64045238
0.99461555 0.91439307 2.94916749
-0.86614722 2.04956412 -2.75934720
0.86124867 -4.54301977 -0.61514831
-0.44990781 4.25328636 -1.54965651
-0.96216846 1.20754719 2.92036200
-0.88378096 -3.41182041 2.06903505
1.73894250 -3.21901727 -1.05830383
-2.40668607 1.36376715 0.51719940
0.10591608 2.70712256 2.73152161
2.53077269 0.22107160 -0.21590538
0.54216260 4.77125883 -0.43354109
2.14784217 1.70242465 1.32969105
-1.37794685 1.93393528 2.43067932
0.68376744 2.55054855 2.65847683
1.29438531 -2.47355175 -2.28742528
-1.12622571 2.78051376 -2.28021908
-0.28138307 -0.89192200 3.19784737
0.26898396 -2.27310538 -2.88338280
-1.67953563 0.66821295 2.41413546
2.17459106 -2.41950321 0.52529031
0.92482251 -0.64634329 -3.01718450
1.35620892 -4.16542673 0.10847476
-2.47343397 -0.05808031 -0.73697823
1.28066909 4.01463032 -0.93736488
-2.16923642 0.16212401 1.69715738
1.09153426 -1.15774655 -2.85310650
1.75420499 -3.55722547 -0.13980271
-2.08725953 -2.39458323 0.97156638
-0.74091649 4.46721077 0.99911594
2.16268969 -0.33685505 -1.70049787
-0.51634628 4.64217234 -0.87635165
-0.52205259 -4.73925495 -0.60113114
0.62758750 4.01386261 1.71830702
1.53416622 2.44500518 2.04091811
-2.40953517 -1.52555799 -0.19094703
-2.34854794 -0.50112957 -1.19749308
1.76131153 -1.19114041 -2.22036839
-2.03906226 -0.67689395 1.89840651
-2.13191509 2.06177068 -1.13503444
-0.29801172 -2.93245506 -2.60271454
2.14720082 -2.51808810 -0.50964004
1.85205555 0.27544805 -2.23112988
-1.10617578 -2.22682524 -2.54909754
0.39665788 -1.03365529 3.15913844
-1.00527847 -4.42429590 0.63268518
-1.24844396 -2.32805562 2.39435792
-2.31517816 2.02193165 -0.04446261
-2.02608681 2.88033462 -0.47960532
-0.77881628 2.16558886 2.76361227
-1.80227661 -3.19395781 -0.90225089
1.11554229 3.49115396 1.80820954
-1.19705594 -3.99119115 1.14357531
-1.60921395 -3.76384783 0.40450150
1.62575483 2.08255911 -2.09978724
-1.63205242 1.97769475 2.13571000
-2.12169886 2.44812155 -0.76935673
1.19861841 -1.83211720 -2.61637282
-0.59025949 -0.60965329 3.15762734
1.28281176 -2.35684109 2.35153365
-1.25047398 -3.88187623 -1.21179247
-0.43331283 4.83968925 0.26658821
-0.36641461 0.10082656 -3.23760033
2.49117970 0.95180541 -0.00123741
-0.54666942 -3.38245702 -2.27332926
-2.10699630 2.60927320 0.57727581
2.05401015 1.09615266 -1.78093338
-0.45724753 1.18516016 -3.12089491
-1.28900659 -4.24449301 0.08491701
0.35044837 -3.84419250 1.99782932
-0.00536978 4.42173815 1.44720018
-2.19281411 -1.81661224 -1.12440586
-2.23132181 -1.56776488 1.16450739
0.43250632 4.52548456 1.17120028
-1.41057670 3.36196947 1.55618846
2.05631685 -1.63334978 -1.58376646
3 249 48 83
3 64 0 62
3 220 34 37
3 64 62 204
3 204 191 64
3 51 191 204
3 213 27 253
3 21 48 249
3 104 24 232
3 40 205 155
3 7 151 128
3 128 151 1
3 115 111 220
3 220 111 244
3 244 34 220
3 113 26 215
3 117 184 66
3 66 51 118
3 184 51 66
3 117 196 30
3 30 184 117
3 30 196 1
3 64 191 84
3 84 0 64
3 84 27 0
3 46 191 79
3 79 191 51
3 79 51 184
3 168 87 100
3 100 23 168
3 168 23 73
3 168 73 122
3 122 87 168
3 25 152 194
3 32 87 192
3 100 87 32
3 32 129 100
3 145 62 0
3 0 27 145
3 220 37 198
3 99 70 207
3 78 246 234
3 246 163 234
3 118 51 108
3 51 204 108
3 126 196 117
3 117 66 126
3 126 66 29
3 148 145 192
3 107 174 41
3 122 164 41
3 81 174 210
3 210 174 107
3 210 97 81
3 38 204 62
3 38 148 97
3 38 246 78
3 38 97 246
3 73 33 105
3 207 70 105
3 112 86 90
3 146 177 90
3 231 213 127
3 27 213 231
3 134 45 67
3 67 229 134
3 185 86 134
3 134 229 185
3 249 83 94
3 112 90 98
3 150 45 134
3 175 23 100
3 11 183 50
3 47 24 104
3 47 21 249
3 104 21 47
3 186 232 24
3 186 133 9
3 24 133 186
3 31 40 155
3 215 26 88
3 136 113 215
3 251 113 136
3 7 128 91
3 212 167 11
3 225 232 233
3 104 232 225
3 225 140 104
3 44 183 11
3 11 167 44
3 44 167 111
3 121 34 110
3 34 244 110
3 111 167 110
3 110 244 111
3 218 177 146
3 121 110 240
3 233 124 130
3 56 16 192
3 192 145 56
3 56 231 16
3 56 145 27
3 27 231 56
3 129 32 22
3 22 214 152
3 152 25 22
3 22 25 129
3 107 41 221
3 221 41 164
3 164 70 221
3 70 99 221
3 20 69 120
3 120 42 20
3 120 69 36
3 20 42 153
3 153 126 29
3 101 69 20
3 36 69 101
3 101 163 36
3 101 234 163
3 62 145 169
3 145 148 169
3 169 38 62
3 148 38 169
3 192 87 243
3 243 148 192
3 97 148 243
3 89 174 81
3 89 41 174
3 222 163 246
3 255 210 107
3 107 221 255
3 65 38 78
3 204 38 65
3 65 108 204
3 122 73 200
3 73 105 200
3 200 164 122
3 200 70 164
3 200 105 70
3 80 98 226
3 226 98 90
3 9 133 226
3 226 133 80
3 178 141 229
3 229 67 178
3 49 127 194
3 49 231 127
3 194 152 49
3 152 214 49
3 49 214 16
3 16 231 49
3 254 77 102
3 102 77 245
3 86 185 199
3 146 90 199
3 199 90 86
3 85 150 134
3 85 86 112
3 134 86 85
3 23 175 61
3 73 23 61
3 61 33 73
3 48 33 61
3 11 50 147
3 147 50 21
3 147 140 11
3 147 21 104
3 104 140 147
3 202 183 207
3 202 50 183
3 202 33 48
3 48 21 202
3 21 50 202
3 207 105 202
3 202 105 33
3 158 133 24
3 158 47 249
3 24 47 158
3 249 94 158
3 26 124 208
3 208 88 26
3 232 186 157
3 9 161 157
3 157 186 9
3 57 157 161
3 233 232 57
3 232 157 57
3 3 31 188
3 188 31 155
3 166 88 40
3 3 203 166
3 215 88 166
3 166 31 3
3 40 31 166
3 166 136 215
3 203 136 166
3 216 136 203
3 216 203 7
3 106 170 63
3 92 170 242
3 180 212 156
3 140 225 156
3 2 110 167
3 2 212 180
3 167 212 2
3 180 240 2
3 2 240 110
3 230 240 171
3 121 240 230
3 93 30 1
3 129 25 72
3 58 82 224
3 114 32 192
3 114 22 32
3 192 16 114
3 16 214 114
3 214 22 114
3 237 206 149
3 123 206 237
3 123 237 19
3 19 18 115
3 95 18 19
3 8 120 36
3 149 206 8
3 8 222 149
3 36 163 8
3 163 222 8
3 42 120 131
3 242 170 247
3 247 42 242
3 247 153 42
3 142 101 20
3 108 101 142
3 20 153 142
3 142 153 29
3 118 108 142
3 142 66 118
3 29 66 142
3 234 101 109
3 109 101 108
3 108 65 109
3 78 234 109
3 109 65 78
3 81 97 190
3 97 243 190
3 190 89 81
3 41 89 190
3 122 41 190
3 190 87 122
3 190 243 87
3 119 222 246
3 210 222 119
3 246 97 119
3 97 210 119
3 149 222 217
3 217 222 210
3 210 255 217
3 217 237 149
3 10 18 95
3 183 18 10
3 60 177 144
3 144 161 60
3 60 90 177
3 60 226 90
3 60 161 9
3 9 226 60
3 189 178 67
3 189 45 194
3 189 67 45
3 194 127 189
3 127 178 189
3 176 84 191
3 176 191 46
3 253 27 176
3 27 84 176
3 46 241 176
3 241 75 176
3 209 139 254
3 209 241 139
3 209 75 241
3 141 14 143
3 143 209 254
3 14 209 143
3 253 176 250
3 250 176 75
3 250 213 253
3 75 209 250
3 250 209 14
3 141 178 52
3 52 14 141
3 52 250 14
3 52 178 127
3 127 213 52
3 213 250 52
3 254 139 55
3 55 77 254
3 139 132 55
3 138 77 55
3 55 132 138
3 146 199 12
3 12 218 146
3 205 218 12
3 193 199 185
3 80 133 172
3 172 17 80
3 133 158 172
3 94 17 172
3 172 158 94
3 197 98 80
3 80 17 197
3 224 150 197
3 197 17 224
3 239 61 175
3 175 58 239
3 239 83 48
3 48 61 239
3 239 94 83
3 125 161 144
3 144 208 125
3 125 57 161
3 125 208 124
3 125 124 233
3 233 57 125
3 252 208 144
3 88 208 252
3 144 177 252
3 177 218 252
3 40 88 252
3 205 40 252
3 252 218 205
3 251 136 162
3 136 216 162
3 106 63 159
3 159 63 91
3 1 196 159
3 196 106 159
3 159 128 1
3 159 91 128
3 170 92 13
3 59 63 13
3 13 63 170
3 13 74 59
3 180 156 103
3 103 240 180
3 171 240 103
3 140 156 39
3 39 156 212
3 11 140 39
3 39 212 11
3 135 113 251
3 121 230 135
3 171 130 35
3 35 230 171
3 35 124 26
3 35 130 124
3 35 135 230
3 26 113 35
3 113 135 35
3 139 241 211
3 211 132 139
3 211 241 46
3 46 79 211
3 211 79 184
3 184 30 96
3 96 211 184
3 132 211 96
3 138 132 96
3 30 93 96
3 96 93 138
3 181 72 25
3 82 72 181
3 100 129 6
3 129 72 6
3 6 175 100
3 53 17 94
3 94 239 53
3 53 239 58
3 224 17 53
3 53 58 224
3 183 44 71
3 71 18 183
3 115 18 71
3 111 115 71
3 71 44 111
3 173 198 123
3 123 19 173
3 173 19 115
3 173 115 220
3 220 198 173
3 242 42 5
3 42 131 5
3 5 92 242
3 123 198 28
3 28 5 131
3 28 198 37
3 37 5 28
3 179 131 120
3 179 28 131
3 179 206 123
3 123 28 179
3 182 170 106
3 182 247 170
3 182 106 196
3 196 126 182
3 126 153 182
3 153 247 182
3 237 217 195
3 95 19 195
3 195 19 237
3 195 217 255
3 195 10 95
3 255 10 195
3 187 255 221
3 187 10 255
3 187 221 99
3 187 99 207
3 207 183 187
3 183 10 187
3 229 141 76
3 141 193 76
3 76 185 229
3 76 193 185
3 4 12 199
3 155 205 4
3 205 12 4
3 150 85 238
3 238 197 150
3 238 85 112
3 112 98 238
3 98 197 238
3 59 74 160
3 7 91 160
3 160 216 7
3 160 162 216
3 160 63 59
3 91 63 160
3 137 5 37
3 92 5 137
3 248 156 225
3 248 103 156
3 248 225 233
3 171 103 248
3 233 130 248
3 248 130 171
3 227 188 245
3 3 188 227
3 1 151 219
3 219 93 1
3 219 236 93
3 82 181 154
3 224 82 154
3 45 150 154
3 154 150 224
3 175 6 165
3 165 6 72
3 165 58 175
3 165 72 82
3 82 58 165
3 120 8 201
3 201 179 120
3 201 8 206
3 206 179 201
3 155 4 116
3 116 188 155
3 116 102 245
3 245 188 116
3 199 193 235
3 235 4 199
3 254 102 235
3 102 116 235
3 235 116 4
3 235 193 141
3 235 143 254
3 141 143 235
3 68 160 74
3 162 160 68
3 251 162 68
3 68 74 121
3 121 135 68
3 68 135 251
3 223 34 121
3 121 74 223
3 223 37 34
3 223 137 37
3 228 227 245
3 236 227 228
3 245 77 228
3 228 77 138
3 138 93 228
3 93 236 228
3 43 227 236
3 236 219 43
3 3 227 43
3 43 219 151
3 43 203 3
3 43 151 7
3 7 203 43
3 45 154 15
3 15 154 181
3 194 45 15
3 15 25 194
3 15 181 25
3 137 223 54
3 54 13 92
3 92 137 54
3 74 13 54
3 54 223 74