ply
format ascii 1.0
comment https://github.com/mikedh/trimesh
element vertex 256
property float x
property float y
property float z
element face 508
property list uchar int vertex_indices
end_header
2.12230086 2.14738941 0.10874259
-2.99421501 1.02780569 -1.19643223
-1.16908717 -2.27357364 -0.77042425
-3.91426063 0.47651786 -0.09520926
-3.17761159 0.58952367 1.27914011
-0.22825128 -0.30922776 -2.27084160
2.52321768 0.05451668 1.77372742
-3.63719010 0.11731047 -0.93402117
1.88329697 0.00171147 -2.02041149
-1.79714680 -1.54421937 1.49931419
2.25696778 -1.67636168 -1.13303435
0.04417311 -2.53597307 -0.14125510
-3.11549711 0.28386900 1.40764165
-1.88844740 -0.51438826 -1.96446979
-0.79226047 2.13983631 1.14936638
0.89675027 0.63726020 2.15756512
2.69404960 1.35948253 1.16269386
0.33063585 -1.09275544 2.06016922
1.28262067 -2.01044893 -1.19159722
1.20349085 -1.64233720 -1.60633039
0.73696172 0.79226911 -2.13563466
0.63824987 -2.34862733 0.79379201
2.60237360 0.92723590 1.52255154
3.03156948 -0.69552356 1.35025096
-0.87377328 -1.87907946 1.45899940
1.89260590 0.78423804 1.88861668
-3.41668677 -1.30057979 -0.14420700
1.57452714 2.23296905 0.61510783
0.52658129 -0.80202615 -2.15357661
-0.10718668 1.51421702 -1.83905876
-1.60762846 1.77166677 -1.35757291
-3.91864133 0.24110308 0.36656654
3.27144718 0.39011994 1.26210368
2.67157841 -1.56460738 0.94989967
-1.41194797 -1.59382975 -1.58972383
-3.12997913 -1.51777756 -0.37695739
1.94165564 0.47767022 -1.95451927
-0.63220221 -1.21311474 -1.98025346
3.08459044 1.43916452 -0.65238839
-0.62610543 -2.50882792 -0.04751193
-3.93308973 -0.14915241 0.35497698
3.88689613 -0.56661397 -0.06310505
0.29274553 0.40768251 -2.25541568
-3.72181010 0.81034386 -0.37838668
0.12481558 -2.34268141 -0.88493526
0.38704401 0.69468516 2.19302273
0.00774861 2.49701548 -0.42231578
-0.16530183 -2.25537348 1.05173516
1.99993134 -1.80277085 1.13423860
1.99069929 1.53587103 1.42192388
1.28729641 -2.40297818 -0.08520365
0.49034059 2.19808698 -1.11512458
-0.35506818 2.04656577 1.34241331
1.05562460 -0.97820568 2.02624440
-1.69412959 -0.82415003 -1.93690395
-2.16880846 2.12192512 0.19506736
2.90725088 1.46664000 0.84348023
-2.44951177 -1.85808372 0.67970675
1.57768810 -0.60107648 2.03427219
-2.51164794 -0.27604663 -1.76186645
-2.38619423 -1.22807407 1.46523666
2.52599740 -1.02741742 1.51221657
2.66180658 1.88993192 -0.07940338
-2.57280087 0.17318471 -1.74370873
1.87002099 2.22956944 -0.22999056
2.32792044 1.70066094 -1.05440724
-0.30656350 1.83219337 -1.57848525
-0.37572271 1.00294292 2.09447122
-2.89529705 -0.85167277 -1.37718022
1.20551658 0.66794783 -2.09944344
3.26346040 -1.45736837 0.09573269
0.64335501 -2.21991348 -1.05321288
2.08335519 0.10384623 1.95156574
3.27363157 -0.89725739 1.02871251
-2.47825360 -0.87555897 -1.61266053
-0.35715175 2.47995162 0.45277044
-1.69708574 1.15876675 1.79084790
-2.67762089 1.82923186 0.40649137
2.66337085 1.43359876 -1.11231697
0.09875486 2.41365981 -0.71322286
-1.42563868 -1.02817369 1.92888737
3.90907359 0.01035839 -0.45524609
1.50316918 -0.27331868 2.10770202
1.64181852 -1.60421944 1.50549150
1.51496673 2.34990168 0.02574637
-1.08411300 -0.00099270 2.20502925
-1.86003017 0.12269018 2.02426004
3.64062667 0.17239861 0.92393774
-3.86892056 -0.55822927 0.23842032
3.93918562 -0.29183242 -0.24251606
-2.29747939 -0.19093049 1.86500406
-2.95139408 0.45815608 -1.48437095
-1.31914902 -0.46323720 -2.12188983
-2.81467366 1.61936319 -0.70956552
0.77904999 -1.56572175 1.74779797
1.91200244 -1.59948027 -1.40154409
-1.80189300 2.02646255 -0.91572738
3.82572651 0.44663572 -0.50676215
-1.43895948 -0.68665171 2.04520917
3.02039409 -1.62873948 -0.28984198
3.09124398 -0.21183504 1.43450248
1.82357025 0.88375974 -1.87561464
-3.04465652 1.26188982 0.94616717
-1.76560056 -2.26033592 -0.25754157
-0.63055390 -2.34637713 0.80079758
3.16823077 -1.39812887 0.58826572
-1.99828386 0.86880934 -1.82172012
3.53407121 -0.72009689 -0.84040624
1.25797939 1.81128132 -1.43555236
2.30237460 1.40205562 -1.37988448
-0.96660167 -2.00841022 -1.28995252
-0.32907435 -1.95239615 -1.45349514
-1.51414120 -0.36237326 2.09510088
-3.53433299 -1.08689165 -0.41002017
2.99833179 0.92164773 1.26228368
0.20579796 -1.88111126 -1.53544974
-3.30581188 0.82876706 1.04194880
-1.05414629 1.80442977 -1.49458528
0.44295719 1.88715255 -1.51271439
3.27390003 0.22369416 -1.29301155
1.21709287 0.24983908 -2.17023420
-2.11590099 -1.51174569 -1.38376391
3.73569560 -0.65795952 0.54200506
1.00692701 -0.91929686 -2.05632353
-3.08238053 -1.58212900 0.28301084
-2.95984983 -1.54807043 0.64031512
-0.68588006 1.46453130 -1.83152044
0.99369568 1.84757435 1.46510684
-3.14114356 0.67430919 -1.27413666
2.62151575 0.39944980 1.68886507
-2.70651984 -1.86616445 -0.03497121
0.31271231 -0.30659041 -2.26726818
-2.10600185 2.10038900 -0.44550511
-0.98665404 -1.61860311 1.67387426
-1.05680215 0.41954249 2.17674232
-3.20916796 -1.32993197 -0.64187264
-3.72389412 -0.76190102 -0.44940415
-1.20444977 -0.78278369 -2.06694436
-2.51617336 1.89803481 -0.48077071
-1.50146616 2.32099509 0.35577399
-0.54807401 -2.47701335 0.40265206
-1.53153157 1.58644557 1.55874217
0.46253249 1.55415010 -1.79302692
-1.77214372 1.78097725 1.27877307
-3.12140751 -1.02549338 1.08591890
2.97250557 1.58043242 0.54975730
-2.77519035 -0.13310887 1.64144206
0.30675802 -2.50797653 0.32068381
3.50329065 1.21340573 -0.05702927
2.36659551 -0.50372028 -1.78754175
-0.48650151 -0.06290707 2.27356601
-3.46047020 0.68280381 -0.95845622
1.98588419 1.15800405 1.69001067
-0.08568864 0.98034906 -2.11311173
0.70273888 0.14116922 2.25178003
-3.72378612 0.29790336 0.77613175
-1.39725053 -2.37948012 -0.04843248
-2.06921482 -1.82386601 1.06387484
-0.36114359 -1.72879219 1.66665888
-2.42592049 0.72951478 -1.69646990
-2.86440849 -0.46865535 -1.53728533
-2.48408580 -1.56293917 1.10803783
-3.50581312 -0.62658173 -0.93499172
2.57266355 0.48265919 -1.69626856
3.60708022 -1.08316445 0.05240019
1.98226988 -0.25007129 1.97550786
-3.96102571 -0.26671973 -0.12326392
-0.47844663 -2.36211777 -0.79747200
3.53221393 -0.38777989 1.00474644
3.20557642 1.48640800 -0.24977557
-1.20537484 0.17437148 -2.17911410
-2.40264106 -2.00821972 -0.25225192
-0.00155428 -1.46728146 1.87065768
0.62981045 -1.46735430 -1.83494353
3.70956516 -0.43135253 -0.74680001
2.23617125 -0.75006604 1.77251041
0.20678979 2.48249745 0.47391808
-3.03370428 -0.78858584 1.30684757
-0.34202015 1.51188338 1.83217275
0.94393772 -0.42709845 -2.19310331
-1.37501550 -2.33238935 -0.44842887
1.56239021 0.47132868 2.06493378
-1.36058593 1.05645859 -1.93202651
1.35289109 -2.34172344 -0.43071157
-0.70673692 2.19237876 -1.08503103
-1.51142073 0.62243652 2.04476500
-1.38828588 -1.75864065 1.44868696
2.73161507 -1.65925932 -0.74099803
-3.78053880 0.70296097 0.36213019
0.16637810 1.39540052 1.91254365
3.97546005 0.11395252 -0.15117159
0.85165519 2.45937037 -0.30355471
3.37393451 0.87752372 0.93101662
-2.16454554 0.99685705 1.70190132
1.07409501 1.31469369 1.86139953
2.03328300 -1.27500522 -1.60159826
-1.76912975 1.43323040 -1.59655273
-0.44201013 -0.45974588 2.23905325
0.42253304 -1.17168403 -2.01887298
-2.63829589 0.34443384 1.69031763
3.41595268 -1.24714565 0.36779523
1.45275593 -0.33316106 -2.11255765
2.13039851 -2.14709115 0.07595134
-3.88538980 -0.02993780 -0.51601386
2.01173687 2.06936240 -0.65631962
-3.40754151 0.08356766 1.18830740
1.71463478 -0.59676653 -1.99767435
2.75558996 -1.83359051 -0.09788638
-3.27876830 -1.23430049 0.68026668
-1.16386747 2.30264735 0.69955617
3.39725757 -0.17363371 -1.19064641
-0.81110168 2.39283228 -0.61359966
-0.82006544 -2.44287372 -0.42089710
0.98584479 2.06896639 1.20311594
2.40994239 1.26029074 1.42900026
-3.78501439 -0.78635687 -0.13369638
-3.68921256 -0.25830987 -0.83845490
2.76675344 -0.61397958 -1.55464685
-3.20305777 -0.34890854 1.32921708
-3.34891510 1.06275046 -0.79472297
-0.46813121 -1.51154935 -1.82235610
3.37292671 -1.29796171 -0.35683730
2.90929842 0.14198114 -1.56218183
-1.73763442 -1.14782870 -1.78481483
0.62308943 -0.53280300 2.21195030
-1.57914007 -2.28052664 0.44299045
-1.96111608 -1.20000851 1.67646992
-3.63679361 1.04221535 -0.03113162
-3.18267536 1.48468363 -0.33580774
-1.22340226 1.11626410 1.93501270
-2.83110332 -1.64634228 -0.63173366
1.75234783 1.79953361 1.26606345
-1.88039327 -2.05728054 0.80070305
-2.52783108 -1.94009519 0.28322193
2.55381441 1.07346594 -1.47021890
-2.56370687 1.01941311 1.49537098
-3.33286715 1.26189709 -0.53868449
1.88284779 -0.94437438 -1.83191919
-0.92720819 -0.31424898 2.21089220
2.01510262 -1.21484613 1.64648545
-1.96430504 -2.00093341 -0.84846705
-0.68066871 2.49464321 0.18665844
-0.57558179 0.05197158 -2.26688743
3.91326571 0.49061307 -0.00086640
-0.85873473 -1.74350524 -1.59172881
-3.30977178 1.34496367 0.40419421
3.22653866 0.56501758 -1.24696529
-0.71826655 0.61089700 -2.18517327
-2.02483392 -2.18784618 0.05945678
0.55050123 -1.98150909 1.39883041
-0.00843511 2.27920818 1.01329362
-3.44457865 -0.93638229 -0.78728110
-3.50506806 -0.80811262 0.81535918
0.67940187 2.33268476 0.82004535
-2.21580195 1.73294473 1.08960450
3.23016191 -0.84191871 -1.10891390
3 249 48 83
3 64 0 62
3 220 34 37
3 64 62 204
3 204 191 64
3 51 191 204
3 213 27 253
3 21 48 249
3 104 24 232
3 40 205 155
3 7 151 128
3 128 151 1
3 115 111 220
3 220 111 244
3 244 34 220
3 113 26 215
3 117 184 66
3 66 51 118
3 184 51 66
3 117 196 30
3 30 184 117
3 30 196 1
3 64 191 84
3 84 0 64
3 84 27 0
3 46 191 79
3 79 191 51
3 79 51 184
3 168 87 100
3 100 23 168
3 168 23 73
3 168 73 122
3 122 87 168
3 25 152 194
3 32 87 192
3 100 87 32
3 32 129 100
3 145 62 0
3 0 27 145
3 220 37 198
3 99 70 207
3 78 246 234
3 246 163 234
3 118 51 108
3 51 204 108
3 126 196 117
3 117 66 126
3 126 66 29
3 148 145 192
3 107 174 41
3 122 164 41
3 81 174 210
3 210 174 107
3 210 97 81
3 38 204 62
3 38 148 97
3 38 246 78
3 38 97 246
3 73 33 105
3 207 70 105
3 112 86 90
3 146 177 90
3 231 213 127
3 27 213 231
3 134 45 67
3 67 229 134
3 185 86 134
3 134 229 185
3 249 83 94
3 112 90 98
3 150 45 134
3 175 23 100
3 11 183 50
3 47 24 104
3 47 21 249
3 104 21 47
3 186 232 24
3 186 133 9
3 24 133 186
3 31 40 155
3 215 26 88
3 136 113 215
3 251 113 136
3 7 128 91
3 212 167 11
3 225 232 233
3 104 232 225
3 225 140 104
3 44 183 11
3 11 167 44
3 44 167 111
3 121 34 110
3 34 244 110
3 111 167 110
3 110 244 111
3 218 177 146
3 121 110 240
3 233 124 130
3 56 16 192
3 192 145 56
3 56 231 16
3 56 145 27
3 27 231 56
3 129 32 22
3 22 214 152
3 152 25 22
3 22 25 129
3 107 41 221
3 221 41 164
3 164 70 221
3 70 99 221
3 20 69 120
3 120 42 20
3 120 69 36
3 20 42 153
3 153 126 29
3 101 69 20
3 36 69 101
3 101 163 36
3 101 234 163
3 62 145 169
3 145 148 169
3 169 38 62
3 148 38 169
3 192 87 243
3 243 148 192
3 97 148 243
3 89 174 81
3 89 41 174
3 222 163 246
3 255 210 107
3 107 221 255
3 65 38 78
3 204 38 65
3 65 108 204
3 122 73 200
3 73 105 200
3 200 164 122
3 200 70 164
3 200 105 70
3 80 98 226
3 226 98 90
3 9 133 226
3 226 133 80
3 178 141 229
3 229 67 178
3 49 127 194
3 49 231 127
3 194 152 49
3 152 214 49
3 49 214 16
3 16 231 49
3 254 77 102
3 102 77 245
3 86 185 199
3 146 90 199
3 199 90 86
3 85 150 134
3 85 86 112
3 134 86 85
3 23 175 61
3 73 23 61
3 61 33 73
3 48 33 61
3 11 50 147
3 147 50 21
3 147 140 11
3 147 21 104
3 104 140 147
3 202 183 207
3 202 50 183
3 202 33 48
3 48 21 202
3 21 50 202
3 207 105 202
3 202 105 33
3 158 133 24
3 158 47 249
3 24 47 158
3 249 94 158
3 26 124 208
3 208 88 26
3 232 186 157
3 9 161 157
3 157 186 9
3 57 157 161
3 233 232 57
3 232 157 57
3 3 31 188
3 188 31 155
3 166 88 40
3 3 203 166
3 215 88 166
3 166 31 3
3 40 31 166
3 166 136 215
3 203 136 166
3 216 136 203
3 216 203 7
3 106 170 63
3 92 170 242
3 180 212 156
3 140 225 156
3 2 110 167
3 2 212 180
3 167 212 2
3 180 240 2
3 2 240 110
3 230 240 171
3 121 240 230
3 93 30 1
3 129 25 72
3 58 82 224
3 114 32 192
3 114 22 32
3 192 16 114
3 16 214 114
3 214 22 114
3 237 206 149
3 123 206 237
3 123 237 19
3 19 18 115
3 95 18 19
3 8 120 36
3 149 206 8
3 8 222 149
3 36 163 8
3 163 222 8
3 42 120 131
3 242 170 247
3 247 42 242
3 247 153 42
3 142 101 20
3 108 101 142
3 20 153 142
3 142 153 29
3 118 108 142
3 142 66 118
3 29 66 142
3 234 101 109
3 109 101 108
3 108 65 109
3 78 234 109
3 109 65 78
3 81 97 190
3 97 243 190
3 190 89 81
3 41 89 190
3 122 41 190
3 190 87 122
3 190 243 87
3 119 222 246
3 210 222 119
3 246 97 119
3 97 210 119
3 149 222 217
3 217 222 210
3 210 255 217
3 217 237 149
3 10 18 95
3 183 18 10
3 60 177 144
3 144 161 60
3 60 90 177
3 60 226 90
3 60 161 9
3 9 226 60
3 189 178 67
3 189 45 194
3 189 67 45
3 194 127 189
3 127 178 189
3 176 84 191
3 176 191 46
3 253 27 176
3 27 84 176
3 46 241 176
3 241 75 176
3 209 139 254
3 209 241 139
3 209 75 241
3 141 14 143
3 143 209 254
3 14 209 143
3 253 176 250
3 250 176 75
3 250 213 253
3 75 209 250
3 250 209 14
3 141 178 52
3 52 14 141
3 52 250 14
3 52 178 127
3 127 213 52
3 213 250 52
3 254 139 55
3 55 77 254
3 139 132 55
3 138 77 55
3 55 132 138
3 146 199 12
3 12 218 146
3 205 218 12
3 193 199 185
3 80 133 172
3 172 17 80
3 133 158 172
3 94 17 172
3 172 158 94
3 197 98 80
3 80 17 197
3 224 150 197
3 197 17 224
3 239 61 175
3 175 58 239
3 239 83 48
3 48 61 239
3 239 94 83
3 125 161 144
3 144 208 125
3 125 57 161
3 125 208 124
3 125 124 233
3 233 57 125
3 252 208 144
3 88 208 252
3 144 177 252
3 177 218 252
3 40 88 252
3 205 40 252
3 252 218 205
3 251 136 162
3 136 216 162
3 106 63 159
3 159 63 91
3 1 196 159
3 196 106 159
3 159 128 1
3 159 91 128
3 170 92 13
3 59 63 13
3 13 63 170
3 13 74 59
3 180 156 103
3 103 240 180
3 171 240 103
3 140 156 39
3 39 156 212
3 11 140 39
3 39 212 11
3 135 113 251
3 121 230 135
3 171 130 35
3 35 230 171
3 35 124 26
3 35 130 124
3 35 135 230
3 26 113 35
3 113 135 35
3 139 241 211
3 211 132 139
3 211 241 46
3 46 79 211
3 211 79 184
3 184 30 96
3 96 211 184
3 132 211 96
3 138 132 96
3 30 93 96
3 96 93 138
3 181 72 25
3 82 72 181
3 100 129 6
3 129 72 6
3 6 175 100
3 53 17 94
3 94 239 53
3 53 239 58
3 224 17 53
3 53 58 224
3 183 44 71
3 71 18 183
3 115 18 71
3 111 115 71
3 71 44 111
3 173 198 123
3 123 19 173
3 173 19 115
3 173 115 220
3 220 198 173
3 242 42 5
3 42 131 5
3 5 92 242
3 123 198 28
3 28 5 131
3 28 198 37
3 37 5 28
3 179 131 120
3 179 28 131
3 179 206 123
3 123 28 179
3 182 170 106
3 182 247 170
3 182 106 196
3 196 126 182
3 126 153 182
3 153 247 182
3 237 217 195
3 95 19 195
3 195 19 237
3 195 217 255
3 195 10 95
3 255 10 195
3 187 255 221
3 187 10 255
3 187 221 99
3 187 99 207
3 207 183 187
3 183 10 187
3 229 141 76
3 141 193 76
3 76 185 229
3 76 193 185
3 4 12 199
3 155 205 4
3 205 12 4
3 150 85 238
3 238 197 150
3 238 85 112
3 112 98 238
3 98 197 238
3 59 74 160
3 7 91 160
3 160 216 7
3 160 162 216
3 160 63 59
3 91 63 160
3 137 5 37
3 92 5 137
3 248 156 225
3 248 103 156
3 248 225 233
3 171 103 248
3 233 130 248
3 248 130 171
3 227 188 245
3 3 188 227
3 1 151 219
3 219 93 1
3 219 236 93
3 82 181 154
3 224 82 154
3 45 150 154
3 154 150 224
3 175 6 165
3 165 6 72
3 165 58 175
3 165 72 82
3 82 58 165
3 120 8 201
3 201 179 120
3 201 8 206
3 206 179 201
3 155 4 116
3 116 188 155
3 116 102 245
3 245 188 116
3 199 193 235
3 235 4 199
3 254 102 235
3 102 116 235
3 235 116 4
3 235 193 141
3 235 143 254
3 141 143 235
3 68 160 74
3 162 160 68
3 251 162 68
3 68 74 121
3 121 135 68
3 68 135 251
3 223 34 121
3 121 74 223
3 223 37 34
3 223 137 37
3 228 227 245
3 236 227 228
3 245 77 228
3 228 77 138
3 138 93 228
3 93 236 228
3 43 227 236
3 236 219 43
3 3 227 43
3 43 219 151
3 43 203 3
3 43 151 7
3 7 203 43
3 45 154 15
3 15 154 181
3 194 45 15
3 15 25 194
3 15 181 25
3 137 223 54
3 54 13 92
3 92 137 54
3 74 13 54
3 54 223 74