ply
format ascii 1.0
comment https://github.com/mikedh/trimesh
element vertex 256
property float x
property float y
property float z
element face 508
property list uchar int vertex_indices
end_header
1.72315693 1.12957454 0.08095391
-2.43108892 0.54064864 -0.89068943
-0.94921547 -1.19595027 -0.57354581
-3.17810035 0.25065899 -0.07087898
-2.57999396 0.31010255 0.95226169
-0.18532376 -0.16266067 -1.69053841
2.04867291 0.02867698 1.32045949
-2.95313907 0.06170792 -0.69533634
1.52910280 0.00090027 -1.50410450
-1.45915508 -0.81229371 1.11617124
1.83249688 -0.88180351 -0.84349257
0.03586542 -1.33397830 -0.10515799
-2.52956152 0.14932141 1.04792523
-1.53328466 -0.27057967 -1.46245849
-0.64325899 1.12560141 0.85565108
0.72809726 0.33521304 1.60620916
2.18737626 0.71511805 0.86557269
0.26845273 -0.57481366 1.53370237
1.04139650 -1.05754089 -0.88708997
0.97714877 -0.86390591 -1.19584000
0.59836036 0.41675118 -1.58988309
0.51821339 -1.23543024 0.59094208
2.11294174 0.48774669 1.13347042
2.46141839 -0.36586085 1.00520051
-0.70944160 -0.98843753 1.08615875
1.53666103 0.41252664 1.40598929
-2.77410603 -0.68413383 -0.10735556
1.27840376 1.17459130 0.45791984
0.42754647 -0.42188358 -1.60324001
-0.08702794 0.79651177 -1.36909568
-1.30527961 0.93193614 -1.01065135
-3.18165731 0.12682559 0.27289215
2.65618181 0.20521176 0.93957889
2.16913128 -0.82301831 0.70715714
-1.14640105 -0.83838987 -1.18347716
-2.54131985 -0.79838473 -0.28062764
1.57648587 0.25126517 -1.45505083
-0.51330310 -0.63812536 -1.47420871
2.50446749 0.75703251 -0.48567349
-0.50835299 -1.31969929 -0.03537047
-3.19338846 -0.07845749 0.26426423
3.15588236 -0.29805154 -0.04697884
0.23768851 0.21445006 -1.67905450
-3.02184439 0.42625889 -0.28169167
0.10134135 -1.23230255 -0.65879405
0.31425214 0.36541983 1.63260579
0.00629132 1.31348574 -0.31439489
-0.13421330 -1.18637669 0.78296900
1.62380171 -0.94829756 0.84438908
1.61630583 0.80790228 1.05855775
1.04519296 -1.26401997 -0.06343024
0.39812160 1.15624261 -0.83015960
-0.28829005 1.07653916 0.99936575
0.85709196 -0.51455796 1.50844681
-1.37551236 -0.43352124 -1.44193697
-1.76091790 1.11617982 0.14521879
2.36048031 0.77148527 0.62793267
-1.98882890 -0.97739339 0.50601083
1.28097034 -0.31617957 1.51442325
-2.03927898 -0.14520667 -1.31162953
-1.93741953 -0.64599431 1.09080207
2.05092978 -0.54044443 1.12577653
2.16119719 0.99414623 -0.05911221
-2.08893085 0.09109900 -1.29811192
1.51832366 1.17280304 -0.17121752
1.89010537 0.89458549 -0.78495824
-0.24890770 0.96377444 -1.17511058
-0.30506006 0.52757031 1.55923867
-2.35077477 -0.44799882 -1.02524817
0.97879356 0.35135540 -1.56294024
2.64969730 -0.76660818 0.07126863
0.52235842 -1.16772389 -0.78406918
1.69153583 0.05462543 1.45285201
2.65795541 -0.47197735 0.76582968
-2.01216531 -0.46056348 -1.20055246
-0.28998175 1.30450964 0.33706704
-1.37791264 0.60953707 1.33320487
-2.17403722 0.96221662 0.30261436
2.16246724 0.75410479 -0.82806945
0.08018190 1.26963878 -0.53096205
-1.15751696 -0.54084224 1.43596900
3.17388916 0.00544874 -0.33891001
1.22046626 -0.14377171 1.56908834
1.33303964 -0.84385508 1.12076998
1.23004496 1.23610055 0.01916700
-0.88022244 -0.00052218 1.64154410
-1.51021183 0.06453776 1.50696957
2.95592928 0.09068551 0.68782967
-3.14128757 -0.29364100 0.17749310
3.19833779 -0.15351035 -0.18054219
-1.86538959 -0.10043368 1.38841081
-2.39632154 0.24100028 -1.10504675
-1.07105494 -0.24367307 -1.57965052
-2.28531432 0.85182101 -0.52823931
0.63253307 -0.82360446 1.30115616
1.55240965 -0.84136224 -1.04338598
-1.46300864 1.06596434 -0.68171740
3.10621715 0.23494032 -0.37726140
-1.16833258 -0.36119407 1.52256536
2.45234466 -0.85675317 -0.21577418
2.50986958 -0.11142994 1.06792188
1.48060894 0.46487728 -1.39630985
-2.47204399 0.66378212 0.70437849
-1.43354177 -1.18898702 -0.19172798
-0.51196480 -1.23424649 0.59615743
2.57237744 -0.73544687 0.43793708
-1.62246394 0.45701304 -1.35618782
2.86941385 -0.37878698 -0.62564427
1.02138960 0.95277423 -1.06870353
1.86936402 0.73751247 -1.02726138
-0.78481162 -1.05646837 -0.96031100
-0.26718491 -1.02700377 -1.08206117
-1.22937465 -0.19061640 1.55970740
-2.86962652 -0.57172912 -0.30524138
2.43443155 0.48480719 0.93971282
0.16709326 -0.98950636 -1.14307261
-2.68408346 0.43594989 0.77568352
-0.85589164 0.94917023 -1.11265075
0.35964966 0.99268419 -1.12614715
2.65817332 0.11766810 -0.96258831
0.98819262 0.13142091 -1.61564076
-1.71796072 -0.79521179 -1.03014934
3.03311849 -0.34610134 0.40349814
0.81755292 -0.48357061 -1.53083932
-2.50267315 -0.83223504 0.21068871
-2.40318704 -0.81431943 0.47668552
-0.55688572 0.77037603 -1.36348379
0.80681002 0.97186524 1.09070551
-2.55038452 0.35470164 -0.94853687
2.12848401 0.21011947 1.25728321
-2.19750094 -0.98164397 -0.02603448
0.25390011 -0.16127338 -1.68787825
-1.70992327 1.10485125 -0.33165833
-0.80109274 -0.85142124 1.24612331
-0.85804796 0.22068869 1.62048578
-2.60561538 -0.69957376 -0.47784501
-3.02353644 -0.40077689 -0.33456096
-0.97792733 -0.41176164 -1.53874612
-2.04295325 0.99840850 -0.35791194
-1.21908355 1.22089505 0.26485756
-0.44499698 -1.30296409 0.29975617
-1.24349439 0.83450562 1.16041279
0.37554342 0.81751752 -1.33482707
-1.43885434 0.93683368 0.95198846
-2.53436041 -0.53943229 0.80841726
2.41346240 0.83134258 0.40926933
-2.25325680 -0.07001822 1.22197902
0.24906562 -1.31925154 0.23873453
2.84442234 0.63827842 -0.04245570
1.92150676 -0.26496807 -1.33074367
-0.39500454 -0.03309052 1.69256651
-2.80965519 0.35916999 -0.71352708
1.61239636 0.60913593 1.25813615
-0.06957306 0.51568544 -1.57311559
0.57057387 0.07425815 1.67634797
-3.02344871 0.15670379 0.57779479
-1.13446784 -1.25165939 -0.03605578
-1.68005490 -0.95939410 0.79200649
-0.29322284 -0.90938318 1.24075186
-1.96967447 0.38374099 -1.26294482
-2.32569551 -0.24652314 -1.14443910
-2.01690054 -0.82214075 0.82488382
-2.84647036 -0.32959592 -0.69605887
2.08881927 0.25388947 -1.26279485
2.92869186 -0.56976855 0.03900956
1.60946178 -0.13154306 1.47067583
-3.21607041 -0.14030051 -0.09176439
-0.38846457 -1.24252653 -0.59368163
2.86790586 -0.20398083 0.74798810
2.60269952 0.78188366 -0.18594655
-0.97867846 0.09172328 -1.62225151
-1.95077324 -1.05636823 -0.18779010
-0.00126196 -0.77182269 1.39261961
0.51136118 -0.77186096 -1.36603212
3.01190233 -0.22690102 -0.55595869
1.81561172 -0.39455143 1.31955338
0.16789857 1.30584884 0.35281047
-2.46315169 -0.41481367 0.97288865
-0.27769598 0.79528427 1.36396933
0.76641011 -0.22466327 -1.63266575
-1.11641455 -1.22688866 -0.33383492
1.26854944 0.24792936 1.53724945
-1.10469878 0.55572075 -1.43830585
1.09845114 -1.23179853 -0.32064518
-0.57381999 1.15323997 -0.80775630
-1.22716582 0.32741544 1.52223468
-1.12718916 -0.92508411 1.07848167
2.21787667 -0.87280726 -0.55163938
-3.06952786 0.36977309 0.26958948
0.13508715 0.73401171 1.42380190
3.22779012 0.05994156 -0.11254038
0.69148332 1.29368341 -0.22598270
2.73939419 0.46159700 0.69309956
-1.75745666 0.52436900 1.26698816
0.87208855 0.69155812 1.38572729
1.65088081 -0.67068112 -1.19231713
-1.43640721 0.75391102 -1.18856096
-0.35888073 -0.24183655 1.66687346
0.34306669 -0.61633188 -1.50295925
-2.14210796 0.18117987 1.25836468
2.77350998 -0.65602630 0.27380684
1.17953420 -0.17525011 -1.57270324
1.72973180 -1.12941766 0.05654232
-3.15465951 -0.01574795 -0.38414887
1.63338685 1.08853054 -0.48860013
-2.76668096 0.04395845 0.88464087
1.39216125 -0.31391248 -1.48717773
2.23734260 -0.96450937 -0.07287197
-2.66212606 -0.64926952 0.50642765
-0.94497740 1.21124375 0.52078778
2.75833106 -0.09133519 -0.88638210
-0.65855676 1.25868297 -0.45679706
-0.66583467 -1.28500593 -0.31333876
0.80043566 1.08832240 0.89566511
1.95670140 0.66294092 1.06382573
-3.07316184 -0.41364121 -0.09953088
-2.99537754 -0.13587673 -0.62419158
2.24640632 -0.32296690 -1.15736389
-2.60065460 -0.18353365 0.98954171
-2.71908045 0.55903035 -0.59163511
-0.38008916 -0.79510856 -1.35666132
2.73857617 -0.68275672 -0.26564917
2.36214280 0.07468524 -1.16297340
-1.41083527 -0.60378343 -1.32871354
0.50590420 -0.28026623 1.64669645
-1.28214908 -1.19960773 0.32978627
-1.59228647 -0.63123113 1.24805570
-2.95281720 0.54822844 -0.02317607
-2.58410549 0.78097659 -0.24999359
-0.99331540 0.58717978 1.44052899
-2.29865408 -0.86601263 -0.47029701
1.42278147 0.94659472 0.94252670
-1.52674520 -1.08217525 0.59608704
-2.05241871 -1.02053320 0.21084584
2.07351518 0.56466699 -1.09451115
-2.08154702 0.53623396 1.11323583
-2.70605040 0.66378587 -0.40102610
1.52873814 -0.49676192 -1.36378062
-0.75282693 -0.16530195 1.64590883
1.63611972 -0.63903606 1.22573364
-1.59487557 -1.05253553 -0.63164514
-0.55265450 1.31223786 0.13895874
-0.46733138 0.02733821 -1.68759465
3.17729259 0.25807339 -0.00064500
-0.69723135 -0.91712248 -1.18496978
-2.68729854 0.70748079 0.30090421
2.61971927 0.29721183 -0.92830902
-0.58318120 0.32134539 -1.62676215
-1.64402080 -1.15085578 0.04426287
0.44696778 -1.04231787 1.04136574
-0.00684871 1.19891417 0.75435108
-2.79675221 -0.49255791 -0.58609498
-2.84586525 -0.42508522 0.60699785
0.55162585 1.22704399 0.61048651
-1.79907322 0.91156745 0.81116104
2.62266135 -0.44286796 -0.82553607
3 249 48 83
3 64 0 62
3 220 34 37
3 64 62 204
3 204 191 64
3 51 191 204
3 213 27 253
3 21 48 249
3 104 24 232
3 40 205 155
3 7 151 128
3 128 151 1
3 115 111 220
3 220 111 244
3 244 34 220
3 113 26 215
3 117 184 66
3 66 51 118
3 184 51 66
3 117 196 30
3 30 184 117
3 30 196 1
3 64 191 84
3 84 0 64
3 84 27 0
3 46 191 79
3 79 191 51
3 79 51 184
3 168 87 100
3 100 23 168
3 168 23 73
3 168 73 122
3 122 87 168
3 25 152 194
3 32 87 192
3 100 87 32
3 32 129 100
3 145 62 0
3 0 27 145
3 220 37 198
3 99 70 207
3 78 246 234
3 246 163 234
3 118 51 108
3 51 204 108
3 126 196 117
3 117 66 126
3 126 66 29
3 148 145 192
3 107 174 41
3 122 164 41
3 81 174 210
3 210 174 107
3 210 97 81
3 38 204 62
3 38 148 97
3 38 246 78
3 38 97 246
3 73 33 105
3 207 70 105
3 112 86 90
3 146 177 90
3 231 213 127
3 27 213 231
3 134 45 67
3 67 229 134
3 185 86 134
3 134 229 185
3 249 83 94
3 112 90 98
3 150 45 134
3 175 23 100
3 11 183 50
3 47 24 104
3 47 21 249
3 104 21 47
3 186 232 24
3 186 133 9
3 24 133 186
3 31 40 155
3 215 26 88
3 136 113 215
3 251 113 136
3 7 128 91
3 212 167 11
3 225 232 233
3 104 232 225
3 225 140 104
3 44 183 11
3 11 167 44
3 44 167 111
3 121 34 110
3 34 244 110
3 111 167 110
3 110 244 111
3 218 177 146
3 121 110 240
3 233 124 130
3 56 16 192
3 192 145 56
3 56 231 16
3 56 145 27
3 27 231 56
3 129 32 22
3 22 214 152
3 152 25 22
3 22 25 129
3 107 41 221
3 221 41 164
3 164 70 221
3 70 99 221
3 20 69 120
3 120 42 20
3 120 69 36
3 20 42 153
3 153 126 29
3 101 69 20
3 36 69 101
3 101 163 36
3 101 234 163
3 62 145 169
3 145 148 169
3 169 38 62
3 148 38 169
3 192 87 243
3 243 148 192
3 97 148 243
3 89 174 81
3 89 41 174
3 222 163 246
3 255 210 107
3 107 221 255
3 65 38 78
3 204 38 65
3 65 108 204
3 122 73 200
3 73 105 200
3 200 164 122
3 200 70 164
3 200 105 70
3 80 98 226
3 226 98 90
3 9 133 226
3 226 133 80
3 178 141 229
3 229 67 178
3 49 127 194
3 49 231 127
3 194 152 49
3 152 214 49
3 49 214 16
3 16 231 49
3 254 77 102
3 102 77 245
3 86 185 199
3 146 90 199
3 199 90 86
3 85 150 134
3 85 86 112
3 134 86 85
3 23 175 61
3 73 23 61
3 61 33 73
3 48 33 61
3 11 50 147
3 147 50 21
3 147 140 11
3 147 21 104
3 104 140 147
3 202 183 207
3 202 50 183
3 202 33 48
3 48 21 202
3 21 50 202
3 207 105 202
3 202 105 33
3 158 133 24
3 158 47 249
3 24 47 158
3 249 94 158
3 26 124 208
3 208 88 26
3 232 186 157
3 9 161 157
3 157 186 9
3 57 157 161
3 233 232 57
3 232 157 57
3 3 31 188
3 188 31 155
3 166 88 40
3 3 203 166
3 215 88 166
3 166 31 3
3 40 31 166
3 166 136 215
3 203 136 166
3 216 136 203
3 216 203 7
3 106 170 63
3 92 170 242
3 180 212 156
3 140 225 156
3 2 110 167
3 2 212 180
3 167 212 2
3 180 240 2
3 2 240 110
3 230 240 171
3 121 240 230
3 93 30 1
3 129 25 72
3 58 82 224
3 114 32 192
3 114 22 32
3 192 16 114
3 16 214 114
3 214 22 114
3 237 206 149
3 123 206 237
3 123 237 19
3 19 18 115
3 95 18 19
3 8 120 36
3 149 206 8
3 8 222 149
3 36 163 8
3 163 222 8
3 42 120 131
3 242 170 247
3 247 42 242
3 247 153 42
3 142 101 20
3 108 101 142
3 20 153 142
3 142 153 29
3 118 108 142
3 142 66 118
3 29 66 142
3 234 101 109
3 109 101 108
3 108 65 109
3 78 234 109
3 109 65 78
3 81 97 190
3 97 243 190
3 190 89 81
3 41 89 190
3 122 41 190
3 190 87 122
3 190 243 87
3 119 222 246
3 210 222 119
3 246 97 119
3 97 210 119
3 149 222 217
3 217 222 210
3 210 255 217
3 217 237 149
3 10 18 95
3 183 18 10
3 60 177 144
3 144 161 60
3 60 90 177
3 60 226 90
3 60 161 9
3 9 226 60
3 189 178 67
3 189 45 194
3 189 67 45
3 194 127 189
3 127 178 189
3 176 84 191
3 176 191 46
3 253 27 176
3 27 84 176
3 46 241 176
3 241 75 176
3 209 139 254
3 209 241 139
3 209 75 241
3 141 14 143
3 143 209 254
3 14 209 143
3 253 176 250
3 250 176 75
3 250 213 253
3 75 209 250
3 250 209 14
3 141 178 52
3 52 14 141
3 52 250 14
3 52 178 127
3 127 213 52
3 213 250 52
3 254 139 55
3 55 77 254
3 139 132 55
3 138 77 55
3 55 132 138
3 146 199 12
3 12 218 146
3 205 218 12
3 193 199 185
3 80 133 172
3 172 17 80
3 133 158 172
3 94 17 172
3 172 158 94
3 197 98 80
3 80 17 197
3 224 150 197
3 197 17 224
3 239 61 175
3 175 58 239
3 239 83 48
3 48 61 239
3 239 94 83
3 125 161 144
3 144 208 125
3 125 57 161
3 125 208 124
3 125 124 233
3 233 57 125
3 252 208 144
3 88 208 252
3 144 177 252
3 177 218 252
3 40 88 252
3 205 40 252
3 252 218 205
3 251 136 162
3 136 216 162
3 106 63 159
3 159 63 91
3 1 196 159
3 196 106 159
3 159 128 1
3 159 91 128
3 170 92 13
3 59 63 13
3 13 63 170
3 13 74 59
3 180 156 103
3 103 240 180
3 171 240 103
3 140 156 39
3 39 156 212
3 11 140 39
3 39 212 11
3 135 113 251
3 121 230 135
3 171 130 35
3 35 230 171
3 35 124 26
3 35 130 124
3 35 135 230
3 26 113 35
3 113 135 35
3 139 241 211
3 211 132 139
3 211 241 46
3 46 79 211
3 211 79 184
3 184 30 96
3 96 211 184
3 132 211 96
3 138 132 96
3 30 93 96
3 96 93 138
3 181 72 25
3 82 72 181
3 100 129 6
3 129 72 6
3 6 175 100
3 53 17 94
3 94 239 53
3 53 239 58
3 224 17 53
3 53 58 224
3 183 44 71
3 71 18 183
3 115 18 71
3 111 115 71
3 71 44 111
3 173 198 123
3 123 19 173
3 173 19 115
3 173 115 220
3 220 198 173
3 242 42 5
3 42 131 5
3 5 92 242
3 123 198 28
3 28 5 131
3 28 198 37
3 37 5 28
3 179 131 120
3 179 28 131
3 179 206 123
3 123 28 179
3 182 170 106
3 182 247 170
3 182 106 196
3 196 126 182
3 126 153 182
3 153 247 182
3 237 217 195
3 95 19 195
3 195 19 237
3 195 217 255
3 195 10 95
3 255 10 195
3 187 255 221
3 187 10 255
3 187 221 99
3 187 99 207
3 207 183 187
3 183 10 187
3 229 141 76
3 141 193 76
3 76 185 229
3 76 193 185
3 4 12 199
3 155 205 4
3 205 12 4
3 150 85 238
3 238 197 150
3 238 85 112
3 112 98 238
3 98 197 238
3 59 74 160
3 7 91 160
3 160 216 7
3 160 162 216
3 160 63 59
3 91 63 160
3 137 5 37
3 92 5 137
3 248 156 225
3 248 103 156
3 248 225 233
3 171 103 248
3 233 130 248
3 248 130 171
3 227 188 245
3 3 188 227
3 1 151 219
3 219 93 1
3 219 236 93
3 82 181 154
3 224 82 154
3 45 150 154
3 154 150 224
3 175 6 165
3 165 6 72
3 165 58 175
3 165 72 82
3 82 58 165
3 120 8 201
3 201 179 120
3 201 8 206
3 206 179 201
3 155 4 116
3 116 188 155
3 116 102 245
3 245 188 116
3 199 193 235
3 235 4 199
3 254 102 235
3 102 116 235
3 235 116 4
3 235 193 141
3 235 143 254
3 141 143 235
3 68 160 74
3 162 160 68
3 251 162 68
3 68 74 121
3 121 135 68
3 68 135 251
3 223 34 121
3 121 74 223
3 223 37 34
3 223 137 37
3 228 227 245
3 236 227 228
3 245 77 228
3 228 77 138
3 138 93 228
3 93 236 228
3 43 227 236
3 236 219 43
3 3 227 43
3 43 219 151
3 43 203 3
3 43 151 7
3 7 203 43
3 45 154 15
3 15 154 181
3 194 45 15
3 15 25 194
3 15 181 25
3 137 223 54
3 54 13 92
3 92 137 54
3 74 13 54
3 54 223 74