ply
format ascii 1.0
comment https://github.com/mikedh/trimesh
element vertex 256
property float x
property float y
property float z
element face 508
property list uchar int vertex_indices
end_header
2.01763868 1.67830265 0.19641201
-2.84655404 0.80328649 -2.16100860
-1.11143327 -1.77692235 -1.39154840
-3.72122717 0.37242484 -0.17196798
-3.02090645 0.46074510 2.31039643
-0.21699497 -0.24167846 -4.10161829
2.39878416 0.04260777 3.20372534
-3.45782065 0.09168457 -1.68703890
1.79042149 0.00133761 -3.64928865
-1.70851982 -1.20689213 2.70807719
2.14566445 -1.31016862 -2.04649854
0.04199470 -1.98200202 -0.25513643
-2.96185517 0.22185919 2.54249716
-1.79531789 -0.40202263 -3.54824615
-0.75318986 1.67239940 2.07599783
0.85252666 0.49805382 3.89701700
2.56119156 1.06251013 2.10007000
0.31433040 -0.85404825 3.72109938
1.21936774 -1.57127619 -2.15227556
1.14414024 -1.28357661 -2.90137100
0.70061815 0.61920178 -3.85740614
0.60677433 -1.83558106 1.43375552
2.47403669 0.72468567 2.75004864
2.88206649 -0.54358983 2.43883753
-0.83068281 -1.46860361 2.63526011
1.79927135 0.61292505 3.41123939
-3.24819160 -1.01647437 -0.26046818
1.49687862 1.74518776 1.11101437
0.50061274 -0.62682742 -3.88981295
-0.10190073 1.18344355 -3.32172751
-1.52834761 1.38465476 -2.45206261
-3.72539210 0.18843529 0.66209638
3.11011457 0.30490014 2.27962518
2.53982854 -1.22282648 1.71571887
-1.34231722 -1.24566531 -2.87137604
-2.97562313 -1.18622637 -0.68086445
1.84590209 0.37332550 -3.53027344
-0.60102493 -0.94811571 -3.57675481
2.93247271 1.12478602 -1.17835081
-0.59522885 -1.96078670 -0.08581655
-3.73912787 -0.11657079 0.64116317
3.69521236 -0.44283989 -0.11398100
0.27830869 0.31862622 -4.07375574
-3.53826761 0.63332820 -0.68344599
0.11866026 -1.83093405 -1.59837937
0.36795679 0.54293454 3.96106100
0.00736649 1.95155466 -0.76279122
-0.15714990 -1.76269817 1.89965510
1.90130401 -1.40896428 2.04867387
1.89252722 1.20036745 2.56829405
1.22381294 -1.87805927 -0.15389574
0.46615925 1.71792555 -2.01414990
-0.33755788 1.59950352 2.42468119
1.00356615 -0.76452136 3.65982389
-1.61058295 -0.64411843 -3.49845648
-2.06185293 1.65840089 0.35233271
2.76387858 1.14625955 1.52350283
-2.32871318 -1.45219433 1.22769356
1.49988389 -0.46977422 3.67432404
-2.38778520 -0.21574558 -3.18230176
-2.26851821 -0.95980728 2.64652610
2.40142703 -0.80298305 2.73138165
2.53053856 1.47708547 -0.14341922
-2.44592237 0.13535334 -3.14950538
1.77780020 1.74253070 -0.41541138
2.21311808 1.32915974 -1.90448141
-0.29144520 1.43195963 -2.85107684
-0.35719380 0.78385490 3.78305602
-2.75251436 -0.66562897 -2.48747754
1.14606607 0.52203786 -3.79203701
3.10252166 -1.13901329 0.17291339
0.61162776 -1.73498428 -1.90232432
1.98061371 0.08116152 3.52493882
3.11219120 -0.70125586 1.85807133
-2.35603762 -0.68429732 -2.91280437
-0.33953869 1.93821812 0.81779879
-1.61339331 0.90563971 3.23464823
-2.54557300 1.42964506 0.73420900
2.53202581 1.12043607 -2.00907874
0.09388473 1.88640761 -1.28823078
-1.35533285 -0.80357414 3.48397684
3.71629620 0.00809565 -0.82227027
1.42903984 -0.21361354 3.80695367
1.56085169 -1.25378549 2.71923470
1.44025552 1.83657706 0.04650337
-1.03064954 -0.00077585 3.98274708
-1.76830208 0.09588911 3.65623975
3.46108770 0.13473897 1.66882622
-3.67812324 -0.43628678 0.43063730
3.74492311 -0.22808304 -0.43803507
-2.18417835 -0.14922266 3.36859012
-2.80584502 0.35807410 -2.68108654
-1.25409472 -0.36204529 -3.83257985
-2.67586708 1.26562107 -1.28162479
0.74063087 -1.22369742 3.15689111
1.81771135 -1.25008154 -2.53148389
-1.71303201 1.58379161 -1.65399647
3.63705945 0.34907031 -0.91531914
-1.36799669 -0.53665596 3.69407868
2.87144232 -1.27294922 -0.52351564
2.93879795 -0.16556071 2.59101343
1.73364019 0.69070673 -3.38775492
-2.89450812 0.98623610 1.70897722
-1.67852938 -1.76657653 -0.46517429
-0.59945792 -1.83382237 1.44640911
3.01198816 -1.09271443 1.06253171
-1.89973772 0.67902213 -3.29041028
3.35978723 -0.56279522 -1.51795065
1.19594169 1.41561568 -2.59290981
2.18883228 1.09578335 -2.49236202
-0.91893333 -1.56968260 -2.32992578
-0.31284595 -1.52590466 -2.62531829
-1.43947077 -0.28321460 3.78419328
-3.36003613 -0.84946537 -0.74058276
2.85046792 0.72031826 2.27995014
0.19564895 -1.47019160 -2.77334571
-3.14278460 0.64772689 1.88197887
-1.00216067 1.41026092 -2.69953561
0.42111260 1.47491324 -2.73228073
3.11244631 0.17482924 -2.33545113
1.15707147 0.19526295 -3.91990018
-2.01155448 -1.18151212 -2.49936914
3.55146837 -0.51423144 0.97897530
0.95726997 -0.71848094 -3.71415305
-2.93037176 -1.23652065 0.51117718
-2.81388378 -1.20990193 1.15654397
-0.65205562 1.14461160 -3.30811167
0.94469118 1.44398069 2.64629149
-2.98623681 0.52700961 -2.30135918
2.49223471 0.31219190 3.05044580
-2.57304668 -1.45850980 -0.06316537
0.29729080 -0.23961721 -4.09516382
-2.00214338 1.64156914 -0.80467606
-0.93799680 -1.26502705 3.02336955
-1.00468552 0.32789546 3.93165517
-3.05090642 -1.03941476 -1.15935707
-3.54024887 -0.59546745 -0.81171852
-1.14505184 -0.61178839 -3.73333669
-2.39208722 1.48341823 -0.86837310
-1.42742085 1.81398487 0.64260274
-0.52104551 -1.93592191 0.72727442
-1.45600355 1.23989415 2.81541657
0.43972254 1.21465361 -3.23858404
-1.68474984 1.39193141 2.30973339
-2.96747422 -0.80147928 1.96139812
2.82591510 1.23519456 0.99297744
-2.63833070 -0.10403188 2.96479011
0.29163012 -1.96012127 0.57922250
3.33052468 0.94834316 -0.10300688
2.24988604 -0.39368501 -3.22867680
-0.46250951 -0.04916532 4.10653877
-3.28981590 0.53364861 -1.73117375
1.88794959 0.90504372 3.05251527
-0.08146287 0.76619655 -3.81672454
0.66808301 0.11033148 4.06718922
-3.54014611 0.23282781 1.40185738
-1.32834458 -1.85969412 -0.08747926
-1.96717072 -1.42545140 1.92158210
-0.34333366 -1.35114598 3.01033688
-2.30628514 0.57015580 -3.06418204
-2.72314906 -0.36627987 -2.77666116
-2.36158204 -1.22152269 2.00134969
-3.33292270 -0.48970798 -1.68879199
2.44579172 0.37722462 -3.06381822
3.42919564 -0.84655237 0.09464578
1.88451350 -0.19544443 3.56818318
-3.76568627 -0.20845610 -0.22264060
-0.45485187 -1.84612465 -1.44040239
3.35802150 -0.30307123 1.81478369
3.04749227 1.16170931 -0.45114726
-1.14593136 0.13628088 -3.93593907
-2.28415394 -1.56953382 -0.45562011
-0.00147763 -1.14676094 3.37880158
0.59875113 -1.14681780 -3.31429458
3.52662635 -0.33712566 -1.34887815
2.12589359 -0.58621776 3.20152688
0.19659187 1.94020784 0.85599583
-2.88409615 -0.61632305 2.36044192
-0.32515329 1.18161976 3.30928969
0.89738703 -0.33380085 -3.96120644
-1.30720603 -1.82289016 -0.80995697
1.48534036 0.36836922 3.72970533
-1.29348803 0.82568038 -3.48964667
1.28617275 -1.83018529 -0.77795583
-0.67188394 1.71346426 -1.95979452
-1.43688440 0.48646829 3.69327617
-1.31982207 -1.37447417 2.61663365
2.59690428 -1.29680216 -1.33839846
-3.59410000 0.54940253 0.65408337
0.15817310 1.09058201 3.45445657
3.77940869 0.08906014 -0.27304772
0.80965549 1.92213273 -0.54828376
3.20754766 0.68583292 1.68161213
-2.05780029 0.77909845 3.07399201
1.02112556 1.02750516 3.36207938
1.93301082 -0.99648654 -2.89282393
-1.68188441 1.12014818 -2.88371038
-0.42021224 -0.35931662 4.04420185
0.40169564 -0.91573536 -3.64650989
-2.50818729 0.26919395 3.05306959
3.24749374 -0.97471273 0.66431564
1.38111269 -0.26038364 -3.81572413
2.02533722 -1.67806947 0.13718411
-3.69378042 -0.02339803 -0.93202972
1.91252732 1.61732018 -1.18545139
-3.23949742 0.06531271 2.14633346
1.63007700 -0.46640581 -3.60822058
2.61969709 -1.43305159 -0.17680342
-3.11707449 -0.96467358 1.22870481
-1.10647082 1.79964519 1.26354575
3.22972059 -0.13570426 -2.15055799
-0.77110189 1.87012959 -1.10829020
-0.77962363 -1.90923989 -0.76022881
0.93722749 1.61701071 2.17308068
2.29109526 0.98498631 2.58107543
-3.59835505 -0.61458105 -0.24148381
-3.50727773 -0.20188332 -1.51442611
2.63030982 -0.47985873 -2.80801964
-3.04509783 -0.27269116 2.40084600
-3.18376207 0.83059776 -1.43543696
-0.44504514 -1.18135870 -3.29155898
3.20658970 -1.01442826 -0.64452332
2.76582527 0.11096605 -2.82162929
-1.65194225 -0.89709109 -3.22375154
0.59236151 -0.41641480 3.99524808
-1.50126410 -1.78235662 0.80013406
-1.86440289 -0.93787247 3.02805781
-3.45744371 0.81454843 -0.05623025
-3.02572036 1.16036165 -0.60653949
-1.16306973 0.87242168 3.49504042
-2.69148636 -1.28670681 -1.14104402
1.66593015 1.40643418 2.28677726
-1.78766096 -1.60787749 1.44623828
-2.40317011 -1.51629078 0.51155841
2.42787194 0.83897251 -2.65552497
-2.43727660 0.79672730 2.70095491
-3.16850543 0.98624176 -0.97297758
1.78999448 -0.73808038 -3.30883193
-0.88148254 -0.24560282 3.99333692
1.91572714 -0.94946885 2.97389936
-1.86743462 -1.56383932 -1.53251016
-0.64710128 1.94970059 0.33714446
-0.54719675 0.04061864 -4.09447622
3.72028136 0.38344103 -0.00156490
-0.81638592 -1.36264491 -2.87499738
-3.14654899 1.05116284 0.73005986
3.06742072 0.44159225 -2.25228190
-0.68284494 0.47744951 -3.94688296
-1.92497849 -1.70992184 0.10739147
0.52335310 -1.54865801 2.52658248
-0.00801913 1.78132617 1.83022177
-3.27470779 -0.73183411 -1.42199540
-3.33221436 -0.63158435 1.47271037
0.64589691 1.82312107 1.48117459
-2.10652876 1.35439134 1.96805513
3.07086539 -0.65800565 -2.00293207
3 249 48 83
3 64 0 62
3 220 34 37
3 64 62 204
3 204 191 64
3 51 191 204
3 213 27 253
3 21 48 249
3 104 24 232
3 40 205 155
3 7 151 128
3 128 151 1
3 115 111 220
3 220 111 244
3 244 34 220
3 113 26 215
3 117 184 66
3 66 51 118
3 184 51 66
3 117 196 30
3 30 184 117
3 30 196 1
3 64 191 84
3 84 0 64
3 84 27 0
3 46 191 79
3 79 191 51
3 79 51 184
3 168 87 100
3 100 23 168
3 168 23 73
3 168 73 122
3 122 87 168
3 25 152 194
3 32 87 192
3 100 87 32
3 32 129 100
3 145 62 0
3 0 27 145
3 220 37 198
3 99 70 207
3 78 246 234
3 246 163 234
3 118 51 108
3 51 204 108
3 126 196 117
3 117 66 126
3 126 66 29
3 148 145 192
3 107 174 41
3 122 164 41
3 81 174 210
3 210 174 107
3 210 97 81
3 38 204 62
3 38 148 97
3 38 246 78
3 38 97 246
3 73 33 105
3 207 70 105
3 112 86 90
3 146 177 90
3 231 213 127
3 27 213 231
3 134 45 67
3 67 229 134
3 185 86 134
3 134 229 185
3 249 83 94
3 112 90 98
3 150 45 134
3 175 23 100
3 11 183 50
3 47 24 104
3 47 21 249
3 104 21 47
3 186 232 24
3 186 133 9
3 24 133 186
3 31 40 155
3 215 26 88
3 136 113 215
3 251 113 136
3 7 128 91
3 212 167 11
3 225 232 233
3 104 232 225
3 225 140 104
3 44 183 11
3 11 167 44
3 44 167 111
3 121 34 110
3 34 244 110
3 111 167 110
3 110 244 111
3 218 177 146
3 121 110 240
3 233 124 130
3 56 16 192
3 192 145 56
3 56 231 16
3 56 145 27
3 27 231 56
3 129 32 22
3 22 214 152
3 152 25 22
3 22 25 129
3 107 41 221
3 221 41 164
3 164 70 221
3 70 99 221
3 20 69 120
3 120 42 20
3 120 69 36
3 20 42 153
3 153 126 29
3 101 69 20
3 36 69 101
3 101 163 36
3 101 234 163
3 62 145 169
3 145 148 169
3 169 38 62
3 148 38 169
3 192 87 243
3 243 148 192
3 97 148 243
3 89 174 81
3 89 41 174
3 222 163 246
3 255 210 107
3 107 221 255
3 65 38 78
3 204 38 65
3 65 108 204
3 122 73 200
3 73 105 200
3 200 164 122
3 200 70 164
3 200 105 70
3 80 98 226
3 226 98 90
3 9 133 226
3 226 133 80
3 178 141 229
3 229 67 178
3 49 127 194
3 49 231 127
3 194 152 49
3 152 214 49
3 49 214 16
3 16 231 49
3 254 77 102
3 102 77 245
3 86 185 199
3 146 90 199
3 199 90 86
3 85 150 134
3 85 86 112
3 134 86 85
3 23 175 61
3 73 23 61
3 61 33 73
3 48 33 61
3 11 50 147
3 147 50 21
3 147 140 11
3 147 21 104
3 104 140 147
3 202 183 207
3 202 50 183
3 202 33 48
3 48 21 202
3 21 50 202
3 207 105 202
3 202 105 33
3 158 133 24
3 158 47 249
3 24 47 158
3 249 94 158
3 26 124 208
3 208 88 26
3 232 186 157
3 9 161 157
3 157 186 9
3 57 157 161
3 233 232 57
3 232 157 57
3 3 31 188
3 188 31 155
3 166 88 40
3 3 203 166
3 215 88 166
3 166 31 3
3 40 31 166
3 166 136 215
3 203 136 166
3 216 136 203
3 216 203 7
3 106 170 63
3 92 170 242
3 180 212 156
3 140 225 156
3 2 110 167
3 2 212 180
3 167 212 2
3 180 240 2
3 2 240 110
3 230 240 171
3 121 240 230
3 93 30 1
3 129 25 72
3 58 82 224
3 114 32 192
3 114 22 32
3 192 16 114
3 16 214 114
3 214 22 114
3 237 206 149
3 123 206 237
3 123 237 19
3 19 18 115
3 95 18 19
3 8 120 36
3 149 206 8
3 8 222 149
3 36 163 8
3 163 222 8
3 42 120 131
3 242 170 247
3 247 42 242
3 247 153 42
3 142 101 20
3 108 101 142
3 20 153 142
3 142 153 29
3 118 108 142
3 142 66 118
3 29 66 142
3 234 101 109
3 109 101 108
3 108 65 109
3 78 234 109
3 109 65 78
3 81 97 190
3 97 243 190
3 190 89 81
3 41 89 190
3 122 41 190
3 190 87 122
3 190 243 87
3 119 222 246
3 210 222 119
3 246 97 119
3 97 210 119
3 149 222 217
3 217 222 210
3 210 255 217
3 217 237 149
3 10 18 95
3 183 18 10
3 60 177 144
3 144 161 60
3 60 90 177
3 60 226 90
3 60 161 9
3 9 226 60
3 189 178 67
3 189 45 194
3 189 67 45
3 194 127 189
3 127 178 189
3 176 84 191
3 176 191 46
3 253 27 176
3 27 84 176
3 46 241 176
3 241 75 176
3 209 139 254
3 209 241 139
3 209 75 241
3 141 14 143
3 143 209 254
3 14 209 143
3 253 176 250
3 250 176 75
3 250 213 253
3 75 209 250
3 250 209 14
3 141 178 52
3 52 14 141
3 52 250 14
3 52 178 127
3 127 213 52
3 213 250 52
3 254 139 55
3 55 77 254
3 139 132 55
3 138 77 55
3 55 132 138
3 146 199 12
3 12 218 146
3 205 218 12
3 193 199 185
3 80 133 172
3 172 17 80
3 133 158 172
3 94 17 172
3 172 158 94
3 197 98 80
3 80 17 197
3 224 150 197
3 197 17 224
3 239 61 175
3 175 58 239
3 239 83 48
3 48 61 239
3 239 94 83
3 125 161 144
3 144 208 125
3 125 57 161
3 125 208 124
3 125 124 233
3 233 57 125
3 252 208 144
3 88 208 252
3 144 177 252
3 177 218 252
3 40 88 252
3 205 40 252
3 252 218 205
3 251 136 162
3 136 216 162
3 106 63 159
3 159 63 91
3 1 196 159
3 196 106 159
3 159 128 1
3 159 91 128
3 170 92 13
3 59 63 13
3 13 63 170
3 13 74 59
3 180 156 103
3 103 240 180
3 171 240 103
3 140 156 39
3 39 156 212
3 11 140 39
3 39 212 11
3 135 113 251
3 121 230 135
3 171 130 35
3 35 230 171
3 35 124 26
3 35 130 124
3 35 135 230
3 26 113 35
3 113 135 35
3 139 241 211
3 211 132 139
3 211 241 46
3 46 79 211
3 211 79 184
3 184 30 96
3 96 211 184
3 132 211 96
3 138 132 96
3 30 93 96
3 96 93 138
3 181 72 25
3 82 72 181
3 100 129 6
3 129 72 6
3 6 175 100
3 53 17 94
3 94 239 53
3 53 239 58
3 224 17 53
3 53 58 224
3 183 44 71
3 71 18 183
3 115 18 71
3 111 115 71
3 71 44 111
3 173 198 123
3 123 19 173
3 173 19 115
3 173 115 220
3 220 198 173
3 242 42 5
3 42 131 5
3 5 92 242
3 123 198 28
3 28 5 131
3 28 198 37
3 37 5 28
3 179 131 120
3 179 28 131
3 179 206 123
3 123 28 179
3 182 170 106
3 182 247 170
3 182 106 196
3 196 126 182
3 126 153 182
3 153 247 182
3 237 217 195
3 95 19 195
3 195 19 237
3 195 217 255
3 195 10 95
3 255 10 195
3 187 255 221
3 187 10 255
3 187 221 99
3 187 99 207
3 207 183 187
3 183 10 187
3 229 141 76
3 141 193 76
3 76 185 229
3 76 193 185
3 4 12 199
3 155 205 4
3 205 12 4
3 150 85 238
3 238 197 150
3 238 85 112
3 112 98 238
3 98 197 238
3 59 74 160
3 7 91 160
3 160 216 7
3 160 162 216
3 160 63 59
3 91 63 160
3 137 5 37
3 92 5 137
3 248 156 225
3 248 103 156
3 248 225 233
3 171 103 248
3 233 130 248
3 248 130 171
3 227 188 245
3 3 188 227
3 1 151 219
3 219 93 1
3 219 236 93
3 82 181 154
3 224 82 154
3 45 150 154
3 154 150 224
3 175 6 165
3 165 6 72
3 165 58 175
3 165 72 82
3 82 58 165
3 120 8 201
3 201 179 120
3 201 8 206
3 206 179 201
3 155 4 116
3 116 188 155
3 116 102 245
3 245 188 116
3 199 193 235
3 235 4 199
3 254 102 235
3 102 116 235
3 235 116 4
3 235 193 141
3 235 143 254
3 141 143 235
3 68 160 74
3 162 160 68
3 251 162 68
3 68 74 121
3 121 135 68
3 68 135 251
3 223 34 121
3 121 74 223
3 223 37 34
3 223 137 37
3 228 227 245
3 236 227 228
3 245 77 228
3 228 77 138
3 138 93 228
3 93 236 228
3 43 227 236
3 236 219 43
3 3 227 43
3 43 219 151
3 43 203 3
3 43 151 7
3 7 203 43
3 45 154 15
3 15 154 181
3 194 45 15
3 15 25 194
3 15 181 25
3 137 223 54
3 54 13 92
3 92 137 54
3 74 13 54
3 54 223 74