ply
format ascii 1.0
comment https://github.com/mikedh/trimesh
element vertex 256
property float x
property float y
property float z
element face 508
property list uchar int vertex_indices
end_header
1.45940447 1.89135718 0.12187367
-2.05897808 0.90526086 -1.34090602
-0.80392522 -2.00249648 -0.86345589
-2.69164920 0.41970286 -0.10670615
-2.18509102 0.51923501 1.43360114
-0.15695745 -0.27235869 -2.54505444
1.73509574 0.04801668 1.98791182
-2.50112104 0.10332360 -1.04680777
1.29505301 0.00150741 -2.26438379
-1.23581159 -1.36010277 1.68036211
1.55200851 -1.47648978 -1.26985252
0.03037573 -2.23361015 -0.15831219
-2.14237785 0.25002342 1.57761967
-1.29859471 -0.45305797 -2.20168686
-0.54479951 1.88470459 1.28815675
0.61665213 0.56127995 2.41809940
1.85256863 1.19739211 1.30309355
0.22736241 -0.96246666 2.30894256
0.88199669 -1.77074409 -1.33548713
0.82758290 -1.44652212 -1.80030096
0.50677323 0.69780725 -2.39352083
0.43889382 -2.06860161 0.88964546
1.78952754 0.81668198 1.70640540
2.08466482 -0.61259663 1.51329887
-0.60085195 -1.65503764 1.63517904
1.30145431 0.69073373 2.11667418
-2.34949160 -1.14551222 -0.16162054
1.08272672 1.96673310 0.68938446
0.36210468 -0.70640093 -2.41362929
-0.07370714 1.33367753 -2.06113219
-1.10548902 1.56043172 -1.52150500
-2.69466162 0.21235648 0.41083086
2.24961734 0.34360611 1.41450751
1.83711636 -1.37805998 1.06460369
-0.97092885 -1.40379810 -1.78168905
-2.15233660 -1.33681357 -0.42247644
1.33518338 0.42071784 -2.19053483
-0.43473515 -1.06847560 -2.21937656
2.12112498 1.26757360 -0.73116672
-0.43054268 -2.20970154 -0.05324918
-2.70459723 -0.13136904 0.39784178
2.67283201 -0.49905685 -0.07072522
0.20130706 0.35907471 -2.52776575
-2.55931020 0.71372694 -0.42407829
0.08582969 -2.06336451 -0.99179453
0.26615161 0.61185813 2.45783854
0.00532835 2.19929743 -0.47331202
-0.11367013 -1.98646641 1.17873609
1.37525690 -1.58782732 1.27120221
1.36890841 1.35274982 1.59362662
0.88521200 -2.11647224 -0.09549231
0.33718368 1.93601000 -1.24978018
-0.24416336 1.80255473 1.50451481
0.72590244 -0.86157465 2.27092099
-1.16497159 -0.72588700 -2.17079258
-1.49138558 1.86892903 0.21862248
1.99917698 1.29177320 0.94533366
-1.68441176 -1.63654530 0.76178396
1.08490050 -0.52941036 2.27991843
-1.72713983 -0.24313372 -1.97461843
-1.64087129 -1.08165145 1.64216959
1.73700726 -0.90491891 1.69482255
1.83039665 1.66459620 -0.08899163
-1.76919186 0.15253597 -1.95426822
1.28592372 1.96373880 -0.25776279
1.60079920 1.49789190 -1.18173087
-0.21080901 1.61374187 -1.76909339
-0.25836650 0.88336253 2.34738660
-1.99095690 -0.75012821 -1.54348004
0.82897592 0.58830869 -2.35295916
2.24412513 -1.28360701 0.10729277
0.44240439 -1.95523429 -1.18039238
1.43262339 0.09146469 2.18722486
2.25111938 -0.79027778 1.15293348
-1.70417619 -0.77116644 -1.80739546
-0.24559613 2.18426800 0.50744420
-1.16700447 1.02060747 2.00709963
-1.84127140 1.61113334 0.45557675
1.83147240 1.26267147 -1.24663353
0.06790898 2.12588024 -0.79934728
-0.98034334 -0.90558499 2.16180778
2.68808246 0.00912336 -0.51021880
1.03365731 -0.24073103 2.36221504
1.12899983 -1.41294909 1.68728530
1.04176986 2.06972408 0.02885534
-0.74549252 -0.00087434 2.47129488
-1.27905357 0.10806189 2.26869702
2.50348425 0.15184361 1.03550673
-2.66047120 -0.49167183 0.26721048
2.70878887 -0.25703737 -0.27180079
-1.57986641 -0.16816594 2.09021044
-2.02953219 0.40353033 -1.66361439
-0.90711552 -0.40800565 -2.37811613
-1.93551612 1.42628729 -0.79524827
0.53571528 -1.37904143 1.95885122
1.31479239 -1.40877497 -1.57078588
-1.23907542 1.78484833 -1.02630496
2.63076854 0.39338353 -0.56795561
-0.98950344 -0.60478252 2.29217601
2.07698011 -1.43454564 -0.32484150
2.12570024 -0.18657805 1.60772407
1.25398171 0.77838951 -2.10210228
-2.09366417 1.11143529 1.06042051
-1.21411884 -1.99083710 -0.28864068
-0.43360168 -2.06661963 0.89749694
2.17864037 -1.23143065 0.65930104
-1.37412393 0.76522160 -2.04169989
2.43021131 -0.63424003 -0.94188851
0.86505204 1.59532309 -1.60890079
1.58323264 1.23488927 -1.54651082
-0.66468561 -1.76894832 -1.44571912
-0.22628866 -1.71961284 -1.62901032
-1.04120219 -0.31916767 2.34809232
-2.43039131 -0.95730203 -0.45953166
2.06180882 0.81176013 1.41470921
0.14151739 -1.65682721 -1.72086120
-2.27324820 0.72995353 1.16776800
-0.72488588 1.58928847 -1.67506206
0.30460042 1.66214824 -1.69538045
2.25130391 0.19702320 -1.44914758
0.83693641 0.22005089 -2.43229818
-1.45500362 -1.33150089 -1.55085874
2.56885862 -0.57951134 0.60745424
0.69241536 -0.80968952 -2.30463243
-2.11960530 -1.39349258 0.31718546
-2.03534675 -1.36349463 0.71763563
-0.47164682 1.28991592 -2.05268359
0.68331683 1.62728894 1.64202404
-2.16001368 0.59391165 -1.42799354
1.80269074 0.35182357 1.89280188
-1.86114383 -1.64366245 -0.03919412
0.21503726 -0.27003577 -2.54104948
-1.44819641 1.84996045 -0.49930155
-0.67847466 -1.42561781 1.87600100
-0.72671211 0.36952063 2.43959236
-2.20679069 -1.17136478 -0.71938115
-2.56074333 -0.67105991 -0.50367141
-0.82824230 -0.68945277 -2.31653571
-1.73025167 1.67173302 -0.53882557
-1.03248632 2.04426384 0.39873505
-0.37688419 -2.18168020 0.45127383
-1.05316079 1.39729440 1.74696624
0.31806141 1.36884952 -2.00954175
-1.21861827 1.56863225 1.43318975
-2.14644217 -0.90322423 1.21704769
2.04404950 1.39199817 0.61614257
-1.90836525 -0.11723837 1.83965242
0.21094276 -2.20895171 0.35940760
2.40904498 1.06873190 -0.06391577
1.62739420 -0.44366193 -2.00339437
-0.33454376 -0.05540669 2.54810762
-2.37959933 0.60139340 -1.07419348
1.36559737 1.01993585 1.89408588
-0.05892396 0.86346251 -2.36827803
0.48323980 0.12433767 2.52369118
-2.56066895 0.26238447 0.86985260
-0.96082217 -2.09577584 -0.05428088
-1.42289972 -1.60640728 1.19234180
-0.24834111 -1.52266908 1.86791432
-1.66818917 0.64253509 -1.90132511
-1.96971631 -0.41277781 -1.72291839
-1.70818663 -1.37659073 1.24183762
-2.41077948 -0.55187470 -1.04789555
1.76909733 0.42511195 -1.90109956
2.48041606 -0.95401925 0.05872772
1.36311185 -0.22025540 2.21405792
-2.72380733 -0.23491886 -0.13814852
-0.32900479 -2.08048368 -0.89376974
2.42893410 -0.34154508 1.12607348
2.20432115 1.30918419 -0.27993691
-0.82887846 0.15358125 -2.44225049
-1.65218103 -1.76878059 -0.28271231
-0.00106880 -1.29233813 2.09654665
0.43309045 -1.29240227 -2.05651999
2.55088997 -0.37992257 -0.83697897
1.53770781 -0.66063607 1.98654771
0.14219941 2.18651032 0.53114551
-2.08613300 -0.69456309 1.46465445
-0.23519085 1.33162224 2.05341458
0.64910066 -0.37617570 -2.45792890
-0.94553214 -2.05429959 -0.50257838
1.07438076 0.41513237 2.31428242
-0.93560964 0.93049753 -2.16532612
0.93031830 -2.06252074 -0.48272163
-0.48598909 1.93098247 -1.21605265
-1.03933156 0.54822367 2.29167819
-0.95465761 -1.54895878 1.62362146
1.87840056 -1.46142662 -0.83047640
-2.59969521 0.61914724 0.40585878
0.11441023 1.22902751 2.14349055
2.73373318 0.10036601 -0.16942613
0.58564246 2.16614079 -0.34021011
2.32009292 0.77289695 1.04344046
-1.48845410 0.87800223 1.90741229
0.73860359 1.15794337 2.08617043
1.39819109 -1.12298703 -1.79499745
-1.21654570 1.26234698 -1.78934252
-0.30394918 -0.40493059 2.50942755
0.29055569 -1.03198469 -2.26265955
-1.81422949 0.30336717 1.89442992
2.34898686 -1.09844899 0.41220790
0.99899060 -0.29343840 -2.36765718
1.46497297 -1.89109445 0.08512275
-2.67179608 -0.02636833 -0.57832450
1.38337493 1.82263315 -0.73557270
-2.34320283 0.07360394 1.33180010
1.17907214 -0.52561438 -2.23890114
1.89488709 -1.61497235 -0.10970654
-2.25465155 -1.08713543 0.76241148
-0.80033582 2.02810383 0.78403026
2.33613110 -0.15293144 -1.33442152
-0.55775571 2.10753584 -0.68769413
-0.56391966 -2.15161109 -0.47172204
0.67791814 1.82228458 1.34839678
1.65720177 1.11002684 1.60155749
-2.60277271 -0.69259989 -0.14984071
-2.53689456 -0.22751169 -0.93970150
1.90256357 -0.54077506 -1.74237633
-2.20258927 -0.30730835 1.48972511
-2.30288839 0.93603921 -0.89068878
-0.32191139 -1.33132803 -2.04241252
2.31940007 -1.14320636 -0.39992678
2.00058508 0.12505279 -1.75082123
-1.19488776 -1.01097369 -2.00033808
0.42846870 -0.46927717 2.47905183
-1.08589888 -2.00862050 0.49648324
-1.34856546 -1.05693197 1.87891006
-2.50084853 0.91795248 -0.03489088
-2.18857312 1.30766547 -0.37635779
-0.84127504 0.98317248 2.16867280
-1.94681394 -1.45004964 -0.70801789
1.20500553 1.58497608 1.41894543
-1.29305625 -1.81199181 0.89739096
-1.73826814 -1.70877850 0.31742203
1.75613558 0.94547713 -1.64775336
-1.76293814 0.89786899 1.67594278
-2.29185295 1.11144161 -0.60373265
1.29474413 -0.83177710 -2.05313039
-0.63759661 -0.27678123 2.47786593
1.38568950 -1.07000053 1.84530485
-1.35075831 -1.76236308 -0.95092267
-0.46806324 2.19720817 0.20919816
-0.39579999 0.04577503 -2.54062271
2.69096494 0.43211752 -0.00097102
-0.59051067 -1.53562784 -1.78393602
-2.27597117 1.18460417 0.45300221
2.21873593 0.49765083 -1.39754117
-0.49391744 0.53806001 -2.44904113
-1.39238119 -1.92699027 0.06663641
0.37855330 -1.74525476 1.56774449
-0.00580042 2.00745916 1.13565278
-2.36867142 -0.82473785 -0.88234824
-2.41026711 -0.71176171 0.91381687
0.46719205 2.05455971 0.91906893
-1.52370071 1.52632654 1.22117841
2.22122741 -0.74153709 -1.24281955
3 249 48 83
3 64 0 62
3 220 34 37
3 64 62 204
3 204 191 64
3 51 191 204
3 213 27 253
3 21 48 249
3 104 24 232
3 40 205 155
3 7 151 128
3 128 151 1
3 115 111 220
3 220 111 244
3 244 34 220
3 113 26 215
3 117 184 66
3 66 51 118
3 184 51 66
3 117 196 30
3 30 184 117
3 30 196 1
3 64 191 84
3 84 0 64
3 84 27 0
3 46 191 79
3 79 191 51
3 79 51 184
3 168 87 100
3 100 23 168
3 168 23 73
3 168 73 122
3 122 87 168
3 25 152 194
3 32 87 192
3 100 87 32
3 32 129 100
3 145 62 0
3 0 27 145
3 220 37 198
3 99 70 207
3 78 246 234
3 246 163 234
3 118 51 108
3 51 204 108
3 126 196 117
3 117 66 126
3 126 66 29
3 148 145 192
3 107 174 41
3 122 164 41
3 81 174 210
3 210 174 107
3 210 97 81
3 38 204 62
3 38 148 97
3 38 246 78
3 38 97 246
3 73 33 105
3 207 70 105
3 112 86 90
3 146 177 90
3 231 213 127
3 27 213 231
3 134 45 67
3 67 229 134
3 185 86 134
3 134 229 185
3 249 83 94
3 112 90 98
3 150 45 134
3 175 23 100
3 11 183 50
3 47 24 104
3 47 21 249
3 104 21 47
3 186 232 24
3 186 133 9
3 24 133 186
3 31 40 155
3 215 26 88
3 136 113 215
3 251 113 136
3 7 128 91
3 212 167 11
3 225 232 233
3 104 232 225
3 225 140 104
3 44 183 11
3 11 167 44
3 44 167 111
3 121 34 110
3 34 244 110
3 111 167 110
3 110 244 111
3 218 177 146
3 121 110 240
3 233 124 130
3 56 16 192
3 192 145 56
3 56 231 16
3 56 145 27
3 27 231 56
3 129 32 22
3 22 214 152
3 152 25 22
3 22 25 129
3 107 41 221
3 221 41 164
3 164 70 221
3 70 99 221
3 20 69 120
3 120 42 20
3 120 69 36
3 20 42 153
3 153 126 29
3 101 69 20
3 36 69 101
3 101 163 36
3 101 234 163
3 62 145 169
3 145 148 169
3 169 38 62
3 148 38 169
3 192 87 243
3 243 148 192
3 97 148 243
3 89 174 81
3 89 41 174
3 222 163 246
3 255 210 107
3 107 221 255
3 65 38 78
3 204 38 65
3 65 108 204
3 122 73 200
3 73 105 200
3 200 164 122
3 200 70 164
3 200 105 70
3 80 98 226
3 226 98 90
3 9 133 226
3 226 133 80
3 178 141 229
3 229 67 178
3 49 127 194
3 49 231 127
3 194 152 49
3 152 214 49
3 49 214 16
3 16 231 49
3 254 77 102
3 102 77 245
3 86 185 199
3 146 90 199
3 199 90 86
3 85 150 134
3 85 86 112
3 134 86 85
3 23 175 61
3 73 23 61
3 61 33 73
3 48 33 61
3 11 50 147
3 147 50 21
3 147 140 11
3 147 21 104
3 104 140 147
3 202 183 207
3 202 50 183
3 202 33 48
3 48 21 202
3 21 50 202
3 207 105 202
3 202 105 33
3 158 133 24
3 158 47 249
3 24 47 158
3 249 94 158
3 26 124 208
3 208 88 26
3 232 186 157
3 9 161 157
3 157 186 9
3 57 157 161
3 233 232 57
3 232 157 57
3 3 31 188
3 188 31 155
3 166 88 40
3 3 203 166
3 215 88 166
3 166 31 3
3 40 31 166
3 166 136 215
3 203 136 166
3 216 136 203
3 216 203 7
3 106 170 63
3 92 170 242
3 180 212 156
3 140 225 156
3 2 110 167
3 2 212 180
3 167 212 2
3 180 240 2
3 2 240 110
3 230 240 171
3 121 240 230
3 93 30 1
3 129 25 72
3 58 82 224
3 114 32 192
3 114 22 32
3 192 16 114
3 16 214 114
3 214 22 114
3 237 206 149
3 123 206 237
3 123 237 19
3 19 18 115
3 95 18 19
3 8 120 36
3 149 206 8
3 8 222 149
3 36 163 8
3 163 222 8
3 42 120 131
3 242 170 247
3 247 42 242
3 247 153 42
3 142 101 20
3 108 101 142
3 20 153 142
3 142 153 29
3 118 108 142
3 142 66 118
3 29 66 142
3 234 101 109
3 109 101 108
3 108 65 109
3 78 234 109
3 109 65 78
3 81 97 190
3 97 243 190
3 190 89 81
3 41 89 190
3 122 41 190
3 190 87 122
3 190 243 87
3 119 222 246
3 210 222 119
3 246 97 119
3 97 210 119
3 149 222 217
3 217 222 210
3 210 255 217
3 217 237 149
3 10 18 95
3 183 18 10
3 60 177 144
3 144 161 60
3 60 90 177
3 60 226 90
3 60 161 9
3 9 226 60
3 189 178 67
3 189 45 194
3 189 67 45
3 194 127 189
3 127 178 189
3 176 84 191
3 176 191 46
3 253 27 176
3 27 84 176
3 46 241 176
3 241 75 176
3 209 139 254
3 209 241 139
3 209 75 241
3 141 14 143
3 143 209 254
3 14 209 143
3 253 176 250
3 250 176 75
3 250 213 253
3 75 209 250
3 250 209 14
3 141 178 52
3 52 14 141
3 52 250 14
3 52 178 127
3 127 213 52
3 213 250 52
3 254 139 55
3 55 77 254
3 139 132 55
3 138 77 55
3 55 132 138
3 146 199 12
3 12 218 146
3 205 218 12
3 193 199 185
3 80 133 172
3 172 17 80
3 133 158 172
3 94 17 172
3 172 158 94
3 197 98 80
3 80 17 197
3 224 150 197
3 197 17 224
3 239 61 175
3 175 58 239
3 239 83 48
3 48 61 239
3 239 94 83
3 125 161 144
3 144 208 125
3 125 57 161
3 125 208 124
3 125 124 233
3 233 57 125
3 252 208 144
3 88 208 252
3 144 177 252
3 177 218 252
3 40 88 252
3 205 40 252
3 252 218 205
3 251 136 162
3 136 216 162
3 106 63 159
3 159 63 91
3 1 196 159
3 196 106 159
3 159 128 1
3 159 91 128
3 170 92 13
3 59 63 13
3 13 63 170
3 13 74 59
3 180 156 103
3 103 240 180
3 171 240 103
3 140 156 39
3 39 156 212
3 11 140 39
3 39 212 11
3 135 113 251
3 121 230 135
3 171 130 35
3 35 230 171
3 35 124 26
3 35 130 124
3 35 135 230
3 26 113 35
3 113 135 35
3 139 241 211
3 211 132 139
3 211 241 46
3 46 79 211
3 211 79 184
3 184 30 96
3 96 211 184
3 132 211 96
3 138 132 96
3 30 93 96
3 96 93 138
3 181 72 25
3 82 72 181
3 100 129 6
3 129 72 6
3 6 175 100
3 53 17 94
3 94 239 53
3 53 239 58
3 224 17 53
3 53 58 224
3 183 44 71
3 71 18 183
3 115 18 71
3 111 115 71
3 71 44 111
3 173 198 123
3 123 19 173
3 173 19 115
3 173 115 220
3 220 198 173
3 242 42 5
3 42 131 5
3 5 92 242
3 123 198 28
3 28 5 131
3 28 198 37
3 37 5 28
3 179 131 120
3 179 28 131
3 179 206 123
3 123 28 179
3 182 170 106
3 182 247 170
3 182 106 196
3 196 126 182
3 126 153 182
3 153 247 182
3 237 217 195
3 95 19 195
3 195 19 237
3 195 217 255
3 195 10 95
3 255 10 195
3 187 255 221
3 187 10 255
3 187 221 99
3 187 99 207
3 207 183 187
3 183 10 187
3 229 141 76
3 141 193 76
3 76 185 229
3 76 193 185
3 4 12 199
3 155 205 4
3 205 12 4
3 150 85 238
3 238 197 150
3 238 85 112
3 112 98 238
3 98 197 238
3 59 74 160
3 7 91 160
3 160 216 7
3 160 162 216
3 160 63 59
3 91 63 160
3 137 5 37
3 92 5 137
3 248 156 225
3 248 103 156
3 248 225 233
3 171 103 248
3 233 130 248
3 248 130 171
3 227 188 245
3 3 188 227
3 1 151 219
3 219 93 1
3 219 236 93
3 82 181 154
3 224 82 154
3 45 150 154
3 154 150 224
3 175 6 165
3 165 6 72
3 165 58 175
3 165 72 82
3 82 58 165
3 120 8 201
3 201 179 120
3 201 8 206
3 206 179 201
3 155 4 116
3 116 188 155
3 116 102 245
3 245 188 116
3 199 193 235
3 235 4 199
3 254 102 235
3 102 116 235
3 235 116 4
3 235 193 141
3 235 143 254
3 141 143 235
3 68 160 74
3 162 160 68
3 251 162 68
3 68 74 121
3 121 135 68
3 68 135 251
3 223 34 121
3 121 74 223
3 223 37 34
3 223 137 37
3 228 227 245
3 236 227 228
3 245 77 228
3 228 77 138
3 138 93 228
3 93 236 228
3 43 227 236
3 236 219 43
3 3 227 43
3 43 219 151
3 43 203 3
3 43 151 7
3 7 203 43
3 45 154 15
3 15 154 181
3 194 45 15
3 15 25 194
3 15 181 25
3 137 223 54
3 54 13 92
3 92 137 54
3 74 13 54
3 54 223 74