ply
format ascii 1.0
comment https://github.com/mikedh/trimesh
element vertex 256
property float x
property float y
property float z
element face 508
property list uchar int vertex_indices
end_header
2.92038631 -2.28591895 -0.44473752
1.54249871 2.95314741 1.11833632
-0.97407484 2.89223385 -1.62880778
-2.33209944 2.55175614 -1.09335232
-2.48516941 0.12961875 -2.66380358
0.48590708 3.28982377 -0.85981101
1.44816208 2.83549547 -1.45976722
1.12166548 0.24149889 3.26824999
-0.37016499 0.01618266 3.40050960
2.84799480 0.33495510 2.36200166
-1.07634997 2.89598370 -1.57683933
-1.43467462 2.06419802 2.43167281
0.52176255 0.31637582 3.37088442
-2.55387950 2.60290289 -0.36477557
-0.82822281 3.13597441 -1.17836666
-2.09348631 0.43731585 -2.87108111
-1.82907438 1.28144491 -2.75087619
-1.22139335 1.83136094 -2.68924046
1.59269202 1.81429172 2.55406284
2.21212816 2.39025831 1.54575801
0.00953262 0.12132417 3.41281104
-0.54436487 2.87990737 1.79145002
3.30891919 1.90411508 0.04955637
-0.42573538 -2.26263118 -2.53893948
-0.52823067 1.04006779 -3.22231746
2.08643579 0.61023515 2.84372473
2.70127749 0.39232329 -2.47706890
-1.70228624 0.81041348 2.97930813
-0.99300188 0.45401996 -3.27588725
0.29585996 2.46056128 -2.36346316
-2.17350721 0.46087256 -2.82436395
2.98559022 1.38990736 1.78367615
3.67449355 0.65539652 -1.13761818
-3.82894540 0.20213932 -0.91022408
-0.42078015 0.83248127 3.29283118
1.20409727 2.30430961 2.30660987
0.21386304 0.76360518 -3.32395411
-2.89402246 2.27971339 -0.57864404
-3.14389467 0.66617823 -1.98649073
2.36567903 0.11346701 -2.74405241
-0.12991664 1.41988277 3.10581565
1.57546091 2.17201328 -2.26975894
2.12276626 2.10228634 -1.98976326
3.63315964 0.25543317 -1.36992598
2.41095233 1.19633329 -2.44090176
2.35762310 0.90645230 -2.59885955
2.23735404 1.27470052 -2.52277470
0.05004082 0.04369788 3.41430855
1.92493093 1.70541012 2.45859051
-0.21617280 2.99905658 -1.64249384
3.14948440 1.26082456 -1.66714334
-0.45908818 -3.39920592 0.18244645
-2.04672384 1.28769219 -2.63296413
-0.74280071 0.24331734 3.34694028
-3.33787966 1.86220455 -0.12737726
0.91907018 0.45970586 -3.29071999
-1.03161514 0.41052261 -3.27296925
0.48621345 3.36078739 0.51899391
-2.64263034 2.39260697 0.91694468
0.81926489 2.77321982 1.87909305
1.06562579 2.83887506 -1.67991304
-0.27215776 3.36247635 -0.61846477
3.60047913 0.79185045 1.22416377
2.29499912 0.36133566 -2.76624036
-3.38376379 0.35861900 1.76213300
-1.51325667 0.31356716 3.14361835
0.57284641 3.38512850 -0.20193262
0.40642408 0.53006876 3.35585546
-1.99457896 2.95896626 0.18562025
0.26790604 0.69318378 -3.33641481
-0.72880799 0.46958315 3.32429028
3.05997896 1.80624533 1.23787153
1.68720722 1.80759180 -2.51509857
-2.99103308 1.48117876 1.70389879
-3.57895827 0.08723227 -1.49112582
0.31986442 2.99133873 -1.64340508
-0.28719565 3.04398179 1.54993153
-3.40903974 1.53921938 -0.86602855
2.40821457 1.09633267 2.49019980
1.96751654 0.05926969 2.96761823
0.34548017 2.55053830 2.26231670
1.67225087 3.04649472 -0.62298161
-2.25716519 2.48306942 -1.33667123
2.67372155 2.13174415 1.37410831
-2.70002055 0.41437098 2.47493243
0.27089259 2.71359754 2.07287502
-0.42585823 -3.10870290 -1.39149737
-0.92312199 0.95452291 3.18252301
-3.77671957 0.33524445 1.02178955
0.79644191 1.46258652 3.01214433
2.26853943 2.59248447 1.09604800
2.50124383 0.78178293 2.53958297
-0.72495806 0.07626249 -3.35695863
-1.62789142 3.02694559 -0.78220183
3.18884468 0.17075254 -2.03578949
1.29015291 0.13957781 3.22742677
-1.05633628 2.51523829 -2.13588572
1.86351705 0.37099248 2.99534798
0.44146863 0.62918139 3.33538365
-3.19575238 2.01663876 0.31785035
0.88411397 0.17425293 -3.32493091
2.05543089 2.93411160 -0.07478382
-0.86158842 0.26184300 3.32362318
-3.39547467 0.92752647 1.52239990
-0.76514119 0.47452480 3.31792116
-0.50351143 1.55193460 3.01411343
-0.28940862 1.51009095 -3.05555010
0.69239509 3.17186785 -1.14930618
0.12472316 0.02096127 -3.41311407
3.59580994 0.95116770 1.11699629
-2.00720572 2.95483232 -0.14665885
0.58962834 1.91389883 -2.78689337
0.11486817 3.18832397 1.25060725
2.68427944 0.77272022 -2.40096021
-1.84127378 -0.02168754 3.02725816
1.81237948 2.99176979 -0.60218173
3.12277961 2.11581135 -0.17832620
1.24387228 2.29905272 -2.29677391
3.31849146 1.74022698 -0.74276352
0.28682619 0.16593510 3.40212917
-2.77761388 0.98001242 -2.24243498
-2.04546499 1.51155031 2.51320958
-2.70413661 0.13770354 -2.50271988
3.02594995 2.04841352 -0.86579520
-1.40833962 0.70806384 -3.11486268
-2.24840164 -1.11787140 -2.58843637
1.77568650 0.12939696 3.05336332
-3.02070785 1.07872331 1.94553733
0.32804802 0.33676884 -3.38658333
0.65844178 2.03790355 2.68653798
-2.54125762 2.29499483 -1.29493284
-1.34470594 -2.55835915 -1.95696127
1.09090149 0.86470771 3.16906929
-2.16557717 -2.74255943 0.85934180
-0.41920397 0.40945446 -3.37152719
3.24647546 0.32980362 -1.94708753
-0.37782830 2.58127451 -2.22245383
0.88203716 1.92555678 -2.72272182
-0.78264034 1.01834571 -3.19069743
2.49840188 2.57729197 -0.68300092
2.00229502 2.09791851 -2.08301282
3.83508945 0.14490201 0.90277916
-0.23371701 3.24170113 -1.09314656
2.88030219 2.07379866 -1.13338232
0.88505429 2.24713492 -2.46384454
0.45843771 1.25200176 3.15486479
1.84357691 0.20000200 -3.01983404
3.67476988 1.17511594 -0.59410602
-2.46992755 0.57047099 -2.61768603
-2.91131854 2.33181548 -0.13747014
-3.86392283 0.73828262 0.35820088
-3.96714711 0.21754049 -0.15706292
-2.62559247 2.35135365 -1.04651952
0.41517252 0.83483148 3.29270053
-2.77035093 2.12624836 1.23470151
3.24961805 0.47152227 1.91380453
-2.50155330 1.49914718 -2.19562173
0.24776575 1.35393131 3.12992597
3.31771803 1.70000136 0.82856697
-3.09809375 1.88003552 -1.04227734
-0.81939501 2.85356021 -1.75481319
1.60317171 0.87898374 -3.00117493
1.28268456 2.73892593 -1.73371744
-0.19187959 -1.13175547 -3.21938181
2.04039216 2.94216895 -0.02812005
0.94881189 1.22267115 3.08509517
-2.48871255 -2.67340660 0.03036410
2.31689024 0.54494488 -2.72381949
-3.38176560 0.96956515 1.52031398
-0.11280237 2.15387058 2.65408826
2.28239346 0.64368969 2.72386384
-1.78062677 2.27994585 2.04052496
-0.54896903 1.01127768 3.22856021
-0.11858603 0.88486332 -3.29764056
2.38625002 1.17151856 2.47082615
-0.19173028 0.09959103 3.40994620
-2.90174055 1.20545101 -2.00522947
2.62749386 0.25172201 -2.55225873
-1.46839833 0.69452310 -3.09756660
-3.47229624 -0.07368810 -1.66798663
-0.50458354 0.82844794 3.28503942
-0.53670228 0.59546900 -3.33115911
0.29686600 1.94458210 2.80061960
-0.11498842 0.02145254 -3.41331553
-1.22689283 -2.64399910 -1.89976358
1.23112226 1.65033817 -2.80036974
2.17150331 1.58143461 -2.38978457
-0.66049725 0.47168487 3.33450747
-2.86348772 2.38037300 0.00069128
-2.69209170 1.73430216 -1.82707918
-3.93277240 0.48834392 -0.18094075
-3.58500361 -0.35072744 1.44102228
-1.21022296 2.99170184 1.30095375
1.69887209 0.00683083 3.08855605
2.21698332 2.67468476 0.96868724
3.48514652 -1.52972531 0.62689102
2.86175346 1.56235838 -1.79012096
0.40116489 0.47590643 -3.36413169
-0.66037655 0.32619876 -3.35227585
0.12717763 0.10670464 3.41203308
-1.30466390 3.20651650 0.44549194
-2.15364242 2.87554121 0.17956261
-0.25589985 0.12845775 3.40529919
-0.63323921 2.61448669 -2.14090800
3.16734600 1.65099633 1.25554872
3.64341164 0.33165893 -1.33339679
-3.69076610 0.65203416 -1.10049129
-1.39954138 2.58706951 1.88990796
-0.93848473 0.92551911 -3.18778396
2.39679408 0.25265530 2.71505809
-1.62392509 -3.08369350 0.52325821
3.96762943 0.24257211 -0.10876948
0.10132328 -3.12266970 1.40600443
3.93372202 0.18781498 0.48309484
-0.77624428 0.43358594 -3.32138062
2.58385539 2.50934005 0.70305580
0.06111136 0.13211791 -3.41229939
-3.65226865 1.00764048 -0.91377354
-2.81164885 0.92757308 2.23353934
1.07324517 0.33496127 -3.27178788
1.98907542 1.11784053 2.74024439
2.53119302 1.61777234 2.08470535
2.70260501 2.02214193 -1.48982954
-2.39780021 1.39177835 2.34586000
-2.34131217 -2.41660762 1.35107243
-1.62268221 0.79013658 -3.01735377
-0.22157556 0.14355215 -3.40651369
1.27593434 3.24431968 0.11483360
0.60974205 2.62513232 -2.13295221
-1.06683850 1.99807119 2.61979818
3.93538523 0.16547014 0.48384786
2.82392311 2.09188247 -1.20100117
3.43995404 1.36871564 -1.04282916
-1.29504430 3.07693887 -1.01164770
2.69453883 0.71485561 2.41059136
1.89724779 1.17732120 2.76282072
-0.87470996 2.62311292 -2.06464791
-1.42782986 2.45477700 2.04366922
-0.84111190 0.81303287 -3.23775005
1.53155613 1.54301775 2.75126672
-2.63711023 1.48294318 -2.08734536
-2.06806159 2.51255274 1.49743676
0.20281787 0.36332017 3.39113522
3.57539535 1.32634127 -0.70795316
3.12784195 1.53686655 -1.45257342
-2.52658319 2.48741555 -0.90485311
-0.67282969 1.40657973 3.06012726
-3.80029273 0.12184738 -1.00527847
-2.28172159 2.74035621 0.61028707
1.77243292 0.77225018 -2.95880604
-0.26884404 2.64204454 -2.16233325
0.14002135 -2.35559821 -2.47738957
-0.67340750 1.96373320 -2.73856187
-0.79642552 2.26848006 -2.46646929
-1.45410275 0.66227257 3.10932469
0.08417342 0.24896206 -3.40498567
3 166 179 125
3 47 212 193
3 0 212 51
3 195 212 0
3 211 195 0
3 51 212 210
3 131 166 125
3 247 166 151
3 179 166 247
3 151 166 191
3 191 166 224
3 141 155 195
3 79 212 195
3 79 193 212
3 86 0 51
3 251 0 86
3 51 210 86
3 86 210 166
3 224 166 133
3 166 210 133
3 133 212 224
3 133 210 212
3 125 163 23
3 23 131 125
3 23 163 251
3 251 86 23
3 114 191 224
3 84 191 114
3 154 73 171
3 99 73 154
3 64 191 84
3 42 6 222
3 222 6 139
3 195 155 9
3 47 193 95
3 251 163 146
3 77 217 54
3 131 23 184
3 184 23 86
3 166 131 184
3 184 86 166
3 179 247 74
3 33 247 151
3 151 190 33
3 84 114 27
3 218 64 84
3 155 141 62
3 141 109 62
3 213 109 141
3 211 147 213
3 213 147 109
3 237 207 171
3 164 1 194
3 150 190 151
3 99 54 150
3 150 217 190
3 150 54 217
3 139 143 231
3 231 222 139
3 143 118 244
3 244 231 143
3 222 231 244
3 107 81 6
3 179 74 38
3 209 79 195
3 195 9 209
3 7 98 12
3 165 239 89
3 18 239 48
3 39 0 251
3 251 146 39
3 249 146 219
3 108 163 183
3 125 4 15
3 252 106 17
3 52 156 17
3 156 96 17
3 42 186 140
3 60 107 6
3 82 96 189
3 189 96 156
3 149 54 99
3 37 54 149
3 254 27 65
3 65 27 114
3 87 27 254
3 246 229 121
3 121 27 246
3 27 87 246
3 171 73 223
3 223 121 171
3 223 27 121
3 84 27 223
3 223 218 84
3 168 73 99
3 99 150 168
3 8 212 47
3 224 212 8
3 8 114 224
3 230 141 195
3 230 213 141
3 230 195 211
3 211 213 230
3 11 237 171
3 229 237 11
3 171 121 11
3 121 229 11
3 18 48 35
3 21 192 207
3 207 237 21
3 21 237 229
3 59 85 80
3 80 35 59
3 99 154 58
3 19 48 221
3 19 35 48
3 19 1 59
3 59 35 19
3 155 62 31
3 31 62 109
3 139 6 115
3 6 81 115
3 57 1 227
3 1 164 227
3 123 143 139
3 123 118 143
3 222 244 196
3 42 222 196
3 196 186 42
3 211 205 32
3 32 147 211
3 10 96 82
3 111 106 252
3 36 106 111
3 111 185 36
3 137 185 111
3 29 111 252
3 206 38 74
3 190 217 206
3 206 33 190
3 206 74 247
3 247 33 206
3 120 156 52
3 7 12 119
3 47 95 119
3 119 95 7
3 12 242 119
3 7 95 97
3 79 209 97
3 67 12 98
3 98 242 67
3 67 242 12
3 113 45 44
3 44 196 113
3 186 196 44
3 249 219 161
3 0 39 94
3 167 45 113
3 249 45 167
3 100 146 163
3 100 219 146
3 100 163 108
3 226 255 216
3 216 183 226
3 108 183 216
3 134 255 226
3 162 60 6
3 162 41 117
3 140 41 162
3 162 6 42
3 42 140 162
3 37 152 159
3 77 54 159
3 159 54 37
3 176 217 77
3 77 159 176
3 176 159 189
3 176 120 38
3 176 206 217
3 38 206 176
3 89 182 157
3 64 218 127
3 73 168 127
3 127 223 73
3 218 223 127
3 88 168 150
3 191 64 88
3 151 191 88
3 88 150 151
3 187 70 53
3 187 53 202
3 202 53 8
3 18 35 129
3 129 182 89
3 35 80 129
3 89 239 129
3 129 239 18
3 112 1 57
3 59 1 112
3 112 85 59
3 85 21 169
3 169 80 85
3 169 21 229
3 182 129 169
3 169 129 80
3 188 149 99
3 99 58 188
3 207 192 241
3 171 207 241
3 241 154 171
3 241 58 154
3 245 152 37
3 81 107 5
3 200 112 57
3 192 112 200
3 83 19 221
3 221 31 83
3 83 31 71
3 204 31 109
3 71 31 204
3 139 115 101
3 101 115 81
3 81 227 101
3 101 227 164
3 139 101 116
3 116 123 139
3 116 22 118
3 118 123 116
3 147 32 232
3 232 244 118
3 49 203 160
3 250 203 49
3 107 60 75
3 75 250 49
3 144 117 137
3 137 111 144
3 111 29 144
3 179 38 122
3 125 179 122
3 122 4 125
3 4 122 148
3 148 120 52
3 38 120 148
3 148 122 38
3 221 48 174
3 174 31 221
3 47 119 199
3 199 119 242
3 7 97 132
3 132 98 7
3 126 95 193
3 126 97 95
3 193 79 126
3 79 97 126
3 72 140 186
3 72 41 140
3 72 185 137
3 137 117 72
3 117 41 72
3 46 44 45
3 46 45 249
3 249 161 46
3 186 44 46
3 46 72 186
3 46 161 185
3 185 72 46
3 55 161 219
3 219 100 55
3 36 185 55
3 185 161 55
3 0 94 43
3 43 205 211
3 211 0 43
3 177 94 39
3 135 32 205
3 205 43 135
3 135 43 94
3 63 39 146
3 63 146 249
3 249 167 63
3 63 177 39
3 167 177 63
3 16 17 208
3 208 225 16
3 52 17 16
3 16 225 52
3 124 225 208
3 238 24 181
3 238 124 208
3 181 24 173
3 36 134 173
3 173 134 181
3 173 106 36
3 173 24 106
3 130 159 152
3 189 159 130
3 82 189 130
3 156 120 240
3 120 176 240
3 240 189 156
3 240 176 189
3 104 180 87
3 104 87 254
3 104 70 187
3 187 180 104
3 104 53 70
3 34 180 187
3 187 202 34
3 34 202 242
3 172 246 87
3 87 180 172
3 180 34 172
3 182 169 105
3 229 246 105
3 105 169 229
3 145 165 89
3 89 157 145
3 64 127 103
3 103 127 168
3 103 88 64
3 168 88 103
3 175 8 47
3 175 202 8
3 192 21 76
3 76 112 192
3 76 21 85
3 85 112 76
3 201 188 248
3 248 188 58
3 58 241 248
3 248 241 192
3 192 200 248
3 149 188 13
3 201 110 13
3 13 188 201
3 37 149 13
3 13 245 37
3 152 245 3
3 82 130 3
3 3 130 152
3 66 227 81
3 81 5 66
3 57 227 66
3 68 110 201
3 68 200 110
3 201 248 68
3 68 248 200
3 61 66 5
3 61 200 57
3 57 66 61
3 19 83 90
3 194 1 90
3 1 19 90
3 71 204 158
3 158 204 109
3 109 147 158
3 147 22 158
3 147 232 243
3 243 232 118
3 243 22 147
3 118 22 243
3 96 10 236
3 236 203 96
3 236 160 203
3 203 250 136
3 136 29 252
3 136 250 29
3 228 75 60
3 228 144 29
3 29 250 228
3 250 75 228
3 117 144 228
3 228 162 117
3 60 162 228
3 30 15 4
3 4 148 30
3 30 148 52
3 52 225 30
3 30 225 15
3 31 174 78
3 239 165 235
3 165 132 235
3 235 48 239
3 36 55 69
3 69 134 36
3 255 134 69
3 197 55 100
3 197 69 55
3 26 167 113
3 26 177 167
3 94 177 26
3 113 135 26
3 26 135 94
3 50 196 244
3 32 135 50
3 113 196 50
3 50 135 113
3 244 232 50
3 50 232 32
3 15 225 178
3 225 124 178
3 178 56 15
3 124 56 178
3 138 238 208
3 24 238 138
3 106 24 138
3 208 17 138
3 138 17 106
3 53 104 102
3 102 65 114
3 254 65 102
3 102 104 254
3 114 8 102
3 8 53 102
3 153 242 98
3 153 34 242
3 157 34 153
3 153 145 157
3 98 132 153
3 153 132 165
3 165 145 153
3 40 34 157
3 40 172 34
3 40 157 182
3 182 105 40
3 246 172 40
3 40 105 246
3 20 199 242
3 242 202 20
3 202 175 20
3 47 199 20
3 20 175 47
3 49 160 14
3 215 90 83
3 215 83 71
3 71 158 215
3 194 90 215
3 215 158 22
3 22 116 215
3 215 164 194
3 215 101 164
3 215 116 101
3 2 236 10
3 160 236 2
3 10 14 2
3 2 14 160
3 253 136 252
3 203 136 253
3 96 203 253
3 252 17 253
3 253 17 96
3 31 78 234
3 234 78 91
3 155 31 234
3 234 9 155
3 234 209 9
3 234 91 209
3 25 132 97
3 25 235 132
3 25 97 209
3 128 100 108
3 128 197 100
3 108 216 128
3 128 216 255
3 255 69 128
3 69 197 128
3 124 238 28
3 28 56 124
3 226 183 92
3 92 183 163
3 92 163 125
3 125 15 92
3 15 56 92
3 49 14 142
3 142 14 61
3 142 61 5
3 142 75 49
3 142 5 107
3 107 75 142
3 110 200 93
3 200 61 93
3 93 13 110
3 245 13 93
3 93 3 245
3 82 3 93
3 235 25 220
3 220 78 174
3 220 174 48
3 48 235 220
3 198 134 226
3 226 92 198
3 181 134 198
3 198 92 56
3 233 14 10
3 233 10 82
3 82 93 233
3 61 14 233
3 233 93 61
3 170 220 25
3 209 91 170
3 170 25 209
3 91 78 170
3 78 220 170
3 181 198 214
3 214 238 181
3 214 28 238
3 56 28 214
3 214 198 56