ply
format ascii 1.0
comment https://github.com/mikedh/trimesh
element vertex 256
property float x
property float y
property float z
element face 508
property list uchar int vertex_indices
end_header
3.31562662 -1.36079550 -0.64152747
1.75125790 1.75799322 1.61318398
-1.10590446 1.72173166 -2.34953165
-2.64772201 1.51904714 -1.57714486
-2.82150817 0.07716136 -3.84249806
0.55166894 1.95841491 -1.24026501
1.64415383 1.68795562 -2.10569310
1.27346981 0.14376304 4.71440315
-0.42026252 0.00963346 4.90518570
3.23343778 0.19939701 3.40715337
-1.22202146 1.72396398 -2.27456808
-1.62884104 1.22880626 3.50765276
0.59237707 0.18833686 4.86245203
-2.89951730 1.54949450 -0.52618349
-0.94031310 1.86682916 -1.69977689
-2.37681532 0.26033184 -4.14149284
-2.07661843 0.76283747 -3.96809912
-1.38669479 1.09019959 -3.87919044
1.80824423 1.08003843 3.68419862
2.51151395 1.42290819 2.22973371
0.01082275 0.07222364 4.92293072
-0.61803836 1.71439373 2.58414078
3.75674272 1.13350976 0.07148434
-0.48335370 -1.34693253 -3.66238356
-0.59972054 0.61914694 -4.64814663
2.36881065 0.36326981 4.10203171
3.06686401 0.23354800 -3.57313609
-1.93267083 0.48243490 4.29760885
-1.12739313 0.27027571 -4.72542000
0.33590114 1.46475935 -3.40926123
-2.46766591 0.27435502 -4.07410431
3.38965511 0.82740456 2.57292700
4.17179346 0.39015409 -1.64099777
-4.34714842 0.12033248 -1.31298506
-0.47772783 0.49557173 4.74986124
1.36705780 1.37174344 3.32725143
0.24280691 0.45457017 -4.79475594
-3.28569460 1.35710156 -0.83468562
-3.56938410 0.39657241 -2.86548424
2.68584609 0.06754632 -3.95825577
-0.14749934 0.84524882 4.48009443
1.78868115 1.29298818 -3.27409458
2.41005802 1.25148010 -2.87020469
4.12486553 0.15205804 -1.97609830
2.73724651 0.71217096 -3.52096534
2.67669988 0.53960633 -3.74881744
2.54015374 0.75882256 -3.63906598
0.05681325 0.02601312 4.92509079
2.18544793 1.01522171 3.54648137
-0.24542926 1.78532267 -2.36927366
3.57573032 0.75056225 -2.40483022
-0.52122039 -2.02352953 0.26317635
-2.32372403 0.76655644 -3.79801273
-0.84333014 0.14484553 4.82791281
-3.78962278 1.10856068 -0.18373986
1.04345560 0.27366048 -4.74681616
-1.17123222 0.24438196 -4.72121096
0.55201674 2.00065923 0.74864119
-3.00027966 1.42430639 1.32267952
0.93014282 1.65088332 2.71056461
1.20984578 1.68996739 -2.42325020
-0.30899116 2.00166464 -0.89212650
4.08776188 0.47138444 1.76583850
2.60560036 0.21510124 -3.99026179
-3.84171677 0.21348402 2.54185152
-1.71805823 0.18666489 4.53462410
0.65037453 2.01514935 -0.29128489
0.46142882 0.31554714 4.84077311
-2.26452184 1.76145709 0.26775452
0.30416399 0.41264868 -4.81273031
-0.82744366 0.27954039 4.79524088
3.47411156 1.07524836 1.78561175
1.91555107 1.07604992 -3.62799335
-3.39583468 0.88173801 2.45784926
-4.06332827 0.05192891 -2.15092731
0.36315435 1.78072822 -2.37058806
-0.32606426 1.81206644 2.23575377
-3.87041354 0.91628921 -1.24923360
2.73413849 0.65264112 3.59207726
2.23379707 0.03528294 4.28074646
0.39223689 1.51832211 3.26335931
1.89857054 1.81356239 -0.89864200
-2.56264615 1.47815824 -1.92812896
3.03557849 1.26901615 1.98213148
-3.06543684 0.24667288 3.57005429
0.30755472 1.61539054 2.99009204
-0.48349318 -1.85059452 -2.00721478
-1.04805577 0.56822252 4.59074354
-4.28785467 0.19956927 1.47391665
0.90423107 0.87067008 4.34497452
2.57555985 1.54329252 1.58103335
2.83975792 0.46539128 3.66331196
-0.82307267 0.04539866 -4.84236431
-1.84820747 1.80192494 -1.12831485
3.62041759 0.10164809 -2.93659687
1.46476007 0.08308993 4.65551662
-1.19929910 1.49730814 -3.08098435
2.11572242 0.22084989 4.32074594
0.50121629 0.37454841 4.81124258
-3.62826014 1.20049441 0.45849451
1.00376844 0.10373186 -4.79616451
2.33360934 1.74666131 -0.10787458
-0.97819436 0.15587376 4.79427814
-3.85501242 0.55215162 2.19603968
-0.86869413 0.28248212 4.78605318
-0.57165587 0.92385858 4.34781504
-0.32857671 0.89894927 -4.40758705
0.78610271 1.88819635 -1.65785754
0.14160298 0.01247813 -4.92336798
4.08246088 0.56622517 1.61125100
-2.27885771 1.75899625 -0.21155328
0.66942769 1.13933396 -4.02005339
0.13041423 1.89799261 1.80398297
3.04756546 0.45999631 -3.46335053
-2.09046865 -0.01291048 4.36677599
2.05766392 1.78098488 -0.86863840
3.54541135 1.25953138 -0.25723296
1.41221595 1.36861408 -3.31306314
3.76761055 1.03594804 -1.07142568
0.32564479 0.09878030 4.90752220
-3.15353131 0.58339626 -3.23468018
-2.32229495 0.89981800 3.62526846
-3.07010984 0.08197419 -3.61013722
3.43547702 1.21940982 -1.24889696
-1.59894192 0.42150670 -4.49314451
-2.55269670 -0.66546297 -3.73378181
2.01600504 0.07702933 4.40443230
-3.42952538 0.64215839 2.80640960
0.37244549 0.20047672 -4.88509750
0.74755418 1.21315324 3.87529230
-2.88518715 1.36619842 -1.86792183
-1.52669621 -1.52297783 -2.82288837
1.23854232 0.51475596 4.57133675
-2.45866275 -1.63263130 1.23958814
-0.47593832 0.24374609 -4.86337900
3.68584800 0.19633037 -2.80864573
-0.42896295 1.53661919 -3.20585752
1.00141060 1.14627385 -3.92748690
-0.88856155 0.60621589 -4.60253477
2.83653164 1.53424847 -0.98521894
2.27328229 1.24887991 -3.00471592
4.35412407 0.08625940 1.30224597
-0.26534787 1.92976785 -1.57684815
3.27011752 1.23452151 -1.63488770
1.00483608 1.33770764 -3.55406022
0.52048188 0.74531007 4.55084705
2.09308362 0.11906014 -4.35606670
4.17210722 0.69954038 -0.85698932
-2.80420351 0.33959839 -3.77597427
-3.30533147 1.38811755 -0.19829871
-4.38685989 0.43949577 0.51669961
-4.50405455 0.12950072 -0.22656099
-2.98093581 1.39974844 -1.50958931
0.47136128 0.49697080 4.74967289
-3.14528561 1.26574457 1.78103912
3.68941617 0.28069475 2.76063538
-2.84010959 0.89243448 -3.16715264
0.28129795 0.80598819 4.51487303
3.76673245 1.01200187 1.19519591
-3.51738477 1.11917531 -1.50346994
-0.93029058 1.69870937 -2.53129268
1.82014227 0.52325445 -4.32915163
1.45628095 1.63046825 -2.50086236
-0.21784824 -0.67372817 -4.64391184
2.31653523 1.75145781 -0.04056276
1.07722247 0.72784978 4.45020485
-2.82553077 -1.59146488 0.04379978
2.63045430 0.32440284 -3.92907023
-3.83944798 0.57717705 2.19303083
-0.12806886 1.28218794 3.82848406
2.59128881 0.38318512 3.92913413
-2.02161384 1.35723984 2.94342780
-0.62326556 0.60200834 4.65715122
-0.13463525 0.52675450 -4.75679874
2.70920134 0.69739884 3.56413102
-0.21767874 0.05928602 4.91879797
-3.29445720 0.71759874 -2.89251447
2.98309445 0.14984879 -3.68159628
-1.66712892 0.41344598 -4.46819496
-3.94223118 -0.04386614 -2.40604663
-0.57287300 0.49317074 4.73862171
-0.60933864 0.35447958 -4.80514860
0.33704334 1.15759957 4.03985310
-0.13055076 0.01277059 -4.92365837
-1.39293849 -1.57395887 -2.74038148
1.39774036 0.98243767 -4.03949308
2.46539092 0.94141978 -3.44722962
-0.74988782 0.28079152 4.80997896
-3.25102735 1.41702354 0.00099717
-3.05643487 1.03242099 -2.63553524
-4.46502733 0.29070857 -0.26100442
-4.07019186 -0.20878620 2.07865381
-1.37401259 1.78094447 1.87660694
1.92879462 0.00406636 4.45519781
2.51702619 1.59222579 1.39731741
3.95682049 -0.91063744 0.90428126
3.24905825 0.93006378 -2.58222365
0.45545790 0.28330460 -4.85271120
-0.74975079 0.19418441 -4.83560944
0.14438964 0.06352071 4.92180824
-1.48123491 1.90882242 0.64261568
-2.44511294 1.71179461 0.25901648
-0.29053292 0.07647023 4.91209507
-0.71894073 1.55639029 -3.08822870
3.59600949 0.98282945 1.81111073
4.13650513 0.19743483 -1.92340565
-4.19026804 0.38815254 -1.58744287
-1.58895302 1.54006898 2.72616482
-1.06549776 0.55095673 -4.59833241
2.72117233 0.15040438 3.91643190
-1.84370446 -1.83570659 0.75479239
4.50460196 0.14440191 -0.15689839
0.11503621 -1.85890901 2.02814102
4.46610546 0.11180528 0.69685733
-0.88129985 0.25811145 -4.79104328
2.93355012 1.49379694 1.01414776
0.06938206 0.07864910 -4.92219257
-4.14656067 0.59984308 -1.31810510
-3.19217277 0.55217940 3.22184825
1.21849644 0.19940069 -4.71950674
2.25827360 0.66544461 3.95276284
2.87376046 0.96305138 3.00715733
3.06837106 1.20377052 -2.14905763
-2.72231460 0.82851833 3.38386917
-2.65818167 -1.43859386 1.94890237
-1.84229338 0.47036418 -4.35248947
-0.25156322 0.08545584 -4.91384649
1.44861710 1.93132663 0.16564581
0.69226348 1.56272757 -3.07675290
-1.21122265 1.18944132 3.77902102
4.46799374 0.09850351 0.69794351
3.20610809 1.24528670 -1.73242676
3.90551162 0.81478924 -1.50426590
-1.47031355 1.83168554 -1.45928717
3.05921316 0.42554981 3.47724342
2.15401816 0.70085317 3.98532891
-0.99309176 1.56152546 -2.97822499
-1.62107003 1.46131587 2.94796348
-0.95494664 0.48399422 -4.67040777
1.73883438 0.91855037 3.96866250
-2.99401236 0.88278830 -3.01096559
-2.34794950 1.49570954 2.16003084
0.23026690 0.21628261 4.89166355
4.05928326 0.78956407 -1.02121222
3.55115891 0.91488856 -2.09531617
-2.86852670 1.48074543 -1.30523753
-0.76388937 0.83732957 4.41418934
-4.31461811 0.07253511 -1.45009971
-2.59052610 1.63131976 0.88033026
2.01231098 0.45971650 -4.26803493
-0.30522892 1.57279527 -3.11913443
0.15897161 -1.40227520 -3.57359862
-0.76454538 1.16900015 -3.95033598
-0.90421242 1.35041428 -3.55784655
-1.65089869 0.39424738 4.48515558
0.09556530 0.14820582 -4.91164255
3 166 179 125
3 47 212 193
3 0 212 51
3 195 212 0
3 211 195 0
3 51 212 210
3 131 166 125
3 247 166 151
3 179 166 247
3 151 166 191
3 191 166 224
3 141 155 195
3 79 212 195
3 79 193 212
3 86 0 51
3 251 0 86
3 51 210 86
3 86 210 166
3 224 166 133
3 166 210 133
3 133 212 224
3 133 210 212
3 125 163 23
3 23 131 125
3 23 163 251
3 251 86 23
3 114 191 224
3 84 191 114
3 154 73 171
3 99 73 154
3 64 191 84
3 42 6 222
3 222 6 139
3 195 155 9
3 47 193 95
3 251 163 146
3 77 217 54
3 131 23 184
3 184 23 86
3 166 131 184
3 184 86 166
3 179 247 74
3 33 247 151
3 151 190 33
3 84 114 27
3 218 64 84
3 155 141 62
3 141 109 62
3 213 109 141
3 211 147 213
3 213 147 109
3 237 207 171
3 164 1 194
3 150 190 151
3 99 54 150
3 150 217 190
3 150 54 217
3 139 143 231
3 231 222 139
3 143 118 244
3 244 231 143
3 222 231 244
3 107 81 6
3 179 74 38
3 209 79 195
3 195 9 209
3 7 98 12
3 165 239 89
3 18 239 48
3 39 0 251
3 251 146 39
3 249 146 219
3 108 163 183
3 125 4 15
3 252 106 17
3 52 156 17
3 156 96 17
3 42 186 140
3 60 107 6
3 82 96 189
3 189 96 156
3 149 54 99
3 37 54 149
3 254 27 65
3 65 27 114
3 87 27 254
3 246 229 121
3 121 27 246
3 27 87 246
3 171 73 223
3 223 121 171
3 223 27 121
3 84 27 223
3 223 218 84
3 168 73 99
3 99 150 168
3 8 212 47
3 224 212 8
3 8 114 224
3 230 141 195
3 230 213 141
3 230 195 211
3 211 213 230
3 11 237 171
3 229 237 11
3 171 121 11
3 121 229 11
3 18 48 35
3 21 192 207
3 207 237 21
3 21 237 229
3 59 85 80
3 80 35 59
3 99 154 58
3 19 48 221
3 19 35 48
3 19 1 59
3 59 35 19
3 155 62 31
3 31 62 109
3 139 6 115
3 6 81 115
3 57 1 227
3 1 164 227
3 123 143 139
3 123 118 143
3 222 244 196
3 42 222 196
3 196 186 42
3 211 205 32
3 32 147 211
3 10 96 82
3 111 106 252
3 36 106 111
3 111 185 36
3 137 185 111
3 29 111 252
3 206 38 74
3 190 217 206
3 206 33 190
3 206 74 247
3 247 33 206
3 120 156 52
3 7 12 119
3 47 95 119
3 119 95 7
3 12 242 119
3 7 95 97
3 79 209 97
3 67 12 98
3 98 242 67
3 67 242 12
3 113 45 44
3 44 196 113
3 186 196 44
3 249 219 161
3 0 39 94
3 167 45 113
3 249 45 167
3 100 146 163
3 100 219 146
3 100 163 108
3 226 255 216
3 216 183 226
3 108 183 216
3 134 255 226
3 162 60 6
3 162 41 117
3 140 41 162
3 162 6 42
3 42 140 162
3 37 152 159
3 77 54 159
3 159 54 37
3 176 217 77
3 77 159 176
3 176 159 189
3 176 120 38
3 176 206 217
3 38 206 176
3 89 182 157
3 64 218 127
3 73 168 127
3 127 223 73
3 218 223 127
3 88 168 150
3 191 64 88
3 151 191 88
3 88 150 151
3 187 70 53
3 187 53 202
3 202 53 8
3 18 35 129
3 129 182 89
3 35 80 129
3 89 239 129
3 129 239 18
3 112 1 57
3 59 1 112
3 112 85 59
3 85 21 169
3 169 80 85
3 169 21 229
3 182 129 169
3 169 129 80
3 188 149 99
3 99 58 188
3 207 192 241
3 171 207 241
3 241 154 171
3 241 58 154
3 245 152 37
3 81 107 5
3 200 112 57
3 192 112 200
3 83 19 221
3 221 31 83
3 83 31 71
3 204 31 109
3 71 31 204
3 139 115 101
3 101 115 81
3 81 227 101
3 101 227 164
3 139 101 116
3 116 123 139
3 116 22 118
3 118 123 116
3 147 32 232
3 232 244 118
3 49 203 160
3 250 203 49
3 107 60 75
3 75 250 49
3 144 117 137
3 137 111 144
3 111 29 144
3 179 38 122
3 125 179 122
3 122 4 125
3 4 122 148
3 148 120 52
3 38 120 148
3 148 122 38
3 221 48 174
3 174 31 221
3 47 119 199
3 199 119 242
3 7 97 132
3 132 98 7
3 126 95 193
3 126 97 95
3 193 79 126
3 79 97 126
3 72 140 186
3 72 41 140
3 72 185 137
3 137 117 72
3 117 41 72
3 46 44 45
3 46 45 249
3 249 161 46
3 186 44 46
3 46 72 186
3 46 161 185
3 185 72 46
3 55 161 219
3 219 100 55
3 36 185 55
3 185 161 55
3 0 94 43
3 43 205 211
3 211 0 43
3 177 94 39
3 135 32 205
3 205 43 135
3 135 43 94
3 63 39 146
3 63 146 249
3 249 167 63
3 63 177 39
3 167 177 63
3 16 17 208
3 208 225 16
3 52 17 16
3 16 225 52
3 124 225 208
3 238 24 181
3 238 124 208
3 181 24 173
3 36 134 173
3 173 134 181
3 173 106 36
3 173 24 106
3 130 159 152
3 189 159 130
3 82 189 130
3 156 120 240
3 120 176 240
3 240 189 156
3 240 176 189
3 104 180 87
3 104 87 254
3 104 70 187
3 187 180 104
3 104 53 70
3 34 180 187
3 187 202 34
3 34 202 242
3 172 246 87
3 87 180 172
3 180 34 172
3 182 169 105
3 229 246 105
3 105 169 229
3 145 165 89
3 89 157 145
3 64 127 103
3 103 127 168
3 103 88 64
3 168 88 103
3 175 8 47
3 175 202 8
3 192 21 76
3 76 112 192
3 76 21 85
3 85 112 76
3 201 188 248
3 248 188 58
3 58 241 248
3 248 241 192
3 192 200 248
3 149 188 13
3 201 110 13
3 13 188 201
3 37 149 13
3 13 245 37
3 152 245 3
3 82 130 3
3 3 130 152
3 66 227 81
3 81 5 66
3 57 227 66
3 68 110 201
3 68 200 110
3 201 248 68
3 68 248 200
3 61 66 5
3 61 200 57
3 57 66 61
3 19 83 90
3 194 1 90
3 1 19 90
3 71 204 158
3 158 204 109
3 109 147 158
3 147 22 158
3 147 232 243
3 243 232 118
3 243 22 147
3 118 22 243
3 96 10 236
3 236 203 96
3 236 160 203
3 203 250 136
3 136 29 252
3 136 250 29
3 228 75 60
3 228 144 29
3 29 250 228
3 250 75 228
3 117 144 228
3 228 162 117
3 60 162 228
3 30 15 4
3 4 148 30
3 30 148 52
3 52 225 30
3 30 225 15
3 31 174 78
3 239 165 235
3 165 132 235
3 235 48 239
3 36 55 69
3 69 134 36
3 255 134 69
3 197 55 100
3 197 69 55
3 26 167 113
3 26 177 167
3 94 177 26
3 113 135 26
3 26 135 94
3 50 196 244
3 32 135 50
3 113 196 50
3 50 135 113
3 244 232 50
3 50 232 32
3 15 225 178
3 225 124 178
3 178 56 15
3 124 56 178
3 138 238 208
3 24 238 138
3 106 24 138
3 208 17 138
3 138 17 106
3 53 104 102
3 102 65 114
3 254 65 102
3 102 104 254
3 114 8 102
3 8 53 102
3 153 242 98
3 153 34 242
3 157 34 153
3 153 145 157
3 98 132 153
3 153 132 165
3 165 145 153
3 40 34 157
3 40 172 34
3 40 157 182
3 182 105 40
3 246 172 40
3 40 105 246
3 20 199 242
3 242 202 20
3 202 175 20
3 47 199 20
3 20 175 47
3 49 160 14
3 215 90 83
3 215 83 71
3 71 158 215
3 194 90 215
3 215 158 22
3 22 116 215
3 215 164 194
3 215 101 164
3 215 116 101
3 2 236 10
3 160 236 2
3 10 14 2
3 2 14 160
3 253 136 252
3 203 136 253
3 96 203 253
3 252 17 253
3 253 17 96
3 31 78 234
3 234 78 91
3 155 31 234
3 234 9 155
3 234 209 9
3 234 91 209
3 25 132 97
3 25 235 132
3 25 97 209
3 128 100 108
3 128 197 100
3 108 216 128
3 128 216 255
3 255 69 128
3 69 197 128
3 124 238 28
3 28 56 124
3 226 183 92
3 92 183 163
3 92 163 125
3 125 15 92
3 15 56 92
3 49 14 142
3 142 14 61
3 142 61 5
3 142 75 49
3 142 5 107
3 107 75 142
3 110 200 93
3 200 61 93
3 93 13 110
3 245 13 93
3 93 3 245
3 82 3 93
3 235 25 220
3 220 78 174
3 220 174 48
3 48 235 220
3 198 134 226
3 226 92 198
3 181 134 198
3 198 92 56
3 233 14 10
3 233 10 82
3 82 93 233
3 61 14 233
3 233 93 61
3 170 220 25
3 209 91 170
3 170 25 209
3 91 78 170
3 78 220 170
3 181 198 214
3 214 238 181
3 214 28 238
3 56 28 214
3 214 198 56