ply
format ascii 1.0
comment https://github.com/mikedh/trimesh
element vertex 256
property float x
property float y
property float z
element face 508
property list uchar int vertex_indices
end_header
3.07362247 -2.32143497 -0.24662268
1.62343538 2.99903011 0.62015700
-1.02518570 2.93717027 -0.90323150
-2.45446754 2.59140253 -0.60630250
-2.61556911 0.13163263 -1.47717321
0.51140320 3.34093738 -0.47679561
1.52414870 2.87955022 -0.80949253
1.18052053 0.24525103 1.81236005
-0.38958800 0.01643409 1.88570273
2.99743247 0.34015927 1.30981350
-1.13282728 2.94097829 -0.87441319
-1.50995362 2.09626913 1.34844851
0.54914004 0.32129130 1.86927450
-2.68788457 2.64334393 -0.20228095
-0.87168062 3.18469763 -0.65344596
-2.20333409 0.44411039 -1.59211600
-1.92504811 1.30135465 -1.52545810
-1.28548133 1.85981464 -1.49127889
1.67626238 1.84248018 1.41631806
2.32820106 2.42739534 0.85717744
0.01003281 0.12320916 1.89252436
-0.57292837 2.92465210 0.99342233
3.48254204 1.93369913 0.02748076
-0.44807422 -2.29778552 -1.40793169
-0.55594754 1.05622733 -1.78688896
2.19591355 0.61971629 1.57694578
2.84301662 0.39841878 -1.37362218
-1.79160714 0.82300478 1.65213168
-1.04510581 0.46107402 -1.81659532
0.31138405 2.49879098 -1.31062376
-2.28755355 0.46803308 -1.56620967
3.14224768 1.41150212 0.98911148
3.86729860 0.66557932 -0.63084948
-4.02985477 0.20527993 -0.50475144
-0.44285896 0.84541541 1.82599115
1.26727760 2.34011126 1.27909672
0.22508469 0.77546924 -1.84325004
-3.04587531 2.31513309 -0.32087857
-3.30885839 0.67652857 -1.10157931
2.48980904 0.11522993 -1.52167404
-0.13673350 1.44194341 1.72228456
1.65812719 2.20575953 -1.25866163
2.23415041 2.13494945 -1.10339403
3.82379556 0.25940183 -0.75967234
2.53745770 1.21492064 -1.35356617
2.48133039 0.92053574 -1.44115949
2.35475063 1.29450536 -1.39896762
0.05266652 0.04437681 1.89335465
2.02593422 1.73190689 1.36337543
-0.22751564 3.04565263 -0.91082090
3.31474161 1.28041387 -0.92448992
-0.48317707 -3.45201898 0.10117301
-2.15411782 1.30769897 -1.46007168
-0.78177631 0.24709773 1.85599661
-3.51302218 1.89113748 -0.07063519
0.96729487 0.46684825 -1.82482052
-1.08574522 0.41690084 -1.81497717
0.51172560 3.41300368 0.28780046
-2.78129220 2.42978072 0.50847822
0.86225265 2.81630707 1.04202354
1.12154043 2.88298225 -0.93157113
-0.28643820 3.41471863 -0.34296057
3.78940034 0.80415338 0.67884207
2.41542029 0.36694971 -1.53397799
-3.56131387 0.36419085 0.97716504
-1.59265900 0.31843901 1.74324751
0.60290432 3.43772292 -0.11197878
0.42774960 0.53830433 1.86094046
-2.09923673 3.00493932 0.10293298
0.28196338 0.70395368 -1.85015988
-0.76704937 0.47687903 1.84343648
3.22053957 1.83430874 0.68644351
1.77573693 1.83567619 -1.39471102
-3.14797616 1.50419176 0.94487208
-3.76675034 0.08858758 -0.82688195
0.33664808 3.03781486 -0.91132623
-0.30226514 3.09127569 0.85949183
-3.58791590 1.56313407 -0.48024341
2.53457642 1.11336625 1.38090384
2.07075453 0.06019056 1.64564919
0.36360791 2.59016562 1.25453460
1.75999582 3.09382796 -0.34546533
-2.37560129 2.52164865 -0.74123144
2.81401467 2.16486478 0.76199162
-2.84169364 0.42080903 1.37243748
0.28510663 2.75575852 1.14948237
-0.44820350 -3.15700245 -0.77163446
-0.97155929 0.96935326 1.76482153
-3.97488832 0.34045312 0.56661844
0.83823216 1.48531055 1.67034054
2.38757229 2.63276362 0.60779732
2.63248706 0.79392940 1.40828860
-0.76299745 0.07744737 -1.86155212
-1.71330869 3.07397485 -0.43375856
3.35616708 0.17340550 -1.12891722
1.35784876 0.14174640 1.78972220
-1.11176348 2.55431724 -1.18442416
1.96129799 0.37675655 1.66102624
0.46463302 0.63895690 1.84958816
-3.36343718 2.04797101 0.17625925
0.93050444 0.17696027 -1.84379172
2.16328168 2.97969866 -0.04147027
-0.90679693 0.26591122 1.84306645
-3.57363915 0.94193733 0.84422451
-0.80528903 0.48189741 1.83990455
-0.52993125 1.57604682 1.67143238
-0.30459422 1.53355312 -1.69441056
0.72872591 3.22114897 -0.63733089
0.13126752 0.02128694 -1.89269245
3.78448606 0.96594590 0.61941391
-2.11252618 3.00074124 -0.08132751
0.62056684 1.94363487 -1.54543090
0.12089544 3.23786068 0.69350594
2.82512665 0.78472590 -1.33141732
-1.93788755 -0.02202449 1.67872167
1.90747714 3.03825259 -0.33393103
3.28663540 2.14868450 -0.09888818
1.30913973 2.33477283 -1.27364230
3.49261642 1.76726460 -0.41188863
0.30187631 0.16851321 1.88660085
-2.92335844 0.99523872 -1.24350953
-2.15279293 1.53503513 1.39366353
-2.84602571 0.13984302 -1.38784659
3.18472505 2.08023953 -0.48011401
-1.48223674 0.71906495 -1.72730136
-2.36637783 -1.13523960 -1.43537939
1.86885881 0.13140740 1.69319785
-3.17920780 1.09548330 1.07886922
0.34526110 0.34200117 -1.87798011
0.69299102 2.06956625 1.48978031
-2.67460036 2.33065200 -0.71808600
-1.41526425 -2.59810805 -1.08520412
1.14814234 0.87814260 1.75736082
-2.27920747 -2.78517032 0.47653538
-0.44120008 0.41581610 -1.86963093
3.41682172 0.33492774 -1.07972884
-0.39765337 2.62137961 -1.23242927
0.92831868 1.95547390 -1.50984550
-0.82370633 1.03416765 -1.76935446
2.62949610 2.61733508 -0.37874815
2.10735774 2.13051367 -1.15510416
4.03632116 0.14715333 0.50062299
-0.24598041 3.29206729 -0.60618842
3.03143501 2.10601902 -0.62850058
0.93149412 2.28204823 -1.36628890
0.48249245 1.27145398 1.74948406
1.94031155 0.20310941 -1.67460465
3.86758924 1.19337356 -0.32945278
-2.59952760 0.57933432 -1.45159948
-3.06407881 2.36804461 -0.07623205
-4.06666756 0.74975324 0.19863506
-4.17530823 0.22092040 -0.08709694
-2.76336026 2.38788629 -0.58033210
0.43695709 0.84780216 1.82591879
-2.91571450 2.15928364 0.68468565
3.42012930 0.47884828 1.06127226
-2.63281274 1.52243936 -1.21754980
0.26076630 1.37496722 1.73565459
3.49180245 1.72641408 0.45946965
-3.26065445 1.90924537 -0.57797956
-0.86238962 2.89789557 -0.97310591
1.68729198 0.89264041 -1.66425753
1.34998846 2.78148031 -0.96140760
-0.20194772 -1.14933944 -1.78526103
2.14745378 2.98788118 -0.01559356
0.99859715 1.24166763 1.71079421
-2.61929798 -2.71494293 0.01683797
2.43846011 0.55341160 -1.51045418
-3.55921078 0.98462921 0.84306782
-0.11872125 2.18733501 1.47178578
2.40215325 0.65369064 1.51047873
-1.87405837 2.31536913 1.13154328
-0.57777405 1.02698982 1.79035068
-0.12480837 0.89861131 -1.82865822
2.51145935 1.18972027 1.37016046
-0.20179059 0.10113836 1.89093566
-3.05399823 1.22417998 -1.11197054
2.76536155 0.25563297 -1.41531765
-1.54544687 0.70531386 -1.71771014
-3.65449166 -0.07483298 -0.92495751
-0.53105962 0.84131944 1.82167041
-0.56486362 0.60472071 -1.84724545
0.31244290 1.97479486 1.55304253
-0.12102199 0.02178585 -1.89280403
-1.29126930 -2.68507862 -1.05348599
1.29572070 1.67597926 -1.55290401
2.28544450 1.60600519 -1.32521999
-0.69515425 0.47901338 1.84910214
-3.01373816 2.41735649 0.00038334
-2.83334899 1.76124787 -1.01318002
-4.13912964 0.49593127 -0.10033804
-3.77311277 -0.35617664 0.79909778
-1.27372479 3.03818369 0.72142482
1.78801394 0.00693696 1.71271348
2.33331108 2.71624088 0.53717130
3.66801620 -1.55349243 0.34763321
3.01191282 1.58663261 -0.99268538
0.42221448 0.48330054 -1.86552989
-0.69502729 0.33126685 -1.85895538
0.13385078 0.10836250 1.89209294
-1.37312114 3.25633574 0.24704103
-2.26664662 2.92021823 0.09957381
-0.26932719 0.13045359 1.88835871
-0.66646600 2.65510774 -1.18720913
3.33354044 1.67664766 0.69624609
3.83458567 0.33681190 -0.73941565
-3.88442469 0.66216475 -0.61026132
-1.47297704 2.62726450 1.04802072
-0.98772812 0.93989885 -1.76773882
2.52255678 0.25658077 1.50559568
-1.70913434 -3.13160443 0.29016516
4.17581558 0.24634093 -0.06031652
0.10663984 -3.17118645 0.77967918
4.14012909 0.19073303 0.26789317
-0.81697470 0.44032252 -1.84182286
2.71943331 2.54832721 0.38986927
0.06431794 0.13417062 -1.89224064
-3.84390736 1.02329600 -0.50671971
-2.95917940 0.94198471 1.23857653
1.12955964 0.34016553 -1.81432199
2.09344459 1.13520825 1.51956236
2.66400766 1.64290738 1.15604281
2.84441376 2.05355978 -0.82616311
-2.52361560 1.41340220 1.30086219
-2.46416354 -2.45415425 0.74921739
-1.70782626 0.80241287 -1.67322934
-0.23320188 0.14578250 -1.88903213
1.34288406 3.29472637 0.06367929
0.64173591 2.66591883 -1.18279743
-1.12281680 2.02911496 1.45277071
4.14187956 0.16804102 0.26831073
2.97209764 2.12438393 -0.66599756
3.62045240 1.38998127 -0.57828557
-1.36299682 3.12474489 -0.56099439
2.83592439 0.72596228 1.33675814
1.99679863 1.19561315 1.53208172
-0.92060703 2.66386795 -1.14492023
-1.50274980 2.49291658 1.13328683
-0.88524604 0.82566488 -1.79544687
1.61191857 1.56699145 1.52567458
-2.77548242 1.50598347 -1.15750682
-2.17657518 2.55158997 0.83038163
0.21345995 0.36896503 1.88050437
3.76300049 1.34694850 -0.39258504
3.29196358 1.56074464 -0.80550331
-2.65915585 2.52606225 -0.50177306
-0.70813388 1.42843354 1.69694865
-3.99969840 0.12374051 -0.55746245
-2.40144610 2.78293300 0.33842573
1.86543453 0.78424859 -1.64076245
-0.28295058 2.68309355 -1.19909024
0.14736843 -2.39219689 -1.37380004
-0.70874196 1.99424350 -1.51862931
-0.83821487 2.30372524 -1.36774445
-1.53040123 0.67256218 1.72423041
0.08859009 0.25283015 -1.88818491
3 166 179 125
3 47 212 193
3 0 212 51
3 195 212 0
3 211 195 0
3 51 212 210
3 131 166 125
3 247 166 151
3 179 166 247
3 151 166 191
3 191 166 224
3 141 155 195
3 79 212 195
3 79 193 212
3 86 0 51
3 251 0 86
3 51 210 86
3 86 210 166
3 224 166 133
3 166 210 133
3 133 212 224
3 133 210 212
3 125 163 23
3 23 131 125
3 23 163 251
3 251 86 23
3 114 191 224
3 84 191 114
3 154 73 171
3 99 73 154
3 64 191 84
3 42 6 222
3 222 6 139
3 195 155 9
3 47 193 95
3 251 163 146
3 77 217 54
3 131 23 184
3 184 23 86
3 166 131 184
3 184 86 166
3 179 247 74
3 33 247 151
3 151 190 33
3 84 114 27
3 218 64 84
3 155 141 62
3 141 109 62
3 213 109 141
3 211 147 213
3 213 147 109
3 237 207 171
3 164 1 194
3 150 190 151
3 99 54 150
3 150 217 190
3 150 54 217
3 139 143 231
3 231 222 139
3 143 118 244
3 244 231 143
3 222 231 244
3 107 81 6
3 179 74 38
3 209 79 195
3 195 9 209
3 7 98 12
3 165 239 89
3 18 239 48
3 39 0 251
3 251 146 39
3 249 146 219
3 108 163 183
3 125 4 15
3 252 106 17
3 52 156 17
3 156 96 17
3 42 186 140
3 60 107 6
3 82 96 189
3 189 96 156
3 149 54 99
3 37 54 149
3 254 27 65
3 65 27 114
3 87 27 254
3 246 229 121
3 121 27 246
3 27 87 246
3 171 73 223
3 223 121 171
3 223 27 121
3 84 27 223
3 223 218 84
3 168 73 99
3 99 150 168
3 8 212 47
3 224 212 8
3 8 114 224
3 230 141 195
3 230 213 141
3 230 195 211
3 211 213 230
3 11 237 171
3 229 237 11
3 171 121 11
3 121 229 11
3 18 48 35
3 21 192 207
3 207 237 21
3 21 237 229
3 59 85 80
3 80 35 59
3 99 154 58
3 19 48 221
3 19 35 48
3 19 1 59
3 59 35 19
3 155 62 31
3 31 62 109
3 139 6 115
3 6 81 115
3 57 1 227
3 1 164 227
3 123 143 139
3 123 118 143
3 222 244 196
3 42 222 196
3 196 186 42
3 211 205 32
3 32 147 211
3 10 96 82
3 111 106 252
3 36 106 111
3 111 185 36
3 137 185 111
3 29 111 252
3 206 38 74
3 190 217 206
3 206 33 190
3 206 74 247
3 247 33 206
3 120 156 52
3 7 12 119
3 47 95 119
3 119 95 7
3 12 242 119
3 7 95 97
3 79 209 97
3 67 12 98
3 98 242 67
3 67 242 12
3 113 45 44
3 44 196 113
3 186 196 44
3 249 219 161
3 0 39 94
3 167 45 113
3 249 45 167
3 100 146 163
3 100 219 146
3 100 163 108
3 226 255 216
3 216 183 226
3 108 183 216
3 134 255 226
3 162 60 6
3 162 41 117
3 140 41 162
3 162 6 42
3 42 140 162
3 37 152 159
3 77 54 159
3 159 54 37
3 176 217 77
3 77 159 176
3 176 159 189
3 176 120 38
3 176 206 217
3 38 206 176
3 89 182 157
3 64 218 127
3 73 168 127
3 127 223 73
3 218 223 127
3 88 168 150
3 191 64 88
3 151 191 88
3 88 150 151
3 187 70 53
3 187 53 202
3 202 53 8
3 18 35 129
3 129 182 89
3 35 80 129
3 89 239 129
3 129 239 18
3 112 1 57
3 59 1 112
3 112 85 59
3 85 21 169
3 169 80 85
3 169 21 229
3 182 129 169
3 169 129 80
3 188 149 99
3 99 58 188
3 207 192 241
3 171 207 241
3 241 154 171
3 241 58 154
3 245 152 37
3 81 107 5
3 200 112 57
3 192 112 200
3 83 19 221
3 221 31 83
3 83 31 71
3 204 31 109
3 71 31 204
3 139 115 101
3 101 115 81
3 81 227 101
3 101 227 164
3 139 101 116
3 116 123 139
3 116 22 118
3 118 123 116
3 147 32 232
3 232 244 118
3 49 203 160
3 250 203 49
3 107 60 75
3 75 250 49
3 144 117 137
3 137 111 144
3 111 29 144
3 179 38 122
3 125 179 122
3 122 4 125
3 4 122 148
3 148 120 52
3 38 120 148
3 148 122 38
3 221 48 174
3 174 31 221
3 47 119 199
3 199 119 242
3 7 97 132
3 132 98 7
3 126 95 193
3 126 97 95
3 193 79 126
3 79 97 126
3 72 140 186
3 72 41 140
3 72 185 137
3 137 117 72
3 117 41 72
3 46 44 45
3 46 45 249
3 249 161 46
3 186 44 46
3 46 72 186
3 46 161 185
3 185 72 46
3 55 161 219
3 219 100 55
3 36 185 55
3 185 161 55
3 0 94 43
3 43 205 211
3 211 0 43
3 177 94 39
3 135 32 205
3 205 43 135
3 135 43 94
3 63 39 146
3 63 146 249
3 249 167 63
3 63 177 39
3 167 177 63
3 16 17 208
3 208 225 16
3 52 17 16
3 16 225 52
3 124 225 208
3 238 24 181
3 238 124 208
3 181 24 173
3 36 134 173
3 173 134 181
3 173 106 36
3 173 24 106
3 130 159 152
3 189 159 130
3 82 189 130
3 156 120 240
3 120 176 240
3 240 189 156
3 240 176 189
3 104 180 87
3 104 87 254
3 104 70 187
3 187 180 104
3 104 53 70
3 34 180 187
3 187 202 34
3 34 202 242
3 172 246 87
3 87 180 172
3 180 34 172
3 182 169 105
3 229 246 105
3 105 169 229
3 145 165 89
3 89 157 145
3 64 127 103
3 103 127 168
3 103 88 64
3 168 88 103
3 175 8 47
3 175 202 8
3 192 21 76
3 76 112 192
3 76 21 85
3 85 112 76
3 201 188 248
3 248 188 58
3 58 241 248
3 248 241 192
3 192 200 248
3 149 188 13
3 201 110 13
3 13 188 201
3 37 149 13
3 13 245 37
3 152 245 3
3 82 130 3
3 3 130 152
3 66 227 81
3 81 5 66
3 57 227 66
3 68 110 201
3 68 200 110
3 201 248 68
3 68 248 200
3 61 66 5
3 61 200 57
3 57 66 61
3 19 83 90
3 194 1 90
3 1 19 90
3 71 204 158
3 158 204 109
3 109 147 158
3 147 22 158
3 147 232 243
3 243 232 118
3 243 22 147
3 118 22 243
3 96 10 236
3 236 203 96
3 236 160 203
3 203 250 136
3 136 29 252
3 136 250 29
3 228 75 60
3 228 144 29
3 29 250 228
3 250 75 228
3 117 144 228
3 228 162 117
3 60 162 228
3 30 15 4
3 4 148 30
3 30 148 52
3 52 225 30
3 30 225 15
3 31 174 78
3 239 165 235
3 165 132 235
3 235 48 239
3 36 55 69
3 69 134 36
3 255 134 69
3 197 55 100
3 197 69 55
3 26 167 113
3 26 177 167
3 94 177 26
3 113 135 26
3 26 135 94
3 50 196 244
3 32 135 50
3 113 196 50
3 50 135 113
3 244 232 50
3 50 232 32
3 15 225 178
3 225 124 178
3 178 56 15
3 124 56 178
3 138 238 208
3 24 238 138
3 106 24 138
3 208 17 138
3 138 17 106
3 53 104 102
3 102 65 114
3 254 65 102
3 102 104 254
3 114 8 102
3 8 53 102
3 153 242 98
3 153 34 242
3 157 34 153
3 153 145 157
3 98 132 153
3 153 132 165
3 165 145 153
3 40 34 157
3 40 172 34
3 40 157 182
3 182 105 40
3 246 172 40
3 40 105 246
3 20 199 242
3 242 202 20
3 202 175 20
3 47 199 20
3 20 175 47
3 49 160 14
3 215 90 83
3 215 83 71
3 71 158 215
3 194 90 215
3 215 158 22
3 22 116 215
3 215 164 194
3 215 101 164
3 215 116 101
3 2 236 10
3 160 236 2
3 10 14 2
3 2 14 160
3 253 136 252
3 203 136 253
3 96 203 253
3 252 17 253
3 253 17 96
3 31 78 234
3 234 78 91
3 155 31 234
3 234 9 155
3 234 209 9
3 234 91 209
3 25 132 97
3 25 235 132
3 25 97 209
3 128 100 108
3 128 197 100
3 108 216 128
3 128 216 255
3 255 69 128
3 69 197 128
3 124 238 28
3 28 56 124
3 226 183 92
3 92 183 163
3 92 163 125
3 125 15 92
3 15 56 92
3 49 14 142
3 142 14 61
3 142 61 5
3 142 75 49
3 142 5 107
3 107 75 142
3 110 200 93
3 200 61 93
3 93 13 110
3 245 13 93
3 93 3 245
3 82 3 93
3 235 25 220
3 220 78 174
3 220 174 48
3 48 235 220
3 198 134 226
3 226 92 198
3 181 134 198
3 198 92 56
3 233 14 10
3 233 10 82
3 82 93 233
3 61 14 233
3 233 93 61
3 170 220 25
3 209 91 170
3 170 25 209
3 91 78 170
3 78 220 170
3 181 198 214
3 214 238 181
3 214 28 238
3 56 28 214
3 214 198 56