ply
format ascii 1.0
comment https://github.com/mikedh/trimesh
element vertex 256
property float x
property float y
property float z
element face 508
property list uchar int vertex_indices
end_header
2.53707051 -2.65442061 -0.26592252
1.34003782 3.42920971 0.66868836
-0.84622252 3.35847664 -0.97391528
-2.02599955 2.96311212 -0.65374959
-2.15897799 0.15051395 -1.59277165
0.42212927 3.82015991 -0.51410794
1.25808334 3.29259157 -0.87284058
0.97444111 0.28042972 1.95418906
-0.32157895 0.01879139 2.03327131
2.47418094 0.38895154 1.41231489
-0.93507349 3.36283088 -0.94284171
-1.24636614 2.39695692 1.45397341
0.45327854 0.36737719 2.01555753
-2.21866965 3.02250409 -0.21811076
-0.71951431 3.64150929 -0.70458239
-1.81870544 0.50781339 -1.71670949
-1.58899903 1.48802030 -1.64483511
-1.06107926 2.12658548 -1.60798120
1.38364291 2.10676479 1.52715421
1.92177486 2.77557993 0.92425722
0.00828142 0.14088222 2.04062676
-0.47291419 3.34416270 1.07116413
2.87460637 2.21106791 0.02963131
-0.36985543 -2.62737870 -1.51811159
-0.45889768 1.20773208 -1.92672467
1.81258035 0.70860815 1.70035219
2.34672093 0.45556778 -1.48111713
-1.47885239 0.94105619 1.78142178
-0.86266530 0.52721030 -1.95875573
0.25702679 2.85721636 -1.41318870
-1.88822305 0.53516752 -1.68877578
2.59371614 1.61396742 1.06651592
3.19219732 0.76104969 -0.68021756
-3.32637668 0.23472519 -0.54425150
-0.36555058 0.96668142 1.96888697
1.04605329 2.67577577 1.37919438
0.18579242 0.88670218 -1.98749638
-2.51416707 2.64721465 -0.34598941
-2.73124218 0.77356952 -1.18778503
2.05517149 0.13175845 -1.64075494
-0.11286440 1.64877510 1.85706460
1.36867356 2.52215290 -1.35716009
1.84414232 2.44118547 -1.18974185
3.15628862 0.29661030 -0.81912166
2.09450245 1.38918829 -1.45949161
2.04817295 1.05257702 -1.55393958
1.94368970 1.48018861 -1.50844598
0.04347270 0.05074219 2.04152203
1.67227387 1.98033082 1.47006845
-0.18779901 3.48251963 -0.98209858
2.73609829 1.46407580 -0.99683732
-0.39883047 -3.94717503 0.10909045
-1.77808082 1.49527466 -1.57433188
-0.64530432 0.28254130 2.00124049
-2.89976573 2.16240144 -0.07616285
0.79843748 0.53381276 -1.96762466
-0.89621037 0.47670093 -1.95701098
0.42239541 3.90256333 0.31032273
-2.29577160 2.77830744 0.54826999
0.71173215 3.22027707 1.12356865
0.92575693 3.29651594 -1.00447261
-0.23643567 3.90452433 -0.36979946
3.12789774 0.91950077 0.73196590
1.99376857 0.41958481 -1.65402186
-2.93962741 0.41643021 1.05363452
-1.31463385 0.36411577 1.87966800
0.49765739 3.93082833 -0.12074185
0.35307881 0.61551845 2.00657105
-1.73278010 3.43596649 0.11098816
0.23274200 0.80492848 -1.99494708
-0.63314819 0.54528230 1.98769736
2.65834093 2.09742117 0.74016219
1.46575260 2.09898472 -1.50385630
-2.59844470 1.71995234 1.01881456
-3.10920143 0.10129455 -0.89159083
0.27788058 3.47355747 -0.98264343
-0.24949975 3.53468680 0.92675269
-2.96158576 1.78734922 -0.51782560
2.09212399 1.27306700 1.48896861
1.70926988 0.06882426 1.77443194
0.30013412 2.96169782 1.35271013
1.45275939 3.53760505 -0.37250024
-1.96090055 2.88335276 -0.79923767
2.32278180 2.47539186 0.82162249
-2.34562898 0.48116970 1.47983968
0.23533654 3.15104318 1.23943686
-0.36996216 -3.60984135 -0.83201987
-0.80195749 1.10839689 1.90293038
-3.28100562 0.38928753 0.61096001
0.69190484 1.69836283 1.80105555
1.97078192 3.01040602 0.65536147
2.17294264 0.90781021 1.51849627
-0.62980354 0.08855639 -2.00723076
-1.41422224 3.51490450 -0.46770301
2.77029228 0.19827871 -1.21726239
1.12081373 0.16207846 1.92977965
-0.91768670 2.92070723 -1.27711308
1.61892092 0.43079835 1.79101241
0.38352361 0.73060858 1.99433041
-2.77629328 2.34173107 0.19005269
0.76806945 0.20234337 -1.98808038
1.78564489 3.40710521 -0.04471559
-0.74850047 0.30405340 1.98729849
-2.94980097 1.07704842 0.91029060
-0.66471243 0.55102056 1.98388910
-0.43742296 1.80211425 1.80223286
-0.25142226 1.75352526 -1.82700920
0.60151470 3.68318915 -0.68720615
0.10835260 0.02434033 -2.04080796
3.12384129 1.10450077 0.66788709
-1.74374962 3.43116617 -0.08769193
0.51223660 2.22242904 -1.66637099
0.09979113 3.70229793 0.74777728
2.33195400 0.89728665 -1.43560946
-1.59959710 -0.02518367 1.81009257
1.57449532 3.47405815 -0.36006331
2.71289873 2.45689082 -0.10662682
1.08060765 2.66967154 -1.37331307
2.88292241 2.02076030 -0.44412160
0.24917878 0.19268467 2.03423953
-2.41303778 1.13799536 -1.34082222
-1.77698720 1.75521982 1.50272679
-2.34920454 0.15990204 -1.49645460
2.62877846 2.37862802 -0.51768607
-1.22348773 0.82220733 -1.86247396
-1.95328736 -1.29807782 -1.54770720
1.54261851 0.15025641 1.82570171
-2.62422419 1.25261903 1.16329777
0.28499004 0.39105764 -2.02494431
0.57201791 2.36642385 1.60636532
-2.20770454 2.66495967 -0.77428091
-1.16820633 -2.97077942 -1.17012846
0.94771504 1.00410295 1.89488578
-1.88133395 -3.18467379 0.51382738
-0.36418128 0.47546056 -2.01594186
2.82035875 0.38296962 -1.16422474
-0.32823637 2.99738908 -1.32887483
0.76626527 2.23596621 -1.62800074
-0.67991471 1.18250823 -1.90781808
2.17047381 2.99276447 -0.40838766
1.73948336 2.43611360 -1.24549866
3.33171415 0.16826093 0.53979999
-0.20304044 3.76427984 -0.65362662
2.50224757 2.40810537 -0.67768484
0.76888639 2.60938430 -1.47320998
0.39826539 1.45383072 1.88639259
1.60159791 0.23224333 -1.80565345
3.19243741 1.36455059 -0.35523462
-2.14573693 0.66243380 -1.56519663
-2.52919292 2.70771599 -0.08219771
-3.35676312 0.85729748 0.21417955
-3.44643879 0.25260910 -0.09391285
-2.28096986 2.73040366 -0.62574685
0.36067897 0.96941054 1.96880889
-2.40672803 2.46901035 0.73826677
2.82308912 0.54753405 1.14432371
-2.17321157 1.74081731 -1.31283104
0.21524522 1.57219183 1.87148082
2.88225031 1.97405016 0.49542615
-2.69145298 2.18310666 -0.62321025
-0.71184516 3.31356835 -1.04925776
1.39274716 1.02068031 -1.79449654
1.11432564 3.18045473 -1.03664398
-0.16669440 -1.31420016 -1.92496932
1.77258003 3.41646147 -0.01681386
0.82427543 1.41977191 1.84467506
-2.16205621 -3.10437298 0.01815565
2.01278639 0.63279271 -1.62865698
-2.93789148 1.12586391 0.90904337
-0.09799648 2.50108552 1.58696258
1.98281765 0.74745572 1.62868357
-1.54691041 2.64748454 1.22009385
-0.47691402 1.17430079 1.93045735
-0.10302100 1.02750778 -1.97176266
2.07304239 1.36037314 1.47738445
-0.16656469 0.11564560 2.03891373
-2.52087212 1.39977586 -1.19898951
2.28262162 0.29230085 -1.52607548
-1.27566350 0.80648375 -1.85213208
-3.01653957 -0.08556699 -0.99734151
-0.43835434 0.96199793 1.96422803
-0.46625733 0.69146162 -1.99180448
0.25790080 2.25805855 1.67457819
-0.09989560 0.02491080 -2.04092836
-1.06585681 -3.07022524 -1.13592815
1.06953120 1.91638100 -1.67442894
1.88648224 1.83636987 -1.42892706
-0.57380354 0.54772282 1.99380648
-2.48764014 2.76410103 0.00041334
-2.33874083 2.01388049 -1.09246790
-3.41657567 0.56706738 -0.10819015
-3.11445332 -0.40726647 0.86163241
-1.05137503 3.47397923 0.77788103
1.47588646 0.00793200 1.84674454
1.92599285 3.10585737 0.57920849
3.02770305 -1.77632475 0.37483779
2.48613358 1.81421840 -1.07036948
0.34850994 0.55262494 -2.01151991
-0.57369870 0.37878364 -2.00443077
0.11048491 0.12390596 2.04016161
-1.13341999 3.72342300 0.26637360
-1.87096584 3.33909297 0.10736611
-0.22231168 0.14916579 2.03613520
-0.55012327 3.03595519 -1.28011596
2.75161552 1.91714525 0.75073189
3.16519523 0.38512403 -0.79727978
-3.20633388 0.75714535 -0.65801829
-1.21584439 3.00411820 1.13003516
-0.81530380 1.07471752 -1.90607595
2.08220267 0.29338461 1.62341833
-1.41077662 -3.58080053 0.31287247
3.44685745 0.28167596 -0.06503668
0.08802408 -3.62605977 0.84069413
3.41740084 0.21809170 0.28885755
-0.67435819 0.50348216 -1.98595762
2.24471116 2.91385818 0.42037910
0.05309018 0.15341599 -2.04032087
-3.17288947 1.17007720 -0.54637384
-2.44260550 1.07710254 1.33550322
0.93237621 0.38895872 -1.95630443
1.72799909 1.29804206 1.63847804
2.19896078 1.87856531 1.24651074
2.34787416 2.34812140 -0.89081579
-2.08307672 1.61614001 1.40266323
-2.03400302 -2.80617690 0.80784851
-1.40969682 0.91751063 -1.80417049
-0.19249262 0.16669348 -2.03686118
1.10846138 3.76732039 0.06866261
0.52971023 3.04831696 -1.27535903
-0.92681044 2.32017040 1.56645954
3.41884565 0.19214475 0.28930780
2.45326877 2.42910457 -0.71811622
2.98844218 1.58935952 -0.62354022
-1.12506306 3.57295680 -0.60489589
2.34086680 0.83009392 1.44136822
1.64822423 1.36711133 1.65197706
-0.75989980 3.04597211 -1.23451781
-1.24041986 2.85049939 1.22197390
-0.73071164 0.94409788 -1.93595231
1.33053148 1.79175997 1.64506865
-2.29097581 1.72200108 -1.24808931
-1.79661775 2.91758895 0.89536440
0.17619698 0.42188922 2.02766609
3.10610628 1.54015422 -0.42330739
2.71729660 1.78461707 -0.86853915
-2.19495606 2.88839936 -0.54104006
-0.58451736 1.63332748 1.82974601
-3.30148458 0.14148979 -0.60108751
-1.98223388 3.18211555 0.36490977
1.53979194 0.89674079 -1.76916289
-0.23355687 3.06795526 -1.29292691
0.12164283 -2.73533249 -1.48130882
-0.58501929 2.28029680 -1.63747203
-0.69189060 2.63417053 -1.47477937
-1.26324427 0.76903421 1.85916269
0.07312522 0.28909600 -2.03594780
3 166 179 125
3 47 212 193
3 0 212 51
3 195 212 0
3 211 195 0
3 51 212 210
3 131 166 125
3 247 166 151
3 179 166 247
3 151 166 191
3 191 166 224
3 141 155 195
3 79 212 195
3 79 193 212
3 86 0 51
3 251 0 86
3 51 210 86
3 86 210 166
3 224 166 133
3 166 210 133
3 133 212 224
3 133 210 212
3 125 163 23
3 23 131 125
3 23 163 251
3 251 86 23
3 114 191 224
3 84 191 114
3 154 73 171
3 99 73 154
3 64 191 84
3 42 6 222
3 222 6 139
3 195 155 9
3 47 193 95
3 251 163 146
3 77 217 54
3 131 23 184
3 184 23 86
3 166 131 184
3 184 86 166
3 179 247 74
3 33 247 151
3 151 190 33
3 84 114 27
3 218 64 84
3 155 141 62
3 141 109 62
3 213 109 141
3 211 147 213
3 213 147 109
3 237 207 171
3 164 1 194
3 150 190 151
3 99 54 150
3 150 217 190
3 150 54 217
3 139 143 231
3 231 222 139
3 143 118 244
3 244 231 143
3 222 231 244
3 107 81 6
3 179 74 38
3 209 79 195
3 195 9 209
3 7 98 12
3 165 239 89
3 18 239 48
3 39 0 251
3 251 146 39
3 249 146 219
3 108 163 183
3 125 4 15
3 252 106 17
3 52 156 17
3 156 96 17
3 42 186 140
3 60 107 6
3 82 96 189
3 189 96 156
3 149 54 99
3 37 54 149
3 254 27 65
3 65 27 114
3 87 27 254
3 246 229 121
3 121 27 246
3 27 87 246
3 171 73 223
3 223 121 171
3 223 27 121
3 84 27 223
3 223 218 84
3 168 73 99
3 99 150 168
3 8 212 47
3 224 212 8
3 8 114 224
3 230 141 195
3 230 213 141
3 230 195 211
3 211 213 230
3 11 237 171
3 229 237 11
3 171 121 11
3 121 229 11
3 18 48 35
3 21 192 207
3 207 237 21
3 21 237 229
3 59 85 80
3 80 35 59
3 99 154 58
3 19 48 221
3 19 35 48
3 19 1 59
3 59 35 19
3 155 62 31
3 31 62 109
3 139 6 115
3 6 81 115
3 57 1 227
3 1 164 227
3 123 143 139
3 123 118 143
3 222 244 196
3 42 222 196
3 196 186 42
3 211 205 32
3 32 147 211
3 10 96 82
3 111 106 252
3 36 106 111
3 111 185 36
3 137 185 111
3 29 111 252
3 206 38 74
3 190 217 206
3 206 33 190
3 206 74 247
3 247 33 206
3 120 156 52
3 7 12 119
3 47 95 119
3 119 95 7
3 12 242 119
3 7 95 97
3 79 209 97
3 67 12 98
3 98 242 67
3 67 242 12
3 113 45 44
3 44 196 113
3 186 196 44
3 249 219 161
3 0 39 94
3 167 45 113
3 249 45 167
3 100 146 163
3 100 219 146
3 100 163 108
3 226 255 216
3 216 183 226
3 108 183 216
3 134 255 226
3 162 60 6
3 162 41 117
3 140 41 162
3 162 6 42
3 42 140 162
3 37 152 159
3 77 54 159
3 159 54 37
3 176 217 77
3 77 159 176
3 176 159 189
3 176 120 38
3 176 206 217
3 38 206 176
3 89 182 157
3 64 218 127
3 73 168 127
3 127 223 73
3 218 223 127
3 88 168 150
3 191 64 88
3 151 191 88
3 88 150 151
3 187 70 53
3 187 53 202
3 202 53 8
3 18 35 129
3 129 182 89
3 35 80 129
3 89 239 129
3 129 239 18
3 112 1 57
3 59 1 112
3 112 85 59
3 85 21 169
3 169 80 85
3 169 21 229
3 182 129 169
3 169 129 80
3 188 149 99
3 99 58 188
3 207 192 241
3 171 207 241
3 241 154 171
3 241 58 154
3 245 152 37
3 81 107 5
3 200 112 57
3 192 112 200
3 83 19 221
3 221 31 83
3 83 31 71
3 204 31 109
3 71 31 204
3 139 115 101
3 101 115 81
3 81 227 101
3 101 227 164
3 139 101 116
3 116 123 139
3 116 22 118
3 118 123 116
3 147 32 232
3 232 244 118
3 49 203 160
3 250 203 49
3 107 60 75
3 75 250 49
3 144 117 137
3 137 111 144
3 111 29 144
3 179 38 122
3 125 179 122
3 122 4 125
3 4 122 148
3 148 120 52
3 38 120 148
3 148 122 38
3 221 48 174
3 174 31 221
3 47 119 199
3 199 119 242
3 7 97 132
3 132 98 7
3 126 95 193
3 126 97 95
3 193 79 126
3 79 97 126
3 72 140 186
3 72 41 140
3 72 185 137
3 137 117 72
3 117 41 72
3 46 44 45
3 46 45 249
3 249 161 46
3 186 44 46
3 46 72 186
3 46 161 185
3 185 72 46
3 55 161 219
3 219 100 55
3 36 185 55
3 185 161 55
3 0 94 43
3 43 205 211
3 211 0 43
3 177 94 39
3 135 32 205
3 205 43 135
3 135 43 94
3 63 39 146
3 63 146 249
3 249 167 63
3 63 177 39
3 167 177 63
3 16 17 208
3 208 225 16
3 52 17 16
3 16 225 52
3 124 225 208
3 238 24 181
3 238 124 208
3 181 24 173
3 36 134 173
3 173 134 181
3 173 106 36
3 173 24 106
3 130 159 152
3 189 159 130
3 82 189 130
3 156 120 240
3 120 176 240
3 240 189 156
3 240 176 189
3 104 180 87
3 104 87 254
3 104 70 187
3 187 180 104
3 104 53 70
3 34 180 187
3 187 202 34
3 34 202 242
3 172 246 87
3 87 180 172
3 180 34 172
3 182 169 105
3 229 246 105
3 105 169 229
3 145 165 89
3 89 157 145
3 64 127 103
3 103 127 168
3 103 88 64
3 168 88 103
3 175 8 47
3 175 202 8
3 192 21 76
3 76 112 192
3 76 21 85
3 85 112 76
3 201 188 248
3 248 188 58
3 58 241 248
3 248 241 192
3 192 200 248
3 149 188 13
3 201 110 13
3 13 188 201
3 37 149 13
3 13 245 37
3 152 245 3
3 82 130 3
3 3 130 152
3 66 227 81
3 81 5 66
3 57 227 66
3 68 110 201
3 68 200 110
3 201 248 68
3 68 248 200
3 61 66 5
3 61 200 57
3 57 66 61
3 19 83 90
3 194 1 90
3 1 19 90
3 71 204 158
3 158 204 109
3 109 147 158
3 147 22 158
3 147 232 243
3 243 232 118
3 243 22 147
3 118 22 243
3 96 10 236
3 236 203 96
3 236 160 203
3 203 250 136
3 136 29 252
3 136 250 29
3 228 75 60
3 228 144 29
3 29 250 228
3 250 75 228
3 117 144 228
3 228 162 117
3 60 162 228
3 30 15 4
3 4 148 30
3 30 148 52
3 52 225 30
3 30 225 15
3 31 174 78
3 239 165 235
3 165 132 235
3 235 48 239
3 36 55 69
3 69 134 36
3 255 134 69
3 197 55 100
3 197 69 55
3 26 167 113
3 26 177 167
3 94 177 26
3 113 135 26
3 26 135 94
3 50 196 244
3 32 135 50
3 113 196 50
3 50 135 113
3 244 232 50
3 50 232 32
3 15 225 178
3 225 124 178
3 178 56 15
3 124 56 178
3 138 238 208
3 24 238 138
3 106 24 138
3 208 17 138
3 138 17 106
3 53 104 102
3 102 65 114
3 254 65 102
3 102 104 254
3 114 8 102
3 8 53 102
3 153 242 98
3 153 34 242
3 157 34 153
3 153 145 157
3 98 132 153
3 153 132 165
3 165 145 153
3 40 34 157
3 40 172 34
3 40 157 182
3 182 105 40
3 246 172 40
3 40 105 246
3 20 199 242
3 242 202 20
3 202 175 20
3 47 199 20
3 20 175 47
3 49 160 14
3 215 90 83
3 215 83 71
3 71 158 215
3 194 90 215
3 215 158 22
3 22 116 215
3 215 164 194
3 215 101 164
3 215 116 101
3 2 236 10
3 160 236 2
3 10 14 2
3 2 14 160
3 253 136 252
3 203 136 253
3 96 203 253
3 252 17 253
3 253 17 96
3 31 78 234
3 234 78 91
3 155 31 234
3 234 9 155
3 234 209 9
3 234 91 209
3 25 132 97
3 25 235 132
3 25 97 209
3 128 100 108
3 128 197 100
3 108 216 128
3 128 216 255
3 255 69 128
3 69 197 128
3 124 238 28
3 28 56 124
3 226 183 92
3 92 183 163
3 92 163 125
3 125 15 92
3 15 56 92
3 49 14 142
3 142 14 61
3 142 61 5
3 142 75 49
3 142 5 107
3 107 75 142
3 110 200 93
3 200 61 93
3 93 13 110
3 245 13 93
3 93 3 245
3 82 3 93
3 235 25 220
3 220 78 174
3 220 174 48
3 48 235 220
3 198 134 226
3 226 92 198
3 181 134 198
3 198 92 56
3 233 14 10
3 233 10 82
3 82 93 233
3 61 14 233
3 233 93 61
3 170 220 25
3 209 91 170
3 170 25 209
3 91 78 170
3 78 220 170
3 181 198 214
3 214 238 181
3 214 28 238
3 56 28 214
3 214 198 56