ply
format ascii 1.0
comment https://github.com/mikedh/trimesh
element vertex 256
property float x
property float y
property float z
element face 508
property list uchar int vertex_indices
end_header
2.75113320 -1.31509662 -0.40885070
1.45310199 1.69895542 1.02809536
-0.91762161 1.66391170 -1.49737585
-2.19694090 1.46803367 -1.00512731
-2.34113955 0.07457009 -2.44885540
0.45774597 1.89264643 -0.79043102
1.36423266 1.63126981 -1.34197545
1.05665851 0.13893510 3.00452781
-0.34871182 0.00930994 3.12611508
2.68293715 0.19270076 2.17140675
-1.01396930 1.66606891 -1.44960082
-1.35152698 1.18753982 2.23545599
0.49152341 0.18201204 3.09888053
-2.40586758 1.49745858 -0.33534107
-0.78022254 1.80413640 -1.08328176
-1.97215676 0.25158924 -2.63940740
-1.72306907 0.73721951 -2.52890205
-1.15060663 1.05358791 -2.47223997
1.50038624 1.04376793 2.34797001
2.08392262 1.37512338 1.42102754
0.00898015 0.06979819 3.13742399
-0.51281583 1.65682006 1.64689410
3.11714816 1.09544361 0.04555756
-0.40106156 -1.30169916 -2.33406711
-0.49761668 0.59835446 -2.96230173
1.96551490 0.35107028 2.61425853
2.54472303 0.22570488 -2.27718878
-1.60362887 0.46623352 2.73890138
-0.93545175 0.26119918 -3.01154900
0.27871317 1.41556907 -2.17275023
-2.04753995 0.26514149 -2.59646010
2.81255817 0.79961824 1.63974750
3.46153545 0.37705177 -1.04582131
-3.60703588 0.11629141 -0.83677620
-0.39639351 0.47892919 3.02712560
1.13431287 1.32567680 2.12048459
0.20146845 0.43930456 -3.05573726
-2.72629714 1.31152666 -0.53195202
-2.96168780 0.38325453 -1.82619655
2.22857428 0.06527794 -2.52262902
-0.12238722 0.81686324 2.85520077
1.48415387 1.24956644 -2.08660746
1.99973977 1.20945227 -1.82920504
3.42259693 0.14695154 -1.25938368
2.27122378 0.68825448 -2.24394011
2.22098541 0.52148497 -2.38915205
2.10768652 0.73333937 -2.31920648
0.04714066 0.02513953 3.13880062
1.81337011 0.98112804 2.26020169
-0.20364434 1.72536707 -1.50995755
2.96695375 0.72535652 -1.53261805
-0.43248138 -1.95557427 0.16772446
-1.92810440 0.74081355 -2.42050481
-0.69975114 0.13998125 3.07686853
-3.14443040 1.07133245 -0.11709891
0.86580479 0.26447028 -3.02518487
-0.97182715 0.23617500 -3.00886655
0.45803457 1.93347204 0.47711518
-2.48947477 1.37647462 0.84295446
0.77178377 1.59544253 1.72746503
1.00386667 1.63321412 -1.54435730
-0.25638467 1.93444359 -0.56855953
3.39181066 0.45555416 1.12538338
2.16199064 0.20787759 -2.54302645
-3.18765521 0.20631470 1.61994278
-1.42555463 0.18039621 2.88995314
0.53964669 1.94747555 -0.18563825
0.38286945 0.30495027 3.08506417
-1.87898159 1.70230293 0.17064215
0.25237936 0.39879090 -3.06719232
-0.68656933 0.27015275 3.05604625
2.88263559 1.03913891 1.13798499
1.58942389 1.03991354 -2.31215000
-2.81768560 0.85212702 1.56640756
-3.37153697 0.05018501 -1.37080371
0.30132642 1.72092688 -1.51079524
-0.27055103 1.75121272 1.42486429
-3.21146631 0.88551795 -0.79614687
2.26864481 0.63072377 2.28926039
1.85348761 0.03409805 2.72815490
0.32545760 1.46733296 2.07976556
1.57533431 1.75265849 -0.57271188
-2.12634945 1.42851794 -1.22881246
2.51876378 1.22639930 1.26322865
-2.54353881 0.23838900 2.27522492
0.25519279 1.56114161 1.90561020
-0.40117729 -1.78844690 -1.27921438
-0.86962175 0.54914016 2.92571855
-3.55783701 0.19286723 0.93933916
0.75028354 0.84143084 2.76908803
2.13706446 1.49146485 1.00760555
2.35628223 0.44976225 2.33465862
-0.68294257 0.04387406 -3.08607841
-1.53354573 1.74141181 -0.71908432
3.00403285 0.09823450 -1.87151730
1.21538115 0.08029957 2.96699882
-0.99511552 1.44702482 -1.96353662
1.75551558 0.21343319 2.75364685
0.41588297 0.36197013 3.06624436
-3.01054001 1.16017890 0.29220232
0.83287448 0.10024828 -3.05663514
1.93630672 1.68800402 -0.06874935
-0.81165439 0.15063913 3.05543280
-3.19868731 0.53360903 1.39955413
-0.72079682 0.27299568 3.05019093
-0.47433004 0.89283305 2.77089810
-0.27263573 0.86876029 -2.80899143
0.65226680 1.82478607 -1.05656612
0.11749473 0.01205909 -3.13770270
3.38741183 0.54720992 1.02686346
-1.89087665 1.69992471 -0.13482463
0.55545598 1.10107231 -2.56201315
0.10821090 1.83425331 1.14969313
2.52871013 0.44454849 -2.20722175
-1.73456132 -0.01247691 2.78298235
1.70734167 1.72117496 -0.55359042
2.94179654 1.21723318 -0.16393667
1.17178273 1.32265258 -2.11144233
3.12616563 1.00115824 -0.68282837
0.27020296 0.09546301 3.12760401
-2.61663508 0.56380433 -2.06148815
-1.92691863 0.86959988 2.31041336
-2.54741621 0.07922129 -2.30077004
2.85057878 1.17845905 -0.79593229
-1.32671821 0.40735146 -2.86351776
-2.11809397 -0.64311504 -2.37956977
1.67277527 0.07444250 2.80698085
-2.84564042 0.62059307 1.78854775
0.30903575 0.19374421 -3.11331272
0.62028128 1.17241251 2.46975565
-2.39397717 1.32031810 -1.19044197
-1.26677251 -1.47183239 -1.79904985
1.02767742 0.49746919 2.91335034
-2.04006934 -1.57780337 0.78999966
-0.39490867 0.23556049 -3.09947133
3.05832338 0.18973710 -1.78997290
-0.35593095 1.48501575 -2.04311943
0.83091801 1.10777915 -2.50301957
-0.73728180 0.58585763 -2.93323326
2.35360527 1.48272455 -0.62788814
1.88625038 1.20693946 -1.91493011
3.61282396 0.08336259 0.82993203
-0.22017175 1.86496139 -1.00493824
2.71337199 1.19306314 -1.04192734
0.83376032 1.29278409 -2.26503181
0.43186858 0.72028071 2.90029192
1.73673105 0.11506180 -2.77615714
3.46179581 0.67604804 -0.54616630
-2.32678103 0.32819384 -2.40645933
-2.74259067 1.34150112 -0.12637739
-3.63998628 0.42473641 0.32929689
-3.73722816 0.12515175 -0.14438918
-2.47342420 1.35274136 -0.96207368
0.39111087 0.48028129 3.02700567
-2.60979319 1.22323763 1.13507092
3.06128407 0.27126831 1.75937557
-2.35657406 0.86246431 -2.01845241
0.23340629 0.77892113 2.87736559
3.12543702 0.97801638 0.76170814
-2.91854143 1.08159053 -0.95817369
-0.77190632 1.64166248 -1.61321354
1.51025867 0.50568223 -2.75900364
1.20834565 1.57571304 -1.59382010
-0.18075906 -0.65110266 -2.95960307
1.92213953 1.69263947 -0.02585098
0.89382279 0.70340675 2.83615208
-2.34447718 -1.53801954 0.02791396
2.18261313 0.31350857 -2.50402856
-3.18577266 0.55779403 1.39763653
-0.10626483 1.23912883 2.43992424
2.15011573 0.37031680 2.50406933
-1.67742920 1.31166029 1.87587070
-0.51715308 0.58179140 2.96804070
-0.11171328 0.50906479 -3.03154683
2.24795318 0.67397845 2.27145004
-0.18061841 0.05729505 3.13479042
-2.73356795 0.69349992 -1.84342313
2.47521544 0.14481649 -2.34631133
-1.38329613 0.39956143 -2.84761739
-3.27105665 -0.04239300 -1.53339326
-0.47534001 0.47660881 3.01996255
-0.50559729 0.34257528 -3.06236076
0.27966088 1.11872447 2.57463169
-0.10832418 0.01234172 -3.13788772
-1.15578735 -1.52110136 -1.74646759
1.15977168 0.94944495 -2.57440209
2.04565215 0.90980452 -2.19694781
-0.62221760 0.27136186 3.06543899
-2.69753218 1.36943638 0.00063550
-2.53606963 0.99774975 -1.67964828
-3.70484543 0.28094587 -0.16634025
-3.37723184 -0.20177464 1.32474315
-1.14008355 1.72113597 1.19597697
1.60041273 0.00392980 2.83933401
2.08849645 1.53875482 0.89052182
3.28316212 -0.88005596 0.57630587
2.69589829 0.89882994 -1.64567232
0.37791508 0.27379054 -3.09267282
-0.62210393 0.18766321 -3.08177352
0.11980695 0.06138753 3.13670897
-1.22905111 1.84471941 0.40954426
-2.02882648 1.65430832 0.16507332
-0.24106897 0.07390217 3.13051844
-0.59653938 1.50412273 -1.96815348
2.98378015 0.94982362 1.15423572
3.43225503 0.19080448 -1.22580218
-3.47686481 0.37511739 -1.01169038
-1.31842995 1.48834956 1.73740721
-0.88409412 0.53245419 -2.93055487
2.25788617 0.14535342 2.49597430
-1.52980936 -1.77405894 0.48103535
3.73768234 0.13955253 -0.09999263
0.09545102 -1.79648221 1.29255092
3.70574021 0.10805057 0.44411290
-0.73125643 0.24944343 -3.05337143
2.43410611 1.44363153 0.64632469
0.05756960 0.07600787 -3.13695383
-3.44059849 0.57969886 -0.84003919
-2.64869761 0.53363585 2.05331039
1.01104438 0.19270432 -3.00778031
1.87379706 0.64309734 2.51912832
2.38449574 0.93070972 1.91648602
2.54597330 1.16334498 -1.36961198
-2.25883389 0.80069464 2.15656757
-2.20561981 -1.39028227 1.24205148
-1.52863848 0.45456818 -2.77387714
-0.20873398 0.08258603 -3.13163471
1.20198655 1.86646783 0.10556743
0.57440394 1.51024735 -1.96083987
-1.00500906 1.14949691 2.40840101
3.70730686 0.09519551 0.44480515
2.66026044 1.20346689 -1.10408986
3.24058890 0.78742659 -0.95868105
-1.21998906 1.77017295 -0.93001568
2.53837466 0.41125879 2.21607566
1.78729141 0.67731673 2.53988290
-0.82401550 1.50908554 -1.89804721
-1.34507895 1.41224122 1.87876129
-0.79236466 0.46774048 -2.97648907
1.44279361 0.88770318 2.52926111
-2.48427439 0.85314202 -1.91891313
-1.94820547 1.44547987 1.37660539
0.19106340 0.20901929 3.11749744
3.36818051 0.76304853 -0.65082693
2.94656563 0.88416433 -1.33536220
-2.38015318 1.43101823 -0.83183861
-0.63383538 0.80920994 2.81319904
-3.58004379 0.07009920 -0.92416042
-2.14948273 1.57653594 0.56104171
1.66971028 0.44427806 -2.72005367
-0.25326297 1.51997685 -1.98784995
0.13190630 -1.35518336 -2.27748370
-0.63437968 1.12974215 -2.51758146
-0.75026810 1.30506408 -2.26744461
-1.36982918 0.38100758 2.85842657
0.07929508 0.14322869 -3.13023019
3 166 179 125
3 47 212 193
3 0 212 51
3 195 212 0
3 211 195 0
3 51 212 210
3 131 166 125
3 247 166 151
3 179 166 247
3 151 166 191
3 191 166 224
3 141 155 195
3 79 212 195
3 79 193 212
3 86 0 51
3 251 0 86
3 51 210 86
3 86 210 166
3 224 166 133
3 166 210 133
3 133 212 224
3 133 210 212
3 125 163 23
3 23 131 125
3 23 163 251
3 251 86 23
3 114 191 224
3 84 191 114
3 154 73 171
3 99 73 154
3 64 191 84
3 42 6 222
3 222 6 139
3 195 155 9
3 47 193 95
3 251 163 146
3 77 217 54
3 131 23 184
3 184 23 86
3 166 131 184
3 184 86 166
3 179 247 74
3 33 247 151
3 151 190 33
3 84 114 27
3 218 64 84
3 155 141 62
3 141 109 62
3 213 109 141
3 211 147 213
3 213 147 109
3 237 207 171
3 164 1 194
3 150 190 151
3 99 54 150
3 150 217 190
3 150 54 217
3 139 143 231
3 231 222 139
3 143 118 244
3 244 231 143
3 222 231 244
3 107 81 6
3 179 74 38
3 209 79 195
3 195 9 209
3 7 98 12
3 165 239 89
3 18 239 48
3 39 0 251
3 251 146 39
3 249 146 219
3 108 163 183
3 125 4 15
3 252 106 17
3 52 156 17
3 156 96 17
3 42 186 140
3 60 107 6
3 82 96 189
3 189 96 156
3 149 54 99
3 37 54 149
3 254 27 65
3 65 27 114
3 87 27 254
3 246 229 121
3 121 27 246
3 27 87 246
3 171 73 223
3 223 121 171
3 223 27 121
3 84 27 223
3 223 218 84
3 168 73 99
3 99 150 168
3 8 212 47
3 224 212 8
3 8 114 224
3 230 141 195
3 230 213 141
3 230 195 211
3 211 213 230
3 11 237 171
3 229 237 11
3 171 121 11
3 121 229 11
3 18 48 35
3 21 192 207
3 207 237 21
3 21 237 229
3 59 85 80
3 80 35 59
3 99 154 58
3 19 48 221
3 19 35 48
3 19 1 59
3 59 35 19
3 155 62 31
3 31 62 109
3 139 6 115
3 6 81 115
3 57 1 227
3 1 164 227
3 123 143 139
3 123 118 143
3 222 244 196
3 42 222 196
3 196 186 42
3 211 205 32
3 32 147 211
3 10 96 82
3 111 106 252
3 36 106 111
3 111 185 36
3 137 185 111
3 29 111 252
3 206 38 74
3 190 217 206
3 206 33 190
3 206 74 247
3 247 33 206
3 120 156 52
3 7 12 119
3 47 95 119
3 119 95 7
3 12 242 119
3 7 95 97
3 79 209 97
3 67 12 98
3 98 242 67
3 67 242 12
3 113 45 44
3 44 196 113
3 186 196 44
3 249 219 161
3 0 39 94
3 167 45 113
3 249 45 167
3 100 146 163
3 100 219 146
3 100 163 108
3 226 255 216
3 216 183 226
3 108 183 216
3 134 255 226
3 162 60 6
3 162 41 117
3 140 41 162
3 162 6 42
3 42 140 162
3 37 152 159
3 77 54 159
3 159 54 37
3 176 217 77
3 77 159 176
3 176 159 189
3 176 120 38
3 176 206 217
3 38 206 176
3 89 182 157
3 64 218 127
3 73 168 127
3 127 223 73
3 218 223 127
3 88 168 150
3 191 64 88
3 151 191 88
3 88 150 151
3 187 70 53
3 187 53 202
3 202 53 8
3 18 35 129
3 129 182 89
3 35 80 129
3 89 239 129
3 129 239 18
3 112 1 57
3 59 1 112
3 112 85 59
3 85 21 169
3 169 80 85
3 169 21 229
3 182 129 169
3 169 129 80
3 188 149 99
3 99 58 188
3 207 192 241
3 171 207 241
3 241 154 171
3 241 58 154
3 245 152 37
3 81 107 5
3 200 112 57
3 192 112 200
3 83 19 221
3 221 31 83
3 83 31 71
3 204 31 109
3 71 31 204
3 139 115 101
3 101 115 81
3 81 227 101
3 101 227 164
3 139 101 116
3 116 123 139
3 116 22 118
3 118 123 116
3 147 32 232
3 232 244 118
3 49 203 160
3 250 203 49
3 107 60 75
3 75 250 49
3 144 117 137
3 137 111 144
3 111 29 144
3 179 38 122
3 125 179 122
3 122 4 125
3 4 122 148
3 148 120 52
3 38 120 148
3 148 122 38
3 221 48 174
3 174 31 221
3 47 119 199
3 199 119 242
3 7 97 132
3 132 98 7
3 126 95 193
3 126 97 95
3 193 79 126
3 79 97 126
3 72 140 186
3 72 41 140
3 72 185 137
3 137 117 72
3 117 41 72
3 46 44 45
3 46 45 249
3 249 161 46
3 186 44 46
3 46 72 186
3 46 161 185
3 185 72 46
3 55 161 219
3 219 100 55
3 36 185 55
3 185 161 55
3 0 94 43
3 43 205 211
3 211 0 43
3 177 94 39
3 135 32 205
3 205 43 135
3 135 43 94
3 63 39 146
3 63 146 249
3 249 167 63
3 63 177 39
3 167 177 63
3 16 17 208
3 208 225 16
3 52 17 16
3 16 225 52
3 124 225 208
3 238 24 181
3 238 124 208
3 181 24 173
3 36 134 173
3 173 134 181
3 173 106 36
3 173 24 106
3 130 159 152
3 189 159 130
3 82 189 130
3 156 120 240
3 120 176 240
3 240 189 156
3 240 176 189
3 104 180 87
3 104 87 254
3 104 70 187
3 187 180 104
3 104 53 70
3 34 180 187
3 187 202 34
3 34 202 242
3 172 246 87
3 87 180 172
3 180 34 172
3 182 169 105
3 229 246 105
3 105 169 229
3 145 165 89
3 89 157 145
3 64 127 103
3 103 127 168
3 103 88 64
3 168 88 103
3 175 8 47
3 175 202 8
3 192 21 76
3 76 112 192
3 76 21 85
3 85 112 76
3 201 188 248
3 248 188 58
3 58 241 248
3 248 241 192
3 192 200 248
3 149 188 13
3 201 110 13
3 13 188 201
3 37 149 13
3 13 245 37
3 152 245 3
3 82 130 3
3 3 130 152
3 66 227 81
3 81 5 66
3 57 227 66
3 68 110 201
3 68 200 110
3 201 248 68
3 68 248 200
3 61 66 5
3 61 200 57
3 57 66 61
3 19 83 90
3 194 1 90
3 1 19 90
3 71 204 158
3 158 204 109
3 109 147 158
3 147 22 158
3 147 232 243
3 243 232 118
3 243 22 147
3 118 22 243
3 96 10 236
3 236 203 96
3 236 160 203
3 203 250 136
3 136 29 252
3 136 250 29
3 228 75 60
3 228 144 29
3 29 250 228
3 250 75 228
3 117 144 228
3 228 162 117
3 60 162 228
3 30 15 4
3 4 148 30
3 30 148 52
3 52 225 30
3 30 225 15
3 31 174 78
3 239 165 235
3 165 132 235
3 235 48 239
3 36 55 69
3 69 134 36
3 255 134 69
3 197 55 100
3 197 69 55
3 26 167 113
3 26 177 167
3 94 177 26
3 113 135 26
3 26 135 94
3 50 196 244
3 32 135 50
3 113 196 50
3 50 135 113
3 244 232 50
3 50 232 32
3 15 225 178
3 225 124 178
3 178 56 15
3 124 56 178
3 138 238 208
3 24 238 138
3 106 24 138
3 208 17 138
3 138 17 106
3 53 104 102
3 102 65 114
3 254 65 102
3 102 104 254
3 114 8 102
3 8 53 102
3 153 242 98
3 153 34 242
3 157 34 153
3 153 145 157
3 98 132 153
3 153 132 165
3 165 145 153
3 40 34 157
3 40 172 34
3 40 157 182
3 182 105 40
3 246 172 40
3 40 105 246
3 20 199 242
3 242 202 20
3 202 175 20
3 47 199 20
3 20 175 47
3 49 160 14
3 215 90 83
3 215 83 71
3 71 158 215
3 194 90 215
3 215 158 22
3 22 116 215
3 215 164 194
3 215 101 164
3 215 116 101
3 2 236 10
3 160 236 2
3 10 14 2
3 2 14 160
3 253 136 252
3 203 136 253
3 96 203 253
3 252 17 253
3 253 17 96
3 31 78 234
3 234 78 91
3 155 31 234
3 234 9 155
3 234 209 9
3 234 91 209
3 25 132 97
3 25 235 132
3 25 97 209
3 128 100 108
3 128 197 100
3 108 216 128
3 128 216 255
3 255 69 128
3 69 197 128
3 124 238 28
3 28 56 124
3 226 183 92
3 92 183 163
3 92 163 125
3 125 15 92
3 15 56 92
3 49 14 142
3 142 14 61
3 142 61 5
3 142 75 49
3 142 5 107
3 107 75 142
3 110 200 93
3 200 61 93
3 93 13 110
3 245 13 93
3 93 3 245
3 82 3 93
3 235 25 220
3 220 78 174
3 220 174 48
3 48 235 220
3 198 134 226
3 226 92 198
3 181 134 198
3 198 92 56
3 233 14 10
3 233 10 82
3 82 93 233
3 61 14 233
3 233 93 61
3 170 220 25
3 209 91 170
3 170 25 209
3 91 78 170
3 78 220 170
3 181 198 214
3 214 238 181
3 214 28 238
3 56 28 214
3 214 198 56