ply
format ascii 1.0
comment https://github.com/mikedh/trimesh
element vertex 256
property float x
property float y
property float z
element face 508
property list uchar int vertex_indices
end_header
2.96877003 -0.83288145 -0.46248788
1.56805420 1.07598817 1.16297138
-0.99021286 1.05379415 -1.69381678
-2.37073660 0.92974007 -1.13699019
-2.52634263 0.04722698 -2.77012110
0.49395737 1.19865727 -0.89412779
1.47215450 1.03312135 -1.51802945
1.14024866 0.08799085 3.39869237
-0.37629774 0.00589620 3.53623056
2.89517927 0.12204190 2.45627403
-1.09418249 1.05516040 -1.63977420
-1.45844364 0.75209677 2.52872562
0.53040689 0.11527248 3.50542307
-2.59619117 0.94837558 -0.37933451
-0.84194446 1.14260173 -1.22539759
-2.12817025 0.15933736 -2.98567176
-1.85937774 0.46689835 -2.86066914
-1.24162889 0.66726190 -2.79657340
1.61907899 0.66104269 2.65600061
2.24877763 0.87089783 1.60745227
0.00969055 0.04420483 3.54902315
-0.55338371 1.04930294 1.86295033
3.36373997 0.69377011 0.05153426
-0.43278879 -0.82439655 -2.64027381
-0.53698218 0.37895188 -3.35092664
2.12100291 0.22234103 2.95722342
2.74603105 0.14294419 -2.57593369
-1.73048890 0.29527661 3.09821844
-1.00945354 0.16542356 -3.40663457
0.30076161 0.89651299 -2.45779347
-2.20951676 0.16792031 -2.93708992
3.03505421 0.50641698 1.85486627
3.73537087 0.23879570 -1.18302274
-3.89238167 0.07365007 -0.94655293
-0.42775145 0.30331707 3.42425442
1.22404623 0.83958215 2.39867139
0.21740623 0.27822185 -3.45661974
-2.94196939 0.83062053 -0.60173887
-3.19598126 0.24272406 -2.06577539
2.40487266 0.04134205 -2.85357285
-0.13206904 0.51733857 3.22977495
1.60156250 0.79137963 -2.36034966
2.15793538 0.76597440 -2.06917858
3.69335222 0.09306785 -1.42460239
2.45089579 0.43588766 -2.53832293
2.39668322 0.33026862 -2.70258522
2.27442145 0.46444100 -2.62346363
0.05086987 0.01592145 3.55058026
1.95682240 0.62137133 2.55671787
-0.21975425 1.09271538 -1.70804906
3.20166373 0.45938525 -1.73368239
-0.46669415 -1.23851097 0.18972825
-2.08063316 0.46917453 -2.73805094
-0.75510710 0.08865341 3.48052335
-3.39318013 0.67849988 -0.13246113
0.93429691 0.16749522 -3.42205930
-1.04870653 0.14957516 -3.40359998
0.49426880 1.22451305 0.53970802
-2.68641233 0.87175363 0.95354182
0.83283812 1.01043105 1.95409143
1.08328056 1.03435266 -1.74696171
-0.27666676 1.22512841 -0.64314896
3.66013026 0.28851312 1.27302253
2.33302164 0.13165374 -2.87664652
-3.43982458 0.13066392 1.83246326
-1.53832757 0.11424915 3.26908636
0.58233708 1.23338187 -0.20999216
0.41315752 0.19313215 3.48979425
-2.02762413 1.07810831 0.19302872
0.27234459 0.25256360 -3.46957779
-0.74088252 0.17109405 3.45696926
3.11067533 0.65811098 1.28727746
1.71516013 0.65860158 -2.61548114
-3.04058719 0.53967196 1.77190483
-3.63825274 0.03178334 -1.55063963
0.32516378 1.08990324 -1.70899665
-0.29195380 1.10908401 1.61179245
-3.46551919 0.56081921 -0.90059346
2.44811296 0.39945212 2.58958864
2.00011349 0.02159509 3.08606172
0.35120392 0.92929631 2.35261035
1.69995594 1.10999966 -0.64784604
-2.29456091 0.90471387 -1.39002049
2.71801853 0.77670741 1.42895174
-2.74475312 0.15097733 2.57371187
0.27538061 0.98870754 2.15560746
-0.43291366 -1.13266528 -1.44703472
-0.93841588 0.34778333 3.30954385
-3.83929062 0.12214733 1.06257117
0.80963701 0.53289783 3.13236499
2.30612350 0.94457960 1.13979340
2.54268336 0.28484496 2.64094281
-0.73696882 0.02778647 -3.49094152
-1.65486157 1.10287678 -0.81342107
3.24167609 0.06221420 -2.11704183
1.31152761 0.05085560 3.35623980
-1.07383716 0.91643465 -2.22113323
1.89439106 0.13517223 3.11489820
0.44878268 0.22924414 3.46850538
-3.24869800 0.73476839 0.33053637
0.89876157 0.06348958 -3.45763540
2.08948421 1.06905246 -0.07776859
-0.87586278 0.09540329 3.45627546
-3.45172930 0.33794707 1.58316183
-0.77781767 0.17289454 3.45034599
-0.51185340 0.56545210 3.13441253
-0.29420343 0.55020618 -3.17750335
0.70386642 1.15567970 -1.19517720
0.12678951 0.00763730 -3.54933834
3.65538359 0.34656084 1.16157782
-2.04046035 1.07660210 -0.15251230
0.59939706 0.69733483 -2.89812398
0.11677126 1.16167545 1.30052149
2.72875142 0.28154296 -2.49678731
-1.87177920 -0.00790192 3.14808202
1.84240615 1.09006035 -0.62621599
3.17451644 0.77090228 -0.18544355
1.26448023 0.83766681 -2.38844275
3.37347078 0.63405693 -0.77240866
0.29157820 0.06045895 3.53791475
-2.82363200 0.35707048 -2.33193517
-2.07935333 0.55073792 2.61351681
-2.74893737 0.05017270 -2.60260820
3.07608271 0.74634570 -0.90035075
-1.43167233 0.25798520 -3.23918295
-2.28565216 -0.40729982 -2.69174600
1.80510533 0.04714618 3.17522907
-3.07075357 0.39303613 2.02318764
0.33348298 0.12270274 -3.52174854
0.66935056 0.74251634 2.79376316
-2.58335996 0.83618832 -1.34661615
-1.36698449 -0.93214589 -2.03506756
1.10897505 0.31505889 3.29555297
-2.20145535 -0.99925983 0.89363986
-0.42614913 0.14918597 -3.50609136
3.30026150 0.12016495 -2.02479982
-0.38408798 0.94049519 -2.31115651
0.89665037 0.70158243 -2.83139110
-0.79560673 0.37103733 -3.31804442
2.53979445 0.93904412 -0.71026087
2.03546810 0.76438296 -2.16615009
3.89862752 0.05279548 0.93881088
-0.23758912 1.18112361 -1.13677621
2.92802167 0.75559485 -1.17861795
0.89971751 0.81875038 -2.56218171
0.46603289 0.45617062 3.28078175
1.87412047 0.07287133 -3.14036155
3.73565173 0.42815706 -0.61781794
-2.51084828 0.20785283 -2.72216320
-2.95955181 0.84960407 -0.14295685
-3.92793870 0.26899552 0.37249741
-4.03287315 0.07926153 -0.16333161
-2.66909194 0.85672277 -1.08828819
0.42205089 0.30417338 3.42411876
-2.81624889 0.77470505 1.28398097
3.30345631 0.17180057 1.99018824
-2.54299808 0.54621881 -2.28325343
0.25187063 0.49330896 3.25484753
3.37268448 0.61940062 0.86163670
-3.14942169 0.68499660 -1.08387661
-0.83297038 1.03970325 -1.82485127
1.62973237 0.32026041 -3.12095785
1.30393553 0.99793595 -1.80291355
-0.19505855 -0.41235855 -3.34787369
2.07419634 1.07198822 -0.02924238
0.96453136 0.44548395 3.20822740
-2.52994442 -0.97406375 0.03157599
2.35527539 0.19855231 -2.83253241
-3.43779302 0.35326400 1.58099270
-0.11467123 0.78476930 2.76001835
2.32020712 0.23453029 2.83257866
-1.81012738 0.83070517 2.12196636
-0.55806410 0.36846209 3.35741854
-0.12055071 0.32240263 -3.42925596
2.42578435 0.42684633 2.56944180
-0.19490679 0.03628629 3.54604387
-2.94981527 0.43920973 -2.08526206
2.67102504 0.09171567 -2.65412426
-1.49272609 0.25305161 -3.22119665
-3.52982378 -0.02684848 -1.73455930
-0.51294327 0.30184752 3.41615200
-0.54559410 0.21696094 -3.46411228
0.30178434 0.70851439 2.91239786
-0.11689350 0.00781630 -3.54954767
-1.24721944 -0.96334910 -1.97558689
1.25151896 0.60130572 -2.91213822
2.20747972 0.57620049 -2.48516560
-0.67144006 0.17185982 3.46759415
-2.91092873 0.86729610 0.00071887
-2.73669314 0.63189822 -1.90000153
-3.99792862 0.17792958 -0.18816246
-3.64439821 -0.12778860 1.49853635
-1.23027337 1.09003568 1.35287738
1.72701824 0.00248883 3.21182656
2.25371337 0.97452945 1.00734949
3.54288697 -0.55736005 0.65191150
2.90916562 0.56924999 -1.86156833
0.40781122 0.17339794 -3.49840093
-0.67131734 0.11885151 -3.48607183
0.12928465 0.03887816 3.54821420
-1.32627892 1.16830397 0.46327242
-2.18932319 1.04771221 0.18672931
-0.26013947 0.04680397 3.54121137
-0.64373046 0.95259613 -2.22635579
3.21982121 0.60154551 1.30566013
3.70377398 0.12084094 -1.38661540
-3.75191307 0.23757063 -1.14441419
-1.42272842 0.94260663 1.96533787
-0.95403314 0.33721569 -3.31501484
2.43650317 0.09205572 2.82342148
-1.65082955 -1.12355304 0.54414248
4.03336334 0.08838189 -0.11311068
0.10300197 -1.13775420 1.46212089
3.99889421 0.06843095 0.50237614
-0.78910470 0.15797836 -3.45394349
2.62666368 0.91428560 0.73111612
0.06212382 0.04813756 -3.54849100
-3.71277761 0.36713684 -0.95024401
-2.85823107 0.33796406 2.32268453
1.09102619 0.12204415 -3.40237141
2.02202964 0.40728858 2.84961295
2.57312870 0.58944023 2.16791010
2.74738050 0.73677355 -1.54929161
-2.43752599 0.50709862 2.43948793
-2.38010216 -0.88049829 1.40499640
-1.64956605 0.28788868 -3.13778234
-0.22524652 0.05230366 -3.54247427
1.29707336 1.18207777 0.11941684
0.61984396 0.95647496 -2.21808267
-1.08451343 0.72800332 2.72435951
4.00058508 0.06028954 0.50315917
2.87070870 0.76218373 -1.24893546
3.49694562 0.49869570 -1.08445048
-1.31650007 1.12109196 -1.05202460
2.73918080 0.26045981 2.50680304
1.92868054 0.42896053 2.87309027
-0.88920176 0.95573920 -2.14705229
-1.45148551 0.89440542 2.12523627
-0.85504711 0.29623100 -3.36697531
1.55693018 0.56220317 2.86107516
-2.68080068 0.54031479 -2.17065549
-2.10232425 0.91545618 1.55720246
0.20617807 0.13237680 3.52648211
3.63463092 0.48325649 -0.73620898
3.17966270 0.55996197 -1.51054847
-2.56844234 0.90629733 -0.94096762
-0.68397683 0.51249158 3.18226290
-3.86325431 0.04439546 -1.04540122
-2.31952429 0.99845713 0.63464481
1.80179775 0.28137171 -3.07689786
-0.27329811 0.96263689 -2.24863625
0.14234115 -0.85826933 -2.57626700
-0.68456423 0.71549213 -2.84786344
-0.80962038 0.82652760 -2.56491113
-1.47819376 0.24130102 3.23342395
0.08556797 0.09071008 -3.54088545
3 166 179 125
3 47 212 193
3 0 212 51
3 195 212 0
3 211 195 0
3 51 212 210
3 131 166 125
3 247 166 151
3 179 166 247
3 151 166 191
3 191 166 224
3 141 155 195
3 79 212 195
3 79 193 212
3 86 0 51
3 251 0 86
3 51 210 86
3 86 210 166
3 224 166 133
3 166 210 133
3 133 212 224
3 133 210 212
3 125 163 23
3 23 131 125
3 23 163 251
3 251 86 23
3 114 191 224
3 84 191 114
3 154 73 171
3 99 73 154
3 64 191 84
3 42 6 222
3 222 6 139
3 195 155 9
3 47 193 95
3 251 163 146
3 77 217 54
3 131 23 184
3 184 23 86
3 166 131 184
3 184 86 166
3 179 247 74
3 33 247 151
3 151 190 33
3 84 114 27
3 218 64 84
3 155 141 62
3 141 109 62
3 213 109 141
3 211 147 213
3 213 147 109
3 237 207 171
3 164 1 194
3 150 190 151
3 99 54 150
3 150 217 190
3 150 54 217
3 139 143 231
3 231 222 139
3 143 118 244
3 244 231 143
3 222 231 244
3 107 81 6
3 179 74 38
3 209 79 195
3 195 9 209
3 7 98 12
3 165 239 89
3 18 239 48
3 39 0 251
3 251 146 39
3 249 146 219
3 108 163 183
3 125 4 15
3 252 106 17
3 52 156 17
3 156 96 17
3 42 186 140
3 60 107 6
3 82 96 189
3 189 96 156
3 149 54 99
3 37 54 149
3 254 27 65
3 65 27 114
3 87 27 254
3 246 229 121
3 121 27 246
3 27 87 246
3 171 73 223
3 223 121 171
3 223 27 121
3 84 27 223
3 223 218 84
3 168 73 99
3 99 150 168
3 8 212 47
3 224 212 8
3 8 114 224
3 230 141 195
3 230 213 141
3 230 195 211
3 211 213 230
3 11 237 171
3 229 237 11
3 171 121 11
3 121 229 11
3 18 48 35
3 21 192 207
3 207 237 21
3 21 237 229
3 59 85 80
3 80 35 59
3 99 154 58
3 19 48 221
3 19 35 48
3 19 1 59
3 59 35 19
3 155 62 31
3 31 62 109
3 139 6 115
3 6 81 115
3 57 1 227
3 1 164 227
3 123 143 139
3 123 118 143
3 222 244 196
3 42 222 196
3 196 186 42
3 211 205 32
3 32 147 211
3 10 96 82
3 111 106 252
3 36 106 111
3 111 185 36
3 137 185 111
3 29 111 252
3 206 38 74
3 190 217 206
3 206 33 190
3 206 74 247
3 247 33 206
3 120 156 52
3 7 12 119
3 47 95 119
3 119 95 7
3 12 242 119
3 7 95 97
3 79 209 97
3 67 12 98
3 98 242 67
3 67 242 12
3 113 45 44
3 44 196 113
3 186 196 44
3 249 219 161
3 0 39 94
3 167 45 113
3 249 45 167
3 100 146 163
3 100 219 146
3 100 163 108
3 226 255 216
3 216 183 226
3 108 183 216
3 134 255 226
3 162 60 6
3 162 41 117
3 140 41 162
3 162 6 42
3 42 140 162
3 37 152 159
3 77 54 159
3 159 54 37
3 176 217 77
3 77 159 176
3 176 159 189
3 176 120 38
3 176 206 217
3 38 206 176
3 89 182 157
3 64 218 127
3 73 168 127
3 127 223 73
3 218 223 127
3 88 168 150
3 191 64 88
3 151 191 88
3 88 150 151
3 187 70 53
3 187 53 202
3 202 53 8
3 18 35 129
3 129 182 89
3 35 80 129
3 89 239 129
3 129 239 18
3 112 1 57
3 59 1 112
3 112 85 59
3 85 21 169
3 169 80 85
3 169 21 229
3 182 129 169
3 169 129 80
3 188 149 99
3 99 58 188
3 207 192 241
3 171 207 241
3 241 154 171
3 241 58 154
3 245 152 37
3 81 107 5
3 200 112 57
3 192 112 200
3 83 19 221
3 221 31 83
3 83 31 71
3 204 31 109
3 71 31 204
3 139 115 101
3 101 115 81
3 81 227 101
3 101 227 164
3 139 101 116
3 116 123 139
3 116 22 118
3 118 123 116
3 147 32 232
3 232 244 118
3 49 203 160
3 250 203 49
3 107 60 75
3 75 250 49
3 144 117 137
3 137 111 144
3 111 29 144
3 179 38 122
3 125 179 122
3 122 4 125
3 4 122 148
3 148 120 52
3 38 120 148
3 148 122 38
3 221 48 174
3 174 31 221
3 47 119 199
3 199 119 242
3 7 97 132
3 132 98 7
3 126 95 193
3 126 97 95
3 193 79 126
3 79 97 126
3 72 140 186
3 72 41 140
3 72 185 137
3 137 117 72
3 117 41 72
3 46 44 45
3 46 45 249
3 249 161 46
3 186 44 46
3 46 72 186
3 46 161 185
3 185 72 46
3 55 161 219
3 219 100 55
3 36 185 55
3 185 161 55
3 0 94 43
3 43 205 211
3 211 0 43
3 177 94 39
3 135 32 205
3 205 43 135
3 135 43 94
3 63 39 146
3 63 146 249
3 249 167 63
3 63 177 39
3 167 177 63
3 16 17 208
3 208 225 16
3 52 17 16
3 16 225 52
3 124 225 208
3 238 24 181
3 238 124 208
3 181 24 173
3 36 134 173
3 173 134 181
3 173 106 36
3 173 24 106
3 130 159 152
3 189 159 130
3 82 189 130
3 156 120 240
3 120 176 240
3 240 189 156
3 240 176 189
3 104 180 87
3 104 87 254
3 104 70 187
3 187 180 104
3 104 53 70
3 34 180 187
3 187 202 34
3 34 202 242
3 172 246 87
3 87 180 172
3 180 34 172
3 182 169 105
3 229 246 105
3 105 169 229
3 145 165 89
3 89 157 145
3 64 127 103
3 103 127 168
3 103 88 64
3 168 88 103
3 175 8 47
3 175 202 8
3 192 21 76
3 76 112 192
3 76 21 85
3 85 112 76
3 201 188 248
3 248 188 58
3 58 241 248
3 248 241 192
3 192 200 248
3 149 188 13
3 201 110 13
3 13 188 201
3 37 149 13
3 13 245 37
3 152 245 3
3 82 130 3
3 3 130 152
3 66 227 81
3 81 5 66
3 57 227 66
3 68 110 201
3 68 200 110
3 201 248 68
3 68 248 200
3 61 66 5
3 61 200 57
3 57 66 61
3 19 83 90
3 194 1 90
3 1 19 90
3 71 204 158
3 158 204 109
3 109 147 158
3 147 22 158
3 147 232 243
3 243 232 118
3 243 22 147
3 118 22 243
3 96 10 236
3 236 203 96
3 236 160 203
3 203 250 136
3 136 29 252
3 136 250 29
3 228 75 60
3 228 144 29
3 29 250 228
3 250 75 228
3 117 144 228
3 228 162 117
3 60 162 228
3 30 15 4
3 4 148 30
3 30 148 52
3 52 225 30
3 30 225 15
3 31 174 78
3 239 165 235
3 165 132 235
3 235 48 239
3 36 55 69
3 69 134 36
3 255 134 69
3 197 55 100
3 197 69 55
3 26 167 113
3 26 177 167
3 94 177 26
3 113 135 26
3 26 135 94
3 50 196 244
3 32 135 50
3 113 196 50
3 50 135 113
3 244 232 50
3 50 232 32
3 15 225 178
3 225 124 178
3 178 56 15
3 124 56 178
3 138 238 208
3 24 238 138
3 106 24 138
3 208 17 138
3 138 17 106
3 53 104 102
3 102 65 114
3 254 65 102
3 102 104 254
3 114 8 102
3 8 53 102
3 153 242 98
3 153 34 242
3 157 34 153
3 153 145 157
3 98 132 153
3 153 132 165
3 165 145 153
3 40 34 157
3 40 172 34
3 40 157 182
3 182 105 40
3 246 172 40
3 40 105 246
3 20 199 242
3 242 202 20
3 202 175 20
3 47 199 20
3 20 175 47
3 49 160 14
3 215 90 83
3 215 83 71
3 71 158 215
3 194 90 215
3 215 158 22
3 22 116 215
3 215 164 194
3 215 101 164
3 215 116 101
3 2 236 10
3 160 236 2
3 10 14 2
3 2 14 160
3 253 136 252
3 203 136 253
3 96 203 253
3 252 17 253
3 253 17 96
3 31 78 234
3 234 78 91
3 155 31 234
3 234 9 155
3 234 209 9
3 234 91 209
3 25 132 97
3 25 235 132
3 25 97 209
3 128 100 108
3 128 197 100
3 108 216 128
3 128 216 255
3 255 69 128
3 69 197 128
3 124 238 28
3 28 56 124
3 226 183 92
3 92 183 163
3 92 163 125
3 125 15 92
3 15 56 92
3 49 14 142
3 142 14 61
3 142 61 5
3 142 75 49
3 142 5 107
3 107 75 142
3 110 200 93
3 200 61 93
3 93 13 110
3 245 13 93
3 93 3 245
3 82 3 93
3 235 25 220
3 220 78 174
3 220 174 48
3 48 235 220
3 198 134 226
3 226 92 198
3 181 134 198
3 198 92 56
3 233 14 10
3 233 10 82
3 82 93 233
3 61 14 233
3 233 93 61
3 170 220 25
3 209 91 170
3 170 25 209
3 91 78 170
3 78 220 170
3 181 198 214
3 214 238 181
3 214 28 238
3 56 28 214
3 214 198 56