ply
format ascii 1.0
comment https://github.com/mikedh/trimesh
element vertex 256
property float x
property float y
property float z
element face 508
property list uchar int vertex_indices
end_header
3.13366795 -1.07951462 -0.24118151
1.65515053 1.39461017 0.60647470
-1.04521346 1.36584401 -0.88330376
-2.50241733 1.20505500 -0.59292579
-2.66666627 0.06121185 -1.44458270
0.52139384 1.55360401 -0.46627620
1.55392420 1.33904958 -0.79163289
1.20358288 0.11404673 1.77237451
-0.39719889 0.00764219 1.84409904
3.05598950 0.15818100 1.28091538
-1.15495801 1.36761487 -0.85512125
-1.53945172 0.97480792 1.31869805
0.55986792 0.14940701 1.82803333
-2.74039435 1.22920883 -0.19781809
-0.88870960 1.48094940 -0.63902920
-2.24637794 0.20652039 -1.55698955
-1.96265543 0.60515642 -1.49180233
-1.31059420 0.86485171 -1.45837724
1.70900941 0.85679084 1.38507020
2.37368417 1.12878835 0.83826584
0.01022881 0.05729477 1.85077012
-0.58412093 1.36002290 0.97150475
3.55057621 0.89920950 0.02687446
-0.45682770 -1.06851709 -1.37686896
-0.56680840 0.49116722 -1.74746537
2.23881245 0.28818071 1.54215419
2.89855719 0.18527286 -1.34331644
-1.82660758 0.38271400 1.61568117
-1.06552279 0.21440883 -1.77651632
0.31746718 1.16198874 -1.28170788
-2.33224273 0.21764493 -1.53165483
3.20363379 0.65637732 0.96728897
3.94284916 0.30950797 -0.61693120
-4.10858107 0.09545936 -0.49361524
-0.45151058 0.39313540 1.78570485
1.29203486 1.08819950 1.25087643
0.22948189 0.36060899 -1.80258298
-3.10537863 1.07658410 -0.31379911
-3.37349963 0.31459957 -1.07727551
2.53844929 0.05358427 -1.48810172
-0.13940470 0.67053306 1.68428636
1.69051993 1.02572322 -1.23089218
2.27779627 0.99279499 -1.07905018
3.89849639 0.12062714 -0.74291193
2.58702898 0.56496286 -1.32370293
2.52980518 0.42806789 -1.40936363
2.40075231 0.60197139 -1.36810267
0.05369540 0.02063612 1.85158217
2.06551242 0.80537200 1.33329558
-0.23196033 1.41629064 -0.89072573
3.37949753 0.59541857 -0.90409315
-0.49261630 -1.60525918 0.09894086
-2.19620013 0.60810667 -1.42785859
-0.79704893 0.11490548 1.81504834
-3.58165169 0.87941748 -0.06907678
0.98619169 0.21709396 -1.78456008
-1.10695612 0.19386740 -1.77493382
0.52172256 1.58711624 0.28145081
-2.83562708 1.12989759 0.49725983
0.87909746 1.30964029 1.01903367
1.14345050 1.34064555 -0.91101813
-0.29203400 1.58791387 -0.33539394
3.86342931 0.37394771 0.66386497
2.46260738 0.17063910 -1.50013435
-3.63088679 0.16935617 0.95560610
-1.62377274 0.14808063 1.70478678
0.61468256 1.59861124 -0.10950822
0.43610603 0.25032249 1.81988299
-2.14024687 1.39735806 0.10066200
0.28747177 0.32735282 -1.80934036
-0.78203428 0.22175847 1.80276525
3.28345537 0.85299098 0.67129868
1.81042731 0.85362685 -1.36394000
-3.20947433 0.69947982 0.92402565
-3.84033656 0.04119503 -0.80863869
0.34322476 1.41264582 -0.89121985
-0.30817014 1.43750620 0.84052914
-3.65800881 0.72688919 -0.46964794
2.58409142 0.51773798 1.35043728
2.11120820 0.02798984 1.60934174
0.37071127 1.20447981 1.22685623
1.79437864 1.43869305 -0.33784342
-2.42201042 1.17261803 -0.72487789
2.86898875 1.00670624 0.74518007
-2.89720845 0.19568478 1.34215784
0.29067641 1.28148389 1.12412167
-0.45695952 -1.46807051 -0.75461012
-0.99053943 0.45076904 1.72588480
-4.05254078 0.15831764 0.55411726
0.85460764 0.69069970 1.63348830
2.43421531 1.22428882 0.59438771
2.68391466 0.36919335 1.37721789
-0.77790320 0.03601461 -1.82048130
-1.74677956 1.42946100 -0.42418867
3.42173243 0.08063710 -1.10401022
1.38437533 0.06591497 1.75023615
-1.13348258 1.18780959 -1.15829253
1.99961340 0.17519948 1.62437952
0.47370997 0.29712799 1.80878115
-3.42914438 0.95234829 0.17237049
0.94868255 0.08229014 -1.80311263
2.20554304 1.38562059 -0.04055532
-0.92451191 0.12365414 1.80240345
-3.64345288 0.43802008 0.82559866
-0.82102096 0.22409213 1.79931128
-0.54028386 0.73289394 1.63455606
-0.31054470 0.71313345 -1.65702724
0.74296212 1.49789989 -0.62326962
0.13383193 0.00989886 -1.85093451
3.85841894 0.44918454 0.60574794
-2.15379596 1.39540589 -0.07953321
0.63269007 0.90382987 -1.51133454
0.12325722 1.50567126 0.67820531
2.88031769 0.36491355 -1.30204260
-1.97574568 -0.01024184 1.64168453
1.94474113 1.41284943 -0.32656363
3.35084248 0.99918211 -0.09670644
1.33471477 1.08571696 -1.24554229
3.56084752 0.82181412 -0.40280125
0.30777368 0.07836208 1.84497726
-2.98046851 0.46280631 -1.21607435
-2.19484949 0.71382260 1.36291552
-2.90162492 0.06502985 -1.35722697
3.24694109 0.96735376 -0.46952140
-1.51119339 0.33437988 -1.68919241
-2.41260695 -0.52790958 -1.40371108
1.90536845 0.06110712 1.65584135
-3.24131608 0.50942212 1.05506647
0.35200602 0.15903752 -1.83654678
0.70652908 0.96239048 1.45691168
-2.72685075 1.08380067 -0.70224309
-1.44291258 -1.20817327 -1.06126165
1.17057216 0.40835422 1.71858871
-2.32373357 -1.29516101 0.46602175
-0.44981927 0.19336297 -1.82838178
3.48357201 0.15574823 -1.05590713
-0.40542185 1.21899498 -1.20523846
0.94645411 0.90933526 -1.47653425
-0.83979809 0.48090905 -1.73031771
2.68086529 1.21711421 -0.37039194
2.14852643 0.99073231 -1.12961948
4.11517382 0.06842930 0.48957786
-0.25078583 1.53087842 -0.59281427
3.09065628 0.97934180 -0.61463416
0.94969159 1.06119895 -1.33614492
0.49191833 0.59125203 1.71088564
1.97821701 0.09445002 -1.63765836
3.94314575 0.55494303 -0.32218415
-2.65031147 0.26940227 -1.41957319
-3.12393785 1.10118902 -0.07455017
-4.14611292 0.34865054 0.19425263
-4.25687599 0.10273249 -0.08517534
-2.81734467 1.11041582 -0.56752837
0.44549337 0.39424530 1.78563416
-2.97267509 1.00411093 0.66957963
3.48694420 0.22267421 1.03785765
-2.68424678 0.70796531 -1.19068742
0.26586056 0.63938779 1.69736135
3.56001759 0.80281776 0.44933251
-3.32435369 0.88783807 -0.56522781
-0.87923706 1.34758055 -0.95163655
1.72025454 0.41509601 -1.62753952
1.37636161 1.29344511 -0.94019634
-0.20589294 -0.53446633 -1.74587333
2.18940592 1.38942564 -0.01524953
1.01810551 0.57740080 1.67304945
-2.67046809 -1.26250386 0.01646648
2.48609734 0.25734770 -1.47712946
-3.62874269 0.45787266 0.82446742
-0.12104055 1.01715541 1.43931425
2.44908118 0.30397949 1.47715342
-1.91066957 1.07669389 1.10657835
-0.58906132 0.47757122 1.75085068
-0.12724660 0.41787261 -1.78831303
2.56052279 0.55324417 1.33993101
-0.20573272 0.04703140 1.84921646
-3.11366034 0.56926864 -1.08743751
2.81938481 0.11887455 -1.38409185
-1.57563841 0.32798532 -1.67981279
-3.72588491 -0.03479886 -0.90455043
-0.54143429 0.39123070 1.78147948
-0.57589871 0.28120747 -1.80649018
0.31854671 0.91831988 1.51877820
-0.12338626 0.01013086 -1.85104370
-1.31649530 -1.24861634 -1.03024328
1.32103360 0.77936453 -1.51864278
2.33009243 0.74682516 -1.29598200
-0.70873463 0.22275099 1.80830598
-3.07261395 1.12412012 0.00037488
-2.88870049 0.81901616 -0.99082649
-4.21999073 0.23061815 -0.09812431
-3.84682345 -0.16562940 0.78146756
-1.29860795 1.41281736 0.70550823
1.82294416 0.00322583 1.67492640
2.37889409 1.26310742 0.52531987
3.73967361 -0.72240567 0.33996350
3.07075286 0.73781651 -0.97078407
0.43046278 0.22474460 -1.82437134
-0.70860517 0.15404585 -1.81794178
0.13646567 0.05039077 1.85034823
-1.39994609 1.51426256 0.24159063
-2.31092739 1.35796106 0.09737695
-0.27458873 0.06066358 1.84669638
-0.67948592 1.23467922 -1.16101611
3.39866376 0.77967536 0.68088502
3.90949726 0.15662439 -0.72310215
-3.96030998 0.30792013 -0.59679735
-1.50175273 1.22173154 1.02489853
-1.00702417 0.43707213 -1.72873771
2.57183695 0.11931529 1.47237813
-1.74252355 -1.45625997 0.28376332
4.25739336 0.11455356 -0.05898577
0.10872313 -1.47466636 0.76247734
4.22100973 0.08869475 0.26198271
-0.83293492 0.20475896 -1.80118728
2.77255964 1.18502414 0.38126770
0.06557444 0.06239207 -1.85049272
-3.91900110 0.47585353 -0.49554008
-3.01698923 0.43804210 1.21125019
1.15162635 0.15818392 -1.77429307
2.13434172 0.52789497 1.48603666
2.71605110 0.76398546 1.13053739
2.89998150 0.95494717 -0.80793571
-2.57291627 0.65726084 1.27216172
-2.51230288 -1.14123178 0.73268765
-1.74118996 0.37313834 -1.63631332
-0.23775765 0.06779184 -1.84735501
1.36911833 1.53211498 0.06227435
0.65427268 1.23970664 -1.15670168
-1.14475191 0.94357985 1.42071867
4.22279406 0.07814250 0.26239106
3.03015995 0.98788178 -0.65130389
3.69118071 0.64636964 -0.56552708
-1.38962400 1.45307004 -0.54861736
2.89132643 0.33758727 1.30726564
2.03580761 0.55598450 1.49827981
-0.93859178 1.23875296 -1.11966026
-1.53210711 1.15925705 1.10828352
-0.90254003 0.38395101 -1.75583446
1.64340866 0.72868299 1.49201417
-2.82970357 0.70031303 -1.13196909
-2.21909618 1.18654144 0.81206113
0.21763006 0.17157626 1.83901536
3.83651352 0.62635857 -0.38392356
3.35627460 0.72577810 -0.78773171
-2.71110439 1.17467046 -0.49070257
-0.72196782 0.66425073 1.65950942
-4.07783556 0.05754186 -0.54516333
-2.44836020 1.29412055 0.33095914
1.90187716 0.36469159 -1.60456276
-0.28847823 1.24769318 -1.17263508
0.15024738 -1.11242032 -1.34349024
-0.72258782 0.92736393 -1.48512423
-0.85459006 1.07127917 -1.33756828
-1.56029880 0.31275514 1.68618917
0.09032077 0.11757118 -1.84652650
3 166 179 125
3 47 212 193
3 0 212 51
3 195 212 0
3 211 195 0
3 51 212 210
3 131 166 125
3 247 166 151
3 179 166 247
3 151 166 191
3 191 166 224
3 141 155 195
3 79 212 195
3 79 193 212
3 86 0 51
3 251 0 86
3 51 210 86
3 86 210 166
3 224 166 133
3 166 210 133
3 133 212 224
3 133 210 212
3 125 163 23
3 23 131 125
3 23 163 251
3 251 86 23
3 114 191 224
3 84 191 114
3 154 73 171
3 99 73 154
3 64 191 84
3 42 6 222
3 222 6 139
3 195 155 9
3 47 193 95
3 251 163 146
3 77 217 54
3 131 23 184
3 184 23 86
3 166 131 184
3 184 86 166
3 179 247 74
3 33 247 151
3 151 190 33
3 84 114 27
3 218 64 84
3 155 141 62
3 141 109 62
3 213 109 141
3 211 147 213
3 213 147 109
3 237 207 171
3 164 1 194
3 150 190 151
3 99 54 150
3 150 217 190
3 150 54 217
3 139 143 231
3 231 222 139
3 143 118 244
3 244 231 143
3 222 231 244
3 107 81 6
3 179 74 38
3 209 79 195
3 195 9 209
3 7 98 12
3 165 239 89
3 18 239 48
3 39 0 251
3 251 146 39
3 249 146 219
3 108 163 183
3 125 4 15
3 252 106 17
3 52 156 17
3 156 96 17
3 42 186 140
3 60 107 6
3 82 96 189
3 189 96 156
3 149 54 99
3 37 54 149
3 254 27 65
3 65 27 114
3 87 27 254
3 246 229 121
3 121 27 246
3 27 87 246
3 171 73 223
3 223 121 171
3 223 27 121
3 84 27 223
3 223 218 84
3 168 73 99
3 99 150 168
3 8 212 47
3 224 212 8
3 8 114 224
3 230 141 195
3 230 213 141
3 230 195 211
3 211 213 230
3 11 237 171
3 229 237 11
3 171 121 11
3 121 229 11
3 18 48 35
3 21 192 207
3 207 237 21
3 21 237 229
3 59 85 80
3 80 35 59
3 99 154 58
3 19 48 221
3 19 35 48
3 19 1 59
3 59 35 19
3 155 62 31
3 31 62 109
3 139 6 115
3 6 81 115
3 57 1 227
3 1 164 227
3 123 143 139
3 123 118 143
3 222 244 196
3 42 222 196
3 196 186 42
3 211 205 32
3 32 147 211
3 10 96 82
3 111 106 252
3 36 106 111
3 111 185 36
3 137 185 111
3 29 111 252
3 206 38 74
3 190 217 206
3 206 33 190
3 206 74 247
3 247 33 206
3 120 156 52
3 7 12 119
3 47 95 119
3 119 95 7
3 12 242 119
3 7 95 97
3 79 209 97
3 67 12 98
3 98 242 67
3 67 242 12
3 113 45 44
3 44 196 113
3 186 196 44
3 249 219 161
3 0 39 94
3 167 45 113
3 249 45 167
3 100 146 163
3 100 219 146
3 100 163 108
3 226 255 216
3 216 183 226
3 108 183 216
3 134 255 226
3 162 60 6
3 162 41 117
3 140 41 162
3 162 6 42
3 42 140 162
3 37 152 159
3 77 54 159
3 159 54 37
3 176 217 77
3 77 159 176
3 176 159 189
3 176 120 38
3 176 206 217
3 38 206 176
3 89 182 157
3 64 218 127
3 73 168 127
3 127 223 73
3 218 223 127
3 88 168 150
3 191 64 88
3 151 191 88
3 88 150 151
3 187 70 53
3 187 53 202
3 202 53 8
3 18 35 129
3 129 182 89
3 35 80 129
3 89 239 129
3 129 239 18
3 112 1 57
3 59 1 112
3 112 85 59
3 85 21 169
3 169 80 85
3 169 21 229
3 182 129 169
3 169 129 80
3 188 149 99
3 99 58 188
3 207 192 241
3 171 207 241
3 241 154 171
3 241 58 154
3 245 152 37
3 81 107 5
3 200 112 57
3 192 112 200
3 83 19 221
3 221 31 83
3 83 31 71
3 204 31 109
3 71 31 204
3 139 115 101
3 101 115 81
3 81 227 101
3 101 227 164
3 139 101 116
3 116 123 139
3 116 22 118
3 118 123 116
3 147 32 232
3 232 244 118
3 49 203 160
3 250 203 49
3 107 60 75
3 75 250 49
3 144 117 137
3 137 111 144
3 111 29 144
3 179 38 122
3 125 179 122
3 122 4 125
3 4 122 148
3 148 120 52
3 38 120 148
3 148 122 38
3 221 48 174
3 174 31 221
3 47 119 199
3 199 119 242
3 7 97 132
3 132 98 7
3 126 95 193
3 126 97 95
3 193 79 126
3 79 97 126
3 72 140 186
3 72 41 140
3 72 185 137
3 137 117 72
3 117 41 72
3 46 44 45
3 46 45 249
3 249 161 46
3 186 44 46
3 46 72 186
3 46 161 185
3 185 72 46
3 55 161 219
3 219 100 55
3 36 185 55
3 185 161 55
3 0 94 43
3 43 205 211
3 211 0 43
3 177 94 39
3 135 32 205
3 205 43 135
3 135 43 94
3 63 39 146
3 63 146 249
3 249 167 63
3 63 177 39
3 167 177 63
3 16 17 208
3 208 225 16
3 52 17 16
3 16 225 52
3 124 225 208
3 238 24 181
3 238 124 208
3 181 24 173
3 36 134 173
3 173 134 181
3 173 106 36
3 173 24 106
3 130 159 152
3 189 159 130
3 82 189 130
3 156 120 240
3 120 176 240
3 240 189 156
3 240 176 189
3 104 180 87
3 104 87 254
3 104 70 187
3 187 180 104
3 104 53 70
3 34 180 187
3 187 202 34
3 34 202 242
3 172 246 87
3 87 180 172
3 180 34 172
3 182 169 105
3 229 246 105
3 105 169 229
3 145 165 89
3 89 157 145
3 64 127 103
3 103 127 168
3 103 88 64
3 168 88 103
3 175 8 47
3 175 202 8
3 192 21 76
3 76 112 192
3 76 21 85
3 85 112 76
3 201 188 248
3 248 188 58
3 58 241 248
3 248 241 192
3 192 200 248
3 149 188 13
3 201 110 13
3 13 188 201
3 37 149 13
3 13 245 37
3 152 245 3
3 82 130 3
3 3 130 152
3 66 227 81
3 81 5 66
3 57 227 66
3 68 110 201
3 68 200 110
3 201 248 68
3 68 248 200
3 61 66 5
3 61 200 57
3 57 66 61
3 19 83 90
3 194 1 90
3 1 19 90
3 71 204 158
3 158 204 109
3 109 147 158
3 147 22 158
3 147 232 243
3 243 232 118
3 243 22 147
3 118 22 243
3 96 10 236
3 236 203 96
3 236 160 203
3 203 250 136
3 136 29 252
3 136 250 29
3 228 75 60
3 228 144 29
3 29 250 228
3 250 75 228
3 117 144 228
3 228 162 117
3 60 162 228
3 30 15 4
3 4 148 30
3 30 148 52
3 52 225 30
3 30 225 15
3 31 174 78
3 239 165 235
3 165 132 235
3 235 48 239
3 36 55 69
3 69 134 36
3 255 134 69
3 197 55 100
3 197 69 55
3 26 167 113
3 26 177 167
3 94 177 26
3 113 135 26
3 26 135 94
3 50 196 244
3 32 135 50
3 113 196 50
3 50 135 113
3 244 232 50
3 50 232 32
3 15 225 178
3 225 124 178
3 178 56 15
3 124 56 178
3 138 238 208
3 24 238 138
3 106 24 138
3 208 17 138
3 138 17 106
3 53 104 102
3 102 65 114
3 254 65 102
3 102 104 254
3 114 8 102
3 8 53 102
3 153 242 98
3 153 34 242
3 157 34 153
3 153 145 157
3 98 132 153
3 153 132 165
3 165 145 153
3 40 34 157
3 40 172 34
3 40 157 182
3 182 105 40
3 246 172 40
3 40 105 246
3 20 199 242
3 242 202 20
3 202 175 20
3 47 199 20
3 20 175 47
3 49 160 14
3 215 90 83
3 215 83 71
3 71 158 215
3 194 90 215
3 215 158 22
3 22 116 215
3 215 164 194
3 215 101 164
3 215 116 101
3 2 236 10
3 160 236 2
3 10 14 2
3 2 14 160
3 253 136 252
3 203 136 253
3 96 203 253
3 252 17 253
3 253 17 96
3 31 78 234
3 234 78 91
3 155 31 234
3 234 9 155
3 234 209 9
3 234 91 209
3 25 132 97
3 25 235 132
3 25 97 209
3 128 100 108
3 128 197 100
3 108 216 128
3 128 216 255
3 255 69 128
3 69 197 128
3 124 238 28
3 28 56 124
3 226 183 92
3 92 183 163
3 92 163 125
3 125 15 92
3 15 56 92
3 49 14 142
3 142 14 61
3 142 61 5
3 142 75 49
3 142 5 107
3 107 75 142
3 110 200 93
3 200 61 93
3 93 13 110
3 245 13 93
3 93 3 245
3 82 3 93
3 235 25 220
3 220 78 174
3 220 174 48
3 48 235 220
3 198 134 226
3 226 92 198
3 181 134 198
3 198 92 56
3 233 14 10
3 233 10 82
3 82 93 233
3 61 14 233
3 233 93 61
3 170 220 25
3 209 91 170
3 170 25 209
3 91 78 170
3 78 220 170
3 181 198 214
3 214 238 181
3 214 28 238
3 56 28 214
3 214 198 56