ply
format ascii 1.0
comment https://github.com/mikedh/trimesh
element vertex 256
property float x
property float y
property float z
element face 508
property list uchar int vertex_indices
end_header
3.61941695 -0.81712186 -0.41535056
1.91171491 1.05562854 1.04443991
-1.20723176 1.03385448 -1.52118087
-2.89031649 0.91214776 -1.02110672
-3.08002543 0.04633337 -2.48778701
0.60221499 1.17597651 -0.80299717
1.79479754 1.01357281 -1.36330998
1.39014995 0.08632591 3.05229330
-0.45876858 0.00578464 3.17581367
3.52969766 0.11973265 2.20592737
-1.33398771 1.03519487 -1.47264636
-1.77808166 0.73786575 2.27099466
0.64665288 0.11309132 3.14814591
-3.16518211 0.93043059 -0.34067225
-1.02646816 1.12098169 -1.10050356
-2.59458828 0.15632240 -2.68136835
-2.26688600 0.45806378 -2.56910610
-1.51374900 0.65463609 -2.51154304
1.97392249 0.64853460 2.38529754
2.74162841 0.85441887 1.44361877
0.01181437 0.04336839 3.18730211
-0.67466539 1.02944827 1.67307603
4.10094976 0.68064272 0.04628183
-0.52764040 -0.80879748 -2.37117362
-0.65466923 0.37178141 -3.00939584
2.58585000 0.21813393 2.65581942
3.34786177 0.14023942 -2.31339121
-2.10974956 0.28968942 2.78244400
-1.23068917 0.16229343 -3.05942607
0.36667770 0.87954932 -2.20729208
-2.69376302 0.16474296 -2.63773799
3.70022821 0.49683464 1.66581595
4.55402899 0.23427725 -1.06244755
-4.74545097 0.07225648 -0.85007906
-0.52149910 0.29757777 3.07525015
1.49231279 0.82369572 2.15419579
0.26505381 0.27295738 -3.10431671
-3.58674264 0.81490368 -0.54040885
-3.89642477 0.23813128 -1.85522902
2.93193364 0.04055978 -2.56273317
-0.16101378 0.50754964 2.90059233
1.95256698 0.77640527 -2.11977983
2.63087678 0.75148076 -1.85828531
4.50280142 0.09130684 -1.27940512
2.98804355 0.42763990 -2.27961373
2.92194939 0.32401937 -2.42713428
2.77289248 0.45565292 -2.35607696
0.06201870 0.01562019 3.18870068
2.38568711 0.60961390 2.29613400
-0.26791644 1.07203925 -1.53396249
3.90335250 0.45069283 -1.55698335
-0.56897658 -1.21507609 0.17039090
-2.53663254 0.46029693 -2.45898533
-0.92059928 0.08697592 3.12578392
-4.13684273 0.66566145 -0.11896053
1.13906097 0.16432591 -3.07327867
-1.27854502 0.14674492 -3.05670094
0.60259467 1.20134306 0.48470029
-3.27517676 0.85525846 0.85635561
1.01536608 0.99131191 1.75492799
1.32069647 1.01478088 -1.56890917
-0.33730209 1.20194674 -0.57759839
4.46229839 0.28305393 1.14327455
2.84433556 0.12916262 -2.58345509
-4.19370937 0.12819153 1.64569628
-1.87547338 0.11208735 2.93589711
0.70996428 1.21004403 -0.18858950
0.50370669 0.18947774 3.13410997
-2.47200608 1.05770850 0.17335498
0.33203268 0.24778464 -3.11595416
-0.90325719 0.16785663 3.10463071
3.79242277 0.64565831 1.15607655
2.09106112 0.64613962 -2.34890819
-3.70697379 0.52946043 1.59131002
-4.43562603 0.03118194 -1.39259648
0.39642793 1.06928039 -1.53481352
-0.35593951 1.08809805 1.44751656
-4.22503567 0.55020750 -0.80880386
2.98465061 0.39189377 2.32565451
2.43846607 0.02118647 2.77152658
0.42817512 0.91171235 2.11282945
2.07252479 1.08899641 -0.58181679
-2.79744554 0.88759506 -1.24834788
3.31370974 0.76201069 1.28331125
-3.34630370 0.14812057 2.31139588
0.33573407 0.96999937 1.93590522
-0.52779269 -1.11123323 -1.29955113
-1.14408267 0.34120262 2.97223115
-4.68072414 0.11983608 0.95427263
0.98708016 0.52281445 2.81311059
2.81154251 0.92670643 1.02362430
3.09994745 0.27945518 2.37177467
-0.89848572 0.02726070 -3.13514042
-2.01754737 1.08200836 -0.73051620
3.95213413 0.06103700 -1.90127039
1.59896708 0.04989332 3.01416755
-1.30918348 0.89909405 -1.99475253
2.30957294 0.13261454 2.79742384
0.54713964 0.22490643 3.11499095
-3.96069527 0.72086525 0.29684770
1.09573758 0.06228824 -3.10522890
2.54742360 1.04882407 -0.06984232
-1.06782019 0.09359809 3.10400772
-4.20822334 0.33155251 1.42180407
-0.94828719 0.16962306 3.09868240
-0.62403315 0.55475271 2.81494927
-0.35868216 0.53979534 -2.85364819
0.85812843 1.13381219 -1.07336330
0.15457718 0.00749279 -3.18758535
4.45651150 0.34000328 1.04318833
-2.48765516 1.05623090 -0.13696805
0.73076320 0.68414003 -2.60274339
0.14236329 1.13969457 1.16797078
3.32679510 0.27621567 -2.24231172
-2.28200555 -0.00775240 2.82722545
2.24619484 1.06943452 -0.56239128
3.87025547 0.75631541 -0.16654292
1.54160857 0.82181662 -2.14500976
4.11281347 0.62205946 -0.69368380
0.35548159 0.05931496 3.17732620
-3.44247007 0.35031405 -2.09426141
-2.53507233 0.54031700 2.34714389
-3.35140514 0.04922334 -2.33734727
3.75024867 0.73222345 -0.80858588
-1.74544311 0.25310367 -2.90904140
-2.78658438 -0.39959297 -2.41739988
2.20071912 0.04625408 2.85160589
-3.74375153 0.38559917 1.81698179
0.40657037 0.12038098 -3.16280746
0.81604797 0.72846657 2.50901937
-3.14953899 0.82036614 -1.20936739
-1.66657794 -0.91450804 -1.82765079
1.35202229 0.30909741 2.95966625
-2.68393469 -0.98035204 0.80255896
-0.51954561 0.14636311 -3.14874625
4.02355957 0.11789121 -1.81842959
-0.46826616 0.92269933 -2.07560039
1.09316373 0.68830723 -2.54281211
-0.96997494 0.36401665 -2.97986531
3.09642553 0.92127573 -0.63787019
2.48156905 0.74991947 -1.94537330
4.75306559 0.05179650 0.84312612
-0.28966007 1.15877461 -1.02091455
3.56973815 0.74129760 -1.05849171
1.09690297 0.80325812 -2.30104089
0.56817043 0.44753903 2.94640040
2.28485990 0.07149248 -2.82029200
4.55437136 0.42005554 -0.55484921
-3.06113529 0.20391989 -2.44471693
-3.60817862 0.83352798 -0.12838651
-4.78880072 0.26390564 0.33453199
-4.91673279 0.07776176 -0.14668465
-3.25406051 0.84051204 -0.97736853
0.51454920 0.29841787 3.07512832
-3.43346858 0.76004624 1.15311599
4.02745438 0.16854979 1.78734577
-3.10033107 0.53588337 -2.05054140
0.30707154 0.48397467 2.92310929
4.11185503 0.60768050 0.77381760
-3.83966088 0.67203528 -0.97340661
-1.01552737 1.02003026 -1.63886011
1.98691070 0.31420049 -2.80286598
1.58971095 0.97905320 -1.61915827
-0.23780833 -0.40455598 -3.00665426
2.52878523 1.05170429 -0.02626196
1.17592180 0.43705457 2.88124084
-3.08441663 -0.95563269 0.02835773
2.87146664 0.19479534 -2.54383731
-4.19123316 0.34657961 1.41985595
-0.13980302 0.76992005 2.47871375
2.82871270 0.23009256 2.54387856
-2.20684195 0.81498677 1.90569293
-0.68037152 0.36149013 3.01522613
-0.14697106 0.31630218 -3.07974195
2.95742869 0.41876963 2.30756116
-0.23762329 0.03559969 3.18462682
-3.59630799 0.43089911 -1.87272954
3.25641704 0.08998024 -2.38361263
-1.81987762 0.24826340 -2.89288807
-4.30343342 -0.02634046 -1.55777085
-0.62536186 0.29613602 3.06797338
-0.66516858 0.21285564 -3.11104560
0.36792454 0.69510806 2.61556268
-0.14251232 0.00766840 -3.18777347
-1.52056491 -0.94512081 -1.77423263
1.52580667 0.58992791 -2.61532927
2.69127941 0.56529772 -2.23187447
-0.81859541 0.16860791 3.11417270
-3.54889894 0.85088527 0.00064561
-3.33647728 0.61994159 -1.70635104
-4.87413025 0.17456284 -0.16898470
-4.44311857 -0.12537061 1.34580362
-1.49990487 1.06941020 1.21499038
2.10551810 0.00244174 2.88447309
2.74764562 0.95608962 0.90467918
4.31935930 -0.54681379 0.58546788
3.54674935 0.55847877 -1.67183495
0.49718869 0.17011695 -3.14183950
-0.81844586 0.11660261 -3.13076711
0.15761916 0.03814251 3.18657565
-1.61695135 1.14619756 0.41605511
-2.66914344 1.02788758 0.16769764
-0.31715265 0.04591836 3.18028665
-0.78481287 0.93457133 -1.99944282
3.92548943 0.59016317 1.17258561
4.51550722 0.11855441 -1.24528980
-4.57419634 0.23307537 -1.02777398
-1.73453903 0.92477083 1.76502824
-1.16312265 0.33083498 -2.97714424
2.97049642 0.09031386 2.53565478
-2.01263165 -1.10229337 0.48868278
4.91733074 0.08670954 -0.10158230
0.12557627 -1.11622584 1.31309974
4.87530708 0.06713612 0.45117334
-0.96204793 0.15498912 -3.10191321
3.20233321 0.89698571 0.65659988
0.07573912 0.04722671 -3.18682432
-4.52648401 0.36018994 -0.85339397
-3.48465180 0.33156916 2.08595347
1.33013964 0.11973486 -3.05559731
2.46518540 0.39958194 2.55917692
3.13706541 0.57828695 1.94695401
3.34950686 0.72283250 -1.39138579
-2.97174335 0.49750343 2.19085217
-2.90173435 -0.86383766 1.26179743
-2.01109123 0.28244129 -2.81797576
-0.27461240 0.05131398 -3.18142080
1.58134496 1.15971065 0.10724573
0.75569135 0.93837672 -1.99201286
-1.32219946 0.71422815 2.44668937
4.87736845 0.05914876 0.45187658
3.49986410 0.74776185 -1.12164247
4.26334953 0.48925945 -0.97392195
-1.60502923 1.09987891 -0.94480091
3.33950996 0.25553143 2.25130653
2.35137749 0.42084384 2.58026147
-1.08408260 0.93765485 -1.92822194
-1.76959860 0.87748164 1.90862942
-1.04244244 0.29062578 -3.02380896
1.89815295 0.55156529 2.56947088
-3.26833510 0.53009111 -1.94941962
-2.56307769 0.89813411 1.39849043
0.25136483 0.12987199 3.16705871
4.43121052 0.47411239 -0.66117364
3.87652969 0.54936647 -1.35659146
-3.13135195 0.88914859 -0.84506303
-0.83387983 0.50279433 2.85792279
-4.70993996 0.04355542 -0.93885255
-2.82787991 0.97956449 0.56996101
2.19668674 0.27604765 -2.76329660
-0.33319518 0.94442207 -2.01945257
0.17353719 -0.84202933 -2.31369066
-0.83459592 0.70195377 -2.55760550
-0.98705983 0.81088817 -2.30349207
-1.80216026 0.23673517 2.90386939
0.10432137 0.08899368 -3.17999411
3 166 179 125
3 47 212 193
3 0 212 51
3 195 212 0
3 211 195 0
3 51 212 210
3 131 166 125
3 247 166 151
3 179 166 247
3 151 166 191
3 191 166 224
3 141 155 195
3 79 212 195
3 79 193 212
3 86 0 51
3 251 0 86
3 51 210 86
3 86 210 166
3 224 166 133
3 166 210 133
3 133 212 224
3 133 210 212
3 125 163 23
3 23 131 125
3 23 163 251
3 251 86 23
3 114 191 224
3 84 191 114
3 154 73 171
3 99 73 154
3 64 191 84
3 42 6 222
3 222 6 139
3 195 155 9
3 47 193 95
3 251 163 146
3 77 217 54
3 131 23 184
3 184 23 86
3 166 131 184
3 184 86 166
3 179 247 74
3 33 247 151
3 151 190 33
3 84 114 27
3 218 64 84
3 155 141 62
3 141 109 62
3 213 109 141
3 211 147 213
3 213 147 109
3 237 207 171
3 164 1 194
3 150 190 151
3 99 54 150
3 150 217 190
3 150 54 217
3 139 143 231
3 231 222 139
3 143 118 244
3 244 231 143
3 222 231 244
3 107 81 6
3 179 74 38
3 209 79 195
3 195 9 209
3 7 98 12
3 165 239 89
3 18 239 48
3 39 0 251
3 251 146 39
3 249 146 219
3 108 163 183
3 125 4 15
3 252 106 17
3 52 156 17
3 156 96 17
3 42 186 140
3 60 107 6
3 82 96 189
3 189 96 156
3 149 54 99
3 37 54 149
3 254 27 65
3 65 27 114
3 87 27 254
3 246 229 121
3 121 27 246
3 27 87 246
3 171 73 223
3 223 121 171
3 223 27 121
3 84 27 223
3 223 218 84
3 168 73 99
3 99 150 168
3 8 212 47
3 224 212 8
3 8 114 224
3 230 141 195
3 230 213 141
3 230 195 211
3 211 213 230
3 11 237 171
3 229 237 11
3 171 121 11
3 121 229 11
3 18 48 35
3 21 192 207
3 207 237 21
3 21 237 229
3 59 85 80
3 80 35 59
3 99 154 58
3 19 48 221
3 19 35 48
3 19 1 59
3 59 35 19
3 155 62 31
3 31 62 109
3 139 6 115
3 6 81 115
3 57 1 227
3 1 164 227
3 123 143 139
3 123 118 143
3 222 244 196
3 42 222 196
3 196 186 42
3 211 205 32
3 32 147 211
3 10 96 82
3 111 106 252
3 36 106 111
3 111 185 36
3 137 185 111
3 29 111 252
3 206 38 74
3 190 217 206
3 206 33 190
3 206 74 247
3 247 33 206
3 120 156 52
3 7 12 119
3 47 95 119
3 119 95 7
3 12 242 119
3 7 95 97
3 79 209 97
3 67 12 98
3 98 242 67
3 67 242 12
3 113 45 44
3 44 196 113
3 186 196 44
3 249 219 161
3 0 39 94
3 167 45 113
3 249 45 167
3 100 146 163
3 100 219 146
3 100 163 108
3 226 255 216
3 216 183 226
3 108 183 216
3 134 255 226
3 162 60 6
3 162 41 117
3 140 41 162
3 162 6 42
3 42 140 162
3 37 152 159
3 77 54 159
3 159 54 37
3 176 217 77
3 77 159 176
3 176 159 189
3 176 120 38
3 176 206 217
3 38 206 176
3 89 182 157
3 64 218 127
3 73 168 127
3 127 223 73
3 218 223 127
3 88 168 150
3 191 64 88
3 151 191 88
3 88 150 151
3 187 70 53
3 187 53 202
3 202 53 8
3 18 35 129
3 129 182 89
3 35 80 129
3 89 239 129
3 129 239 18
3 112 1 57
3 59 1 112
3 112 85 59
3 85 21 169
3 169 80 85
3 169 21 229
3 182 129 169
3 169 129 80
3 188 149 99
3 99 58 188
3 207 192 241
3 171 207 241
3 241 154 171
3 241 58 154
3 245 152 37
3 81 107 5
3 200 112 57
3 192 112 200
3 83 19 221
3 221 31 83
3 83 31 71
3 204 31 109
3 71 31 204
3 139 115 101
3 101 115 81
3 81 227 101
3 101 227 164
3 139 101 116
3 116 123 139
3 116 22 118
3 118 123 116
3 147 32 232
3 232 244 118
3 49 203 160
3 250 203 49
3 107 60 75
3 75 250 49
3 144 117 137
3 137 111 144
3 111 29 144
3 179 38 122
3 125 179 122
3 122 4 125
3 4 122 148
3 148 120 52
3 38 120 148
3 148 122 38
3 221 48 174
3 174 31 221
3 47 119 199
3 199 119 242
3 7 97 132
3 132 98 7
3 126 95 193
3 126 97 95
3 193 79 126
3 79 97 126
3 72 140 186
3 72 41 140
3 72 185 137
3 137 117 72
3 117 41 72
3 46 44 45
3 46 45 249
3 249 161 46
3 186 44 46
3 46 72 186
3 46 161 185
3 185 72 46
3 55 161 219
3 219 100 55
3 36 185 55
3 185 161 55
3 0 94 43
3 43 205 211
3 211 0 43
3 177 94 39
3 135 32 205
3 205 43 135
3 135 43 94
3 63 39 146
3 63 146 249
3 249 167 63
3 63 177 39
3 167 177 63
3 16 17 208
3 208 225 16
3 52 17 16
3 16 225 52
3 124 225 208
3 238 24 181
3 238 124 208
3 181 24 173
3 36 134 173
3 173 134 181
3 173 106 36
3 173 24 106
3 130 159 152
3 189 159 130
3 82 189 130
3 156 120 240
3 120 176 240
3 240 189 156
3 240 176 189
3 104 180 87
3 104 87 254
3 104 70 187
3 187 180 104
3 104 53 70
3 34 180 187
3 187 202 34
3 34 202 242
3 172 246 87
3 87 180 172
3 180 34 172
3 182 169 105
3 229 246 105
3 105 169 229
3 145 165 89
3 89 157 145
3 64 127 103
3 103 127 168
3 103 88 64
3 168 88 103
3 175 8 47
3 175 202 8
3 192 21 76
3 76 112 192
3 76 21 85
3 85 112 76
3 201 188 248
3 248 188 58
3 58 241 248
3 248 241 192
3 192 200 248
3 149 188 13
3 201 110 13
3 13 188 201
3 37 149 13
3 13 245 37
3 152 245 3
3 82 130 3
3 3 130 152
3 66 227 81
3 81 5 66
3 57 227 66
3 68 110 201
3 68 200 110
3 201 248 68
3 68 248 200
3 61 66 5
3 61 200 57
3 57 66 61
3 19 83 90
3 194 1 90
3 1 19 90
3 71 204 158
3 158 204 109
3 109 147 158
3 147 22 158
3 147 232 243
3 243 232 118
3 243 22 147
3 118 22 243
3 96 10 236
3 236 203 96
3 236 160 203
3 203 250 136
3 136 29 252
3 136 250 29
3 228 75 60
3 228 144 29
3 29 250 228
3 250 75 228
3 117 144 228
3 228 162 117
3 60 162 228
3 30 15 4
3 4 148 30
3 30 148 52
3 52 225 30
3 30 225 15
3 31 174 78
3 239 165 235
3 165 132 235
3 235 48 239
3 36 55 69
3 69 134 36
3 255 134 69
3 197 55 100
3 197 69 55
3 26 167 113
3 26 177 167
3 94 177 26
3 113 135 26
3 26 135 94
3 50 196 244
3 32 135 50
3 113 196 50
3 50 135 113
3 244 232 50
3 50 232 32
3 15 225 178
3 225 124 178
3 178 56 15
3 124 56 178
3 138 238 208
3 24 238 138
3 106 24 138
3 208 17 138
3 138 17 106
3 53 104 102
3 102 65 114
3 254 65 102
3 102 104 254
3 114 8 102
3 8 53 102
3 153 242 98
3 153 34 242
3 157 34 153
3 153 145 157
3 98 132 153
3 153 132 165
3 165 145 153
3 40 34 157
3 40 172 34
3 40 157 182
3 182 105 40
3 246 172 40
3 40 105 246
3 20 199 242
3 242 202 20
3 202 175 20
3 47 199 20
3 20 175 47
3 49 160 14
3 215 90 83
3 215 83 71
3 71 158 215
3 194 90 215
3 215 158 22
3 22 116 215
3 215 164 194
3 215 101 164
3 215 116 101
3 2 236 10
3 160 236 2
3 10 14 2
3 2 14 160
3 253 136 252
3 203 136 253
3 96 203 253
3 252 17 253
3 253 17 96
3 31 78 234
3 234 78 91
3 155 31 234
3 234 9 155
3 234 209 9
3 234 91 209
3 25 132 97
3 25 235 132
3 25 97 209
3 128 100 108
3 128 197 100
3 108 216 128
3 128 216 255
3 255 69 128
3 69 197 128
3 124 238 28
3 28 56 124
3 226 183 92
3 92 183 163
3 92 163 125
3 125 15 92
3 15 56 92
3 49 14 142
3 142 14 61
3 142 61 5
3 142 75 49
3 142 5 107
3 107 75 142
3 110 200 93
3 200 61 93
3 93 13 110
3 245 13 93
3 93 3 245
3 82 3 93
3 235 25 220
3 220 78 174
3 220 174 48
3 48 235 220
3 198 134 226
3 226 92 198
3 181 134 198
3 198 92 56
3 233 14 10
3 233 10 82
3 82 93 233
3 61 14 233
3 233 93 61
3 170 220 25
3 209 91 170
3 170 25 209
3 91 78 170
3 78 220 170
3 181 198 214
3 214 238 181
3 214 28 238
3 56 28 214
3 214 198 56