ply
format ascii 1.0
comment https://github.com/mikedh/trimesh
element vertex 256
property float x
property float y
property float z
element face 508
property list uchar int vertex_indices
end_header
2.70872855 -2.00566864 -0.15600410
1.43070459 2.59109592 0.39228767
-0.90347779 2.53765035 -0.57134980
-2.16307831 2.23891473 -0.38352382
-2.30505419 0.11372768 -0.93440336
0.45069051 2.88649631 -0.30160269
1.34320509 2.48786783 -0.51205409
1.04037166 0.21189149 1.14642978
-0.34333694 0.01419869 1.19282353
2.64158368 0.29389009 0.82853800
-0.99834049 2.54094028 -0.55312037
-1.33069515 1.81113029 0.85297704
0.48394731 0.27758861 1.18243170
-2.36878467 2.28379083 -0.12795521
-0.76819658 2.75150847 -0.41334498
-1.94175887 0.38370159 -1.00711179
-1.69651043 1.12434173 -0.96494657
-1.13287175 1.60683882 -0.94332612
1.47725999 1.59186220 0.89590877
2.05180192 2.09721613 0.54221773
0.00884174 0.10645000 1.19713867
-0.50491154 2.52683496 0.62840104
3.06910205 1.67067337 0.01738328
-0.39487979 -1.98523605 -0.89060390
-0.48994663 0.91255707 -1.13031769
1.93521929 0.53542119 0.99751574
2.50549984 0.34422505 -0.86890101
-1.57891130 0.71105796 1.04507542
-0.92103308 0.39835778 -1.14910889
0.27441719 2.15890026 -0.82905060
-2.01598001 0.40437025 -0.99072444
2.76920676 1.21950674 0.62567419
3.40818095 0.57504582 -0.39905131
-3.55143881 0.17735733 -0.31928650
-0.39028370 0.73042029 1.15505230
1.11682916 2.02180457 0.80910778
0.19836311 0.66998827 -1.16596961
-2.68427539 2.00022388 -0.20297553
-2.91603780 0.58450574 -0.69681704
2.19422412 0.09955612 -0.96255291
-0.12050080 1.24580729 1.08945143
1.46127784 1.90572762 -0.79618132
1.96891677 1.84454918 -0.69796497
3.36984277 0.22411744 -0.48053974
2.23621607 1.04966462 -0.85621434
2.18675208 0.79532260 -0.91162246
2.07519960 1.11842406 -0.88493353
0.04641406 0.03834058 1.19766390
1.78541970 1.49632931 0.86241925
-0.20050547 2.63137674 -0.57615054
2.92122245 1.10624933 -0.58479702
-0.42581531 -2.98246813 0.06399818
-1.89838552 1.12982297 -0.92358565
-0.68896550 0.21348698 1.17403269
-3.09596372 1.63390100 -0.04468112
0.85245967 0.40334660 -1.15431178
-0.95684785 0.36019313 -1.14808524
0.45097464 2.94875979 0.18205160
-2.45110321 2.09927702 0.32164392
0.75988787 2.43322730 0.65914434
0.98839349 2.49083304 -0.58927637
-0.25243288 2.95024157 -0.21694377
3.33953094 0.69477075 0.42940959
2.12866664 0.31703645 -0.97033596
-3.13852215 0.31465286 0.61811733
-1.40358186 0.27512428 1.10271180
0.53132880 2.97011685 -0.07083350
0.37696809 0.46508309 1.17715991
-1.85001981 2.59620142 0.06511148
0.24848929 0.60820049 -1.17034054
-0.67598689 0.41201296 1.16608751
2.83820415 1.58480227 0.43421796
1.56492519 1.58598375 -0.88224101
-2.77425504 1.29958844 0.59769005
-3.31956959 0.07653772 -0.52305394
0.29668194 2.62460494 -0.57647020
-0.26638088 2.67079401 0.54368174
-3.16196632 1.35051334 -0.30378366
2.23367691 0.96192390 0.87350702
1.82491887 0.05200331 1.04097486
0.32044116 2.23784590 0.79357070
1.55105281 2.67299914 -0.21852818
-2.09357500 2.17864871 -0.46887472
2.47994089 1.87039542 0.48200685
-2.50433373 0.36356974 0.86815161
0.25125939 2.38091445 0.72711873
-0.39499375 -2.72758055 -0.48810649
-0.85621786 0.83749980 1.11635876
-3.50299811 0.29414397 0.35842118
0.73871899 1.28327560 1.05659366
2.10412478 2.27464962 0.38446939
2.31996369 0.68593746 0.89082956
-0.67241597 0.06691282 -1.17754686
-1.50990832 2.65584660 -0.27437910
2.95773005 0.14981852 -0.71410996
1.19664788 0.12246577 1.13211000
-0.97977728 2.20687366 -0.74922150
1.72845685 0.32550937 1.05070186
0.40947276 0.55204469 1.16997886
-2.96413708 1.76940179 0.11149487
0.82003695 0.15288977 -1.16631222
1.90646136 2.57439399 -0.02623251
-0.79914391 0.22974142 1.16585350
-3.14938426 0.81381309 0.53402424
-0.70968682 0.41634876 1.16385341
-0.46701896 1.36166966 1.05728436
-0.26843345 1.32495606 -1.07181942
0.64221311 2.78300166 -0.40315118
0.11568372 0.01839145 -1.19724500
3.33520007 0.83455598 0.39181760
-1.86173153 2.59257412 -0.05144468
0.54689449 1.67925763 -0.97758061
0.10654299 2.79744029 0.43868539
2.48973370 0.67798585 -0.84220380
-1.70782566 -0.01902867 1.06189525
1.68102551 2.62498331 -0.21123204
2.89645314 1.85641599 -0.06255289
1.15372145 2.01719213 -0.80565751
3.07798052 1.52687764 -0.26054502
0.26603818 0.14559171 1.19339168
-2.57630348 0.85986429 -0.78659666
-1.89721799 1.32623649 0.88157839
-2.50815153 0.12082128 -0.87789875
2.80664134 1.79728103 -0.30370182
-1.30626881 0.62125629 -1.09262490
-2.08544660 -0.98082197 -0.90796620
1.64699185 0.11353309 1.07105231
-2.80177903 0.94647348 0.68245149
0.30427241 0.29548147 -1.18793857
0.61072057 1.78805947 0.94237816
-2.35707760 2.01363182 -0.45423380
-1.24724710 -2.24470806 -0.68645877
1.01183736 0.75869584 1.11163938
-2.00862479 -2.40632558 0.30143809
-0.38882172 0.35925594 -1.18265712
3.01118374 0.28937018 -0.68299526
-0.35044482 2.26481414 -0.77958769
0.81811064 1.68948627 -0.95507061
-0.72591770 0.89349800 -1.11922610
2.31732774 2.26131964 -0.23958163
1.85717666 1.84071684 -0.73067486
3.55713749 0.12713723 0.31667498
-0.21677813 2.84427333 -0.38345164
2.67154932 1.81955397 -0.39756548
0.82090914 1.97163939 -0.86426222
0.42521197 1.09850812 1.10665679
1.70996189 0.17548205 -1.05929101
3.40843725 1.03104842 -0.20839925
-2.29091716 0.50053209 -0.91822642
-2.70031786 2.04593825 -0.04822149
-3.58388114 0.64777029 0.12564896
-3.67962432 0.19087034 -0.05509420
-2.43529987 2.06308103 -0.36709592
0.38508248 0.73248237 1.15500653
-2.56956697 1.86557353 0.43310601
3.01409888 0.41371435 0.67132032
-2.32025075 1.31535399 -0.77017558
0.22980867 1.18794131 1.09790885
3.07726312 1.49158370 0.29064298
-2.87355638 1.64954591 -0.36560783
-0.76000851 2.50371790 -0.61554968
1.48698020 0.77122164 -1.05274582
1.18972075 2.40313768 -0.60814977
-0.17797291 -0.99300396 -1.12928796
1.89251268 2.58146334 -0.00986389
0.88004583 1.07277346 1.08218312
-2.30834055 -2.34565091 0.01065105
2.14897132 0.47813544 -0.95545566
-3.13666868 0.85069788 0.53329253
-0.10462691 1.88980925 0.93099552
2.11697483 0.56477427 0.95547122
-1.65157413 2.00042796 0.71577108
-0.50918198 0.88729656 1.13250756
-0.10999139 0.77638036 -1.15673935
2.21330428 1.02789211 0.86671120
-0.17783444 0.08738132 1.19613373
-2.69143414 1.05766451 -0.70339012
2.43706369 0.22086126 -0.89527589
-1.36197472 0.60937560 -1.08655787
-3.22063828 -0.06465404 -0.58509284
-0.46801335 0.72688144 1.15231919
-0.49780422 0.52246541 -1.16849697
0.27535033 1.70617926 0.98239541
-0.10665452 0.01882249 -1.19731557
-1.13797259 -2.31984878 -0.66639507
1.14189553 1.44800913 -0.98230785
2.01412129 1.38755310 -0.83828360
-0.61262703 0.41385698 1.16967154
-2.65595365 2.08854270 0.00024249
-2.49697971 1.52167928 -0.64089900
-3.64774084 0.42847368 -0.06347001
-3.32517695 -0.30772877 0.50547874
-1.12251091 2.62492371 0.45634580
1.57574475 0.00599338 1.08339727
2.05630517 2.34677219 0.33979407
3.23255706 -1.34218323 0.21989952
2.65434504 1.37081552 -0.62793487
0.37209007 0.41756099 -1.18006301
-0.61251509 0.28620726 -1.17590427
0.11796030 0.09362281 1.19686580
-1.21010709 2.81340218 0.15626873
-1.99755514 2.52300406 0.06298660
-0.23735325 0.11270902 1.19450366
-0.58734459 2.29395461 -0.75098318
2.93778944 1.44858658 0.44041872
3.37935185 0.29099804 -0.46772614
-3.42327404 0.57209575 -0.38602802
-1.29810834 2.26989865 0.66293794
-0.87046713 0.81205183 -1.11820412
2.22308421 0.22168012 0.95238233
-1.50622952 -2.70563722 0.18354741
3.68007159 0.21283314 -0.03815393
0.09397978 -2.73983502 0.49319527
3.64862180 0.16478914 0.16945900
-0.71998519 0.38042894 -1.16506684
2.39658809 2.20169854 0.24661642
0.05668225 0.11592045 -1.19695926
-3.38756680 0.88410521 -0.32053155
-2.60787201 0.81385398 0.78347623
0.99546069 0.29389551 -1.14767087
1.84491527 0.98079491 0.96121716
2.34774232 1.41943574 0.73126858
2.50673103 1.77423036 -0.52259928
-2.22401738 1.22114837 0.82287580
-2.17162323 -2.12033510 0.47392634
-1.50507677 0.69326705 -1.05842102
-0.20551665 0.12595287 -1.19492972
1.18345976 2.84657097 0.04028109
0.56555039 2.30329514 -0.74819249
-0.98951834 1.75311065 0.91896731
3.65016413 0.14518374 0.16972314
2.61925650 1.83542073 -0.42128465
3.19063997 1.20091307 -0.36580139
-1.20118475 2.69971061 -0.35486364
2.49924946 0.62721539 0.84558219
1.75974286 1.03298330 0.96913642
-0.81131452 2.30152321 -0.72423285
-1.32434654 2.15382504 0.71687400
-0.78015149 0.71335626 -1.13573122
1.42055511 1.35384607 0.96508354
-2.44598293 1.30113649 -0.73219466
-1.91817677 2.20451736 0.52526772
0.18811844 0.31877765 1.18953526
3.31626511 1.16373384 -0.24833432
2.90114856 1.34844887 -0.50953066
-2.34346652 2.18246198 -0.31740248
-0.62406570 1.23413515 1.07342494
-3.52486277 0.10690907 -0.35262948
-2.11635160 2.40439272 0.21407521
1.64397407 0.67757344 -1.03788376
-0.24935929 2.31813359 -0.75849873
0.12987316 -2.06680536 -0.86901349
-0.62460166 1.72298241 -0.96062696
-0.73870379 1.99036777 -0.86518294
-1.34871531 0.58107889 1.09068239
0.07807286 0.21843968 -1.19439375
3 166 179 125
3 47 212 193
3 0 212 51
3 195 212 0
3 211 195 0
3 51 212 210
3 131 166 125
3 247 166 151
3 179 166 247
3 151 166 191
3 191 166 224
3 141 155 195
3 79 212 195
3 79 193 212
3 86 0 51
3 251 0 86
3 51 210 86
3 86 210 166
3 224 166 133
3 166 210 133
3 133 212 224
3 133 210 212
3 125 163 23
3 23 131 125
3 23 163 251
3 251 86 23
3 114 191 224
3 84 191 114
3 154 73 171
3 99 73 154
3 64 191 84
3 42 6 222
3 222 6 139
3 195 155 9
3 47 193 95
3 251 163 146
3 77 217 54
3 131 23 184
3 184 23 86
3 166 131 184
3 184 86 166
3 179 247 74
3 33 247 151
3 151 190 33
3 84 114 27
3 218 64 84
3 155 141 62
3 141 109 62
3 213 109 141
3 211 147 213
3 213 147 109
3 237 207 171
3 164 1 194
3 150 190 151
3 99 54 150
3 150 217 190
3 150 54 217
3 139 143 231
3 231 222 139
3 143 118 244
3 244 231 143
3 222 231 244
3 107 81 6
3 179 74 38
3 209 79 195
3 195 9 209
3 7 98 12
3 165 239 89
3 18 239 48
3 39 0 251
3 251 146 39
3 249 146 219
3 108 163 183
3 125 4 15
3 252 106 17
3 52 156 17
3 156 96 17
3 42 186 140
3 60 107 6
3 82 96 189
3 189 96 156
3 149 54 99
3 37 54 149
3 254 27 65
3 65 27 114
3 87 27 254
3 246 229 121
3 121 27 246
3 27 87 246
3 171 73 223
3 223 121 171
3 223 27 121
3 84 27 223
3 223 218 84
3 168 73 99
3 99 150 168
3 8 212 47
3 224 212 8
3 8 114 224
3 230 141 195
3 230 213 141
3 230 195 211
3 211 213 230
3 11 237 171
3 229 237 11
3 171 121 11
3 121 229 11
3 18 48 35
3 21 192 207
3 207 237 21
3 21 237 229
3 59 85 80
3 80 35 59
3 99 154 58
3 19 48 221
3 19 35 48
3 19 1 59
3 59 35 19
3 155 62 31
3 31 62 109
3 139 6 115
3 6 81 115
3 57 1 227
3 1 164 227
3 123 143 139
3 123 118 143
3 222 244 196
3 42 222 196
3 196 186 42
3 211 205 32
3 32 147 211
3 10 96 82
3 111 106 252
3 36 106 111
3 111 185 36
3 137 185 111
3 29 111 252
3 206 38 74
3 190 217 206
3 206 33 190
3 206 74 247
3 247 33 206
3 120 156 52
3 7 12 119
3 47 95 119
3 119 95 7
3 12 242 119
3 7 95 97
3 79 209 97
3 67 12 98
3 98 242 67
3 67 242 12
3 113 45 44
3 44 196 113
3 186 196 44
3 249 219 161
3 0 39 94
3 167 45 113
3 249 45 167
3 100 146 163
3 100 219 146
3 100 163 108
3 226 255 216
3 216 183 226
3 108 183 216
3 134 255 226
3 162 60 6
3 162 41 117
3 140 41 162
3 162 6 42
3 42 140 162
3 37 152 159
3 77 54 159
3 159 54 37
3 176 217 77
3 77 159 176
3 176 159 189
3 176 120 38
3 176 206 217
3 38 206 176
3 89 182 157
3 64 218 127
3 73 168 127
3 127 223 73
3 218 223 127
3 88 168 150
3 191 64 88
3 151 191 88
3 88 150 151
3 187 70 53
3 187 53 202
3 202 53 8
3 18 35 129
3 129 182 89
3 35 80 129
3 89 239 129
3 129 239 18
3 112 1 57
3 59 1 112
3 112 85 59
3 85 21 169
3 169 80 85
3 169 21 229
3 182 129 169
3 169 129 80
3 188 149 99
3 99 58 188
3 207 192 241
3 171 207 241
3 241 154 171
3 241 58 154
3 245 152 37
3 81 107 5
3 200 112 57
3 192 112 200
3 83 19 221
3 221 31 83
3 83 31 71
3 204 31 109
3 71 31 204
3 139 115 101
3 101 115 81
3 81 227 101
3 101 227 164
3 139 101 116
3 116 123 139
3 116 22 118
3 118 123 116
3 147 32 232
3 232 244 118
3 49 203 160
3 250 203 49
3 107 60 75
3 75 250 49
3 144 117 137
3 137 111 144
3 111 29 144
3 179 38 122
3 125 179 122
3 122 4 125
3 4 122 148
3 148 120 52
3 38 120 148
3 148 122 38
3 221 48 174
3 174 31 221
3 47 119 199
3 199 119 242
3 7 97 132
3 132 98 7
3 126 95 193
3 126 97 95
3 193 79 126
3 79 97 126
3 72 140 186
3 72 41 140
3 72 185 137
3 137 117 72
3 117 41 72
3 46 44 45
3 46 45 249
3 249 161 46
3 186 44 46
3 46 72 186
3 46 161 185
3 185 72 46
3 55 161 219
3 219 100 55
3 36 185 55
3 185 161 55
3 0 94 43
3 43 205 211
3 211 0 43
3 177 94 39
3 135 32 205
3 205 43 135
3 135 43 94
3 63 39 146
3 63 146 249
3 249 167 63
3 63 177 39
3 167 177 63
3 16 17 208
3 208 225 16
3 52 17 16
3 16 225 52
3 124 225 208
3 238 24 181
3 238 124 208
3 181 24 173
3 36 134 173
3 173 134 181
3 173 106 36
3 173 24 106
3 130 159 152
3 189 159 130
3 82 189 130
3 156 120 240
3 120 176 240
3 240 189 156
3 240 176 189
3 104 180 87
3 104 87 254
3 104 70 187
3 187 180 104
3 104 53 70
3 34 180 187
3 187 202 34
3 34 202 242
3 172 246 87
3 87 180 172
3 180 34 172
3 182 169 105
3 229 246 105
3 105 169 229
3 145 165 89
3 89 157 145
3 64 127 103
3 103 127 168
3 103 88 64
3 168 88 103
3 175 8 47
3 175 202 8
3 192 21 76
3 76 112 192
3 76 21 85
3 85 112 76
3 201 188 248
3 248 188 58
3 58 241 248
3 248 241 192
3 192 200 248
3 149 188 13
3 201 110 13
3 13 188 201
3 37 149 13
3 13 245 37
3 152 245 3
3 82 130 3
3 3 130 152
3 66 227 81
3 81 5 66
3 57 227 66
3 68 110 201
3 68 200 110
3 201 248 68
3 68 248 200
3 61 66 5
3 61 200 57
3 57 66 61
3 19 83 90
3 194 1 90
3 1 19 90
3 71 204 158
3 158 204 109
3 109 147 158
3 147 22 158
3 147 232 243
3 243 232 118
3 243 22 147
3 118 22 243
3 96 10 236
3 236 203 96
3 236 160 203
3 203 250 136
3 136 29 252
3 136 250 29
3 228 75 60
3 228 144 29
3 29 250 228
3 250 75 228
3 117 144 228
3 228 162 117
3 60 162 228
3 30 15 4
3 4 148 30
3 30 148 52
3 52 225 30
3 30 225 15
3 31 174 78
3 239 165 235
3 165 132 235
3 235 48 239
3 36 55 69
3 69 134 36
3 255 134 69
3 197 55 100
3 197 69 55
3 26 167 113
3 26 177 167
3 94 177 26
3 113 135 26
3 26 135 94
3 50 196 244
3 32 135 50
3 113 196 50
3 50 135 113
3 244 232 50
3 50 232 32
3 15 225 178
3 225 124 178
3 178 56 15
3 124 56 178
3 138 238 208
3 24 238 138
3 106 24 138
3 208 17 138
3 138 17 106
3 53 104 102
3 102 65 114
3 254 65 102
3 102 104 254
3 114 8 102
3 8 53 102
3 153 242 98
3 153 34 242
3 157 34 153
3 153 145 157
3 98 132 153
3 153 132 165
3 165 145 153
3 40 34 157
3 40 172 34
3 40 157 182
3 182 105 40
3 246 172 40
3 40 105 246
3 20 199 242
3 242 202 20
3 202 175 20
3 47 199 20
3 20 175 47
3 49 160 14
3 215 90 83
3 215 83 71
3 71 158 215
3 194 90 215
3 215 158 22
3 22 116 215
3 215 164 194
3 215 101 164
3 215 116 101
3 2 236 10
3 160 236 2
3 10 14 2
3 2 14 160
3 253 136 252
3 203 136 253
3 96 203 253
3 252 17 253
3 253 17 96
3 31 78 234
3 234 78 91
3 155 31 234
3 234 9 155
3 234 209 9
3 234 91 209
3 25 132 97
3 25 235 132
3 25 97 209
3 128 100 108
3 128 197 100
3 108 216 128
3 128 216 255
3 255 69 128
3 69 197 128
3 124 238 28
3 28 56 124
3 226 183 92
3 92 183 163
3 92 163 125
3 125 15 92
3 15 56 92
3 49 14 142
3 142 14 61
3 142 61 5
3 142 75 49
3 142 5 107
3 107 75 142
3 110 200 93
3 200 61 93
3 93 13 110
3 245 13 93
3 93 3 245
3 82 3 93
3 235 25 220
3 220 78 174
3 220 174 48
3 48 235 220
3 198 134 226
3 226 92 198
3 181 134 198
3 198 92 56
3 233 14 10
3 233 10 82
3 82 93 233
3 61 14 233
3 233 93 61
3 170 220 25
3 209 91 170
3 170 25 209
3 91 78 170
3 78 220 170
3 181 198 214
3 214 238 181
3 214 28 238
3 56 28 214
3 214 198 56