ply
format ascii 1.0
comment https://github.com/mikedh/trimesh
element vertex 256
property float x
property float y
property float z
element face 508
property list uchar int vertex_indices
end_header
3.17289209 -2.84138584 -0.53690040
1.67586803 3.67074752 1.35008895
-1.05829644 3.59503245 -1.96634531
-2.53374004 3.17182040 -1.31992745
-2.70004487 0.16111547 -3.21582294
0.52792013 4.08923483 -1.03798950
1.57337463 3.52450681 -1.76227450
1.21864820 0.30018193 3.94552875
-0.40217063 0.02011497 4.10519648
3.09424138 0.41634753 2.85147905
-1.16941452 3.59969354 -1.90360749
-1.55872107 2.56578779 2.93558788
0.56687582 0.39325356 4.06943226
-2.77469587 3.23539543 -0.44036797
-0.89983356 3.89800072 -1.42255938
-2.27449584 0.54358149 -3.46605468
-1.98722196 1.59282970 -3.32093978
-1.32699883 2.27637267 -3.24653125
1.73040104 2.25515556 3.08334064
2.40339565 2.97107911 1.86608517
0.01035684 0.15080534 4.12004709
-0.59143239 3.57971048 2.16269183
3.59501863 2.36680555 0.05982592
-0.46254578 -2.81243944 -3.06508350
-0.57390314 1.29279923 -3.89007759
2.26683569 0.75851929 3.43302917
2.93483829 0.48765591 -2.99039125
-1.84947121 1.00733995 3.59670973
-1.07885993 0.56434458 -3.95474887
0.32144094 3.05846572 -2.85324311
-2.36143541 0.57286233 -3.40965629
3.24373364 1.72764802 2.15330696
3.99220181 0.81465459 -1.37336659
-4.16000795 0.25125816 -1.09884965
-0.45716211 1.03477013 3.97520375
1.30820727 2.86424541 2.78460836
0.23235431 0.94915748 -4.01277637
-3.14424872 2.83367252 -0.69855630
-3.41572547 0.82805628 -2.39815068
2.57022309 0.14103892 -3.31270170
-0.14114963 1.76490736 3.74943328
1.71168017 2.69980192 -2.74012089
2.30630732 2.61313152 -2.40210152
3.94729376 0.31750217 -1.65381539
2.61941075 1.48703647 -2.94672918
2.56147075 1.12671566 -3.13742065
2.43080258 1.58444643 -3.04556870
0.05436750 0.05431625 4.12185478
2.09136653 2.11981630 2.96808386
-0.23486377 3.72781253 -1.98286748
3.42179871 1.56719863 -2.01262522
-0.49878237 -4.22519636 0.22025479
-2.22369003 1.60059500 -3.17859292
-0.80702561 0.30244225 4.04052591
-3.62648320 2.31471109 -0.15377362
0.99853587 0.57141209 -3.97265530
-1.12081182 0.51027757 -3.95122623
0.52825296 4.17744207 0.62654495
-2.87112045 2.97399879 1.10696292
0.89010108 3.44709873 2.26849723
1.15776312 3.52870750 -2.02804112
-0.29568937 4.17954159 -0.74662912
3.91178775 0.98426622 1.47784698
2.49343181 0.44913846 -3.33948779
-3.67633462 0.44576165 2.12729955
-1.64409757 0.38976243 3.79506969
0.62237650 4.20769835 -0.24377909
0.44156477 0.65887284 4.05128860
-2.16703653 3.67798042 0.22408628
0.29107004 0.86162400 -4.02781963
-0.79182297 0.58368957 4.01318216
3.32455444 2.24515414 1.49439538
1.83308840 2.24682784 -3.03630209
-3.24964714 1.84109795 2.05699730
-3.88840604 0.10842928 -1.80013144
0.34752089 3.71821928 -1.98396766
-0.31202748 3.78365421 1.87112355
-3.70379591 1.91324210 -1.04549539
2.61643648 1.36273611 3.00624347
2.13763428 0.07367193 3.58259726
0.37535146 3.17030644 2.73113632
1.81683886 3.78677797 -0.75208199
-2.45232677 3.08644295 -1.61366940
2.90489984 2.64974737 1.65886462
-2.93347263 0.51506108 2.98781228
0.29431480 3.37298846 2.50243640
-0.46267927 -3.86410236 -1.67985702
-1.00293803 1.18646729 3.84203672
-4.10326672 0.41670719 1.23353481
0.86530477 1.81798780 3.63635039
2.46468449 3.22244549 1.32318175
2.71750903 0.97175229 3.06586027
-0.78764015 0.09479390 -4.05262041
-1.76864398 3.76247835 -0.94429737
3.46456218 0.21224457 -2.45766568
1.40170360 0.17349452 3.89624572
-1.14767039 3.12642860 -2.57850504
2.02464271 0.46114182 3.61607337
0.47963938 0.78206939 4.02657461
-3.47206712 2.50667191 0.38371840
0.96055722 0.21659552 -4.01395559
2.23314977 3.64708638 -0.09028126
-0.93608403 0.32546955 4.01237679
-3.68905783 1.15291083 1.83788645
-0.83129764 0.58983195 4.00549316
-0.54704660 1.92904711 3.63872743
-0.31443179 1.87703562 -3.68875122
0.75226176 3.94261622 -1.38747656
0.13550711 0.02605475 -4.12041330
3.90671468 1.18229675 1.34847116
-2.18075490 3.67284203 -0.17705093
0.64060944 2.37896681 -3.36442089
0.12480003 3.96307111 1.50977039
2.91637063 0.96048743 -2.89851093
-2.00047612 -0.02695750 3.65459633
1.96908343 3.71875501 -0.72697175
3.39278483 2.62994313 -0.21528070
1.35142136 2.85771108 -2.77273393
3.60541844 2.16309357 -0.89668626
0.31162608 0.20625651 4.10715151
-3.01777482 1.21815062 -2.70713449
-2.22232223 1.87884963 3.03402162
-2.93794465 0.17116481 -3.02135801
3.28758311 2.54616785 -1.04521370
-1.53010905 0.88011986 -3.76035500
-2.44280553 -1.38950861 -3.12483740
1.92921793 0.16083978 3.68611121
-3.28188753 1.34084785 2.34871078
0.35641208 0.41860199 -4.08838415
0.71537274 2.53310394 3.24326897
-2.76098275 2.85266733 -1.56328142
-1.46097350 -3.18002772 -2.36250186
1.18522418 1.07482743 3.82579470
-2.35281968 -3.40898776 1.03742301
-0.45544964 0.50894988 -4.07020807
3.52717566 0.40994427 -2.35058212
-0.41049650 3.20851159 -2.68301249
0.95830089 2.39345741 -3.28695083
-0.85030985 1.26579869 -3.85190511
2.71442151 3.20356107 -0.82453907
2.17541957 2.60770226 -2.51467514
4.16668320 0.18011247 1.08986199
-0.25392491 4.02941847 -1.31967914
3.12934208 2.57772160 -1.36825299
0.96157885 2.79317760 -2.97442675
0.49807566 1.55623198 3.80864692
2.00297832 0.24860150 -3.64563370
3.99250197 1.46066332 -0.71722245
-2.68348527 0.70909262 -3.16014862
-3.16304016 2.89843512 -0.16595806
-4.19800949 0.91768163 0.43243080
-4.31015921 0.27040175 -0.18961103
-2.85260940 2.92272091 -1.26338959
0.45106962 1.03769135 3.97504616
-3.00988412 2.64291620 1.49056852
3.53059030 0.58609986 2.31040192
-2.71784544 1.86343265 -2.65061998
0.26918834 1.68292987 3.77853990
3.60457826 2.11309338 1.00027072
-3.36596465 2.33687472 -1.25826824
-0.89024246 3.54696107 -2.11846280
1.74178696 1.09257245 -3.62310791
1.39358950 3.40447140 -2.09299541
-0.20847009 -1.40676653 -3.88653374
2.21681070 3.65710163 -0.03394736
1.03084910 1.51977420 3.72441864
-2.70389438 -3.32303119 0.03665645
2.51721573 0.67736381 -3.28827596
-3.67416358 1.20516467 1.83536828
-0.12255562 2.67725062 3.20409441
2.47973633 0.80010313 3.28832960
-1.93458533 2.83396149 2.46338272
-0.59643459 1.25701320 3.89761400
-0.12883934 1.09988070 -3.98100996
2.59257269 1.45619178 2.98285508
-0.20830788 0.12379116 4.11658859
-3.15263414 1.49836969 -2.42077255
2.85467505 0.31288919 -3.08116269
-1.59536064 0.86328882 -3.73947453
-3.77252197 -0.09159394 -2.01364326
-0.54821140 1.02975667 3.96579742
-0.58310723 0.74016505 -4.02147436
0.32253394 2.41710591 3.38099146
-0.12493068 0.02666540 -4.12065601
-1.33297384 -3.28647780 -2.29345107
1.33756900 2.05136228 -3.38068986
2.35925817 1.96571541 -2.88501906
-0.71760589 0.58630198 4.02551651
-3.11107373 2.95879173 0.00083454
-2.92485833 2.15572906 -2.20570445
-4.27281189 0.60700905 -0.21843706
-3.89497423 -0.43595245 1.73964512
-1.31486261 3.71867061 1.57055008
1.84576190 0.00849069 3.72859693
2.40867066 3.32461977 1.16942811
3.78648329 -1.90144098 0.75680155
3.10918951 1.94200373 -2.16108751
0.43585086 0.59154934 -4.06128025
-0.71747476 0.40546343 -4.04696751
0.13817380 0.13263334 4.11910820
-1.41746914 3.98568416 0.53781116
-2.33985305 3.57428360 0.21677335
-0.27802575 0.15967235 4.11097860
-0.68799102 3.24979401 -2.58456779
3.44120479 2.05218029 1.51573575
3.95843244 0.41225043 -1.60971642
-4.00988102 0.81047523 -1.32854593
-1.52055013 3.21571469 2.28155303
-1.01962900 1.15041566 -3.84838772
2.60402846 0.31404927 3.27769899
-1.76433480 -3.83301568 0.63169289
4.31068277 0.30151594 -0.13130975
0.11008401 -3.88146305 1.69737053
4.27384377 0.23345308 0.58320653
-0.84336078 0.53894520 -4.00966978
2.80726361 3.11909723 0.84874988
0.06639524 0.16422191 -4.11942959
-3.96805501 1.25249207 -1.10313463
-3.05475283 1.15296876 2.69639540
1.16604125 0.41635522 -3.94979978
2.16105723 1.38947022 3.30810475
2.75004768 2.01088285 2.51671839
2.93628049 2.51351261 -1.79856658
-2.60512161 1.72997355 2.83199215
-2.54374933 -3.00383139 1.63105488
-1.76298440 0.98213589 -3.64263940
-0.24073367 0.17843461 -4.11244488
1.38625562 4.03267336 0.13863054
0.66246223 3.26302671 -2.57496357
-1.15908074 2.48359275 3.16269851
4.27565098 0.20567857 0.58411556
3.06808829 2.60019946 -1.44988441
3.73738313 1.70130682 -1.25893438
-1.40701795 3.82461977 -1.22129118
2.92751718 0.88856202 2.91013789
2.06128979 1.46340442 3.33535957
-0.95034015 3.26051664 -2.49250460
-1.55128455 3.05127573 2.46717858
-0.91383708 1.01059592 -3.90870857
1.66397917 1.91796350 3.32141113
-2.86512280 1.84329093 -2.51990557
-2.24687266 3.12309074 1.80775034
0.22035414 0.45160517 4.09387970
3.88453507 1.64863575 -0.85466218
3.39828491 1.91031742 -1.75358987
-2.74503946 3.09184504 -1.09236562
-0.73100466 1.74837160 3.69427681
-4.12887764 0.15145569 -1.21360219
-2.47900653 3.40624928 0.73675668
1.92568302 0.95990318 -3.57195878
-0.29208910 3.28404808 -2.61043310
0.15212803 -2.92799687 -2.99077845
-0.73163241 2.44091058 -3.30607343
-0.86528695 2.81970954 -2.97759533
-1.57982910 0.82320154 3.75366926
0.09145131 0.30945861 -4.11060047
3 166 179 125
3 47 212 193
3 0 212 51
3 195 212 0
3 211 195 0
3 51 212 210
3 131 166 125
3 247 166 151
3 179 166 247
3 151 166 191
3 191 166 224
3 141 155 195
3 79 212 195
3 79 193 212
3 86 0 51
3 251 0 86
3 51 210 86
3 86 210 166
3 224 166 133
3 166 210 133
3 133 212 224
3 133 210 212
3 125 163 23
3 23 131 125
3 23 163 251
3 251 86 23
3 114 191 224
3 84 191 114
3 154 73 171
3 99 73 154
3 64 191 84
3 42 6 222
3 222 6 139
3 195 155 9
3 47 193 95
3 251 163 146
3 77 217 54
3 131 23 184
3 184 23 86
3 166 131 184
3 184 86 166
3 179 247 74
3 33 247 151
3 151 190 33
3 84 114 27
3 218 64 84
3 155 141 62
3 141 109 62
3 213 109 141
3 211 147 213
3 213 147 109
3 237 207 171
3 164 1 194
3 150 190 151
3 99 54 150
3 150 217 190
3 150 54 217
3 139 143 231
3 231 222 139
3 143 118 244
3 244 231 143
3 222 231 244
3 107 81 6
3 179 74 38
3 209 79 195
3 195 9 209
3 7 98 12
3 165 239 89
3 18 239 48
3 39 0 251
3 251 146 39
3 249 146 219
3 108 163 183
3 125 4 15
3 252 106 17
3 52 156 17
3 156 96 17
3 42 186 140
3 60 107 6
3 82 96 189
3 189 96 156
3 149 54 99
3 37 54 149
3 254 27 65
3 65 27 114
3 87 27 254
3 246 229 121
3 121 27 246
3 27 87 246
3 171 73 223
3 223 121 171
3 223 27 121
3 84 27 223
3 223 218 84
3 168 73 99
3 99 150 168
3 8 212 47
3 224 212 8
3 8 114 224
3 230 141 195
3 230 213 141
3 230 195 211
3 211 213 230
3 11 237 171
3 229 237 11
3 171 121 11
3 121 229 11
3 18 48 35
3 21 192 207
3 207 237 21
3 21 237 229
3 59 85 80
3 80 35 59
3 99 154 58
3 19 48 221
3 19 35 48
3 19 1 59
3 59 35 19
3 155 62 31
3 31 62 109
3 139 6 115
3 6 81 115
3 57 1 227
3 1 164 227
3 123 143 139
3 123 118 143
3 222 244 196
3 42 222 196
3 196 186 42
3 211 205 32
3 32 147 211
3 10 96 82
3 111 106 252
3 36 106 111
3 111 185 36
3 137 185 111
3 29 111 252
3 206 38 74
3 190 217 206
3 206 33 190
3 206 74 247
3 247 33 206
3 120 156 52
3 7 12 119
3 47 95 119
3 119 95 7
3 12 242 119
3 7 95 97
3 79 209 97
3 67 12 98
3 98 242 67
3 67 242 12
3 113 45 44
3 44 196 113
3 186 196 44
3 249 219 161
3 0 39 94
3 167 45 113
3 249 45 167
3 100 146 163
3 100 219 146
3 100 163 108
3 226 255 216
3 216 183 226
3 108 183 216
3 134 255 226
3 162 60 6
3 162 41 117
3 140 41 162
3 162 6 42
3 42 140 162
3 37 152 159
3 77 54 159
3 159 54 37
3 176 217 77
3 77 159 176
3 176 159 189
3 176 120 38
3 176 206 217
3 38 206 176
3 89 182 157
3 64 218 127
3 73 168 127
3 127 223 73
3 218 223 127
3 88 168 150
3 191 64 88
3 151 191 88
3 88 150 151
3 187 70 53
3 187 53 202
3 202 53 8
3 18 35 129
3 129 182 89
3 35 80 129
3 89 239 129
3 129 239 18
3 112 1 57
3 59 1 112
3 112 85 59
3 85 21 169
3 169 80 85
3 169 21 229
3 182 129 169
3 169 129 80
3 188 149 99
3 99 58 188
3 207 192 241
3 171 207 241
3 241 154 171
3 241 58 154
3 245 152 37
3 81 107 5
3 200 112 57
3 192 112 200
3 83 19 221
3 221 31 83
3 83 31 71
3 204 31 109
3 71 31 204
3 139 115 101
3 101 115 81
3 81 227 101
3 101 227 164
3 139 101 116
3 116 123 139
3 116 22 118
3 118 123 116
3 147 32 232
3 232 244 118
3 49 203 160
3 250 203 49
3 107 60 75
3 75 250 49
3 144 117 137
3 137 111 144
3 111 29 144
3 179 38 122
3 125 179 122
3 122 4 125
3 4 122 148
3 148 120 52
3 38 120 148
3 148 122 38
3 221 48 174
3 174 31 221
3 47 119 199
3 199 119 242
3 7 97 132
3 132 98 7
3 126 95 193
3 126 97 95
3 193 79 126
3 79 97 126
3 72 140 186
3 72 41 140
3 72 185 137
3 137 117 72
3 117 41 72
3 46 44 45
3 46 45 249
3 249 161 46
3 186 44 46
3 46 72 186
3 46 161 185
3 185 72 46
3 55 161 219
3 219 100 55
3 36 185 55
3 185 161 55
3 0 94 43
3 43 205 211
3 211 0 43
3 177 94 39
3 135 32 205
3 205 43 135
3 135 43 94
3 63 39 146
3 63 146 249
3 249 167 63
3 63 177 39
3 167 177 63
3 16 17 208
3 208 225 16
3 52 17 16
3 16 225 52
3 124 225 208
3 238 24 181
3 238 124 208
3 181 24 173
3 36 134 173
3 173 134 181
3 173 106 36
3 173 24 106
3 130 159 152
3 189 159 130
3 82 189 130
3 156 120 240
3 120 176 240
3 240 189 156
3 240 176 189
3 104 180 87
3 104 87 254
3 104 70 187
3 187 180 104
3 104 53 70
3 34 180 187
3 187 202 34
3 34 202 242
3 172 246 87
3 87 180 172
3 180 34 172
3 182 169 105
3 229 246 105
3 105 169 229
3 145 165 89
3 89 157 145
3 64 127 103
3 103 127 168
3 103 88 64
3 168 88 103
3 175 8 47
3 175 202 8
3 192 21 76
3 76 112 192
3 76 21 85
3 85 112 76
3 201 188 248
3 248 188 58
3 58 241 248
3 248 241 192
3 192 200 248
3 149 188 13
3 201 110 13
3 13 188 201
3 37 149 13
3 13 245 37
3 152 245 3
3 82 130 3
3 3 130 152
3 66 227 81
3 81 5 66
3 57 227 66
3 68 110 201
3 68 200 110
3 201 248 68
3 68 248 200
3 61 66 5
3 61 200 57
3 57 66 61
3 19 83 90
3 194 1 90
3 1 19 90
3 71 204 158
3 158 204 109
3 109 147 158
3 147 22 158
3 147 232 243
3 243 232 118
3 243 22 147
3 118 22 243
3 96 10 236
3 236 203 96
3 236 160 203
3 203 250 136
3 136 29 252
3 136 250 29
3 228 75 60
3 228 144 29
3 29 250 228
3 250 75 228
3 117 144 228
3 228 162 117
3 60 162 228
3 30 15 4
3 4 148 30
3 30 148 52
3 52 225 30
3 30 225 15
3 31 174 78
3 239 165 235
3 165 132 235
3 235 48 239
3 36 55 69
3 69 134 36
3 255 134 69
3 197 55 100
3 197 69 55
3 26 167 113
3 26 177 167
3 94 177 26
3 113 135 26
3 26 135 94
3 50 196 244
3 32 135 50
3 113 196 50
3 50 135 113
3 244 232 50
3 50 232 32
3 15 225 178
3 225 124 178
3 178 56 15
3 124 56 178
3 138 238 208
3 24 238 138
3 106 24 138
3 208 17 138
3 138 17 106
3 53 104 102
3 102 65 114
3 254 65 102
3 102 104 254
3 114 8 102
3 8 53 102
3 153 242 98
3 153 34 242
3 157 34 153
3 153 145 157
3 98 132 153
3 153 132 165
3 165 145 153
3 40 34 157
3 40 172 34
3 40 157 182
3 182 105 40
3 246 172 40
3 40 105 246
3 20 199 242
3 242 202 20
3 202 175 20
3 47 199 20
3 20 175 47
3 49 160 14
3 215 90 83
3 215 83 71
3 71 158 215
3 194 90 215
3 215 158 22
3 22 116 215
3 215 164 194
3 215 101 164
3 215 116 101
3 2 236 10
3 160 236 2
3 10 14 2
3 2 14 160
3 253 136 252
3 203 136 253
3 96 203 253
3 252 17 253
3 253 17 96
3 31 78 234
3 234 78 91
3 155 31 234
3 234 9 155
3 234 209 9
3 234 91 209
3 25 132 97
3 25 235 132
3 25 97 209
3 128 100 108
3 128 197 100
3 108 216 128
3 128 216 255
3 255 69 128
3 69 197 128
3 124 238 28
3 28 56 124
3 226 183 92
3 92 183 163
3 92 163 125
3 125 15 92
3 15 56 92
3 49 14 142
3 142 14 61
3 142 61 5
3 142 75 49
3 142 5 107
3 107 75 142
3 110 200 93
3 200 61 93
3 93 13 110
3 245 13 93
3 93 3 245
3 82 3 93
3 235 25 220
3 220 78 174
3 220 174 48
3 48 235 220
3 198 134 226
3 226 92 198
3 181 134 198
3 198 92 56
3 233 14 10
3 233 10 82
3 82 93 233
3 61 14 233
3 233 93 61
3 170 220 25
3 209 91 170
3 170 25 209
3 91 78 170
3 78 220 170
3 181 198 214
3 214 238 181
3 214 28 238
3 56 28 214
3 214 198 56