ply
format ascii 1.0
comment https://github.com/mikedh/trimesh
element vertex 256
property float x
property float y
property float z
element face 508
property list uchar int vertex_indices
end_header
3.05388618 -0.95282781 -0.26066563
1.61301112 1.23094523 0.65546936
-1.01860285 1.20555496 -0.95466238
-2.43870711 1.06363547 -0.64082593
-2.59877419 0.05402832 -1.56128490
0.50811940 1.37128031 -0.50394481
1.51436198 1.18190491 -0.85558581
1.17294025 0.10066275 1.91555762
-0.38708639 0.00674534 1.99307644
2.97818565 0.13961761 1.38439548
-1.12555325 1.20711803 -0.92420310
-1.50025797 0.86040902 1.42523050
0.54561394 0.13187329 1.97571278
-2.67062521 1.08495462 -0.21379903
-0.86608344 1.30715215 -0.69065380
-2.18918610 0.18228412 -1.68277264
-1.91268706 0.53413808 -1.61231911
-1.27722704 0.76335675 -1.57619369
1.66549885 0.75624192 1.49696457
2.31325150 0.99631906 0.90598595
0.00996839 0.05057093 2.00028658
-0.56924951 1.20041692 1.04998875
3.46018004 0.79368252 0.02904554
-0.44519708 -0.94312096 -1.48810077
-0.55237776 0.43352613 -1.88863611
2.18181324 0.25436118 1.66673863
2.82476139 0.16353010 -1.45183754
-1.78010297 0.33780047 1.74620569
-1.03839505 0.18924682 -1.92003393
0.30938461 1.02562320 -1.38525200
-2.27286482 0.19210313 -1.65539110
3.12207079 0.57934791 1.04543245
3.84246612 0.27318555 -0.66677064
-4.00397825 0.08425669 -0.53349245
-0.44001532 0.34699887 1.92996490
1.25914025 0.96049351 1.35192978
0.22363938 0.31828961 -1.94820654
-3.02631736 0.95024127 -0.33914968
-3.28761172 0.27767965 -1.16430426
2.47382164 0.04729587 -1.60831964
-0.13585553 0.59184247 1.82035315
1.64748013 0.90534914 -1.33033097
2.21980453 0.87628520 -1.16622233
3.79924250 0.10647090 -0.80292881
2.52116442 0.49866149 -1.43063962
2.46539736 0.37783185 -1.52322054
2.33963037 0.53132689 -1.47862625
0.05232834 0.01821436 2.00116420
2.01292562 0.71085733 1.44100726
-0.22605473 1.25008130 -0.96268392
3.29345703 0.52554303 -0.97713131
-0.48007452 -1.41687357 0.10693389
-2.14028597 0.53674209 -1.54320955
-0.77675647 0.10142071 1.96167886
-3.49046469 0.77621317 -0.07465722
0.96108377 0.19161682 -1.92872763
-1.07877350 0.17111602 -1.91832376
0.50843978 1.40085971 0.30418810
-2.76343322 0.99729806 0.53743148
0.85671604 1.15594697 1.10135734
1.11433887 1.18331361 -0.98461568
-0.28459895 1.40156376 -0.36248907
3.76506829 0.33006296 0.71749598
2.39991069 0.15061370 -1.62132418
-3.53844619 0.14948131 1.03280580
-1.58243227 0.13070258 1.84250963
0.59903300 1.41100574 -0.11835496
0.42500299 0.22094582 1.96690416
-2.08575726 1.23337066 0.10879409
0.28015286 0.28893623 -1.95550990
-0.76212406 0.19573393 1.94840348
3.19986010 0.75288796 0.72553027
1.76433468 0.75344920 -1.47412729
-3.12776256 0.61739212 0.99867404
-3.74256349 0.03636058 -0.87396538
0.33448642 1.24686432 -0.96321803
-0.30032426 1.26880729 0.90843213
-3.56487751 0.64158487 -0.50758892
2.51830149 0.45697871 1.45953381
2.05745792 0.02470508 1.73935401
0.36127314 1.06312776 1.32596898
1.74869466 1.26985478 -0.36513644
-2.36034727 1.03500509 -0.78343791
2.79594564 0.88856393 0.80538017
-2.82344675 0.17272013 1.45058548
0.28327593 1.13109493 1.21493506
-0.44532555 -1.29578459 -0.81557202
-0.96532077 0.39786887 1.86531222
-3.94936514 0.13973822 0.59888220
0.83284974 0.60964239 1.76545131
2.37224150 1.08061194 0.64240593
2.61558342 0.32586655 1.48847783
-0.75809813 0.03178810 -1.96755075
-1.70230734 1.26170623 -0.45845720
3.33461666 0.07117391 -1.19319892
1.34912980 0.05817950 1.89163077
-1.10462463 1.04841375 -1.25186646
1.94870424 0.15463889 1.75560677
0.46164954 0.26225844 1.95490539
-3.34184003 0.84058511 0.18629561
0.92452955 0.07263295 -1.94877899
2.14939094 1.22301066 -0.04383163
-0.90097427 0.10914267 1.94801247
-3.55069232 0.38661608 0.89229548
-0.80011815 0.19779372 1.94467044
-0.52652854 0.64688492 1.76660538
-0.30263838 0.62944347 -1.79089200
0.72404665 1.32211339 -0.67362112
0.13042463 0.00873718 -2.00046420
3.76018548 0.39647034 0.65468395
-2.09896135 1.23164761 -0.08595838
0.61658210 0.79776061 -1.63342929
0.12011915 1.32897270 0.73299485
2.80698633 0.32208902 -1.40722954
-1.92544413 -0.00903990 1.77430964
1.89522898 1.24704409 -0.35294539
3.26553154 0.88192278 -0.10451897
1.30073357 0.95830232 -1.34616470
3.47019005 0.72536987 -0.43534195
0.29993790 0.06916587 1.99402571
-2.90458703 0.40849352 -1.31431615
-2.13896966 0.63005173 1.47302008
-2.82775092 0.05739826 -1.46687186
3.16427565 0.85382968 -0.50745219
-1.47271919 0.29513863 -1.82565558
-2.35118318 -0.46595657 -1.51711130
1.85685873 0.05393587 1.78961015
-3.15879369 0.44963869 1.14030111
0.34304413 0.14037362 -1.98491406
0.68854123 0.84944886 1.57460988
-2.65742636 0.95661092 -0.75897449
-1.40617669 -1.06638765 -1.14699674
1.14076996 0.36043167 1.85742676
-2.26457238 -1.14316690 0.50366980
-0.43836707 0.17067079 -1.97608948
3.39488173 0.13747035 -1.14120972
-0.39510000 1.07593942 -1.30260491
0.92235786 0.80261993 -1.59581757
-0.81841725 0.42447183 -1.87010324
2.61261177 1.07427931 -0.40031445
2.09382606 0.87446457 -1.22087693
4.01040316 0.06039876 0.52912891
-0.24440093 1.35122168 -0.64070535
3.01196980 0.86441082 -0.66428798
0.92551291 0.93666166 -1.44408679
0.47939432 0.52186543 1.84910131
1.92785251 0.08336581 -1.76995826
3.84275508 0.48981753 -0.34821215
-2.58283567 0.23778649 -1.53425491
-3.04440379 0.97195870 -0.08057278
-4.04055500 0.30773455 0.20994553
-4.14849806 0.09067629 -0.09205633
-2.74561644 0.98010260 -0.61337674
0.43415132 0.34797850 1.92988837
-2.89699221 0.88627321 0.72367233
3.39816833 0.19654220 1.12170208
-2.61590719 0.62488180 -1.28687835
0.25909188 0.56435221 1.83448434
3.46938109 0.70860285 0.48563230
-3.23971725 0.78364551 -0.61089033
-0.85685211 1.18943477 -1.02851546
1.67645764 0.36638227 -1.75902200
1.34132004 1.14165246 -1.01615107
-0.20065099 -0.47174385 -1.88691545
2.13366461 1.22636914 -0.01648147
0.99218506 0.50963974 1.80820858
-2.60247922 -1.11434233 0.01779674
2.42280245 0.22714657 -1.59646082
-3.53635645 0.40413886 0.89107293
-0.11795892 0.89778686 1.55559063
2.38672876 0.26830587 1.59648681
-1.86202478 0.95033813 1.19597447
-0.57406408 0.42152569 1.89229500
-0.12400696 0.36883304 -1.93278384
2.49533296 0.48831803 1.44817877
-0.20049487 0.04151202 1.99860740
-3.03438807 0.50246197 -1.17528725
2.74760461 0.10492399 -1.49590719
-1.53552341 0.28949448 -1.81551814
-3.63102579 -0.03071503 -0.97762549
-0.52764958 0.34531769 1.92539811
-0.56123656 0.24820629 -1.95242929
0.31043664 0.81055021 1.64147425
-0.12024490 0.00894195 -2.00058222
-1.28297794 -1.10208452 -1.11347258
1.28740072 0.68790197 -1.64132786
2.27076936 0.65918130 -1.40067923
-0.69069058 0.19660997 1.95439184
-2.99438667 0.99219865 0.00040517
-2.81515551 0.72290027 -1.07087147
-4.11255169 0.20355389 -0.10605139
-3.74888515 -0.14619191 0.84459919
-1.26554608 1.24701571 0.76250345
1.77653289 0.00284726 1.81023717
2.31832862 1.11487508 0.56775838
3.64446330 -0.63762754 0.36742780
2.99257302 0.65122980 -1.04920983
0.41950339 0.19836964 -1.97175503
-0.69056439 0.13596775 -1.96480620
0.13299131 0.04447715 1.99983048
-1.36430407 1.33655572 0.26110777
-2.25209212 1.19859707 0.10524365
-0.26759782 0.05354438 1.99588370
-0.66218656 1.08978307 -1.25480998
3.31213522 0.68817633 0.73589104
3.80996323 0.13824369 -0.78151870
-3.85948229 0.27178404 -0.64501023
-1.46351886 1.07835495 1.10769606
-0.98138577 0.38577938 -1.86839569
2.50635910 0.10531300 1.59132576
-1.69815981 -1.28536010 0.30668744
4.14900208 0.10111009 -0.06375100
0.10595509 -1.30160642 0.82407486
4.11354494 0.07828595 0.28314728
-0.81172878 0.18072940 -1.94669807
2.70197153 1.04595530 0.41206881
0.06390495 0.05507003 -1.99998665
-3.81922507 0.42000958 -0.53557283
-2.94017816 0.38663554 1.30910230
1.12230659 0.13962018 -1.91763115
2.08000231 0.46594372 1.60608768
2.64690161 0.67432773 1.22186899
2.82614946 0.84287906 -0.87320566
-2.50741124 0.58012778 1.37493455
-2.44834089 -1.00730217 0.79187858
-1.69686007 0.32934859 -1.76850462
-0.23170446 0.05983610 -1.99659550
1.33426118 1.35231316 0.06730525
0.63761520 1.09422052 -1.25014710
-1.11560702 0.83284575 1.53549290
4.11528397 0.06897207 0.28358862
2.95301342 0.87194860 -0.70392013
3.59720492 0.57051468 -0.61121374
-1.35424483 1.28254461 -0.59293795
2.81771445 0.29796958 1.41287446
1.98397684 0.49073675 1.61931992
-0.91469568 1.09337866 -1.21011317
-1.49310040 1.02321208 1.19781733
-0.87956178 0.33889231 -1.89768136
1.60156834 0.64316815 1.61254799
-2.75766063 0.61812758 -1.22341645
-2.16259909 1.04729450 0.87766433
0.21208930 0.15144087 1.98758209
3.73883772 0.55285203 -0.41493922
3.27082539 0.64060414 -0.85136944
-2.64208102 1.03681660 -0.53034449
-0.70358682 0.58629739 1.79357457
-3.97401595 0.05078902 -0.58920491
-2.38602614 1.14224863 0.35769603
1.85345638 0.32189310 -1.73418903
-0.28113371 1.10126984 -1.26736760
0.14642216 -0.98187184 -1.45202553
-0.70419103 0.81853282 -1.60510159
-0.83283263 0.94555891 -1.44562519
-1.52057433 0.27605167 1.82240975
0.08802124 0.10377357 -1.99570000
3 166 179 125
3 47 212 193
3 0 212 51
3 195 212 0
3 211 195 0
3 51 212 210
3 131 166 125
3 247 166 151
3 179 166 247
3 151 166 191
3 191 166 224
3 141 155 195
3 79 212 195
3 79 193 212
3 86 0 51
3 251 0 86
3 51 210 86
3 86 210 166
3 224 166 133
3 166 210 133
3 133 212 224
3 133 210 212
3 125 163 23
3 23 131 125
3 23 163 251
3 251 86 23
3 114 191 224
3 84 191 114
3 154 73 171
3 99 73 154
3 64 191 84
3 42 6 222
3 222 6 139
3 195 155 9
3 47 193 95
3 251 163 146
3 77 217 54
3 131 23 184
3 184 23 86
3 166 131 184
3 184 86 166
3 179 247 74
3 33 247 151
3 151 190 33
3 84 114 27
3 218 64 84
3 155 141 62
3 141 109 62
3 213 109 141
3 211 147 213
3 213 147 109
3 237 207 171
3 164 1 194
3 150 190 151
3 99 54 150
3 150 217 190
3 150 54 217
3 139 143 231
3 231 222 139
3 143 118 244
3 244 231 143
3 222 231 244
3 107 81 6
3 179 74 38
3 209 79 195
3 195 9 209
3 7 98 12
3 165 239 89
3 18 239 48
3 39 0 251
3 251 146 39
3 249 146 219
3 108 163 183
3 125 4 15
3 252 106 17
3 52 156 17
3 156 96 17
3 42 186 140
3 60 107 6
3 82 96 189
3 189 96 156
3 149 54 99
3 37 54 149
3 254 27 65
3 65 27 114
3 87 27 254
3 246 229 121
3 121 27 246
3 27 87 246
3 171 73 223
3 223 121 171
3 223 27 121
3 84 27 223
3 223 218 84
3 168 73 99
3 99 150 168
3 8 212 47
3 224 212 8
3 8 114 224
3 230 141 195
3 230 213 141
3 230 195 211
3 211 213 230
3 11 237 171
3 229 237 11
3 171 121 11
3 121 229 11
3 18 48 35
3 21 192 207
3 207 237 21
3 21 237 229
3 59 85 80
3 80 35 59
3 99 154 58
3 19 48 221
3 19 35 48
3 19 1 59
3 59 35 19
3 155 62 31
3 31 62 109
3 139 6 115
3 6 81 115
3 57 1 227
3 1 164 227
3 123 143 139
3 123 118 143
3 222 244 196
3 42 222 196
3 196 186 42
3 211 205 32
3 32 147 211
3 10 96 82
3 111 106 252
3 36 106 111
3 111 185 36
3 137 185 111
3 29 111 252
3 206 38 74
3 190 217 206
3 206 33 190
3 206 74 247
3 247 33 206
3 120 156 52
3 7 12 119
3 47 95 119
3 119 95 7
3 12 242 119
3 7 95 97
3 79 209 97
3 67 12 98
3 98 242 67
3 67 242 12
3 113 45 44
3 44 196 113
3 186 196 44
3 249 219 161
3 0 39 94
3 167 45 113
3 249 45 167
3 100 146 163
3 100 219 146
3 100 163 108
3 226 255 216
3 216 183 226
3 108 183 216
3 134 255 226
3 162 60 6
3 162 41 117
3 140 41 162
3 162 6 42
3 42 140 162
3 37 152 159
3 77 54 159
3 159 54 37
3 176 217 77
3 77 159 176
3 176 159 189
3 176 120 38
3 176 206 217
3 38 206 176
3 89 182 157
3 64 218 127
3 73 168 127
3 127 223 73
3 218 223 127
3 88 168 150
3 191 64 88
3 151 191 88
3 88 150 151
3 187 70 53
3 187 53 202
3 202 53 8
3 18 35 129
3 129 182 89
3 35 80 129
3 89 239 129
3 129 239 18
3 112 1 57
3 59 1 112
3 112 85 59
3 85 21 169
3 169 80 85
3 169 21 229
3 182 129 169
3 169 129 80
3 188 149 99
3 99 58 188
3 207 192 241
3 171 207 241
3 241 154 171
3 241 58 154
3 245 152 37
3 81 107 5
3 200 112 57
3 192 112 200
3 83 19 221
3 221 31 83
3 83 31 71
3 204 31 109
3 71 31 204
3 139 115 101
3 101 115 81
3 81 227 101
3 101 227 164
3 139 101 116
3 116 123 139
3 116 22 118
3 118 123 116
3 147 32 232
3 232 244 118
3 49 203 160
3 250 203 49
3 107 60 75
3 75 250 49
3 144 117 137
3 137 111 144
3 111 29 144
3 179 38 122
3 125 179 122
3 122 4 125
3 4 122 148
3 148 120 52
3 38 120 148
3 148 122 38
3 221 48 174
3 174 31 221
3 47 119 199
3 199 119 242
3 7 97 132
3 132 98 7
3 126 95 193
3 126 97 95
3 193 79 126
3 79 97 126
3 72 140 186
3 72 41 140
3 72 185 137
3 137 117 72
3 117 41 72
3 46 44 45
3 46 45 249
3 249 161 46
3 186 44 46
3 46 72 186
3 46 161 185
3 185 72 46
3 55 161 219
3 219 100 55
3 36 185 55
3 185 161 55
3 0 94 43
3 43 205 211
3 211 0 43
3 177 94 39
3 135 32 205
3 205 43 135
3 135 43 94
3 63 39 146
3 63 146 249
3 249 167 63
3 63 177 39
3 167 177 63
3 16 17 208
3 208 225 16
3 52 17 16
3 16 225 52
3 124 225 208
3 238 24 181
3 238 124 208
3 181 24 173
3 36 134 173
3 173 134 181
3 173 106 36
3 173 24 106
3 130 159 152
3 189 159 130
3 82 189 130
3 156 120 240
3 120 176 240
3 240 189 156
3 240 176 189
3 104 180 87
3 104 87 254
3 104 70 187
3 187 180 104
3 104 53 70
3 34 180 187
3 187 202 34
3 34 202 242
3 172 246 87
3 87 180 172
3 180 34 172
3 182 169 105
3 229 246 105
3 105 169 229
3 145 165 89
3 89 157 145
3 64 127 103
3 103 127 168
3 103 88 64
3 168 88 103
3 175 8 47
3 175 202 8
3 192 21 76
3 76 112 192
3 76 21 85
3 85 112 76
3 201 188 248
3 248 188 58
3 58 241 248
3 248 241 192
3 192 200 248
3 149 188 13
3 201 110 13
3 13 188 201
3 37 149 13
3 13 245 37
3 152 245 3
3 82 130 3
3 3 130 152
3 66 227 81
3 81 5 66
3 57 227 66
3 68 110 201
3 68 200 110
3 201 248 68
3 68 248 200
3 61 66 5
3 61 200 57
3 57 66 61
3 19 83 90
3 194 1 90
3 1 19 90
3 71 204 158
3 158 204 109
3 109 147 158
3 147 22 158
3 147 232 243
3 243 232 118
3 243 22 147
3 118 22 243
3 96 10 236
3 236 203 96
3 236 160 203
3 203 250 136
3 136 29 252
3 136 250 29
3 228 75 60
3 228 144 29
3 29 250 228
3 250 75 228
3 117 144 228
3 228 162 117
3 60 162 228
3 30 15 4
3 4 148 30
3 30 148 52
3 52 225 30
3 30 225 15
3 31 174 78
3 239 165 235
3 165 132 235
3 235 48 239
3 36 55 69
3 69 134 36
3 255 134 69
3 197 55 100
3 197 69 55
3 26 167 113
3 26 177 167
3 94 177 26
3 113 135 26
3 26 135 94
3 50 196 244
3 32 135 50
3 113 196 50
3 50 135 113
3 244 232 50
3 50 232 32
3 15 225 178
3 225 124 178
3 178 56 15
3 124 56 178
3 138 238 208
3 24 238 138
3 106 24 138
3 208 17 138
3 138 17 106
3 53 104 102
3 102 65 114
3 254 65 102
3 102 104 254
3 114 8 102
3 8 53 102
3 153 242 98
3 153 34 242
3 157 34 153
3 153 145 157
3 98 132 153
3 153 132 165
3 165 145 153
3 40 34 157
3 40 172 34
3 40 157 182
3 182 105 40
3 246 172 40
3 40 105 246
3 20 199 242
3 242 202 20
3 202 175 20
3 47 199 20
3 20 175 47
3 49 160 14
3 215 90 83
3 215 83 71
3 71 158 215
3 194 90 215
3 215 158 22
3 22 116 215
3 215 164 194
3 215 101 164
3 215 116 101
3 2 236 10
3 160 236 2
3 10 14 2
3 2 14 160
3 253 136 252
3 203 136 253
3 96 203 253
3 252 17 253
3 253 17 96
3 31 78 234
3 234 78 91
3 155 31 234
3 234 9 155
3 234 209 9
3 234 91 209
3 25 132 97
3 25 235 132
3 25 97 209
3 128 100 108
3 128 197 100
3 108 216 128
3 128 216 255
3 255 69 128
3 69 197 128
3 124 238 28
3 28 56 124
3 226 183 92
3 92 183 163
3 92 163 125
3 125 15 92
3 15 56 92
3 49 14 142
3 142 14 61
3 142 61 5
3 142 75 49
3 142 5 107
3 107 75 142
3 110 200 93
3 200 61 93
3 93 13 110
3 245 13 93
3 93 3 245
3 82 3 93
3 235 25 220
3 220 78 174
3 220 174 48
3 48 235 220
3 198 134 226
3 226 92 198
3 181 134 198
3 198 92 56
3 233 14 10
3 233 10 82
3 82 93 233
3 61 14 233
3 233 93 61
3 170 220 25
3 209 91 170
3 170 25 209
3 91 78 170
3 78 220 170
3 181 198 214
3 214 238 181
3 214 28 238
3 56 28 214
3 214 198 56