ply
format ascii 1.0
comment https://github.com/mikedh/trimesh
element vertex 256
property float x
property float y
property float z
element face 508
property list uchar int vertex_indices
end_header
3.03536391 -1.62295651 -0.61818844
1.60322797 2.09667540 1.55449569
-1.01242483 2.05342817 -2.26405478
-2.42391586 1.81169569 -1.51976764
-2.58301210 0.09202671 -3.70270634
0.50503761 2.33570886 -1.19514358
1.50517714 2.01314473 -2.02908707
1.16582620 0.17145938 4.54289103
-0.38473865 0.01148937 4.72673321
2.96012235 0.23781140 3.28319979
-1.11872661 2.05609035 -2.19181824
-1.49115872 1.46553910 3.38004279
0.54230469 0.22462048 4.68555403
-2.65442753 1.84800887 -0.50704074
-0.86083055 2.22647905 -1.63793826
-2.17590833 0.31048548 -3.99082375
-1.90108633 0.90980023 -3.82373810
-1.26948047 1.30022955 -3.73806381
1.65539730 1.28811073 3.55016589
2.29922104 1.69703543 2.14861488
0.00990793 0.08613773 4.74383211
-0.56579691 2.04467630 2.49012852
3.43919349 1.35188353 0.06888371
-0.44249687 -1.60642278 -3.52914453
-0.54902750 0.73842734 -4.47904491
2.16858029 0.43325472 3.95279813
2.80762863 0.27854168 -3.44314384
-1.76930642 0.57537729 4.14126015
-1.03209710 0.32234508 -4.55350733
0.30750817 1.74694920 -3.28523088
-2.25907969 0.32721028 -3.92588663
3.10313511 0.98680633 2.47932291
3.81916094 0.46531838 -1.58129752
-3.97969365 0.14351486 -1.26521814
-0.43734655 0.59104502 4.57705927
1.25150335 1.63601351 3.20620465
0.22228298 0.54214436 -4.62032080
-3.00796223 1.61855090 -0.80431938
-3.26767182 0.47297320 -2.76123667
2.45881748 0.08055930 -3.81425285
-0.13503154 1.00808835 4.31710672
1.63748789 1.54208589 -3.15498161
2.20634103 1.49258113 -2.76578546
3.77619958 0.18135244 -1.90420699
2.50587320 0.84937268 -3.39287114
2.45044446 0.64356297 -3.61243367
2.32544017 0.90501183 -3.50667500
0.05201096 0.03102462 4.74591351
2.00071692 1.21080697 3.41745877
-0.22468367 2.12927008 -2.28307843
3.27348185 0.89516014 -2.31734157
-0.47716278 -2.41336799 0.25360191
-2.12730479 0.91423565 -3.65983939
-0.77204531 0.17275043 4.65227127
-3.46929431 1.32212794 -0.17705531
0.95525461 0.32638192 -4.57412481
-1.07223058 0.29146281 -4.54945135
0.50535601 2.38609171 0.72140533
-2.74667263 1.69870305 1.27455986
0.85151988 1.96893060 2.61195302
1.10758018 2.01554441 -2.33509135
-0.28287280 2.38729072 -0.85967052
3.74223256 0.56219792 1.70159650
2.38535476 0.25654107 -3.84509420
-3.51698494 0.25461230 2.44937778
-1.57283461 0.22262640 4.36965227
0.59539980 2.40337348 -0.28068784
0.42242527 0.37633815 4.66466331
-2.07310677 2.10080671 0.25801349
0.27845371 0.49214658 -4.63764095
-0.75750166 0.33339462 4.62078762
3.18045259 1.28239799 1.72065043
1.75363374 1.28335392 -3.49600554
-3.10879207 1.05160725 2.36843181
-3.71986413 0.06193316 -2.07267570
0.33245772 2.12379050 -2.28434515
-0.29850274 2.16116595 2.15441608
-3.54325604 1.09281492 -1.20378602
2.50302768 0.77837420 3.46139598
2.04497910 0.04208029 4.12501097
0.35908195 1.81083095 3.14463687
1.73808849 2.16295028 -0.86594898
-2.34603119 1.76292944 -1.85798287
2.77898765 1.51349556 1.91002071
-2.80632210 0.29419509 3.44017410
0.28155780 1.92659986 2.88131118
-0.44262457 -2.20711660 -1.93419147
-0.95946598 0.67769212 4.42373037
-3.92541170 0.23801684 1.42029500
0.82779837 1.03840709 4.18690252
2.35785341 1.84061205 1.52351475
2.59971952 0.55505019 3.53003907
-0.75350016 0.05414484 -4.66619682
-1.69198263 2.14907074 -1.08726621
3.31439161 0.12123088 -2.82976222
1.34094715 0.09909744 4.48614693
-1.09792495 1.78576863 -2.96889687
1.93688500 0.26339722 4.16355562
0.45884955 0.44670618 4.63620758
-3.32157135 1.43177307 0.44181430
0.91892213 0.12371608 -4.62167835
2.13635445 2.08316040 -0.10395005
-0.89550972 0.18590328 4.61986065
-3.52915668 0.65852517 2.11614680
-0.79526532 0.33690310 4.61193466
-0.52333504 1.10184240 4.18963957
-0.30080286 1.07213426 -4.24723721
0.71965522 2.25196266 -1.59754395
0.12963359 0.01488208 -4.74425364
3.73737931 0.67531002 1.55263305
-2.08623075 2.09787178 -0.20385687
0.61284244 1.35882986 -3.87380219
0.11939061 2.26364613 1.73835325
2.78996134 0.54861587 -3.33735228
-1.91376603 -0.01539771 4.20791101
1.88373411 2.12409663 -0.83703697
3.24572563 1.50218356 -0.24787472
1.29284441 1.63228130 -3.19253254
3.44914269 1.23552620 -1.03244674
0.29811874 0.11781059 4.72898436
-2.88697028 0.69578916 -3.11700106
-2.12599635 1.07317042 3.49337983
-2.81060028 0.09776675 -3.47879887
3.14508367 1.45433247 -1.20346165
-1.46378684 0.50271112 -4.32968187
-2.33692288 -0.79366624 -3.59794521
1.84559655 0.09186925 4.24419737
-3.13963509 0.76587194 2.70431113
0.34096351 0.23909912 -4.70737553
0.68436509 1.44687057 3.73430753
-2.64130878 1.62940037 -1.79996610
-1.39764798 -1.81638372 -2.72019053
1.13385105 0.61392516 4.40502930
-2.25083733 -1.94716215 1.19449139
-0.43570831 0.29070446 -4.68644714
3.37429142 0.23415396 -2.70646596
-0.39270365 1.83265316 -3.08922720
0.91676360 1.36710668 -3.78460312
-0.81345338 0.72300506 -4.43509293
2.59676576 1.82982564 -0.94937629
2.08112669 1.48948002 -2.89540291
3.98607945 0.10287751 1.25486970
-0.24291860 2.30154276 -1.51948166
2.99370170 1.47235548 -1.57540977
0.91989952 1.59542072 -3.42476201
0.47648671 0.88889611 4.38528490
1.91615975 0.14199741 -4.19759130
3.81944823 0.83430874 -0.82581168
-2.56717038 0.40502295 -3.63860273
-3.02593899 1.65554225 -0.19108450
-4.01604795 0.52416587 0.49790186
-4.12333632 0.15444939 -0.21831861
-2.72896385 1.66941392 -1.45466983
0.43151814 0.59271359 4.57687807
-2.87942147 1.50959373 1.71624422
3.37755775 0.33477136 2.66020226
-2.60004139 1.06436443 -3.05193019
0.25752047 0.96126407 4.35061979
3.44833875 1.20696688 1.15171409
-3.22006798 1.33478749 -1.44877303
-0.85165513 2.02597046 -2.43920302
1.66628969 0.62406081 -4.17165518
1.33318472 1.94458246 -2.40987992
-0.19943401 -0.80352372 -4.47496414
2.12072372 2.08888102 -0.03908708
0.98616725 0.86807203 4.28830481
-2.58669472 -1.89806497 0.04220632
2.40810776 0.38689992 -3.78612900
-3.51490808 0.68837184 2.11324739
-0.11724348 1.52920496 3.68920207
2.37225294 0.45700678 3.78619051
-1.85073125 1.61871588 2.83634472
-0.57058233 0.71798688 4.48772240
-0.12325484 0.62823522 -4.58374453
2.48019838 0.83175462 3.43446660
-0.19927883 0.07070763 4.73985004
-3.01598406 0.85584605 -2.78728342
2.73094010 0.17871757 -3.54765821
-1.52621019 0.49309748 -4.30564022
-3.60900307 -0.05231707 -2.31851363
-0.52444935 0.58818144 4.56622887
-0.55783260 0.42277107 -4.63033533
0.30855381 1.38061428 3.89288163
-0.11951560 0.01523088 -4.74453354
-1.27519643 -1.87718642 -2.64068508
1.27959239 1.17170703 -3.89253449
2.25699687 1.12278688 -3.32181787
-0.68650144 0.33488679 4.63498974
-2.97622514 1.69001710 0.00096089
-2.79808116 1.23131979 -2.53965330
-4.08760834 0.34671438 -0.25150895
-3.72614765 -0.24900945 2.00303149
-1.25787032 2.12404847 1.80833519
1.76575792 0.00484975 4.29311562
2.30426741 1.89897251 1.34648240
3.62235928 -1.08607423 0.87138313
2.97442245 1.10924315 -2.48828125
0.41695905 0.33788401 -4.67616749
-0.68637604 0.23159458 -4.65968800
0.13218470 0.07575815 4.74275112
-1.35602939 2.27656245 0.61923707
-2.23843288 2.04157662 0.24959335
-0.26597479 0.09120243 4.73339081
-0.65817028 1.85623312 -2.97587776
3.29204655 1.17217433 1.74522185
3.78685522 0.23547120 -1.85343134
-3.83607411 0.46293119 -1.52969098
-1.45464230 1.83676755 2.62698579
-0.97543353 0.65710002 -4.43104315
2.49115753 0.17938019 3.77395058
-1.68786013 -2.18936062 0.72733271
4.12383747 0.17222133 -0.15119036
0.10531245 -2.21703291 1.95435643
4.08859539 0.13334486 0.67150539
-0.80680555 0.30783734 -4.61674309
2.68558359 1.78158104 0.97725266
0.06351735 0.09380107 -4.74312115
-3.79606080 0.71540451 -1.27015185
-2.92234540 0.65855831 3.10463619
1.11549962 0.23781580 -4.54780912
2.06738663 0.79364437 3.80895972
2.63084769 1.14858592 2.89775562
2.80900836 1.43568027 -2.07087398
-2.49220324 0.98813468 3.26076245
-2.43349123 -1.71574295 1.87800050
-1.68656838 0.56098115 -4.19414377
-0.23029913 0.10191915 -4.73507881
1.32616878 2.30340195 0.15961954
0.63374799 1.86379135 -2.96481919
-1.10884070 1.41859055 3.64153862
4.09032393 0.11748048 0.67255205
2.93510294 1.48519456 -1.66940033
3.57538724 0.97176063 -1.44954014
-1.34603119 2.18456483 -1.40619767
2.80062461 0.50753313 3.35073972
1.97194374 0.83587444 3.84034085
-0.90914792 1.86235762 -2.86987591
-1.48404455 1.74284244 2.84071517
-0.87422711 0.57723707 -4.50049639
1.59185457 1.09551167 3.82428074
-2.74093509 1.05285990 -2.90142536
-2.14948249 1.78386211 2.08144808
0.21080294 0.25795004 4.71370268
3.71616101 0.94167572 -0.98406005
3.25098729 1.09114444 -2.01908755
-2.62605643 1.76601505 -1.25775242
-0.69931948 0.99864340 4.25359917
-3.94991279 0.08650920 -1.39734447
-2.37155461 1.94559801 0.84830344
1.84221482 0.54828215 -4.11276197
-0.27942860 1.87579858 -3.00565910
0.14553408 -1.67242742 -3.44358945
-0.69992000 1.39421117 -3.80662107
-0.82778138 1.61057532 -3.42841053
-1.51135182 0.47020024 4.32198381
0.08748738 0.17675807 -4.73295498
3 166 179 125
3 47 212 193
3 0 212 51
3 195 212 0
3 211 195 0
3 51 212 210
3 131 166 125
3 247 166 151
3 179 166 247
3 151 166 191
3 191 166 224
3 141 155 195
3 79 212 195
3 79 193 212
3 86 0 51
3 251 0 86
3 51 210 86
3 86 210 166
3 224 166 133
3 166 210 133
3 133 212 224
3 133 210 212
3 125 163 23
3 23 131 125
3 23 163 251
3 251 86 23
3 114 191 224
3 84 191 114
3 154 73 171
3 99 73 154
3 64 191 84
3 42 6 222
3 222 6 139
3 195 155 9
3 47 193 95
3 251 163 146
3 77 217 54
3 131 23 184
3 184 23 86
3 166 131 184
3 184 86 166
3 179 247 74
3 33 247 151
3 151 190 33
3 84 114 27
3 218 64 84
3 155 141 62
3 141 109 62
3 213 109 141
3 211 147 213
3 213 147 109
3 237 207 171
3 164 1 194
3 150 190 151
3 99 54 150
3 150 217 190
3 150 54 217
3 139 143 231
3 231 222 139
3 143 118 244
3 244 231 143
3 222 231 244
3 107 81 6
3 179 74 38
3 209 79 195
3 195 9 209
3 7 98 12
3 165 239 89
3 18 239 48
3 39 0 251
3 251 146 39
3 249 146 219
3 108 163 183
3 125 4 15
3 252 106 17
3 52 156 17
3 156 96 17
3 42 186 140
3 60 107 6
3 82 96 189
3 189 96 156
3 149 54 99
3 37 54 149
3 254 27 65
3 65 27 114
3 87 27 254
3 246 229 121
3 121 27 246
3 27 87 246
3 171 73 223
3 223 121 171
3 223 27 121
3 84 27 223
3 223 218 84
3 168 73 99
3 99 150 168
3 8 212 47
3 224 212 8
3 8 114 224
3 230 141 195
3 230 213 141
3 230 195 211
3 211 213 230
3 11 237 171
3 229 237 11
3 171 121 11
3 121 229 11
3 18 48 35
3 21 192 207
3 207 237 21
3 21 237 229
3 59 85 80
3 80 35 59
3 99 154 58
3 19 48 221
3 19 35 48
3 19 1 59
3 59 35 19
3 155 62 31
3 31 62 109
3 139 6 115
3 6 81 115
3 57 1 227
3 1 164 227
3 123 143 139
3 123 118 143
3 222 244 196
3 42 222 196
3 196 186 42
3 211 205 32
3 32 147 211
3 10 96 82
3 111 106 252
3 36 106 111
3 111 185 36
3 137 185 111
3 29 111 252
3 206 38 74
3 190 217 206
3 206 33 190
3 206 74 247
3 247 33 206
3 120 156 52
3 7 12 119
3 47 95 119
3 119 95 7
3 12 242 119
3 7 95 97
3 79 209 97
3 67 12 98
3 98 242 67
3 67 242 12
3 113 45 44
3 44 196 113
3 186 196 44
3 249 219 161
3 0 39 94
3 167 45 113
3 249 45 167
3 100 146 163
3 100 219 146
3 100 163 108
3 226 255 216
3 216 183 226
3 108 183 216
3 134 255 226
3 162 60 6
3 162 41 117
3 140 41 162
3 162 6 42
3 42 140 162
3 37 152 159
3 77 54 159
3 159 54 37
3 176 217 77
3 77 159 176
3 176 159 189
3 176 120 38
3 176 206 217
3 38 206 176
3 89 182 157
3 64 218 127
3 73 168 127
3 127 223 73
3 218 223 127
3 88 168 150
3 191 64 88
3 151 191 88
3 88 150 151
3 187 70 53
3 187 53 202
3 202 53 8
3 18 35 129
3 129 182 89
3 35 80 129
3 89 239 129
3 129 239 18
3 112 1 57
3 59 1 112
3 112 85 59
3 85 21 169
3 169 80 85
3 169 21 229
3 182 129 169
3 169 129 80
3 188 149 99
3 99 58 188
3 207 192 241
3 171 207 241
3 241 154 171
3 241 58 154
3 245 152 37
3 81 107 5
3 200 112 57
3 192 112 200
3 83 19 221
3 221 31 83
3 83 31 71
3 204 31 109
3 71 31 204
3 139 115 101
3 101 115 81
3 81 227 101
3 101 227 164
3 139 101 116
3 116 123 139
3 116 22 118
3 118 123 116
3 147 32 232
3 232 244 118
3 49 203 160
3 250 203 49
3 107 60 75
3 75 250 49
3 144 117 137
3 137 111 144
3 111 29 144
3 179 38 122
3 125 179 122
3 122 4 125
3 4 122 148
3 148 120 52
3 38 120 148
3 148 122 38
3 221 48 174
3 174 31 221
3 47 119 199
3 199 119 242
3 7 97 132
3 132 98 7
3 126 95 193
3 126 97 95
3 193 79 126
3 79 97 126
3 72 140 186
3 72 41 140
3 72 185 137
3 137 117 72
3 117 41 72
3 46 44 45
3 46 45 249
3 249 161 46
3 186 44 46
3 46 72 186
3 46 161 185
3 185 72 46
3 55 161 219
3 219 100 55
3 36 185 55
3 185 161 55
3 0 94 43
3 43 205 211
3 211 0 43
3 177 94 39
3 135 32 205
3 205 43 135
3 135 43 94
3 63 39 146
3 63 146 249
3 249 167 63
3 63 177 39
3 167 177 63
3 16 17 208
3 208 225 16
3 52 17 16
3 16 225 52
3 124 225 208
3 238 24 181
3 238 124 208
3 181 24 173
3 36 134 173
3 173 134 181
3 173 106 36
3 173 24 106
3 130 159 152
3 189 159 130
3 82 189 130
3 156 120 240
3 120 176 240
3 240 189 156
3 240 176 189
3 104 180 87
3 104 87 254
3 104 70 187
3 187 180 104
3 104 53 70
3 34 180 187
3 187 202 34
3 34 202 242
3 172 246 87
3 87 180 172
3 180 34 172
3 182 169 105
3 229 246 105
3 105 169 229
3 145 165 89
3 89 157 145
3 64 127 103
3 103 127 168
3 103 88 64
3 168 88 103
3 175 8 47
3 175 202 8
3 192 21 76
3 76 112 192
3 76 21 85
3 85 112 76
3 201 188 248
3 248 188 58
3 58 241 248
3 248 241 192
3 192 200 248
3 149 188 13
3 201 110 13
3 13 188 201
3 37 149 13
3 13 245 37
3 152 245 3
3 82 130 3
3 3 130 152
3 66 227 81
3 81 5 66
3 57 227 66
3 68 110 201
3 68 200 110
3 201 248 68
3 68 248 200
3 61 66 5
3 61 200 57
3 57 66 61
3 19 83 90
3 194 1 90
3 1 19 90
3 71 204 158
3 158 204 109
3 109 147 158
3 147 22 158
3 147 232 243
3 243 232 118
3 243 22 147
3 118 22 243
3 96 10 236
3 236 203 96
3 236 160 203
3 203 250 136
3 136 29 252
3 136 250 29
3 228 75 60
3 228 144 29
3 29 250 228
3 250 75 228
3 117 144 228
3 228 162 117
3 60 162 228
3 30 15 4
3 4 148 30
3 30 148 52
3 52 225 30
3 30 225 15
3 31 174 78
3 239 165 235
3 165 132 235
3 235 48 239
3 36 55 69
3 69 134 36
3 255 134 69
3 197 55 100
3 197 69 55
3 26 167 113
3 26 177 167
3 94 177 26
3 113 135 26
3 26 135 94
3 50 196 244
3 32 135 50
3 113 196 50
3 50 135 113
3 244 232 50
3 50 232 32
3 15 225 178
3 225 124 178
3 178 56 15
3 124 56 178
3 138 238 208
3 24 238 138
3 106 24 138
3 208 17 138
3 138 17 106
3 53 104 102
3 102 65 114
3 254 65 102
3 102 104 254
3 114 8 102
3 8 53 102
3 153 242 98
3 153 34 242
3 157 34 153
3 153 145 157
3 98 132 153
3 153 132 165
3 165 145 153
3 40 34 157
3 40 172 34
3 40 157 182
3 182 105 40
3 246 172 40
3 40 105 246
3 20 199 242
3 242 202 20
3 202 175 20
3 47 199 20
3 20 175 47
3 49 160 14
3 215 90 83
3 215 83 71
3 71 158 215
3 194 90 215
3 215 158 22
3 22 116 215
3 215 164 194
3 215 101 164
3 215 116 101
3 2 236 10
3 160 236 2
3 10 14 2
3 2 14 160
3 253 136 252
3 203 136 253
3 96 203 253
3 252 17 253
3 253 17 96
3 31 78 234
3 234 78 91
3 155 31 234
3 234 9 155
3 234 209 9
3 234 91 209
3 25 132 97
3 25 235 132
3 25 97 209
3 128 100 108
3 128 197 100
3 108 216 128
3 128 216 255
3 255 69 128
3 69 197 128
3 124 238 28
3 28 56 124
3 226 183 92
3 92 183 163
3 92 163 125
3 125 15 92
3 15 56 92
3 49 14 142
3 142 14 61
3 142 61 5
3 142 75 49
3 142 5 107
3 107 75 142
3 110 200 93
3 200 61 93
3 93 13 110
3 245 13 93
3 93 3 245
3 82 3 93
3 235 25 220
3 220 78 174
3 220 174 48
3 48 235 220
3 198 134 226
3 226 92 198
3 181 134 198
3 198 92 56
3 233 14 10
3 233 10 82
3 82 93 233
3 61 14 233
3 233 93 61
3 170 220 25
3 209 91 170
3 170 25 209
3 91 78 170
3 78 220 170
3 181 198 214
3 214 238 181
3 214 28 238
3 56 28 214
3 214 198 56