ply
format ascii 1.0
comment https://github.com/mikedh/trimesh
element vertex 256
property float x
property float y
property float z
element face 508
property list uchar int vertex_indices
end_header
0.98997551 -2.04861236 -0.61042267
0.52288836 2.64657426 1.53496790
-0.33019954 2.59198451 -2.23561335
-0.79055345 2.28685260 -1.50067616
-0.84244227 0.11616273 -3.65619230
0.16471660 2.94829965 -1.18013000
0.49090934 2.54113603 -2.00359750
0.38023096 0.21642834 4.48582268
-0.12548144 0.01450271 4.66735506
0.96543568 0.30018264 3.24195576
-0.36486959 2.59534502 -2.16428447
-0.48633727 1.84990883 3.33758235
0.17687118 0.28353211 4.62669325
-0.86573416 2.33268952 -0.50067121
-0.28075749 2.81042171 -1.61736226
-0.70966649 0.39191711 -3.94069052
-0.62003404 1.14841521 -3.77570367
-0.41403753 1.64124322 -3.69110584
0.53990322 1.62594593 3.50556827
0.74988461 2.14212012 2.12162375
0.00323144 0.10872923 4.68423939
-0.18453309 2.58093739 2.45884728
1.12168348 1.70644450 0.06801838
-0.14431913 -2.02774239 -3.48481107
-0.17906378 0.93209600 -4.42277861
0.70727640 0.54688525 3.90314245
0.91570026 0.35159531 -3.39989066
-0.57705438 0.72628260 4.08923721
-0.33661559 0.40688711 -4.49630547
0.10029293 2.20512486 -3.24396133
-0.73679250 0.41302833 -3.87656903
1.01207888 1.24561787 2.44817734
1.24560869 0.58735830 -1.56143308
-1.29796600 0.18115477 -1.24932432
-0.14263937 0.74605948 4.51956177
0.40817434 2.06509376 3.16592789
0.07249697 0.68433356 -4.56227970
-0.98103851 2.04305124 -0.79421544
-1.06574214 0.59702075 -2.72654963
0.80193645 0.10168774 -3.76633763
-0.04404016 1.27248156 4.26287460
0.53406215 1.94653165 -3.11534834
0.71959203 1.88404322 -2.73104119
1.23159695 0.22891608 -1.88028610
0.81728351 1.07213926 -3.35024953
0.79920566 0.81235141 -3.56705379
0.75843585 1.14237094 -3.46262383
0.01696323 0.03916150 4.68629503
0.65252823 1.52836764 3.37452841
-0.07327995 2.68771768 -2.25439811
1.06763697 1.12993550 -2.28823066
-0.15562531 -3.04632664 0.25041613
-0.69381452 1.15401387 -3.61386418
-0.25180042 0.21805800 4.59382868
-1.13150072 1.66888487 -0.17483112
0.31155363 0.41198274 -4.51666403
-0.34970501 0.36790532 -4.49230051
0.16482045 3.01189637 0.71234292
-0.89581960 2.14422512 1.25854862
0.27772084 2.48532557 2.57914138
0.36123422 2.54416490 -2.30575752
-0.09225818 3.01340985 -0.84887123
1.22051871 0.70964664 1.68022084
0.77797681 0.32382458 -3.79679179
-1.14705491 0.32138994 2.41860843
-0.51297563 0.28101504 4.31476021
0.19418798 3.03371072 -0.27716178
0.13777283 0.47504109 4.60606527
-0.67613804 2.65178919 0.25477231
0.09081690 0.62122279 -4.57938242
-0.24705705 0.42083466 4.56274080
1.03729570 1.61873484 1.69903541
0.57194275 1.61994159 -3.45208812
-1.01392388 1.32741427 2.33867931
-1.21322334 0.07817648 -2.04663849
0.10843015 2.68080091 -2.25564885
-0.09735584 2.72797894 2.12735224
-1.15562308 1.37942946 -1.18866384
0.81635553 0.98251987 3.41791344
0.66696423 0.05311677 4.07319212
0.11711358 2.28576112 3.10513353
0.56687272 2.73023129 -0.85507083
-0.76515156 2.22529626 -1.83464265
0.90635914 1.91044283 1.88602674
-0.91527414 0.37135419 3.39695835
0.09182930 2.43189287 2.84511590
-0.14436077 -2.78598118 -1.90989387
-0.31292716 0.85543174 4.36815882
-1.28026211 0.30044195 1.40245306
0.26998416 1.31075203 4.13430643
0.76900733 2.32335281 1.50437605
0.84789127 0.70062423 3.48569417
-0.24575198 0.06834551 -4.60757971
-0.55183542 2.71271157 -1.07360792
1.08097959 0.15302633 -2.79421449
0.43734619 0.12508792 4.42979145
-0.35808516 2.25412560 -2.93160129
0.63170969 0.33247891 4.11125231
0.14965251 0.56386465 4.57796717
-1.08332121 1.80728686 0.43626416
0.29970390 0.15616332 -4.56362009
0.69676608 2.62951493 -0.10264422
-0.29206800 0.23466048 4.56182528
-1.15102470 0.83123779 2.08956361
-0.25937358 0.42526329 4.55399895
-0.17068426 1.39082468 4.13700867
-0.09810601 1.35332501 -4.19388294
0.23471354 2.84258914 -1.57747531
0.04227963 0.01878523 -4.68465567
1.21893585 0.85242480 1.53312862
-0.68041837 2.64808440 -0.20129600
0.19987686 1.71521258 -3.82513905
0.03893892 2.85733676 1.71651590
0.90993816 0.69250238 -3.29542804
-0.62416947 -0.01943610 4.15505075
0.61437464 2.68118739 -0.82652199
1.05858433 1.89616406 -0.24476089
0.42165762 2.06038284 -3.15242743
1.12492824 1.55956995 -1.01947701
0.09723060 0.14870900 4.66957808
-0.94157737 0.87827504 -3.07784486
-0.69338781 1.35463285 3.44949532
-0.91666943 0.12340821 -3.43509769
1.02576029 1.83576298 -1.18834352
-0.47741002 0.63455814 -4.27529192
-0.76218086 -1.00182259 -3.55274749
0.60193616 0.11596397 4.19088125
-1.02398324 0.96673858 2.67033911
0.11120430 0.30180809 -4.64824057
0.22320378 1.82634401 3.68739676
-0.86145550 2.05674624 -1.77735460
-0.45583901 -2.29277015 -2.68601894
0.36980236 0.77494043 4.34969282
-0.73410434 -2.45784807 1.17948604
-0.14210506 0.36694804 -4.62757540
1.10051572 0.29556596 -2.67246699
-0.12807921 2.31330657 -3.05041981
0.29899991 1.72566032 -3.73706055
-0.26530558 0.91262889 -4.37937832
0.84692794 2.30973744 -0.93745011
0.67875367 1.88012874 -2.85903049
1.30004871 0.12985939 1.23910582
-0.07922722 2.90517282 -1.50039375
0.97638744 1.85851288 -1.55561924
0.30002266 2.01385450 -3.38173962
0.15540482 1.12202859 4.33019638
0.62495017 0.17923933 -4.14486074
1.24570239 1.05312443 -0.81543773
-0.83727551 0.51124907 -3.59289408
-0.98690164 2.08974433 -0.18868408
-1.30982292 0.66163981 0.49164715
-1.34481478 0.19495711 -0.21557607
-0.89004391 2.10725427 -1.43639612
0.14073844 0.74816573 4.51938248
-0.93911535 1.90551770 1.69468451
1.10158110 0.42257246 2.62678432
-0.84799623 1.34351730 -3.01359153
0.08398958 1.21337652 4.29596663
1.12466609 1.52352035 1.13724613
-1.05021620 1.68486464 -1.43057334
-0.27776495 2.55732560 -2.40856147
0.54345572 0.78773445 -4.11925030
0.43481448 2.45459175 -2.37960672
-0.06504485 -1.01426542 -4.41874933
0.69166815 2.63673568 -0.03859606
0.32163572 1.09574282 4.23443460
-0.84364331 -2.39587402 0.04167612
0.78539765 0.48837289 -3.73856711
-1.14637744 0.86891240 2.08670068
-0.03823863 1.93027246 3.64285779
0.77370369 0.57686681 3.73862791
-0.60361087 2.04325938 2.80071425
-0.18609384 0.90629464 4.43134689
-0.04019922 0.79300362 -4.52616310
0.80890983 1.04990053 3.39132237
-0.06499424 0.08925226 4.68030739
-0.98365480 1.08031046 -2.75226927
0.89068848 0.22559017 -3.50309205
-0.49776921 0.62242305 -4.25155210
-1.17706633 -0.06603836 -2.28938818
-0.17104769 0.74244487 4.50886726
-0.18193555 0.53365201 -4.57216835
0.10063396 1.74271059 3.84397864
-0.03897968 0.01922551 -4.68493223
-0.41590178 -2.36951947 -2.60751247
0.41733551 1.47901285 -3.84363604
0.73611319 1.41726232 -3.28008890
-0.22390054 0.42271817 4.57676411
-0.97068757 2.13326097 0.00094882
-0.91258639 1.55426025 -2.50775003
-1.33316207 0.43764782 -0.24834947
-1.21527267 -0.31431761 1.97786915
-0.41025090 2.68112659 1.78561866
0.57589704 0.00612171 4.23918486
0.75153041 2.39701962 1.32956767
1.18142235 -1.37092102 0.86043668
0.97009963 1.40016639 -2.45702314
0.13599002 0.42650148 -4.61742496
-0.22385964 0.29233530 -4.60115242
0.04311167 0.09562739 4.68317175
-0.44226521 2.87364054 0.61145812
-0.73005867 2.57702470 0.24645792
-0.08674694 0.11512226 4.67392921
-0.21466041 2.34307098 -2.93849421
1.07369184 1.47960258 1.72329807
1.23507237 0.29722866 -1.83014822
-1.25112486 0.58434498 -1.51047480
-0.47442755 2.31850004 2.59398532
-0.31813493 0.82943887 -4.37537956
0.81248415 0.22642657 3.72654152
-0.55049092 -2.76356816 0.71819586
1.34497821 0.21739015 -0.14929108
0.03434736 -2.79849815 1.92980552
1.33348405 0.16831747 0.66306984
-0.26313737 0.38857439 -4.55874729
0.87589562 2.24883962 0.96497631
0.02071601 0.11840245 -4.68353748
-1.23807466 0.90303499 -1.25419605
-0.95311487 0.83127964 3.06563520
0.36381710 0.30018818 -4.49067879
0.67427242 1.00179493 3.76111102
0.85804367 1.44982767 2.86135364
0.91615027 1.81221879 -2.04485941
-0.81282514 1.24729466 3.21980023
-0.79367644 -2.16573405 1.85440874
-0.55006957 0.70811069 -4.14145660
-0.07511143 0.12864968 -4.67559624
0.43252623 2.90751958 0.15761438
0.20669514 2.35261154 -2.92757487
-0.36164531 1.79064691 3.59579325
1.33404779 0.14829230 0.66410339
0.95727563 1.87471938 -1.64842916
1.16610265 1.22662616 -1.43133080
-0.43900430 2.75751472 -1.38853288
0.91341597 0.64064485 3.30864739
0.64314395 1.05510080 3.79209805
-0.29651606 2.35080171 -2.83382416
-0.48401698 2.19994092 2.80502987
-0.28512672 0.72863007 -4.44396067
0.51917893 1.38283360 3.77623963
-0.89394832 1.32899535 -2.86497736
-0.70104778 2.25171900 2.05530071
0.06875280 0.32560307 4.65448856
1.21201563 1.18865085 -0.97169816
1.06030047 1.37732089 -1.99372363
-0.85648102 2.22919106 -1.24195242
-0.22808111 1.26055944 4.20016479
-1.28825307 0.10919812 -1.37979090
-0.77347594 2.45587373 0.83764696
0.60083324 0.69208115 -4.06109667
-0.09113486 2.36776781 -2.96790147
0.04746554 -2.11105800 -3.40033078
-0.22827697 1.75987351 -3.75880170
-0.26997858 2.03298402 -3.38534236
-0.49292320 0.59352052 4.26769066
0.02853377 0.22311674 -4.67349911
3 166 179 125
3 47 212 193
3 0 212 51
3 195 212 0
3 211 195 0
3 51 212 210
3 131 166 125
3 247 166 151
3 179 166 247
3 151 166 191
3 191 166 224
3 141 155 195
3 79 212 195
3 79 193 212
3 86 0 51
3 251 0 86
3 51 210 86
3 86 210 166
3 224 166 133
3 166 210 133
3 133 212 224
3 133 210 212
3 125 163 23
3 23 131 125
3 23 163 251
3 251 86 23
3 114 191 224
3 84 191 114
3 154 73 171
3 99 73 154
3 64 191 84
3 42 6 222
3 222 6 139
3 195 155 9
3 47 193 95
3 251 163 146
3 77 217 54
3 131 23 184
3 184 23 86
3 166 131 184
3 184 86 166
3 179 247 74
3 33 247 151
3 151 190 33
3 84 114 27
3 218 64 84
3 155 141 62
3 141 109 62
3 213 109 141
3 211 147 213
3 213 147 109
3 237 207 171
3 164 1 194
3 150 190 151
3 99 54 150
3 150 217 190
3 150 54 217
3 139 143 231
3 231 222 139
3 143 118 244
3 244 231 143
3 222 231 244
3 107 81 6
3 179 74 38
3 209 79 195
3 195 9 209
3 7 98 12
3 165 239 89
3 18 239 48
3 39 0 251
3 251 146 39
3 249 146 219
3 108 163 183
3 125 4 15
3 252 106 17
3 52 156 17
3 156 96 17
3 42 186 140
3 60 107 6
3 82 96 189
3 189 96 156
3 149 54 99
3 37 54 149
3 254 27 65
3 65 27 114
3 87 27 254
3 246 229 121
3 121 27 246
3 27 87 246
3 171 73 223
3 223 121 171
3 223 27 121
3 84 27 223
3 223 218 84
3 168 73 99
3 99 150 168
3 8 212 47
3 224 212 8
3 8 114 224
3 230 141 195
3 230 213 141
3 230 195 211
3 211 213 230
3 11 237 171
3 229 237 11
3 171 121 11
3 121 229 11
3 18 48 35
3 21 192 207
3 207 237 21
3 21 237 229
3 59 85 80
3 80 35 59
3 99 154 58
3 19 48 221
3 19 35 48
3 19 1 59
3 59 35 19
3 155 62 31
3 31 62 109
3 139 6 115
3 6 81 115
3 57 1 227
3 1 164 227
3 123 143 139
3 123 118 143
3 222 244 196
3 42 222 196
3 196 186 42
3 211 205 32
3 32 147 211
3 10 96 82
3 111 106 252
3 36 106 111
3 111 185 36
3 137 185 111
3 29 111 252
3 206 38 74
3 190 217 206
3 206 33 190
3 206 74 247
3 247 33 206
3 120 156 52
3 7 12 119
3 47 95 119
3 119 95 7
3 12 242 119
3 7 95 97
3 79 209 97
3 67 12 98
3 98 242 67
3 67 242 12
3 113 45 44
3 44 196 113
3 186 196 44
3 249 219 161
3 0 39 94
3 167 45 113
3 249 45 167
3 100 146 163
3 100 219 146
3 100 163 108
3 226 255 216
3 216 183 226
3 108 183 216
3 134 255 226
3 162 60 6
3 162 41 117
3 140 41 162
3 162 6 42
3 42 140 162
3 37 152 159
3 77 54 159
3 159 54 37
3 176 217 77
3 77 159 176
3 176 159 189
3 176 120 38
3 176 206 217
3 38 206 176
3 89 182 157
3 64 218 127
3 73 168 127
3 127 223 73
3 218 223 127
3 88 168 150
3 191 64 88
3 151 191 88
3 88 150 151
3 187 70 53
3 187 53 202
3 202 53 8
3 18 35 129
3 129 182 89
3 35 80 129
3 89 239 129
3 129 239 18
3 112 1 57
3 59 1 112
3 112 85 59
3 85 21 169
3 169 80 85
3 169 21 229
3 182 129 169
3 169 129 80
3 188 149 99
3 99 58 188
3 207 192 241
3 171 207 241
3 241 154 171
3 241 58 154
3 245 152 37
3 81 107 5
3 200 112 57
3 192 112 200
3 83 19 221
3 221 31 83
3 83 31 71
3 204 31 109
3 71 31 204
3 139 115 101
3 101 115 81
3 81 227 101
3 101 227 164
3 139 101 116
3 116 123 139
3 116 22 118
3 118 123 116
3 147 32 232
3 232 244 118
3 49 203 160
3 250 203 49
3 107 60 75
3 75 250 49
3 144 117 137
3 137 111 144
3 111 29 144
3 179 38 122
3 125 179 122
3 122 4 125
3 4 122 148
3 148 120 52
3 38 120 148
3 148 122 38
3 221 48 174
3 174 31 221
3 47 119 199
3 199 119 242
3 7 97 132
3 132 98 7
3 126 95 193
3 126 97 95
3 193 79 126
3 79 97 126
3 72 140 186
3 72 41 140
3 72 185 137
3 137 117 72
3 117 41 72
3 46 44 45
3 46 45 249
3 249 161 46
3 186 44 46
3 46 72 186
3 46 161 185
3 185 72 46
3 55 161 219
3 219 100 55
3 36 185 55
3 185 161 55
3 0 94 43
3 43 205 211
3 211 0 43
3 177 94 39
3 135 32 205
3 205 43 135
3 135 43 94
3 63 39 146
3 63 146 249
3 249 167 63
3 63 177 39
3 167 177 63
3 16 17 208
3 208 225 16
3 52 17 16
3 16 225 52
3 124 225 208
3 238 24 181
3 238 124 208
3 181 24 173
3 36 134 173
3 173 134 181
3 173 106 36
3 173 24 106
3 130 159 152
3 189 159 130
3 82 189 130
3 156 120 240
3 120 176 240
3 240 189 156
3 240 176 189
3 104 180 87
3 104 87 254
3 104 70 187
3 187 180 104
3 104 53 70
3 34 180 187
3 187 202 34
3 34 202 242
3 172 246 87
3 87 180 172
3 180 34 172
3 182 169 105
3 229 246 105
3 105 169 229
3 145 165 89
3 89 157 145
3 64 127 103
3 103 127 168
3 103 88 64
3 168 88 103
3 175 8 47
3 175 202 8
3 192 21 76
3 76 112 192
3 76 21 85
3 85 112 76
3 201 188 248
3 248 188 58
3 58 241 248
3 248 241 192
3 192 200 248
3 149 188 13
3 201 110 13
3 13 188 201
3 37 149 13
3 13 245 37
3 152 245 3
3 82 130 3
3 3 130 152
3 66 227 81
3 81 5 66
3 57 227 66
3 68 110 201
3 68 200 110
3 201 248 68
3 68 248 200
3 61 66 5
3 61 200 57
3 57 66 61
3 19 83 90
3 194 1 90
3 1 19 90
3 71 204 158
3 158 204 109
3 109 147 158
3 147 22 158
3 147 232 243
3 243 232 118
3 243 22 147
3 118 22 243
3 96 10 236
3 236 203 96
3 236 160 203
3 203 250 136
3 136 29 252
3 136 250 29
3 228 75 60
3 228 144 29
3 29 250 228
3 250 75 228
3 117 144 228
3 228 162 117
3 60 162 228
3 30 15 4
3 4 148 30
3 30 148 52
3 52 225 30
3 30 225 15
3 31 174 78
3 239 165 235
3 165 132 235
3 235 48 239
3 36 55 69
3 69 134 36
3 255 134 69
3 197 55 100
3 197 69 55
3 26 167 113
3 26 177 167
3 94 177 26
3 113 135 26
3 26 135 94
3 50 196 244
3 32 135 50
3 113 196 50
3 50 135 113
3 244 232 50
3 50 232 32
3 15 225 178
3 225 124 178
3 178 56 15
3 124 56 178
3 138 238 208
3 24 238 138
3 106 24 138
3 208 17 138
3 138 17 106
3 53 104 102
3 102 65 114
3 254 65 102
3 102 104 254
3 114 8 102
3 8 53 102
3 153 242 98
3 153 34 242
3 157 34 153
3 153 145 157
3 98 132 153
3 153 132 165
3 165 145 153
3 40 34 157
3 40 172 34
3 40 157 182
3 182 105 40
3 246 172 40
3 40 105 246
3 20 199 242
3 242 202 20
3 202 175 20
3 47 199 20
3 20 175 47
3 49 160 14
3 215 90 83
3 215 83 71
3 71 158 215
3 194 90 215
3 215 158 22
3 22 116 215
3 215 164 194
3 215 101 164
3 215 116 101
3 2 236 10
3 160 236 2
3 10 14 2
3 2 14 160
3 253 136 252
3 203 136 253
3 96 203 253
3 252 17 253
3 253 17 96
3 31 78 234
3 234 78 91
3 155 31 234
3 234 9 155
3 234 209 9
3 234 91 209
3 25 132 97
3 25 235 132
3 25 97 209
3 128 100 108
3 128 197 100
3 108 216 128
3 128 216 255
3 255 69 128
3 69 197 128
3 124 238 28
3 28 56 124
3 226 183 92
3 92 183 163
3 92 163 125
3 125 15 92
3 15 56 92
3 49 14 142
3 142 14 61
3 142 61 5
3 142 75 49
3 142 5 107
3 107 75 142
3 110 200 93
3 200 61 93
3 93 13 110
3 245 13 93
3 93 3 245
3 82 3 93
3 235 25 220
3 220 78 174
3 220 174 48
3 48 235 220
3 198 134 226
3 226 92 198
3 181 134 198
3 198 92 56
3 233 14 10
3 233 10 82
3 82 93 233
3 61 14 233
3 233 93 61
3 170 220 25
3 209 91 170
3 170 25 209
3 91 78 170
3 78 220 170
3 181 198 214
3 214 238 181
3 214 28 238
3 56 28 214
3 214 198 56