ply
format ascii 1.0
comment https://github.com/mikedh/trimesh
element vertex 256
property float x
property float y
property float z
element face 508
property list uchar int vertex_indices
end_header
2.22915125 -1.82498968 -0.51927048
1.17740011 2.35767913 1.30575681
-0.74351817 2.30904818 -1.90177751
-1.78010786 2.03722382 -1.27658570
-1.89694715 0.10348262 -3.11022663
0.37089628 2.62646866 -1.00390565
1.10539222 2.26375031 -1.70440757
0.85617512 0.19280343 3.81597161
-0.28254953 0.01291962 3.97039628
2.17389441 0.26741526 2.75784636
-0.82158548 2.31204200 -1.84109974
-1.09509718 1.64797616 2.83919358
0.39826503 0.25258228 3.93580627
-1.94939411 2.07805753 -0.42590782
-0.63218826 2.50364137 -1.37584758
-1.59797275 0.34913614 -3.35224175
-1.39614534 1.02305639 -3.21189189
-0.93229812 1.46208811 -3.13992667
1.21571290 1.44846070 2.98209476
1.68853295 1.90829015 1.80480957
0.00727632 0.09686054 3.98475933
-0.41551754 2.29920721 2.09167671
2.52572107 1.52017224 0.05786145
-0.32496679 -1.80639768 -2.96443701
-0.40320218 0.83035016 -3.76234126
1.59259105 0.48718825 3.32030058
2.06190395 0.31321582 -2.89219737
-1.29936695 0.64700294 3.47860646
-0.75796533 0.36247206 -3.82488894
0.22583197 1.96441746 -2.75955272
-1.65905321 0.36794290 -3.29769540
2.27892184 1.10964859 2.08260012
2.80476665 0.52324337 -1.32827008
-2.92266083 0.16138025 -1.06276727
-0.32118443 0.66462100 3.84467220
0.91909587 1.83967197 2.69317150
0.16324316 0.60963297 -3.88101125
-2.20902753 1.82003546 -0.67561817
-2.39975691 0.53185105 -2.31940389
1.80573940 0.09058769 -3.20392442
-0.09916627 1.13357973 3.62631512
1.20256031 1.73405182 -2.65014482
1.62032235 1.67838454 -2.32322502
2.77321601 0.20392802 -1.59950995
1.84029675 0.95510650 -2.84996915
1.79959023 0.72367662 -3.03439903
1.70778799 1.01767182 -2.94556308
0.03819650 0.03488670 3.98650789
1.46931326 1.36153376 2.87062240
-0.16500621 2.39433146 -1.91775715
2.40402341 1.00659382 -1.94653773
-0.35042521 -2.71379519 0.21302240
-1.56227863 1.02804387 -3.07421923
-0.56698501 0.19425519 3.90784931
-2.54782701 1.48671246 -0.14872424
0.70153272 0.36701146 -3.84220743
-0.78743911 0.32774544 -3.82148194
0.37113014 2.68312335 0.60597140
-2.01713824 1.91016531 1.07061422
0.62535065 2.21403217 2.19400787
0.81339961 2.26644850 -1.96144736
-0.20773993 2.68447161 -0.72211242
2.74827099 0.63218296 1.42931974
1.75178885 0.28847650 -3.22983074
-2.58285069 0.28630760 2.05744648
-1.15507936 0.25033996 3.67045307
0.43725768 2.70255637 -0.23577425
0.31022635 0.42318648 3.91825867
-1.52247608 2.36232471 0.21672809
0.20449457 0.55341125 -3.89556003
-0.55630422 0.37489712 3.88140368
2.33570337 1.44203675 1.44532478
1.28785706 1.44311178 -2.93660069
-2.28307652 1.18251610 1.98945284
-2.73184395 0.06964289 -1.74102151
0.24415475 2.38816953 -1.91882110
-0.21921846 2.43019795 1.80968249
-2.60214400 1.22885346 -1.01116502
1.83820713 0.87526977 2.90752912
1.50181913 0.04731864 3.46495748
0.26370743 2.03625154 2.64145541
1.27644086 2.43220425 -0.72738624
-1.72290993 1.98238707 -1.56068218
2.04087043 1.70190239 1.60439336
-2.06094456 0.33081785 2.88970304
0.20677420 2.16643190 2.42026520
-0.32506058 -2.48186874 -1.62469649
-0.70462549 0.76205438 3.71587777
-2.88279653 0.26764625 1.19302988
0.60792971 1.16767275 3.51694560
1.73159206 2.06973982 1.27973318
1.90921688 0.62414539 2.96518826
-0.55336553 0.06088504 -3.91954660
-1.24258089 2.41659689 -0.91328996
2.43406749 0.13632226 -2.37696481
0.98478276 0.11143354 3.76830697
-0.80630887 2.00806928 -2.49383593
1.42243564 0.29618612 3.49733424
0.33697611 0.50231421 3.89435601
-2.43934011 1.61000669 0.37111846
0.67485034 0.13911682 -3.88215160
1.56892467 2.34248185 -0.08731674
-0.65765643 0.20904537 3.88062453
-2.59178948 0.74050140 1.77753675
-0.58403760 0.37884232 3.87396717
-0.38433382 1.23900485 3.51924443
-0.22090763 1.20559847 -3.56762576
0.52851003 2.53229737 -1.34191680
0.09520206 0.01673467 -3.98511338
2.74470687 0.75937569 1.30419219
-1.53211415 2.35902452 -0.17123722
0.45006746 1.52798319 -3.25394511
0.08767968 2.54543519 1.46019483
2.04892945 0.61691010 -2.80333400
-1.40545714 -0.01731449 3.53459215
1.38340199 2.38851380 -0.70310056
2.38363957 1.68918228 -0.20821165
0.94945645 1.83547521 -2.68168712
2.53302765 1.38933027 -0.86724228
0.21893644 0.13247620 3.97228718
-2.12017202 0.78240418 -2.61824179
-1.56131780 1.20676363 2.93439507
-2.06408644 0.10993720 -2.92214727
2.30972886 1.63537455 -1.01089263
-1.07499540 0.56529093 -3.63687825
-1.71622074 -0.89246547 -3.02222872
1.35539401 0.10330556 3.56507230
-2.30572748 0.86121118 2.27158737
0.25040135 0.26886326 -3.95413613
0.50259322 1.62698376 3.13677144
-1.93975973 1.83223557 -1.51194882
-1.02642345 -2.04249549 -2.28492570
0.83269274 0.69034934 3.70016932
-1.65300012 -2.18955398 1.00335777
-0.31998131 0.32689267 -3.93655682
2.47805738 0.26330251 -2.27339745
-0.28839898 2.06079030 -2.59491205
0.67326516 1.53729033 -3.17901897
-0.59739482 0.81300801 -3.72542214
1.90704775 2.05761075 -0.79746413
1.52836573 1.67489743 -2.43210220
2.92735052 0.11568418 1.05407476
-0.17839782 2.58804941 -1.27634549
2.19855475 1.65564108 -1.32332432
0.67556816 1.79402602 -2.87675714
0.34992871 0.99954998 3.68358421
1.40721512 0.15967390 -3.52592397
2.80497766 0.93816733 -0.69367141
-1.88531303 0.45544207 -3.05638051
-2.22222972 1.86163175 -0.16050859
-2.94935942 0.58941644 0.41823128
-3.02815127 0.17367595 -0.18338488
-2.00413299 1.87723017 -1.22190440
0.31690410 0.66649735 3.84451985
-2.11462831 1.69751489 1.44162357
2.48045635 0.37644523 2.23453641
-1.90945327 1.19686139 -2.56358314
0.18912134 1.08092666 3.65446591
2.53243732 1.35721564 0.96742535
-2.36479664 1.50094795 -1.21695113
-0.62544996 2.27817249 -2.04889989
1.22371221 0.70174682 -3.50413775
0.97908211 2.18665314 -2.02426887
-0.14646302 -0.90355003 -3.75891376
1.55744553 2.34891462 -0.03283265
0.72423476 0.97613358 3.60212207
-1.89965165 -2.13434482 0.03545278
1.76849854 0.43506300 -3.18030071
-2.58132529 0.77406353 1.77510130
-0.08610284 1.71956742 3.09888339
1.74216700 0.51389706 3.18035245
-1.35916495 1.82022107 2.38249397
-0.41903189 0.80736518 3.76963019
-0.09051754 0.70644081 -3.85028768
1.82144141 0.93529528 2.88490868
-0.14634906 0.07950965 3.98141456
-2.21491885 0.96238571 -2.34128308
2.00558448 0.20096515 -2.97998810
-1.12083876 0.55448049 -3.61668348
-2.65042806 -0.05882974 -1.94752228
-0.38515213 0.66140097 3.83557487
-0.40966859 0.47539952 -3.88942337
0.22659989 1.55247951 3.26997161
-0.08777147 0.01712688 -3.98534846
-0.93649590 -2.11086726 -2.21814227
0.93972427 1.31756651 -3.26968002
1.65752363 1.26255655 -2.79028535
-0.50416213 0.37657505 3.89333296
-2.18572021 1.90039814 0.00080714
-2.05489254 1.38460004 -2.13327694
-3.00191259 0.38987499 -0.21126436
-2.73645830 -0.28000727 1.68252122
-0.92377168 2.38845968 1.51897883
1.29676104 0.00545347 3.60616302
1.69223893 2.13536525 1.13102818
2.66023684 -1.22127378 0.73195082
2.18439627 1.24732685 -2.09012508
0.30621198 0.37994537 -3.92792201
-0.50407004 0.26042452 -3.91407919
0.09707557 0.08518888 3.98385119
-0.99585909 2.55995941 0.52015132
-1.64389038 2.29572153 0.20965527
-0.19533014 0.10255572 3.97598863
-0.48335594 2.08730555 -2.49969983
2.41765738 1.31809187 1.46596432
2.78104162 0.26478374 -1.55685902
-2.81718755 0.52055901 -1.28492117
-1.06827974 2.06541681 2.20663500
-0.71635199 0.73889887 -3.72202039
1.82948983 0.20171025 3.17007089
-1.23955345 -2.46190214 0.61095029
3.02851939 0.19366024 -0.12699801
0.07734077 -2.49301934 1.64163482
3.00263762 0.14994425 0.56405604
-0.59251267 0.34615833 -3.87800622
1.97227502 2.00336051 0.82087994
0.04664673 0.10547785 -3.98416209
-2.78780222 0.80446136 -1.06691158
-2.14615130 0.74053866 2.60785532
0.81921554 0.26742020 -3.82010221
1.51827526 0.89244086 3.19947815
1.93207729 1.29156709 2.43407822
2.06291723 1.61440039 -1.73950803
-1.83025777 1.11114228 2.73899937
-1.78714001 -1.92932653 1.57749677
-1.23860466 0.63081467 -3.52302814
-0.16913018 0.11460651 -3.97740650
0.97392958 2.59014010 0.13407841
0.46542037 2.09580469 -2.49041080
-0.81432533 1.59518313 3.05884671
3.00390697 0.13210499 0.56493527
2.15552020 1.67007840 -1.40227532
2.62574100 1.09272993 -1.21759546
-0.98851645 2.45650959 -1.18118834
2.05676031 0.57071322 2.81457925
1.44818258 0.93992794 3.22583795
-0.66767228 2.09419250 -2.41065955
-1.08987260 1.95979941 2.38616514
-0.64202660 0.64909416 -3.78036022
1.16904747 1.23188603 3.21234775
-2.01292467 1.18392467 -2.43716097
-1.57856584 2.00592542 1.74839020
0.15481231 0.29006085 3.95945096
2.72912431 1.05889988 -0.82659805
2.38750362 1.22697508 -1.69600821
-1.92855859 1.98585677 -1.05649626
-0.51357561 1.12295914 3.57296968
-2.90078998 0.09727826 -1.17375183
-1.74165416 2.18779492 0.71256423
1.35291052 0.61653483 -3.45466828
-0.20521052 2.10930657 -2.52471566
0.10687928 -1.88061893 -2.89257193
-0.51401669 1.56776905 -3.19751382
-0.60791719 1.81106722 -2.87982178
-1.10992682 0.52873290 3.63041210
0.06425016 0.19876173 -3.97562265
3 166 179 125
3 47 212 193
3 0 212 51
3 195 212 0
3 211 195 0
3 51 212 210
3 131 166 125
3 247 166 151
3 179 166 247
3 151 166 191
3 191 166 224
3 141 155 195
3 79 212 195
3 79 193 212
3 86 0 51
3 251 0 86
3 51 210 86
3 86 210 166
3 224 166 133
3 166 210 133
3 133 212 224
3 133 210 212
3 125 163 23
3 23 131 125
3 23 163 251
3 251 86 23
3 114 191 224
3 84 191 114
3 154 73 171
3 99 73 154
3 64 191 84
3 42 6 222
3 222 6 139
3 195 155 9
3 47 193 95
3 251 163 146
3 77 217 54
3 131 23 184
3 184 23 86
3 166 131 184
3 184 86 166
3 179 247 74
3 33 247 151
3 151 190 33
3 84 114 27
3 218 64 84
3 155 141 62
3 141 109 62
3 213 109 141
3 211 147 213
3 213 147 109
3 237 207 171
3 164 1 194
3 150 190 151
3 99 54 150
3 150 217 190
3 150 54 217
3 139 143 231
3 231 222 139
3 143 118 244
3 244 231 143
3 222 231 244
3 107 81 6
3 179 74 38
3 209 79 195
3 195 9 209
3 7 98 12
3 165 239 89
3 18 239 48
3 39 0 251
3 251 146 39
3 249 146 219
3 108 163 183
3 125 4 15
3 252 106 17
3 52 156 17
3 156 96 17
3 42 186 140
3 60 107 6
3 82 96 189
3 189 96 156
3 149 54 99
3 37 54 149
3 254 27 65
3 65 27 114
3 87 27 254
3 246 229 121
3 121 27 246
3 27 87 246
3 171 73 223
3 223 121 171
3 223 27 121
3 84 27 223
3 223 218 84
3 168 73 99
3 99 150 168
3 8 212 47
3 224 212 8
3 8 114 224
3 230 141 195
3 230 213 141
3 230 195 211
3 211 213 230
3 11 237 171
3 229 237 11
3 171 121 11
3 121 229 11
3 18 48 35
3 21 192 207
3 207 237 21
3 21 237 229
3 59 85 80
3 80 35 59
3 99 154 58
3 19 48 221
3 19 35 48
3 19 1 59
3 59 35 19
3 155 62 31
3 31 62 109
3 139 6 115
3 6 81 115
3 57 1 227
3 1 164 227
3 123 143 139
3 123 118 143
3 222 244 196
3 42 222 196
3 196 186 42
3 211 205 32
3 32 147 211
3 10 96 82
3 111 106 252
3 36 106 111
3 111 185 36
3 137 185 111
3 29 111 252
3 206 38 74
3 190 217 206
3 206 33 190
3 206 74 247
3 247 33 206
3 120 156 52
3 7 12 119
3 47 95 119
3 119 95 7
3 12 242 119
3 7 95 97
3 79 209 97
3 67 12 98
3 98 242 67
3 67 242 12
3 113 45 44
3 44 196 113
3 186 196 44
3 249 219 161
3 0 39 94
3 167 45 113
3 249 45 167
3 100 146 163
3 100 219 146
3 100 163 108
3 226 255 216
3 216 183 226
3 108 183 216
3 134 255 226
3 162 60 6
3 162 41 117
3 140 41 162
3 162 6 42
3 42 140 162
3 37 152 159
3 77 54 159
3 159 54 37
3 176 217 77
3 77 159 176
3 176 159 189
3 176 120 38
3 176 206 217
3 38 206 176
3 89 182 157
3 64 218 127
3 73 168 127
3 127 223 73
3 218 223 127
3 88 168 150
3 191 64 88
3 151 191 88
3 88 150 151
3 187 70 53
3 187 53 202
3 202 53 8
3 18 35 129
3 129 182 89
3 35 80 129
3 89 239 129
3 129 239 18
3 112 1 57
3 59 1 112
3 112 85 59
3 85 21 169
3 169 80 85
3 169 21 229
3 182 129 169
3 169 129 80
3 188 149 99
3 99 58 188
3 207 192 241
3 171 207 241
3 241 154 171
3 241 58 154
3 245 152 37
3 81 107 5
3 200 112 57
3 192 112 200
3 83 19 221
3 221 31 83
3 83 31 71
3 204 31 109
3 71 31 204
3 139 115 101
3 101 115 81
3 81 227 101
3 101 227 164
3 139 101 116
3 116 123 139
3 116 22 118
3 118 123 116
3 147 32 232
3 232 244 118
3 49 203 160
3 250 203 49
3 107 60 75
3 75 250 49
3 144 117 137
3 137 111 144
3 111 29 144
3 179 38 122
3 125 179 122
3 122 4 125
3 4 122 148
3 148 120 52
3 38 120 148
3 148 122 38
3 221 48 174
3 174 31 221
3 47 119 199
3 199 119 242
3 7 97 132
3 132 98 7
3 126 95 193
3 126 97 95
3 193 79 126
3 79 97 126
3 72 140 186
3 72 41 140
3 72 185 137
3 137 117 72
3 117 41 72
3 46 44 45
3 46 45 249
3 249 161 46
3 186 44 46
3 46 72 186
3 46 161 185
3 185 72 46
3 55 161 219
3 219 100 55
3 36 185 55
3 185 161 55
3 0 94 43
3 43 205 211
3 211 0 43
3 177 94 39
3 135 32 205
3 205 43 135
3 135 43 94
3 63 39 146
3 63 146 249
3 249 167 63
3 63 177 39
3 167 177 63
3 16 17 208
3 208 225 16
3 52 17 16
3 16 225 52
3 124 225 208
3 238 24 181
3 238 124 208
3 181 24 173
3 36 134 173
3 173 134 181
3 173 106 36
3 173 24 106
3 130 159 152
3 189 159 130
3 82 189 130
3 156 120 240
3 120 176 240
3 240 189 156
3 240 176 189
3 104 180 87
3 104 87 254
3 104 70 187
3 187 180 104
3 104 53 70
3 34 180 187
3 187 202 34
3 34 202 242
3 172 246 87
3 87 180 172
3 180 34 172
3 182 169 105
3 229 246 105
3 105 169 229
3 145 165 89
3 89 157 145
3 64 127 103
3 103 127 168
3 103 88 64
3 168 88 103
3 175 8 47
3 175 202 8
3 192 21 76
3 76 112 192
3 76 21 85
3 85 112 76
3 201 188 248
3 248 188 58
3 58 241 248
3 248 241 192
3 192 200 248
3 149 188 13
3 201 110 13
3 13 188 201
3 37 149 13
3 13 245 37
3 152 245 3
3 82 130 3
3 3 130 152
3 66 227 81
3 81 5 66
3 57 227 66
3 68 110 201
3 68 200 110
3 201 248 68
3 68 248 200
3 61 66 5
3 61 200 57
3 57 66 61
3 19 83 90
3 194 1 90
3 1 19 90
3 71 204 158
3 158 204 109
3 109 147 158
3 147 22 158
3 147 232 243
3 243 232 118
3 243 22 147
3 118 22 243
3 96 10 236
3 236 203 96
3 236 160 203
3 203 250 136
3 136 29 252
3 136 250 29
3 228 75 60
3 228 144 29
3 29 250 228
3 250 75 228
3 117 144 228
3 228 162 117
3 60 162 228
3 30 15 4
3 4 148 30
3 30 148 52
3 52 225 30
3 30 225 15
3 31 174 78
3 239 165 235
3 165 132 235
3 235 48 239
3 36 55 69
3 69 134 36
3 255 134 69
3 197 55 100
3 197 69 55
3 26 167 113
3 26 177 167
3 94 177 26
3 113 135 26
3 26 135 94
3 50 196 244
3 32 135 50
3 113 196 50
3 50 135 113
3 244 232 50
3 50 232 32
3 15 225 178
3 225 124 178
3 178 56 15
3 124 56 178
3 138 238 208
3 24 238 138
3 106 24 138
3 208 17 138
3 138 17 106
3 53 104 102
3 102 65 114
3 254 65 102
3 102 104 254
3 114 8 102
3 8 53 102
3 153 242 98
3 153 34 242
3 157 34 153
3 153 145 157
3 98 132 153
3 153 132 165
3 165 145 153
3 40 34 157
3 40 172 34
3 40 157 182
3 182 105 40
3 246 172 40
3 40 105 246
3 20 199 242
3 242 202 20
3 202 175 20
3 47 199 20
3 20 175 47
3 49 160 14
3 215 90 83
3 215 83 71
3 71 158 215
3 194 90 215
3 215 158 22
3 22 116 215
3 215 164 194
3 215 101 164
3 215 116 101
3 2 236 10
3 160 236 2
3 10 14 2
3 2 14 160
3 253 136 252
3 203 136 253
3 96 203 253
3 252 17 253
3 253 17 96
3 31 78 234
3 234 78 91
3 155 31 234
3 234 9 155
3 234 209 9
3 234 91 209
3 25 132 97
3 25 235 132
3 25 97 209
3 128 100 108
3 128 197 100
3 108 216 128
3 128 216 255
3 255 69 128
3 69 197 128
3 124 238 28
3 28 56 124
3 226 183 92
3 92 183 163
3 92 163 125
3 125 15 92
3 15 56 92
3 49 14 142
3 142 14 61
3 142 61 5
3 142 75 49
3 142 5 107
3 107 75 142
3 110 200 93
3 200 61 93
3 93 13 110
3 245 13 93
3 93 3 245
3 82 3 93
3 235 25 220
3 220 78 174
3 220 174 48
3 48 235 220
3 198 134 226
3 226 92 198
3 181 134 198
3 198 92 56
3 233 14 10
3 233 10 82
3 82 93 233
3 61 14 233
3 233 93 61
3 170 220 25
3 209 91 170
3 170 25 209
3 91 78 170
3 78 220 170
3 181 198 214
3 214 238 181
3 214 28 238
3 56 28 214
3 214 198 56