ply
format ascii 1.0
comment https://github.com/mikedh/trimesh
element vertex 256
property float x
property float y
property float z
element face 508
property list uchar int vertex_indices
end_header
3.56825614 -1.69849873 -0.46047059
1.88469267 2.19426727 1.15789866
-1.19016743 2.14900708 -1.68642855
-2.84946156 1.89602304 -1.13203073
-3.03648901 0.09631019 -2.75803828
0.59370261 2.44442701 -0.89022774
1.76942790 2.10684872 -1.51140797
1.37050009 0.17944013 3.38386774
-0.45228386 0.01202415 3.52080607
3.47980523 0.24888058 2.44555998
-1.31513166 2.15179324 -1.63262165
-1.75294840 1.53375423 2.51769567
0.63751239 0.23507567 3.49013281
-3.12044215 1.93402636 -0.37767988
-1.01195896 2.33011270 -1.22005260
-2.55791354 0.32493737 -2.97264862
-2.23484349 0.95214784 -2.84819126
-1.49235201 1.36075008 -2.78437519
1.94602096 1.34806716 2.64441538
2.70287514 1.77602565 1.60044086
0.01164738 0.09014709 3.53354263
-0.66512895 2.13984799 1.85482430
4.04298258 1.41480839 0.05130947
-0.52018219 -1.68119550 -2.62875724
-0.64541543 0.77279818 -3.33631039
2.54929876 0.45342100 2.94432449
3.30053949 0.29150668 -2.56469774
-2.07992792 0.60215884 3.08470440
-1.21329331 0.33734897 -3.39177513
0.36149466 1.82826281 -2.44707298
-2.65568638 0.34244061 -2.92427874
3.64792514 1.03273821 1.84677553
4.48965740 0.48697710 -1.17786252
-4.67837334 0.15019491 -0.94242424
-0.51412767 0.61855578 3.40931845
1.47121882 1.71216345 2.38820863
0.26130724 0.56737906 -3.44154239
-3.53604364 1.69388795 -0.59911412
-3.84134841 0.49498820 -2.05676484
2.89049053 0.08430901 -2.84112597
-0.15873784 1.05501080 3.21568704
1.92496729 1.61386383 -2.35005403
2.59368896 1.56205487 -2.06015325
4.43915367 0.18979368 -1.41838849
2.94580722 0.88890761 -2.52725101
2.88064742 0.67351824 -2.69079685
2.73369741 0.94713652 -2.61202025
0.06114206 0.03246869 3.53509307
2.35196519 1.26716530 2.54556584
-0.26412940 2.22837925 -1.70059872
3.84817839 0.93682629 -1.72612035
-0.56093407 -2.52570081 0.18890068
-2.50077701 0.95678967 -2.72610807
-0.90758651 0.18079127 3.46534157
-4.07836819 1.38366771 -0.13188335
1.12296033 0.34157372 -3.40713263
-1.26047266 0.30502927 -3.38875389
0.59407693 2.49715471 0.53735387
-3.22888184 1.77777088 0.94938254
1.00101376 2.06057644 1.94556797
1.30202830 2.10935998 -1.73934162
-0.33253431 2.49840975 -0.64034361
4.39922333 0.58836603 1.26746976
2.80413055 0.26848206 -2.86409903
-4.13443136 0.26646349 1.82447028
-1.84896338 0.23298877 3.25482702
0.69992888 2.51524091 -0.20907621
0.49658677 0.39385521 3.47457218
-2.43706393 2.19859099 0.19218674
0.32733935 0.51505405 -3.45444393
-0.89048958 0.34891284 3.44189048
3.73881674 1.34208858 1.28166246
2.06150389 1.34308898 -2.60407281
-3.65457559 1.10055542 1.76417601
-4.37292814 0.06481590 -1.54387593
0.39082438 2.22264457 -1.70154226
-0.35090828 2.26175976 1.60476196
-4.16531420 1.14368105 -0.89666516
2.94246244 0.81460440 2.57829332
2.40399814 0.04403896 3.07260084
0.42212284 1.89511800 2.34234858
2.04322958 2.26362705 -0.64502025
-2.75790334 1.84498692 -1.38395739
3.26687026 1.58394277 1.42271888
-3.29900360 0.30788872 2.56248569
0.33098844 2.01627541 2.14620495
-0.52033228 -2.30984926 -1.44072294
-1.12791097 0.70923603 3.29510808
-4.61456156 0.24909557 1.05793643
0.97312766 1.08674085 3.11870217
2.77180099 1.92628527 1.13482177
3.05612946 0.58088559 2.62942338
-0.88578558 0.05666507 -3.47571445
-1.98902917 2.24910140 -0.80987304
3.89627028 0.12687370 -2.10780764
1.57636547 0.10371003 3.34160042
-1.29067802 1.86888909 -2.21144509
2.27692699 0.27565733 3.10131145
0.53940576 0.46749857 3.45337629
-3.90471053 1.49841642 0.32909462
1.08024919 0.12947458 -3.44255376
2.51141548 2.18012333 -0.07742937
-1.05272651 0.19455634 3.44119978
-4.14873981 0.68917692 1.57625628
-0.93488306 0.35258460 3.43529606
-0.61521238 1.15312886 3.12074065
-0.35361215 1.12203789 -3.16364336
0.84599876 2.35678267 -1.18996406
0.15239222 0.01557478 -3.53385663
4.39351845 0.70674300 1.15651119
-2.45249200 2.19551921 -0.15184706
0.72043383 1.42207801 -2.88548255
0.14035097 2.36900997 1.29484880
3.27977037 0.57415175 -2.48589683
-2.24974918 -0.01611442 3.13435054
2.21444464 2.22296476 -0.62348449
3.81554914 1.57210433 -0.18463467
1.51981783 1.70825756 -2.37802458
4.05467844 1.29303503 -0.76903957
0.35045683 0.12329420 3.52248287
-3.39381051 0.72817540 -2.32176352
-2.49923897 1.12312222 2.60211706
-3.30403256 0.10231740 -2.59125614
3.69723845 1.52202594 -0.89642358
-1.72077107 0.52611035 -3.22505403
-2.74719596 -0.83060825 -2.68000484
2.16961169 0.09614540 3.16137910
-3.69083333 0.80152023 2.01436281
0.40082347 0.25022823 -3.50638700
0.80451310 1.51421666 2.78157711
-3.10502005 1.70524251 -1.34074235
-1.64302075 -1.90092921 -2.02619076
1.33291125 0.64250094 3.28117824
-2.64599705 -2.03779483 0.88974190
-0.51220179 0.30423558 -3.49079823
3.96668601 0.24505289 -2.01596785
-0.46164718 1.91795588 -2.30107546
1.07771170 1.43074000 -2.81904101
-0.95626426 0.75665808 -3.30357170
3.05265713 1.91499674 -0.70716280
2.44649172 1.55880952 -2.15670156
4.68588066 0.10766606 0.93471593
-0.28556570 2.40867066 -1.13181770
3.51927948 1.54088783 -1.17347693
1.08139825 1.66968119 -2.55100560
0.56013930 0.93027073 3.26647139
2.25256324 0.14860682 -3.12666368
4.48999500 0.87314254 -0.61512309
-3.01786590 0.42387518 -2.71028948
-3.55717659 1.73260117 -0.14233330
-4.72111034 0.54856372 0.37087262
-4.84723473 0.16163839 -0.16261919
-3.20806408 1.74711847 -1.08354127
0.50727600 0.62030208 3.40918326
-3.38493633 1.57985938 1.27838039
3.97052598 0.35035366 1.98150730
-3.05650783 1.11390638 -2.27329421
0.30273107 1.00600708 3.24065018
4.05373335 1.26314640 0.85787839
-3.78538704 1.39691651 -1.07914889
-1.00117278 2.12027144 -1.81689155
1.95882559 0.65310842 -3.10734463
1.56724024 2.03509521 -1.79504943
-0.23444690 -0.84092456 -3.33327079
2.49304056 2.18611026 -0.02911483
1.15929997 0.90847731 3.19423342
-3.04081821 -1.98641241 0.03143826
2.83087826 0.40490860 -2.82017732
-4.13198948 0.72041279 1.57409656
-0.13782689 1.60038340 2.74797940
2.78872848 0.47827864 2.82022333
-2.17564797 1.69406068 2.11271071
-0.67075443 0.75140637 3.34277391
-0.14489362 0.65747708 -3.41429806
2.91562510 0.87046951 2.55823421
-0.23426446 0.07399879 3.53057647
-3.54547381 0.89568233 -2.07616639
3.21038723 0.18703617 -2.64254737
-1.79415345 0.51604921 -3.20714617
-4.24260378 -0.05475222 -1.72699332
-0.61652231 0.61555892 3.40125108
-0.65576637 0.44244936 -3.44900227
0.36272389 1.44487643 2.89969444
-0.14049789 0.01593981 -3.53406501
-1.49907160 -1.96456194 -1.96696961
1.50423920 1.22624528 -2.89943576
2.65323782 1.17504811 -2.47432566
-0.80702448 0.35047445 3.45246911
-3.49873495 1.76868069 0.00071574
-3.28931594 1.28863287 -1.89171398
-4.80523396 0.36285257 -0.18734172
-4.38031483 -0.26059985 1.49199998
-1.47870350 2.22291446 1.34697628
2.07575655 0.00507549 3.19781709
2.70880747 1.98736215 1.00295556
4.25830507 -1.13662672 0.64906794
3.49661589 1.16087401 -1.85344839
0.49016088 0.35361117 -3.48314142
-0.80687702 0.24237438 -3.47086596
0.15539120 0.07928440 3.53273726
-1.59409559 2.38252735 0.46125168
-2.63141489 2.13660383 0.18591483
-0.31266966 0.09544754 3.52576518
-0.77371943 1.94263339 -2.21664476
3.87000251 1.22673440 1.29996502
4.45168018 0.24643146 -1.38056707
-4.50954008 0.48447880 -1.13942242
-1.71002114 1.92226171 1.95676529
-1.14668179 0.68768543 -3.30055523
2.92850828 0.18772963 2.81110597
-1.98418295 -2.29126668 0.54176897
4.84782362 0.18023756 -0.11261731
0.12380124 -2.32022691 1.45574331
4.80639410 0.13955154 0.50018483
-0.94844931 0.32216594 -3.43887782
3.15706801 1.86450660 0.72792709
0.07466853 0.09816714 -3.53301311
-4.46250200 0.74870378 -0.94609916
-3.43539619 0.68921161 2.31255317
1.31133807 0.24888517 -3.38753057
2.43033957 0.83058536 2.83718324
3.09272265 1.20204806 2.15845394
3.30216122 1.50250554 -1.54253376
-2.92973757 1.03412843 2.42884707
-2.86071801 -1.79560399 1.39886796
-1.98266435 0.58709258 -3.12409592
-0.27073073 0.10666309 -3.52702260
1.55899251 2.41061616 0.11889596
0.74500954 1.95054352 -2.20840764
-1.30351007 1.48462033 2.71247625
4.80842638 0.12294873 0.50096446
3.45039320 1.55432451 -1.24348783
4.20308685 1.01699221 -1.07972026
-1.58234203 2.28624773 -1.04743576
3.29230571 0.53115684 2.49586868
2.31814075 0.87478107 2.86055827
-1.06875908 1.94904304 -2.13768697
-1.74458516 1.82396483 2.11596608
-1.02770746 0.60410517 -3.35228896
1.87132239 1.14650345 2.84859562
-3.22213697 1.10186636 -2.16118741
-2.52684832 1.86689377 1.55041015
0.24781178 0.26995659 3.51110005
4.36857510 0.98550701 -0.73299772
3.82173467 1.14193285 -1.50395966
-3.08709002 1.84821606 -0.93686324
-0.82209283 1.04512632 3.16838241
-4.64336443 0.09053586 -1.04084122
-2.78790760 2.03615785 0.63187659
2.16563630 0.57380253 -3.06347680
-0.32848543 1.96310961 -2.23882794
0.17108423 -1.75027227 -2.56502962
-0.82279885 1.45910621 -2.83544135
-0.97310770 1.68554127 -2.55372334
-1.77668655 0.49208620 3.21932006
0.10284677 0.18498546 -3.52544069
3 166 179 125
3 47 212 193
3 0 212 51
3 195 212 0
3 211 195 0
3 51 212 210
3 131 166 125
3 247 166 151
3 179 166 247
3 151 166 191
3 191 166 224
3 141 155 195
3 79 212 195
3 79 193 212
3 86 0 51
3 251 0 86
3 51 210 86
3 86 210 166
3 224 166 133
3 166 210 133
3 133 212 224
3 133 210 212
3 125 163 23
3 23 131 125
3 23 163 251
3 251 86 23
3 114 191 224
3 84 191 114
3 154 73 171
3 99 73 154
3 64 191 84
3 42 6 222
3 222 6 139
3 195 155 9
3 47 193 95
3 251 163 146
3 77 217 54
3 131 23 184
3 184 23 86
3 166 131 184
3 184 86 166
3 179 247 74
3 33 247 151
3 151 190 33
3 84 114 27
3 218 64 84
3 155 141 62
3 141 109 62
3 213 109 141
3 211 147 213
3 213 147 109
3 237 207 171
3 164 1 194
3 150 190 151
3 99 54 150
3 150 217 190
3 150 54 217
3 139 143 231
3 231 222 139
3 143 118 244
3 244 231 143
3 222 231 244
3 107 81 6
3 179 74 38
3 209 79 195
3 195 9 209
3 7 98 12
3 165 239 89
3 18 239 48
3 39 0 251
3 251 146 39
3 249 146 219
3 108 163 183
3 125 4 15
3 252 106 17
3 52 156 17
3 156 96 17
3 42 186 140
3 60 107 6
3 82 96 189
3 189 96 156
3 149 54 99
3 37 54 149
3 254 27 65
3 65 27 114
3 87 27 254
3 246 229 121
3 121 27 246
3 27 87 246
3 171 73 223
3 223 121 171
3 223 27 121
3 84 27 223
3 223 218 84
3 168 73 99
3 99 150 168
3 8 212 47
3 224 212 8
3 8 114 224
3 230 141 195
3 230 213 141
3 230 195 211
3 211 213 230
3 11 237 171
3 229 237 11
3 171 121 11
3 121 229 11
3 18 48 35
3 21 192 207
3 207 237 21
3 21 237 229
3 59 85 80
3 80 35 59
3 99 154 58
3 19 48 221
3 19 35 48
3 19 1 59
3 59 35 19
3 155 62 31
3 31 62 109
3 139 6 115
3 6 81 115
3 57 1 227
3 1 164 227
3 123 143 139
3 123 118 143
3 222 244 196
3 42 222 196
3 196 186 42
3 211 205 32
3 32 147 211
3 10 96 82
3 111 106 252
3 36 106 111
3 111 185 36
3 137 185 111
3 29 111 252
3 206 38 74
3 190 217 206
3 206 33 190
3 206 74 247
3 247 33 206
3 120 156 52
3 7 12 119
3 47 95 119
3 119 95 7
3 12 242 119
3 7 95 97
3 79 209 97
3 67 12 98
3 98 242 67
3 67 242 12
3 113 45 44
3 44 196 113
3 186 196 44
3 249 219 161
3 0 39 94
3 167 45 113
3 249 45 167
3 100 146 163
3 100 219 146
3 100 163 108
3 226 255 216
3 216 183 226
3 108 183 216
3 134 255 226
3 162 60 6
3 162 41 117
3 140 41 162
3 162 6 42
3 42 140 162
3 37 152 159
3 77 54 159
3 159 54 37
3 176 217 77
3 77 159 176
3 176 159 189
3 176 120 38
3 176 206 217
3 38 206 176
3 89 182 157
3 64 218 127
3 73 168 127
3 127 223 73
3 218 223 127
3 88 168 150
3 191 64 88
3 151 191 88
3 88 150 151
3 187 70 53
3 187 53 202
3 202 53 8
3 18 35 129
3 129 182 89
3 35 80 129
3 89 239 129
3 129 239 18
3 112 1 57
3 59 1 112
3 112 85 59
3 85 21 169
3 169 80 85
3 169 21 229
3 182 129 169
3 169 129 80
3 188 149 99
3 99 58 188
3 207 192 241
3 171 207 241
3 241 154 171
3 241 58 154
3 245 152 37
3 81 107 5
3 200 112 57
3 192 112 200
3 83 19 221
3 221 31 83
3 83 31 71
3 204 31 109
3 71 31 204
3 139 115 101
3 101 115 81
3 81 227 101
3 101 227 164
3 139 101 116
3 116 123 139
3 116 22 118
3 118 123 116
3 147 32 232
3 232 244 118
3 49 203 160
3 250 203 49
3 107 60 75
3 75 250 49
3 144 117 137
3 137 111 144
3 111 29 144
3 179 38 122
3 125 179 122
3 122 4 125
3 4 122 148
3 148 120 52
3 38 120 148
3 148 122 38
3 221 48 174
3 174 31 221
3 47 119 199
3 199 119 242
3 7 97 132
3 132 98 7
3 126 95 193
3 126 97 95
3 193 79 126
3 79 97 126
3 72 140 186
3 72 41 140
3 72 185 137
3 137 117 72
3 117 41 72
3 46 44 45
3 46 45 249
3 249 161 46
3 186 44 46
3 46 72 186
3 46 161 185
3 185 72 46
3 55 161 219
3 219 100 55
3 36 185 55
3 185 161 55
3 0 94 43
3 43 205 211
3 211 0 43
3 177 94 39
3 135 32 205
3 205 43 135
3 135 43 94
3 63 39 146
3 63 146 249
3 249 167 63
3 63 177 39
3 167 177 63
3 16 17 208
3 208 225 16
3 52 17 16
3 16 225 52
3 124 225 208
3 238 24 181
3 238 124 208
3 181 24 173
3 36 134 173
3 173 134 181
3 173 106 36
3 173 24 106
3 130 159 152
3 189 159 130
3 82 189 130
3 156 120 240
3 120 176 240
3 240 189 156
3 240 176 189
3 104 180 87
3 104 87 254
3 104 70 187
3 187 180 104
3 104 53 70
3 34 180 187
3 187 202 34
3 34 202 242
3 172 246 87
3 87 180 172
3 180 34 172
3 182 169 105
3 229 246 105
3 105 169 229
3 145 165 89
3 89 157 145
3 64 127 103
3 103 127 168
3 103 88 64
3 168 88 103
3 175 8 47
3 175 202 8
3 192 21 76
3 76 112 192
3 76 21 85
3 85 112 76
3 201 188 248
3 248 188 58
3 58 241 248
3 248 241 192
3 192 200 248
3 149 188 13
3 201 110 13
3 13 188 201
3 37 149 13
3 13 245 37
3 152 245 3
3 82 130 3
3 3 130 152
3 66 227 81
3 81 5 66
3 57 227 66
3 68 110 201
3 68 200 110
3 201 248 68
3 68 248 200
3 61 66 5
3 61 200 57
3 57 66 61
3 19 83 90
3 194 1 90
3 1 19 90
3 71 204 158
3 158 204 109
3 109 147 158
3 147 22 158
3 147 232 243
3 243 232 118
3 243 22 147
3 118 22 243
3 96 10 236
3 236 203 96
3 236 160 203
3 203 250 136
3 136 29 252
3 136 250 29
3 228 75 60
3 228 144 29
3 29 250 228
3 250 75 228
3 117 144 228
3 228 162 117
3 60 162 228
3 30 15 4
3 4 148 30
3 30 148 52
3 52 225 30
3 30 225 15
3 31 174 78
3 239 165 235
3 165 132 235
3 235 48 239
3 36 55 69
3 69 134 36
3 255 134 69
3 197 55 100
3 197 69 55
3 26 167 113
3 26 177 167
3 94 177 26
3 113 135 26
3 26 135 94
3 50 196 244
3 32 135 50
3 113 196 50
3 50 135 113
3 244 232 50
3 50 232 32
3 15 225 178
3 225 124 178
3 178 56 15
3 124 56 178
3 138 238 208
3 24 238 138
3 106 24 138
3 208 17 138
3 138 17 106
3 53 104 102
3 102 65 114
3 254 65 102
3 102 104 254
3 114 8 102
3 8 53 102
3 153 242 98
3 153 34 242
3 157 34 153
3 153 145 157
3 98 132 153
3 153 132 165
3 165 145 153
3 40 34 157
3 40 172 34
3 40 157 182
3 182 105 40
3 246 172 40
3 40 105 246
3 20 199 242
3 242 202 20
3 202 175 20
3 47 199 20
3 20 175 47
3 49 160 14
3 215 90 83
3 215 83 71
3 71 158 215
3 194 90 215
3 215 158 22
3 22 116 215
3 215 164 194
3 215 101 164
3 215 116 101
3 2 236 10
3 160 236 2
3 10 14 2
3 2 14 160
3 253 136 252
3 203 136 253
3 96 203 253
3 252 17 253
3 253 17 96
3 31 78 234
3 234 78 91
3 155 31 234
3 234 9 155
3 234 209 9
3 234 91 209
3 25 132 97
3 25 235 132
3 25 97 209
3 128 100 108
3 128 197 100
3 108 216 128
3 128 216 255
3 255 69 128
3 69 197 128
3 124 238 28
3 28 56 124
3 226 183 92
3 92 183 163
3 92 163 125
3 125 15 92
3 15 56 92
3 49 14 142
3 142 14 61
3 142 61 5
3 142 75 49
3 142 5 107
3 107 75 142
3 110 200 93
3 200 61 93
3 93 13 110
3 245 13 93
3 93 3 245
3 82 3 93
3 235 25 220
3 220 78 174
3 220 174 48
3 48 235 220
3 198 134 226
3 226 92 198
3 181 134 198
3 198 92 56
3 233 14 10
3 233 10 82
3 82 93 233
3 61 14 233
3 233 93 61
3 170 220 25
3 209 91 170
3 170 25 209
3 91 78 170
3 78 220 170
3 181 198 214
3 214 238 181
3 214 28 238
3 56 28 214
3 214 198 56