ply
format ascii 1.0
comment https://github.com/mikedh/trimesh
element vertex 256
property float x
property float y
property float z
element face 508
property list uchar int vertex_indices
end_header
2.52676797 -3.12673163 -0.39890021
1.33459616 4.03938198 1.00307393
-0.84278613 3.95606327 -1.46093309
-2.01777220 3.49035001 -0.98066485
-2.15021086 0.17729546 -2.38925576
0.42041507 4.49989557 -0.77119374
1.25297439 3.87845492 -1.30931485
0.97048402 0.33032766 2.93140435
-0.32027304 0.02213502 3.05003262
2.46413350 0.45815918 2.11855960
-0.93127632 3.96119237 -1.41432083
-1.24130487 2.82345676 2.18104982
0.45143783 0.43274602 3.02346087
-2.20966005 3.56030965 -0.32717961
-0.71659249 4.28945684 -1.05691707
-1.81131995 0.59817058 -2.57517028
-1.58254623 1.75278950 -2.46735430
-1.05677032 2.50497699 -2.41207123
1.37802422 2.48162937 2.29082561
1.91397083 3.26944947 1.38644290
0.00824779 0.16594994 3.06106615
-0.47099376 3.93920255 1.60681236
2.86293316 2.60449171 0.04444879
-0.36835349 -3.09487844 -2.27726126
-0.45703417 1.42262840 -2.89020610
1.80521977 0.83469349 2.55063319
2.33719134 0.53662872 -2.22176719
-1.47284698 1.10850191 2.67224288
-0.85916215 0.62101883 -2.93825459
0.25598305 3.36561179 -2.11987042
-1.88055527 0.63039196 -2.53326797
2.58318353 1.90114677 1.59983981
3.17923427 0.89646620 -1.02036834
-3.31286860 0.27649075 -0.81641090
-0.36406615 1.13868678 2.95345211
1.04180539 3.15188694 2.06887674
0.18503794 1.04447651 -2.98136735
-2.50395751 3.11824393 -0.51900548
-2.72015119 0.91121370 -1.78175104
2.04682565 0.15520275 -2.46123385
-0.11240608 1.94214797 2.78571153
1.36311555 2.97092915 -2.03582406
1.83665347 2.87555504 -1.78468621
3.14347148 0.34938729 -1.22873306
2.08599687 1.63637185 -2.18932772
2.03985572 1.23986602 -2.33100557
1.93579674 1.74356425 -2.26276231
0.04329616 0.05977095 3.06240916
1.66548300 2.33269858 2.20519352
-0.18703638 4.10217762 -1.47320855
2.72498751 1.72458446 -1.49531758
-0.39721090 -4.64951086 0.16364242
-1.77086031 1.76133466 -2.36159515
-0.64268380 0.33281496 3.00198436
-2.88799024 2.54716563 -0.11424899
0.79519516 0.62879610 -2.95155859
-0.89257097 0.56152213 -2.93563747
0.42068014 4.59696150 0.46550328
-2.28644872 3.27266216 0.82243884
0.70884192 3.79327321 1.68542242
0.92199755 3.88307762 -1.50677109
-0.23547553 4.59927130 -0.55472207
3.11519575 1.08311105 1.09799409
1.98567224 0.49424314 -2.48113489
-2.92769003 0.49052721 1.58051693
-1.30929542 0.42890429 2.81961823
0.49563646 4.63025570 -0.18112023
0.35164502 0.72504002 3.00998068
-1.72574353 4.04734135 0.16648911
0.23179686 0.94815248 -2.99254394
-0.63057703 0.64230651 2.98166895
2.64754581 2.47062349 1.11028898
1.45980036 2.47246528 -2.25587749
-2.58789277 2.02599001 1.52828467
-3.09657550 0.11931828 -1.33744144
0.27675214 4.09162092 -1.47402585
-0.24848656 4.16362715 1.39018631
-2.94955921 2.10537910 -0.77677041
2.08362818 1.49958873 2.23354483
1.70232880 0.08107043 2.66175771
0.29891533 3.48868418 2.02914882
1.44685984 4.16706467 -0.55877340
-1.95293772 3.39639878 -1.19890583
2.31334925 2.91584802 1.23248446
-2.33610368 0.56678605 2.21985102
0.23438087 3.71172047 1.85923195
-0.36845979 -4.25215435 -1.24808121
-0.79870087 1.30561817 2.85451317
-3.26768208 0.45855495 0.91647780
0.68909508 2.00055909 2.70169473
1.96277893 3.54605913 0.98308271
2.16411877 1.06934035 2.27783823
-0.62724602 0.10431357 -3.01097012
-1.40847933 4.14032507 -0.70158339
2.75904274 0.23355919 -1.82596886
1.11626232 0.19091769 2.89478874
-0.91396010 3.44039989 -1.91574860
1.61234665 0.50745195 2.68662930
0.38196617 0.86060858 2.99161887
-2.76501918 2.75840425 0.28509077
0.76495045 0.23834710 -2.98224354
1.77839363 4.01334476 -0.06707615
-0.74546093 0.35815480 2.98107052
-2.93782234 1.26869178 1.36549211
-0.66201317 0.64906579 2.97595620
-0.43564665 2.12277150 2.70346069
-0.25040126 2.06553674 -2.74062681
0.59907204 4.33855295 -1.03085172
0.10791259 0.02867130 -3.06133795
3.11115575 1.30102885 1.00187194
-1.73666859 4.04168653 -0.13154331
0.51015651 2.61787438 -2.49965930
0.09938589 4.36106205 1.12171221
2.32248425 1.05694425 -2.15350294
-1.59310138 -0.02966470 2.71525073
1.56810153 4.09221077 -0.54011726
2.70188189 2.89405465 -0.15994683
1.07621944 3.14469647 -2.06005454
2.87121511 2.38032198 -0.66620982
0.24816690 0.22696979 3.05148530
-2.40323877 1.34048319 -2.01131630
-1.76977110 2.06753278 2.25418305
-2.33966494 0.18835402 -2.24477434
2.61810350 2.80186653 -0.77656108
-1.21851933 0.96850580 -2.79382610
-1.94535542 -1.52904975 -2.32165647
1.53635418 0.17699210 2.73866534
-2.61356759 1.47550225 1.74501860
0.28383273 0.46064004 -3.03754163
0.56969506 2.78749061 2.40964723
-2.19873929 3.13914609 -1.16146922
-1.16346252 -3.49938178 -1.75526500
0.94386649 1.18276680 2.84244585
-1.87369406 -3.75133491 0.77077287
-0.36270240 0.56006110 -3.02403712
2.80890560 0.45111287 -1.74640906
-0.32690346 3.53072596 -1.99339437
0.76315355 2.63382030 -2.44210172
-0.67715371 1.39291644 -2.86184502
2.16165996 3.52527833 -0.61260676
1.73241961 2.86958051 -1.86832500
3.31818461 0.19820024 0.80973333
-0.20221592 4.43407249 -0.98048031
2.49208641 2.83658886 -1.01656914
0.76576406 3.07368207 -2.20990610
0.39664808 1.71251631 2.82970548
1.59509408 0.27356726 -2.70859170
3.17947340 1.60735023 -0.53287387
-2.13702345 0.78030318 -2.34789157
-2.51892233 3.18951011 -0.12330165
-3.34313178 1.00983977 0.32128254
-3.43244314 0.29755682 -0.14087507
-2.27170706 3.21623468 -0.93865895
0.35921431 1.14190149 2.95333505
-2.39695477 2.90833092 1.10744584
2.81162477 0.64495885 1.71655631
-2.16438651 2.05056763 -1.96932781
0.21437113 1.85193789 2.80733705
2.87054610 2.32530046 0.74316984
-2.68052340 2.57155514 -0.93485391
-0.70895445 3.90316439 -1.57395160
1.38709140 1.20229387 -2.69185591
1.10980046 3.74636507 -1.55503011
-0.16601747 -1.54804087 -2.88757300
1.76538193 4.02436543 -0.02522183
0.82092816 1.67239738 2.76712656
-2.15327644 -3.65674615 0.02723459
2.00461292 0.74538797 -2.44308615
-2.92596102 1.32619321 1.36362123
-0.09759853 2.94611311 2.38054204
1.97476566 0.88045341 2.44312596
-1.54062855 3.11856174 1.83021629
-0.47497731 1.38324857 2.89580536
-0.10260265 1.21033609 -2.95776582
2.06462407 1.60242963 2.21616793
-0.16588829 0.13622287 3.05849671
-2.51063514 1.64884329 -1.79855835
2.27335238 0.34431106 -2.28920746
-1.27048314 0.94998449 -2.77831268
-3.00428987 -0.10079225 -1.49607384
-0.43657425 1.13316989 2.94646358
-0.46436393 0.81449604 -2.98782969
0.25685349 2.65984368 2.51197076
-0.09948993 0.02934328 -3.06151867
-1.06152856 -3.61652207 -1.70396245
1.06518793 2.25737000 -2.51174688
1.87882149 2.16312218 -2.14347887
-0.57147342 0.64518124 2.99083304
-2.47753835 3.25592804 0.00062004
-2.32924366 2.37221789 -1.63876939
-3.40270138 0.66796792 -0.16229190
-3.10180593 -0.47973293 1.29250193
-1.04710555 4.09211779 1.16686964
1.46989310 0.00934337 2.77023101
1.91817164 3.65849447 0.86884850
3.01540804 -2.09239292 0.56227988
2.47603774 2.13702917 -1.60562038
0.34709468 0.65095562 -3.01740408
-0.57136899 0.44618204 -3.00677013
0.11003625 0.14595303 3.06036854
-1.12881732 4.38594580 0.39957687
-1.86336815 3.93323064 0.16105582
-0.22140890 0.17570743 3.05432844
-0.54788935 3.57615423 -1.92025304
2.74044156 2.25827026 1.12614429
3.15234184 0.45365062 -1.19596899
-3.19331360 0.89186716 -0.98706806
-1.21090698 3.53865242 1.69512260
-0.81199294 1.26594603 -2.85923171
2.07374716 0.34558764 2.43522787
-1.40504766 -4.21794605 0.46932805
3.43286037 0.33179563 -0.09755903
0.08766663 -4.27125835 1.26109314
3.40352321 0.25689760 0.43330419
-0.67161971 0.59306872 -2.97905922
2.23559570 3.43233228 0.63059461
0.05287458 0.18071388 -3.06060743
-3.16000485 1.37827349 -0.81959450
-2.43268657 1.26875556 2.00333738
0.92859000 0.45816764 -2.93457770
1.72098196 1.52900767 2.45781827
2.19003129 2.21282578 1.86984313
2.33833981 2.76593161 -1.33627868
-2.07461762 1.90370595 2.10408139
-2.02574325 -3.30549073 1.21182275
-1.40397227 1.08076680 -2.70636725
-0.19171093 0.19635390 -3.05541778
1.10396004 4.43765402 0.10299816
0.52755916 3.59071565 -1.91311741
-0.92304683 2.73300719 2.34978604
3.40496206 0.22633381 0.43397957
2.44330621 2.86132431 -1.07721877
2.97630668 1.87216032 -0.93534887
-1.12049437 4.20870686 -0.90738118
2.33136082 0.97779572 2.16214132
1.64153111 1.61036670 2.47806764
-0.75681394 3.58795357 -1.85185301
-1.23538268 3.35769963 1.83303642
-0.72774434 1.11208487 -2.90404820
1.32512832 2.11057472 2.46770453
-2.28167248 2.02840328 -1.87221110
-1.78932202 3.43672657 1.34310198
0.17548147 0.49695757 3.04162455
3.09349275 1.81419981 -0.63498724
2.70626211 2.10216093 -1.30286241
-2.18604279 3.40234327 -0.81159353
-0.58214372 1.92395163 2.74473214
-3.28807783 0.16666561 -0.90166843
-1.97418439 3.74832153 0.54738718
1.53353906 1.05630136 -2.65385365
-0.23260842 3.61384845 -1.93947017
0.12114885 -3.22204065 -2.22205472
-0.58264363 2.68603897 -2.45630932
-0.68908089 3.10287857 -2.21226025
-1.25811446 0.90587145 2.78885889
0.07282827 0.34053597 -3.05404735
3 166 179 125
3 47 212 193
3 0 212 51
3 195 212 0
3 211 195 0
3 51 212 210
3 131 166 125
3 247 166 151
3 179 166 247
3 151 166 191
3 191 166 224
3 141 155 195
3 79 212 195
3 79 193 212
3 86 0 51
3 251 0 86
3 51 210 86
3 86 210 166
3 224 166 133
3 166 210 133
3 133 212 224
3 133 210 212
3 125 163 23
3 23 131 125
3 23 163 251
3 251 86 23
3 114 191 224
3 84 191 114
3 154 73 171
3 99 73 154
3 64 191 84
3 42 6 222
3 222 6 139
3 195 155 9
3 47 193 95
3 251 163 146
3 77 217 54
3 131 23 184
3 184 23 86
3 166 131 184
3 184 86 166
3 179 247 74
3 33 247 151
3 151 190 33
3 84 114 27
3 218 64 84
3 155 141 62
3 141 109 62
3 213 109 141
3 211 147 213
3 213 147 109
3 237 207 171
3 164 1 194
3 150 190 151
3 99 54 150
3 150 217 190
3 150 54 217
3 139 143 231
3 231 222 139
3 143 118 244
3 244 231 143
3 222 231 244
3 107 81 6
3 179 74 38
3 209 79 195
3 195 9 209
3 7 98 12
3 165 239 89
3 18 239 48
3 39 0 251
3 251 146 39
3 249 146 219
3 108 163 183
3 125 4 15
3 252 106 17
3 52 156 17
3 156 96 17
3 42 186 140
3 60 107 6
3 82 96 189
3 189 96 156
3 149 54 99
3 37 54 149
3 254 27 65
3 65 27 114
3 87 27 254
3 246 229 121
3 121 27 246
3 27 87 246
3 171 73 223
3 223 121 171
3 223 27 121
3 84 27 223
3 223 218 84
3 168 73 99
3 99 150 168
3 8 212 47
3 224 212 8
3 8 114 224
3 230 141 195
3 230 213 141
3 230 195 211
3 211 213 230
3 11 237 171
3 229 237 11
3 171 121 11
3 121 229 11
3 18 48 35
3 21 192 207
3 207 237 21
3 21 237 229
3 59 85 80
3 80 35 59
3 99 154 58
3 19 48 221
3 19 35 48
3 19 1 59
3 59 35 19
3 155 62 31
3 31 62 109
3 139 6 115
3 6 81 115
3 57 1 227
3 1 164 227
3 123 143 139
3 123 118 143
3 222 244 196
3 42 222 196
3 196 186 42
3 211 205 32
3 32 147 211
3 10 96 82
3 111 106 252
3 36 106 111
3 111 185 36
3 137 185 111
3 29 111 252
3 206 38 74
3 190 217 206
3 206 33 190
3 206 74 247
3 247 33 206
3 120 156 52
3 7 12 119
3 47 95 119
3 119 95 7
3 12 242 119
3 7 95 97
3 79 209 97
3 67 12 98
3 98 242 67
3 67 242 12
3 113 45 44
3 44 196 113
3 186 196 44
3 249 219 161
3 0 39 94
3 167 45 113
3 249 45 167
3 100 146 163
3 100 219 146
3 100 163 108
3 226 255 216
3 216 183 226
3 108 183 216
3 134 255 226
3 162 60 6
3 162 41 117
3 140 41 162
3 162 6 42
3 42 140 162
3 37 152 159
3 77 54 159
3 159 54 37
3 176 217 77
3 77 159 176
3 176 159 189
3 176 120 38
3 176 206 217
3 38 206 176
3 89 182 157
3 64 218 127
3 73 168 127
3 127 223 73
3 218 223 127
3 88 168 150
3 191 64 88
3 151 191 88
3 88 150 151
3 187 70 53
3 187 53 202
3 202 53 8
3 18 35 129
3 129 182 89
3 35 80 129
3 89 239 129
3 129 239 18
3 112 1 57
3 59 1 112
3 112 85 59
3 85 21 169
3 169 80 85
3 169 21 229
3 182 129 169
3 169 129 80
3 188 149 99
3 99 58 188
3 207 192 241
3 171 207 241
3 241 154 171
3 241 58 154
3 245 152 37
3 81 107 5
3 200 112 57
3 192 112 200
3 83 19 221
3 221 31 83
3 83 31 71
3 204 31 109
3 71 31 204
3 139 115 101
3 101 115 81
3 81 227 101
3 101 227 164
3 139 101 116
3 116 123 139
3 116 22 118
3 118 123 116
3 147 32 232
3 232 244 118
3 49 203 160
3 250 203 49
3 107 60 75
3 75 250 49
3 144 117 137
3 137 111 144
3 111 29 144
3 179 38 122
3 125 179 122
3 122 4 125
3 4 122 148
3 148 120 52
3 38 120 148
3 148 122 38
3 221 48 174
3 174 31 221
3 47 119 199
3 199 119 242
3 7 97 132
3 132 98 7
3 126 95 193
3 126 97 95
3 193 79 126
3 79 97 126
3 72 140 186
3 72 41 140
3 72 185 137
3 137 117 72
3 117 41 72
3 46 44 45
3 46 45 249
3 249 161 46
3 186 44 46
3 46 72 186
3 46 161 185
3 185 72 46
3 55 161 219
3 219 100 55
3 36 185 55
3 185 161 55
3 0 94 43
3 43 205 211
3 211 0 43
3 177 94 39
3 135 32 205
3 205 43 135
3 135 43 94
3 63 39 146
3 63 146 249
3 249 167 63
3 63 177 39
3 167 177 63
3 16 17 208
3 208 225 16
3 52 17 16
3 16 225 52
3 124 225 208
3 238 24 181
3 238 124 208
3 181 24 173
3 36 134 173
3 173 134 181
3 173 106 36
3 173 24 106
3 130 159 152
3 189 159 130
3 82 189 130
3 156 120 240
3 120 176 240
3 240 189 156
3 240 176 189
3 104 180 87
3 104 87 254
3 104 70 187
3 187 180 104
3 104 53 70
3 34 180 187
3 187 202 34
3 34 202 242
3 172 246 87
3 87 180 172
3 180 34 172
3 182 169 105
3 229 246 105
3 105 169 229
3 145 165 89
3 89 157 145
3 64 127 103
3 103 127 168
3 103 88 64
3 168 88 103
3 175 8 47
3 175 202 8
3 192 21 76
3 76 112 192
3 76 21 85
3 85 112 76
3 201 188 248
3 248 188 58
3 58 241 248
3 248 241 192
3 192 200 248
3 149 188 13
3 201 110 13
3 13 188 201
3 37 149 13
3 13 245 37
3 152 245 3
3 82 130 3
3 3 130 152
3 66 227 81
3 81 5 66
3 57 227 66
3 68 110 201
3 68 200 110
3 201 248 68
3 68 248 200
3 61 66 5
3 61 200 57
3 57 66 61
3 19 83 90
3 194 1 90
3 1 19 90
3 71 204 158
3 158 204 109
3 109 147 158
3 147 22 158
3 147 232 243
3 243 232 118
3 243 22 147
3 118 22 243
3 96 10 236
3 236 203 96
3 236 160 203
3 203 250 136
3 136 29 252
3 136 250 29
3 228 75 60
3 228 144 29
3 29 250 228
3 250 75 228
3 117 144 228
3 228 162 117
3 60 162 228
3 30 15 4
3 4 148 30
3 30 148 52
3 52 225 30
3 30 225 15
3 31 174 78
3 239 165 235
3 165 132 235
3 235 48 239
3 36 55 69
3 69 134 36
3 255 134 69
3 197 55 100
3 197 69 55
3 26 167 113
3 26 177 167
3 94 177 26
3 113 135 26
3 26 135 94
3 50 196 244
3 32 135 50
3 113 196 50
3 50 135 113
3 244 232 50
3 50 232 32
3 15 225 178
3 225 124 178
3 178 56 15
3 124 56 178
3 138 238 208
3 24 238 138
3 106 24 138
3 208 17 138
3 138 17 106
3 53 104 102
3 102 65 114
3 254 65 102
3 102 104 254
3 114 8 102
3 8 53 102
3 153 242 98
3 153 34 242
3 157 34 153
3 153 145 157
3 98 132 153
3 153 132 165
3 165 145 153
3 40 34 157
3 40 172 34
3 40 157 182
3 182 105 40
3 246 172 40
3 40 105 246
3 20 199 242
3 242 202 20
3 202 175 20
3 47 199 20
3 20 175 47
3 49 160 14
3 215 90 83
3 215 83 71
3 71 158 215
3 194 90 215
3 215 158 22
3 22 116 215
3 215 164 194
3 215 101 164
3 215 116 101
3 2 236 10
3 160 236 2
3 10 14 2
3 2 14 160
3 253 136 252
3 203 136 253
3 96 203 253
3 252 17 253
3 253 17 96
3 31 78 234
3 234 78 91
3 155 31 234
3 234 9 155
3 234 209 9
3 234 91 209
3 25 132 97
3 25 235 132
3 25 97 209
3 128 100 108
3 128 197 100
3 108 216 128
3 128 216 255
3 255 69 128
3 69 197 128
3 124 238 28
3 28 56 124
3 226 183 92
3 92 183 163
3 92 163 125
3 125 15 92
3 15 56 92
3 49 14 142
3 142 14 61
3 142 61 5
3 142 75 49
3 142 5 107
3 107 75 142
3 110 200 93
3 200 61 93
3 93 13 110
3 245 13 93
3 93 3 245
3 82 3 93
3 235 25 220
3 220 78 174
3 220 174 48
3 48 235 220
3 198 134 226
3 226 92 198
3 181 134 198
3 198 92 56
3 233 14 10
3 233 10 82
3 82 93 233
3 61 14 233
3 233 93 61
3 170 220 25
3 209 91 170
3 170 25 209
3 91 78 170
3 78 220 170
3 181 198 214
3 214 238 181
3 214 28 238
3 56 28 214
3 214 198 56