ply
format ascii 1.0
comment https://github.com/mikedh/trimesh
element vertex 256
property float x
property float y
property float z
element face 508
property list uchar int vertex_indices
end_header
1.91383719 -2.78302050 -0.16102479
1.01085651 3.59534621 0.40491271
-0.63834727 3.52118635 -0.58973759
-1.52831101 3.10666752 -0.39586681
-1.62862337 0.15780596 -0.96447539
0.31843290 4.00523710 -0.31130922
0.94903415 3.45210934 -0.52853358
0.73506886 0.29401585 1.18332553
-0.24258281 0.01970179 1.23121238
1.86639631 0.40779525 0.85520297
-0.70537198 3.52575159 -0.57092154
-0.94019532 2.51308346 0.88042855
0.34193030 0.38517568 1.22048604
-1.67365170 3.16893673 -0.13207321
-0.54276502 3.81793118 -0.42664772
-1.37193906 0.53241569 -1.03952384
-1.19866014 1.56011117 -0.99600160
-0.80042428 2.22961330 -0.97368532
1.04374993 2.20883203 0.92474192
1.44968939 2.91004968 0.55966800
0.00624708 0.14770763 1.23566639
-0.35674244 3.50617909 0.64862496
2.16845703 2.31818867 0.01794273
-0.27900013 -2.75466871 -0.91926634
-0.34616911 1.26624358 -1.16669488
1.36731851 0.74293840 1.02961898
1.77024710 0.47763890 -0.89686495
-1.11557114 0.98664802 1.07870924
-0.65075088 0.55275226 -1.18609083
0.19388796 2.99564123 -0.85573208
-1.42437959 0.56109506 -1.02260911
1.95656776 1.69216001 0.64581031
2.40803146 0.79792064 -0.41189402
-2.50924945 0.24609703 -0.32956213
-0.27575278 1.01351476 1.19222558
0.78908944 2.80541039 0.83514744
0.14015236 0.92966068 -1.20349419
-1.89655995 2.77546573 -0.20950793
-2.06031036 0.81104702 -0.71924281
1.55031693 0.13814183 -0.99353087
-0.08513918 1.72865403 1.12451351
1.03245783 2.64434481 -0.82180494
1.39112723 2.55945468 -0.72042763
2.38094378 0.31098032 -0.49600503
1.57998621 1.45649099 -0.88376999
1.54503763 1.10357165 -0.94096136
1.46622086 1.55190003 -0.91341352
0.03279360 0.05320052 1.23620856
1.26147842 2.07627296 0.89017457
-0.14166602 3.65123892 -0.59469289
2.06397367 1.53500652 -0.60361767
-0.30085745 -4.13840580 0.06605785
-1.34129381 1.56771696 -0.95330954
-0.48678479 0.29622972 1.21181667
-2.18743610 2.26716423 -0.04611911
0.60230070 0.55967462 -1.19146121
-0.67605555 0.49979588 -1.18503428
0.31863365 4.09163237 0.18791059
-1.73181343 2.91290927 0.33199546
0.53689456 3.37629128 0.68035764
0.69834399 3.45622373 -0.60824114
-0.17835505 4.09368896 -0.22392571
2.35952711 0.96404827 0.44322935
1.50399780 0.43991262 -1.00156438
-2.21750569 0.43660519 0.63801026
-0.99169302 0.38175625 1.13820052
0.37540746 4.12126684 -0.07311315
0.26634473 0.64533877 1.21504462
-1.30712128 3.60243034 0.06720697
0.17556874 0.84392524 -1.20800579
-0.47761482 0.57169986 1.20361590
2.00531745 2.19903588 0.44819248
1.10568929 2.20067525 -0.91063428
-1.96013463 1.80327964 0.61692560
-2.34542370 0.10620201 -0.53988749
0.20961899 3.64184260 -0.59502280
-0.18820994 3.70593357 0.56117910
-2.23406982 1.87394178 -0.31356037
1.57819211 1.33474386 0.90161926
1.28938639 0.07215863 1.07447672
0.22640593 3.10518456 0.81911033
1.09588790 3.70899320 -0.22556110
-1.47920382 3.02304387 -0.48396459
1.75218856 2.59531832 0.49751934
-1.76942325 0.50448114 0.89609146
0.17752592 3.30370331 0.75051969
-0.27908066 -3.78472900 -0.50381529
-0.60495597 1.16209590 1.15228665
-2.47502398 0.40814754 0.36995631
0.52193785 1.78064418 1.09059823
1.48665774 3.15625262 0.39684284
1.63915753 0.95179135 0.91949928
-0.47509181 0.09284672 -1.21544397
-1.06681740 3.68519282 -0.28320950
2.08976793 0.20788480 -0.73709226
0.84548491 0.16993074 1.16854489
-0.69225621 3.06220818 -0.77333385
1.22123170 0.45166945 1.08451676
0.28931072 0.76600474 1.20763242
-2.09429479 2.45518184 0.11508313
0.57939255 0.21214640 -1.20384789
1.34699976 3.57217097 -0.02707675
-0.56463075 0.31878403 1.20337439
-2.22518015 1.12922871 0.55121082
-0.50142533 0.57771611 1.20130992
-0.32996967 1.88942218 1.09131110
-0.18966018 1.83847904 -1.10631394
0.45375213 3.86163020 -0.41612586
0.08173570 0.02551956 -1.23577607
2.35646725 1.15801096 0.40442753
-1.31539619 3.59739757 -0.05310034
0.38640526 2.33010006 -1.00904226
0.07527736 3.88166499 0.45280367
1.75910759 0.94075793 -0.86930859
-1.20665479 -0.02640376 1.09607041
1.18771923 3.64236760 -0.21803014
2.04647303 2.57592082 -0.06456604
0.81515551 2.79901052 -0.83158612
2.17473006 2.11866093 -0.26893020
0.18796782 0.20201975 1.23179877
-1.82027304 1.19312835 -0.81191182
-1.34046888 1.84025586 0.90995032
-1.77212071 0.16764888 -0.90615231
1.98301697 2.49386668 -0.31347588
-0.92293698 0.86204118 -1.12778902
-1.47346079 -1.36096644 -0.93718743
1.16367304 0.15753596 1.10552216
-1.97958148 1.31330526 0.70441496
0.21498200 0.41000339 -1.22617018
0.43150127 2.48107100 0.97270685
-1.66538012 2.79407024 -0.46885246
-0.88123554 -3.11470628 -0.70855117
0.71490806 1.05274916 1.14741552
-1.41918278 -3.33896327 0.31113935
-0.27471986 0.49849543 -1.22071874
2.12753534 0.40152353 -0.70497620
-0.24760485 3.14260483 -0.80467731
0.57803160 2.34429312 -0.98580778
-0.51289314 1.23979771 -1.15524638
1.63729525 3.13775635 -0.24729212
1.31217790 2.55413699 -0.75419027
2.51327586 0.17641275 0.32686657
-0.15316339 3.94664955 -0.39579234
1.88756847 2.52477217 -0.41036040
0.58000880 2.73580241 -0.89207691
0.30043119 1.52426517 1.14227247
1.20816410 0.24349493 -1.09338236
2.40821266 1.43065953 -0.21510620
-1.61863494 0.69452703 -0.94777781
-1.90789461 2.83889794 -0.04977341
-2.53217149 0.89883143 0.12969273
-2.59981823 0.26484740 -0.05686731
-1.72064781 2.86268473 -0.37891024
0.27207789 1.01637602 1.19217837
-1.81551337 2.58862758 0.44704473
2.12959504 0.57406068 0.69292551
-1.63936043 1.82515550 -0.79496223
0.16237006 1.64836049 1.13324296
2.17422318 2.06968784 0.29999676
-2.03029537 2.28887272 -0.37737423
-0.53697985 3.47410250 -0.63536000
1.05061769 1.07012975 -1.08662653
0.84059066 3.33453965 -0.62772191
-0.12574579 -1.37786984 -1.16563201
1.33714437 3.58198047 -0.01018134
0.62179154 1.48855627 1.11701119
-1.63094532 -3.25477219 0.01099384
1.51834393 0.66344994 -0.98620522
-2.21619606 1.18040919 0.55045557
-0.07392357 2.62225676 0.96095788
1.49573684 0.78366804 0.98622125
-1.16691065 2.77574849 0.73880684
-0.35975969 1.23119271 1.16895521
-0.07771381 1.07728791 -1.19396698
1.56379795 1.42627990 0.89460474
-0.12564795 0.12124834 1.23462915
-1.90161788 1.46759140 -0.72602743
1.72189391 0.30646208 -0.92408872
-0.96229571 0.84555584 -1.12152672
-2.27552414 -0.08971249 -0.60392296
-0.33067223 1.00860429 1.18940449
-0.35172084 0.72496116 -1.20610285
0.19454727 2.36745572 1.01401198
-0.07535616 0.02611767 -1.23584902
-0.80402827 -3.21896982 -0.68784171
0.80679995 2.00922489 -1.01392162
1.42306638 1.92533731 -0.86526221
-0.43284824 0.57425863 1.20731521
-1.87654936 2.89801478 0.00025029
-1.76422727 2.11144781 -0.66152513
-2.57729125 0.59454042 -0.06551268
-2.34938550 -0.42699748 0.52174670
-0.79310387 3.64228487 0.47103244
1.11333370 0.00831628 1.11826432
1.45287120 3.25632834 0.35072970
2.28394532 -1.86238313 0.22697657
1.87541282 1.90211272 -0.64814383
0.26289821 0.57939821 -1.21804118
-0.43276918 0.39713475 -1.21374857
0.08334421 0.12990889 1.23538470
-0.85499448 3.90381336 0.16129795
-1.41136158 3.50086355 0.06501371
-0.16770063 0.15639250 1.23294652
-0.41498506 3.18303943 -0.77515215
2.07567906 2.01002598 0.45459276
2.38766241 0.40378231 -0.48277903
-2.41869545 0.79382712 -0.39845163
-0.91717124 3.14966011 0.68427336
-0.61502373 1.12678480 -1.15419149
1.57070792 0.30759835 0.98303300
-1.06421816 -3.75428104 0.18945454
2.60013437 0.29532245 -0.03938184
0.06640090 -3.80173326 0.50906783
2.57791352 0.22865769 0.17491272
-0.50870156 0.52787465 -1.20256245
1.69329607 3.05502725 0.25455332
0.04004853 0.16084860 -1.23548114
-2.39346671 1.22676444 -0.33084726
-1.84257758 1.12928545 0.80869097
0.70333725 0.40780279 -1.18460643
1.30351472 1.36092889 0.99215215
1.65878439 1.96957707 0.75480306
1.77111697 2.46188211 -0.53941816
-1.57136714 1.69443786 0.84935856
-1.53434849 -2.94212914 0.48917878
-1.06340373 0.96196169 -1.09248435
-0.14520666 0.17476936 -1.23338628
0.83616692 3.94983768 0.04157746
0.39958650 3.19600034 -0.77227169
-0.69913876 2.43257689 0.94854254
2.57900333 0.20145369 0.17518535
1.85062122 2.54678845 -0.43484291
2.25432897 1.66635990 -0.37757406
-0.84869045 3.74605751 -0.36628428
1.76583099 0.87030989 0.87279570
1.24333668 1.43334436 1.00032628
-0.57322979 3.19354177 -0.74754095
-0.93570971 2.98859882 0.73994529
-0.55121177 0.98983705 -1.17228258
1.00368536 1.87856627 0.99614298
-1.72819579 1.80542767 -0.75575900
-1.35527718 3.05893874 0.54217249
0.13291405 0.44232869 1.22781825
2.34308887 1.61477077 -0.25632650
2.04979062 1.87107730 -0.52592891
-1.65576339 3.02833509 -0.32761750
-0.44093019 1.71245801 1.10797119
-2.49047232 0.14834462 -0.36397821
-1.49529660 3.33628106 0.22096482
1.16154087 0.94018567 -1.07128608
-0.17618343 3.21658993 -0.78290957
0.09176116 -2.86785245 -0.89698106
-0.44130886 2.39077163 -0.99154299
-0.52192712 2.76178932 -0.89302725
-0.95292735 0.80629200 1.12578392
0.05516195 0.30310196 -1.23283303
3 166 179 125
3 47 212 193
3 0 212 51
3 195 212 0
3 211 195 0
3 51 212 210
3 131 166 125
3 247 166 151
3 179 166 247
3 151 166 191
3 191 166 224
3 141 155 195
3 79 212 195
3 79 193 212
3 86 0 51
3 251 0 86
3 51 210 86
3 86 210 166
3 224 166 133
3 166 210 133
3 133 212 224
3 133 210 212
3 125 163 23
3 23 131 125
3 23 163 251
3 251 86 23
3 114 191 224
3 84 191 114
3 154 73 171
3 99 73 154
3 64 191 84
3 42 6 222
3 222 6 139
3 195 155 9
3 47 193 95
3 251 163 146
3 77 217 54
3 131 23 184
3 184 23 86
3 166 131 184
3 184 86 166
3 179 247 74
3 33 247 151
3 151 190 33
3 84 114 27
3 218 64 84
3 155 141 62
3 141 109 62
3 213 109 141
3 211 147 213
3 213 147 109
3 237 207 171
3 164 1 194
3 150 190 151
3 99 54 150
3 150 217 190
3 150 54 217
3 139 143 231
3 231 222 139
3 143 118 244
3 244 231 143
3 222 231 244
3 107 81 6
3 179 74 38
3 209 79 195
3 195 9 209
3 7 98 12
3 165 239 89
3 18 239 48
3 39 0 251
3 251 146 39
3 249 146 219
3 108 163 183
3 125 4 15
3 252 106 17
3 52 156 17
3 156 96 17
3 42 186 140
3 60 107 6
3 82 96 189
3 189 96 156
3 149 54 99
3 37 54 149
3 254 27 65
3 65 27 114
3 87 27 254
3 246 229 121
3 121 27 246
3 27 87 246
3 171 73 223
3 223 121 171
3 223 27 121
3 84 27 223
3 223 218 84
3 168 73 99
3 99 150 168
3 8 212 47
3 224 212 8
3 8 114 224
3 230 141 195
3 230 213 141
3 230 195 211
3 211 213 230
3 11 237 171
3 229 237 11
3 171 121 11
3 121 229 11
3 18 48 35
3 21 192 207
3 207 237 21
3 21 237 229
3 59 85 80
3 80 35 59
3 99 154 58
3 19 48 221
3 19 35 48
3 19 1 59
3 59 35 19
3 155 62 31
3 31 62 109
3 139 6 115
3 6 81 115
3 57 1 227
3 1 164 227
3 123 143 139
3 123 118 143
3 222 244 196
3 42 222 196
3 196 186 42
3 211 205 32
3 32 147 211
3 10 96 82
3 111 106 252
3 36 106 111
3 111 185 36
3 137 185 111
3 29 111 252
3 206 38 74
3 190 217 206
3 206 33 190
3 206 74 247
3 247 33 206
3 120 156 52
3 7 12 119
3 47 95 119
3 119 95 7
3 12 242 119
3 7 95 97
3 79 209 97
3 67 12 98
3 98 242 67
3 67 242 12
3 113 45 44
3 44 196 113
3 186 196 44
3 249 219 161
3 0 39 94
3 167 45 113
3 249 45 167
3 100 146 163
3 100 219 146
3 100 163 108
3 226 255 216
3 216 183 226
3 108 183 216
3 134 255 226
3 162 60 6
3 162 41 117
3 140 41 162
3 162 6 42
3 42 140 162
3 37 152 159
3 77 54 159
3 159 54 37
3 176 217 77
3 77 159 176
3 176 159 189
3 176 120 38
3 176 206 217
3 38 206 176
3 89 182 157
3 64 218 127
3 73 168 127
3 127 223 73
3 218 223 127
3 88 168 150
3 191 64 88
3 151 191 88
3 88 150 151
3 187 70 53
3 187 53 202
3 202 53 8
3 18 35 129
3 129 182 89
3 35 80 129
3 89 239 129
3 129 239 18
3 112 1 57
3 59 1 112
3 112 85 59
3 85 21 169
3 169 80 85
3 169 21 229
3 182 129 169
3 169 129 80
3 188 149 99
3 99 58 188
3 207 192 241
3 171 207 241
3 241 154 171
3 241 58 154
3 245 152 37
3 81 107 5
3 200 112 57
3 192 112 200
3 83 19 221
3 221 31 83
3 83 31 71
3 204 31 109
3 71 31 204
3 139 115 101
3 101 115 81
3 81 227 101
3 101 227 164
3 139 101 116
3 116 123 139
3 116 22 118
3 118 123 116
3 147 32 232
3 232 244 118
3 49 203 160
3 250 203 49
3 107 60 75
3 75 250 49
3 144 117 137
3 137 111 144
3 111 29 144
3 179 38 122
3 125 179 122
3 122 4 125
3 4 122 148
3 148 120 52
3 38 120 148
3 148 122 38
3 221 48 174
3 174 31 221
3 47 119 199
3 199 119 242
3 7 97 132
3 132 98 7
3 126 95 193
3 126 97 95
3 193 79 126
3 79 97 126
3 72 140 186
3 72 41 140
3 72 185 137
3 137 117 72
3 117 41 72
3 46 44 45
3 46 45 249
3 249 161 46
3 186 44 46
3 46 72 186
3 46 161 185
3 185 72 46
3 55 161 219
3 219 100 55
3 36 185 55
3 185 161 55
3 0 94 43
3 43 205 211
3 211 0 43
3 177 94 39
3 135 32 205
3 205 43 135
3 135 43 94
3 63 39 146
3 63 146 249
3 249 167 63
3 63 177 39
3 167 177 63
3 16 17 208
3 208 225 16
3 52 17 16
3 16 225 52
3 124 225 208
3 238 24 181
3 238 124 208
3 181 24 173
3 36 134 173
3 173 134 181
3 173 106 36
3 173 24 106
3 130 159 152
3 189 159 130
3 82 189 130
3 156 120 240
3 120 176 240
3 240 189 156
3 240 176 189
3 104 180 87
3 104 87 254
3 104 70 187
3 187 180 104
3 104 53 70
3 34 180 187
3 187 202 34
3 34 202 242
3 172 246 87
3 87 180 172
3 180 34 172
3 182 169 105
3 229 246 105
3 105 169 229
3 145 165 89
3 89 157 145
3 64 127 103
3 103 127 168
3 103 88 64
3 168 88 103
3 175 8 47
3 175 202 8
3 192 21 76
3 76 112 192
3 76 21 85
3 85 112 76
3 201 188 248
3 248 188 58
3 58 241 248
3 248 241 192
3 192 200 248
3 149 188 13
3 201 110 13
3 13 188 201
3 37 149 13
3 13 245 37
3 152 245 3
3 82 130 3
3 3 130 152
3 66 227 81
3 81 5 66
3 57 227 66
3 68 110 201
3 68 200 110
3 201 248 68
3 68 248 200
3 61 66 5
3 61 200 57
3 57 66 61
3 19 83 90
3 194 1 90
3 1 19 90
3 71 204 158
3 158 204 109
3 109 147 158
3 147 22 158
3 147 232 243
3 243 232 118
3 243 22 147
3 118 22 243
3 96 10 236
3 236 203 96
3 236 160 203
3 203 250 136
3 136 29 252
3 136 250 29
3 228 75 60
3 228 144 29
3 29 250 228
3 250 75 228
3 117 144 228
3 228 162 117
3 60 162 228
3 30 15 4
3 4 148 30
3 30 148 52
3 52 225 30
3 30 225 15
3 31 174 78
3 239 165 235
3 165 132 235
3 235 48 239
3 36 55 69
3 69 134 36
3 255 134 69
3 197 55 100
3 197 69 55
3 26 167 113
3 26 177 167
3 94 177 26
3 113 135 26
3 26 135 94
3 50 196 244
3 32 135 50
3 113 196 50
3 50 135 113
3 244 232 50
3 50 232 32
3 15 225 178
3 225 124 178
3 178 56 15
3 124 56 178
3 138 238 208
3 24 238 138
3 106 24 138
3 208 17 138
3 138 17 106
3 53 104 102
3 102 65 114
3 254 65 102
3 102 104 254
3 114 8 102
3 8 53 102
3 153 242 98
3 153 34 242
3 157 34 153
3 153 145 157
3 98 132 153
3 153 132 165
3 165 145 153
3 40 34 157
3 40 172 34
3 40 157 182
3 182 105 40
3 246 172 40
3 40 105 246
3 20 199 242
3 242 202 20
3 202 175 20
3 47 199 20
3 20 175 47
3 49 160 14
3 215 90 83
3 215 83 71
3 71 158 215
3 194 90 215
3 215 158 22
3 22 116 215
3 215 164 194
3 215 101 164
3 215 116 101
3 2 236 10
3 160 236 2
3 10 14 2
3 2 14 160
3 253 136 252
3 203 136 253
3 96 203 253
3 252 17 253
3 253 17 96
3 31 78 234
3 234 78 91
3 155 31 234
3 234 9 155
3 234 209 9
3 234 91 209
3 25 132 97
3 25 235 132
3 25 97 209
3 128 100 108
3 128 197 100
3 108 216 128
3 128 216 255
3 255 69 128
3 69 197 128
3 124 238 28
3 28 56 124
3 226 183 92
3 92 183 163
3 92 163 125
3 125 15 92
3 15 56 92
3 49 14 142
3 142 14 61
3 142 61 5
3 142 75 49
3 142 5 107
3 107 75 142
3 110 200 93
3 200 61 93
3 93 13 110
3 245 13 93
3 93 3 245
3 82 3 93
3 235 25 220
3 220 78 174
3 220 174 48
3 48 235 220
3 198 134 226
3 226 92 198
3 181 134 198
3 198 92 56
3 233 14 10
3 233 10 82
3 82 93 233
3 61 14 233
3 233 93 61
3 170 220 25
3 209 91 170
3 170 25 209
3 91 78 170
3 78 220 170
3 181 198 214
3 214 238 181
3 214 28 238
3 56 28 214
3 214 198 56