ply
format ascii 1.0
comment https://github.com/mikedh/trimesh
element vertex 256
property float x
property float y
property float z
element face 508
property list uchar int vertex_indices
end_header
2.68227649 -1.95651877 -0.29916483
1.41673315 2.52759981 0.75227946
-0.89465493 2.47546411 -1.09566200
-2.14195490 2.18404889 -0.73547322
-2.28254437 0.11094073 -1.79188001
0.44628930 2.81576133 -0.57837534
1.33008802 2.42690158 -0.98195219
1.03021193 0.20669898 2.19847751
-0.33998409 0.01385075 2.28744531
2.61578751 0.28668818 1.58886492
-0.98859125 2.47867346 -1.06070399
-1.31770027 1.76674771 1.63573098
0.47922134 0.27078617 2.26751733
-2.34565234 2.22782540 -0.24537624
-0.76069480 2.68408155 -0.79266047
-1.92279673 0.37429881 -1.93131101
-1.67994332 1.09678912 -1.85045183
-1.12180865 1.56746244 -1.80899084
1.46283400 1.55285287 1.71805990
2.03176522 2.04582286 1.03979623
0.00875539 0.10384139 2.29572034
-0.49998084 2.46491361 1.20506763
3.03913093 1.62973273 0.03333544
-0.39102361 -1.93658686 -1.70788693
-0.48516211 0.89019442 -2.16757965
1.91632104 0.52230048 1.91290891
2.48103237 0.33578965 -1.66626787
-1.56349254 0.69363314 2.00411296
-0.91203880 0.38859585 -2.20361495
0.27173740 2.10599542 -1.58984780
-1.99629307 0.39446098 -1.89988542
2.74216413 1.18962216 1.19983840
3.37489867 0.56095409 -0.76524985
-3.51675749 0.17301111 -0.61228704
-0.38647240 0.71252102 2.21501255
1.10592282 1.97225928 1.55160403
0.19642600 0.65356994 -2.23594832
-2.65806222 1.95120752 -0.38924068
-2.88756132 0.57018220 -1.33626711
2.17279649 0.09711645 -1.84586155
-0.11932405 1.21527815 2.08921170
1.44700778 1.85902691 -1.52681530
1.94968939 1.79934764 -1.33846843
3.33693480 0.21862535 -0.92151803
2.21437836 1.02394211 -1.64193904
2.16539741 0.77583283 -1.74819374
2.05493426 1.09101665 -1.69701314
0.04596080 0.03740103 2.29672766
1.76798427 1.45966113 1.65383804
-0.19854744 2.56689358 -1.10486829
2.89269543 1.07914019 -1.12144947
-0.42165703 -2.90938139 0.12272758
-1.87984693 1.10213614 -1.77113509
-0.68223745 0.20825538 2.25141048
-3.06573009 1.59386158 -0.08568379
0.84413505 0.39346239 -2.21359253
-0.94750381 0.35136643 -2.20165205
0.44657066 2.87649918 0.34911540
-2.42716718 2.04783320 0.61680788
0.75246722 2.37360001 1.26402318
0.97874141 2.42979407 -1.13003922
-0.24996775 2.87794471 -0.41602719
3.30691886 0.67774510 0.82346714
2.10787940 0.30926734 -1.86078703
-3.10787320 0.30694214 1.18534684
-1.38987529 0.26838225 2.11464047
0.52614015 2.89733267 -0.13583548
0.37328681 0.45368600 2.25740767
-1.83195353 2.53258014 0.12486251
0.24606268 0.59329623 -2.24433041
-0.66938561 0.40191638 2.23617458
2.81048775 1.54596603 0.83268803
1.54964304 1.54711854 -1.69184959
-2.74716330 1.26774144 1.14617395
-3.28715253 0.07466213 -1.00304639
0.29378471 2.56028771 -1.10548127
-0.26377955 2.60534501 1.04260373
-3.13108826 1.31741834 -0.58255768
2.21186399 0.93835151 1.67510080
1.80709779 0.05072895 1.99624932
0.31731191 2.18300653 1.52180910
1.53590608 2.60749602 -0.41906556
-2.07313013 2.12525988 -0.89914834
2.45572305 1.82456052 0.92433143
-2.47987795 0.35466027 1.66483080
0.24880572 2.32256913 1.39437580
-0.39113647 -2.66073990 -0.93602860
-0.84785646 0.81697649 2.14081097
-3.46878982 0.28693584 0.68733460
0.73150510 1.25182831 2.02620101
2.08357716 2.21890831 0.73728657
2.29730821 0.66912824 1.70831978
-0.66584957 0.06527309 -2.25814962
-1.49516344 2.59076381 -0.52616936
2.92884660 0.14614716 -1.36942935
1.18496203 0.11946469 2.17101669
-0.97020930 2.15279317 -1.43676186
1.71157765 0.31753260 2.01490235
0.40547407 0.53851658 2.24363685
-2.93519092 1.72604179 0.21381070
0.81202888 0.14914313 -2.23660541
1.88784397 2.51130724 -0.05030537
-0.79133993 0.22411151 2.23572564
-3.11862898 0.79387021 1.02408373
-0.70275640 0.40614593 2.23189020
-0.46245831 1.32830143 2.02752542
-0.26581207 1.29248738 -2.05539918
0.63594162 2.71480298 -0.77311212
0.11455402 0.01794076 -2.29592419
3.30263019 0.81410480 0.75137800
-1.84355092 2.52904201 -0.09865408
0.54155380 1.63810670 -1.87467980
0.10550255 2.72888756 0.84125507
2.46542025 0.66137153 -1.61507142
-1.69114792 -0.01856237 2.03636765
1.66460955 2.56065679 -0.40507394
2.86816788 1.81092370 -0.11995598
1.14245486 1.96775997 -1.54498756
3.04792261 1.48946083 -0.49964014
0.26344022 0.14202391 2.28853488
-2.55114484 0.83879292 -1.50843513
-1.87869084 1.29373646 1.69057894
-2.48365831 0.11786050 -1.68352270
2.77923322 1.75323784 -0.58240074
-1.29351246 0.60603207 -2.09529734
-2.06508136 -0.95678645 -1.74118221
1.63090825 0.11075091 2.05392814
-2.77441835 0.92327970 1.30871868
0.30130106 0.28824055 -2.27807760
0.60475659 1.74424231 1.80717313
-2.33405948 1.96428692 -0.87107188
-1.23506713 -2.18970060 -1.31640339
1.00195622 0.74010366 2.13176084
-1.98900962 -2.34735751 0.57805967
-0.38502473 0.35045221 -2.26794958
2.98177838 0.28227904 -1.30976152
-0.34702256 2.20931387 -1.49499416
0.81012148 1.64808464 -1.83151305
-0.71882880 0.87160248 -2.14630961
2.29469800 2.20590496 -0.45943919
1.83904052 1.79560924 -1.40119529
3.52240062 0.12402167 0.60727900
-0.21466120 2.77457333 -0.73533481
2.64546061 1.77496505 -0.76240057
0.81289256 1.92332351 -1.65737224
0.42105958 1.07158875 2.12220573
1.69326329 0.17118178 -2.03137374
3.37515235 1.00578213 -0.39964160
-2.26854539 0.48826632 -1.76085794
-2.67394805 1.99580169 -0.09247304
-3.54888296 0.63189638 0.24095359
-3.64369106 0.18619297 -0.10565265
-2.41151810 2.01252437 -0.70396990
0.38132197 0.71453255 2.21492481
-2.54447412 1.81985676 0.83055568
2.98466492 0.40357608 1.28737271
-2.29759264 1.28312063 -1.47694480
0.22756450 1.15883029 2.10542989
3.04721236 1.45503175 0.55735815
-2.84549499 1.60912299 -0.70111620
-0.75258672 2.44236302 -1.18042290
1.47245920 0.75232249 -2.01882219
1.17810261 2.34424758 -1.16623223
-0.17623493 -0.96866995 -2.16560483
1.87403142 2.51820350 -0.01891572
0.87145180 1.04648471 2.07527328
-2.28579855 -2.28816962 0.02042524
2.12798572 0.46641850 -1.83225143
-3.10603786 0.82985115 1.02268064
-0.10360518 1.84349859 1.78534484
2.09630156 0.55093426 1.83228123
-1.63544571 1.95140648 1.37261474
-0.50420958 0.86555296 2.17177892
-0.10891727 0.75735480 -2.21824789
2.19169044 1.00270307 1.66206861
-0.17609781 0.08524000 2.29379320
-2.66515088 1.03174603 -1.34887218
2.41326451 0.21544895 -1.71684635
-1.34867442 0.59444255 -2.08366251
-3.18918729 -0.06306966 -1.12201667
-0.46344298 0.70906889 2.20977139
-0.49294296 0.50966215 -2.24079490
0.27266142 1.66436851 1.88391304
-0.10561299 0.01836124 -2.29605985
-1.12685978 -2.26299977 -1.27792776
1.13074434 1.41252506 -1.88374507
1.99445260 1.35355043 -1.60755372
-0.60664445 0.40371525 2.24304724
-2.63001704 2.03736210 0.00046501
-2.47259569 1.48438978 -1.22903454
-3.61211896 0.41797373 -0.12171473
-3.29270506 -0.30018774 0.96934295
-1.11154902 2.56059861 0.87512201
1.56035686 0.00584651 2.07760143
2.03622460 2.28926349 0.65161389
3.20098972 -1.30929244 0.42169532
2.62842417 1.33722305 -1.20417368
0.36845645 0.40732849 -2.26297498
-0.60653365 0.27919361 -2.25499964
0.11680837 0.09132854 2.29519701
-1.19828987 2.74445844 0.29967231
-1.97804809 2.46117663 0.12078769
-0.23503539 0.10994703 2.29066730
-0.58160889 2.23774004 -1.44014013
2.90910077 1.41308832 0.84457904
3.34635091 0.28386700 -0.89694571
-3.38984442 0.55807626 -0.74027550
-1.28543174 2.21427369 1.27129805
-0.86196661 0.79215217 -2.14434981
2.20137477 0.21624775 1.82635784
-1.49152052 -2.63933444 0.35198388
3.64413404 0.20761755 -0.07316675
0.09306203 -2.67269421 0.94578719
3.61299133 0.16075090 0.32496694
-0.71295422 0.37110636 -2.23421717
2.37318420 2.14774489 0.47292963
0.05612873 0.11307977 -2.29537630
-3.35448575 0.86243981 -0.61467469
-2.58240485 0.79391015 1.50245118
0.98573953 0.28669348 -2.20085716
1.82689881 0.95676011 1.84330010
2.32481551 1.38465190 1.40233386
2.48225164 1.73075199 -1.00217438
-2.20229888 1.19122350 1.57800663
-2.15041637 -2.06837535 0.90883565
-1.49037898 0.67627817 -2.02970529
-0.20350969 0.12286634 -2.29148412
1.17190266 2.77681446 0.07724595
0.56002754 2.24685168 -1.43478847
-0.97985524 1.71014988 1.76227868
3.61451888 0.14162594 0.32547346
2.59367824 1.79044294 -0.80788618
3.15948200 1.17148423 -0.70148742
-1.18945467 2.63355303 -0.68051237
2.47484326 0.61184520 1.62155008
1.74255824 1.00766969 1.85848665
-0.80339164 2.24512339 -1.38884175
-1.31141365 2.10104442 1.37472987
-0.77253300 0.69587511 -2.17796087
1.40668273 1.32066941 1.85071456
-2.42209697 1.26925159 -1.40410984
-1.89944494 2.15049481 1.00729167
0.18628138 0.31096587 2.28113961
3.28388023 1.13521600 -0.47622398
2.87281752 1.31540453 -0.97711307
-2.32058144 2.12897968 -0.60867411
-0.61797142 1.20389211 2.05847788
-3.49044085 0.10428921 -0.67622799
-2.09568453 2.34547186 0.41052622
1.62791991 0.66096920 -1.99032152
-0.24692419 2.26132679 -1.45455241
0.12860489 -2.01615715 -1.66648364
-0.61850214 1.68075991 -1.84216833
-0.73149002 1.94159293 -1.65913785
-1.33554447 0.56683928 2.09157205
0.07731045 0.21308671 -2.29045653
3 166 179 125
3 47 212 193
3 0 212 51
3 195 212 0
3 211 195 0
3 51 212 210
3 131 166 125
3 247 166 151
3 179 166 247
3 151 166 191
3 191 166 224
3 141 155 195
3 79 212 195
3 79 193 212
3 86 0 51
3 251 0 86
3 51 210 86
3 86 210 166
3 224 166 133
3 166 210 133
3 133 212 224
3 133 210 212
3 125 163 23
3 23 131 125
3 23 163 251
3 251 86 23
3 114 191 224
3 84 191 114
3 154 73 171
3 99 73 154
3 64 191 84
3 42 6 222
3 222 6 139
3 195 155 9
3 47 193 95
3 251 163 146
3 77 217 54
3 131 23 184
3 184 23 86
3 166 131 184
3 184 86 166
3 179 247 74
3 33 247 151
3 151 190 33
3 84 114 27
3 218 64 84
3 155 141 62
3 141 109 62
3 213 109 141
3 211 147 213
3 213 147 109
3 237 207 171
3 164 1 194
3 150 190 151
3 99 54 150
3 150 217 190
3 150 54 217
3 139 143 231
3 231 222 139
3 143 118 244
3 244 231 143
3 222 231 244
3 107 81 6
3 179 74 38
3 209 79 195
3 195 9 209
3 7 98 12
3 165 239 89
3 18 239 48
3 39 0 251
3 251 146 39
3 249 146 219
3 108 163 183
3 125 4 15
3 252 106 17
3 52 156 17
3 156 96 17
3 42 186 140
3 60 107 6
3 82 96 189
3 189 96 156
3 149 54 99
3 37 54 149
3 254 27 65
3 65 27 114
3 87 27 254
3 246 229 121
3 121 27 246
3 27 87 246
3 171 73 223
3 223 121 171
3 223 27 121
3 84 27 223
3 223 218 84
3 168 73 99
3 99 150 168
3 8 212 47
3 224 212 8
3 8 114 224
3 230 141 195
3 230 213 141
3 230 195 211
3 211 213 230
3 11 237 171
3 229 237 11
3 171 121 11
3 121 229 11
3 18 48 35
3 21 192 207
3 207 237 21
3 21 237 229
3 59 85 80
3 80 35 59
3 99 154 58
3 19 48 221
3 19 35 48
3 19 1 59
3 59 35 19
3 155 62 31
3 31 62 109
3 139 6 115
3 6 81 115
3 57 1 227
3 1 164 227
3 123 143 139
3 123 118 143
3 222 244 196
3 42 222 196
3 196 186 42
3 211 205 32
3 32 147 211
3 10 96 82
3 111 106 252
3 36 106 111
3 111 185 36
3 137 185 111
3 29 111 252
3 206 38 74
3 190 217 206
3 206 33 190
3 206 74 247
3 247 33 206
3 120 156 52
3 7 12 119
3 47 95 119
3 119 95 7
3 12 242 119
3 7 95 97
3 79 209 97
3 67 12 98
3 98 242 67
3 67 242 12
3 113 45 44
3 44 196 113
3 186 196 44
3 249 219 161
3 0 39 94
3 167 45 113
3 249 45 167
3 100 146 163
3 100 219 146
3 100 163 108
3 226 255 216
3 216 183 226
3 108 183 216
3 134 255 226
3 162 60 6
3 162 41 117
3 140 41 162
3 162 6 42
3 42 140 162
3 37 152 159
3 77 54 159
3 159 54 37
3 176 217 77
3 77 159 176
3 176 159 189
3 176 120 38
3 176 206 217
3 38 206 176
3 89 182 157
3 64 218 127
3 73 168 127
3 127 223 73
3 218 223 127
3 88 168 150
3 191 64 88
3 151 191 88
3 88 150 151
3 187 70 53
3 187 53 202
3 202 53 8
3 18 35 129
3 129 182 89
3 35 80 129
3 89 239 129
3 129 239 18
3 112 1 57
3 59 1 112
3 112 85 59
3 85 21 169
3 169 80 85
3 169 21 229
3 182 129 169
3 169 129 80
3 188 149 99
3 99 58 188
3 207 192 241
3 171 207 241
3 241 154 171
3 241 58 154
3 245 152 37
3 81 107 5
3 200 112 57
3 192 112 200
3 83 19 221
3 221 31 83
3 83 31 71
3 204 31 109
3 71 31 204
3 139 115 101
3 101 115 81
3 81 227 101
3 101 227 164
3 139 101 116
3 116 123 139
3 116 22 118
3 118 123 116
3 147 32 232
3 232 244 118
3 49 203 160
3 250 203 49
3 107 60 75
3 75 250 49
3 144 117 137
3 137 111 144
3 111 29 144
3 179 38 122
3 125 179 122
3 122 4 125
3 4 122 148
3 148 120 52
3 38 120 148
3 148 122 38
3 221 48 174
3 174 31 221
3 47 119 199
3 199 119 242
3 7 97 132
3 132 98 7
3 126 95 193
3 126 97 95
3 193 79 126
3 79 97 126
3 72 140 186
3 72 41 140
3 72 185 137
3 137 117 72
3 117 41 72
3 46 44 45
3 46 45 249
3 249 161 46
3 186 44 46
3 46 72 186
3 46 161 185
3 185 72 46
3 55 161 219
3 219 100 55
3 36 185 55
3 185 161 55
3 0 94 43
3 43 205 211
3 211 0 43
3 177 94 39
3 135 32 205
3 205 43 135
3 135 43 94
3 63 39 146
3 63 146 249
3 249 167 63
3 63 177 39
3 167 177 63
3 16 17 208
3 208 225 16
3 52 17 16
3 16 225 52
3 124 225 208
3 238 24 181
3 238 124 208
3 181 24 173
3 36 134 173
3 173 134 181
3 173 106 36
3 173 24 106
3 130 159 152
3 189 159 130
3 82 189 130
3 156 120 240
3 120 176 240
3 240 189 156
3 240 176 189
3 104 180 87
3 104 87 254
3 104 70 187
3 187 180 104
3 104 53 70
3 34 180 187
3 187 202 34
3 34 202 242
3 172 246 87
3 87 180 172
3 180 34 172
3 182 169 105
3 229 246 105
3 105 169 229
3 145 165 89
3 89 157 145
3 64 127 103
3 103 127 168
3 103 88 64
3 168 88 103
3 175 8 47
3 175 202 8
3 192 21 76
3 76 112 192
3 76 21 85
3 85 112 76
3 201 188 248
3 248 188 58
3 58 241 248
3 248 241 192
3 192 200 248
3 149 188 13
3 201 110 13
3 13 188 201
3 37 149 13
3 13 245 37
3 152 245 3
3 82 130 3
3 3 130 152
3 66 227 81
3 81 5 66
3 57 227 66
3 68 110 201
3 68 200 110
3 201 248 68
3 68 248 200
3 61 66 5
3 61 200 57
3 57 66 61
3 19 83 90
3 194 1 90
3 1 19 90
3 71 204 158
3 158 204 109
3 109 147 158
3 147 22 158
3 147 232 243
3 243 232 118
3 243 22 147
3 118 22 243
3 96 10 236
3 236 203 96
3 236 160 203
3 203 250 136
3 136 29 252
3 136 250 29
3 228 75 60
3 228 144 29
3 29 250 228
3 250 75 228
3 117 144 228
3 228 162 117
3 60 162 228
3 30 15 4
3 4 148 30
3 30 148 52
3 52 225 30
3 30 225 15
3 31 174 78
3 239 165 235
3 165 132 235
3 235 48 239
3 36 55 69
3 69 134 36
3 255 134 69
3 197 55 100
3 197 69 55
3 26 167 113
3 26 177 167
3 94 177 26
3 113 135 26
3 26 135 94
3 50 196 244
3 32 135 50
3 113 196 50
3 50 135 113
3 244 232 50
3 50 232 32
3 15 225 178
3 225 124 178
3 178 56 15
3 124 56 178
3 138 238 208
3 24 238 138
3 106 24 138
3 208 17 138
3 138 17 106
3 53 104 102
3 102 65 114
3 254 65 102
3 102 104 254
3 114 8 102
3 8 53 102
3 153 242 98
3 153 34 242
3 157 34 153
3 153 145 157
3 98 132 153
3 153 132 165
3 165 145 153
3 40 34 157
3 40 172 34
3 40 157 182
3 182 105 40
3 246 172 40
3 40 105 246
3 20 199 242
3 242 202 20
3 202 175 20
3 47 199 20
3 20 175 47
3 49 160 14
3 215 90 83
3 215 83 71
3 71 158 215
3 194 90 215
3 215 158 22
3 22 116 215
3 215 164 194
3 215 101 164
3 215 116 101
3 2 236 10
3 160 236 2
3 10 14 2
3 2 14 160
3 253 136 252
3 203 136 253
3 96 203 253
3 252 17 253
3 253 17 96
3 31 78 234
3 234 78 91
3 155 31 234
3 234 9 155
3 234 209 9
3 234 91 209
3 25 132 97
3 25 235 132
3 25 97 209
3 128 100 108
3 128 197 100
3 108 216 128
3 128 216 255
3 255 69 128
3 69 197 128
3 124 238 28
3 28 56 124
3 226 183 92
3 92 183 163
3 92 163 125
3 125 15 92
3 15 56 92
3 49 14 142
3 142 14 61
3 142 61 5
3 142 75 49
3 142 5 107
3 107 75 142
3 110 200 93
3 200 61 93
3 93 13 110
3 245 13 93
3 93 3 245
3 82 3 93
3 235 25 220
3 220 78 174
3 220 174 48
3 48 235 220
3 198 134 226
3 226 92 198
3 181 134 198
3 198 92 56
3 233 14 10
3 233 10 82
3 82 93 233
3 61 14 233
3 233 93 61
3 170 220 25
3 209 91 170
3 170 25 209
3 91 78 170
3 78 220 170
3 181 198 214
3 214 238 181
3 214 28 238
3 56 28 214
3 214 198 56