ply
format ascii 1.0
comment https://github.com/mikedh/trimesh
element vertex 256
property float x
property float y
property float z
element face 508
property list uchar int vertex_indices
end_header
2.28400993 -3.19404840 -0.53762960
1.20637548 4.12634754 1.35192263
-0.76181585 4.04123497 -1.96901608
-1.82391572 3.56549525 -1.32172024
-1.94363034 0.18111253 -3.22019076
0.38002390 4.59677601 -1.03939927
1.13259554 3.96195579 -1.76466799
0.87724525 0.33743942 3.95088744
-0.28950298 0.02261157 4.11077213
2.22739315 0.46802309 2.85535192
-0.84180439 4.04647446 -1.90619302
-1.12204707 2.88424420 2.93957496
0.40806618 0.44206280 4.07495928
-1.99736798 3.63696122 -0.44096607
-0.64774621 4.38180637 -1.42449152
-1.63729835 0.61104882 -3.47076225
-1.43050396 1.79052603 -3.32545018
-0.95524162 2.55890775 -3.25094056
1.24563122 2.53505754 3.08752847
1.73008704 3.33983874 1.86861968
0.00745539 0.16952275 4.12564325
-0.42574328 4.02401114 2.16562915
2.58787823 2.66056514 0.05990718
-0.33296412 -3.16150928 -3.06924653
-0.41312483 1.45325673 -3.89536119
1.63178420 0.85266393 3.43769193
2.11264682 0.54818201 -2.99445295
-1.33134389 1.13236737 3.60159469
-0.77661854 0.63438898 -3.96012020
0.23138961 3.43807149 -2.85711837
-1.69988191 0.64396393 -3.41428733
2.33500528 1.94207740 2.15623164
2.87379098 0.91576660 -1.37523186
-2.99458647 0.28244343 -1.10034215
-0.32908866 1.16320205 3.98060298
0.94171447 3.21974516 2.78839040
0.16726051 1.06696343 -4.01822662
-2.26339102 3.18537784 -0.69950509
-2.45881391 0.93083161 -2.40140796
1.85017800 0.15854417 -3.31720114
-0.10160672 1.98396122 3.75452566
1.23215497 3.03489161 -2.74384236
1.66019797 2.93746400 -2.40536404
2.84146404 0.35690939 -1.65606165
1.88558578 1.67160201 -2.95073152
1.84387755 1.26655960 -3.14168191
1.74981606 1.78110230 -3.04970527
0.03913651 0.06105778 4.12745333
1.50547254 2.38292027 2.97211504
-0.16906695 4.19049501 -1.98556066
2.46318555 1.76171374 -2.01535869
-0.35904905 -4.74961233 0.22055393
-1.60072577 1.79925513 -3.18290997
-0.58093828 0.33998027 4.04601383
-2.61052799 2.60200477 -0.15398248
0.71879715 0.64233369 -3.97805095
-0.80681765 0.57361138 -3.95659280
0.38026351 4.69593143 0.62739593
-2.06677938 3.34312081 1.10846651
0.64074028 3.87494016 2.27157831
0.83341712 3.96667814 -2.03079557
-0.21285233 4.69829082 -0.74764317
2.81590486 1.10642982 1.47985423
1.79489970 0.50488389 -3.34402347
-2.64641356 0.50108796 2.13018870
-1.18350542 0.43813834 3.80022430
0.44801843 4.72994232 -0.24411018
0.31786090 0.74064976 4.05679131
-1.55994368 4.13447809 0.22439064
0.20952709 0.96856570 -4.03328991
-0.56999469 0.65613502 4.01863289
2.39318419 2.52381444 1.49642503
1.31955075 2.52569580 -3.04042602
-2.33926225 2.06960845 2.05979133
-2.79907346 0.12188713 -1.80257642
0.25016332 4.17971134 -1.98666227
-0.22461334 4.25326777 1.87366498
-2.66618180 2.15070677 -1.04691541
1.88344467 1.53187394 3.01032662
1.53877842 0.08281583 3.58746314
0.27019718 3.56379342 2.73484564
1.30785358 4.25677919 -0.75310344
-1.76531017 3.46952128 -1.61586106
2.09109545 2.97862434 1.66111767
-2.11166358 0.57898861 2.99187016
0.21186285 3.79163170 2.50583529
-0.33306020 -4.34370089 -1.68213856
-0.72196609 1.33372736 3.84725499
-2.95374107 0.46842739 1.23521018
0.62289059 2.04362988 3.64128947
1.77420592 3.62240386 1.32497895
1.95620203 1.09236264 3.07002449
-0.56698370 0.10655937 -4.05812454
-1.27316034 4.22946358 -0.94557995
2.49396896 0.23858759 -2.46100378
1.00901794 0.19502804 3.90153766
-0.82615185 3.51446962 -2.58200717
1.45744121 0.51837713 3.62098455
0.34526896 0.87913698 4.03204346
-2.49937129 2.81779099 0.38423955
0.69145817 0.24347858 -4.01940727
1.60753536 4.09974957 -0.09040388
-0.67384112 0.36586565 4.01782656
-2.65557241 1.29600596 1.84038270
-0.59841055 0.66303980 4.01093340
-0.39379212 2.16847348 3.64366961
-0.22634408 2.11000657 -3.69376135
0.54151648 4.43195963 -1.38936114
0.09754495 0.02928857 -4.12600946
2.81225300 1.32903922 1.35030270
-1.56981897 4.12870169 -0.17729141
0.46114346 2.67423558 -3.36899042
0.08983745 4.45495319 1.51182091
2.09935284 1.07969964 -2.90244770
-1.44004500 -0.03030337 3.65955997
1.41744697 4.18031359 -0.72795910
2.44230008 2.95636201 -0.21557310
0.97282219 3.21239996 -2.77649975
2.59536457 2.43156886 -0.89790416
0.22432439 0.23185632 4.11273003
-2.17234874 1.36934304 -2.71081138
-1.59974122 2.11204553 3.03814244
-2.11488271 0.19240917 -3.02546144
2.36657047 2.86218905 -1.04663336
-1.10145068 0.98935717 -3.76546240
-1.75845635 -1.56196940 -3.12908149
1.38874972 0.18080264 3.69111776
-2.36247039 1.50726902 2.35190082
0.25656363 0.47055736 -4.09393692
0.51496184 2.84750366 3.24767399
-1.98749650 3.20673013 -1.56540477
-1.05168343 -3.57472134 -2.36571074
0.85318500 1.20823109 3.83099103
-1.69367993 -3.83209920 1.03883207
-0.32785594 0.57211888 -4.07573605
2.53904152 0.46082509 -2.35377479
-0.29549637 3.60674047 -2.68665671
0.68983394 2.69052482 -3.29141521
-0.61209649 1.42290509 -3.85713673
1.95397949 3.60117555 -0.82565898
1.56597829 2.93136096 -2.51809049
2.99939156 0.20246738 1.09134221
-0.18278813 4.52953577 -1.32147145
2.25266051 2.89765906 -1.37011135
0.69219363 3.13985658 -2.97846651
0.35854033 1.74938583 3.81381965
1.44184625 0.27945700 -3.65058517
2.87400699 1.64195561 -0.71819663
-1.93170989 0.79710263 -3.16444087
-2.27691793 3.25817847 -0.16618346
-3.02194214 1.03158104 0.43301812
-3.10267282 0.30396304 -0.18986857
-2.05345392 3.28547835 -1.26510549
0.32470298 1.16648591 3.98044515
-2.16666842 2.97094560 1.49259305
2.54149938 0.65884447 2.31353974
-1.95644414 2.09471512 -2.65422010
0.19377553 1.89180911 3.78367186
2.59475970 2.37536287 1.00162923
-2.42299342 2.62691927 -1.25997722
-0.64084202 3.98719716 -2.12134004
1.25382733 1.22817862 -3.62802863
1.00317693 3.82702208 -2.09583807
-0.15006743 -1.58136928 -3.89181232
1.59577370 4.11100769 -0.03399347
0.74205792 1.70840311 3.72947717
-1.94640136 -3.73547363 0.03670624
1.81202066 0.76143575 -3.29274225
-2.64485073 1.35474539 1.83786106
-0.08822180 3.00954127 3.20844626
1.78504109 0.89940906 3.29279566
-1.39261341 3.18570256 2.46672845
-0.42934412 1.41302919 3.90290785
-0.09274515 1.23639393 -3.98641706
1.86626637 1.63692904 2.98690629
-0.14995067 0.13915567 4.12217999
-2.26942730 1.68434191 -2.42406058
2.05494118 0.35172388 -3.08534741
-1.14842212 0.97043711 -3.74455357
-2.71565413 -0.10296225 -2.01637816
-0.39463058 1.15756643 3.97118378
-0.41975039 0.83203167 -4.02693653
0.23217642 2.71710849 3.38558340
-0.08993149 0.02997502 -4.12625313
-0.95954275 -3.69438362 -2.29656601
0.96285051 2.30596995 -3.38528156
1.69831467 2.20969296 -2.88893747
-0.51656938 0.65907162 4.03098440
-2.23951006 3.32602644 0.00083567
-2.10546255 2.42329025 -2.20870018
-3.07578850 0.68234885 -0.21873374
-2.80380154 -0.49006131 1.74200785
-0.94650537 4.18021870 1.57268322
1.32867384 0.00954452 3.73366117
1.73388422 3.73725963 1.17101645
2.72570419 -2.13744092 0.75782943
2.23815346 2.18303823 -2.16402268
0.31374773 0.66497034 -4.06679630
-0.51647502 0.45578811 -4.05246401
0.09946457 0.14909531 4.12470245
-1.02036679 4.48037291 0.53854162
-1.68434596 4.01791096 0.21706776
-0.20013715 0.17949031 4.11656237
-0.49525115 3.65314674 -2.58807826
2.47715497 2.30688953 1.51779449
2.84948206 0.46341747 -1.61190271
-2.88651752 0.91106850 -1.33035040
-1.09456980 3.61483765 2.28465199
-0.73398113 1.29320121 -3.85361481
1.87451291 0.35302794 3.28215075
-1.27005839 -4.30875587 0.63255084
3.10304999 0.33893901 -0.13148810
0.07924410 -4.36321640 1.69967580
3.07653141 0.26242843 0.58399862
-0.60709417 0.60583711 -4.01511574
2.02081203 3.50622821 0.84990269
0.04779468 0.18460456 -4.12502480
-2.85640883 1.40794694 -1.10463285
-2.19896722 1.29607117 2.70005774
0.83937615 0.46803173 -3.95516443
1.55563939 1.56192625 3.31259775
1.97962499 2.26046658 2.52013659
2.11368489 2.82548070 -1.80100942
-1.87529969 1.94469166 2.83583856
-1.83112085 -3.37665606 1.63327014
-1.26908624 1.10403502 -3.64758682
-0.17329240 0.20058128 -4.11803007
0.99789762 4.53319454 0.13881883
0.47687417 3.66802168 -2.57846093
-0.83436555 2.79184723 3.16699409
3.07783198 0.23120664 0.58490890
2.20856690 2.92292690 -1.45185363
2.69035935 1.91246688 -1.26064432
-1.01284349 4.29931784 -1.22294998
2.10737658 0.99884713 2.91409039
1.48382175 1.64503694 3.33988953
-0.68410343 3.66520000 -2.49588990
-1.11669385 3.42998910 2.47052932
-0.65782666 1.13602734 -3.91401720
1.19781733 2.15601420 3.32592225
-2.06246185 2.07207370 -2.52332830
-1.61741376 3.51071739 1.81020558
0.15862218 0.50765681 4.09944010
2.79628706 1.85325849 -0.85582298
2.44625926 2.14741921 -1.75597167
-1.97601974 3.47559381 -1.09384930
-0.52621454 1.96537328 3.69929433
-2.97217751 0.17025383 -1.21525049
-1.78451562 3.82902074 0.73775738
1.38620508 1.07904291 -3.57681012
-0.21026067 3.69165254 -2.61397862
0.10950954 -3.29140925 -2.99484062
-0.52666640 2.74386764 -3.31056380
-0.62287778 3.16968179 -2.98163962
-1.13724172 0.92537433 3.75876760
0.06583133 0.34786749 -4.11618328
3 166 179 125
3 47 212 193
3 0 212 51
3 195 212 0
3 211 195 0
3 51 212 210
3 131 166 125
3 247 166 151
3 179 166 247
3 151 166 191
3 191 166 224
3 141 155 195
3 79 212 195
3 79 193 212
3 86 0 51
3 251 0 86
3 51 210 86
3 86 210 166
3 224 166 133
3 166 210 133
3 133 212 224
3 133 210 212
3 125 163 23
3 23 131 125
3 23 163 251
3 251 86 23
3 114 191 224
3 84 191 114
3 154 73 171
3 99 73 154
3 64 191 84
3 42 6 222
3 222 6 139
3 195 155 9
3 47 193 95
3 251 163 146
3 77 217 54
3 131 23 184
3 184 23 86
3 166 131 184
3 184 86 166
3 179 247 74
3 33 247 151
3 151 190 33
3 84 114 27
3 218 64 84
3 155 141 62
3 141 109 62
3 213 109 141
3 211 147 213
3 213 147 109
3 237 207 171
3 164 1 194
3 150 190 151
3 99 54 150
3 150 217 190
3 150 54 217
3 139 143 231
3 231 222 139
3 143 118 244
3 244 231 143
3 222 231 244
3 107 81 6
3 179 74 38
3 209 79 195
3 195 9 209
3 7 98 12
3 165 239 89
3 18 239 48
3 39 0 251
3 251 146 39
3 249 146 219
3 108 163 183
3 125 4 15
3 252 106 17
3 52 156 17
3 156 96 17
3 42 186 140
3 60 107 6
3 82 96 189
3 189 96 156
3 149 54 99
3 37 54 149
3 254 27 65
3 65 27 114
3 87 27 254
3 246 229 121
3 121 27 246
3 27 87 246
3 171 73 223
3 223 121 171
3 223 27 121
3 84 27 223
3 223 218 84
3 168 73 99
3 99 150 168
3 8 212 47
3 224 212 8
3 8 114 224
3 230 141 195
3 230 213 141
3 230 195 211
3 211 213 230
3 11 237 171
3 229 237 11
3 171 121 11
3 121 229 11
3 18 48 35
3 21 192 207
3 207 237 21
3 21 237 229
3 59 85 80
3 80 35 59
3 99 154 58
3 19 48 221
3 19 35 48
3 19 1 59
3 59 35 19
3 155 62 31
3 31 62 109
3 139 6 115
3 6 81 115
3 57 1 227
3 1 164 227
3 123 143 139
3 123 118 143
3 222 244 196
3 42 222 196
3 196 186 42
3 211 205 32
3 32 147 211
3 10 96 82
3 111 106 252
3 36 106 111
3 111 185 36
3 137 185 111
3 29 111 252
3 206 38 74
3 190 217 206
3 206 33 190
3 206 74 247
3 247 33 206
3 120 156 52
3 7 12 119
3 47 95 119
3 119 95 7
3 12 242 119
3 7 95 97
3 79 209 97
3 67 12 98
3 98 242 67
3 67 242 12
3 113 45 44
3 44 196 113
3 186 196 44
3 249 219 161
3 0 39 94
3 167 45 113
3 249 45 167
3 100 146 163
3 100 219 146
3 100 163 108
3 226 255 216
3 216 183 226
3 108 183 216
3 134 255 226
3 162 60 6
3 162 41 117
3 140 41 162
3 162 6 42
3 42 140 162
3 37 152 159
3 77 54 159
3 159 54 37
3 176 217 77
3 77 159 176
3 176 159 189
3 176 120 38
3 176 206 217
3 38 206 176
3 89 182 157
3 64 218 127
3 73 168 127
3 127 223 73
3 218 223 127
3 88 168 150
3 191 64 88
3 151 191 88
3 88 150 151
3 187 70 53
3 187 53 202
3 202 53 8
3 18 35 129
3 129 182 89
3 35 80 129
3 89 239 129
3 129 239 18
3 112 1 57
3 59 1 112
3 112 85 59
3 85 21 169
3 169 80 85
3 169 21 229
3 182 129 169
3 169 129 80
3 188 149 99
3 99 58 188
3 207 192 241
3 171 207 241
3 241 154 171
3 241 58 154
3 245 152 37
3 81 107 5
3 200 112 57
3 192 112 200
3 83 19 221
3 221 31 83
3 83 31 71
3 204 31 109
3 71 31 204
3 139 115 101
3 101 115 81
3 81 227 101
3 101 227 164
3 139 101 116
3 116 123 139
3 116 22 118
3 118 123 116
3 147 32 232
3 232 244 118
3 49 203 160
3 250 203 49
3 107 60 75
3 75 250 49
3 144 117 137
3 137 111 144
3 111 29 144
3 179 38 122
3 125 179 122
3 122 4 125
3 4 122 148
3 148 120 52
3 38 120 148
3 148 122 38
3 221 48 174
3 174 31 221
3 47 119 199
3 199 119 242
3 7 97 132
3 132 98 7
3 126 95 193
3 126 97 95
3 193 79 126
3 79 97 126
3 72 140 186
3 72 41 140
3 72 185 137
3 137 117 72
3 117 41 72
3 46 44 45
3 46 45 249
3 249 161 46
3 186 44 46
3 46 72 186
3 46 161 185
3 185 72 46
3 55 161 219
3 219 100 55
3 36 185 55
3 185 161 55
3 0 94 43
3 43 205 211
3 211 0 43
3 177 94 39
3 135 32 205
3 205 43 135
3 135 43 94
3 63 39 146
3 63 146 249
3 249 167 63
3 63 177 39
3 167 177 63
3 16 17 208
3 208 225 16
3 52 17 16
3 16 225 52
3 124 225 208
3 238 24 181
3 238 124 208
3 181 24 173
3 36 134 173
3 173 134 181
3 173 106 36
3 173 24 106
3 130 159 152
3 189 159 130
3 82 189 130
3 156 120 240
3 120 176 240
3 240 189 156
3 240 176 189
3 104 180 87
3 104 87 254
3 104 70 187
3 187 180 104
3 104 53 70
3 34 180 187
3 187 202 34
3 34 202 242
3 172 246 87
3 87 180 172
3 180 34 172
3 182 169 105
3 229 246 105
3 105 169 229
3 145 165 89
3 89 157 145
3 64 127 103
3 103 127 168
3 103 88 64
3 168 88 103
3 175 8 47
3 175 202 8
3 192 21 76
3 76 112 192
3 76 21 85
3 85 112 76
3 201 188 248
3 248 188 58
3 58 241 248
3 248 241 192
3 192 200 248
3 149 188 13
3 201 110 13
3 13 188 201
3 37 149 13
3 13 245 37
3 152 245 3
3 82 130 3
3 3 130 152
3 66 227 81
3 81 5 66
3 57 227 66
3 68 110 201
3 68 200 110
3 201 248 68
3 68 248 200
3 61 66 5
3 61 200 57
3 57 66 61
3 19 83 90
3 194 1 90
3 1 19 90
3 71 204 158
3 158 204 109
3 109 147 158
3 147 22 158
3 147 232 243
3 243 232 118
3 243 22 147
3 118 22 243
3 96 10 236
3 236 203 96
3 236 160 203
3 203 250 136
3 136 29 252
3 136 250 29
3 228 75 60
3 228 144 29
3 29 250 228
3 250 75 228
3 117 144 228
3 228 162 117
3 60 162 228
3 30 15 4
3 4 148 30
3 30 148 52
3 52 225 30
3 30 225 15
3 31 174 78
3 239 165 235
3 165 132 235
3 235 48 239
3 36 55 69
3 69 134 36
3 255 134 69
3 197 55 100
3 197 69 55
3 26 167 113
3 26 177 167
3 94 177 26
3 113 135 26
3 26 135 94
3 50 196 244
3 32 135 50
3 113 196 50
3 50 135 113
3 244 232 50
3 50 232 32
3 15 225 178
3 225 124 178
3 178 56 15
3 124 56 178
3 138 238 208
3 24 238 138
3 106 24 138
3 208 17 138
3 138 17 106
3 53 104 102
3 102 65 114
3 254 65 102
3 102 104 254
3 114 8 102
3 8 53 102
3 153 242 98
3 153 34 242
3 157 34 153
3 153 145 157
3 98 132 153
3 153 132 165
3 165 145 153
3 40 34 157
3 40 172 34
3 40 157 182
3 182 105 40
3 246 172 40
3 40 105 246
3 20 199 242
3 242 202 20
3 202 175 20
3 47 199 20
3 20 175 47
3 49 160 14
3 215 90 83
3 215 83 71
3 71 158 215
3 194 90 215
3 215 158 22
3 22 116 215
3 215 164 194
3 215 101 164
3 215 116 101
3 2 236 10
3 160 236 2
3 10 14 2
3 2 14 160
3 253 136 252
3 203 136 253
3 96 203 253
3 252 17 253
3 253 17 96
3 31 78 234
3 234 78 91
3 155 31 234
3 234 9 155
3 234 209 9
3 234 91 209
3 25 132 97
3 25 235 132
3 25 97 209
3 128 100 108
3 128 197 100
3 108 216 128
3 128 216 255
3 255 69 128
3 69 197 128
3 124 238 28
3 28 56 124
3 226 183 92
3 92 183 163
3 92 163 125
3 125 15 92
3 15 56 92
3 49 14 142
3 142 14 61
3 142 61 5
3 142 75 49
3 142 5 107
3 107 75 142
3 110 200 93
3 200 61 93
3 93 13 110
3 245 13 93
3 93 3 245
3 82 3 93
3 235 25 220
3 220 78 174
3 220 174 48
3 48 235 220
3 198 134 226
3 226 92 198
3 181 134 198
3 198 92 56
3 233 14 10
3 233 10 82
3 82 93 233
3 61 14 233
3 233 93 61
3 170 220 25
3 209 91 170
3 170 25 209
3 91 78 170
3 78 220 170
3 181 198 214
3 214 238 181
3 214 28 238
3 56 28 214
3 214 198 56