ply
format ascii 1.0
comment https://github.com/mikedh/trimesh
element vertex 256
property float x
property float y
property float z
element face 508
property list uchar int vertex_indices
end_header
2.34805942 -2.14495397 -0.47636113
1.24020541 2.77103686 1.19785702
-0.78317916 2.71387959 -1.74462616
-1.87506306 2.39439797 -1.17109644
-1.99813485 0.12162560 -2.85321641
0.39068076 3.08695149 -0.92094892
1.16435647 2.66064000 -1.56356573
0.90184551 0.22660647 3.50064278
-0.29762140 0.01518473 3.64230704
2.28985500 0.31429955 2.52995491
-0.86541080 2.71739817 -1.68896246
-1.15351224 1.93690586 2.60457993
0.41950941 0.29686600 3.61057520
-2.05337930 2.44239068 -0.39071339
-0.66591072 2.94258952 -1.26215589
-1.68321240 0.41034809 -3.07523298
-1.47061896 1.20242262 -2.94648075
-0.98202908 1.71842718 -2.88046217
1.28056192 1.70241058 2.73567247
1.77860320 2.24285913 1.65567112
0.00766445 0.11384252 3.65548325
-0.43768221 2.70231318 1.91883326
2.66044903 1.78669477 0.05308013
-0.34230131 -2.12310243 -2.71947408
-0.42470995 0.97593039 -3.45144439
1.67754364 0.57260400 3.04593134
2.17189097 0.36813006 -2.65320396
-1.36867833 0.76043802 3.19115567
-0.79839694 0.42602211 -3.50882339
0.23787838 2.30882692 -2.53152013
-1.74755096 0.43245211 -3.02519393
2.40048504 1.30419648 1.91050661
2.95437956 0.61498040 -1.21850991
-3.07856250 0.18967408 -0.97494668
-0.33831719 0.78114498 3.52697182
0.96812260 2.16221046 2.47062421
0.17195094 0.71651626 -3.56030798
-2.32686234 2.13913131 -0.61978918
-2.52776551 0.62509727 -2.12774253
1.90206182 0.10646988 -2.93917155
-0.10445604 1.33232343 3.32665849
1.26670778 2.03807259 -2.43115306
1.70675421 1.97264552 -2.13124776
2.92114592 0.23968148 -1.46733618
1.93846250 1.12255955 -2.61446500
1.89558470 0.85055447 -2.78365469
1.79888535 1.19609404 -2.70215964
0.04023400 0.04100318 3.65708709
1.54768991 1.60024333 2.63341165
-0.17380802 2.81411505 -1.75928533
2.53225970 1.18307376 -1.78568769
-0.36911774 -3.18958831 0.19541954
-1.64561427 1.20828462 -2.82018447
-0.59722930 0.22831278 3.58492851
-2.68373418 1.74736881 -0.13643457
0.73895413 0.43135735 -3.52471066
-0.82944292 0.38520709 -3.50569773
0.39092708 3.15353918 0.55589759
-2.12473726 2.24506307 0.98214519
0.65870827 2.60220480 2.01270843
0.85678828 2.66381121 -1.79936528
-0.21882127 3.15512371 -0.66244149
2.89487004 0.74301976 1.31120944
1.84523344 0.33905333 -2.96293736
-2.72062588 0.33650419 1.88743162
-1.21669400 0.29423055 3.36714911
0.46058205 3.17637920 -0.21629129
0.32677454 0.49738118 3.59447765
-1.60368848 2.77649689 0.19881900
0.21540278 0.65043747 -3.57365465
-0.58597881 0.44062558 3.56066799
2.46029544 1.69486034 1.32589185
1.35655439 1.69612384 -2.69393778
-2.40486121 1.38983953 1.82505667
-2.87756681 0.08185295 -1.59715414
0.25717854 2.80687308 -1.76026142
-0.23091209 2.85626984 1.66014135
-2.74094844 1.44430089 -0.92760855
1.93626142 1.02872550 2.66726851
1.58192980 0.05561473 3.17863441
0.27777421 2.39325523 2.42318153
1.34452915 2.85862780 -0.66727948
-1.81481409 2.32994699 -1.43171692
2.14973521 2.00028658 1.47181606
-2.17088008 0.38881814 2.65091562
0.21780403 2.54625940 2.22026920
-0.34240007 -2.91699982 -1.49044144
-0.74221188 0.89566076 3.40882039
-3.03657174 0.31457105 1.09444511
0.64035809 1.37239373 3.22632670
1.82395923 2.43261480 1.17398381
2.01105905 0.73357302 2.72016335
-0.58288336 0.07155965 -3.59565926
-1.30886304 2.84028411 -0.83782125
2.56390643 0.16022281 -2.18054676
1.03731346 0.13097052 3.45691705
-0.84931928 2.36013198 -2.28776050
1.49831176 0.34811464 3.20833588
0.35495120 0.59038192 3.57255030
-2.56946015 1.89227939 0.34045148
0.71084851 0.16350734 -3.56135416
1.65261483 2.75317502 -0.08010142
-0.69273740 0.24569602 3.55995345
-2.73004174 0.87032902 1.63065195
-0.61519158 0.44526246 3.55384612
-0.40483508 1.45623207 3.22843552
-0.23269136 1.41696882 -3.27281880
0.55670202 2.97626972 -1.23102891
0.10028036 0.01966866 -3.65580773
2.89111590 0.89251244 1.19642162
-1.61384082 2.77261782 -0.15708721
0.47407511 1.79587519 -2.98505902
0.09235672 2.99171090 1.33953321
2.15822411 0.72506922 -2.57168365
-1.48042762 -0.02035014 3.24251509
1.45719588 2.80727744 -0.64500058
2.51078844 1.98533642 -0.19100630
1.00010264 2.15727806 -2.46008873
2.66814542 1.63291311 -0.79557866
0.23061503 0.15570244 3.64404178
-2.23326707 0.91957837 -2.40188622
-1.64460218 1.41833818 2.69191456
-2.17418957 0.12921183 -2.68067884
2.43293524 1.92209482 -0.92735863
-1.13233829 0.66439998 -3.33634877
-1.80776799 -1.04893601 -2.77249026
1.42769384 0.12141749 3.27047658
-2.42872024 1.01220214 2.08387709
0.26375836 0.31600145 -3.62739038
0.52940273 1.91223288 2.87756777
-2.04323101 2.15347028 -1.38701057
-1.08117533 -2.40059376 -2.09611344
0.87711054 0.81138414 3.39440966
-1.74117506 -2.57343507 0.92044634
-0.33704987 0.38420478 -3.61126375
2.61024284 0.30946574 -2.08553767
-0.30378285 2.42209601 -2.38048410
0.70917869 1.80681419 -2.91632438
-0.62926126 0.95554781 -3.41757584
2.00877404 2.41835904 -0.73156655
1.60989237 1.96854699 -2.23112798
3.08350229 0.13596639 0.96697241
-0.18791398 3.04179645 -1.17087615
2.31583095 1.94591451 -1.21397293
0.71160454 2.10856175 -2.63903928
0.36859474 1.17479503 3.37919545
1.48227930 0.18766856 -3.23456311
2.95460176 1.10265052 -0.63635063
-1.98588014 0.53529197 -2.80381989
-2.34076881 2.18802047 -0.14724514
-3.10668516 0.69275522 0.38367119
-3.18967986 0.20412551 -0.16823107
-2.11103821 2.20635366 -1.12093365
0.33380848 0.78335029 3.52683210
-2.22742748 1.99512994 1.32249653
2.61276960 0.44244510 2.04988790
-2.01130795 1.40669990 -2.35174417
0.19920951 1.27043891 3.35248327
2.66752362 1.59516811 0.88748324
-2.49094057 1.76410007 -1.11638975
-0.65881288 2.67759085 -1.87959135
1.28898787 0.82477981 -3.21457720
1.03130865 2.57002568 -1.85699558
-0.15427572 -1.06196404 -3.44829988
1.64052331 2.76073551 -0.03011956
0.76286715 1.14727318 3.30446458
-2.00098348 -2.50854659 0.03252318
1.86283445 0.51133996 -2.91750002
-2.71901917 0.90977538 1.62841773
-0.09069577 2.02104878 2.84281063
1.83509827 0.60399556 2.91754746
-1.43166590 2.13934946 2.18561912
-0.44138405 0.94891566 3.45813084
-0.09534596 0.83029681 -3.53212333
1.91860139 1.09927499 2.64651728
-0.15415567 0.09344959 3.65241456
-2.33306789 1.13111496 -2.14781356
2.11256695 0.23619916 -2.73374009
-1.18062687 0.65169424 -3.31782269
-2.79180813 -0.06914400 -1.78659081
-0.40569705 0.77736038 3.51862621
-0.43152127 0.55874848 -3.56802511
0.23868726 1.82466638 2.99976110
-0.09245341 0.02012964 -3.65602350
-0.98645079 -2.48095274 -2.03484845
0.98985136 1.54856741 -2.99949360
1.74593985 1.48391294 -2.55971313
-0.53105533 0.44259766 3.57161164
-2.30231166 2.23358345 0.00074044
-2.16450524 1.62735367 -1.95699584
-3.16204166 0.45822939 -0.19380677
-2.88242745 -0.32909927 1.54348803
-0.97304785 2.80721378 1.39345968
1.36593330 0.00640960 3.30817175
1.78250694 2.50974607 1.03756690
2.80214000 -1.43539238 0.67146689
2.30091715 1.46601307 -1.91740978
0.32254604 0.44655889 -3.60334253
-0.53095829 0.30608317 -3.59064364
0.10225382 0.10012453 3.65464997
-1.04898059 3.00878143 0.47716919
-1.73157942 2.69821644 0.19233064
-0.20574951 0.12053620 3.64743710
-0.50913924 2.45326018 -2.29313993
2.54662108 1.54918504 1.34482598
2.92938900 0.31120667 -1.42820966
-2.96746302 0.61182547 -1.17874312
-1.12526429 2.42753386 2.02429223
-0.75456387 0.86844552 -3.41445518
1.92707908 0.23707490 2.90811563
-1.30567408 -2.89353251 0.56046510
3.19006753 0.22761352 -0.11650366
0.08146631 -2.93010545 1.50598013
3.16280532 0.17623307 0.51744592
-0.62411869 0.40684819 -3.55755138
2.07748079 2.35459757 0.75304741
0.04913497 0.12397065 -3.65493512
-2.93651009 0.94550270 -0.97874850
-2.26063204 0.87037283 2.39235806
0.86291444 0.31430537 -3.50443220
1.59926355 1.04890704 2.93509293
2.03513885 1.51800978 2.23294091
2.17295814 1.89744341 -1.59576571
-1.92788792 1.30595207 2.51266527
-1.88247025 -2.26758361 1.44714200
-1.30467474 0.74141157 -3.23190641
-0.17815198 0.13469978 -3.64873791
1.02588129 3.04425359 0.12299898
0.49024698 2.46324944 -2.28461838
-0.85776335 1.87485695 2.80608225
3.16414261 0.15526615 0.51825243
2.27050090 1.96288323 -1.28639984
2.76580405 1.28431165 -1.11698079
-1.04124618 2.88719440 -1.08358216
2.16647291 0.67077291 2.58199954
1.52543199 1.10471976 2.95927453
-0.70328748 2.46135449 -2.21145725
-1.14800894 2.30339932 2.18898702
-0.67627382 0.76289594 -3.46797442
1.23140728 1.44786513 2.94689894
-2.12029886 1.39149511 -2.23576880
-1.66277027 2.35761213 1.60391390
0.16307035 0.34091544 3.63226604
2.87470222 1.24455035 -0.75829303
2.51485872 1.44209313 -1.55586040
-2.03143239 2.33402491 -0.96919382
-0.54097098 1.31984067 3.27772117
-3.05552506 0.11433347 -1.07676005
-1.83455801 2.57136774 0.65368223
1.42507792 0.72462815 -3.16919541
-0.21615694 2.47911859 -2.31608868
0.11258047 -2.21033645 -2.65354729
-0.54143554 1.84263647 -2.93329072
-0.64034492 2.12859058 -2.64185071
-1.16913295 0.62143248 3.33041692
0.06767742 0.23360941 -3.64710140
3 166 179 125
3 47 212 193
3 0 212 51
3 195 212 0
3 211 195 0
3 51 212 210
3 131 166 125
3 247 166 151
3 179 166 247
3 151 166 191
3 191 166 224
3 141 155 195
3 79 212 195
3 79 193 212
3 86 0 51
3 251 0 86
3 51 210 86
3 86 210 166
3 224 166 133
3 166 210 133
3 133 212 224
3 133 210 212
3 125 163 23
3 23 131 125
3 23 163 251
3 251 86 23
3 114 191 224
3 84 191 114
3 154 73 171
3 99 73 154
3 64 191 84
3 42 6 222
3 222 6 139
3 195 155 9
3 47 193 95
3 251 163 146
3 77 217 54
3 131 23 184
3 184 23 86
3 166 131 184
3 184 86 166
3 179 247 74
3 33 247 151
3 151 190 33
3 84 114 27
3 218 64 84
3 155 141 62
3 141 109 62
3 213 109 141
3 211 147 213
3 213 147 109
3 237 207 171
3 164 1 194
3 150 190 151
3 99 54 150
3 150 217 190
3 150 54 217
3 139 143 231
3 231 222 139
3 143 118 244
3 244 231 143
3 222 231 244
3 107 81 6
3 179 74 38
3 209 79 195
3 195 9 209
3 7 98 12
3 165 239 89
3 18 239 48
3 39 0 251
3 251 146 39
3 249 146 219
3 108 163 183
3 125 4 15
3 252 106 17
3 52 156 17
3 156 96 17
3 42 186 140
3 60 107 6
3 82 96 189
3 189 96 156
3 149 54 99
3 37 54 149
3 254 27 65
3 65 27 114
3 87 27 254
3 246 229 121
3 121 27 246
3 27 87 246
3 171 73 223
3 223 121 171
3 223 27 121
3 84 27 223
3 223 218 84
3 168 73 99
3 99 150 168
3 8 212 47
3 224 212 8
3 8 114 224
3 230 141 195
3 230 213 141
3 230 195 211
3 211 213 230
3 11 237 171
3 229 237 11
3 171 121 11
3 121 229 11
3 18 48 35
3 21 192 207
3 207 237 21
3 21 237 229
3 59 85 80
3 80 35 59
3 99 154 58
3 19 48 221
3 19 35 48
3 19 1 59
3 59 35 19
3 155 62 31
3 31 62 109
3 139 6 115
3 6 81 115
3 57 1 227
3 1 164 227
3 123 143 139
3 123 118 143
3 222 244 196
3 42 222 196
3 196 186 42
3 211 205 32
3 32 147 211
3 10 96 82
3 111 106 252
3 36 106 111
3 111 185 36
3 137 185 111
3 29 111 252
3 206 38 74
3 190 217 206
3 206 33 190
3 206 74 247
3 247 33 206
3 120 156 52
3 7 12 119
3 47 95 119
3 119 95 7
3 12 242 119
3 7 95 97
3 79 209 97
3 67 12 98
3 98 242 67
3 67 242 12
3 113 45 44
3 44 196 113
3 186 196 44
3 249 219 161
3 0 39 94
3 167 45 113
3 249 45 167
3 100 146 163
3 100 219 146
3 100 163 108
3 226 255 216
3 216 183 226
3 108 183 216
3 134 255 226
3 162 60 6
3 162 41 117
3 140 41 162
3 162 6 42
3 42 140 162
3 37 152 159
3 77 54 159
3 159 54 37
3 176 217 77
3 77 159 176
3 176 159 189
3 176 120 38
3 176 206 217
3 38 206 176
3 89 182 157
3 64 218 127
3 73 168 127
3 127 223 73
3 218 223 127
3 88 168 150
3 191 64 88
3 151 191 88
3 88 150 151
3 187 70 53
3 187 53 202
3 202 53 8
3 18 35 129
3 129 182 89
3 35 80 129
3 89 239 129
3 129 239 18
3 112 1 57
3 59 1 112
3 112 85 59
3 85 21 169
3 169 80 85
3 169 21 229
3 182 129 169
3 169 129 80
3 188 149 99
3 99 58 188
3 207 192 241
3 171 207 241
3 241 154 171
3 241 58 154
3 245 152 37
3 81 107 5
3 200 112 57
3 192 112 200
3 83 19 221
3 221 31 83
3 83 31 71
3 204 31 109
3 71 31 204
3 139 115 101
3 101 115 81
3 81 227 101
3 101 227 164
3 139 101 116
3 116 123 139
3 116 22 118
3 118 123 116
3 147 32 232
3 232 244 118
3 49 203 160
3 250 203 49
3 107 60 75
3 75 250 49
3 144 117 137
3 137 111 144
3 111 29 144
3 179 38 122
3 125 179 122
3 122 4 125
3 4 122 148
3 148 120 52
3 38 120 148
3 148 122 38
3 221 48 174
3 174 31 221
3 47 119 199
3 199 119 242
3 7 97 132
3 132 98 7
3 126 95 193
3 126 97 95
3 193 79 126
3 79 97 126
3 72 140 186
3 72 41 140
3 72 185 137
3 137 117 72
3 117 41 72
3 46 44 45
3 46 45 249
3 249 161 46
3 186 44 46
3 46 72 186
3 46 161 185
3 185 72 46
3 55 161 219
3 219 100 55
3 36 185 55
3 185 161 55
3 0 94 43
3 43 205 211
3 211 0 43
3 177 94 39
3 135 32 205
3 205 43 135
3 135 43 94
3 63 39 146
3 63 146 249
3 249 167 63
3 63 177 39
3 167 177 63
3 16 17 208
3 208 225 16
3 52 17 16
3 16 225 52
3 124 225 208
3 238 24 181
3 238 124 208
3 181 24 173
3 36 134 173
3 173 134 181
3 173 106 36
3 173 24 106
3 130 159 152
3 189 159 130
3 82 189 130
3 156 120 240
3 120 176 240
3 240 189 156
3 240 176 189
3 104 180 87
3 104 87 254
3 104 70 187
3 187 180 104
3 104 53 70
3 34 180 187
3 187 202 34
3 34 202 242
3 172 246 87
3 87 180 172
3 180 34 172
3 182 169 105
3 229 246 105
3 105 169 229
3 145 165 89
3 89 157 145
3 64 127 103
3 103 127 168
3 103 88 64
3 168 88 103
3 175 8 47
3 175 202 8
3 192 21 76
3 76 112 192
3 76 21 85
3 85 112 76
3 201 188 248
3 248 188 58
3 58 241 248
3 248 241 192
3 192 200 248
3 149 188 13
3 201 110 13
3 13 188 201
3 37 149 13
3 13 245 37
3 152 245 3
3 82 130 3
3 3 130 152
3 66 227 81
3 81 5 66
3 57 227 66
3 68 110 201
3 68 200 110
3 201 248 68
3 68 248 200
3 61 66 5
3 61 200 57
3 57 66 61
3 19 83 90
3 194 1 90
3 1 19 90
3 71 204 158
3 158 204 109
3 109 147 158
3 147 22 158
3 147 232 243
3 243 232 118
3 243 22 147
3 118 22 243
3 96 10 236
3 236 203 96
3 236 160 203
3 203 250 136
3 136 29 252
3 136 250 29
3 228 75 60
3 228 144 29
3 29 250 228
3 250 75 228
3 117 144 228
3 228 162 117
3 60 162 228
3 30 15 4
3 4 148 30
3 30 148 52
3 52 225 30
3 30 225 15
3 31 174 78
3 239 165 235
3 165 132 235
3 235 48 239
3 36 55 69
3 69 134 36
3 255 134 69
3 197 55 100
3 197 69 55
3 26 167 113
3 26 177 167
3 94 177 26
3 113 135 26
3 26 135 94
3 50 196 244
3 32 135 50
3 113 196 50
3 50 135 113
3 244 232 50
3 50 232 32
3 15 225 178
3 225 124 178
3 178 56 15
3 124 56 178
3 138 238 208
3 24 238 138
3 106 24 138
3 208 17 138
3 138 17 106
3 53 104 102
3 102 65 114
3 254 65 102
3 102 104 254
3 114 8 102
3 8 53 102
3 153 242 98
3 153 34 242
3 157 34 153
3 153 145 157
3 98 132 153
3 153 132 165
3 165 145 153
3 40 34 157
3 40 172 34
3 40 157 182
3 182 105 40
3 246 172 40
3 40 105 246
3 20 199 242
3 242 202 20
3 202 175 20
3 47 199 20
3 20 175 47
3 49 160 14
3 215 90 83
3 215 83 71
3 71 158 215
3 194 90 215
3 215 158 22
3 22 116 215
3 215 164 194
3 215 101 164
3 215 116 101
3 2 236 10
3 160 236 2
3 10 14 2
3 2 14 160
3 253 136 252
3 203 136 253
3 96 203 253
3 252 17 253
3 253 17 96
3 31 78 234
3 234 78 91
3 155 31 234
3 234 9 155
3 234 209 9
3 234 91 209
3 25 132 97
3 25 235 132
3 25 97 209
3 128 100 108
3 128 197 100
3 108 216 128
3 128 216 255
3 255 69 128
3 69 197 128
3 124 238 28
3 28 56 124
3 226 183 92
3 92 183 163
3 92 163 125
3 125 15 92
3 15 56 92
3 49 14 142
3 142 14 61
3 142 61 5
3 142 75 49
3 142 5 107
3 107 75 142
3 110 200 93
3 200 61 93
3 93 13 110
3 245 13 93
3 93 3 245
3 82 3 93
3 235 25 220
3 220 78 174
3 220 174 48
3 48 235 220
3 198 134 226
3 226 92 198
3 181 134 198
3 198 92 56
3 233 14 10
3 233 10 82
3 82 93 233
3 61 14 233
3 233 93 61
3 170 220 25
3 209 91 170
3 170 25 209
3 91 78 170
3 78 220 170
3 181 198 214
3 214 238 181
3 214 28 238
3 56 28 214
3 214 198 56