ply
format ascii 1.0
comment https://github.com/mikedh/trimesh
element vertex 256
property float x
property float y
property float z
element face 508
property list uchar int vertex_indices
end_header
2.33924675 -2.51541138 -0.27109897
1.23555064 3.24962544 0.68170512
-0.78023970 3.18259668 -0.99287361
-1.86802542 2.80793715 -0.66647553
-1.99063540 0.14263168 -1.62377667
0.38921446 3.62010217 -0.52411562
1.15998638 3.12016201 -0.88983136
0.89846063 0.26574391 1.99222946
-0.29650435 0.01780731 2.07285118
2.28126073 0.36858255 1.43980718
-0.86216271 3.18672299 -0.96119511
-1.14918280 2.27143097 1.48227656
0.41793489 0.34813803 2.05479240
-2.04567266 2.86421871 -0.22235651
-0.66341138 3.45080733 -0.71829784
-1.67689490 0.48121974 -1.75012708
-1.46509945 1.41009426 -1.67685366
-0.97834331 2.01521850 -1.63928223
1.27575564 1.99643564 1.55688190
1.77192771 2.63022566 0.94224888
0.00763569 0.13350438 2.08034968
-0.43603948 3.16903257 1.09201550
2.65046382 2.09527659 0.03020811
-0.34101656 -2.48978567 -1.54766321
-0.42311588 1.14448440 -1.96423042
1.67124736 0.67149907 1.73345137
2.16373920 0.43171018 -1.50994861
-1.36354125 0.89177406 1.81609905
-0.79540038 0.49960083 -1.99688506
0.23698556 2.70758677 -1.44069791
-1.74099207 0.50714135 -1.72164965
2.39147544 1.52944565 1.08727682
2.94329095 0.72119433 -0.69345874
-3.06700778 0.22243288 -0.55484599
-0.33704740 0.91605735 2.00721335
0.96448898 2.53564835 1.40604198
0.17130557 0.84026653 -2.02618527
-2.31812906 2.50858283 -0.35272446
-2.51827812 0.73305851 -1.21090662
1.89492285 0.12485840 -1.67269397
-0.10406399 1.56243038 1.89321434
1.26195347 2.39007020 -1.38357866
1.70034838 2.31334329 -1.21290147
2.91018224 0.28107712 -0.83506674
1.93118691 1.31643796 -1.48790216
1.88847005 0.99745458 -1.58418870
1.79213369 1.40267277 -1.53780961
0.04008299 0.04808488 2.08126259
1.54188108 1.87662303 1.49868488
-0.17315568 3.30014372 -1.00121617
2.52275562 1.38740373 -1.01624179
-0.36773235 -3.74046564 0.11121401
-1.63943791 1.41696870 -1.60497797
-0.59498775 0.26774493 2.04019690
-2.67366147 2.04915857 -0.07764545
0.73618066 0.50585753 -2.00592661
-0.82632983 0.45173660 -1.99510634
0.38945985 3.69819021 0.31636351
-2.11676264 2.63281035 0.55894268
0.65623599 3.05163455 1.14544010
0.85357255 3.12388086 -1.02402580
-0.21799998 3.70004869 -0.37699804
2.88400507 0.87134749 0.74621439
1.83830774 0.39761159 -1.68621910
-2.71041489 0.39462218 1.07414472
-1.21212745 0.34504741 1.91625774
0.45885336 3.72497511 -0.12309222
0.32554808 0.58328444 2.04563117
-1.59766948 3.25602865 0.11314867
0.21459432 0.76277524 -2.03378081
-0.58377951 0.51672649 2.02639008
2.45106125 1.98758149 0.75457025
1.35146296 1.98906314 -1.53313053
-2.39583516 1.62988019 1.03864682
-2.86676669 0.09598986 -0.90894663
0.25621328 3.29165101 -1.00177169
-0.23004542 3.34957910 0.94479293
-2.73066092 1.69374764 -0.52790564
1.92899418 1.20639777 1.51795292
1.57599235 0.06522001 1.80897319
0.27673167 2.80659676 1.37904215
1.33948278 3.35234451 -0.37975135
-1.80800259 2.73235464 -0.81479567
2.14166665 2.34575820 0.83761626
-2.16273236 0.45597133 1.50864637
0.21698655 2.98602653 1.26356387
-0.34111497 -3.42079782 -0.84821606
-0.73942620 1.05035126 1.93997288
-3.02517462 0.36890095 0.62285298
0.63795465 1.60942137 1.83611512
1.81711340 2.85275435 0.66811877
2.00351095 0.86026919 1.54805553
-0.58069569 0.08391878 -2.04630375
-1.30395067 3.33083272 -0.47680736
2.55428338 0.18789506 -1.24095774
1.03342009 0.15359057 1.96734488
-0.84613156 2.76775289 -1.30197346
1.49268818 0.40823790 1.82587647
0.35361898 0.69234741 2.03315234
-2.55981636 2.21909690 0.19375226
0.70818049 0.19174686 -2.02678061
1.64641213 3.22867870 -0.04558603
-0.69013739 0.28813046 2.02598333
-2.71979523 1.02064455 0.92801040
-0.61288261 0.52216423 2.02250767
-0.40331563 1.70773947 1.83731532
-0.23181802 1.66169500 -1.86257398
0.55461258 3.49030423 -0.70058340
0.09990399 0.02306565 -2.08053446
2.88026500 1.04665923 0.68088824
-1.60778368 3.25147963 -0.08939894
0.47229579 2.10604262 -1.69880867
0.09201008 3.50841236 0.76233363
2.15012360 0.85029668 -1.46355510
-1.47487116 -0.02386483 1.84532797
1.45172668 3.29212546 -0.36707234
2.50136495 2.32822609 -0.10870243
0.99634904 2.52986360 -1.40004611
2.65813112 1.91493523 -0.45276690
0.22974947 0.18259397 2.07383823
-2.22488499 1.07839966 -1.36692274
-1.63842952 1.66330087 1.53197908
-2.16602921 0.15152813 -1.52558470
2.42380381 2.25406194 -0.52776337
-1.12808836 0.77914917 -1.89872909
-1.80098307 -1.23009884 -1.57783496
1.42233539 0.14238764 1.86124086
-2.41960478 1.18702066 1.18594265
0.26276839 0.37057838 -2.06436205
0.52741575 2.24249673 1.63763499
-2.03556228 2.52539849 -0.78935313
-1.07711744 -2.81520295 -1.19290626
0.87381852 0.95151913 1.93177187
-1.73464000 -3.01789570 0.52382958
-0.33578485 0.45056120 -2.05518413
2.60044599 0.36291391 -1.18688762
-0.30264270 2.84041882 -1.35474288
0.70651698 2.11887097 -1.65969157
-0.62689948 1.12058151 -1.94495583
2.00123477 2.83603644 -0.41633737
1.60385001 2.30853677 -1.26974368
3.07192922 0.15944928 0.55030775
-0.18720870 3.56714845 -0.66635013
2.30713892 2.28199553 -0.69087672
0.70893371 2.47273350 -1.50188756
0.36721131 1.37769508 1.92311323
1.47671592 0.22008099 -1.84080243
2.94351244 1.29309046 -0.36214963
-1.97842658 0.62774283 -1.59566486
-2.33198333 2.56591558 -0.08379778
-3.09502506 0.81240171 0.21834877
-3.17770839 0.23938024 -0.09574096
-2.10311508 2.58741522 -0.63792771
0.33255562 0.91864353 2.00713396
-2.21906734 2.33971095 0.75263792
2.60296321 0.51886028 1.16659915
-2.00375891 1.64965248 -1.33838677
0.19846183 1.48985779 1.90791130
2.65751171 1.87067127 0.50507015
-2.48159146 2.06877971 -0.63534170
-0.65634024 3.14004040 -1.06968272
1.28415000 0.96722841 -1.82942843
1.02743793 3.01389766 -1.05682337
-0.15369667 -1.24537694 -1.96244097
1.63436604 3.23754501 -0.01714116
0.76000392 1.34542000 1.88058364
-1.99347341 -2.94180036 0.01850907
1.85584271 0.59965402 -1.66036057
-2.70881414 1.06690359 0.92673886
-0.09035537 2.37010622 1.61785460
1.82821071 0.70831227 1.66038764
-1.42629254 2.50883865 1.24384439
-0.43972743 1.11280394 1.96803582
-0.09498811 0.97369826 -2.01014519
1.91140044 1.28913188 1.50614333
-0.15357709 0.10958937 2.07860351
-2.32431126 1.32647109 -1.22232914
2.10463810 0.27699336 -1.55578220
-1.17619574 0.76424903 -1.88818586
-2.78132987 -0.08108594 -1.01675582
-0.40417439 0.91161913 2.00246382
-0.42990169 0.65525049 -2.03057694
0.23779140 2.13980651 1.70717573
-0.09210640 0.02360625 -2.08065724
-0.98274845 -2.90944076 -1.15804029
0.98613620 1.81602216 -1.70702350
1.73938692 1.74020112 -1.45674264
-0.52906215 0.51903915 2.03261805
-2.29367065 2.61934805 0.00042139
-2.15638137 1.90841556 -1.11373401
-3.15017390 0.53737068 -0.11029618
-2.87160897 -0.38593835 0.87840503
-0.96939576 3.29205060 0.79302329
1.36080658 0.00751661 1.88269341
1.77581668 2.94320679 0.59048337
2.79162288 -1.68330050 0.38213441
2.29228139 1.71920967 -1.09120536
0.32133546 0.52368456 -2.05067635
-0.52896553 0.35894713 -2.04344916
0.10187003 0.11741714 2.07987547
-1.04504347 3.52843118 0.27155885
-1.72508037 3.16422820 0.10945611
-0.20497729 0.14135413 2.07577062
-0.50722831 2.87696528 -1.30503476
2.53706288 1.81674635 0.76534569
2.91839433 0.36495548 -0.81279969
-2.95632529 0.71749443 -0.67082733
-1.12104094 2.84679556 1.15203249
-0.75173181 1.01843572 -1.94317985
1.91984630 0.27802035 1.65501988
-1.30077362 -3.39327765 0.31896287
3.17809463 0.26692489 -0.06630269
0.08116055 -3.43616700 0.85705918
3.15093470 0.20667046 0.29448047
-0.62177622 0.47711536 -2.02461648
2.06968355 2.76126266 0.42856222
0.04895056 0.14538175 -2.08003783
-2.92548871 1.10880148 -0.55700958
-2.25214744 1.02069581 1.36150026
0.85967571 0.36858937 -1.99438608
1.59326112 1.23006499 1.67037272
2.02750039 1.78018689 1.27077544
2.16480255 2.22515273 -0.90815645
-1.92065215 1.53150439 1.42996752
-1.87540495 -2.65922046 0.82357419
-1.29977798 0.86946154 -1.83929062
-0.17748332 0.15796392 -2.07651091
1.02203095 3.57002997 0.06999920
0.48840696 2.88867974 -1.30018532
-0.85454392 2.19866562 1.59695232
3.15226674 0.18208234 0.29493949
2.26197910 2.30189490 -0.73209512
2.75542331 1.50612640 -0.63567811
-1.03733814 3.38584471 -0.61667085
2.15834141 0.78662282 1.46942604
1.51970673 1.29551709 1.68413460
-0.70064783 2.88645768 -1.25854897
-1.14370012 2.70122170 1.24576104
-0.67373562 0.89465648 -1.97363770
1.22678542 1.69792736 1.67709172
-2.11234069 1.63182163 -1.27238476
-1.65652943 2.76479793 0.91279364
0.16245832 0.39979532 2.06713676
2.86391282 1.45949793 -0.43154752
2.50541997 1.69115865 -0.88544625
-2.02380800 2.73713684 -0.55157197
-0.53894055 1.54779184 1.86536396
-3.04405689 0.13408013 -0.61278838
-1.82767248 3.01547146 0.37201312
1.41972923 0.84977943 -1.80360150
-0.21534565 2.90728974 -1.31809509
0.11215793 -2.59208584 -1.51014411
-0.53940338 2.16088009 -1.66934717
-0.63794154 2.49622178 -1.50348759
-1.16474485 0.72876072 1.89535332
0.06742340 0.27395633 -2.07557964
3 166 179 125
3 47 212 193
3 0 212 51
3 195 212 0
3 211 195 0
3 51 212 210
3 131 166 125
3 247 166 151
3 179 166 247
3 151 166 191
3 191 166 224
3 141 155 195
3 79 212 195
3 79 193 212
3 86 0 51
3 251 0 86
3 51 210 86
3 86 210 166
3 224 166 133
3 166 210 133
3 133 212 224
3 133 210 212
3 125 163 23
3 23 131 125
3 23 163 251
3 251 86 23
3 114 191 224
3 84 191 114
3 154 73 171
3 99 73 154
3 64 191 84
3 42 6 222
3 222 6 139
3 195 155 9
3 47 193 95
3 251 163 146
3 77 217 54
3 131 23 184
3 184 23 86
3 166 131 184
3 184 86 166
3 179 247 74
3 33 247 151
3 151 190 33
3 84 114 27
3 218 64 84
3 155 141 62
3 141 109 62
3 213 109 141
3 211 147 213
3 213 147 109
3 237 207 171
3 164 1 194
3 150 190 151
3 99 54 150
3 150 217 190
3 150 54 217
3 139 143 231
3 231 222 139
3 143 118 244
3 244 231 143
3 222 231 244
3 107 81 6
3 179 74 38
3 209 79 195
3 195 9 209
3 7 98 12
3 165 239 89
3 18 239 48
3 39 0 251
3 251 146 39
3 249 146 219
3 108 163 183
3 125 4 15
3 252 106 17
3 52 156 17
3 156 96 17
3 42 186 140
3 60 107 6
3 82 96 189
3 189 96 156
3 149 54 99
3 37 54 149
3 254 27 65
3 65 27 114
3 87 27 254
3 246 229 121
3 121 27 246
3 27 87 246
3 171 73 223
3 223 121 171
3 223 27 121
3 84 27 223
3 223 218 84
3 168 73 99
3 99 150 168
3 8 212 47
3 224 212 8
3 8 114 224
3 230 141 195
3 230 213 141
3 230 195 211
3 211 213 230
3 11 237 171
3 229 237 11
3 171 121 11
3 121 229 11
3 18 48 35
3 21 192 207
3 207 237 21
3 21 237 229
3 59 85 80
3 80 35 59
3 99 154 58
3 19 48 221
3 19 35 48
3 19 1 59
3 59 35 19
3 155 62 31
3 31 62 109
3 139 6 115
3 6 81 115
3 57 1 227
3 1 164 227
3 123 143 139
3 123 118 143
3 222 244 196
3 42 222 196
3 196 186 42
3 211 205 32
3 32 147 211
3 10 96 82
3 111 106 252
3 36 106 111
3 111 185 36
3 137 185 111
3 29 111 252
3 206 38 74
3 190 217 206
3 206 33 190
3 206 74 247
3 247 33 206
3 120 156 52
3 7 12 119
3 47 95 119
3 119 95 7
3 12 242 119
3 7 95 97
3 79 209 97
3 67 12 98
3 98 242 67
3 67 242 12
3 113 45 44
3 44 196 113
3 186 196 44
3 249 219 161
3 0 39 94
3 167 45 113
3 249 45 167
3 100 146 163
3 100 219 146
3 100 163 108
3 226 255 216
3 216 183 226
3 108 183 216
3 134 255 226
3 162 60 6
3 162 41 117
3 140 41 162
3 162 6 42
3 42 140 162
3 37 152 159
3 77 54 159
3 159 54 37
3 176 217 77
3 77 159 176
3 176 159 189
3 176 120 38
3 176 206 217
3 38 206 176
3 89 182 157
3 64 218 127
3 73 168 127
3 127 223 73
3 218 223 127
3 88 168 150
3 191 64 88
3 151 191 88
3 88 150 151
3 187 70 53
3 187 53 202
3 202 53 8
3 18 35 129
3 129 182 89
3 35 80 129
3 89 239 129
3 129 239 18
3 112 1 57
3 59 1 112
3 112 85 59
3 85 21 169
3 169 80 85
3 169 21 229
3 182 129 169
3 169 129 80
3 188 149 99
3 99 58 188
3 207 192 241
3 171 207 241
3 241 154 171
3 241 58 154
3 245 152 37
3 81 107 5
3 200 112 57
3 192 112 200
3 83 19 221
3 221 31 83
3 83 31 71
3 204 31 109
3 71 31 204
3 139 115 101
3 101 115 81
3 81 227 101
3 101 227 164
3 139 101 116
3 116 123 139
3 116 22 118
3 118 123 116
3 147 32 232
3 232 244 118
3 49 203 160
3 250 203 49
3 107 60 75
3 75 250 49
3 144 117 137
3 137 111 144
3 111 29 144
3 179 38 122
3 125 179 122
3 122 4 125
3 4 122 148
3 148 120 52
3 38 120 148
3 148 122 38
3 221 48 174
3 174 31 221
3 47 119 199
3 199 119 242
3 7 97 132
3 132 98 7
3 126 95 193
3 126 97 95
3 193 79 126
3 79 97 126
3 72 140 186
3 72 41 140
3 72 185 137
3 137 117 72
3 117 41 72
3 46 44 45
3 46 45 249
3 249 161 46
3 186 44 46
3 46 72 186
3 46 161 185
3 185 72 46
3 55 161 219
3 219 100 55
3 36 185 55
3 185 161 55
3 0 94 43
3 43 205 211
3 211 0 43
3 177 94 39
3 135 32 205
3 205 43 135
3 135 43 94
3 63 39 146
3 63 146 249
3 249 167 63
3 63 177 39
3 167 177 63
3 16 17 208
3 208 225 16
3 52 17 16
3 16 225 52
3 124 225 208
3 238 24 181
3 238 124 208
3 181 24 173
3 36 134 173
3 173 134 181
3 173 106 36
3 173 24 106
3 130 159 152
3 189 159 130
3 82 189 130
3 156 120 240
3 120 176 240
3 240 189 156
3 240 176 189
3 104 180 87
3 104 87 254
3 104 70 187
3 187 180 104
3 104 53 70
3 34 180 187
3 187 202 34
3 34 202 242
3 172 246 87
3 87 180 172
3 180 34 172
3 182 169 105
3 229 246 105
3 105 169 229
3 145 165 89
3 89 157 145
3 64 127 103
3 103 127 168
3 103 88 64
3 168 88 103
3 175 8 47
3 175 202 8
3 192 21 76
3 76 112 192
3 76 21 85
3 85 112 76
3 201 188 248
3 248 188 58
3 58 241 248
3 248 241 192
3 192 200 248
3 149 188 13
3 201 110 13
3 13 188 201
3 37 149 13
3 13 245 37
3 152 245 3
3 82 130 3
3 3 130 152
3 66 227 81
3 81 5 66
3 57 227 66
3 68 110 201
3 68 200 110
3 201 248 68
3 68 248 200
3 61 66 5
3 61 200 57
3 57 66 61
3 19 83 90
3 194 1 90
3 1 19 90
3 71 204 158
3 158 204 109
3 109 147 158
3 147 22 158
3 147 232 243
3 243 232 118
3 243 22 147
3 118 22 243
3 96 10 236
3 236 203 96
3 236 160 203
3 203 250 136
3 136 29 252
3 136 250 29
3 228 75 60
3 228 144 29
3 29 250 228
3 250 75 228
3 117 144 228
3 228 162 117
3 60 162 228
3 30 15 4
3 4 148 30
3 30 148 52
3 52 225 30
3 30 225 15
3 31 174 78
3 239 165 235
3 165 132 235
3 235 48 239
3 36 55 69
3 69 134 36
3 255 134 69
3 197 55 100
3 197 69 55
3 26 167 113
3 26 177 167
3 94 177 26
3 113 135 26
3 26 135 94
3 50 196 244
3 32 135 50
3 113 196 50
3 50 135 113
3 244 232 50
3 50 232 32
3 15 225 178
3 225 124 178
3 178 56 15
3 124 56 178
3 138 238 208
3 24 238 138
3 106 24 138
3 208 17 138
3 138 17 106
3 53 104 102
3 102 65 114
3 254 65 102
3 102 104 254
3 114 8 102
3 8 53 102
3 153 242 98
3 153 34 242
3 157 34 153
3 153 145 157
3 98 132 153
3 153 132 165
3 165 145 153
3 40 34 157
3 40 172 34
3 40 157 182
3 182 105 40
3 246 172 40
3 40 105 246
3 20 199 242
3 242 202 20
3 202 175 20
3 47 199 20
3 20 175 47
3 49 160 14
3 215 90 83
3 215 83 71
3 71 158 215
3 194 90 215
3 215 158 22
3 22 116 215
3 215 164 194
3 215 101 164
3 215 116 101
3 2 236 10
3 160 236 2
3 10 14 2
3 2 14 160
3 253 136 252
3 203 136 253
3 96 203 253
3 252 17 253
3 253 17 96
3 31 78 234
3 234 78 91
3 155 31 234
3 234 9 155
3 234 209 9
3 234 91 209
3 25 132 97
3 25 235 132
3 25 97 209
3 128 100 108
3 128 197 100
3 108 216 128
3 128 216 255
3 255 69 128
3 69 197 128
3 124 238 28
3 28 56 124
3 226 183 92
3 92 183 163
3 92 163 125
3 125 15 92
3 15 56 92
3 49 14 142
3 142 14 61
3 142 61 5
3 142 75 49
3 142 5 107
3 107 75 142
3 110 200 93
3 200 61 93
3 93 13 110
3 245 13 93
3 93 3 245
3 82 3 93
3 235 25 220
3 220 78 174
3 220 174 48
3 48 235 220
3 198 134 226
3 226 92 198
3 181 134 198
3 198 92 56
3 233 14 10
3 233 10 82
3 82 93 233
3 61 14 233
3 233 93 61
3 170 220 25
3 209 91 170
3 170 25 209
3 91 78 170
3 78 220 170
3 181 198 214
3 214 238 181
3 214 28 238
3 56 28 214
3 214 198 56