ply
format ascii 1.0
comment https://github.com/mikedh/trimesh
element vertex 256
property float x
property float y
property float z
element face 508
property list uchar int vertex_indices
end_header
1.22533894 -1.66084993 -0.58823818
0.64720333 2.14562941 1.47918296
-0.40870339 2.10137224 -2.15436506
-0.97850490 1.85399580 -1.44613743
-1.04273009 0.09417538 -3.52331614
0.20387743 2.39024401 -1.13724089
0.60762143 2.06014848 -1.93078113
0.47062963 0.17546266 4.32279587
-0.15531424 0.01175763 4.49773073
1.19496477 0.24336390 3.12413406
-0.45161611 2.10409665 -2.08562827
-0.60196233 1.49975705 3.21628547
0.21892171 0.22986500 4.45854664
-1.07155955 1.89115691 -0.48247543
-0.34750664 2.27846360 -1.55858290
-0.87838733 0.31773484 -3.79747486
-0.76744503 0.93104255 -3.63848424
-0.51247358 1.33058774 -3.55696082
0.66826344 1.31818604 3.37816620
0.92816716 1.73665845 2.04451799
0.00399971 0.08814890 4.51400137
-0.22840522 2.09241629 2.36948586
1.38835990 1.38344777 0.06554641
-0.17863052 -1.64393020 -3.35816336
-0.22163561 0.75566840 -4.26204252
0.87542903 0.44337052 3.76129150
1.13340497 0.28504518 -3.27632904
-0.71424711 0.58881146 3.94062281
-0.41664481 0.32987130 -4.33289719
0.12413724 1.78773761 -3.12606692
-0.91196251 0.33485010 -3.73568392
1.25269723 1.00984669 2.35920382
1.54174805 0.47618279 -1.50468624
-1.60655308 0.14686570 -1.20392036
-0.17655140 0.60484493 4.35530806
0.50521642 1.67421174 3.05086923
0.08973289 0.55480254 -4.39647341
-1.21427715 1.65634131 -0.76535147
-1.31911874 0.48401633 -2.62745929
0.99259418 0.08244023 -3.62945843
-0.05451056 1.03162551 4.10794973
0.66103363 1.57809103 -3.00212789
0.89067262 1.52743053 -2.63178754
1.52440500 0.18558672 -1.81195140
1.01159000 0.86920416 -3.22849202
0.98921412 0.65858907 -3.43741727
0.93875146 0.92614233 -3.33678246
0.02099618 0.03174899 4.51598215
0.80766463 1.23907733 3.25188851
-0.09070202 2.17898512 -2.17246699
1.32146418 0.91606069 -2.20507002
-0.19262472 -2.46971631 0.24131531
-0.85876662 0.93558156 -3.48252630
-0.31166515 0.17678386 4.42687654
-1.40051126 1.35299742 -0.16847728
0.38562447 0.33400241 -4.35251617
-0.43284622 0.29826799 -4.32903767
0.20400597 2.44180298 0.68645442
-1.10879779 1.73836493 1.21280956
0.34374806 2.01490188 2.48540831
0.44711643 2.06260395 -2.22196007
-0.11419225 2.44303012 -0.81802094
1.51069295 0.57532436 1.61915696
0.96293819 0.26253089 -3.65880585
-1.41976333 0.26055709 2.33070946
-0.63493389 0.22782436 4.15794992
0.24035552 2.45948815 -0.26708898
0.17052786 0.38512504 4.43866825
-0.83688760 2.14985704 0.24551316
0.11240831 0.50363737 -4.41295481
-0.30579406 0.34117883 4.39691830
1.28390932 1.31233990 1.63728774
0.70792025 1.31331813 -3.32662964
-1.25498092 1.07616055 2.25368524
-1.50166321 0.06337920 -1.97225797
0.13420907 2.17337751 -2.17367244
-0.12050187 2.21162558 2.05003834
-1.43036866 1.11833036 -1.14546454
1.01044130 0.79654795 3.29369712
0.82553273 0.04306280 3.92516112
0.14495695 1.85311091 2.99228430
0.70164484 2.21345162 -0.82399517
-0.94706380 1.80409098 -1.76796663
1.12184298 1.54883325 1.81748331
-1.13287759 0.30106407 3.27350330
0.11366141 1.97158289 2.74171638
-0.17868206 -2.25864935 -1.84048307
-0.38732454 0.69351512 4.20940781
-1.58464015 0.24357414 1.35148394
0.33417198 1.06265223 3.98405409
0.95183623 1.88358736 1.44970298
1.04947460 0.56800967 3.35901451
-0.30417868 0.05540903 -4.44012737
-0.68303245 2.19924808 -1.03459001
1.33797896 0.12406142 -2.69266486
0.54132378 0.10141121 4.26880026
-0.44321874 1.82746351 -2.82505870
0.78189653 0.26954713 3.96183801
0.18523189 0.45713603 4.41159105
-1.34087729 1.46520257 0.42040911
0.37095749 0.12660465 -4.39776564
0.86241990 2.13179874 -0.09891384
-0.36150619 0.19024381 4.39603567
-1.42467690 0.67390066 2.01362300
-0.32103878 0.34476921 4.38849401
-0.21126388 1.12756872 3.98665833
-0.12143039 1.09716690 -4.04146528
0.29051590 2.30454230 -1.52014554
0.05233148 0.01522955 -4.51440239
1.50873387 0.69107741 1.47741044
-0.84218556 2.14685369 -0.19398034
0.24739692 1.39055634 -3.68612289
0.04819651 2.31649852 1.65413296
1.12627292 0.56142515 -3.17566299
-0.77256370 -0.01575723 4.00404453
0.76044017 2.17369080 -0.79648393
1.31025922 1.53725719 -0.23586559
0.52190530 1.67039239 -3.03785944
1.39237630 1.26437378 -0.98242635
0.12034685 0.12056128 4.49987268
-1.16543424 0.71203470 -2.96598744
-0.85823846 1.09822714 3.32413125
-1.13460457 0.10004944 -3.31025672
1.26963139 1.48828876 -1.14515591
-0.59091264 0.51444864 -4.11991596
-0.94338685 -0.81219703 -3.42363071
0.74504453 0.09401425 4.03857279
-1.26743186 0.78375381 2.57329178
0.13764276 0.24468169 -4.47931099
0.27626973 1.48065269 3.55338645
-1.06626368 1.66744423 -1.71276069
-0.56421322 -1.85879326 -2.58840179
0.45772162 0.62825930 4.19161272
-0.90863520 -1.99262524 1.13662028
-0.17589006 0.29749194 -4.45939684
1.36215973 0.23962107 -2.57534218
-0.15852961 1.87544262 -2.93955922
0.37008613 1.39902639 -3.60124540
-0.32838109 0.73988605 -4.22021961
1.04828227 1.87254906 -0.90338057
0.84012508 1.52425706 -2.75512552
1.60913098 0.10527954 1.19407332
-0.09806324 2.35528016 -1.44586527
1.20852029 1.50673258 -1.49908376
0.37135205 1.63267112 -3.25883794
0.19235179 0.90965039 4.17282534
0.77353001 0.14531282 -3.99422503
1.54186404 0.85378850 -0.78580248
-1.03633499 0.41447958 -3.46231842
-1.22153413 1.69419646 -0.18182679
-1.62122893 0.53640425 0.47377932
-1.66453993 0.15805553 -0.20774142
-1.10164893 1.70839202 -1.38419342
0.17419854 0.60655248 4.35513544
-1.16238689 1.54484034 1.63309503
1.36347830 0.34258774 2.53131986
-1.04960454 1.08921564 -2.90406919
0.10395782 0.98370802 4.13983965
1.39205170 1.23514760 1.09591544
-1.29990160 1.36595261 -1.37858236
-0.34380266 2.07327366 -2.32102776
0.67266053 0.63863164 -3.96954536
0.53819019 1.98998535 -2.29312515
-0.08050904 -0.82228470 -4.25815964
0.85610992 2.13765287 -0.03719337
0.39810354 0.88834006 4.08054352
-1.04421675 -1.94238174 0.04016149
0.97212332 0.39593342 -3.60269713
-1.41892493 0.70444417 2.01086402
-0.04732974 1.56490946 3.51046634
0.95764917 0.46767715 3.60275578
-0.74711734 1.65651023 2.69892859
-0.23033702 0.73475075 4.27029943
-0.04975645 0.64290345 -4.36166954
1.00122547 0.85117477 3.26807237
-0.08044640 0.07235854 4.51021242
-1.21751547 0.87582868 -2.65224409
1.10244668 0.18289034 -3.37577987
-0.61611217 0.50461048 -4.09703875
-1.45690989 -0.05353859 -2.20618534
-0.21171370 0.60191453 4.34500265
-0.22519012 0.43264207 -4.40600348
0.12455936 1.41284943 3.70427799
-0.04824697 0.01558649 -4.51466846
-0.51478106 -1.92101562 -2.51274824
0.51655567 1.19906449 -3.70394754
0.91112167 1.14900208 -3.16088128
-0.27713215 0.34270585 4.41043186
-1.20146537 1.72947621 0.00091434
-1.12955081 1.26006901 -2.41661143
-1.65011692 0.35480961 -0.23932377
-1.50419974 -0.25482342 1.90598798
-0.50778669 2.17364144 1.72072434
0.71281463 0.00496299 4.08512115
0.93020427 1.94331038 1.28124750
1.46230161 -1.11143231 0.82916600
1.20073760 1.13514209 -2.36772823
0.16832121 0.34577307 -4.44961500
-0.27708152 0.23700193 -4.43393373
0.05336133 0.07752699 4.51297235
-0.54741228 2.32971644 0.58923602
-0.90362769 2.08924413 0.23750097
-0.10737073 0.09333186 4.50406551
-0.26569521 1.89957321 -2.83170128
1.32895851 1.19954264 1.66066873
1.52870667 0.24096906 -1.76363564
-1.54857564 0.47373986 -1.45558000
-0.58722115 1.87965298 2.49971271
-0.39377046 0.67244226 -4.21636629
1.00564957 0.18356843 3.59110880
-0.68136829 -2.24047852 0.69209462
1.66474223 0.17624243 -0.14386544
0.04251334 -2.26879692 1.85967112
1.65051544 0.13645825 0.63897204
-0.32569742 0.31502482 -4.39306974
1.08413684 1.82317805 0.92990637
0.02564117 0.09599117 -4.51332474
-1.53242278 0.73210806 -1.20861506
-1.17971480 0.67393458 2.95422173
0.45031339 0.24336840 -4.32747507
0.83457845 0.81217468 3.62442183
1.06204069 1.17540348 2.75736427
1.13396192 1.46920109 -1.97054350
-1.00607169 1.01120603 3.10278392
-0.98237038 -1.75580275 1.78701448
-0.68084675 0.57407916 -3.99094439
-0.09296891 0.10429879 -4.50567198
0.53535789 2.35718274 0.15188624
0.25583622 1.90730786 -2.82117867
-0.44762528 1.45171225 3.46511197
1.65121317 0.12022346 0.63996804
1.18486476 1.51987147 -1.58852065
1.44333971 0.99444968 -1.37931228
-0.54337615 2.23557091 -1.33806968
1.13057756 0.51938325 3.18840194
0.79604930 0.85539073 3.65428281
-0.36701176 1.90584064 -2.73083496
-0.59909040 1.78353500 2.70308733
-0.35291466 0.59071457 -4.28245449
0.64261198 1.12109005 3.63900065
-1.10648155 1.07744241 -2.76085615
-0.86771953 1.82551229 1.98060536
0.08509854 0.26397276 4.48533154
1.50016832 0.96366233 -0.93638396
1.31238341 1.11662078 -1.92126620
-1.06010652 1.80724871 -1.19681644
-0.28230661 1.02196014 4.04751921
-1.59453094 0.08852904 -1.32964540
-0.95736724 1.99102461 0.80720454
0.74367934 0.56108367 -3.91350532
-0.11280187 1.91959536 -2.86003971
0.05875031 -1.71147585 -3.27675319
-0.28254905 1.42676377 -3.62219644
-0.33416510 1.64817965 -3.26230955
-0.61011404 0.48117864 4.11259079
0.03531757 0.18088508 -4.50365114
3 166 179 125
3 47 212 193
3 0 212 51
3 195 212 0
3 211 195 0
3 51 212 210
3 131 166 125
3 247 166 151
3 179 166 247
3 151 166 191
3 191 166 224
3 141 155 195
3 79 212 195
3 79 193 212
3 86 0 51
3 251 0 86
3 51 210 86
3 86 210 166
3 224 166 133
3 166 210 133
3 133 212 224
3 133 210 212
3 125 163 23
3 23 131 125
3 23 163 251
3 251 86 23
3 114 191 224
3 84 191 114
3 154 73 171
3 99 73 154
3 64 191 84
3 42 6 222
3 222 6 139
3 195 155 9
3 47 193 95
3 251 163 146
3 77 217 54
3 131 23 184
3 184 23 86
3 166 131 184
3 184 86 166
3 179 247 74
3 33 247 151
3 151 190 33
3 84 114 27
3 218 64 84
3 155 141 62
3 141 109 62
3 213 109 141
3 211 147 213
3 213 147 109
3 237 207 171
3 164 1 194
3 150 190 151
3 99 54 150
3 150 217 190
3 150 54 217
3 139 143 231
3 231 222 139
3 143 118 244
3 244 231 143
3 222 231 244
3 107 81 6
3 179 74 38
3 209 79 195
3 195 9 209
3 7 98 12
3 165 239 89
3 18 239 48
3 39 0 251
3 251 146 39
3 249 146 219
3 108 163 183
3 125 4 15
3 252 106 17
3 52 156 17
3 156 96 17
3 42 186 140
3 60 107 6
3 82 96 189
3 189 96 156
3 149 54 99
3 37 54 149
3 254 27 65
3 65 27 114
3 87 27 254
3 246 229 121
3 121 27 246
3 27 87 246
3 171 73 223
3 223 121 171
3 223 27 121
3 84 27 223
3 223 218 84
3 168 73 99
3 99 150 168
3 8 212 47
3 224 212 8
3 8 114 224
3 230 141 195
3 230 213 141
3 230 195 211
3 211 213 230
3 11 237 171
3 229 237 11
3 171 121 11
3 121 229 11
3 18 48 35
3 21 192 207
3 207 237 21
3 21 237 229
3 59 85 80
3 80 35 59
3 99 154 58
3 19 48 221
3 19 35 48
3 19 1 59
3 59 35 19
3 155 62 31
3 31 62 109
3 139 6 115
3 6 81 115
3 57 1 227
3 1 164 227
3 123 143 139
3 123 118 143
3 222 244 196
3 42 222 196
3 196 186 42
3 211 205 32
3 32 147 211
3 10 96 82
3 111 106 252
3 36 106 111
3 111 185 36
3 137 185 111
3 29 111 252
3 206 38 74
3 190 217 206
3 206 33 190
3 206 74 247
3 247 33 206
3 120 156 52
3 7 12 119
3 47 95 119
3 119 95 7
3 12 242 119
3 7 95 97
3 79 209 97
3 67 12 98
3 98 242 67
3 67 242 12
3 113 45 44
3 44 196 113
3 186 196 44
3 249 219 161
3 0 39 94
3 167 45 113
3 249 45 167
3 100 146 163
3 100 219 146
3 100 163 108
3 226 255 216
3 216 183 226
3 108 183 216
3 134 255 226
3 162 60 6
3 162 41 117
3 140 41 162
3 162 6 42
3 42 140 162
3 37 152 159
3 77 54 159
3 159 54 37
3 176 217 77
3 77 159 176
3 176 159 189
3 176 120 38
3 176 206 217
3 38 206 176
3 89 182 157
3 64 218 127
3 73 168 127
3 127 223 73
3 218 223 127
3 88 168 150
3 191 64 88
3 151 191 88
3 88 150 151
3 187 70 53
3 187 53 202
3 202 53 8
3 18 35 129
3 129 182 89
3 35 80 129
3 89 239 129
3 129 239 18
3 112 1 57
3 59 1 112
3 112 85 59
3 85 21 169
3 169 80 85
3 169 21 229
3 182 129 169
3 169 129 80
3 188 149 99
3 99 58 188
3 207 192 241
3 171 207 241
3 241 154 171
3 241 58 154
3 245 152 37
3 81 107 5
3 200 112 57
3 192 112 200
3 83 19 221
3 221 31 83
3 83 31 71
3 204 31 109
3 71 31 204
3 139 115 101
3 101 115 81
3 81 227 101
3 101 227 164
3 139 101 116
3 116 123 139
3 116 22 118
3 118 123 116
3 147 32 232
3 232 244 118
3 49 203 160
3 250 203 49
3 107 60 75
3 75 250 49
3 144 117 137
3 137 111 144
3 111 29 144
3 179 38 122
3 125 179 122
3 122 4 125
3 4 122 148
3 148 120 52
3 38 120 148
3 148 122 38
3 221 48 174
3 174 31 221
3 47 119 199
3 199 119 242
3 7 97 132
3 132 98 7
3 126 95 193
3 126 97 95
3 193 79 126
3 79 97 126
3 72 140 186
3 72 41 140
3 72 185 137
3 137 117 72
3 117 41 72
3 46 44 45
3 46 45 249
3 249 161 46
3 186 44 46
3 46 72 186
3 46 161 185
3 185 72 46
3 55 161 219
3 219 100 55
3 36 185 55
3 185 161 55
3 0 94 43
3 43 205 211
3 211 0 43
3 177 94 39
3 135 32 205
3 205 43 135
3 135 43 94
3 63 39 146
3 63 146 249
3 249 167 63
3 63 177 39
3 167 177 63
3 16 17 208
3 208 225 16
3 52 17 16
3 16 225 52
3 124 225 208
3 238 24 181
3 238 124 208
3 181 24 173
3 36 134 173
3 173 134 181
3 173 106 36
3 173 24 106
3 130 159 152
3 189 159 130
3 82 189 130
3 156 120 240
3 120 176 240
3 240 189 156
3 240 176 189
3 104 180 87
3 104 87 254
3 104 70 187
3 187 180 104
3 104 53 70
3 34 180 187
3 187 202 34
3 34 202 242
3 172 246 87
3 87 180 172
3 180 34 172
3 182 169 105
3 229 246 105
3 105 169 229
3 145 165 89
3 89 157 145
3 64 127 103
3 103 127 168
3 103 88 64
3 168 88 103
3 175 8 47
3 175 202 8
3 192 21 76
3 76 112 192
3 76 21 85
3 85 112 76
3 201 188 248
3 248 188 58
3 58 241 248
3 248 241 192
3 192 200 248
3 149 188 13
3 201 110 13
3 13 188 201
3 37 149 13
3 13 245 37
3 152 245 3
3 82 130 3
3 3 130 152
3 66 227 81
3 81 5 66
3 57 227 66
3 68 110 201
3 68 200 110
3 201 248 68
3 68 248 200
3 61 66 5
3 61 200 57
3 57 66 61
3 19 83 90
3 194 1 90
3 1 19 90
3 71 204 158
3 158 204 109
3 109 147 158
3 147 22 158
3 147 232 243
3 243 232 118
3 243 22 147
3 118 22 243
3 96 10 236
3 236 203 96
3 236 160 203
3 203 250 136
3 136 29 252
3 136 250 29
3 228 75 60
3 228 144 29
3 29 250 228
3 250 75 228
3 117 144 228
3 228 162 117
3 60 162 228
3 30 15 4
3 4 148 30
3 30 148 52
3 52 225 30
3 30 225 15
3 31 174 78
3 239 165 235
3 165 132 235
3 235 48 239
3 36 55 69
3 69 134 36
3 255 134 69
3 197 55 100
3 197 69 55
3 26 167 113
3 26 177 167
3 94 177 26
3 113 135 26
3 26 135 94
3 50 196 244
3 32 135 50
3 113 196 50
3 50 135 113
3 244 232 50
3 50 232 32
3 15 225 178
3 225 124 178
3 178 56 15
3 124 56 178
3 138 238 208
3 24 238 138
3 106 24 138
3 208 17 138
3 138 17 106
3 53 104 102
3 102 65 114
3 254 65 102
3 102 104 254
3 114 8 102
3 8 53 102
3 153 242 98
3 153 34 242
3 157 34 153
3 153 145 157
3 98 132 153
3 153 132 165
3 165 145 153
3 40 34 157
3 40 172 34
3 40 157 182
3 182 105 40
3 246 172 40
3 40 105 246
3 20 199 242
3 242 202 20
3 202 175 20
3 47 199 20
3 20 175 47
3 49 160 14
3 215 90 83
3 215 83 71
3 71 158 215
3 194 90 215
3 215 158 22
3 22 116 215
3 215 164 194
3 215 101 164
3 215 116 101
3 2 236 10
3 160 236 2
3 10 14 2
3 2 14 160
3 253 136 252
3 203 136 253
3 96 203 253
3 252 17 253
3 253 17 96
3 31 78 234
3 234 78 91
3 155 31 234
3 234 9 155
3 234 209 9
3 234 91 209
3 25 132 97
3 25 235 132
3 25 97 209
3 128 100 108
3 128 197 100
3 108 216 128
3 128 216 255
3 255 69 128
3 69 197 128
3 124 238 28
3 28 56 124
3 226 183 92
3 92 183 163
3 92 163 125
3 125 15 92
3 15 56 92
3 49 14 142
3 142 14 61
3 142 61 5
3 142 75 49
3 142 5 107
3 107 75 142
3 110 200 93
3 200 61 93
3 93 13 110
3 245 13 93
3 93 3 245
3 82 3 93
3 235 25 220
3 220 78 174
3 220 174 48
3 48 235 220
3 198 134 226
3 226 92 198
3 181 134 198
3 198 92 56
3 233 14 10
3 233 10 82
3 82 93 233
3 61 14 233
3 233 93 61
3 170 220 25
3 209 91 170
3 170 25 209
3 91 78 170
3 78 220 170
3 181 198 214
3 214 238 181
3 214 28 238
3 56 28 214
3 214 198 56