ply
format ascii 1.0
comment https://github.com/mikedh/trimesh
element vertex 256
property float x
property float y
property float z
element face 508
property list uchar int vertex_indices
end_header
2.43837810 -1.85706067 -0.19525161
1.28791022 2.39911127 0.49097940
-0.81330436 2.34962583 -0.71508998
-1.94718778 2.07302451 -0.48001075
-2.07499361 0.10530114 -1.16948056
0.40570840 2.67262435 -0.37747991
1.20914376 2.30353189 -0.64087665
0.93653518 0.19619161 1.43484867
-0.30906948 0.01314666 1.49291420
2.37793493 0.27211460 1.03698158
-0.89869905 2.35267210 -0.69227445
-1.19788241 1.67693651 1.06756902
0.43564594 0.25702095 1.47990787
-2.13236308 2.11457562 -0.16014618
-0.69152510 2.54763842 -0.51733434
-1.74795759 0.35527161 -1.26048100
-1.52718675 1.04103470 -1.20770788
-1.01980305 1.48778176 -1.18064809
1.32981908 1.47391486 1.12130153
1.84701765 1.94182503 0.67862892
0.00795927 0.09856270 1.49831486
-0.45451778 2.33961153 0.78649420
2.76278400 1.54688656 0.02175656
-0.35546800 -1.83814204 -1.11466205
-0.44104651 0.84494209 -1.41468310
1.74207079 0.49574974 1.24847078
2.25543308 0.31872004 -1.08749914
-1.42132485 0.65837288 1.30799556
-0.82910752 0.36884189 -1.43820167
0.24702843 1.99893868 -1.03762317
-1.81477094 0.37440887 -1.23997092
2.49282026 1.12914860 0.78308129
3.06802058 0.53243840 -0.49944463
-3.19698000 0.16421622 -0.39961261
-0.35133064 0.67630053 1.44564044
1.00536168 1.87200105 1.01266313
0.17856507 0.62034619 -1.45930433
-2.41636562 1.85201943 -0.25404012
-2.62499666 0.54119742 -0.87212229
1.97522509 0.09217961 -1.20471191
-0.10847396 1.15350044 1.36353576
1.31543195 1.76452470 -0.99648458
1.77240491 1.70787919 -0.87355900
3.03350854 0.20751169 -0.60143393
2.01302600 0.97189081 -1.07162070
1.96849883 0.73639399 -1.14096844
1.86808002 1.03555560 -1.10756516
0.04178161 0.03549978 1.49897230
1.60722220 1.38546038 1.07938671
-0.18049359 2.43640757 -0.72109848
2.62966371 1.02428293 -0.73192030
-0.38331592 -2.76148534 0.08009885
-1.70891321 1.04610991 -1.15594137
-0.62020189 0.19766888 1.46939576
-2.78696465 1.51283884 -0.05592201
0.76737815 0.37346104 -1.44471359
-0.86134768 0.33350500 -1.43692064
0.40596420 2.73027444 0.22785214
-2.20646572 1.94373322 0.40256312
0.68404567 2.25293970 0.82497185
0.88974488 2.30627728 -0.73752648
-0.22723828 2.73164654 -0.27152249
3.00622201 0.64329243 0.53744048
1.91621077 0.29354596 -1.21445310
-2.82527542 0.29133898 0.77362329
-1.26349449 0.25473925 1.38013208
0.47829846 2.75004911 -0.08865380
0.33934399 0.43062323 1.47330976
-1.66537476 2.40383840 0.08149222
0.22368830 0.56313646 -1.46477485
-0.60851866 0.38148528 1.45945191
2.55493116 1.46737802 0.54345852
1.40873456 1.46847188 -1.10419524
-2.49736476 1.20329678 0.74805689
-2.98825312 0.07086673 -0.65464389
0.26707098 2.43013763 -0.72149855
-0.23979418 2.47290421 0.68046117
-2.84637976 1.25044847 -0.38020957
2.01074028 0.89065111 1.09326398
1.64277911 0.04815018 1.30286336
0.28845885 2.07203507 0.99321723
1.39624679 2.47494602 -0.27350551
-1.88462126 2.01722407 -0.58683425
2.23242521 1.73181033 0.60327011
-2.25438356 0.33663139 1.08656120
0.22618191 2.20450306 0.91004723
-0.35557058 -2.52548313 -0.61090434
-0.77076125 0.77544612 1.39721227
-3.15337420 0.27234969 0.44859281
0.66498965 1.18819261 1.32241154
1.89411831 2.10611200 0.48119423
2.08841491 0.63511366 1.11494458
-0.60530412 0.06195499 -1.47379410
-1.35920882 2.45906425 -0.34340742
2.66252756 0.13871787 -0.89376575
1.07721388 0.11339179 1.41692626
-0.88198858 2.04335761 -0.93771070
1.55594468 0.30139107 1.31503737
0.36860448 0.51114148 1.46432209
-2.66829515 1.63829970 0.13954476
0.73819143 0.14156155 -1.45973313
1.71618307 2.38364697 -0.03283209
-0.71938372 0.21271898 1.45915902
-2.83505344 0.75351441 0.66837406
-0.63885504 0.38549981 1.45665562
-0.42040715 1.26077819 1.32327592
-0.24164189 1.22678483 -1.34146786
0.57811570 2.57679796 -0.50457597
0.10413767 0.01702875 -1.49844790
3.00232339 0.77272040 0.49039108
-1.67591763 2.40048003 -0.06438714
0.49231052 1.55483484 -1.22352040
0.09590925 2.59016681 0.54904985
2.24124074 0.62775123 -1.05408549
-1.53737259 -0.01761876 1.32904685
1.51324725 2.43048787 -0.26437378
2.60736656 1.71886671 -0.07828995
1.03857183 1.86773050 -1.00834489
2.77077627 1.41374528 -0.32609296
0.23948570 0.13480423 1.49362516
-2.31917024 0.79615355 -0.98448867
-1.70786214 1.22797036 1.10336590
-2.25782037 0.11186916 -1.09876060
2.52651858 1.66411340 -0.38010710
-1.17589390 0.57522494 -1.36750758
-1.87730432 -0.90814900 -1.13639235
1.48261046 0.10512097 1.34050775
-2.52214170 0.87634546 0.85414267
0.27390388 0.27358806 -1.48680007
0.54976636 1.65557516 1.17946172
-2.12182450 1.86443388 -0.56850994
-1.12276304 -2.07838869 -0.85915804
0.91084880 0.70248103 1.39130569
-1.80814981 -2.22803140 0.37727392
-0.35001457 0.33263725 -1.48019004
2.71064639 0.26792958 -0.85482323
-0.31546795 2.09700513 -0.97571635
0.73645741 1.56430554 -1.19534731
-0.65346599 0.82729524 -1.40080106
2.08604217 2.09376955 -0.29985559
1.67181730 1.70433080 -0.91449803
3.20211005 0.11771713 0.39634407
-0.19514215 2.63352990 -0.47992042
2.40490985 1.68473601 -0.49758500
0.73897660 1.82555282 -1.08169329
0.38277280 1.01711535 1.38506961
1.53929555 0.16247989 -1.32578743
3.06825113 0.95465398 -0.26082835
-2.06226754 0.46344566 -1.14923382
-2.43080688 1.89434671 -0.06035305
-3.22618461 0.59977442 0.15725972
-3.31237173 0.17672801 -0.06895480
-2.19223976 1.91021919 -0.45944992
0.34664851 0.67820984 1.44558311
-2.31310606 1.72734571 0.54206681
2.71327043 0.38306060 0.84021109
-2.08867335 1.21789420 -0.96393633
0.20687215 1.09992206 1.37412071
2.77013040 1.38106632 0.36376294
-2.58675528 1.52732456 -0.45758745
-0.68415433 2.31820750 -0.77040964
1.33856916 0.71407878 -1.31759560
1.07097816 2.22507977 -0.76114810
-0.16020997 -0.91942835 -1.41339421
1.70362651 2.39019251 -0.01234545
0.79221100 0.99328744 1.35443878
-2.07795191 -2.17185235 0.01333065
1.93448877 0.44270849 -1.19582915
-2.82360697 0.78766632 0.66745824
-0.09418441 1.74978578 1.16521537
1.90568578 0.52292794 1.19584870
-1.48673534 1.85220826 0.89584476
-0.45836198 0.82155323 1.41742384
-0.09901347 0.71885526 -1.44775188
1.99240088 0.95173144 1.08475840
-0.16008531 0.08090689 1.49705708
-2.42280984 0.97929800 -0.88034904
2.19382739 0.20449677 -1.12050939
-1.22604001 0.56422454 -1.35991406
-2.89919567 -0.05986357 -0.73229051
-0.42130229 0.67302394 1.44221973
-0.44811985 0.48375386 -1.46246743
0.24786842 1.57976162 1.22954643
-0.09600965 0.01742786 -1.49853635
-1.02439487 -2.14796185 -0.83404672
1.02792621 1.34072042 -1.22943687
1.81309783 1.28474379 -1.04917896
-0.55148250 0.38319269 1.46393740
-2.39087057 1.93379426 0.00030349
-2.24776363 1.40893197 -0.80213636
-3.28367043 0.39672634 -0.07943780
-2.99330068 -0.28492793 0.63264710
-1.01047635 2.43043256 0.57115328
1.41847420 0.00554931 1.35595834
1.85107148 2.17289066 0.42527947
2.90992498 -1.24273551 0.27522182
2.38942266 1.26924634 -0.78591073
0.33495286 0.38662225 -1.47694337
-0.55138177 0.26500103 -1.47173822
0.10618703 0.08668593 1.49797332
-1.08932984 2.60494614 0.19558282
-1.79818499 2.33606482 0.07883277
-0.21366373 0.10435797 1.49501693
-0.52872342 2.12398624 -0.93991554
2.64457726 1.34125507 0.55121928
3.04206872 0.26943684 -0.58539671
-3.08160710 0.52970690 -0.48314497
-1.16854787 2.10171294 0.82971984
-0.78358835 0.75188369 -1.39952195
2.00120473 0.20525497 1.19198275
-1.35589719 -2.50516582 0.22972426
3.31277442 0.19706348 -0.04775269
0.08459993 -2.53682971 0.61727333
3.28446341 0.15257925 0.21209149
-0.64812559 0.35224146 -1.45817447
2.15739155 2.03856611 0.30866018
0.05102496 0.10733145 -1.49809027
-3.04946375 0.81859833 -0.40117088
-2.34758782 0.75355232 0.98058325
0.89610666 0.27211964 -1.43640184
1.66077971 0.90812391 1.20304012
2.11342096 1.31426418 0.91524112
2.25654149 1.64277065 -0.65407479
-2.00204468 1.13066864 1.02989495
-1.95488000 -1.96323109 0.59315670
-1.35485947 0.64190012 -1.32469857
-0.18500464 0.11662052 -1.49555004
1.06534207 2.63565731 0.05041501
0.50910443 2.13263488 -0.93642277
-0.89075744 1.62321568 1.15016115
3.28585196 0.13442650 0.21242207
2.35783625 1.69942713 -0.52727145
2.87219143 1.11193275 -0.45782971
-1.08129799 2.49967837 -0.44414026
2.24980664 0.58074248 1.05831373
1.58410811 0.95644552 1.21295178
-0.73033959 2.13099432 -0.90643537
-1.19216740 1.99423945 0.89722520
-0.70228690 0.66050088 -1.42145848
1.27877367 1.25353420 1.20787930
-2.20185661 1.20473015 -0.91640019
-1.72672915 2.04117608 0.65741462
0.16934289 0.29515815 1.48879862
2.98527837 1.07750821 -0.31081027
2.61159348 1.24853694 -0.63771838
-2.10957193 2.02075481 -0.39725459
-0.56177956 1.14269316 1.34347725
-3.17305660 0.09898775 -0.44134402
-1.90512478 2.22624159 0.26793224
1.47989380 0.62736934 -1.29899454
-0.22447146 2.14637399 -0.94932181
0.11691090 -1.91366744 -1.08763993
-0.56226200 1.59531987 -1.20230150
-0.66497594 1.84289348 -1.08284569
-1.21410394 0.53802449 1.36507618
0.07028064 0.20225461 -1.49487936
3 166 179 125
3 47 212 193
3 0 212 51
3 195 212 0
3 211 195 0
3 51 212 210
3 131 166 125
3 247 166 151
3 179 166 247
3 151 166 191
3 191 166 224
3 141 155 195
3 79 212 195
3 79 193 212
3 86 0 51
3 251 0 86
3 51 210 86
3 86 210 166
3 224 166 133
3 166 210 133
3 133 212 224
3 133 210 212
3 125 163 23
3 23 131 125
3 23 163 251
3 251 86 23
3 114 191 224
3 84 191 114
3 154 73 171
3 99 73 154
3 64 191 84
3 42 6 222
3 222 6 139
3 195 155 9
3 47 193 95
3 251 163 146
3 77 217 54
3 131 23 184
3 184 23 86
3 166 131 184
3 184 86 166
3 179 247 74
3 33 247 151
3 151 190 33
3 84 114 27
3 218 64 84
3 155 141 62
3 141 109 62
3 213 109 141
3 211 147 213
3 213 147 109
3 237 207 171
3 164 1 194
3 150 190 151
3 99 54 150
3 150 217 190
3 150 54 217
3 139 143 231
3 231 222 139
3 143 118 244
3 244 231 143
3 222 231 244
3 107 81 6
3 179 74 38
3 209 79 195
3 195 9 209
3 7 98 12
3 165 239 89
3 18 239 48
3 39 0 251
3 251 146 39
3 249 146 219
3 108 163 183
3 125 4 15
3 252 106 17
3 52 156 17
3 156 96 17
3 42 186 140
3 60 107 6
3 82 96 189
3 189 96 156
3 149 54 99
3 37 54 149
3 254 27 65
3 65 27 114
3 87 27 254
3 246 229 121
3 121 27 246
3 27 87 246
3 171 73 223
3 223 121 171
3 223 27 121
3 84 27 223
3 223 218 84
3 168 73 99
3 99 150 168
3 8 212 47
3 224 212 8
3 8 114 224
3 230 141 195
3 230 213 141
3 230 195 211
3 211 213 230
3 11 237 171
3 229 237 11
3 171 121 11
3 121 229 11
3 18 48 35
3 21 192 207
3 207 237 21
3 21 237 229
3 59 85 80
3 80 35 59
3 99 154 58
3 19 48 221
3 19 35 48
3 19 1 59
3 59 35 19
3 155 62 31
3 31 62 109
3 139 6 115
3 6 81 115
3 57 1 227
3 1 164 227
3 123 143 139
3 123 118 143
3 222 244 196
3 42 222 196
3 196 186 42
3 211 205 32
3 32 147 211
3 10 96 82
3 111 106 252
3 36 106 111
3 111 185 36
3 137 185 111
3 29 111 252
3 206 38 74
3 190 217 206
3 206 33 190
3 206 74 247
3 247 33 206
3 120 156 52
3 7 12 119
3 47 95 119
3 119 95 7
3 12 242 119
3 7 95 97
3 79 209 97
3 67 12 98
3 98 242 67
3 67 242 12
3 113 45 44
3 44 196 113
3 186 196 44
3 249 219 161
3 0 39 94
3 167 45 113
3 249 45 167
3 100 146 163
3 100 219 146
3 100 163 108
3 226 255 216
3 216 183 226
3 108 183 216
3 134 255 226
3 162 60 6
3 162 41 117
3 140 41 162
3 162 6 42
3 42 140 162
3 37 152 159
3 77 54 159
3 159 54 37
3 176 217 77
3 77 159 176
3 176 159 189
3 176 120 38
3 176 206 217
3 38 206 176
3 89 182 157
3 64 218 127
3 73 168 127
3 127 223 73
3 218 223 127
3 88 168 150
3 191 64 88
3 151 191 88
3 88 150 151
3 187 70 53
3 187 53 202
3 202 53 8
3 18 35 129
3 129 182 89
3 35 80 129
3 89 239 129
3 129 239 18
3 112 1 57
3 59 1 112
3 112 85 59
3 85 21 169
3 169 80 85
3 169 21 229
3 182 129 169
3 169 129 80
3 188 149 99
3 99 58 188
3 207 192 241
3 171 207 241
3 241 154 171
3 241 58 154
3 245 152 37
3 81 107 5
3 200 112 57
3 192 112 200
3 83 19 221
3 221 31 83
3 83 31 71
3 204 31 109
3 71 31 204
3 139 115 101
3 101 115 81
3 81 227 101
3 101 227 164
3 139 101 116
3 116 123 139
3 116 22 118
3 118 123 116
3 147 32 232
3 232 244 118
3 49 203 160
3 250 203 49
3 107 60 75
3 75 250 49
3 144 117 137
3 137 111 144
3 111 29 144
3 179 38 122
3 125 179 122
3 122 4 125
3 4 122 148
3 148 120 52
3 38 120 148
3 148 122 38
3 221 48 174
3 174 31 221
3 47 119 199
3 199 119 242
3 7 97 132
3 132 98 7
3 126 95 193
3 126 97 95
3 193 79 126
3 79 97 126
3 72 140 186
3 72 41 140
3 72 185 137
3 137 117 72
3 117 41 72
3 46 44 45
3 46 45 249
3 249 161 46
3 186 44 46
3 46 72 186
3 46 161 185
3 185 72 46
3 55 161 219
3 219 100 55
3 36 185 55
3 185 161 55
3 0 94 43
3 43 205 211
3 211 0 43
3 177 94 39
3 135 32 205
3 205 43 135
3 135 43 94
3 63 39 146
3 63 146 249
3 249 167 63
3 63 177 39
3 167 177 63
3 16 17 208
3 208 225 16
3 52 17 16
3 16 225 52
3 124 225 208
3 238 24 181
3 238 124 208
3 181 24 173
3 36 134 173
3 173 134 181
3 173 106 36
3 173 24 106
3 130 159 152
3 189 159 130
3 82 189 130
3 156 120 240
3 120 176 240
3 240 189 156
3 240 176 189
3 104 180 87
3 104 87 254
3 104 70 187
3 187 180 104
3 104 53 70
3 34 180 187
3 187 202 34
3 34 202 242
3 172 246 87
3 87 180 172
3 180 34 172
3 182 169 105
3 229 246 105
3 105 169 229
3 145 165 89
3 89 157 145
3 64 127 103
3 103 127 168
3 103 88 64
3 168 88 103
3 175 8 47
3 175 202 8
3 192 21 76
3 76 112 192
3 76 21 85
3 85 112 76
3 201 188 248
3 248 188 58
3 58 241 248
3 248 241 192
3 192 200 248
3 149 188 13
3 201 110 13
3 13 188 201
3 37 149 13
3 13 245 37
3 152 245 3
3 82 130 3
3 3 130 152
3 66 227 81
3 81 5 66
3 57 227 66
3 68 110 201
3 68 200 110
3 201 248 68
3 68 248 200
3 61 66 5
3 61 200 57
3 57 66 61
3 19 83 90
3 194 1 90
3 1 19 90
3 71 204 158
3 158 204 109
3 109 147 158
3 147 22 158
3 147 232 243
3 243 232 118
3 243 22 147
3 118 22 243
3 96 10 236
3 236 203 96
3 236 160 203
3 203 250 136
3 136 29 252
3 136 250 29
3 228 75 60
3 228 144 29
3 29 250 228
3 250 75 228
3 117 144 228
3 228 162 117
3 60 162 228
3 30 15 4
3 4 148 30
3 30 148 52
3 52 225 30
3 30 225 15
3 31 174 78
3 239 165 235
3 165 132 235
3 235 48 239
3 36 55 69
3 69 134 36
3 255 134 69
3 197 55 100
3 197 69 55
3 26 167 113
3 26 177 167
3 94 177 26
3 113 135 26
3 26 135 94
3 50 196 244
3 32 135 50
3 113 196 50
3 50 135 113
3 244 232 50
3 50 232 32
3 15 225 178
3 225 124 178
3 178 56 15
3 124 56 178
3 138 238 208
3 24 238 138
3 106 24 138
3 208 17 138
3 138 17 106
3 53 104 102
3 102 65 114
3 254 65 102
3 102 104 254
3 114 8 102
3 8 53 102
3 153 242 98
3 153 34 242
3 157 34 153
3 153 145 157
3 98 132 153
3 153 132 165
3 165 145 153
3 40 34 157
3 40 172 34
3 40 157 182
3 182 105 40
3 246 172 40
3 40 105 246
3 20 199 242
3 242 202 20
3 202 175 20
3 47 199 20
3 20 175 47
3 49 160 14
3 215 90 83
3 215 83 71
3 71 158 215
3 194 90 215
3 215 158 22
3 22 116 215
3 215 164 194
3 215 101 164
3 215 116 101
3 2 236 10
3 160 236 2
3 10 14 2
3 2 14 160
3 253 136 252
3 203 136 253
3 96 203 253
3 252 17 253
3 253 17 96
3 31 78 234
3 234 78 91
3 155 31 234
3 234 9 155
3 234 209 9
3 234 91 209
3 25 132 97
3 25 235 132
3 25 97 209
3 128 100 108
3 128 197 100
3 108 216 128
3 128 216 255
3 255 69 128
3 69 197 128
3 124 238 28
3 28 56 124
3 226 183 92
3 92 183 163
3 92 163 125
3 125 15 92
3 15 56 92
3 49 14 142
3 142 14 61
3 142 61 5
3 142 75 49
3 142 5 107
3 107 75 142
3 110 200 93
3 200 61 93
3 93 13 110
3 245 13 93
3 93 3 245
3 82 3 93
3 235 25 220
3 220 78 174
3 220 174 48
3 48 235 220
3 198 134 226
3 226 92 198
3 181 134 198
3 198 92 56
3 233 14 10
3 233 10 82
3 82 93 233
3 61 14 233
3 233 93 61
3 170 220 25
3 209 91 170
3 170 25 209
3 91 78 170
3 78 220 170
3 181 198 214
3 214 238 181
3 214 28 238
3 56 28 214
3 214 198 56