ply
format ascii 1.0
comment https://github.com/mikedh/trimesh
element vertex 256
property float x
property float y
property float z
element face 508
property list uchar int vertex_indices
end_header
2.49599361 -3.26471329 -0.40320557
1.31834161 4.21763849 1.01390016
-0.83252156 4.13064289 -1.47670114
-1.99319708 3.64437795 -0.99124926
-2.12402272 0.18511945 -2.41504335
0.41529471 4.69847441 -0.77951729
1.23771405 4.04960966 -1.32344639
0.95866418 0.34490490 2.96304345
-0.31637233 0.02311183 3.08295178
2.43412209 0.47837758 2.14142537
-0.91993397 4.13599825 -1.42958570
-1.22618663 2.94805479 2.20459032
0.44593963 0.45184293 3.05609322
-2.18274784 3.71742487 -0.33071089
-0.70786488 4.47874928 -1.06832457
-1.78925931 0.62456763 -2.60296440
-1.56327200 1.83013940 -2.49398470
-1.04389954 2.61552072 -2.43810487
1.36124074 2.59114289 2.31555080
1.89066005 3.41372895 1.40140688
0.00814733 0.17327325 3.09410453
-0.46525738 4.11303806 1.62415481
2.82806444 2.71942711 0.04492853
-0.36386719 -3.23145413 -2.30183983
-0.45146781 1.48540843 -2.92140031
1.78323340 0.87152821 2.57816243
2.30872583 0.56030995 -2.24574709
-1.45490873 1.15741968 2.70108461
-0.84869814 0.64842415 -2.96996760
0.25286534 3.51413488 -2.14275026
-1.85765135 0.65821093 -2.56060982
2.55172205 1.98504376 1.61710703
3.14051342 0.93602693 -1.03138137
-3.27252007 0.28869218 -0.82522255
-0.35963207 1.18893659 2.98532891
1.02911687 3.29097843 2.09120655
0.18278430 1.09056890 -3.01354575
-2.47346091 3.25585079 -0.52460718
-2.68702149 0.95142525 -1.80098164
2.02189684 0.16205178 -2.48779821
-0.11103705 2.02785420 2.81577802
1.34651375 3.10203505 -2.05779696
1.81428432 3.00245214 -1.80394852
3.10518599 0.36480564 -1.24199498
2.06059074 1.70858443 -2.21295738
2.01501155 1.29458082 -2.35616422
1.91222000 1.82050717 -2.28718448
0.04276885 0.06240862 3.09546208
1.64519858 2.43563986 2.22899437
-0.18475839 4.28320551 -1.48910904
2.69179893 1.80068970 -1.51145661
-0.39237314 -4.85469198 0.16540863
-1.74929237 1.83906162 -2.38708401
-0.63485634 0.34750196 3.03438520
-2.85281658 2.65957117 -0.11548209
0.78551024 0.65654463 -2.98341513
-0.88170004 0.58630192 -2.96732211
0.41555655 4.79982328 0.47052750
-2.25860143 3.41708350 0.83131552
0.70020866 3.96066904 1.70361340
0.91076821 4.05443621 -1.52303374
-0.23260760 4.80223560 -0.56070924
3.07725477 1.13090837 1.10984480
1.96148801 0.51605392 -2.50791407
-2.89203262 0.51217401 1.59757566
-1.29334903 0.44783166 2.85005045
0.48959994 4.83458710 -0.18307509
0.34736222 0.75703579 3.04246783
-1.70472515 4.22594881 0.16828604
0.22897373 0.98999411 -3.02484274
-0.62289703 0.67065126 3.01385045
2.61530066 2.57965112 1.12227249
1.44202101 2.58157420 -2.28022528
-2.55637383 2.11539626 1.54477966
-3.05886126 0.12458374 -1.35187650
0.27338147 4.27218246 -1.48993516
-0.24546017 4.34736681 1.40519071
-2.91363549 2.19828868 -0.78515416
2.05825114 1.56576502 2.25765181
1.68159556 0.08464804 2.69048619
0.29527473 3.64263844 2.05104971
1.42923808 4.35095596 -0.56480426
-1.92915225 3.54628062 -1.21184576
2.28517413 3.04452324 1.24578679
-2.30765152 0.59179813 2.24381018
0.23152627 3.87551737 1.87929881
-0.36397219 -4.43980026 -1.26155186
-0.78897321 1.36323452 2.88532209
-3.22788382 0.47879082 0.92636943
0.68070239 2.08884287 2.73085427
1.93887353 3.70254540 0.99369317
2.13776112 1.11652994 2.30242324
-0.61960661 0.10891689 -3.04346800
-1.39132500 4.32303572 -0.70915568
2.72543931 0.24386609 -1.84567666
1.10266697 0.19934282 2.92603254
-0.90282869 3.59222341 -1.93642545
1.59270942 0.52984560 2.71562648
0.37731409 0.89858693 3.02390766
-2.73134327 2.88013148 0.28816777
0.75563383 0.24886528 -3.01443124
1.75673401 4.19045210 -0.06780010
-0.73638171 0.37396005 3.01324558
-2.90204167 1.32467866 1.38023007
-0.65395027 0.67770880 3.00807595
-0.43034077 2.21644855 2.73263931
-0.24735154 2.15668797 -2.77020669
0.59177572 4.53001165 -1.04197776
0.10659830 0.02993655 -3.09437943
3.07326412 1.35844266 1.01268518
-1.71551704 4.22004509 -0.13296306
0.50394315 2.73340011 -2.52663851
0.09817544 4.55351400 1.13381898
2.29419804 1.10358679 -2.17674589
-1.57369852 -0.03097379 2.74455667
1.54900312 4.27279854 -0.54594678
2.66897488 3.02176833 -0.16167314
1.06311178 3.28347087 -2.08228898
2.83624578 2.48536468 -0.67340028
0.24514440 0.23698589 3.08442020
-2.37396884 1.39963818 -2.03302455
-1.74821651 2.15877223 2.27851272
-2.31116939 0.19666602 -2.26900244
2.58621669 2.92551184 -0.78494263
-1.20367861 1.01124561 -2.82398009
-1.92166221 -1.59652627 -2.34671426
1.51764238 0.18480270 2.76822400
-2.58173633 1.54061568 1.76385272
0.28037584 0.48096791 -3.07032609
0.56275654 2.91050172 2.43565488
-2.17196012 3.27767539 -1.17400503
-1.14929223 -3.65380812 -1.77420986
0.93237084 1.23496187 2.87312460
-1.85087383 -3.91688013 0.77909189
-0.35828492 0.58477640 -3.05667591
2.77469516 0.47102031 -1.76525819
-0.32292199 3.68653560 -2.01490927
0.75385886 2.75004983 -2.46845961
-0.66890645 1.45438528 -2.89273310
2.13533235 3.68084764 -0.61921865
1.71131992 2.99621415 -1.88848996
3.27777123 0.20694675 0.81847286
-0.19975308 4.62974644 -0.99106270
2.46173453 2.96176648 -1.02754104
0.75643754 3.20932245 -2.23375773
0.39181718 1.78808904 2.86024666
1.57566690 0.28563970 -2.73782587
3.14074945 1.67828202 -0.53862524
-2.11099601 0.81473768 -2.37323260
-2.48824334 3.33026218 -0.12463246
-3.30241466 1.05440354 0.32475019
-3.39063835 0.31068790 -0.14239556
-2.24403930 3.35816598 -0.94879001
0.35483932 1.19229317 2.98521066
-2.36776137 3.03667450 1.11939859
2.77738118 0.67342067 1.73508322
-2.13802576 2.14105844 -1.99058294
0.21176024 1.93366325 2.83763671
2.83558464 2.42791510 0.75119096
-2.64787650 2.68503690 -0.94494390
-0.70031989 4.07540941 -1.59093940
1.37019753 1.25535071 -2.72090936
1.09628391 3.91169095 -1.57181370
-0.16399549 -1.61635542 -2.91873884
1.74388075 4.20195913 -0.02549405
0.81092983 1.74619961 2.79699254
-2.12705088 -3.81811690 0.02752854
1.98019803 0.77828169 -2.46945477
-2.89032483 1.38471770 1.37833893
-0.09640985 3.07612419 2.40623546
1.95071435 0.91930747 2.46949482
-1.52186477 3.25618267 1.84996998
-0.46919242 1.44429088 2.92706013
-0.10135301 1.26374781 -2.98968935
2.03947854 1.67314422 2.24008727
-0.16386789 0.14223434 3.09150720
-2.48005748 1.72160614 -1.81797040
2.24566436 0.35950539 -2.31391525
-1.25500953 0.99190694 -2.80829930
-2.96769953 -0.10524017 -1.51222122
-0.43125707 1.18317628 2.97826505
-0.45870829 0.85043943 -3.02007771
0.25372520 2.77722144 2.53908277
-0.09827822 0.03063818 -3.09456205
-1.04859984 -3.77611780 -1.72235346
1.05221462 2.35698700 -2.53885651
1.85593867 2.25857997 -2.16661382
-0.56451327 0.67365289 3.02311325
-2.44736362 3.39961100 0.00062673
-2.30087495 2.47690296 -1.65645683
-3.36125875 0.69744509 -0.16404355
-3.06402802 -0.50090337 1.30645192
-1.03435242 4.27270126 1.17946374
1.45199072 0.00975568 2.80013037
1.89480960 3.81994247 0.87822610
2.97868252 -2.18472958 0.56834859
2.44588113 2.23133564 -1.62294996
0.34286731 0.67968208 -3.04997110
-0.56441015 0.46587190 -3.03922248
0.10869608 0.15239388 3.09339929
-1.11506915 4.57949591 0.40388954
-1.84067357 4.10680246 0.16279410
-0.21871229 0.18346134 3.08729434
-0.54121643 3.73396873 -1.94097853
2.70706487 2.35792685 1.13829887
3.11394835 0.47367007 -1.20887709
-3.15442109 0.93122488 -0.99772161
-1.19615901 3.69481182 1.71341825
-0.80210340 1.32181180 -2.89009166
2.04849029 0.36083829 2.46151137
-1.38793504 -4.40408230 0.47439355
3.39105034 0.34643766 -0.09861200
0.08659891 -4.45974779 1.27470422
3.36207056 0.26823437 0.43798089
-0.66343987 0.61924058 -3.01121235
2.20836759 3.58379984 0.63740069
0.05223061 0.18868873 -3.09364080
-3.12151814 1.43909621 -0.82844049
-2.40305805 1.32474530 2.02495956
0.91728038 0.47838640 -2.96625090
1.70002151 1.59648216 2.48434567
2.16335797 2.31047678 1.89002454
2.30986023 2.88799119 -1.35070133
-2.04935002 1.98771584 2.12679100
-2.00107098 -3.45136094 1.22490203
-1.38687277 1.12846065 -2.73557734
-0.18937603 0.20501892 -3.08839512
1.09051454 4.63348627 0.10410983
0.52113384 3.74917269 -1.93376589
-0.91180474 2.85361385 2.37514758
3.36349201 0.23632184 0.43866357
2.41354847 2.98759341 -1.08884525
2.94005728 1.95477808 -0.94544417
-1.10684752 4.39443541 -0.91717464
2.30296636 1.02094555 2.18547750
1.62153828 1.68143153 2.50481367
-0.74759644 3.74628854 -1.87184024
-1.22033656 3.50587368 1.85282052
-0.71888089 1.16116071 -2.93539190
1.30898917 2.20371366 2.49433875
-2.25388336 2.11791587 -1.89241803
-1.76752925 3.58838820 1.35759819
0.17334422 0.51888812 3.07445312
3.05581617 1.89425969 -0.64184070
2.67330170 2.19492841 -1.31692433
-2.15941811 3.55248737 -0.82035315
-0.57505357 2.00885487 2.77435613
-3.24803138 0.17402050 -0.91140026
-1.95014012 3.91373372 0.55329520
1.51486158 1.10291553 -2.68249702
-0.22977541 3.77332616 -1.96040308
0.11967334 -3.36422801 -2.24603772
-0.57554740 2.80457282 -2.48282051
-0.68068838 3.23980737 -2.23613739
-1.24279141 0.94584721 2.81895924
0.07194127 0.35556367 -3.08701015
3 166 179 125
3 47 212 193
3 0 212 51
3 195 212 0
3 211 195 0
3 51 212 210
3 131 166 125
3 247 166 151
3 179 166 247
3 151 166 191
3 191 166 224
3 141 155 195
3 79 212 195
3 79 193 212
3 86 0 51
3 251 0 86
3 51 210 86
3 86 210 166
3 224 166 133
3 166 210 133
3 133 212 224
3 133 210 212
3 125 163 23
3 23 131 125
3 23 163 251
3 251 86 23
3 114 191 224
3 84 191 114
3 154 73 171
3 99 73 154
3 64 191 84
3 42 6 222
3 222 6 139
3 195 155 9
3 47 193 95
3 251 163 146
3 77 217 54
3 131 23 184
3 184 23 86
3 166 131 184
3 184 86 166
3 179 247 74
3 33 247 151
3 151 190 33
3 84 114 27
3 218 64 84
3 155 141 62
3 141 109 62
3 213 109 141
3 211 147 213
3 213 147 109
3 237 207 171
3 164 1 194
3 150 190 151
3 99 54 150
3 150 217 190
3 150 54 217
3 139 143 231
3 231 222 139
3 143 118 244
3 244 231 143
3 222 231 244
3 107 81 6
3 179 74 38
3 209 79 195
3 195 9 209
3 7 98 12
3 165 239 89
3 18 239 48
3 39 0 251
3 251 146 39
3 249 146 219
3 108 163 183
3 125 4 15
3 252 106 17
3 52 156 17
3 156 96 17
3 42 186 140
3 60 107 6
3 82 96 189
3 189 96 156
3 149 54 99
3 37 54 149
3 254 27 65
3 65 27 114
3 87 27 254
3 246 229 121
3 121 27 246
3 27 87 246
3 171 73 223
3 223 121 171
3 223 27 121
3 84 27 223
3 223 218 84
3 168 73 99
3 99 150 168
3 8 212 47
3 224 212 8
3 8 114 224
3 230 141 195
3 230 213 141
3 230 195 211
3 211 213 230
3 11 237 171
3 229 237 11
3 171 121 11
3 121 229 11
3 18 48 35
3 21 192 207
3 207 237 21
3 21 237 229
3 59 85 80
3 80 35 59
3 99 154 58
3 19 48 221
3 19 35 48
3 19 1 59
3 59 35 19
3 155 62 31
3 31 62 109
3 139 6 115
3 6 81 115
3 57 1 227
3 1 164 227
3 123 143 139
3 123 118 143
3 222 244 196
3 42 222 196
3 196 186 42
3 211 205 32
3 32 147 211
3 10 96 82
3 111 106 252
3 36 106 111
3 111 185 36
3 137 185 111
3 29 111 252
3 206 38 74
3 190 217 206
3 206 33 190
3 206 74 247
3 247 33 206
3 120 156 52
3 7 12 119
3 47 95 119
3 119 95 7
3 12 242 119
3 7 95 97
3 79 209 97
3 67 12 98
3 98 242 67
3 67 242 12
3 113 45 44
3 44 196 113
3 186 196 44
3 249 219 161
3 0 39 94
3 167 45 113
3 249 45 167
3 100 146 163
3 100 219 146
3 100 163 108
3 226 255 216
3 216 183 226
3 108 183 216
3 134 255 226
3 162 60 6
3 162 41 117
3 140 41 162
3 162 6 42
3 42 140 162
3 37 152 159
3 77 54 159
3 159 54 37
3 176 217 77
3 77 159 176
3 176 159 189
3 176 120 38
3 176 206 217
3 38 206 176
3 89 182 157
3 64 218 127
3 73 168 127
3 127 223 73
3 218 223 127
3 88 168 150
3 191 64 88
3 151 191 88
3 88 150 151
3 187 70 53
3 187 53 202
3 202 53 8
3 18 35 129
3 129 182 89
3 35 80 129
3 89 239 129
3 129 239 18
3 112 1 57
3 59 1 112
3 112 85 59
3 85 21 169
3 169 80 85
3 169 21 229
3 182 129 169
3 169 129 80
3 188 149 99
3 99 58 188
3 207 192 241
3 171 207 241
3 241 154 171
3 241 58 154
3 245 152 37
3 81 107 5
3 200 112 57
3 192 112 200
3 83 19 221
3 221 31 83
3 83 31 71
3 204 31 109
3 71 31 204
3 139 115 101
3 101 115 81
3 81 227 101
3 101 227 164
3 139 101 116
3 116 123 139
3 116 22 118
3 118 123 116
3 147 32 232
3 232 244 118
3 49 203 160
3 250 203 49
3 107 60 75
3 75 250 49
3 144 117 137
3 137 111 144
3 111 29 144
3 179 38 122
3 125 179 122
3 122 4 125
3 4 122 148
3 148 120 52
3 38 120 148
3 148 122 38
3 221 48 174
3 174 31 221
3 47 119 199
3 199 119 242
3 7 97 132
3 132 98 7
3 126 95 193
3 126 97 95
3 193 79 126
3 79 97 126
3 72 140 186
3 72 41 140
3 72 185 137
3 137 117 72
3 117 41 72
3 46 44 45
3 46 45 249
3 249 161 46
3 186 44 46
3 46 72 186
3 46 161 185
3 185 72 46
3 55 161 219
3 219 100 55
3 36 185 55
3 185 161 55
3 0 94 43
3 43 205 211
3 211 0 43
3 177 94 39
3 135 32 205
3 205 43 135
3 135 43 94
3 63 39 146
3 63 146 249
3 249 167 63
3 63 177 39
3 167 177 63
3 16 17 208
3 208 225 16
3 52 17 16
3 16 225 52
3 124 225 208
3 238 24 181
3 238 124 208
3 181 24 173
3 36 134 173
3 173 134 181
3 173 106 36
3 173 24 106
3 130 159 152
3 189 159 130
3 82 189 130
3 156 120 240
3 120 176 240
3 240 189 156
3 240 176 189
3 104 180 87
3 104 87 254
3 104 70 187
3 187 180 104
3 104 53 70
3 34 180 187
3 187 202 34
3 34 202 242
3 172 246 87
3 87 180 172
3 180 34 172
3 182 169 105
3 229 246 105
3 105 169 229
3 145 165 89
3 89 157 145
3 64 127 103
3 103 127 168
3 103 88 64
3 168 88 103
3 175 8 47
3 175 202 8
3 192 21 76
3 76 112 192
3 76 21 85
3 85 112 76
3 201 188 248
3 248 188 58
3 58 241 248
3 248 241 192
3 192 200 248
3 149 188 13
3 201 110 13
3 13 188 201
3 37 149 13
3 13 245 37
3 152 245 3
3 82 130 3
3 3 130 152
3 66 227 81
3 81 5 66
3 57 227 66
3 68 110 201
3 68 200 110
3 201 248 68
3 68 248 200
3 61 66 5
3 61 200 57
3 57 66 61
3 19 83 90
3 194 1 90
3 1 19 90
3 71 204 158
3 158 204 109
3 109 147 158
3 147 22 158
3 147 232 243
3 243 232 118
3 243 22 147
3 118 22 243
3 96 10 236
3 236 203 96
3 236 160 203
3 203 250 136
3 136 29 252
3 136 250 29
3 228 75 60
3 228 144 29
3 29 250 228
3 250 75 228
3 117 144 228
3 228 162 117
3 60 162 228
3 30 15 4
3 4 148 30
3 30 148 52
3 52 225 30
3 30 225 15
3 31 174 78
3 239 165 235
3 165 132 235
3 235 48 239
3 36 55 69
3 69 134 36
3 255 134 69
3 197 55 100
3 197 69 55
3 26 167 113
3 26 177 167
3 94 177 26
3 113 135 26
3 26 135 94
3 50 196 244
3 32 135 50
3 113 196 50
3 50 135 113
3 244 232 50
3 50 232 32
3 15 225 178
3 225 124 178
3 178 56 15
3 124 56 178
3 138 238 208
3 24 238 138
3 106 24 138
3 208 17 138
3 138 17 106
3 53 104 102
3 102 65 114
3 254 65 102
3 102 104 254
3 114 8 102
3 8 53 102
3 153 242 98
3 153 34 242
3 157 34 153
3 153 145 157
3 98 132 153
3 153 132 165
3 165 145 153
3 40 34 157
3 40 172 34
3 40 157 182
3 182 105 40
3 246 172 40
3 40 105 246
3 20 199 242
3 242 202 20
3 202 175 20
3 47 199 20
3 20 175 47
3 49 160 14
3 215 90 83
3 215 83 71
3 71 158 215
3 194 90 215
3 215 158 22
3 22 116 215
3 215 164 194
3 215 101 164
3 215 116 101
3 2 236 10
3 160 236 2
3 10 14 2
3 2 14 160
3 253 136 252
3 203 136 253
3 96 203 253
3 252 17 253
3 253 17 96
3 31 78 234
3 234 78 91
3 155 31 234
3 234 9 155
3 234 209 9
3 234 91 209
3 25 132 97
3 25 235 132
3 25 97 209
3 128 100 108
3 128 197 100
3 108 216 128
3 128 216 255
3 255 69 128
3 69 197 128
3 124 238 28
3 28 56 124
3 226 183 92
3 92 183 163
3 92 163 125
3 125 15 92
3 15 56 92
3 49 14 142
3 142 14 61
3 142 61 5
3 142 75 49
3 142 5 107
3 107 75 142
3 110 200 93
3 200 61 93
3 93 13 110
3 245 13 93
3 93 3 245
3 82 3 93
3 235 25 220
3 220 78 174
3 220 174 48
3 48 235 220
3 198 134 226
3 226 92 198
3 181 134 198
3 198 92 56
3 233 14 10
3 233 10 82
3 82 93 233
3 61 14 233
3 233 93 61
3 170 220 25
3 209 91 170
3 170 25 209
3 91 78 170
3 78 220 170
3 181 198 214
3 214 238 181
3 214 28 238
3 56 28 214
3 214 198 56