ply
format ascii 1.0
comment https://github.com/mikedh/trimesh
element vertex 256
property float x
property float y
property float z
element face 508
property list uchar int vertex_indices
end_header
1.67121017 -3.29901767 -0.51354742
0.88270497 4.26195574 1.29136562
-0.55742073 4.17404604 -1.88081729
-1.33455920 3.68267155 -1.26251602
-1.42215443 0.18706462 -3.07594776
0.27806351 4.74784422 -0.99284118
0.82872021 4.09216166 -1.68562269
0.64188039 0.34852904 3.77391434
-0.21182935 0.02335468 3.92663717
1.62978375 0.48340419 2.72745109
-0.61594832 4.17945766 -1.82080829
-0.82100195 2.97903180 2.80790162
0.29858205 0.45659071 3.89242840
-1.46147430 3.75648618 -0.42121375
-0.47395593 4.52581024 -1.36068380
-1.19801128 0.63113034 -3.31529546
-1.04669976 1.84936988 -3.17649245
-0.69895035 2.64300370 -3.10532022
0.91142839 2.61836958 2.94922781
1.26590478 3.44959927 1.78491807
0.00545511 0.17509395 3.94084191
-0.31151637 4.15625620 2.06862354
1.89355063 2.74800181 0.05722374
-0.24362986 -3.26540923 -2.93176484
-0.30228347 1.50101662 -3.72087502
1.19397652 0.88068587 3.28370643
1.54582369 0.56619745 -2.86032152
-0.97414440 1.16958141 3.44026732
-0.56825185 0.65523756 -3.78273320
0.16930778 3.55106020 -2.72913861
-1.24380362 0.66512716 -3.26135015
1.70852351 2.00590181 2.05964684
2.10275292 0.94586235 -1.31363070
-2.19113898 0.29172564 -1.05105412
-0.24079420 1.20142949 3.80229855
0.68905252 3.32555890 2.66348910
0.12238453 1.10202813 -3.83823705
-1.65612328 3.29006195 -0.66817194
-1.79911423 0.96142244 -2.29384089
1.35377526 0.16375457 -3.16861272
-0.07434564 2.04916215 3.58634806
0.90156782 3.13463020 -2.62093663
1.21476686 3.03400087 -2.29761982
2.07909942 0.36863887 -1.58188117
1.37968314 1.72653759 -2.81855845
1.34916532 1.30818379 -3.00095558
1.28034043 1.83963633 -2.91309881
0.02863618 0.06306438 3.94257092
1.10155439 2.46123266 2.83898425
-0.12370630 4.32821178 -1.89662087
1.80231309 1.81961071 -1.92508411
-0.26271620 -4.90570354 0.21067460
-1.17125118 1.85838580 -3.04033709
-0.42507258 0.35115337 3.86477947
-1.91012347 2.68751693 -0.14708509
0.52594393 0.66344333 -3.79986095
-0.59034854 0.59246254 -3.77936387
0.27823883 4.85025835 0.59929276
-1.51226258 3.45298910 1.05881453
0.46882969 4.00228596 2.16982675
0.60981131 4.09703875 -1.93982947
-0.15574406 4.85269547 -0.71415377
2.06039762 1.14279151 1.41356659
1.31332827 0.52147639 -3.19423366
-1.93638098 0.51755571 2.03477073
-0.86597103 0.45253733 3.62999964
0.32781512 4.88538742 -0.23317569
0.23257883 0.76499045 3.87507415
-1.14141083 4.27035332 0.21433945
0.15331098 1.00039661 -3.85262561
-0.41706514 0.67769819 3.83862519
1.75109303 2.60675716 1.42939532
0.96551538 2.60870028 -2.90423512
-1.71163833 2.13762403 1.96752644
-2.04808235 0.12589282 -1.72183311
0.18304451 4.31707287 -1.89767313
-0.16434960 4.39304733 1.78973734
-1.95084524 2.22138762 -1.00002062
1.37811661 1.58221745 2.87548399
1.12592423 0.08553749 3.42676878
0.19770329 3.68091393 2.61234283
0.95695651 4.39667416 -0.71936947
-1.29167747 3.58354354 -1.54348135
1.53005457 3.07651401 1.58671069
-1.54510438 0.59801650 2.85785460
0.15502006 3.91623974 2.39359069
-0.24370016 -4.48645210 -1.60679007
-0.52826262 1.37755895 3.67492366
-2.16125250 0.48382178 1.17988110
0.45576909 2.11079168 3.47818398
1.29818654 3.74145031 1.26562881
1.43135309 1.12826204 2.93250799
-0.41486198 0.11006134 -3.87634802
-0.93157148 4.36846066 -0.90322429
1.82483721 0.24642853 -2.35076737
0.73829848 0.20143743 3.72677493
-0.60449535 3.62996912 -2.46635056
1.06640983 0.53541303 3.45878887
0.25263330 0.90802896 3.85143495
-1.82879019 2.91039491 0.36702821
0.50594002 0.25148025 -3.83936501
1.17623365 4.23448372 -0.08635439
-0.49304959 0.37788945 3.83785486
-1.94308257 1.33859789 1.75794590
-0.43785703 0.68482989 3.83127069
-0.28813770 2.23973823 3.48045754
-0.16561598 2.17934966 -3.52830553
0.39622763 4.57761145 -1.32712698
0.07137364 0.03025111 -3.94119191
2.05772567 1.37271667 1.28981817
-1.14863658 4.26438761 -0.16934994
0.33741868 2.76212168 -3.21808219
0.06573407 4.60136080 1.44410157
1.53609645 1.11518288 -2.77243733
-1.05368102 -0.03129926 3.49563622
1.03714597 4.31769514 -0.69535142
1.78703105 3.05351996 -0.20591687
0.71181405 3.31797218 -2.65213132
1.89902842 2.51147985 -0.85768408
0.16413817 0.23947604 3.92850733
-1.58950770 1.41434515 -2.58938503
-1.17053080 2.18145585 2.90205383
-1.54745984 0.19873250 -2.88994122
1.73161972 2.95625210 -0.99975115
-0.80593151 1.02187145 -3.59679484
-1.28666258 -1.61330187 -2.98891973
1.01614821 0.18674454 3.52578044
-1.72861981 1.55680382 2.24655128
0.18772763 0.48602173 -3.91055608
0.37679762 2.94108415 3.10219979
-1.45425129 3.31211591 -1.49528503
-0.76951677 -3.69220090 -2.25974274
0.62427551 1.24793839 3.65938830
-1.23926568 -3.95803714 0.99229932
-0.23989220 0.59092098 -3.89317060
1.85781682 0.47596961 -2.24834132
-0.21621472 3.72527218 -2.56631255
0.50475156 2.77894616 -3.14398193
-0.44787103 1.46966743 -3.68436289
1.42972684 3.71952462 -0.78867501
1.14582634 3.02769709 -2.40529704
2.19465494 0.20912127 1.04245734
-0.13374609 4.67839432 -1.26227844
1.64827168 2.99288774 -1.30873954
0.50647813 3.24304485 -2.84505129
0.26234397 1.80687761 3.64298606
1.05499899 0.28864110 -3.48706341
2.10291123 1.69591677 -0.68602622
-1.41343224 0.82329863 -3.02269506
-1.66602099 3.36525512 -0.15873955
-2.21115518 1.06548285 0.41362181
-2.27022600 0.31395248 -0.18136373
-1.50251245 3.39345241 -1.20843732
0.23758519 1.20482135 3.80214787
-1.58535147 3.06858253 1.42573488
1.85961521 0.68049675 2.20990872
-1.43153036 2.16355586 -2.53532887
0.14178556 1.95398152 3.61418867
1.89858580 2.45342684 0.95676303
-1.77290452 2.71325040 -1.20353866
-0.46890414 4.11823225 -2.02631831
0.91742551 1.26854146 -3.46551728
0.73402464 3.95279336 -2.00195861
-0.10980435 -1.63333941 -3.71748519
1.16762769 4.24611187 -0.03247079
0.54296380 1.76454806 3.56242156
-1.42418206 -3.85823631 0.03506204
1.32585561 0.78645957 -3.14524937
-1.93523741 1.39926779 1.75553727
-0.06455190 3.10844684 3.06472945
1.30611467 0.92896718 3.14530063
-1.01897538 3.29039741 2.35623550
-0.31415111 1.45946693 3.72808361
-0.06786163 1.27702677 -3.80785227
1.36554730 1.69072497 2.85311294
-0.10971890 0.14372888 3.93753386
-1.66053998 1.73969615 -2.31547880
1.50360048 0.36328292 -2.94714475
-0.84030056 1.00232947 -3.57682276
-1.98704433 -0.10634600 -1.92605782
-0.28875121 1.19560862 3.79330134
-0.30713138 0.85937554 -3.84655666
0.16988350 2.80640364 3.23393202
-0.06580288 0.03096012 -3.94142437
-0.70209748 -3.81579590 -2.19369531
0.70451778 2.38175321 -3.23364353
1.24265695 2.28231239 -2.75953245
-0.37797385 0.68073136 3.85042310
-1.63864958 3.43533278 0.00079824
-1.54056716 2.50292921 -2.10976529
-2.25055480 0.70477355 -0.20893595
-2.05154181 -0.50616670 1.66397762
-0.69255799 4.31759739 1.50223756
0.97219068 0.00985819 3.56641817
1.26868320 3.86008096 1.11856270
1.99439788 -2.20768571 0.72388375
1.63765705 2.25478148 -2.06708884
0.22956924 0.68682390 -3.88463092
-0.37790480 0.47076711 -3.87094069
0.07277823 0.15399517 3.93994355
-0.74660242 4.62761593 0.51441854
-1.23243606 4.14995527 0.20734458
-0.14644036 0.18538907 3.93216777
-0.36237529 3.77320385 -2.47214961
1.81253445 2.38270307 1.44980741
2.08496618 0.47864720 -1.53970027
-2.11206508 0.94100988 -1.27075958
-0.80089676 3.73363543 2.18231487
-0.53705400 1.33570087 -3.68099856
1.37158120 0.36462983 3.13513231
-0.92930180 -4.45035887 0.60421681
2.27050185 0.35007790 -0.12559831
0.05798291 -4.50660896 1.62354171
2.25109816 0.27105290 0.55783939
-0.44421086 0.62574738 -3.83526540
1.47862816 3.62145686 0.81183273
0.03497138 0.19067138 -3.94025111
-2.09003448 1.45421767 -1.05515277
-1.60898447 1.33866513 2.57911325
0.61417156 0.48341310 -3.77799940
1.13826144 1.61325741 3.16421556
1.44849169 2.33475447 2.40725136
1.54658329 2.91833711 -1.72033620
-1.37215686 2.00860190 2.70881200
-1.33983123 -3.48762631 1.56011057
-0.92859054 1.14031804 -3.48419952
-0.12679806 0.20717318 -3.93357015
0.73016179 4.68217325 0.13260068
0.34892887 3.78856754 -2.46296310
-0.61050534 2.88359857 3.02513385
2.25204992 0.23880501 0.55870891
1.61600852 3.01898599 -1.38682032
1.96853614 1.97531807 -1.20417583
-0.74109763 4.44061041 -1.16817009
1.54196751 1.03167319 2.78355861
1.08571243 1.69909942 3.19028497
-0.50055850 3.78565311 -2.38409090
-0.81708497 3.54271221 2.35986614
-0.48133180 1.17336178 -3.73869562
0.87644297 2.22686934 3.17694330
-1.50910354 2.14017010 -2.41030002
-1.18346179 3.62609363 1.72912049
0.11606386 0.52434039 3.91581249
2.04604340 1.91416395 -0.81748784
1.78992808 2.21799183 -1.67731583
-1.44585371 3.58981562 -1.04485214
-0.38503119 2.02996325 3.53359079
-2.17474246 0.17584905 -1.16081548
-1.30573010 3.95485759 0.70471078
1.01428628 1.11450458 -3.41659307
-0.15384775 3.81297493 -2.49688983
0.08012813 -3.39957809 -2.86069179
-0.38536185 2.83404207 -3.16227269
-0.45575973 3.27384996 -2.84808207
-0.83211982 0.95578581 3.59039998
0.04816879 0.35929981 -3.93180585
3 166 179 125
3 47 212 193
3 0 212 51
3 195 212 0
3 211 195 0
3 51 212 210
3 131 166 125
3 247 166 151
3 179 166 247
3 151 166 191
3 191 166 224
3 141 155 195
3 79 212 195
3 79 193 212
3 86 0 51
3 251 0 86
3 51 210 86
3 86 210 166
3 224 166 133
3 166 210 133
3 133 212 224
3 133 210 212
3 125 163 23
3 23 131 125
3 23 163 251
3 251 86 23
3 114 191 224
3 84 191 114
3 154 73 171
3 99 73 154
3 64 191 84
3 42 6 222
3 222 6 139
3 195 155 9
3 47 193 95
3 251 163 146
3 77 217 54
3 131 23 184
3 184 23 86
3 166 131 184
3 184 86 166
3 179 247 74
3 33 247 151
3 151 190 33
3 84 114 27
3 218 64 84
3 155 141 62
3 141 109 62
3 213 109 141
3 211 147 213
3 213 147 109
3 237 207 171
3 164 1 194
3 150 190 151
3 99 54 150
3 150 217 190
3 150 54 217
3 139 143 231
3 231 222 139
3 143 118 244
3 244 231 143
3 222 231 244
3 107 81 6
3 179 74 38
3 209 79 195
3 195 9 209
3 7 98 12
3 165 239 89
3 18 239 48
3 39 0 251
3 251 146 39
3 249 146 219
3 108 163 183
3 125 4 15
3 252 106 17
3 52 156 17
3 156 96 17
3 42 186 140
3 60 107 6
3 82 96 189
3 189 96 156
3 149 54 99
3 37 54 149
3 254 27 65
3 65 27 114
3 87 27 254
3 246 229 121
3 121 27 246
3 27 87 246
3 171 73 223
3 223 121 171
3 223 27 121
3 84 27 223
3 223 218 84
3 168 73 99
3 99 150 168
3 8 212 47
3 224 212 8
3 8 114 224
3 230 141 195
3 230 213 141
3 230 195 211
3 211 213 230
3 11 237 171
3 229 237 11
3 171 121 11
3 121 229 11
3 18 48 35
3 21 192 207
3 207 237 21
3 21 237 229
3 59 85 80
3 80 35 59
3 99 154 58
3 19 48 221
3 19 35 48
3 19 1 59
3 59 35 19
3 155 62 31
3 31 62 109
3 139 6 115
3 6 81 115
3 57 1 227
3 1 164 227
3 123 143 139
3 123 118 143
3 222 244 196
3 42 222 196
3 196 186 42
3 211 205 32
3 32 147 211
3 10 96 82
3 111 106 252
3 36 106 111
3 111 185 36
3 137 185 111
3 29 111 252
3 206 38 74
3 190 217 206
3 206 33 190
3 206 74 247
3 247 33 206
3 120 156 52
3 7 12 119
3 47 95 119
3 119 95 7
3 12 242 119
3 7 95 97
3 79 209 97
3 67 12 98
3 98 242 67
3 67 242 12
3 113 45 44
3 44 196 113
3 186 196 44
3 249 219 161
3 0 39 94
3 167 45 113
3 249 45 167
3 100 146 163
3 100 219 146
3 100 163 108
3 226 255 216
3 216 183 226
3 108 183 216
3 134 255 226
3 162 60 6
3 162 41 117
3 140 41 162
3 162 6 42
3 42 140 162
3 37 152 159
3 77 54 159
3 159 54 37
3 176 217 77
3 77 159 176
3 176 159 189
3 176 120 38
3 176 206 217
3 38 206 176
3 89 182 157
3 64 218 127
3 73 168 127
3 127 223 73
3 218 223 127
3 88 168 150
3 191 64 88
3 151 191 88
3 88 150 151
3 187 70 53
3 187 53 202
3 202 53 8
3 18 35 129
3 129 182 89
3 35 80 129
3 89 239 129
3 129 239 18
3 112 1 57
3 59 1 112
3 112 85 59
3 85 21 169
3 169 80 85
3 169 21 229
3 182 129 169
3 169 129 80
3 188 149 99
3 99 58 188
3 207 192 241
3 171 207 241
3 241 154 171
3 241 58 154
3 245 152 37
3 81 107 5
3 200 112 57
3 192 112 200
3 83 19 221
3 221 31 83
3 83 31 71
3 204 31 109
3 71 31 204
3 139 115 101
3 101 115 81
3 81 227 101
3 101 227 164
3 139 101 116
3 116 123 139
3 116 22 118
3 118 123 116
3 147 32 232
3 232 244 118
3 49 203 160
3 250 203 49
3 107 60 75
3 75 250 49
3 144 117 137
3 137 111 144
3 111 29 144
3 179 38 122
3 125 179 122
3 122 4 125
3 4 122 148
3 148 120 52
3 38 120 148
3 148 122 38
3 221 48 174
3 174 31 221
3 47 119 199
3 199 119 242
3 7 97 132
3 132 98 7
3 126 95 193
3 126 97 95
3 193 79 126
3 79 97 126
3 72 140 186
3 72 41 140
3 72 185 137
3 137 117 72
3 117 41 72
3 46 44 45
3 46 45 249
3 249 161 46
3 186 44 46
3 46 72 186
3 46 161 185
3 185 72 46
3 55 161 219
3 219 100 55
3 36 185 55
3 185 161 55
3 0 94 43
3 43 205 211
3 211 0 43
3 177 94 39
3 135 32 205
3 205 43 135
3 135 43 94
3 63 39 146
3 63 146 249
3 249 167 63
3 63 177 39
3 167 177 63
3 16 17 208
3 208 225 16
3 52 17 16
3 16 225 52
3 124 225 208
3 238 24 181
3 238 124 208
3 181 24 173
3 36 134 173
3 173 134 181
3 173 106 36
3 173 24 106
3 130 159 152
3 189 159 130
3 82 189 130
3 156 120 240
3 120 176 240
3 240 189 156
3 240 176 189
3 104 180 87
3 104 87 254
3 104 70 187
3 187 180 104
3 104 53 70
3 34 180 187
3 187 202 34
3 34 202 242
3 172 246 87
3 87 180 172
3 180 34 172
3 182 169 105
3 229 246 105
3 105 169 229
3 145 165 89
3 89 157 145
3 64 127 103
3 103 127 168
3 103 88 64
3 168 88 103
3 175 8 47
3 175 202 8
3 192 21 76
3 76 112 192
3 76 21 85
3 85 112 76
3 201 188 248
3 248 188 58
3 58 241 248
3 248 241 192
3 192 200 248
3 149 188 13
3 201 110 13
3 13 188 201
3 37 149 13
3 13 245 37
3 152 245 3
3 82 130 3
3 3 130 152
3 66 227 81
3 81 5 66
3 57 227 66
3 68 110 201
3 68 200 110
3 201 248 68
3 68 248 200
3 61 66 5
3 61 200 57
3 57 66 61
3 19 83 90
3 194 1 90
3 1 19 90
3 71 204 158
3 158 204 109
3 109 147 158
3 147 22 158
3 147 232 243
3 243 232 118
3 243 22 147
3 118 22 243
3 96 10 236
3 236 203 96
3 236 160 203
3 203 250 136
3 136 29 252
3 136 250 29
3 228 75 60
3 228 144 29
3 29 250 228
3 250 75 228
3 117 144 228
3 228 162 117
3 60 162 228
3 30 15 4
3 4 148 30
3 30 148 52
3 52 225 30
3 30 225 15
3 31 174 78
3 239 165 235
3 165 132 235
3 235 48 239
3 36 55 69
3 69 134 36
3 255 134 69
3 197 55 100
3 197 69 55
3 26 167 113
3 26 177 167
3 94 177 26
3 113 135 26
3 26 135 94
3 50 196 244
3 32 135 50
3 113 196 50
3 50 135 113
3 244 232 50
3 50 232 32
3 15 225 178
3 225 124 178
3 178 56 15
3 124 56 178
3 138 238 208
3 24 238 138
3 106 24 138
3 208 17 138
3 138 17 106
3 53 104 102
3 102 65 114
3 254 65 102
3 102 104 254
3 114 8 102
3 8 53 102
3 153 242 98
3 153 34 242
3 157 34 153
3 153 145 157
3 98 132 153
3 153 132 165
3 165 145 153
3 40 34 157
3 40 172 34
3 40 157 182
3 182 105 40
3 246 172 40
3 40 105 246
3 20 199 242
3 242 202 20
3 202 175 20
3 47 199 20
3 20 175 47
3 49 160 14
3 215 90 83
3 215 83 71
3 71 158 215
3 194 90 215
3 215 158 22
3 22 116 215
3 215 164 194
3 215 101 164
3 215 116 101
3 2 236 10
3 160 236 2
3 10 14 2
3 2 14 160
3 253 136 252
3 203 136 253
3 96 203 253
3 252 17 253
3 253 17 96
3 31 78 234
3 234 78 91
3 155 31 234
3 234 9 155
3 234 209 9
3 234 91 209
3 25 132 97
3 25 235 132
3 25 97 209
3 128 100 108
3 128 197 100
3 108 216 128
3 128 216 255
3 255 69 128
3 69 197 128
3 124 238 28
3 28 56 124
3 226 183 92
3 92 183 163
3 92 163 125
3 125 15 92
3 15 56 92
3 49 14 142
3 142 14 61
3 142 61 5
3 142 75 49
3 142 5 107
3 107 75 142
3 110 200 93
3 200 61 93
3 93 13 110
3 245 13 93
3 93 3 245
3 82 3 93
3 235 25 220
3 220 78 174
3 220 174 48
3 48 235 220
3 198 134 226
3 226 92 198
3 181 134 198
3 198 92 56
3 233 14 10
3 233 10 82
3 82 93 233
3 61 14 233
3 233 93 61
3 170 220 25
3 209 91 170
3 170 25 209
3 91 78 170
3 78 220 170
3 181 198 214
3 214 238 181
3 214 28 238
3 56 28 214
3 214 198 56