ply
format ascii 1.0
comment https://github.com/mikedh/trimesh
element vertex 256
property float x
property float y
property float z
element face 508
property list uchar int vertex_indices
end_header
2.16183972 -0.80961794 -0.16500424
1.14184725 1.04593444 0.41491944
-0.72106683 1.02436030 -0.60431194
-1.72635555 0.90377122 -0.40564996
-1.83966684 0.04590787 -0.98831075
0.35969666 1.16517711 -0.31900269
1.07201374 1.00426483 -0.54159534
0.83032197 0.08553315 1.21256936
-0.27401766 0.00573151 1.26163960
2.10825133 0.11863311 0.87633783
-0.79677683 1.02568841 -0.58503085
-1.06202948 0.73108971 0.90218675
0.38623899 0.11205277 1.25064826
-1.89053011 0.92188615 -0.13533717
-0.61309868 1.11068738 -0.43719158
-1.54972029 0.15488686 -1.06521380
-1.35398722 0.45385724 -1.02061605
-0.90414637 0.64862436 -0.99774820
1.17900312 0.64257890 0.94759530
1.63754582 0.84657246 0.57349926
0.00705660 0.04297012 1.26620364
-0.40297052 1.01999450 0.66465461
2.44945431 0.67439216 0.01838615
-0.31515408 -0.80137002 -0.94198436
-0.39102706 0.36836722 -1.19552779
1.54450107 0.21613073 1.05506420
1.99964261 0.13895155 -0.91902941
-1.26013124 0.28702912 1.10536766
-0.73507774 0.16080305 -1.21540296
0.21901272 0.87147218 -0.87687999
-1.60895634 0.16323008 -1.04788101
2.21010733 0.49227205 0.66177040
2.72007370 0.23212582 -0.42207327
-2.83440781 0.07159293 -0.33770669
-0.31148592 0.29484501 1.22168934
0.89134276 0.81613147 0.85578662
0.15831386 0.27045074 -1.23323643
-2.14232373 0.80742013 -0.21468554
-2.32729363 0.23594445 -0.73701763
1.75121307 0.04018731 -1.01808429
-0.09617184 0.50288862 1.15230381
1.16624773 0.76927531 -0.84211439
1.57139504 0.74457967 -0.73823178
2.68947577 0.09046834 -0.50826293
1.78472698 0.42371273 -0.90561086
1.74524975 0.32104379 -0.96421558
1.65621948 0.45146853 -0.93598694
0.03704312 0.01547675 1.26675928
1.42494583 0.60401559 0.91217369
-0.16002367 1.06219435 -0.60938966
2.33143139 0.44655398 -0.61853498
-0.33984375 -1.20391762 0.06769035
-1.51510394 0.45606986 -0.97686887
-0.54986429 0.08617720 1.24176466
-2.47089267 0.65954846 -0.04725886
0.68034917 0.16281685 -1.22090614
-0.76366150 0.14539732 -1.21432030
0.35992345 1.19031072 0.19255446
-1.95622861 0.84740436 0.34020013
0.60646749 0.98220837 0.69717151
0.78883815 1.00546181 -0.62327272
-0.20146701 1.19090891 -0.22945963
2.66528392 0.28045455 0.45418295
1.69889164 0.12797648 -1.02631629
-2.50485873 0.12701431 0.65377760
-1.12020051 0.11105801 1.16632915
0.42405421 1.19893181 -0.07492001
0.30085871 0.18773770 1.24507225
-1.47650325 1.04799533 0.06886787
0.19831963 0.24550916 -1.23785961
-0.53950602 0.16631515 1.23336112
2.26517439 0.63972902 0.45926875
1.24896884 0.64020592 -0.93313903
-2.21413660 0.52459824 0.63217181
-2.64935279 0.03089559 -0.55322987
0.23678224 1.05946088 -0.60972774
-0.21259892 1.07810581 0.57504767
-2.52356935 0.54515481 -0.32130948
1.78270042 0.38829488 0.92390120
1.45647013 0.02099191 1.10103047
0.25574452 0.90333980 0.83935320
1.23789728 1.07899582 -0.23113544
-1.67088485 0.87944394 -0.49592492
1.97924399 0.75501293 0.50981462
-1.99871206 0.14676033 0.91823679
0.20053044 0.96109158 0.76906747
-0.31524503 -1.10102844 -0.51626623
-0.68334854 0.33806926 1.18076336
-2.79574728 0.11873559 0.37909913
0.58957261 0.51801324 1.11755037
1.67930472 0.91819620 0.40665013
1.85156608 0.27688888 0.94222307
-0.53665608 0.02701036 -1.24548161
-1.20505989 1.07207191 -0.29020852
2.36056828 0.06047648 -0.75530821
0.95504618 0.04943513 1.19742334
-0.78196150 0.89083737 -0.79244542
1.37948370 0.13139670 1.11131859
0.32680073 0.22284105 1.23747694
-2.36568165 0.71424532 0.11792720
0.65447253 0.06171623 -1.23359883
1.52154934 1.03919244 -0.02774591
-0.63779783 0.09273855 1.23311365
-2.51352763 0.32850775 0.56483299
-0.56640196 0.16806537 1.23099816
-0.37272844 0.54965824 1.11828089
-0.21423708 0.53483820 -1.13365459
0.51255113 1.12339997 -0.42640966
0.09232733 0.00742398 -1.26631618
2.66182733 0.33688092 0.41442224
-1.48585033 1.04653120 -0.05441261
0.43647718 0.67785734 -1.03397894
0.08503210 1.12922835 0.46399391
1.98705971 0.27367908 -0.89079201
-1.36301792 -0.00768121 1.12315786
1.34162867 1.05961359 -0.22341838
2.31166291 0.74936992 -0.06616168
0.92078656 0.81426966 -0.85213727
2.45654011 0.61634690 -0.27557632
0.21232542 0.05877025 1.26224053
-2.05615115 0.34709701 -0.83197677
-1.51417208 0.53535509 0.93243814
-2.00175905 0.04877131 -0.92854625
2.23998404 0.72549921 -0.32122290
-1.04253483 0.25077933 -1.15566039
-1.66439760 -0.39592338 -0.96034837
1.31446636 0.04582932 1.13284326
-2.23610353 0.38205808 0.72182333
0.24284022 0.11927549 -1.25647283
0.48741689 0.72177684 0.99674559
-1.88118660 0.81283247 -0.48043934
-0.99542952 -0.90610981 -0.72606176
0.80754864 0.30625886 1.17577183
-1.60308599 -0.97134918 0.31882858
-0.31031913 0.14501901 -1.25088668
2.40322971 0.11680858 -0.72239846
-0.27969047 0.91422588 -0.82456344
0.65293521 0.68198627 -1.01017034
-0.57935584 0.36067379 -1.18379629
1.84946239 0.91281533 -0.25340351
1.48221505 0.74303269 -0.77282876
2.83895612 0.05132084 0.33494452
-0.17301092 1.14813328 -0.40557364
2.13216710 0.73449004 -0.42050171
0.65516865 0.79588157 -0.91412300
0.33936223 0.44342914 1.17050183
1.36472273 0.07083594 -1.12040341
2.72027826 0.41619805 -0.22042216
-1.82838404 0.20204723 -0.97120047
-2.15512705 0.82587343 -0.05100347
-2.86030030 0.26148209 0.13289785
-2.93671298 0.07704765 -0.05827268
-1.94361603 0.83279335 -0.38827434
0.30733481 0.29567739 1.22164094
-2.05077481 0.75306648 0.45809266
2.40555620 0.16700195 0.71004993
-1.85179520 0.53096223 -0.81460834
0.18341060 0.47953019 1.16124904
2.45596766 0.60209996 0.30741066
-2.29338908 0.66586375 -0.38670039
-0.60656381 1.01066291 -0.65106177
1.18676090 0.31131509 -1.11348057
0.94951767 0.97006226 -0.64323497
-0.14204042 -0.40084082 -1.19443858
1.51041675 1.04204607 -0.01043296
0.70236570 0.43304098 1.14461613
-1.84228957 -0.94685686 0.01126553
1.71509683 0.19300649 -1.01057756
-2.50337934 0.34339687 0.56405908
-0.08350287 0.76284963 0.98470628
1.68956041 0.22797954 1.01059401
-1.31812346 0.80750245 0.75706518
-0.40637878 0.35817045 1.19784391
-0.08778427 0.31339750 -1.22347367
1.76644099 0.41492394 0.91671330
-0.14192989 0.03527277 1.26514077
-2.14803696 0.42694202 -0.74396992
1.94502366 0.08915393 -0.94692594
-1.08699381 0.24598353 -1.14924324
-2.57039547 -0.02609857 -0.61884785
-0.37352204 0.29341650 1.21879852
-0.39729822 0.21090092 -1.23590958
0.21975745 0.68872464 1.03907156
-0.08512111 0.00759798 -1.26639080
-0.90821743 -0.93644148 -0.70484054
0.91134828 0.58451045 -1.03897882
1.60747290 0.56010646 -0.88664562
-0.48893842 0.16705953 1.23715186
-2.11971998 0.84307134 0.00025648
-1.99284279 0.61424845 -0.67787355
-2.91126657 0.17295977 -0.06713171
-2.65382791 -0.12421929 0.53464073
-0.89587742 1.05958951 0.48267320
1.25760388 0.00241932 1.14590025
1.64113986 0.94730955 0.35939738
2.57990813 -0.54179221 0.23258589
2.11843610 0.55335009 -0.66416150
0.29696557 0.16855471 -1.24814296
-0.48884910 0.11553182 -1.24374425
0.09414427 0.03779224 1.26591504
-0.96578801 1.13567162 0.16528414
-1.59425139 1.01844811 0.06662040
-0.18943194 0.04549667 1.26341665
-0.46876046 0.92598885 -0.79430872
2.34465361 0.58474356 0.46582723
2.69706511 0.11746569 -0.49471006
-2.73211956 0.23093496 -0.40829867
-1.03602195 0.91627836 0.70118397
-0.69472092 0.32779682 -1.18271530
1.77424634 0.08948448 1.00732696
-1.20212376 -1.09217072 0.19413657
2.93706989 0.08591326 -0.04035509
0.07500539 -1.10597515 0.52164859
2.91196966 0.06651959 0.17923538
-0.57462114 0.15356581 -1.23228157
1.91271996 0.88874841 0.26084417
0.04523818 0.04679301 -1.26601386
-2.70362139 0.35688221 -0.33902356
-2.08134604 0.32852429 0.82867634
0.79447848 0.11863530 -1.21388197
1.47242928 0.39591247 1.01667142
1.87373614 0.57297635 0.77345669
2.00062513 0.71619445 -0.55274892
-1.77499115 0.49293470 0.87034893
-1.73317540 -0.85590482 0.50126797
-1.20120370 0.27984753 -1.11948311
-0.16402310 0.05084275 -1.26386726
0.94452071 1.14906073 0.04260498
0.45136648 0.92975932 -0.79135704
-0.78973585 0.70766920 0.97198409
2.91320086 0.05860558 0.17951475
2.09043193 0.74089491 -0.44558930
2.54645395 0.48476645 -0.38690513
-0.95866710 1.08977830 -0.37533635
1.99465430 0.25318483 0.89436531
1.40445304 0.41697910 1.02504754
-0.64751118 0.92904407 -0.76601511
-1.05696261 0.86942345 0.75823170
-0.62263995 0.28795686 -1.20125353
1.13374686 0.54650009 1.02076089
-1.95214224 0.52522308 -0.77443624
-1.53089929 0.88988626 0.55557132
0.15013757 0.12867935 1.25816166
2.64671540 0.46975848 -0.26266116
2.31541038 0.54432148 -0.53892636
-1.87032366 0.88098323 -0.33571398
-0.49806765 0.49817699 1.13535273
-2.81319761 0.04315544 -0.37297329
-1.68906295 0.97056884 0.22642557
1.31205785 0.27351260 -1.09776103
-0.19901398 0.93574917 -0.80225784
0.10365194 -0.83429670 -0.91914839
-0.49849537 0.69550747 -1.01604724
-0.58956045 0.80344152 -0.91509682
-1.07641137 0.23456115 1.15360570
0.06231005 0.08817642 -1.26330042
3 166 179 125
3 47 212 193
3 0 212 51
3 195 212 0
3 211 195 0
3 51 212 210
3 131 166 125
3 247 166 151
3 179 166 247
3 151 166 191
3 191 166 224
3 141 155 195
3 79 212 195
3 79 193 212
3 86 0 51
3 251 0 86
3 51 210 86
3 86 210 166
3 224 166 133
3 166 210 133
3 133 212 224
3 133 210 212
3 125 163 23
3 23 131 125
3 23 163 251
3 251 86 23
3 114 191 224
3 84 191 114
3 154 73 171
3 99 73 154
3 64 191 84
3 42 6 222
3 222 6 139
3 195 155 9
3 47 193 95
3 251 163 146
3 77 217 54
3 131 23 184
3 184 23 86
3 166 131 184
3 184 86 166
3 179 247 74
3 33 247 151
3 151 190 33
3 84 114 27
3 218 64 84
3 155 141 62
3 141 109 62
3 213 109 141
3 211 147 213
3 213 147 109
3 237 207 171
3 164 1 194
3 150 190 151
3 99 54 150
3 150 217 190
3 150 54 217
3 139 143 231
3 231 222 139
3 143 118 244
3 244 231 143
3 222 231 244
3 107 81 6
3 179 74 38
3 209 79 195
3 195 9 209
3 7 98 12
3 165 239 89
3 18 239 48
3 39 0 251
3 251 146 39
3 249 146 219
3 108 163 183
3 125 4 15
3 252 106 17
3 52 156 17
3 156 96 17
3 42 186 140
3 60 107 6
3 82 96 189
3 189 96 156
3 149 54 99
3 37 54 149
3 254 27 65
3 65 27 114
3 87 27 254
3 246 229 121
3 121 27 246
3 27 87 246
3 171 73 223
3 223 121 171
3 223 27 121
3 84 27 223
3 223 218 84
3 168 73 99
3 99 150 168
3 8 212 47
3 224 212 8
3 8 114 224
3 230 141 195
3 230 213 141
3 230 195 211
3 211 213 230
3 11 237 171
3 229 237 11
3 171 121 11
3 121 229 11
3 18 48 35
3 21 192 207
3 207 237 21
3 21 237 229
3 59 85 80
3 80 35 59
3 99 154 58
3 19 48 221
3 19 35 48
3 19 1 59
3 59 35 19
3 155 62 31
3 31 62 109
3 139 6 115
3 6 81 115
3 57 1 227
3 1 164 227
3 123 143 139
3 123 118 143
3 222 244 196
3 42 222 196
3 196 186 42
3 211 205 32
3 32 147 211
3 10 96 82
3 111 106 252
3 36 106 111
3 111 185 36
3 137 185 111
3 29 111 252
3 206 38 74
3 190 217 206
3 206 33 190
3 206 74 247
3 247 33 206
3 120 156 52
3 7 12 119
3 47 95 119
3 119 95 7
3 12 242 119
3 7 95 97
3 79 209 97
3 67 12 98
3 98 242 67
3 67 242 12
3 113 45 44
3 44 196 113
3 186 196 44
3 249 219 161
3 0 39 94
3 167 45 113
3 249 45 167
3 100 146 163
3 100 219 146
3 100 163 108
3 226 255 216
3 216 183 226
3 108 183 216
3 134 255 226
3 162 60 6
3 162 41 117
3 140 41 162
3 162 6 42
3 42 140 162
3 37 152 159
3 77 54 159
3 159 54 37
3 176 217 77
3 77 159 176
3 176 159 189
3 176 120 38
3 176 206 217
3 38 206 176
3 89 182 157
3 64 218 127
3 73 168 127
3 127 223 73
3 218 223 127
3 88 168 150
3 191 64 88
3 151 191 88
3 88 150 151
3 187 70 53
3 187 53 202
3 202 53 8
3 18 35 129
3 129 182 89
3 35 80 129
3 89 239 129
3 129 239 18
3 112 1 57
3 59 1 112
3 112 85 59
3 85 21 169
3 169 80 85
3 169 21 229
3 182 129 169
3 169 129 80
3 188 149 99
3 99 58 188
3 207 192 241
3 171 207 241
3 241 154 171
3 241 58 154
3 245 152 37
3 81 107 5
3 200 112 57
3 192 112 200
3 83 19 221
3 221 31 83
3 83 31 71
3 204 31 109
3 71 31 204
3 139 115 101
3 101 115 81
3 81 227 101
3 101 227 164
3 139 101 116
3 116 123 139
3 116 22 118
3 118 123 116
3 147 32 232
3 232 244 118
3 49 203 160
3 250 203 49
3 107 60 75
3 75 250 49
3 144 117 137
3 137 111 144
3 111 29 144
3 179 38 122
3 125 179 122
3 122 4 125
3 4 122 148
3 148 120 52
3 38 120 148
3 148 122 38
3 221 48 174
3 174 31 221
3 47 119 199
3 199 119 242
3 7 97 132
3 132 98 7
3 126 95 193
3 126 97 95
3 193 79 126
3 79 97 126
3 72 140 186
3 72 41 140
3 72 185 137
3 137 117 72
3 117 41 72
3 46 44 45
3 46 45 249
3 249 161 46
3 186 44 46
3 46 72 186
3 46 161 185
3 185 72 46
3 55 161 219
3 219 100 55
3 36 185 55
3 185 161 55
3 0 94 43
3 43 205 211
3 211 0 43
3 177 94 39
3 135 32 205
3 205 43 135
3 135 43 94
3 63 39 146
3 63 146 249
3 249 167 63
3 63 177 39
3 167 177 63
3 16 17 208
3 208 225 16
3 52 17 16
3 16 225 52
3 124 225 208
3 238 24 181
3 238 124 208
3 181 24 173
3 36 134 173
3 173 134 181
3 173 106 36
3 173 24 106
3 130 159 152
3 189 159 130
3 82 189 130
3 156 120 240
3 120 176 240
3 240 189 156
3 240 176 189
3 104 180 87
3 104 87 254
3 104 70 187
3 187 180 104
3 104 53 70
3 34 180 187
3 187 202 34
3 34 202 242
3 172 246 87
3 87 180 172
3 180 34 172
3 182 169 105
3 229 246 105
3 105 169 229
3 145 165 89
3 89 157 145
3 64 127 103
3 103 127 168
3 103 88 64
3 168 88 103
3 175 8 47
3 175 202 8
3 192 21 76
3 76 112 192
3 76 21 85
3 85 112 76
3 201 188 248
3 248 188 58
3 58 241 248
3 248 241 192
3 192 200 248
3 149 188 13
3 201 110 13
3 13 188 201
3 37 149 13
3 13 245 37
3 152 245 3
3 82 130 3
3 3 130 152
3 66 227 81
3 81 5 66
3 57 227 66
3 68 110 201
3 68 200 110
3 201 248 68
3 68 248 200
3 61 66 5
3 61 200 57
3 57 66 61
3 19 83 90
3 194 1 90
3 1 19 90
3 71 204 158
3 158 204 109
3 109 147 158
3 147 22 158
3 147 232 243
3 243 232 118
3 243 22 147
3 118 22 243
3 96 10 236
3 236 203 96
3 236 160 203
3 203 250 136
3 136 29 252
3 136 250 29
3 228 75 60
3 228 144 29
3 29 250 228
3 250 75 228
3 117 144 228
3 228 162 117
3 60 162 228
3 30 15 4
3 4 148 30
3 30 148 52
3 52 225 30
3 30 225 15
3 31 174 78
3 239 165 235
3 165 132 235
3 235 48 239
3 36 55 69
3 69 134 36
3 255 134 69
3 197 55 100
3 197 69 55
3 26 167 113
3 26 177 167
3 94 177 26
3 113 135 26
3 26 135 94
3 50 196 244
3 32 135 50
3 113 196 50
3 50 135 113
3 244 232 50
3 50 232 32
3 15 225 178
3 225 124 178
3 178 56 15
3 124 56 178
3 138 238 208
3 24 238 138
3 106 24 138
3 208 17 138
3 138 17 106
3 53 104 102
3 102 65 114
3 254 65 102
3 102 104 254
3 114 8 102
3 8 53 102
3 153 242 98
3 153 34 242
3 157 34 153
3 153 145 157
3 98 132 153
3 153 132 165
3 165 145 153
3 40 34 157
3 40 172 34
3 40 157 182
3 182 105 40
3 246 172 40
3 40 105 246
3 20 199 242
3 242 202 20
3 202 175 20
3 47 199 20
3 20 175 47
3 49 160 14
3 215 90 83
3 215 83 71
3 71 158 215
3 194 90 215
3 215 158 22
3 22 116 215
3 215 164 194
3 215 101 164
3 215 116 101
3 2 236 10
3 160 236 2
3 10 14 2
3 2 14 160
3 253 136 252
3 203 136 253
3 96 203 253
3 252 17 253
3 253 17 96
3 31 78 234
3 234 78 91
3 155 31 234
3 234 9 155
3 234 209 9
3 234 91 209
3 25 132 97
3 25 235 132
3 25 97 209
3 128 100 108
3 128 197 100
3 108 216 128
3 128 216 255
3 255 69 128
3 69 197 128
3 124 238 28
3 28 56 124
3 226 183 92
3 92 183 163
3 92 163 125
3 125 15 92
3 15 56 92
3 49 14 142
3 142 14 61
3 142 61 5
3 142 75 49
3 142 5 107
3 107 75 142
3 110 200 93
3 200 61 93
3 93 13 110
3 245 13 93
3 93 3 245
3 82 3 93
3 235 25 220
3 220 78 174
3 220 174 48
3 48 235 220
3 198 134 226
3 226 92 198
3 181 134 198
3 198 92 56
3 233 14 10
3 233 10 82
3 82 93 233
3 61 14 233
3 233 93 61
3 170 220 25
3 209 91 170
3 170 25 209
3 91 78 170
3 78 220 170
3 181 198 214
3 214 238 181
3 214 28 238
3 56 28 214
3 214 198 56