ply
format ascii 1.0
comment https://github.com/mikedh/trimesh
element vertex 256
property float x
property float y
property float z
element face 508
property list uchar int vertex_indices
end_header
3.50777531 -2.83339787 -0.32768437
1.85274768 3.66042805 0.82399464
-1.16999447 3.58492565 -1.20011199
-2.80116391 3.16290331 -0.80558628
-2.98502135 0.16066252 -1.96270096
0.58363950 4.07773876 -0.63351214
1.73943663 3.51459813 -1.07556224
1.34727049 0.29933801 2.40805936
-0.44461778 0.02005842 2.50550890
3.42082357 0.41517705 1.74033225
-1.29284060 3.58957362 -1.16182148
-1.72323644 2.55857468 1.79166603
0.62670678 0.39214802 2.48368096
-3.06755161 3.22629976 -0.26876810
-0.99480659 3.88704228 -0.86822522
-2.51455760 0.54205328 -2.11542392
-2.19696355 1.58835185 -2.02685642
-1.46705711 2.26997304 -1.98144293
1.91303647 2.24881577 1.88184357
2.65706229 2.96272659 1.13892066
0.01144996 0.15038137 2.51457262
-0.65385520 3.56964684 1.31994736
3.97445536 2.36015177 0.03651333
-0.51136523 -2.80453277 -1.87070072
-0.63447583 1.28916478 -2.37421632
2.50608897 0.75638682 2.09526753
3.24459624 0.48628497 -1.82511413
-2.04467392 1.00450802 2.19516611
-1.19272840 0.56275803 -2.41368675
0.35536745 3.04986739 -1.74140894
-2.61067319 0.57125181 -2.08100247
3.58609390 1.72279096 1.31421959
4.41355896 0.81236434 -0.83820152
-4.59907627 0.25055182 -0.67065668
-0.50541335 1.03186107 2.42617083
1.44628215 2.85619307 1.69951928
0.25687817 0.94648910 -2.44910264
-3.47610879 2.82570624 -0.42634720
-3.77623868 0.82572830 -1.46365416
2.84149766 0.14064242 -2.02182865
-0.15604728 1.75994563 2.28837729
1.89233971 2.69221187 -1.67236745
2.54972672 2.60578513 -1.46606541
4.36391163 0.31660959 -1.00936687
2.89587665 1.48285592 -1.79846597
2.83182144 1.12354815 -1.91485000
2.68736196 1.57999206 -1.85879028
0.06010573 0.05416355 2.51567602
2.31209993 2.11385679 1.81149924
-0.25965250 3.71733260 -1.21019590
3.78295279 1.56279278 -1.22835779
-0.55142641 -4.21331787 0.13442726
-2.45838952 1.59609520 -1.93997836
-0.89220321 0.30159199 2.46603870
-4.00924110 2.30820370 -0.09385207
1.10392642 0.56980568 -2.42461538
-1.23910809 0.50884300 -2.41153669
0.58400750 4.16569805 0.38239676
-3.17415333 2.96563792 0.67560846
0.98404694 3.43740773 1.38452315
1.27995932 3.51878715 -1.23776650
-0.32689795 4.16779137 -0.45568728
4.32465792 0.98149914 0.90196866
2.75660133 0.44787580 -2.03817677
-4.06435394 0.44450849 1.29834652
-1.81762397 0.38866669 2.31623030
0.68806529 4.19586897 -0.14878476
0.48816976 0.65702051 2.47260737
-2.39575648 3.66764045 0.13676573
0.32179105 0.85920173 -2.45828366
-0.87539607 0.58204859 2.44935012
3.67544484 2.23884225 0.91206861
2.02656198 2.24051118 -1.85313463
-3.59263158 1.83592200 1.25543940
-4.29880857 0.10812445 -1.09866738
0.38420004 3.70776606 -1.21086740
-0.34496048 3.77301717 1.14199567
-4.09471369 1.90786338 -0.63809323
2.89258838 1.35890496 1.83478904
2.36325097 0.07346482 2.18655276
0.41496798 3.16139364 1.66688395
2.00859737 3.77613211 -0.45901531
-2.71115780 3.07776594 -0.98486465
3.21149778 2.64229798 1.01244843
-3.24308634 0.51361310 1.82353997
0.32537830 3.36350584 1.52730238
-0.51151282 -3.85323906 -1.02526069
-1.10879326 1.18313169 2.34489560
-4.53634644 0.41553569 0.75285858
0.95663345 1.81287682 2.21935987
2.72481990 3.21338606 0.80757248
3.00432897 0.96902037 1.87117481
-0.87077177 0.09452740 -2.47342038
-1.95531571 3.75190091 -0.57632941
3.83022976 0.21164788 -1.49997771
1.54964662 0.17300677 2.37798071
-1.26880145 3.11763930 -1.57372916
2.23833370 0.45984542 2.20698404
0.53026301 0.77987075 2.45752382
-3.83852673 2.49962497 0.23419338
1.06193936 0.21598661 -2.44982219
2.46884775 3.63683319 -0.05510101
-1.03488314 0.32455456 2.44885874
-4.07842016 1.14966965 1.12171018
-0.91903710 0.58817375 2.44465733
-0.60478473 1.92362392 2.22081065
-0.34761855 1.87175870 -2.25134134
0.83165932 3.93153214 -0.84681326
0.14980923 0.02598150 -2.51479602
4.31904936 1.17897296 0.82300729
-2.41092300 3.66251636 -0.10805882
0.70822269 2.37227869 -2.05339408
0.13797207 3.95192957 0.92145240
3.22417927 0.95778722 -1.76903701
-2.21161652 -0.02688171 2.23049569
2.17691064 3.70830059 -0.44368985
3.75087667 2.62254953 -0.13139145
1.49405730 2.84967732 -1.69227207
3.98595285 2.15701246 -0.54727107
0.34451669 0.20567666 2.50670218
-3.33628631 1.21472597 -1.65223503
-2.45687771 1.87356758 1.85174274
-3.24803042 0.17068361 -1.84401381
3.63457155 2.53900981 -0.63792127
-1.69160450 0.87764561 -2.29504299
-2.70063186 -1.38560224 -1.90717006
2.13283753 0.16038762 2.24973011
-3.62827468 1.33707821 1.43347955
0.39402965 0.41742516 -2.49524784
0.79087681 2.52598262 1.97945189
-3.05239105 2.84464765 -0.95411158
-1.61517203 -3.17108774 -1.44189680
1.31031883 1.07180572 2.33498263
-2.60114837 -3.39940405 0.63316643
-0.50352013 0.50751907 -2.48415446
3.89945197 0.40879178 -1.43462181
-0.45382240 3.19949126 -1.63751280
1.05944490 2.38672876 -2.00611210
-0.94005591 1.26224017 -2.35091853
3.00091553 3.19455504 -0.50323778
2.40502453 2.60037136 -1.53477204
4.60645628 0.17960612 0.66517127
-0.28072545 4.01809072 -0.80543470
3.45962882 2.57047462 -0.83508062
1.06306887 2.78532505 -1.81537044
0.55064511 1.55185688 2.32451677
2.21438289 0.24790260 -2.22502565
4.41389132 1.45655692 -0.43773964
-2.96671414 0.70709914 -1.92872143
-3.49688363 2.89028668 -0.10128855
-4.64108896 0.91510177 0.26392382
-4.76507521 0.26964158 -0.11572458
-3.15368819 2.91450405 -0.77107972
0.49867782 1.03477418 2.42607474
-3.32756257 2.63548613 0.90973300
3.90322685 0.58445215 1.41009867
-3.00470090 1.85819387 -1.61774278
0.29759985 1.67819870 2.30614185
3.98502398 2.10715270 0.61049139
-3.72122574 2.33030510 -0.76795399
-0.98420322 3.53698945 -1.29295325
1.92562401 1.08950090 -2.21127748
1.54067600 3.39490032 -1.27740979
-0.23047309 -1.40281165 -2.37205315
2.45078421 3.64682031 -0.02071896
1.13965023 1.51550162 2.27311015
-2.98927712 -3.31368899 0.02237239
2.78289557 0.67545950 -2.00692081
-4.06195354 1.20177662 1.12017334
-0.13549076 2.66972399 1.95554280
2.74146056 0.79785377 2.00695348
-2.13877130 2.82599425 1.50346696
-0.65938538 1.25347936 2.37881589
-0.14243771 1.09678864 -2.42971468
2.86620617 1.45209789 1.82051456
-0.23029375 0.12344314 2.51246190
-3.48537922 1.49415731 -1.47746086
3.15597224 0.31200957 -1.88051426
-1.76374316 0.86086184 -2.28229928
-4.17069340 -0.09133644 -1.22897911
-0.60607243 1.02686179 2.42042994
-0.64465135 0.73808420 -2.45441103
0.35657582 2.41031075 2.06350756
-0.13811651 0.02659044 -2.51494431
-1.47366273 -3.27723861 -1.39975321
1.47874284 2.04559517 -2.06332350
2.60826635 1.96018922 -1.76080263
-0.79334569 0.58465368 2.45687819
-3.43943238 2.95047379 0.00050934
-3.23356295 2.14966869 -1.34619915
-4.72378635 0.60530257 -0.13331786
-4.30606985 -0.43472686 1.06175089
-1.45363998 3.70821643 0.95854783
2.04057312 0.00846682 2.27566028
2.66289401 3.31527328 0.71373260
4.18612814 -1.89609540 0.46189579
3.43734932 1.93654418 -1.31896818
0.48185280 0.58988631 -2.47870564
-0.79320073 0.40432355 -2.46996999
0.15275738 0.13226047 2.51399946
-1.56707609 3.97447896 0.32824022
-2.58681321 3.56423497 0.13230245
-0.30737001 0.15922347 2.50903797
-0.76060516 3.24065781 -1.57742941
3.80440712 2.04641104 0.92509323
4.37622547 0.41109148 -0.98245203
-4.43310452 0.80819672 -0.81084639
-1.68103683 3.20667434 1.39249158
-1.12724590 1.14718151 -2.34877181
2.87887096 0.31316638 2.00046539
-1.95055163 -3.82223988 0.38553870
4.76565456 0.30066827 -0.08014178
0.12170284 -3.87055111 1.03594959
4.72492743 0.23279677 0.35594618
-0.93237334 0.53743005 -2.44720626
3.10355663 3.11032844 0.51801425
0.07340293 0.16376023 -2.51419568
-4.38686419 1.24897099 -0.67327195
-3.37716722 1.14972746 1.64568067
1.28911126 0.41518471 -2.41066623
2.38914609 1.38556397 2.01902294
3.04030204 2.00522971 1.53601921
3.24619055 2.50644612 -1.09771228
-2.88007951 1.72511005 1.72843885
-2.81222987 -2.99538660 0.99547547
-1.94905877 0.97937483 -2.22319818
-0.26614192 0.17793298 -2.50993276
1.53256810 4.02133656 0.08460985
0.73238188 3.25385332 -1.57156765
-1.28141606 2.47661042 1.93027771
4.72692490 0.20510033 0.35650101
3.39191008 2.59288955 -0.88490236
4.13184547 1.69652390 -0.76836061
-1.55552185 3.81386757 -0.74538600
3.23650217 0.88606399 1.77613330
2.27884889 1.45929039 2.03565717
-1.05064392 3.25135016 -1.52124083
-1.71501505 3.04269767 1.50578356
-1.01028812 1.00775480 -2.38558698
1.83960414 1.91257143 2.02714419
-3.16752267 1.83810890 -1.53796434
-2.48401904 3.11431074 1.10331738
0.24361144 0.45033559 2.49860191
4.29452896 1.64400089 -0.52162266
3.75695729 1.90494692 -1.07026184
-3.03476501 3.08315301 -0.66669935
-0.80815864 1.74345636 2.25471377
-4.56466055 0.15102990 -0.74069315
-2.74065351 3.39667320 0.44966191
2.12892938 0.95720458 -2.18005991
-0.32291770 3.27481580 -1.59321570
0.16818440 -2.91976523 -1.82535040
-0.80885267 2.43404841 -2.01778316
-0.95661378 2.81178236 -1.81730437
-1.74657226 0.82088721 2.29096270
0.10110355 0.30858862 -2.50880694
3 166 179 125
3 47 212 193
3 0 212 51
3 195 212 0
3 211 195 0
3 51 212 210
3 131 166 125
3 247 166 151
3 179 166 247
3 151 166 191
3 191 166 224
3 141 155 195
3 79 212 195
3 79 193 212
3 86 0 51
3 251 0 86
3 51 210 86
3 86 210 166
3 224 166 133
3 166 210 133
3 133 212 224
3 133 210 212
3 125 163 23
3 23 131 125
3 23 163 251
3 251 86 23
3 114 191 224
3 84 191 114
3 154 73 171
3 99 73 154
3 64 191 84
3 42 6 222
3 222 6 139
3 195 155 9
3 47 193 95
3 251 163 146
3 77 217 54
3 131 23 184
3 184 23 86
3 166 131 184
3 184 86 166
3 179 247 74
3 33 247 151
3 151 190 33
3 84 114 27
3 218 64 84
3 155 141 62
3 141 109 62
3 213 109 141
3 211 147 213
3 213 147 109
3 237 207 171
3 164 1 194
3 150 190 151
3 99 54 150
3 150 217 190
3 150 54 217
3 139 143 231
3 231 222 139
3 143 118 244
3 244 231 143
3 222 231 244
3 107 81 6
3 179 74 38
3 209 79 195
3 195 9 209
3 7 98 12
3 165 239 89
3 18 239 48
3 39 0 251
3 251 146 39
3 249 146 219
3 108 163 183
3 125 4 15
3 252 106 17
3 52 156 17
3 156 96 17
3 42 186 140
3 60 107 6
3 82 96 189
3 189 96 156
3 149 54 99
3 37 54 149
3 254 27 65
3 65 27 114
3 87 27 254
3 246 229 121
3 121 27 246
3 27 87 246
3 171 73 223
3 223 121 171
3 223 27 121
3 84 27 223
3 223 218 84
3 168 73 99
3 99 150 168
3 8 212 47
3 224 212 8
3 8 114 224
3 230 141 195
3 230 213 141
3 230 195 211
3 211 213 230
3 11 237 171
3 229 237 11
3 171 121 11
3 121 229 11
3 18 48 35
3 21 192 207
3 207 237 21
3 21 237 229
3 59 85 80
3 80 35 59
3 99 154 58
3 19 48 221
3 19 35 48
3 19 1 59
3 59 35 19
3 155 62 31
3 31 62 109
3 139 6 115
3 6 81 115
3 57 1 227
3 1 164 227
3 123 143 139
3 123 118 143
3 222 244 196
3 42 222 196
3 196 186 42
3 211 205 32
3 32 147 211
3 10 96 82
3 111 106 252
3 36 106 111
3 111 185 36
3 137 185 111
3 29 111 252
3 206 38 74
3 190 217 206
3 206 33 190
3 206 74 247
3 247 33 206
3 120 156 52
3 7 12 119
3 47 95 119
3 119 95 7
3 12 242 119
3 7 95 97
3 79 209 97
3 67 12 98
3 98 242 67
3 67 242 12
3 113 45 44
3 44 196 113
3 186 196 44
3 249 219 161
3 0 39 94
3 167 45 113
3 249 45 167
3 100 146 163
3 100 219 146
3 100 163 108
3 226 255 216
3 216 183 226
3 108 183 216
3 134 255 226
3 162 60 6
3 162 41 117
3 140 41 162
3 162 6 42
3 42 140 162
3 37 152 159
3 77 54 159
3 159 54 37
3 176 217 77
3 77 159 176
3 176 159 189
3 176 120 38
3 176 206 217
3 38 206 176
3 89 182 157
3 64 218 127
3 73 168 127
3 127 223 73
3 218 223 127
3 88 168 150
3 191 64 88
3 151 191 88
3 88 150 151
3 187 70 53
3 187 53 202
3 202 53 8
3 18 35 129
3 129 182 89
3 35 80 129
3 89 239 129
3 129 239 18
3 112 1 57
3 59 1 112
3 112 85 59
3 85 21 169
3 169 80 85
3 169 21 229
3 182 129 169
3 169 129 80
3 188 149 99
3 99 58 188
3 207 192 241
3 171 207 241
3 241 154 171
3 241 58 154
3 245 152 37
3 81 107 5
3 200 112 57
3 192 112 200
3 83 19 221
3 221 31 83
3 83 31 71
3 204 31 109
3 71 31 204
3 139 115 101
3 101 115 81
3 81 227 101
3 101 227 164
3 139 101 116
3 116 123 139
3 116 22 118
3 118 123 116
3 147 32 232
3 232 244 118
3 49 203 160
3 250 203 49
3 107 60 75
3 75 250 49
3 144 117 137
3 137 111 144
3 111 29 144
3 179 38 122
3 125 179 122
3 122 4 125
3 4 122 148
3 148 120 52
3 38 120 148
3 148 122 38
3 221 48 174
3 174 31 221
3 47 119 199
3 199 119 242
3 7 97 132
3 132 98 7
3 126 95 193
3 126 97 95
3 193 79 126
3 79 97 126
3 72 140 186
3 72 41 140
3 72 185 137
3 137 117 72
3 117 41 72
3 46 44 45
3 46 45 249
3 249 161 46
3 186 44 46
3 46 72 186
3 46 161 185
3 185 72 46
3 55 161 219
3 219 100 55
3 36 185 55
3 185 161 55
3 0 94 43
3 43 205 211
3 211 0 43
3 177 94 39
3 135 32 205
3 205 43 135
3 135 43 94
3 63 39 146
3 63 146 249
3 249 167 63
3 63 177 39
3 167 177 63
3 16 17 208
3 208 225 16
3 52 17 16
3 16 225 52
3 124 225 208
3 238 24 181
3 238 124 208
3 181 24 173
3 36 134 173
3 173 134 181
3 173 106 36
3 173 24 106
3 130 159 152
3 189 159 130
3 82 189 130
3 156 120 240
3 120 176 240
3 240 189 156
3 240 176 189
3 104 180 87
3 104 87 254
3 104 70 187
3 187 180 104
3 104 53 70
3 34 180 187
3 187 202 34
3 34 202 242
3 172 246 87
3 87 180 172
3 180 34 172
3 182 169 105
3 229 246 105
3 105 169 229
3 145 165 89
3 89 157 145
3 64 127 103
3 103 127 168
3 103 88 64
3 168 88 103
3 175 8 47
3 175 202 8
3 192 21 76
3 76 112 192
3 76 21 85
3 85 112 76
3 201 188 248
3 248 188 58
3 58 241 248
3 248 241 192
3 192 200 248
3 149 188 13
3 201 110 13
3 13 188 201
3 37 149 13
3 13 245 37
3 152 245 3
3 82 130 3
3 3 130 152
3 66 227 81
3 81 5 66
3 57 227 66
3 68 110 201
3 68 200 110
3 201 248 68
3 68 248 200
3 61 66 5
3 61 200 57
3 57 66 61
3 19 83 90
3 194 1 90
3 1 19 90
3 71 204 158
3 158 204 109
3 109 147 158
3 147 22 158
3 147 232 243
3 243 232 118
3 243 22 147
3 118 22 243
3 96 10 236
3 236 203 96
3 236 160 203
3 203 250 136
3 136 29 252
3 136 250 29
3 228 75 60
3 228 144 29
3 29 250 228
3 250 75 228
3 117 144 228
3 228 162 117
3 60 162 228
3 30 15 4
3 4 148 30
3 30 148 52
3 52 225 30
3 30 225 15
3 31 174 78
3 239 165 235
3 165 132 235
3 235 48 239
3 36 55 69
3 69 134 36
3 255 134 69
3 197 55 100
3 197 69 55
3 26 167 113
3 26 177 167
3 94 177 26
3 113 135 26
3 26 135 94
3 50 196 244
3 32 135 50
3 113 196 50
3 50 135 113
3 244 232 50
3 50 232 32
3 15 225 178
3 225 124 178
3 178 56 15
3 124 56 178
3 138 238 208
3 24 238 138
3 106 24 138
3 208 17 138
3 138 17 106
3 53 104 102
3 102 65 114
3 254 65 102
3 102 104 254
3 114 8 102
3 8 53 102
3 153 242 98
3 153 34 242
3 157 34 153
3 153 145 157
3 98 132 153
3 153 132 165
3 165 145 153
3 40 34 157
3 40 172 34
3 40 157 182
3 182 105 40
3 246 172 40
3 40 105 246
3 20 199 242
3 242 202 20
3 202 175 20
3 47 199 20
3 20 175 47
3 49 160 14
3 215 90 83
3 215 83 71
3 71 158 215
3 194 90 215
3 215 158 22
3 22 116 215
3 215 164 194
3 215 101 164
3 215 116 101
3 2 236 10
3 160 236 2
3 10 14 2
3 2 14 160
3 253 136 252
3 203 136 253
3 96 203 253
3 252 17 253
3 253 17 96
3 31 78 234
3 234 78 91
3 155 31 234
3 234 9 155
3 234 209 9
3 234 91 209
3 25 132 97
3 25 235 132
3 25 97 209
3 128 100 108
3 128 197 100
3 108 216 128
3 128 216 255
3 255 69 128
3 69 197 128
3 124 238 28
3 28 56 124
3 226 183 92
3 92 183 163
3 92 163 125
3 125 15 92
3 15 56 92
3 49 14 142
3 142 14 61
3 142 61 5
3 142 75 49
3 142 5 107
3 107 75 142
3 110 200 93
3 200 61 93
3 93 13 110
3 245 13 93
3 93 3 245
3 82 3 93
3 235 25 220
3 220 78 174
3 220 174 48
3 48 235 220
3 198 134 226
3 226 92 198
3 181 134 198
3 198 92 56
3 233 14 10
3 233 10 82
3 82 93 233
3 61 14 233
3 233 93 61
3 170 220 25
3 209 91 170
3 170 25 209
3 91 78 170
3 78 220 170
3 181 198 214
3 214 238 181
3 214 28 238
3 56 28 214
3 214 198 56