ply
format ascii 1.0
comment https://github.com/mikedh/trimesh
element vertex 256
property float x
property float y
property float z
element face 508
property list uchar int vertex_indices
end_header
2.70765948 -0.99585700 -0.57999742
1.43014002 1.28653407 1.45846069
-0.90312123 1.25999713 -2.12418389
-2.16222477 1.11166859 -1.42587805
-2.30414462 0.05646820 -3.47395706
0.45051262 1.43320656 -1.12130892
1.34267497 1.23527908 -1.90373230
1.03996110 0.10520861 4.26223660
-0.34320143 0.00704995 4.43472052
2.64054108 0.14592266 3.08036733
-0.99794650 1.26163077 -2.05641007
-1.33017004 0.89926457 3.17122746
0.48375633 0.13782862 4.39608574
-2.36784983 1.13395059 -0.47571629
-0.76789337 1.36618233 -1.53674829
-1.94099259 0.19051597 -3.74427509
-1.69584095 0.55825949 -3.58751178
-1.13242459 0.79782951 -3.50713038
1.47667706 0.79039335 3.33084059
2.05099225 1.04131222 2.01587582
0.00883825 0.05285468 4.45076370
-0.50471222 1.25462711 2.33629107
3.06789088 0.82952476 0.06462815
-0.39472395 -0.98571175 -3.31111789
-0.48975328 0.45310393 -4.20233440
1.93445563 0.26584798 3.70859861
2.50451088 0.17091502 -3.23043013
-1.57828820 0.35305536 3.88541770
-0.92066962 0.19779310 -4.27219677
0.27430892 1.07193971 -3.08227301
-2.01518440 0.20077841 -3.68334961
2.76811385 0.60551095 2.32615304
3.40683603 0.28552246 -1.48360670
-3.55003715 0.08806168 -1.18705440
-0.39012969 0.36266914 4.29429340
1.11638832 1.00386882 3.00812888
0.19828482 0.33266339 -4.33488226
-2.68321609 0.99315357 -0.75462943
-2.91488695 0.29021952 -2.59065032
2.19335818 0.04943172 -3.57861233
-0.12045324 0.61856973 4.05040026
1.46070111 0.94623417 -2.96007037
1.96813977 0.91585773 -2.59491825
3.36851287 0.11127906 -1.78656721
2.23533368 0.52118075 -3.18326330
2.18588924 0.39489451 -3.38926148
2.07438064 0.55532128 -3.29003644
0.04639574 0.01903691 4.45271635
1.78471506 0.74295926 3.20633197
-0.20042633 1.30653429 -2.14203238
2.92006969 0.54927623 -2.17417860
-0.42564726 -1.48085868 0.23793465
-1.89763629 0.56098109 -3.43373871
-0.68869358 0.10600081 4.36485910
-3.09474182 0.81126648 -0.16611703
0.85212326 0.20027013 -4.29154062
-0.95647025 0.17884353 -4.26839113
0.45079666 1.46412182 0.67683768
-2.45013595 1.04233551 1.19581890
0.75958794 1.20814896 2.45058942
0.98800343 1.23675144 -2.19083190
-0.25233325 1.46485758 -0.80656105
3.33821297 0.34496841 1.59647381
2.12782669 0.15741532 -3.60754848
-3.13728356 0.15623181 2.29805779
-1.40302789 0.13660504 4.09969997
0.53111911 1.47472596 -0.26334724
0.37681931 0.23092361 4.37648582
-1.84928977 1.28906906 0.24207370
0.24839123 0.30198443 -4.35113239
-0.67572016 0.20457317 4.33532047
2.83708405 0.78688794 1.61435056
1.56430757 0.78747457 -3.28002596
-2.77316022 0.64527321 2.22211266
-3.31825972 0.03800260 -1.94462812
0.29656485 1.30317199 -2.14322066
-0.26627576 1.32610583 2.02131867
-3.16071844 0.67055851 -1.12941742
2.23279548 0.47761559 3.24755478
1.82419872 0.02582075 3.87017226
0.32031471 1.11113799 2.95036459
1.55044079 1.32720065 -0.81245160
-2.09274864 1.08174527 -1.74319863
2.47896218 0.92869097 1.79202163
-2.50334549 0.18052007 3.22764397
0.25116020 1.18217456 2.70330715
-0.39483786 -1.35430157 -1.81469917
-0.85587990 0.41583642 4.15043688
-3.50161576 0.14604872 1.33255064
0.73842746 0.63717353 3.92824054
2.10329437 1.12941182 1.42939365
2.31904817 0.34058249 3.31195712
-0.67215061 0.03322363 -4.37792444
-1.50931251 1.31868410 -1.02009618
2.95656276 0.07438808 -2.65494275
1.19617558 0.06080685 4.20899773
-0.97939056 1.09575963 -2.78548169
1.72777474 0.16162230 3.90633559
0.40931118 0.27410188 4.34978771
-2.96296716 0.87854546 0.41451949
0.81971329 0.07591301 -4.33615589
1.90570903 1.27824116 -0.09752813
-0.79882854 0.11407149 4.33445072
-3.14814138 0.40407544 1.98541367
-0.70940673 0.20672598 4.32701445
-0.46683463 0.67609787 3.93080831
-0.26832750 0.65786874 -3.98484731
0.64195967 1.38181925 -1.49884939
0.11563807 0.00913174 -4.45115900
3.33388376 0.41437474 1.45671308
-1.86099684 1.28726804 -0.19126283
0.54667866 0.83378702 -3.63448286
0.10650094 1.38898838 1.63095975
2.48875117 0.33663437 -3.13117433
-1.70715165 -0.00944814 3.94795084
1.68036211 1.30335987 -0.78532577
2.89530993 0.92174989 -0.23256129
1.15326607 1.00157869 -2.99530125
3.07676578 0.75812715 -0.96866328
0.26593319 0.07228936 4.43683290
-2.57528687 0.42694086 -2.92443633
-1.89646924 0.65850455 3.27756262
-2.50716162 0.05999033 -3.26388240
2.80553365 0.89238816 -1.12911308
-1.30575323 0.30846691 -4.06219864
-2.08462358 -0.48699892 -3.37566829
1.64634192 0.05637158 3.98199534
-2.80067325 0.46994415 2.53724170
0.30415234 0.14671281 -4.41655874
0.61047953 0.88780946 3.50360608
-2.35614729 0.99981093 -1.68876612
-1.24675488 -1.11454511 -2.55214000
1.01143801 0.37670857 4.13289165
-2.00783205 -1.19479167 1.12069702
-0.38866830 0.17837819 -4.39692354
3.00999546 0.14367843 -2.53926349
-0.35030651 1.12452817 -2.89837813
0.81778783 0.83886576 -3.55079460
-0.72563118 0.44364071 -4.16109753
2.31641340 1.12279320 -0.89072484
1.85644364 0.91395491 -2.71652818
3.55573368 0.06312633 1.17734516
-0.21669258 1.41224205 -1.42560983
2.67049503 0.90344715 -1.47808266
0.82058513 0.97896075 -3.21318412
0.42504418 0.54543257 4.11436701
1.70928705 0.08713055 -3.93826866
3.40709209 0.51193744 -0.77479392
-2.29001307 0.24852479 -3.41381383
-2.69925213 1.01585174 -0.17927952
-3.58246684 0.32163167 0.46714202
-3.67817211 0.09477118 -0.20483112
-2.43433881 1.02436352 -1.36480188
0.38493049 0.36369303 4.29412317
-2.56855297 0.92629677 1.61021650
3.01290941 0.20541795 2.49585772
-2.31933522 0.65310115 -2.86338544
0.22971798 0.58983803 4.08184338
3.07604861 0.74060291 1.08056247
-2.87242246 0.81903452 -1.35926938
-0.75970858 1.24314904 -2.28851175
1.48639345 0.38292789 -3.91393471
1.18925118 1.19320881 -2.26100016
-0.17790268 -0.49304754 -4.19850588
1.89176571 1.28175128 -0.03667232
0.87969851 0.53265476 4.02337790
-2.30742955 -1.16466534 0.03959886
2.14812326 0.23740438 -3.55222607
-3.13543081 0.42238954 1.98269331
-0.10458562 0.93833035 3.46128726
2.11613941 0.28042242 3.55228376
-1.65092230 0.99325484 2.66111851
-0.50898099 0.44056156 4.21047544
-0.10994798 0.38548931 -4.30056572
2.21243072 0.51037019 3.22228885
-0.17776425 0.04338668 4.44702721
-2.69037175 0.52515286 -2.61508822
2.43610191 0.10966229 -3.32848763
-1.36143720 0.30256790 -4.03964233
-3.21936727 -0.03210210 -2.17527843
-0.46782863 0.36091205 4.28413200
-0.49760777 0.25941515 -4.34427834
0.27524167 0.84715414 3.65238357
-0.10661243 0.00934577 -4.45142126
-1.13752353 -1.15185404 -2.47754645
1.14144480 0.71896726 -3.65205789
2.01332641 0.68894953 -3.11659956
-0.61238527 0.20548877 4.34864521
-2.65490556 1.03700578 0.00090153
-2.49599433 0.75554603 -2.38275647
-3.64630127 0.21274626 -0.23597102
-3.32386470 -0.15279385 1.87928641
-1.12206793 1.30333030 1.69661820
1.57512283 0.00297584 4.02789164
2.05549383 1.16522217 1.26329815
3.23128152 -0.66642243 0.81755000
2.65329742 0.68063897 -2.33455801
0.37194324 0.20732789 -4.38727903
-0.61227340 0.14210798 -4.37181759
0.11791375 0.04648571 4.44974899
-1.20962954 1.39691389 0.58098125
-1.99676681 1.25272501 0.23417374
-0.23725958 0.05596242 4.44096708
-0.58711278 1.13899708 -2.79203129
2.93663025 0.71925396 1.63740396
3.37801814 0.14448670 -1.73892832
-3.42192316 0.28405768 -1.43518841
-1.29759598 1.12705278 2.46469355
-0.87012362 0.40320095 -4.15729809
2.22220683 0.11006888 3.54079986
-1.50563514 -1.34340620 0.68239886
3.67861915 0.10567616 -0.14184999
0.09394269 -1.36038613 1.83361840
3.64718175 0.08182130 0.63002050
-0.71970105 0.18889104 -4.33152580
2.39564228 1.09319007 0.91687906
0.05665988 0.05755696 -4.45009613
-3.38622999 0.43897697 -1.19168329
-2.60684276 0.40409577 2.91283512
0.99506783 0.14592536 -4.26685047
1.84418714 0.48698547 3.57364631
2.34681582 0.70477998 2.71873546
2.50574160 0.88094300 -1.94293761
-2.22313952 0.60632604 3.05931616
-2.17076635 -1.05279136 1.76197970
-1.50448275 0.34422177 -3.93503428
-0.20543554 0.06253827 -4.44255066
1.18299270 1.41338277 0.14975843
0.56532717 1.14363480 -2.78165603
-0.98912781 0.87045658 3.41656828
3.64872384 0.07208680 0.63100255
2.61822271 0.91132534 -1.56626666
3.18938065 0.59627885 -1.35998905
-1.20071065 1.34046352 -1.31932437
2.49826312 0.31142575 3.14373469
1.75904846 0.51289815 3.60308886
-0.81099433 1.14275503 -2.69257808
-1.32382381 1.06941974 2.66521907
-0.77984363 0.35419652 -4.22246075
1.41999447 0.67221326 3.58802104
-2.44501758 0.64604187 -2.72217846
-1.91741967 1.09458971 1.95285845
0.18804421 0.15827987 4.42249537
3.31495619 0.57781851 -0.92326593
2.90000367 0.66953349 -1.89435065
-2.34254169 1.08363867 -1.18004990
-0.62381941 0.61277425 3.99081635
-3.52347159 0.05308262 -1.31101811
-2.11551642 1.19383192 0.79589617
1.64332533 0.33642960 -3.85868001
-0.24926089 1.15100253 -2.81997275
0.12982191 -1.02621257 -3.23084831
-0.62435514 0.85549730 -3.57145214
-0.73841226 0.98825979 -3.21660709
-1.34818304 0.28851801 4.05497646
0.07804205 0.10845993 -4.44055843
3 166 179 125
3 47 212 193
3 0 212 51
3 195 212 0
3 211 195 0
3 51 212 210
3 131 166 125
3 247 166 151
3 179 166 247
3 151 166 191
3 191 166 224
3 141 155 195
3 79 212 195
3 79 193 212
3 86 0 51
3 251 0 86
3 51 210 86
3 86 210 166
3 224 166 133
3 166 210 133
3 133 212 224
3 133 210 212
3 125 163 23
3 23 131 125
3 23 163 251
3 251 86 23
3 114 191 224
3 84 191 114
3 154 73 171
3 99 73 154
3 64 191 84
3 42 6 222
3 222 6 139
3 195 155 9
3 47 193 95
3 251 163 146
3 77 217 54
3 131 23 184
3 184 23 86
3 166 131 184
3 184 86 166
3 179 247 74
3 33 247 151
3 151 190 33
3 84 114 27
3 218 64 84
3 155 141 62
3 141 109 62
3 213 109 141
3 211 147 213
3 213 147 109
3 237 207 171
3 164 1 194
3 150 190 151
3 99 54 150
3 150 217 190
3 150 54 217
3 139 143 231
3 231 222 139
3 143 118 244
3 244 231 143
3 222 231 244
3 107 81 6
3 179 74 38
3 209 79 195
3 195 9 209
3 7 98 12
3 165 239 89
3 18 239 48
3 39 0 251
3 251 146 39
3 249 146 219
3 108 163 183
3 125 4 15
3 252 106 17
3 52 156 17
3 156 96 17
3 42 186 140
3 60 107 6
3 82 96 189
3 189 96 156
3 149 54 99
3 37 54 149
3 254 27 65
3 65 27 114
3 87 27 254
3 246 229 121
3 121 27 246
3 27 87 246
3 171 73 223
3 223 121 171
3 223 27 121
3 84 27 223
3 223 218 84
3 168 73 99
3 99 150 168
3 8 212 47
3 224 212 8
3 8 114 224
3 230 141 195
3 230 213 141
3 230 195 211
3 211 213 230
3 11 237 171
3 229 237 11
3 171 121 11
3 121 229 11
3 18 48 35
3 21 192 207
3 207 237 21
3 21 237 229
3 59 85 80
3 80 35 59
3 99 154 58
3 19 48 221
3 19 35 48
3 19 1 59
3 59 35 19
3 155 62 31
3 31 62 109
3 139 6 115
3 6 81 115
3 57 1 227
3 1 164 227
3 123 143 139
3 123 118 143
3 222 244 196
3 42 222 196
3 196 186 42
3 211 205 32
3 32 147 211
3 10 96 82
3 111 106 252
3 36 106 111
3 111 185 36
3 137 185 111
3 29 111 252
3 206 38 74
3 190 217 206
3 206 33 190
3 206 74 247
3 247 33 206
3 120 156 52
3 7 12 119
3 47 95 119
3 119 95 7
3 12 242 119
3 7 95 97
3 79 209 97
3 67 12 98
3 98 242 67
3 67 242 12
3 113 45 44
3 44 196 113
3 186 196 44
3 249 219 161
3 0 39 94
3 167 45 113
3 249 45 167
3 100 146 163
3 100 219 146
3 100 163 108
3 226 255 216
3 216 183 226
3 108 183 216
3 134 255 226
3 162 60 6
3 162 41 117
3 140 41 162
3 162 6 42
3 42 140 162
3 37 152 159
3 77 54 159
3 159 54 37
3 176 217 77
3 77 159 176
3 176 159 189
3 176 120 38
3 176 206 217
3 38 206 176
3 89 182 157
3 64 218 127
3 73 168 127
3 127 223 73
3 218 223 127
3 88 168 150
3 191 64 88
3 151 191 88
3 88 150 151
3 187 70 53
3 187 53 202
3 202 53 8
3 18 35 129
3 129 182 89
3 35 80 129
3 89 239 129
3 129 239 18
3 112 1 57
3 59 1 112
3 112 85 59
3 85 21 169
3 169 80 85
3 169 21 229
3 182 129 169
3 169 129 80
3 188 149 99
3 99 58 188
3 207 192 241
3 171 207 241
3 241 154 171
3 241 58 154
3 245 152 37
3 81 107 5
3 200 112 57
3 192 112 200
3 83 19 221
3 221 31 83
3 83 31 71
3 204 31 109
3 71 31 204
3 139 115 101
3 101 115 81
3 81 227 101
3 101 227 164
3 139 101 116
3 116 123 139
3 116 22 118
3 118 123 116
3 147 32 232
3 232 244 118
3 49 203 160
3 250 203 49
3 107 60 75
3 75 250 49
3 144 117 137
3 137 111 144
3 111 29 144
3 179 38 122
3 125 179 122
3 122 4 125
3 4 122 148
3 148 120 52
3 38 120 148
3 148 122 38
3 221 48 174
3 174 31 221
3 47 119 199
3 199 119 242
3 7 97 132
3 132 98 7
3 126 95 193
3 126 97 95
3 193 79 126
3 79 97 126
3 72 140 186
3 72 41 140
3 72 185 137
3 137 117 72
3 117 41 72
3 46 44 45
3 46 45 249
3 249 161 46
3 186 44 46
3 46 72 186
3 46 161 185
3 185 72 46
3 55 161 219
3 219 100 55
3 36 185 55
3 185 161 55
3 0 94 43
3 43 205 211
3 211 0 43
3 177 94 39
3 135 32 205
3 205 43 135
3 135 43 94
3 63 39 146
3 63 146 249
3 249 167 63
3 63 177 39
3 167 177 63
3 16 17 208
3 208 225 16
3 52 17 16
3 16 225 52
3 124 225 208
3 238 24 181
3 238 124 208
3 181 24 173
3 36 134 173
3 173 134 181
3 173 106 36
3 173 24 106
3 130 159 152
3 189 159 130
3 82 189 130
3 156 120 240
3 120 176 240
3 240 189 156
3 240 176 189
3 104 180 87
3 104 87 254
3 104 70 187
3 187 180 104
3 104 53 70
3 34 180 187
3 187 202 34
3 34 202 242
3 172 246 87
3 87 180 172
3 180 34 172
3 182 169 105
3 229 246 105
3 105 169 229
3 145 165 89
3 89 157 145
3 64 127 103
3 103 127 168
3 103 88 64
3 168 88 103
3 175 8 47
3 175 202 8
3 192 21 76
3 76 112 192
3 76 21 85
3 85 112 76
3 201 188 248
3 248 188 58
3 58 241 248
3 248 241 192
3 192 200 248
3 149 188 13
3 201 110 13
3 13 188 201
3 37 149 13
3 13 245 37
3 152 245 3
3 82 130 3
3 3 130 152
3 66 227 81
3 81 5 66
3 57 227 66
3 68 110 201
3 68 200 110
3 201 248 68
3 68 248 200
3 61 66 5
3 61 200 57
3 57 66 61
3 19 83 90
3 194 1 90
3 1 19 90
3 71 204 158
3 158 204 109
3 109 147 158
3 147 22 158
3 147 232 243
3 243 232 118
3 243 22 147
3 118 22 243
3 96 10 236
3 236 203 96
3 236 160 203
3 203 250 136
3 136 29 252
3 136 250 29
3 228 75 60
3 228 144 29
3 29 250 228
3 250 75 228
3 117 144 228
3 228 162 117
3 60 162 228
3 30 15 4
3 4 148 30
3 30 148 52
3 52 225 30
3 30 225 15
3 31 174 78
3 239 165 235
3 165 132 235
3 235 48 239
3 36 55 69
3 69 134 36
3 255 134 69
3 197 55 100
3 197 69 55
3 26 167 113
3 26 177 167
3 94 177 26
3 113 135 26
3 26 135 94
3 50 196 244
3 32 135 50
3 113 196 50
3 50 135 113
3 244 232 50
3 50 232 32
3 15 225 178
3 225 124 178
3 178 56 15
3 124 56 178
3 138 238 208
3 24 238 138
3 106 24 138
3 208 17 138
3 138 17 106
3 53 104 102
3 102 65 114
3 254 65 102
3 102 104 254
3 114 8 102
3 8 53 102
3 153 242 98
3 153 34 242
3 157 34 153
3 153 145 157
3 98 132 153
3 153 132 165
3 165 145 153
3 40 34 157
3 40 172 34
3 40 157 182
3 182 105 40
3 246 172 40
3 40 105 246
3 20 199 242
3 242 202 20
3 202 175 20
3 47 199 20
3 20 175 47
3 49 160 14
3 215 90 83
3 215 83 71
3 71 158 215
3 194 90 215
3 215 158 22
3 22 116 215
3 215 164 194
3 215 101 164
3 215 116 101
3 2 236 10
3 160 236 2
3 10 14 2
3 2 14 160
3 253 136 252
3 203 136 253
3 96 203 253
3 252 17 253
3 253 17 96
3 31 78 234
3 234 78 91
3 155 31 234
3 234 9 155
3 234 209 9
3 234 91 209
3 25 132 97
3 25 235 132
3 25 97 209
3 128 100 108
3 128 197 100
3 108 216 128
3 128 216 255
3 255 69 128
3 69 197 128
3 124 238 28
3 28 56 124
3 226 183 92
3 92 183 163
3 92 163 125
3 125 15 92
3 15 56 92
3 49 14 142
3 142 14 61
3 142 61 5
3 142 75 49
3 142 5 107
3 107 75 142
3 110 200 93
3 200 61 93
3 93 13 110
3 245 13 93
3 93 3 245
3 82 3 93
3 235 25 220
3 220 78 174
3 220 174 48
3 48 235 220
3 198 134 226
3 226 92 198
3 181 134 198
3 198 92 56
3 233 14 10
3 233 10 82
3 82 93 233
3 61 14 233
3 233 93 61
3 170 220 25
3 209 91 170
3 170 25 209
3 91 78 170
3 78 220 170
3 181 198 214
3 214 238 181
3 214 28 238
3 56 28 214
3 214 198 56