ply
format ascii 1.0
comment https://github.com/mikedh/trimesh
element vertex 256
property float x
property float y
property float z
element face 508
property list uchar int vertex_indices
end_header
2.68742990 -1.41692770 -0.40048504
1.41945505 1.83050942 1.00705910
-0.89637387 1.79275227 -1.46673739
-2.14607024 1.58170700 -0.98456097
-2.28692985 0.08034423 -2.39874840
0.44714674 2.03919840 -0.77425766
1.33264351 1.75758278 -1.31451666
1.03219128 0.14969318 2.94305086
-0.34063730 0.01003083 3.06215024
2.62081313 0.20762204 2.12697673
-0.99049062 1.79507661 -1.41993988
-1.32023203 1.27949381 2.18971515
0.48014209 0.19610566 3.03547287
-2.35015917 1.61341035 -0.32847950
-0.76215631 1.94383490 -1.06111622
-1.92649102 0.27107039 -2.58540130
-1.68317091 0.79430413 -2.47715712
-1.12396407 1.13516974 -2.42165422
1.46564448 1.12458944 2.29992700
2.03566885 1.48160243 1.39195120
0.00877221 0.07520283 3.07322764
-0.50094146 1.78511155 1.61319613
3.04496980 1.18026638 0.04462538
-0.39177489 -1.40249276 -2.28630877
-0.48609424 0.64468646 -2.90168881
1.92000282 0.37825447 2.56076694
2.48579931 0.24318174 -2.23059416
-1.56649649 0.50233507 2.68285942
-0.91379112 0.28142443 -2.94992828
0.27225947 1.52517986 -2.12829256
-2.00012851 0.28567201 -2.54333258
2.74743271 0.86153460 1.60619593
3.38138270 0.40624776 -1.02442229
-3.52351403 0.12529613 -0.81965452
-0.38721493 0.51601380 2.96518612
1.10804760 1.42832708 2.07709646
0.19680339 0.47332093 -2.99321246
-2.66316915 1.41308117 -0.52106750
-2.89310932 0.41293082 -1.78882992
2.17697120 0.07033256 -2.47101212
-0.11955331 0.88011485 2.79677916
1.44978797 1.34632325 -2.04391241
1.95343530 1.30310297 -1.79177678
3.34334588 0.15833035 -1.23361480
2.21863294 0.74154764 -2.19802570
2.16955781 0.56186479 -2.34026647
2.05888247 0.79012358 -2.27175212
0.04604911 0.02708614 3.07457614
1.77138114 1.05709910 2.21395469
-0.19892891 1.85896635 -1.47906160
2.89825320 0.78152257 -1.50125837
-0.42246714 -2.10699892 0.16429257
-1.88345873 0.79817647 -2.37097764
-0.68354821 0.15082033 3.01391125
-3.07162023 1.15428817 -0.11470290
0.84575683 0.28494883 -2.96328497
-0.94932425 0.25446260 -2.94730067
0.44742867 2.08318520 0.46735272
-2.43183041 1.48305833 0.82570642
0.75391293 1.71898139 1.69211864
0.98062187 1.75967765 -1.51275742
-0.25044802 2.08423209 -0.55692595
3.31327248 0.49082881 1.10235631
2.11192918 0.22397405 -2.49099255
-3.11384439 0.22229013 1.58679640
-1.39254558 0.19436471 2.83082032
0.52715105 2.09827328 -0.18183982
0.37400401 0.32856330 3.02193928
-1.83547330 1.83411634 0.16715056
0.24653544 0.42967021 -3.00443316
-0.67067170 0.29107130 2.99351501
2.81588745 1.11960185 1.11470020
1.55262029 1.12043643 -2.26483989
-2.75244141 0.91810924 1.53435659
-3.29346824 0.05407095 -1.34275496
0.29434916 1.85418236 -1.47988212
-0.26428634 1.88681316 1.39570951
-3.13710403 0.95408565 -0.77985650
2.21611381 0.67956221 2.24241877
1.81056964 0.03673834 2.67233276
0.31792155 1.58095205 2.03721046
1.53885710 1.88837087 -0.56099337
-2.07711339 1.53913140 -1.20366907
2.46044135 1.32136238 1.23738110
-2.48464251 0.25684801 2.22867036
0.24928375 1.68202448 1.86661863
-0.39188793 -1.92693055 -1.25303984
-0.84948546 0.59166139 2.86585402
-3.47545433 0.20780139 0.92011893
0.73291051 0.90658480 2.71242833
2.08758020 1.60695243 0.98698843
2.30172205 0.48458841 2.28688812
-0.66712886 0.04727133 -3.02293277
-1.49803603 1.87625337 -0.70437080
2.93447375 0.10584103 -1.83322334
1.18723869 0.08651735 2.90628982
-0.97207338 1.55907130 -1.92335975
1.71486616 0.22995983 2.69730330
0.40625310 0.38999832 3.00350451
-2.94083023 1.25001419 0.28622344
0.81358904 0.10801074 -2.99409199
1.89147103 1.81871021 -0.06734264
-0.79286033 0.16230348 2.99291420
-3.12462091 0.57492763 1.37091720
-0.70410663 0.29413435 2.98777962
-0.46334681 0.96196723 2.71420145
-0.26632279 0.93603045 -2.75151515
0.63716340 1.96608353 -1.03494728
0.11477411 0.01299285 -3.07350063
3.30897570 0.58958167 1.00585234
-1.84709287 1.83155394 -0.13206592
0.54259425 1.18633091 -2.50959063
0.10570525 1.97628379 1.12616873
2.47015715 0.47897092 -2.16205859
-1.69439721 -0.01344303 2.72603822
1.66780770 1.85444963 -0.54226309
2.87367845 1.31148636 -0.16058229
1.14464986 1.42506862 -2.06823921
3.05377865 1.07868028 -0.66885668
0.26394635 0.10285493 3.06360865
-2.55604625 0.60746104 -2.01930714
-1.88230026 0.93693501 2.26313901
-2.48843026 0.08535559 -2.25369287
2.78457284 1.26970983 -0.77964640
-1.29599774 0.43889365 -2.80492592
-2.06904888 -0.69291294 -2.33088040
1.63404179 0.08020675 2.74954605
-2.77974892 0.66864705 1.75195146
0.30187994 0.20874627 -3.04960966
0.60591853 1.26319528 2.41922069
-2.33854389 1.42255342 -1.16608369
-1.23744011 -1.58579981 -1.76223874
1.00388134 0.53598940 2.85373878
-1.99283111 -1.69997644 0.77383512
-0.38576445 0.25380048 -3.03605175
2.98750710 0.20442890 -1.75334752
-0.34768930 1.60000396 -2.00131416
0.81167793 1.19355702 -2.45180416
-0.72020984 0.63122195 -2.87321496
2.29910684 1.59753537 -0.61504060
1.84257376 1.30039561 -1.87574780
3.52916813 0.08981756 0.81295037
-0.21507363 2.00936961 -0.98437572
2.65054321 1.28544486 -1.02060795
0.81445438 1.39288735 -2.21868587
0.42186856 0.77605373 2.84094787
1.69651651 0.12397131 -2.71935296
3.38163710 0.72839606 -0.53499097
-2.27290392 0.35360664 -2.35721970
-2.67908549 1.44537663 -0.12379152
-3.55570149 0.45762476 0.32255900
-3.65069175 0.13484254 -0.14143476
-2.41615152 1.45748734 -0.94238824
0.38205460 0.51747060 2.96506858
-2.54936266 1.31795585 1.11184561
2.99039936 0.29227325 1.72337615
-2.30200696 0.92924696 -1.97715187
0.22800171 0.83923477 2.81849051
3.05306673 1.05374646 0.74612248
-2.85096192 1.16534066 -0.93856806
-0.75403267 1.76878023 -1.58020484
1.47528827 0.54483837 -2.70255041
1.18036604 1.69772422 -1.56120813
-0.17657353 -0.70151907 -2.89904523
1.87763190 1.82370448 -0.02532203
0.87312609 0.75787318 2.77812028
-2.29019022 -1.65711200 0.02734280
2.13207412 0.33778429 -2.45279264
-3.11200547 0.60098529 1.36903882
-0.10380424 1.33507752 2.38999987
2.10032916 0.39899129 2.45283246
-1.63858795 1.41322529 1.83748770
-0.50517827 0.62684083 2.90731025
-0.10912653 0.54848284 -2.96951699
2.19590116 0.72616619 2.22497272
-0.17643614 0.06173154 3.07064795
-2.67027140 0.74719930 -1.80570400
2.41790128 0.15602997 -2.29830241
-1.35126555 0.43050039 -2.78935075
-3.19531465 -0.04567559 -1.50201774
-0.46433339 0.51351374 2.95816970
-0.49389005 0.36910167 -2.99970031
0.27318528 1.20534992 2.52195096
-0.10581591 0.01329737 -3.07368207
-1.12902486 -1.63888383 -1.71073222
1.13291681 1.02296269 -2.52172589
1.99828446 0.98025286 -2.15199494
-0.60781002 0.29237404 3.00271559
-2.63507009 1.47547507 0.00062250
-2.47734618 1.07500780 -1.64528024
-3.61905885 0.30270016 -0.16293669
-3.29903126 -0.21739852 1.29763699
-1.11368465 1.85440755 1.17150557
1.56335473 0.00423409 2.78123713
2.04013681 1.65790427 0.87230045
3.20713973 -0.94820076 0.56451380
2.63347411 0.96842843 -1.61199951
0.36916438 0.29499078 -3.02939224
-0.60769892 0.20219441 -3.01871586
0.11703279 0.06614091 3.07252717
-1.20059216 1.98756039 0.40116438
-1.98184860 1.78240526 0.16169569
-0.23548697 0.07962459 3.06646323
-0.58272636 1.62059057 -1.92788219
2.91469002 1.02337062 1.13061845
3.35278034 0.20557891 -1.20072043
-3.39635730 0.40416363 -0.99098969
-1.28790140 1.60359597 1.70185733
-0.86362273 0.57368338 -2.87059140
2.20560431 0.15660848 2.44490290
-1.49438620 -1.91142857 0.47119269
3.65113544 0.15035841 -0.09794664
0.09324083 -1.93558800 1.26610351
3.61993289 0.11641718 0.43502569
-0.71432400 0.26875842 -2.99089479
2.37774372 1.55541527 0.63309997
0.05623656 0.08189334 -3.07276702
-3.36093068 0.62458628 -0.82285076
-2.58736634 0.57495654 2.01129675
0.98763347 0.20762587 -2.94623661
1.83040881 0.69289386 2.46758318
2.32928205 1.00277674 1.87727189
2.48702073 1.25342548 -1.34158766
-2.20653009 0.86269426 2.11244106
-2.15454817 -1.49793506 1.21663725
-1.49324238 0.48976645 -2.71711946
-0.20390069 0.08898085 -3.06755686
1.17415428 2.01099277 0.10340737
0.56110352 1.62718928 -1.92071819
-0.98173785 1.23850513 2.35912180
3.62146330 0.10256673 0.43570378
2.59866142 1.29665411 -1.08149850
3.16555214 0.84839886 -0.93906498
-1.19173992 1.90724158 -0.91098619
2.47959805 0.44310352 2.17073154
1.74590623 0.72976297 2.48791313
-0.80493522 1.62593758 -1.85921037
-1.31393325 1.52159441 1.84031904
-0.77401721 0.50395870 -2.91558576
1.40938532 0.95644009 2.47750878
-2.42675042 0.91920280 -1.87964940
-1.90309429 1.55740666 1.34843802
0.18663928 0.22520414 3.05370879
3.29018950 0.82213312 -0.63751006
2.87833714 0.95262724 -1.30803871
-2.32504010 1.54182541 -0.81481797
-0.61915874 0.87186897 2.75563693
-3.49714708 0.07552714 -0.90525079
-2.09971094 1.69861090 0.54956198
1.63104773 0.47867957 -2.66439724
-0.24739860 1.63767219 -1.94717562
0.12885198 -1.46011829 -2.23088312
-0.61969042 1.21722078 -2.46606803
-0.73289543 1.40611815 -2.22104955
-1.33811045 0.41050988 2.79993892
0.07745899 0.15431923 -3.06618118
3 166 179 125
3 47 212 193
3 0 212 51
3 195 212 0
3 211 195 0
3 51 212 210
3 131 166 125
3 247 166 151
3 179 166 247
3 151 166 191
3 191 166 224
3 141 155 195
3 79 212 195
3 79 193 212
3 86 0 51
3 251 0 86
3 51 210 86
3 86 210 166
3 224 166 133
3 166 210 133
3 133 212 224
3 133 210 212
3 125 163 23
3 23 131 125
3 23 163 251
3 251 86 23
3 114 191 224
3 84 191 114
3 154 73 171
3 99 73 154
3 64 191 84
3 42 6 222
3 222 6 139
3 195 155 9
3 47 193 95
3 251 163 146
3 77 217 54
3 131 23 184
3 184 23 86
3 166 131 184
3 184 86 166
3 179 247 74
3 33 247 151
3 151 190 33
3 84 114 27
3 218 64 84
3 155 141 62
3 141 109 62
3 213 109 141
3 211 147 213
3 213 147 109
3 237 207 171
3 164 1 194
3 150 190 151
3 99 54 150
3 150 217 190
3 150 54 217
3 139 143 231
3 231 222 139
3 143 118 244
3 244 231 143
3 222 231 244
3 107 81 6
3 179 74 38
3 209 79 195
3 195 9 209
3 7 98 12
3 165 239 89
3 18 239 48
3 39 0 251
3 251 146 39
3 249 146 219
3 108 163 183
3 125 4 15
3 252 106 17
3 52 156 17
3 156 96 17
3 42 186 140
3 60 107 6
3 82 96 189
3 189 96 156
3 149 54 99
3 37 54 149
3 254 27 65
3 65 27 114
3 87 27 254
3 246 229 121
3 121 27 246
3 27 87 246
3 171 73 223
3 223 121 171
3 223 27 121
3 84 27 223
3 223 218 84
3 168 73 99
3 99 150 168
3 8 212 47
3 224 212 8
3 8 114 224
3 230 141 195
3 230 213 141
3 230 195 211
3 211 213 230
3 11 237 171
3 229 237 11
3 171 121 11
3 121 229 11
3 18 48 35
3 21 192 207
3 207 237 21
3 21 237 229
3 59 85 80
3 80 35 59
3 99 154 58
3 19 48 221
3 19 35 48
3 19 1 59
3 59 35 19
3 155 62 31
3 31 62 109
3 139 6 115
3 6 81 115
3 57 1 227
3 1 164 227
3 123 143 139
3 123 118 143
3 222 244 196
3 42 222 196
3 196 186 42
3 211 205 32
3 32 147 211
3 10 96 82
3 111 106 252
3 36 106 111
3 111 185 36
3 137 185 111
3 29 111 252
3 206 38 74
3 190 217 206
3 206 33 190
3 206 74 247
3 247 33 206
3 120 156 52
3 7 12 119
3 47 95 119
3 119 95 7
3 12 242 119
3 7 95 97
3 79 209 97
3 67 12 98
3 98 242 67
3 67 242 12
3 113 45 44
3 44 196 113
3 186 196 44
3 249 219 161
3 0 39 94
3 167 45 113
3 249 45 167
3 100 146 163
3 100 219 146
3 100 163 108
3 226 255 216
3 216 183 226
3 108 183 216
3 134 255 226
3 162 60 6
3 162 41 117
3 140 41 162
3 162 6 42
3 42 140 162
3 37 152 159
3 77 54 159
3 159 54 37
3 176 217 77
3 77 159 176
3 176 159 189
3 176 120 38
3 176 206 217
3 38 206 176
3 89 182 157
3 64 218 127
3 73 168 127
3 127 223 73
3 218 223 127
3 88 168 150
3 191 64 88
3 151 191 88
3 88 150 151
3 187 70 53
3 187 53 202
3 202 53 8
3 18 35 129
3 129 182 89
3 35 80 129
3 89 239 129
3 129 239 18
3 112 1 57
3 59 1 112
3 112 85 59
3 85 21 169
3 169 80 85
3 169 21 229
3 182 129 169
3 169 129 80
3 188 149 99
3 99 58 188
3 207 192 241
3 171 207 241
3 241 154 171
3 241 58 154
3 245 152 37
3 81 107 5
3 200 112 57
3 192 112 200
3 83 19 221
3 221 31 83
3 83 31 71
3 204 31 109
3 71 31 204
3 139 115 101
3 101 115 81
3 81 227 101
3 101 227 164
3 139 101 116
3 116 123 139
3 116 22 118
3 118 123 116
3 147 32 232
3 232 244 118
3 49 203 160
3 250 203 49
3 107 60 75
3 75 250 49
3 144 117 137
3 137 111 144
3 111 29 144
3 179 38 122
3 125 179 122
3 122 4 125
3 4 122 148
3 148 120 52
3 38 120 148
3 148 122 38
3 221 48 174
3 174 31 221
3 47 119 199
3 199 119 242
3 7 97 132
3 132 98 7
3 126 95 193
3 126 97 95
3 193 79 126
3 79 97 126
3 72 140 186
3 72 41 140
3 72 185 137
3 137 117 72
3 117 41 72
3 46 44 45
3 46 45 249
3 249 161 46
3 186 44 46
3 46 72 186
3 46 161 185
3 185 72 46
3 55 161 219
3 219 100 55
3 36 185 55
3 185 161 55
3 0 94 43
3 43 205 211
3 211 0 43
3 177 94 39
3 135 32 205
3 205 43 135
3 135 43 94
3 63 39 146
3 63 146 249
3 249 167 63
3 63 177 39
3 167 177 63
3 16 17 208
3 208 225 16
3 52 17 16
3 16 225 52
3 124 225 208
3 238 24 181
3 238 124 208
3 181 24 173
3 36 134 173
3 173 134 181
3 173 106 36
3 173 24 106
3 130 159 152
3 189 159 130
3 82 189 130
3 156 120 240
3 120 176 240
3 240 189 156
3 240 176 189
3 104 180 87
3 104 87 254
3 104 70 187
3 187 180 104
3 104 53 70
3 34 180 187
3 187 202 34
3 34 202 242
3 172 246 87
3 87 180 172
3 180 34 172
3 182 169 105
3 229 246 105
3 105 169 229
3 145 165 89
3 89 157 145
3 64 127 103
3 103 127 168
3 103 88 64
3 168 88 103
3 175 8 47
3 175 202 8
3 192 21 76
3 76 112 192
3 76 21 85
3 85 112 76
3 201 188 248
3 248 188 58
3 58 241 248
3 248 241 192
3 192 200 248
3 149 188 13
3 201 110 13
3 13 188 201
3 37 149 13
3 13 245 37
3 152 245 3
3 82 130 3
3 3 130 152
3 66 227 81
3 81 5 66
3 57 227 66
3 68 110 201
3 68 200 110
3 201 248 68
3 68 248 200
3 61 66 5
3 61 200 57
3 57 66 61
3 19 83 90
3 194 1 90
3 1 19 90
3 71 204 158
3 158 204 109
3 109 147 158
3 147 22 158
3 147 232 243
3 243 232 118
3 243 22 147
3 118 22 243
3 96 10 236
3 236 203 96
3 236 160 203
3 203 250 136
3 136 29 252
3 136 250 29
3 228 75 60
3 228 144 29
3 29 250 228
3 250 75 228
3 117 144 228
3 228 162 117
3 60 162 228
3 30 15 4
3 4 148 30
3 30 148 52
3 52 225 30
3 30 225 15
3 31 174 78
3 239 165 235
3 165 132 235
3 235 48 239
3 36 55 69
3 69 134 36
3 255 134 69
3 197 55 100
3 197 69 55
3 26 167 113
3 26 177 167
3 94 177 26
3 113 135 26
3 26 135 94
3 50 196 244
3 32 135 50
3 113 196 50
3 50 135 113
3 244 232 50
3 50 232 32
3 15 225 178
3 225 124 178
3 178 56 15
3 124 56 178
3 138 238 208
3 24 238 138
3 106 24 138
3 208 17 138
3 138 17 106
3 53 104 102
3 102 65 114
3 254 65 102
3 102 104 254
3 114 8 102
3 8 53 102
3 153 242 98
3 153 34 242
3 157 34 153
3 153 145 157
3 98 132 153
3 153 132 165
3 165 145 153
3 40 34 157
3 40 172 34
3 40 157 182
3 182 105 40
3 246 172 40
3 40 105 246
3 20 199 242
3 242 202 20
3 202 175 20
3 47 199 20
3 20 175 47
3 49 160 14
3 215 90 83
3 215 83 71
3 71 158 215
3 194 90 215
3 215 158 22
3 22 116 215
3 215 164 194
3 215 101 164
3 215 116 101
3 2 236 10
3 160 236 2
3 10 14 2
3 2 14 160
3 253 136 252
3 203 136 253
3 96 203 253
3 252 17 253
3 253 17 96
3 31 78 234
3 234 78 91
3 155 31 234
3 234 9 155
3 234 209 9
3 234 91 209
3 25 132 97
3 25 235 132
3 25 97 209
3 128 100 108
3 128 197 100
3 108 216 128
3 128 216 255
3 255 69 128
3 69 197 128
3 124 238 28
3 28 56 124
3 226 183 92
3 92 183 163
3 92 163 125
3 125 15 92
3 15 56 92
3 49 14 142
3 142 14 61
3 142 61 5
3 142 75 49
3 142 5 107
3 107 75 142
3 110 200 93
3 200 61 93
3 93 13 110
3 245 13 93
3 93 3 245
3 82 3 93
3 235 25 220
3 220 78 174
3 220 174 48
3 48 235 220
3 198 134 226
3 226 92 198
3 181 134 198
3 198 92 56
3 233 14 10
3 233 10 82
3 82 93 233
3 61 14 233
3 233 93 61
3 170 220 25
3 209 91 170
3 170 25 209
3 91 78 170
3 78 220 170
3 181 198 214
3 214 238 181
3 214 28 238
3 56 28 214
3 214 198 56