ply
format ascii 1.0
comment https://github.com/mikedh/trimesh
element vertex 256
property float x
property float y
property float z
element face 508
property list uchar int vertex_indices
end_header
1.64974070 -1.87408972 -0.52163202
0.87136513 2.42111087 1.31169522
-0.55025971 2.37117147 -1.91042650
-1.31741452 2.09203410 -1.28239143
-1.40388441 0.10626674 -3.12437153
0.27449131 2.69713211 -1.00847113
0.81807387 2.32465506 -1.71215892
0.63363433 0.19799066 3.83332586
-0.20910804 0.01326721 3.98845291
1.60884643 0.27460986 2.77038860
-0.60803545 2.37424588 -1.84947276
-0.81045479 1.69231379 2.85210562
0.29474625 0.25937781 3.95370555
-1.44269919 2.13396621 -0.42784476
-0.46786717 2.57100010 -1.38210464
-1.18262076 0.35852942 -3.36748719
-1.03325319 1.05058098 -3.22649884
-0.68997115 1.50142455 -3.15420628
0.89971954 1.48743045 2.99565673
1.24964213 1.95963132 1.81301749
0.00538503 0.09946651 4.00288153
-0.30751443 2.36106563 2.10118914
1.86922479 1.56107140 0.05812459
-0.24050002 -1.85499752 -2.97791862
-0.29840013 0.85269010 -3.77945161
1.17863786 0.50029570 3.33540082
1.52596498 0.32164267 -2.90535069
-0.96162987 0.66441005 3.49442649
-0.56095165 0.37222412 -3.84228373
0.16713275 2.01726890 -2.77210259
-1.22782493 0.37784216 -3.31269264
1.68657470 1.13950288 2.09207129
2.07573962 0.53732085 -1.33431077
-2.16299009 0.16572207 -1.06760061
-0.23770079 0.68250215 3.86215711
0.68020046 1.88916707 2.70541954
0.12081229 0.62603474 -3.89866114
-1.63484764 1.86900222 -0.67869079
-1.77600157 0.54616016 -2.32995224
1.33638382 0.09302489 -3.21849513
-0.07339055 1.16407800 3.64280701
0.88998568 1.78070521 -2.66219735
1.19916117 1.72354031 -2.33379054
2.05238986 0.20941456 -1.60678422
1.36195886 0.98080295 -2.86293006
1.33183300 0.74314666 -3.04819870
1.26389229 1.04505157 -2.95895886
0.02826830 0.03582530 4.00463772
1.08740306 1.39816487 2.88367748
-0.12211708 2.45874929 -1.92647874
1.77915931 1.03367543 -1.95539021
-0.25934118 -2.78680801 0.21399118
-1.15620446 1.05570269 -3.08820009
-0.41961178 0.19948149 3.92562151
-1.88558471 1.52671146 -0.14940061
0.51918727 0.37688565 -3.85968089
-0.58276451 0.33656320 -3.83886123
0.27466437 2.75531077 0.60872722
-1.49283493 1.96155703 1.07548320
0.46280679 2.27359915 2.20398569
0.60197729 2.32742572 -1.97036767
-0.15374327 2.75669551 -0.72539645
2.03392839 0.64919138 1.43581998
1.29645634 0.29623774 -3.24451947
-1.91150486 0.29401052 2.06680346
-0.85484612 0.25707516 3.68714571
0.32360378 2.77526665 -0.23684651
0.22959097 0.43457201 3.93607807
-1.12674749 2.42588139 0.21771373
0.15134145 0.56830037 -3.91327643
-0.41170722 0.38498348 3.89905548
1.72859728 1.48083377 1.45189774
0.95311171 1.48193765 -2.94995570
-1.68964934 1.21433091 1.99850059
-2.02177119 0.07151657 -1.74893939
0.18069300 2.45242167 -1.92754757
-0.16223826 2.49558067 1.81791258
-1.92578340 1.26191497 -1.01576364
1.36041236 0.89881831 2.92075205
1.11145985 0.04859171 3.48071527
0.19516346 2.09103537 2.65346813
0.94466275 2.49764085 -0.73069429
-1.27508378 2.03572178 -1.56777990
1.51039851 1.74769092 1.61168981
-1.52525496 0.33971828 2.90284491
0.15302856 2.22471833 2.43127203
-0.24056943 -2.54864168 -1.63208532
-0.52147621 0.78255689 3.73277688
-2.13348746 0.27484709 1.19845557
0.44991398 1.19908822 3.53293991
1.28150916 2.12542486 1.28555322
1.41296494 0.64093757 2.97867346
-0.40953237 0.06252310 -3.93737197
-0.91960388 2.48161364 -0.91744345
1.80139410 0.13998991 -2.38777471
0.72881377 0.11443159 3.78544450
-0.59672958 2.06209517 -2.50517750
1.05271006 0.30415481 3.51323938
0.24938782 0.51582861 3.91206694
-1.80529630 1.65332282 0.37280622
0.49944034 0.14285967 -3.89980674
1.16112304 2.40550470 -0.08771384
-0.48671553 0.21466959 3.89827299
-1.91812038 0.76042408 1.78562069
-0.43223202 0.38903481 3.89158511
-0.28443611 1.27233946 3.53524947
-0.16348836 1.23803425 -3.58385062
0.39113742 2.60042691 -1.34801960
0.07045673 0.01718490 -4.00323677
2.03129077 0.77980620 1.31012344
-1.13388050 2.42249227 -0.17201596
0.33308399 1.56909251 -3.26874352
0.06488959 2.61391830 1.46683562
1.51636279 0.63350761 -2.81608295
-1.04014468 -0.01778033 3.55066681
1.02382207 2.45277524 -0.70629811
1.76407361 1.73462856 -0.20915855
0.70266962 1.88485742 -2.69388294
1.87463212 1.42670918 -0.87118632
0.16202953 0.13604037 3.99035239
-1.56908774 0.80345422 -2.63014889
-1.15549326 1.23923075 2.94774008
-1.52758002 0.11289498 -2.93543649
1.70937407 1.67937315 -1.01548994
-0.79557800 0.58049971 -3.65341806
-1.27013326 -0.91647661 -3.03597331
1.00309408 0.10608492 3.58128572
-1.70641267 0.88438147 2.28191805
0.18531595 0.27609685 -3.97211885
0.37195703 1.67075658 3.15103674
-1.43556905 1.88153064 -1.51882493
-0.75963104 -2.09744740 -2.29531717
0.61625564 0.70892274 3.71699691
-1.22334516 -2.24846220 1.00792074
-0.23681039 0.33568749 -3.95445943
1.83394992 0.27038649 -2.28373623
-0.21343707 2.11623430 -2.60671306
0.49826714 1.57865012 -3.19347668
-0.44211739 0.83488142 -3.74236465
1.41135967 2.11296916 -0.80109084
1.13110626 1.71995938 -2.44316292
2.16646099 0.11879658 1.05886841
-0.13202789 2.65767908 -1.28215015
1.62709689 1.70018494 -1.32934260
0.49997154 1.84229302 -2.88983989
0.25897372 1.02644217 3.70033646
1.04144573 0.16396981 -3.54195905
2.07589579 0.96340805 -0.69682610
-1.39527428 0.46769542 -3.07028031
-1.64461815 1.91171765 -0.16123855
-2.18274903 0.60527426 0.42013332
-2.24106097 0.17834859 -0.18421888
-1.48321009 1.92773569 -1.22746134
0.23453300 0.68442899 3.86200404
-1.56498492 1.74318528 1.44817972
1.83572531 0.38657323 2.24469852
-1.41313982 1.22906220 -2.57524180
0.13996409 1.11000824 3.67108583
1.87419522 1.39373064 0.97182500
-1.75012851 1.54132986 -1.22248554
-0.46288028 2.33946514 -2.05821800
0.90563959 0.72062683 -3.52007389
0.72459483 2.24548340 -2.03347468
-0.10839372 -0.92785943 -3.77600837
1.15262759 2.41211033 -0.03298197
0.53598851 1.00239575 3.61850381
-1.40588593 -2.19176793 0.03561401
1.30882275 0.44676808 -3.19476414
-1.91037607 0.79488915 1.78317416
-0.06372262 1.76583123 3.11297655
1.28933537 0.52772313 3.19481611
-1.00588489 1.86919284 2.39332891
-0.31011531 0.82908678 3.78677368
-0.06698983 0.72544712 -3.86779809
1.34800446 0.96045876 2.89802861
-0.10830938 0.08164880 3.99952126
-1.63920760 0.98827803 -2.35193062
1.48428428 0.20637198 -2.99354053
-0.82950544 0.56939840 -3.63313150
-1.96151733 -0.06041251 -1.95637918
-0.28504172 0.67919546 3.85301828
-0.30318576 0.48818982 -3.90711188
0.16770107 1.59424794 3.28484273
-0.06495753 0.01758767 -4.00347328
-0.69307786 -2.16765857 -2.22823000
0.69546705 1.35301471 -3.28454995
1.22669291 1.29652476 -2.80297494
-0.37311813 0.38670653 3.91103911
-1.61759830 1.95152700 0.00081081
-1.52077591 1.42185175 -2.14297867
-2.22164249 0.40036431 -0.21222515
-2.02518630 -0.28754067 1.69017303
-0.68366092 2.45271945 1.52588677
0.95970124 0.00560019 3.62256312
1.25238478 2.19281578 1.13617194
1.96877646 -1.25413132 0.73527962
1.61661863 1.28088522 -2.09963036
0.22662003 0.39016753 -3.94578552
-0.37304997 0.26743105 -3.93187976
0.07184327 0.08748082 4.00196886
-0.73701108 2.62883329 0.52251691
-1.21660328 2.35748625 0.21060875
-0.14455909 0.10531492 3.99407077
-0.35771996 2.14346313 -2.51106787
1.78924942 1.35355425 1.47263134
2.05818129 0.27190757 -1.56393933
-2.08493185 0.53456426 -1.29076481
-0.79060787 2.12098527 2.21667027
-0.53015465 0.75877839 -3.73894739
1.35396087 0.20713714 3.18448782
-0.91736335 -2.52813792 0.61372882
2.24133348 0.19887052 -0.12757556
0.05723802 -2.56009221 1.64910066
2.22217894 0.15397839 0.56662130
-0.43850422 0.35547149 -3.89564276
1.45963275 2.05725956 0.82461315
0.03452211 0.10831567 -4.00228119
-2.06318450 0.82610482 -1.07176363
-1.58831441 0.76046234 2.61971521
0.60628152 0.27461493 -3.83747530
1.12363851 0.91645133 3.21402884
1.42988336 1.32631588 2.44514799
1.52671492 1.65783465 -1.74741900
-1.35452914 1.14103675 2.75145578
-1.32261884 -1.98123372 1.58467090
-0.91666120 0.64778626 -3.53905010
-0.12516913 0.11768992 -3.99549508
0.72078162 2.65982604 0.13468817
0.34444627 2.15219092 -2.50173688
-0.60266232 1.63810050 3.07275772
2.22311854 0.13565917 0.56750447
1.59524810 1.71501076 -1.40865254
1.94324696 1.12212896 -1.22313285
-0.73157698 2.52260017 -1.18656015
1.52215827 0.58606786 2.82737947
1.07176471 0.96521604 3.24050856
-0.49412799 2.15053535 -2.42162275
-0.80658817 2.01252651 2.39701676
-0.47514829 0.66655761 -3.79755259
0.86518359 1.26502907 3.22695684
-1.48971653 1.21577740 -2.44824457
-1.16825819 2.05989337 1.75634158
0.11457282 0.29786474 3.97745776
2.01975846 1.08738887 -0.83035725
1.76693344 1.25998592 -1.70372128
-1.42727923 2.03928494 -1.06130099
-0.38008481 1.15317154 3.58921885
-2.14680409 0.09989546 -1.17908978
-1.28895581 2.24665618 0.71580482
1.00125611 0.63312227 -3.47037935
-0.15187132 2.16605592 -2.53619766
0.07909875 -1.93121564 -2.90572667
-0.38041124 1.60994875 -3.21205544
-0.44990471 1.85979271 -2.89291859
-0.82142985 0.54295808 3.64692259
0.04754998 0.20410927 -3.99370313
3 166 179 125
3 47 212 193
3 0 212 51
3 195 212 0
3 211 195 0
3 51 212 210
3 131 166 125
3 247 166 151
3 179 166 247
3 151 166 191
3 191 166 224
3 141 155 195
3 79 212 195
3 79 193 212
3 86 0 51
3 251 0 86
3 51 210 86
3 86 210 166
3 224 166 133
3 166 210 133
3 133 212 224
3 133 210 212
3 125 163 23
3 23 131 125
3 23 163 251
3 251 86 23
3 114 191 224
3 84 191 114
3 154 73 171
3 99 73 154
3 64 191 84
3 42 6 222
3 222 6 139
3 195 155 9
3 47 193 95
3 251 163 146
3 77 217 54
3 131 23 184
3 184 23 86
3 166 131 184
3 184 86 166
3 179 247 74
3 33 247 151
3 151 190 33
3 84 114 27
3 218 64 84
3 155 141 62
3 141 109 62
3 213 109 141
3 211 147 213
3 213 147 109
3 237 207 171
3 164 1 194
3 150 190 151
3 99 54 150
3 150 217 190
3 150 54 217
3 139 143 231
3 231 222 139
3 143 118 244
3 244 231 143
3 222 231 244
3 107 81 6
3 179 74 38
3 209 79 195
3 195 9 209
3 7 98 12
3 165 239 89
3 18 239 48
3 39 0 251
3 251 146 39
3 249 146 219
3 108 163 183
3 125 4 15
3 252 106 17
3 52 156 17
3 156 96 17
3 42 186 140
3 60 107 6
3 82 96 189
3 189 96 156
3 149 54 99
3 37 54 149
3 254 27 65
3 65 27 114
3 87 27 254
3 246 229 121
3 121 27 246
3 27 87 246
3 171 73 223
3 223 121 171
3 223 27 121
3 84 27 223
3 223 218 84
3 168 73 99
3 99 150 168
3 8 212 47
3 224 212 8
3 8 114 224
3 230 141 195
3 230 213 141
3 230 195 211
3 211 213 230
3 11 237 171
3 229 237 11
3 171 121 11
3 121 229 11
3 18 48 35
3 21 192 207
3 207 237 21
3 21 237 229
3 59 85 80
3 80 35 59
3 99 154 58
3 19 48 221
3 19 35 48
3 19 1 59
3 59 35 19
3 155 62 31
3 31 62 109
3 139 6 115
3 6 81 115
3 57 1 227
3 1 164 227
3 123 143 139
3 123 118 143
3 222 244 196
3 42 222 196
3 196 186 42
3 211 205 32
3 32 147 211
3 10 96 82
3 111 106 252
3 36 106 111
3 111 185 36
3 137 185 111
3 29 111 252
3 206 38 74
3 190 217 206
3 206 33 190
3 206 74 247
3 247 33 206
3 120 156 52
3 7 12 119
3 47 95 119
3 119 95 7
3 12 242 119
3 7 95 97
3 79 209 97
3 67 12 98
3 98 242 67
3 67 242 12
3 113 45 44
3 44 196 113
3 186 196 44
3 249 219 161
3 0 39 94
3 167 45 113
3 249 45 167
3 100 146 163
3 100 219 146
3 100 163 108
3 226 255 216
3 216 183 226
3 108 183 216
3 134 255 226
3 162 60 6
3 162 41 117
3 140 41 162
3 162 6 42
3 42 140 162
3 37 152 159
3 77 54 159
3 159 54 37
3 176 217 77
3 77 159 176
3 176 159 189
3 176 120 38
3 176 206 217
3 38 206 176
3 89 182 157
3 64 218 127
3 73 168 127
3 127 223 73
3 218 223 127
3 88 168 150
3 191 64 88
3 151 191 88
3 88 150 151
3 187 70 53
3 187 53 202
3 202 53 8
3 18 35 129
3 129 182 89
3 35 80 129
3 89 239 129
3 129 239 18
3 112 1 57
3 59 1 112
3 112 85 59
3 85 21 169
3 169 80 85
3 169 21 229
3 182 129 169
3 169 129 80
3 188 149 99
3 99 58 188
3 207 192 241
3 171 207 241
3 241 154 171
3 241 58 154
3 245 152 37
3 81 107 5
3 200 112 57
3 192 112 200
3 83 19 221
3 221 31 83
3 83 31 71
3 204 31 109
3 71 31 204
3 139 115 101
3 101 115 81
3 81 227 101
3 101 227 164
3 139 101 116
3 116 123 139
3 116 22 118
3 118 123 116
3 147 32 232
3 232 244 118
3 49 203 160
3 250 203 49
3 107 60 75
3 75 250 49
3 144 117 137
3 137 111 144
3 111 29 144
3 179 38 122
3 125 179 122
3 122 4 125
3 4 122 148
3 148 120 52
3 38 120 148
3 148 122 38
3 221 48 174
3 174 31 221
3 47 119 199
3 199 119 242
3 7 97 132
3 132 98 7
3 126 95 193
3 126 97 95
3 193 79 126
3 79 97 126
3 72 140 186
3 72 41 140
3 72 185 137
3 137 117 72
3 117 41 72
3 46 44 45
3 46 45 249
3 249 161 46
3 186 44 46
3 46 72 186
3 46 161 185
3 185 72 46
3 55 161 219
3 219 100 55
3 36 185 55
3 185 161 55
3 0 94 43
3 43 205 211
3 211 0 43
3 177 94 39
3 135 32 205
3 205 43 135
3 135 43 94
3 63 39 146
3 63 146 249
3 249 167 63
3 63 177 39
3 167 177 63
3 16 17 208
3 208 225 16
3 52 17 16
3 16 225 52
3 124 225 208
3 238 24 181
3 238 124 208
3 181 24 173
3 36 134 173
3 173 134 181
3 173 106 36
3 173 24 106
3 130 159 152
3 189 159 130
3 82 189 130
3 156 120 240
3 120 176 240
3 240 189 156
3 240 176 189
3 104 180 87
3 104 87 254
3 104 70 187
3 187 180 104
3 104 53 70
3 34 180 187
3 187 202 34
3 34 202 242
3 172 246 87
3 87 180 172
3 180 34 172
3 182 169 105
3 229 246 105
3 105 169 229
3 145 165 89
3 89 157 145
3 64 127 103
3 103 127 168
3 103 88 64
3 168 88 103
3 175 8 47
3 175 202 8
3 192 21 76
3 76 112 192
3 76 21 85
3 85 112 76
3 201 188 248
3 248 188 58
3 58 241 248
3 248 241 192
3 192 200 248
3 149 188 13
3 201 110 13
3 13 188 201
3 37 149 13
3 13 245 37
3 152 245 3
3 82 130 3
3 3 130 152
3 66 227 81
3 81 5 66
3 57 227 66
3 68 110 201
3 68 200 110
3 201 248 68
3 68 248 200
3 61 66 5
3 61 200 57
3 57 66 61
3 19 83 90
3 194 1 90
3 1 19 90
3 71 204 158
3 158 204 109
3 109 147 158
3 147 22 158
3 147 232 243
3 243 232 118
3 243 22 147
3 118 22 243
3 96 10 236
3 236 203 96
3 236 160 203
3 203 250 136
3 136 29 252
3 136 250 29
3 228 75 60
3 228 144 29
3 29 250 228
3 250 75 228
3 117 144 228
3 228 162 117
3 60 162 228
3 30 15 4
3 4 148 30
3 30 148 52
3 52 225 30
3 30 225 15
3 31 174 78
3 239 165 235
3 165 132 235
3 235 48 239
3 36 55 69
3 69 134 36
3 255 134 69
3 197 55 100
3 197 69 55
3 26 167 113
3 26 177 167
3 94 177 26
3 113 135 26
3 26 135 94
3 50 196 244
3 32 135 50
3 113 196 50
3 50 135 113
3 244 232 50
3 50 232 32
3 15 225 178
3 225 124 178
3 178 56 15
3 124 56 178
3 138 238 208
3 24 238 138
3 106 24 138
3 208 17 138
3 138 17 106
3 53 104 102
3 102 65 114
3 254 65 102
3 102 104 254
3 114 8 102
3 8 53 102
3 153 242 98
3 153 34 242
3 157 34 153
3 153 145 157
3 98 132 153
3 153 132 165
3 165 145 153
3 40 34 157
3 40 172 34
3 40 157 182
3 182 105 40
3 246 172 40
3 40 105 246
3 20 199 242
3 242 202 20
3 202 175 20
3 47 199 20
3 20 175 47
3 49 160 14
3 215 90 83
3 215 83 71
3 71 158 215
3 194 90 215
3 215 158 22
3 22 116 215
3 215 164 194
3 215 101 164
3 215 116 101
3 2 236 10
3 160 236 2
3 10 14 2
3 2 14 160
3 253 136 252
3 203 136 253
3 96 203 253
3 252 17 253
3 253 17 96
3 31 78 234
3 234 78 91
3 155 31 234
3 234 9 155
3 234 209 9
3 234 91 209
3 25 132 97
3 25 235 132
3 25 97 209
3 128 100 108
3 128 197 100
3 108 216 128
3 128 216 255
3 255 69 128
3 69 197 128
3 124 238 28
3 28 56 124
3 226 183 92
3 92 183 163
3 92 163 125
3 125 15 92
3 15 56 92
3 49 14 142
3 142 14 61
3 142 61 5
3 142 75 49
3 142 5 107
3 107 75 142
3 110 200 93
3 200 61 93
3 93 13 110
3 245 13 93
3 93 3 245
3 82 3 93
3 235 25 220
3 220 78 174
3 220 174 48
3 48 235 220
3 198 134 226
3 226 92 198
3 181 134 198
3 198 92 56
3 233 14 10
3 233 10 82
3 82 93 233
3 61 14 233
3 233 93 61
3 170 220 25
3 209 91 170
3 170 25 209
3 91 78 170
3 78 220 170
3 181 198 214
3 214 238 181
3 214 28 238
3 56 28 214
3 214 198 56