ply
format ascii 1.0
comment https://github.com/mikedh/trimesh
element vertex 256
property float x
property float y
property float z
element face 508
property list uchar int vertex_indices
end_header
2.48792005 -2.74713397 -0.16758314
1.31407726 3.54898477 0.42140433
-0.82982868 3.47578120 -0.61375690
-1.98674977 3.06660748 -0.41198999
-2.11715221 0.15577108 -1.00375736
0.41395137 3.95359015 -0.32398847
1.23371053 3.40759492 -0.55006009
0.95556325 0.29022455 1.23152089
-0.31534901 0.01944774 1.28135812
2.42624855 0.40253681 0.89003432
-0.91695833 3.48028755 -0.59417450
-1.22222030 2.48067784 0.91628730
0.44449720 0.38020891 1.27019501
-2.17568755 3.12807369 -0.13745239
-0.70557517 3.76869965 -0.44402456
-1.78347182 0.52555025 -1.08186233
-1.55821538 1.53999376 -1.03656745
-1.04052293 2.20086265 -1.01334226
1.35683763 2.18034959 0.96240550
1.88454449 2.87252498 0.58246261
0.00812098 0.14580296 1.28599358
-0.46375245 3.46096754 0.67504269
2.81891680 2.28829598 0.01867351
-0.36269021 -2.71914768 -0.95670688
-0.45000747 1.24991560 -1.21421301
1.77746534 0.73335832 1.07155406
2.30125809 0.47147983 -0.93339318
-1.45020258 0.97392535 1.12264383
-0.84595287 0.54562461 -1.23439884
0.25204742 2.95701289 -0.89058495
-1.85164261 0.55385983 -1.06425869
2.54346824 1.67033994 0.67211336
3.13035512 0.78763157 -0.42866996
-3.26193476 0.24292366 -0.34298480
-0.35846880 1.00044560 1.24078345
1.02578807 2.76923513 0.86916196
0.18219307 0.91767281 -1.25251102
-2.46546030 2.73967648 -0.21804091
-2.67832994 0.80058867 -0.74853665
2.01535678 0.13636051 -1.03399622
-0.11067789 1.70636332 1.17031348
1.34215832 2.61024642 -0.85527605
1.80841577 2.52645111 -0.74976981
3.09514189 0.30697027 -0.51620668
2.05392551 1.43770981 -0.91976488
2.00849390 1.08934128 -0.97928554
1.90603471 1.53188860 -0.95061570
0.04263050 0.05251452 1.28655779
1.63987696 2.04949975 0.92643028
-0.18416078 3.60415673 -0.61891395
2.68309212 1.51521289 -0.62820226
-0.39110395 -4.08504152 0.06874830
-1.74363410 1.54750144 -0.99213666
-0.63280284 0.29240990 1.26117253
-2.84358883 2.23792958 -0.04799748
0.78296942 0.55245769 -1.23998797
-0.87884808 0.49335110 -1.23329926
0.41421238 4.03887177 0.19556396
-2.25129557 2.87534785 0.34551722
0.69794381 3.33275461 0.70806777
0.90782225 3.41165638 -0.63301402
-0.23185520 4.04090118 -0.23304592
3.06730103 0.95161700 0.46128151
1.95514333 0.43424001 -1.04235697
-2.88267803 0.43097523 0.66399562
-1.28916550 0.37683359 1.18455803
0.48801628 4.06812382 -0.07609095
0.34623864 0.63701725 1.26453185
-1.69921100 3.55597758 0.06994423
0.22823310 0.83304298 -1.25720644
-0.62088221 0.56432790 1.25263774
2.60684109 2.17067981 0.46644679
1.43735659 2.17229795 -0.94772333
-2.54810500 1.78002667 0.64205217
-3.04896712 0.10483255 -0.56187642
0.27249721 3.59488153 -0.61925733
-0.24466620 3.65814614 0.58403528
-2.90421104 1.84977770 -0.32633132
2.05159330 1.31753254 0.93834108
1.67615628 0.07122815 1.11823881
0.29431963 3.06514382 0.85247165
1.42461503 3.66116643 -0.23474793
-1.92291212 2.98406219 -0.50367588
2.27778268 2.56185222 0.51778269
-2.30018711 0.49797595 0.93258816
0.23077737 3.26110268 0.78108740
-0.36279488 -3.73592567 -0.52433509
-0.78642118 1.14711082 1.19921792
-3.21744275 0.40288454 0.38502419
0.67850053 1.75768304 1.13501692
1.93260205 3.11555338 0.41300577
2.13084626 0.93951815 0.95694935
-0.61760241 0.09164948 -1.26494753
-1.38682461 3.63767290 -0.29474428
2.71662354 0.20520417 -0.76711315
1.09910023 0.16773951 1.21613824
-0.89990836 3.02272153 -0.80483079
1.58755755 0.44584525 1.12868774
0.37609363 0.75612724 1.25681782
-2.72250819 2.42352271 0.11977032
0.75318968 0.20941080 -1.25287914
1.75105166 3.52610826 -0.02817956
-0.73399979 0.31467336 1.25238633
-2.89265466 1.11466742 0.57366091
-0.65183502 0.57026660 1.25023770
-0.42894879 1.86505842 1.13575888
-0.24655145 1.81477225 -1.15137279
0.58986157 3.81183529 -0.43307415
0.10625349 0.02519049 -1.28610778
3.06332326 1.14307868 0.42089936
-1.70996809 3.55100965 -0.05526305
0.50231308 2.30005383 -1.05013931
0.09785789 3.83161139 0.47124580
2.28677702 0.92862701 -0.90471441
-1.56860816 -0.02606329 1.14071190
1.54399264 3.59539986 -0.22691025
2.66034174 2.54270482 -0.06719574
1.05967307 2.76291776 -0.86545557
2.82707143 2.09134126 -0.27988338
0.24435145 0.19941474 1.28196847
-2.36628985 1.17774308 -0.84498000
-1.74256170 1.81652606 0.94701147
-2.30369353 0.16548708 -0.94305879
2.57785130 2.46170855 -0.32624337
-1.19978511 0.85092533 -1.17372251
-1.91544640 -1.34341705 -0.97535789
1.51273346 0.15550455 1.15054870
-2.57338524 1.29637039 0.73310488
0.27946892 0.40471649 -1.27611053
0.56093621 2.44907808 1.01232398
-2.16493464 2.75804114 -0.48794827
-1.14557481 -3.07454276 -0.73740959
0.92935497 1.03917420 1.19414830
-1.84488690 -3.29590774 0.32381165
-0.35712600 0.49206743 -1.27043712
2.76572013 0.39634594 -0.73368901
-0.32187748 3.10208154 -0.83745080
0.75142044 2.31406379 -1.02595854
-0.66674274 1.22381067 -1.20229816
2.12842536 3.09729552 -0.25736403
1.70578444 2.52120185 -0.78490752
3.26716900 0.17413794 0.34017944
-0.19910695 3.89575839 -0.41191247
2.45377159 2.49221563 -0.42707387
0.75399077 2.70052457 -0.92841011
0.39054981 1.50460994 1.18879592
1.57057023 0.24035510 -1.13791442
3.13059044 1.41221142 -0.22386721
-2.10416770 0.68557119 -0.98637968
-2.48019505 2.80229092 -0.05180062
-3.29173255 0.88724113 0.13497496
-3.37967086 0.26143223 -0.05918344
-2.23678064 2.82577085 -0.39434278
0.35369155 1.00327003 1.24073422
-2.36010265 2.55524778 0.46525231
2.76839733 0.56665826 0.72114748
-2.13110995 1.80162048 -0.82734007
0.21107528 1.62710524 1.17939854
2.82641268 2.04299974 0.31221527
-2.63931155 2.25935793 -0.39274424
-0.69805461 3.42930436 -0.66123742
1.36576557 1.05633056 -1.13088346
1.09273779 3.29154134 -0.65328825
-0.16346504 -1.36010253 -1.21310675
1.73823988 3.53579140 -0.01059602
0.80830675 1.46936154 1.16250575
-2.12017059 -3.21280241 0.01144161
1.97379279 0.65489489 -1.02637208
-2.88097572 1.16518807 0.57287490
-0.09609800 2.58844328 1.00009656
1.94440460 0.77356279 1.02638888
-1.51694214 2.73995566 0.76889753
-0.46767476 1.21531665 1.21656525
-0.10102517 1.06339645 -1.24259567
2.03288150 1.40788817 0.93104088
-0.16333784 0.11968487 1.28491402
-2.47203541 1.44866705 -0.75559765
2.23840046 0.30251032 -0.96172571
-1.25095010 0.83465254 -1.16720510
-2.95810008 -0.08855566 -0.62852001
-0.42986211 0.99559850 1.23784745
-0.45722455 0.71561295 -1.25522590
0.25290450 2.33692789 1.05531144
-0.09796032 0.02578088 -1.28618360
-1.04520810 -3.17746162 -0.71585667
1.04881120 1.98331618 -1.05521739
1.84993541 1.90051043 -0.90050322
-0.56268728 0.56685364 1.25648761
-2.43944716 2.86064529 0.00026049
-2.29343247 2.08422112 -0.68846822
-3.35038638 0.58687389 -0.06818093
-3.05411720 -0.42149144 0.54299676
-1.03100669 3.59531832 0.49021703
1.44729412 0.00820904 1.16380990
1.88868070 3.21433854 0.36501449
2.96904755 -1.83836806 0.23622105
2.43796968 1.87758529 -0.67454189
0.34175828 0.57192695 -1.26765049
-0.56258446 0.39201376 -1.26318300
0.10834449 0.12823375 1.28570044
-1.11146235 3.85347438 0.16786741
-1.83471966 3.45572042 0.06766163
-0.21800484 0.15437584 1.28316295
-0.53946579 3.14199471 -0.80672318
2.69830871 1.98410714 0.47310778
3.10387588 0.39857560 -0.50244200
-3.14421773 0.78359085 -0.41468006
-1.19228995 3.10904574 0.71214294
-0.79950893 1.11225510 -1.20120025
2.04186416 0.30363190 1.02307069
-1.38344562 -3.70587039 0.19717078
3.38008165 0.29151431 -0.04098582
0.08631880 -3.75271058 0.52980155
3.35119557 0.22570919 0.18203670
-0.66129386 0.52106780 -1.25154126
2.20122433 3.01563334 0.26492095
0.05206166 0.15877450 -1.28580070
-3.11142111 1.21094549 -0.34432226
-2.39528513 1.11472356 0.84162796
0.91431332 0.40254423 -1.23285401
1.69452262 1.34337997 1.03256130
2.15636039 1.94417965 0.78554529
2.30238891 2.43013644 -0.56138796
-2.04272127 1.67258835 0.88395184
-1.99459827 -2.90419078 0.50910240
-1.38238680 0.94955736 -1.13697994
-0.18876347 0.17251574 -1.28362060
1.08698714 3.89890504 0.04327086
0.51944816 3.15478849 -0.80372536
-0.90885538 2.40120912 0.98717552
3.35261250 0.19885597 0.18232045
2.40574145 2.51394796 -0.45255354
2.93054724 1.64487255 -0.39295217
-1.10326731 3.69775271 -0.38120258
2.29551721 0.85908741 0.90834355
1.61629331 1.41486168 1.04106832
-0.74517828 3.15236163 -0.77798742
-1.21638918 2.95006132 0.77008235
-0.71655560 0.97707325 -1.22002816
1.30475509 1.85434246 1.03671467
-2.24659276 1.78214693 -0.78654009
-1.76181197 3.01949430 0.56425452
0.17278352 0.43662494 1.27782583
3.04593182 1.59394860 -0.26676637
2.66465449 1.84695005 -0.54734939
-2.15243316 2.98928523 -0.34096095
-0.57319349 1.69037616 1.15309751
-3.23752522 0.14643173 -0.37880260
-1.94383216 3.29326034 0.22996445
1.50996161 0.92806214 -1.11491823
-0.22903217 3.17511272 -0.81479651
0.11928624 -2.83087182 -0.93351400
-0.57368577 2.35994291 -1.03192735
-0.67848659 2.72617650 -0.92939913
-1.23877156 0.79589498 1.17163575
0.07170857 0.29919353 -1.28304482
3 166 179 125
3 47 212 193
3 0 212 51
3 195 212 0
3 211 195 0
3 51 212 210
3 131 166 125
3 247 166 151
3 179 166 247
3 151 166 191
3 191 166 224
3 141 155 195
3 79 212 195
3 79 193 212
3 86 0 51
3 251 0 86
3 51 210 86
3 86 210 166
3 224 166 133
3 166 210 133
3 133 212 224
3 133 210 212
3 125 163 23
3 23 131 125
3 23 163 251
3 251 86 23
3 114 191 224
3 84 191 114
3 154 73 171
3 99 73 154
3 64 191 84
3 42 6 222
3 222 6 139
3 195 155 9
3 47 193 95
3 251 163 146
3 77 217 54
3 131 23 184
3 184 23 86
3 166 131 184
3 184 86 166
3 179 247 74
3 33 247 151
3 151 190 33
3 84 114 27
3 218 64 84
3 155 141 62
3 141 109 62
3 213 109 141
3 211 147 213
3 213 147 109
3 237 207 171
3 164 1 194
3 150 190 151
3 99 54 150
3 150 217 190
3 150 54 217
3 139 143 231
3 231 222 139
3 143 118 244
3 244 231 143
3 222 231 244
3 107 81 6
3 179 74 38
3 209 79 195
3 195 9 209
3 7 98 12
3 165 239 89
3 18 239 48
3 39 0 251
3 251 146 39
3 249 146 219
3 108 163 183
3 125 4 15
3 252 106 17
3 52 156 17
3 156 96 17
3 42 186 140
3 60 107 6
3 82 96 189
3 189 96 156
3 149 54 99
3 37 54 149
3 254 27 65
3 65 27 114
3 87 27 254
3 246 229 121
3 121 27 246
3 27 87 246
3 171 73 223
3 223 121 171
3 223 27 121
3 84 27 223
3 223 218 84
3 168 73 99
3 99 150 168
3 8 212 47
3 224 212 8
3 8 114 224
3 230 141 195
3 230 213 141
3 230 195 211
3 211 213 230
3 11 237 171
3 229 237 11
3 171 121 11
3 121 229 11
3 18 48 35
3 21 192 207
3 207 237 21
3 21 237 229
3 59 85 80
3 80 35 59
3 99 154 58
3 19 48 221
3 19 35 48
3 19 1 59
3 59 35 19
3 155 62 31
3 31 62 109
3 139 6 115
3 6 81 115
3 57 1 227
3 1 164 227
3 123 143 139
3 123 118 143
3 222 244 196
3 42 222 196
3 196 186 42
3 211 205 32
3 32 147 211
3 10 96 82
3 111 106 252
3 36 106 111
3 111 185 36
3 137 185 111
3 29 111 252
3 206 38 74
3 190 217 206
3 206 33 190
3 206 74 247
3 247 33 206
3 120 156 52
3 7 12 119
3 47 95 119
3 119 95 7
3 12 242 119
3 7 95 97
3 79 209 97
3 67 12 98
3 98 242 67
3 67 242 12
3 113 45 44
3 44 196 113
3 186 196 44
3 249 219 161
3 0 39 94
3 167 45 113
3 249 45 167
3 100 146 163
3 100 219 146
3 100 163 108
3 226 255 216
3 216 183 226
3 108 183 216
3 134 255 226
3 162 60 6
3 162 41 117
3 140 41 162
3 162 6 42
3 42 140 162
3 37 152 159
3 77 54 159
3 159 54 37
3 176 217 77
3 77 159 176
3 176 159 189
3 176 120 38
3 176 206 217
3 38 206 176
3 89 182 157
3 64 218 127
3 73 168 127
3 127 223 73
3 218 223 127
3 88 168 150
3 191 64 88
3 151 191 88
3 88 150 151
3 187 70 53
3 187 53 202
3 202 53 8
3 18 35 129
3 129 182 89
3 35 80 129
3 89 239 129
3 129 239 18
3 112 1 57
3 59 1 112
3 112 85 59
3 85 21 169
3 169 80 85
3 169 21 229
3 182 129 169
3 169 129 80
3 188 149 99
3 99 58 188
3 207 192 241
3 171 207 241
3 241 154 171
3 241 58 154
3 245 152 37
3 81 107 5
3 200 112 57
3 192 112 200
3 83 19 221
3 221 31 83
3 83 31 71
3 204 31 109
3 71 31 204
3 139 115 101
3 101 115 81
3 81 227 101
3 101 227 164
3 139 101 116
3 116 123 139
3 116 22 118
3 118 123 116
3 147 32 232
3 232 244 118
3 49 203 160
3 250 203 49
3 107 60 75
3 75 250 49
3 144 117 137
3 137 111 144
3 111 29 144
3 179 38 122
3 125 179 122
3 122 4 125
3 4 122 148
3 148 120 52
3 38 120 148
3 148 122 38
3 221 48 174
3 174 31 221
3 47 119 199
3 199 119 242
3 7 97 132
3 132 98 7
3 126 95 193
3 126 97 95
3 193 79 126
3 79 97 126
3 72 140 186
3 72 41 140
3 72 185 137
3 137 117 72
3 117 41 72
3 46 44 45
3 46 45 249
3 249 161 46
3 186 44 46
3 46 72 186
3 46 161 185
3 185 72 46
3 55 161 219
3 219 100 55
3 36 185 55
3 185 161 55
3 0 94 43
3 43 205 211
3 211 0 43
3 177 94 39
3 135 32 205
3 205 43 135
3 135 43 94
3 63 39 146
3 63 146 249
3 249 167 63
3 63 177 39
3 167 177 63
3 16 17 208
3 208 225 16
3 52 17 16
3 16 225 52
3 124 225 208
3 238 24 181
3 238 124 208
3 181 24 173
3 36 134 173
3 173 134 181
3 173 106 36
3 173 24 106
3 130 159 152
3 189 159 130
3 82 189 130
3 156 120 240
3 120 176 240
3 240 189 156
3 240 176 189
3 104 180 87
3 104 87 254
3 104 70 187
3 187 180 104
3 104 53 70
3 34 180 187
3 187 202 34
3 34 202 242
3 172 246 87
3 87 180 172
3 180 34 172
3 182 169 105
3 229 246 105
3 105 169 229
3 145 165 89
3 89 157 145
3 64 127 103
3 103 127 168
3 103 88 64
3 168 88 103
3 175 8 47
3 175 202 8
3 192 21 76
3 76 112 192
3 76 21 85
3 85 112 76
3 201 188 248
3 248 188 58
3 58 241 248
3 248 241 192
3 192 200 248
3 149 188 13
3 201 110 13
3 13 188 201
3 37 149 13
3 13 245 37
3 152 245 3
3 82 130 3
3 3 130 152
3 66 227 81
3 81 5 66
3 57 227 66
3 68 110 201
3 68 200 110
3 201 248 68
3 68 248 200
3 61 66 5
3 61 200 57
3 57 66 61
3 19 83 90
3 194 1 90
3 1 19 90
3 71 204 158
3 158 204 109
3 109 147 158
3 147 22 158
3 147 232 243
3 243 232 118
3 243 22 147
3 118 22 243
3 96 10 236
3 236 203 96
3 236 160 203
3 203 250 136
3 136 29 252
3 136 250 29
3 228 75 60
3 228 144 29
3 29 250 228
3 250 75 228
3 117 144 228
3 228 162 117
3 60 162 228
3 30 15 4
3 4 148 30
3 30 148 52
3 52 225 30
3 30 225 15
3 31 174 78
3 239 165 235
3 165 132 235
3 235 48 239
3 36 55 69
3 69 134 36
3 255 134 69
3 197 55 100
3 197 69 55
3 26 167 113
3 26 177 167
3 94 177 26
3 113 135 26
3 26 135 94
3 50 196 244
3 32 135 50
3 113 196 50
3 50 135 113
3 244 232 50
3 50 232 32
3 15 225 178
3 225 124 178
3 178 56 15
3 124 56 178
3 138 238 208
3 24 238 138
3 106 24 138
3 208 17 138
3 138 17 106
3 53 104 102
3 102 65 114
3 254 65 102
3 102 104 254
3 114 8 102
3 8 53 102
3 153 242 98
3 153 34 242
3 157 34 153
3 153 145 157
3 98 132 153
3 153 132 165
3 165 145 153
3 40 34 157
3 40 172 34
3 40 157 182
3 182 105 40
3 246 172 40
3 40 105 246
3 20 199 242
3 242 202 20
3 202 175 20
3 47 199 20
3 20 175 47
3 49 160 14
3 215 90 83
3 215 83 71
3 71 158 215
3 194 90 215
3 215 158 22
3 22 116 215
3 215 164 194
3 215 101 164
3 215 116 101
3 2 236 10
3 160 236 2
3 10 14 2
3 2 14 160
3 253 136 252
3 203 136 253
3 96 203 253
3 252 17 253
3 253 17 96
3 31 78 234
3 234 78 91
3 155 31 234
3 234 9 155
3 234 209 9
3 234 91 209
3 25 132 97
3 25 235 132
3 25 97 209
3 128 100 108
3 128 197 100
3 108 216 128
3 128 216 255
3 255 69 128
3 69 197 128
3 124 238 28
3 28 56 124
3 226 183 92
3 92 183 163
3 92 163 125
3 125 15 92
3 15 56 92
3 49 14 142
3 142 14 61
3 142 61 5
3 142 75 49
3 142 5 107
3 107 75 142
3 110 200 93
3 200 61 93
3 93 13 110
3 245 13 93
3 93 3 245
3 82 3 93
3 235 25 220
3 220 78 174
3 220 174 48
3 48 235 220
3 198 134 226
3 226 92 198
3 181 134 198
3 198 92 56
3 233 14 10
3 233 10 82
3 82 93 233
3 61 14 233
3 233 93 61
3 170 220 25
3 209 91 170
3 170 25 209
3 91 78 170
3 78 220 170
3 181 198 214
3 214 238 181
3 214 28 238
3 56 28 214
3 214 198 56