ply
format ascii 1.0
comment https://github.com/mikedh/trimesh
element vertex 256
property float x
property float y
property float z
element face 508
property list uchar int vertex_indices
end_header
1.86761522 -1.95379639 -0.29755092
0.98644286 2.52408290 0.74822110
-0.62293029 2.47201943 -1.08975124
-1.49140012 2.18101001 -0.73150557
-1.58928978 0.11078636 -1.78221333
0.31074229 2.81184340 -0.57525516
0.92611361 2.42352462 -0.97665483
0.71731591 0.20641138 2.18661714
-0.23672409 0.01383148 2.27510524
1.82132018 0.28628927 1.58029342
-0.68833619 2.47522449 -1.05498183
-0.91748828 1.76428938 1.62690663
0.33367220 0.27040938 2.25528455
-1.63323069 2.22472548 -0.24405250
-0.52965647 2.68034673 -0.78838426
-1.33880472 0.37377799 -1.92089212
-1.16971076 1.09526300 -1.84046924
-0.78109288 1.56528139 -1.79923189
1.01854193 1.55069220 1.70879149
1.41467726 2.04297614 1.03418684
0.00609620 0.10369691 2.28333569
-0.34812662 2.46148372 1.19856668
2.11608577 1.62746501 0.03315561
-0.27226189 -1.93389225 -1.69867337
-0.33780861 0.88895577 -2.15588617
1.33429587 0.52157372 1.90258932
1.72749305 0.33532241 -1.65727878
-1.08862853 0.69266802 1.99330127
-0.63503432 0.38805515 -2.19172692
0.18920529 2.10306501 -1.58127105
-1.38997877 0.39391211 -1.88963604
1.90931380 1.18796682 1.19336557
2.34987402 0.56017357 -0.76112157
-2.44864750 0.17277038 -0.60898393
-0.26909298 0.71152955 2.20306325
0.77003181 1.96951497 1.54323363
0.13676748 0.65266055 -2.22388601
-1.85075533 1.94849253 -0.38714081
-2.01055098 0.56938881 -1.32905829
1.51287460 0.09698132 -1.83590364
-0.08308294 1.21358716 2.07794094
1.00752246 1.85644019 -1.51857853
1.35752952 1.79684389 -1.33124781
2.32344055 0.21832114 -0.91654670
1.54182720 1.02251732 -1.63308120
1.50772285 0.77475327 -1.73876274
1.43080950 1.08949852 -1.68785822
0.03200158 0.03734899 2.28433752
1.23101199 1.45763004 1.64491594
-0.13824458 2.56332183 -1.09890783
2.01412582 1.07763863 -1.11539948
-0.29359132 -2.90533328 0.12206549
-1.30889964 1.10060263 -1.76158035
-0.47502825 0.20796561 2.23926473
-2.13460636 1.59164381 -0.08522154
0.58775425 0.39291492 -2.20165086
-0.65972787 0.35087752 -2.18977475
0.31093818 2.87249660 0.34723201
-1.68998766 2.04498363 0.61348033
0.52392781 2.37029719 1.25720417
0.68147796 2.42641306 -1.12394297
-0.17404753 2.87393999 -0.41378284
2.30254126 0.67680204 0.81902474
1.46767402 0.30883700 -1.85074854
-2.16394973 0.30651504 1.17895222
-0.96774220 0.26800880 2.10323262
0.36634082 2.89330125 -0.13510269
0.25991213 0.45305473 2.24522948
-1.27555251 2.52905631 0.12418891
0.17132850 0.59247071 -2.23222280
-0.46607974 0.40135714 2.22411084
1.95688617 1.54381490 0.82819593
1.07898533 1.54496574 -1.68272257
-1.91279459 1.26597750 1.13999069
-2.28877831 0.07455824 -0.99763525
0.20455639 2.55672526 -1.09951746
-0.18366440 2.60171986 1.03697920
-2.18011379 1.31558526 -0.57941496
1.54007649 0.93704581 1.66606414
1.25824583 0.05065836 1.98548007
0.22093791 2.17996907 1.51359928
1.06942058 2.60386777 -0.41680482
-1.44347894 2.12230277 -0.89429772
1.70987070 1.82202172 0.91934490
-1.72668922 0.35416678 1.65584946
0.17323843 2.31933737 1.38685358
-0.27234045 -2.65703750 -0.93097895
-0.59034544 0.81583971 2.12926173
-2.41524863 0.28653657 0.68362659
0.50933230 1.25008643 2.01527023
1.45075285 2.21582079 0.73330909
1.59956956 0.66819721 1.69910383
-0.46361768 0.06518227 -2.24596763
-1.04105222 2.58715892 -0.52333087
2.03929687 0.14594381 -1.36204159
0.82506526 0.11929846 2.15930462
-0.67553723 2.14979768 -1.42901087
1.19173717 0.31709078 2.00403261
0.28232345 0.53776723 2.23153281
-2.04371452 1.72364008 0.21265724
0.56539941 0.14893562 -2.22453952
1.31446779 2.50781274 -0.05003399
-0.55099410 0.22379968 2.22366452
-2.17143869 0.79276556 1.01855910
-0.48931518 0.40558079 2.21984959
-0.32200041 1.32645309 2.01658750
-0.18507960 1.29068899 -2.04431081
0.44279337 2.71102548 -0.76894134
0.07976166 0.01791579 -2.28353834
2.29955506 0.81297201 0.74732453
-1.28362751 2.52552295 -0.09812186
0.37707302 1.63582730 -1.86456645
0.07345930 2.72509050 0.83671677
1.71662271 0.66045123 -1.60635853
-1.17751241 -0.01853654 2.02538204
1.15903413 2.55709386 -0.40288869
1.99704766 1.80840385 -0.11930885
0.79546833 1.96502197 -1.53665280
2.12220740 1.48738837 -0.49694470
0.18342812 0.14182629 2.27618885
-1.77631080 0.83762580 -1.50029755
-1.30809462 1.29193628 1.68145871
-1.72932136 0.11769650 -1.67444050
1.93512428 1.75079834 -0.57925880
-0.90064675 0.60518885 -2.08399367
-1.43787456 -0.95545518 -1.73178899
1.13556874 0.11059680 2.04284763
-1.93177176 0.92199498 1.30165851
0.20978987 0.28783947 -2.26578784
0.42107987 1.74181533 1.79742384
-1.62515879 1.96155369 -0.86637264
-0.85995245 -2.18665361 -1.30930173
0.69764203 0.73907381 2.12026048
-1.38490748 -2.34409142 0.57494122
-0.26808497 0.34996456 -2.25571465
2.07615232 0.28188625 -1.30269575
-0.24162485 2.20623970 -1.48692906
0.56407130 1.64579141 -1.82163250
-0.50050604 0.87038964 -2.13473082
1.59775221 2.20283556 -0.45696065
1.28048694 1.79311073 -1.39363623
2.45257664 0.12384910 0.60400295
-0.14946428 2.77071261 -0.73136789
1.84198105 1.77249527 -0.75828761
0.56600076 1.92064726 -1.64843118
0.29317534 1.07009768 2.11075711
1.17898524 0.17094359 -2.02041507
2.35005093 1.00438261 -0.39748564
-1.57954264 0.48758692 -1.75135851
-1.86181629 1.99302459 -0.09197418
-2.47101593 0.63101709 0.23965371
-2.53702903 0.18593390 -0.10508269
-1.67909169 2.00972390 -0.70017219
0.26550683 0.71353829 2.20297599
-1.77166617 1.81732452 0.82607502
2.07816219 0.40301454 1.28042769
-1.59976757 1.28133523 -1.46897709
0.15844859 1.15721774 2.09407187
2.12171268 1.45300710 0.55435133
-1.98126090 1.60688400 -0.69733387
-0.52401102 2.43896461 -1.17405486
1.02524376 0.75127566 -2.00793123
0.82028919 2.34098577 -1.15994072
-0.12270884 -0.96732211 -2.15392208
1.30485046 2.51469946 -0.01881367
0.60677439 1.04502857 2.06407785
-1.59155571 -2.28498578 0.02031505
1.48167372 0.46576950 -1.82236683
-2.16267180 0.82869643 1.01716352
-0.07213821 1.84093356 1.77571344
1.45961273 0.55016762 1.82239652
-1.13872802 1.94869113 1.36520994
-0.35107100 0.86434859 2.16006279
-0.07583690 0.75630099 -2.20628095
1.52602994 1.00130785 1.65310216
-0.12261336 0.08512139 2.28141880
-1.85569108 1.03031039 -1.34159541
1.68030763 0.21514916 -1.70758438
-0.93905491 0.59361541 -2.07242179
-2.22056699 -0.06298191 -1.11596370
-0.32268605 0.70808226 2.19785023
-0.34322628 0.50895298 -2.22870636
0.18984866 1.66205263 1.87374985
-0.07353621 0.01833569 -2.28367305
-0.78460985 -2.25985098 -1.27103364
0.78731459 1.41055954 -1.87358284
1.38869727 1.35166705 -1.59888136
-0.42239437 0.40315348 2.23094678
-1.83122802 2.03452706 0.00046250
-1.72161865 1.48232436 -1.22240424
-2.51504588 0.41739213 -0.12105811
-2.29264450 -0.29977003 0.96411359
-0.77394927 2.55703568 0.87040097
1.08644509 0.00583838 2.06639338
1.41778231 2.28607821 0.64809859
2.22878480 -1.30747056 0.41942039
1.83011889 1.33536243 -1.19767749
0.25654882 0.40676171 -2.25076675
-0.42231718 0.27880514 -2.24283457
0.08133132 0.09120146 2.28281522
-0.83434516 2.74063969 0.29805565
-1.37727523 2.45775223 0.12013607
-0.16365042 0.10979405 2.27830982
-0.40496260 2.23462629 -1.43237090
2.02554846 1.41112208 0.84002274
2.32999706 0.28347203 -0.89210695
-2.36028051 0.55729973 -0.73628193
-0.89502025 2.21119261 1.26443970
-0.60017008 0.79104990 -2.13278151
1.53277302 0.21594685 1.81650507
-1.03851581 -2.63566184 0.35008502
2.53733730 0.20732866 -0.07277203
0.06479722 -2.66897511 0.94068497
2.51565337 0.16052723 0.32321382
-0.49641570 0.37059000 -2.22216415
1.65240049 2.14475656 0.47037831
0.03908130 0.11292242 -2.28299332
-2.33566093 0.86123979 -0.61135864
-1.79807663 0.79280543 1.49434590
0.68635064 0.28629455 -2.18898416
1.27203298 0.95542878 1.83335602
1.61872232 1.38272524 1.39476871
1.72834194 1.72834373 -0.99676800
-1.53341639 1.18956602 1.56949377
-1.49729180 -2.06549716 0.90393275
-1.03772092 0.67533720 -2.01875567
-0.14169970 0.12269537 -2.27912235
0.81597233 2.77295065 0.07682923
0.38993591 2.24372530 -1.42704821
-0.68225354 1.70777023 1.75277162
2.51671672 0.14142887 0.32371759
1.80592608 1.78795159 -0.80352783
2.19988370 1.16985416 -0.69770312
-0.82819337 2.62988853 -0.67684120
1.72318363 0.61099380 1.61280227
1.21330833 1.00626755 1.84846056
-0.55938548 2.24199939 -1.38134933
-0.91311097 2.09812093 1.36731350
-0.53789920 0.69490683 -2.16621137
0.97944492 1.31883180 1.84073043
-1.68645740 1.26748538 -1.39653504
-1.32254529 2.14750242 1.00185764
0.12970398 0.31053317 2.26883340
2.28649974 1.13363636 -0.47365490
2.00028515 1.31357419 -0.97184181
-1.61577427 2.12601733 -0.60539049
-0.43028110 1.20221686 2.04737306
-2.43032384 0.10414410 -0.67257994
-1.45918298 2.34220839 0.40831155
1.13348794 0.66004950 -1.97958422
-0.17192835 2.25818014 -1.44670546
0.08954500 -2.01335192 -1.65749335
-0.43065059 1.67842126 -1.83223033
-0.50932181 1.93889129 -1.65018725
-0.92991281 0.56605059 2.08028841
0.05382971 0.21279021 -2.27810001
3 166 179 125
3 47 212 193
3 0 212 51
3 195 212 0
3 211 195 0
3 51 212 210
3 131 166 125
3 247 166 151
3 179 166 247
3 151 166 191
3 191 166 224
3 141 155 195
3 79 212 195
3 79 193 212
3 86 0 51
3 251 0 86
3 51 210 86
3 86 210 166
3 224 166 133
3 166 210 133
3 133 212 224
3 133 210 212
3 125 163 23
3 23 131 125
3 23 163 251
3 251 86 23
3 114 191 224
3 84 191 114
3 154 73 171
3 99 73 154
3 64 191 84
3 42 6 222
3 222 6 139
3 195 155 9
3 47 193 95
3 251 163 146
3 77 217 54
3 131 23 184
3 184 23 86
3 166 131 184
3 184 86 166
3 179 247 74
3 33 247 151
3 151 190 33
3 84 114 27
3 218 64 84
3 155 141 62
3 141 109 62
3 213 109 141
3 211 147 213
3 213 147 109
3 237 207 171
3 164 1 194
3 150 190 151
3 99 54 150
3 150 217 190
3 150 54 217
3 139 143 231
3 231 222 139
3 143 118 244
3 244 231 143
3 222 231 244
3 107 81 6
3 179 74 38
3 209 79 195
3 195 9 209
3 7 98 12
3 165 239 89
3 18 239 48
3 39 0 251
3 251 146 39
3 249 146 219
3 108 163 183
3 125 4 15
3 252 106 17
3 52 156 17
3 156 96 17
3 42 186 140
3 60 107 6
3 82 96 189
3 189 96 156
3 149 54 99
3 37 54 149
3 254 27 65
3 65 27 114
3 87 27 254
3 246 229 121
3 121 27 246
3 27 87 246
3 171 73 223
3 223 121 171
3 223 27 121
3 84 27 223
3 223 218 84
3 168 73 99
3 99 150 168
3 8 212 47
3 224 212 8
3 8 114 224
3 230 141 195
3 230 213 141
3 230 195 211
3 211 213 230
3 11 237 171
3 229 237 11
3 171 121 11
3 121 229 11
3 18 48 35
3 21 192 207
3 207 237 21
3 21 237 229
3 59 85 80
3 80 35 59
3 99 154 58
3 19 48 221
3 19 35 48
3 19 1 59
3 59 35 19
3 155 62 31
3 31 62 109
3 139 6 115
3 6 81 115
3 57 1 227
3 1 164 227
3 123 143 139
3 123 118 143
3 222 244 196
3 42 222 196
3 196 186 42
3 211 205 32
3 32 147 211
3 10 96 82
3 111 106 252
3 36 106 111
3 111 185 36
3 137 185 111
3 29 111 252
3 206 38 74
3 190 217 206
3 206 33 190
3 206 74 247
3 247 33 206
3 120 156 52
3 7 12 119
3 47 95 119
3 119 95 7
3 12 242 119
3 7 95 97
3 79 209 97
3 67 12 98
3 98 242 67
3 67 242 12
3 113 45 44
3 44 196 113
3 186 196 44
3 249 219 161
3 0 39 94
3 167 45 113
3 249 45 167
3 100 146 163
3 100 219 146
3 100 163 108
3 226 255 216
3 216 183 226
3 108 183 216
3 134 255 226
3 162 60 6
3 162 41 117
3 140 41 162
3 162 6 42
3 42 140 162
3 37 152 159
3 77 54 159
3 159 54 37
3 176 217 77
3 77 159 176
3 176 159 189
3 176 120 38
3 176 206 217
3 38 206 176
3 89 182 157
3 64 218 127
3 73 168 127
3 127 223 73
3 218 223 127
3 88 168 150
3 191 64 88
3 151 191 88
3 88 150 151
3 187 70 53
3 187 53 202
3 202 53 8
3 18 35 129
3 129 182 89
3 35 80 129
3 89 239 129
3 129 239 18
3 112 1 57
3 59 1 112
3 112 85 59
3 85 21 169
3 169 80 85
3 169 21 229
3 182 129 169
3 169 129 80
3 188 149 99
3 99 58 188
3 207 192 241
3 171 207 241
3 241 154 171
3 241 58 154
3 245 152 37
3 81 107 5
3 200 112 57
3 192 112 200
3 83 19 221
3 221 31 83
3 83 31 71
3 204 31 109
3 71 31 204
3 139 115 101
3 101 115 81
3 81 227 101
3 101 227 164
3 139 101 116
3 116 123 139
3 116 22 118
3 118 123 116
3 147 32 232
3 232 244 118
3 49 203 160
3 250 203 49
3 107 60 75
3 75 250 49
3 144 117 137
3 137 111 144
3 111 29 144
3 179 38 122
3 125 179 122
3 122 4 125
3 4 122 148
3 148 120 52
3 38 120 148
3 148 122 38
3 221 48 174
3 174 31 221
3 47 119 199
3 199 119 242
3 7 97 132
3 132 98 7
3 126 95 193
3 126 97 95
3 193 79 126
3 79 97 126
3 72 140 186
3 72 41 140
3 72 185 137
3 137 117 72
3 117 41 72
3 46 44 45
3 46 45 249
3 249 161 46
3 186 44 46
3 46 72 186
3 46 161 185
3 185 72 46
3 55 161 219
3 219 100 55
3 36 185 55
3 185 161 55
3 0 94 43
3 43 205 211
3 211 0 43
3 177 94 39
3 135 32 205
3 205 43 135
3 135 43 94
3 63 39 146
3 63 146 249
3 249 167 63
3 63 177 39
3 167 177 63
3 16 17 208
3 208 225 16
3 52 17 16
3 16 225 52
3 124 225 208
3 238 24 181
3 238 124 208
3 181 24 173
3 36 134 173
3 173 134 181
3 173 106 36
3 173 24 106
3 130 159 152
3 189 159 130
3 82 189 130
3 156 120 240
3 120 176 240
3 240 189 156
3 240 176 189
3 104 180 87
3 104 87 254
3 104 70 187
3 187 180 104
3 104 53 70
3 34 180 187
3 187 202 34
3 34 202 242
3 172 246 87
3 87 180 172
3 180 34 172
3 182 169 105
3 229 246 105
3 105 169 229
3 145 165 89
3 89 157 145
3 64 127 103
3 103 127 168
3 103 88 64
3 168 88 103
3 175 8 47
3 175 202 8
3 192 21 76
3 76 112 192
3 76 21 85
3 85 112 76
3 201 188 248
3 248 188 58
3 58 241 248
3 248 241 192
3 192 200 248
3 149 188 13
3 201 110 13
3 13 188 201
3 37 149 13
3 13 245 37
3 152 245 3
3 82 130 3
3 3 130 152
3 66 227 81
3 81 5 66
3 57 227 66
3 68 110 201
3 68 200 110
3 201 248 68
3 68 248 200
3 61 66 5
3 61 200 57
3 57 66 61
3 19 83 90
3 194 1 90
3 1 19 90
3 71 204 158
3 158 204 109
3 109 147 158
3 147 22 158
3 147 232 243
3 243 232 118
3 243 22 147
3 118 22 243
3 96 10 236
3 236 203 96
3 236 160 203
3 203 250 136
3 136 29 252
3 136 250 29
3 228 75 60
3 228 144 29
3 29 250 228
3 250 75 228
3 117 144 228
3 228 162 117
3 60 162 228
3 30 15 4
3 4 148 30
3 30 148 52
3 52 225 30
3 30 225 15
3 31 174 78
3 239 165 235
3 165 132 235
3 235 48 239
3 36 55 69
3 69 134 36
3 255 134 69
3 197 55 100
3 197 69 55
3 26 167 113
3 26 177 167
3 94 177 26
3 113 135 26
3 26 135 94
3 50 196 244
3 32 135 50
3 113 196 50
3 50 135 113
3 244 232 50
3 50 232 32
3 15 225 178
3 225 124 178
3 178 56 15
3 124 56 178
3 138 238 208
3 24 238 138
3 106 24 138
3 208 17 138
3 138 17 106
3 53 104 102
3 102 65 114
3 254 65 102
3 102 104 254
3 114 8 102
3 8 53 102
3 153 242 98
3 153 34 242
3 157 34 153
3 153 145 157
3 98 132 153
3 153 132 165
3 165 145 153
3 40 34 157
3 40 172 34
3 40 157 182
3 182 105 40
3 246 172 40
3 40 105 246
3 20 199 242
3 242 202 20
3 202 175 20
3 47 199 20
3 20 175 47
3 49 160 14
3 215 90 83
3 215 83 71
3 71 158 215
3 194 90 215
3 215 158 22
3 22 116 215
3 215 164 194
3 215 101 164
3 215 116 101
3 2 236 10
3 160 236 2
3 10 14 2
3 2 14 160
3 253 136 252
3 203 136 253
3 96 203 253
3 252 17 253
3 253 17 96
3 31 78 234
3 234 78 91
3 155 31 234
3 234 9 155
3 234 209 9
3 234 91 209
3 25 132 97
3 25 235 132
3 25 97 209
3 128 100 108
3 128 197 100
3 108 216 128
3 128 216 255
3 255 69 128
3 69 197 128
3 124 238 28
3 28 56 124
3 226 183 92
3 92 183 163
3 92 163 125
3 125 15 92
3 15 56 92
3 49 14 142
3 142 14 61
3 142 61 5
3 142 75 49
3 142 5 107
3 107 75 142
3 110 200 93
3 200 61 93
3 93 13 110
3 245 13 93
3 93 3 245
3 82 3 93
3 235 25 220
3 220 78 174
3 220 174 48
3 48 235 220
3 198 134 226
3 226 92 198
3 181 134 198
3 198 92 56
3 233 14 10
3 233 10 82
3 82 93 233
3 61 14 233
3 233 93 61
3 170 220 25
3 209 91 170
3 170 25 209
3 91 78 170
3 78 220 170
3 181 198 214
3 214 238 181
3 214 28 238
3 56 28 214
3 214 198 56